
    <svg width="0.2412999999999954" height="0.23050000000000637" xmlns="http://www.w3.org/2000/svg" xmlns:xlink="http://www.w3.org/1999/xlink" style="transform: scale(1, -1)">
        <polygon points="0.04389999999999361,0.010000000000005116 0.045000000000001705,0.009700000000002262 0.04449999999999932,0.008600000000001273 0.043400000000005434,0.00910000000000366 0.04389999999999361,0.010000000000005116 "></polygon><polygon points="0.02360000000000184,0.02020000000000266 0.024500000000003297,0.01860000000000639 0.022499999999993747,0.013300000000000978 0.02589999999999293,0.01020000000000465 0.029200000000003,0.011400000000001853 0.03109999999999502,0.0066000000000059345 0.03279999999999461,0.008600000000001273 0.036100000000004684,0.007200000000004536 0.044699999999991746,0.007699999999999818 0.05559999999999832,0.014100000000006219 0.058099999999996044,0.020800000000001262 0.06749999999999545,0.021600000000006503 0.07450000000000045,0.026099999999999568 0.08169999999999789,0.027700000000002944 0.09279999999999688,0.035000000000003695 0.09499999999999886,0.03829999999999956 0.10060000000000002,0.03750000000000142 0.10389999999999588,0.03860000000000241 0.10469999999999402,0.0397000000000034 0.10200000000000387,0.04140000000000299 0.10859999999999559,0.042200000000001125 0.10949999999999704,0.045000000000001705 0.10249999999999204,0.04470000000000596 0.09999999999999432,0.042200000000001125 0.09359999999999502,0.04250000000000398 0.08950000000000102,0.04550000000000409 0.08809999999999718,0.043000000000006366 0.0858999999999952,0.04520000000000124 0.08169999999999789,0.04470000000000596 0.0799999999999983,0.04910000000000281 0.08109999999999218,0.05220000000000624 0.07750000000000057,0.054100000000005366 0.07389999999999475,0.05190000000000339 0.07500000000000284,0.054999999999999716 0.07089999999999463,0.056100000000000705 0.07059999999999889,0.05969999999999942 0.0671999999999997,0.06300000000000239 0.07139999999999702,0.06080000000000041 0.08109999999999218,0.06160000000000565 0.09309999999999263,0.05860000000000554 0.10609999999999786,0.05969999999999942 0.11090000000000089,0.0619000000000014 0.11469999999999914,0.06110000000000326 0.1303000000000054,0.06550000000000011 0.14029999999999632,0.07110000000000127 0.14339999999999975,0.07660000000000622 0.14529999999999177,0.07750000000000057 0.14390000000000214,0.07910000000000394 0.14860000000000184,0.0858000000000061 0.14560000000000173,0.08689999999999998 0.15000000000000568,0.09390000000000498 0.15030000000000143,0.0969000000000051 0.16389999999999816,0.1022000000000034 0.16499999999999204,0.10520000000000351 0.16949999999999932,0.10770000000000124 0.17220000000000368,0.113900000000001 0.17560000000000286,0.11140000000000327 0.17199999999999704,0.11020000000000607 0.17199999999999704,0.10890000000000555 0.17669999999999675,0.1069000000000031 0.17919999999999447,0.10940000000000083 0.18059999999999832,0.1086000000000027 0.17839999999999634,0.10330000000000439 0.1811000000000007,0.10050000000000381 0.1799999999999926,0.09830000000000183 0.18250000000000455,0.0952000000000055 0.18529999999999802,0.09660000000000224 0.18949999999999534,0.09270000000000067 0.19610000000000127,0.0911000000000044 0.1992000000000047,0.08750000000000568 0.20810000000000173,0.08910000000000196 0.2160999999999973,0.09500000000000597 0.21890000000000498,0.09080000000000155 0.21250000000000568,0.09080000000000155 0.21059999999999945,0.08800000000000097 0.20589999999999975,0.08750000000000568 0.20109999999999673,0.08389999999999986 0.198599999999999,0.0847000000000051 0.18420000000000414,0.07860000000000156 0.17669999999999675,0.07330000000000325 0.17249999999999943,0.06800000000000495 0.16750000000000398,0.0671999999999997 0.14919999999999334,0.054999999999999716 0.14610000000000412,0.05580000000000496 0.14529999999999177,0.05190000000000339 0.13589999999999236,0.04770000000000607 0.12720000000000198,0.0391000000000048 0.12089999999999179,0.03550000000000608 0.11560000000000059,0.028900000000000148 0.10719999999999175,0.023300000000006094 0.07920000000000016,0.011600000000001387 0.06860000000000355,0.004699999999999704 0.06640000000000157,0.0058000000000006935 0.06419999999999959,0.0027000000000043656 0.05339999999999634,0.0 0.05089999999999861,0.0 0.04970000000000141,0.0016000000000033765 0.03999999999999204,0.002200000000001978 0.02559999999999718,0.001100000000000989 0.01839999999999975,0.004699999999999704 0.010000000000005116,0.012199999999999989 0.004199999999997317,0.028900000000000148 0.0,0.035000000000003695 0.007199999999997431,0.038900000000005264 0.012199999999992883,0.044400000000003104 0.012000000000000455,0.050499999999999545 0.008600000000001273,0.056100000000000705 0.004199999999997317,0.058900000000001285 0.0049999999999954525,0.05969999999999942 0.015299999999996317,0.057200000000001694 0.01859999999999218,0.0625 0.026099999999999568,0.0666000000000011 0.026700000000005275,0.06550000000000011 0.02169999999999561,0.06080000000000041 0.022800000000003706,0.057200000000001694 0.025300000000001432,0.05750000000000455 0.030900000000002592,0.060000000000002274 0.03640000000000043,0.06610000000000582 0.03810000000000002,0.06440000000000623 0.035899999999998045,0.06020000000000181 0.030000000000001137,0.05799999999999983 0.02719999999999345,0.054100000000005366 0.03109999999999502,0.050499999999999545 0.026700000000005275,0.05000000000000426 0.024500000000003297,0.04690000000000083 0.01999999999999602,0.04579999999999984 0.017200000000002547,0.037700000000000955 0.019199999999997885,0.035000000000003695 0.01279999999999859,0.03140000000000498 0.017799999999994043,0.02750000000000341 0.022800000000003706,0.027200000000000557 0.02589999999999293,0.025200000000005218 0.037499999999994316,0.025500000000000966 0.04059999999999775,0.023300000000006094 0.03359999999999275,0.021399999999999864 0.026099999999999568,0.024399999999999977 0.02389999999999759,0.02300000000000324 0.02360000000000184,0.02020000000000266 "></polygon><polygon points="0.0519999999999925,0.02580000000000382 0.0519999999999925,0.027200000000000557 0.05310000000000059,0.0286000000000044 0.054199999999994475,0.026600000000001955 0.0519999999999925,0.02580000000000382 "></polygon><polygon points="0.07089999999999463,0.030000000000001137 0.07089999999999463,0.028300000000001546 0.06359999999999388,0.02580000000000382 0.06090000000000373,0.02909999999999968 0.061399999999991905,0.030500000000003524 0.06470000000000198,0.028300000000001546 0.07089999999999463,0.030000000000001137 "></polygon><polygon points="0.0910999999999973,0.038400000000002876 0.08549999999999613,0.0409000000000006 0.08549999999999613,0.04210000000000491 0.09120000000000061,0.039500000000003865 0.0910999999999973,0.038400000000002876 "></polygon><polygon points="0.05719999999999459,0.04270000000000351 0.06109999999999616,0.040500000000001535 0.06699999999999307,0.04000000000000625 0.07219999999999516,0.041600000000002524 0.07309999999999661,0.039400000000000546 0.07559999999999434,0.03860000000000241 0.07750000000000057,0.04140000000000299 0.08109999999999218,0.03829999999999956 0.08969999999999345,0.036100000000004684 0.08839999999999293,0.033300000000004104 0.08559999999999945,0.032200000000003115 0.080600000000004,0.037700000000000955 0.07840000000000202,0.035000000000003695 0.07670000000000243,0.03640000000000043 0.07169999999999277,0.03580000000000183 0.07110000000000127,0.038900000000005264 0.06810000000000116,0.03359999999999985 0.06390000000000384,0.033300000000004104 0.059499999999999886,0.03520000000000323 0.0625,0.03640000000000043 0.06279999999999575,0.0397000000000034 0.058099999999996044,0.03720000000000567 0.05839999999999179,0.04000000000000625 0.054500000000004434,0.04250000000000398 0.05389999999999873,0.043300000000002115 0.05719999999999459,0.04270000000000351 "></polygon><polygon points="0.07450000000000045,0.04250000000000398 0.07339999999999236,0.043300000000002115 0.07779999999999632,0.04770000000000607 0.07779999999999632,0.05270000000000152 0.07920000000000016,0.05300000000000438 0.07949999999999591,0.04660000000000508 0.07670000000000243,0.04250000000000398 0.07450000000000045,0.04250000000000398 "></polygon><polygon points="0.056100000000000705,0.08140000000000214 0.05639999999999645,0.07939999999999969 0.05920000000000414,0.08270000000000266 0.06029999999999802,0.08190000000000452 0.05700000000000216,0.07800000000000296 0.06109999999999616,0.0736000000000061 0.06029999999999802,0.07250000000000512 0.05389999999999873,0.0777000000000001 0.046999999999997044,0.07250000000000512 0.04529999999999745,0.06940000000000168 0.04590000000000316,0.06580000000000297 0.03839999999999577,0.06610000000000582 0.052499999999994884,0.08330000000000126 0.056100000000000705,0.08389999999999986 0.056100000000000705,0.08140000000000214 "></polygon><polygon points="0.22749999999999204,0.10000000000000142 0.22690000000000055,0.09720000000000084 0.2248000000000019,0.10000000000000142 0.2231000000000023,0.09940000000000282 0.2224999999999966,0.09609999999999985 0.21859999999999502,0.09330000000000638 0.22339999999999804,0.10140000000000526 0.22639999999999816,0.10190000000000055 0.22749999999999204,0.10000000000000142 "></polygon><polygon points="0.23919999999999675,0.10079999999999956 0.24089999999999634,0.10390000000000299 0.2412999999999954,0.10390000000000299 0.2407000000000039,0.1010000000000062 0.23799999999999955,0.0987000000000009 0.23919999999999675,0.10079999999999956 "></polygon><polygon points="0.23560000000000514,0.10200000000000387 0.23470000000000368,0.09890000000000043 0.23260000000000502,0.10110000000000241 0.23000000000000398,0.09860000000000468 0.22889999999999588,0.09940000000000282 0.23579999999999757,0.10500000000000398 0.23560000000000514,0.10200000000000387 "></polygon><polygon points="0.16089999999999804,0.10360000000000014 0.16249999999999432,0.10500000000000398 0.16339999999999577,0.10440000000000538 0.16280000000000427,0.10330000000000439 0.16089999999999804,0.10360000000000014 "></polygon><polygon points="0.20250000000000057,0.1308000000000007 0.198599999999999,0.12770000000000437 0.20250000000000057,0.12470000000000425 0.2113999999999976,0.1238000000000028 0.21309999999999718,0.1255000000000024 0.216700000000003,0.12330000000000041 0.22109999999999275,0.12300000000000466 0.21779999999999688,0.12519999999999953 0.21590000000000487,0.1302000000000021 0.2184000000000026,0.12770000000000437 0.2224999999999966,0.12770000000000437 0.22809999999999775,0.12519999999999953 0.2383999999999986,0.1255000000000024 0.24089999999999634,0.12080000000000268 0.23619999999999663,0.11299999999999955 0.23340000000000316,0.11470000000000624 0.2283999999999935,0.11360000000000525 0.22749999999999204,0.11020000000000607 0.23029999999999973,0.10770000000000124 0.23260000000000502,0.11110000000000042 0.23449999999999704,0.11110000000000042 0.23199999999999932,0.10440000000000538 0.22860000000000014,0.1016000000000048 0.22390000000000043,0.1086000000000027 0.22639999999999816,0.11220000000000141 0.22159999999999513,0.11440000000000339 0.21949999999999648,0.1127000000000038 0.2155999999999949,0.11500000000000199 0.205600000000004,0.11640000000000583 0.2039000000000044,0.11410000000000053 0.2039000000000044,0.1075000000000017 0.20199999999999818,0.10660000000000025 0.20000000000000284,0.11580000000000013 0.19440000000000168,0.11749999999999972 0.19140000000000157,0.11580000000000013 0.19060000000000343,0.1133000000000024 0.18529999999999802,0.11080000000000467 0.1828000000000003,0.11160000000000281 0.18059999999999832,0.10970000000000368 0.18200000000000216,0.11280000000000001 0.1799999999999926,0.11660000000000537 0.19230000000000302,0.12160000000000082 0.19419999999999504,0.1244000000000014 0.1821999999999946,0.12000000000000455 0.1747000000000014,0.11410000000000053 0.17140000000000555,0.11520000000000152 0.1758999999999986,0.12110000000000554 0.19889999999999475,0.13390000000000413 0.21110000000000184,0.14440000000000452 0.21469999999999345,0.14410000000000167 0.21389999999999532,0.14300000000000068 0.23109999999999786,0.12690000000000623 0.22690000000000055,0.1274000000000015 0.21469999999999345,0.13440000000000651 0.20250000000000057,0.1308000000000007 "></polygon><polygon points="0.12000000000000455,0.22920000000000584 0.11889999999999645,0.227800000000002 0.11780000000000257,0.22860000000000014 0.11969999999999459,0.23050000000000637 0.12000000000000455,0.22920000000000584 "></polygon>
    </svg>
    