
    <svg width="9.368300000000001" height="9.1265" xmlns="http://www.w3.org/2000/svg" xmlns:xlink="http://www.w3.org/1999/xlink" style="transform: scale(1, -1)">
        <polygon points="6.165900000000001,2.215399999999999 6.0074000000000005,2.183 5.964400000000001,2.157899999999998 5.917100000000001,2.1617999999999995 5.9114,2.153600000000001 5.8583,2.1500999999999983 5.847899999999999,2.151799999999998 5.851199999999999,2.1449 5.8515000000000015,2.1327999999999996 5.844200000000001,2.126999999999999 5.842400000000001,2.117000000000001 5.863199999999999,2.0988000000000007 5.858499999999999,2.085699999999999 5.859300000000001,2.0810999999999993 5.862300000000001,2.0802999999999976 5.8673,2.0838 5.869499999999999,2.0802999999999976 5.8733,2.078199999999999 5.8749,2.0683000000000007 5.873899999999999,2.0609 5.876799999999999,2.055299999999999 5.876200000000001,2.051199999999998 5.881399999999999,2.0482999999999976 5.882899999999999,2.031399999999998 5.8855,2.026299999999999 5.8888,2.024799999999999 5.8847999999999985,2.0196000000000005 5.879999999999999,2.020699999999998 5.8766,2.0189999999999984 5.8764,2.009599999999999 5.880600000000001,2.0046999999999997 5.873999999999999,2.0037999999999982 5.8725999999999985,2.001999999999999 5.881799999999998,1.9930999999999983 5.8782,1.9898999999999987 5.872499999999999,1.9883999999999986 5.870699999999999,1.9860000000000007 5.860800000000001,1.9830000000000005 5.861799999999999,1.9811999999999976 5.840900000000001,1.9269999999999996 5.729099999999999,1.6503999999999976 5.6998,1.616299999999999 5.688199999999998,1.531299999999998 5.659800000000001,1.4329 5.5809,1.2684999999999995 5.577500000000001,1.2685999999999993 5.566700000000001,1.2598999999999982 5.557600000000001,1.2575000000000003 5.5344000000000015,1.241699999999998 5.531099999999999,1.2372999999999976 5.5275,1.2363 5.513000000000002,1.2226 5.507100000000001,1.2212999999999994 5.5001,1.2165999999999997 5.488499999999998,1.2184999999999988 5.485299999999999,1.2133000000000003 5.48,1.2112999999999978 5.4695,1.2113999999999976 5.4548999999999985,1.197099999999999 5.451599999999999,1.197099999999999 5.4460000000000015,1.1935000000000002 5.4238,1.1758999999999986 5.407299999999999,1.168800000000001 5.386399999999998,1.1628000000000007 5.3782,1.157 5.371700000000001,1.154799999999998 5.366800000000001,1.1494 5.351600000000001,1.1455999999999982 5.347000000000001,1.140699999999999 5.3420999999999985,1.1384000000000007 5.334099999999999,1.1362999999999985 5.328700000000001,1.1374999999999993 5.3195000000000014,1.1344999999999992 5.299399999999999,1.1416000000000004 5.2852,1.1418999999999997 5.274799999999999,1.1392999999999986 5.264800000000001,1.1407999999999987 5.261399999999998,1.1387 5.252300000000002,1.139800000000001 5.2485,1.1417000000000002 5.2239,1.1437999999999988 5.219799999999999,1.1414000000000009 5.2155999999999985,1.1440999999999981 5.209099999999999,1.1447000000000003 5.206900000000001,1.1477000000000004 5.203099999999999,1.1488999999999976 5.1922,1.1448 5.183599999999998,1.1445000000000007 5.176100000000002,1.141099999999998 5.172599999999999,1.141099999999998 5.168700000000001,1.1418 5.161100000000001,1.1477000000000004 5.148399999999999,1.1477000000000004 5.142600000000002,1.1509 5.134899999999998,1.1495999999999995 5.127099999999999,1.1446000000000005 5.121400000000001,1.1434999999999995 5.108699999999999,1.152899999999999 5.1099,1.1585999999999999 5.1022,1.1592999999999982 5.1021,1.161200000000001 5.1052,1.1647999999999996 5.1042999999999985,1.1662 5.0992999999999995,1.1647999999999996 5.087,1.1663999999999994 5.084299999999999,1.1689000000000007 5.0809,1.1768999999999998 5.076899999999998,1.1759999999999984 5.0716,1.1709999999999994 5.061699999999998,1.171800000000001 5.053899999999999,1.1759999999999984 5.0516000000000005,1.1812000000000005 5.037500000000001,1.1850999999999985 5.0229,1.1762999999999977 5.0184999999999995,1.1768999999999998 5.014700000000001,1.181799999999999 5.000599999999999,1.177699999999998 4.9998000000000005,1.1760999999999981 5.003799999999998,1.1714999999999982 5.003599999999999,1.1685999999999979 4.989699999999999,1.1618999999999993 4.983899999999998,1.1529999999999987 4.975300000000001,1.1533999999999978 4.9666999999999994,1.1411999999999978 4.961500000000001,1.1411999999999978 4.9544,1.1469999999999985 4.951799999999999,1.1449999999999996 4.953800000000001,1.1389999999999993 4.9511,1.1381999999999977 4.9514,1.1356000000000002 4.945799999999998,1.1326999999999998 4.9338000000000015,1.130700000000001 4.927800000000001,1.1195999999999984 4.920300000000001,1.1173000000000002 4.915800000000001,1.1228999999999978 4.912800000000001,1.1228999999999978 4.9131,1.1098 4.907800000000002,1.1088999999999984 4.904699999999998,1.1046999999999976 4.897600000000001,1.1046999999999976 4.8963,1.1013999999999982 4.898900000000001,1.097999999999999 4.896899999999999,1.096499999999999 4.8857,1.100200000000001 4.875299999999999,1.0981999999999985 4.869599999999998,1.1019000000000005 4.8443000000000005,1.0980999999999987 4.833500000000001,1.0919999999999987 4.8246,1.095600000000001 4.8184000000000005,1.0902999999999992 4.8161999999999985,1.0912000000000006 4.8156,1.0957000000000008 4.813199999999998,1.0969999999999978 4.8111,1.0945 4.810500000000001,1.0888999999999989 4.802600000000002,1.0885999999999996 4.794699999999999,1.0820000000000007 4.787500000000001,1.0898000000000003 4.7837,1.0900999999999996 4.778400000000001,1.0875999999999983 4.7673999999999985,1.0945 4.761700000000001,1.0962999999999994 4.7559000000000005,1.0959000000000003 4.751999999999999,1.0928000000000004 4.748100000000001,1.0931999999999995 4.741800000000001,1.094899999999999 4.736699999999999,1.0996999999999986 4.728999999999999,1.1033000000000008 4.711600000000001,1.101499999999998 4.6966,1.096 4.6859,1.0839999999999996 4.681899999999999,1.0836000000000006 4.6789999999999985,1.0881000000000007 4.675699999999999,1.0893999999999977 4.664300000000001,1.0889999999999986 4.6402,1.0996999999999986 4.608899999999998,1.1067 4.5989,1.113699999999998 4.589400000000001,1.1174999999999997 4.578099999999999,1.1298999999999992 4.569400000000002,1.134599999999999 4.561499999999999,1.1363999999999983 4.5504999999999995,1.134599999999999 4.5443,1.1353000000000009 4.4908,1.1560999999999986 4.4719000000000015,1.1601 4.470600000000001,1.1613000000000007 4.470500000000001,1.1676000000000002 4.467400000000001,1.1697999999999986 4.464700000000001,1.1692 4.463000000000001,1.1646999999999998 4.4587,1.164200000000001 4.4467,1.1737000000000002 4.444299999999998,1.1727999999999987 4.443899999999999,1.1679999999999993 4.441400000000002,1.1663999999999994 4.435400000000001,1.173099999999998 4.4329,1.1732999999999976 4.432400000000001,1.1615000000000002 4.425999999999998,1.1557999999999993 4.410900000000002,1.1615000000000002 4.4054,1.1601999999999997 4.4038,1.1469999999999985 4.4018000000000015,1.1450999999999993 4.397300000000001,1.1453999999999986 4.393899999999999,1.1513999999999989 4.3916,1.1524999999999999 4.3858,1.1488999999999976 4.381599999999999,1.1427999999999976 4.375,1.1433 4.3645,1.1480999999999995 4.354900000000001,1.1501999999999981 4.350200000000001,1.1572999999999993 4.339400000000001,1.1616999999999997 4.332999999999998,1.1698999999999984 4.3248999999999995,1.1747999999999976 4.322500000000002,1.1796000000000006 4.322600000000001,1.1846999999999994 4.327999999999999,1.193200000000001 4.3248999999999995,1.1971999999999987 4.3149000000000015,1.1933000000000007 4.300799999999999,1.1930999999999976 4.288399999999999,1.1811000000000007 4.285299999999999,1.1808999999999976 4.279299999999999,1.188600000000001 4.2783000000000015,1.1929999999999978 4.283200000000001,1.1979000000000006 4.291,1.2004999999999981 4.290700000000001,1.2088 4.288399999999999,1.213000000000001 4.284700000000001,1.2140999999999984 4.278700000000001,1.2105999999999995 4.2730999999999995,1.202099999999998 4.270199999999999,1.200599999999998 4.2658999999999985,1.1990999999999978 4.2608999999999995,1.1999999999999993 4.258900000000001,1.2045999999999992 4.2607,1.215399999999999 4.247299999999999,1.2225000000000001 4.2516,1.2326999999999977 4.247399999999999,1.235199999999999 4.242000000000001,1.2341999999999977 4.236599999999999,1.2372999999999976 4.233799999999999,1.2446999999999981 4.2265000000000015,1.2515 4.2277999999999984,1.2598999999999982 4.226800000000001,1.263300000000001 4.2151,1.263099999999998 4.2074,1.2750999999999983 4.200099999999999,1.2780999999999985 4.1951,1.285499999999999 4.191800000000001,1.2868999999999993 4.1845,1.2860999999999976 4.179500000000001,1.2805 4.1708,1.2761999999999993 4.159500000000001,1.2772000000000006 4.1569,1.2819000000000003 4.162299999999998,1.288999999999998 4.1631,1.2920999999999978 4.160599999999999,1.2966999999999977 4.1571,1.2990999999999993 4.152699999999999,1.2988 4.140599999999999,1.293099999999999 4.138999999999999,1.2909000000000006 4.140699999999999,1.2820999999999998 4.1386,1.2791999999999994 4.1264,1.2794999999999987 4.114999999999998,1.2756000000000007 4.1042999999999985,1.2768999999999977 4.0929,1.2720999999999982 4.085799999999999,1.2638999999999996 4.0808,1.266300000000001 4.0776,1.2764999999999986 4.0737999999999985,1.2775999999999996 4.0676999999999985,1.276299999999999 4.064299999999999,1.2720999999999982 4.0676999999999985,1.2629999999999981 4.0672,1.2589000000000006 4.0657,1.2568999999999981 4.058599999999998,1.255399999999998 4.051500000000001,1.2563999999999993 4.042300000000001,1.2622999999999998 4.0356999999999985,1.2703999999999986 4.029900000000001,1.2729999999999997 4.026700000000002,1.270900000000001 4.0274,1.2650000000000006 4.0258,1.262599999999999 4.017099999999999,1.2615999999999978 4.009,1.256499999999999 4.0051999999999985,1.2560000000000002 4.0029,1.2589000000000006 4.003,1.2727000000000004 4.0123,1.2786000000000008 4.0120000000000005,1.2827999999999982 4.0036999999999985,1.2870999999999988 3.9837999999999987,1.2856999999999985 3.9773999999999994,1.2912 3.9726,1.2925000000000004 3.966000000000001,1.291999999999998 3.9609999999999985,1.283999999999999 3.9528999999999996,1.2856999999999985 3.950800000000001,1.2844999999999978 3.9522000000000013,1.2738999999999976 3.9499999999999993,1.2705999999999982 3.946200000000001,1.2688999999999986 3.9357000000000006,1.2703999999999986 3.9285999999999994,1.2690999999999981 3.9185000000000016,1.2777999999999992 3.9044999999999987,1.279799999999998 3.9015999999999984,1.2849000000000004 3.907,1.3018 3.9025,1.305299999999999 3.888200000000001,1.3086999999999982 3.8827999999999996,1.3124000000000002 3.880700000000001,1.3158999999999992 3.882200000000001,1.3253999999999984 3.8801999999999985,1.3298999999999985 3.867799999999999,1.3353000000000002 3.856200000000001,1.3344999999999985 3.8445,1.336500000000001 3.8397000000000006,1.3393999999999977 3.8375999999999983,1.343 3.8381000000000007,1.345600000000001 3.8420999999999985,1.3499999999999979 3.843399999999999,1.3552999999999997 3.8352000000000004,1.3661999999999992 3.8306000000000004,1.3658000000000001 3.8245000000000005,1.3588999999999984 3.820499999999999,1.3567 3.8160999999999987,1.357099999999999 3.8084999999999987,1.362099999999998 3.8054999999999986,1.3673000000000002 3.8049,1.3740999999999985 3.8079,1.3795000000000002 3.8145999999999987,1.3833999999999982 3.821200000000001,1.3902 3.8210000000000015,1.394400000000001 3.816600000000001,1.3975000000000009 3.8066999999999993,1.3988999999999976 3.7993999999999986,1.3980999999999995 3.7921000000000014,1.3949999999999996 3.785499999999999,1.3948 3.776399999999999,1.4036000000000008 3.7628999999999984,1.4040999999999997 3.761099999999999,1.4069000000000003 3.7635000000000005,1.4174000000000007 3.7605000000000004,1.4207 3.7531999999999996,1.4236000000000004 3.7514000000000003,1.425699999999999 3.7521999999999984,1.4303999999999988 3.7575000000000003,1.4351999999999983 3.757999999999999,1.438600000000001 3.748000000000001,1.4449000000000005 3.7338999999999984,1.4487999999999985 3.728999999999999,1.4608999999999988 3.722200000000001,1.4610999999999983 3.709299999999999,1.4473999999999982 3.7025000000000006,1.4449000000000005 3.7011000000000003,1.4471999999999987 3.7018999999999984,1.4560999999999993 3.696300000000001,1.4617000000000004 3.6895999999999987,1.4635999999999996 3.6796000000000006,1.459900000000001 3.6720000000000006,1.4613999999999976 3.6666999999999987,1.4652999999999992 3.6677999999999997,1.4719999999999978 3.6765000000000008,1.4799000000000007 3.6683999999999983,1.4911999999999992 3.6595000000000013,1.4918999999999976 3.6575999999999986,1.4887999999999977 3.657399999999999,1.4802 3.654,1.476700000000001 3.644400000000001,1.4743999999999993 3.6374999999999993,1.4756999999999998 3.6340000000000003,1.4818999999999996 3.6327,1.4963999999999977 3.628499999999999,1.4999000000000002 3.6152000000000015,1.5017999999999994 3.610900000000001,1.5051999999999985 3.6127000000000002,1.5096999999999987 3.6182000000000016,1.5136000000000003 3.6203000000000003,1.5173999999999985 3.6191999999999993,1.520900000000001 3.6159999999999997,1.5233999999999988 3.6066000000000003,1.5256000000000007 3.602599999999999,1.5227000000000004 3.5988000000000007,1.5122 3.594899999999999,1.5104000000000006 3.5893000000000015,1.5107999999999997 3.5860999999999983,1.5124999999999993 3.5843999999999987,1.515699999999999 3.5843999999999987,1.5317000000000007 3.5673999999999992,1.537399999999998 3.5573000000000015,1.5355999999999987 3.5562000000000005,1.540700000000001 3.561399999999999,1.549599999999998 3.5595999999999997,1.5525999999999982 3.548400000000001,1.5551999999999992 3.5340999999999987,1.5548000000000002 3.5290999999999997,1.5639000000000003 3.524000000000001,1.5671999999999997 3.5016,1.555299999999999 3.4983000000000004,1.5546000000000006 3.4962000000000018,1.555699999999998 3.496600000000001,1.5643999999999991 3.500399999999999,1.5753999999999984 3.494299999999999,1.5893999999999977 3.4829000000000008,1.596899999999998 3.4784000000000006,1.6087999999999987 3.4723000000000006,1.609099999999998 3.464600000000001,1.606300000000001 3.4609999999999985,1.6067999999999998 3.4581000000000017,1.6096000000000004 3.4578999999999986,1.6129999999999995 3.467500000000001,1.6257999999999981 3.4682999999999993,1.6278000000000006 3.466899999999999,1.6301999999999985 3.4482999999999997,1.6324000000000005 3.4421999999999997,1.6302999999999983 3.4335999999999984,1.6127000000000002 3.4235000000000007,1.5980999999999987 3.4198999999999984,1.5935999999999986 3.414300000000001,1.5915 3.411200000000001,1.592299999999998 3.403500000000001,1.6000999999999976 3.3840000000000003,1.6037999999999997 3.368400000000001,1.6038999999999994 3.3622000000000014,1.6194999999999986 3.355599999999999,1.6221999999999994 3.3385999999999996,1.6204 3.3241000000000014,1.6148999999999987 3.319700000000001,1.6176999999999992 3.3155,1.624600000000001 3.3112999999999992,1.6254999999999988 3.3089000000000013,1.6244999999999976 3.3039999999999985,1.6161999999999992 3.2950000000000017,1.613199999999999 3.2897,1.6161999999999992 3.2849000000000004,1.6277000000000008 3.2779999999999987,1.6331999999999987 3.2600000000000016,1.627600000000001 3.2475999999999985,1.6318999999999981 3.2346000000000004,1.6265 3.217600000000001,1.6333999999999982 3.2119999999999997,1.6339000000000006 3.2066000000000017,1.6311 3.1942999999999984,1.630399999999998 3.1875,1.6282999999999994 3.1731000000000016,1.6175999999999995 3.169599999999999,1.607599999999998 3.1656000000000013,1.6034000000000006 3.1479999999999997,1.604099999999999 3.1426000000000016,1.5991 3.1388,1.5924999999999976 3.134499999999999,1.5899 3.128499999999999,1.5908999999999978 3.1136000000000017,1.6037 3.1068999999999996,1.6028999999999982 3.0977999999999994,1.5960999999999999 3.0884,1.5936999999999983 3.087900000000001,1.5823 3.084299999999999,1.5777 3.0787000000000013,1.5752999999999986 3.0664000000000016,1.5777 3.0596999999999994,1.5812999999999988 3.054400000000001,1.5886999999999993 3.0561000000000007,1.595399999999998 3.062000000000001,1.6038999999999994 3.0615999999999985,1.612400000000001 3.058399999999999,1.6174 3.0516000000000005,1.6164999999999985 3.0447999999999986,1.6058999999999983 3.0307999999999993,1.5944000000000003 3.0281999999999982,1.5947999999999993 3.027799999999999,1.597100000000001 3.0206000000000017,1.6046999999999976 3.010300000000001,1.6100999999999992 3.0069000000000017,1.607800000000001 3.0061,1.603200000000001 3.013300000000001,1.5782999999999987 3.0112999999999985,1.5714000000000006 3.0032999999999994,1.5673999999999992 2.9880999999999993,1.5691999999999986 2.9779000000000018,1.5673999999999992 2.9726999999999997,1.5600999999999985 2.974599999999999,1.5549 2.973700000000001,1.5486000000000004 2.9761999999999986,1.543099999999999 2.9764000000000017,1.5366 2.969999999999999,1.5261999999999993 2.930900000000001,1.500899999999998 2.9191000000000003,1.4951000000000008 2.91,1.4849999999999994 2.8985999999999983,1.4521999999999977 2.8857,1.4389000000000003 2.8881000000000014,1.4301999999999992 2.9007000000000005,1.4259999999999984 2.900400000000001,1.4204000000000008 2.8941000000000017,1.4185999999999979 2.8825000000000003,1.4234000000000009 2.8638000000000012,1.427699999999998 2.8515000000000015,1.4231999999999978 2.846399999999999,1.4170999999999978 2.8476999999999997,1.4106999999999985 2.8572999999999986,1.4044999999999987 2.8602999999999987,1.4002999999999979 2.8520000000000003,1.3862999999999985 2.8535000000000004,1.3737999999999992 2.852599999999999,1.3718000000000004 2.8400999999999996,1.3626000000000005 2.826699999999999,1.3350000000000009 2.8148000000000017,1.3284999999999982 2.8141,1.3248999999999995 2.818200000000001,1.320999999999998 2.8263999999999996,1.3177999999999983 2.8474000000000004,1.3017000000000003 2.8535000000000004,1.2957 2.8534000000000006,1.2920999999999978 2.8477999999999994,1.285899999999998 2.8306000000000004,1.2864000000000004 2.804400000000001,1.2774 2.8004,1.2744999999999997 2.7994999999999983,1.2720999999999982 2.8018,1.2658999999999985 2.808299999999999,1.2563999999999993 2.8160999999999987,1.2520999999999987 2.8277,1.2521999999999984 2.8302000000000014,1.2494999999999976 2.830300000000001,1.2448999999999977 2.8215000000000003,1.2299000000000007 2.8215000000000003,1.2167999999999992 2.799900000000001,1.1842000000000006 2.7933999999999983,1.1801999999999992 2.773199999999999,1.1770999999999994 2.769300000000001,1.1744999999999983 2.766300000000001,1.1675000000000004 2.7651000000000003,1.159399999999998 2.7634000000000007,1.1263000000000005 2.7592999999999996,1.1186000000000007 2.7546,1.1172000000000004 2.7384999999999984,1.1194999999999986 2.7346000000000004,1.1135999999999981 2.738199999999999,1.1089999999999982 2.751100000000001,1.1010999999999989 2.7768000000000015,1.092600000000001 2.780100000000001,1.0885999999999996 2.7817000000000007,1.0828999999999986 2.7814000000000014,1.0784999999999982 2.7789,1.073999999999998 2.7718999999999987,1.0661999999999985 2.758700000000001,1.0579 2.7360000000000007,1.0507999999999988 2.7348999999999997,1.0449999999999982 2.741199999999999,1.0313999999999979 2.7380999999999993,1.025500000000001 2.7239000000000004,1.0204999999999984 2.7173000000000016,1.0198 2.7134,1.0173999999999985 2.7119999999999997,1.0142999999999986 2.7125999999999983,1.0079999999999991 2.7181999999999995,1.0016999999999996 2.722899999999999,0.998899999999999 2.7449000000000012,0.9939 2.7491999999999983,0.9893000000000001 2.7484,0.9846000000000004 2.7360000000000007,0.976700000000001 2.7286,0.968399999999999 2.7239000000000004,0.9572000000000003 2.7231999999999985,0.9494000000000007 2.7287999999999997,0.9372000000000007 2.7293999999999983,0.9318999999999988 2.7257,0.9174000000000007 2.7249000000000017,0.892199999999999 2.7211,0.8887 2.7101000000000006,0.8871000000000002 2.6995000000000005,0.8880999999999979 2.678799999999999,0.8941999999999979 2.6692,0.8933999999999997 2.6662,0.8900000000000006 2.6637999999999984,0.8818999999999981 2.6678999999999995,0.8751999999999995 2.6717000000000013,0.8641000000000005 2.670300000000001,0.8496999999999986 2.6731000000000016,0.8336000000000006 2.6495999999999995,0.8204999999999991 2.6374999999999993,0.8166000000000011 2.6297999999999995,0.8106000000000009 2.629100000000001,0.8047000000000004 2.636700000000001,0.7946999999999989 2.6369000000000007,0.7910000000000004 2.6285999999999987,0.7839999999999989 2.617899999999999,0.7832000000000008 2.6082,0.7788000000000004 2.6051,0.7727000000000004 2.6064000000000007,0.763300000000001 2.6046000000000014,0.7576999999999998 2.599,0.7552999999999983 2.592600000000001,0.7591000000000001 2.5874999999999986,0.7656999999999989 2.581800000000001,0.7669999999999995 2.578099999999999,0.7646999999999977 2.5762,0.759999999999998 2.5795999999999992,0.748899999999999 2.5777,0.7156999999999982 2.5745000000000005,0.7106999999999992 2.5634000000000015,0.7012999999999998 2.5581999999999994,0.6866999999999983 2.5551999999999992,0.6838999999999977 2.5477999999999987,0.6808999999999976 2.5288000000000004,0.6805999999999983 2.5121,0.6919000000000004 2.4951000000000008,0.6967999999999996 2.4788999999999994,0.7060999999999993 2.4741999999999997,0.7075999999999993 2.4716999999999985,0.7066999999999979 2.466100000000001,0.7014999999999993 2.460699999999999,0.6850999999999985 2.4541000000000004,0.6793999999999976 2.4435000000000002,0.6781000000000006 2.4338000000000015,0.6800999999999995 2.4258999999999986,0.684000000000001 2.4201000000000015,0.6829000000000001 2.415099999999999,0.6692999999999998 2.4023000000000003,0.6631999999999998 2.3988000000000014,0.6591999999999985 2.3994,0.6524999999999999 2.405999999999999,0.6429000000000009 2.405899999999999,0.6390999999999991 2.4026999999999994,0.6343999999999994 2.3861999999999988,0.6222999999999992 2.3801999999999985,0.6210999999999984 2.3679999999999986,0.6231000000000009 2.3630999999999993,0.621500000000001 2.362300000000001,0.6171000000000006 2.3663999999999987,0.6056999999999988 2.3672000000000004,0.5927000000000007 2.3668000000000013,0.5881000000000007 2.3629,0.5817999999999977 2.3588999999999984,0.579699999999999 2.351800000000001,0.5798999999999985 2.3392000000000017,0.5869 2.3259000000000007,0.5850000000000009 2.3202999999999996,0.5823999999999998 2.3126999999999995,0.5660999999999987 2.306899999999999,0.5631999999999984 2.3017000000000003,0.5630999999999986 2.2852999999999994,0.5672999999999995 2.2682,0.5621000000000009 2.2471999999999994,0.560299999999998 2.2423,0.5573999999999977 2.2377000000000002,0.5493999999999986 2.2387000000000015,0.5366999999999997 2.225100000000001,0.5298999999999978 2.2139999999999986,0.5212000000000003 2.1948000000000008,0.5131999999999977 2.1905,0.5073000000000008 2.1915000000000013,0.5015000000000001 2.1988999999999983,0.49299999999999855 2.200800000000001,0.4869999999999983 2.200199999999999,0.48249999999999815 2.196200000000001,0.4772999999999996 2.1834999999999987,0.4712999999999994 2.1814999999999998,0.46809999999999974 2.1813000000000002,0.45819999999999794 2.185500000000001,0.4468999999999994 2.1823000000000015,0.4380999999999986 2.1797000000000004,0.4353999999999978 2.1674000000000007,0.4300999999999995 2.1601,0.4239999999999995 2.1583000000000006,0.4192999999999998 2.1591999999999985,0.41580000000000084 2.1655000000000015,0.40749999999999886 2.165700000000001,0.40339999999999776 2.163499999999999,0.3990000000000009 2.158899999999999,0.3951999999999991 2.1419999999999995,0.388300000000001 2.135200000000001,0.3838000000000008 2.133099999999999,0.38119999999999976 2.1317999999999984,0.37509999999999977 2.1336000000000013,0.366699999999998 2.1326,0.3625000000000007 2.1262000000000008,0.35989999999999966 2.1141000000000005,0.3611000000000004 2.108599999999999,0.3584999999999994 2.103999999999999,0.3536999999999999 2.1015000000000015,0.3414999999999999 2.0985000000000014,0.33670000000000044 2.0946999999999996,0.3343999999999987 2.0854,0.3323999999999998 2.0791000000000004,0.32809999999999917 2.076699999999999,0.32450000000000045 2.0691999999999986,0.2988999999999997 2.0515000000000008,0.2738999999999976 2.0452000000000012,0.27209999999999823 2.0305,0.273299999999999 2.0174999999999983,0.2707999999999977 2.0108999999999995,0.26769999999999783 2.001100000000001,0.2593999999999994 1.9845000000000006,0.2569999999999979 1.9490000000000016,0.23729999999999762 1.9426999999999985,0.2375000000000007 1.9359000000000002,0.24070000000000036 1.9266000000000005,0.24259999999999948 1.903500000000001,0.23719999999999786 1.8933999999999997,0.23829999999999885 1.8831999999999987,0.23659999999999926 1.8680999999999983,0.23819999999999908 1.8454000000000015,0.24329999999999785 1.8386999999999993,0.24259999999999948 1.8302000000000014,0.24749999999999872 1.8241000000000014,0.2475999999999985 1.8082999999999991,0.23689999999999856 1.795300000000001,0.23460000000000036 1.7874000000000017,0.23119999999999763 1.7719999999999985,0.2181999999999995 1.7692000000000014,0.21160000000000068 1.7706000000000017,0.20279999999999987 1.7836999999999996,0.19109999999999872 1.7872999999999983,0.1850999999999985 1.7847000000000008,0.15700000000000003 1.793099999999999,0.13649999999999807 1.7914999999999992,0.13119999999999976 1.7835999999999999,0.12180000000000035 1.7809999999999988,0.10500000000000043 1.771799999999999,0.10439999999999827 1.7637999999999998,0.0951999999999984 1.7421000000000006,0.08230000000000004 1.7032999999999987,0.049900000000000944 1.694700000000001,0.045999999999999375 1.6843000000000004,0.051899999999999835 1.6774999999999984,0.053300000000000125 1.6742999999999988,0.052199999999999136 1.6694999999999993,0.04609999999999914 1.662700000000001,0.04269999999999996 1.6435999999999993,0.04380000000000095 1.6268999999999991,0.04070000000000107 1.6184000000000012,0.045999999999999375 1.6031000000000013,0.0622000000000007 1.5943000000000005,0.06609999999999872 1.5756000000000014,0.06739999999999924 1.5614999999999988,0.05729999999999791 1.5565999999999995,0.05799999999999983 1.5489999999999995,0.06319999999999837 1.5409000000000006,0.06419999999999959 1.5333000000000006,0.05129999999999768 1.5291999999999994,0.04669999999999774 1.5254000000000012,0.04550000000000054 1.4983000000000004,0.05649999999999977 1.4853999999999985,0.06589999999999918 1.4619,0.0666000000000011 1.4558,0.0691999999999986 1.4492000000000012,0.07639999999999958 1.440100000000001,0.08009999999999806 1.4049000000000014,0.08520000000000039 1.3895000000000017,0.08279999999999887 1.376100000000001,0.07669999999999888 1.357800000000001,0.0779999999999994 1.344100000000001,0.08190000000000097 1.332699999999999,0.08169999999999789 1.3280999999999992,0.07869999999999777 1.3171999999999997,0.06609999999999872 1.3066999999999993,0.06009999999999849 1.299199999999999,0.05790000000000006 1.288499999999999,0.05829999999999913 1.2746999999999993,0.06820000000000093 1.2685999999999993,0.06980000000000075 1.2598999999999982,0.06850000000000023 1.2487999999999992,0.06169999999999831 1.2452000000000005,0.06109999999999971 1.2299000000000007,0.06370000000000076 1.2216999999999985,0.06349999999999767 1.193200000000001,0.05460000000000065 1.1768999999999998,0.04070000000000107 1.1691000000000003,0.03859999999999886 1.1549000000000014,0.03999999999999915 1.1341999999999999,0.033500000000000085 1.1244000000000014,0.038000000000000256 1.1156000000000006,0.04779999999999873 1.1098999999999997,0.049799999999997624 1.0972000000000008,0.05089999999999861 1.0789000000000009,0.058799999999997965 1.071200000000001,0.05889999999999773 1.0600999999999985,0.05559999999999832 1.0414999999999992,0.060600000000000875 1.0258000000000003,0.05959999999999965 1.0108999999999995,0.060600000000000875 1.0065999999999988,0.06299999999999883 0.9860000000000007,0.0821000000000005 0.9777999999999984,0.09580000000000055 0.9720000000000013,0.09999999999999787 0.9619999999999997,0.10040000000000049 0.9537000000000013,0.09539999999999793 0.9466000000000001,0.09339999999999904 0.9375999999999998,0.09629999999999939 0.9097000000000008,0.10960000000000036 0.8980999999999995,0.11100000000000065 0.8852000000000011,0.10999999999999943 0.8444000000000003,0.08869999999999933 0.8289000000000009,0.0893999999999977 0.8206999999999987,0.08800000000000097 0.8177999999999983,0.08429999999999893 0.8187999999999995,0.0694999999999979 0.8162999999999982,0.06559999999999988 0.8129999999999988,0.06390000000000029 0.7942,0.06700000000000017 0.7866,0.06559999999999988 0.7728999999999999,0.04749999999999943 0.7635000000000005,0.0409000000000006 0.7286000000000001,0.0409000000000006 0.7149999999999999,0.03719999999999857 0.7082000000000015,0.03190000000000026 0.7048999999999985,0.02179999999999893 0.6973999999999982,0.007699999999999818 0.6853000000000016,0.0 0.6870000000000012,0.00549999999999784 0.6799,0.025500000000000966 0.6798000000000002,0.037700000000000955 0.6761000000000017,0.046299999999998676 0.6804999999999986,0.05579999999999785 0.6850999999999985,0.05930000000000035 0.6827000000000005,0.06680000000000064 0.6555,0.07280000000000086 0.6453999999999986,0.0782999999999987 0.6426000000000016,0.0843999999999987 0.6504000000000012,0.09779999999999944 0.6449999999999996,0.1053999999999995 0.6368000000000009,0.11289999999999978 0.6237999999999992,0.11789999999999878 0.622399999999999,0.12040000000000006 0.6351000000000013,0.13250000000000028 0.6376999999999988,0.13980000000000103 0.6367000000000012,0.14369999999999905 0.6256999999999984,0.1579999999999977 0.6325000000000003,0.17220000000000013 0.6326,0.1783999999999999 0.6344999999999992,0.1816999999999993 0.626100000000001,0.1875 0.6208999999999989,0.19379999999999953 0.6190999999999995,0.20169999999999888 0.6165999999999983,0.20509999999999806 0.6144999999999996,0.22039999999999793 0.6170000000000009,0.2301000000000002 0.6334000000000017,0.2380999999999993 0.6353000000000009,0.24200000000000088 0.6292000000000009,0.2644999999999982 0.6300999999999988,0.279399999999999 0.633700000000001,0.28999999999999915 0.6317999999999984,0.3035999999999994 0.6326,0.3155000000000001 0.6304000000000016,0.32479999999999976 0.6185000000000009,0.3387999999999991 0.6132999999999988,0.3421999999999983 0.6099999999999994,0.3474000000000004 0.6084999999999994,0.3542999999999985 0.610199999999999,0.3717000000000006 0.6046000000000014,0.38589999999999947 0.6048000000000009,0.39259999999999806 0.6117999999999988,0.408100000000001 0.6115999999999993,0.41939999999999955 0.6165999999999983,0.4396999999999984 0.6174,0.46359999999999957 0.6256999999999984,0.47250000000000014 0.6462000000000003,0.47220000000000084 0.649799999999999,0.47439999999999927 0.6607999999999983,0.491699999999998 0.6768000000000001,0.5093999999999994 0.6788999999999987,0.5104000000000006 0.6875,0.5080999999999989 0.6934000000000005,0.5095999999999989 0.6975000000000016,0.5170999999999992 0.698599999999999,0.5241000000000007 0.6972999999999985,0.5381999999999998 0.7005000000000017,0.5439000000000007 0.7121999999999993,0.5564 0.7198999999999991,0.5734999999999992 0.7372000000000014,0.5831999999999979 0.7439999999999998,0.589500000000001 0.7562999999999995,0.6104999999999983 0.7593999999999994,0.6207999999999991 0.7637999999999998,0.6233000000000004 0.7727000000000004,0.6251999999999995 0.7904000000000018,0.636099999999999 0.7927999999999997,0.6485999999999983 0.805299999999999,0.6622999999999983 0.8077000000000005,0.6777999999999977 0.815999999999999,0.6923999999999992 0.8152000000000008,0.7149000000000001 0.8192999999999984,0.7249999999999979 0.8268999999999984,0.7344000000000008 0.8366000000000007,0.7382999999999988 0.8438000000000017,0.7452000000000005 0.8537999999999997,0.7580999999999989 0.8562000000000012,0.7659999999999982 0.8632999999999988,0.7745999999999995 0.8624000000000009,0.7790999999999997 0.8577000000000012,0.7835000000000001 0.8523999999999994,0.7850999999999999 0.8435999999999986,0.7818000000000005 0.8406999999999982,0.7835000000000001 0.8382000000000005,0.7887999999999984 0.8288000000000011,0.7943999999999996 0.8209000000000017,0.8018000000000001 0.8206999999999987,0.8062000000000005 0.8338999999999999,0.8128999999999991 0.8388999999999989,0.8177999999999983 0.8417999999999992,0.8268999999999984 0.8393000000000015,0.8307000000000002 0.827300000000001,0.834699999999998 0.8186999999999998,0.8487000000000009 0.8210000000000015,0.852999999999998 0.8328999999999986,0.8602999999999987 0.8360999999999983,0.8658000000000001 0.8360999999999983,0.8711999999999982 0.831900000000001,0.8845999999999989 0.8164000000000016,0.897199999999998 0.8153000000000006,0.9013999999999989 0.8284999999999982,0.9189000000000007 0.8307000000000002,0.9247999999999976 0.8312999999999988,0.9350999999999985 0.8401999999999994,0.9456999999999987 0.8403999999999989,0.9512999999999998 0.8373999999999988,0.9564999999999984 0.8104000000000013,0.9771000000000001 0.8050999999999995,0.9819999999999993 0.8029000000000011,0.9863 0.8018000000000001,0.9975999999999985 0.7981000000000016,1.0076999999999998 0.8094000000000001,1.0138999999999996 0.8121000000000009,1.0169999999999995 0.8130999999999986,1.0375999999999976 0.809000000000001,1.0428999999999995 0.8042000000000016,1.0451999999999977 0.7866999999999997,1.0466999999999977 0.7826999999999984,1.052299999999999 0.7815000000000012,1.0584999999999987 0.7894000000000005,1.0733999999999995 0.7859000000000016,1.087299999999999 0.7900999999999989,1.0990000000000002 0.7881999999999998,1.1041999999999987 0.7829000000000015,1.1066000000000003 0.7728999999999999,1.1024999999999991 0.7621000000000002,1.0920999999999985 0.7592999999999996,1.0851000000000006 0.753499999999999,1.0810999999999993 0.7469999999999999,1.0802999999999976 0.7393000000000001,1.0845999999999982 0.7391000000000005,1.0916999999999994 0.7443999999999988,1.1026999999999987 0.7496000000000009,1.1082 0.7622,1.116299999999999 0.7646000000000015,1.1202000000000005 0.7635000000000005,1.1268999999999991 0.7606000000000002,1.130700000000001 0.7541000000000011,1.1347999999999985 0.7485999999999997,1.1357 0.7373000000000012,1.1335999999999977 0.7317,1.1356000000000002 0.7298000000000009,1.1388999999999996 0.7306999999999988,1.159600000000001 0.722999999999999,1.180299999999999 0.7180999999999997,1.188600000000001 0.7077999999999989,1.1997 0.6826000000000008,1.2127999999999979 0.6779000000000011,1.216899999999999 0.6747000000000014,1.2354999999999983 0.6769999999999996,1.2417999999999978 0.6873000000000005,1.255399999999998 0.6889000000000003,1.261800000000001 0.6878999999999991,1.271799999999999 0.6823000000000015,1.275500000000001 0.6725999999999992,1.2774999999999999 0.661999999999999,1.2687999999999988 0.6569000000000003,1.2673999999999985 0.6518000000000015,1.2698 0.6504000000000012,1.274799999999999 0.6523000000000003,1.2809999999999988 0.6576999999999984,1.2885999999999989 0.6611000000000011,1.2988 0.6654000000000018,1.3033000000000001 0.6824000000000012,1.302699999999998 0.6905999999999999,1.304199999999998 0.6954999999999991,1.3070999999999984 0.6981999999999999,1.3122000000000007 0.6968999999999994,1.3176999999999985 0.6874000000000002,1.3279999999999994 0.6700000000000017,1.3574999999999982 0.6479999999999997,1.3754999999999988 0.6328999999999994,1.3772999999999982 0.6292000000000009,1.3823000000000008 0.6287999999999982,1.3945000000000007 0.6402000000000001,1.4031999999999982 0.6433999999999997,1.4092999999999982 0.6344999999999992,1.4285999999999994 0.6361999999999988,1.433799999999998 0.6412000000000013,1.4368999999999978 0.6616,1.435299999999998 0.6677,1.4376999999999995 0.6727999999999987,1.4437999999999995 0.6743999999999986,1.4541000000000004 0.6710999999999991,1.4591999999999992 0.6667999999999985,1.4613999999999976 0.6597000000000008,1.461199999999998 0.6539000000000001,1.4577999999999989 0.6483999999999988,1.4478000000000009 0.6441000000000017,1.4445999999999977 0.6373999999999995,1.4427999999999983 0.6224999999999987,1.4454999999999991 0.6159999999999997,1.4619999999999997 0.6202000000000005,1.4667999999999992 0.6297999999999995,1.4717999999999982 0.633700000000001,1.4757999999999996 0.6310000000000002,1.4819999999999993 0.6254999999999988,1.4856999999999978 0.6082000000000001,1.477599999999999 0.6011999999999986,1.4799000000000007 0.5982999999999983,1.4856999999999978 0.6053999999999995,1.5030999999999999 0.6046000000000014,1.5085999999999977 0.6016000000000012,1.512599999999999 0.5965999999999987,1.5166000000000004 0.5917999999999992,1.5172999999999988 0.5777999999999999,1.5108999999999995 0.565999999999999,1.5124999999999993 0.5615999999999985,1.5177999999999976 0.559899999999999,1.5229999999999997 0.5511000000000017,1.5359999999999978 0.5455000000000005,1.551199999999998 0.539200000000001,1.5625 0.5420000000000016,1.571200000000001 0.5481000000000016,1.5784999999999982 0.5488,1.5829999999999984 0.5470000000000006,1.5867000000000004 0.5409000000000006,1.5890999999999984 0.5366,1.5883000000000003 0.532,1.5844999999999985 0.5216999999999992,1.5825999999999993 0.5168999999999997,1.5839999999999996 0.5138999999999996,1.5901999999999994 0.5139999999999993,1.5958000000000006 0.5172999999999988,1.6007999999999996 0.5257000000000005,1.6028999999999982 0.5311999999999983,1.6085999999999991 0.5427,1.6144999999999996 0.5458999999999996,1.6210999999999984 0.5280999999999985,1.6194999999999986 0.5235999999999983,1.6228999999999978 0.5233999999999988,1.629100000000001 0.5189999999999984,1.6324000000000005 0.5060000000000002,1.6317999999999984 0.4997000000000007,1.6350999999999978 0.4873000000000012,1.6541999999999994 0.49239999999999995,1.6605999999999987 0.498899999999999,1.6788999999999987 0.4955999999999996,1.6827000000000005 0.488900000000001,1.6846999999999994 0.4759999999999991,1.6820999999999984 0.47109999999999985,1.6789999999999985 0.46559999999999846,1.6838999999999977 0.4619,1.6956999999999987 0.4464000000000006,1.7082999999999977 0.4441999999999986,1.7131000000000007 0.44739999999999824,1.7185999999999986 0.46199999999999974,1.7235999999999976 0.46740000000000137,1.7311999999999976 0.46969999999999956,1.7454999999999998 0.4690000000000012,1.750399999999999 0.4654999999999987,1.754999999999999 0.45959999999999823,1.7574000000000005 0.44480000000000075,1.7490999999999985 0.43599999999999994,1.7494999999999976 0.43090000000000117,1.7530000000000001 0.42739999999999867,1.7593999999999994 0.4277000000000015,1.763099999999998 0.43159999999999954,1.7661999999999978 0.4314,1.7714999999999996 0.4259999999999984,1.7744999999999997 0.4239999999999995,1.7790999999999997 0.42549999999999955,1.7834000000000003 0.4295000000000009,1.7864000000000004 0.4292000000000016,1.7910000000000004 0.4197999999999986,1.802699999999998 0.4147999999999996,1.8018999999999998 0.4106999999999985,1.8038999999999987 0.41000000000000014,1.808399999999999 0.41570000000000107,1.818200000000001 0.4126000000000012,1.8244000000000007 0.3923999999999985,1.8305000000000007 0.3868000000000009,1.8382000000000005 0.38159999999999883,1.8406999999999982 0.37879999999999825,1.845399999999998 0.38560000000000016,1.8572999999999986 0.38670000000000115,1.8686000000000007 0.3841999999999999,1.8729999999999976 0.3689,1.8795000000000002 0.35660000000000025,1.8828999999999994 0.34919999999999973,1.8978000000000002 0.32860000000000156,1.9013999999999989 0.32620000000000005,1.9098000000000006 0.3227000000000011,1.9159000000000006 0.31759999999999877,1.9205000000000005 0.29650000000000176,1.9267000000000003 0.28610000000000113,1.9376999999999995 0.2881,1.9472999999999985 0.2865000000000002,1.9534999999999982 0.2843000000000018,1.9558999999999997 0.2757000000000005,1.9570000000000007 0.2726000000000006,1.959900000000001 0.2704999999999984,1.9692000000000007 0.2662000000000013,1.977999999999998 0.25929999999999964,1.9835999999999991 0.25450000000000017,1.9839999999999982 0.24879999999999924,1.988900000000001 0.2331000000000003,1.993500000000001 0.2220000000000013,1.987400000000001 0.21699999999999875,1.9907000000000004 0.21369999999999933,1.9994999999999976 0.20360000000000156,2.0108999999999995 0.19750000000000156,2.010300000000001 0.1894999999999989,1.9969000000000001 0.1816999999999993,1.9954999999999998 0.1603999999999992,2.0184999999999995 0.15810000000000102,2.023699999999998 0.15020000000000167,2.027799999999999 0.1305000000000014,2.0264999999999986 0.12130000000000152,2.022500000000001 0.11520000000000152,2.0273000000000003 0.1092000000000013,2.0448999999999984 0.09919999999999973,2.0478999999999985 0.08770000000000167,2.055299999999999 0.08650000000000091,2.0623000000000005 0.08970000000000056,2.0671 0.09019999999999939,2.0745000000000005 0.08589999999999876,2.077300000000001 0.07189999999999941,2.0763999999999996 0.06680000000000064,2.078800000000001 0.06520000000000081,2.0931999999999995 0.03810000000000002,2.0977999999999994 0.02949999999999875,2.1190999999999995 0.007799999999999585,2.132999999999999 0.001300000000000523,2.1378999999999984 0.00019999999999953388,2.1403999999999996 0.0,4.9055 1.0016999999999996,4.903500000000001 0.9969999999999999,5.9495000000000005 0.9987999999999992,8.589399999999998 1.4689000000000014,8.589299999999998 2.9883999999999986,8.889 3.0401999999999987,8.8965 3.0814999999999984,8.9057 3.1036,8.9084 3.1463,8.909399999999998 3.222200000000001,8.909399999999998 3.2296000000000014,8.910799999999998 3.261099999999999,8.9097 3.2661000000000016,8.9116 3.2966000000000015,8.9098 3.3026000000000018,8.904999999999998 3.3118000000000016,8.901799999999998 3.319700000000001,8.892799999999998 3.3115999999999985,8.880599999999998 3.3133000000000017,8.871399999999998 3.3195000000000014,8.8689 3.3355999999999995,8.855799999999999 3.3278999999999996,8.854199999999999 3.3232999999999997,8.850999999999999 3.3231,8.8397 3.3278,8.8276 3.334299999999999,8.8275 3.3385999999999996,8.822 3.3485000000000014,8.815100000000001 3.351800000000001,8.802699999999998 3.3652000000000015,8.7894 3.3674,8.7804 3.370799999999999,8.7758 3.3781999999999996,8.772299999999998 3.3825000000000003,8.755099999999999 3.3870000000000005,8.7439 3.3926000000000016,8.7406 3.4048000000000016,8.7284 3.405999999999999,8.723399999999998 3.404,8.7071 3.4007000000000005,8.7055 3.3992000000000004,8.7027 3.4015999999999984,8.6981 3.4129000000000005,8.7029 3.4183999999999983,8.697 3.425699999999999,8.701799999999999 3.4293000000000013,8.7013 3.436,8.694399999999998 3.4438999999999993,8.6951 3.4518999999999984,8.704699999999999 3.4588,8.698999999999998 3.449200000000001,8.6875 3.452300000000001,8.6772 3.4566000000000017,8.6721 3.462399999999999,8.6707 3.468399999999999,8.6629 3.4720000000000013,8.662399999999998 3.4771,8.665299999999998 3.4963000000000015,8.6663 3.4997000000000007,8.6647 3.5014000000000003,8.662599999999998 3.5005999999999986,8.654399999999999 3.5028000000000006,8.643999999999998 3.5069000000000017,8.6399 3.5188999999999986,8.637999999999998 3.524899999999999,8.633399999999998 3.5250999999999983,8.622 3.5321,8.613 3.5337999999999994,8.606300000000001 3.5295999999999985,8.5901 3.539300000000001,8.576799999999999 3.5564,8.566600000000001 3.5551999999999992,8.5565 3.5625,8.5413 3.5623000000000005,8.535599999999999 3.555299999999999,8.5293 3.5517000000000003,8.523399999999999 3.553699999999999,8.516199999999998 3.5653000000000006,8.4986 3.5656,8.485299999999999 3.5614999999999988,8.469899999999999 3.562000000000001,8.462299999999999 3.5714000000000006,8.4575 3.5738999999999983,8.438399999999998 3.5729000000000006,8.4343 3.5687999999999995,8.430599999999998 3.5714000000000006,8.422799999999999 3.5801000000000016,8.4221 3.5916999999999994,8.412199999999999 3.6006,8.412399999999998 3.6037,8.4083 3.6129,8.403299999999998 3.6176999999999992,8.4042 3.6267999999999994,8.4143 3.654,8.4299 3.6615,8.432199999999998 3.6662999999999997,8.4361 3.6721000000000004,8.4478 3.6799999999999997,8.457 3.6839000000000013,8.468899999999998 3.6952,8.471699999999998 3.6995000000000005,8.4756 3.7055000000000007,8.4758 3.7136999999999993,8.471499999999999 3.7201999999999984,8.4708 3.7250000000000014,8.478099999999998 3.7444999999999986,8.485499999999998 3.7462000000000018,8.491499999999998 3.7500999999999998,8.4951 3.7548999999999992,8.496299999999998 3.7592,8.501999999999999 3.7652,8.5018 3.7696000000000005,8.5073 3.7918999999999983,8.525199999999998 3.8003,8.5429 3.809899999999999,8.550699999999999 3.8110999999999997,8.555299999999999 3.8084999999999987,8.5643 3.811399999999999,8.569299999999998 3.821200000000001,8.575099999999999 3.8445,8.5837 3.849499999999999,8.587899999999998 3.853300000000001,8.6054 3.8653000000000013,8.6034 3.866199999999999,8.614799999999999 3.8703000000000003,8.6188 3.875499999999999,8.6314 3.895900000000001,8.6414 3.908899999999999,8.643799999999999 3.924900000000001,8.6585 3.9322000000000017,8.672799999999999 3.9312000000000005,8.6756 3.9238,8.677900000000001 3.9353000000000016,8.7015 3.9395999999999987,8.704999999999998 3.945599999999999,8.703599999999998 3.9494000000000007,8.707799999999999 3.9581000000000017,8.7101 3.9594999999999985,8.7183 3.9654999999999987,8.714399999999998 3.9766000000000012,8.713799999999999 3.9816000000000003,8.7177 3.9925999999999995,8.735399999999998 3.997399999999999,8.733799999999999 4.0036999999999985,8.735399999999998 4.0078,8.738599999999998 4.0152,8.7515 4.0212,8.7577 4.032699999999998,8.759799999999998 4.0382,8.7681 4.0577000000000005,8.772299999999998 4.061499999999999,8.7757 4.0626999999999995,8.7792 4.0624,8.785599999999999 4.059000000000001,8.793199999999999 4.062200000000001,8.795199999999998 4.065799999999999,8.793 4.0732,8.7925 4.077999999999999,8.79 4.0931999999999995,8.7884 4.1174,8.802900000000001 4.125299999999999,8.8098 4.127700000000001,8.8174 4.147600000000001,8.832 4.1579000000000015,8.843699999999998 4.171700000000001,8.863299999999999 4.171500000000002,8.8676 4.188300000000002,8.8732 4.1949000000000005,8.888199999999998 4.2011,8.890699999999999 4.230699999999999,8.8841 4.2440999999999995,8.8874 4.259399999999999,8.895 4.271899999999999,8.897199999999998 4.276900000000001,8.8961 4.286200000000001,8.880499999999998 4.2912,8.875999999999998 4.296299999999999,8.8767 4.2989,8.8795 4.307200000000002,8.904999999999998 4.3111,8.909600000000001 4.323499999999999,8.9115 4.331399999999999,8.9159 4.3386,8.9224 4.341899999999999,8.9302 4.348400000000002,8.9357 4.3522,8.9451 4.3614999999999995,8.947700000000001 4.3679999999999986,8.956199999999999 4.3751999999999995,8.955099999999998 4.381900000000002,8.956699999999998 4.391300000000001,8.954899999999999 4.396799999999999,8.947399999999998 4.4009,8.9453 4.404299999999999,8.9465 4.408999999999999,8.9543 4.417000000000002,8.9516 4.4237,8.9542 4.4285,8.9482 4.4453,8.938199999999998 4.450600000000001,8.936799999999998 4.452999999999999,8.9449 4.4556000000000004,8.9453 4.458300000000001,8.9408 4.455500000000001,8.925999999999998 4.4574,8.923099999999998 4.4655999999999985,8.919 4.470500000000001,8.909399999999998 4.488099999999999,8.895199999999999 4.4893,8.8915 4.487100000000002,8.8858 4.479500000000002,8.8747 4.482199999999999,8.869899999999998 4.488399999999999,8.868099999999998 4.4894,8.860299999999999 4.501999999999999,8.861799999999999 4.509,8.848499999999998 4.520800000000001,8.846599999999999 4.5306999999999995,8.8418 4.549700000000001,8.842199999999998 4.5624,8.840699999999998 4.575199999999999,8.842199999999998 4.592300000000002,8.8582 4.597000000000001,8.868399999999998 4.6175,8.892399999999999 4.618300000000001,8.9057 4.6248000000000005,8.9179 4.632200000000001,8.9255 4.639299999999999,8.928799999999999 4.647500000000001,8.9298 4.6556,8.940100000000001 4.665600000000001,8.948 4.667000000000002,8.955099999999998 4.6615,8.956499999999998 4.661899999999999,8.962499999999999 4.666899999999998,8.965699999999998 4.671299999999999,8.9648 4.675899999999999,8.96 4.683499999999999,8.96 4.6952,8.9695 4.699400000000001,8.9647 4.706600000000002,8.9648 4.7082000000000015,8.973499999999998 4.717199999999998,8.9832 4.721299999999999,8.991 4.727699999999999,8.9908 4.729600000000001,8.9938 4.727699999999999,8.9984 4.733899999999998,9.008099999999999 4.7362,9.0171 4.742699999999999,9.0169 4.7440999999999995,9.011199999999999 4.750399999999999,9.0091 4.756599999999999,9.0165 4.767199999999999,9.018 4.7714,9.0217 4.774699999999999,9.021799999999999 4.773,9.023299999999999 4.7745,9.0247 4.770900000000001,9.028299999999998 4.776399999999999,9.0332 4.7805,9.0302 4.784800000000001,9.029799999999998 4.789999999999999,9.034399999999998 4.792000000000002,9.0305 4.7958,9.0308 4.8001000000000005,9.0352 4.8063,9.036099999999998 4.808199999999999,9.040499999999998 4.8048,9.046399999999998 4.813300000000002,9.050999999999998 4.8321000000000005,9.055 4.838999999999999,9.061699999999998 4.847799999999999,9.061799999999998 4.856400000000001,9.0658 4.8614999999999995,9.066299999999998 4.873000000000001,9.0623 4.880600000000001,9.072499999999998 4.895900000000001,9.075399999999998 4.902100000000001,9.0792 4.9115,9.093999999999998 4.937200000000001,9.0933 4.947900000000001,9.097100000000001 4.953499999999998,9.110299999999999 4.961400000000001,9.1147 4.969999999999999,9.1176 4.976700000000001,9.1174 4.980599999999999,9.1156 4.9818,9.1129 4.978899999999999,9.1085 4.9663,9.103099999999998 4.966100000000001,9.100099999999998 4.969200000000001,9.094899999999999 4.9771,9.0929 4.979600000000001,9.090399999999999 4.9772,9.084399999999999 4.979399999999998,9.081199999999999 4.9878,9.0766 5.0,9.087 5.006,9.088999999999999 5.009399999999999,9.082799999999999 5.000800000000002,9.0728 5.010400000000001,9.0702 5.0288,9.0808 5.042999999999999,9.094100000000001 5.0504999999999995,9.095499999999998 5.059899999999999,9.087799999999998 5.061900000000001,9.082699999999999 5.059000000000001,9.0781 5.050899999999999,9.076899999999998 5.052199999999999,9.0714 5.061299999999999,9.069199999999999 5.0687999999999995,9.063499999999998 5.0992,9.0715 5.113499999999998,9.0779 5.119700000000002,9.084299999999999 5.1218,9.0933 5.126000000000001,9.0991 5.131499999999999,9.099799999999998 5.1385000000000005,9.0948 5.1419,9.096 5.147099999999998,9.1025 5.1541,9.1218 5.157599999999999,9.125499999999999 5.1629000000000005,9.1265 5.215,9.116799999999998 5.242899999999999,9.1146 5.253599999999999,9.115400000000001 5.256699999999999,9.119399999999999 5.2606,9.1162 5.268699999999999,9.118199999999998 5.271899999999999,9.113599999999998 5.270299999999999,9.1084 5.263100000000001,9.107800000000001 5.2559000000000005,9.075 5.2376000000000005,9.0303 5.236999999999998,9.017399999999999 5.241,9.0076 5.237100000000002,8.996299999999998 5.237200000000001,8.9896 5.2455,8.975200000000001 5.268000000000001,8.950699999999998 5.273700000000002,8.9329 5.2822,8.896 5.292000000000002,8.8778 5.310400000000001,8.8492 5.3172,8.841899999999999 5.322199999999999,8.8294 5.327999999999999,8.825499999999998 5.356300000000001,8.817 5.361599999999999,8.8124 5.366900000000001,8.794799999999999 5.372299999999999,8.791 5.389099999999999,8.788899999999998 5.3962,8.783999999999999 5.4205000000000005,8.7485 5.4289999999999985,8.7273 5.447900000000001,8.6905 5.452999999999999,8.6863 5.461400000000001,8.6724 5.4666,8.6492 5.490100000000002,8.6112 5.5135000000000005,8.546599999999998 5.518599999999999,8.527999999999999 5.522300000000001,8.5216 5.560500000000001,8.4834 5.609300000000001,8.4194 5.636399999999998,8.412199999999999 5.6434999999999995,8.407699999999998 5.649899999999999,8.398399999999999 5.674099999999999,8.350099999999998 5.6953,8.323699999999999 5.7102,8.3095 5.7163,8.307500000000001 5.729500000000002,8.3082 5.7409,8.303999999999998 5.748899999999999,8.303 5.755099999999999,8.294999999999998 5.777799999999999,8.2791 5.7837,8.2728 5.786000000000001,8.2668 5.784700000000001,8.244299999999999 5.791,8.225999999999999 5.7972,8.217199999999998 5.790900000000001,8.209900000000001 5.7866,8.1917 5.787600000000001,8.178899999999999 5.793099999999999,8.1649 5.789999999999999,8.150199999999998 5.800699999999999,8.119299999999999 5.811399999999999,8.1009 5.820699999999999,8.090699999999998 5.821899999999999,8.0806 5.819600000000001,8.063600000000001 5.8535,8.046699999999998 5.866299999999999,8.0425 5.889900000000001,8.0241 5.893799999999999,8.0186 5.904299999999999,8.0138 5.918500000000002,8.002299999999998 5.940899999999999,7.9969 5.963000000000001,7.962599999999998 5.967400000000001,7.947800000000001 5.978100000000001,7.930199999999999 5.987300000000001,7.908200000000001 5.9937000000000005,7.8763000000000005 5.991700000000002,7.8675 5.980699999999999,7.860199999999999 5.966899999999999,7.8466999999999985 5.9597000000000016,7.833400000000001 5.958100000000002,7.814799999999998 5.960899999999999,7.8096 5.962499999999999,7.799900000000001 5.976199999999999,7.770499999999998 5.9863,7.759899999999998 6.000800000000002,7.749600000000001 6.008900000000001,7.7408 6.019400000000001,7.722999999999999 6.026599999999998,7.7166999999999994 6.043399999999998,7.6874 6.038,7.676199999999998 6.0381,7.6707 6.0517,7.656499999999998 6.058700000000002,7.6434 6.070499999999999,7.636399999999998 6.0684000000000005,7.6189 6.077200000000001,7.603200000000001 6.0898,7.565300000000001 6.103400000000001,7.542999999999999 6.1068,7.528600000000001 6.113900000000001,7.513300000000001 6.113099999999999,7.505700000000001 6.1152000000000015,7.482599999999998 6.133900000000001,7.469999999999999 6.1372,7.464299999999998 6.145399999999999,7.409099999999999 6.152899999999999,7.395 6.160499999999999,7.369599999999998 6.166,7.3612 6.1843,7.345299999999998 6.1899000000000015,7.343 6.205400000000001,7.3415 6.212800000000001,7.337699999999998 6.2288,7.323999999999998 6.244299999999999,7.317899999999998 6.261700000000001,7.319599999999998 6.295000000000002,7.3276 6.3035,7.326599999999999 6.3332000000000015,7.299299999999999 6.3458000000000006,7.290199999999999 6.346399999999999,7.284600000000001 6.323899999999998,7.256899999999998 6.319800000000001,7.2469 6.3469000000000015,7.2286 6.384399999999999,7.232499999999998 6.387899999999998,7.228200000000001 6.390499999999999,7.220700000000001 6.3957000000000015,7.216000000000001 6.405799999999999,7.195699999999999 6.410399999999999,7.178599999999999 6.416599999999999,7.1691 6.430700000000002,7.156700000000001 6.439399999999999,7.152000000000001 6.468800000000002,7.150299999999998 6.491900000000001,7.1462 6.506,7.135400000000001 6.5230999999999995,7.131399999999999 6.527999999999999,7.128799999999998 6.536300000000001,7.119299999999999 6.5501000000000005,7.118600000000001 6.5686,7.1066 6.575099999999999,7.098700000000001 6.5838,7.070599999999999 6.6051,7.0397 6.616199999999999,7.0197 6.621600000000001,7.018899999999999 6.6385000000000005,7.024799999999999 6.643799999999999,7.025099999999998 6.6831,7.0169999999999995 6.6951,7.0123999999999995 6.698899999999998,7.008800000000001 6.7042,6.986599999999999 6.717199999999998,6.9634 6.7272,6.9636 6.7395,6.967499999999998 6.7575,6.9678 6.777100000000001,6.959799999999998 6.785599999999999,6.958199999999998 6.793099999999999,6.9588 6.799099999999999,6.9543 6.807099999999998,6.9406 6.802399999999999,6.930399999999999 6.808599999999998,6.925000000000001 6.820799999999998,6.9254999999999995 6.836600000000001,6.922999999999998 6.843,6.9190000000000005 6.850999999999999,6.921399999999998 6.858699999999999,6.915800000000001 6.873999999999999,6.9161 6.889399999999998,6.9086 6.901499999999999,6.911300000000001 6.909800000000001,6.910499999999999 6.9152999999999984,6.907299999999999 6.9221,6.9056999999999995 6.935400000000001,6.897500000000001 6.952400000000001,6.895199999999999 6.9679,6.8873 6.9757,6.885999999999999 6.9937000000000005,6.8870000000000005 7.006,6.883099999999999 7.017199999999999,6.881699999999999 7.0242,6.883299999999998 7.028700000000001,6.886099999999999 7.0405000000000015,6.884 7.0563,6.8847999999999985 7.066800000000001,6.877299999999998 7.077300000000001,6.873200000000001 7.086500000000001,6.8672 7.1015000000000015,6.8337 7.109500000000001,6.823599999999999 7.1175999999999995,6.820799999999998 7.1297999999999995,6.818999999999999 7.147099999999998,6.819399999999998 7.171800000000001,6.8222999999999985 7.177099999999999,6.820999999999998 7.191099999999999,6.8237999999999985 7.201699999999999,6.8203 7.2151,6.806799999999999 7.222799999999999,6.788799999999998 7.229500000000002,6.7822 7.232800000000001,6.769400000000001 7.2425999999999995,6.764800000000001 7.247299999999999,6.738699999999998 7.260100000000001,6.712799999999998 7.261900000000001,6.6967 7.281300000000002,6.6815 7.2917999999999985,6.624700000000001 7.2978999999999985,6.607399999999998 7.296700000000001,6.5412 7.298500000000001,6.521699999999999 7.2956,6.510200000000001 7.296500000000002,6.488099999999999 7.287299999999998,6.450199999999999 7.2837,6.419599999999999 7.285,6.409499999999998 7.2955000000000005,6.406499999999998 7.3277,6.4178999999999995 7.3582,6.433799999999998 7.3641000000000005,6.4328 7.3725999999999985,6.425599999999999 7.3871,6.422499999999999 7.4298,6.421099999999999 7.440000000000001,6.421800000000001 7.4498999999999995,6.427799999999998 7.4632000000000005,6.431999999999999 7.4758,6.433899999999998 7.4878,6.4304999999999986 7.5062,6.428000000000001 7.5718,6.411999999999999 7.583500000000001,6.412499999999998 7.6015000000000015,6.4222 7.613399999999999,6.425000000000001 7.623899999999999,6.4237 7.645600000000002,6.405799999999999 7.656400000000001,6.404999999999998 7.665600000000001,6.407799999999998 7.6838000000000015,6.416999999999998 7.690000000000001,6.4152999999999984 7.7029,6.407299999999999 7.7158000000000015,6.392499999999998 7.722100000000001,6.387999999999998 7.7288,6.373100000000001 7.729900000000001,6.362299999999998 7.7287,6.353300000000001 7.7194,6.3293 7.7225,6.323999999999998 7.715900000000001,6.313099999999999 7.7089,6.309699999999999 7.705200000000001,6.303899999999999 7.7041,6.296499999999998 7.7075,6.2791 7.705500000000001,6.262999999999998 7.707000000000001,6.252199999999998 7.706299999999999,6.2423 7.707699999999999,6.235299999999999 7.712199999999999,6.229399999999998 7.717400000000001,6.2164 7.725000000000001,6.208299999999998 7.7317,6.193999999999999 7.726199999999999,6.1798 7.734200000000001,6.155200000000001 7.734300000000001,6.1492 7.7286,6.135300000000001 7.7273,6.126200000000001 7.7316,6.112400000000001 7.722000000000001,6.104800000000001 7.7134,6.0581 7.708400000000001,6.051299999999998 7.698,6.042300000000001 7.690100000000001,6.0274 7.700500000000002,6.0036999999999985 7.7026,5.994399999999999 7.691099999999999,5.976599999999998 7.689299999999999,5.971799999999998 7.689399999999999,5.9655999999999985 7.692499999999999,5.959699999999998 7.7073,5.948499999999999 7.712399999999999,5.939699999999998 7.7012,5.919699999999999 7.706299999999999,5.9091999999999985 7.6905,5.895499999999998 7.702500000000001,5.866899999999998 7.700299999999999,5.858999999999998 7.6875,5.848800000000001 7.686,5.8415 7.694700000000001,5.8279 7.7013,5.8078 7.705500000000001,5.8003 7.712199999999999,5.7943 7.722899999999999,5.788499999999999 7.7272,5.783799999999999 7.730899999999998,5.7734999999999985 7.7439,5.764399999999998 7.748799999999999,5.754899999999999 7.753,5.751999999999999 7.7707000000000015,5.7485 7.7911,5.729499999999998 7.812799999999999,5.725099999999998 7.814599999999999,5.707000000000001 7.853200000000001,5.663399999999999 7.865500000000001,5.636499999999998 7.9008,5.604499999999998 7.9039,5.596 7.913,5.5870999999999995 7.918199999999999,5.568899999999999 7.915900000000001,5.552 7.916599999999999,5.544499999999999 7.934799999999999,5.527699999999999 7.948699999999999,5.502700000000001 7.957999999999998,5.493500000000001 7.9603,5.488199999999999 7.959,5.4832 7.9541,5.477399999999999 7.9679,5.464600000000001 7.9725,5.458099999999998 7.974900000000002,5.4510000000000005 7.9712,5.4436 7.963899999999999,5.441800000000001 7.959299999999999,5.438499999999998 7.9605999999999995,5.427900000000001 7.9651,5.4253 7.976600000000001,5.4251000000000005 7.982299999999999,5.421800000000001 7.9849,5.416999999999998 7.970099999999999,5.401699999999998 7.9666,5.3934999999999995 7.976299999999998,5.383099999999999 7.9830000000000005,5.3824000000000005 7.995799999999999,5.387499999999999 7.999700000000001,5.382099999999998 7.994199999999999,5.378799999999998 7.993300000000001,5.3736999999999995 8.016200000000001,5.3339 8.0243,5.3277 8.0305,5.325499999999998 8.0503,5.327300000000001 8.067599999999999,5.325299999999999 8.078299999999999,5.319399999999998 8.110399999999998,5.320899999999998 8.1189,5.317799999999998 8.1292,5.316499999999998 8.1464,5.309799999999999 8.1616,5.308599999999998 8.1767,5.305299999999999 8.200299999999999,5.296499999999998 8.212800000000001,5.297699999999999 8.2256,5.304500000000001 8.258500000000002,5.305799999999998 8.264500000000002,5.308899999999998 8.276800000000001,5.3094 8.3281,5.304099999999998 8.336300000000001,5.301500000000001 8.347999999999999,5.2943 8.3549,5.293299999999999 8.360700000000001,5.298099999999998 8.366499999999998,5.300000000000001 8.404800000000002,5.272099999999998 8.450500000000002,5.263999999999999 8.4574,5.256699999999999 8.465599999999998,5.255499999999998 8.4788,5.2486 8.490400000000001,5.240199999999998 8.497900000000001,5.238799999999998 8.515,5.2425999999999995 8.5276,5.248100000000001 8.5412,5.2612999999999985 8.546,5.263300000000001 8.554200000000002,5.2608999999999995 8.5593,5.262699999999999 8.5644,5.267199999999999 8.5673,5.274899999999999 8.5808,5.2759 8.588999999999999,5.273199999999999 8.602599999999999,5.2608999999999995 8.6191,5.2592 8.6324,5.253399999999999 8.650300000000001,5.253299999999999 8.6558,5.250599999999999 8.6632,5.243099999999998 8.671299999999999,5.2286 8.6768,5.225099999999998 8.694099999999999,5.2212 8.722000000000001,5.209599999999998 8.744900000000001,5.203099999999999 8.7701,5.191800000000001 8.794599999999999,5.171900000000001 8.838799999999999,5.168699999999998 8.847000000000001,5.165099999999999 8.8552,5.1568000000000005 8.8705,5.148799999999998 8.9072,5.1419999999999995 8.942699999999999,5.1312 8.9637,5.130700000000001 8.974799999999998,5.1343 8.9847,5.135400000000001 9.0,5.131699999999999 9.017199999999999,5.1189 9.051200000000001,5.109500000000001 9.062100000000001,5.104399999999998 9.076799999999999,5.087399999999999 9.066199999999998,5.080099999999998 9.0395,5.044999999999998 9.0337,5.031399999999998 9.032599999999999,5.023 9.0272,5.0137 9.024000000000001,4.997499999999999 9.021999999999998,4.974999999999998 9.023399999999999,4.956199999999999 9.030100000000001,4.927 9.0367,4.9101 9.0549,4.8847999999999985 9.0642,4.8749 9.0836,4.858699999999999 9.1066,4.844999999999999 9.114899999999999,4.840899999999998 9.134699999999999,4.835699999999999 9.1466,4.830099999999998 9.157,4.831399999999999 9.1862,4.8276 9.197500000000002,4.831900000000001 9.223500000000001,4.837 9.2485,4.846599999999999 9.256900000000002,4.841100000000001 9.264600000000002,4.832599999999999 9.2802,4.7971 9.287099999999999,4.7856999999999985 9.334,4.747399999999999 9.3463,4.730799999999999 9.3524,4.726299999999998 9.360800000000001,4.710699999999999 9.368300000000001,4.7094999999999985 9.357700000000001,4.707799999999999 9.352,4.709699999999998 9.349799999999998,4.713899999999999 9.3472,4.714700000000001 9.3402,4.705199999999998 9.3338,4.702500000000001 9.3275,4.707000000000001 9.324100000000001,4.7181999999999995 9.320599999999999,4.720299999999998 9.3092,4.718999999999998 9.299399999999999,4.721299999999999 9.291,4.719200000000001 9.284199999999998,4.7212 9.2772,4.714700000000001 9.2712,4.714099999999998 9.265999999999998,4.7179 9.2577,4.713899999999999 9.238299999999999,4.7255 9.218900000000001,4.729199999999999 9.211500000000001,4.725300000000001 9.198,4.7239 9.1908,4.721499999999999 9.1873,4.7179 9.180499999999999,4.714500000000001 9.174499999999998,4.706699999999998 9.1662,4.6998999999999995 9.1555,4.692999999999998 9.149999999999999,4.691399999999998 9.1433,4.690899999999999 9.133299999999998,4.6937 9.1218,4.692799999999998 9.108,4.6949000000000005 9.086400000000001,4.686699999999998 9.081299999999999,4.6861999999999995 9.071100000000001,4.6891 9.049,4.688099999999999 9.044799999999999,4.6905 9.035900000000002,4.6907 9.0305,4.6859 9.0289,4.678899999999999 9.026800000000001,4.6783 9.019400000000001,4.681100000000001 9.014199999999999,4.676400000000001 9.012799999999999,4.6693999999999996 9.0137,4.650399999999998 9.0049,4.6447 9.0028,4.6326 8.996500000000001,4.626799999999999 8.982099999999999,4.6221 8.977599999999999,4.616 8.977900000000002,4.611000000000001 8.976099999999999,4.6068 8.9666,4.599799999999998 8.962700000000002,4.578499999999998 8.964099999999998,4.569700000000001 8.9635,4.5600999999999985 8.969000000000001,4.549900000000001 8.971800000000002,4.539300000000001 8.971499999999999,4.5303 8.9677,4.523199999999999 8.9524,4.5032 8.9512,4.491799999999998 8.944500000000001,4.481099999999998 8.944299999999998,4.475300000000001 8.9341,4.4655999999999985 8.923300000000001,4.450299999999999 8.918500000000002,4.4467 8.9118,4.445899999999998 8.8993,4.4543 8.8799,4.459599999999998 8.8689,4.459599999999998 8.856100000000001,4.456099999999999 8.8325,4.445499999999999 8.829699999999999,4.4426999999999985 8.8289,4.4365999999999985 8.8337,4.427499999999998 8.833200000000001,4.4224 8.8311,4.4190000000000005 8.790099999999999,4.410899999999998 8.7762,4.406600000000001 8.7381,4.402999999999999 8.7223,4.395399999999999 8.707699999999999,4.391300000000001 8.7012,4.386699999999998 8.700500000000002,4.3809000000000005 8.6878,4.373799999999999 8.6781,4.375399999999999 8.669799999999999,4.3725999999999985 8.664200000000001,4.368199999999998 8.658000000000001,4.358999999999998 8.641300000000001,4.3492999999999995 8.6174,4.344799999999999 8.575500000000002,4.3475 8.5641,4.346299999999999 8.541899999999998,4.328699999999998 8.532800000000002,4.325699999999998 8.523499999999999,4.3199000000000005 8.514399999999998,4.318099999999998 8.508299999999998,4.3185 8.4966,4.328800000000001 8.48,4.336299999999998 8.457799999999999,4.334699999999998 8.45,4.337899999999998 8.442900000000002,4.3383 8.423100000000002,4.334199999999999 8.406099999999999,4.337699999999998 8.392800000000001,4.3369 8.383299999999998,4.338000000000001 8.366499999999998,4.334299999999999 8.3461,4.3353 8.340800000000002,4.331699999999998 8.332699999999999,4.316299999999998 8.3113,4.300999999999998 8.305700000000002,4.298099999999998 8.2988,4.2986 8.2912,4.294999999999998 8.2777,4.2917999999999985 8.273900000000001,4.285999999999998 8.271,4.274799999999999 8.267199999999999,4.2684999999999995 8.257100000000001,4.263400000000001 8.246300000000002,4.250699999999998 8.2366,4.250299999999999 8.226099999999999,4.2469 8.2192,4.242699999999999 8.209700000000002,4.242799999999999 8.1979,4.229599999999998 8.1826,4.218699999999998 8.1604,4.1904 8.1582,4.183 8.163599999999999,4.1676 8.164200000000001,4.159299999999998 8.162400000000002,4.151399999999999 8.156400000000001,4.1464 8.151,4.137699999999999 8.139700000000001,4.1296 8.121400000000001,4.122799999999998 8.1101,4.1068 8.0948,4.093599999999999 8.0826,4.0901 8.073699999999999,4.085100000000001 8.068000000000001,4.0794999999999995 8.046800000000001,4.0777 8.0414,4.074199999999998 8.039200000000001,4.064799999999998 8.0474,4.046699999999998 8.0445,4.035399999999999 8.05,4.0276 8.051300000000001,4.0227 8.05,4.0182 8.0455,4.014199999999999 8.0454,4.007899999999999 8.038900000000002,3.996299999999998 8.0244,3.9872999999999976 8.0138,3.9762999999999984 7.993600000000001,3.969899999999999 7.9788,3.9587000000000003 7.966200000000001,3.9527 7.9597000000000016,3.9467 7.9466,3.9466 7.942,3.951699999999999 7.937100000000001,3.9473999999999982 7.935300000000002,3.941700000000001 7.9405,3.9270999999999994 7.9426999999999985,3.9131 7.941400000000002,3.9068000000000005 7.937899999999999,3.9024 7.9373000000000005,3.8933999999999997 7.943100000000001,3.879100000000001 7.9437,3.872399999999999 7.936,3.855599999999999 7.927600000000002,3.849899999999998 7.9201000000000015,3.8389999999999986 7.915900000000001,3.837399999999999 7.9102,3.8322000000000003 7.899699999999999,3.8292 7.8949,3.8245000000000005 7.8811,3.8168000000000006 7.853999999999999,3.807500000000001 7.847899999999999,3.8024999999999984 7.834599999999998,3.7988 7.8283999999999985,3.8003 7.822600000000001,3.799199999999999 7.819600000000001,3.802699999999998 7.8141,3.800799999999999 7.812000000000001,3.7971000000000004 7.813300000000002,3.7921999999999976 7.818899999999999,3.787700000000001 7.819600000000001,3.7829999999999977 7.8184000000000005,3.7791999999999994 7.811800000000002,3.7765999999999984 7.8095,3.7728 7.793800000000001,3.7698 7.7911,3.7658999999999985 7.787600000000001,3.766300000000001 7.7819,3.764199999999999 7.779800000000002,3.7666000000000004 7.780799999999999,3.7718999999999987 7.778500000000001,3.775500000000001 7.7745,3.776399999999999 7.766400000000001,3.7730999999999995 7.7653,3.764900000000001 7.771100000000001,3.7612999999999985 7.7833000000000006,3.749600000000001 7.785599999999999,3.7425999999999995 7.7851,3.7364999999999995 7.780899999999999,3.7303999999999995 7.7696000000000005,3.726800000000001 7.7684,3.7226999999999997 7.759599999999999,3.7166999999999994 7.7593,3.710799999999999 7.7561,3.708400000000001 7.754100000000001,3.7034999999999982 7.750800000000002,3.701599999999999 7.752099999999999,3.687999999999999 7.742100000000001,3.677299999999999 7.733799999999999,3.6739999999999995 7.7257,3.6744999999999983 7.725200000000001,3.6773999999999987 7.723400000000002,3.6784999999999997 7.719899999999999,3.6768 7.713999999999999,3.678699999999999 7.7118,3.6813000000000002 7.711300000000001,3.6872000000000007 7.703700000000001,3.703599999999998 7.6998,3.7073 7.689299999999999,3.7110999999999983 7.672000000000001,3.7067999999999977 7.6677,3.702099999999998 7.666899999999998,3.696200000000001 7.6602,3.6896999999999984 7.660399999999999,3.6865999999999985 7.6587,3.6850999999999985 7.6524,3.685399999999998 7.6495,3.6815999999999995 7.640799999999999,3.682500000000001 7.638999999999999,3.6812000000000005 7.6213000000000015,3.6891999999999996 7.613099999999999,3.6875999999999998 7.604099999999999,3.691499999999998 7.599699999999999,3.6896999999999984 7.596599999999999,3.6835999999999984 7.597799999999999,3.6812000000000005 7.5961,3.6728999999999985 7.600899999999999,3.663899999999998 7.601199999999999,3.6601 7.5915,3.650500000000001 7.5808,3.6491000000000007 7.5761,3.6464999999999996 7.572900000000001,3.6419999999999995 7.574000000000002,3.637999999999998 7.5731,3.6350999999999978 7.5763,3.6264000000000003 7.572600000000001,3.6168999999999976 7.5731,3.6130999999999993 7.5686,3.6083999999999996 7.568300000000001,3.6042999999999985 7.5638000000000005,3.601499999999998 7.560199999999998,3.592399999999998 7.570699999999999,3.581299999999999 7.5671,3.5661999999999985 7.562799999999999,3.5577000000000005 7.557500000000001,3.556799999999999 7.553899999999999,3.5502000000000002 7.547999999999998,3.5490999999999993 7.541699999999999,3.542300000000001 7.538499999999999,3.541499999999999 7.5366,3.531600000000001 7.532299999999999,3.5294999999999987 7.528600000000001,3.5244999999999997 7.528700000000001,3.5219999999999985 7.523,3.5199999999999996 7.5138,3.521799999999999 7.5044,3.519199999999998 7.4956,3.523199999999999 7.4940999999999995,3.5229999999999997 7.493200000000002,3.520199999999999 7.482800000000001,3.5227000000000004 7.474,3.520699999999998 7.4711,3.5228 7.467300000000002,3.520900000000001 7.458400000000001,3.5233999999999988 7.455300000000001,3.5214999999999996 7.4483999999999995,3.5207999999999977 7.442,3.5226000000000006 7.441400000000002,3.5151000000000003 7.434999999999999,3.5093999999999994 7.433299999999999,3.494399999999999 7.430599999999998,3.4909 7.4283,3.482599999999998 7.421800000000001,3.4807999999999986 7.41,3.4830000000000005 7.405200000000001,3.4872999999999976 7.401199999999999,3.494299999999999 7.4102,3.5077 7.410499999999999,3.516300000000001 7.4072,3.5184999999999995 7.387699999999999,3.5172999999999988 7.377199999999998,3.5082999999999984 7.3767,3.503399999999999 7.373000000000001,3.499600000000001 7.372800000000002,3.497299999999999 7.380800000000001,3.4869999999999983 7.375699999999998,3.4845000000000006 7.374300000000002,3.4802 7.3581,3.479499999999998 7.352,3.4801 7.3489,3.4819999999999993 7.347999999999999,3.4848999999999997 7.3505,3.487099999999998 7.3523,3.4933999999999976 7.356400000000001,3.4967000000000006 7.355499999999999,3.5035999999999987 7.357099999999999,3.505700000000001 7.355899999999998,3.508099999999999 7.348500000000001,3.5096999999999987 7.329799999999999,3.504200000000001 7.325199999999999,3.5006999999999984 7.3248,3.4899999999999984 7.3201,3.4865999999999993 7.316099999999999,3.477899999999998 7.312200000000001,3.4755000000000003 7.311900000000001,3.4732999999999983 7.3156,3.472100000000001 7.312999999999999,3.4665999999999997 7.316600000000001,3.462699999999998 7.316700000000001,3.460699999999999 7.310400000000001,3.4602000000000004 7.313199999999998,3.4567999999999977 7.311,3.4548999999999985 7.308399999999999,3.4563999999999986 7.305399999999999,3.4541000000000004 7.305900000000001,3.4497999999999998 7.303000000000001,3.4445999999999977 7.2943999999999996,3.4471999999999987 7.287600000000001,3.4450000000000003 7.284300000000002,3.4366999999999983 7.267199999999999,3.4293999999999976 7.2636,3.429199999999998 7.260300000000001,3.4350999999999985 7.258600000000001,3.4349999999999987 7.2551999999999985,3.4300999999999995 7.246600000000001,3.428699999999999 7.242799999999999,3.424299999999999 7.2391000000000005,3.4243999999999986 7.2364,3.4223999999999997 7.235499999999998,3.4129000000000005 7.2333,3.4114000000000004 7.2265000000000015,3.4101 7.223800000000001,3.4125999999999976 7.226099999999999,3.4222 7.209299999999999,3.417300000000001 7.2073,3.4151999999999987 7.192399999999999,3.4091999999999985 7.193999999999999,3.392699999999998 7.1996,3.3918 7.2026,3.388300000000001 7.209,3.3858999999999995 7.210899999999999,3.3812999999999995 7.2104,3.3798999999999992 7.204799999999999,3.380499999999998 7.201899999999998,3.3785999999999987 7.2010000000000005,3.3729999999999976 7.196999999999999,3.3725999999999985 7.1937,3.375799999999998 7.191800000000001,3.3733000000000004 7.188199999999998,3.374299999999998 7.1722,3.3854000000000006 7.1661,3.3826 7.167400000000001,3.3786999999999985 7.1647,3.370899999999999 7.1599,3.3702000000000005 7.158999999999999,3.3740999999999985 7.156400000000001,3.3719 7.154800000000002,3.3726999999999983 7.154399999999999,3.376899999999999 7.1479,3.383499999999998 7.143699999999999,3.3825000000000003 7.138200000000001,3.384499999999999 7.1347999999999985,3.383399999999998 7.133299999999998,3.3786999999999985 7.137599999999999,3.380399999999998 7.139500000000002,3.378499999999999 7.1347999999999985,3.3736999999999995 7.134599999999999,3.363699999999998 7.140000000000001,3.353999999999999 7.148399999999999,3.355999999999998 7.149999999999999,3.347899999999999 7.154800000000002,3.3381000000000007 7.1508,3.3397000000000006 7.1508,3.3352000000000004 7.145800000000001,3.3324999999999996 7.140799999999999,3.3344999999999985 7.129899999999999,3.333199999999998 7.1312,3.3378999999999976 7.124500000000001,3.3386999999999993 7.1172,3.3450999999999986 7.117100000000001,3.340799999999998 7.113299999999999,3.3368 7.110099999999999,3.3369 7.1080000000000005,3.3399 7.1083,3.328199999999999 7.1065000000000005,3.323999999999998 7.108599999999999,3.317 7.105499999999999,3.309799999999999 7.099699999999999,3.308299999999999 7.099699999999999,3.3043999999999976 7.094100000000001,3.3066999999999993 7.081600000000002,3.308399999999999 7.0794999999999995,3.307199999999998 7.079699999999999,3.3001000000000005 7.085100000000001,3.2982999999999976 7.079999999999998,3.293800000000001 7.073599999999999,3.2927999999999997 7.0710000000000015,3.2954000000000008 7.072600000000001,3.2978999999999985 7.0594,3.294699999999999 7.062999999999999,3.2817000000000007 7.0649000000000015,3.2799999999999976 7.0687999999999995,3.2817000000000007 7.0699000000000005,3.2772000000000006 7.074200000000001,3.275199999999998 7.075199999999999,3.2714999999999996 7.081199999999999,3.2639999999999993 7.078800000000001,3.2592 7.081299999999999,3.2521999999999984 7.0776,3.253399999999999 7.0746,3.2524999999999977 7.077500000000001,3.2497000000000007 7.0778,3.246500000000001 7.073699999999999,3.2436000000000007 7.070599999999999,3.2365999999999993 7.064399999999999,3.2363999999999997 7.0588000000000015,3.231099999999998 7.0456,3.224599999999999 7.041,3.2238000000000007 7.0366,3.2255000000000003 7.031199999999998,3.2311999999999976 7.035,3.2395999999999994 7.0366,3.250799999999998 7.0329000000000015,3.250399999999999 7.030999999999999,3.2474999999999987 7.0274,3.247299999999999 7.0213,3.2520999999999987 7.026,3.2562999999999995 7.025300000000001,3.2631999999999977 7.019400000000001,3.2635000000000005 7.010300000000001,3.2692999999999977 7.008099999999999,3.264599999999998 7.002800000000001,3.262999999999998 6.999700000000001,3.2548999999999992 6.995699999999999,3.2548999999999992 6.9971,3.2514000000000003 7.0009000000000015,3.249399999999998 7.002600000000001,3.2425999999999995 7.001799999999999,3.237099999999998 6.999300000000002,3.2353999999999985 6.997800000000002,3.2301 7.0024000000000015,3.2192000000000007 6.979399999999998,3.210699999999999 6.9711,3.2044999999999995 6.973500000000001,3.200199999999999 6.9742999999999995,3.1938999999999993 6.970099999999999,3.190999999999999 6.968299999999999,3.1838999999999977 6.970500000000001,3.179299999999998 6.9666,3.1773999999999987 6.9666999999999994,3.1736000000000004 6.961500000000001,3.160899999999998 6.965399999999999,3.152799999999999 6.962800000000001,3.143799999999999 6.965499999999999,3.137999999999998 6.963799999999999,3.1358999999999995 6.963799999999999,3.1294000000000004 6.9575,3.1233000000000004 6.951699999999999,3.1129999999999995 6.9533999999999985,3.1022 6.949200000000001,3.093899999999998 6.9487999999999985,3.0855999999999995 6.949000000000002,3.083400000000001 6.9544999999999995,3.0810999999999993 6.9587,3.0764999999999993 6.950900000000001,3.0657999999999994 6.939800000000002,3.063399999999998 6.9323000000000015,3.0562000000000005 6.933900000000001,3.0504999999999995 6.937000000000001,3.0508999999999986 6.943200000000001,3.0477999999999987 6.947399999999998,3.0474999999999994 6.9510000000000005,3.044599999999999 6.953900000000001,3.0401999999999987 6.955300000000001,3.0336999999999996 6.9527,3.0289 6.948499999999999,3.0268999999999977 6.942799999999998,3.020599999999998 6.9434000000000005,3.0172999999999988 6.9411999999999985,3.013300000000001 6.942499999999999,3.003899999999998 6.927800000000001,2.9848999999999997 6.931699999999999,2.9704999999999977 6.932200000000002,2.9518999999999984 6.9268,2.945999999999998 6.921399999999998,2.9436 6.9146,2.9359 6.911100000000001,2.9183999999999983 6.912800000000001,2.9110999999999976 6.910599999999999,2.907799999999998 6.9101,2.903299999999998 6.912500000000001,2.895299999999999 6.909300000000002,2.878899999999998 6.9038,2.874600000000001 6.894200000000001,2.8627000000000002 6.889199999999999,2.852499999999999 6.8889,2.832699999999999 6.883800000000001,2.8156999999999996 6.8779,2.8115999999999985 6.863199999999999,2.8076000000000008 6.860199999999999,2.800699999999999 6.8642,2.7948999999999984 6.8675999999999995,2.7834000000000003 6.861699999999999,2.768799999999999 6.8664999999999985,2.7636000000000003 6.874500000000001,2.760300000000001 6.879100000000001,2.7471999999999994 6.8786999999999985,2.741699999999998 6.8759000000000015,2.738199999999999 6.871500000000001,2.735900000000001 6.865500000000001,2.7352999999999987 6.8645,2.728200000000001 6.8675,2.725200000000001 6.868099999999998,2.7171999999999983 6.8718,2.716100000000001 6.875499999999999,2.7178000000000004 6.8797999999999995,2.7158999999999978 6.8812,2.7196 6.883299999999998,2.7170999999999985 6.880099999999999,2.7143999999999977 6.8809000000000005,2.710799999999999 6.878599999999999,2.7110999999999983 6.8794,2.706299999999999 6.873000000000001,2.7003999999999984 6.870999999999999,2.6921 6.862200000000001,2.690999999999999 6.8626000000000005,2.6875999999999998 6.859400000000001,2.6843000000000004 6.8603999999999985,2.6774999999999984 6.861799999999999,2.675799999999999 6.863900000000001,2.6768 6.864599999999999,2.6722 6.862500000000001,2.671099999999999 6.8626000000000005,2.6693 6.866,2.668099999999999 6.866800000000001,2.6646 6.8690999999999995,2.6628000000000007 6.865300000000001,2.6616 6.866399999999999,2.6591999999999985 6.8644,2.657799999999998 6.8659,2.656299999999998 6.859500000000001,2.6541999999999994 6.8591000000000015,2.6518999999999977 6.857500000000002,2.6524 6.854800000000001,2.6476000000000006 6.856100000000001,2.6468999999999987 6.855699999999999,2.643799999999999 6.853999999999999,2.6435999999999993 6.8537,2.6450999999999993 6.851299999999998,2.6442999999999977 6.851700000000001,2.6430000000000007 6.850000000000001,2.6422999999999988 6.851400000000002,2.639800000000001 6.849499999999999,2.6409999999999982 6.847300000000001,2.637699999999999 6.845700000000001,2.637999999999998 6.842400000000001,2.6327999999999996 6.8408000000000015,2.6326 6.838899999999999,2.6363999999999983 6.8385,2.6346999999999987 6.8355,2.6339000000000006 6.834199999999999,2.6372 6.832799999999999,2.633099999999999 6.828800000000001,2.636499999999998 6.8277,2.6359999999999992 6.828800000000001,2.6341 6.825800000000001,2.6350999999999978 6.823599999999999,2.6281 6.8187999999999995,2.6281 6.819400000000002,2.625399999999999 6.814399999999999,2.6220999999999997 6.8156,2.6206999999999994 6.8108,2.6218000000000004 6.809899999999999,2.6190999999999995 6.8077000000000005,2.619699999999998 6.808399999999999,2.617899999999999 6.805399999999999,2.6195999999999984 6.801300000000001,2.6191999999999993 6.8033,2.615400000000001 6.8019,2.6129 6.803000000000001,2.610900000000001 6.800599999999999,2.6072999999999986 6.797499999999999,2.608699999999999 6.797799999999999,2.6064000000000007 6.7897,2.605999999999998 6.785799999999998,2.6007 6.783899999999999,2.6019000000000005 6.781600000000001,2.6083 6.7806999999999995,2.6069999999999993 6.7757000000000005,2.6066000000000003 6.776499999999999,2.6051 6.773299999999999,2.6022 6.7668,2.601499999999998 6.7653,2.602899999999998 6.7635000000000005,2.6015999999999977 6.762499999999999,2.596899999999998 6.7545,2.5961 6.754999999999999,2.5946999999999996 6.751899999999999,2.594100000000001 6.746099999999998,2.5959000000000003 6.7471,2.6007999999999996 6.742000000000001,2.602899999999998 6.741199999999999,2.6006 6.7392,2.602999999999998 6.7334,2.603200000000001 6.731100000000001,2.5988000000000007 6.728999999999999,2.598399999999998 6.731000000000002,2.5961999999999996 6.7286,2.5958000000000006 6.729600000000001,2.5947999999999993 6.727699999999999,2.5945 6.727900000000002,2.592299999999998 6.726400000000002,2.5936999999999983 6.722799999999999,2.590799999999998 6.720099999999999,2.5905999999999985 6.720099999999999,2.5874999999999986 6.7165,2.5884 6.7155999999999985,2.5867000000000004 6.711300000000001,2.5863999999999976 6.711600000000001,2.5881000000000007 6.709900000000001,2.5890999999999984 6.709599999999998,2.587299999999999 6.707599999999999,2.5870999999999995 6.709,2.585699999999999 6.706399999999999,2.5870999999999995 6.704000000000001,2.5854999999999997 6.705200000000001,2.5824999999999996 6.7021000000000015,2.5817999999999977 6.700800000000001,2.576699999999999 6.702500000000001,2.5749999999999993 6.700500000000002,2.574300000000001 6.7026,2.5725999999999978 6.696899999999999,2.5716 6.696999999999999,2.5680999999999976 6.689,2.570599999999999 6.685199999999998,2.5691999999999986 6.684100000000001,2.5653000000000006 6.675699999999999,2.563299999999998 6.6754999999999995,2.5611999999999995 6.6767,2.5623000000000005 6.677600000000002,2.561 6.674800000000001,2.5585999999999984 6.675699999999999,2.5561000000000007 6.674199999999999,2.5570999999999984 6.6739999999999995,2.5554999999999986 6.6724,2.5561000000000007 6.670999999999999,2.552699999999998 6.668600000000001,2.553699999999999 6.670200000000001,2.551400000000001 6.6678,2.552199999999999 6.667200000000001,2.546800000000001 6.664100000000001,2.545300000000001 6.665700000000001,2.545300000000001 6.668099999999999,2.540399999999998 6.6701000000000015,2.5397999999999996 6.668900000000001,2.534600000000001 6.667000000000002,2.535399999999999 6.665199999999999,2.5336 6.667100000000001,2.532899999999998 6.6647,2.529799999999998 6.665700000000001,2.528600000000001 6.6629000000000005,2.527799999999999 6.663699999999999,2.5260999999999996 6.657599999999999,2.5257000000000005 6.6587,2.5222999999999978 6.655100000000001,2.5214 6.646599999999999,2.525500000000001 6.644100000000002,2.5243 6.644400000000001,2.5228 6.6356,2.5198 6.6373,2.5170999999999992 6.635400000000001,2.5173999999999985 6.635999999999999,2.5153 6.634599999999999,2.5153 6.6327,2.5116999999999976 6.625599999999999,2.5136000000000003 6.619,2.5077999999999996 6.617100000000001,2.5089000000000006 6.613900000000001,2.5047999999999995 6.613099999999999,2.5006999999999984 6.608499999999999,2.5001999999999995 6.603100000000001,2.497 6.600100000000001,2.4983000000000004 6.5975,2.4970999999999997 6.5959,2.4986999999999995 6.5946,2.4970999999999997 6.590199999999999,2.498100000000001 6.587499999999999,2.496600000000001 6.5898,2.495000000000001 6.5882000000000005,2.4945999999999984 6.586099999999998,2.4865999999999993 6.5853,2.4849999999999994 6.581600000000002,2.484400000000001 6.581800000000001,2.480999999999998 6.584099999999999,2.4808999999999983 6.581399999999999,2.478300000000001 6.578900000000001,2.4787 6.575199999999999,2.4762999999999984 6.573699999999999,2.4743999999999993 6.5762,2.4741 6.5746,2.4726999999999997 6.571300000000001,2.473700000000001 6.5656,2.4711999999999996 6.5676999999999985,2.4709000000000003 6.568200000000001,2.4693000000000005 6.565999999999999,2.4680999999999997 6.565999999999999,2.462799999999998 6.5624,2.4594999999999985 6.559699999999999,2.4536999999999978 6.5527000000000015,2.4555000000000007 6.550899999999999,2.4528999999999996 6.5502,2.446300000000001 6.546700000000001,2.4419000000000004 6.540700000000001,2.4438999999999993 6.538,2.4410999999999987 6.538599999999999,2.4375999999999998 6.536000000000001,2.4345999999999997 6.536300000000001,2.432199999999998 6.528199999999998,2.431000000000001 6.528199999999998,2.4297000000000004 6.530000000000001,2.4297000000000004 6.5291999999999994,2.4283 6.526599999999998,2.428799999999999 6.519400000000001,2.423099999999998 6.510300000000001,2.4193 6.511700000000001,2.412099999999999 6.509599999999999,2.412700000000001 6.510999999999999,2.407799999999998 6.510200000000001,2.4044999999999987 6.506499999999999,2.4024 6.506,2.4003999999999976 6.5029,2.4009 6.5015,2.3988999999999976 6.501100000000001,2.3972999999999978 6.502800000000001,2.396699999999999 6.501100000000001,2.3934999999999995 6.5001999999999995,2.384499999999999 6.4925,2.372899999999998 6.492699999999999,2.371199999999998 6.489699999999999,2.3687000000000005 6.4877,2.3561999999999976 6.481200000000001,2.350200000000001 6.481999999999999,2.340399999999999 6.4711,2.3183000000000007 6.461600000000001,2.311 6.451799999999999,2.2966999999999977 6.447399999999998,2.2942 6.441500000000001,2.2954000000000008 6.439399999999999,2.292099999999998 6.4331,2.2887999999999984 6.4282,2.2878000000000007 6.426300000000001,2.2895000000000003 6.4222,2.2821999999999996 6.421399999999998,2.273299999999999 6.408799999999999,2.2611999999999988 6.3933,2.270699999999998 6.165900000000001,2.215399999999999 "></polygon>
    </svg>
    