
    <svg width="1.6966999999999928" height="0.4941999999999993" xmlns="http://www.w3.org/2000/svg" xmlns:xlink="http://www.w3.org/1999/xlink" style="transform: scale(1, -1)">
        <polygon points="0.16809999999999548,0.012299999999999756 0.16249999999999432,0.006700000000002149 0.15500000000000114,0.002300000000001745 0.13750000000000284,0.0 0.132000000000005,0.0 0.12640000000000384,0.00420000000000087 0.11870000000000402,0.00280000000000058 0.11249999999999716,0.008100000000002439 0.1075000000000017,0.00980000000000203 0.08920000000000528,0.009199999999999875 0.08639999999999759,0.01120000000000232 0.08140000000000214,0.008900000000000574 0.07869999999999777,0.01249999999999929 0.07840000000000202,0.01640000000000086 0.07500000000000284,0.017300000000002314 0.05839999999999179,0.012800000000002143 0.05339999999999634,0.008900000000000574 0.03889999999999816,0.002500000000001279 0.029799999999994498,0.00560000000000116 0.028099999999994907,0.00730000000000075 0.028599999999997294,0.012800000000002143 0.026700000000005275,0.01980000000000004 0.037499999999994316,0.03529999999999944 0.03640000000000043,0.04279999999999973 0.03359999999999275,0.045300000000001006 0.03310000000000457,0.04980000000000118 0.03810000000000002,0.06750000000000256 0.03839999999999577,0.07949999999999946 0.03669999999999618,0.08590000000000231 0.03310000000000457,0.09090000000000131 0.03340000000000032,0.09309999999999974 0.024799999999999045,0.1031000000000013 0.016199999999997772,0.1075000000000017 0.0002999999999957481,0.10870000000000246 0.0,0.113900000000001 0.004199999999997317,0.12250000000000227 0.02389999999999759,0.13170000000000215 0.03340000000000032,0.13419999999999987 0.04200000000000159,0.13200000000000145 0.04619999999999891,0.12870000000000203 0.05530000000000257,0.125 0.058099999999996044,0.12140000000000128 0.05889999999999418,0.11780000000000257 0.057800000000000296,0.11730000000000018 0.04389999999999361,0.1203000000000003 0.04059999999999775,0.11950000000000216 0.03869999999999152,0.11530000000000129 0.03999999999999204,0.11090000000000089 0.05859999999999843,0.08200000000000074 0.05859999999999843,0.07620000000000005 0.055899999999994066,0.06750000000000256 0.054500000000004434,0.06729999999999947 0.054199999999994475,0.07000000000000028 0.052300000000002456,0.06810000000000116 0.050600000000002865,0.060900000000000176 0.05110000000000525,0.058900000000001285 0.05339999999999634,0.060300000000001575 0.05559999999999832,0.057500000000000995 0.05530000000000257,0.05390000000000228 0.05310000000000059,0.0519999999999996 0.05839999999999179,0.04980000000000118 0.061700000000001864,0.043900000000000716 0.06090000000000373,0.0400000000000027 0.06780000000000541,0.03810000000000002 0.07139999999999702,0.03450000000000131 0.07059999999999889,0.03200000000000003 0.07250000000000512,0.03200000000000003 0.07309999999999661,0.029500000000002302 0.07949999999999591,0.03170000000000073 0.08230000000000359,0.03529999999999944 0.08449999999999136,0.032500000000002416 0.09449999999999648,0.03310000000000102 0.09890000000000043,0.030900000000002592 0.11060000000000514,0.03810000000000002 0.11249999999999716,0.04139999999999944 0.11730000000000018,0.03890000000000171 0.1191999999999922,0.03920000000000101 0.12059999999999604,0.04170000000000229 0.125,0.041100000000000136 0.12919999999999732,0.0472999999999999 0.1261999999999972,0.04889999999999972 0.12369999999999948,0.043900000000000716 0.12109999999999843,0.0472999999999999 0.12369999999999948,0.04889999999999972 0.12640000000000384,0.058900000000001285 0.12479999999999336,0.06390000000000029 0.125,0.07000000000000028 0.1303000000000054,0.06920000000000215 0.13479999999999848,0.07169999999999987 0.1308999999999969,0.0627999999999993 0.1308999999999969,0.06119999999999948 0.13389999999999702,0.059200000000000585 0.13700000000000045,0.060600000000000875 0.14000000000000057,0.059200000000000585 0.14390000000000214,0.061400000000002564 0.14730000000000132,0.06419999999999959 0.14699999999999136,0.06810000000000116 0.14919999999999334,0.06419999999999959 0.1559000000000026,0.06390000000000029 0.15729999999999222,0.06310000000000215 0.15699999999999648,0.060000000000002274 0.15919999999999845,0.060900000000000176 0.16199999999999193,0.06419999999999959 0.1594999999999942,0.06840000000000046 0.16089999999999804,0.07090000000000174 0.15980000000000416,0.07949999999999946 0.16140000000000043,0.08000000000000185 0.16169999999999618,0.08310000000000173 0.15840000000000032,0.08420000000000272 0.15640000000000498,0.07949999999999946 0.15389999999999304,0.08480000000000132 0.15229999999999677,0.08280000000000243 0.14699999999999136,0.08170000000000144 0.1525000000000034,0.08920000000000172 0.15059999999999718,0.0981000000000023 0.1488999999999976,0.09919999999999973 0.1466999999999956,0.09779999999999944 0.14499999999999602,0.09169999999999945 0.14279999999999404,0.09309999999999974 0.1414000000000044,0.09140000000000015 0.13639999999999475,0.09280000000000044 0.13700000000000045,0.09479999999999933 0.14119999999999777,0.09390000000000143 0.1448000000000036,0.09560000000000102 0.14560000000000173,0.09950000000000259 0.14359999999999218,0.10140000000000171 0.14699999999999136,0.10030000000000072 0.14809999999999945,0.10170000000000101 0.14809999999999945,0.10670000000000002 0.14639999999999986,0.10229999999999961 0.14499999999999602,0.10229999999999961 0.14499999999999602,0.10389999999999944 0.1483999999999952,0.10999999999999943 0.15340000000000487,0.1075000000000017 0.16979999999999507,0.09390000000000143 0.1869999999999976,0.08590000000000231 0.1928000000000054,0.08610000000000184 0.20199999999999818,0.08999999999999986 0.2108999999999952,0.09060000000000201 0.2347999999999928,0.08340000000000103 0.23919999999999675,0.08500000000000085 0.2511999999999972,0.08530000000000015 0.25839999999999463,0.08859999999999957 0.26839999999999975,0.09060000000000201 0.2834000000000003,0.09030000000000271 0.28699999999999193,0.09250000000000114 0.30589999999999407,0.09060000000000201 0.321399999999997,0.09120000000000061 0.32389999999999475,0.09060000000000201 0.33389999999999986,0.07920000000000016 0.3353000000000037,0.0625 0.32979999999999166,0.0470000000000006 0.32030000000000314,0.03750000000000142 0.3048000000000002,0.030300000000000438 0.27840000000000487,0.029500000000002302 0.27589999999999293,0.031200000000001893 0.26839999999999975,0.03170000000000073 0.26500000000000057,0.03059999999999974 0.2535999999999916,0.03870000000000218 0.23999999999999488,0.038399999999999324 0.2224999999999966,0.031200000000001893 0.20980000000000132,0.033900000000002706 0.19029999999999347,0.02919999999999945 0.18619999999999948,0.025300000000001432 0.17980000000000018,0.023099999999999454 0.16809999999999548,0.012299999999999756 "></polygon><polygon points="0.1589000000000027,0.06729999999999947 0.15840000000000032,0.06530000000000058 0.15640000000000498,0.06450000000000244 0.15729999999999222,0.06780000000000186 0.1589000000000027,0.06729999999999947 "></polygon><polygon points="1.4458999999999946,0.45060000000000144 1.4512,0.44920000000000115 1.4583999999999975,0.44450000000000145 1.4573000000000036,0.4377999999999993 1.4513999999999925,0.4344999999999999 1.4566999999999979,0.4353000000000016 1.4598000000000013,0.43810000000000215 1.4605999999999995,0.43640000000000256 1.454499999999996,0.4330999999999996 1.435299999999998,0.43200000000000216 1.4077999999999946,0.42590000000000217 1.3892000000000024,0.4167000000000023 1.368399999999994,0.40249999999999986 1.352800000000002,0.397000000000002 1.349499999999992,0.39420000000000144 1.340599999999995,0.39250000000000185 1.3349999999999937,0.3953000000000024 1.3250000000000028,0.3967000000000027 1.3144999999999953,0.39450000000000074 1.3092000000000041,0.39639999999999986 1.3097999999999956,0.40030000000000143 1.3148000000000053,0.40390000000000015 1.319500000000005,0.41029999999999944 1.3262,0.4125000000000014 1.3333999999999975,0.4175000000000004 1.3460999999999927,0.42120000000000246 1.3503000000000043,0.4245000000000019 1.3530999999999977,0.43030000000000257 1.3580999999999932,0.4328000000000003 1.3803000000000054,0.43840000000000146 1.3958999999999975,0.43810000000000215 1.4155999999999977,0.44170000000000087 1.4342000000000041,0.44950000000000045 1.4458999999999946,0.45060000000000144 "></polygon><polygon points="1.6825000000000045,0.4941999999999993 1.6877999999999957,0.4914000000000023 1.6962000000000046,0.490000000000002 1.6966999999999928,0.4862000000000002 1.6928000000000054,0.4792000000000023 1.6844999999999999,0.47109999999999985 1.665300000000002,0.4574999999999996 1.6136000000000053,0.4452999999999996 1.5927999999999969,0.4344999999999999 1.5814000000000021,0.43060000000000187 1.5767000000000024,0.43120000000000047 1.573599999999999,0.4299999999999997 1.5730999999999966,0.4278000000000013 1.5708999999999946,0.4283999999999999 1.5652999999999935,0.4250000000000007 1.5331000000000046,0.4181000000000026 1.5253000000000014,0.4206000000000003 1.5285999999999973,0.4261000000000017 1.5349999999999966,0.4286999999999992 1.5486999999999966,0.43810000000000215 1.5763999999999925,0.44620000000000104 1.589500000000001,0.45420000000000016 1.5989000000000004,0.46280000000000143 1.6084000000000032,0.46780000000000044 1.6281000000000034,0.4709000000000003 1.6377999999999986,0.47419999999999973 1.6499999999999915,0.4812000000000012 1.6581000000000046,0.4892000000000003 1.665300000000002,0.4923000000000002 1.6825000000000045,0.4941999999999993 "></polygon>
    </svg>
    