
    <svg width="8.55879999999999" height="13.0435" xmlns="http://www.w3.org/2000/svg" xmlns:xlink="http://www.w3.org/1999/xlink" style="transform: scale(1, -1)">
        <polygon points="6.1492000000000075,0.6939999999999991 6.147600000000011,0.6957999999999984 6.147899999999993,0.6969999999999992 6.149900000000002,0.6951 6.1492000000000075,0.6939999999999991 "></polygon><polygon points="6.1536000000000115,0.7016999999999989 6.151900000000012,0.7009000000000007 6.152299999999997,0.7032999999999987 6.153199999999998,0.7030999999999992 6.1536000000000115,0.7016999999999989 "></polygon><polygon points="6.1536000000000115,0.704699999999999 6.151600000000002,0.7102000000000004 6.152900000000017,0.7128999999999976 6.156100000000009,0.7138999999999989 6.156300000000016,0.7114000000000011 6.153700000000015,0.7094999999999985 6.155500000000018,0.7082999999999977 6.155500000000018,0.7051999999999978 6.1536000000000115,0.704699999999999 "></polygon><polygon points="7.7601999999999975,1.9926999999999992 7.7712999999999965,1.9893999999999998 7.7882000000000176,1.9734999999999978 7.7952999999999975,1.9626999999999981 7.7982000000000085,1.955099999999998 7.794200000000018,1.9473999999999982 7.7897000000000105,1.943999999999999 7.780500000000018,1.9421999999999997 7.769599999999997,1.9357000000000006 7.763200000000012,1.9296000000000006 7.758100000000013,1.9307999999999979 7.750799999999998,1.943999999999999 7.739200000000011,1.9551999999999978 7.737200000000001,1.9590999999999994 7.7383000000000095,1.9765999999999977 7.744400000000013,1.9919000000000011 7.753900000000016,1.9937000000000005 7.7601999999999975,1.9926999999999992 "></polygon><polygon points="6.088600000000014,0.7593999999999994 6.1033999999999935,0.7535999999999987 6.117500000000007,0.7562999999999995 6.125799999999998,0.7560000000000002 6.147500000000008,0.7424 6.148300000000006,0.734099999999998 6.155799999999999,0.7158999999999978 6.151900000000012,0.7134999999999998 6.150000000000006,0.709699999999998 6.151299999999992,0.7043999999999997 6.141899999999993,0.689899999999998 6.133600000000001,0.6868999999999978 6.120499999999993,0.6862999999999992 6.110199999999992,0.6912999999999982 6.088799999999992,0.6937999999999995 6.075000000000017,0.6998999999999995 6.063600000000008,0.7012999999999998 6.059699999999992,0.7034999999999982 6.051900000000018,0.7165999999999997 6.047799999999995,0.741299999999999 6.0552000000000135,0.7513000000000005 6.063299999999998,0.7582999999999984 6.06880000000001,0.759999999999998 6.076300000000003,0.7588000000000008 6.079599999999999,0.7606000000000002 6.088600000000014,0.7593999999999994 "></polygon><polygon points="6.146500000000003,3.0136000000000003 6.148600000000016,3.0122 6.1466000000000065,3.0077 6.143300000000011,3.0146999999999977 6.146500000000003,3.0136000000000003 "></polygon><polygon points="6.143300000000011,3.0197000000000003 6.14439999999999,3.0197000000000003 6.144100000000009,3.017699999999998 6.1425000000000125,3.0183 6.143300000000011,3.0197000000000003 "></polygon><polygon points="6.1464,3.020599999999998 6.145399999999995,3.0200999999999993 6.141800000000018,3.022400000000001 6.145800000000008,3.0222999999999978 6.1464,3.020599999999998 "></polygon><polygon points="6.150200000000012,3.0397 6.151900000000012,3.031600000000001 6.150499999999994,3.0213 6.14439999999999,3.0234999999999985 6.147999999999996,3.0274 6.147500000000008,3.0398999999999994 6.150200000000012,3.0397 "></polygon><polygon points="6.120499999999993,3.0321999999999996 6.121900000000011,3.0326999999999984 6.1229999999999905,3.0295999999999985 6.120200000000011,3.029899999999998 6.120499999999993,3.0321999999999996 "></polygon><polygon points="6.130799999999994,3.033999999999999 6.129099999999994,3.0319000000000003 6.128000000000014,3.0321999999999996 6.129700000000014,3.035499999999999 6.130799999999994,3.033999999999999 "></polygon><polygon points="6.046899999999994,3.0459999999999994 6.045800000000014,3.043499999999998 6.043000000000006,3.0432999999999986 6.0411,3.0448999999999984 6.043300000000016,3.046599999999998 6.046899999999994,3.0459999999999994 "></polygon><polygon points="6.053799999999995,3.049900000000001 6.054400000000015,3.048300000000001 6.052400000000006,3.044999999999998 6.0508000000000095,3.045099999999998 6.052400000000006,3.0487 6.051400000000001,3.049900000000001 6.053799999999995,3.049900000000001 "></polygon><polygon points="6.14070000000001,3.0657999999999994 6.1425000000000125,3.0655 6.138800000000003,3.062999999999999 6.136400000000009,3.0653000000000006 6.138000000000005,3.0672999999999995 6.14070000000001,3.0657999999999994 "></polygon><polygon points="6.134800000000013,3.067899999999998 6.136799999999994,3.0703999999999994 6.138800000000003,3.0702 6.137400000000014,3.067499999999999 6.134800000000013,3.067899999999998 "></polygon><polygon points="6.130200000000002,3.0777 6.131900000000002,3.075499999999998 6.130500000000012,3.0747 6.128000000000014,3.077400000000001 6.128900000000016,3.078599999999998 6.130200000000002,3.0777 "></polygon><polygon points="7.594400000000007,2.150199999999998 7.598000000000013,2.1447000000000003 7.596900000000005,2.1430000000000007 7.587999999999994,2.142699999999998 7.5822,2.1461000000000006 7.582999999999998,2.148799999999998 7.590000000000003,2.151299999999999 7.594400000000007,2.150199999999998 "></polygon><polygon points="6.935699999999997,2.6785999999999994 6.93719999999999,2.6831999999999994 6.938800000000015,2.6747999999999976 6.934100000000001,2.671800000000001 6.927999999999997,2.6708999999999996 6.9243000000000166,2.6724999999999994 6.909500000000008,2.6875 6.90870000000001,2.6936 6.9144000000000005,2.6971999999999987 6.9202999999999975,2.6967 6.9221,2.6938999999999993 6.9202999999999975,2.681000000000001 6.92179999999999,2.6785999999999994 6.926800000000014,2.674299999999999 6.931299999999993,2.6728999999999985 6.9354999999999905,2.674599999999998 6.935699999999997,2.6785999999999994 "></polygon><polygon points="6.964100000000002,2.6971999999999987 6.966700000000003,2.6875 6.964500000000015,2.6814999999999998 6.960800000000006,2.6796000000000006 6.955199999999991,2.6815999999999995 6.946899999999999,2.6874000000000002 6.946799999999996,2.6884999999999977 6.949399999999997,2.6876999999999995 6.952799999999996,2.689399999999999 6.951300000000003,2.6919000000000004 6.939400000000006,2.695499999999999 6.944999999999993,2.6994000000000007 6.9480000000000075,2.7043999999999997 6.953499999999991,2.7064999999999984 6.959000000000003,2.703099999999999 6.964100000000002,2.6971999999999987 "></polygon><polygon points="6.9354999999999905,2.6950000000000003 6.9365999999999985,2.693999999999999 6.933300000000003,2.694499999999998 6.932299999999998,2.695499999999999 6.9354999999999905,2.6950000000000003 "></polygon><polygon points="7.973600000000005,0.06409999999999982 7.983300000000014,0.04720000000000013 8.003800000000012,0.025900000000000034 8.005200000000002,0.021000000000000796 8.003900000000016,0.00689999999999813 8.00030000000001,0.0032999999999994145 7.994400000000013,0.00140000000000029 7.991100000000017,0.0032999999999994145 7.97999999999999,0.004699999999999704 7.945899999999995,0.0 7.922799999999995,0.012899999999998357 7.918300000000016,0.021599999999999397 7.918300000000016,0.026599999999998403 7.927999999999997,0.05349999999999966 7.931100000000015,0.05829999999999913 7.943299999999994,0.06380000000000052 7.960800000000006,0.0683000000000007 7.969999999999999,0.06799999999999784 7.973600000000005,0.06409999999999982 "></polygon><polygon points="8.550700000000006,1.7764999999999986 8.5428,1.770699999999998 8.536100000000005,1.7698999999999998 8.526900000000012,1.775500000000001 8.520200000000017,1.7856999999999985 8.518699999999995,1.7917999999999985 8.518599999999992,1.8076000000000008 8.522199999999998,1.8173999999999992 8.522500000000008,1.8244000000000007 8.525100000000009,1.8274000000000008 8.550700000000006,1.8175999999999988 8.556100000000015,1.8122000000000007 8.55879999999999,1.8033000000000001 8.558600000000013,1.7912999999999997 8.555499999999995,1.779399999999999 8.550700000000006,1.7764999999999986 "></polygon><polygon points="8.176099999999991,2.119699999999998 8.190799999999996,2.1148999999999987 8.198800000000006,2.1087999999999987 8.201300000000003,2.0982999999999983 8.200800000000015,2.090799999999998 8.196400000000011,2.0732999999999997 8.168800000000005,2.0608000000000004 8.159700000000015,2.0699000000000005 8.155500000000018,2.081299999999999 8.155000000000001,2.0893999999999977 8.158000000000015,2.0988000000000007 8.157700000000006,2.1113 8.159099999999995,2.1159999999999997 8.166300000000007,2.1205 8.176099999999991,2.119699999999998 "></polygon><polygon points="7.955800000000011,12.876299999999999 7.9535999999999945,12.8744 7.951400000000007,12.8772 7.955199999999991,12.879399999999999 7.955800000000011,12.876299999999999 "></polygon><polygon points="7.923300000000012,12.877799999999999 7.92410000000001,12.8768 7.9191000000000145,12.873299999999999 7.916600000000017,12.873299999999999 7.917200000000008,12.881599999999999 7.923300000000012,12.877799999999999 "></polygon><polygon points="7.828499999999991,12.9796 7.828000000000003,12.977699999999999 7.839400000000012,12.9622 7.850200000000001,12.942699999999999 7.8553,12.937199999999999 7.854700000000008,12.9344 7.856099999999998,12.9352 7.859399999999994,12.9322 7.860500000000002,12.9338 7.868300000000005,12.9325 7.869699999999995,12.930499999999999 7.871600000000001,12.9322 7.872700000000009,12.9308 7.873800000000017,12.9338 7.886300000000006,12.922699999999999 7.8962999999999965,12.903799999999999 7.9033000000000015,12.8949 7.907499999999999,12.8864 7.915300000000002,12.8772 7.9147000000000105,12.874699999999999 7.912399999999991,12.874099999999999 7.906900000000007,12.880199999999999 7.900000000000006,12.8936 7.891300000000001,12.9049 7.886300000000006,12.9177 7.881599999999992,12.922699999999999 7.872700000000009,12.928799999999999 7.854399999999998,12.9308 7.849400000000003,12.9347 7.839200000000005,12.9565 7.821899999999999,12.9819 7.827200000000005,12.985999999999999 7.82820000000001,12.984 7.826600000000013,12.9813 7.828499999999991,12.9796 "></polygon><polygon points="7.963899999999995,12.9779 7.971300000000014,12.9666 7.979100000000017,12.960799999999999 7.9879999999999995,12.9444 7.9979999999999905,12.933499999999999 7.997100000000017,12.926599999999999 7.990000000000009,12.921 7.987700000000018,12.9216 7.992999999999995,12.926599999999999 7.993600000000015,12.933 7.982699999999994,12.946 7.982400000000013,12.9505 7.979700000000008,12.9527 7.979100000000017,12.9558 7.977699999999999,12.9552 7.976699999999994,12.9583 7.9731000000000165,12.9591 7.97290000000001,12.9618 7.964400000000012,12.9672 7.95859999999999,12.9794 7.962099999999992,12.9817 7.963899999999995,12.9779 "></polygon><polygon points="7.957400000000007,12.984399999999999 7.956600000000009,12.986899999999999 7.957999999999998,12.9872 7.9594000000000165,12.9849 7.95859999999999,12.9824 7.957400000000007,12.984399999999999 "></polygon><polygon points="7.955399999999997,13.004 7.956400000000002,13.0002 7.9594000000000165,12.9971 7.9572,12.995199999999999 7.957999999999998,12.9894 7.956400000000002,12.9877 7.956099999999992,12.9947 7.952699999999993,12.999699999999999 7.95089999999999,13.0077 7.9535999999999945,13.008 7.955399999999997,13.004 "></polygon><polygon points="7.95089999999999,13.0098 7.948900000000009,13.0148 7.950400000000002,13.018099999999999 7.951999999999998,13.0185 7.950800000000015,13.014199999999999 7.953300000000013,13.0102 7.95089999999999,13.0098 "></polygon><polygon points="7.883100000000013,13.0435 7.8910999999999945,13.040799999999999 7.898300000000006,13.0352 7.913600000000002,13.0283 7.920600000000007,13.023299999999999 7.927700000000016,13.021899999999999 7.934100000000001,13.0244 7.945799999999991,13.0258 7.947200000000009,13.0238 7.933600000000013,13.0194 7.923300000000012,13.0197 7.912700000000001,13.023499999999999 7.887500000000017,13.0391 7.882200000000012,13.0399 7.8729999999999905,13.037199999999999 7.870800000000003,13.039399999999999 7.876599999999996,13.0435 7.883100000000013,13.0435 "></polygon><polygon points="7.828300000000013,13.0366 7.831099999999992,13.024899999999999 7.8337999999999965,13.0213 7.833500000000015,13.0171 7.8300000000000125,13.0177 7.8285999999999945,13.0208 7.825500000000005,13.034899999999999 7.826600000000013,13.038 7.828300000000013,13.0366 "></polygon><polygon points="7.832099999999997,13.042399999999999 7.844999999999999,13.0352 7.852499999999992,13.033299999999999 7.861099999999993,13.035499999999999 7.867999999999995,13.0397 7.870800000000003,13.0369 7.865800000000007,13.0336 7.8633000000000095,13.035499999999999 7.8633000000000095,13.033 7.861400000000003,13.0316 7.846599999999995,13.030199999999999 7.842199999999991,13.0335 7.835000000000008,13.035499999999999 7.830800000000011,13.0405 7.830500000000001,13.042399999999999 7.832099999999997,13.042399999999999 "></polygon><polygon points="2.7543000000000006,3.929199999999998 2.7627999999999986,3.9282000000000004 2.7668999999999926,3.9252000000000002 2.7672000000000025,3.9224999999999994 2.764499999999998,3.9061999999999983 2.7564000000000135,3.900299999999998 2.750799999999998,3.892699999999998 2.746700000000004,3.8832999999999984 2.732599999999991,3.8779000000000003 2.727000000000004,3.873000000000001 2.7220000000000084,3.8629999999999995 2.706700000000012,3.865500000000001 2.7021000000000015,3.868400000000001 2.699399999999997,3.8825000000000003 2.6952,3.8884000000000007 2.6814999999999998,3.9008000000000003 2.6828000000000145,3.905000000000001 2.700099999999992,3.9208999999999996 2.7055000000000007,3.9311000000000007 2.7072000000000003,3.9403000000000006 2.7065000000000055,3.961299999999998 2.7146999999999935,3.9715999999999987 2.7205999999999904,3.9700999999999986 2.7368000000000166,3.9488999999999983 2.745200000000011,3.9435000000000002 2.7504000000000133,3.9315999999999995 2.7543000000000006,3.929199999999998 "></polygon><polygon points="2.7014000000000067,3.8918 2.704800000000006,3.888099999999998 2.7084000000000117,3.878999999999998 2.7156999999999982,3.877299999999998 2.7232999999999947,3.878399999999999 2.7417000000000087,3.8920999999999992 2.753399999999999,3.9053000000000004 2.7572000000000116,3.9147999999999996 2.7572000000000116,3.919699999999999 2.7528000000000077,3.921499999999998 2.7464999999999975,3.927699999999998 2.7408000000000072,3.939399999999999 2.734499999999997,3.9435000000000002 2.720799999999997,3.9589999999999996 2.717399999999998,3.9589999999999996 2.7153000000000134,3.955300000000001 2.7109000000000094,3.927900000000001 2.6931999999999903,3.9007000000000005 2.696600000000018,3.899899999999999 2.7014000000000067,3.8918 "></polygon><polygon points="2.686800000000005,8.6813 2.686399999999992,8.6794 2.6825000000000045,8.680499999999999 2.6831999999999994,8.6815 2.686800000000005,8.6813 "></polygon><polygon points="2.6831999999999994,8.684899999999999 2.685200000000009,8.683 2.6777000000000157,8.6853 2.679699999999997,8.6877 2.6831999999999994,8.684899999999999 "></polygon><polygon points="2.6996000000000038,8.715499999999999 2.6955000000000098,8.718 2.696600000000018,8.7202 2.7013000000000034,8.7158 2.6996000000000038,8.715499999999999 "></polygon><polygon points="2.7638000000000034,8.6274 2.7635999999999967,8.629399999999999 2.765500000000003,8.6272 2.765199999999993,8.6251 2.7638000000000034,8.6274 "></polygon><polygon points="2.828800000000001,8.6679 2.8277999999999963,8.671899999999999 2.829900000000009,8.6741 2.8318999999999903,8.6691 2.8310000000000173,8.6676 2.828800000000001,8.6679 "></polygon><polygon points="2.831700000000012,8.681799999999999 2.8300000000000125,8.6833 2.8301999999999907,8.6844 2.832400000000007,8.6824 2.831700000000012,8.681799999999999 "></polygon><polygon points="2.8044000000000153,8.7091 2.8016000000000076,8.708499999999999 2.800200000000018,8.7097 2.8016000000000076,8.710999999999999 2.8044000000000153,8.7091 "></polygon><polygon points="2.7519000000000062,8.7324 2.752200000000016,8.7327 2.7505000000000166,8.7372 2.753600000000006,8.7324 2.7530000000000143,8.7305 2.7519000000000062,8.7324 "></polygon><polygon points="2.7479000000000156,8.739199999999999 2.7489999999999952,8.740699999999999 2.7489999999999952,8.7377 2.7479999999999905,8.7381 2.7479000000000156,8.739199999999999 "></polygon><polygon points="2.747700000000009,8.7463 2.7509000000000015,8.746599999999999 2.7513000000000147,8.7442 2.7490999999999985,8.7439 2.747700000000009,8.7463 "></polygon><polygon points="2.74969999999999,8.751 2.752200000000016,8.754399999999999 2.753900000000016,8.7533 2.7523999999999944,8.747499999999999 2.74969999999999,8.7486 2.74969999999999,8.751 "></polygon><polygon points="2.7752000000000123,8.7072 2.7727000000000146,8.7105 2.772999999999996,8.7144 2.7745999999999924,8.7135 2.7770000000000152,8.706199999999999 2.7752000000000123,8.7072 "></polygon><polygon points="2.76400000000001,8.718 2.7660999999999945,8.7168 2.765000000000015,8.7149 2.757499999999993,8.7205 2.759100000000018,8.7219 2.76400000000001,8.718 "></polygon><polygon points="4.9147000000000105,11.507299999999999 4.9162000000000035,11.5069 4.915300000000002,11.5053 4.914099999999991,11.5056 4.9147000000000105,11.507299999999999 "></polygon><polygon points="4.926099999999991,11.5161 4.923599999999993,11.5121 4.920600000000007,11.5148 4.923400000000015,11.520399999999999 4.925200000000018,11.5201 4.926099999999991,11.5161 "></polygon><polygon points="6.129700000000014,3.0890999999999984 6.125500000000017,3.091000000000001 6.126100000000008,3.0974000000000004 6.1233,3.1023999999999994 6.126599999999996,3.1043999999999983 6.129199999999997,3.101499999999998 6.13130000000001,3.0947999999999993 6.130500000000012,3.093 6.132000000000005,3.0915 6.13130000000001,3.088899999999999 6.129700000000014,3.0890999999999984 "></polygon><polygon points="6.110900000000015,3.1350999999999978 6.1200000000000045,3.1236999999999995 6.1233,3.1165999999999983 6.123500000000007,3.1112 6.1259000000000015,3.1104999999999983 6.1255999999999915,3.1084999999999994 6.123999999999995,3.107199999999999 6.119699999999995,3.1079000000000008 6.122500000000002,3.1095000000000006 6.120400000000018,3.1091999999999977 6.118600000000015,3.1113 6.119699999999995,3.1144 6.117999999999995,3.1190999999999995 6.112300000000005,3.127299999999998 6.1118999999999915,3.1219 6.102499999999992,3.1037999999999997 6.104600000000005,3.098700000000001 6.102499999999992,3.095399999999998 6.105500000000006,3.087699999999998 6.104700000000008,3.0852000000000004 6.106899999999996,3.0777 6.097200000000015,3.0676999999999985 6.0882000000000005,3.0657999999999994 6.08359999999999,3.0747 6.083300000000008,3.078599999999998 6.076600000000013,3.0883000000000003 6.078499999999991,3.0913000000000004 6.078000000000003,3.0951999999999984 6.08359999999999,3.1012999999999984 6.085200000000015,3.109099999999998 6.0844000000000165,3.113299999999999 6.099099999999993,3.1259999999999977 6.104399999999998,3.1346999999999987 6.110900000000015,3.1350999999999978 "></polygon><polygon points="6.936800000000005,2.6967 6.937399999999997,2.696999999999999 6.9380999999999915,2.696300000000001 6.93610000000001,2.695899999999998 6.936800000000005,2.6967 "></polygon><polygon points="6.149400000000014,3.0432999999999986 6.147500000000008,3.0443999999999996 6.150499999999994,3.0459999999999994 6.151299999999992,3.043800000000001 6.149400000000014,3.0432999999999986 "></polygon><polygon points="6.151800000000009,3.054400000000001 6.1521999999999935,3.049599999999998 6.1469000000000165,3.0473999999999997 6.148200000000003,3.0516000000000005 6.145499999999998,3.0565999999999995 6.149100000000004,3.058 6.151800000000009,3.054400000000001 "></polygon><polygon points="7.831000000000017,12.9946 7.829900000000009,12.9946 7.830600000000004,12.992799999999999 7.828900000000004,12.9931 7.829800000000006,12.9958 7.831099999999992,12.995899999999999 7.831700000000012,12.9931 7.831000000000017,12.9946 "></polygon><polygon points="4.923300000000012,11.5221 4.9243999999999915,11.5236 4.925100000000015,11.5217 4.923900000000003,11.521099999999999 4.923300000000012,11.5221 "></polygon><polygon points="4.848600000000005,11.5222 4.849400000000003,11.521099999999999 4.847200000000015,11.5199 4.844400000000007,11.5224 4.843299999999999,11.5197 4.846400000000017,11.5193 4.847100000000012,11.5175 4.853000000000009,11.5185 4.860000000000014,11.512699999999999 4.861099999999993,11.5133 4.8659000000000106,11.509599999999999 4.868799999999993,11.510299999999999 4.86699999999999,11.508099999999999 4.871299999999991,11.5061 4.871900000000011,11.5016 4.8740999999999985,11.503 4.877499999999998,11.5024 4.8744000000000085,11.498 4.876900000000006,11.4969 4.879400000000004,11.501299999999999 4.8840000000000146,11.4984 4.879400000000004,11.4949 4.876100000000008,11.4958 4.857500000000016,11.5122 4.8416,11.517199999999999 4.840599999999995,11.5231 4.844400000000007,11.536399999999999 4.844400000000007,11.5441 4.847700000000003,11.5533 4.8507000000000176,11.555399999999999 4.8455000000000155,11.5291 4.846100000000007,11.523499999999999 4.848600000000005,11.5222 "></polygon><polygon points="4.873800000000017,11.588799999999999 4.900800000000004,11.5519 4.9254999999999995,11.5338 4.924700000000001,11.5261 4.923400000000015,11.526299999999999 4.921500000000009,11.5327 4.9077000000000055,11.5419 4.8922000000000025,11.5566 4.87360000000001,11.5847 4.867999999999995,11.5822 4.866900000000015,11.587399999999999 4.8700000000000045,11.589699999999999 4.873800000000017,11.588799999999999 "></polygon><polygon points="4.852699999999999,11.561599999999999 4.8536,11.565 4.855800000000016,11.566899999999999 4.856700000000018,11.5641 4.853800000000007,11.559899999999999 4.852699999999999,11.561599999999999 "></polygon><polygon points="0.4677000000000078,10.402 0.4697000000000173,10.399899999999999 0.47050000000001546,10.3949 0.4655999999999949,10.392399999999999 0.459699999999998,10.398 0.4579999999999984,10.4016 0.4633000000000038,10.4041 0.46639999999999304,10.403799999999999 0.4677000000000078,10.402 "></polygon><polygon points="0.04830000000001178,11.045399999999999 0.03340000000000032,11.043299999999999 0.029799999999994498,11.0457 0.02750000000000341,11.0505 0.029200000000003,11.051699999999999 0.03130000000001587,11.0483 0.039800000000013824,11.048499999999999 0.04070000000001528,11.0505 0.03669999999999618,11.056899999999999 0.039299999999997226,11.0586 0.048799999999999955,11.048499999999999 0.04830000000001178,11.045399999999999 "></polygon><polygon points="0.011300000000005639,11.068 0.01470000000000482,11.065 0.013900000000006685,11.062999999999999 0.0,11.0655 0.008299999999991314,11.0685 0.011300000000005639,11.068 "></polygon><polygon points="0.03440000000000509,11.070599999999999 0.03390000000001692,11.073799999999999 0.03499999999999659,11.074499999999999 0.03640000000001464,11.0705 0.03440000000000509,11.070599999999999 "></polygon><polygon points="0.03440000000000509,11.085799999999999 0.03460000000001173,11.089699999999999 0.0367999999999995,11.0901 0.036100000000004684,11.085799999999999 0.03440000000000509,11.085799999999999 "></polygon><polygon points="0.04619999999999891,11.1112 0.0438000000000045,11.105699999999999 0.037700000000000955,11.0991 0.03640000000001464,11.099699999999999 0.03710000000000946,11.105699999999999 0.03440000000000509,11.1066 0.03190000000000737,11.104199999999999 0.029200000000003,11.1082 0.03319999999999368,11.110999999999999 0.04359999999999786,11.1138 0.04619999999999891,11.1112 "></polygon><polygon points="4.795800000000014,11.936399999999999 4.7938000000000045,11.9369 4.795199999999994,11.9405 4.798000000000002,11.9385 4.795800000000014,11.936399999999999 "></polygon><polygon points="4.792699999999996,11.9613 4.79910000000001,11.9591 4.8023000000000025,11.9538 4.802199999999999,11.9499 4.799800000000005,11.943299999999999 4.79679999999999,11.9424 4.795800000000014,11.9438 4.7993999999999915,11.953999999999999 4.785500000000013,11.960099999999999 4.782800000000009,11.9505 4.782000000000011,11.937 4.782200000000017,11.934199999999999 4.784099999999995,11.9324 4.782200000000017,11.931899999999999 4.781499999999994,11.929699999999999 4.7856000000000165,11.929699999999999 4.784999999999997,11.9263 4.786400000000015,11.9255 4.794200000000018,11.935799999999999 4.796600000000012,11.934099999999999 4.793900000000008,11.925799999999999 4.787700000000001,11.9216 4.775100000000009,11.924299999999999 4.776600000000002,11.9285 4.780500000000018,11.9294 4.779200000000003,11.9308 4.780799999999999,11.933499999999999 4.776299999999992,11.936599999999999 4.780000000000001,11.9591 4.783600000000007,11.9636 4.792699999999996,11.9613 "></polygon>
    </svg>
    