
    <svg width="0.5232999999999919" height="0.41440000000000055" xmlns="http://www.w3.org/2000/svg" xmlns:xlink="http://www.w3.org/1999/xlink" style="transform: scale(1, -1)">
        <polygon points="0.5185999999999922,0.021399999999999864 0.5227000000000004,0.01750000000000007 0.5232999999999919,0.013300000000000978 0.5224999999999937,0.0036000000000004917 0.5202000000000027,0.0 0.5187999999999988,0.000600000000000378 0.5185999999999922,0.007500000000000284 0.5164000000000044,0.010500000000000398 0.5140999999999991,0.02000000000000135 0.5143999999999949,0.02170000000000094 0.5185999999999922,0.021399999999999864 "></polygon><polygon points="0.3177000000000021,0.09940000000000104 0.3160999999999916,0.10000000000000142 0.3160999999999916,0.10280000000000022 0.3177000000000021,0.10250000000000092 0.3177000000000021,0.09940000000000104 "></polygon><polygon points="0.30750000000000455,0.1031000000000013 0.30939999999999657,0.10030000000000072 0.30879999999999086,0.09890000000000043 0.30750000000000455,0.09890000000000043 0.3061000000000007,0.10390000000000121 0.30750000000000455,0.1031000000000013 "></polygon><polygon points="0.16249999999999432,0.021900000000000475 0.16270000000000095,0.021900000000000475 0.16270000000000095,0.02170000000000094 0.16249999999999432,0.02170000000000094 0.16249999999999432,0.021900000000000475 "></polygon><polygon points="0.24629999999999086,0.15050000000000097 0.24859999999999616,0.14890000000000114 0.2488999999999919,0.14780000000000015 0.24629999999999086,0.14920000000000044 0.24549999999999272,0.15110000000000134 0.24629999999999086,0.15050000000000097 "></polygon><polygon points="0.011600000000001387,0.414200000000001 0.05109999999999104,0.3886000000000003 0.06770000000000209,0.3808000000000007 0.08520000000000039,0.3780000000000001 0.09470000000000312,0.3686000000000007 0.10249999999999204,0.3539000000000012 0.11019999999999186,0.3431000000000015 0.11050000000000182,0.33560000000000123 0.10330000000000439,0.33640000000000114 0.10269999999999868,0.33420000000000094 0.10410000000000252,0.33330000000000126 0.10469999999999402,0.33560000000000123 0.11079999999999757,0.33470000000000155 0.1115999999999957,0.3097000000000012 0.11499999999999488,0.2986000000000004 0.12250000000000227,0.2853000000000012 0.12409999999999854,0.27780000000000094 0.13049999999999784,0.27080000000000126 0.13629999999999143,0.2597000000000005 0.15380000000000393,0.24780000000000157 0.16190000000000282,0.23859999999999992 0.1752000000000038,0.2303000000000015 0.18189999999999884,0.22170000000000023 0.19190000000000396,0.21610000000000085 0.21859999999999502,0.20889999999999986 0.22939999999999827,0.21060000000000123 0.2365999999999957,0.20970000000000155 0.2476999999999947,0.20310000000000095 0.2586000000000013,0.20000000000000107 0.2768999999999977,0.20000000000000107 0.28770000000000095,0.19750000000000156 0.3079999999999927,0.19720000000000049 0.3263999999999925,0.1858000000000004 0.33329999999999416,0.17970000000000041 0.34439999999999316,0.17330000000000112 0.34909999999999286,0.16830000000000034 0.35660000000000025,0.15280000000000094 0.3558000000000021,0.15000000000000036 0.35079999999999245,0.14670000000000094 0.3487999999999971,0.14670000000000094 0.345799999999997,0.15000000000000036 0.3432999999999993,0.14830000000000076 0.3400000000000034,0.15330000000000155 0.3371999999999957,0.15249999999999986 0.3383000000000038,0.15030000000000143 0.3357999999999919,0.14920000000000044 0.3363999999999976,0.14670000000000094 0.3410999999999973,0.14280000000000115 0.3352000000000004,0.14140000000000086 0.33379999999999654,0.13890000000000136 0.33910000000000196,0.13890000000000136 0.33969999999999345,0.13560000000000016 0.34439999999999316,0.13830000000000098 0.3482999999999947,0.13530000000000086 0.35549999999999216,0.13440000000000119 0.3511000000000024,0.14530000000000065 0.35609999999999786,0.14939999999999998 0.35829999999999984,0.14939999999999998 0.3615999999999957,0.14029999999999987 0.376899999999992,0.11690000000000111 0.39000000000000057,0.10470000000000113 0.40219999999999345,0.08689999999999998 0.4247000000000014,0.06970000000000098 0.42659999999999343,0.06750000000000078 0.4262999999999977,0.06530000000000058 0.41689999999999827,0.06780000000000008 0.41270000000000095,0.06640000000000157 0.41219999999999857,0.06360000000000099 0.4230000000000018,0.06300000000000061 0.4136000000000024,0.0619000000000014 0.3994,0.06550000000000011 0.39409999999999457,0.06500000000000128 0.38769999999999527,0.06670000000000087 0.37940000000000396,0.06300000000000061 0.3721999999999923,0.055800000000001404 0.35719999999999175,0.05940000000000012 0.345799999999997,0.06500000000000128 0.34019999999999584,0.06530000000000058 0.3374999999999915,0.0683000000000007 0.33159999999999457,0.07030000000000136 0.3329999999999984,0.07140000000000057 0.3282999999999987,0.07500000000000107 0.327699999999993,0.08030000000000115 0.32049999999999557,0.08110000000000106 0.32519999999999527,0.07469999999999999 0.33079999999999643,0.07110000000000127 0.3241000000000014,0.07469999999999999 0.31969999999999743,0.08079999999999998 0.314399999999992,0.08280000000000065 0.3101999999999947,0.08689999999999998 0.31109999999999616,0.09360000000000035 0.3125,0.09470000000000134 0.31109999999999616,0.09830000000000005 0.3188999999999993,0.09420000000000073 0.3211000000000013,0.10030000000000072 0.3229999999999933,0.09940000000000104 0.32330000000000325,0.10170000000000101 0.31969999999999743,0.10860000000000092 0.31629999999999825,0.10690000000000133 0.31329999999999814,0.1092000000000013 0.3135999999999939,0.10080000000000133 0.3113999999999919,0.10080000000000133 0.31109999999999616,0.10690000000000133 0.3096999999999923,0.10670000000000002 0.3101999999999947,0.1031000000000013 0.307699999999997,0.10580000000000034 0.30579999999999075,0.1053000000000015 0.30409999999999116,0.10190000000000055 0.30219999999999914,0.1031000000000013 0.3019000000000034,0.10580000000000034 0.29769999999999186,0.10360000000000014 0.29939999999999145,0.09920000000000151 0.30299999999999727,0.09830000000000005 0.3027000000000015,0.09470000000000134 0.30750000000000455,0.09670000000000023 0.3100000000000023,0.09560000000000102 0.30879999999999086,0.09390000000000143 0.3096999999999923,0.08530000000000015 0.30579999999999075,0.08389999999999986 0.30049999999999955,0.08860000000000134 0.29999999999999716,0.09250000000000114 0.29829999999999757,0.09360000000000035 0.2989000000000033,0.09810000000000052 0.2972000000000037,0.09940000000000104 0.28889999999999816,0.09280000000000044 0.2843999999999909,0.09500000000000064 0.28249999999999886,0.09860000000000113 0.2807999999999993,0.09810000000000052 0.2746999999999957,0.10110000000000063 0.2694000000000045,0.10610000000000142 0.265199999999993,0.1053000000000015 0.26439999999999486,0.10810000000000031 0.24970000000000425,0.11750000000000149 0.23499999999999943,0.12360000000000149 0.2271999999999963,0.125 0.2265999999999906,0.12670000000000137 0.23049999999999216,0.1311 0.2335999999999956,0.13830000000000098 0.23749999999999716,0.13810000000000144 0.23799999999999955,0.13580000000000148 0.23999999999999488,0.1372 0.25,0.13640000000000008 0.25019999999999243,0.13750000000000107 0.2476999999999947,0.13780000000000037 0.2476999999999947,0.14140000000000086 0.24389999999999645,0.14000000000000057 0.24110000000000298,0.14250000000000007 0.24580000000000268,0.14720000000000155 0.2488999999999919,0.14530000000000065 0.24909999999999854,0.14170000000000016 0.2505000000000024,0.14190000000000147 0.2493999999999943,0.14530000000000065 0.2505000000000024,0.15030000000000143 0.2530000000000001,0.15169999999999995 0.2510999999999939,0.15640000000000143 0.24859999999999616,0.15670000000000073 0.2476999999999947,0.15500000000000114 0.24500000000000455,0.15610000000000035 0.2436000000000007,0.15420000000000122 0.24049999999999727,0.15390000000000015 0.23969999999999914,0.15190000000000126 0.24190000000000111,0.14550000000000018 0.2372000000000014,0.14420000000000144 0.2372000000000014,0.14110000000000156 0.23080000000000211,0.14080000000000048 0.22910000000000252,0.14220000000000077 0.2301999999999964,0.14550000000000018 0.22910000000000252,0.14580000000000126 0.22799999999999443,0.14250000000000007 0.22469999999999857,0.14639999999999986 0.220799999999997,0.14610000000000056 0.22189999999999088,0.14830000000000076 0.21889999999999077,0.14670000000000094 0.21519999999999584,0.14920000000000044 0.21469999999999345,0.14550000000000018 0.21889999999999077,0.14550000000000018 0.2224999999999966,0.14220000000000077 0.2224999999999966,0.13860000000000028 0.22639999999999816,0.13970000000000127 0.23049999999999216,0.13830000000000098 0.23049999999999216,0.1333000000000002 0.2283000000000044,0.1294000000000004 0.2237999999999971,0.126100000000001 0.20940000000000225,0.13030000000000008 0.19409999999999172,0.14029999999999987 0.19079999999999586,0.14720000000000155 0.17909999999999116,0.15190000000000126 0.17829999999999302,0.15670000000000073 0.1700000000000017,0.15750000000000064 0.16519999999999868,0.16060000000000052 0.16219999999999857,0.16469999999999985 0.1629999999999967,0.17110000000000092 0.15909999999999513,0.1750000000000007 0.1576999999999913,0.182500000000001 0.14999999999999147,0.188600000000001 0.14520000000000266,0.20000000000000107 0.14220000000000255,0.20060000000000144 0.14329999999999643,0.20750000000000135 0.13580000000000325,0.21640000000000015 0.12439999999999429,0.22029999999999994 0.12189999999999657,0.22250000000000014 0.1186000000000007,0.22250000000000014 0.1127000000000038,0.22050000000000125 0.10800000000000409,0.21170000000000044 0.10410000000000252,0.20860000000000056 0.09439999999999316,0.21060000000000123 0.09130000000000393,0.21360000000000134 0.08520000000000039,0.21580000000000155 0.08329999999999416,0.22140000000000093 0.07659999999999911,0.22610000000000063 0.077699999999993,0.23440000000000083 0.07580000000000098,0.23440000000000083 0.07580000000000098,0.23690000000000033 0.07689999999999486,0.24080000000000013 0.06999999999999318,0.2436000000000007 0.07049999999999557,0.2489000000000008 0.0671999999999997,0.25170000000000137 0.06770000000000209,0.2536000000000005 0.06609999999999161,0.2561 0.057699999999996976,0.25780000000000136 0.057699999999996976,0.26640000000000086 0.05469999999999686,0.26860000000000106 0.05519999999999925,0.27110000000000056 0.0502000000000038,0.27330000000000076 0.04269999999999641,0.28190000000000026 0.03860000000000241,0.2814000000000014 0.03549999999999898,0.28889999999999993 0.03359999999999275,0.28969999999999985 0.036100000000004684,0.2931000000000008 0.039400000000000546,0.2936000000000014 0.03860000000000241,0.29690000000000083 0.04019999999999868,0.2961000000000009 0.041600000000002524,0.2983000000000011 0.044699999999991746,0.29720000000000013 0.044699999999991746,0.2997000000000014 0.04189999999999827,0.2997000000000014 0.039699999999996294,0.3036000000000012 0.039400000000000546,0.29940000000000033 0.03719999999999857,0.2983000000000011 0.03659999999999286,0.3010999999999999 0.03829999999999245,0.3017000000000003 0.03829999999999245,0.3036000000000012 0.03549999999999898,0.3033000000000001 0.03629999999999711,0.301400000000001 0.035799999999994725,0.3008000000000006 0.034099999999995134,0.3042000000000016 0.03269999999999129,0.30189999999999984 0.03520000000000323,0.3000000000000007 0.034099999999995134,0.2981000000000016 0.036100000000004684,0.2939000000000007 0.03300000000000125,0.2900000000000009 0.024699999999995725,0.2906000000000013 0.022499999999993747,0.2922000000000011 0.017499999999998295,0.3025000000000002 0.011899999999997135,0.3047000000000004 0.011299999999991428,0.3086000000000002 0.005799999999993588,0.31670000000000087 0.008299999999991314,0.3219000000000012 0.017200000000002547,0.3283000000000005 0.014099999999999113,0.32940000000000147 0.010199999999997544,0.33919999999999995 0.010199999999997544,0.34690000000000154 0.011899999999997135,0.35110000000000063 0.007999999999995566,0.357800000000001 0.007699999999999818,0.3608000000000011 0.009999999999990905,0.363900000000001 0.007499999999993179,0.3694000000000006 0.010499999999993292,0.3739000000000008 0.00549999999999784,0.382200000000001 0.008600000000001273,0.39029999999999987 0.0,0.40310000000000024 0.0037999999999982492,0.4064000000000014 0.008600000000001273,0.41440000000000055 0.011600000000001387,0.414200000000001 "></polygon>
    </svg>
    