
    <svg width="0.240000000000002" height="0.43379999999999974" xmlns="http://www.w3.org/2000/svg" xmlns:xlink="http://www.w3.org/1999/xlink" style="transform: scale(1, -1)">
        <polygon points="0.10520000000000351,0.06439999999999912 0.10609999999999786,0.06799999999999962 0.10439999999999827,0.0708000000000002 0.10580000000000211,0.0732999999999997 0.10379999999999967,0.0818999999999992 0.09440000000000026,0.0887999999999991 0.0910999999999973,0.0887999999999991 0.0887999999999991,0.09329999999999927 0.09140000000000015,0.10879999999999868 0.08610000000000184,0.11359999999999992 0.08440000000000225,0.12159999999999904 0.08270000000000266,0.12270000000000003 0.08800000000000097,0.13049999999999962 0.08659999999999712,0.14749999999999908 0.0840999999999994,0.1501999999999999 0.08500000000000085,0.15189999999999948 0.07580000000000098,0.16109999999999935 0.07410000000000139,0.16829999999999856 0.06860000000000355,0.17409999999999926 0.06909999999999883,0.17689999999999984 0.0666000000000011,0.18049999999999855 0.05859999999999843,0.1836000000000002 0.05270000000000152,0.19109999999999872 0.05360000000000298,0.2073999999999998 0.051600000000000534,0.21189999999999998 0.049399999999998556,0.2129999999999992 0.04829999999999757,0.21720000000000006 0.044400000000003104,0.22079999999999878 0.043900000000000716,0.22719999999999985 0.030000000000001137,0.23689999999999856 0.030000000000001137,0.24049999999999905 0.03359999999999985,0.24629999999999974 0.03020000000000067,0.2518999999999991 0.02470000000000283,0.25629999999999953 0.024399999999999977,0.2607999999999997 0.021599999999999397,0.2637999999999998 0.02049999999999841,0.2729999999999997 0.01769999999999783,0.2751999999999999 0.017499999999998295,0.2776999999999994 0.015799999999998704,0.2776999999999994 0.014099999999999113,0.2840999999999987 0.009399999999999409,0.2901999999999987 0.010500000000000398,0.29519999999999946 0.012999999999998124,0.29800000000000004 0.012700000000002376,0.3025000000000002 0.00829999999999842,0.3110999999999997 0.00829999999999842,0.31519999999999904 0.005200000000002092,0.3208000000000002 0.0058000000000006935,0.32379999999999853 0.0033000000000029672,0.3262999999999998 0.001100000000000989,0.3262999999999998 0.0,0.3301999999999996 0.0033000000000029672,0.3379999999999992 0.008899999999997021,0.3415999999999997 0.011899999999997135,0.3415999999999997 0.01659999999999684,0.3454999999999995 0.02020000000000266,0.35689999999999955 0.02360000000000184,0.36189999999999856 0.024099999999997124,0.36489999999999867 0.02190000000000225,0.37299999999999933 0.017200000000002547,0.3780000000000001 0.011600000000001387,0.3782999999999994 0.00829999999999842,0.3757999999999999 0.0033000000000029672,0.3757999999999999 0.0016000000000033765,0.37769999999999904 0.00269999999999726,0.3835999999999995 0.012999999999998124,0.38379999999999903 0.01769999999999783,0.3886000000000003 0.018799999999998818,0.392199999999999 0.013300000000000978,0.4004999999999992 0.016100000000001558,0.4037999999999986 0.012999999999998124,0.4062999999999999 0.012700000000002376,0.41080000000000005 0.015799999999998704,0.42409999999999926 0.021599999999999397,0.4321999999999999 0.05409999999999826,0.4324999999999992 0.057699999999996976,0.43379999999999974 0.05799999999999983,0.42989999999999995 0.05940000000000367,0.43109999999999893 0.06269999999999953,0.43019999999999925 0.06329999999999814,0.42520000000000024 0.07110000000000127,0.42049999999999876 0.07330000000000325,0.41080000000000005 0.0777000000000001,0.4090999999999987 0.07939999999999969,0.4018999999999995 0.08080000000000354,0.3998999999999988 0.08359999999999701,0.4004999999999992 0.08520000000000039,0.3979999999999997 0.08500000000000085,0.3943999999999992 0.08689999999999998,0.3948999999999998 0.08659999999999712,0.3933 0.08970000000000056,0.3915999999999986 0.08970000000000056,0.3876999999999988 0.09609999999999985,0.3904999999999994 0.09799999999999898,0.3873999999999995 0.10020000000000095,0.3902000000000001 0.10159999999999769,0.3872 0.10300000000000153,0.3896999999999995 0.10499999999999687,0.3872 0.10829999999999984,0.3915999999999986 0.11110000000000042,0.389899999999999 0.11359999999999815,0.3935999999999993 0.11610000000000298,0.3943999999999992 0.11829999999999785,0.3910999999999998 0.12250000000000227,0.3907999999999987 0.12299999999999756,0.3874999999999993 0.12469999999999715,0.3865999999999996 0.13410000000000366,0.3876999999999988 0.1366000000000014,0.3912999999999993 0.13940000000000197,0.3879999999999999 0.14410000000000167,0.3912999999999993 0.14470000000000027,0.3887999999999998 0.147199999999998,0.389899999999999 0.14580000000000126,0.3846999999999987 0.1501999999999981,0.38379999999999903 0.14939999999999998,0.38129999999999953 0.15220000000000056,0.3825000000000003 0.1535999999999973,0.38019999999999854 0.16020000000000323,0.3793999999999986 0.1636000000000024,0.3833000000000002 0.16890000000000072,0.3796999999999997 0.17439999999999856,0.38019999999999854 0.17770000000000152,0.3785999999999987 0.1747000000000014,0.36719999999999864 0.17860000000000298,0.36469999999999914 0.17770000000000152,0.36129999999999995 0.18249999999999744,0.36050000000000004 0.18189999999999884,0.35740000000000016 0.1858000000000004,0.3432999999999993 0.1880000000000024,0.3426999999999989 0.18939999999999912,0.3387999999999991 0.1927000000000021,0.3376999999999999 0.19299999999999784,0.3349999999999991 0.19720000000000226,0.3351999999999986 0.1980000000000004,0.3365999999999989 0.20250000000000057,0.3349999999999991 0.20609999999999928,0.3354999999999997 0.20940000000000225,0.3315999999999999 0.20830000000000126,0.3265999999999991 0.20940000000000225,0.3254999999999999 0.20470000000000255,0.3168999999999986 0.20629999999999882,0.31269999999999953 0.21050000000000324,0.3110999999999997 0.21580000000000155,0.3140999999999998 0.21829999999999927,0.3118999999999996 0.22160000000000224,0.31379999999999875 0.22129999999999939,0.31159999999999854 0.22440000000000282,0.31159999999999854 0.22359999999999758,0.30189999999999984 0.22129999999999939,0.29769999999999897 0.22299999999999898,0.29519999999999946 0.22879999999999967,0.29329999999999856 0.2272000000000034,0.28969999999999985 0.2325000000000017,0.28580000000000005 0.23080000000000211,0.2807999999999993 0.23440000000000083,0.2771999999999988 0.23270000000000124,0.2751999999999999 0.232999999999997,0.2698999999999998 0.23409999999999798,0.2683 0.2366000000000028,0.2687999999999988 0.23519999999999897,0.2626999999999988 0.238900000000001,0.2607999999999997 0.2383000000000024,0.2591000000000001 0.23380000000000223,0.2576999999999998 0.23329999999999984,0.2543999999999986 0.23550000000000182,0.25269999999999904 0.23380000000000223,0.24829999999999863 0.23160000000000025,0.24690000000000012 0.2325000000000017,0.24329999999999963 0.22829999999999728,0.24219999999999864 0.2254999999999967,0.23359999999999914 0.22270000000000323,0.23049999999999926 0.22579999999999956,0.22519999999999918 0.23409999999999798,0.22829999999999906 0.23109999999999786,0.22519999999999918 0.2325000000000017,0.2215999999999987 0.22970000000000113,0.21969999999999956 0.2302000000000035,0.21359999999999957 0.232999999999997,0.2126999999999999 0.23080000000000211,0.20999999999999908 0.2336000000000027,0.2085999999999988 0.23329999999999984,0.2051999999999996 0.23109999999999786,0.2027000000000001 0.22879999999999967,0.20359999999999978 0.22829999999999728,0.2007999999999992 0.2254999999999967,0.198599999999999 0.22800000000000153,0.1960999999999995 0.2383000000000024,0.19740000000000002 0.23910000000000053,0.19409999999999883 0.23799999999999955,0.19269999999999854 0.240000000000002,0.18879999999999875 0.2366000000000028,0.18629999999999924 0.22939999999999827,0.18579999999999863 0.22800000000000153,0.18379999999999974 0.22970000000000113,0.18079999999999963 0.22829999999999728,0.17659999999999876 0.23519999999999897,0.17499999999999893 0.23629999999999995,0.17220000000000013 0.23270000000000124,0.16990000000000016 0.22970000000000113,0.17019999999999946 0.22800000000000153,0.15879999999999939 0.23109999999999786,0.13989999999999903 0.2336000000000027,0.1368999999999989 0.23519999999999897,0.13049999999999962 0.23910000000000053,0.12629999999999875 0.23910000000000053,0.12159999999999904 0.23629999999999995,0.11799999999999855 0.23470000000000368,0.11109999999999864 0.23380000000000223,0.09379999999999988 0.23160000000000025,0.0926999999999989 0.2319000000000031,0.09079999999999977 0.23440000000000083,0.08990000000000009 0.2336000000000027,0.0865999999999989 0.23550000000000182,0.0838000000000001 0.23409999999999798,0.0838000000000001 0.23329999999999984,0.08129999999999882 0.23499999999999943,0.08109999999999928 0.22520000000000095,0.07659999999999911 0.22800000000000153,0.073599999999999 0.2254999999999967,0.07219999999999871 0.2261000000000024,0.06909999999999883 0.22299999999999898,0.06439999999999912 0.2225000000000037,0.050799999999998846 0.2201999999999984,0.04829999999999934 0.22109999999999985,0.04499999999999993 0.209699999999998,0.03739999999999988 0.20360000000000156,0.036099999999999355 0.19639999999999702,0.03739999999999988 0.19019999999999726,0.03359999999999985 0.18610000000000326,0.038000000000000256 0.17439999999999856,0.03880000000000017 0.170499999999997,0.03719999999999857 0.16660000000000252,0.031099999999998573 0.16660000000000252,0.022999999999999687 0.16440000000000055,0.020199999999999108 0.15440000000000254,0.01750000000000007 0.14939999999999998,0.013799999999999812 0.14800000000000324,0.01019999999999932 0.14909999999999712,0.00969999999999871 0.148299999999999,0.008599999999999497 0.15050000000000097,0.007999999999999119 0.15050000000000097,0.005499999999999616 0.1488999999999976,0.006599999999998829 0.14439999999999742,0.004399999999998627 0.1402000000000001,0.005199999999998539 0.13750000000000284,0.004399999999998627 0.1372,0.002200000000000202 0.13219999999999743,0.0032999999999994145 0.12939999999999685,0.0007999999999999119 0.12469999999999715,0.0 0.10580000000000211,0.007199999999999207 0.1069000000000031,0.009100000000000108 0.11019999999999897,0.006599999999998829 0.11469999999999914,0.008599999999999497 0.11500000000000199,0.01159999999999961 0.11910000000000309,0.016899999999999693 0.12019999999999698,0.024699999999999278 0.10999999999999943,0.03049999999999997 0.10660000000000025,0.034699999999999065 0.10719999999999885,0.03880000000000017 0.1022000000000034,0.052199999999999136 0.10249999999999915,0.05769999999999875 0.10520000000000351,0.06439999999999912 "></polygon>
    </svg>
    