
    <svg width="1.4368999999999996" height="0.9979999999999976" xmlns="http://www.w3.org/2000/svg" xmlns:xlink="http://www.w3.org/1999/xlink" style="transform: scale(1, -1)">
        <polygon points="0.9291,0.07920000000000016 0.9276,0.07869999999999777 0.9264999999999999,0.07349999999999568 0.9249999999999998,0.0730000000000004 0.8978999999999999,0.07509999999999906 0.8853999999999997,0.07920000000000016 0.8708,0.07920000000000016 0.8692000000000002,0.0777000000000001 0.8785999999999996,0.07659999999999911 0.9015000000000004,0.06619999999999493 0.9077999999999999,0.06199999999999761 0.9088000000000003,0.05679999999999552 0.9124999999999996,0.054199999999994475 0.9181999999999997,0.05679999999999552 0.9172000000000002,0.059899999999998954 0.9213000000000005,0.06199999999999761 0.9394999999999998,0.06669999999999732 0.9640000000000004,0.06619999999999493 0.9682000000000004,0.06409999999999627 0.9687000000000001,0.060499999999997556 0.9661,0.05269999999999442 0.9630000000000001,0.051600000000000534 0.9630000000000001,0.0484999999999971 0.9687000000000001,0.047999999999994714 0.9729000000000001,0.04999999999999716 0.9889999999999999,0.04949999999999477 0.9901,0.04639999999999844 0.9953000000000003,0.04329999999999501 0.9922000000000004,0.04019999999999868 0.9958,0.037599999999997635 0.9953000000000003,0.0338999999999956 0.9901,0.029699999999998283 1.0,0.025099999999994793 1.0077999999999996,0.02449999999999619 1.0088,0.0192999999999941 1.013,0.01719999999999544 1.0151000000000003,0.013099999999994338 1.0182000000000002,0.012000000000000455 1.0182000000000002,0.008899999999997021 1.0109000000000004,0.007899999999999352 1.0160999999999998,0.004699999999999704 1.0088,0.0036999999999949296 1.0061999999999998,0.0 0.9832999999999998,0.0 0.9806999999999997,0.0036999999999949296 0.9733999999999998,0.004699999999999704 0.9645000000000001,0.010500000000000398 0.9603999999999999,0.010500000000000398 0.9561999999999999,0.012599999999999056 0.9416000000000002,0.012599999999999056 0.9317000000000002,0.015200000000000102 0.9306999999999999,0.01829999999999643 0.9172000000000002,0.023499999999998522 0.9187000000000003,0.029199999999995896 0.9150999999999998,0.03289999999999793 0.9181999999999997,0.034900000000000375 0.9047000000000001,0.04019999999999868 0.9036,0.04329999999999501 0.8916000000000004,0.047999999999994714 0.8754999999999997,0.05059999999999576 0.8743999999999996,0.05369999999999919 0.8672000000000004,0.05469999999999686 0.8556999999999997,0.06199999999999761 0.8463000000000003,0.0630999999999986 0.8463000000000003,0.06619999999999493 0.8494000000000002,0.0683000000000007 0.8452999999999999,0.07039999999999935 0.8291000000000004,0.07089999999999463 0.8265000000000002,0.07450000000000045 0.8087999999999997,0.0817999999999941 0.8118999999999996,0.08389999999999986 0.8067000000000002,0.08599999999999852 0.8098999999999998,0.08809999999999718 0.8098999999999998,0.09329999999999927 0.8047000000000004,0.09429999999999694 0.8036000000000003,0.09740000000000038 0.7900999999999998,0.10269999999999868 0.7877000000000001,0.10919999999999419 0.7797000000000001,0.11309999999999576 0.7911000000000001,0.11719999999999686 0.7895000000000003,0.12709999999999866 0.7900999999999998,0.12869999999999493 0.7973999999999997,0.1296999999999997 0.7922000000000002,0.13179999999999836 0.7915999999999999,0.13339999999999463 0.7953000000000001,0.13700000000000045 0.7832999999999997,0.13749999999999574 0.7807000000000004,0.14119999999999777 0.7750000000000004,0.14170000000000016 0.7629999999999999,0.14639999999999986 0.7660999999999998,0.14849999999999852 0.7629999999999999,0.15159999999999485 0.7660999999999998,0.15370000000000061 0.7462999999999997,0.1588999999999956 0.7453000000000003,0.168299999999995 0.7401,0.16929999999999978 0.7431999999999999,0.1723999999999961 0.7255000000000003,0.17559999999999576 0.7244000000000002,0.1786999999999992 0.7172000000000001,0.17969999999999686 0.7140000000000004,0.18489999999999895 0.7066999999999997,0.18599999999999994 0.7083000000000004,0.1875 0.7140000000000004,0.1880999999999986 0.7130000000000001,0.1933000000000007 0.7161,0.19539999999999935 0.7130000000000001,0.19639999999999702 0.7119,0.19950000000000045 0.7026000000000003,0.20059999999999434 0.6921999999999997,0.2067999999999941 0.6921999999999997,0.20989999999999753 0.6978999999999997,0.2125999999999948 0.7035999999999998,0.21309999999999718 0.7035999999999998,0.21620000000000061 0.6984000000000004,0.21719999999999828 0.6974,0.22039999999999793 0.6932,0.22240000000000038 0.6879999999999997,0.22349999999999426 0.6868999999999996,0.2265999999999977 0.6837999999999997,0.22769999999999868 0.6817000000000002,0.23290000000000077 0.6936999999999998,0.23339999999999606 0.6952999999999996,0.23389999999999844 0.6942000000000004,0.23699999999999477 0.7015000000000002,0.23809999999999576 0.7026000000000003,0.2411999999999992 0.7061999999999999,0.24380000000000024 0.7057000000000002,0.2453999999999965 0.7004999999999999,0.24639999999999418 0.7004999999999999,0.2494999999999976 0.7020999999999997,0.25 0.7229000000000001,0.25209999999999866 0.7270000000000003,0.2541999999999973 0.7458,0.2541999999999973 0.7473999999999998,0.2546999999999997 0.7462999999999997,0.25789999999999935 0.7479000000000005,0.25839999999999463 0.7557,0.25789999999999935 0.7583000000000002,0.2541999999999973 0.7625000000000002,0.25839999999999463 0.7682000000000002,0.2558000000000007 0.7691999999999997,0.25269999999999726 0.7812000000000001,0.25209999999999866 0.7869000000000002,0.2494999999999976 0.7889999999999997,0.24639999999999418 0.7790999999999997,0.24169999999999447 0.7708000000000004,0.24169999999999447 0.7625000000000002,0.23749999999999716 0.7567000000000004,0.23699999999999477 0.7557,0.23389999999999844 0.75,0.23339999999999606 0.7484000000000002,0.23179999999999978 0.7603999999999997,0.2312999999999974 0.7645999999999997,0.22919999999999874 0.7770999999999999,0.23339999999999606 0.7895000000000003,0.23339999999999606 0.7937000000000003,0.2354999999999947 0.7994000000000003,0.2348999999999961 0.8036000000000003,0.23179999999999978 0.7880000000000003,0.22869999999999635 0.7889999999999997,0.22560000000000002 0.7790999999999997,0.22090000000000032 0.7733999999999996,0.22039999999999793 0.7609000000000004,0.21409999999999485 0.7599,0.21099999999999852 0.7519999999999998,0.20839999999999748 0.7359,0.2078999999999951 0.7380000000000004,0.20469999999999544 0.7462999999999997,0.20059999999999434 0.7603999999999997,0.2020999999999944 0.7686999999999999,0.20629999999999882 0.7832999999999997,0.2020999999999944 0.7874999999999996,0.20420000000000016 0.8395999999999999,0.20420000000000016 0.8432000000000004,0.19950000000000045 0.8400999999999996,0.1973999999999947 0.8400999999999996,0.19429999999999836 0.8457999999999997,0.19169999999999732 0.8499999999999996,0.19379999999999598 0.8536000000000001,0.1933000000000007 0.8578000000000001,0.19119999999999493 0.8547000000000002,0.18909999999999627 0.8562000000000003,0.1875 0.8604000000000003,0.1875 0.8646000000000003,0.18549999999999756 0.8723999999999998,0.18599999999999994 0.8771000000000004,0.18959999999999866 0.8875000000000002,0.18959999999999866 0.8958000000000004,0.18549999999999756 0.9000000000000004,0.1875 0.9040999999999997,0.1875 0.9146000000000001,0.1833999999999989 0.9203000000000001,0.1828999999999965 0.9348999999999998,0.17660000000000053 0.9333,0.17499999999999716 0.9276,0.17449999999999477 0.9271000000000003,0.1729999999999947 0.9297000000000004,0.16929999999999978 0.9368999999999996,0.16619999999999635 0.9297000000000004,0.16310000000000002 0.9432,0.16199999999999903 0.9432,0.15679999999999694 0.9401000000000002,0.15579999999999927 0.9368999999999996,0.15059999999999718 0.9165999999999999,0.1500999999999948 0.9124999999999996,0.15209999999999724 0.9108999999999998,0.15159999999999485 0.9099000000000004,0.14639999999999986 0.9000000000000004,0.14589999999999748 0.8941999999999997,0.14849999999999852 0.8916000000000004,0.15209999999999724 0.8901000000000003,0.15159999999999485 0.8890000000000002,0.1442999999999941 0.8817000000000004,0.14329999999999643 0.8833000000000002,0.14170000000000016 0.8895999999999997,0.14170000000000016 0.8936999999999999,0.1395999999999944 0.9062000000000001,0.1395999999999944 0.9088000000000003,0.13599999999999568 0.9249999999999998,0.13129999999999598 0.9333,0.13129999999999598 0.9394999999999998,0.13339999999999463 0.9452999999999996,0.1308000000000007 0.9462999999999999,0.12769999999999726 0.9493999999999998,0.12659999999999627 0.9478999999999997,0.12299999999999756 0.9484000000000004,0.11929999999999552 0.9515000000000002,0.11829999999999785 0.9526000000000003,0.11519999999999442 0.9577999999999998,0.11410000000000053 0.9577999999999998,0.1109999999999971 0.9354000000000005,0.11049999999999471 0.9311999999999996,0.10839999999999606 0.9249999999999998,0.11249999999999716 0.9229000000000003,0.11049999999999471 0.9255000000000004,0.10469999999999402 0.9390000000000001,0.10159999999999769 0.9458000000000002,0.09799999999999898 0.9603999999999999,0.09799999999999898 0.9645000000000001,0.09590000000000032 0.9770000000000003,0.09590000000000032 0.9790999999999999,0.09379999999999455 0.9786000000000001,0.09219999999999828 0.9729000000000001,0.0916999999999959 0.9583000000000004,0.08549999999999613 0.9436999999999998,0.08549999999999613 0.9421999999999997,0.08489999999999753 0.9432,0.0817999999999941 0.9291,0.07920000000000016 "></polygon><polygon points="0.8415999999999997,0.3895999999999944 0.8457999999999997,0.39170000000000016 0.8562000000000003,0.39170000000000016 0.8661000000000003,0.3890999999999991 0.8672000000000004,0.3859999999999957 0.875,0.3855000000000004 0.8807,0.38289999999999935 0.8827999999999996,0.37769999999999726 0.8796999999999997,0.3755999999999986 0.8827999999999996,0.3744999999999976 0.8837999999999999,0.3692999999999955 0.8890000000000002,0.36829999999999785 0.8901000000000003,0.3609999999999971 0.8952999999999998,0.3598999999999961 0.8952999999999998,0.3567999999999998 0.8853999999999997,0.35419999999999874 0.8729000000000005,0.35419999999999874 0.8686999999999996,0.3521000000000001 0.8646000000000003,0.35419999999999874 0.8582999999999998,0.35419999999999874 0.8556999999999997,0.3579000000000008 0.8316999999999997,0.36719999999999686 0.8276000000000003,0.3692999999999955 0.8265000000000002,0.37239999999999895 0.8212999999999999,0.37349999999999994 0.8291000000000004,0.381299999999996 0.8285999999999998,0.38289999999999935 0.8234000000000004,0.383899999999997 0.8265000000000002,0.3859999999999957 0.8276000000000003,0.39329999999999643 0.8415999999999997,0.3895999999999944 "></polygon><polygon points="0.9124999999999996,0.4291999999999945 0.9108999999999998,0.42969999999999686 0.9099000000000004,0.43489999999999895 0.8978999999999999,0.43959999999999866 0.8936999999999999,0.43959999999999866 0.8895999999999997,0.4416999999999973 0.875,0.4416999999999973 0.8734000000000002,0.44019999999999726 0.8765000000000001,0.43909999999999627 0.8754999999999997,0.4338999999999942 0.8785999999999996,0.4328999999999965 0.8769999999999998,0.43130000000000024 0.8672000000000004,0.4317999999999955 0.8661000000000003,0.43489999999999895 0.8540999999999999,0.43959999999999866 0.8353999999999999,0.43959999999999866 0.8129999999999997,0.4328999999999965 0.8140000000000001,0.4276999999999944 0.8098999999999998,0.42559999999999576 0.8005000000000004,0.4276999999999944 0.8036000000000003,0.43079999999999785 0.7963000000000005,0.4317999999999955 0.7953000000000001,0.43489999999999895 0.7858999999999998,0.4380999999999986 0.7849000000000004,0.44119999999999493 0.7797000000000001,0.44429999999999836 0.7797000000000001,0.4473999999999947 0.7869000000000002,0.4515999999999991 0.7775999999999996,0.4567999999999941 0.7765000000000004,0.45989999999999753 0.7713000000000001,0.4609999999999985 0.7691999999999997,0.47039999999999793 0.7728999999999999,0.472999999999999 0.7671999999999999,0.4776999999999987 0.7666000000000004,0.4854999999999947 0.7640000000000002,0.49329999999999785 0.7504999999999997,0.49849999999999994 0.7493999999999996,0.5015999999999963 0.7442000000000002,0.5026999999999973 0.7431999999999999,0.5058000000000007 0.7401,0.5067999999999984 0.7431999999999999,0.5098999999999947 0.7411000000000003,0.5120000000000005 0.7338000000000005,0.5130999999999943 0.7317,0.5182999999999964 0.7374999999999998,0.5208999999999975 0.7436999999999996,0.5208999999999975 0.7645999999999997,0.5145999999999944 0.7708000000000004,0.5167000000000002 0.7790999999999997,0.5167000000000002 0.7979000000000003,0.5105000000000004 0.8021000000000003,0.5124999999999957 0.8061999999999996,0.5124999999999957 0.8087999999999997,0.508899999999997 0.8140000000000001,0.5078999999999994 0.8166000000000002,0.5041999999999973 0.8208000000000002,0.5041999999999973 0.8250000000000002,0.506299999999996 0.8395999999999999,0.506299999999996 0.8520000000000003,0.5020999999999987 0.8562000000000003,0.5041999999999973 0.8604000000000003,0.5020999999999987 0.875,0.5020999999999987 0.8776000000000002,0.49849999999999994 0.8868999999999998,0.4953999999999965 0.8983999999999996,0.48809999999999576 0.9057000000000004,0.48699999999999477 0.9119000000000002,0.4829000000000008 0.9145000000000003,0.47919999999999874 0.9187000000000003,0.4812999999999974 0.9229000000000003,0.47919999999999874 0.9333,0.47919999999999874 0.9493999999999998,0.47449999999999903 0.9561999999999999,0.4709000000000003 0.9625000000000004,0.4709000000000003 0.9665999999999997,0.46879999999999455 0.9911000000000003,0.4682999999999993 0.9922000000000004,0.4630999999999972 1.0015,0.45989999999999753 1.0026000000000002,0.4527000000000001 1.0077999999999996,0.4515999999999991 1.013,0.44429999999999836 1.0250000000000004,0.43959999999999866 1.0312000000000001,0.43959999999999866 1.0494000000000003,0.43489999999999895 1.0473999999999997,0.42969999999999686 1.0400999999999998,0.4286999999999992 1.0389999999999997,0.42559999999999576 1.0316999999999998,0.42449999999999477 1.0224000000000002,0.4192999999999998 1.0151000000000003,0.418299999999995 1.0140000000000002,0.4151999999999987 1.0109000000000004,0.4140999999999977 1.0125000000000002,0.41259999999999764 1.0187,0.41259999999999764 1.0307000000000004,0.40789999999999793 1.0312000000000001,0.4041999999999959 1.0275999999999996,0.40159999999999485 1.0286,0.39639999999999986 1.013,0.3890999999999991 1.0125000000000002,0.38749999999999574 1.013,0.3859999999999957 1.0182000000000002,0.3848999999999947 1.0191999999999997,0.38179999999999836 1.0224000000000002,0.3808000000000007 1.0224000000000002,0.37769999999999726 1.0191999999999997,0.3755999999999986 1.0244,0.3744999999999976 1.0244,0.36719999999999686 1.0171999999999999,0.3661999999999992 1.0041000000000002,0.35839999999999606 0.9962999999999997,0.35889999999999844 0.9880000000000004,0.36309999999999576 0.9869000000000003,0.3661999999999992 0.9775999999999998,0.36719999999999686 0.9764999999999997,0.3703999999999965 0.9733999999999998,0.3713999999999942 0.9744000000000002,0.3744999999999976 0.9687000000000001,0.37709999999999866 0.9630000000000001,0.37769999999999726 0.9557000000000002,0.38289999999999935 0.9421999999999997,0.38809999999999434 0.9452999999999996,0.3902000000000001 0.9452999999999996,0.39329999999999643 0.9359000000000002,0.39639999999999986 0.9348999999999998,0.3994999999999962 0.9255000000000004,0.4005999999999972 0.9286000000000003,0.40269999999999584 0.9291,0.4084000000000003 0.9264999999999999,0.41199999999999903 0.9234,0.4131 0.9213000000000005,0.4192999999999998 0.9244000000000003,0.4223999999999961 0.9213000000000005,0.4234999999999971 0.9203000000000001,0.4286999999999992 0.9124999999999996,0.4291999999999945 "></polygon><polygon points="0.7306999999999997,0.5213999999999999 0.7275999999999998,0.5213999999999999 0.7275999999999998,0.5223999999999975 0.7306999999999997,0.5223999999999975 0.7306999999999997,0.5213999999999999 "></polygon><polygon points="0.7264999999999997,0.5244999999999962 0.7249999999999996,0.5229999999999961 0.7213000000000003,0.5234999999999985 0.7229000000000001,0.5250999999999948 0.7264999999999997,0.5244999999999962 "></polygon><polygon points="0.7165999999999997,0.5937999999999946 0.7244000000000002,0.5912000000000006 0.7286000000000001,0.5880999999999972 0.7229000000000001,0.5854999999999961 0.7187000000000001,0.5854999999999961 0.7161,0.5890999999999948 0.7000000000000002,0.5937999999999946 0.6921999999999997,0.5942999999999969 0.6952999999999996,0.5974000000000004 0.6896000000000004,0.597999999999999 0.6879999999999997,0.599499999999999 0.7061999999999999,0.6000999999999976 0.7140000000000004,0.5974000000000004 0.7165999999999997,0.5937999999999946 "></polygon><polygon points="0.27500000000000036,0.6813000000000002 0.2765000000000004,0.6796999999999969 0.26919999999999966,0.6796999999999969 0.2708000000000004,0.6813000000000002 0.27500000000000036,0.6813000000000002 "></polygon><polygon points="0.2541000000000002,0.6854999999999976 0.26039999999999974,0.6854999999999976 0.2618999999999998,0.6838999999999942 0.25210000000000043,0.6833999999999989 0.24790000000000045,0.6813000000000002 0.24369999999999958,0.6833999999999989 0.2359,0.6838999999999942 0.24160000000000004,0.6875 0.24580000000000002,0.6854999999999976 0.2541000000000002,0.6854999999999976 "></polygon><polygon points="0.7915999999999999,0.568799999999996 0.7953000000000001,0.5683000000000007 0.7922000000000002,0.5651999999999973 0.7999999999999998,0.5645999999999987 0.8056999999999999,0.5619999999999976 0.8067000000000002,0.5567999999999955 0.8118999999999996,0.5557999999999979 0.8129999999999997,0.5505999999999958 0.8182,0.5494999999999948 0.8192000000000004,0.5442999999999998 0.8224,0.543299999999995 0.8243999999999998,0.5401999999999987 0.8186999999999998,0.5375999999999976 0.8067000000000002,0.5381 0.8056999999999999,0.5411999999999964 0.7922000000000002,0.5463999999999984 0.7911000000000001,0.5516000000000005 0.7816999999999998,0.5526999999999944 0.7807000000000004,0.5557999999999979 0.7629999999999999,0.5630999999999986 0.7561999999999998,0.568799999999996 0.7567000000000004,0.5703999999999994 0.7640000000000002,0.571399999999997 0.7587999999999999,0.5734999999999957 0.7603999999999997,0.5750999999999991 0.7790999999999997,0.5750999999999991 0.7880000000000003,0.5692999999999984 0.7915999999999999,0.568799999999996 "></polygon><polygon points="0.7535999999999996,0.571399999999997 0.7521000000000004,0.5708999999999946 0.7504999999999997,0.5723999999999947 0.7535999999999996,0.5723999999999947 0.7535999999999996,0.571399999999997 "></polygon><polygon points="0.7577999999999996,0.5765999999999991 0.7577999999999996,0.5755999999999943 0.7546999999999997,0.5755999999999943 0.7561999999999998,0.5770999999999944 0.7577999999999996,0.5765999999999991 "></polygon><polygon points="0.7713000000000001,0.7546999999999997 0.7849000000000004,0.7536999999999949 0.8098999999999998,0.7411999999999992 0.8125,0.733399999999996 0.8118999999999996,0.7256 0.7750000000000004,0.7250999999999976 0.7702999999999998,0.7213999999999956 0.7504999999999997,0.7119999999999962 0.7504999999999997,0.7088999999999999 0.7625000000000002,0.7062999999999988 0.7691999999999997,0.7098999999999975 0.7790999999999997,0.7125999999999948 0.8021000000000003,0.7125999999999948 0.8146000000000004,0.7083999999999975 0.8250000000000002,0.7083999999999975 0.8375000000000004,0.7042000000000002 0.8437000000000001,0.7042000000000002 0.8639999999999999,0.6953999999999994 0.8651,0.6921999999999997 0.8703000000000003,0.6890999999999963 0.8712999999999997,0.6838999999999942 0.8765000000000001,0.6807999999999979 0.8776000000000002,0.6776999999999944 0.8868999999999998,0.6744999999999948 0.8827999999999996,0.6713999999999984 0.8729000000000005,0.670899999999996 0.8703000000000003,0.667199999999994 0.8521000000000001,0.6625999999999976 0.8250000000000002,0.6625999999999976 0.8166000000000002,0.6666999999999987 0.8021000000000003,0.6666999999999987 0.7979000000000003,0.6646000000000001 0.7937000000000003,0.6646000000000001 0.7790999999999997,0.6687999999999974 0.7750000000000004,0.6687999999999974 0.7733999999999996,0.667199999999994 0.7896000000000001,0.6625999999999976 0.8166000000000002,0.660499999999999 0.8270999999999997,0.6562999999999946 0.8353999999999999,0.6562999999999946 0.8395999999999999,0.6541999999999959 0.8624999999999998,0.6541999999999959 0.8666,0.6562999999999946 0.8729000000000005,0.6541999999999959 0.8771000000000004,0.6562999999999946 0.8853999999999997,0.6562999999999946 0.8895999999999997,0.6584000000000003 0.8978999999999999,0.6541999999999959 0.9124999999999996,0.6541999999999959 0.9181999999999997,0.6515999999999948 0.9150999999999998,0.6484999999999985 0.9203000000000001,0.6473999999999975 0.9213000000000005,0.6421999999999954 0.9264999999999999,0.6411999999999978 0.9276,0.6359999999999957 0.9306999999999999,0.6348999999999947 0.9276,0.6328999999999994 0.9291,0.625 0.9255000000000004,0.622399999999999 0.9264999999999999,0.6171999999999969 0.9207999999999998,0.6145999999999958 0.9108999999999998,0.6141000000000005 0.9099000000000004,0.6088999999999984 0.9066999999999998,0.6067999999999998 0.9161000000000001,0.6015999999999977 0.9192,0.5963999999999956 0.9276,0.5921999999999983 0.9354000000000005,0.5916999999999959 0.9515000000000002,0.5848999999999975 0.9436999999999998,0.5792000000000002 0.9458000000000002,0.5730000000000004 0.9416000000000002,0.568799999999996 0.9442000000000004,0.5630999999999986 0.9478999999999997,0.5604999999999976 0.9442000000000004,0.5567999999999955 0.9493999999999998,0.5557999999999979 0.9500000000000002,0.5520999999999958 0.9493999999999998,0.5505999999999958 0.9421999999999997,0.5473999999999961 0.9432,0.5442999999999998 0.9271000000000003,0.545899999999996 0.9229000000000003,0.5479999999999947 0.9124999999999996,0.5479999999999947 0.9025999999999996,0.5526999999999944 0.8994,0.5557999999999979 0.8817000000000004,0.5588999999999942 0.8619000000000003,0.5703999999999994 0.8567,0.571399999999997 0.8514999999999997,0.5786999999999978 0.8234000000000004,0.5859999999999985 0.8036000000000003,0.5953999999999979 0.7984,0.5963999999999956 0.7973999999999997,0.599499999999999 0.7931999999999997,0.6015999999999977 0.7854000000000001,0.6021000000000001 0.7691999999999997,0.6088999999999984 0.7724000000000002,0.6119999999999948 0.7671999999999999,0.6151999999999944 0.7660999999999998,0.6182999999999979 0.7629999999999999,0.6192999999999955 0.7640000000000002,0.6265999999999963 0.7609000000000004,0.6276999999999973 0.7577999999999996,0.6348999999999947 0.7546999999999997,0.6359999999999957 0.7515000000000001,0.6432999999999964 0.7473999999999998,0.6453999999999951 0.7229000000000001,0.6437999999999988 0.7187000000000001,0.6417000000000002 0.7061999999999999,0.6417000000000002 0.6984000000000004,0.6442999999999941 0.6974,0.6473999999999975 0.6879999999999997,0.6526999999999958 0.6868999999999996,0.6557999999999993 0.6817000000000002,0.6588999999999956 0.6817000000000002,0.6640999999999977 0.6854000000000005,0.6666999999999987 0.6837999999999997,0.6704000000000008 0.6875,0.6729999999999947 0.6854000000000005,0.6791999999999945 0.6854000000000005,0.6854999999999976 0.6828000000000003,0.6911999999999949 0.6797000000000004,0.6921999999999997 0.6786000000000003,0.6953999999999994 0.6734,0.6984999999999957 0.6723999999999997,0.7015999999999991 0.6672000000000002,0.7027000000000001 0.6661000000000001,0.7057999999999964 0.6566999999999998,0.7088999999999999 0.6557000000000004,0.7119999999999962 0.6515000000000004,0.7140999999999948 0.6395999999999997,0.7187999999999946 0.6124999999999998,0.7209000000000003 0.6025999999999998,0.7182999999999993 0.5932000000000004,0.7130999999999972 0.5875000000000004,0.7125999999999948 0.5644999999999998,0.7187999999999946 0.5583,0.7187999999999946 0.5457999999999998,0.722999999999999 0.5395000000000003,0.722999999999999 0.5235000000000003,0.729699999999994 0.5224000000000002,0.7329000000000008 0.5171999999999999,0.7338999999999984 0.5171999999999999,0.7411999999999992 0.5202999999999998,0.7421999999999969 0.5182000000000002,0.7494999999999976 0.4936999999999996,0.75 0.46720000000000006,0.7567999999999984 0.4630000000000001,0.758899999999997 0.4619,0.7620000000000005 0.45669999999999966,0.7630999999999943 0.4557000000000002,0.7703999999999951 0.4504999999999999,0.7713999999999999 0.4394999999999998,0.7770999999999972 0.4317000000000002,0.7776999999999958 0.42130000000000045,0.7828999999999979 0.4328000000000003,0.7881 0.4276,0.792199999999994 0.4276,0.7954000000000008 0.4333,0.795899999999996 0.43900000000000006,0.7984999999999971 0.4379999999999997,0.8078999999999965 0.4410999999999996,0.8088999999999942 0.4442000000000004,0.8203999999999994 0.44789999999999974,0.8230000000000004 0.4458000000000002,0.8270999999999944 0.4493999999999998,0.8296999999999954 0.45150000000000023,0.8359999999999985 0.44789999999999974,0.8395999999999972 0.45150000000000023,0.8421999999999983 0.4500000000000002,0.847999999999999 0.45779999999999976,0.8536999999999964 0.4500000000000002,0.8541999999999987 0.4442000000000004,0.8567999999999998 0.4442000000000004,0.8598999999999961 0.4474,0.8619999999999948 0.4421999999999997,0.8630999999999958 0.4416000000000002,0.8645999999999958 0.4421999999999997,0.8661999999999992 0.4493999999999998,0.8671999999999969 0.4442000000000004,0.872399999999999 0.45150000000000023,0.8734999999999999 0.44840000000000035,0.8765999999999963 0.4557000000000002,0.8796999999999997 0.45260000000000034,0.8932999999999964 0.45619999999999994,0.8958999999999975 0.45260000000000034,0.8994999999999962 0.4599000000000002,0.9026999999999958 0.4630000000000001,0.9078999999999979 0.4729000000000001,0.910499999999999 0.4958,0.9084000000000003 0.5057,0.9109999999999943 0.5083000000000002,0.9146000000000001 0.5166000000000004,0.9146000000000001 0.5312000000000001,0.9084000000000003 0.5389999999999997,0.9078999999999979 0.5396000000000001,0.9020999999999972 0.5374999999999996,0.8979999999999961 0.5396000000000001,0.8958999999999975 0.5521000000000003,0.8979999999999961 0.5561999999999996,0.9000999999999948 0.5724,0.8994999999999962 0.5734000000000004,0.8963999999999999 0.5827999999999998,0.8932999999999964 0.5838000000000001,0.8902000000000001 0.5915999999999997,0.8895999999999944 0.5974000000000004,0.8870000000000005 0.5974000000000004,0.883899999999997 0.5941999999999998,0.8828999999999994 0.5941999999999998,0.8796999999999997 0.5994000000000002,0.8765999999999963 0.6025999999999998,0.8713999999999942 0.6056999999999997,0.8703999999999965 0.6025999999999998,0.8671999999999969 0.6056999999999997,0.8661999999999992 0.6088000000000005,0.8609999999999971 0.6139999999999999,0.8579000000000008 0.6109,0.854699999999994 0.6271000000000004,0.8459000000000003 0.6327999999999996,0.8484999999999943 0.6333000000000002,0.8500999999999976 0.6327999999999996,0.8515999999999977 0.6276000000000002,0.8526999999999987 0.6307,0.854699999999994 0.6307,0.8579000000000008 0.6254999999999997,0.8609999999999971 0.6243999999999996,0.8641000000000005 0.6212999999999997,0.8651999999999944 0.6181999999999999,0.8744999999999976 0.6130000000000004,0.8776999999999973 0.6124999999999998,0.8833999999999946 0.6098999999999997,0.8890999999999991 0.6067,0.8902000000000001 0.6056999999999997,0.8932999999999964 0.6005000000000003,0.8942999999999941 0.6036000000000001,0.8963999999999999 0.6036000000000001,0.8994999999999962 0.5875000000000004,0.9041999999999959 0.5770999999999997,0.9020999999999972 0.5671999999999997,0.9046999999999983 0.5651000000000002,0.9099000000000004 0.5724,0.9131 0.5692000000000004,0.9161999999999964 0.5724,0.917199999999994 0.5734000000000004,0.9204000000000008 0.5833000000000004,0.9229999999999947 0.5915999999999997,0.9229999999999947 0.5974000000000004,0.9204000000000008 0.5957999999999997,0.9166999999999987 0.5979000000000001,0.9146000000000001 0.6062000000000003,0.9146000000000001 0.6146000000000003,0.9187999999999974 0.6375000000000002,0.9187999999999974 0.6474000000000002,0.9213999999999984 0.6463000000000001,0.9266000000000005 0.6520999999999999,0.9291999999999945 0.6577999999999999,0.9296999999999969 0.6588000000000003,0.9328999999999965 0.6630000000000003,0.934899999999999 0.6703000000000001,0.9359999999999999 0.6744000000000003,0.9380999999999986 0.6755000000000004,0.9411999999999949 0.6854000000000005,0.9395999999999987 0.6910999999999996,0.9421999999999997 0.6921999999999997,0.9453999999999994 0.7020999999999997,0.9458999999999946 0.7165999999999997,0.9416999999999973 0.7229000000000001,0.9416999999999973 0.7312000000000003,0.9375 0.7431999999999999,0.9369999999999976 0.7484000000000002,0.9296999999999969 0.7577999999999996,0.9266000000000005 0.7603999999999997,0.9229999999999947 0.7708000000000004,0.9229999999999947 0.7750000000000004,0.920899999999996 0.7827999999999999,0.9204000000000008 0.7827999999999999,0.917199999999994 0.7786,0.9151999999999987 0.7686999999999999,0.9146000000000001 0.7587999999999999,0.911999999999999 0.7546999999999997,0.9099000000000004 0.7535999999999996,0.9067999999999969 0.7479000000000005,0.9062999999999946 0.7422000000000004,0.9037000000000006 0.7411000000000003,0.9005999999999972 0.7338000000000005,0.9015999999999948 0.7328000000000001,0.8984999999999985 0.7255000000000003,0.8953999999999951 0.7275999999999998,0.8859999999999957 0.7328000000000001,0.8848999999999947 0.7332999999999998,0.8833999999999946 0.7328000000000001,0.8776999999999973 0.7297000000000002,0.8765999999999963 0.7306999999999997,0.8734999999999999 0.7275999999999998,0.8713999999999942 0.7348999999999997,0.8713999999999942 0.7359,0.8744999999999976 0.7389999999999999,0.8755999999999986 0.7380000000000004,0.8786999999999949 0.7453000000000003,0.883899999999997 0.7422000000000004,0.8859999999999957 0.7436999999999996,0.8875999999999991 0.7521000000000004,0.8875999999999991 0.7561999999999998,0.8895999999999944 0.7603999999999997,0.8875999999999991 0.7686999999999999,0.8917000000000002 0.7728999999999999,0.8895999999999944 0.7770999999999999,0.8917000000000002 0.7874999999999996,0.8917000000000002 0.7999999999999998,0.8958999999999975 0.8041,0.8937999999999988 0.8083,0.8937999999999988 0.8125,0.8958999999999975 0.8166000000000002,0.8937999999999988 0.8228999999999997,0.8937999999999988 0.8311999999999999,0.8979999999999961 0.8369,0.8973999999999975 0.8380000000000001,0.8942999999999941 0.8437000000000001,0.8917000000000002 0.8514999999999997,0.8932999999999964 0.8521000000000001,0.8875999999999991 0.8494000000000002,0.883899999999997 0.8358999999999996,0.8828999999999994 0.8369,0.8796999999999997 0.8338000000000001,0.8786999999999949 0.8327999999999998,0.8755999999999986 0.8296999999999999,0.8734999999999999 0.8353999999999999,0.8708999999999989 0.8395999999999999,0.875 0.8437000000000001,0.8729999999999976 0.8499999999999996,0.8729999999999976 0.8582999999999998,0.8770999999999987 0.8624999999999998,0.875 0.8666,0.875 0.8708,0.8770999999999987 0.875,0.875 0.8827999999999996,0.8744999999999976 0.8895999999999997,0.8708999999999989 0.9082999999999997,0.8688000000000002 0.9161000000000001,0.8661999999999992 0.9172000000000002,0.8609999999999971 0.9223999999999997,0.8579000000000008 0.9207999999999998,0.8562999999999974 0.9150999999999998,0.855799999999995 0.9145000000000003,0.8500999999999976 0.9161000000000001,0.8463999999999956 0.9062000000000001,0.8416999999999959 0.8958000000000004,0.8416999999999959 0.8672000000000004,0.849499999999999 0.8661000000000003,0.8463999999999956 0.8624999999999998,0.8437999999999946 0.8630000000000004,0.8421999999999983 0.8681999999999999,0.8412000000000006 0.8692000000000002,0.8359999999999985 0.8769999999999998,0.8354999999999961 0.8853999999999997,0.8312999999999988 0.8910999999999998,0.8307999999999964 0.8941999999999997,0.8277000000000001 0.9000000000000004,0.8270999999999944 0.9104000000000001,0.8230000000000004 0.9271000000000003,0.8230000000000004 0.9354000000000005,0.8270999999999944 0.9416000000000002,0.8270999999999944 0.9541000000000004,0.8230000000000004 0.9603999999999999,0.8230000000000004 0.9687000000000001,0.818799999999996 0.9790999999999999,0.818799999999996 0.9874999999999998,0.8145999999999987 1.0103999999999997,0.8145999999999987 1.0145999999999997,0.8125 1.0208000000000004,0.8125 1.0290999999999997,0.8083999999999989 1.0411000000000001,0.8057999999999979 1.0422000000000002,0.8026999999999944 1.0453000000000001,0.8016000000000005 1.0479000000000003,0.7979999999999947 1.0473999999999997,0.7901999999999987 1.0332999999999997,0.7896000000000001 1.0103999999999997,0.795899999999996 1.0041000000000002,0.795899999999996 0.9916,0.7999999999999972 0.9416000000000002,0.7999999999999972 0.9394999999999998,0.7979999999999947 0.9410999999999996,0.792199999999994 0.9375,0.7896000000000001 0.9379999999999997,0.7859999999999943 0.9401000000000002,0.7838999999999956 0.9500000000000002,0.7812999999999946 0.9603999999999999,0.7812999999999946 0.9713000000000003,0.7755999999999972 0.9911000000000003,0.7703999999999951 0.9993999999999996,0.7661999999999978 1.0026000000000002,0.7609999999999957 1.0067000000000004,0.758899999999997 1.0160999999999998,0.7578999999999994 1.0271,0.7520999999999987 1.0374999999999996,0.7520999999999987 1.0604000000000005,0.7458999999999989 1.0666000000000002,0.7458999999999989 1.0750000000000002,0.7416999999999945 1.0807000000000002,0.7411999999999992 1.0827999999999998,0.7380999999999958 1.0791000000000004,0.7374999999999972 1.0750000000000002,0.7395999999999958 1.0561999999999996,0.7416999999999945 1.0332999999999997,0.7479999999999976 1.0061999999999998,0.7479999999999976 0.9936999999999996,0.7520999999999987 0.9874999999999998,0.7520999999999987 0.9817,0.7494999999999976 0.9828000000000001,0.7463999999999942 0.9797000000000002,0.7442999999999955 0.9931999999999999,0.7411999999999992 1.0,0.7374999999999972 1.0160999999999998,0.7348999999999961 1.0265000000000004,0.7286999999999964 1.0275999999999996,0.7256 1.0411000000000001,0.7203999999999979 1.0422000000000002,0.7171999999999983 1.0556999999999999,0.7140999999999948 1.0541,0.7125999999999948 1.0415999999999999,0.7104999999999961 1.0374999999999996,0.7083999999999975 1.0290999999999997,0.7083999999999975 1.0250000000000004,0.7062999999999988 1.0208000000000004,0.7062999999999988 1.0166000000000004,0.7083999999999975 0.9962999999999997,0.7078999999999951 0.9962999999999997,0.7046999999999954 1.0015,0.7027000000000001 0.9979000000000005,0.7000999999999991 0.9993999999999996,0.6921999999999997 0.9958,0.6895999999999987 0.9973999999999998,0.6817999999999955 0.9936999999999996,0.6791999999999945 0.9973999999999998,0.6755999999999958 0.9936999999999996,0.6729999999999947 0.9942000000000002,0.6713999999999984 0.9993999999999996,0.6692999999999998 0.9958,0.6666999999999987 0.9973999999999998,0.6609999999999943 0.9896000000000003,0.660499999999999 0.9733999999999998,0.6651999999999987 0.9682000000000004,0.6723999999999961 0.9630000000000001,0.6734999999999971 0.9619,0.6807999999999979 0.9566999999999997,0.6817999999999955 0.9557000000000002,0.684899999999999 0.9462999999999999,0.6880999999999986 0.9421999999999997,0.7098999999999975 0.9452999999999996,0.7109999999999985 0.9462999999999999,0.7140999999999948 0.9535999999999998,0.7151999999999958 0.9546999999999999,0.7182999999999993 0.9577999999999998,0.7192999999999969 0.9566999999999997,0.7224000000000004 0.9603999999999999,0.7250999999999976 0.9577999999999998,0.7369999999999948 0.9526000000000003,0.7401999999999944 0.9515000000000002,0.7453999999999965 0.9474,0.747399999999999 0.9452999999999996,0.7515999999999963 0.9421999999999997,0.7526999999999973 0.9410999999999996,0.7558000000000007 0.9359000000000002,0.7567999999999984 0.9348999999999998,0.7598999999999947 0.9255000000000004,0.7652000000000001 0.9244000000000003,0.7682999999999964 0.9192,0.7692999999999941 0.9139999999999997,0.7765999999999948 0.8983999999999996,0.7817999999999969 0.8974000000000002,0.7849000000000004 0.8932000000000002,0.786999999999999 0.8853999999999997,0.7875999999999976 0.8743999999999996,0.793299999999995 0.8666,0.7937999999999974 0.8582999999999998,0.7979999999999947 0.8521000000000001,0.7979999999999947 0.8437000000000001,0.8020999999999958 0.8395999999999999,0.8020999999999958 0.8375000000000004,0.7999999999999972 0.8380000000000001,0.7963999999999984 0.8474000000000004,0.7911999999999964 0.8483999999999998,0.7881 0.8827999999999996,0.7744999999999962 0.8837999999999999,0.7713999999999999 0.8932000000000002,0.7682999999999964 0.8941999999999997,0.7652000000000001 0.9036,0.7620000000000005 0.9047000000000001,0.758899999999997 0.9088000000000003,0.7567999999999984 0.9108999999999998,0.7526999999999973 0.9139999999999997,0.7515999999999963 0.9150999999999998,0.7484999999999999 0.9244000000000003,0.7453999999999965 0.9271000000000003,0.7395999999999958 0.9271000000000003,0.733399999999996 0.9311999999999996,0.7187999999999946 0.9276,0.7162000000000006 0.9264999999999999,0.7130999999999972 0.9234,0.7119999999999962 0.9244000000000003,0.7088999999999999 0.9213000000000005,0.7078999999999951 0.9207999999999998,0.7020999999999944 0.9223999999999997,0.6984999999999957 0.9165999999999999,0.6958999999999946 0.9130000000000003,0.6984999999999957 0.9119000000000002,0.7015999999999991 0.8983999999999996,0.7088999999999999 0.8974000000000002,0.7119999999999962 0.8734000000000002,0.7213999999999956 0.8723999999999998,0.724499999999999 0.8604000000000003,0.7291999999999987 0.8540999999999999,0.7291999999999987 0.8432000000000004,0.7348999999999961 0.8380000000000001,0.7359999999999971 0.8375000000000004,0.7416999999999945 0.8349000000000002,0.747399999999999 0.8212999999999999,0.7546999999999997 0.8202999999999996,0.7578999999999994 0.8125,0.7583999999999946 0.8041,0.7625999999999991 0.7979000000000003,0.7625999999999991 0.7895000000000003,0.7667000000000002 0.7832999999999997,0.7667000000000002 0.7790999999999997,0.7687999999999988 0.7561999999999998,0.7687999999999988 0.7535999999999996,0.7723999999999975 0.7442000000000002,0.7776999999999958 0.7431999999999999,0.7807999999999993 0.7207999999999997,0.7875999999999976 0.7165999999999997,0.7875999999999976 0.7083000000000004,0.7916999999999987 0.7020999999999997,0.7916999999999987 0.6936999999999998,0.795899999999996 0.6875,0.795899999999996 0.6833,0.7979999999999947 0.6547000000000001,0.7973999999999961 0.6547000000000001,0.7942999999999998 0.6566999999999998,0.792199999999994 0.6896000000000004,0.7875999999999976 0.7224000000000004,0.7744999999999962 0.7369000000000003,0.7661999999999978 0.7380000000000004,0.7630999999999943 0.7431999999999999,0.7620000000000005 0.7442000000000002,0.758899999999997 0.7603999999999997,0.7583999999999946 0.7713000000000001,0.7546999999999997 "></polygon><polygon points="0.9838000000000005,0.24019999999999442 0.9869000000000003,0.23809999999999576 0.9838000000000005,0.23699999999999477 0.9812000000000003,0.23339999999999606 0.9687000000000001,0.2354999999999947 0.9630000000000001,0.23809999999999576 0.9682000000000004,0.24019999999999442 0.9707999999999997,0.24380000000000024 0.9838000000000005,0.24019999999999442 "></polygon><polygon points="0.9368999999999996,0.3078999999999965 0.9337999999999997,0.30469999999999686 0.9390000000000001,0.3036999999999992 0.9401000000000002,0.2984999999999971 0.9432,0.2973999999999961 0.9401000000000002,0.2942999999999998 0.9452999999999996,0.293299999999995 0.9452999999999996,0.2881 0.9396000000000004,0.2896000000000001 0.9354000000000005,0.28759999999999764 0.9311999999999996,0.2896000000000001 0.9207999999999998,0.2896000000000001 0.9192,0.2901999999999987 0.9181999999999997,0.2954000000000008 0.9130000000000003,0.2984999999999971 0.9130000000000003,0.30579999999999785 0.9161000000000001,0.3067999999999955 0.9150999999999998,0.30989999999999895 0.9229000000000003,0.31049999999999756 0.9271000000000003,0.3083999999999989 0.9368999999999996,0.3078999999999965 "></polygon><polygon points="1.0200000000000005,0.6171999999999969 1.0171999999999999,0.6161999999999992 1.0171999999999999,0.6088999999999984 1.0265000000000004,0.6079000000000008 1.0275999999999996,0.6026999999999987 1.0369000000000002,0.6015999999999977 1.0411000000000001,0.599499999999999 1.0442,0.5942999999999969 1.0514999999999999,0.5912000000000006 1.0541,0.5854999999999961 1.0505000000000004,0.5817999999999941 1.0567000000000002,0.5777000000000001 1.064,0.5765999999999991 1.0651000000000002,0.5734999999999957 1.0702999999999996,0.5723999999999947 1.0724,0.5609999999999999 1.0666000000000002,0.5604999999999976 1.0598999999999998,0.5567999999999955 1.0499999999999998,0.5541999999999945 1.0422000000000002,0.5567999999999955 1.0422000000000002,0.559899999999999 1.0453000000000001,0.5619999999999976 1.0400999999999998,0.5651999999999973 1.0389999999999997,0.5703999999999994 1.0297,0.5734999999999957 1.0286,0.5765999999999991 1.0151000000000003,0.5817999999999941 1.0140000000000002,0.5848999999999975 1.0088,0.5859999999999985 1.0067000000000004,0.5953999999999979 1.0099,0.5974000000000004 1.0061999999999998,0.6000999999999976 1.0099,0.6026999999999987 1.0088,0.6079000000000008 1.0118999999999998,0.6088999999999984 1.0125000000000002,0.6124999999999972 1.0118999999999998,0.6141000000000005 1.0026000000000002,0.6171999999999969 1.0015,0.6203999999999965 0.9962999999999997,0.6213999999999942 0.9962999999999997,0.6244999999999976 1.0083000000000002,0.625 1.0182000000000002,0.6203999999999965 1.0200000000000005,0.6171999999999969 "></polygon><polygon points="1.1932,0.8255999999999943 1.1901000000000002,0.8255999999999943 1.1901000000000002,0.8265999999999991 1.1916000000000002,0.8270999999999944 1.1932,0.8255999999999943 "></polygon><polygon points="1.2005,0.8348999999999975 1.2077999999999998,0.8348999999999975 1.2099000000000002,0.8317999999999941 1.2062,0.8312999999999988 1.2005,0.8348999999999975 "></polygon><polygon points="1.2521000000000004,0.8448999999999955 1.2515,0.8421999999999983 1.2374999999999998,0.8395999999999972 1.2290999999999999,0.8354999999999961 1.2104,0.8354999999999961 1.2062,0.8375999999999948 1.1978999999999997,0.8375999999999948 1.1755000000000004,0.8442999999999969 1.1713000000000005,0.8463999999999956 1.1703000000000001,0.849499999999999 1.1566999999999998,0.854699999999994 1.1599000000000004,0.8579000000000008 1.1505,0.8579000000000008 1.1525999999999996,0.8463999999999956 1.1578,0.8432999999999993 1.1588000000000003,0.8401999999999958 1.1828000000000003,0.8265999999999991 1.1859000000000002,0.8234999999999957 1.1958000000000002,0.8208999999999946 1.2187000000000001,0.818799999999996 1.2233999999999998,0.8151999999999973 1.2290999999999999,0.8145999999999987 1.2348999999999997,0.8119999999999976 1.2369000000000003,0.809899999999999 1.2369000000000003,0.8067999999999955 1.2297000000000002,0.8036999999999992 1.2286000000000001,0.8005999999999958 1.2255000000000003,0.7984999999999971 1.2306999999999997,0.7973999999999961 1.2275999999999998,0.7954000000000008 1.2275999999999998,0.792199999999994 1.2411000000000003,0.7911999999999964 1.2416,0.7875999999999976 1.2411000000000003,0.7859999999999943 1.2312000000000003,0.7834000000000003 1.2165999999999997,0.7834000000000003 1.2125000000000004,0.785499999999999 1.2083000000000004,0.7834000000000003 1.2041000000000004,0.7834000000000003 1.2000000000000002,0.785499999999999 1.1854000000000005,0.785499999999999 1.1797000000000004,0.7881 1.1786000000000003,0.7911999999999964 1.1588000000000003,0.7984999999999971 1.1578,0.8016000000000005 1.1483999999999996,0.8026999999999944 1.1479,0.8104999999999976 1.1452999999999998,0.8140999999999963 1.1234000000000002,0.8234999999999957 1.1203000000000003,0.8286999999999978 1.1146000000000003,0.8292000000000002 1.1124999999999998,0.8270999999999944 1.1130000000000004,0.821399999999997 1.1181999999999999,0.8183000000000007 1.1192000000000002,0.8151999999999973 1.1243999999999996,0.8140999999999963 1.1254999999999997,0.8109999999999999 1.1285999999999996,0.809899999999999 1.1311999999999998,0.8041999999999945 1.1317000000000004,0.7984999999999971 1.1432000000000002,0.7890999999999977 1.1441999999999997,0.7838999999999956 1.1494,0.7807999999999993 1.1463,0.7787000000000006 1.1452999999999998,0.7734999999999985 1.1437,0.7729999999999961 1.1353999999999997,0.7729999999999961 1.1276000000000002,0.7755999999999972 1.1223999999999998,0.7828999999999979 1.1172000000000004,0.7838999999999956 1.1161000000000003,0.786999999999999 1.1119000000000003,0.7890999999999977 1.1067,0.7901999999999987 1.1014999999999997,0.7973999999999961 1.0963000000000003,0.7984999999999971 1.0953,0.8036999999999992 1.0900999999999996,0.8046999999999969 1.0849000000000002,0.8119999999999976 1.0796999999999999,0.8130999999999986 1.0785999999999998,0.8161999999999949 1.0692000000000004,0.821399999999997 1.0682,0.8265999999999991 1.0629999999999997,0.8296999999999954 1.0598999999999998,0.8390999999999948 1.0567000000000002,0.8401999999999958 1.0567000000000002,0.8432999999999993 1.0583,0.8437999999999946 1.0875000000000004,0.8437999999999946 1.0915999999999997,0.8459000000000003 1.0994000000000002,0.8463999999999956 1.0974000000000004,0.855799999999995 1.0937000000000001,0.858399999999996 1.0895000000000001,0.858399999999996 1.0854,0.8541999999999987 1.0812,0.8562999999999974 1.0770999999999997,0.8541999999999987 1.0686999999999998,0.8541999999999987 1.0541,0.858399999999996 1.0437000000000003,0.858399999999996 1.0380000000000003,0.8609999999999971 1.0369000000000002,0.8641000000000005 1.0307000000000004,0.8682999999999979 1.0233999999999996,0.8713999999999942 1.0213,0.8734999999999999 1.0202999999999998,0.8786999999999949 1.0151000000000003,0.8817999999999984 1.0187,0.8855000000000004 1.013,0.8902000000000001 1.0118999999999998,0.8953999999999951 1.0088,0.8963999999999999 1.0057,0.9015999999999948 0.9984000000000002,0.9026999999999958 0.9962999999999997,0.9046999999999983 0.9953000000000003,0.9099000000000004 0.9859,0.9131 0.9828000000000001,0.9266000000000005 0.9797000000000002,0.9276999999999944 0.9806999999999997,0.9307999999999979 0.9775999999999998,0.9317999999999955 0.9755000000000003,0.9380999999999986 0.9713000000000003,0.9401999999999973 0.9744000000000002,0.9421999999999997 0.9755000000000003,0.9453999999999994 0.9786000000000001,0.946399999999997 0.9749999999999996,0.9604999999999961 0.9755000000000003,0.9640999999999948 0.9786000000000001,0.9651999999999958 0.9812000000000003,0.9687999999999946 0.9854000000000003,0.9687999999999946 0.9894999999999996,0.9709000000000003 0.9979000000000005,0.9709000000000003 1.0004999999999997,0.9671999999999983 1.0125000000000002,0.9666999999999959 1.0151000000000003,0.9630999999999972 1.0202999999999998,0.9619999999999962 1.0213,0.9588999999999999 1.0244,0.9578999999999951 1.0213,0.9546999999999954 1.0271,0.9500999999999991 1.0191999999999997,0.9442999999999984 1.0286,0.9411999999999949 1.0297,0.9380999999999986 1.0349000000000004,0.9369999999999976 1.0358999999999998,0.9317999999999955 1.0389999999999997,0.9307999999999979 1.0358999999999998,0.9276999999999944 1.0453000000000001,0.9244999999999948 1.0463000000000005,0.9213999999999984 1.0514999999999999,0.9204000000000008 1.0526,0.917199999999994 1.0618999999999996,0.9140999999999977 1.0629999999999997,0.9109999999999943 1.0671999999999997,0.9088999999999956 1.0724,0.9078999999999979 1.0692000000000004,0.9046999999999983 1.0724,0.9037000000000006 1.0750000000000002,0.8979999999999961 1.0755,0.8921999999999954 1.0807000000000002,0.8890999999999991 1.0827999999999998,0.8828999999999994 1.0796999999999999,0.8796999999999997 1.0854,0.8770999999999987 1.0875000000000004,0.8791999999999973 1.0858999999999996,0.8848999999999947 1.0890000000000004,0.8859999999999957 1.0896,0.8937999999999988 1.0890000000000004,0.8953999999999951 1.0838,0.8973999999999975 1.0875000000000004,0.9000999999999948 1.0854,0.910499999999999 1.0890000000000004,0.9140999999999977 1.0838,0.9151999999999987 1.0827999999999998,0.9204000000000008 1.0776000000000003,0.9234999999999971 1.0765000000000002,0.9266000000000005 1.0671999999999997,0.9296999999999969 1.0660999999999996,0.9328999999999965 1.0629999999999997,0.9338999999999942 1.0646000000000004,0.9395999999999987 1.0609000000000002,0.9433000000000007 1.0682,0.9484999999999957 1.0660999999999996,0.9536999999999978 1.0629999999999997,0.9557999999999964 1.077,0.9625999999999948 1.0812,0.9604999999999961 1.0895000000000001,0.9645999999999972 1.0979,0.9645999999999972 1.1020000000000003,0.9625999999999948 1.1098999999999997,0.9619999999999962 1.1067,0.9598999999999975 1.1056999999999997,0.9546999999999954 1.1025999999999998,0.9527000000000001 1.1109,0.9421999999999997 1.1139999999999999,0.9411999999999949 1.1109,0.9380999999999986 1.1203000000000003,0.934899999999999 1.1212999999999997,0.9317999999999955 1.1269999999999998,0.9291999999999945 1.1390000000000002,0.9298000000000002 1.1368999999999998,0.9390999999999963 1.1276000000000002,0.9421999999999997 1.1276000000000002,0.9473999999999947 1.1307,0.9495000000000005 1.125,0.9542000000000002 1.1285999999999996,0.9567999999999941 1.1296999999999997,0.9598999999999975 1.1349,0.9630999999999972 1.1349,0.9682999999999993 1.1056999999999997,0.980799999999995 1.0979,0.9812999999999974 1.0858999999999996,0.9859999999999971 1.0854,0.9895999999999958 1.0858999999999996,0.9911999999999992 1.0932000000000004,0.9942999999999955 1.0957999999999997,0.9979999999999976 1.1040999999999999,0.9979999999999976 1.1082999999999998,0.9958999999999989 1.1124999999999998,0.9958999999999989 1.1166,0.9979999999999976 1.1311999999999998,0.9979999999999976 1.1353999999999997,0.9958999999999989 1.1432000000000002,0.9953999999999965 1.1474000000000002,0.9932999999999979 1.1483999999999996,0.9901999999999944 1.1536,0.9891000000000005 1.1536,0.9859999999999971 1.1505,0.9838999999999984 1.1578,0.9829000000000008 1.1608999999999998,0.9776999999999987 1.1703000000000001,0.974499999999999 1.1713000000000005,0.9692999999999969 1.1744000000000003,0.9671999999999983 1.1713000000000005,0.9662000000000006 1.1729000000000003,0.9604999999999961 1.1692,0.9567999999999941 1.1744000000000003,0.9557999999999964 1.1755000000000004,0.9505999999999943 1.1848999999999998,0.9473999999999947 1.1859000000000002,0.9442999999999984 1.1993999999999998,0.9390999999999963 1.2005,0.9359999999999999 1.2057000000000002,0.934899999999999 1.2083000000000004,0.9249999999999972 1.2046999999999999,0.9223999999999961 1.2046999999999999,0.917199999999994 1.2125000000000004,0.9146000000000001 1.2249999999999996,0.9146000000000001 1.2264999999999997,0.9151999999999987 1.2275999999999998,0.9204000000000008 1.2306999999999997,0.9213999999999984 1.2332999999999998,0.9249999999999972 1.2374999999999998,0.9229999999999947 1.2473999999999998,0.9223999999999961 1.2504999999999997,0.9192999999999998 1.2577999999999996,0.9161999999999964 1.2609000000000004,0.9109999999999943 1.2708000000000004,0.910499999999999 1.2786,0.9057999999999993 1.2771,0.9041999999999959 1.2713,0.9037000000000006 1.2702999999999998,0.9005999999999972 1.2546999999999997,0.8932999999999964 1.2561999999999998,0.8895999999999944 1.2557,0.8859999999999957 1.2526000000000002,0.8848999999999947 1.25,0.881299999999996 1.2458,0.8833999999999946 1.2312000000000003,0.8833999999999946 1.2270000000000003,0.8855000000000004 1.2229,0.8833999999999946 1.2083000000000004,0.8875999999999991 1.1958000000000002,0.8875999999999991 1.1771000000000003,0.8937999999999988 1.1665999999999999,0.8937999999999988 1.1608999999999998,0.8953999999999951 1.1608999999999998,0.8902000000000001 1.1713000000000005,0.883899999999997 1.1791,0.8833999999999946 1.1859000000000002,0.8796999999999997 1.2020999999999997,0.875 1.2099000000000002,0.8744999999999976 1.2108999999999996,0.8713999999999942 1.2165999999999997,0.8688000000000002 1.2270000000000003,0.8708999999999989 1.2458,0.8624999999999972 1.2557,0.8619999999999948 1.2588,0.8567999999999998 1.2618999999999998,0.854699999999994 1.2546999999999997,0.8515999999999977 1.2557,0.8484999999999943 1.2526000000000002,0.8474000000000004 1.2521000000000004,0.8448999999999955 "></polygon><polygon points="0.4375,0.631299999999996 0.4333,0.6333999999999946 0.42550000000000043,0.633899999999997 0.42440000000000033,0.6390999999999991 0.41249999999999964,0.6437999999999988 0.4020999999999999,0.6437999999999988 0.3895999999999997,0.6479999999999961 0.38539999999999974,0.6458999999999975 0.38119999999999976,0.6479999999999961 0.3708,0.6479999999999961 0.36190000000000033,0.6537000000000006 0.3521000000000001,0.6562999999999946 0.33750000000000036,0.6562999999999946 0.3333000000000004,0.6584000000000003 0.32289999999999974,0.6584000000000003 0.31869999999999976,0.660499999999999 0.31040000000000045,0.660499999999999 0.2999999999999998,0.6646000000000001 0.2942,0.6651999999999987 0.29739999999999966,0.668299999999995 0.2896000000000001,0.6687999999999974 0.27970000000000006,0.6734999999999971 0.2775999999999996,0.6755999999999958 0.2775999999999996,0.6786999999999992 0.2999999999999998,0.6854999999999976 0.30410000000000004,0.6854999999999976 0.32289999999999974,0.6791999999999945 0.3333000000000004,0.6813000000000002 0.33750000000000036,0.6791999999999945 0.3562000000000003,0.6791999999999945 0.3604000000000003,0.6770999999999958 0.3661000000000003,0.6807999999999979 0.35829999999999984,0.6813000000000002 0.34999999999999964,0.6854999999999976 0.3395999999999999,0.6854999999999976 0.3353999999999999,0.6875 0.3208000000000002,0.6875 0.3125,0.6916999999999973 0.2937000000000003,0.6916999999999973 0.2790999999999997,0.6980000000000004 0.2629999999999999,0.6984999999999957 0.24840000000000018,0.7067999999999941 0.2453000000000003,0.7119999999999962 0.23800000000000043,0.7130999999999972 0.23690000000000033,0.7162000000000006 0.23170000000000002,0.7171999999999983 0.22130000000000027,0.7234999999999943 0.22130000000000027,0.7286999999999964 0.22440000000000015,0.730799999999995 0.22240000000000038,0.7369999999999948 0.21919999999999984,0.7380999999999958 0.22029999999999994,0.7411999999999992 0.21720000000000006,0.7421999999999969 0.21720000000000006,0.747399999999999 0.2312000000000003,0.7479999999999976 0.23540000000000028,0.75 0.2583000000000002,0.75 0.26400000000000023,0.747399999999999 0.26510000000000034,0.7442999999999955 0.2728999999999999,0.7438000000000002 0.2849000000000004,0.7391000000000005 0.28749999999999964,0.7354999999999947 0.31040000000000045,0.7354999999999947 0.31460000000000043,0.7312999999999974 0.3291000000000004,0.7312999999999974 0.3349000000000002,0.7338999999999984 0.3333000000000004,0.7395999999999958 0.33750000000000036,0.7438000000000002 0.33589999999999964,0.747399999999999 0.3415999999999997,0.75 0.36460000000000026,0.7520999999999987 0.3686999999999996,0.7541999999999973 0.3895999999999997,0.7541999999999973 0.39369999999999994,0.756299999999996 0.3978999999999999,0.7541999999999973 0.4040999999999997,0.7541999999999973 0.4099000000000004,0.7567999999999984 0.40470000000000006,0.758899999999997 0.4088000000000003,0.7620000000000005 0.4187000000000003,0.7645999999999944 0.4333,0.7645999999999944 0.43540000000000045,0.7625999999999991 0.4359000000000002,0.7567999999999984 0.4410999999999996,0.7558000000000007 0.4421999999999997,0.7526999999999973 0.4583000000000004,0.7458999999999989 0.4645999999999999,0.7458999999999989 0.4806999999999997,0.7411999999999992 0.48489999999999966,0.7391000000000005 0.4859,0.7359999999999971 0.4911000000000003,0.7348999999999961 0.4922000000000004,0.7317999999999998 0.5015000000000001,0.7286999999999964 0.5026000000000002,0.7256 0.5202999999999998,0.7182999999999993 0.5316999999999998,0.7109999999999985 0.5437000000000003,0.7104999999999961 0.5479000000000003,0.7083999999999975 0.5666000000000002,0.7083999999999975 0.5708000000000002,0.7062999999999988 0.5853999999999999,0.7062999999999988 0.5979000000000001,0.7020999999999944 0.6040999999999999,0.7020999999999944 0.6098999999999997,0.6995000000000005 0.6130000000000004,0.6880999999999986 0.6181999999999999,0.6869999999999976 0.6186999999999996,0.6854999999999976 0.6181999999999999,0.6817999999999955 0.6109,0.6766000000000005 0.6119000000000003,0.6734999999999971 0.6047000000000002,0.6704000000000008 0.6040999999999999,0.6666999999999987 0.6056999999999997,0.6631 0.6025999999999998,0.661999999999999 0.6014999999999997,0.6567999999999969 0.5957999999999997,0.6541999999999959 0.5915999999999997,0.6541999999999959 0.5875000000000004,0.6520999999999972 0.5708000000000002,0.6520999999999972 0.5666000000000002,0.6500999999999948 0.5583,0.6500999999999948 0.5521000000000003,0.6479999999999961 0.5479000000000003,0.6500999999999948 0.5395000000000003,0.6500999999999948 0.5316999999999998,0.6526999999999958 0.5307000000000004,0.6578999999999979 0.5290999999999997,0.6584000000000003 0.5233999999999996,0.6557999999999993 0.5208000000000004,0.6520999999999972 0.5041000000000002,0.6520999999999972 0.5026000000000002,0.6505999999999972 0.5083000000000002,0.6500999999999948 0.5186999999999999,0.6458999999999975 0.5270999999999999,0.6458999999999975 0.5349000000000004,0.6432999999999964 0.5354000000000001,0.6395999999999944 0.5332999999999997,0.6375999999999991 0.5290999999999997,0.6375999999999991 0.5250000000000004,0.6355000000000004 0.5208000000000004,0.6355000000000004 0.5166000000000004,0.6375999999999991 0.5083000000000002,0.6333999999999946 0.4958,0.631299999999996 0.48329999999999984,0.6270999999999987 0.4687000000000001,0.6270999999999987 0.4645999999999999,0.6291999999999973 0.4603999999999999,0.6291999999999973 0.45619999999999994,0.6270999999999987 0.44789999999999974,0.6270999999999987 0.44320000000000004,0.6308000000000007 0.4375,0.631299999999996 "></polygon><polygon points="0.01869999999999994,0.7062999999999988 0.014599999999999724,0.7020999999999944 0.002100000000000435,0.7020999999999944 0.0,0.7042000000000002 0.0004999999999997229,0.7057999999999964 0.010399999999999743,0.7083999999999975 0.02859999999999996,0.7078999999999951 0.02289999999999992,0.7042000000000002 0.01869999999999994,0.7062999999999988 "></polygon><polygon points="0.10829999999999984,0.7187999999999946 0.11869999999999958,0.7145999999999972 0.12650000000000006,0.7140999999999948 0.14219999999999988,0.7046999999999954 0.14789999999999992,0.7042000000000002 0.1557000000000004,0.7005999999999943 0.15000000000000036,0.6980000000000004 0.14580000000000037,0.6980000000000004 0.1416000000000004,0.7000999999999991 0.13119999999999976,0.7000999999999991 0.12710000000000043,0.6980000000000004 0.11460000000000026,0.7020999999999944 0.10409999999999986,0.7020999999999944 0.09999999999999964,0.7042000000000002 0.09579999999999966,0.7020999999999944 0.05410000000000004,0.7020999999999944 0.04159999999999986,0.7062999999999988 0.0354000000000001,0.7062999999999988 0.02970000000000006,0.7088999999999999 0.02909999999999968,0.7104999999999961 0.031200000000000117,0.7125999999999948 0.05210000000000026,0.7166999999999959 0.056199999999999584,0.7187999999999946 0.06869999999999976,0.7187999999999946 0.07289999999999974,0.7209000000000003 0.08330000000000037,0.7187999999999946 0.0895999999999999,0.722999999999999 0.09579999999999966,0.722999999999999 0.10829999999999984,0.7187999999999946 "></polygon><polygon points="1.2182000000000004,0.872399999999999 1.2165999999999997,0.8708999999999989 1.2150999999999996,0.8713999999999942 1.2165999999999997,0.8729999999999976 1.2182000000000004,0.872399999999999 "></polygon><polygon points="1.3604000000000003,0.910499999999999 1.3681999999999999,0.9078999999999979 1.3692000000000002,0.9046999999999983 1.3734000000000002,0.9026999999999958 1.3895999999999997,0.9020999999999972 1.3921999999999999,0.8984999999999985 1.3974000000000002,0.8973999999999975 1.3994,0.8880999999999943 1.3963,0.8859999999999957 1.3994,0.883899999999997 1.3708,0.8833999999999946 1.3666,0.8855000000000004 1.3624999999999998,0.8833999999999946 1.3562000000000003,0.8833999999999946 1.3521,0.8855000000000004 1.3422,0.8808000000000007 1.3437000000000001,0.8791999999999973 1.3514999999999997,0.8786999999999949 1.3703000000000003,0.8703999999999965 1.3651,0.8661999999999992 1.3639999999999999,0.8567999999999998 1.3609,0.855799999999995 1.3624999999999998,0.8521000000000001 1.3619000000000003,0.8484999999999943 1.3578000000000001,0.8463999999999956 1.3479,0.8437999999999946 1.3208000000000002,0.8437999999999946 1.3083,0.8375999999999948 1.2999999999999998,0.8375999999999948 1.2942,0.8401999999999958 1.2953000000000001,0.8432999999999993 1.2880000000000003,0.8442999999999969 1.2880000000000003,0.8474000000000004 1.2953000000000001,0.8506 1.2900999999999998,0.8526999999999987 1.2931999999999997,0.854699999999994 1.2931999999999997,0.8579000000000008 1.2880000000000003,0.8609999999999971 1.2869000000000002,0.8641000000000005 1.2838000000000003,0.8651999999999944 1.2807000000000004,0.8703999999999965 1.2750000000000004,0.8729999999999976 1.2691999999999997,0.8734999999999999 1.2671999999999999,0.8755999999999986 1.2671999999999999,0.8786999999999949 1.2687,0.8791999999999973 1.2729,0.8791999999999973 1.3021000000000003,0.8875999999999991 1.3125,0.8875999999999991 1.3182,0.8902000000000001 1.3171999999999997,0.8953999999999951 1.3285999999999998,0.9005999999999972 1.3296999999999999,0.9037000000000006 1.3369,0.9046999999999983 1.3358999999999996,0.9099000000000004 1.3437000000000001,0.910499999999999 1.3479,0.9125999999999976 1.3521,0.910499999999999 1.3604000000000003,0.910499999999999 "></polygon><polygon points="0.9493999999999998,0.9099000000000004 0.9557000000000002,0.9078999999999979 0.9566999999999997,0.9046999999999983 0.9702999999999999,0.8973999999999975 0.9733999999999998,0.8921999999999954 0.9764999999999997,0.8911999999999978 0.9775999999999998,0.8880999999999943 0.9828000000000001,0.8870000000000005 0.9838000000000005,0.883899999999997 0.9889999999999999,0.8808000000000007 0.9889999999999999,0.8734999999999999 0.9859,0.8713999999999942 0.9993999999999996,0.8661999999999992 1.0026000000000002,0.8609999999999971 1.0099,0.8619999999999948 1.013,0.8567999999999998 1.0160999999999998,0.855799999999995 1.0171999999999999,0.8526999999999987 1.0224000000000002,0.8515999999999977 1.0250000000000004,0.8416999999999959 1.0244,0.8359999999999985 1.0145999999999997,0.8312999999999988 0.9874999999999998,0.8312999999999988 0.9672000000000001,0.8421999999999983 0.9650999999999996,0.8442999999999969 0.9630000000000001,0.8536999999999964 0.9661,0.854699999999994 0.9682000000000004,0.8661999999999992 0.9650999999999996,0.8671999999999969 0.9640000000000004,0.872399999999999 0.9546999999999999,0.8776999999999973 0.9515000000000002,0.8828999999999994 0.9421999999999997,0.8859999999999957 0.9410999999999996,0.8890999999999991 0.9368999999999996,0.8911999999999978 0.9317000000000002,0.8921999999999954 0.9306999999999999,0.8973999999999975 0.9213000000000005,0.9026999999999958 0.9203000000000001,0.9078999999999979 0.9124999999999996,0.9084000000000003 0.9066999999999998,0.9109999999999943 0.9099000000000004,0.9140999999999977 0.9005000000000001,0.9151999999999987 0.9036,0.918299999999995 0.9005000000000001,0.9192999999999998 0.8974000000000002,0.9244999999999948 0.8941999999999997,0.9255999999999958 0.8974000000000002,0.9286999999999992 0.8837999999999999,0.9338999999999942 0.8868999999999998,0.9369999999999976 0.8817000000000004,0.9401999999999973 0.8807,0.9433000000000007 0.8754999999999997,0.9442999999999984 0.8754999999999997,0.9473999999999947 0.8785999999999996,0.9495000000000005 0.8734000000000002,0.9527000000000001 0.8723999999999998,0.9619999999999962 0.8672000000000004,0.9651999999999958 0.8651,0.9703999999999979 0.8681999999999999,0.9713999999999956 0.8692000000000002,0.974499999999999 0.8723999999999998,0.9756 0.875,0.9791999999999987 0.8974000000000002,0.9703999999999979 0.8983999999999996,0.9671999999999983 0.9119000000000002,0.9640999999999948 0.9082999999999997,0.9604999999999961 0.9146000000000001,0.9542000000000002 0.9108999999999998,0.9505999999999943 0.9139999999999997,0.9495000000000005 0.9150999999999998,0.946399999999997 0.9203000000000001,0.9453999999999994 0.9213000000000005,0.9421999999999997 0.9264999999999999,0.9390999999999963 0.9276,0.9317999999999955 0.9297000000000004,0.9296999999999969 0.9432,0.9223999999999961 0.9432,0.9192999999999998 0.9401000000000002,0.917199999999994 0.9452999999999996,0.9161999999999964 0.9462999999999999,0.9109999999999943 0.9493999999999998,0.9099000000000004 "></polygon><polygon points="1.1327999999999996,0.9328999999999965 1.1327999999999996,0.9317999999999955 1.1296999999999997,0.9317999999999955 1.1296999999999997,0.9328999999999965 1.1327999999999996,0.9328999999999965 "></polygon><polygon points="1.3916000000000004,0.9520999999999944 1.3875000000000002,0.9520999999999944 1.3859000000000004,0.9505999999999943 1.3937,0.9500999999999991 1.3979,0.9480000000000004 1.4021,0.9480000000000004 1.4062000000000001,0.9500999999999991 1.4165999999999999,0.9500999999999991 1.4249999999999998,0.9458999999999946 1.4306999999999999,0.9453999999999994 1.4337999999999997,0.9401999999999973 1.4368999999999996,0.9390999999999963 1.4368999999999996,0.9359999999999999 1.4311999999999996,0.9333999999999989 1.4187000000000003,0.9333999999999989 1.4078,0.9276999999999944 1.4021,0.9270999999999958 1.3937,0.9229999999999947 1.3895999999999997,0.9249999999999972 1.3853999999999997,0.9249999999999972 1.3811999999999998,0.9229999999999947 1.3666,0.9229999999999947 1.3463000000000003,0.9296999999999969 1.3499999999999996,0.9333999999999989 1.3483999999999998,0.9369999999999976 1.3514999999999997,0.9380999999999986 1.3483999999999998,0.9401999999999973 1.3474000000000004,0.9453999999999994 1.3422,0.946399999999997 1.3437000000000001,0.9480000000000004 1.3494000000000002,0.9484999999999957 1.3463000000000003,0.9505999999999943 1.3463000000000003,0.9536999999999978 1.3686999999999996,0.9542000000000002 1.3703000000000003,0.9557999999999964 1.3630000000000004,0.9567999999999941 1.3630000000000004,0.9598999999999975 1.3811999999999998,0.9604999999999961 1.3932000000000002,0.9536999999999978 1.3916000000000004,0.9520999999999944 "></polygon>
    </svg>
    