
    <svg width="0.8099999999999952" height="0.6834000000000007" xmlns="http://www.w3.org/2000/svg" xmlns:xlink="http://www.w3.org/1999/xlink" style="transform: scale(1, -1)">
        <polygon points="0.20019999999999527,0.00730000000000075 0.2015999999999991,0.0045000000000001705 0.20550000000000068,0.0036000000000004917 0.20139999999999958,0.0022999999999999687 0.1980000000000004,0.006099999999999994 0.19879999999999853,0.008399999999999963 0.20019999999999527,0.00730000000000075 "></polygon><polygon points="0.17549999999999955,0.03810000000000002 0.17549999999999955,0.036099999999999355 0.18609999999999616,0.03529999999999944 0.1875,0.03279999999999994 0.18549999999999756,0.03089999999999904 0.18549999999999756,0.02779999999999916 0.19359999999999644,0.026699999999999946 0.19610000000000127,0.024200000000000443 0.1921999999999997,0.01980000000000004 0.19109999999999872,0.01980000000000004 0.19019999999999726,0.023899999999999366 0.188600000000001,0.023099999999999454 0.18829999999999814,0.019999999999999574 0.18439999999999657,0.015900000000000247 0.18329999999999558,0.012000000000000455 0.17660000000000053,0.008100000000000662 0.159399999999998,0.01559999999999917 0.1635999999999953,0.025600000000000733 0.1629999999999967,0.02999999999999936 0.16610000000000014,0.02919999999999945 0.17190000000000083,0.03420000000000023 0.17329999999999757,0.039199999999999235 0.1751999999999967,0.03950000000000031 0.17549999999999955,0.03810000000000002 "></polygon><polygon points="0.21189999999999998,0.04640000000000022 0.21580000000000155,0.04589999999999961 0.21580000000000155,0.0472999999999999 0.21829999999999927,0.0472999999999999 0.219699999999996,0.04449999999999932 0.21659999999999968,0.03999999999999915 0.2149999999999963,0.03999999999999915 0.21410000000000196,0.041999999999999815 0.20830000000000126,0.044800000000000395 0.21000000000000085,0.04780000000000051 0.21189999999999998,0.04640000000000022 "></polygon><polygon points="0.19610000000000127,0.15000000000000036 0.1905000000000001,0.14639999999999986 0.19019999999999726,0.14470000000000027 0.19249999999999545,0.14279999999999937 0.19189999999999685,0.1396999999999995 0.1858000000000004,0.13860000000000028 0.18359999999999843,0.14000000000000057 0.18079999999999785,0.13780000000000037 0.1811000000000007,0.13480000000000025 0.17799999999999727,0.1352999999999991 0.1757999999999953,0.13339999999999996 0.1700000000000017,0.13640000000000008 0.16610000000000014,0.13449999999999918 0.16080000000000183,0.1374999999999993 0.158299999999997,0.13449999999999918 0.15520000000000067,0.13390000000000057 0.1518999999999977,0.12780000000000058 0.14860000000000184,0.129999999999999 0.14799999999999613,0.13279999999999959 0.1402000000000001,0.12979999999999947 0.13749999999999574,0.1264000000000003 0.1372,0.12340000000000018 0.1296999999999997,0.1183999999999994 0.12109999999999843,0.11779999999999902 0.11299999999999955,0.1144999999999996 0.10909999999999798,0.11500000000000021 0.10660000000000025,0.11720000000000041 0.10249999999999915,0.11589999999999989 0.10269999999999868,0.11999999999999922 0.10020000000000095,0.1225000000000005 0.10159999999999769,0.1291999999999991 0.1010999999999953,0.13700000000000045 0.09769999999999612,0.14700000000000024 0.0963999999999956,0.14669999999999916 0.09080000000000155,0.15279999999999916 0.08500000000000085,0.15530000000000044 0.07580000000000098,0.16469999999999985 0.07439999999999714,0.16859999999999964 0.06799999999999784,0.1730999999999998 0.06360000000000099,0.1786000000000012 0.06109999999999616,0.19840000000000124 0.05579999999999785,0.20470000000000077 0.05519999999999925,0.2085999999999988 0.05359999999999587,0.20839999999999925 0.04829999999999757,0.21609999999999907 0.045000000000001705,0.21749999999999936 0.03909999999999769,0.2303000000000015 0.041399999999995885,0.2400000000000002 0.040500000000001535,0.2483999999999984 0.042200000000001125,0.24999999999999822 0.042200000000001125,0.2530999999999981 0.04079999999999728,0.2530999999999981 0.04019999999999868,0.2553000000000001 0.04299999999999926,0.2585999999999995 0.038599999999995305,0.25780000000000136 0.036599999999999966,0.2597000000000005 0.03640000000000043,0.2616999999999994 0.038800000000001944,0.26449999999999996 0.03580000000000183,0.2660999999999998 0.037700000000000955,0.26890000000000036 0.03719999999999857,0.27059999999999995 0.03519999999999612,0.27030000000000065 0.03499999999999659,0.2724999999999991 0.03719999999999857,0.27389999999999937 0.036899999999995714,0.27780000000000094 0.03549999999999898,0.27859999999999907 0.036599999999999966,0.2806000000000015 0.03519999999999612,0.28499999999999837 0.03580000000000183,0.29529999999999923 0.039400000000000546,0.2964000000000002 0.03999999999999915,0.29859999999999864 0.0379999999999967,0.3044999999999991 0.03439999999999799,0.3074999999999992 0.02939999999999543,0.3084000000000007 0.03439999999999799,0.3163999999999998 0.03439999999999799,0.33479999999999954 0.03249999999999886,0.33809999999999896 0.0338999999999956,0.34089999999999954 0.03159999999999741,0.34279999999999866 0.026899999999997704,0.3422999999999998 0.025500000000000966,0.34559999999999924 0.026600000000001955,0.34610000000000163 0.026099999999999568,0.3547999999999991 0.027499999999996305,0.3569000000000013 0.022199999999998,0.3631000000000011 0.023299999999998988,0.3648000000000007 0.022500000000000853,0.36859999999999893 0.024099999999997124,0.36900000000000155 0.024399999999999977,0.3727999999999998 0.026899999999997704,0.3756000000000004 0.02769999999999584,0.3824999999999985 0.02499999999999858,0.3866999999999994 0.025199999999998113,0.39279999999999937 0.023299999999998988,0.39700000000000024 0.017499999999998295,0.40359999999999907 0.014400000000001967,0.40470000000000006 0.012999999999998124,0.40839999999999854 0.007999999999995566,0.4117000000000015 0.0069000000000016826,0.41999999999999993 0.0035999999999987153,0.4260999999999999 0.004399999999996851,0.4324999999999992 0.00269999999999726,0.4350000000000005 0.0037999999999982492,0.4369999999999994 0.001100000000000989,0.4374999999999982 0.0,0.44090000000000096 0.005199999999994986,0.4435999999999982 0.007199999999997431,0.4463999999999988 0.0058000000000006935,0.4510999999999985 0.007999999999995566,0.4541999999999984 0.006599999999998829,0.46279999999999966 0.007999999999995566,0.47170000000000023 0.01549999999999585,0.4742000000000015 0.014699999999997715,0.4773000000000014 0.00829999999999842,0.4806000000000008 0.008600000000001273,0.4834000000000014 0.021599999999999397,0.4911000000000012 0.022700000000000387,0.49730000000000096 0.020199999999995555,0.5010999999999992 0.02360000000000184,0.5060999999999982 0.02769999999999584,0.5069999999999997 0.03219999999999601,0.5109000000000012 0.03130000000000166,0.5139000000000014 0.034099999999995134,0.5189000000000004 0.03580000000000183,0.5177999999999994 0.042200000000001125,0.519499999999999 0.04359999999999786,0.5217000000000009 0.04999999999999716,0.5245000000000015 0.05639999999999645,0.5220000000000002 0.05689999999999884,0.5234000000000005 0.05939999999999657,0.5224999999999991 0.06139999999999901,0.5236000000000001 0.06109999999999616,0.5250000000000004 0.06360000000000099,0.525599999999999 0.06360000000000099,0.5302999999999987 0.0666000000000011,0.5306000000000015 0.07139999999999702,0.5288999999999984 0.07110000000000127,0.5269999999999992 0.07799999999999585,0.5248000000000008 0.08079999999999643,0.5261000000000013 0.08269999999999555,0.5234000000000005 0.08579999999999899,0.5231000000000012 0.08549999999999613,0.5206 0.08859999999999957,0.5186000000000011 0.08829999999999671,0.5160999999999998 0.09080000000000155,0.5163999999999991 0.09270000000000067,0.513399999999999 0.09499999999999886,0.5135999999999985 0.09250000000000114,0.5109000000000012 0.09409999999999741,0.5078000000000014 0.10190000000000055,0.5048000000000012 0.10519999999999641,0.5055999999999994 0.10889999999999844,0.5030999999999981 0.10969999999999658,0.5044999999999984 0.11299999999999955,0.5027999999999988 0.11639999999999873,0.503400000000001 0.11909999999999599,0.4994999999999994 0.12389999999999901,0.4975000000000005 0.12519999999999953,0.49359999999999893 0.12829999999999586,0.4942000000000011 0.12829999999999586,0.4977999999999998 0.130199999999995,0.4986000000000015 0.13389999999999702,0.4942000000000011 0.13689999999999714,0.4933999999999994 0.13859999999999673,0.4891999999999985 0.1402000000000001,0.4911000000000012 0.1418999999999997,0.4891999999999985 0.1454999999999984,0.4900000000000002 0.1454999999999984,0.4867000000000008 0.14689999999999515,0.4891999999999985 0.15409999999999968,0.48779999999999824 0.16019999999999612,0.4900000000000002 0.16049999999999898,0.4885999999999999 0.169399999999996,0.4844999999999988 0.16550000000000153,0.48169999999999824 0.16659999999999542,0.4778000000000002 0.17219999999999658,0.4783999999999988 0.17719999999999914,0.4728000000000012 0.181599999999996,0.4731000000000005 0.1858000000000004,0.4698000000000011 0.20080000000000098,0.4731000000000005 0.20830000000000126,0.47219999999999906 0.2079999999999984,0.46779999999999866 0.19939999999999714,0.4623000000000008 0.1980000000000004,0.4538999999999991 0.19519999999999982,0.4510999999999985 0.18909999999999627,0.45170000000000066 0.192699999999995,0.45529999999999937 0.19189999999999685,0.4596999999999998 0.18970000000000198,0.46090000000000053 0.19079999999999586,0.45500000000000007 0.18379999999999797,0.45089999999999897 0.18379999999999797,0.44700000000000095 0.18549999999999756,0.444799999999999 0.19879999999999853,0.4477999999999991 0.1991000000000014,0.4444999999999997 0.19519999999999982,0.43920000000000137 0.19519999999999982,0.4374999999999982 0.19769999999999754,0.4358999999999984 0.2032999999999987,0.4371999999999989 0.2049999999999983,0.44090000000000096 0.20769999999999555,0.4416999999999991 0.21049999999999613,0.45089999999999897 0.21329999999999671,0.45030000000000037 0.21130000000000138,0.4460999999999995 0.21329999999999671,0.4428000000000001 0.2126999999999981,0.44090000000000096 0.209699999999998,0.4399999999999995 0.2102000000000004,0.4367000000000001 0.21219999999999573,0.4347000000000012 0.21719999999999828,0.4347000000000012 0.219699999999996,0.4350000000000005 0.22630000000000194,0.4399999999999995 0.22579999999999956,0.4430999999999994 0.23109999999999786,0.44700000000000095 0.2301999999999964,0.45089999999999897 0.22889999999999588,0.45089999999999897 0.22999999999999687,0.45280000000000165 0.2325000000000017,0.45229999999999926 0.23469999999999658,0.4538999999999991 0.23499999999999943,0.44980000000000153 0.240000000000002,0.45000000000000107 0.24109999999999587,0.45340000000000025 0.24629999999999797,0.45529999999999937 0.24859999999999616,0.45199999999999996 0.24969999999999715,0.4535999999999998 0.24859999999999616,0.45470000000000077 0.25159999999999627,0.4555999999999987 0.25609999999999644,0.45199999999999996 0.25329999999999586,0.45640000000000036 0.25719999999999743,0.45839999999999925 0.2593999999999994,0.45699999999999896 0.2616000000000014,0.46169999999999867 0.26500000000000057,0.46169999999999867 0.2646999999999977,0.46530000000000094 0.26249999999999574,0.46749999999999936 0.2629999999999981,0.47110000000000163 0.2663000000000011,0.4731000000000005 0.2652000000000001,0.47140000000000093 0.2657999999999987,0.46949999999999825 0.2668999999999997,0.47170000000000023 0.26889999999999503,0.47170000000000023 0.2749999999999986,0.48139999999999894 0.2757999999999967,0.4847999999999981 0.2738000000000014,0.48719999999999963 0.27660000000000196,0.4914000000000005 0.2744,0.4999999999999982 0.28130000000000166,0.5058999999999987 0.28000000000000114,0.5084 0.28359999999999985,0.5081000000000007 0.2868999999999957,0.5146999999999995 0.2890999999999977,0.5123000000000015 0.30049999999999955,0.5119999999999987 0.3018999999999963,0.5105999999999984 0.3027000000000015,0.5146999999999995 0.3044000000000011,0.5139000000000014 0.30469999999999686,0.5145 0.30049999999999955,0.5170000000000012 0.29999999999999716,0.5189000000000004 0.30299999999999727,0.5184000000000015 0.302500000000002,0.519499999999999 0.30519999999999925,0.5203000000000007 0.31629999999999825,0.5222999999999995 0.3102000000000018,0.5236000000000001 0.313600000000001,0.5269999999999992 0.31159999999999854,0.5281000000000002 0.31269999999999953,0.5306000000000015 0.3082999999999956,0.5327999999999999 0.31269999999999953,0.5356000000000005 0.31409999999999627,0.5388999999999999 0.3125,0.5408999999999988 0.31409999999999627,0.5441999999999982 0.3125,0.5492000000000008 0.3038999999999987,0.5577999999999985 0.30109999999999815,0.5536000000000012 0.29749999999999943,0.5581000000000014 0.2838999999999956,0.5633999999999997 0.283299999999997,0.5672000000000015 0.28130000000000166,0.5692000000000004 0.28000000000000114,0.5795000000000012 0.2763999999999953,0.5835999999999988 0.27550000000000097,0.5900000000000016 0.27660000000000196,0.5924999999999994 0.27550000000000097,0.5961000000000016 0.272199999999998,0.5995000000000008 0.27250000000000085,0.6053000000000015 0.2715999999999994,0.6063999999999989 0.2685999999999993,0.6056000000000008 0.2680000000000007,0.6070000000000011 0.272199999999998,0.6124999999999989 0.2744,0.6230999999999991 0.27830000000000155,0.628400000000001 0.2868999999999957,0.6324999999999985 0.2907999999999973,0.6397999999999993 0.2971999999999966,0.6399999999999988 0.3027000000000015,0.6425000000000001 0.3061000000000007,0.6531000000000002 0.311399999999999,0.6535999999999991 0.31269999999999953,0.6559000000000008 0.3149999999999977,0.6552999999999987 0.31629999999999825,0.6583999999999985 0.32329999999999615,0.6603000000000012 0.3271999999999977,0.6655999999999995 0.3293999999999997,0.6660999999999984 0.3318999999999974,0.6742000000000008 0.333599999999997,0.6735999999999986 0.33610000000000184,0.6789000000000005 0.33859999999999957,0.6783999999999981 0.33910000000000196,0.6806000000000001 0.3429999999999964,0.6791999999999998 0.345799999999997,0.6834000000000007 0.34380000000000166,0.6752999999999982 0.3487999999999971,0.6739000000000015 0.34659999999999513,0.6711000000000009 0.3474999999999966,0.6685999999999996 0.35020000000000095,0.6699999999999999 0.3521999999999963,0.6681000000000008 0.3562999999999974,0.6691999999999982 0.35770000000000124,0.6660999999999984 0.3632999999999953,0.6691999999999982 0.36659999999999826,0.6685999999999996 0.367999999999995,0.6577999999999999 0.3707999999999956,0.6596999999999991 0.3744000000000014,0.6563999999999997 0.3768999999999991,0.6561000000000003 0.3774999999999977,0.6521999999999988 0.3825000000000003,0.6514000000000006 0.38219999999999743,0.6491999999999987 0.3855000000000004,0.6446999999999985 0.3913000000000011,0.6434000000000015 0.3924999999999983,0.6399999999999988 0.39389999999999503,0.6409000000000002 0.39580000000000126,0.6380999999999997 0.398299999999999,0.638399999999999 0.3999999999999986,0.6361000000000008 0.3996999999999957,0.6288999999999998 0.40160000000000196,0.6288999999999998 0.4029999999999987,0.6227999999999998 0.40220000000000056,0.6196999999999999 0.4040999999999997,0.6196999999999999 0.4029999999999987,0.6164000000000005 0.40439999999999543,0.6145000000000014 0.406099999999995,0.6155999999999988 0.40690000000000026,0.6114000000000015 0.40859999999999985,0.6114000000000015 0.41219999999999857,0.5906000000000002 0.41159999999999997,0.5861000000000001 0.408299999999997,0.5845000000000002 0.40970000000000084,0.5825000000000014 0.408299999999997,0.5761999999999983 0.4046999999999983,0.5744999999999987 0.406099999999995,0.5655999999999981 0.4040999999999997,0.5638999999999985 0.40520000000000067,0.5611000000000015 0.4040999999999997,0.5533999999999981 0.40749999999999886,0.5502999999999982 0.4076999999999984,0.5431000000000008 0.41159999999999997,0.5391999999999992 0.41159999999999997,0.5370000000000008 0.41499999999999915,0.5346999999999991 0.4221999999999966,0.5220000000000002 0.4251999999999967,0.5203000000000007 0.4311000000000007,0.5125000000000011 0.43499999999999517,0.509500000000001 0.4421999999999997,0.5078000000000014 0.44189999999999685,0.5036000000000005 0.44409999999999883,0.5064000000000011 0.44829999999999615,0.5060999999999982 0.4572000000000003,0.5020000000000007 0.4638999999999953,0.5044999999999984 0.4682999999999993,0.4977999999999998 0.4713999999999956,0.5020000000000007 0.48049999999999926,0.5023 0.49269999999999925,0.4986000000000015 0.498899999999999,0.5006000000000004 0.5035999999999987,0.4977999999999998 0.5065999999999988,0.49359999999999893 0.5124999999999957,0.4966999999999988 0.5138999999999996,0.4925000000000015 0.5157999999999987,0.4931000000000001 0.5163000000000011,0.4911000000000012 0.5201999999999956,0.4895000000000014 0.5240999999999971,0.4902999999999995 0.5289000000000001,0.4855999999999998 0.533299999999997,0.48469999999999835 0.5349999999999966,0.48109999999999964 0.537700000000001,0.48279999999999923 0.5429999999999993,0.4797999999999991 0.5435999999999979,0.4731000000000005 0.5457999999999998,0.4742000000000015 0.5501999999999967,0.4731000000000005 0.5540999999999983,0.46589999999999954 0.5533000000000001,0.46339999999999826 0.5551999999999992,0.46339999999999826 0.5585999999999984,0.4596999999999998 0.5651999999999973,0.4449999999999985 0.5674999999999955,0.4444999999999997 0.5715999999999966,0.4383999999999997 0.5777000000000001,0.4350000000000005 0.5901999999999958,0.4320000000000004 0.5938000000000017,0.4275000000000002 0.6026999999999987,0.4233999999999991 0.609099999999998,0.4225000000000012 0.6115999999999957,0.4239000000000015 0.6118999999999986,0.4260999999999999 0.6154999999999973,0.4222999999999981 0.6218999999999966,0.4233999999999991 0.6251999999999995,0.4216999999999995 0.6287999999999982,0.4169999999999998 0.6329999999999956,0.41609999999999836 0.6343999999999994,0.4178000000000015 0.6340999999999966,0.4148000000000014 0.6368999999999971,0.4153000000000002 0.6388999999999996,0.4148000000000014 0.6332999999999984,0.40969999999999906 0.6308000000000007,0.41360000000000063 0.6276999999999973,0.41309999999999825 0.6186000000000007,0.4184000000000001 0.605799999999995,0.4172999999999991 0.5885999999999996,0.4219999999999988 0.5801999999999978,0.4209000000000014 0.5713000000000008,0.4219999999999988 0.5694000000000017,0.42359999999999864 0.5568999999999988,0.42359999999999864 0.5549999999999997,0.42499999999999893 0.5407999999999973,0.4184000000000001 0.5293999999999954,0.41889999999999894 0.5276999999999958,0.4167000000000005 0.5260999999999996,0.4172999999999991 0.5249999999999986,0.4148000000000014 0.5201999999999956,0.41449999999999854 0.5161000000000016,0.4117000000000015 0.5088000000000008,0.41249999999999964 0.49329999999999785,0.40839999999999854 0.4876999999999967,0.40999999999999837 0.4865999999999957,0.41249999999999964 0.48519999999999897,0.41249999999999964 0.48639999999999617,0.40949999999999953 0.48499999999999943,0.40890000000000093 0.482999999999997,0.4106000000000005 0.481899999999996,0.40920000000000023 0.4713999999999956,0.4106000000000005 0.4713999999999956,0.40809999999999924 0.46689999999999543,0.40839999999999854 0.4560999999999993,0.40339999999999954 0.4497,0.40389999999999837 0.43909999999999627,0.40059999999999896 0.43769999999999953,0.3960999999999988 0.42969999999999686,0.39030000000000165 0.4200000000000017,0.39250000000000007 0.4163999999999959,0.3899999999999988 0.4157999999999973,0.3855999999999984 0.4112999999999971,0.38839999999999897 0.40500000000000114,0.3849999999999998 0.40520000000000067,0.38339999999999996 0.4013999999999953,0.3800000000000008 0.39389999999999503,0.3788999999999998 0.3924999999999983,0.3803000000000001 0.3902000000000001,0.3774999999999995 0.3885999999999967,0.37840000000000096 0.388300000000001,0.3763999999999985 0.386099999999999,0.3777999999999988 0.3855000000000004,0.3758999999999997 0.3838000000000008,0.3763999999999985 0.3836000000000013,0.3786000000000005 0.3716000000000008,0.3774999999999995 0.36769999999999925,0.3753000000000011 0.3669000000000011,0.3711000000000002 0.357999999999997,0.3683999999999994 0.3547000000000011,0.3683999999999994 0.35300000000000153,0.3702999999999985 0.34499999999999886,0.3648000000000007 0.3421999999999983,0.3675000000000015 0.3393999999999977,0.3664000000000005 0.33549999999999613,0.3695000000000004 0.3293999999999997,0.3697999999999997 0.32439999999999714,0.3730999999999991 0.30299999999999727,0.3746999999999989 0.3018999999999963,0.3753000000000011 0.30219999999999914,0.3824999999999985 0.2990999999999957,0.3847000000000005 0.2913999999999959,0.3835999999999995 0.28880000000000194,0.3808999999999987 0.28190000000000026,0.3852999999999991 0.28000000000000114,0.3841999999999981 0.2768999999999977,0.38949999999999996 0.27830000000000155,0.3910999999999998 0.2796999999999983,0.38920000000000066 0.28000000000000114,0.3910999999999998 0.27660000000000196,0.39360000000000106 0.2774999999999963,0.39589999999999925 0.2749999999999986,0.39889999999999937 0.2757999999999967,0.40280000000000094 0.272199999999998,0.40250000000000163 0.269999999999996,0.40610000000000035 0.2704999999999984,0.40809999999999924 0.26829999999999643,0.40839999999999854 0.2668999999999997,0.41360000000000063 0.2593999999999994,0.42059999999999853 0.25719999999999743,0.41859999999999964 0.2616000000000014,0.4103000000000012 0.259999999999998,0.40669999999999895 0.26079999999999615,0.4021999999999988 0.2657999999999987,0.40280000000000094 0.26829999999999643,0.40059999999999896 0.2640999999999991,0.3960999999999988 0.26500000000000057,0.39200000000000124 0.25969999999999516,0.39220000000000077 0.2635999999999967,0.38920000000000066 0.26079999999999615,0.39060000000000095 0.2563999999999993,0.3899999999999988 0.25499999999999545,0.39250000000000007 0.2569000000000017,0.3934000000000015 0.2563999999999993,0.3960999999999988 0.25329999999999586,0.3974999999999991 0.25499999999999545,0.39919999999999867 0.25439999999999685,0.40089999999999826 0.2504999999999953,0.40389999999999837 0.2477000000000018,0.40250000000000163 0.24749999999999517,0.3995000000000015 0.24389999999999645,0.40140000000000065 0.24269999999999925,0.4042000000000012 0.2376999999999967,0.4045000000000005 0.23499999999999943,0.40250000000000163 0.230799999999995,0.4059000000000008 0.22829999999999728,0.40499999999999936 0.22579999999999956,0.40169999999999995 0.22439999999999571,0.39390000000000036 0.22109999999999985,0.38750000000000107 0.2213999999999956,0.38450000000000095 0.22409999999999997,0.3835999999999995 0.2224999999999966,0.3763999999999985 0.22690000000000055,0.3725000000000005 0.22159999999999513,0.3666999999999998 0.219699999999996,0.3608999999999991 0.2213999999999956,0.3539000000000012 0.22409999999999997,0.35139999999999993 0.2237999999999971,0.34859999999999935 0.22889999999999588,0.3483999999999998 0.22999999999999687,0.34699999999999953 0.230799999999995,0.3417000000000012 0.22630000000000194,0.3396999999999988 0.22520000000000095,0.3352999999999984 0.22579999999999956,0.3305999999999987 0.22800000000000153,0.3291999999999984 0.22860000000000014,0.32340000000000124 0.23389999999999844,0.3222000000000005 0.23550000000000182,0.3194999999999997 0.23409999999999798,0.3178000000000001 0.23440000000000083,0.3133999999999997 0.23219999999999885,0.3119999999999994 0.23579999999999757,0.30609999999999893 0.24269999999999925,0.3030999999999988 0.24609999999999843,0.3033999999999981 0.24969999999999715,0.2992000000000008 0.24689999999999657,0.2945000000000011 0.24080000000000013,0.2905999999999995 0.23969999999999914,0.28420000000000023 0.24190000000000111,0.27810000000000024 0.24799999999999756,0.27529999999999966 0.24660000000000082,0.2721999999999998 0.2494000000000014,0.27000000000000135 0.24909999999999854,0.26449999999999996 0.2513000000000005,0.26250000000000107 0.25,0.2544999999999984 0.25,0.2480999999999991 0.2513000000000005,0.2469999999999981 0.2494000000000014,0.24029999999999951 0.25,0.2289000000000012 0.25499999999999545,0.22280000000000122 0.25269999999999726,0.22219999999999906 0.25329999999999586,0.21860000000000035 0.24629999999999797,0.21110000000000007 0.24609999999999843,0.20199999999999996 0.24109999999999587,0.1974999999999998 0.24139999999999873,0.19390000000000107 0.22999999999999687,0.1867000000000001 0.22769999999999868,0.18229999999999968 0.22220000000000084,0.1800000000000015 0.221899999999998,0.17730000000000068 0.219699999999996,0.1775000000000002 0.21880000000000166,0.1747999999999994 0.21329999999999671,0.1725000000000012 0.21189999999999998,0.16919999999999824 0.2079999999999984,0.1684000000000001 0.20660000000000167,0.16389999999999993 0.2027000000000001,0.16199999999999903 0.20299999999999585,0.16029999999999944 0.1980000000000004,0.1598000000000006 0.19579999999999842,0.15610000000000035 0.19610000000000127,0.15000000000000036 "></polygon><polygon points="0.022500000000000853,0.33779999999999966 0.022199999999998,0.33420000000000094 0.01769999999999783,0.33560000000000123 0.01999999999999602,0.33860000000000134 0.022500000000000853,0.33779999999999966 "></polygon><polygon points="0.5463999999999984,0.038600000000000634 0.5418999999999983,0.036099999999999355 0.5304999999999964,0.03500000000000014 0.5274999999999963,0.038399999999999324 0.5218999999999951,0.038600000000000634 0.5180000000000007,0.04139999999999944 0.5071999999999974,0.043400000000000105 0.5026999999999973,0.0472999999999999 0.49329999999999785,0.04839999999999911 0.49159999999999826,0.0519999999999996 0.48639999999999617,0.056100000000000705 0.4835999999999956,0.06390000000000029 0.4782999999999973,0.06840000000000046 0.48109999999999786,0.07169999999999987 0.48109999999999786,0.07479999999999976 0.47630000000000194,0.08670000000000044 0.4726999999999961,0.1095000000000006 0.4872000000000014,0.1181000000000001 0.49049999999999727,0.12170000000000059 0.49219999999999686,0.13310000000000066 0.4913999999999987,0.14450000000000074 0.5018999999999991,0.14669999999999916 0.5041000000000011,0.15090000000000003 0.5037999999999982,0.15610000000000035 0.5060999999999964,0.15559999999999974 0.5058000000000007,0.15670000000000073 0.5088000000000008,0.15729999999999933 0.5124999999999957,0.1659000000000006 0.518899999999995,0.17059999999999853 0.5193999999999974,0.1725000000000012 0.5285999999999973,0.17219999999999835 0.5319000000000003,0.1733999999999991 0.5340999999999951,0.17669999999999852 0.5349999999999966,0.1733999999999991 0.5366,0.1747999999999994 0.5368999999999957,0.1728000000000005 0.543299999999995,0.17169999999999952 0.5490999999999957,0.16859999999999964 0.5579999999999998,0.16109999999999935 0.5602000000000018,0.16199999999999903 0.561399999999999,0.16000000000000014 0.5629999999999953,0.16220000000000034 0.5629999999999953,0.15920000000000023 0.5683000000000007,0.1598000000000006 0.5674999999999955,0.15559999999999974 0.5707999999999984,0.15729999999999933 0.5711000000000013,0.15479999999999983 0.5777000000000001,0.15390000000000015 0.5775000000000006,0.15090000000000003 0.5801999999999978,0.14949999999999974 0.5786000000000016,0.14530000000000065 0.5810999999999993,0.14559999999999995 0.5796999999999954,0.14230000000000054 0.5807999999999964,0.13949999999999996 0.5829999999999984,0.13840000000000074 0.5833000000000013,0.136099999999999 0.5874999999999986,0.13669999999999938 0.5854999999999961,0.13310000000000066 0.5914000000000001,0.13090000000000046 0.5927000000000007,0.12560000000000038 0.6010999999999953,0.1227999999999998 0.6099999999999994,0.11389999999999922 0.6137999999999977,0.09980000000000011 0.6152000000000015,0.09890000000000043 0.6132999999999953,0.09500000000000064 0.6141000000000005,0.09089999999999954 0.6122000000000014,0.08339999999999925 0.605799999999995,0.06920000000000037 0.5927000000000007,0.06390000000000029 0.589100000000002,0.057800000000000296 0.5683000000000007,0.04309999999999903 0.5610999999999962,0.040599999999999525 0.5463999999999984,0.038600000000000634 "></polygon><polygon points="0.7001999999999953,0.34089999999999954 0.7032999999999987,0.34030000000000094 0.7032999999999987,0.33839999999999826 0.6907999999999959,0.3352999999999984 0.6807999999999979,0.33750000000000036 0.6794000000000011,0.3396999999999988 0.6811000000000007,0.3420000000000005 0.6835999999999984,0.34089999999999954 0.6916000000000011,0.3417000000000012 0.6918999999999969,0.34030000000000094 0.6982999999999961,0.3431000000000015 0.7001999999999953,0.34249999999999936 0.7001999999999953,0.34089999999999954 "></polygon><polygon points="0.2201999999999984,0.009800000000000253 0.2265999999999977,0.0038999999999997925 0.22439999999999571,0.0 0.21130000000000138,0.0045000000000001705 0.21859999999999502,0.011400000000000077 0.2201999999999984,0.009800000000000253 "></polygon><polygon points="0.23910000000000053,0.051399999999999224 0.24020000000000152,0.0517000000000003 0.23910000000000053,0.0497999999999994 0.24020000000000152,0.04809999999999981 0.24159999999999826,0.04860000000000042 0.24190000000000111,0.04669999999999952 0.23879999999999768,0.041100000000000136 0.24139999999999873,0.03979999999999961 0.244099999999996,0.04449999999999932 0.24389999999999645,0.03999999999999915 0.23879999999999768,0.036099999999999355 0.232999999999997,0.03449999999999953 0.23109999999999786,0.027499999999999858 0.23409999999999798,0.026099999999999568 0.231899999999996,0.02340000000000053 0.22970000000000113,0.023899999999999366 0.2301999999999964,0.025600000000000733 0.22359999999999758,0.025000000000000355 0.22220000000000084,0.027300000000000324 0.21750000000000114,0.020899999999999253 0.209699999999998,0.022800000000000153 0.20720000000000027,0.026099999999999568 0.2032999999999987,0.024699999999999278 0.20469999999999544,0.02859999999999907 0.20939999999999515,0.02859999999999907 0.210799999999999,0.03420000000000023 0.2126999999999981,0.03219999999999956 0.21799999999999642,0.03219999999999956 0.21999999999999886,0.03449999999999953 0.22220000000000084,0.03279999999999994 0.22579999999999956,0.03640000000000043 0.22439999999999571,0.03810000000000002 0.22439999999999571,0.043400000000000105 0.22749999999999915,0.04839999999999911 0.22999999999999687,0.0495000000000001 0.230799999999995,0.04449999999999932 0.23270000000000124,0.042299999999999116 0.23610000000000042,0.05250000000000021 0.23910000000000053,0.051399999999999224 "></polygon><polygon points="0.26889999999999503,0.38590000000000124 0.2693999999999974,0.3838999999999988 0.2740999999999971,0.3841999999999981 0.2757999999999967,0.3817000000000004 0.26610000000000156,0.3824999999999985 0.26659999999999684,0.38780000000000037 0.26889999999999503,0.38590000000000124 "></polygon><polygon points="0.7072000000000003,0.34749999999999837 0.7055000000000007,0.34719999999999906 0.7046999999999954,0.34449999999999825 0.6957999999999984,0.34500000000000064 0.696399999999997,0.34670000000000023 0.7038000000000011,0.3481000000000005 0.7043999999999997,0.3498000000000001 0.706399999999995,0.34999999999999964 0.7072000000000003,0.34749999999999837 "></polygon><polygon points="0.8027000000000015,0.5166999999999984 0.802500000000002,0.5149999999999988 0.8057999999999979,0.5135999999999985 0.8044000000000011,0.5121999999999982 0.8063999999999965,0.5109000000000012 0.8051999999999992,0.5085999999999995 0.8072000000000017,0.5088999999999988 0.8074999999999974,0.5064000000000011 0.8091000000000008,0.507299999999999 0.807699999999997,0.5053000000000001 0.8099999999999952,0.503400000000001 0.8091000000000008,0.5008999999999997 0.8072000000000017,0.5010999999999992 0.805499999999995,0.4986000000000015 0.8033000000000001,0.4994999999999994 0.8012999999999977,0.4963999999999995 0.8001999999999967,0.4975000000000005 0.7974999999999994,0.4963999999999995 0.7971999999999966,0.4980999999999991 0.796599999999998,0.4980999999999991 0.7963999999999984,0.4947999999999997 0.7907999999999973,0.4959000000000007 0.7824999999999989,0.4919999999999991 0.7744,0.4867000000000008 0.7626999999999953,0.4759000000000011 0.7443999999999988,0.47110000000000163 0.740000000000002,0.47140000000000093 0.7376999999999967,0.4698000000000011 0.7349999999999994,0.47089999999999854 0.7335999999999956,0.46779999999999866 0.7304999999999993,0.4684000000000008 0.7290999999999954,0.4670000000000005 0.7293999999999983,0.46500000000000163 0.719699999999996,0.46419999999999995 0.7165999999999997,0.46279999999999966 0.7147000000000006,0.45809999999999995 0.7124999999999986,0.4585999999999988 0.7113000000000014,0.46309999999999896 0.7135999999999996,0.4684000000000008 0.7115999999999971,0.47140000000000093 0.7165999999999997,0.47499999999999964 0.719699999999996,0.48139999999999894 0.7235999999999976,0.4803000000000015 0.7325000000000017,0.48139999999999894 0.7321999999999989,0.4855999999999998 0.7335999999999956,0.485100000000001 0.7335999999999956,0.48719999999999963 0.7361000000000004,0.4891999999999985 0.7379999999999995,0.4895000000000014 0.7396999999999991,0.48719999999999963 0.7454999999999998,0.4888999999999992 0.7466000000000008,0.4911000000000012 0.75,0.4905999999999988 0.7532999999999959,0.4956000000000014 0.7590999999999966,0.4966999999999988 0.761099999999999,0.5008999999999997 0.7638999999999996,0.5001000000000015 0.7674999999999983,0.503400000000001 0.7744,0.5060999999999982 0.7746999999999957,0.5078000000000014 0.7790999999999997,0.5055999999999994 0.7789000000000001,0.5088999999999988 0.7813000000000017,0.5084 0.7826999999999984,0.5111000000000008 0.7860999999999976,0.5128000000000004 0.7901999999999987,0.5119999999999987 0.793299999999995,0.5175000000000001 0.795499999999997,0.5163999999999991 0.7990999999999957,0.5189000000000004 0.8029999999999973,0.5189000000000004 0.8027000000000015,0.5166999999999984 "></polygon><polygon points="0.22299999999999898,0.5220000000000002 0.230799999999995,0.5189000000000004 0.2301999999999964,0.5142000000000007 0.2271999999999963,0.5128000000000004 0.21859999999999502,0.5149999999999988 0.2160999999999973,0.5105999999999984 0.21359999999999957,0.5099999999999998 0.2126999999999981,0.5114000000000001 0.21829999999999927,0.5180999999999987 0.21829999999999927,0.5217000000000009 0.219699999999996,0.5231000000000012 0.22299999999999898,0.5220000000000002 "></polygon><polygon points="0.029699999999998283,0.5386000000000006 0.033299999999997,0.5370000000000008 0.03249999999999886,0.5319999999999983 0.027999999999998693,0.5344999999999995 0.02769999999999584,0.5394999999999985 0.029699999999998283,0.5386000000000006 "></polygon><polygon points="0.1599999999999966,0.5053000000000001 0.16019999999999612,0.5041999999999991 0.157199999999996,0.5050000000000008 0.15859999999999985,0.5060999999999982 0.1599999999999966,0.5053000000000001 "></polygon><polygon points="0.13629999999999853,0.5139000000000014 0.13769999999999527,0.5125000000000011 0.13519999999999754,0.5109000000000012 0.13190000000000168,0.5116999999999994 0.13299999999999557,0.5142000000000007 0.13629999999999853,0.5139000000000014 "></polygon><polygon points="0.12639999999999674,0.5159000000000002 0.12939999999999685,0.5153000000000016 0.1296999999999997,0.5145 0.12769999999999726,0.5135999999999985 0.12409999999999854,0.5153000000000016 0.12469999999999715,0.5172000000000008 0.12639999999999674,0.5159000000000002 "></polygon><polygon points="0.285499999999999,0.5184000000000015 0.28659999999999997,0.5172000000000008 0.28470000000000084,0.5163999999999991 0.27939999999999543,0.5191999999999997 0.28470000000000084,0.5200000000000014 0.285499999999999,0.5184000000000015 "></polygon>
    </svg>
    