
    <svg width="0.3305" height="0.14580000000000126" xmlns="http://www.w3.org/2000/svg" xmlns:xlink="http://www.w3.org/1999/xlink" style="transform: scale(1, -1)">
        <polygon points="0.09520000000000017,0.03669999999999618 0.09270000000000023,0.035799999999994725 0.09190000000000031,0.03779999999999717 0.09580000000000011,0.03779999999999717 0.09520000000000017,0.03669999999999618 "></polygon><polygon points="0.09330000000000016,0.04719999999999658 0.08970000000000011,0.04609999999999559 0.08660000000000023,0.04279999999999973 0.08939999999999992,0.038599999999995305 0.08660000000000023,0.036899999999995714 0.08800000000000008,0.033299999999997 0.08630000000000004,0.030799999999999272 0.09190000000000031,0.027999999999998693 0.09109999999999996,0.025500000000000966 0.09220000000000006,0.024399999999999977 0.09220000000000006,0.02109999999999701 0.09020000000000028,0.021399999999999864 0.08689999999999998,0.017800000000001148 0.08190000000000008,0.01910000000000167 0.08360000000000012,0.021399999999999864 0.08079999999999998,0.021399999999999864 0.07909999999999995,0.02389999999999759 0.07500000000000018,0.024099999999997124 0.07270000000000021,0.02109999999999701 0.0658000000000003,0.02109999999999701 0.06519999999999992,0.023299999999998988 0.06720000000000015,0.024399999999999977 0.0647000000000002,0.027200000000000557 0.06660000000000021,0.027200000000000557 0.06610000000000005,0.029199999999995896 0.07020000000000026,0.030299999999996885 0.0674999999999999,0.034199999999998454 0.06440000000000001,0.0338999999999956 0.06380000000000008,0.03609999999999758 0.0613999999999999,0.03719999999999857 0.05469999999999997,0.0379999999999967 0.053600000000000314,0.03719999999999857 0.05469999999999997,0.03499999999999659 0.0512999999999999,0.033299999999997 0.0512999999999999,0.030799999999999272 0.04800000000000004,0.03159999999999741 0.04519999999999991,0.027999999999998693 0.0405000000000002,0.030000000000001137 0.03080000000000016,0.026099999999999568 0.02330000000000032,0.027999999999998693 0.018600000000000172,0.03249999999999886 0.015500000000000291,0.030299999999996885 0.012700000000000156,0.033299999999997 0.010499999999999954,0.033299999999997 0.010000000000000231,0.03499999999999659 0.014699999999999935,0.03779999999999717 0.018899999999999917,0.03779999999999717 0.016900000000000137,0.04169999999999874 0.02220000000000022,0.041100000000000136 0.0264000000000002,0.04359999999999786 0.026100000000000012,0.046599999999997976 0.028000000000000025,0.046599999999997976 0.026899999999999924,0.04779999999999518 0.028300000000000214,0.04749999999999943 0.028300000000000214,0.051400000000001 0.03049999999999997,0.05189999999999628 0.03160000000000007,0.055299999999995464 0.031099999999999905,0.062199999999997146 0.028000000000000025,0.06749999999999545 0.02660000000000018,0.07469999999999999 0.02300000000000013,0.07779999999999632 0.021600000000000286,0.08139999999999503 0.01440000000000019,0.08719999999999573 0.01440000000000019,0.08970000000000056 0.009700000000000042,0.09299999999999642 0.0033000000000003027,0.0916999999999959 0.0038000000000000256,0.09389999999999787 0.0024999999999999467,0.09469999999999601 0.0038000000000000256,0.0963999999999956 0.0,0.10159999999999769 0.000500000000000167,0.10579999999999501 0.007700000000000262,0.11169999999999902 0.013800000000000257,0.11169999999999902 0.02220000000000022,0.10889999999999844 0.023800000000000043,0.10940000000000083 0.024399999999999977,0.11299999999999955 0.028900000000000148,0.11439999999999628 0.029100000000000126,0.11169999999999902 0.0416000000000003,0.106899999999996 0.043299999999999894,0.1075000000000017 0.05380000000000029,0.10029999999999717 0.056599999999999984,0.10159999999999769 0.05970000000000031,0.10079999999999956 0.06050000000000022,0.1027999999999949 0.07160000000000011,0.10159999999999769 0.07469999999999999,0.10389999999999588 0.07970000000000033,0.10329999999999728 0.08079999999999998,0.10579999999999501 0.08860000000000001,0.11110000000000042 0.0950000000000002,0.11110000000000042 0.09440000000000026,0.11549999999999727 0.09909999999999997,0.11280000000000001 0.1030000000000002,0.11529999999999774 0.1091000000000002,0.11220000000000141 0.11050000000000004,0.10909999999999798 0.11799999999999988,0.106899999999996 0.12550000000000017,0.10779999999999745 0.12970000000000015,0.10669999999999646 0.13359999999999994,0.10799999999999699 0.13580000000000014,0.10669999999999646 0.13580000000000014,0.10419999999999874 0.1383000000000001,0.10329999999999728 0.14300000000000024,0.10549999999999926 0.1464000000000003,0.10329999999999728 0.14939999999999998,0.10329999999999728 0.15080000000000027,0.10499999999999687 0.1501999999999999,0.10719999999999885 0.1522000000000001,0.10829999999999984 0.16270000000000007,0.1075000000000017 0.1644000000000001,0.10660000000000025 0.1655000000000002,0.1021999999999963 0.17110000000000003,0.1004999999999967 0.1705000000000001,0.09829999999999472 0.17470000000000008,0.09359999999999502 0.17390000000000017,0.09140000000000015 0.17720000000000002,0.09189999999999543 0.18219999999999992,0.0893999999999977 0.18690000000000007,0.09029999999999916 0.1875,0.09189999999999543 0.1947000000000001,0.09219999999999828 0.20389999999999997,0.09720000000000084 0.2077,0.09299999999999642 0.2124999999999999,0.09329999999999927 0.21220000000000017,0.08919999999999817 0.21750000000000025,0.08919999999999817 0.21799999999999997,0.08780000000000143 0.22049999999999992,0.08829999999999671 0.2258,0.08549999999999613 0.23160000000000025,0.08639999999999759 0.23019999999999996,0.08389999999999986 0.2319,0.08299999999999841 0.23249999999999993,0.07969999999999544 0.24520000000000008,0.07529999999999859 0.2413000000000003,0.07499999999999574 0.23580000000000023,0.07719999999999771 0.23470000000000013,0.07580000000000098 0.23130000000000006,0.07609999999999673 0.22890000000000033,0.07410000000000139 0.22940000000000005,0.07219999999999516 0.2258,0.07139999999999702 0.22999999999999998,0.06499999999999773 0.23220000000000018,0.06499999999999773 0.23110000000000008,0.062199999999997146 0.23550000000000004,0.0619000000000014 0.23360000000000003,0.057800000000000296 0.23720000000000008,0.057200000000001694 0.2387999999999999,0.055299999999995464 0.238,0.051400000000001 0.23360000000000003,0.04919999999999902 0.23220000000000018,0.05030000000000001 0.2338,0.05189999999999628 0.2269000000000001,0.05030000000000001 0.22160000000000002,0.04189999999999827 0.2258,0.022500000000000853 0.22890000000000033,0.020299999999998875 0.2265999999999999,0.01719999999999544 0.2250000000000001,0.018000000000000682 0.22160000000000002,0.01549999999999585 0.20860000000000012,0.02109999999999701 0.1988000000000003,0.021899999999995146 0.1936,0.01910000000000167 0.18769999999999998,0.018899999999995032 0.18500000000000005,0.015299999999996317 0.1788000000000003,0.015299999999996317 0.15880000000000027,0.02939999999999543 0.1499999999999999,0.028900000000000148 0.14749999999999996,0.021399999999999864 0.14749999999999996,0.022999999999996135 0.14440000000000008,0.022500000000000853 0.14360000000000017,0.024099999999997124 0.13880000000000026,0.02499999999999858 0.14080000000000004,0.022199999999998 0.14500000000000002,0.020800000000001262 0.14190000000000014,0.020299999999998875 0.1372,0.025300000000001432 0.1405000000000003,0.025799999999996714 0.1383000000000001,0.026899999999997704 0.1402000000000001,0.029199999999995896 0.1372,0.028900000000000148 0.13549999999999995,0.03159999999999741 0.1360999999999999,0.03640000000000043 0.1379999999999999,0.0379999999999967 0.13660000000000005,0.04169999999999874 0.12020000000000008,0.04889999999999617 0.10660000000000025,0.04999999999999716 0.09330000000000016,0.04719999999999658 "></polygon><polygon points="0.20829999999999993,0.001100000000000989 0.20720000000000027,0.0 0.20360000000000023,0.0016999999999995907 0.20750000000000002,0.0018999999999991246 0.20829999999999993,0.001100000000000989 "></polygon><polygon points="0.1318999999999999,0.02669999999999817 0.13129999999999997,0.025300000000001432 0.12860000000000005,0.026099999999999568 0.133,0.027499999999996305 0.133,0.026099999999999568 0.1318999999999999,0.02669999999999817 "></polygon><polygon points="0.1322000000000001,0.028900000000000148 0.12970000000000015,0.027499999999996305 0.1272000000000002,0.02779999999999916 0.1299999999999999,0.031399999999997874 0.133,0.03219999999999601 0.1322000000000001,0.028900000000000148 "></polygon><polygon points="0.3289000000000002,0.13969999999999771 0.3305,0.13639999999999475 0.3277000000000001,0.134999999999998 0.3275000000000001,0.1407999999999987 0.3289000000000002,0.13969999999999771 "></polygon><polygon points="0.3264,0.14499999999999602 0.3277000000000001,0.14300000000000068 0.32330000000000014,0.14439999999999742 0.32410000000000005,0.14580000000000126 0.3264,0.14499999999999602 "></polygon>
    </svg>
    