
    <svg width="4.344500000000004" height="4.184800000000003" xmlns="http://www.w3.org/2000/svg" xmlns:xlink="http://www.w3.org/1999/xlink" style="transform: scale(1, -1)">
        <polygon points="0.04410000000000025,0.42180000000000106 0.0619000000000014,0.4333000000000027 0.07509999999999906,0.44730000000000203 0.07480000000000331,0.46680000000000277 0.07220000000000226,0.4878999999999998 0.07209999999999894,0.5215999999999994 0.08919999999999817,0.5836000000000006 0.09210000000000207,0.6037999999999997 0.08919999999999817,0.6187000000000005 0.09369999999999834,0.6375000000000028 0.1232000000000042,0.6889000000000003 0.11999999999999744,0.7671000000000028 0.1407999999999987,0.8392000000000017 0.21820000000000306,0.9357000000000006 0.1869000000000014,1.0561000000000007 0.20589999999999975,1.0928000000000004 0.20250000000000057,1.1128 0.20889999999999986,1.1300000000000026 0.23109999999999786,1.1513000000000027 0.2342999999999975,1.1631999999999998 0.2289999999999992,1.1788000000000025 0.19440000000000168,1.2352000000000025 0.19839999999999947,1.2488000000000028 0.21220000000000283,1.265900000000002 0.2190999999999974,1.2837999999999994 0.24170000000000158,1.374600000000001 0.2441000000000031,1.3911000000000016 0.27360000000000184,1.4404000000000003 0.2884999999999991,1.452300000000001 0.2937999999999974,1.4746000000000024 0.3183000000000007,1.513300000000001 0.3323999999999998,1.5417000000000023 0.3325000000000031,1.5824999999999996 0.34130000000000393,1.6033000000000008 0.3562000000000012,1.6189 0.37539999999999907,1.6248000000000005 0.38049999999999784,1.6449999999999996 0.3755000000000024,1.6615000000000002 0.37579999999999814,1.6796000000000006 0.4025000000000034,1.7305000000000028 0.44010000000000105,1.7516999999999996 0.4573999999999998,1.7653999999999996 0.4575000000000031,1.7861000000000011 0.4493000000000009,1.8056000000000019 0.4468999999999994,1.8217999999999996 0.4510000000000005,1.8422000000000018 0.48920000000000385,1.8930000000000007 0.502200000000002,1.9370000000000012 0.5011999999999972,1.9526000000000003 0.49620000000000175,1.9734000000000016 0.4881999999999991,1.9881000000000029 0.44360000000000355,2.0397 0.4322000000000017,2.0610999999999997 0.43730000000000047,2.0812000000000026 0.4975000000000023,2.175900000000002 0.5138999999999996,2.2162000000000006 0.5174999999999983,2.2363999999999997 0.5187000000000026,2.3462999999999994 0.5206999999999979,2.390900000000002 0.5418999999999983,2.4529999999999994 0.5726999999999975,2.536200000000001 0.5981000000000023,2.5751000000000026 0.585799999999999,2.6335000000000015 0.5936999999999983,2.6525 0.5831999999999979,2.6667000000000023 0.5930000000000035,2.6830999999999996 0.5756000000000014,2.6926000000000023 0.565800000000003,2.7347 0.5838999999999999,2.749600000000001 0.590200000000003,2.7851999999999997 0.5735000000000028,2.816600000000001 0.5827999999999989,2.8282000000000025 0.5812000000000026,2.835000000000001 0.5701999999999998,2.845800000000004 0.5679999999999978,2.8888000000000034 0.5763000000000034,2.9029000000000025 0.579500000000003,2.9206000000000003 0.5936000000000021,2.9369000000000014 0.5974000000000004,2.9480000000000004 0.6002999999999972,2.9746999999999986 0.6067000000000036,2.999600000000001 0.6150999999999982,3.012900000000002 0.6178999999999988,3.022600000000004 0.6167999999999978,3.0341000000000022 0.6139999999999972,3.0420000000000016 0.6131000000000029,3.058 0.6092000000000013,3.0722999999999985 0.6128,3.0944000000000003 0.6058999999999983,3.1088999999999984 0.6062000000000012,3.1159999999999997 0.6111000000000004,3.127600000000001 0.6032000000000011,3.145400000000002 0.6039999999999992,3.153500000000001 0.6071999999999989,3.160499999999999 0.6099999999999994,3.1754000000000033 0.6075999999999979,3.1813000000000002 0.600200000000001,3.1891000000000034 0.6021000000000001,3.2070000000000007 0.6103000000000023,3.206400000000002 0.6007000000000033,3.220100000000002 0.601700000000001,3.2216999999999985 0.6092000000000013,3.2235000000000014 0.6110000000000042,3.2272999999999996 0.6081000000000003,3.2498000000000005 0.6197999999999979,3.253 0.6173000000000002,3.2661999999999978 0.6206999999999994,3.268799999999999 0.6255999999999986,3.2689999999999984 0.6281000000000034,3.2738999999999976 0.626100000000001,3.2772000000000006 0.6178000000000026,3.2805999999999997 0.6161999999999992,3.2852000000000032 0.6171000000000006,3.2901999999999987 0.629400000000004,3.309100000000001 0.6306000000000012,3.3141999999999996 0.628700000000002,3.316900000000004 0.621299999999998,3.3194000000000017 0.6148999999999987,3.331800000000001 0.6084000000000032,3.331699999999998 0.6037000000000035,3.334699999999998 0.6090000000000018,3.341000000000001 0.6191000000000031,3.342800000000004 0.621299999999998,3.3460000000000036 0.6146000000000029,3.3552000000000035 0.613900000000001,3.3612000000000037 0.616100000000003,3.3622000000000014 0.6219000000000037,3.3588999999999984 0.6265000000000001,3.3588000000000022 0.628300000000003,3.368299999999998 0.638300000000001,3.3680999999999983 0.6392999999999986,3.370200000000004 0.6289999999999978,3.3881999999999977 0.6296999999999997,3.3977000000000004 0.6343999999999994,3.4070000000000036 0.6324000000000041,3.4132000000000033 0.625,3.4166000000000025 0.6227000000000018,3.421199999999999 0.6242000000000019,3.4361000000000033 0.6210999999999984,3.4391999999999996 0.622399999999999,3.4495000000000005 0.6368999999999971,3.4588000000000036 0.6456999999999979,3.4609000000000023 0.6480999999999995,3.463300000000004 0.6477000000000004,3.4694000000000003 0.6589999999999989,3.4731999999999985 0.6570999999999998,3.4872999999999976 0.6636000000000024,3.4935000000000045 0.6918000000000006,3.5039000000000016 0.7038000000000011,3.510400000000004 0.7285000000000039,3.5119000000000042 0.7357000000000014,3.5157999999999987 0.7456000000000031,3.5183999999999997 0.7614999999999981,3.5279000000000025 0.7759,3.5401999999999987 0.7987000000000037,3.5427999999999997 0.8066000000000031,3.563900000000004 0.8115999999999985,3.5675000000000026 0.8220000000000027,3.5685000000000002 0.8438000000000017,3.5762 0.8500999999999976,3.5731000000000037 0.851700000000001,3.567700000000002 0.846899999999998,3.5593000000000004 0.8500000000000014,3.5549999999999997 0.8594000000000008,3.556200000000004 0.8626000000000005,3.5512000000000015 0.868700000000004,3.547699999999999 0.8774999999999977,3.5456000000000003 0.8836999999999975,3.5459999999999994 0.9042999999999992,3.5523000000000025 0.9207999999999998,3.5523000000000025 0.9288000000000025,3.5497000000000014 0.9436999999999998,3.541400000000003 0.9515000000000029,3.542500000000004 0.9628000000000014,3.5386999999999986 0.9731999999999985,3.5412000000000035 0.9791999999999987,3.540700000000001 0.9876000000000005,3.5343000000000018 0.9904000000000011,3.523600000000002 0.9941000000000031,3.520000000000003 1.0050999999999988,3.513600000000004 1.017000000000003,3.5135000000000005 1.025100000000002,3.5072000000000045 1.0253000000000014,3.4986000000000033 1.0150000000000006,3.490099999999998 1.0157999999999987,3.487700000000004 1.0253999999999976,3.4817000000000036 1.0360000000000014,3.4780000000000015 1.053200000000004,3.4793999999999983 1.062100000000001,3.478500000000004 1.0752999999999986,3.474499999999999 1.0786999999999978,3.4709000000000003 1.0816000000000017,3.4590999999999994 1.0812000000000026,3.447400000000002 1.077300000000001,3.4237000000000037 1.0786999999999978,3.420500000000004 1.101300000000002,3.4044000000000025 1.1128,3.392400000000002 1.126800000000003,3.365700000000004 1.1311000000000035,3.3533000000000044 1.1332000000000022,3.3344999999999985 1.1529999999999987,3.3397000000000006 1.1762000000000015,3.3404999999999987 1.207100000000004,3.338799999999999 1.220800000000004,3.3349000000000046 1.2430999999999983,3.345100000000002 1.2479999999999976,3.344999999999999 1.2601999999999975,3.3384 1.3001000000000005,3.3095 1.3385000000000034,3.2871000000000024 1.3789000000000016,3.259300000000003 1.4429999999999978,3.203800000000001 1.4521000000000015,3.1987999999999985 1.5060000000000002,3.1938999999999993 1.5226000000000042,3.1899999999999977 1.5352000000000032,3.184100000000001 1.5457000000000036,3.175699999999999 1.5630999999999986,3.1715000000000018 1.7128000000000014,3.1589000000000027 1.7345000000000041,3.155700000000003 1.7556999999999974,3.1418000000000035 1.7623999999999995,3.1417 1.7807999999999993,3.149000000000001 1.8678000000000026,3.127299999999998 1.8881999999999977,3.129100000000001 1.9316999999999993,3.1647999999999996 1.9986000000000033,3.2074 2.0760000000000005,3.249299999999998 2.5784999999999982,3.519199999999998 3.4635000000000034,3.9898000000000025 3.839199999999998,4.184800000000003 3.8603999999999985,4.122300000000003 3.8712000000000018,4.074800000000003 4.036200000000001,3.5919000000000025 4.080300000000001,3.457500000000003 4.0959,3.398600000000002 4.100099999999998,3.3603000000000023 4.0946,3.3293000000000035 4.058700000000002,3.2764000000000024 4.0518,3.250799999999998 4.052199999999999,3.2298000000000044 4.057700000000004,3.2043000000000035 4.067900000000002,3.178200000000004 4.081899999999997,3.1570000000000036 4.099000000000004,3.1441000000000017 4.123899999999999,3.1373999999999995 4.1464,3.1369000000000042 4.2413000000000025,3.1447000000000003 4.2657000000000025,3.1424999999999983 4.283799999999999,3.1369000000000042 4.306100000000001,3.121000000000002 4.331499999999998,3.0874000000000024 4.343299999999999,3.053699999999999 4.344500000000004,3.0379000000000005 4.254800000000003,2.969000000000001 4.243299999999998,2.9709000000000003 4.221600000000002,2.951999999999998 4.048700000000004,2.8171999999999997 3.7094000000000023,2.735900000000001 3.0822000000000003,2.5801000000000016 3.0264000000000024,2.5610999999999997 3.0137,2.561700000000002 3.0020000000000024,2.560200000000002 2.9136999999999986,2.5382 2.7211,2.4887000000000015 2.6824000000000012,2.4801 2.445700000000002,2.418300000000002 2.424199999999999,2.411200000000001 2.2229000000000028,2.362400000000001 2.134599999999999,2.3385 2.0486000000000004,2.3171999999999997 2.2346000000000004,2.133700000000001 2.2822999999999993,2.0950000000000024 2.3095,2.0615000000000023 2.3196999999999974,2.0522000000000027 2.3252000000000024,2.0443999999999996 2.3673,2.0016999999999996 2.372399999999999,1.9948000000000015 2.433500000000002,1.9383000000000017 2.5016000000000034,1.8666000000000018 2.5604000000000013,1.8096999999999994 2.588700000000003,1.7776999999999994 2.6165999999999983,1.753700000000002 2.6387,1.7299000000000007 2.676000000000002,1.694700000000001 2.9459000000000017,1.4230000000000018 2.975200000000001,1.392900000000001 3.0039000000000016,1.354300000000002 3.039500000000004,1.3172999999999995 2.7079999999999984,1.1492000000000004 2.6788000000000025,1.0933000000000028 2.563200000000002,0.8591000000000015 2.5478999999999985,0.8174000000000028 2.2494999999999976,0.7645000000000017 2.1689000000000007,0.7480000000000011 2.1655000000000015,0.7488000000000028 2.1646,0.7474000000000025 2.143100000000004,0.7455999999999996 2.0996000000000024,0.7359000000000009 2.0970999999999975,0.7366000000000028 2.0919999999999987,0.7334999999999994 2.0797000000000025,0.7337000000000025 2.0426,0.7271999999999998 1.9074000000000026,0.7022000000000013 1.8393000000000015,0.6875 1.8344000000000023,0.6881000000000022 1.827300000000001,0.6844999999999999 1.8181999999999974,0.6686000000000014 1.8072000000000017,0.6544000000000025 1.8023000000000025,0.6371000000000002 1.778500000000001,0.6056000000000026 1.7233000000000018,0.5660000000000025 1.7101000000000042,0.5443999999999996 1.6865000000000023,0.5110000000000028 1.6861999999999995,0.5040000000000013 1.681600000000003,0.49040000000000106 1.6668999999999983,0.4535000000000018 1.6584000000000003,0.44839999999999947 1.592800000000004,0.3802000000000021 1.5908999999999978,0.3771000000000022 1.5897000000000006,0.3628 1.5696999999999974,0.33089999999999975 1.5347000000000008,0.30189999999999984 1.5165000000000006,0.2809000000000026 1.5024999999999977,0.26910000000000167 1.4917000000000016,0.2469999999999999 1.4795000000000016,0.23730000000000118 1.4731999999999985,0.2366000000000028 1.4656999999999982,0.23000000000000043 1.4517000000000024,0.2223000000000006 1.4393999999999991,0.21799999999999997 1.4292000000000016,0.21940000000000026 1.4132999999999996,0.21420000000000172 1.3841000000000037,0.19669999999999987 1.3736999999999995,0.18970000000000198 1.3526999999999987,0.16860000000000142 1.2920999999999978,0.12930000000000064 1.2550000000000026,0.102800000000002 1.1942000000000021,0.04860000000000042 1.1405999999999992,0.019200000000001438 1.1251999999999995,0.00560000000000116 1.1152000000000015,0.0 1.0448000000000022,0.011700000000001154 1.0120000000000005,0.014800000000001035 0.9506999999999977,0.026600000000001955 0.8622999999999976,0.036599999999999966 0.7794999999999987,0.05460000000000065 0.177500000000002,0.1484000000000023 0.13119999999999976,0.1559000000000026 0.11659999999999826,0.16070000000000206 0.09550000000000125,0.16100000000000136 0.0045000000000001705,0.1753 0.009199999999999875,0.1781000000000006 0.008900000000004127,0.17980000000000018 0.0031000000000034333,0.18400000000000105 0.0009000000000014552,0.18149999999999977 0.0,0.18400000000000105 0.00840000000000174,0.18870000000000076 0.0045000000000001705,0.19400000000000261 0.006700000000002149,0.19930000000000092 0.010899999999999466,0.20310000000000272 0.006100000000003547,0.21030000000000015 0.006999999999997897,0.21509999999999962 0.01279999999999859,0.22010000000000218 0.018599999999999284,0.2225999999999999 0.020299999999998875,0.22650000000000148 0.014800000000001035,0.23700000000000188 0.017000000000003013,0.24920000000000186 0.01279999999999859,0.25450000000000017 0.00999999999999801,0.26370000000000005 0.013600000000003831,0.26670000000000016 0.01389999999999958,0.27009999999999934 0.018599999999999284,0.27560000000000073 0.01670000000000016,0.2795000000000023 0.017000000000003013,0.2870000000000026 0.022500000000000853,0.2942 0.021999999999998465,0.2970000000000006 0.025900000000000034,0.3001000000000005 0.02779999999999916,0.30700000000000216 0.034199999999998454,0.31700000000000017 0.033099999999997465,0.3202999999999996 0.03810000000000002,0.33370000000000033 0.04339999999999833,0.3348000000000013 0.04310000000000258,0.3426000000000009 0.04059999999999775,0.34479999999999933 0.040300000000002,0.3473000000000006 0.02230000000000132,0.35900000000000176 0.00840000000000174,0.36370000000000147 0.018100000000004002,0.3876000000000026 0.028900000000000148,0.4064000000000014 0.04410000000000025,0.42180000000000106 "></polygon>
    </svg>
    