
    <svg width="0.392199999999999" height="0.29639999999999844" xmlns="http://www.w3.org/2000/svg" xmlns:xlink="http://www.w3.org/1999/xlink" style="transform: scale(1, -1)">
        <polygon points="0.35999999999999943,0.04359999999999786 0.3569999999999993,0.04359999999999786 0.35389999999999944,0.04690000000000083 0.34639999999999915,0.04609999999999559 0.34609999999999985,0.043900000000000716 0.34830000000000005,0.043900000000000716 0.34919999999999973,0.040500000000001535 0.34389999999999965,0.039400000000000546 0.34609999999999985,0.034099999999995134 0.35029999999999895,0.03609999999999758 0.35559999999999903,0.031399999999997874 0.3581000000000003,0.031100000000002126 0.35469999999999935,0.03529999999999944 0.35639999999999894,0.03609999999999758 0.361699999999999,0.0338999999999956 0.36249999999999893,0.031100000000002126 0.3655999999999988,0.03219999999999601 0.3613999999999997,0.027999999999998693 0.3594999999999988,0.030000000000001137 0.35859999999999914,0.025500000000000966 0.3550000000000004,0.0227999999999966 0.34719999999999906,0.019700000000000273 0.32779999999999987,0.02049999999999841 0.3132999999999999,0.026600000000001955 0.3010999999999999,0.027200000000000557 0.2980999999999998,0.02909999999999968 0.2903000000000002,0.02779999999999916 0.28500000000000014,0.02939999999999543 0.28139999999999965,0.03249999999999886 0.27280000000000015,0.034099999999995134 0.26750000000000007,0.03249999999999886 0.2563999999999993,0.036899999999995714 0.2538999999999998,0.03609999999999758 0.2494999999999994,0.039699999999996294 0.23329999999999984,0.04159999999999542 0.23059999999999903,0.04410000000000025 0.23000000000000043,0.04749999999999943 0.21950000000000003,0.04999999999999716 0.21829999999999927,0.04889999999999617 0.21579999999999977,0.051600000000000534 0.21250000000000036,0.051400000000001 0.21110000000000007,0.05679999999999552 0.20040000000000013,0.0619000000000014 0.19559999999999889,0.062300000000000466 0.1936,0.06479999999999819 0.1875,0.06739999999999924 0.18440000000000012,0.07079999999999842 0.17769999999999975,0.07390000000000185 0.176499999999999,0.07679999999999865 0.17249999999999943,0.07969999999999544 0.16779999999999973,0.08109999999999928 0.16949999999999932,0.08389999999999986 0.16279999999999895,0.0840999999999994 0.15719999999999956,0.08719999999999573 0.15109999999999957,0.09409999999999741 0.15219999999999878,0.09969999999999857 0.14939999999999998,0.10660000000000025 0.14390000000000036,0.11139999999999617 0.14579999999999949,0.11639999999999873 0.14329999999999998,0.11999999999999744 0.14359999999999928,0.12109999999999843 0.15610000000000035,0.1203000000000003 0.15419999999999945,0.12160000000000082 0.15329999999999977,0.12529999999999575 0.14860000000000007,0.12769999999999726 0.14780000000000015,0.13299999999999557 0.14969999999999928,0.13749999999999574 0.15439999999999898,0.1372 0.15700000000000003,0.1343999999999994 0.15920000000000023,0.134999999999998 0.15920000000000023,0.14000000000000057 0.15499999999999936,0.13969999999999771 0.15419999999999945,0.14219999999999544 0.16029999999999944,0.14269999999999783 0.15829999999999878,0.14470000000000027 0.16029999999999944,0.14750000000000085 0.15530000000000044,0.1477999999999966 0.15329999999999977,0.15050000000000097 0.14559999999999995,0.1518999999999977 0.14390000000000036,0.15579999999999927 0.14719999999999978,0.15909999999999513 0.15139999999999887,0.15909999999999513 0.15329999999999977,0.16550000000000153 0.15669999999999895,0.16799999999999926 0.15359999999999907,0.16890000000000072 0.15279999999999916,0.17300000000000182 0.15470000000000006,0.17389999999999617 0.15059999999999896,0.17660000000000053 0.15329999999999977,0.17889999999999873 0.15169999999999995,0.18299999999999983 0.13889999999999958,0.18189999999999884 0.13419999999999987,0.18499999999999517 0.13780000000000037,0.1916000000000011 0.14279999999999937,0.19299999999999784 0.14559999999999995,0.19719999999999516 0.14860000000000007,0.197499999999998 0.14889999999999937,0.19890000000000185 0.14279999999999937,0.20049999999999812 0.14359999999999928,0.20409999999999684 0.14529999999999887,0.2043999999999997 0.14419999999999966,0.20250000000000057 0.14529999999999887,0.20139999999999958 0.15530000000000044,0.20049999999999812 0.15809999999999924,0.2015999999999991 0.16199999999999903,0.2002999999999986 0.16169999999999973,0.20250000000000057 0.16499999999999915,0.20250000000000057 0.16699999999999982,0.20109999999999673 0.16779999999999973,0.20579999999999643 0.17469999999999963,0.2038999999999973 0.17579999999999885,0.20640000000000214 0.18029999999999902,0.20609999999999928 0.17779999999999951,0.20779999999999887 0.1775000000000002,0.21049999999999613 0.1789000000000005,0.21159999999999712 0.18249999999999922,0.21049999999999613 0.18329999999999913,0.21300000000000097 0.18810000000000038,0.2079999999999984 0.18810000000000038,0.20519999999999783 0.1919000000000004,0.2032999999999987 0.1921999999999997,0.20109999999999673 0.18029999999999902,0.197499999999998 0.18029999999999902,0.19549999999999557 0.17469999999999963,0.19140000000000157 0.16670000000000051,0.18779999999999575 0.16610000000000014,0.18439999999999657 0.16920000000000002,0.1805000000000021 0.1828000000000003,0.18189999999999884 0.1946999999999992,0.18609999999999616 0.19699999999999918,0.18249999999999744 0.20169999999999888,0.18439999999999657 0.20359999999999978,0.18249999999999744 0.21330000000000027,0.1822000000000017 0.21139999999999937,0.17969999999999686 0.21359999999999957,0.17770000000000152 0.21139999999999937,0.17499999999999716 0.21279999999999966,0.17279999999999518 0.20609999999999928,0.17279999999999518 0.20779999999999887,0.1710999999999956 0.20720000000000027,0.16910000000000025 0.2043999999999997,0.1646999999999963 0.1997,0.16189999999999571 0.1999999999999993,0.159399999999998 0.20579999999999998,0.16049999999999898 0.21419999999999995,0.16499999999999915 0.21579999999999977,0.1635999999999953 0.22390000000000043,0.1640999999999977 0.22449999999999903,0.16659999999999542 0.23219999999999885,0.16830000000000211 0.23279999999999923,0.17079999999999984 0.23579999999999934,0.17279999999999518 0.24059999999999881,0.1747000000000014 0.24579999999999913,0.1747000000000014 0.2461000000000002,0.17329999999999757 0.24220000000000041,0.17360000000000042 0.24029999999999951,0.16830000000000211 0.24080000000000013,0.16519999999999868 0.23719999999999963,0.15859999999999985 0.24029999999999951,0.16250000000000142 0.2466999999999988,0.16550000000000153 0.2483000000000004,0.16890000000000072 0.2527999999999988,0.16859999999999786 0.2567000000000004,0.16610000000000014 0.2602999999999991,0.16610000000000014 0.26559999999999917,0.15800000000000125 0.26810000000000045,0.15859999999999985 0.26750000000000007,0.16159999999999997 0.2697000000000003,0.16189999999999571 0.27139999999999986,0.15469999999999828 0.27420000000000044,0.15610000000000213 0.27639999999999887,0.1518999999999977 0.28640000000000043,0.1501999999999981 0.29110000000000014,0.15279999999999916 0.2978000000000005,0.15050000000000097 0.2980999999999998,0.14799999999999613 0.3013999999999992,0.146099999999997 0.3070000000000004,0.14499999999999602 0.3086000000000002,0.14269999999999783 0.3064,0.1407999999999987 0.3117000000000001,0.14029999999999632 0.3100000000000005,0.1390999999999991 0.3108000000000004,0.13299999999999557 0.30829999999999913,0.13279999999999603 0.3094000000000001,0.13049999999999784 0.3125,0.12939999999999685 0.3143999999999991,0.13279999999999603 0.3188999999999993,0.1313999999999993 0.323599999999999,0.12890000000000157 0.3232999999999997,0.126100000000001 0.3310999999999993,0.12049999999999983 0.3271999999999995,0.11939999999999884 0.3208000000000002,0.12270000000000181 0.3135999999999992,0.12079999999999558 0.3131000000000004,0.11909999999999599 0.3224999999999998,0.1186000000000007 0.3222000000000005,0.11609999999999587 0.3200000000000003,0.11500000000000199 0.3119999999999994,0.11690000000000111 0.3161000000000005,0.113900000000001 0.3161000000000005,0.11139999999999617 0.3135999999999992,0.11029999999999518 0.3135999999999992,0.10829999999999984 0.32809999999999917,0.11639999999999873 0.335799999999999,0.11719999999999686 0.33389999999999986,0.11110000000000042 0.33000000000000007,0.11029999999999518 0.3241999999999994,0.10249999999999915 0.3157999999999994,0.09799999999999898 0.31759999999999877,0.09510000000000218 0.31320000000000014,0.09449999999999648 0.31679999999999886,0.09279999999999688 0.31899999999999906,0.09360000000000213 0.3182999999999989,0.09659999999999513 0.3216999999999999,0.09939999999999571 0.32779999999999987,0.1010999999999953 0.3322000000000003,0.095799999999997 0.32920000000000016,0.10439999999999827 0.3335999999999988,0.10300000000000153 0.33619999999999983,0.09809999999999519 0.33639999999999937,0.10190000000000055 0.3323999999999998,0.10609999999999786 0.3338000000000001,0.10719999999999885 0.3369,0.10360000000000014 0.34220000000000006,0.10249999999999915 0.33859999999999957,0.10580000000000211 0.341899999999999,0.10770000000000124 0.33919999999999995,0.10999999999999943 0.33889999999999887,0.11359999999999815 0.34280000000000044,0.11079999999999757 0.3457999999999988,0.1115999999999957 0.35079999999999956,0.10909999999999798 0.3567,0.10859999999999559 0.361699999999999,0.10389999999999588 0.3666999999999998,0.10249999999999915 0.3691999999999993,0.09909999999999997 0.3711000000000002,0.09890000000000043 0.3721999999999994,0.095799999999997 0.3788999999999998,0.09389999999999787 0.3913999999999991,0.08160000000000167 0.3774999999999995,0.07799999999999585 0.3852999999999991,0.07909999999999684 0.392199999999999,0.07549999999999812 0.3872,0.07079999999999842 0.379999999999999,0.0683000000000007 0.3791999999999991,0.0666000000000011 0.3817000000000004,0.06409999999999627 0.3866999999999994,0.06389999999999674 0.3833000000000002,0.058900000000001285 0.3872,0.05659999999999599 0.3886000000000003,0.05389999999999873 0.3852999999999991,0.05250000000000199 0.3827999999999996,0.0555000000000021 0.3791999999999991,0.056100000000000705 0.3774999999999995,0.05469999999999686 0.3786000000000005,0.05250000000000199 0.3752999999999993,0.051400000000001 0.3757999999999999,0.049399999999998556 0.3796999999999997,0.04800000000000182 0.3777999999999988,0.04549999999999699 0.37950000000000017,0.03999999999999915 0.3782999999999994,0.03750000000000142 0.3760999999999992,0.037700000000000955 0.3782999999999994,0.03640000000000043 0.3764000000000003,0.03529999999999944 0.3768999999999991,0.03249999999999886 0.373899999999999,0.03359999999999985 0.3716999999999988,0.0379999999999967 0.3721999999999994,0.04159999999999542 0.3652999999999995,0.05250000000000199 0.35999999999999943,0.05359999999999587 0.36249999999999893,0.04690000000000083 0.35999999999999943,0.04359999999999786 "></polygon><polygon points="0.22749999999999915,0.0013999999999967372 0.22669999999999924,0.0 0.22330000000000005,0.000499999999995282 0.22449999999999903,0.0024999999999977263 0.22749999999999915,0.0013999999999967372 "></polygon><polygon points="0.22029999999999994,0.18009999999999593 0.21700000000000053,0.1781999999999968 0.21419999999999995,0.17799999999999727 0.21560000000000024,0.18029999999999546 0.22359999999999935,0.18079999999999785 0.22029999999999994,0.18009999999999593 "></polygon><polygon points="0.15610000000000035,0.23329999999999984 0.15809999999999924,0.22970000000000113 0.16109999999999935,0.22970000000000113 0.16639999999999944,0.22500000000000142 0.16719999999999935,0.22330000000000183 0.16530000000000022,0.21999999999999886 0.13919999999999888,0.21719999999999828 0.14470000000000027,0.22279999999999944 0.1399999999999988,0.22579999999999956 0.13949999999999996,0.22970000000000113 0.1374999999999993,0.23109999999999786 0.1382999999999992,0.232999999999997 0.14499999999999957,0.23389999999999844 0.14579999999999949,0.231899999999996 0.14669999999999916,0.23389999999999844 0.148299999999999,0.23389999999999844 0.15310000000000024,0.23109999999999786 0.15310000000000024,0.23409999999999798 0.15610000000000035,0.23329999999999984 "></polygon><polygon points="0.13809999999999967,0.22800000000000153 0.13919999999999888,0.22469999999999857 0.1372,0.22639999999999816 0.1333000000000002,0.22639999999999816 0.13250000000000028,0.22860000000000014 0.13809999999999967,0.22800000000000153 "></polygon><polygon points="0.08719999999999928,0.22970000000000113 0.07690000000000019,0.22469999999999857 0.07419999999999938,0.22749999999999915 0.07059999999999889,0.22749999999999915 0.06809999999999938,0.23140000000000072 0.04919999999999902,0.232999999999997 0.04579999999999984,0.23550000000000182 0.038000000000000256,0.2342000000000013 0.034699999999999065,0.23519999999999897 0.034699999999999065,0.23729999999999762 0.03169999999999895,0.23789999999999623 0.027699999999999392,0.24159999999999826 0.03139999999999965,0.2412999999999954 0.030699999999999505,0.24279999999999546 0.032600000000000406,0.24429999999999552 0.029899999999999594,0.24329999999999785 0.024899999999998812,0.2469999999999999 0.01789999999999914,0.24810000000000088 0.009399999999999409,0.24680000000000035 0.004199999999999093,0.2483000000000004 0.002200000000000202,0.2504999999999953 0.005499999999999616,0.2541999999999973 0.0052000000000003155,0.25909999999999656 0.008699999999999264,0.26030000000000086 0.007600000000000051,0.26200000000000045 0.0032999999999994145,0.26200000000000045 0.005799999999998917,0.26379999999999626 0.0038999999999997925,0.26769999999999783 0.007899999999999352,0.27129999999999654 0.006299999999999528,0.2768999999999977 0.0,0.27899999999999636 0.0004999999999988347,0.2879999999999967 0.013700000000000045,0.28819999999999624 0.017599999999999838,0.290300000000002 0.018799999999998818,0.2927999999999997 0.03169999999999895,0.2950000000000017 0.03669999999999973,0.2939000000000007 0.03810000000000002,0.2960999999999956 0.04499999999999993,0.29469999999999885 0.04579999999999984,0.29639999999999844 0.053099999999998815,0.29639999999999844 0.06829999999999892,0.29410000000000025 0.0671999999999997,0.29189999999999827 0.07419999999999938,0.29050000000000153 0.07419999999999938,0.2860999999999976 0.0757999999999992,0.2860999999999976 0.07749999999999879,0.2885999999999953 0.08359999999999879,0.2875000000000014 0.08969999999999878,0.28000000000000114 0.09329999999999927,0.2790999999999997 0.09810000000000052,0.2751999999999981 0.10079999999999956,0.27550000000000097 0.10389999999999944,0.28000000000000114 0.10670000000000002,0.28020000000000067 0.10970000000000013,0.27609999999999957 0.11329999999999885,0.2749999999999986 0.1164000000000005,0.2715999999999994 0.12190000000000012,0.27360000000000184 0.1272000000000002,0.27299999999999613 0.1286000000000005,0.2663999999999973 0.13059999999999938,0.2657999999999987 0.13079999999999892,0.2635999999999967 0.1338999999999988,0.2646999999999977 0.13780000000000037,0.2635999999999967 0.15219999999999878,0.24909999999999854 0.15279999999999916,0.24609999999999843 0.15109999999999957,0.2447000000000017 0.1394000000000002,0.24159999999999826 0.1368999999999989,0.23910000000000053 0.11580000000000013,0.24020000000000152 0.11529999999999951,0.23859999999999815 0.11749999999999972,0.2382999999999953 0.10890000000000022,0.232999999999997 0.10559999999999903,0.2335999999999956 0.10189999999999877,0.23109999999999786 0.09609999999999985,0.23140000000000072 0.09529999999999994,0.22970000000000113 0.08830000000000027,0.23080000000000211 0.08719999999999928,0.22970000000000113 "></polygon>
    </svg>
    