
    <svg width="0.42029999999999745" height="0.4908000000000001" xmlns="http://www.w3.org/2000/svg" xmlns:xlink="http://www.w3.org/1999/xlink" style="transform: scale(1, -1)">
        <polygon points="0.36299999999999955,0.001100000000000989 0.3628,0.0 0.3605000000000018,0.000600000000000378 0.3605000000000018,0.004699999999999704 0.3622000000000014,0.004699999999999704 0.36299999999999955,0.001100000000000989 "></polygon><polygon points="0.398299999999999,0.029200000000001225 0.3977999999999966,0.027499999999999858 0.39580000000000126,0.028100000000000236 0.3977999999999966,0.03110000000000035 0.398299999999999,0.029200000000001225 "></polygon><polygon points="0.4040999999999997,0.04300000000000104 0.40279999999999916,0.040300000000000225 0.3988999999999976,0.041700000000000514 0.40050000000000097,0.043900000000000716 0.4040999999999997,0.04300000000000104 "></polygon><polygon points="0.41140000000000043,0.07920000000000016 0.41499999999999915,0.07249999999999979 0.41969999999999885,0.07249999999999979 0.42029999999999745,0.0708000000000002 0.41329999999999956,0.07220000000000049 0.4140999999999977,0.07030000000000136 0.410499999999999,0.07030000000000136 0.407199999999996,0.0671999999999997 0.4076999999999984,0.06500000000000128 0.4052999999999969,0.06390000000000029 0.4063999999999979,0.05719999999999992 0.4040999999999997,0.05000000000000071 0.4024999999999963,0.04720000000000013 0.3994,0.04720000000000013 0.3977999999999966,0.04470000000000063 0.39580000000000126,0.04470000000000063 0.39639999999999986,0.040000000000000924 0.39390000000000214,0.038600000000000634 0.39520000000000266,0.035800000000000054 0.388300000000001,0.03359999999999985 0.38640000000000185,0.03470000000000084 0.3879999999999981,0.03500000000000014 0.3866000000000014,0.03830000000000133 0.3808000000000007,0.038899999999999935 0.3796999999999997,0.03390000000000093 0.3819000000000017,0.03500000000000014 0.3819000000000017,0.03220000000000134 0.38579999999999615,0.03310000000000102 0.3843999999999994,0.027800000000000935 0.39159999999999684,0.026699999999999946 0.39110000000000156,0.02310000000000123 0.38689999999999714,0.022199999999999775 0.38530000000000086,0.024700000000001054 0.3819000000000017,0.024700000000001054 0.37469999999999715,0.01609999999999978 0.373899999999999,0.012800000000000367 0.37579999999999814,0.011700000000001154 0.3733000000000004,0.008600000000001273 0.3703000000000003,0.009700000000000486 0.36939999999999884,0.007800000000001361 0.36829999999999785,0.009199999999999875 0.3660999999999959,0.007800000000001361 0.3669000000000011,0.010600000000000165 0.36469999999999914,0.010799999999999699 0.36469999999999914,0.008900000000000574 0.3596999999999966,0.006899999999999906 0.35609999999999786,0.008900000000000574 0.35439999999999827,0.007800000000001361 0.3504999999999967,0.008600000000001273 0.3504999999999967,0.009999999999999787 0.3532999999999973,0.010600000000000165 0.3526999999999987,0.013300000000000978 0.3432999999999993,0.016899999999999693 0.3438999999999979,0.02030000000000065 0.3410999999999973,0.021100000000000563 0.3410999999999973,0.02310000000000123 0.3432999999999993,0.02310000000000123 0.3429999999999964,0.025600000000000733 0.3352999999999966,0.03110000000000035 0.335799999999999,0.03359999999999985 0.33800000000000097,0.03359999999999985 0.3421999999999983,0.03830000000000133 0.3438999999999979,0.043600000000001415 0.34890000000000043,0.05030000000000001 0.347999999999999,0.054400000000001114 0.34499999999999886,0.057500000000000995 0.34499999999999886,0.06360000000000099 0.34720000000000084,0.06360000000000099 0.35139999999999816,0.058900000000001285 0.35300000000000153,0.06140000000000079 0.35549999999999926,0.0602999999999998 0.35549999999999926,0.06280000000000108 0.35360000000000014,0.0619000000000014 0.35300000000000153,0.06360000000000099 0.35439999999999827,0.06390000000000029 0.356899999999996,0.07030000000000136 0.3575000000000017,0.06780000000000008 0.36410000000000053,0.0669000000000004 0.3611000000000004,0.07110000000000127 0.3660999999999959,0.07360000000000078 0.3633000000000024,0.07580000000000098 0.36410000000000053,0.07810000000000095 0.3575000000000017,0.07469999999999999 0.3575000000000017,0.07750000000000057 0.36019999999999897,0.07970000000000077 0.3575000000000017,0.08110000000000106 0.3552999999999997,0.07690000000000019 0.3515999999999977,0.07690000000000019 0.3549999999999969,0.08110000000000106 0.3541000000000025,0.08300000000000018 0.35249999999999915,0.08280000000000065 0.35079999999999956,0.07859999999999978 0.34779999999999944,0.07830000000000048 0.3389000000000024,0.0705000000000009 0.3365999999999971,0.06750000000000078 0.3365999999999971,0.06420000000000137 0.33019999999999783,0.05940000000000012 0.32799999999999585,0.06050000000000111 0.32799999999999585,0.06420000000000137 0.32329999999999615,0.06670000000000087 0.31859999999999644,0.07190000000000119 0.3166000000000011,0.07169999999999987 0.3171999999999997,0.08079999999999998 0.3155000000000001,0.07920000000000016 0.31109999999999616,0.08060000000000045 0.3102000000000018,0.07859999999999978 0.30639999999999645,0.07890000000000086 0.2939000000000007,0.07390000000000008 0.2927999999999997,0.07610000000000028 0.2868999999999957,0.07530000000000037 0.28640000000000043,0.07779999999999987 0.2826999999999984,0.07859999999999978 0.27250000000000085,0.07690000000000019 0.271099999999997,0.08000000000000007 0.2685999999999993,0.07939999999999969 0.2640999999999991,0.08440000000000047 0.26030000000000086,0.08420000000000094 0.26030000000000086,0.08220000000000027 0.2541000000000011,0.07939999999999969 0.25029999999999575,0.08250000000000135 0.25269999999999726,0.08720000000000105 0.25079999999999814,0.08860000000000134 0.2505000000000024,0.08670000000000044 0.24859999999999616,0.08689999999999998 0.2505000000000024,0.09060000000000024 0.2483000000000004,0.09330000000000105 0.24439999999999884,0.08890000000000065 0.24389999999999645,0.08420000000000094 0.24049999999999727,0.08830000000000027 0.2378,0.08919999999999995 0.23939999999999628,0.08720000000000105 0.240000000000002,0.08060000000000045 0.23799999999999955,0.07779999999999987 0.23550000000000182,0.08000000000000007 0.23160000000000025,0.07970000000000077 0.22860000000000014,0.08190000000000097 0.22860000000000014,0.08560000000000123 0.2254999999999967,0.09079999999999977 0.22359999999999758,0.09030000000000094 0.2214000000000027,0.08560000000000123 0.22279999999999944,0.08300000000000018 0.2201999999999984,0.08330000000000126 0.21410000000000196,0.08810000000000073 0.21159999999999712,0.09190000000000076 0.1997,0.09030000000000094 0.18609999999999616,0.08360000000000056 0.1828000000000003,0.08000000000000007 0.18299999999999983,0.07500000000000107 0.1805000000000021,0.06920000000000037 0.17360000000000042,0.06530000000000058 0.16579999999999728,0.06750000000000078 0.16159999999999997,0.07140000000000057 0.16140000000000043,0.07779999999999987 0.15749999999999886,0.08110000000000106 0.15140000000000242,0.07920000000000016 0.147199999999998,0.08170000000000144 0.1465999999999994,0.08860000000000134 0.14969999999999573,0.09030000000000094 0.14909999999999712,0.10170000000000101 0.14690000000000225,0.10330000000000084 0.14329999999999643,0.10250000000000092 0.13889999999999958,0.10440000000000005 0.13940000000000197,0.1092000000000013 0.14300000000000068,0.11139999999999972 0.14470000000000027,0.11000000000000121 0.14499999999999602,0.1142000000000003 0.14220000000000255,0.1183000000000014 0.13830000000000098,0.11969999999999992 0.13360000000000127,0.11780000000000079 0.12859999999999872,0.11920000000000108 0.13219999999999743,0.12530000000000108 0.1313999999999993,0.1296999999999997 0.13409999999999656,0.1330000000000009 0.1343999999999994,0.13640000000000008 0.13859999999999673,0.13780000000000037 0.13889999999999958,0.13970000000000127 0.1413999999999973,0.13920000000000066 0.1407999999999987,0.14580000000000126 0.14860000000000184,0.14860000000000007 0.15279999999999916,0.15420000000000122 0.15529999999999688,0.15249999999999986 0.1629999999999967,0.15190000000000126 0.16799999999999926,0.16250000000000142 0.17360000000000042,0.16220000000000034 0.176400000000001,0.16530000000000022 0.17499999999999716,0.16690000000000005 0.17219999999999658,0.16670000000000051 0.17249999999999943,0.16890000000000072 0.17549999999999955,0.16970000000000063 0.176400000000001,0.1742000000000008 0.17779999999999774,0.17389999999999972 0.17779999999999774,0.1706000000000003 0.18079999999999785,0.17140000000000022 0.17830000000000013,0.16310000000000002 0.186399999999999,0.16530000000000022 0.188600000000001,0.16890000000000072 0.19189999999999685,0.1681000000000008 0.19140000000000157,0.16310000000000002 0.19250000000000256,0.16190000000000104 0.18939999999999912,0.15939999999999976 0.18549999999999756,0.15890000000000093 0.18659999999999854,0.15300000000000047 0.19250000000000256,0.15390000000000015 0.1938999999999993,0.15249999999999986 0.19529999999999603,0.15470000000000006 0.19890000000000185,0.15300000000000047 0.197499999999998,0.14890000000000114 0.20020000000000238,0.14939999999999998 0.20190000000000197,0.14750000000000085 0.20689999999999742,0.15190000000000126 0.20720000000000027,0.15080000000000027 0.2113999999999976,0.15110000000000134 0.21249999999999858,0.14670000000000094 0.21529999999999916,0.14690000000000047 0.21999999999999886,0.15420000000000122 0.22500000000000142,0.15190000000000126 0.22860000000000014,0.15690000000000026 0.23469999999999658,0.15890000000000093 0.23409999999999798,0.16080000000000005 0.23049999999999926,0.16169999999999973 0.22939999999999827,0.16389999999999993 0.2372000000000014,0.16360000000000063 0.23749999999999716,0.16500000000000092 0.23270000000000124,0.16670000000000051 0.231899999999996,0.16860000000000142 0.23389999999999844,0.1706000000000003 0.23160000000000025,0.1725000000000012 0.2271999999999963,0.17110000000000092 0.22579999999999956,0.17300000000000004 0.22109999999999985,0.17360000000000042 0.21999999999999886,0.1717000000000013 0.21799999999999642,0.17220000000000013 0.21829999999999927,0.17830000000000013 0.2149999999999963,0.1803000000000008 0.21470000000000056,0.18310000000000137 0.2190999999999974,0.18810000000000038 0.21860000000000213,0.19000000000000128 0.21390000000000242,0.1869000000000014 0.21159999999999712,0.1889000000000003 0.21189999999999998,0.1908000000000012 0.2149999999999963,0.1905000000000001 0.21329999999999671,0.19390000000000107 0.2049999999999983,0.19530000000000136 0.2049999999999983,0.20390000000000086 0.2090999999999994,0.20390000000000086 0.21159999999999712,0.20720000000000027 0.21049999999999613,0.21060000000000123 0.2038999999999973,0.21080000000000076 0.2043999999999997,0.21250000000000036 0.208599999999997,0.21330000000000027 0.20689999999999742,0.21440000000000126 0.20640000000000214,0.22360000000000113 0.2038999999999973,0.22390000000000043 0.1997,0.21830000000000105 0.18939999999999912,0.21720000000000006 0.1921999999999997,0.2043999999999997 0.18909999999999627,0.20690000000000097 0.18469999999999942,0.20690000000000097 0.18019999999999925,0.20140000000000136 0.17799999999999727,0.20330000000000048 0.17999999999999972,0.20830000000000126 0.1747000000000014,0.20920000000000094 0.170499999999997,0.20420000000000016 0.16799999999999926,0.20579999999999998 0.16859999999999786,0.20780000000000065 0.16749999999999687,0.20750000000000135 0.16799999999999926,0.21189999999999998 0.16579999999999728,0.21280000000000143 0.16389999999999816,0.21220000000000105 0.1646999999999963,0.20940000000000047 0.16329999999999956,0.20889999999999986 0.16080000000000183,0.21300000000000097 0.15639999999999787,0.21030000000000015 0.15500000000000114,0.21080000000000076 0.15639999999999787,0.21250000000000036 0.1535999999999973,0.21250000000000036 0.1535999999999973,0.21390000000000065 0.14690000000000225,0.21140000000000114 0.13749999999999574,0.21060000000000123 0.13799999999999812,0.21170000000000044 0.13159999999999883,0.21890000000000143 0.1291000000000011,0.22560000000000002 0.12529999999999575,0.22750000000000092 0.125,0.23000000000000043 0.1180000000000021,0.2353000000000005 0.1180000000000021,0.23690000000000033 0.11050000000000182,0.23939999999999984 0.10940000000000083,0.2416999999999998 0.10609999999999786,0.2403000000000013 0.09909999999999997,0.2436000000000007 0.09909999999999997,0.2453000000000003 0.09329999999999927,0.24420000000000108 0.08970000000000056,0.2489000000000008 0.08890000000000242,0.2546999999999997 0.07639999999999958,0.2605000000000004 0.07659999999999911,0.26560000000000095 0.07499999999999574,0.26780000000000115 0.07139999999999702,0.2680000000000007 0.07050000000000267,0.27470000000000105 0.06799999999999784,0.27580000000000027 0.06609999999999872,0.28250000000000064 0.061599999999998545,0.28610000000000113 0.0508000000000024,0.3036000000000012 0.0490999999999957,0.3039000000000005 0.04889999999999617,0.3086000000000002 0.043300000000002115,0.3214000000000006 0.046599999999997976,0.32970000000000077 0.049399999999998556,0.3439000000000014 0.05250000000000199,0.34720000000000084 0.052199999999999136,0.357800000000001 0.043900000000000716,0.3689 0.036899999999995714,0.3756000000000004 0.03439999999999799,0.3756000000000004 0.030799999999999272,0.3786000000000005 0.02389999999999759,0.39170000000000016 0.014400000000001967,0.39360000000000106 0.00829999999999842,0.4042000000000012 0.007199999999997431,0.40939999999999976 0.001599999999996271,0.4150000000000009 0.00280000000000058,0.4194000000000013 0.0002999999999957481,0.4236000000000004 0.0,0.4339000000000013 0.00280000000000058,0.44390000000000107 0.005000000000002558,0.44530000000000136 0.0058000000000006935,0.45030000000000037 0.010300000000000864,0.4543999999999997 0.010500000000000398,0.45889999999999986 0.015299999999996317,0.46080000000000076 0.014099999999999113,0.46300000000000097 0.01659999999999684,0.46470000000000056 0.018900000000002137,0.47000000000000064 0.021399999999999864,0.47080000000000055 0.020800000000001262,0.4728000000000012 0.03159999999999741,0.4750000000000014 0.03529999999999944,0.4792000000000005 0.041600000000002524,0.4797000000000011 0.042200000000001125,0.48220000000000063 0.043900000000000716,0.4811000000000014 0.046599999999997976,0.4819000000000013 0.04860000000000042,0.4872000000000014 0.05299999999999727,0.4853000000000005 0.06439999999999912,0.4897000000000009 0.07469999999999999,0.488900000000001 0.08160000000000167,0.4908000000000001 0.08659999999999712,0.488900000000001 0.09029999999999916,0.4900000000000002 0.09409999999999741,0.48690000000000033 0.10249999999999915,0.48690000000000033 0.10799999999999699,0.4842000000000013 0.10909999999999798,0.4817 0.11500000000000199,0.482800000000001 0.11909999999999599,0.47940000000000005 0.12359999999999616,0.4789000000000012 0.12639999999999674,0.4756 0.1313999999999993,0.4753000000000007 0.1390999999999991,0.46560000000000024 0.146099999999997,0.46499999999999986 0.15279999999999916,0.45780000000000065 0.15579999999999927,0.4580000000000002 0.158299999999997,0.45530000000000115 0.16499999999999915,0.45530000000000115 0.16660000000000252,0.45030000000000037 0.169399999999996,0.4497 0.17269999999999897,0.4458000000000002 0.17999999999999972,0.444700000000001 0.18659999999999854,0.44920000000000115 0.19250000000000256,0.4419000000000004 0.1997,0.4428000000000001 0.20049999999999812,0.43920000000000137 0.1980000000000004,0.4352999999999998 0.2043999999999997,0.4352999999999998 0.20940000000000225,0.4308000000000014 0.208599999999997,0.4253 0.210799999999999,0.4214000000000002 0.21750000000000114,0.4186000000000014 0.22330000000000183,0.4236000000000004 0.221899999999998,0.42079999999999984 0.22800000000000153,0.42079999999999984 0.2261000000000024,0.41690000000000005 0.2265999999999977,0.41469999999999985 0.22439999999999571,0.41360000000000063 0.2254999999999967,0.40920000000000023 0.23049999999999926,0.40580000000000105 0.23160000000000025,0.39920000000000044 0.23749999999999716,0.3969000000000005 0.24139999999999873,0.38970000000000127 0.2430000000000021,0.38890000000000136 0.24799999999999756,0.3908000000000005 0.24969999999999715,0.3894000000000002 0.25,0.3872 0.24640000000000128,0.3869000000000007 0.24689999999999657,0.3841999999999999 0.248899999999999,0.3839000000000006 0.251100000000001,0.3796999999999997 0.25439999999999685,0.3803000000000001 0.25439999999999685,0.3756000000000004 0.26140000000000185,0.3717000000000006 0.2627000000000024,0.3686000000000007 0.26140000000000185,0.3642000000000003 0.2638999999999996,0.3600000000000012 0.2674999999999983,0.3586000000000009 0.2657999999999987,0.35749999999999993 0.2663999999999973,0.35080000000000133 0.27139999999999986,0.3478000000000012 0.2757999999999967,0.35139999999999993 0.2764000000000024,0.3600000000000012 0.2839000000000027,0.3664000000000005 0.28410000000000224,0.3689 0.28719999999999857,0.3683000000000014 0.2933000000000021,0.3708000000000009 0.2939000000000007,0.3730000000000011 0.30219999999999914,0.3733000000000004 0.30299999999999727,0.3747000000000007 0.3044000000000011,0.3744000000000014 0.30579999999999785,0.37049999999999983 0.30859999999999843,0.3696999999999999 0.31219999999999715,0.3727999999999998 0.31640000000000157,0.3735999999999997 0.3171999999999997,0.37670000000000137 0.3149999999999977,0.3764000000000003 0.3149999999999977,0.3775000000000013 0.31640000000000157,0.3786000000000005 0.31859999999999644,0.3778000000000006 0.31909999999999883,0.3811 0.32050000000000267,0.3808000000000007 0.3207999999999984,0.3780000000000001 0.32690000000000197,0.3783000000000012 0.32799999999999585,0.38140000000000107 0.33079999999999643,0.38140000000000107 0.3363999999999976,0.3849999999999998 0.3404999999999987,0.39170000000000016 0.3436000000000021,0.39170000000000016 0.3436000000000021,0.38780000000000037 0.34609999999999985,0.38970000000000127 0.34779999999999944,0.38780000000000037 0.3500000000000014,0.3886000000000003 0.3504999999999967,0.38670000000000115 0.3547000000000011,0.388300000000001 0.35300000000000153,0.3844000000000012 0.3564000000000007,0.3830000000000009 0.35300000000000153,0.3772000000000002 0.35660000000000025,0.3717000000000006 0.3564000000000007,0.370000000000001 0.35190000000000055,0.3706000000000014 0.3511000000000024,0.3655000000000008 0.34890000000000043,0.3672000000000004 0.3500000000000014,0.3706000000000014 0.3464000000000027,0.3744000000000014 0.34720000000000084,0.37670000000000137 0.34550000000000125,0.3794000000000004 0.3429999999999964,0.3775000000000013 0.3371999999999957,0.3780000000000001 0.3352999999999966,0.3735999999999997 0.3322000000000003,0.3730000000000011 0.3329999999999984,0.3694000000000006 0.33859999999999957,0.3678000000000008 0.3404999999999987,0.3650000000000002 0.3382999999999967,0.3600000000000012 0.3340999999999994,0.3608000000000011 0.33330000000000126,0.3586000000000009 0.334699999999998,0.35749999999999993 0.3310999999999993,0.35829999999999984 0.3305000000000007,0.3561000000000014 0.3329999999999984,0.35360000000000014 0.33800000000000097,0.35360000000000014 0.3389000000000024,0.35110000000000063 0.3374999999999986,0.34970000000000034 0.33910000000000196,0.34800000000000075 0.33800000000000097,0.34670000000000023 0.333599999999997,0.34860000000000113 0.3340999999999994,0.345600000000001 0.33270000000000266,0.34500000000000064 0.3318999999999974,0.34670000000000023 0.32799999999999585,0.34580000000000055 0.3271999999999977,0.34800000000000075 0.32439999999999714,0.34860000000000113 0.31909999999999883,0.34609999999999985 0.3155000000000001,0.3564000000000007 0.30160000000000053,0.36190000000000033 0.2990999999999957,0.3608000000000011 0.2924999999999969,0.36190000000000033 0.2886000000000024,0.3542000000000005 0.28640000000000043,0.3552999999999997 0.2849999999999966,0.34940000000000104 0.28659999999999997,0.34720000000000084 0.2907999999999973,0.34720000000000084 0.2927999999999997,0.34360000000000035 0.2860999999999976,0.34470000000000134 0.28359999999999985,0.3417000000000012 0.28410000000000224,0.33580000000000076 0.28999999999999915,0.33330000000000126 0.2913999999999959,0.32890000000000086 0.29469999999999885,0.32750000000000057 0.29829999999999757,0.33389999999999986 0.30049999999999955,0.3330000000000002 0.3008000000000024,0.3346999999999998 0.302500000000002,0.3346999999999998 0.30409999999999826,0.33330000000000126 0.30409999999999826,0.33140000000000036 0.30109999999999815,0.33170000000000144 0.29999999999999716,0.32970000000000077 0.30109999999999815,0.3269000000000002 0.29579999999999984,0.3239000000000001 0.29579999999999984,0.3211000000000013 0.29939999999999856,0.3192000000000004 0.3049999999999997,0.32060000000000066 0.3083000000000027,0.3216999999999999 0.311399999999999,0.32750000000000057 0.3125,0.32640000000000136 0.3155000000000001,0.32750000000000057 0.313600000000001,0.3214000000000006 0.3160999999999987,0.3186 0.31389999999999674,0.3169000000000004 0.3149999999999977,0.3147000000000002 0.31909999999999883,0.3114000000000008 0.32860000000000156,0.3147000000000002 0.3260999999999967,0.3117000000000001 0.3288999999999973,0.3114000000000008 0.32799999999999585,0.3069000000000006 0.321399999999997,0.3064 0.3207999999999984,0.3025000000000002 0.31750000000000256,0.2992000000000008 0.3160999999999987,0.3031000000000006 0.3108000000000004,0.3025000000000002 0.3083000000000027,0.2988999999999997 0.3038999999999987,0.3006000000000011 0.3018999999999963,0.29940000000000033 0.3003,0.29470000000000063 0.30519999999999925,0.2914000000000012 0.30469999999999686,0.28940000000000055 0.30299999999999727,0.29080000000000084 0.2986000000000004,0.28969999999999985 0.29579999999999984,0.2939000000000007 0.29410000000000025,0.29330000000000034 0.29299999999999926,0.29470000000000063 0.29050000000000153,0.28580000000000005 0.28640000000000043,0.28420000000000023 0.28659999999999997,0.28000000000000114 0.2939000000000007,0.27669999999999995 0.29939999999999856,0.26670000000000016 0.3035999999999959,0.2658000000000005 0.30859999999999843,0.26860000000000106 0.3130000000000024,0.27610000000000134 0.3171999999999997,0.27810000000000024 0.3200000000000003,0.27470000000000105 0.32220000000000226,0.27560000000000073 0.3230000000000004,0.27890000000000015 0.3260999999999967,0.27829999999999977 0.3265999999999991,0.27530000000000143 0.32860000000000156,0.27720000000000056 0.3322000000000003,0.27720000000000056 0.33079999999999643,0.27330000000000076 0.33440000000000225,0.27330000000000076 0.3352999999999966,0.27139999999999986 0.3376999999999981,0.2719000000000005 0.3369,0.27640000000000065 0.33910000000000196,0.27810000000000024 0.34550000000000125,0.27810000000000024 0.34720000000000084,0.27640000000000065 0.3464000000000027,0.27030000000000065 0.3438999999999979,0.2697000000000003 0.3436000000000021,0.26420000000000066 0.33970000000000056,0.26720000000000077 0.3389000000000024,0.2614000000000001 0.33389999999999986,0.2622 0.3322000000000003,0.2597000000000005 0.3265999999999991,0.2636000000000003 0.3271999999999977,0.2607999999999997 0.32390000000000185,0.26030000000000086 0.323599999999999,0.2583000000000002 0.33079999999999643,0.2568999999999999 0.33330000000000126,0.2533000000000012 0.3371999999999957,0.2536000000000005 0.33859999999999957,0.2553000000000001 0.34080000000000155,0.2536000000000005 0.33549999999999613,0.2519000000000009 0.33500000000000085,0.2472000000000012 0.3376999999999981,0.2477999999999998 0.3369,0.24440000000000062 0.3382999999999967,0.2431000000000001 0.3340999999999994,0.2431000000000001 0.33440000000000225,0.2400000000000002 0.33140000000000214,0.2403000000000013 0.3318999999999974,0.23580000000000112 0.33030000000000115,0.23470000000000013 0.33030000000000115,0.23220000000000063 0.33500000000000085,0.23110000000000142 0.34140000000000015,0.23390000000000022 0.34190000000000254,0.22750000000000092 0.3432999999999993,0.22750000000000092 0.34499999999999886,0.23140000000000072 0.3485999999999976,0.22970000000000113 0.3515999999999977,0.23300000000000054 0.3549999999999969,0.23029999999999973 0.359099999999998,0.23080000000000034 0.35940000000000083,0.22940000000000005 0.3532999999999973,0.22780000000000022 0.35079999999999956,0.22530000000000072 0.3541000000000025,0.21970000000000134 0.35999999999999943,0.21720000000000006 0.36079999999999757,0.21220000000000105 0.35779999999999745,0.21250000000000036 0.35660000000000025,0.20830000000000126 0.36079999999999757,0.20500000000000007 0.36079999999999757,0.20279999999999987 0.3663999999999987,0.20310000000000095 0.36939999999999884,0.20140000000000136 0.37189999999999657,0.20170000000000066 0.3774999999999977,0.20670000000000144 0.377200000000002,0.20390000000000086 0.37939999999999685,0.20110000000000028 0.3785999999999987,0.19780000000000086 0.38049999999999784,0.1958000000000002 0.3825000000000003,0.19640000000000057 0.38279999999999603,0.1943999999999999 0.37829999999999586,0.19470000000000098 0.3768999999999991,0.1919000000000004 0.3866000000000014,0.19059999999999988 0.37579999999999814,0.18810000000000038 0.37529999999999575,0.1864000000000008 0.3768999999999991,0.18050000000000033 0.3802000000000021,0.182500000000001 0.3825000000000003,0.18170000000000108 0.38409999999999656,0.18420000000000059 0.38640000000000185,0.1836000000000002 0.3832999999999984,0.1791999999999998 0.38000000000000256,0.17830000000000013 0.3819000000000017,0.17609999999999992 0.388300000000001,0.1786000000000012 0.388300000000001,0.1753 0.38409999999999656,0.17110000000000092 0.38749999999999574,0.17110000000000092 0.398299999999999,0.1808000000000014 0.4024999999999963,0.17999999999999972 0.39860000000000184,0.176400000000001 0.39860000000000184,0.17110000000000092 0.39580000000000126,0.16999999999999993 0.3954999999999984,0.1681000000000008 0.39280000000000115,0.16830000000000034 0.39329999999999643,0.16330000000000133 0.39049999999999585,0.16140000000000043 0.39220000000000255,0.15830000000000055 0.396099999999997,0.15830000000000055 0.397199999999998,0.15530000000000044 0.4024999999999963,0.15190000000000126 0.40160000000000196,0.14580000000000126 0.3947000000000003,0.14690000000000047 0.39280000000000115,0.14470000000000027 0.394999999999996,0.14550000000000018 0.3990999999999971,0.14390000000000036 0.40390000000000015,0.14530000000000065 0.4052999999999969,0.14060000000000095 0.40330000000000155,0.13280000000000136 0.3994,0.13560000000000016 0.3947000000000003,0.13419999999999987 0.39639999999999986,0.13250000000000028 0.396099999999997,0.1294000000000004 0.3935999999999993,0.1283000000000012 0.3924999999999983,0.12420000000000009 0.39520000000000266,0.12190000000000012 0.398299999999999,0.126100000000001 0.40330000000000155,0.12670000000000137 0.4063999999999979,0.1225000000000005 0.4046999999999983,0.11749999999999972 0.4061000000000021,0.11470000000000091 0.4057999999999993,0.10690000000000133 0.40859999999999985,0.10420000000000051 0.41140000000000043,0.10670000000000002 0.4118999999999957,0.10330000000000084 0.41389999999999816,0.10360000000000014 0.4146999999999963,0.10170000000000101 0.41389999999999816,0.09810000000000052 0.4183000000000021,0.09220000000000006 0.41550000000000153,0.08610000000000007 0.4118999999999957,0.08330000000000126 0.40910000000000224,0.08360000000000056 0.409399999999998,0.08689999999999998 0.40800000000000125,0.08750000000000036 0.4063999999999979,0.08300000000000018 0.41080000000000183,0.08250000000000135 0.41140000000000043,0.07920000000000016 "></polygon><polygon points="0.3943999999999974,0.17970000000000041 0.39110000000000156,0.1775000000000002 0.39000000000000057,0.17800000000000082 0.3935999999999993,0.182500000000001 0.394999999999996,0.18170000000000108 0.3943999999999974,0.17970000000000041 "></polygon><polygon points="0.3663999999999987,0.21750000000000114 0.365000000000002,0.21640000000000015 0.363900000000001,0.21830000000000105 0.3660999999999959,0.21940000000000026 0.3663999999999987,0.21750000000000114 "></polygon><polygon points="0.377200000000002,0.22530000000000072 0.3768999999999991,0.22330000000000005 0.37939999999999685,0.22250000000000014 0.3791000000000011,0.22080000000000055 0.3721999999999994,0.22310000000000052 0.3716000000000008,0.22109999999999985 0.3669000000000011,0.22029999999999994 0.3714000000000013,0.22470000000000034 0.37639999999999674,0.226700000000001 0.3778000000000006,0.22639999999999993 0.377200000000002,0.22530000000000072 "></polygon><polygon points="0.37109999999999843,0.23300000000000054 0.36889999999999645,0.23029999999999973 0.36410000000000053,0.23000000000000043 0.3697000000000017,0.2342000000000013 0.37109999999999843,0.23300000000000054 "></polygon><polygon points="0.3836000000000013,0.2375000000000007 0.3808000000000007,0.23470000000000013 0.3785999999999987,0.2367000000000008 0.3813999999999993,0.2400000000000002 0.3836000000000013,0.2375000000000007 "></polygon><polygon points="0.37659999999999627,0.23830000000000062 0.373899999999999,0.2375000000000007 0.37579999999999814,0.2414000000000005 0.3768999999999991,0.2414000000000005 0.37659999999999627,0.23830000000000062 "></polygon><polygon points="0.2126999999999981,0.16060000000000052 0.21219999999999573,0.15830000000000055 0.2079999999999984,0.15810000000000102 0.20609999999999928,0.15939999999999976 0.210799999999999,0.16250000000000142 0.21329999999999671,0.16220000000000034 0.2126999999999981,0.16060000000000052 "></polygon><polygon points="0.1280000000000001,0.20250000000000057 0.12579999999999814,0.20220000000000127 0.1255000000000024,0.20330000000000048 0.12829999999999586,0.20390000000000086 0.1280000000000001,0.20250000000000057 "></polygon><polygon points="0.3427999999999969,0.2453000000000003 0.34550000000000125,0.24420000000000108 0.3404999999999987,0.2411000000000012 0.3389000000000024,0.24640000000000128 0.3410999999999973,0.2472000000000012 0.3427999999999969,0.2453000000000003 "></polygon><polygon points="0.31969999999999743,0.2964000000000002 0.31750000000000256,0.29579999999999984 0.31909999999999883,0.2997000000000014 0.32029999999999603,0.29940000000000033 0.31969999999999743,0.2964000000000002 "></polygon><polygon points="0.34720000000000084,0.28279999999999994 0.34779999999999944,0.2814000000000014 0.3451999999999984,0.28110000000000035 0.3451999999999984,0.28330000000000055 0.34720000000000084,0.28279999999999994 "></polygon><polygon points="0.32970000000000255,0.2978000000000005 0.32799999999999585,0.2964000000000002 0.3265999999999991,0.2986000000000004 0.3299999999999983,0.2992000000000008 0.32970000000000255,0.2978000000000005 "></polygon><polygon points="0.34660000000000224,0.2997000000000014 0.346899999999998,0.2975000000000012 0.34550000000000125,0.29720000000000013 0.34440000000000026,0.3008000000000006 0.34660000000000224,0.2997000000000014 "></polygon><polygon points="0.34190000000000254,0.307500000000001 0.34909999999999997,0.3053000000000008 0.34969999999999857,0.3036000000000012 0.3464000000000027,0.3047000000000004 0.34250000000000114,0.3031000000000006 0.34080000000000155,0.3039000000000005 0.34029999999999916,0.3017000000000003 0.3382999999999967,0.3017000000000003 0.3369,0.3047000000000004 0.33330000000000126,0.3058000000000014 0.33079999999999643,0.3086000000000002 0.3329999999999984,0.3071999999999999 0.34080000000000155,0.3086000000000002 0.34190000000000254,0.307500000000001 "></polygon><polygon points="0.26610000000000156,0.38530000000000086 0.2668999999999997,0.3836000000000013 0.2652999999999963,0.38310000000000066 0.2646999999999977,0.3857999999999997 0.26610000000000156,0.38530000000000086 "></polygon><polygon points="0.240000000000002,0.39780000000000015 0.2383000000000024,0.40000000000000036 0.24159999999999826,0.40030000000000143 0.24109999999999587,0.39750000000000085 0.240000000000002,0.39780000000000015 "></polygon>
    </svg>
    