
    <svg width="3.542399999999997" height="3.0234000000000023" xmlns="http://www.w3.org/2000/svg" xmlns:xlink="http://www.w3.org/1999/xlink" style="transform: scale(1, -1)">
        <polygon points="2.1668999999999983,0.3854000000000042 2.1691000000000003,0.3796000000000035 2.158899999999999,0.3703000000000003 2.124399999999998,0.36079999999999757 2.106099999999998,0.36010000000000275 2.096,0.3569000000000031 2.0905999999999985,0.35249999999999915 2.090399999999999,0.34669999999999845 2.0919999999999987,0.33959999999999724 2.0970999999999975,0.32970000000000255 2.096399999999999,0.3252000000000024 2.0869,0.32030000000000314 2.0725999999999978,0.3158999999999992 2.035899999999998,0.311399999999999 1.9955999999999996,0.30100000000000193 1.9843999999999973,0.3019999999999996 1.979899999999997,0.2843000000000018 1.981499999999997,0.27600000000000335 1.9789999999999992,0.26899999999999835 1.971899999999998,0.267000000000003 1.9536999999999978,0.26890000000000214 1.9460999999999977,0.27179999999999893 1.926599999999997,0.2704000000000022 1.9079999999999977,0.2556999999999974 1.8970999999999982,0.23680000000000234 1.8746999999999971,0.2085000000000008 1.8757999999999981,0.20400000000000063 1.879299999999997,0.2015000000000029 1.8851999999999975,0.2010000000000005 1.895199999999999,0.2038000000000011 1.9022999999999968,0.20289999999999964 1.906299999999998,0.19790000000000418 1.9255999999999993,0.13000000000000256 1.9264999999999972,0.1167999999999978 1.9228999999999985,0.11310000000000286 1.9127999999999972,0.10990000000000322 1.888099999999998,0.10770000000000124 1.8820999999999977,0.10439999999999827 1.8796999999999997,0.10070000000000334 1.893699999999999,0.06390000000000384 1.895199999999999,0.05150000000000432 1.8949999999999996,0.038699999999998624 1.8877999999999986,0.03340000000000032 1.875399999999999,0.028900000000000148 1.8141999999999996,0.020800000000001262 1.8071999999999981,0.022500000000000853 1.8013999999999974,0.02790000000000248 1.7975999999999992,0.040399999999998215 1.7848999999999968,0.05290000000000106 1.7713999999999999,0.054999999999999716 1.747399999999999,0.0630999999999986 1.7304999999999993,0.07150000000000034 1.7094999999999985,0.07659999999999911 1.689,0.07880000000000109 1.6688999999999972,0.073599999999999 1.647599999999997,0.06430000000000291 1.6076999999999977,0.026099999999999568 1.5929000000000002,0.0 1.5657999999999994,0.00829999999999842 1.5632999999999981,0.014699999999997715 1.5588999999999977,0.017800000000001148 1.556799999999999,0.028199999999998226 1.5524999999999984,0.03399999999999892 1.5424999999999969,0.03370000000000317 1.5441000000000003,0.04180000000000206 1.5345999999999975,0.043199999999998795 1.5353999999999992,0.04449999999999932 1.5424999999999969,0.04560000000000031 1.546999999999997,0.05360000000000298 1.5371999999999986,0.057800000000000296 1.539399999999997,0.05910000000000082 1.5455999999999968,0.057900000000003615 1.5464999999999982,0.0619000000000014 1.5457,0.06439999999999912 1.5422999999999973,0.06710000000000349 1.5460999999999991,0.07050000000000267 1.545499999999997,0.07880000000000109 1.5414999999999992,0.08039999999999736 1.5355999999999987,0.08840000000000003 1.538999999999998,0.09420000000000073 1.5283999999999978,0.09590000000000032 1.535499999999999,0.09960000000000235 1.5367999999999995,0.1086000000000027 1.5335,0.1075000000000017 1.525699999999997,0.09949999999999903 1.518699999999999,0.1110000000000042 1.514999999999997,0.11050000000000182 1.5159999999999982,0.10609999999999786 1.5144999999999982,0.10450000000000159 1.5126999999999988,0.10500000000000398 1.5108999999999995,0.10900000000000176 1.5071999999999974,0.10470000000000113 1.5052999999999983,0.10730000000000217 1.501299999999997,0.1056999999999988 1.4974999999999987,0.10950000000000415 1.5011999999999972,0.11250000000000426 1.4978999999999978,0.11400000000000432 1.4933999999999976,0.11959999999999837 1.485999999999997,0.12190000000000367 1.4802999999999997,0.12890000000000157 1.472299999999997,0.1319999999999979 1.4686999999999983,0.13870000000000005 1.4696999999999996,0.14359999999999928 1.479099999999999,0.14910000000000423 1.4807999999999986,0.15209999999999724 1.489799999999999,0.1548000000000016 1.4929999999999986,0.15959999999999752 1.500399999999999,0.1600999999999999 1.5025999999999975,0.15610000000000213 1.509999999999998,0.15230000000000388 1.511999999999997,0.15330000000000155 1.5104999999999968,0.1570999999999998 1.517199999999999,0.1589000000000027 1.5196999999999967,0.1589000000000027 1.5213999999999999,0.15579999999999927 1.5243000000000002,0.15489999999999782 1.5259999999999998,0.15850000000000364 1.529799999999998,0.15959999999999752 1.536999999999999,0.1700000000000017 1.5518,0.1741000000000028 1.5543999999999976,0.1781000000000006 1.5513999999999974,0.1822000000000017 1.5399999999999991,0.18290000000000362 1.5380000000000003,0.1846000000000032 1.5460999999999991,0.1869000000000014 1.5422999999999973,0.1938999999999993 1.5468999999999973,0.19960000000000377 1.5475999999999992,0.20470000000000255 1.5505999999999993,0.20779999999999887 1.5498999999999974,0.21130000000000138 1.551599999999997,0.21280000000000143 1.5468999999999973,0.21569999999999823 1.5427,0.22619999999999862 1.544599999999999,0.23080000000000211 1.5403999999999982,0.23700000000000188 1.549199999999999,0.2406000000000006 1.5510999999999981,0.24289999999999878 1.5442999999999998,0.2507000000000019 1.5473999999999997,0.25719999999999743 1.5409999999999968,0.2586999999999975 1.5427999999999997,0.2627000000000024 1.5463999999999984,0.26420000000000243 1.5452999999999975,0.2657000000000025 1.5470999999999968,0.2698999999999998 1.5375999999999976,0.2734000000000023 1.5360999999999976,0.2775000000000034 1.531299999999998,0.27770000000000294 1.529799999999998,0.2845999999999975 1.5318999999999967,0.28759999999999764 1.5235999999999983,0.2937999999999974 1.524799999999999,0.29749999999999943 1.5299999999999976,0.29760000000000275 1.5281999999999982,0.3008000000000024 1.5301999999999971,0.3036999999999992 1.5299999999999976,0.3066000000000031 1.5352999999999994,0.3089999999999975 1.5352999999999994,0.3119999999999976 1.5324999999999989,0.31329999999999814 1.533999999999999,0.3158999999999992 1.5316999999999972,0.31700000000000017 1.5154999999999994,0.31170000000000186 1.507399999999997,0.3166000000000011 1.5006999999999984,0.32450000000000045 1.4941999999999993,0.32390000000000185 1.4932999999999979,0.3293999999999997 1.4990999999999985,0.32800000000000296 1.5026999999999973,0.3312000000000026 1.4999000000000002,0.33550000000000324 1.501299999999997,0.3399000000000001 1.4987999999999992,0.34830000000000183 1.4915999999999983,0.3481000000000023 1.4878999999999998,0.3498999999999981 1.493199999999998,0.35430000000000206 1.4895999999999994,0.3579000000000008 1.4921999999999969,0.36010000000000275 1.489099999999997,0.3644999999999996 1.492799999999999,0.3680000000000021 1.489099999999997,0.37409999999999854 1.485599999999998,0.37650000000000006 1.4924,0.37819999999999965 1.494299999999999,0.3826999999999998 1.4904999999999973,0.384999999999998 1.4860999999999969,0.393100000000004 1.4945999999999984,0.3935999999999993 1.5004999999999988,0.3971000000000018 1.5070999999999977,0.39620000000000033 1.5077999999999996,0.4040999999999997 1.5127999999999986,0.40980000000000416 1.5081999999999987,0.41100000000000136 1.5107,0.41510000000000247 1.5070999999999977,0.4187000000000012 1.5032999999999994,0.41550000000000153 1.5015,0.4170000000000016 1.4952999999999967,0.41610000000000014 1.492799999999999,0.41799999999999926 1.4984000000000002,0.4209999999999994 1.4965999999999973,0.42600000000000193 1.4928999999999988,0.4288000000000025 1.4924,0.43240000000000123 1.4999000000000002,0.4341000000000008 1.5001999999999995,0.43650000000000233 1.496299999999998,0.4427999999999983 1.4999000000000002,0.44720000000000226 1.5005999999999986,0.45179999999999865 1.505899999999997,0.4557000000000002 1.5009999999999977,0.46470000000000056 1.4945999999999984,0.4690000000000012 1.4984000000000002,0.47800000000000153 1.4954999999999998,0.4830000000000041 1.4948999999999977,0.48740000000000094 1.4852999999999987,0.49620000000000175 1.4884999999999984,0.5018000000000029 1.4817,0.5061000000000035 1.486699999999999,0.5091999999999999 1.4872999999999976,0.5116000000000014 1.4786000000000001,0.5119000000000042 1.4791999999999987,0.5150000000000006 1.4838999999999984,0.518100000000004 1.4854999999999983,0.5226000000000042 1.4793999999999983,0.5243000000000038 1.4760999999999989,0.5320999999999998 1.4712999999999994,0.5384000000000029 1.4654999999999987,0.5416000000000025 1.475999999999999,0.5484000000000009 1.474899999999998,0.5506000000000029 1.4676999999999971,0.5538000000000025 1.470799999999997,0.5638000000000005 1.4704999999999977,0.5681999999999974 1.4773999999999994,0.576900000000002 1.4838999999999984,0.5765000000000029 1.4806999999999988,0.5808000000000035 1.4852999999999987,0.5861999999999981 1.482999999999997,0.5874999999999986 1.4738999999999969,0.5866000000000042 1.4715999999999987,0.5876999999999981 1.4689999999999976,0.5930000000000035 1.4781999999999975,0.5936999999999983 1.4807999999999986,0.5979000000000028 1.4690999999999974,0.6026999999999987 1.4735999999999976,0.6073999999999984 1.4731999999999985,0.6127000000000038 1.4771,0.611699999999999 1.4803999999999995,0.6144000000000034 1.4857999999999976,0.6114999999999995 1.489099999999997,0.611699999999999 1.4872999999999976,0.616500000000002 1.4917999999999978,0.6204000000000036 1.4857999999999976,0.6229999999999976 1.4872999999999976,0.6289000000000016 1.4824999999999982,0.6319000000000017 1.4873999999999974,0.6319000000000017 1.490199999999998,0.6371000000000038 1.4974999999999987,0.6355000000000004 1.5030000000000001,0.6384000000000043 1.496299999999998,0.6411000000000016 1.4961999999999982,0.6433999999999997 1.4986999999999995,0.6460000000000008 1.5045000000000002,0.6450999999999993 1.5055999999999976,0.6539000000000001 1.5046,0.6591999999999985 1.5094999999999992,0.6587999999999994 1.514599999999998,0.6638999999999982 1.508899999999997,0.6647999999999996 1.505399999999998,0.6706000000000003 1.5093999999999994,0.6777000000000015 1.503899999999998,0.6809000000000012 1.5046,0.6850999999999985 1.506999999999998,0.6889000000000038 1.5124999999999993,0.6876999999999995 1.5165999999999968,0.6957000000000022 1.5229999999999997,0.6976999999999975 1.518699999999999,0.7036999999999978 1.5098999999999982,0.7079999999999984 1.5082999999999984,0.7111999999999981 1.5102999999999973,0.7124999999999986 1.5211999999999968,0.7094000000000023 1.5243000000000002,0.7126999999999981 1.5137,0.7147000000000006 1.5113999999999983,0.716700000000003 1.5118999999999971,0.7194000000000003 1.5198999999999998,0.7164000000000001 1.5215999999999994,0.7188999999999979 1.5213999999999999,0.7255000000000038 1.5178999999999974,0.7253000000000043 1.5146999999999977,0.728900000000003 1.5005999999999986,0.7248999999999981 1.4984000000000002,0.7255000000000038 1.4978999999999978,0.7291000000000025 1.5047999999999995,0.7347000000000037 1.5061,0.7411999999999992 1.5024999999999977,0.7449999999999974 1.4976999999999983,0.7452000000000041 1.4964999999999975,0.7438000000000002 1.4974999999999987,0.7375000000000043 1.4943999999999988,0.7353999999999985 1.4924999999999997,0.7357999999999976 1.489799999999999,0.7391000000000005 1.4950999999999972,0.7447999999999979 1.4880999999999993,0.7479999999999976 1.4910999999999994,0.7497000000000043 1.4921999999999969,0.7531000000000034 1.4865999999999993,0.7552000000000021 1.4915999999999983,0.7627999999999986 1.4919999999999973,0.7672000000000025 1.489799999999999,0.7742000000000004 1.4919999999999973,0.7785999999999973 1.4943999999999988,0.7794000000000025 1.4963999999999977,0.7745000000000033 1.4993999999999978,0.772199999999998 1.4990999999999985,0.7764000000000024 1.5030000000000001,0.7751000000000019 1.5139999999999993,0.7845000000000013 1.5185999999999993,0.7813000000000017 1.526799999999998,0.7854000000000028 1.5218999999999987,0.7909000000000006 1.5104999999999968,0.7899000000000029 1.5066999999999986,0.7954000000000008 1.5162999999999975,0.7978999999999985 1.5147999999999975,0.8002000000000038 1.5168999999999997,0.8038999999999987 1.5169999999999995,0.8134999999999977 1.5198999999999998,0.8181999999999974 1.5229,0.8198000000000008 1.5275999999999996,0.8194999999999979 1.5244999999999997,0.8119999999999976 1.5325999999999986,0.8121000000000009 1.5333999999999968,0.8160999999999987 1.5291999999999994,0.8248999999999995 1.532399999999999,0.8261000000000038 1.5368999999999993,0.8198000000000008 1.545099999999998,0.8198000000000008 1.543099999999999,0.8153000000000006 1.5497999999999976,0.8160999999999987 1.5492999999999988,0.8277000000000001 1.552299999999999,0.8316000000000017 1.5571999999999981,0.8284999999999982 1.5533000000000001,0.823599999999999 1.5607999999999969,0.8190000000000026 1.5594999999999999,0.8239999999999981 1.5656999999999996,0.8239000000000019 1.5673999999999992,0.8265999999999991 1.5661999999999985,0.8282000000000025 1.5594999999999999,0.8293999999999997 1.558799999999998,0.8336000000000041 1.5626999999999995,0.8331000000000017 1.5679999999999978,0.8361000000000018 1.575599999999998,0.8366000000000042 1.5840999999999994,0.8455999999999975 1.5891999999999982,0.8541000000000025 1.5818999999999974,0.8537000000000035 1.580099999999998,0.8601000000000028 1.5773999999999972,0.861699999999999 1.575099999999999,0.8571000000000026 1.5729999999999968,0.8566000000000003 1.5666999999999973,0.860199999999999 1.572499999999998,0.8635999999999981 1.5643999999999991,0.8663000000000025 1.5686999999999998,0.8708000000000027 1.5731000000000002,0.8676999999999992 1.577499999999997,0.867600000000003 1.5752999999999986,0.8719999999999999 1.5799999999999983,0.8768999999999991 1.574499999999997,0.8806999999999974 1.574499999999997,0.876100000000001 1.5685000000000002,0.878300000000003 1.5631999999999984,0.886099999999999 1.5687999999999995,0.8869000000000042 1.5655999999999999,0.884999999999998 1.5751999999999988,0.8828000000000031 1.5765999999999991,0.8836999999999975 1.5714999999999968,0.8886000000000038 1.5710999999999977,0.890900000000002 1.572899999999997,0.8930000000000007 1.5740999999999978,0.8928999999999974 1.5729999999999968,0.890900000000002 1.5795999999999992,0.8900000000000006 1.5885999999999996,0.8926000000000016 1.5862999999999978,0.8941000000000017 1.5808,0.8928999999999974 1.5793,0.8984999999999985 1.5864999999999974,0.8980999999999995 1.5840999999999994,0.9001999999999981 1.5875999999999983,0.902700000000003 1.5778999999999996,0.9040000000000035 1.581199999999999,0.9078000000000017 1.5890999999999984,0.9061999999999983 1.5904999999999987,0.9115000000000038 1.5945,0.9149999999999991 1.6021,0.9151999999999987 1.5980999999999987,0.9166999999999987 1.6038999999999994,0.9220000000000041 1.5961999999999996,0.9252000000000038 1.597999999999999,0.9294000000000011 1.604899999999997,0.9254000000000033 1.6113999999999997,0.9252000000000038 1.6148999999999987,0.9234000000000009 1.6230999999999973,0.9284000000000034 1.618699999999997,0.9341000000000008 1.6097000000000001,0.9320000000000022 1.6052,0.9328000000000003 1.6054999999999993,0.9354999999999976 1.6077999999999975,0.9369999999999976 1.6150999999999982,0.9369000000000014 1.6189999999999998,0.9401999999999973 1.6113,0.9410000000000025 1.6102999999999987,0.9479000000000042 1.6143,0.9502999999999986 1.6304999999999978,0.9491999999999976 1.6304999999999978,0.954100000000004 1.6357,0.9564999999999984 1.6387999999999998,0.9602000000000004 1.6351999999999975,0.9665999999999997 1.6411999999999978,0.9710999999999999 1.6372999999999998,0.9808000000000021 1.6222999999999992,0.9808999999999983 1.6202999999999967,0.9853999999999985 1.6286999999999985,0.9904999999999973 1.6377999999999986,0.9932000000000016 1.6383999999999972,0.9956999999999994 1.6256999999999984,0.9971000000000032 1.632399999999997,1.0009000000000015 1.6250999999999998,1.0026999999999973 1.6266999999999996,1.0091000000000037 1.6226999999999983,1.012599999999999 1.6193999999999988,1.0129999999999981 1.615599999999997,1.0091999999999999 1.6053999999999995,1.012900000000002 1.605999999999998,1.0146999999999977 1.6122999999999976,1.0174999999999983 1.6084999999999994,1.0228000000000037 1.6112000000000002,1.0283000000000015 1.6036000000000001,1.028800000000004 1.6032999999999973,1.033999999999999 1.6013999999999982,1.0366 1.5967999999999982,1.0322999999999993 1.5915999999999997,1.0324000000000026 1.5951999999999984,1.0364000000000004 1.5893999999999977,1.038800000000002 1.595399999999998,1.0459000000000032 1.6011999999999986,1.0439000000000007 1.6031999999999975,1.0446999999999989 1.6001999999999974,1.0512999999999977 1.5945999999999998,1.0557000000000016 1.5978999999999992,1.0568000000000026 1.6049999999999969,1.0538000000000025 1.6089999999999982,1.0568999999999988 1.6103999999999985,1.060299999999998 1.610599999999998,1.0643999999999991 1.6073999999999984,1.0628000000000029 1.6056999999999988,1.0634999999999977 1.6073999999999984,1.0696000000000012 1.6046999999999976,1.0700000000000003 1.6036000000000001,1.0671000000000035 1.595399999999998,1.0698000000000008 1.5955999999999975,1.0714000000000041 1.6032999999999973,1.077300000000001 1.6011999999999986,1.0799999999999983 1.6069999999999993,1.0872000000000028 1.6159999999999997,1.0851000000000042 1.6130999999999993,1.091000000000001 1.6130999999999993,1.096899999999998 1.6054999999999993,1.0970999999999975 1.607999999999997,1.1020000000000039 1.6052999999999997,1.1047000000000011 1.6028999999999982,1.1129000000000033 1.6213999999999977,1.114600000000003 1.6114999999999995,1.118700000000004 1.6190999999999995,1.1221999999999994 1.6213999999999977,1.1264000000000038 1.6184999999999974,1.130200000000002 1.622399999999999,1.1349000000000018 1.630399999999998,1.1375000000000028 1.6244999999999976,1.1405999999999992 1.6326,1.1458999999999975 1.629299999999997,1.1492000000000004 1.6315999999999988,1.1546999999999983 1.6280999999999999,1.1613000000000042 1.6215999999999973,1.161200000000001 1.6191999999999993,1.163800000000002 1.6240999999999985,1.167500000000004 1.6249000000000002,1.171199999999999 1.6184999999999974,1.1777999999999977 1.620199999999997,1.1792000000000016 1.6261999999999972,1.1788000000000025 1.6175999999999995,1.1854999999999976 1.618199999999998,1.1893999999999991 1.6152999999999977,1.200400000000002 1.6193999999999988,1.1997 1.619799999999998,1.2028000000000034 1.6154999999999973,1.2077999999999989 1.616699999999998,1.212600000000002 1.614099999999997,1.2148000000000039 1.610199999999999,1.2147000000000006 1.612099999999998,1.2103000000000037 1.6107999999999976,1.2070000000000007 1.6041999999999987,1.209299999999999 1.6052,1.2131000000000043 1.6011999999999986,1.2238000000000042 1.5956999999999972,1.221899999999998 1.5945999999999998,1.2165999999999997 1.5879999999999974,1.2195999999999998 1.5885999999999996,1.2210000000000036 1.593,1.2214000000000027 1.5949999999999989,1.2276000000000025 1.5925999999999974,1.2308999999999983 1.5823999999999998,1.2334999999999994 1.5899999999999999,1.237400000000001 1.5891999999999982,1.2456000000000031 1.5859999999999985,1.2484000000000037 1.5815999999999981,1.2494999999999976 1.5823,1.2550000000000026 1.5746000000000002,1.2535999999999987 1.5778999999999996,1.2499000000000038 1.5762999999999998,1.248899999999999 1.568999999999999,1.2524999999999977 1.5743999999999971,1.2552999999999983 1.5727999999999973,1.2567999999999984 1.5671999999999997,1.2569000000000017 1.5664999999999978,1.2586999999999975 1.5695999999999977,1.2623000000000033 1.575099999999999,1.2631999999999977 1.5753999999999984,1.2661000000000016 1.572099999999999,1.2693000000000012 1.5658999999999992,1.2670999999999992 1.563799999999997,1.2676999999999978 1.5603999999999978,1.2713999999999999 1.558799999999998,1.276299999999999 1.564,1.276299999999999 1.563799999999997,1.2796999999999983 1.5618999999999978,1.2811000000000021 1.5579999999999998,1.280700000000003 1.5571999999999981,1.2845000000000013 1.5534999999999997,1.2841000000000022 1.5557999999999979,1.2894000000000005 1.5619999999999976,1.288499999999999 1.5649999999999977,1.2935999999999979 1.5579,1.2920999999999978 1.5590999999999973,1.2997999999999976 1.5579999999999998,1.3042000000000016 1.551599999999997,1.3019000000000034 1.5477999999999987,1.3034000000000034 1.548099999999998,1.3053000000000026 1.5527999999999977,1.3089999999999975 1.5452999999999975,1.3074999999999974 1.5406999999999975,1.3106000000000009 1.5447999999999986,1.3117000000000019 1.5560999999999972,1.3107000000000042 1.5559999999999974,1.3125 1.5457999999999998,1.3175000000000026 1.5466999999999977,1.3233999999999995 1.5451999999999977,1.3247 1.5413999999999994,1.3247 1.5427,1.3192999999999984 1.5409999999999968,1.3177999999999983 1.5357999999999983,1.3248999999999995 1.5291999999999994,1.3277 1.5331999999999972,1.3318000000000012 1.532399999999999,1.3335000000000008 1.5279999999999987,1.3325000000000031 1.523299999999999,1.3359000000000023 1.5155999999999992,1.3354 1.508899999999997,1.3399 1.5079999999999991,1.342100000000002 1.5107,1.346499999999999 1.5036999999999985,1.3473000000000042 1.5055999999999976,1.3562999999999974 1.499299999999998,1.3521 1.494299999999999,1.3556999999999988 1.4961999999999982,1.3616000000000028 1.4955999999999996,1.3701000000000008 1.4878,1.3762000000000043 1.4899999999999984,1.3778000000000006 1.4930999999999983,1.374299999999998 1.4963999999999977,1.3815999999999988 1.4996999999999971,1.3834000000000017 1.5036999999999985,1.3806000000000012 1.5067999999999984,1.3862999999999985 1.4974999999999987,1.3871000000000038 1.4975999999999985,1.3885000000000005 1.5031999999999996,1.389400000000002 1.5033999999999992,1.3905999999999992 1.4948999999999977,1.3941000000000017 1.4873999999999974,1.3995000000000033 1.492099999999997,1.4029999999999987 1.4784999999999968,1.4035999999999973 1.480599999999999,1.4065999999999974 1.488699999999998,1.4065999999999974 1.4939,1.4104000000000028 1.4989999999999988,1.4110999999999976 1.4926999999999992,1.415700000000001 1.4944999999999986,1.4247999999999976 1.4904999999999973,1.429000000000002 1.488699999999998,1.4226000000000028 1.483699999999999,1.4294000000000011 1.4771,1.4254999999999995 1.4735999999999976,1.4298000000000002 1.465799999999998,1.4286999999999992 1.4690999999999974,1.4331999999999994 1.4645999999999972,1.4344999999999999 1.463199999999997,1.436399999999999 1.4676999999999971,1.4410000000000025 1.4720999999999975,1.438600000000001 1.475999999999999,1.4384999999999977 1.4740000000000002,1.4429999999999978 1.4749999999999979,1.4436999999999998 1.4841999999999977,1.4436000000000035 1.4929999999999986,1.4551000000000016 1.4763999999999982,1.4620000000000033 1.4795999999999978,1.4634 1.4862000000000002,1.4620000000000033 1.483699999999999,1.4658000000000015 1.4645999999999972,1.4675000000000011 1.4615999999999971,1.4710000000000036 1.4650999999999996,1.4720999999999975 1.468399999999999,1.4684999999999988 1.4705999999999975,1.4709000000000003 1.4680999999999997,1.475200000000001 1.4730999999999987,1.4729000000000028 1.4769999999999968,1.4753000000000043 1.478399999999997,1.482599999999998 1.4758999999999993,1.483699999999999 1.471499999999999,1.4804999999999993 1.469899999999999,1.4817000000000036 1.4737999999999971,1.4900999999999982 1.464699999999997,1.4902999999999977 1.458599999999997,1.4968000000000004 1.4658999999999978,1.4986999999999995 1.4649,1.5054000000000016 1.4741,1.5084000000000017 1.4765999999999977,1.5120000000000005 1.465399999999999,1.5182000000000002 1.4583999999999975,1.518500000000003 1.458199999999998,1.5198000000000036 1.462299999999999,1.5223000000000013 1.4613999999999976,1.524000000000001 1.4344999999999999,1.5332000000000008 1.4361999999999995,1.5366 1.4346999999999994,1.5386999999999986 1.431799999999999,1.5393000000000043 1.433399999999999,1.5352999999999994 1.4303999999999988,1.5350000000000037 1.4205999999999968,1.5405000000000015 1.4229999999999983,1.5427000000000035 1.4196999999999989,1.545099999999998 1.4151999999999987,1.5435999999999979 1.4125999999999976,1.5448999999999984 1.414399999999997,1.5482999999999976 1.421199999999999,1.5523999999999987 1.4254999999999995,1.5519999999999996 1.4316999999999993,1.5472000000000037 1.4338999999999977,1.5474000000000032 1.4321999999999981,1.5536999999999992 1.4283000000000001,1.5583000000000027 1.4218999999999973,1.554000000000002 1.4188999999999972,1.5611999999999995 1.414399999999997,1.5638000000000005 1.4063999999999979,1.5632999999999981 1.403699999999997,1.5607000000000042 1.4031999999999982,1.5570999999999984 1.3998999999999988,1.556600000000003 1.3752999999999993,1.5625 1.3761999999999972,1.568400000000004 1.3735,1.5707000000000022 1.370199999999997,1.5715000000000003 1.3667999999999978,1.5679999999999978 1.3628,1.5683000000000007 1.3580999999999968,1.5711000000000013 1.3530999999999977,1.5780999999999992 1.3390999999999984,1.5752999999999986 1.3391999999999982,1.5797000000000025 1.3435999999999986,1.581000000000003 1.3439999999999976,1.5829000000000022 1.3321999999999967,1.5805000000000007 1.3248999999999995,1.5838999999999999 1.3254999999999981,1.5859000000000023 1.3299999999999983,1.5874999999999986 1.3380999999999972,1.5874999999999986 1.3402999999999992,1.5893999999999977 1.3379999999999974,1.5914000000000001 1.3253999999999984,1.5940000000000012 1.3197999999999972,1.5992999999999995 1.318399999999997,1.5991 1.3177999999999983,1.5966000000000022 1.3143999999999991,1.595399999999998 1.311,1.5959000000000003 1.3033000000000001,1.6011999999999986 1.2958999999999996,1.6006 1.2857999999999983,1.610199999999999 1.2777999999999992,1.6071000000000026 1.2763999999999989,1.6159000000000034 1.2737999999999978,1.620200000000004 1.2689999999999984,1.6242000000000019 1.2635999999999967,1.6235 1.259999999999998,1.6253000000000029 1.2641999999999989,1.6325000000000003 1.2536999999999985,1.6366999999999976 1.2471999999999994,1.636499999999998 1.253499999999999,1.6385000000000005 1.2554999999999978,1.640900000000002 1.2449999999999974,1.6415000000000006 1.242799999999999,1.637900000000002 1.2391999999999967,1.6373999999999995 1.2350999999999992,1.6411999999999978 1.236699999999999,1.6458999999999975 1.2135999999999996,1.6491000000000042 1.2062999999999988,1.6550999999999974 1.2067999999999977,1.6569000000000003 1.215799999999998,1.6593000000000018 1.2193999999999967,1.6628000000000043 1.2225000000000001,1.6617000000000033 1.2255000000000003,1.6561000000000021 1.2301000000000002,1.6574999999999989 1.2313999999999972,1.6621999999999986 1.2227999999999994,1.669000000000004 1.2125999999999983,1.666800000000002 1.2098999999999975,1.6681999999999988 1.209699999999998,1.6724999999999994 1.2021999999999977,1.6687999999999974 1.195999999999998,1.6715000000000018 1.1808999999999976,1.6715000000000018 1.161999999999999,1.675699999999999 1.1613999999999969,1.6773999999999987 1.163999999999998,1.6781000000000006 1.1798000000000002,1.675699999999999 1.1801999999999992,1.677900000000001 1.1757999999999988,1.6822000000000017 1.1666999999999987,1.680500000000002 1.1647999999999996,1.6837000000000018 1.1699999999999982,1.6873000000000005 1.1815999999999995,1.6854000000000013 1.1820999999999984,1.6899000000000015 1.1914999999999978,1.6974000000000018 1.1900999999999975,1.700099999999999 1.1846999999999994,1.6998999999999995 1.1764999999999972,1.7045999999999992 1.1786999999999992,1.7137000000000029 1.1838999999999977,1.7224000000000004 1.1807999999999979,1.7242999999999995 1.1725999999999992,1.7214000000000027 1.1671999999999976,1.723700000000001 1.1667999999999985,1.7319999999999993 1.1709999999999994,1.7398999999999987 1.1699999999999982,1.7413999999999987 1.166999999999998,1.7413999999999987 1.1600000000000001,1.737400000000001 1.157399999999999,1.7376000000000005 1.159399999999998,1.742200000000004 1.165899999999997,1.7477000000000018 1.1668999999999983,1.751100000000001 1.1627999999999972,1.7539999999999978 1.149799999999999,1.755200000000002 1.1550999999999974,1.7614000000000019 1.154799999999998,1.764400000000002 1.149799999999999,1.7653000000000034 1.1359999999999992,1.7638000000000034 1.1343999999999994,1.7661999999999978 1.1390999999999991,1.7732000000000028 1.1310000000000002,1.7715999999999994 1.1257999999999981,1.7758000000000038 1.1261999999999972,1.7802000000000007 1.1297999999999995,1.7820999999999998 1.1359999999999992,1.780700000000003 1.1368999999999971,1.7845999999999975 1.1316999999999986,1.7882999999999996 1.1245999999999974,1.7849000000000004 1.1225999999999985,1.7901999999999987 1.1267999999999994,1.7912999999999997 1.1363999999999983,1.7897000000000034 1.1385999999999967,1.7916999999999987 1.1251999999999995,1.7978000000000023 1.1244999999999976,1.8003 1.128499999999999,1.8096000000000032 1.1260999999999974,1.811 1.1179999999999986,1.8091000000000008 1.118199999999998,1.8185000000000002 1.1115999999999993,1.8271999999999977 1.1078999999999972,1.829100000000004 1.0992999999999995,1.827300000000001 1.0920999999999985,1.8325000000000031 1.0853000000000002,1.8335000000000008 1.0830999999999982,1.8312000000000026 1.086199999999998,1.8229000000000042 1.0718999999999994,1.825400000000002 1.0699999999999967,1.8247 1.068399999999997,1.8190999999999988 1.0656999999999996,1.8179999999999978 1.0630999999999986,1.8218999999999994 1.0646999999999984,1.8303999999999974 1.0601999999999983,1.832100000000004 1.0607999999999969,1.8397000000000006 1.0590999999999973,1.8430999999999997 1.0551999999999992,1.8427000000000007 1.0568999999999988,1.8374999999999986 1.0534999999999997,1.8333000000000013 1.0499999999999972,1.8338999999999999 1.0446999999999989,1.8412000000000006 1.0416999999999987,1.8414000000000001 1.0380000000000003,1.8385999999999996 1.0318999999999967,1.8415000000000035 1.0265999999999984,1.8402999999999992 1.029,1.8351000000000042 1.0283999999999978,1.8333000000000013 1.0263999999999989,1.8331000000000017 1.0128999999999984,1.8368000000000038 1.018699999999999,1.8447999999999993 1.0159999999999982,1.8462999999999994 1.0100999999999978,1.843200000000003 1.0079999999999991,1.8438999999999979 1.007399999999997,1.8522999999999996 1.0022999999999982,1.8595000000000041 0.9963999999999977,1.852800000000002 0.9858999999999973,1.8506 0.9857999999999976,1.8522000000000034 0.9911999999999992,1.8582000000000036 0.9885999999999981,1.861699999999999 0.9848999999999997,1.8622999999999976 0.9796999999999976,1.8564000000000007 0.9818999999999996,1.8522999999999996 0.9798999999999971,1.8506 0.9763999999999982,1.8513999999999982 0.972999999999999,1.8545000000000016 0.9764999999999979,1.8586000000000027 0.9752999999999972,1.860599999999998 0.9615999999999971,1.8613 0.9625999999999983,1.8642000000000039 0.9691999999999972,1.865700000000004 0.9747999999999983,1.865400000000001 0.9784999999999968,1.8626000000000005 0.9816000000000003,1.8625000000000043 0.9956999999999994,1.8734000000000037 0.9930999999999983,1.875399999999999 0.9903999999999975,1.8729000000000013 0.985599999999998,1.8733000000000004 0.9849999999999994,1.8751000000000033 0.9871999999999979,1.879100000000001 0.985599999999998,1.8830999999999989 0.9771000000000001,1.8798999999999992 0.9750999999999976,1.8811000000000035 0.9811999999999976,1.9014000000000024 0.9775999999999989,1.9022000000000006 0.9753999999999969,1.9050000000000011 0.9732999999999983,1.903800000000004 0.9730999999999987,1.8999000000000024 0.9691999999999972,1.8984000000000023 0.9628999999999976,1.9016999999999982 0.9551999999999978,1.901600000000002 0.9543999999999997,1.9044999999999987 0.9635999999999996,1.9082000000000008 0.9636999999999993,1.9108000000000018 0.9614999999999974,1.911999999999999 0.9590999999999994,1.9117999999999995 0.9569999999999972,1.9080000000000013 0.9540999999999968,1.906800000000004 0.9484999999999992,1.908999999999999 0.9481000000000002,1.9162999999999997 0.9527000000000001,1.9183000000000021 0.9486999999999988,1.9209000000000032 0.9497,1.9279999999999973 0.9538999999999973,1.9307999999999979 0.9625999999999983,1.9326000000000008 0.9643999999999977,1.9421000000000035 0.9621999999999993,1.943800000000003 0.956199999999999,1.9420000000000002 0.9542000000000002,1.9446000000000012 0.9553999999999974,1.9517999999999986 0.9504999999999981,1.9551999999999978 0.9502999999999986,1.9581000000000017 0.9423999999999992,1.9562000000000026 0.9349999999999987,1.9605999999999995 0.9332999999999991,1.9665999999999997 0.941399999999998,1.9722000000000008 0.9376999999999995,1.980400000000003 0.9467999999999996,1.9812999999999974 0.9512,1.9842999999999975 0.9542999999999999,1.9902000000000015 0.9528999999999996,1.9971999999999994 0.9500999999999991,1.9990999999999985 0.9447999999999972,1.9962000000000018 0.9395999999999987,1.9969000000000037 0.9360999999999997,2.003999999999998 0.9285999999999994,2.006300000000003 0.9239999999999995,2.009900000000002 0.9205999999999968,2.020699999999998 0.9177999999999997,2.0223999999999975 0.9130000000000003,2.020400000000002 0.9118999999999993,2.0176000000000016 0.9170999999999978,2.0148999999999972 0.9164999999999992,2.011800000000001 0.9127999999999972,2.011499999999998 0.902199999999997,2.0157000000000025 0.8994,2.010300000000001 0.8950999999999993,2.0071999999999974 0.8923999999999985,2.011499999999998 0.8930999999999969,2.017400000000002 0.8972999999999978,2.0219999999999985 0.8959999999999972,2.023699999999998 0.8930999999999969,2.023600000000002 0.8877999999999986,2.0185999999999993 0.8890999999999991,2.014000000000003 0.8866999999999976,2.011800000000001 0.8729999999999976,2.014000000000003 0.871699999999997,2.0170999999999992 0.8759999999999977,2.0202000000000027 0.8737999999999992,2.022199999999998 0.8545999999999978,2.0189999999999984 0.8528999999999982,2.0229 0.8478999999999992,2.0274 0.8475999999999999,2.033200000000001 0.8371999999999993,2.0379000000000005 0.8344999999999985,2.041400000000003 0.8371999999999993,2.046900000000001 0.8354999999999997,2.049500000000002 0.8366999999999969,2.052500000000002 0.8469999999999978,2.058399999999999 0.8475000000000001,2.060200000000002 0.8440999999999974,2.060700000000004 0.8345999999999982,2.0551999999999992 0.8316999999999979,2.055399999999999 0.8304999999999971,2.0594000000000037 0.8243999999999971,2.064300000000003 0.8354999999999997,2.067 0.8369,2.069600000000001 0.8338999999999999,2.070599999999999 0.8258999999999972,2.0685000000000002 0.8199999999999967,2.073999999999998 0.8117999999999981,2.0771999999999977 0.8106999999999971,2.0807 0.8177999999999983,2.080199999999998 0.8196999999999974,2.082900000000002 0.8042999999999978,2.0878000000000014 0.8129999999999988,2.095700000000001 0.8016999999999967,2.0964000000000027 0.7981999999999978,2.0992999999999995 0.7974999999999994,2.1056000000000026 0.8084999999999987,2.113500000000002 0.8080999999999996,2.116500000000002 0.8036999999999992,2.1176999999999992 0.7845999999999975,2.1163999999999987 0.7533999999999992,2.1302999999999983 0.751299999999997,2.1340000000000003 0.754999999999999,2.1357 0.7489999999999988,2.138300000000001 0.7446999999999981,2.144300000000001 0.7417999999999978,2.152799999999999 0.7126999999999981,2.1615000000000038 0.7028999999999996,2.1721000000000004 0.694899999999997,2.1768 0.6951,2.1831999999999994 0.6875999999999998,2.194499999999998 0.684899999999999,2.1957999999999984 0.6799,2.1948000000000008 0.6750999999999969,2.1957999999999984 0.6742999999999988,2.2017000000000024 0.6769999999999996,2.206400000000002 0.6757999999999988,2.209600000000002 0.6768000000000001,2.213799999999999 0.6612999999999971,2.217100000000002 0.6534999999999975,2.2235999999999976 0.6587999999999994,2.225999999999999 0.6628999999999969,2.2342000000000013 0.6606999999999985,2.2349999999999994 0.6555999999999997,2.2327000000000012 0.6514999999999986,2.2331000000000003 0.6481999999999992,2.2372999999999976 0.6491999999999969,2.2417000000000016 0.6467999999999989,2.245899999999999 0.6333999999999982,2.2501000000000033 0.6302999999999983,2.252900000000004 0.6352999999999973,2.2550999999999988 0.6404999999999994,2.2642000000000024 0.6457999999999977,2.2661999999999978 0.6481999999999992,2.2648999999999972 0.6475999999999971,2.261099999999999 0.6489999999999974,2.259900000000002 0.6574999999999989,2.2622 0.6662999999999997,2.2567999999999984 0.674199999999999,2.2575000000000003 0.6755999999999993,2.2601000000000013 0.6747999999999976,2.2619000000000042 0.6655999999999977,2.2638000000000034 0.6609999999999978,2.269300000000001 0.6667999999999985,2.2783999999999978 0.6783000000000001,2.2809000000000026 0.6771999999999991,2.285499999999999 0.6727999999999987,2.286200000000001 0.6668999999999983,2.2819000000000003 0.6603999999999992,2.2836 0.660499999999999,2.2864000000000004 0.6661000000000001,2.2896 0.6596999999999973,2.2978999999999985 0.648299999999999,2.2937999999999974 0.6453999999999986,2.2941000000000003 0.6446999999999967,2.297000000000004 0.6481999999999992,2.301400000000001 0.6464999999999996,2.3051999999999992 0.6467999999999989,2.313600000000001 0.6430999999999969,2.3145999999999987 0.6341000000000001,2.312100000000001 0.6329999999999991,2.314 0.6346999999999987,2.3175999999999988 0.6292999999999971,2.3215000000000003 0.6300999999999988,2.3271999999999977 0.6219999999999999,2.3307 0.6135999999999981,2.331000000000003 0.6117999999999988,2.3324 0.6110999999999969,2.3397000000000006 0.621299999999998,2.3455999999999975 0.621699999999997,2.3492000000000033 0.6171999999999969,2.350500000000004 0.6022999999999996,2.347999999999999 0.5955999999999975,2.3526999999999987 0.5961999999999996,2.359099999999998 0.6030999999999977,2.365099999999998 0.6072999999999986,2.363900000000001 0.6107999999999976,2.3590000000000018 0.6146999999999991,2.358400000000003 0.627399999999998,2.3637999999999977 0.628499999999999,2.3674999999999997 0.6245999999999974,2.370899999999999 0.610199999999999,2.372 0.5892999999999979,2.382800000000003 0.5801999999999978,2.435299999999998 0.5310999999999986,2.4547000000000025 0.5584999999999987,2.4802999999999997 0.5458999999999996,2.4887999999999977 0.5216999999999992,2.500399999999999 0.5335000000000001,2.5050000000000026 0.539399999999997,2.5200999999999993 0.5463999999999984,2.5283000000000015 0.5153999999999996,2.524799999999999 0.5020999999999987,2.527300000000004 0.4971999999999994,2.533999999999999 0.511099999999999,2.5457000000000036 0.5041999999999973,2.549500000000002 0.492799999999999,2.5473 0.4834999999999994,2.540399999999998 0.4789999999999992,2.5390000000000015 0.4734999999999978,2.5396 0.47069999999999723,2.5416000000000025 0.46969999999999956,2.546199999999999 0.47250000000000014,2.555399999999999 0.4883999999999986,2.561799999999998 0.48919999999999675,2.564 0.4878,2.566200000000002 0.482999999999997,2.5671999999999997 0.47199999999999775,2.5662999999999982 0.46429999999999794,2.568100000000001 0.4624999999999986,2.5711000000000013 0.46389999999999887,2.5790000000000006 0.46030000000000015,2.5844000000000023 0.4458999999999982,2.5934000000000026 0.42579999999999885,2.602499999999999 0.42359999999999687,2.605699999999999 0.42220000000000013,2.6152000000000015 0.408299999999997,2.620600000000003 0.4052999999999969,2.6233000000000004 0.40719999999999956,2.6259999999999977 0.4173999999999971,2.6313999999999993 0.4209999999999994,2.636800000000001 0.42029999999999745,2.6407999999999987 0.4139999999999979,2.6488000000000014 0.4148999999999994,2.6531999999999982 0.4198999999999984,2.6616 0.4192999999999998,2.6632999999999996 0.4151999999999987,2.6631 0.40889999999999915,2.6572999999999993 0.40479999999999805,2.6576999999999984 0.403299999999998,2.6602999999999994 0.409399999999998,2.6694999999999993 0.4066999999999972,2.671599999999998 0.4004999999999974,2.6717999999999975 0.39569999999999794,2.6687999999999974 0.3882999999999974,2.658999999999999 0.3808999999999969,2.655300000000004 0.36629999999999896,2.6617999999999995 0.3481999999999985,2.6629000000000005 0.33919999999999817,2.6670000000000016 0.3354999999999997,2.669400000000003 0.3312999999999988,2.677900000000001 0.3316999999999979,2.6829000000000036 0.33519999999999683,2.685200000000002 0.3387999999999991,2.6858000000000004 0.3481999999999985,2.6807000000000016 0.3603999999999985,2.677100000000003 0.36859999999999715,2.6792000000000016 0.3719999999999999,2.6831999999999994 0.3658999999999999,2.6903000000000006 0.3552999999999997,2.6942999999999984 0.34140000000000015,2.6951000000000036 0.3263999999999996,2.6936999999999998 0.3155999999999999,2.697400000000002 0.3127999999999993,2.7009000000000043 0.31299999999999883,2.704100000000004 0.32599999999999696,2.7128000000000014 0.3299999999999983,2.7179 0.3295999999999992,2.7225000000000037 0.3251999999999988,2.727899999999998 0.3202999999999996,2.7310000000000016 0.311399999999999,2.7332000000000036 0.29529999999999745,2.7323999999999984 0.2934999999999981,2.730400000000003 0.29939999999999856,2.7216000000000022 0.3011999999999979,2.715600000000002 0.28919999999999746,2.713300000000004 0.2837999999999994,2.714199999999998 0.2744,2.721200000000003 0.27280000000000015,2.725200000000001 0.2743000000000002,2.7271 0.28359999999999985,2.7280999999999977 0.2890999999999977,2.732599999999998 0.2890999999999977,2.7348 0.26869999999999905,2.7342999999999975 0.2644999999999982,2.7357999999999976 0.2539999999999978,2.7443000000000026 0.24109999999999943,2.7515 0.23669999999999902,2.7637 0.23209999999999908,2.7674999999999983 0.22849999999999682,2.7670999999999992 0.22139999999999915,2.761400000000002 0.21189999999999998,2.7601000000000013 0.2093999999999987,2.7637 0.20979999999999777,2.768799999999999 0.20689999999999742,2.777700000000003 0.19639999999999702,2.779600000000002 0.19639999999999702,2.7821 0.18849999999999767,2.7879000000000005 0.17739999999999867,2.783200000000001 0.16669999999999874,2.7834000000000003 0.16529999999999845,2.7817000000000007 0.16559999999999775,2.777700000000003 0.16189999999999927,2.776600000000002 0.14649999999999963,2.7817000000000007 0.13889999999999958,2.7805999999999997 0.13359999999999772,2.7817000000000007 0.1153999999999975,2.7785999999999973 0.11389999999999745,2.7798000000000016 0.12299999999999756,2.7875000000000014 0.1109999999999971,2.7916999999999987 0.10670000000000002,2.7901999999999987 0.11199999999999832,2.7843000000000018 0.1106999999999978,2.780999999999999 0.10699999999999932,2.779200000000003 0.10149999999999793,2.7798000000000016 0.0887999999999991,2.7864000000000004 0.08479999999999777,2.7967999999999975 0.08230000000000004,2.7987000000000037 0.07659999999999911,2.7971000000000004 0.07229999999999848,2.7878000000000043 0.06729999999999947,2.786200000000001 0.06429999999999936,2.7830000000000013 0.0481999999999978,2.7800999999999974 0.04499999999999815,2.780999999999999 0.04299999999999926,2.785499999999999 0.046999999999997044,2.794400000000003 0.041499999999999204,2.797699999999999 0.037899999999996936,2.7958 0.03719999999999857,2.7918999999999983 0.03439999999999799,2.788499999999999 0.0259999999999998,2.785899999999998 0.024499999999999744,2.7866 0.02359999999999829,2.7905999999999977 0.016799999999999926,2.7952999999999975 0.012399999999999523,2.794800000000002 0.009899999999998244,2.7905999999999977 0.0,2.793599999999998 0.0045999999999999375,2.810600000000001 0.018799999999998818,2.8183000000000007 0.024399999999999977,2.8248000000000033 0.032399999999999096,2.8466999999999985 0.03569999999999851,2.8496000000000024 0.038999999999997925,2.8503000000000043 0.04449999999999932,2.8481000000000023 0.053199999999996805,2.8414 0.05749999999999744,2.8399 0.061899999999997846,2.8414 0.06419999999999959,2.845800000000004 0.06109999999999971,2.8590000000000018 0.06229999999999691,2.8648000000000025 0.06799999999999784,2.872100000000003 0.0691999999999986,2.880900000000004 0.07369999999999877,2.886000000000003 0.07809999999999917,2.8851999999999975 0.09429999999999694,2.8689999999999998 0.11270000000000024,2.8556000000000026 0.13129999999999953,2.8518000000000043 0.1366999999999976,2.8451999999999984 0.15139999999999887,2.810700000000004 0.15789999999999793,2.806899999999999 0.16460000000000008,2.8126999999999995 0.17029999999999745,2.8244000000000042 0.1988999999999983,2.8263999999999996 0.20679999999999765,2.838700000000003 0.20749999999999957,2.873899999999999 0.19879999999999853,2.881999999999998 0.18239999999999768,2.8813999999999993 0.1681999999999988,2.8873999999999995 0.10519999999999996,2.928200000000004 0.09759999999999991,2.9348000000000027 0.0954999999999977,2.9406999999999996 0.10319999999999752,2.9429000000000016 0.11419999999999675,2.9412999999999982 0.12839999999999918,2.935299999999998 0.134999999999998,2.9345 0.15039999999999765,2.9380999999999986 0.16599999999999682,2.945999999999998 0.18039999999999878,2.9496000000000038 0.20349999999999824,2.950099999999999 0.2265999999999977,2.9528000000000034 0.25099999999999767,2.958500000000001 0.2597999999999985,2.9590999999999994 0.2673999999999985,2.9553999999999974 0.2715999999999994,2.9465000000000003 0.2755999999999972,2.926700000000004 0.28419999999999845,2.915700000000001 0.3069999999999986,2.9037000000000006 0.33759999999999835,2.898299999999999 0.3617999999999988,2.8965999999999994 0.38159999999999883,2.898600000000002 0.3904999999999994,2.9035999999999973 0.39509999999999934,2.9116 0.40179999999999794,2.9174000000000007 0.4305999999999983,2.9258999999999986 0.43409999999999727,2.9331999999999994 0.42769999999999797,2.9435000000000002 0.41589999999999705,2.9560999999999993 0.4170999999999978,2.959699999999998 0.4248999999999974,2.9639999999999986 0.4504999999999981,2.9726 0.45479999999999876,2.9703000000000017 0.4620999999999995,2.955600000000004 0.47279999999999944,2.942300000000003 0.49129999999999896,2.9326000000000008 0.5030999999999999,2.9207000000000036 0.5127999999999986,2.9168999999999983 0.5292999999999992,2.916000000000004 0.5536999999999992,2.921599999999998 0.5758999999999972,2.929400000000001 0.5845999999999982,2.9284999999999997 0.6082000000000001,2.9076999999999984 0.6213999999999977,2.906100000000002 0.6412999999999975,2.9102000000000032 0.6634999999999991,2.9172999999999973 0.6757999999999988,2.9266000000000005 0.6942999999999984,2.9542 0.7025999999999968,2.9746000000000024 0.7126999999999981,2.9818 0.7281999999999975,2.9853000000000023 0.7378999999999998,2.979300000000002 0.7517999999999994,2.963000000000001 0.7556999999999974,2.9483000000000033 0.759999999999998,2.943800000000003 0.795499999999997,2.9536000000000016 0.8338999999999999,2.952300000000001 0.8429000000000002,2.9566000000000017 0.8502999999999972,2.9821000000000026 0.8757999999999981,2.9868000000000023 0.8902999999999999,2.9932000000000016 0.9257999999999988,3.000700000000002 0.9447999999999972,3.006999999999998 0.9583999999999975,3.017800000000001 0.9670999999999985,3.022500000000001 0.9819999999999993,3.0234000000000023 0.9826999999999977,3.020000000000003 0.9791999999999987,3.009999999999998 0.9782999999999973,3.000399999999999 0.9857999999999976,2.9949000000000012 1.021099999999997,2.9818 1.0325999999999986,2.9793999999999983 1.0612999999999992,2.976700000000001 1.1038999999999994,2.9879000000000033 1.1257999999999981,2.9915999999999983 1.1422999999999988,2.991799999999998 1.1732999999999976,2.9817000000000036 1.186399999999999,2.9731000000000023 1.2067999999999977,2.9547999999999988 1.2319999999999993,2.950400000000002 1.2513999999999967,2.942999999999998 1.2581999999999987,2.9375 1.2658999999999985,2.9237000000000037 1.258899999999997,2.910899999999998 1.2400999999999982,2.9009 1.2496999999999971,2.889499999999998 1.2682000000000002,2.8842 1.3055999999999983,2.8618000000000023 1.3238999999999983,2.862400000000001 1.3423999999999978,2.8571000000000026 1.3822999999999972,2.8583 1.381499999999999,2.859500000000004 1.4019999999999975,2.8607000000000014 1.4286999999999992,2.8603000000000023 1.4408999999999992,2.8584999999999994 1.4565999999999981,2.852899999999998 1.4693999999999967,2.8451999999999984 1.4751999999999974,2.835000000000001 1.475999999999999,2.8181999999999974 1.4620999999999995,2.7866 1.4625999999999983,2.7802000000000007 1.470799999999997,2.7706000000000017 1.4757999999999996,2.768100000000004 1.4863,2.7672999999999988 1.5123999999999995,2.7772000000000006 1.5228000000000002,2.7835000000000036 1.5266999999999982,2.7952999999999975 1.5298999999999978,2.797000000000004 1.5582999999999991,2.7918999999999983 1.5672999999999995,2.7886000000000024 1.564,2.7668000000000035 1.567899999999998,2.7561000000000035 1.5743999999999971,2.7468000000000004 1.5838999999999999,2.7413999999999987 1.5965999999999987,2.741900000000001 1.6350999999999978,2.7531999999999996 1.6775999999999982,2.772100000000002 1.6906999999999996,2.7730000000000032 1.6968999999999994,2.769600000000004 1.7043,2.7682 1.711699999999997,2.7708999999999975 1.7177999999999969,2.7781999999999982 1.7249999999999979,2.782499999999999 1.7330999999999968,2.781100000000002 1.7402999999999977,2.777000000000001 1.750399999999999,2.758099999999999 1.7480999999999973,2.7372999999999976 1.7419999999999973,2.7250000000000014 1.7363999999999997,2.7182999999999993 1.7256,2.7118000000000038 1.703599999999998,2.701999999999998 1.6931999999999974,2.695300000000003 1.6896999999999984,2.689700000000002 1.6890999999999998,2.682000000000002 1.6910999999999987,2.672699999999999 1.6952999999999996,2.6692000000000036 1.7062999999999988,2.6662999999999997 1.7155999999999985,2.666400000000003 1.7328999999999972,2.670099999999998 1.7413999999999987,2.6739000000000033 1.747799999999998,2.680799999999998 1.749299999999998,2.6961000000000013 1.7598999999999982,2.7088000000000036 1.7731999999999992,2.707799999999999 1.8050999999999995,2.709000000000003 1.8086999999999982,2.707100000000004 1.8126999999999995,2.7021000000000015 1.8201999999999998,2.686300000000003 1.819899999999997,2.6805999999999983 1.8084999999999987,2.6636999999999986 1.8081999999999994,2.658300000000004 1.812299999999997,2.6480000000000032 1.828199999999999,2.621600000000001 1.8348999999999975,2.613599999999998 1.8467999999999982,2.6068 1.862599999999997,2.6007000000000033 1.875399999999999,2.597300000000004 1.8804999999999978,2.5977999999999994 1.8811,2.6022999999999996 1.8780000000000001,2.606900000000003 1.8796,2.644199999999998 1.8883999999999972,2.6507000000000005 1.9117999999999995,2.6602999999999994 1.9120999999999988,2.6661 1.908299999999997,2.677199999999999 1.917399999999997,2.6820999999999984 1.921999999999997,2.687100000000001 1.9232999999999976,2.694900000000004 1.9396999999999984,2.7034999999999982 1.9558999999999997,2.7053999999999974 1.9599999999999973,2.701599999999999 1.960799999999999,2.6950000000000003 1.9684999999999988,2.6961999999999975 1.9730999999999987,2.6998000000000033 1.9808999999999983,2.7025000000000006 1.9895999999999994,2.701599999999999 2.0078999999999994,2.695300000000003 2.0173999999999985,2.6858000000000004 2.029,2.682299999999998 2.034299999999998,2.6784999999999997 2.0595,2.6784999999999997 2.063699999999997,2.6762000000000015 2.0655,2.6696000000000026 2.0784999999999982,2.6662999999999997 2.0916999999999994,2.668199999999999 2.100299999999997,2.664999999999999 2.113699999999998,2.663400000000003 2.1389999999999993,2.6713000000000022 2.149899999999999,2.6709999999999994 2.1595999999999975,2.668599999999998 2.168099999999999,2.6640000000000015 2.1687999999999974,2.6563000000000017 2.182199999999998,2.661999999999999 2.215,2.661200000000001 2.2332,2.654899999999998 2.2348999999999997,2.646799999999999 2.2363,2.6159999999999997 2.2323999999999984,2.607300000000002 2.2341999999999977,2.599899999999998 2.243599999999997,2.5938000000000017 2.243299999999998,2.588700000000003 2.2347,2.572800000000001 2.2342999999999975,2.566200000000002 2.2445999999999984,2.5589000000000013 2.255499999999998,2.5553000000000026 2.273199999999999,2.5424000000000007 2.2744999999999997,2.5334000000000003 2.278299999999998,2.5253000000000014 2.2887999999999984,2.5161000000000016 2.3090999999999973,2.4924000000000035 2.315999999999999,2.4894000000000034 2.322499999999998,2.4893 2.3553999999999995,2.5127000000000024 2.3618999999999986,2.5134000000000043 2.3676999999999992,2.5122 2.3802999999999983,2.4998000000000005 2.4076999999999984,2.4821000000000026 2.422599999999999,2.4776000000000025 2.4553999999999974,2.4753000000000043 2.4726999999999997,2.4797999999999973 2.474999999999998,2.4848 2.4751999999999974,2.4894999999999996 2.4726999999999997,2.4975000000000023 2.475399999999997,2.498899999999999 2.4791999999999987,2.498100000000001 2.4864999999999995,2.4908 2.489699999999999,2.491500000000002 2.4909999999999997,2.4969000000000037 2.4894999999999996,2.5005000000000024 2.477899999999998,2.508200000000002 2.476899999999997,2.512900000000002 2.4818999999999996,2.5157999999999987 2.5093999999999994,2.5185999999999993 2.5198,2.5228000000000037 2.527799999999999,2.5208999999999975 2.5426,2.5307999999999993 2.562999999999999,2.5302000000000007 2.5671999999999997,2.5272000000000006 2.5696999999999974,2.5214 2.5692999999999984,2.5073000000000008 2.5795999999999992,2.4772000000000034 2.5845999999999982,2.4669999999999987 2.581199999999999,2.4427999999999983 2.5839999999999996,2.429400000000001 2.5879999999999974,2.4207000000000036 2.594899999999999,2.4181000000000026 2.6007999999999996,2.4179999999999993 2.6305999999999976,2.4277000000000015 2.6457999999999977,2.4303000000000026 2.653799999999997,2.4294999999999973 2.6557999999999993,2.4251000000000005 2.6555999999999997,2.420099999999998 2.6485999999999983,2.4176 2.6241999999999983,2.3963000000000036 2.6066000000000003,2.3836000000000013 2.5958999999999968,2.3526999999999987 2.599999999999998,2.344999999999999 2.6083999999999996,2.339500000000001 2.612499999999997,2.3337000000000003 2.6188000000000002,2.331000000000003 2.6357,2.339800000000004 2.647699999999997,2.343600000000002 2.6594999999999978,2.3442000000000007 2.6657999999999973,2.3404000000000025 2.6687999999999974,2.334299999999999 2.650699999999997,2.3055999999999983 2.6464,2.2912000000000035 2.627299999999998,2.280700000000003 2.612499999999997,2.2689999999999984 2.6008999999999993,2.2571999999999974 2.599999999999998,2.2479000000000013 2.6102999999999987,2.2340000000000018 2.6169999999999973,2.2276999999999987 2.613199999999999,2.209000000000003 2.6019999999999968,2.1940000000000026 2.6007,2.1861000000000033 2.6174999999999997,2.177100000000003 2.6205999999999996,2.173099999999998 2.6077999999999975,2.1595999999999975 2.6041999999999987,2.1484000000000023 2.606499999999997,2.136800000000001 2.5901999999999994,2.1270000000000024 2.5886999999999993,2.1133000000000024 2.5798999999999985,2.104700000000001 2.5524999999999984,2.1011000000000024 2.5158999999999985,2.0915000000000035 2.510499999999997,2.088700000000003 2.5123999999999995,2.0822000000000003 2.5174999999999983,2.0745000000000005 2.5336,2.060600000000001 2.538499999999999,2.0467999999999975 2.5504999999999995,2.0397000000000034 2.5589999999999975,2.0478000000000023 2.5635999999999974,2.050200000000004 2.5666999999999973,2.0497000000000014 2.5681999999999974,2.044000000000004 2.567499999999999,2.031100000000002 2.5718999999999994,2.027000000000001 2.5736999999999988,2.0148999999999972 2.5574999999999974,2.0052999999999983 2.5488999999999997,2.003300000000003 2.547699999999999,2.000399999999999 2.5528999999999975,1.9960000000000022 2.5635999999999974,1.9973000000000027 2.570899999999998,1.9934999999999974 2.5685000000000002,1.9834999999999994 2.570899999999998,1.9765999999999977 2.5782999999999987,1.9731999999999985 2.5868,1.9731000000000023 2.594899999999999,1.9765999999999977 2.614699999999999,1.9939999999999998 2.6210999999999984,1.9968000000000004 2.6274999999999977,1.995200000000004 2.6298999999999992,1.9864999999999995 2.6305999999999976,1.9594000000000023 2.6357999999999997,1.9572000000000003 2.6443999999999974,1.9592000000000027 2.6564999999999976,1.9690999999999974 2.6850999999999985,1.9799000000000007 2.6967999999999996,1.980400000000003 2.701999999999998,1.978200000000001 2.7060999999999993,1.9716000000000022 2.718,1.9168999999999983 2.7246999999999986,1.9095000000000013 2.737599999999997,1.9136000000000024 2.766599999999997,1.9192999999999998 2.7770999999999972,1.9172999999999973 2.784399999999998,1.9121999999999986 2.786299999999997,1.905300000000004 2.7826999999999984,1.8945000000000007 2.774899999999999,1.8845000000000027 2.765099999999997,1.8770999999999987 2.7715999999999994,1.852400000000003 2.7765999999999984,1.8436000000000021 2.7866,1.8408999999999978 2.8073999999999977,1.8430999999999997 2.8104999999999976,1.8408999999999978 2.810399999999998,1.837600000000002 2.8134999999999977,1.8336000000000041 2.821999999999999,1.8335000000000008 2.845799999999997,1.8445999999999998 2.8628,1.8451000000000022 2.869799999999998,1.8489000000000004 2.8767999999999994,1.8635999999999981 2.883499999999998,1.8733000000000004 2.8858999999999995,1.8800999999999988 2.8817999999999984,1.8849000000000018 2.8810000000000002,1.8907000000000025 2.882299999999997,1.8979 2.8877999999999986,1.9014000000000024 2.9011999999999993,1.9048000000000016 2.9277999999999977,1.9046999999999983 2.940299999999997,1.9117000000000033 2.9487999999999985,1.9123000000000019 2.9578999999999986,1.9114000000000004 2.9639999999999986,1.9057999999999993 2.9685999999999986,1.8992000000000004 2.970299999999998,1.889800000000001 2.9697999999999993,1.876800000000003 2.976399999999998,1.853900000000003 2.979599999999998,1.8275000000000006 2.988299999999999,1.8053000000000026 2.9830999999999968,1.7967000000000013 2.9521999999999977,1.792500000000004 2.9456999999999987,1.7894000000000005 2.939399999999999,1.7772000000000006 2.9472999999999985,1.7580999999999989 2.970799999999997,1.683399999999999 2.969899999999999,1.6751000000000005 2.9575999999999993,1.6720000000000041 2.9426999999999985,1.671599999999998 2.912899999999997,1.6662999999999997 2.9011999999999993,1.6657999999999973 2.893699999999999,1.6640999999999977 2.886599999999998,1.6587999999999994 2.887999999999998,1.652700000000003 2.8950999999999993,1.6448999999999998 2.9186999999999976,1.626100000000001 2.9247999999999976,1.618000000000002 2.9309999999999974,1.6135999999999981 2.9374000000000002,1.6142000000000039 2.9422999999999995,1.6180999999999983 2.9496,1.6287999999999982 2.968399999999999,1.6357 2.989099999999997,1.6381999999999977 2.9985999999999997,1.6358999999999995 3.0009999999999977,1.6315000000000026 3.0061999999999998,1.6021 3.0177999999999976,1.5863000000000014 2.995799999999999,1.579500000000003 2.9902999999999977,1.5735000000000028 2.986699999999999,1.5638000000000005 2.9837999999999987,1.5026999999999973 2.967799999999997,1.4975999999999985 2.9568999999999974,1.4904999999999973 2.954099999999997,1.4862000000000037 2.958099999999998,1.4810999999999979 2.9674999999999976,1.4780000000000015 2.9771,1.480000000000004 3.004999999999999,1.490400000000001 3.016599999999997,1.4894000000000034 3.021699999999999,1.4857000000000014 3.026699999999998,1.4656999999999982 3.031699999999997,1.4590999999999994 3.068999999999999,1.453400000000002 3.0794999999999995,1.4532000000000025 3.0864999999999974,1.4558999999999997 3.0908999999999978,1.4602000000000004 3.0977999999999994,1.460799999999999 3.107099999999999,1.4570000000000007 3.113299999999999,1.4528999999999996 3.116799999999998,1.4470000000000027 3.1281,1.402000000000001 3.131599999999999,1.3976000000000042 3.1393999999999984,1.3941000000000017 3.1747999999999976,1.3960000000000008 3.2014999999999993,1.4040999999999997 3.225299999999997,1.4069000000000003 3.2521999999999984,1.4172000000000011 3.2622,1.4166000000000025 3.2662999999999975,1.4136999999999986 3.2718999999999987,1.3973000000000013 3.2608999999999995,1.3877000000000024 3.259599999999999,1.3826999999999998 3.261599999999998,1.378700000000002 3.2729,1.3727000000000018 3.276799999999998,1.365700000000004 3.282899999999998,1.3616000000000028 3.2907999999999973,1.3614000000000033 3.302599999999998,1.3659000000000034 3.309199999999997,1.3719000000000037 3.321499999999997,1.3755999999999986 3.3278,1.3740000000000023 3.332099999999997,1.3656000000000006 3.338799999999999,1.3622000000000014 3.350399999999997,1.3620000000000019 3.353399999999997,1.3582999999999998 3.3531999999999975,1.3539999999999992 3.350999999999999,1.3504000000000005 3.3298999999999985,1.3500999999999976 3.3212999999999973,1.3474000000000004 3.3173999999999992,1.3434999999999988 3.3187999999999995,1.339100000000002 3.3227999999999973,1.3344000000000023 3.343,1.3137000000000043 3.362599999999997,1.3008000000000024 3.357899999999997,1.2967999999999975 3.3506,1.261800000000001 3.3485999999999976,1.2378 3.3515999999999977,1.2250999999999976 3.3344999999999985,1.2013999999999996 3.3264999999999993,1.1854000000000013 3.334199999999999,1.1666999999999987 3.3458999999999968,1.1263000000000005 3.3314999999999984,1.1280000000000001 3.3334999999999972,1.1163000000000025 3.3294999999999995,1.1122999999999976 3.3294999999999995,1.106900000000003 3.3339,1.1036000000000001 3.3321999999999967,1.0962999999999994 3.321499999999997,1.091300000000004 3.2891999999999975,1.0929000000000002 3.274799999999999,1.0893000000000015 3.2730999999999995,1.0863000000000014 3.2724999999999973,1.076900000000002 3.296499999999998,1.0504999999999995 3.307199999999998,1.0485000000000042 3.3151999999999973,1.0369000000000028 3.3248999999999995,1.0345000000000013 3.3395999999999972,1.0442000000000036 3.347899999999999,1.0469000000000008 3.3508999999999993,1.042900000000003 3.3461999999999996,1.0401999999999987 3.3374999999999986,1.0279000000000025 3.349899999999998,1.0302000000000007 3.3588999999999984,1.0279000000000025 3.363599999999998,1.0371999999999986 3.367199999999997,1.0388999999999982 3.372899999999998,1.0379000000000005 3.3786999999999985,1.0298000000000016 3.3749000000000002,1.0228000000000037 3.381899999999998,1.0204999999999984 3.3888999999999996,1.0204999999999984 3.395299999999999,1.0172000000000025 3.381899999999998,1.0131999999999977 3.380899999999997,1.008499999999998 3.3848999999999982,1.0067999999999984 3.391599999999997,1.008499999999998 3.4045999999999985,1.0078000000000031 3.4075999999999986,1.0045000000000002 3.401299999999999,1.0007999999999981 3.3796,0.997799999999998 3.3882999999999974,0.991100000000003 3.400599999999997,0.9908000000000001 3.4162999999999997,0.981500000000004 3.435699999999997,0.9791000000000025 3.438699999999997,0.9774999999999991 3.437299999999997,0.9690999999999974 3.4406999999999996,0.9658000000000015 3.456699999999998,0.9654999999999987 3.4609999999999985,0.9697999999999993 3.4833999999999996,0.9705000000000013 3.5046999999999997,0.9631000000000043 3.512699999999999,0.9521000000000015 3.5214,0.9523999999999972 3.5337999999999994,0.9634 3.5383999999999993,0.9634 3.542399999999997,0.960799999999999 3.534799999999997,0.9530999999999992 3.535899999999998,0.9517999999999986 3.5274,0.9389000000000038 3.495899999999999,0.9305999999999983 3.479899999999997,0.9202000000000012 3.471799999999998,0.9245000000000019 3.466199999999997,0.9320999999999984 3.4532999999999987,0.9365000000000023 3.4304999999999986,0.9337000000000018 3.4146,0.9266000000000005 3.4022999999999968,0.9185999999999979 3.389099999999999,0.9155999999999977 3.3397999999999968,0.9331999999999994 3.325599999999998,0.9359999999999999 3.2866999999999997,0.9194000000000031 3.2744,0.9114000000000004 3.2728,0.901600000000002 3.264199999999999,0.8976000000000042 3.2394999999999996,0.9046999999999983 3.2302,0.9106999999999985 3.218499999999999,0.914200000000001 3.207799999999999,0.915300000000002 3.1996,0.9196000000000026 3.1949999999999967,0.9245999999999981 3.197099999999999,0.9451999999999998 3.1763999999999974,0.963000000000001 3.1718999999999973,0.9697000000000031 3.1723,0.9795999999999978 3.175099999999997,0.9885999999999981 3.1668999999999983,0.993700000000004 3.154,0.9981000000000009 3.1457999999999977,1.0031999999999996 3.1328999999999994,1.0084000000000017 3.1256999999999984,1.0069000000000017 3.1205999999999996,1.0012000000000043 3.1204,0.996299999999998 3.1249000000000002,0.9879000000000033 3.123299999999997,0.9780000000000015 3.115699999999997,0.9675000000000011 3.0870999999999995,0.9680000000000035 3.078599999999998,0.9665000000000035 3.0738999999999983,0.9682999999999993 3.068299999999997,0.9757999999999996 3.0600999999999985,0.9801000000000002 3.0527999999999977,0.9769000000000005 3.0513999999999974,0.9720000000000013 3.0528999999999975,0.9497 3.0566999999999993,0.9256999999999991 3.0610999999999997,0.9172999999999973 3.0657999999999994,0.9131 3.073999999999998,0.9113000000000042 3.0786999999999978,0.9078999999999979 3.079699999999999,0.9038000000000039 3.0590999999999973,0.8967000000000027 2.985199999999999,0.8956000000000017 2.9720999999999975,0.8975000000000009 2.9573,0.9143000000000043 2.9391999999999996,0.941900000000004 2.9285999999999994,0.9453999999999994 2.915499999999998,0.9455999999999989 2.9071999999999996,0.9474000000000018 2.8841,0.9675999999999974 2.877299999999998,0.9768000000000043 2.8811999999999998,0.9849999999999994 2.8861999999999988,0.9907000000000039 2.887599999999999,0.9981000000000009 2.866699999999998,1.0140999999999991 2.8314999999999984,1.0304000000000002 2.826599999999999,1.0279999999999987 2.7799999999999976,0.9941000000000031 2.783299999999997,0.9857999999999976 2.7901999999999987,0.9791000000000025 2.794599999999999,0.9682999999999993 2.787399999999998,0.9660000000000011 2.7561,0.993700000000004 2.753999999999998,1.0012000000000043 2.754399999999997,1.0127000000000024 2.7521999999999984,1.0176999999999978 2.745199999999997,1.0228000000000037 2.728999999999999,1.0395000000000039 2.706199999999999,1.0358000000000018 2.7059999999999995,1.0300000000000011 2.717399999999998,1.0142000000000024 2.7099999999999973,1.0076999999999998 2.6992999999999974,1.0078000000000031 2.6931999999999974,1.0046000000000035 2.6976999999999975,0.9971000000000032 2.6973999999999982,0.988900000000001 2.688799999999997,0.9823999999999984 2.6862999999999992,0.9782999999999973 2.693399999999997,0.9765999999999977 2.7002999999999986,0.9690000000000012 2.6977999999999973,0.964100000000002 2.702099999999998,0.9517000000000024 2.6911999999999985,0.9444000000000017 2.6784,0.954500000000003 2.6531999999999982,0.9500000000000028 2.6469999999999985,0.9451000000000036 2.636599999999998,0.9172000000000011 2.6305999999999976,0.9164999999999992 2.604599999999998,0.9235000000000042 2.595299999999998,0.9301999999999992 2.595399999999998,0.9359999999999999 2.6015999999999977,0.9425000000000026 2.6129,0.959699999999998 2.6148999999999987,0.9836000000000027 2.6234,0.990000000000002 2.6271999999999984,0.9949000000000012 2.626199999999997,1.0016000000000034 2.6205,1.0091000000000037 2.6374999999999993,1.0195000000000007 2.6412999999999975,1.0253000000000014 2.638099999999998,1.037700000000001 2.633499999999998,1.0435000000000016 2.6286999999999985,1.0427999999999997 2.626299999999997,1.040300000000002 2.617899999999999,1.0420999999999978 2.6158,1.0488 2.6160999999999994,1.0578000000000003 2.622899999999998,1.0850000000000009 2.620899999999999,1.096499999999999 2.5737999999999985,1.0823999999999998 2.566899999999997,1.0836000000000041 2.561399999999999,1.0977000000000032 2.554199999999998,1.0955999999999975 2.546099999999999,1.0775000000000006 2.537799999999997,1.0651999999999973 2.529299999999999,1.0587000000000018 2.511999999999997,1.057700000000004 2.476899999999997,1.0615999999999985 2.4681999999999995,1.0611000000000033 2.450199999999999,1.053600000000003 2.4401999999999973,1.0538000000000025 2.4329,1.0497000000000014 2.4278999999999975,1.0367999999999995 2.407799999999998,1.028100000000002 2.3638999999999974,1.0313999999999979 2.364699999999999,1.0197000000000003 2.3821999999999974,1.020699999999998 2.3795,1.0198999999999998 2.375399999999999,1.001800000000003 2.3537,0.9988000000000028 2.321499999999997,0.9998000000000005 2.312899999999999,0.9938000000000002 2.315399999999997,0.9909000000000034 2.3186999999999998,0.9795000000000016 2.3414,0.9292000000000016 2.3505000000000003,0.8967999999999989 2.3507,0.8806000000000012 2.3674,0.8592999999999975 2.342699999999997,0.842800000000004 2.342799999999997,0.8374000000000024 2.3344999999999985,0.8323000000000036 2.3263999999999996,0.8220000000000027 2.3260999999999967,0.8134999999999977 2.3268999999999984,0.8111000000000033 2.335099999999997,0.8049999999999997 2.3964,0.7631999999999977 2.4346999999999994,0.7394000000000034 2.4362999999999992,0.7342999999999975 2.4147999999999996,0.7182999999999993 2.4155999999999977,0.7126000000000019 2.393699999999999,0.6964000000000041 2.3752999999999993,0.676400000000001 2.3652999999999977,0.6689000000000007 2.357199999999999,0.6694000000000031 2.3425999999999974,0.6587000000000032 2.3364999999999974,0.6413000000000011 2.336699999999997,0.634999999999998 2.3443999999999967,0.6345999999999989 2.3523999999999994,0.6217000000000041 2.376899999999999,0.6022999999999996 2.3774999999999977,0.5900999999999996 2.3705,0.5658999999999992 2.3627000000000002,0.5600000000000023 2.3669999999999973,0.5568000000000026 2.3568,0.5457000000000036 2.3328999999999986,0.5386000000000024 2.2281999999999975,0.5208999999999975 2.212699999999998,0.5178000000000011 2.2007999999999974,0.5134000000000043 2.1728999999999985,0.5104000000000042 2.1632,0.49900000000000233 2.148199999999999,0.49049999999999727 2.1443999999999974,0.4831000000000003 2.1479,0.4776999999999987 2.1488999999999976,0.4707000000000008 2.1457999999999977,0.46580000000000155 2.143799999999999,0.4555000000000007 2.154899999999998,0.4269000000000034 2.1607999999999983,0.3995999999999995 2.1668999999999983,0.3854000000000042 "></polygon>
    </svg>
    