
    <svg width="3.8662000000000005" height="2.8310999999999993" xmlns="http://www.w3.org/2000/svg" xmlns:xlink="http://www.w3.org/1999/xlink" style="transform: scale(1, -1)">
        <polygon points="2.6463000000000005,0.033099999999997465 2.6258000000000004,0.034300000000001774 2.5988,0.038599999999995305 2.5439000000000003,0.03170000000000073 2.5204,0.04579999999999984 2.4951000000000003,0.037700000000000955 2.4718000000000004,0.040500000000001535 2.4526,0.036599999999999966 2.4326000000000003,0.04629999999999512 2.4299000000000004,0.045999999999999375 2.4224,0.05639999999999645 2.4126,0.061499999999995225 2.4006000000000003,0.055999999999997385 2.3938,0.054999999999999716 2.3716000000000004,0.03920000000000101 2.3460000000000005,0.039299999999997226 2.3346000000000005,0.034799999999997056 2.3303,0.037599999999997635 2.3305000000000002,0.03960000000000008 2.3444,0.06239999999999668 2.3403000000000005,0.08189999999999742 2.3311000000000006,0.08520000000000039 2.3117000000000005,0.09609999999999985 2.2997,0.09850000000000136 2.2917,0.10609999999999786 2.2889000000000004,0.11339999999999861 2.2867,0.1284999999999954 2.2871,0.1366000000000014 2.2912000000000003,0.1490000000000009 2.3094000000000006,0.15679999999999694 2.3212000000000006,0.15690000000000026 2.3269000000000006,0.15859999999999985 2.3427000000000002,0.18260000000000076 2.3464000000000005,0.18439999999999657 2.3627,0.18560000000000088 2.3676,0.19189999999999685 2.3714,0.2010000000000005 2.3965,0.2295000000000016 2.3964000000000003,0.23290000000000077 2.3911000000000002,0.2359000000000009 2.3769000000000005,0.23270000000000124 2.3702,0.23290000000000077 2.3642,0.2364999999999995 2.3649999999999998,0.24049999999999727 2.4023,0.26890000000000214 2.4099,0.28770000000000095 2.4065,0.28779999999999717 2.4070000000000005,0.2903999999999982 2.4137,0.30169999999999675 2.4091,0.30630000000000024 2.4028000000000005,0.30919999999999703 2.4033,0.31400000000000006 2.4219000000000004,0.3415999999999997 2.4354999999999998,0.33859999999999957 2.4411,0.3403999999999954 2.4390000000000005,0.3492999999999995 2.4453,0.35730000000000217 2.4399,0.3656000000000006 2.4424000000000006,0.37010000000000076 2.4505000000000003,0.37239999999999895 2.4621,0.37109999999999843 2.4739,0.3768999999999991 2.4756000000000005,0.3806999999999974 2.4723,0.38569999999999993 2.4585000000000004,0.3885999999999967 2.4549,0.3913999999999973 2.4563,0.3973000000000013 2.4642000000000004,0.4057999999999993 2.4828000000000006,0.41149999999999665 2.4979999999999998,0.42249999999999943 2.4825000000000004,0.4305000000000021 2.4733000000000005,0.4450000000000003 2.4672000000000005,0.4451999999999998 2.462,0.44180000000000064 2.4609,0.43909999999999627 2.4219000000000004,0.436399999999999 2.4253000000000005,0.44200000000000017 2.4198,0.4461000000000013 2.4233,0.4510999999999967 2.4209,0.45420000000000016 2.4219000000000004,0.4577999999999989 2.4023,0.46410000000000196 2.3884000000000003,0.46649999999999636 2.3619,0.4585000000000008 2.3488,0.4577999999999989 2.2946000000000004,0.46289999999999765 2.2908000000000004,0.47639999999999816 2.2161000000000004,0.49340000000000117 2.1995,0.5052999999999983 2.1907,0.5429999999999993 2.1521000000000003,0.5694999999999979 2.1353000000000004,0.5741999999999976 2.1287,0.5739000000000019 2.1199,0.5644999999999953 2.087,0.5552999999999955 2.0808000000000004,0.5503999999999962 2.0722,0.5477999999999952 2.0599000000000003,0.5375999999999976 1.9968,0.5493999999999986 1.9733000000000005,0.540300000000002 1.9186,0.5411000000000001 1.9041000000000001,0.5433999999999983 1.8797000000000001,0.5383999999999958 1.8694000000000002,0.5435999999999979 1.8676,0.5495999999999981 1.8767999999999998,0.5643999999999991 1.8849000000000005,0.5818000000000012 1.8721999999999999,0.5895999999999972 1.8492000000000002,0.6000000000000014 1.8205000000000005,0.5970999999999975 1.8167000000000004,0.5951000000000022 1.7759000000000005,0.5919999999999987 1.7616,0.6366000000000014 1.7150000000000003,0.671599999999998 1.7158000000000002,0.6811999999999969 1.7367000000000004,0.7049999999999983 1.7340000000000004,0.7254000000000005 1.7212999999999998,0.7434000000000012 1.6902000000000004,0.7479999999999976 1.6764000000000006,0.7618999999999971 1.6616000000000004,0.752200000000002 1.6571000000000002,0.7471999999999994 1.6541000000000001,0.7406999999999968 1.6562000000000006,0.7316000000000003 1.6458,0.715600000000002 1.6102000000000003,0.6965000000000003 1.5842000000000005,0.6783999999999963 1.5753,0.6739999999999995 1.5649000000000002,0.6751000000000005 1.5238999999999998,0.6920999999999964 1.4721000000000006,0.6858000000000004 1.4367000000000005,0.6859999999999999 1.4218000000000006,0.6918999999999969 1.4125,0.7053999999999974 1.4251999999999998,0.7083999999999975 1.4499,0.7019999999999982 1.4741000000000004,0.6989000000000019 1.4684000000000004,0.7160999999999973 1.4791000000000003,0.7346000000000004 1.4777999999999998,0.756299999999996 1.4441000000000002,0.7736000000000018 1.4185000000000003,0.7802999999999969 1.3913000000000006,0.7740000000000009 1.3761000000000005,0.7631000000000014 1.3628000000000005,0.746699999999997 1.3584999999999998,0.7439999999999998 1.3513000000000006,0.7423000000000002 1.3466999999999998,0.7323000000000022 1.318,0.7209999999999965 1.3165999999999998,0.714500000000001 1.3183000000000002,0.701900000000002 1.302,0.7038000000000011 1.3005,0.7012 1.2798000000000003,0.7004999999999981 1.2718000000000003,0.7032999999999987 1.2535000000000003,0.7042000000000002 1.2301000000000006,0.7078999999999951 1.1764000000000006,0.7000999999999991 1.1696000000000004,0.7235999999999976 1.1911999999999998,0.7485999999999962 1.177,0.7612999999999985 1.1324999999999998,0.7565999999999988 1.1178000000000003,0.7575000000000003 1.1060000000000003,0.7530000000000001 1.0820000000000003,0.7475999999999985 1.0482,0.7352999999999952 1.0346000000000006,0.7248999999999981 1.0314999999999999,0.6936999999999998 1.0391,0.6800999999999959 1.0638,0.6625000000000014 1.0667000000000004,0.6526999999999958 1.0619,0.6443000000000012 1.0359000000000003,0.6364999999999981 0.9856000000000003,0.6372 0.9765999999999999,0.6578000000000017 0.9199000000000006,0.6567999999999969 0.9162000000000003,0.6533999999999978 0.8603999999999998,0.6525999999999996 0.8740000000000001,0.6689000000000007 0.8711000000000007,0.671599999999998 0.8634,0.6740999999999957 0.8538999999999999,0.6766000000000005 0.8461000000000003,0.6766000000000005 0.8389000000000002,0.6829999999999998 0.8134000000000001,0.6783000000000001 0.7989000000000002,0.6724999999999994 0.7911000000000006,0.6713999999999984 0.7799999999999998,0.6724999999999994 0.7667000000000006,0.6766000000000005 0.7423000000000006,0.6790999999999983 0.7288999999999999,0.6835999999999984 0.7161000000000004,0.6846999999999994 0.7117,0.6882999999999981 0.7017000000000002,0.6901999999999973 0.6917000000000004,0.6961000000000013 0.6906000000000003,0.6997 0.6861000000000002,0.7021999999999977 0.69,0.7064000000000021 0.6745000000000005,0.7088999999999999 0.6728000000000001,0.7124999999999986 0.6689000000000003,0.710799999999999 0.6678000000000002,0.7126999999999981 0.6549999999999998,0.7166999999999959 0.6556000000000002,0.7194000000000003 0.6528000000000005,0.7239000000000004 0.6534,0.7260999999999953 0.6511,0.7260999999999953 0.6506000000000003,0.7293999999999983 0.6488999999999998,0.7293999999999983 0.6506000000000003,0.7260999999999953 0.6488999999999998,0.725200000000001 0.6488999999999998,0.7227999999999994 0.6473,0.7227999999999994 0.6495000000000002,0.7222000000000008 0.6499999999999999,0.719699999999996 0.6488999999999998,0.7160999999999973 0.6473,0.7160999999999973 0.6467000000000005,0.7188999999999979 0.6484000000000001,0.719699999999996 0.6423000000000001,0.7201999999999984 0.6411000000000002,0.7227999999999994 0.6245000000000003,0.7308000000000021 0.6211000000000002,0.7357999999999976 0.6161000000000003,0.7382999999999953 0.6128,0.7382999999999953 0.6023000000000001,0.7327000000000012 0.5884,0.7325000000000017 0.5800000000000001,0.7276999999999987 0.5767000000000002,0.7297000000000011 0.5773000000000001,0.7269000000000005 0.5739000000000001,0.7257999999999996 0.5700000000000003,0.7257999999999996 0.5656000000000003,0.7282999999999973 0.5628000000000002,0.7271999999999963 0.5645000000000002,0.721899999999998 0.5606000000000004,0.7199999999999989 0.5617000000000001,0.7165999999999997 0.5645000000000002,0.7149999999999963 0.5645000000000002,0.7119 0.5617000000000001,0.7072000000000003 0.5573000000000001,0.7040999999999968 0.5561000000000003,0.6968999999999994 0.5511000000000004,0.6933000000000007 0.5511000000000004,0.6907999999999959 0.5456000000000003,0.6822000000000017 0.5434000000000001,0.6811000000000007 0.5434000000000001,0.677500000000002 0.5395000000000003,0.671599999999998 0.5323000000000002,0.670499999999997 0.5156000000000001,0.6740999999999957 0.5034000000000001,0.6719000000000008 0.49780000000000024,0.6677999999999997 0.47340000000000027,0.6635999999999953 0.4506000000000001,0.6621999999999986 0.44110000000000005,0.6696999999999989 0.41500000000000004,0.6818999999999988 0.4173,0.6846999999999994 0.41610000000000014,0.6875 0.40500000000000025,0.6869000000000014 0.39780000000000015,0.689700000000002 0.3961000000000001,0.6918999999999969 0.3834000000000004,0.6879999999999953 0.3773000000000004,0.6879999999999953 0.36560000000000015,0.6916000000000011 0.3600000000000003,0.7010999999999967 0.3561000000000001,0.7027999999999963 0.3539000000000003,0.7049999999999983 0.35450000000000026,0.7064000000000021 0.34890000000000043,0.7113999999999976 0.3239000000000001,0.7233000000000018 0.32230000000000025,0.7265999999999977 0.31730000000000036,0.7265999999999977 0.3189000000000002,0.7299999999999969 0.3211000000000004,0.7302999999999997 0.3217000000000003,0.7332999999999998 0.3250000000000002,0.7346999999999966 0.3267000000000002,0.7325000000000017 0.33560000000000034,0.731899999999996 0.3378000000000001,0.7297000000000011 0.34170000000000034,0.7290999999999954 0.34230000000000027,0.7274999999999991 0.3461000000000003,0.7269000000000005 0.34670000000000023,0.7246999999999986 0.3439000000000001,0.7233000000000018 0.34230000000000027,0.7199999999999989 0.34950000000000037,0.7224999999999966 0.3500000000000001,0.7241 0.3589000000000002,0.7210999999999999 0.3517000000000001,0.7263999999999982 0.3517000000000001,0.7288999999999959 0.3650000000000002,0.731899999999996 0.3673000000000002,0.7344000000000008 0.36670000000000025,0.7361000000000004 0.3634000000000004,0.7365999999999957 0.3600000000000003,0.731899999999996 0.3517000000000001,0.7293999999999983 0.3428,0.7297000000000011 0.33110000000000017,0.7355000000000018 0.33230000000000004,0.7372000000000014 0.34780000000000033,0.7402000000000015 0.3500000000000001,0.7427999999999955 0.35230000000000006,0.7424999999999997 0.3528000000000002,0.7396999999999991 0.3561000000000001,0.7404999999999973 0.3528000000000002,0.7447000000000017 0.3567,0.7457999999999956 0.3578000000000001,0.7485999999999962 0.35950000000000015,0.748899999999999 0.3589000000000002,0.751100000000001 0.35450000000000026,0.7466000000000008 0.34840000000000027,0.748899999999999 0.34440000000000026,0.7535999999999987 0.34230000000000027,0.7535999999999987 0.34170000000000034,0.7524999999999977 0.34450000000000003,0.7507999999999981 0.34670000000000023,0.7466000000000008 0.3389000000000002,0.7408000000000001 0.32730000000000015,0.7372000000000014 0.3206000000000002,0.738900000000001 0.3184,0.7357999999999976 0.3150000000000004,0.7352999999999952 0.3150000000000004,0.7332999999999998 0.31060000000000043,0.7346999999999966 0.3078000000000003,0.7385999999999981 0.3056000000000001,0.738900000000001 0.30500000000000016,0.7357999999999976 0.29610000000000003,0.7325000000000017 0.2950000000000004,0.7280000000000015 0.2823000000000002,0.7250000000000014 0.2795000000000001,0.7201999999999984 0.2761,0.7190999999999974 0.2623000000000002,0.7179999999999964 0.26280000000000037,0.7199999999999989 0.26000000000000023,0.7205000000000013 0.25780000000000003,0.719699999999996 0.25890000000000013,0.7179999999999964 0.24670000000000014,0.7165999999999997 0.24170000000000025,0.7186000000000021 0.2389000000000001,0.7241 0.24060000000000015,0.7254999999999967 0.2384000000000004,0.7260999999999953 0.23610000000000042,0.7246999999999986 0.23670000000000035,0.721899999999998 0.23560000000000025,0.7213999999999956 0.2389000000000001,0.7199999999999989 0.2378,0.7182999999999993 0.2400000000000002,0.7164000000000001 0.2261000000000002,0.7175000000000011 0.21450000000000014,0.7149999999999963 0.2078000000000002,0.7171999999999983 0.20610000000000017,0.7201999999999984 0.19730000000000025,0.7257999999999996 0.19060000000000032,0.7260999999999953 0.18950000000000022,0.7282999999999973 0.18560000000000043,0.7280000000000015 0.17110000000000003,0.7352999999999952 0.1656000000000004,0.738900000000001 0.1656000000000004,0.7404999999999973 0.15560000000000018,0.748899999999999 0.14500000000000002,0.7627999999999986 0.13500000000000023,0.771099999999997 0.12890000000000024,0.7740999999999971 0.12110000000000021,0.7751999999999981 0.09560000000000013,0.7875000000000014 0.08340000000000014,0.7974999999999994 0.07840000000000025,0.7986000000000004 0.07780000000000031,0.8018999999999963 0.07340000000000035,0.8018999999999963 0.07280000000000042,0.8055000000000021 0.07840000000000025,0.8190999999999988 0.10500000000000043,0.8286000000000016 0.11060000000000025,0.8327999999999989 0.11840000000000028,0.8343999999999951 0.13390000000000013,0.8429999999999964 0.15780000000000038,0.8502999999999972 0.19730000000000025,0.8660999999999959 0.2139000000000002,0.8703000000000003 0.22280000000000033,0.8707999999999956 0.24950000000000028,0.8688999999999965 0.26280000000000037,0.8632999999999953 0.2684000000000002,0.8628 0.27890000000000015,0.8663999999999987 0.29780000000000006,0.8671999999999969 0.2984,0.8697000000000017 0.32230000000000025,0.8754999999999953 0.32430000000000003,0.8921999999999954 0.3134000000000001,0.8958000000000013 0.3145000000000002,0.8968999999999951 0.3206000000000002,0.8941000000000017 0.3200000000000003,0.8963999999999999 0.31730000000000036,0.8965999999999994 0.3184,0.8988999999999976 0.30840000000000023,0.8975000000000009 0.3067000000000002,0.8979999999999961 0.31060000000000043,0.8996999999999957 0.3206000000000002,0.8996999999999957 0.3245,0.9018999999999977 0.3261000000000003,0.9052999999999969 0.3389000000000002,0.9129999999999967 0.33610000000000007,0.9155999999999977 0.3378000000000001,0.9165999999999954 0.3411000000000004,0.9163999999999959 0.34230000000000027,0.9146999999999963 0.34840000000000027,0.9177999999999997 0.3549000000000002,0.9183000000000021 0.3607,0.9266000000000005 0.35560000000000036,0.9277000000000015 0.3539000000000003,0.9311000000000007 0.3615000000000004,0.9322000000000017 0.3604000000000003,0.9427000000000021 0.35340000000000016,0.9424999999999955 0.3450000000000002,0.9446999999999974 0.3317000000000001,0.951900000000002 0.32230000000000025,0.9604999999999961 0.3228000000000004,0.9621999999999957 0.3178000000000001,0.9710999999999999 0.3178000000000001,0.9810999999999979 0.3200000000000003,0.9857999999999976 0.3289000000000004,0.9949999999999974 0.3289000000000004,0.9977000000000018 0.3439000000000001,1.005200000000002 0.3567,1.0063999999999993 0.40280000000000005,1.0185999999999993 0.4306000000000001,1.0197000000000003 0.45500000000000007,1.0161000000000016 0.46110000000000007,1.0174999999999983 0.4639000000000002,1.0191000000000017 0.4639000000000002,1.0249999999999986 0.4661000000000004,1.0289000000000001 0.4711000000000003,1.0319000000000003 0.4923000000000002,1.0382999999999996 0.49560000000000004,1.0433000000000021 0.4984000000000002,1.0441000000000003 0.5039000000000002,1.052500000000002 0.5050000000000003,1.0546999999999969 0.5034000000000001,1.0561000000000007 0.5045000000000002,1.0640999999999963 0.4939,1.0814000000000021 0.49560000000000004,1.082499999999996 0.4950000000000001,1.0854999999999961 0.49670000000000014,1.0874999999999986 0.5028000000000001,1.0904999999999987 0.5067000000000004,1.0949999999999989 0.5273000000000003,1.0996999999999986 0.5445000000000002,1.1010999999999953 0.5873000000000004,1.1128 0.6095000000000002,1.1171999999999969 0.6128,1.119099999999996 0.625,1.1199999999999974 0.6373000000000002,1.1233000000000004 0.6427999999999998,1.1224999999999952 0.6384000000000003,1.1197000000000017 0.6506000000000003,1.1182999999999979 0.6528000000000005,1.1171999999999969 0.6522999999999999,1.1132999999999953 0.6556000000000002,1.1107999999999976 0.6745000000000005,1.1019000000000005 0.6745000000000005,1.1049999999999969 0.6806000000000005,1.1038999999999959 0.6911,1.1115999999999957 0.6922999999999999,1.1141000000000005 0.7073000000000005,1.1204999999999998 0.7067000000000001,1.1265999999999963 0.7078000000000002,1.1280000000000001 0.7056,1.1282999999999959 0.7039000000000004,1.1325000000000003 0.6972999999999998,1.1372 0.6960999999999999,1.1407999999999987 0.6917000000000004,1.1426999999999978 0.6911,1.144999999999996 0.6884000000000001,1.1452999999999989 0.6884000000000001,1.1477999999999966 0.6839,1.1510999999999996 0.6811000000000003,1.1510999999999996 0.6800000000000002,1.1552000000000007 0.6728000000000001,1.159399999999998 0.6695000000000007,1.1644000000000005 0.6723000000000003,1.1700000000000017 0.6839,1.1779999999999973 0.6861000000000002,1.1822000000000017 0.6911,1.1835999999999984 0.6922999999999999,1.1865999999999985 0.6906000000000003,1.1877999999999957 0.6939000000000006,1.1918999999999969 0.6934,1.1929999999999978 0.685,1.198599999999999 0.6778,1.2002999999999986 0.6417000000000006,1.192700000000002 0.6356000000000002,1.1933000000000007 0.6233000000000004,1.1912999999999982 0.6137000000000001,1.2119 0.6030000000000002,1.2254999999999967 0.6001000000000003,1.2378999999999962 0.6073000000000004,1.2489999999999952 0.6176000000000004,1.2578999999999994 0.6486000000000005,1.2638999999999996 0.6606000000000001,1.2614000000000019 0.6656,1.2635999999999967 0.6766999999999999,1.2638999999999996 0.6761000000000004,1.2601999999999975 0.6983999999999999,1.2575000000000003 0.7189000000000001,1.25 0.7273999999999998,1.249600000000001 0.7404000000000006,1.2596999999999952 0.7384,1.2605000000000004 0.7423000000000006,1.2646999999999977 0.7489000000000003,1.2661000000000016 0.7717000000000005,1.2779999999999987 0.7784,1.2852999999999994 0.7833999999999999,1.287700000000001 0.7856000000000001,1.2913999999999959 0.7906,1.2933000000000021 0.7955999999999999,1.2999999999999972 0.7989000000000002,1.301400000000001 0.8156000000000003,1.3164000000000016 0.8306,1.3243999999999971 0.8450000000000002,1.3365999999999971 0.855,1.3425000000000011 0.8595000000000002,1.3474999999999966 0.8617000000000004,1.3474999999999966 0.8628000000000005,1.3502999999999972 0.8694999999999999,1.3538999999999959 0.8700000000000006,1.3554999999999993 0.8805999999999998,1.3607999999999976 0.9173000000000004,1.389400000000002 0.9217,1.3904999999999959 0.9173000000000004,1.3930000000000007 0.9173000000000004,1.3943999999999974 0.9250000000000003,1.3926999999999978 0.9483999999999999,1.4080000000000013 0.9533999999999998,1.4118999999999957 0.9533999999999998,1.4135999999999953 0.9811000000000001,1.4341000000000008 1.0078,1.458599999999997 1.0123000000000002,1.4611000000000018 1.0500000000000003,1.4990999999999985 1.065,1.5182999999999964 1.0850000000000004,1.5399999999999991 1.0917,1.5504999999999995 1.0961000000000003,1.5540999999999983 1.1195,1.5850000000000009 1.1223000000000005,1.5908000000000015 1.1350000000000002,1.6054999999999993 1.1439,1.6216000000000008 1.1572999999999998,1.638300000000001 1.1610999999999998,1.6479999999999961 1.1705999999999999,1.6588999999999956 1.1745000000000005,1.6657999999999973 1.1750000000000003,1.670499999999997 1.1939000000000006,1.6989000000000019 1.1976,1.710799999999999 1.1971000000000003,1.7209000000000003 1.1934999999999998,1.7306999999999988 1.1888999999999998,1.7361000000000004 1.1750000000000003,1.7346999999999966 1.1717,1.7374999999999972 1.1705999999999999,1.7408000000000001 1.1723000000000003,1.7408000000000001 1.1734000000000004,1.7372000000000014 1.1761000000000004,1.7355000000000018 1.1827999999999999,1.7357999999999976 1.1945000000000001,1.7391000000000005 1.1978000000000004,1.7374999999999972 1.1995,1.734099999999998 1.2045,1.7346999999999966 1.2021000000000002,1.736699999999999 1.2036000000000002,1.738900000000001 1.2082000000000002,1.7387000000000015 1.2085000000000004,1.735199999999999 1.2116000000000002,1.738900000000001 1.2176000000000005,1.7393 1.2167,1.7379999999999995 1.2191000000000005,1.7353999999999985 1.2249000000000003,1.7335999999999956 1.2218000000000004,1.7349999999999994 1.2189,1.738900000000001 1.2333000000000003,1.7342999999999975 1.2338999999999998,1.735599999999998 1.2216999999999998,1.7396999999999991 1.2356000000000003,1.743000000000002 1.2417000000000002,1.7428999999999988 1.2450000000000006,1.7447000000000017 1.2409000000000003,1.745599999999996 1.2399999999999998,1.7483000000000004 1.2428000000000003,1.7496999999999971 1.2395,1.7502999999999957 1.2073000000000005,1.7438999999999965 1.1964000000000001,1.7443999999999988 1.1880000000000002,1.7456999999999994 1.1815000000000002,1.7436000000000007 1.185,1.7457999999999956 1.1904,1.7457999999999956 1.1961,1.7445999999999984 1.2029,1.7449000000000012 1.2111000000000005,1.7490999999999985 1.2161000000000004,1.7558000000000007 1.2178,1.7607999999999961 1.2223000000000002,1.7654999999999959 1.2223000000000002,1.7682999999999964 1.2311,1.7815999999999974 1.2334,1.7915999999999954 1.2367000000000004,1.7946999999999989 1.2399999999999998,1.8185999999999964 1.2428000000000003,1.8293999999999997 1.2461000000000007,1.8340999999999994 1.2561000000000004,1.8789000000000016 1.2584000000000004,1.8999999999999986 1.2611000000000003,1.9054999999999964 1.2611000000000003,1.910499999999999 1.2656000000000005,1.9232999999999976 1.2667000000000006,1.9418999999999969 1.2684000000000002,1.9444000000000017 1.27,1.9560999999999993 1.2728000000000006,1.959699999999998 1.275,1.9863999999999962 1.2784,1.9927999999999955 1.2795,2.010799999999996 1.2906,2.0394000000000005 1.3077999999999999,2.063299999999998 1.31,2.0638999999999967 1.3117000000000005,2.069099999999999 1.315,2.0730000000000004 1.3222999999999998,2.0915999999999997 1.3239000000000005,2.1000000000000014 1.3328000000000002,2.117199999999997 1.3367,2.130200000000002 1.3423000000000003,2.1388999999999996 1.3423000000000003,2.1421999999999954 1.3489,2.1565999999999974 1.3517000000000006,2.1677999999999997 1.3534000000000002,2.207799999999999 1.3556000000000004,2.221899999999998 1.3588999999999998,2.228899999999996 1.3673000000000006,2.2368999999999986 1.3784000000000005,2.2402000000000015 1.3945000000000003,2.239699999999999 1.4006000000000003,2.241099999999996 1.4150000000000005,2.2404999999999973 1.4161000000000006,2.2415999999999983 1.4250000000000003,2.239699999999999 1.4205999999999999,2.236399999999996 1.4234000000000004,2.2361000000000004 1.4239000000000002,2.2338999999999984 1.4273000000000002,2.2338999999999984 1.4284000000000003,2.2304999999999993 1.4327999999999999,2.2304999999999993 1.4345000000000003,2.2316000000000003 1.4300000000000002,2.2316000000000003 1.4295000000000004,2.234099999999998 1.435,2.2365999999999957 1.4306000000000005,2.238599999999998 1.4306000000000005,2.240000000000002 1.44,2.2408 1.4423,2.2335999999999956 1.4411,2.231099999999998 1.4384000000000001,2.2304999999999993 1.44,2.2290999999999954 1.4311000000000003,2.220799999999997 1.4306000000000005,2.2119 1.4311000000000003,2.210000000000001 1.4345000000000003,2.209399999999995 1.4339,2.2055000000000007 1.4411,2.1968999999999994 1.4411,2.1950000000000003 1.4484,2.1910999999999987 1.4478000000000004,2.1888999999999967 1.4510999999999998,2.1865999999999985 1.4684000000000004,2.1811000000000007 1.4777999999999998,2.176099999999998 1.4878000000000005,2.1747000000000014 1.5039000000000002,2.167200000000001 1.5128,2.164999999999999 1.5467,2.1691000000000003 1.5489000000000002,2.1724999999999994 1.5745,2.179400000000001 1.5750000000000006,2.1811000000000007 1.5789000000000004,2.1824999999999974 1.5760999999999998,2.1835999999999984 1.5767000000000002,2.1846999999999994 1.5795,2.186099999999996 1.5850000000000004,2.185200000000002 1.5917,2.1901999999999973 1.5961000000000003,2.1957999999999984 1.5989,2.202999999999996 1.6045000000000003,2.2057999999999964 1.6273000000000004,2.2083000000000013 1.6417000000000006,2.2124999999999986 1.6495000000000002,2.2102999999999966 1.6600000000000006,2.211100000000002 1.6673000000000004,2.2164 1.6656,2.2179999999999964 1.6728,2.2158000000000015 1.6761000000000004,2.2164 1.6750000000000003,2.2154999999999987 1.6761000000000004,2.213000000000001 1.6811000000000003,2.211599999999997 1.6784000000000003,2.2143999999999977 1.6827999999999999,2.2124999999999986 1.6884000000000001,2.215299999999999 1.6878000000000006,2.217500000000001 1.6934,2.217500000000001 1.6995,2.2205000000000013 1.8400000000000003,2.2939000000000007 1.8395000000000006,2.2982999999999976 1.8450000000000002,2.2990999999999957 1.8417,2.2974999999999994 1.8423000000000003,2.2950000000000017 1.9306000000000005,2.342500000000001 1.94,2.3455000000000013 1.9723000000000002,2.350200000000001 1.9716999999999998,2.353899999999996 1.975,2.353899999999996 1.9773,2.351399999999998 1.9845000000000002,2.352499999999999 2.0123,2.3674999999999997 2.02,2.369099999999996 2.0245,2.3825000000000003 2.0289000000000006,2.386899999999997 2.0373000000000006,2.3896999999999977 2.0373000000000006,2.3913999999999973 2.0406,2.3924999999999983 2.0450000000000004,2.3977999999999966 2.0495000000000005,2.407199999999996 2.0523000000000002,2.419399999999996 2.0545000000000004,2.4213999999999984 2.0523000000000002,2.421900000000001 2.0517,2.4247000000000014 2.0561000000000003,2.4375 2.0561000000000003,2.445299999999996 2.0484000000000004,2.448900000000002 2.0484000000000004,2.4521999999999977 2.0589,2.4538999999999973 2.0578,2.455199999999998 2.0539,2.4546999999999954 2.0528,2.456400000000002 2.0573,2.459399999999995 2.0623,2.4602999999999966 2.0639,2.4649999999999963 2.0850000000000004,2.4936000000000007 2.0906,2.4979999999999976 2.105,2.5046999999999997 2.1195,2.5138999999999996 2.1223000000000005,2.5171999999999954 2.1284000000000005,2.5180000000000007 2.1700000000000004,2.5349999999999966 2.1756000000000006,2.5390999999999977 2.1761000000000004,2.541399999999996 2.1939000000000006,2.5503 2.1995,2.5593999999999966 2.2189,2.572499999999998 2.2384,2.5807999999999964 2.265,2.5869 2.28,2.5929999999999964 2.2828000000000004,2.5961 2.3239000000000005,2.603899999999996 2.3588999999999998,2.6128 2.4045,2.628 2.4723,2.647999999999996 2.4845,2.6529999999999987 2.5084000000000004,2.6586 2.5239,2.6651999999999987 2.5167000000000006,2.671599999999998 2.5173,2.672799999999995 2.5295,2.6665999999999954 2.5789000000000004,2.6655000000000015 2.6539000000000006,2.6790999999999983 2.6673000000000004,2.6790999999999983 2.7006,2.6832999999999956 2.7078,2.6835999999999984 2.7228,2.680799999999998 2.7306000000000004,2.6846999999999994 2.7784,2.6799999999999997 2.8167000000000004,2.6914000000000016 2.8250000000000006,2.6905 2.8323000000000005,2.6875 2.8406,2.688600000000001 2.8395000000000006,2.6865999999999985 2.8511,2.6888999999999967 2.8539,2.6875 2.8534,2.686099999999996 2.8556000000000004,2.686099999999996 2.8850000000000002,2.691899999999997 2.8945000000000003,2.691600000000001 2.9045,2.6890999999999963 2.9311000000000003,2.679699999999997 2.9434,2.673000000000002 2.9500000000000006,2.673000000000002 2.9639,2.677500000000002 2.9678,2.680799999999998 2.975,2.681899999999999 2.9773,2.684100000000001 2.9767000000000006,2.6875 2.9867000000000004,2.687199999999997 2.9950000000000006,2.690799999999996 3.0000000000000004,2.690799999999996 3.0195000000000003,2.6957999999999984 3.0467,2.697199999999995 3.0523000000000002,2.6991000000000014 3.065,2.6999999999999957 3.0850000000000004,2.6999999999999957 3.1373,2.7066000000000017 3.1639000000000004,2.7072000000000003 3.1917000000000004,2.710000000000001 3.2399999999999998,2.7182999999999993 3.2917,2.7325000000000017 3.3345,2.738599999999998 3.3917000000000006,2.742199999999997 3.3939,2.7391000000000005 3.3967000000000005,2.7413999999999987 3.4039000000000006,2.7402000000000015 3.4206,2.736399999999996 3.4328,2.731099999999998 3.4378000000000006,2.730800000000002 3.4545,2.740000000000002 3.475,2.7346999999999966 3.4734000000000003,2.7265999999999977 3.4578,2.7302999999999997 3.4523000000000006,2.7282999999999973 3.4523000000000006,2.731099999999998 3.4495,2.730800000000002 3.4478000000000004,2.7282999999999973 3.4484,2.7271999999999963 3.4534,2.7280000000000015 3.4689,2.7257999999999996 3.4684000000000004,2.722200000000001 3.4623000000000004,2.721899999999998 3.4706000000000006,2.7190999999999974 3.4861,2.718899999999998 3.4861,2.7213999999999956 3.4773,2.7227999999999994 3.4773,2.7260999999999953 3.4795000000000003,2.7271999999999963 3.4789,2.7304999999999993 3.4806000000000004,2.732999999999997 3.4984000000000006,2.7290999999999954 3.5234,2.7147000000000006 3.5234,2.710000000000001 3.5184,2.7046999999999954 3.515,2.7036000000000016 3.515,2.6997 3.5128,2.6991000000000014 3.5134000000000003,2.6921999999999997 3.5123,2.6905 3.5139,2.686099999999996 3.5123,2.684100000000001 3.5189,2.6811000000000007 3.5267000000000004,2.672799999999995 3.5234,2.668599999999998 3.5273,2.6677999999999997 3.5289000000000006,2.6655000000000015 3.5267000000000004,2.659099999999995 3.5311,2.6465999999999994 3.5345,2.6458000000000013 3.5328000000000004,2.6418999999999997 3.5345,2.636899999999997 3.5328000000000004,2.636099999999999 3.5356,2.633899999999997 3.5373000000000006,2.6265999999999963 3.5400000000000005,2.625799999999998 3.5411000000000006,2.623599999999996 3.5473000000000003,2.623599999999996 3.565,2.613599999999998 3.5706,2.612499999999997 3.5711,2.6107999999999976 3.5761,2.6107999999999976 3.5834000000000006,2.6066000000000003 3.5839000000000003,2.603899999999996 3.5773000000000006,2.6043999999999983 3.5739000000000005,2.6085999999999956 3.5706,2.6052999999999997 3.5828,2.6000000000000014 3.5900000000000003,2.6000000000000014 3.5934000000000004,2.5977999999999994 3.6,2.597200000000001 3.6017000000000006,2.5951999999999984 3.605,2.5963999999999956 3.6384000000000003,2.586100000000002 3.65,2.5904999999999987 3.6495,2.589100000000002 3.6517000000000004,2.5869 3.6484,2.582499999999996 3.6639000000000004,2.5786000000000016 3.6767,2.5799999999999983 3.6861,2.5760999999999967 3.7156,2.5763999999999996 3.72,2.5799999999999983 3.7278,2.5807999999999964 3.7378000000000005,2.584699999999998 3.7389000000000006,2.583599999999997 3.7373,2.5816000000000017 3.7239,2.5741000000000014 3.7217,2.5700000000000003 3.7239,2.558 3.7211000000000003,2.556899999999999 3.7211000000000003,2.5540999999999983 3.7173000000000003,2.547799999999995 3.7195000000000005,2.5401999999999987 3.7334,2.532499999999999 3.7373,2.532499999999999 3.7406,2.530000000000001 3.7506,2.5274999999999963 3.7550000000000003,2.5285999999999973 3.7600000000000002,2.5268999999999977 3.7734,2.526600000000002 3.7817000000000003,2.522500000000001 3.7873000000000006,2.5227999999999966 3.7923000000000004,2.5208000000000013 3.8028,2.522199999999998 3.8123,2.517800000000001 3.8461000000000003,2.5135999999999967 3.8445000000000005,2.5152999999999963 3.8498000000000006,2.513399999999997 3.8518000000000003,2.5046999999999997 3.8497,2.5048999999999992 3.8561,2.4909999999999997 3.8568000000000002,2.4754999999999967 3.8556000000000004,2.472200000000001 3.8472000000000004,2.4649999999999963 3.8662000000000005,2.456400000000002 3.8429000000000006,2.452999999999996 3.8297000000000003,2.438299999999998 3.8288000000000006,2.424500000000002 3.8221000000000003,2.416499999999999 3.8181,2.4146 3.8201000000000005,2.404199999999996 3.8249,2.4007000000000005 3.8221000000000003,2.3981999999999957 3.842,2.389800000000001 3.8385000000000002,2.3575000000000017 3.852,2.2875000000000014 3.8565,2.2834999999999965 3.8485,2.276699999999998 3.8208000000000006,2.217799999999997 3.7439000000000004,2.1406999999999954 3.7265,2.1263999999999967 3.7319,2.114699999999999 3.7112000000000003,2.0873999999999953 3.6948000000000003,1.9198999999999984 3.6811000000000003,1.9091999999999985 3.6749000000000005,1.9112999999999971 3.6520000000000006,1.9131999999999962 3.6454,1.915300000000002 3.6414000000000004,1.9183000000000021 3.6318000000000006,1.9177999999999997 3.6149999999999998,1.9227999999999952 3.6072,1.9183000000000021 3.5985,1.9181999999999988 3.5922000000000005,1.9153999999999982 3.5776,1.9144000000000005 3.5682000000000005,1.9165999999999954 3.5589,1.9162999999999997 3.555,1.9181999999999988 3.5532,1.9232000000000014 3.5419000000000005,1.9251999999999967 3.5363,1.9277999999999977 3.5190000000000006,1.9269999999999996 3.5123,1.9296000000000006 3.5037,1.926400000000001 3.4908000000000006,1.9251999999999967 3.4765,1.9284999999999997 3.4580000000000006,1.924199999999999 3.4474000000000005,1.9255999999999958 3.4422,1.9283999999999963 3.4332,1.9271999999999991 3.4293,1.9292000000000016 3.4166000000000003,1.9281000000000006 3.4072,1.9234000000000009 3.3981,1.9253 3.3927,1.9223 3.3918000000000004,1.924599999999998 3.3812,1.9217999999999975 3.3654000000000006,1.909799999999997 3.3493,1.9037999999999968 3.3535,1.9033000000000015 3.3639000000000006,1.895399999999995 3.3663000000000003,1.8915999999999968 3.3579000000000003,1.8652000000000015 3.4059000000000004,1.8399999999999963 3.4058000000000006,1.838000000000001 3.3915,1.8355999999999995 3.3797,1.8384999999999962 3.3654000000000006,1.8397000000000006 3.3602000000000003,1.8297999999999988 3.3555000000000006,1.826900000000002 3.3553,1.825099999999999 3.3201000000000005,1.8297999999999988 3.3446000000000002,1.7967999999999975 3.3369000000000004,1.7627999999999986 3.3597000000000006,1.7535999999999987 3.3631000000000006,1.7534999999999954 3.3923,1.7402999999999977 3.4138000000000006,1.7361000000000004 3.4935000000000005,1.7361000000000004 3.4918,1.7263999999999982 3.5011000000000005,1.7278999999999982 3.5809,1.7119999999999962 3.5872000000000006,1.7134 3.6016,1.7205000000000013 3.6168,1.7419999999999973 3.6271,1.7459999999999951 3.631,1.7439999999999998 3.6448000000000005,1.7205999999999975 3.6501000000000006,1.705599999999997 3.6613,1.6991999999999976 3.6750000000000003,1.679000000000002 3.6908,1.676400000000001 3.6947000000000005,1.677500000000002 3.698,1.6757999999999953 3.6978000000000004,1.6724999999999994 3.7035000000000005,1.6661999999999964 3.7114,1.6498999999999953 3.7114,1.6287999999999982 3.6956,1.6145999999999958 3.6948000000000003,1.608699999999999 3.6863000000000006,1.6004000000000005 3.6873,1.596499999999999 3.6860000000000004,1.5927000000000007 3.6780000000000004,1.5888999999999953 3.6805,1.5876999999999981 3.6659,1.5686999999999998 3.6655,1.5638999999999967 3.6687,1.557699999999997 3.6667,1.5540999999999983 3.6680000000000006,1.5499999999999972 3.671,1.5484000000000009 3.6816,1.5326000000000022 3.7051000000000003,1.5178000000000011 3.7002,1.5112999999999985 3.6782,1.504100000000001 3.6584,1.5015 3.6427,1.5049999999999955 3.6243000000000003,1.5017999999999958 3.6248,1.4998999999999967 3.6203,1.4971999999999994 3.6176,1.4880999999999958 3.6134,1.4816999999999965 3.6015,1.470799999999997 3.6014000000000004,1.4675999999999974 3.5905,1.457499999999996 3.5513,1.4536999999999978 3.546,1.4516999999999953 3.5450000000000004,1.4465000000000003 3.5196,1.4324999999999974 3.5212,1.4324000000000012 3.512,1.4085999999999999 3.5126000000000004,1.4067000000000007 3.5062,1.4044999999999987 3.4946000000000006,1.3968999999999951 3.4605,1.3947000000000003 3.3998000000000004,1.3951999999999956 3.3968000000000003,1.3759000000000015 3.3943,1.3714000000000013 3.3893,1.372399999999999 3.3837000000000006,1.3695999999999984 3.3848,1.366500000000002 3.3895000000000004,1.3641000000000005 3.3904,1.3620000000000019 3.3870999999999998,1.3584999999999994 3.3748,1.3511999999999986 3.3339000000000003,1.3462999999999994 3.336,1.3438000000000017 3.3352,1.3408999999999978 3.3288000000000006,1.332899999999995 3.3261,1.3322000000000003 3.3269000000000006,1.3164000000000016 3.3539,1.3164000000000016 3.3918000000000004,1.305099999999996 3.4033,1.2988 3.4054000000000006,1.2952999999999975 3.4115000000000006,1.294399999999996 3.4507,1.2745999999999995 3.4470000000000005,1.271499999999996 3.4658,1.269999999999996 3.4696000000000002,1.2626999999999953 3.4688000000000003,1.2556999999999974 3.4721000000000006,1.2483000000000004 3.4677000000000002,1.2406000000000006 3.4528000000000003,1.240000000000002 3.4516000000000004,1.238199999999999 3.4378000000000006,1.2352999999999952 3.4354,1.2201999999999984 3.4364000000000003,1.2190000000000012 3.4332,1.2115999999999971 3.4252,1.2076999999999956 3.4281,1.2060999999999993 3.4092,1.192700000000002 3.3939,1.1895999999999987 3.3936000000000006,1.1865999999999985 3.3904,1.1837000000000018 3.3763,1.1811000000000007 3.3718,1.1751999999999967 3.3609000000000004,1.172699999999999 3.3425,1.1828999999999965 3.3429000000000006,1.1858999999999966 3.3367,1.186399999999999 3.3347,1.192299999999996 3.3292000000000006,1.1914000000000016 3.3238,1.1925999999999988 3.3234,1.1940999999999988 3.3137000000000003,1.1923999999999992 3.2768,1.1809000000000012 3.2735,1.177500000000002 3.2646,1.1783999999999963 3.2248000000000006,1.1704000000000008 3.1999,1.1606999999999985 3.1995999999999998,1.1585999999999999 3.1953,1.158299999999997 3.1918,1.1605999999999952 3.1915999999999998,1.162700000000001 3.1877,1.1617999999999995 3.1888,1.1595999999999975 3.1837000000000004,1.161200000000001 3.1796,1.1576000000000022 3.1638000000000006,1.1501999999999981 3.1546,1.1499999999999986 3.1423,1.1441000000000017 3.1403000000000003,1.144599999999997 3.1414000000000004,1.1411000000000016 3.1388000000000003,1.138300000000001 3.1171,1.1334000000000017 3.1118,1.1302999999999983 3.1016,1.1325000000000003 3.0903000000000005,1.1417999999999964 3.0857000000000006,1.1413999999999973 3.0833,1.1392999999999986 3.0716000000000006,1.1358999999999995 3.0684,1.1376999999999953 3.0671000000000004,1.1421999999999954 3.0582,1.1435999999999993 3.0511000000000004,1.1473999999999975 3.0414,1.145699999999998 3.03,1.1503999999999976 3.0259000000000005,1.1411999999999978 3.0273,1.1385000000000005 3.0306,1.137900000000002 3.0399,1.1321000000000012 3.0469000000000004,1.1308000000000007 3.0484000000000004,1.1287999999999982 3.0416000000000003,1.1210999999999984 3.0473000000000003,1.1130999999999958 3.0420000000000003,1.113199999999999 3.047,1.1045999999999978 3.041,1.1037999999999997 3.0287,1.1098 3.0183000000000004,1.1113999999999962 3.0092000000000003,1.1100999999999956 3.0021,1.1126999999999967 3.0032,1.115000000000002 2.9994,1.1222999999999956 2.986,1.1270999999999987 2.9593000000000003,1.1278999999999968 2.9458000000000006,1.125700000000002 2.9427,1.130200000000002 2.9397000000000006,1.1409999999999982 2.9375000000000004,1.1417999999999964 2.9381,1.1443999999999974 2.9187,1.1505999999999972 2.9090000000000003,1.1505999999999972 2.9010000000000002,1.144599999999997 2.8733,1.1465999999999994 2.8546,1.1443000000000012 2.8351,1.1510999999999996 2.8244000000000002,1.1580000000000013 2.8211,1.162399999999998 2.8306,1.1638999999999982 2.8287,1.1653999999999982 2.8303,1.1680999999999955 2.8250000000000006,1.1691999999999965 2.8088,1.1777999999999977 2.8047,1.1753 2.7963999999999998,1.1816999999999993 2.7647,1.1747999999999976 2.7572000000000005,1.1781999999999968 2.7540999999999998,1.174199999999999 2.7512000000000003,1.1755999999999958 2.7489000000000003,1.1713999999999984 2.7425,1.1691000000000003 2.7577000000000003,1.1683000000000021 2.7764,1.1620999999999952 2.7808000000000006,1.1565999999999974 2.7837,1.1463999999999999 2.7894,1.1430000000000007 2.8060000000000005,1.1374999999999957 2.8036,1.1357999999999961 2.8029000000000006,1.1299999999999955 2.8048000000000006,1.1267999999999958 2.8056000000000005,1.1173000000000002 2.7755000000000005,1.1236999999999995 2.7385000000000006,1.1259999999999977 2.7326,1.1274000000000015 2.7026,1.1418999999999997 2.6987,1.1340999999999966 2.6910000000000003,1.1330999999999989 2.6945,1.1287999999999982 2.6742000000000004,1.1193999999999988 2.6718000000000006,1.1188000000000002 2.6682,1.1216000000000008 2.6566000000000005,1.1176999999999992 2.6552000000000002,1.1146999999999991 2.6502000000000003,1.1118999999999986 2.6329,1.1073000000000022 2.61,1.1098 2.6021000000000005,1.1132999999999953 2.5842000000000005,1.100200000000001 2.597,1.0936999999999983 2.592,1.0912999999999968 2.5873000000000004,1.0930999999999997 2.5850000000000004,1.091699999999996 2.5879,1.0886999999999958 2.5873000000000004,1.0878000000000014 2.6011,1.083999999999996 2.6174000000000004,1.0736999999999952 2.6136000000000004,1.072099999999999 2.6159000000000003,1.070699999999995 2.6118,1.0659999999999954 2.6142,1.0653000000000006 2.6138,1.0614999999999952 2.6186000000000003,1.0625 2.621,1.0606000000000009 2.6239000000000003,1.0614999999999952 2.6269000000000005,1.0594999999999999 2.6297,1.0596999999999994 2.6226,1.0551999999999992 2.6237,1.0544000000000011 2.6215000000000006,1.0501999999999967 2.6308000000000002,1.0465000000000018 2.6297,1.0426999999999964 2.5906,1.0251999999999981 2.5924,1.0242999999999967 2.5916,1.0189000000000021 2.5943,1.0146000000000015 2.6317,1.0150999999999968 2.6683,1.002200000000002 2.6713999999999998,1.0002999999999957 2.6722000000000006,0.997799999999998 2.674,0.9979999999999976 2.6746000000000003,0.9941999999999993 2.6776000000000004,0.9945999999999984 2.6771,0.9964000000000013 2.6842,0.9934999999999974 2.6812,0.9897999999999954 2.6706,0.9893999999999963 2.6656,0.9857999999999976 2.6671,0.9769000000000005 2.6698,0.9748000000000019 2.671,0.9692000000000007 2.6674,0.9660999999999973 2.6717,0.9604999999999961 2.6698,0.9594999999999985 2.6699000000000006,0.9536000000000016 2.6761000000000004,0.9493000000000009 2.7117,0.9403000000000006 2.7148,0.9414000000000016 2.7186,0.9399999999999977 2.719,0.9379999999999953 2.7248000000000006,0.9392999999999958 2.7272000000000003,0.9362999999999957 2.7388,0.9345999999999961 2.7424000000000004,0.9367999999999981 2.7574,0.9326000000000008 2.7550000000000003,0.9296999999999969 2.7563,0.9272999999999954 2.7487,0.9232999999999976 2.7506,0.9215000000000018 2.7472,0.9185000000000016 2.7392,0.9005999999999972 2.7364,0.8973999999999975 2.7332000000000005,0.8986000000000018 2.7336000000000005,0.8921999999999954 2.7304,0.882399999999997 2.7605,0.8692999999999955 2.7698000000000005,0.8575999999999979 2.7853,0.8475999999999999 2.7962000000000002,0.843199999999996 2.8162,0.8151999999999973 2.8399000000000005,0.8031000000000006 2.8513000000000006,0.7898999999999958 2.8535,0.7798000000000016 2.8522000000000003,0.7676000000000016 2.8584,0.7605000000000004 2.8626,0.7513999999999967 2.8592,0.7317999999999998 2.8597000000000006,0.723399999999998 2.8531,0.7227999999999994 2.8541000000000003,0.7108999999999952 2.8444,0.6760000000000019 2.8503000000000003,0.6773999999999987 2.8656,0.6762000000000015 2.8536000000000006,0.6661000000000001 2.8553,0.6651999999999987 2.8540000000000005,0.6640000000000015 2.8653,0.6370000000000005 2.829,0.6158999999999963 2.8323000000000005,0.6111999999999966 2.8078,0.609499999999997 2.8085,0.6060999999999979 2.7985,0.5959999999999965 2.7987000000000006,0.5921999999999983 2.7935000000000003,0.5876000000000019 2.7933,0.5838999999999999 2.7836000000000003,0.5741000000000014 2.7690000000000006,0.5630999999999986 2.7637000000000005,0.5510999999999981 2.7242,0.5238999999999976 2.7119000000000004,0.5191000000000017 2.725,0.49909999999999854 2.7124,0.498899999999999 2.7072,0.4969999999999999 2.7125,0.45949999999999847 2.7215000000000003,0.4480999999999966 2.7393000000000005,0.44650000000000034 2.7500000000000004,0.4502999999999986 2.7614000000000005,0.45769999999999555 2.8042000000000002,0.4709000000000003 2.8199,0.46289999999999765 2.778,0.4497999999999962 2.8146,0.43499999999999517 2.8019000000000003,0.4292999999999978 2.8026000000000004,0.4253 2.7868,0.4251000000000005 2.7746,0.42190000000000083 2.7652000000000005,0.421599999999998 2.7608,0.41910000000000025 2.7604,0.41740000000000066 2.7551,0.41559999999999775 2.7311,0.41149999999999665 2.7284,0.4067000000000007 2.7261,0.4057999999999993 2.7278,0.40439999999999543 2.7236,0.4024999999999963 2.7263000000000006,0.40109999999999957 2.7227,0.40039999999999765 2.72,0.4025999999999996 2.7196000000000002,0.39869999999999806 2.7151,0.39750000000000085 2.7150000000000003,0.39569999999999794 2.6995,0.3924000000000021 2.6923,0.3832999999999984 2.6767,0.37349999999999994 2.6598,0.36939999999999884 2.6569,0.3709999999999951 2.6538,0.36820000000000164 2.6491000000000002,0.3674999999999997 2.637,0.36079999999999757 2.6277000000000004,0.3511999999999986 2.6195,0.3487999999999971 2.6185000000000005,0.3475999999999999 2.6206,0.3457000000000008 2.6090000000000004,0.3370999999999995 2.6102000000000003,0.33429999999999893 2.6078000000000006,0.33209999999999695 2.6094000000000004,0.33039999999999736 2.6076,0.3271999999999977 2.6082000000000005,0.32319999999999993 2.6064000000000003,0.3207999999999984 2.5971000000000006,0.31749999999999545 2.5987000000000005,0.3147999999999982 2.5971000000000006,0.3111999999999995 2.5856,0.31349999999999767 2.5773000000000006,0.31159999999999854 2.5739000000000005,0.31759999999999877 2.5656000000000003,0.32450000000000045 2.5582,0.34029999999999916 2.5524,0.34319999999999595 2.5356,0.333599999999997 2.5315,0.32969999999999544 2.5055,0.3277000000000001 2.5066,0.32280000000000086 2.5172000000000003,0.31400000000000006 2.5163000000000006,0.3084999999999951 2.5138000000000003,0.30579999999999785 2.5180000000000002,0.2973999999999961 2.5179000000000005,0.29459999999999553 2.5235,0.2898999999999958 2.5275000000000003,0.29009999999999536 2.5350000000000006,0.2875000000000014 2.5349,0.2808999999999955 2.5447,0.2787000000000006 2.5430000000000006,0.2639999999999958 2.5319,0.25679999999999836 2.5364,0.2513000000000005 2.5439000000000003,0.25099999999999767 2.5578,0.2541999999999973 2.5728000000000004,0.2618000000000009 2.5944,0.26489999999999725 2.5964000000000005,0.26149999999999807 2.6074000000000006,0.2560000000000002 2.6200000000000006,0.25959999999999894 2.6238000000000006,0.2586000000000013 2.6656,0.2597999999999985 2.6661000000000006,0.2580999999999989 2.6548000000000003,0.23919999999999675 2.6445000000000003,0.23329999999999984 2.656,0.2289999999999992 2.6543000000000005,0.2242999999999995 2.6574000000000004,0.2108999999999952 2.6808,0.2068000000000012 2.6848000000000005,0.2044999999999959 2.6901000000000006,0.20649999999999835 2.6952000000000003,0.20360000000000156 2.6931,0.19879999999999853 2.6959000000000004,0.19829999999999615 2.7073000000000005,0.19719999999999516 2.7109,0.19959999999999667 2.7223,0.19780000000000086 2.7282000000000006,0.19519999999999982 2.7331,0.19780000000000086 2.7317000000000005,0.19429999999999836 2.7202000000000006,0.1852000000000018 2.7145000000000006,0.16989999999999839 2.7148,0.1670000000000016 2.7182,0.16339999999999577 2.7183000000000006,0.15930000000000177 2.7254,0.15619999999999834 2.7265,0.15449999999999875 2.7242,0.1529999999999987 2.7274,0.1488999999999976 2.7253000000000003,0.1477999999999966 2.7259000000000007,0.14620000000000033 2.7227,0.1413000000000011 2.7202000000000006,0.14099999999999824 2.7202000000000006,0.1389999999999958 2.7165000000000004,0.1372 2.7132,0.12330000000000041 2.696,0.12760000000000105 2.6964,0.13210000000000122 2.6940000000000004,0.13389999999999702 2.6813,0.12780000000000058 2.6581000000000006,0.12279999999999802 2.6551000000000005,0.11529999999999774 2.6576,0.11379999999999768 2.6557,0.11029999999999518 2.658,0.10580000000000211 2.6642000000000006,0.10419999999999874 2.6620000000000004,0.10300000000000153 2.6655,0.0963999999999956 2.6613,0.09329999999999927 2.6643000000000003,0.09069999999999823 2.6557,0.08659999999999712 2.6496,0.08070000000000022 2.6427,0.07779999999999632 2.6247000000000003,0.08709999999999951 2.6206,0.08520000000000039 2.6194,0.08220000000000027 2.6149999999999998,0.0788999999999973 2.6141,0.07450000000000045 2.6193000000000004,0.07169999999999987 2.6279,0.07029999999999603 2.6349000000000005,0.06649999999999778 2.6353000000000004,0.06389999999999674 2.6411000000000002,0.060600000000000875 2.6670000000000003,0.05019999999999669 2.6575,0.039699999999996294 2.6606,0.02960000000000207 2.6797,0.021999999999998465 2.679,0.014099999999999113 2.6724,0.007500000000000284 2.6736,0.006000000000000227 2.6731000000000003,0.001799999999995805 2.6769000000000003,0.0013999999999967372 2.6759,0.0 2.6676000000000006,0.003900000000001569 2.6678,0.0016999999999995907 2.6508,0.03340000000000032 2.6463000000000005,0.033099999999997465 "></polygon><polygon points="1.5701000000000005,0.7265999999999977 1.5671000000000004,0.7241999999999962 1.5663000000000005,0.7143999999999977 1.5682000000000005,0.7087000000000003 1.5844,0.7053999999999974 1.5913,0.7076999999999956 1.5904000000000003,0.7164999999999964 1.5924,0.7209999999999965 1.6068000000000002,0.7250000000000014 1.6023,0.7308999999999983 1.5829,0.7269000000000005 1.5766000000000004,0.7280000000000015 1.5701000000000005,0.7265999999999977 "></polygon><polygon points="1.9083999999999999,2.5293999999999954 1.9106,2.5285999999999973 1.9019,2.5279999999999987 1.8939,2.525500000000001 1.8847,2.5259 1.8828999999999998,2.5275999999999996 1.8839000000000001,2.5307999999999993 1.8893,2.531799999999997 1.9083999999999999,2.5293999999999954 "></polygon><polygon points="1.7850000000000006,2.574399999999997 1.7973000000000003,2.572199999999995 1.7845,2.5638999999999967 1.7656000000000005,2.5552999999999955 1.7578,2.5552999999999955 1.7489000000000003,2.559999999999995 1.7511000000000005,2.561399999999999 1.7528000000000001,2.566600000000001 1.7656000000000005,2.573599999999999 1.7661000000000002,2.5752999999999986 1.7767000000000004,2.575800000000001 1.7850000000000006,2.574399999999997 "></polygon><polygon points="2.1206,2.6946999999999974 2.1128000000000005,2.6954999999999956 2.1111,2.6921999999999997 2.1134,2.6924999999999955 2.1139000000000006,2.6901999999999973 2.1117000000000004,2.6899999999999977 2.0967,2.691899999999997 2.1,2.689399999999999 2.1167000000000002,2.6865999999999985 2.1167000000000002,2.6843999999999966 2.1134,2.6828000000000003 2.0961000000000003,2.6799999999999997 2.0345,2.6802999999999955 2.0161000000000002,2.6757999999999953 2.0067,2.6710999999999956 1.9984000000000006,2.6646999999999963 1.9834,2.6588999999999956 1.9706000000000006,2.657199999999996 1.9650000000000003,2.6539 1.9528000000000003,2.6565999999999974 1.9500000000000006,2.6539 1.9434,2.651600000000002 1.935,2.652799999999999 1.9373,2.6510999999999996 1.935,2.6465999999999994 1.9167,2.6496999999999957 1.9083999999999999,2.647500000000001 1.8973,2.649099999999997 1.8834000000000004,2.6424999999999983 1.8622999999999998,2.6421999999999954 1.8617000000000004,2.6400000000000006 1.8578000000000006,2.6372 1.8573,2.6325000000000003 1.8450000000000002,2.6329999999999956 1.8361000000000005,2.6254999999999953 1.8278000000000003,2.622700000000002 1.8138999999999998,2.6229999999999976 1.7917,2.6308000000000007 1.7917,2.635799999999996 1.7934000000000005,2.6377999999999986 1.8234,2.659099999999995 1.8283999999999998,2.6661 1.8350000000000004,2.6713999999999984 2.0106000000000006,2.697499999999998 2.1439,2.7239000000000004 2.1789,2.7239000000000004 2.1917000000000004,2.718899999999998 2.1856000000000004,2.7177000000000007 2.1867000000000005,2.7154999999999987 2.1834000000000002,2.7138999999999953 2.1811000000000003,2.707499999999996 2.1595,2.705199999999998 2.1517000000000004,2.7055000000000007 2.1506000000000003,2.7072000000000003 2.15,2.7032999999999987 2.1373,2.699399999999997 2.1311000000000004,2.6999999999999957 2.1317,2.6976999999999975 2.1206,2.6946999999999974 "></polygon><polygon points="2.3178000000000005,2.7468999999999966 2.3278000000000003,2.7460999999999984 2.3284,2.7438999999999965 2.3406,2.7391000000000005 2.3606000000000003,2.7357999999999976 2.4150000000000005,2.7368999999999986 2.5717000000000003,2.7449999999999974 2.5978,2.7447000000000017 2.6139000000000006,2.7415999999999983 2.6167000000000002,2.738900000000001 2.6117000000000004,2.7357999999999976 2.6017000000000006,2.7361000000000004 2.5878,2.7335999999999956 2.5467,2.7333 2.5306,2.7271999999999963 2.5078,2.725299999999997 2.5023000000000004,2.7227999999999994 2.4456,2.7138999999999953 2.4173000000000004,2.714100000000002 2.4145,2.7089 2.4095,2.7089 2.4139000000000004,2.7124999999999986 2.4123000000000006,2.7160999999999973 2.3634,2.7190999999999974 2.3567000000000005,2.7121999999999957 2.3445000000000005,2.7079999999999984 2.3428,2.7055000000000007 2.3300000000000005,2.7055000000000007 2.3284,2.702999999999996 2.3206,2.700800000000001 2.2934000000000005,2.701599999999999 2.2706000000000004,2.706400000000002 2.2595000000000005,2.712699999999998 2.2545000000000006,2.717500000000001 2.2550000000000003,2.7302999999999997 2.2689,2.7413999999999987 2.2811,2.7457999999999956 2.2978,2.748899999999999 2.3106000000000004,2.748899999999999 2.3178000000000005,2.7468999999999966 "></polygon><polygon points="2.6884,2.755200000000002 2.7061000000000006,2.7490999999999985 2.7050000000000005,2.7413999999999987 2.6928000000000005,2.743299999999998 2.6767,2.7379999999999995 2.6678,2.7372000000000014 2.6545,2.7404999999999973 2.6606,2.746600000000001 2.6823,2.7571999999999974 2.6861,2.7571999999999974 2.6884,2.755200000000002 "></polygon><polygon points="3.2338999999999998,2.801099999999998 3.2328000000000006,2.7958 3.2273,2.7958 3.2206000000000006,2.7993999999999986 3.2211000000000003,2.802199999999999 3.2338999999999998,2.801099999999998 "></polygon><polygon points="3.2167,2.819099999999999 3.2234000000000003,2.819099999999999 3.2373,2.816600000000001 3.2195000000000005,2.8149999999999977 3.2106,2.8185999999999964 3.2095,2.8204999999999956 3.2128,2.8211000000000013 3.2167,2.819099999999999 "></polygon><polygon points="2.7034,2.731899999999996 2.7056,2.729700000000001 2.7039000000000004,2.7282999999999973 2.6928000000000005,2.7254999999999967 2.6889,2.7254999999999967 2.6878000000000006,2.727499999999999 2.6889,2.731099999999998 2.7006,2.7349999999999994 2.7023000000000006,2.7346999999999966 2.7034,2.731899999999996 "></polygon><polygon points="2.9917000000000002,2.7836 2.9806000000000004,2.7790999999999997 2.9673000000000003,2.7779999999999987 2.9478000000000004,2.771099999999997 2.9173000000000004,2.7657999999999987 2.9117,2.7605000000000004 2.9061,2.7601999999999975 2.9023,2.7563999999999993 2.8850000000000002,2.7524999999999977 2.8623,2.7526999999999973 2.8345,2.7483000000000004 2.8011000000000004,2.7494000000000014 2.7967,2.746600000000001 2.8011000000000004,2.745199999999997 2.7995000000000005,2.740000000000002 2.7945000000000007,2.7382999999999953 2.7939000000000003,2.7361000000000004 2.7867,2.7325000000000017 2.7817000000000003,2.731899999999996 2.7761,2.728899999999996 2.77,2.7314000000000007 2.7673,2.7368999999999986 2.7673,2.7427999999999955 2.7728000000000006,2.743299999999998 2.77,2.7464000000000013 2.7678,2.753 2.7689,2.7558000000000007 2.7717000000000005,2.7563999999999993 2.7745,2.7657999999999987 2.7811,2.7704999999999984 2.7917,2.772999999999996 2.7978,2.777799999999999 2.8045000000000004,2.7793999999999954 2.9123000000000006,2.7819000000000003 2.9767000000000006,2.7860999999999976 2.9817000000000005,2.784700000000001 2.9984000000000006,2.7860999999999976 2.9984000000000006,2.784399999999998 2.9917000000000002,2.7836 "></polygon><polygon points="3.1173000000000006,2.8299999999999983 3.1261000000000005,2.826599999999999 3.1211000000000007,2.8252999999999986 3.1206,2.8226999999999975 3.1295000000000006,2.8211000000000013 3.1434,2.814700000000002 3.1467000000000005,2.8104999999999976 3.1517000000000004,2.809100000000001 3.145,2.8074999999999974 3.1417000000000006,2.8104999999999976 3.1311000000000004,2.8085999999999984 3.1345000000000005,2.806599999999996 3.1300000000000003,2.8063999999999965 3.1284000000000005,2.8018999999999963 3.1256,2.8004999999999995 3.1134,2.7986000000000004 3.1095,2.7993999999999986 3.1067000000000005,2.805500000000002 3.1039,2.8074999999999974 3.1039,2.8104999999999976 3.1,2.8125 3.1006000000000005,2.8140999999999963 3.105,2.8160999999999987 3.0989,2.8188999999999993 3.0978,2.823599999999999 3.0945000000000005,2.8252999999999986 3.0945000000000005,2.8271999999999977 3.1095,2.8310999999999993 3.1173000000000006,2.8299999999999983 "></polygon><polygon points="0.41220000000000034,0.5401999999999987 0.40400000000000036,0.5415999999999954 0.4012000000000002,0.5467000000000013 0.39460000000000006,0.5503999999999962 0.3741000000000003,0.5505999999999958 0.3651000000000004,0.5490999999999957 0.3529,0.5510000000000019 0.3331000000000004,0.559899999999999 0.30610000000000026,0.5694000000000017 0.28240000000000043,0.5681000000000012 0.23110000000000008,0.5840999999999994 0.22260000000000035,0.5784999999999982 0.21840000000000037,0.5683000000000007 0.2128000000000001,0.5689999999999955 0.20020000000000016,0.5748999999999995 0.19510000000000005,0.5743000000000009 0.19160000000000021,0.5685000000000002 0.18270000000000008,0.5696999999999974 0.17790000000000017,0.5668999999999969 0.1658000000000004,0.5681999999999974 0.1532,0.5653999999999968 0.16420000000000012,0.5253000000000014 0.14490000000000025,0.5231999999999957 0.09540000000000015,0.5212999999999965 0.08010000000000028,0.5225000000000009 0.06930000000000014,0.5266999999999982 0.06270000000000042,0.5373999999999981 0.04540000000000033,0.5403999999999982 0.033500000000000085,0.5510999999999981 0.021800000000000264,0.5537999999999954 0.0235000000000003,0.5649999999999977 0.016000000000000014,0.5683999999999969 0.01100000000000012,0.5925000000000011 0.016199999999999992,0.6011999999999986 0.026200000000000223,0.6070999999999955 0.025900000000000034,0.6126000000000005 0.021800000000000264,0.6186000000000007 0.011200000000000099,0.6254999999999953 0.01200000000000001,0.6338000000000008 0.0,0.6441000000000017 0.0017000000000000348,0.6447000000000003 0.0134000000000003,0.6366000000000014 0.01240000000000041,0.6409999999999982 0.008600000000000385,0.6435999999999993 0.011100000000000332,0.6439000000000021 0.0123000000000002,0.646099999999997 0.010000000000000231,0.6486000000000018 0.02110000000000012,0.6550000000000011 0.04560000000000031,0.6602999999999994 0.06230000000000002,0.6661000000000001 0.07110000000000039,0.6665999999999954 0.07670000000000021,0.6625000000000014 0.08000000000000007,0.6649999999999991 0.0911000000000004,0.6674999999999969 0.09340000000000037,0.6696999999999989 0.12170000000000014,0.6727999999999952 0.13890000000000002,0.6785999999999959 0.14170000000000016,0.6805000000000021 0.14280000000000026,0.6835999999999984 0.1634000000000002,0.6835999999999984 0.1673,0.6818999999999988 0.18230000000000013,0.6818999999999988 0.1878000000000002,0.6794000000000011 0.18840000000000012,0.6771999999999991 0.19840000000000035,0.6749999999999972 0.2056,0.6753 0.2161000000000004,0.6719000000000008 0.2200000000000002,0.6665999999999954 0.22450000000000037,0.6638999999999982 0.23560000000000025,0.6621999999999986 0.2389000000000001,0.6629999999999967 0.25780000000000003,0.6561000000000021 0.2856000000000001,0.6513999999999953 0.30840000000000023,0.6510999999999996 0.3145000000000002,0.6486000000000018 0.3261000000000003,0.6477999999999966 0.33000000000000007,0.6435999999999993 0.3245,0.6424999999999983 0.3328000000000002,0.6407999999999987 0.33230000000000004,0.6364000000000019 0.33340000000000014,0.6357999999999961 0.3350000000000004,0.636099999999999 0.33450000000000024,0.6377999999999986 0.33610000000000007,0.6390999999999991 0.34670000000000023,0.6351999999999975 0.3589000000000002,0.6265999999999963 0.3650000000000002,0.6252999999999957 0.3695000000000004,0.6263999999999967 0.39890000000000025,0.6240999999999985 0.39390000000000036,0.6188999999999965 0.3995000000000002,0.6163999999999987 0.39890000000000025,0.615000000000002 0.4073000000000002,0.6122000000000014 0.41110000000000024,0.6129999999999995 0.41110000000000024,0.615000000000002 0.4034000000000004,0.6171999999999969 0.40610000000000035,0.6177999999999955 0.4067000000000003,0.6163999999999987 0.41000000000000014,0.6160999999999959 0.4117000000000002,0.6186000000000007 0.41000000000000014,0.6188999999999965 0.41000000000000014,0.6214000000000013 0.4067000000000003,0.6207999999999956 0.40610000000000035,0.6246999999999971 0.4095000000000004,0.6224999999999952 0.41000000000000014,0.626100000000001 0.42840000000000034,0.627200000000002 0.43340000000000023,0.6224999999999952 0.4578000000000002,0.6174999999999997 0.4589000000000003,0.6158000000000001 0.4650000000000003,0.6188999999999965 0.4823000000000004,0.6115999999999957 0.4945000000000004,0.6115999999999957 0.5067000000000004,0.6128 0.5084000000000004,0.6160999999999959 0.5134000000000003,0.6180000000000021 0.5150000000000001,0.6227000000000018 0.5289000000000001,0.6235999999999962 0.5339,0.6285999999999987 0.5534000000000003,0.6366000000000014 0.5711000000000004,0.6400000000000006 0.5789000000000004,0.6400000000000006 0.5873000000000004,0.6439000000000021 0.5978000000000003,0.6430000000000007 0.5989000000000004,0.6490999999999971 0.6023000000000001,0.6524999999999963 0.6017000000000001,0.6580000000000013 0.6073000000000004,0.6616 0.6045000000000003,0.6657999999999973 0.6056000000000004,0.6754999999999995 0.6139000000000001,0.682699999999997 0.6273000000000004,0.682699999999997 0.6323000000000003,0.6822000000000017 0.6328,0.6805000000000021 0.6361000000000003,0.6796999999999969 0.6549999999999998,0.6779999999999973 0.6583999999999999,0.676400000000001 0.6583999999999999,0.6743999999999986 0.6623000000000006,0.6740999999999957 0.6639000000000004,0.6707999999999998 0.6689000000000003,0.6691000000000003 0.6711000000000005,0.662700000000001 0.6766999999999999,0.6552000000000007 0.6823000000000001,0.6501999999999981 0.6827999999999999,0.6475000000000009 0.6895000000000002,0.6424999999999983 0.7267000000000006,0.6400000000000006 0.7534000000000005,0.6302000000000021 0.7589000000000001,0.625 0.7684000000000002,0.6193999999999988 0.7723,0.6135999999999981 0.7817000000000003,0.6099999999999994 0.7860999999999998,0.6105000000000018 0.7756000000000003,0.6128 0.7723,0.6177999999999955 0.7756000000000003,0.6197000000000017 0.7667000000000006,0.6246999999999971 0.7677999999999998,0.6268999999999991 0.7661000000000002,0.6280000000000001 0.7695000000000003,0.6291000000000011 0.7695000000000003,0.6304999999999978 0.7667000000000006,0.6319000000000017 0.7611000000000003,0.6310999999999964 0.7517,0.636099999999999 0.7511000000000005,0.6377999999999986 0.7616999999999998,0.6411000000000016 0.77,0.6411000000000016 0.7784,0.6385999999999967 0.7856000000000001,0.6293999999999969 0.7928000000000002,0.6246999999999971 0.8011000000000004,0.6227000000000018 0.8023000000000002,0.6197000000000017 0.8073000000000001,0.6160999999999959 0.8089,0.6180000000000021 0.8050000000000002,0.6193999999999988 0.8034000000000003,0.623899999999999 0.8117000000000005,0.6246999999999971 0.7995000000000005,0.6254999999999953 0.7955999999999999,0.6268999999999991 0.7967,0.6291000000000011 0.8039000000000001,0.6276999999999973 0.8239000000000005,0.6285999999999987 0.8250000000000006,0.6296999999999997 0.8134000000000001,0.6304999999999978 0.8095000000000003,0.6291000000000011 0.7984000000000004,0.6308000000000007 0.7906,0.639400000000002 0.7917000000000001,0.6421999999999954 0.7906,0.6447000000000003 0.7950000000000004,0.6458000000000013 0.8028,0.644999999999996 0.8023000000000002,0.6468999999999951 0.8045000000000004,0.6479999999999961 0.8117000000000005,0.6490999999999971 0.8123,0.6377999999999986 0.8178000000000005,0.6346999999999952 0.8306,0.6313999999999993 0.8283999999999998,0.633899999999997 0.8161,0.6379999999999981 0.8145000000000002,0.6390999999999991 0.8145000000000002,0.6418999999999997 0.8167000000000004,0.6454999999999984 0.8206000000000002,0.6468999999999951 0.8210999999999999,0.6415999999999968 0.8256000000000001,0.6413999999999973 0.8228000000000004,0.6418999999999997 0.8222999999999998,0.6494 0.8250000000000006,0.6518999999999977 0.8355999999999999,0.6529999999999987 0.8395000000000006,0.6513999999999953 0.8450000000000002,0.651600000000002 0.8500000000000001,0.6488999999999976 0.8534000000000002,0.644599999999997 0.8559000000000005,0.6465999999999994 0.8614000000000002,0.6421999999999954 0.8626,0.6356999999999999 0.8698000000000001,0.6340000000000003 0.8763000000000001,0.6278000000000006 0.8569,0.6139999999999972 0.8227000000000007,0.5820000000000007 0.7436000000000003,0.544399999999996 0.6962000000000006,0.5244999999999962 0.6389,0.5178000000000011 0.6017000000000001,0.4924999999999997 0.5634000000000001,0.4870000000000019 0.5413000000000001,0.4754000000000005 0.5234000000000001,0.47759999999999536 0.5155000000000003,0.490000000000002 0.44720000000000004,0.4814000000000007 0.42790000000000017,0.4917000000000016 0.4287000000000001,0.5176000000000016 0.43020000000000014,0.5227000000000004 0.43850000000000033,0.5340999999999951 0.41720000000000024,0.5409000000000006 0.41220000000000034,0.5401999999999987 "></polygon><polygon points="1.2139000000000002,1.7415999999999983 1.2155999999999998,1.7424999999999997 1.2189,1.743000000000002 1.2178,1.7404999999999973 1.2111000000000005,1.7402000000000015 1.2139000000000002,1.7415999999999983 "></polygon><polygon points="1.7223000000000002,2.582799999999999 1.7372999999999998,2.5805000000000007 1.7378000000000005,2.575800000000001 1.7317000000000005,2.5711000000000013 1.7234000000000003,2.573299999999996 1.7028000000000003,2.570299999999996 1.7010999999999998,2.567999999999998 1.6856000000000004,2.5608000000000004 1.6522999999999999,2.5497000000000014 1.6389,2.546900000000001 1.6295000000000006,2.5427999999999997 1.6267,2.5394000000000005 1.6273000000000004,2.5375000000000014 1.6417000000000006,2.534700000000001 1.6417000000000006,2.5330000000000013 1.6173000000000006,2.5204999999999984 1.6167000000000002,2.5182999999999964 1.6139000000000006,2.5168999999999997 1.5911000000000004,2.5116000000000014 1.5767000000000002,2.5039000000000016 1.5645000000000002,2.4947000000000017 1.5556000000000005,2.492199999999997 1.52,2.493000000000002 1.5017,2.4838999999999984 1.5006,2.4814000000000007 1.4973000000000005,2.482199999999999 1.4889000000000006,2.490000000000002 1.4889000000000006,2.496600000000001 1.4939000000000004,2.5004999999999953 1.5084000000000004,2.504399999999997 1.5645000000000002,2.5289 1.6017000000000006,2.5493999999999986 1.6366999999999998,2.5640999999999963 1.6589000000000005,2.5707999999999984 1.6717,2.5763999999999996 1.6972999999999998,2.582799999999999 1.7223000000000002,2.582799999999999 "></polygon><polygon points="1.3384000000000005,2.248899999999999 1.3247000000000004,2.2447000000000017 1.3195999999999999,2.235199999999999 1.3084000000000002,2.2382999999999953 1.3024,2.241799999999998 1.3007000000000004,2.247799999999998 1.3031000000000001,2.2539000000000016 1.3039,2.253 1.3047,2.258099999999999 1.3147000000000006,2.2637 1.3275000000000001,2.262299999999996 1.3278000000000003,2.256599999999999 1.3450000000000002,2.2524999999999977 1.3480000000000003,2.250399999999999 1.3384000000000005,2.248899999999999 "></polygon><polygon points="1.5000000000000004,2.4583000000000013 1.5134000000000003,2.4480000000000004 1.5134000000000003,2.4446999999999974 1.5161000000000002,2.442700000000002 1.5150000000000001,2.4365999999999985 1.5195000000000003,2.431899999999999 1.5256000000000003,2.433 1.5289000000000006,2.4311000000000007 1.5473000000000003,2.4125000000000014 1.5473000000000003,2.408299999999997 1.5445000000000007,2.407499999999999 1.5445000000000007,2.405299999999997 1.5411000000000006,2.4046999999999983 1.5423000000000004,2.4024999999999963 1.5394999999999999,2.4013999999999953 1.5378000000000003,2.396099999999997 1.5378000000000003,2.3888999999999996 1.5360999999999998,2.386099999999999 1.5360999999999998,2.376899999999999 1.5384000000000007,2.3729999999999976 1.5360999999999998,2.3665999999999983 1.5373000000000006,2.3564000000000007 1.5278000000000005,2.3491 1.5128,2.346599999999995 1.5111000000000003,2.342799999999997 1.5111000000000003,2.3316000000000017 1.5073000000000003,2.3288999999999973 1.5023000000000004,2.3282999999999987 1.5017,2.3226999999999975 1.4872999999999998,2.3108000000000004 1.4745000000000004,2.306599999999996 1.4584000000000006,2.3061000000000007 1.4295000000000004,2.2836 1.4356000000000004,2.2836 1.435,2.2815999999999974 1.4306000000000005,2.2789 1.4195000000000007,2.2785999999999973 1.4110999999999998,2.282499999999999 1.3895000000000004,2.2871999999999986 1.3878,2.2849999999999966 1.395,2.2793999999999954 1.4039000000000006,2.2779999999999987 1.4067000000000003,2.272500000000001 1.3973,2.270299999999999 1.3861000000000003,2.269999999999996 1.3805999999999998,2.265499999999996 1.3700000000000006,2.2622 1.3567000000000005,2.2697000000000003 1.3545000000000003,2.2744 1.3556000000000004,2.276600000000002 1.3506000000000005,2.2815999999999974 1.3489,2.287799999999997 1.3489,2.308 1.3511000000000002,2.3174999999999955 1.3595000000000002,2.335000000000001 1.3588999999999998,2.336599999999997 1.3700000000000006,2.353899999999996 1.4045,2.389400000000002 1.4678,2.4461000000000013 1.4906000000000001,2.4583000000000013 1.4945,2.459699999999998 1.5000000000000004,2.4583000000000013 "></polygon>
    </svg>
    