
    <svg width="0.17719999999999914" height="0.2038999999999973" xmlns="http://www.w3.org/2000/svg" xmlns:xlink="http://www.w3.org/1999/xlink" style="transform: scale(1, -1)">
        <polygon points="0.10020000000000095,0.008499999999997954 0.08869999999998868,0.006299999999999528 0.0719999999999743,0.0 0.06769999999997367,0.0018999999999991246 0.05709999999999127,0.012299999999999756 0.050199999999989586,0.01670000000000016 0.04229999999998313,0.01799999999999713 0.03469999999998663,0.01729999999999876 0.028599999999983083,0.019999999999999574 0.028399999999976444,0.022299999999997766 0.03639999999998622,0.029999999999997584 0.037599999999997635,0.03359999999999985 0.03799999999998249,0.03909999999999769 0.035399999999981446,0.04609999999999914 0.019399999999990314,0.06139999999999901 0.012199999999978672,0.06599999999999895 0.0,0.08139999999999858 0.006499999999988404,0.08819999999999695 0.02729999999999677,0.10009999999999764 0.030499999999989313,0.10499999999999687 0.032399999999995543,0.11789999999999878 0.02719999999999345,0.13539999999999708 0.02719999999999345,0.146099999999997 0.044399999999996,0.16549999999999798 0.0543999999999869,0.18299999999999983 0.07299999999997908,0.19799999999999685 0.10409999999998831,0.2038999999999973 0.13409999999998945,0.19769999999999754 0.140199999999993,0.19529999999999959 0.14689999999998804,0.1891999999999996 0.14939999999998577,0.18469999999999942 0.1488999999999976,0.17359999999999687 0.15219999999999345,0.158299999999997 0.15789999999998372,0.14669999999999916 0.15849999999997522,0.14339999999999975 0.1564999999999941,0.13889999999999958 0.158299999999997,0.12939999999999685 0.17639999999997258,0.09829999999999828 0.17719999999999914,0.09389999999999787 0.1723999999999819,0.08309999999999818 0.15419999999997458,0.05759999999999721 0.1455999999999733,0.05129999999999768 0.13579999999998904,0.03999999999999915 0.12129999999999086,0.028799999999996828 0.10849999999999227,0.009399999999999409 0.10020000000000095,0.008499999999997954 "></polygon>
    </svg>
    