
    <svg width="2.5503" height="1.4832999999999998" xmlns="http://www.w3.org/2000/svg" xmlns:xlink="http://www.w3.org/1999/xlink" style="transform: scale(1, -1)">
        <polygon points="0.5115000000000016,0.05239999999999867 0.5014000000000003,0.06110000000000326 0.48659999999999926,0.06400000000000006 0.4776999999999987,0.06550000000000011 0.45560000000000045,0.05859999999999843 0.4364999999999988,0.06150000000000233 0.4167999999999985,0.06869999999999976 0.41100000000000136,0.06929999999999836 0.3918999999999997,0.06430000000000291 0.37320000000000064,0.05089999999999861 0.3630999999999993,0.047800000000002285 0.31480000000000175,0.04460000000000264 0.2958999999999996,0.04800000000000182 0.28640000000000043,0.052300000000002456 0.28219999999999956,0.056800000000002626 0.2514000000000003,0.13479999999999848 0.2292999999999985,0.19639999999999702 0.2179000000000002,0.21869999999999834 0.2140999999999984,0.22420000000000329 0.14450000000000074,0.2366000000000028 0.13329999999999842,0.25079999999999814 0.13230000000000075,0.2605000000000004 0.13489999999999824,0.26550000000000296 0.142199999999999,0.271099999999997 0.1410000000000018,0.2779000000000025 0.13289999999999935,0.29359999999999786 0.10050000000000026,0.33680000000000376 0.0940000000000012,0.3363999999999976 0.08729999999999905,0.33919999999999817 0.08360000000000056,0.34380000000000166 0.0686,0.372799999999998 0.06619999999999848,0.3832000000000022 0.06299999999999883,0.38870000000000005 0.06530000000000058,0.3965999999999994 0.06009999999999849,0.4012999999999991 0.05689999999999884,0.41080000000000183 0.05940000000000012,0.421599999999998 0.057500000000000995,0.42949999999999733 0.04479999999999862,0.45949999999999847 0.04420000000000002,0.4673000000000016 0.03930000000000078,0.4725999999999999 0.039100000000001245,0.48389999999999844 0.04370000000000118,0.4906000000000006 0.04690000000000083,0.4908000000000001 0.057200000000001694,0.4842000000000013 0.06480000000000175,0.48380000000000223 0.06970000000000098,0.4864999999999995 0.07600000000000051,0.4981999999999971 0.08419999999999916,0.5041000000000011 0.08729999999999905,0.5125999999999991 0.09120000000000061,0.5153000000000034 0.09639999999999915,0.5268000000000015 0.10150000000000148,0.548099999999998 0.10650000000000048,0.5525999999999982 0.10350000000000037,0.5587000000000018 0.09309999999999974,0.566200000000002 0.08589999999999876,0.5750999999999991 0.07870000000000132,0.5767000000000024 0.07430000000000092,0.5803999999999974 0.05969999999999942,0.5868000000000038 0.04980000000000118,0.617600000000003 0.04420000000000002,0.6293999999999969 0.051300000000001234,0.6330000000000027 0.05069999999999908,0.6385999999999967 0.04609999999999914,0.6415999999999968 0.039699999999999847,0.6403999999999996 0.025500000000000966,0.6428000000000011 0.017199999999998994,0.6495999999999995 0.01640000000000086,0.6567999999999969 0.005199999999998539,0.660899999999998 0.0,0.6694999999999993 0.007699999999999818,0.6771999999999991 0.015200000000000102,0.6963000000000008 0.019899999999999807,0.7021000000000015 0.03399999999999892,0.7013999999999996 0.047399999999999665,0.7062000000000026 0.07689999999999841,0.7135000000000034 0.10290000000000177,0.7282999999999973 0.10300000000000153,0.7368999999999986 0.09659999999999869,0.7558999999999969 0.0782999999999987,0.7790999999999997 0.07310000000000016,0.7809000000000026 0.07410000000000139,0.7933999999999983 0.0730000000000004,0.7988 0.06790000000000163,0.807699999999997 0.07400000000000162,0.8314999999999984 0.07400000000000162,0.8399000000000001 0.07199999999999918,0.8491 0.06240000000000023,0.8691999999999993 0.06360000000000099,0.8871000000000038 0.06769999999999854,0.8965000000000032 0.07400000000000162,0.9037000000000006 0.07870000000000132,0.9125000000000014 0.0799999999999983,0.9196000000000026 0.08660000000000068,0.9249999999999972 0.09649999999999892,0.928600000000003 0.11550000000000082,0.9314999999999998 0.1183000000000014,0.9403000000000006 0.10900000000000176,0.9594000000000023 0.10579999999999856,0.9695999999999998 0.10790000000000077,1.0101000000000013 0.11110000000000042,1.0140999999999991 0.13530000000000086,1.0232000000000028 0.15859999999999985,1.0022999999999982 0.17210000000000036,0.9930000000000021 0.18349999999999866,0.9960999999999984 0.2021000000000015,1.0116000000000014 0.21669999999999945,1.0116000000000014 0.22390000000000043,1.0022999999999982 0.24050000000000082,0.9971000000000032 0.26129999999999853,1.0001999999999995 0.28719999999999857,1.0106000000000037 0.2893000000000008,1.0230000000000032 0.29799999999999827,1.0320999999999998 0.28729999999999833,1.0394999999999968 0.30790000000000006,1.0613000000000028 0.29240000000000066,1.0698000000000008 0.2986000000000004,1.084299999999999 0.2992999999999988,1.0968000000000018 0.28020000000000067,1.120199999999997 0.2774000000000001,1.134599999999999 0.2837999999999994,1.1479 0.2832000000000008,1.1685000000000016 0.3346000000000018,1.2171999999999983 0.36739999999999995,1.2368000000000023 0.4026999999999994,1.2346000000000004 0.42079999999999984,1.2363 0.4344000000000001,1.2492000000000019 0.4450000000000003,1.2622 0.4588000000000001,1.2702000000000027 0.5031999999999996,1.2740999999999971 0.5225000000000009,1.2774 0.5322999999999993,1.2890999999999977 0.5597999999999992,1.2939000000000007 0.601700000000001,1.3173999999999992 0.611699999999999,1.3277 0.6382000000000012,1.341700000000003 0.6634999999999991,1.3408000000000015 0.6774999999999984,1.3322000000000003 0.6910999999999987,1.3299999999999983 0.7005000000000017,1.3192999999999984 0.7117000000000004,1.3149000000000015 0.7099000000000011,1.2987000000000037 0.7246999999999986,1.294400000000003 0.7379999999999995,1.2867000000000033 0.7523000000000017,1.271799999999999 0.7834000000000003,1.2280999999999977 0.8006999999999991,1.2284000000000006 0.8185000000000002,1.2344000000000008 0.8346000000000018,1.2432999999999979 0.8478999999999992,1.2409000000000034 0.8462999999999994,1.243000000000002 0.8556999999999988,1.238500000000002 0.8576000000000015,1.2417000000000016 0.8460999999999999,1.2571000000000012 0.8438000000000017,1.266300000000001 0.8537999999999997,1.2800999999999974 0.8644999999999996,1.299199999999999 0.8656000000000006,1.3081000000000031 0.882200000000001,1.3179999999999978 0.9034000000000013,1.3273999999999972 0.9191000000000003,1.3385000000000034 0.9280000000000008,1.3492000000000033 0.9327000000000005,1.3667000000000016 0.9512,1.3667000000000016 0.968,1.3613 0.9802999999999997,1.362099999999998 0.9848999999999997,1.3667000000000016 1.0017999999999994,1.3689999999999998 1.0140999999999991,1.3644000000000034 1.0243000000000002,1.3639999999999972 1.0221000000000018,1.3721999999999994 1.0228000000000002,1.3877000000000024 1.0212000000000003,1.4048999999999978 1.0367999999999995,1.4052000000000007 1.0561000000000007,1.3975000000000009 1.0685000000000002,1.3879999999999981 1.0791000000000004,1.3836999999999975 1.1067,1.3873999999999995 1.1224999999999987,1.393099999999997 1.135200000000001,1.3935999999999993 1.1480999999999995,1.387599999999999 1.1630000000000003,1.3845000000000027 1.1771999999999991,1.3864000000000019 1.1933000000000007,1.3858000000000033 1.2105999999999995,1.3804999999999978 1.2285000000000004,1.3723000000000027 1.2449000000000012,1.3742000000000019 1.258700000000001,1.379800000000003 1.2673999999999985,1.3888000000000034 1.2795999999999985,1.3932000000000002 1.2937000000000012,1.392000000000003 1.3366000000000007,1.3958999999999975 1.3400999999999996,1.4106999999999985 1.3397000000000006,1.4247000000000014 1.3414000000000001,1.4329999999999998 1.3683000000000014,1.4523999999999972 1.3861999999999988,1.4532999999999987 1.4163999999999994,1.4239999999999995 1.4865999999999993,1.4650999999999996 1.5181000000000004,1.4493999999999971 1.5387999999999984,1.4489000000000019 1.5642999999999994,1.4305999999999983 1.5825999999999993,1.4307000000000016 1.623000000000001,1.4408999999999992 1.7011000000000003,1.4549999999999983 1.7222000000000008,1.4722000000000008 1.7392000000000003,1.4720000000000013 1.7828000000000017,1.4793999999999983 1.7973999999999997,1.4832999999999998 1.818999999999999,1.482599999999998 1.8369999999999997,1.4720000000000013 1.850200000000001,1.460099999999997 1.8638000000000012,1.451500000000003 1.8828999999999994,1.4440000000000026 1.8899000000000008,1.4487999999999985 1.8978000000000002,1.4451000000000036 1.908999999999999,1.4451000000000036 1.9166999999999987,1.436 1.9177,1.4313000000000002 1.930299999999999,1.4262999999999977 1.9280000000000008,1.4202000000000012 1.9331999999999994,1.4134000000000029 1.9411999999999985,1.4065000000000012 1.9426999999999985,1.4029000000000025 1.9480000000000004,1.3995000000000033 1.9515999999999991,1.3997000000000028 1.9522000000000013,1.3917000000000002 1.9616000000000007,1.3933000000000035 1.9659000000000013,1.3877000000000024 1.9659000000000013,1.3828999999999994 1.9760999999999989,1.3772999999999982 1.9747999999999983,1.3714000000000013 1.9818999999999996,1.3633999999999986 1.983699999999999,1.3571999999999989 1.9860000000000007,1.3562999999999974 1.9859000000000009,1.3530000000000015 1.9936000000000007,1.3451000000000022 1.9959999999999987,1.3384 1.9954,1.3363000000000014 2.0104000000000006,1.3355999999999995 2.0259,1.3290999999999968 2.0283000000000015,1.3246000000000038 2.0260999999999996,1.321399999999997 2.0264999999999986,1.3185000000000002 2.0299000000000014,1.3126999999999995 2.0313000000000017,1.3036999999999992 2.042200000000001,1.2924999999999969 2.037700000000001,1.2907999999999973 2.0371999999999986,1.2886000000000024 2.0497000000000014,1.2813000000000017 2.0538999999999987,1.2745000000000033 2.0732999999999997,1.2683000000000035 2.0787000000000013,1.262599999999999 2.0869,1.2578000000000031 2.0897000000000006,1.2522999999999982 2.1007999999999996,1.2456000000000031 2.1079000000000008,1.2421999999999969 2.1148999999999987,1.2428000000000026 2.1248000000000005,1.2308000000000021 2.130600000000001,1.230400000000003 2.1365000000000016,1.2269999999999968 2.1422999999999988,1.2291000000000025 2.1552000000000007,1.2255000000000038 2.1593000000000018,1.2212000000000032 2.168800000000001,1.2164000000000001 2.171900000000001,1.2124999999999986 2.1752000000000002,1.2118000000000038 2.1753,1.2083999999999975 2.1898000000000017,1.2017000000000024 2.194700000000001,1.2013999999999996 2.201599999999999,1.1953999999999994 2.223700000000001,1.1940000000000026 2.240400000000001,1.1972000000000023 2.2448000000000015,1.1996000000000038 2.2437000000000005,1.1936000000000035 2.25,1.1886999999999972 2.2532999999999994,1.188200000000002 2.2535999999999987,1.1850999999999985 2.257999999999999,1.1784000000000034 2.2650000000000006,1.174900000000001 2.2750999999999983,1.1762999999999977 2.2779999999999987,1.1737000000000037 2.286999999999999,1.1724999999999994 2.3024999999999984,1.1662999999999997 2.3139000000000003,1.1676000000000002 2.318100000000001,1.1711000000000027 2.3198000000000008,1.1762000000000015 2.3351000000000006,1.1576999999999984 2.3445,1.1510999999999996 2.3598,1.1497000000000028 2.370000000000001,1.1540999999999997 2.3747000000000007,1.1509 2.3816999999999986,1.1518000000000015 2.383700000000001,1.1460000000000008 2.3826,1.1415999999999968 2.3762000000000008,1.1340000000000003 2.391400000000001,1.127200000000002 2.3901000000000003,1.1221999999999994 2.391400000000001,1.1204000000000036 2.390599999999999,1.1088000000000022 2.3945000000000007,1.1062999999999974 2.390699999999999,1.0859000000000023 2.3933999999999997,1.078800000000001 2.3916000000000004,1.0760000000000005 2.3950999999999993,1.0739000000000019 2.3912000000000013,1.0673999999999992 2.395199999999999,1.0638999999999967 2.3969999999999985,1.0568000000000026 2.4003000000000014,1.0529999999999973 2.408200000000001,1.0508000000000024 2.4109000000000016,1.0463999999999984 2.4106999999999985,1.0414999999999992 2.4161,1.0350000000000037 2.4137999999999984,1.0298999999999978 2.414300000000001,1.0264000000000024 2.4183999999999983,1.0232000000000028 2.4161,1.0191000000000017 2.4194999999999993,1.0082000000000022 2.4244999999999983,1.0071000000000012 2.427199999999999,1.0091999999999999 2.4326000000000008,1.0084000000000017 2.4460000000000015,0.9947999999999979 2.445499999999999,0.9917999999999978 2.449200000000001,0.9878 2.4510000000000005,0.9817999999999998 2.4563999999999986,0.9791999999999987 2.4557,0.9741 2.4634,0.9620999999999995 2.4649,0.9461000000000013 2.4693000000000005,0.9425000000000026 2.4727999999999994,0.9343000000000004 2.4784000000000006,0.9309999999999974 2.482199999999999,0.9232000000000014 2.4875000000000007,0.9187999999999974 2.4899999999999984,0.9191000000000003 2.4948000000000015,0.9063000000000017 2.492799999999999,0.9029000000000025 2.494399999999999,0.9003000000000014 2.5000999999999998,0.8978000000000037 2.501100000000001,0.9008000000000038 2.5061999999999998,0.9014000000000024 2.5098999999999982,0.9061000000000021 2.5131000000000014,0.9020999999999972 2.5176000000000016,0.9065000000000012 2.5257000000000005,0.9065999999999974 2.5284000000000013,0.8997000000000028 2.533100000000001,0.8956000000000017 2.5326999999999984,0.8887 2.5382,0.8870000000000005 2.5410000000000004,0.8781999999999996 2.547599999999999,0.8695000000000022 2.5474999999999994,0.866100000000003 2.549900000000001,0.8629000000000033 2.5473999999999997,0.8573999999999984 2.5503,0.8498000000000019 2.5455000000000005,0.8470000000000013 2.543199999999999,0.8425000000000011 2.5390000000000015,0.8425000000000011 2.5257000000000005,0.8243000000000009 2.524899999999999,0.8207999999999984 2.5215999999999994,0.8201999999999998 2.511800000000001,0.8111000000000033 2.5077,0.8036999999999992 2.5078999999999994,0.8014999999999972 2.505700000000001,0.8008000000000024 2.5032999999999994,0.7956000000000003 2.4997000000000007,0.7942000000000036 2.5,0.7914999999999992 2.5023000000000017,0.7897999999999996 2.5016999999999996,0.7850000000000037 2.4852999999999987,0.7847000000000008 2.4787999999999997,0.7828000000000017 2.4780000000000015,0.7837999999999994 2.4764000000000017,0.7800999999999974 2.4701999999999984,0.7774000000000001 2.4696,0.7715000000000032 2.466899999999999,0.7680000000000007 2.471399999999999,0.7631000000000014 2.4709000000000003,0.7578999999999994 2.472899999999999,0.7546999999999997 2.4716999999999985,0.7481000000000009 2.4695,0.7454999999999998 2.4703000000000017,0.7387999999999977 2.4679,0.7342999999999975 2.469100000000001,0.7248999999999981 2.4712999999999994,0.720799999999997 2.4787999999999997,0.7205000000000013 2.4795000000000016,0.7175999999999974 2.484300000000001,0.7137999999999991 2.4832,0.7117000000000004 2.4847,0.7043999999999997 2.4872000000000014,0.700800000000001 2.4908,0.6997 2.491299999999999,0.6961999999999975 2.4872000000000014,0.6903000000000006 2.488199999999999,0.6794999999999973 2.477599999999999,0.6773999999999987 2.4757999999999996,0.6694000000000031 2.480599999999999,0.659799999999997 2.4893,0.6527999999999992 2.487300000000001,0.639800000000001 2.4784000000000006,0.6345999999999989 2.474,0.628300000000003 2.4769000000000005,0.625 2.4776999999999987,0.6114000000000033 2.4841000000000015,0.6092000000000013 2.4803999999999995,0.6005000000000038 2.4819999999999993,0.5964000000000027 2.492799999999999,0.5880999999999972 2.4967000000000006,0.5818000000000012 2.484400000000001,0.5653000000000006 2.478300000000001,0.5649000000000015 2.4692000000000007,0.5534000000000034 2.4701999999999984,0.546599999999998 2.4773999999999994,0.5433999999999983 2.4773999999999994,0.5411000000000001 2.4853999999999985,0.5313999999999979 2.483599999999999,0.5264000000000024 2.483599999999999,0.5187000000000026 2.489699999999999,0.5061000000000035 2.4908,0.49620000000000175 2.4773999999999994,0.495199999999997 2.4761999999999986,0.49380000000000024 2.4779000000000018,0.48790000000000333 2.4685999999999986,0.4859999999999971 2.4106999999999985,0.48810000000000286 2.383700000000001,0.48329999999999984 2.353999999999999,0.4883999999999986 2.341899999999999,0.48499999999999943 2.3332000000000015,0.4784000000000006 2.3125999999999998,0.47509999999999764 2.305900000000001,0.46300000000000097 2.3035999999999994,0.4510999999999967 2.3051999999999992,0.42540000000000333 2.3039999999999985,0.4087999999999994 2.3013000000000012,0.38410000000000366 2.2997000000000014,0.38530000000000086 2.293700000000001,0.32730000000000103 2.2830000000000013,0.3130999999999986 2.2807999999999993,0.30510000000000304 2.2613999999999983,0.29129999999999967 2.2555000000000014,0.2920000000000016 2.2384999999999984,0.30230000000000246 2.2227999999999994,0.3207000000000022 2.212299999999999,0.3288000000000011 2.207799999999999,0.3295999999999992 2.1994000000000007,0.32750000000000057 2.1896999999999984,0.3213000000000008 2.1776000000000018,0.2984999999999971 2.1583000000000006,0.27729999999999677 2.1369000000000007,0.26440000000000197 2.1310000000000002,0.26550000000000296 2.1004000000000005,0.2779999999999987 2.0791000000000004,0.27720000000000056 2.0146000000000015,0.2646999999999977 1.9772999999999996,0.265900000000002 1.9634999999999998,0.26910000000000167 1.9491000000000014,0.2837999999999994 1.9361999999999995,0.285499999999999 1.9088999999999992,0.28410000000000224 1.8825000000000003,0.28000000000000114 1.8737999999999992,0.28190000000000026 1.8644999999999996,0.2909000000000006 1.8661999999999992,0.29359999999999786 1.8629999999999995,0.29229999999999734 1.8603999999999985,0.29480000000000217 1.8489000000000004,0.2922000000000011 1.809000000000001,0.31230000000000047 1.7731999999999992,0.31280000000000285 1.7591999999999999,0.3106999999999971 1.7570000000000014,0.31210000000000093 1.7530999999999999,0.3096999999999994 1.7240000000000002,0.30530000000000257 1.6900000000000013,0.2775000000000034 1.6827000000000005,0.2732000000000028 1.6578000000000017,0.2762999999999991 1.6517000000000017,0.2813999999999979 1.6469999999999985,0.28240000000000265 1.6219000000000001,0.2944999999999993 1.6190999999999995,0.30299999999999727 1.6071999999999989,0.30570000000000164 1.6049000000000007,0.30290000000000106 1.6006,0.3049000000000035 1.5888999999999989,0.28719999999999857 1.585799999999999,0.28600000000000136 1.584900000000001,0.2834000000000003 1.5755000000000017,0.2785999999999973 1.546800000000001,0.27660000000000196 1.5406000000000013,0.2740000000000009 1.5173999999999985,0.272199999999998 1.5061,0.2693999999999974 1.4863999999999997,0.25560000000000116 1.4520000000000017,0.2378 1.447700000000001,0.2272000000000034 1.4459000000000017,0.21659999999999968 1.4473999999999982,0.20340000000000202 1.4354000000000013,0.18719999999999715 1.4224999999999994,0.18619999999999948 1.4149999999999991,0.17009999999999792 1.4080000000000013,0.166400000000003 1.3966999999999992,0.16440000000000055 1.3765999999999998,0.13519999999999754 1.3678999999999988,0.1302999999999983 1.3579000000000008,0.12780000000000058 1.3432999999999993,0.11670000000000158 1.3439000000000014,0.09949999999999903 1.341000000000001,0.08800000000000097 1.3294999999999995,0.07789999999999964 1.2998000000000012,0.07489999999999952 1.2779999999999987,0.07730000000000103 1.2575000000000003,0.08590000000000231 1.2475999999999985,0.08449999999999847 1.2157000000000018,0.06819999999999737 1.2134999999999998,0.048900000000003274 1.2052000000000014,0.047699999999998965 1.2058,0.042200000000001125 1.1912999999999982,0.04339999999999833 1.185500000000001,0.04079999999999728 1.177900000000001,0.03990000000000293 1.1389999999999993,0.01630000000000109 1.1244000000000014,0.0146000000000015 1.1146999999999991,0.01939999999999742 1.0787000000000013,0.056100000000000705 1.0106000000000002,0.05660000000000309 0.9804999999999993,0.0666000000000011 0.889800000000001,0.02130000000000365 0.8393000000000015,0.008499999999997954 0.8049999999999997,0.00840000000000174 0.7663000000000011,0.029899999999997817 0.7081000000000017,0.00910000000000366 0.6651999999999987,0.00280000000000058 0.5439000000000007,0.0 0.535499999999999,0.00280000000000058 0.5341999999999985,0.01939999999999742 0.5301000000000009,0.04010000000000247 0.5234999999999985,0.04679999999999751 0.5115000000000016,0.05239999999999867 "></polygon>
    </svg>
    