
    <svg width="0.3470000000000013" height="0.8048000000000002" xmlns="http://www.w3.org/2000/svg" xmlns:xlink="http://www.w3.org/1999/xlink" style="transform: scale(1, -1)">
        <polygon points="0.025300000000001432,0.0022999999999999687 0.025900000000000034,0.0003000000000010772 0.023399999999995202,0.0 0.024799999999999045,0.0037000000000002586 0.025300000000001432,0.0022999999999999687 "></polygon><polygon points="0.06340000000000146,0.010600000000000165 0.06609999999999872,0.008399999999999963 0.06919999999999504,0.009800000000000253 0.07339999999999947,0.007799999999999585 0.06969999999999743,0.006999999999999673 0.07059999999999889,0.00420000000000087 0.06589999999999918,0.006700000000000372 0.06470000000000198,0.0038999999999997925 0.06389999999999674,0.00560000000000116 0.06139999999999901,0.005300000000000082 0.05999999999999517,0.008900000000000574 0.06139999999999901,0.011400000000000077 0.06340000000000146,0.010600000000000165 "></polygon><polygon points="0.0227999999999966,0.03669999999999973 0.02499999999999858,0.03480000000000061 0.02389999999999759,0.030100000000000904 0.027000000000001023,0.027499999999999858 0.02669999999999817,0.025900000000000034 0.02949999999999875,0.026699999999999946 0.030299999999996885,0.025299999999999656 0.03450000000000131,0.025000000000000355 0.03609999999999758,0.026699999999999946 0.043099999999995475,0.025000000000000355 0.045000000000001705,0.027000000000001023 0.04860000000000042,0.024200000000000443 0.04970000000000141,0.02120000000000033 0.044799999999995066,0.017800000000001148 0.04339999999999833,0.013099999999999667 0.038599999999995305,0.012299999999999756 0.033099999999997465,0.013700000000000045 0.028900000000000148,0.010300000000000864 0.028100000000002012,0.012299999999999756 0.030000000000001137,0.01529999999999987 0.027000000000001023,0.01529999999999987 0.01729999999999876,0.008900000000000574 0.016100000000001558,0.006199999999999761 0.012299999999996203,0.00590000000000046 0.001100000000000989,0.009800000000000253 0.0,0.011700000000001154 0.0013999999999967372,0.014800000000001035 0.01279999999999859,0.019199999999999662 0.013599999999996726,0.021399999999999864 0.01389999999999958,0.026699999999999946 0.007500000000000284,0.027800000000000935 0.007799999999996032,0.03170000000000073 0.010300000000000864,0.03340000000000032 0.01839999999999975,0.03279999999999994 0.020299999999998875,0.03730000000000011 0.0227999999999966,0.03669999999999973 "></polygon><polygon points="0.05359999999999587,0.022500000000000853 0.05339999999999634,0.02170000000000094 0.05030000000000001,0.021399999999999864 0.05229999999999535,0.023699999999999832 0.05359999999999587,0.022500000000000853 "></polygon><polygon points="0.10229999999999961,0.05530000000000079 0.10029999999999717,0.05280000000000129 0.09839999999999804,0.05339999999999989 0.09919999999999618,0.055600000000000094 0.10229999999999961,0.05670000000000108 0.10229999999999961,0.05530000000000079 "></polygon><polygon points="0.0677999999999983,0.06840000000000046 0.073599999999999,0.06780000000000008 0.07750000000000057,0.06479999999999997 0.07920000000000016,0.060900000000000176 0.07750000000000057,0.059200000000000585 0.07169999999999987,0.059200000000000585 0.06839999999999691,0.055600000000000094 0.06609999999999872,0.05670000000000108 0.06589999999999918,0.05450000000000088 0.06810000000000116,0.05230000000000068 0.06749999999999545,0.04980000000000118 0.06199999999999761,0.04980000000000118 0.06499999999999773,0.05450000000000088 0.0630999999999986,0.0602999999999998 0.06669999999999732,0.06419999999999959 0.06559999999999633,0.06810000000000116 0.0677999999999983,0.06840000000000046 "></polygon><polygon points="0.10309999999999775,0.06140000000000079 0.1034000000000006,0.058099999999999596 0.10029999999999717,0.057299999999999685 0.09890000000000043,0.059200000000000585 0.10139999999999816,0.059499999999999886 0.10170000000000101,0.06280000000000108 0.10309999999999775,0.06140000000000079 "></polygon><polygon points="0.07280000000000086,0.07089999999999996 0.07169999999999987,0.06949999999999967 0.07029999999999603,0.07010000000000005 0.07139999999999702,0.07280000000000086 0.07280000000000086,0.07089999999999996 "></polygon><polygon points="0.060600000000000875,0.08309999999999995 0.06139999999999901,0.08120000000000083 0.05859999999999843,0.08140000000000036 0.058900000000001285,0.08370000000000033 0.060600000000000875,0.08309999999999995 "></polygon><polygon points="0.11339999999999861,0.11280000000000001 0.11139999999999617,0.11230000000000118 0.11200000000000188,0.1144999999999996 0.11339999999999861,0.11480000000000068 0.11339999999999861,0.11280000000000001 "></polygon><polygon points="0.14979999999999905,0.1598000000000006 0.15200000000000102,0.16060000000000052 0.15139999999999532,0.15750000000000064 0.15559999999999974,0.16089999999999982 0.15559999999999974,0.15840000000000032 0.15809999999999746,0.15869999999999962 0.15749999999999886,0.15670000000000073 0.15559999999999974,0.15700000000000003 0.15729999999999933,0.15620000000000012 0.15559999999999974,0.15390000000000015 0.15390000000000015,0.15479999999999983 0.15529999999999688,0.15200000000000102 0.1541999999999959,0.14920000000000044 0.15729999999999933,0.14620000000000033 0.15279999999999916,0.13889999999999958 0.1477999999999966,0.13870000000000005 0.147199999999998,0.14090000000000025 0.14359999999999928,0.14170000000000016 0.14170000000000016,0.13920000000000066 0.13919999999999533,0.14060000000000095 0.13859999999999673,0.13780000000000037 0.14110000000000156,0.13700000000000045 0.13810000000000144,0.12780000000000058 0.14000000000000057,0.12260000000000026 0.1377999999999986,0.12260000000000026 0.13889999999999958,0.1203000000000003 0.1355999999999966,0.1181000000000001 0.13389999999999702,0.1144999999999996 0.13109999999999644,0.11509999999999998 0.13060000000000116,0.11840000000000117 0.12639999999999674,0.11870000000000047 0.12279999999999802,0.11730000000000018 0.11999999999999744,0.11340000000000039 0.11779999999999546,0.11340000000000039 0.11359999999999815,0.1205999999999996 0.10669999999999646,0.1227999999999998 0.10640000000000072,0.12530000000000108 0.10839999999999606,0.1264000000000003 0.1097999999999999,0.12390000000000079 0.1186000000000007,0.12010000000000076 0.12279999999999802,0.12230000000000096 0.12420000000000186,0.12589999999999968 0.12590000000000146,0.12340000000000018 0.12919999999999732,0.12310000000000088 0.13169999999999504,0.12620000000000076 0.134999999999998,0.12729999999999997 0.134999999999998,0.13279999999999959 0.13250000000000028,0.13390000000000057 0.1319999999999979,0.13640000000000008 0.13250000000000028,0.14200000000000124 0.12699999999999534,0.14760000000000062 0.12859999999999872,0.14869999999999983 0.12699999999999534,0.15010000000000012 0.12780000000000058,0.15840000000000032 0.1313999999999993,0.16030000000000122 0.13219999999999743,0.15700000000000003 0.134999999999998,0.15810000000000102 0.13479999999999848,0.15620000000000012 0.14000000000000057,0.15230000000000032 0.14280000000000115,0.15420000000000122 0.14389999999999503,0.15779999999999994 0.146099999999997,0.15869999999999962 0.14589999999999748,0.16060000000000052 0.15059999999999718,0.16140000000000043 0.14979999999999905,0.1598000000000006 "></polygon><polygon points="0.15780000000000172,0.1512000000000011 0.15729999999999933,0.14949999999999974 0.15639999999999787,0.14949999999999974 0.15729999999999933,0.15259999999999962 0.15780000000000172,0.1512000000000011 "></polygon><polygon points="0.18609999999999616,0.21499999999999986 0.188600000000001,0.21499999999999986 0.1875,0.21390000000000065 0.18840000000000146,0.21170000000000044 0.18529999999999802,0.21310000000000073 0.1816999999999993,0.21000000000000085 0.17980000000000018,0.21170000000000044 0.18029999999999546,0.21640000000000015 0.18479999999999563,0.21530000000000094 0.186399999999999,0.21670000000000122 0.18609999999999616,0.21499999999999986 "></polygon><polygon points="0.25139999999999674,0.2301000000000002 0.2516999999999996,0.2276000000000007 0.24920000000000186,0.22560000000000002 0.2494999999999976,0.2306000000000008 0.25139999999999674,0.2301000000000002 "></polygon><polygon points="0.18670000000000186,0.3697999999999997 0.188600000000001,0.3681000000000001 0.18840000000000146,0.36620000000000097 0.18529999999999802,0.3678000000000008 0.18499999999999517,0.3703000000000003 0.18670000000000186,0.3697999999999997 "></polygon><polygon points="0.2149999999999963,0.38700000000000045 0.21750000000000114,0.38530000000000086 0.21340000000000003,0.3839000000000006 0.21699999999999875,0.38230000000000075 0.21699999999999875,0.38090000000000046 0.2108999999999952,0.37950000000000017 0.21110000000000184,0.3742000000000001 0.21359999999999957,0.37230000000000096 0.21280000000000143,0.3709000000000007 0.2102999999999966,0.370000000000001 0.20749999999999602,0.3717000000000006 0.20530000000000115,0.370000000000001 0.20219999999999771,0.3742000000000001 0.19780000000000086,0.3692000000000011 0.1938999999999993,0.3703000000000003 0.19359999999999644,0.3734000000000002 0.20609999999999928,0.37700000000000067 0.2102999999999966,0.38260000000000005 0.21110000000000184,0.38670000000000115 0.2149999999999963,0.38700000000000045 "></polygon><polygon points="0.2220000000000013,0.39639999999999986 0.2230999999999952,0.39310000000000045 0.21419999999999817,0.39230000000000054 0.215600000000002,0.39700000000000024 0.2183999999999955,0.39620000000000033 0.2220000000000013,0.39750000000000085 0.2220000000000013,0.39639999999999986 "></polygon><polygon points="0.2575000000000003,0.46950000000000003 0.259999999999998,0.46390000000000065 0.258899999999997,0.4623000000000008 0.2569999999999979,0.46279999999999966 0.2575000000000003,0.46090000000000053 0.2552999999999983,0.45889999999999986 0.25609999999999644,0.45640000000000036 0.25499999999999545,0.45589999999999975 0.2575000000000003,0.45420000000000016 0.25609999999999644,0.45059999999999967 0.25199999999999534,0.4513999999999996 0.25090000000000146,0.44840000000000124 0.24810000000000088,0.44840000000000124 0.24669999999999703,0.44560000000000066 0.24309999999999832,0.44589999999999996 0.24249999999999972,0.44340000000000046 0.2441999999999993,0.44170000000000087 0.24170000000000158,0.44310000000000116 0.23809999999999576,0.44170000000000087 0.2383999999999986,0.4391999999999996 0.2458999999999989,0.4381000000000004 0.2441999999999993,0.4342000000000006 0.24499999999999744,0.4295000000000009 0.2406000000000006,0.4283999999999999 0.24279999999999546,0.4259000000000004 0.24249999999999972,0.4234000000000009 0.24449999999999505,0.4242000000000008 0.24499999999999744,0.4234000000000009 0.2436000000000007,0.420300000000001 0.23749999999999716,0.4192 0.2335999999999956,0.414200000000001 0.23169999999999646,0.4153000000000002 0.23199999999999932,0.4084000000000003 0.22809999999999775,0.4076000000000004 0.22860000000000014,0.4120000000000008 0.22589999999999577,0.41389999999999993 0.22090000000000032,0.4120000000000008 0.21779999999999688,0.40530000000000044 0.2113999999999976,0.4059000000000008 0.20639999999999503,0.4084000000000003 0.19890000000000185,0.4086999999999996 0.19669999999999987,0.4098000000000006 0.1980999999999966,0.41140000000000043 0.1933999999999969,0.4103000000000012 0.18970000000000198,0.4126000000000012 0.18560000000000088,0.4128000000000007 0.17949999999999733,0.4103000000000012 0.17450000000000188,0.4108999999999998 0.18529999999999802,0.41389999999999993 0.1875,0.4167000000000005 0.19089999999999918,0.4147999999999996 0.19610000000000127,0.4176000000000002 0.21479999999999677,0.4173000000000009 0.21699999999999875,0.4208999999999996 0.22030000000000172,0.4220000000000006 0.22500000000000142,0.4306000000000001 0.22109999999999985,0.4337 0.21450000000000102,0.4317000000000011 0.2119999999999962,0.4337 0.2119999999999962,0.43870000000000076 0.22359999999999758,0.4444999999999997 0.22500000000000142,0.44780000000000086 0.227800000000002,0.44810000000000016 0.23140000000000072,0.45310000000000095 0.23529999999999518,0.4537000000000013 0.2383999999999986,0.45809999999999995 0.24920000000000186,0.46060000000000123 0.25199999999999534,0.4687000000000001 0.25450000000000017,0.4701000000000004 0.2575000000000003,0.46950000000000003 "></polygon><polygon points="0.22390000000000043,0.5777999999999999 0.21979999999999933,0.5751000000000008 0.21719999999999828,0.577 0.21450000000000102,0.5767000000000007 0.21529999999999916,0.5806000000000004 0.2119999999999962,0.583400000000001 0.2160999999999973,0.5845000000000002 0.21470000000000056,0.5881000000000007 0.21249999999999858,0.5884 0.2102999999999966,0.5925000000000011 0.2055999999999969,0.5914000000000001 0.20749999999999602,0.5945 0.20309999999999917,0.5961999999999996 0.2038999999999973,0.5991999999999997 0.19729999999999848,0.6001000000000012 0.1944999999999979,0.6028000000000002 0.19500000000000028,0.6048000000000009 0.19169999999999732,0.6039000000000012 0.19169999999999732,0.6092000000000013 0.19419999999999504,0.6120000000000001 0.19169999999999732,0.6156000000000006 0.1880999999999986,0.6151 0.19030000000000058,0.6217000000000006 0.188600000000001,0.6241000000000003 0.1822000000000017,0.6234000000000002 0.18390000000000128,0.6270000000000007 0.18199999999999505,0.6298000000000012 0.18390000000000128,0.6323000000000008 0.1822000000000017,0.6327999999999996 0.18390000000000128,0.6327999999999996 0.18309999999999604,0.6348000000000003 0.18589999999999662,0.6376000000000008 0.18309999999999604,0.6445000000000007 0.18670000000000186,0.6502999999999997 0.18499999999999517,0.6523000000000003 0.186399999999999,0.6531000000000002 0.18670000000000186,0.6573000000000011 0.1844999999999999,0.6634000000000011 0.186399999999999,0.6659000000000006 0.18479999999999563,0.6673000000000009 0.18970000000000198,0.6692 0.1875,0.6769999999999996 0.19109999999999872,0.6776 0.19109999999999872,0.6791999999999998 0.1933999999999969,0.6783999999999999 0.19590000000000174,0.6844999999999999 0.20109999999999673,0.6867000000000001 0.19610000000000127,0.6920000000000002 0.20139999999999958,0.7000000000000011 0.19839999999999947,0.7042000000000002 0.19950000000000045,0.708400000000001 0.2008999999999972,0.7095000000000002 0.2102999999999966,0.7088999999999999 0.21249999999999858,0.7111999999999998 0.2149999999999963,0.7111999999999998 0.21589999999999776,0.7156000000000002 0.21949999999999648,0.7123000000000008 0.22589999999999577,0.7164000000000001 0.22749999999999915,0.7201000000000004 0.22560000000000002,0.7270000000000003 0.2260999999999953,0.7337000000000007 0.2342000000000013,0.7384000000000004 0.23859999999999815,0.7538999999999998 0.24089999999999634,0.7550000000000008 0.24170000000000158,0.759500000000001 0.2441999999999993,0.7598000000000003 0.24640000000000128,0.7622999999999998 0.2458999999999989,0.7689000000000004 0.248899999999999,0.7695000000000007 0.2516999999999996,0.7731000000000012 0.248899999999999,0.7751000000000001 0.251100000000001,0.7762000000000011 0.25029999999999575,0.7781000000000002 0.25390000000000157,0.7817000000000007 0.25560000000000116,0.7887000000000004 0.2594999999999956,0.7895000000000003 0.258899999999997,0.7927999999999997 0.26610000000000156,0.7917000000000005 0.2749999999999986,0.8011999999999997 0.27729999999999677,0.8001000000000005 0.2802999999999969,0.8019999999999996 0.2819999999999965,0.8001000000000005 0.2855999999999952,0.8023000000000007 0.28589999999999804,0.8041999999999998 0.28779999999999717,0.8028000000000013 0.28999999999999915,0.8048000000000002 0.3048000000000002,0.8028000000000013 0.3119999999999976,0.7956000000000003 0.3200000000000003,0.8006000000000011 0.321399999999997,0.7995000000000001 0.321399999999997,0.7956000000000003 0.3188999999999993,0.7950999999999997 0.31969999999999743,0.7927999999999997 0.32339999999999947,0.7923000000000009 0.323599999999999,0.7903000000000002 0.3252999999999986,0.7926000000000002 0.32979999999999876,0.7923000000000009 0.3299999999999983,0.7895000000000003 0.3316999999999979,0.7888999999999999 0.32920000000000016,0.7862000000000009 0.3266999999999953,0.7866999999999997 0.3263999999999996,0.7856000000000005 0.328400000000002,0.7812000000000001 0.3310999999999993,0.7803000000000004 0.32920000000000016,0.777000000000001 0.33200000000000074,0.7713999999999999 0.3316999999999979,0.7689000000000004 0.333599999999997,0.7651000000000003 0.3380999999999972,0.7626000000000008 0.3388999999999953,0.7577999999999996 0.34309999999999974,0.7516999999999996 0.3433999999999955,0.7331000000000003 0.3459000000000003,0.7233999999999998 0.34609999999999985,0.7134 0.34559999999999746,0.7012 0.3427999999999969,0.6981000000000002 0.34499999999999886,0.6851000000000003 0.3470000000000013,0.6828000000000003 0.3470000000000013,0.6817000000000011 0.3433999999999955,0.6817000000000011 0.34309999999999974,0.6776 0.3453000000000017,0.6689000000000007 0.34479999999999933,0.664200000000001 0.34669999999999845,0.6606000000000005 0.3374999999999986,0.652000000000001 0.3363999999999976,0.6486999999999998 0.3374999999999986,0.6456 0.33500000000000085,0.6448 0.334699999999998,0.6351000000000013 0.3333999999999975,0.6341999999999999 0.333599999999997,0.6319999999999997 0.33139999999999503,0.6319999999999997 0.32979999999999876,0.6266999999999996 0.3310999999999993,0.6227999999999998 0.3263999999999996,0.6214000000000013 0.3266999999999953,0.6178000000000008 0.3247999999999962,0.6176000000000013 0.323599999999999,0.6089000000000002 0.3211000000000013,0.6089000000000002 0.3200000000000003,0.6062000000000012 0.31700000000000017,0.5739000000000001 0.3149999999999977,0.5734000000000012 0.314700000000002,0.5706000000000007 0.3125,0.5709 0.311399999999999,0.5673000000000012 0.3035999999999959,0.5673000000000012 0.30109999999999815,0.5601000000000003 0.29809999999999803,0.557500000000001 0.2986000000000004,0.5553000000000008 0.29479999999999507,0.5526 0.29419999999999646,0.5487000000000002 0.2972999999999999,0.5480999999999998 0.299199999999999,0.545300000000001 0.29359999999999786,0.5464000000000002 0.29419999999999646,0.5445000000000011 0.29059999999999775,0.5434000000000001 0.28529999999999944,0.5439000000000007 0.28309999999999746,0.5470000000000006 0.2808999999999955,0.5439000000000007 0.2791999999999959,0.5464000000000002 0.27669999999999817,0.5470000000000006 0.277000000000001,0.5434000000000001 0.2755999999999972,0.5437000000000012 0.27530000000000143,0.5458999999999996 0.2738999999999976,0.5439000000000007 0.27060000000000173,0.5449999999999999 0.26780000000000115,0.5434000000000001 0.26670000000000016,0.5449999999999999 0.26839999999999975,0.5456000000000003 0.26889999999999503,0.5492000000000008 0.2641999999999953,0.5523000000000007 0.261099999999999,0.5523000000000007 0.2586000000000013,0.5559000000000012 0.25390000000000157,0.5584000000000007 0.251100000000001,0.5578000000000003 0.251100000000001,0.5609000000000002 0.24859999999999616,0.5623000000000005 0.23919999999999675,0.5609000000000002 0.23639999999999617,0.5578000000000003 0.2325000000000017,0.5601000000000003 0.23199999999999932,0.5614000000000008 0.23499999999999943,0.5648 0.23669999999999902,0.5706000000000007 0.23499999999999943,0.5714000000000006 0.23449999999999704,0.5745000000000005 0.22970000000000113,0.5776000000000003 0.22589999999999577,0.5792000000000002 0.22390000000000043,0.5777999999999999 "></polygon><polygon points="0.26839999999999975,0.2614000000000001 0.271099999999997,0.26200000000000045 0.27139999999999986,0.25950000000000095 0.2674999999999983,0.25510000000000055 0.2622999999999962,0.26170000000000115 0.2641999999999953,0.26340000000000074 0.26500000000000057,0.26229999999999976 0.26780000000000115,0.26340000000000074 0.26839999999999975,0.2614000000000001 "></polygon><polygon points="0.2866999999999962,0.2873000000000001 0.28479999999999706,0.2870000000000008 0.28479999999999706,0.2881 0.2875000000000014,0.28889999999999993 0.2866999999999962,0.2873000000000001 "></polygon><polygon points="0.2913999999999959,0.3139000000000003 0.2930999999999955,0.31230000000000047 0.2913999999999959,0.3094999999999999 0.2950000000000017,0.3070000000000004 0.2930999999999955,0.3041999999999998 0.289200000000001,0.3045000000000009 0.2845000000000013,0.3017000000000003 0.28419999999999845,0.2958999999999996 0.2813999999999979,0.2937000000000012 0.28309999999999746,0.2876000000000012 0.28059999999999974,0.2870000000000008 0.28229999999999933,0.2850999999999999 0.28059999999999974,0.2845000000000013 0.2785999999999973,0.28030000000000044 0.27949999999999875,0.27780000000000094 0.2774999999999963,0.27669999999999995 0.27669999999999817,0.28139999999999965 0.2733999999999952,0.2809000000000008 0.27309999999999945,0.2836999999999996 0.2702999999999989,0.2826000000000004 0.2716999999999956,0.2856000000000005 0.2685999999999993,0.2900000000000009 0.271099999999997,0.2900000000000009 0.271099999999997,0.2911999999999999 0.2691999999999979,0.2926000000000002 0.2674999999999983,0.2906000000000013 0.2680999999999969,0.2931000000000008 0.27360000000000184,0.2980999999999998 0.27360000000000184,0.2995000000000001 0.271099999999997,0.2992000000000008 0.27250000000000085,0.3019999999999996 0.27060000000000173,0.3048000000000002 0.27590000000000003,0.3106000000000009 0.2744999999999962,0.31370000000000076 0.277000000000001,0.31620000000000026 0.27839999999999776,0.3163999999999998 0.27890000000000015,0.3131000000000004 0.28479999999999706,0.31230000000000047 0.28529999999999944,0.31479999999999997 0.2875000000000014,0.3153000000000006 0.2866999999999962,0.31730000000000125 0.2897999999999996,0.3153000000000006 0.29059999999999775,0.3175000000000008 0.2913999999999959,0.3139000000000003 "></polygon><polygon points="0.2849999999999966,0.32950000000000124 0.281099999999995,0.33030000000000115 0.27839999999999776,0.3287000000000013 0.278100000000002,0.32980000000000054 0.28059999999999974,0.33169999999999966 0.28479999999999706,0.33200000000000074 0.2849999999999966,0.32950000000000124 "></polygon><polygon points="0.290300000000002,0.33370000000000033 0.2897999999999996,0.33169999999999966 0.2866999999999962,0.33280000000000065 0.2885999999999953,0.33450000000000024 0.290300000000002,0.33370000000000033 "></polygon><polygon points="0.3211000000000013,0.34030000000000094 0.3230999999999966,0.34030000000000094 0.321399999999997,0.33779999999999966 0.31810000000000116,0.339500000000001 0.31919999999999504,0.3412000000000006 0.3211000000000013,0.34030000000000094 "></polygon><polygon points="0.31700000000000017,0.37870000000000026 0.31810000000000116,0.38010000000000055 0.31969999999999743,0.37950000000000017 0.3166999999999973,0.3695000000000004 0.3219999999999956,0.3697999999999997 0.32499999999999574,0.3642000000000003 0.3241999999999976,0.3613999999999997 0.31969999999999743,0.3628 0.31700000000000017,0.3603000000000005 0.31559999999999633,0.3609000000000009 0.31640000000000157,0.3656000000000006 0.31449999999999534,0.3664000000000005 0.31170000000000186,0.3758999999999997 0.3141999999999996,0.38060000000000116 0.3153000000000006,0.37840000000000096 0.31700000000000017,0.37870000000000026 "></polygon><polygon points="0.3341999999999956,0.38670000000000115 0.33610000000000184,0.38530000000000086 0.3322999999999965,0.3803000000000001 0.32809999999999917,0.37870000000000026 0.3247999999999962,0.38060000000000116 0.32920000000000016,0.38760000000000083 0.33389999999999986,0.3888999999999996 0.3341999999999956,0.38670000000000115 "></polygon><polygon points="0.258899999999997,0.5503 0.25779999999999603,0.5487000000000002 0.2558999999999969,0.5492000000000008 0.2575000000000003,0.5498000000000012 0.25669999999999504,0.5528000000000013 0.2591999999999999,0.5528000000000013 0.258899999999997,0.5503 "></polygon><polygon points="0.21529999999999916,0.7201000000000004 0.21589999999999776,0.7172999999999998 0.2149999999999963,0.7167000000000012 0.21249999999999858,0.7209000000000003 0.21529999999999916,0.7201000000000004 "></polygon>
    </svg>
    