
    <svg width="4.170199999999998" height="3.9617999999999967" xmlns="http://www.w3.org/2000/svg" xmlns:xlink="http://www.w3.org/1999/xlink" style="transform: scale(1, -1)">
        <polygon points="3.3119999999999976,0.07589999999999719 3.2700999999999993,0.06859999999999644 3.2296999999999976,0.0583999999999989 3.2113999999999976,0.05829999999999558 3.1858999999999966,0.07659999999999911 3.1651999999999987,0.0770999999999944 3.1336999999999975,0.09279999999999688 3.0634999999999977,0.05169999999999675 3.033299999999997,0.08099999999999596 3.0153999999999996,0.08009999999999451 2.9884999999999984,0.06069999999999709 2.986799999999999,0.05239999999999867 2.987199999999998,0.03839999999999577 2.983699999999999,0.023599999999994736 2.9407999999999994,0.019700000000000273 2.9266999999999967,0.020899999999997476 2.9144999999999968,0.016500000000000625 2.9057999999999993,0.007500000000000284 2.8919999999999995,0.0018999999999991246 2.8755999999999986,0.0 2.8576999999999977,0.0081999999999951 2.840399999999999,0.013500000000000512 2.8242999999999974,0.014099999999999113 2.8100999999999985,0.012199999999999989 2.7951999999999977,0.015299999999996317 2.7851999999999997,0.019899999999999807 2.7653,0.04819999999999425 2.7505999999999986,0.0630999999999986 2.743599999999997,0.07819999999999538 2.738199999999999,0.07979999999999876 2.726099999999999,0.07519999999999527 2.7196999999999996,0.07580000000000098 2.7044999999999995,0.09559999999999746 2.7036999999999978,0.10409999999999542 2.7121999999999993,0.11849999999999739 2.7110999999999983,0.1319999999999979 2.7163999999999966,0.13569999999999993 2.7330999999999968,0.1308000000000007 2.750899999999998,0.13279999999999603 2.7537999999999982,0.1348999999999947 2.7563999999999993,0.14289999999999736 2.766499999999997,0.1472999999999942 2.7745999999999995,0.14689999999999515 2.7840999999999987,0.14209999999999923 2.7928999999999995,0.13989999999999725 2.800099999999997,0.1418999999999997 2.8064999999999998,0.1465999999999994 2.814899999999998,0.16039999999999566 2.820599999999999,0.17739999999999867 2.818999999999999,0.1921999999999997 2.8047999999999966,0.21009999999999707 2.8028999999999975,0.2201999999999984 2.8374999999999986,0.23969999999999914 2.847899999999999,0.24960000000000093 2.853499999999997,0.25900000000000034 2.867899999999999,0.26549999999999585 2.8766,0.27609999999999957 2.887599999999999,0.2798999999999978 2.887599999999999,0.28429999999999467 2.8809999999999967,0.292199999999994 2.8794999999999966,0.2962999999999951 2.8796,0.30059999999999576 2.882299999999997,0.30399999999999494 2.893799999999999,0.30979999999999563 2.9167999999999985,0.31230000000000047 2.931799999999999,0.32039999999999935 2.9315999999999995,0.32859999999999445 2.935299999999998,0.33919999999999817 2.930799999999998,0.34609999999999985 2.918499999999998,0.3569999999999993 2.9179999999999993,0.3628999999999962 2.922599999999999,0.36589999999999634 2.9338999999999977,0.3691999999999993 2.9391,0.37889999999999446 2.9380999999999986,0.3878999999999948 2.9406999999999996,0.3925999999999945 2.9467999999999996,0.39579999999999416 2.9633999999999965,0.3983999999999952 2.9842999999999975,0.4124999999999943 2.9610999999999983,0.4222999999999999 2.958199999999998,0.42490000000000094 2.9529999999999994,0.4358999999999966 2.942999999999998,0.44239999999999924 2.941799999999997,0.44659999999999656 2.945999999999998,0.4608999999999952 2.9201999999999977,0.45230000000000103 2.8943999999999974,0.44950000000000045 2.8763999999999967,0.45299999999999585 2.8604999999999983,0.4431999999999974 2.853399999999997,0.4298000000000002 2.8451999999999984,0.42680000000000007 2.8375999999999983,0.4292999999999978 2.831599999999998,0.4338999999999942 2.825599999999998,0.4497 2.8203999999999994,0.45659999999999457 2.816899999999997,0.4573999999999998 2.8003,0.45519999999999783 2.779,0.45889999999999986 2.7681999999999967,0.46649999999999636 2.773299999999999,0.476700000000001 2.7700999999999993,0.4824999999999946 2.764999999999997,0.48569999999999425 2.743199999999998,0.49339999999999407 2.737199999999998,0.4939999999999998 2.7257,0.4893999999999963 2.700099999999999,0.4859999999999971 2.6571999999999996,0.5023999999999944 2.6499999999999986,0.5021999999999949 2.6393999999999984,0.4983000000000004 2.6327,0.5000999999999962 2.622,0.5069999999999979 2.6168999999999976,0.5080999999999989 2.5879999999999974,0.5058999999999969 2.5756999999999977,0.5030999999999963 2.5656,0.5052999999999983 2.5605999999999973,0.5095999999999989 2.5839,0.5287000000000006 2.584299999999999,0.5326999999999984 2.581699999999998,0.5389999999999944 2.5822999999999965,0.5549999999999997 2.5869999999999997,0.5599999999999952 2.5986999999999973,0.5653000000000006 2.600399999999997,0.5725999999999942 2.5980999999999987,0.5820000000000007 2.601499999999998,0.5922999999999945 2.605699999999999,0.6008999999999958 2.6130999999999993,0.6092999999999975 2.6236999999999995,0.6303999999999945 2.5909999999999975,0.6295000000000002 2.5688999999999993,0.6231999999999971 2.560799999999997,0.6231999999999971 2.544999999999998,0.6267999999999958 2.531699999999997,0.6330999999999989 2.5291999999999994,0.6356999999999999 2.529399999999999,0.6417999999999964 2.527799999999999,0.6455999999999946 2.523199999999999,0.6509 2.5161999999999978,0.6546999999999983 2.480699999999999,0.6576999999999984 2.4584999999999972,0.6502999999999943 2.4506999999999977,0.650500000000001 2.4480999999999966,0.6537999999999968 2.445499999999999,0.6646999999999963 2.427599999999998,0.6794999999999973 2.407499999999999,0.7073999999999998 2.407399999999999,0.7106999999999957 2.412499999999998,0.7195999999999998 2.415399999999998,0.7309999999999945 2.4086999999999996,0.742999999999995 2.406699999999997,0.758499999999998 2.4041999999999994,0.7631999999999977 2.3912999999999975,0.772199999999998 2.373899999999999,0.7767999999999944 2.3675999999999995,0.7730999999999995 2.365199999999998,0.7682999999999964 2.3649999999999984,0.7592999999999961 2.359499999999997,0.7548999999999992 2.348799999999997,0.7536999999999949 2.343,0.7560999999999964 2.3364999999999974,0.7616999999999976 2.3347999999999978,0.7660999999999945 2.336299999999998,0.773299999999999 2.3355999999999995,0.7789999999999964 2.3257999999999974,0.7862000000000009 2.3191999999999986,0.808099999999996 2.307599999999997,0.8250999999999991 2.3078999999999965,0.8315999999999946 2.3149999999999977,0.8399999999999963 2.3160999999999987,0.845799999999997 2.3089999999999975,0.8596000000000004 2.304299999999998,0.8630999999999958 2.2867999999999995,0.8626999999999967 2.278699999999997,0.8639999999999972 2.2730999999999995,0.866899999999994 2.262699999999999,0.8788999999999945 2.254399999999997,0.882399999999997 2.2485,0.8786999999999949 2.246299999999998,0.8686000000000007 2.224899999999998,0.8615999999999957 2.218,0.861699999999999 2.1876999999999995,0.8821999999999974 2.1694999999999993,0.888300000000001 2.1601999999999997,0.8880999999999943 2.1488999999999976,0.8846999999999952 2.1363999999999983,0.8831999999999951 2.113999999999997,0.8759999999999977 2.0915999999999997,0.8868999999999971 2.085199999999997,0.8981999999999957 2.065999999999999,0.8996999999999957 2.0513999999999974,0.9078999999999979 2.0397,0.9168999999999983 2.022699999999997,0.9180999999999955 2.008399999999998,0.922699999999999 1.9955999999999996,0.9234000000000009 1.9906999999999968,0.9253999999999962 1.9891999999999967,0.9290999999999983 1.9919999999999973,0.9334999999999951 2.0071999999999974,0.9388000000000005 2.009999999999998,0.9412999999999982 2.009999999999998,0.9450000000000003 2.0025999999999975,0.9518999999999949 2.002799999999997,0.9550999999999945 2.0158999999999985,0.958599999999997 2.032499999999999,0.9602000000000004 2.0351,0.9627999999999943 2.0357999999999983,0.9664000000000001 2.0346999999999973,0.972999999999999 2.0314999999999976,0.9777999999999949 2.021099999999997,0.9844000000000008 2.0107,0.9968000000000004 1.9960999999999984,1.0076999999999998 1.9896999999999991,1.0165000000000006 1.9665,1.018499999999996 1.9538999999999973,1.0165999999999968 1.948999999999998,1.0122999999999962 1.9512999999999998,0.9996000000000009 1.9499999999999993,0.995599999999996 1.9468999999999994,0.9936999999999969 1.9284999999999997,0.996299999999998 1.9092999999999982,0.9954999999999998 1.890699999999999,1.001100000000001 1.8812999999999995,1.0007999999999981 1.8714999999999975,0.9879999999999995 1.8417999999999992,0.9654999999999987 1.8309999999999995,0.9609999999999985 1.8115999999999985,0.9617000000000004 1.7940999999999967,0.9587000000000003 1.7643999999999984,0.9578999999999951 1.7577999999999996,0.9579999999999984 1.7543999999999969,0.9602999999999966 1.7485,0.9572999999999965 1.7471999999999994,0.9523999999999972 1.7608999999999995,0.9436999999999998 1.7662999999999975,0.9364999999999952 1.7658999999999985,0.9324999999999974 1.7607,0.9259999999999948 1.761499999999998,0.9223999999999961 1.7714999999999996,0.9187999999999974 1.7916999999999987,0.9159000000000006 1.8082999999999991,0.9084000000000003 1.8139999999999965,0.9012999999999991 1.8129999999999988,0.8919999999999959 1.8149999999999977,0.8880999999999943 1.8319999999999972,0.8793000000000006 1.8473999999999968,0.8632999999999953 1.8484999999999978,0.8544999999999945 1.8451999999999984,0.8427000000000007 1.8424999999999976,0.8386999999999958 1.8308,0.8327999999999989 1.8155999999999999,0.8288999999999973 1.810699999999997,0.8255999999999943 1.8119999999999976,0.8208999999999946 1.8247,0.8126999999999995 1.8192999999999984,0.8019999999999996 1.8242999999999974,0.7936999999999941 1.8248999999999995,0.7883999999999958 1.7978999999999985,0.774799999999999 1.7912,0.7633999999999972 1.7821999999999996,0.7586999999999975 1.7694999999999972,0.7571999999999974 1.7494999999999976,0.7645999999999944 1.7414999999999985,0.7625999999999991 1.7231999999999985,0.7466000000000008 1.7132999999999967,0.7347999999999999 1.7066999999999979,0.722299999999997 1.7027999999999999,0.7187999999999946 1.6951999999999998,0.7192000000000007 1.680699999999998,0.7282000000000011 1.6522999999999968,0.7090999999999994 1.6463999999999999,0.6940999999999988 1.6423999999999985,0.6890000000000001 1.6424999999999983,0.6834999999999951 1.6489999999999974,0.6766000000000005 1.657399999999999,0.6709999999999994 1.6657999999999973,0.6576999999999984 1.6777999999999977,0.6503999999999976 1.6999999999999993,0.6405999999999992 1.682699999999997,0.6364999999999981 1.6681999999999988,0.629099999999994 1.6394999999999982,0.6231999999999971 1.6154999999999973,0.6081000000000003 1.6034999999999968,0.596899999999998 1.5924999999999976,0.5915999999999997 1.580099999999998,0.5933999999999955 1.5634999999999977,0.6024999999999991 1.5560999999999972,0.604299999999995 1.5355999999999987,0.6004999999999967 1.504999999999999,0.5985999999999976 1.5021999999999984,0.6244999999999976 1.5080999999999989,0.6426999999999978 1.508899999999997,0.650500000000001 1.5076999999999998,0.6577999999999946 1.5020999999999987,0.6635999999999953 1.4676999999999971,0.6759999999999948 1.4206999999999965,0.6873000000000005 1.3772999999999982,0.7034999999999982 1.3142999999999994,0.7314999999999969 1.300699999999999,0.7401999999999944 1.2943999999999996,0.7385999999999981 1.279,0.7259999999999991 1.2727999999999966,0.7249999999999943 1.2651999999999965,0.7274999999999991 1.252399999999998,0.7401999999999944 1.225999999999999,0.756699999999995 1.2006999999999977,0.7844999999999942 1.1789999999999985,0.7964999999999947 1.1545999999999985,0.8063999999999965 1.1412999999999975,0.8160999999999987 1.125,0.843599999999995 1.1205999999999996,0.858399999999996 1.1168999999999976,0.8626999999999967 1.1078999999999972,0.8628999999999962 1.0912999999999968,0.8555999999999955 1.067899999999998,0.849499999999999 1.0581999999999994,0.8502999999999972 1.040899999999997,0.8558999999999983 1.0255999999999972,0.8664999999999949 1.0170999999999992,0.869099999999996 1.0100999999999978,0.8677999999999955 0.9952999999999967,0.8596999999999966 0.9889999999999972,0.8585999999999956 0.9849999999999994,0.8602999999999952 0.9769999999999968,0.8724999999999952 0.9731999999999985,0.8753999999999991 0.9531999999999989,0.8788999999999945 0.9399999999999977,0.8851999999999975 0.9304999999999986,0.8919999999999959 0.929199999999998,0.8947999999999965 0.9301999999999992,0.8981999999999957 0.9361999999999995,0.908299999999997 0.9349999999999987,0.9232999999999976 0.8983999999999988,0.9206999999999965 0.8752999999999993,0.9258999999999986 0.8400999999999996,0.9289999999999949 0.8331999999999979,0.9311999999999969 0.8178999999999981,0.9407999999999959 0.7911999999999999,0.9488999999999947 0.7851999999999997,0.9545999999999992 0.7784999999999975,0.9701999999999984 0.7572999999999972,0.9911999999999992 0.7510999999999974,0.9947999999999979 0.7388999999999974,0.9985999999999962 0.7069999999999972,1.0046999999999997 0.6857999999999969,1.018899999999995 0.6753,1.0371999999999986 0.6761999999999979,1.0597999999999956 0.6740999999999993,1.0670999999999964 0.6662999999999997,1.0730999999999966 0.6317999999999984,1.0843999999999951 0.6221999999999994,1.0912999999999968 0.6032999999999973,1.110999999999997 0.5894999999999975,1.1346999999999952 0.5869,1.1472999999999942 0.5581999999999994,1.1502999999999943 0.530899999999999,1.167199999999994 0.4994999999999976,1.1751999999999967 0.4883999999999986,1.180899999999994 0.47669999999999746,1.1901999999999973 0.46839999999999904,1.1946999999999974 0.45209999999999795,1.1984999999999957 0.42739999999999867,1.206799999999994 0.4069999999999965,1.2192000000000007 0.38649999999999807,1.2289999999999992 0.37079999999999913,1.2434999999999974 0.3650999999999982,1.2524999999999977 0.3622999999999976,1.2652 0.3769999999999989,1.3074999999999974 0.3832999999999984,1.311399999999999 0.40449999999999875,1.2978999999999985 0.4239999999999995,1.2926000000000002 0.4383999999999979,1.3103999999999942 0.44049999999999656,1.3252999999999986 0.43989999999999796,1.3564000000000007 0.4475999999999978,1.3692999999999955 0.46559999999999846,1.3725999999999985 0.49099999999999966,1.3693999999999988 0.514999999999997,1.3691999999999993 0.5331999999999972,1.3750999999999962 0.5428999999999995,1.3818999999999946 0.5513999999999974,1.3768999999999991 0.5488999999999997,1.3422999999999945 0.5666999999999973,1.3367000000000004 0.583599999999997,1.3521 0.584699999999998,1.3392999999999944 0.5925999999999974,1.320999999999998 0.6220999999999997,1.3216999999999999 0.6228999999999978,1.332099999999997 0.6264999999999965,1.3404999999999987 0.6259999999999977,1.353200000000001 0.6555,1.3534999999999968 0.674199999999999,1.3415999999999997 0.6915999999999976,1.3491999999999962 0.6713999999999984,1.3663999999999987 0.6733999999999973,1.3796999999999997 0.6800999999999995,1.3913999999999973 0.6816999999999993,1.3996999999999957 0.673099999999998,1.411200000000001 0.6922999999999995,1.420499999999997 0.7069999999999972,1.4435999999999964 0.6984999999999992,1.468999999999994 0.7017999999999986,1.4923000000000002 0.6700999999999979,1.506699999999995 0.642199999999999,1.5459999999999994 0.6228999999999978,1.5529999999999973 0.6115999999999993,1.568799999999996 0.588199999999997,1.5767999999999986 0.5739999999999981,1.5863999999999976 0.5650999999999975,1.6015999999999977 0.533299999999997,1.6475000000000009 0.498899999999999,1.6661000000000001 0.48119999999999763,1.6806999999999945 0.4701999999999984,1.6942999999999984 0.46809999999999974,1.7053999999999974 0.45949999999999847,1.7183999999999955 0.448599999999999,1.7286000000000001 0.4400999999999975,1.7522999999999982 0.42949999999999733,1.7633999999999972 0.4217999999999975,1.775500000000001 0.4316999999999993,1.785899999999998 0.45369999999999777,1.782599999999995 0.472999999999999,1.7760999999999996 0.4971999999999994,1.772599999999997 0.5122,1.7640999999999991 0.5305,1.7586999999999975 0.5433999999999983,1.7506999999999948 0.5712999999999973,1.7446999999999946 0.6523999999999965,1.737400000000001 0.7015999999999991,1.7369999999999948 0.7086999999999968,1.7417999999999978 0.7205999999999975,1.7539999999999978 0.736699999999999,1.7601999999999975 0.7472999999999992,1.7683999999999997 0.7547999999999995,1.7775999999999996 0.7862999999999971,1.7881999999999962 0.8036999999999992,1.7963999999999984 0.8051999999999992,1.8048999999999964 0.8031999999999968,1.8148999999999944 0.8059999999999974,1.8275000000000006 0.7940999999999967,1.8312999999999988 0.7902999999999984,1.8378999999999976 0.7813999999999979,1.8459999999999965 0.7701999999999991,1.845099999999995 0.7661999999999978,1.8407999999999944 0.7670999999999992,1.828399999999995 0.7605999999999966,1.8266999999999953 0.752799999999997,1.8308999999999997 0.7289999999999992,1.8489999999999966 0.7012999999999998,1.8619999999999948 0.6894999999999989,1.8721999999999994 0.6738999999999997,1.8921999999999954 0.6633999999999993,1.9003999999999976 0.6599999999999966,1.9084000000000003 0.659799999999997,1.916799999999995 0.6568999999999967,1.9239999999999995 0.6470999999999982,1.920499999999997 0.6319999999999979,1.9185999999999979 0.6198999999999977,1.9199999999999946 0.6107999999999976,1.9253999999999962 0.593,1.9428999999999945 0.5829999999999984,1.9505999999999943 0.5564,1.9621999999999957 0.543099999999999,1.9701999999999984 0.5371999999999986,1.9906000000000006 0.5287999999999968,1.9993999999999943 0.5311999999999983,2.0090000000000003 0.5299999999999976,2.0204999999999984 0.5219999999999985,2.028500000000001 0.5142999999999986,2.040399999999998 0.5045999999999999,2.051400000000001 0.4836999999999989,2.0511999999999944 0.4748999999999981,2.0546000000000006 0.4612999999999978,2.0552999999999955 0.43409999999999727,2.048099999999998 0.4217999999999975,2.0475999999999956 0.4112999999999971,2.0501000000000005 0.40229999999999677,2.056899999999999 0.3984999999999985,2.0634999999999977 0.38709999999999667,2.0673999999999992 0.36089999999999733,2.0656999999999996 0.34509999999999863,2.067 0.32839999999999847,2.0862999999999943 0.31729999999999947,2.0959000000000003 0.3105999999999973,2.1069999999999993 0.31019999999999825,2.1163999999999987 0.3062999999999967,2.124699999999997 0.2984999999999971,2.1314999999999955 0.3008999999999986,2.1473999999999975 0.29499999999999815,2.1557999999999993 0.29299999999999926,2.1661 0.29799999999999827,2.1776999999999944 0.32479999999999976,2.190100000000001 0.33069999999999666,2.2045999999999992 0.3302999999999976,2.2239999999999966 0.3197999999999972,2.252299999999998 0.31549999999999656,2.2689999999999984 0.31349999999999767,2.2989999999999995 0.3219999999999992,2.305899999999994 0.34949999999999903,2.3056999999999945 0.3589999999999982,2.309599999999996 0.36729999999999663,2.3232 0.37609999999999744,2.3320000000000007 0.378899999999998,2.340599999999995 0.3741999999999983,2.3496999999999986 0.3819999999999979,2.360599999999998 0.3981999999999992,2.3603999999999985 0.40649999999999764,2.3626000000000005 0.41149999999999665,2.3676999999999992 0.4192,2.378299999999996 0.4285999999999994,2.402000000000001 0.4369999999999976,2.410599999999995 0.4419999999999966,2.4191000000000003 0.4434999999999967,2.4276999999999944 0.45679999999999765,2.4495000000000005 0.46669999999999945,2.4623999999999953 0.48059999999999903,2.470499999999994 0.49739999999999895,2.483399999999996 0.5106999999999999,2.502899999999997 0.5148999999999972,2.5135999999999967 0.5161999999999978,2.5227000000000004 0.5216999999999992,2.5312999999999946 0.5272999999999968,2.5671999999999997 0.5320999999999998,2.5756999999999977 0.5339999999999989,2.584699999999998 0.5326999999999984,2.5970999999999975 0.5339999999999989,2.6030999999999977 0.5442999999999998,2.606099999999998 0.5506999999999991,2.611399999999996 0.5511999999999979,2.616099999999996 0.5450999999999979,2.6207999999999956 0.5488999999999997,2.6263000000000005 0.5721999999999987,2.639499999999998 0.5719999999999992,2.646000000000001 0.558799999999998,2.650500000000001 0.5553999999999988,2.658699999999996 0.5616999999999983,2.6646 0.5572999999999979,2.669399999999996 0.5474999999999994,2.669399999999996 0.5403999999999982,2.6657999999999973 0.539399999999997,2.6709999999999994 0.5286999999999971,2.6721000000000004 0.49159999999999826,2.6853999999999942 0.43579999999999686,2.6939999999999955 0.424199999999999,2.691199999999995 0.40419999999999945,2.681999999999995 0.3916999999999966,2.6854999999999976 0.3844999999999992,2.6997 0.37329999999999686,2.7042 0.36059999999999803,2.7042 0.33789999999999765,2.690899999999999 0.3258999999999972,2.686 0.3100999999999985,2.683399999999999 0.3000999999999969,2.6740999999999957 0.27609999999999957,2.6640999999999977 0.25069999999999837,2.6492999999999967 0.22449999999999903,2.6424999999999983 0.18159999999999954,2.6787999999999954 0.21699999999999875,2.6954999999999956 0.25069999999999837,2.6796000000000006 0.2673999999999985,2.696099999999994 0.2829999999999977,2.694899999999997 0.2962999999999987,2.704099999999997 0.31929999999999836,2.715299999999999 0.3410999999999973,2.7226 0.35139999999999816,2.7327999999999975 0.3349999999999973,2.7369999999999948 0.32679999999999865,2.758499999999998 0.2956999999999965,2.748899999999999 0.2792999999999992,2.7530999999999963 0.2475999999999985,2.7513000000000005 0.24259999999999948,2.758800000000001 0.2748999999999988,2.773699999999998 0.2879999999999967,2.7834000000000003 0.29559999999999675,2.791499999999999 0.2890999999999977,2.801400000000001 0.2923999999999971,2.816899999999997 0.2781999999999982,2.8322000000000003 0.27399999999999736,2.8493999999999957 0.284399999999998,2.8659999999999997 0.2729999999999997,2.8710999999999984 0.2705999999999982,2.884599999999999 0.2640999999999991,2.8966999999999956 0.2613999999999983,2.9102999999999994 0.2670999999999992,2.9288999999999987 0.31929999999999836,2.9210999999999956 0.32779999999999987,2.9224999999999994 0.33679999999999666,2.934899999999999 0.359099999999998,2.9516999999999953 0.3691999999999993,2.976700000000001 0.3448999999999991,2.9827999999999975 0.3501999999999974,2.995999999999995 0.37539999999999907,2.9916999999999945 0.40149999999999864,2.974799999999995 0.41189999999999927,2.964500000000001 0.46969999999999956,2.960099999999997 0.46289999999999765,2.9878 0.508499999999998,2.9750999999999976 0.5265999999999984,2.9458999999999946 0.5351999999999997,2.9443999999999946 0.5534999999999997,2.956399999999995 0.5940999999999974,2.951999999999998 0.6104999999999983,2.957799999999999 0.611699999999999,2.968599999999995 0.6264999999999965,2.979699999999994 0.6078999999999972,2.9908 0.6067999999999998,3.0026999999999973 0.593399999999999,3.0122 0.5311999999999983,3.0135000000000005 0.4627999999999979,3.0193999999999974 0.4131999999999998,3.0323999999999955 0.3961999999999968,3.0390999999999977 0.3523999999999994,3.052499999999995 0.2826999999999984,3.081699999999998 0.2789999999999999,3.0908999999999978 0.2765999999999984,3.103499999999997 0.2677999999999976,3.1201000000000008 0.2408999999999999,3.1265 0.2076999999999991,3.1300999999999988 0.19259999999999877,3.1366999999999976 0.17279999999999873,3.1494 0.1579999999999977,3.1631 0.15929999999999822,3.174599999999998 0.17059999999999675,3.1836999999999946 0.18939999999999912,3.1862999999999957 0.2029999999999994,3.191899999999997 0.20289999999999964,3.2010000000000005 0.19729999999999848,3.2109999999999985 0.17299999999999827,3.2318 0.1792999999999978,3.2663999999999973 0.18849999999999767,3.2767999999999944 0.208599999999997,3.2690999999999946 0.22209999999999752,3.265899999999995 0.23989999999999867,3.266599999999997 0.2569999999999979,3.269199999999998 0.26839999999999975,3.275199999999998 0.2745999999999995,3.2838999999999956 0.27699999999999747,3.293599999999998 0.2737999999999978,3.305399999999999 0.24989999999999668,3.315100000000001 0.23859999999999815,3.317999999999998 0.2123999999999988,3.320599999999999 0.20289999999999964,3.3248999999999995 0.2029999999999994,3.3377999999999943 0.1968999999999994,3.344999999999999 0.1839999999999975,3.346899999999998 0.17549999999999955,3.343499999999999 0.16959999999999908,3.338000000000001 0.16729999999999734,3.3307999999999964 0.15679999999999694,3.322199999999995 0.14149999999999707,3.3177999999999983 0.1261999999999972,3.3186999999999998 0.11129999999999995,3.3217 0.07639999999999958,3.3522999999999996 0.07339999999999947,3.3628 0.08679999999999666,3.3825999999999965 0.08369999999999678,3.391999999999996 0.0779999999999994,3.400599999999997 0.08739999999999881,3.4067000000000007 0.10479999999999734,3.4132999999999996 0.12849999999999895,3.4354999999999976 0.13479999999999848,3.4433000000000007 0.1383999999999972,3.4525000000000006 0.13509999999999778,3.4632999999999967 0.1056999999999988,3.4750999999999976 0.08179999999999765,3.489599999999996 0.07589999999999719,3.5028000000000006 0.07499999999999929,3.526299999999999 0.06819999999999737,3.5463999999999984 0.05509999999999948,3.5638000000000005 0.03319999999999723,3.5833999999999975 0.025699999999996948,3.5948999999999955 0.027199999999997004,3.604999999999997 0.03579999999999828,3.623199999999997 0.03549999999999898,3.636099999999999 0.026199999999999335,3.645299999999999 0.006599999999998829,3.654299999999999 0.0011999999999972033,3.659700000000001 0.0,3.6710999999999956 0.002599999999997493,3.6836999999999946 0.03259999999999863,3.685699999999997 0.05419999999999803,3.6903000000000006 0.07249999999999801,3.6980000000000004 0.09049999999999869,3.7102000000000004 0.11909999999999954,3.7072000000000003 0.14059999999999917,3.7017999999999986 0.16149999999999665,3.704099999999997 0.17769999999999797,3.708500000000001 0.1880999999999986,3.7179 0.19269999999999854,3.732199999999999 0.20209999999999795,3.740400000000001 0.26229999999999976,3.7436000000000007 0.2519999999999989,3.7720999999999947 0.2704999999999984,3.7922999999999973 0.28559999999999874,3.8059999999999974 0.3011999999999979,3.810699999999997 0.31879999999999953,3.8070999999999984 0.3252999999999986,3.7941000000000003 0.3271999999999977,3.780299999999997 0.33999999999999986,3.770399999999995 0.3822999999999972,3.7700999999999993 0.4025999999999996,3.774799999999999 0.43519999999999825,3.7735999999999947 0.465799999999998,3.770399999999995 0.4876999999999967,3.7737999999999943 0.47419999999999973,3.788799999999995 0.5577999999999967,3.8278999999999996 0.5700999999999965,3.8100999999999985 0.6031999999999975,3.8202 0.609499999999997,3.8284999999999982 0.6171999999999969,3.8341999999999956 0.6397999999999975,3.849799999999995 0.654799999999998,3.8559999999999945 0.653299999999998,3.869499999999995 0.6847999999999992,3.8829999999999956 0.7059999999999995,3.889800000000001 0.7126999999999981,3.8947000000000003 0.6945999999999977,3.9084000000000003 0.6930999999999976,3.916499999999999 0.7069999999999972,3.926400000000001 0.7174999999999976,3.9224999999999994 0.7517999999999994,3.943799999999996 0.747399999999999,3.9490999999999943 0.754999999999999,3.9531999999999954 0.8206999999999987,3.9433000000000007 0.8489999999999966,3.9617999999999967 0.8728999999999978,3.952300000000001 0.8880999999999979,3.960799999999999 0.9026999999999994,3.9525000000000006 0.9059999999999988,3.9467 0.9110999999999976,3.944099999999999 0.9183999999999983,3.942299999999996 0.9235999999999969,3.944099999999999 0.9306999999999981,3.9405 0.948599999999999,3.9209999999999994 0.9693999999999967,3.918599999999998 0.984499999999997,3.913799999999995 0.9899999999999984,3.9099999999999966 1.0076999999999998,3.902699999999996 1.0322999999999993,3.916399999999996 1.042399999999997,3.9243999999999986 1.0575999999999972,3.9253999999999962 1.1085999999999991,3.939399999999999 1.1256999999999984,3.9497 1.211199999999998,3.9512 1.2163999999999966,3.947800000000001 1.218,3.934999999999995 1.2209999999999965,3.9261999999999944 1.2273999999999994,3.920499999999997 1.233699999999999,3.919399999999996 1.2482999999999969,3.9236000000000004 1.253899999999998,3.9229999999999947 1.2565999999999988,3.9206999999999965 1.2772999999999968,3.9438999999999993 1.2853999999999992,3.950499999999998 1.2937999999999974,3.9527 1.2989999999999995,3.948699999999995 1.2971999999999966,3.9465000000000003 1.297699999999999,3.939799999999998 1.311,3.9305999999999983 1.322499999999998,3.926499999999997 1.3256999999999977,3.9223 1.3327999999999989,3.9191999999999965 1.3650999999999982,3.9288999999999987 1.3725999999999985,3.934899999999999 1.4001999999999981,3.9183999999999983 1.4018999999999977,3.9101 1.4224999999999994,3.9043999999999954 1.4253,3.8984999999999985 1.4400999999999975,3.9052000000000007 1.4423999999999992,3.9024 1.4412999999999982,3.895299999999999 1.4454999999999991,3.8913999999999973 1.452099999999998,3.899099999999997 1.4567999999999977,3.8970999999999947 1.455099999999998,3.8928999999999974 1.4605999999999995,3.889399999999995 1.4758999999999993,3.8902 1.4681999999999995,3.885300000000001 1.4599999999999973,3.8848999999999947 1.4577999999999989,3.8811999999999998 1.4660999999999973,3.870999999999995 1.495199999999997,3.859400000000001 1.4959999999999987,3.8558999999999983 1.5041999999999973,3.8463999999999956 1.5021999999999984,3.8447999999999993 1.5387999999999984,3.8202 1.5359999999999978,3.8198000000000008 1.5321999999999996,3.814299999999996 1.5334999999999965,3.8089999999999975 1.550699999999999,3.7782999999999944 1.5449999999999982,3.7763999999999953 1.546199999999999,3.7723999999999975 1.5413999999999994,3.772199999999998 1.5982999999999983,3.7379999999999995 1.6401999999999965,3.742999999999995 1.6757999999999988,3.7261999999999986 1.6946999999999974,3.683399999999999 1.7086999999999968,3.6647999999999996 1.7424999999999997,3.672699999999999 1.7393999999999998,3.678599999999996 1.7622,3.6828999999999965 1.7716999999999992,3.6576999999999984 1.7674999999999983,3.6567000000000007 1.7696999999999967,3.652000000000001 1.7681999999999967,3.6514999999999986 1.7707999999999977,3.6495999999999995 1.7744,3.6420999999999992 1.7872999999999983,3.6445000000000007 1.7917999999999985,3.6344999999999956 1.804599999999997,3.6366999999999976 1.8532999999999973,3.6019000000000005 1.8434999999999988,3.5844999999999985 1.8476999999999997,3.5800999999999945 1.849899999999998,3.5807999999999964 1.855599999999999,3.5668000000000006 1.8741999999999983,3.5700000000000003 1.8874999999999993,3.5396999999999963 1.8835999999999977,3.5389999999999944 1.8858999999999995,3.532599999999995 1.8897999999999975,3.533200000000001 1.8935999999999993,3.5231999999999957 1.9003999999999976,3.524099999999997 1.9051999999999971,3.5235999999999947 1.9068999999999967,3.5216999999999956 1.9109999999999978,3.522199999999998 1.9107999999999983,3.5246999999999957 1.9255999999999993,3.5285999999999973 1.9669999999999987,3.5272999999999968 1.9762999999999984,3.5585999999999984 2.0159999999999982,3.547799999999995 2.010399999999997,3.524799999999999 2.0087999999999973,3.5219999999999985 2.0010999999999974,3.5212000000000003 1.9955999999999996,3.5105999999999966 1.9939999999999998,3.4746999999999986 1.991699999999998,3.4749999999999943 1.9953999999999965,3.4726 1.9889999999999972,3.459799999999994 1.995899999999999,3.4547999999999988 1.9928999999999988,3.4446999999999974 1.9978999999999978,3.4298999999999964 1.9817999999999998,3.4184999999999945 1.9720999999999975,3.395299999999999 1.9584999999999972,3.385399999999997 1.9648999999999965,3.3554999999999993 1.988199999999999,3.3603999999999985 2.006499999999999,3.3407999999999944 2.0041999999999973,3.3384999999999962 2.016099999999998,3.3245999999999967 2.0124999999999993,3.3230999999999966 2.0253999999999976,3.3085999999999984 2.0207999999999977,3.3067999999999955 1.9998999999999967,3.2885999999999953 1.9615999999999971,3.272999999999996 1.969899999999999,3.2635000000000005 1.9638999999999989,3.260799999999996 1.9639999999999986,3.2528000000000006 2.0257999999999967,3.2526999999999973 2.054199999999998,3.2378999999999962 2.0590999999999973,3.2378 2.065399999999997,3.229699999999994 2.063299999999998,3.2286 2.0715999999999966,3.227399999999996 2.0703999999999994,3.2228999999999957 2.0737999999999985,3.218999999999994 2.0656999999999996,3.218599999999995 2.0680999999999976,3.211599999999997 2.0595,3.2087999999999965 2.0590999999999973,3.207499999999996 2.0625999999999998,3.2057999999999964 2.057599999999997,3.204499999999996 2.0680999999999976,3.198699999999995 2.0932999999999993,3.1895999999999987 2.1130999999999993,3.1899999999999977 2.1169999999999973,3.1799999999999997 2.120899999999999,3.1776999999999944 2.121199999999998,3.1746999999999943 2.124399999999998,3.1747999999999976 2.1285999999999987,3.1654999999999944 2.1229999999999976,3.1650999999999954 2.1241999999999983,3.159499999999994 2.1348999999999982,3.1591999999999985 2.1388999999999996,3.156499999999994 2.1411999999999978,3.1584000000000003 2.143699999999999,3.147599999999997 2.1531999999999982,3.139499999999998 2.162099999999999,3.1366999999999976 2.174599999999998,3.1300999999999988 2.180299999999999,3.1228999999999942 2.1889999999999965,3.1159999999999997 2.1923999999999992,3.1143999999999963 2.2028,3.113999999999997 2.2094999999999985,3.0974000000000004 2.2563999999999993,3.104699999999994 2.2540999999999976,3.088799999999999 2.2639999999999993,3.0878999999999976 2.2638,3.0867000000000004 2.273799999999998,3.0904999999999987 2.289399999999997,3.0686999999999998 2.3024999999999984,3.0734999999999957 2.3207999999999984,3.0773999999999972 2.337299999999999,3.077599999999997 2.3469999999999978,3.085099999999997 2.342399999999998,3.088699999999996 2.3532999999999973,3.0967999999999947 2.354999999999997,3.0977999999999994 2.3576999999999977,3.0961 2.3593999999999973,3.092499999999994 2.3690999999999995,3.097999999999999 2.3767999999999994,3.093499999999999 2.3735,3.0915999999999997 2.3767999999999994,3.088799999999999 2.372899999999998,3.0852000000000004 2.373899999999999,3.0807999999999964 2.3824999999999967,3.066899999999997 2.3842,3.059599999999996 2.4015999999999984,3.048099999999998 2.395699999999998,3.0381999999999962 2.4118999999999993,3.023399999999995 2.4163999999999994,3.0257000000000005 2.4421,3.016599999999997 2.4675999999999974,3.0023999999999944 2.485099999999999,3.0152 2.498299999999997,3.0127999999999986 2.4979999999999976,3.011800000000001 2.512999999999998,3.010300000000001 2.5136999999999965,3.012899999999995 2.519099999999998,3.012299999999996 2.5181999999999967,3.0090000000000003 2.525699999999997,3.0073000000000008 2.5264999999999986,3.0090999999999966 2.5318999999999967,3.0082999999999984 2.530899999999999,3.0060000000000002 2.5367999999999995,3.0045 2.5529999999999973,2.994899999999994 2.5625999999999998,2.9987999999999957 2.5882999999999967,2.9915999999999983 2.596399999999999,3.0019999999999953 2.6035999999999966,2.9975999999999985 2.602999999999998,2.996299999999998 2.6050999999999966,2.9938000000000002 2.6077999999999975,2.993699999999997 2.6128,2.989999999999995 2.6239999999999988,2.985599999999998 2.6270999999999987,2.982599999999998 2.628499999999999,2.9779999999999944 2.631599999999999,2.9756 2.675799999999999,2.9647999999999968 2.6861999999999995,2.9458999999999946 2.7010999999999967,2.942999999999998 2.7059999999999995,2.9436999999999998 2.709299999999999,2.941599999999994 2.7163999999999966,2.9320999999999984 2.721799999999998,2.920099999999998 2.720299999999998,2.9106999999999985 2.691499999999998,2.8981999999999957 2.6797999999999966,2.8980999999999995 2.6712999999999987,2.8939999999999984 2.6705999999999968,2.889800000000001 2.667499999999997,2.8844999999999956 2.664399999999997,2.8827 2.6625999999999976,2.8773999999999944 2.6677999999999997,2.8718999999999966 2.6738999999999997,2.8681999999999945 2.676099999999998,2.863999999999997 2.6678999999999995,2.8592999999999975 2.657799999999998,2.8474999999999966 2.6522999999999968,2.844699999999996 2.6480999999999995,2.835899999999995 2.6434999999999995,2.8339 2.643699999999999,2.8315999999999946 2.6404999999999994,2.830299999999994 2.6403,2.825499999999998 2.643099999999997,2.824799999999996 2.6489999999999974,2.813199999999995 2.6191999999999993,2.808099999999996 2.6157999999999966,2.805099999999996 2.613599999999998,2.8093000000000004 2.602499999999999,2.808399999999999 2.5986999999999973,2.8096999999999994 2.5935999999999986,2.8044999999999973 2.593799999999998,2.8029999999999973 2.59,2.8041999999999945 2.5908999999999978,2.8022999999999954 2.5869999999999997,2.8027999999999977 2.5879999999999974,2.8011999999999944 2.5858999999999988,2.799900000000001 2.5836999999999968,2.7996999999999943 2.5832999999999977,2.8016000000000005 2.5813999999999986,2.8019999999999996 2.5808,2.800699999999999 2.5778,2.801400000000001 2.5748999999999995,2.799599999999998 2.5753999999999984,2.7982999999999976 2.5722999999999985,2.8011999999999944 2.569799999999997,2.7994999999999948 2.566899999999997,2.8007999999999953 2.565299999999997,2.798499999999997 2.5611999999999995,2.798400000000001 2.555399999999999,2.7933999999999983 2.554199999999998,2.7943 2.553099999999997,2.7930999999999955 2.569899999999997,2.7794999999999987 2.5710999999999977,2.780999999999999 2.579699999999999,2.7770999999999972 2.5757999999999974,2.7745999999999995 2.581299999999999,2.770799999999994 2.599499999999999,2.7652 2.597899999999999,2.762599999999999 2.607599999999998,2.7594999999999956 2.599599999999999,2.7513000000000005 2.6309999999999967,2.7333 2.638399999999997,2.734899999999996 2.662099999999999,2.731199999999994 2.7125999999999983,2.7106999999999957 2.7204999999999977,2.711999999999996 2.7394999999999996,2.7032999999999987 2.7399999999999984,2.7002999999999986 2.7455999999999996,2.6965999999999966 2.745899999999999,2.694099999999999 2.7434999999999974,2.692999999999998 2.7430999999999983,2.6901999999999973 2.7509999999999977,2.679399999999994 2.7514999999999965,2.677599999999998 2.749799999999997,2.6766999999999967 2.751299999999997,2.674999999999997 2.7529999999999966,2.6617999999999995 2.7254999999999967,2.6552000000000007 2.703599999999998,2.652799999999999 2.6997,2.649000000000001 2.691899999999997,2.6451999999999956 2.6814,2.6443999999999974 2.6804999999999986,2.6417999999999964 2.6782999999999966,2.640899999999995 2.6723999999999997,2.6436999999999955 2.668999999999997,2.6411999999999978 2.663899999999998,2.6439999999999984 2.6560999999999986,2.6402 2.6469999999999985,2.6464 2.6449,2.646000000000001 2.6450999999999993,2.643499999999996 2.6434999999999995,2.6428999999999974 2.6397999999999975,2.646799999999999 2.633999999999997,2.642699999999998 2.6372,2.6402999999999963 2.6347999999999985,2.6391999999999953 2.6282999999999994,2.643799999999999 2.625899999999998,2.6432999999999964 2.6244999999999976,2.6409999999999982 2.619699999999998,2.6439999999999984 2.6134999999999984,2.6440999999999946 2.6107999999999976,2.646099999999997 2.6057999999999986,2.6418999999999997 2.5996999999999986,2.6420999999999992 2.598899999999997,2.6391999999999953 2.5928999999999967,2.640899999999995 2.5885999999999996,2.639399999999995 2.5806999999999967,2.6424999999999983 2.5768999999999984,2.6380999999999943 2.564899999999998,2.6395999999999944 2.559799999999999,2.637299999999996 2.5543999999999976,2.629399999999997 2.553099999999997,2.624699999999997 2.5504999999999995,2.6228999999999942 2.552599999999998,2.6206999999999994 2.5503,2.6192999999999955 2.550799999999999,2.6171000000000006 2.554699999999997,2.6163999999999987 2.554199999999998,2.6130999999999958 2.5474999999999994,2.6143999999999963 2.5458,2.6132999999999953 2.5497999999999976,2.6081999999999965 2.5528999999999975,2.609499999999997 2.5517999999999965,2.6068 2.548499999999997,2.605699999999999 2.5493999999999986,2.6043999999999983 2.555699999999998,2.6051 2.5570999999999984,2.6019999999999968 2.549299999999999,2.599899999999998 2.551099999999998,2.5944999999999965 2.5692999999999984,2.588000000000001 2.575099999999999,2.5820000000000007 2.5787999999999975,2.5760000000000005 2.5839,2.557399999999994 2.5882999999999967,2.5527999999999977 2.5961999999999996,2.5492999999999952 2.613699999999998,2.546199999999999 2.6526999999999994,2.5496999999999943 2.697099999999999,2.5439000000000007 2.7297999999999973,2.5454000000000008 2.752899999999997,2.5409000000000006 2.779,2.5321 2.7892999999999972,2.5223999999999975 2.799999999999997,2.5078999999999994 2.8040999999999983,2.499600000000001 2.8081999999999994,2.4871999999999943 2.8038999999999987,2.4739999999999966 2.8044999999999973,2.458999999999996 2.810799999999997,2.4446999999999974 2.8156,2.4390999999999963 2.8306999999999967,2.432299999999998 2.845399999999998,2.433099999999996 2.868599999999997,2.4376999999999995 2.881899999999998,2.4379999999999953 2.8893999999999984,2.4364999999999952 2.908999999999999,2.427199999999999 2.921599999999998,2.4262999999999977 2.9841999999999977,2.436799999999998 2.9903999999999975,2.4351999999999947 3.0009999999999977,2.425699999999999 3.007399999999997,2.423400000000001 3.0181999999999967,2.4232999999999976 3.0351,2.427099999999996 3.0843999999999987,2.4177999999999997 3.1102999999999987,2.420199999999994 3.1435999999999993,2.407899999999998 3.1641999999999975,2.4057999999999993 3.1738999999999997,2.4069000000000003 3.1845,2.4058999999999955 3.1899999999999977,2.4028999999999954 3.1923999999999992,2.399499999999996 3.1971999999999987,2.3806999999999974 3.2128999999999976,2.3696999999999946 3.2181999999999995,2.3636999999999944 3.2211999999999996,2.355799999999995 3.2206999999999972,2.342799999999997 3.218499999999999,2.336999999999996 3.230699999999999,2.3138999999999967 3.249299999999998,2.3055999999999983 3.2627999999999986,2.2967999999999975 3.2699999999999996,2.2856999999999985 3.271799999999999,2.2783999999999978 3.2753999999999976,2.273299999999999 3.2925999999999966,2.2652 3.317999999999998,2.2483000000000004 3.331199999999999,2.243299999999998 3.353999999999999,2.2449999999999974 3.3744999999999976,2.2538999999999945 3.387999999999998,2.282599999999995 3.400299999999998,2.296299999999995 3.423099999999998,2.3340999999999994 3.4339999999999975,2.343499999999999 3.4574,2.3689999999999998 3.4650999999999996,2.3857 3.4671999999999983,2.3981999999999957 3.492799999999999,2.4114000000000004 3.494799999999998,2.4147999999999996 3.494699999999998,2.421900000000001 3.496299999999998,2.4258999999999986 3.501299999999997,2.4314999999999998 3.5244999999999997,2.4480000000000004 3.5321,2.449300000000001 3.557699999999997,2.4450000000000003 3.569099999999999,2.4465999999999966 3.59,2.4561999999999955 3.5970999999999975,2.4612999999999943 3.6073999999999984,2.472999999999999 3.6195999999999984,2.4808999999999983 3.6236999999999995,2.4829000000000008 3.6311,2.4824999999999946 3.6473999999999975,2.4853999999999985 3.654299999999999,2.4879999999999995 3.6614999999999966,2.4871999999999943 3.676199999999998,2.4809999999999945 3.683399999999999,2.473399999999998 3.6987999999999985,2.4649999999999963 3.7125999999999983,2.450099999999999 3.7165999999999997,2.448999999999998 3.7463999999999977,2.4253 3.7548999999999992,2.4210999999999956 3.757299999999997,2.418999999999997 3.7596999999999987,2.4116 3.765099999999997,2.4076999999999984 3.814799999999998,2.387299999999996 3.830499999999997,2.3872 3.860999999999997,2.391999999999996 3.8691999999999993,2.390499999999996 3.871799999999997,2.3891999999999953 3.874299999999998,2.382799999999996 3.878399999999999,2.3798999999999992 3.902199999999997,2.374600000000001 3.9497,2.334299999999999 3.9543999999999997,2.3275000000000006 3.9564999999999984,2.320599999999999 3.956599999999998,2.314799999999998 3.9541999999999966,2.311 3.904399999999999,2.2922999999999973 3.8922999999999988,2.2896 3.8846999999999987,2.289899999999996 3.8770999999999987,2.292499999999997 3.8476999999999997,2.3085999999999984 3.8352999999999966,2.3173999999999992 3.813699999999997,2.324399999999997 3.792399999999997,2.3248999999999995 3.7749999999999986,2.322099999999999 3.7653999999999996,2.316199999999995 3.7556999999999974,2.305899999999994 3.753399999999999,2.2954000000000008 3.7531999999999996,2.2778999999999954 3.7479999999999976,2.2624999999999957 3.7410999999999994,2.2545 3.7147999999999968,2.244799999999998 3.7059999999999995,2.2451000000000008 3.6892999999999994,2.2502999999999957 3.6667999999999985,2.253399999999999 3.6584999999999965,2.2524999999999977 3.6508999999999965,2.2471999999999994 3.648799999999998,2.2427999999999955 3.649099999999997,2.2372999999999976 3.658299999999997,2.2157999999999944 3.6647,2.2094999999999985 3.6739999999999995,2.2053999999999974 3.694499999999998,2.1899999999999977 3.6916999999999973,2.1835999999999984 3.692999999999998,2.1674000000000007 3.6965999999999966,2.1531999999999982 3.709199999999999,2.1314999999999955 3.718399999999999,2.110299999999995 3.740599999999997,2.095399999999998 3.7483999999999966,2.084299999999999 3.756499999999999,2.0782999999999987 3.7709999999999972,2.0762999999999963 3.810299999999998,2.0659999999999954 3.8375999999999983,2.065399999999997 3.864699999999999,2.0563000000000002 3.8715999999999973,2.0508999999999986 3.8781,2.0381 3.878399999999999,2.028799999999997 3.875799999999998,2.0205999999999946 3.8659,2.0045 3.8645999999999994,1.9951000000000008 3.866199999999999,1.9895999999999958 3.8721999999999994,1.9850999999999956 3.8644,1.980399999999996 3.8638999999999974,1.9773999999999958 3.861799999999999,1.9761999999999986 3.8598,1.975999999999999 3.858699999999999,1.9780999999999977 3.8537999999999997,1.9804999999999993 3.8517999999999972,1.9801999999999964 3.8512999999999984,1.9786999999999964 3.8543999999999983,1.9754000000000005 3.8512999999999984,1.9692000000000007 3.846799999999998,1.9635999999999996 3.8431999999999995,1.9632000000000005 3.8409999999999975,1.961199999999998 3.8420999999999985,1.9595999999999947 3.846899999999998,1.9587000000000003 3.8470999999999975,1.9562999999999988 3.8408999999999978,1.9519999999999982 3.836199999999998,1.9546999999999954 3.8318999999999974,1.9536999999999978 3.8386999999999993,1.9482999999999961 3.8374999999999986,1.9448000000000008 3.8298999999999985,1.9440999999999988 3.8297999999999988,1.9414999999999978 3.8264999999999993,1.9397999999999982 3.8234999999999992,1.9428999999999945 3.8203999999999994,1.9427999999999983 3.8171999999999997,1.9399999999999977 3.816499999999998,1.9354999999999976 3.8127999999999993,1.9346999999999994 3.8157999999999994,1.9303999999999988 3.821999999999999,1.9317999999999955 3.8227999999999973,1.9274999999999949 3.8279999999999994,1.9268999999999963 3.8247999999999998,1.9199999999999946 3.8252999999999986,1.9161999999999964 3.819399999999998,1.9144000000000005 3.813799999999997,1.905699999999996 3.8034999999999997,1.8770999999999987 3.8028999999999975,1.8725999999999985 3.804599999999997,1.8689999999999998 3.8114999999999988,1.8645999999999958 3.8100999999999985,1.8502999999999972 3.808699999999998,1.8474999999999966 3.8049,1.8454999999999941 3.806799999999999,1.8421999999999983 3.8135999999999974,1.8395999999999972 3.8078999999999965,1.8355999999999995 3.8089999999999975,1.8295999999999992 3.7677999999999976,1.8266999999999953 3.7648999999999972,1.818399999999997 3.7425999999999995,1.8210999999999942 3.7364999999999995,1.8168999999999969 3.7140999999999984,1.8138999999999967 3.711199999999998,1.810699999999997 3.7211,1.8063999999999965 3.7224999999999966,1.8046000000000006 3.7181999999999995,1.800699999999999 3.7239999999999966,1.7962999999999951 3.7208999999999968,1.7934999999999945 3.719299999999997,1.7881 3.7125999999999983,1.7872999999999948 3.7109999999999985,1.782899999999998 3.7074999999999996,1.7819000000000003 3.6864999999999988,1.7794999999999987 3.668999999999997,1.783299999999997 3.6549999999999976,1.7778999999999954 3.6327999999999996,1.7793999999999954 3.6300999999999988,1.7789999999999964 3.6287999999999982,1.7729999999999961 3.6098999999999997,1.768099999999997 3.5956999999999972,1.7667000000000002 3.598399999999998,1.7600999999999942 3.5962999999999994,1.7580999999999989 3.6019999999999968,1.7532999999999959 3.593799999999998,1.7474999999999952 3.5950999999999986,1.7453000000000003 3.593899999999998,1.741899999999994 3.596899999999998,1.7401999999999944 3.5956999999999972,1.7348999999999961 3.597299999999997,1.731499999999997 3.5943999999999967,1.7216999999999985 3.593899999999998,1.7141999999999982 3.5885999999999996,1.7077999999999989 3.5900999999999996,1.6982 3.574499999999997,1.6892999999999958 3.5695999999999977,1.6843999999999966 3.5699999999999967,1.6807999999999979 3.573599999999999,1.6751000000000005 3.5722999999999985,1.6716999999999942 3.574099999999998,1.6663999999999959 3.5702,1.6584999999999965 3.567499999999999,1.6374999999999957 3.557699999999997,1.6060999999999979 3.558,1.6026999999999987 3.5509999999999984,1.5927000000000007 3.5468999999999973,1.583199999999998 3.5382999999999996,1.5778999999999996 3.5375999999999976,1.5707999999999984 3.5351,1.5653999999999968 3.5386999999999986,1.5610999999999962 3.5401999999999987,1.5548000000000002 3.543599999999998,1.5521999999999991 3.5473,1.5437999999999974 3.559299999999997,1.5272999999999968 3.5707999999999984,1.5189999999999984 3.5784999999999982,1.518899999999995 3.5742999999999974,1.5128999999999948 3.575499999999998,1.4989999999999952 3.570999999999998,1.491499999999995 3.5771999999999977,1.4853999999999985 3.5791999999999966,1.4790999999999954 3.5788999999999973,1.4739000000000004 3.582099999999997,1.4677999999999969 3.581999999999997,1.4590999999999994 3.5935999999999986,1.4490999999999943 3.5939999999999976,1.4460999999999942 3.5969999999999978,1.4436999999999998 3.613699999999998,1.4380999999999986 3.619399999999999,1.4314999999999998 3.6250999999999998,1.4279999999999973 3.633099999999999,1.4240999999999957 3.6538999999999966,1.4206000000000003 3.657799999999998,1.4159999999999968 3.6586999999999996,1.4105999999999952 3.6636999999999986,1.407599999999995 3.6655999999999977,1.404599999999995 3.665099999999999,1.3995999999999995 3.6546999999999983,1.389800000000001 3.6616,1.3823000000000008 3.6636999999999986,1.3721999999999994 3.666499999999999,1.366899999999994 3.6595999999999975,1.3567999999999998 3.6616999999999997,1.3526999999999987 3.6677,1.3489999999999966 3.6682999999999986,1.346899999999998 3.6605999999999987,1.3325999999999993 3.661299999999997,1.3201999999999998 3.6645999999999965,1.318099999999994 3.6662,1.3136999999999972 3.673499999999997,1.3040999999999983 3.672099999999997,1.2926999999999964 3.6754999999999995,1.2859999999999943 3.6763999999999974,1.2800999999999974 3.683799999999998,1.273299999999999 3.683699999999998,1.2693999999999974 3.6865999999999985,1.2656999999999954 3.6937999999999995,1.2603000000000009 3.6952,1.2490999999999985 3.702499999999997,1.241499999999995 3.7038999999999973,1.234099999999998 3.7226999999999997,1.2252999999999972 3.7308999999999983,1.2274999999999991 3.7433999999999976,1.2274999999999991 3.753499999999999,1.217099999999995 3.7563999999999993,1.2117999999999967 3.7571999999999974,1.2045999999999992 3.763499999999997,1.1997 3.789399999999997,1.1929999999999978 3.7944999999999993,1.1938999999999993 3.802699999999998,1.1993999999999971 3.821399999999997,1.1924999999999955 3.8232,1.185299999999998 3.8288999999999973,1.1770999999999958 3.8291999999999966,1.168699999999994 3.837799999999998,1.160899999999998 3.842799999999997,1.1594999999999942 3.8547999999999973,1.160899999999998 3.8602999999999987,1.1594999999999942 3.8797999999999995,1.1622999999999948 3.8920999999999992,1.1554999999999964 3.9034999999999975,1.1537000000000006 3.910899999999998,1.1480999999999995 3.9258999999999986,1.1432000000000002 3.9270999999999994,1.1332999999999984 3.929199999999998,1.1285999999999987 3.946399999999997,1.1196999999999946 3.956999999999997,1.1081000000000003 3.967399999999998,1.1015999999999977 3.9788999999999994,1.0996999999999986 3.994799999999998,1.0921999999999983 3.9989999999999988,1.0710999999999942 4.013199999999998,1.058399999999999 4.0108,1.0478999999999985 4.016399999999997,1.0377999999999972 4.029999999999998,1.0351 4.0366,1.029599999999995 4.037599999999998,1.0165999999999968 4.049099999999999,1.005599999999994 4.053799999999999,0.9983999999999966 4.061999999999998,0.9930999999999983 4.065199999999997,0.9865999999999957 4.074099999999998,0.982999999999997 4.085299999999997,0.9812999999999974 4.094799999999999,0.972999999999999 4.100499999999997,0.9705999999999975 4.105899999999998,0.9649999999999963 4.126099999999997,0.9697999999999993 4.139999999999997,0.9672999999999945 4.145299999999999,0.9647000000000006 4.148999999999997,0.9652999999999992 4.1602,0.9583999999999975 4.1693,0.9555000000000007 4.170199999999998,0.9503999999999948 4.151,0.9291999999999945 4.160599999999999,0.9231999999999942 4.161399999999997,0.9187999999999974 4.1584999999999965,0.9123999999999981 4.160599999999999,0.9029999999999987 4.1601,0.8994999999999962 4.1556999999999995,0.8908999999999949 4.150199999999998,0.8844999999999956 4.150099999999998,0.8784999999999954 4.147099999999998,0.872799999999998 4.1206,0.856899999999996 4.1175999999999995,0.8534999999999968 4.098799999999997,0.8491 4.085099999999997,0.8399000000000001 4.075999999999997,0.815100000000001 4.066999999999997,0.8078000000000003 4.065999999999999,0.796999999999997 4.030399999999997,0.7790999999999997 4.017799999999998,0.7623999999999995 4.013999999999999,0.7532999999999959 3.9614999999999974,0.7344000000000008 3.961199999999998,0.7110999999999947 3.9586999999999968,0.7072999999999965 3.9590999999999994,0.7020999999999944 3.956199999999999,0.7005999999999943 3.9518999999999984,0.7015999999999991 3.945499999999999,0.6975999999999942 3.953199999999999,0.6849999999999952 3.9534999999999982,0.6816999999999993 3.950599999999998,0.6746999999999943 3.9391,0.6657000000000011 3.9343999999999966,0.6547999999999945 3.9294999999999973,0.652000000000001 3.923199999999998,0.6442999999999941 3.9101999999999997,0.6389999999999958 3.894599999999997,0.6381999999999977 3.8878999999999984,0.6336999999999975 3.879399999999997,0.6405999999999992 3.876899999999999,0.6404999999999959 3.8740999999999985,0.6390999999999991 3.8690999999999995,0.6302999999999983 3.8580999999999968,0.6248999999999967 3.8580999999999968,0.6203999999999965 3.853999999999999,0.6171999999999969 3.849899999999998,0.620599999999996 3.8476,0.6265999999999963 3.8344999999999985,0.6340000000000003 3.8302999999999976,0.6347999999999985 3.8111999999999995,0.6323000000000008 3.8074999999999974,0.6344999999999956 3.796199999999999,0.6472999999999942 3.792499999999997,0.6479999999999961 3.7791999999999994,0.6430999999999969 3.773699999999998,0.6466999999999956 3.7673999999999985,0.6433999999999997 3.7602999999999973,0.643899999999995 3.7480999999999973,0.6273999999999944 3.7501999999999995,0.6150999999999982 3.7398999999999987,0.6221999999999994 3.7251999999999974,0.6263999999999967 3.715799999999998,0.6315999999999988 3.7143999999999977,0.6340999999999966 3.7151999999999994,0.6387999999999963 3.713899999999999,0.6390999999999991 3.704099999999997,0.6331999999999951 3.697499999999998,0.626100000000001 3.6942999999999984,0.6193999999999988 3.6952999999999996,0.6115999999999957 3.6835999999999984,0.6029999999999944 3.6721999999999966,0.6009999999999991 3.649799999999999,0.5841999999999956 3.6439999999999984,0.5835000000000008 3.640599999999999,0.5860999999999947 3.6226999999999983,0.5779999999999959 3.613999999999997,0.5760000000000005 3.6149999999999984,0.5579999999999998 3.6225999999999985,0.5540999999999983 3.6240999999999985,0.5501000000000005 3.6297999999999995,0.5464999999999947 3.6337999999999973,0.5364999999999966 3.6336999999999975,0.5330999999999975 3.6424999999999983,0.5250999999999948 3.649099999999997,0.5217999999999989 3.648299999999999,0.5190999999999946 3.6538999999999966,0.5127999999999986 3.654799999999998,0.5090000000000003 3.6587999999999994,0.5048999999999992 3.6701999999999977,0.5000999999999962 3.6738,0.4971999999999994 3.6748999999999974,0.49389999999999645 3.668999999999997,0.4872999999999976 3.669599999999999,0.4777999999999949 3.6596999999999973,0.4771999999999963 3.6556999999999995,0.47049999999999415 3.6479999999999997,0.4660999999999973 3.6464999999999996,0.46000000000000085 3.643699999999999,0.45639999999999503 3.6453999999999986,0.4527000000000001 3.640099999999997,0.44839999999999947 3.6302999999999983,0.44709999999999894 3.6324999999999967,0.4414999999999978 3.6420999999999992,0.43849999999999767 3.6474999999999973,0.432699999999997 3.6438999999999986,0.42429999999999524 3.637599999999999,0.4176000000000002 3.6297999999999995,0.414200000000001 3.631899999999998,0.4107999999999947 3.630899999999997,0.40749999999999886 3.624699999999997,0.40679999999999694 3.637999999999998,0.3994 3.6348999999999982,0.39159999999999684 3.6281,0.3917999999999964 3.6298999999999992,0.3866999999999976 3.6276999999999973,0.38159999999999883 3.621299999999998,0.3743999999999943 3.6183999999999976,0.3609999999999971 3.6191999999999993,0.359099999999998 3.6102999999999987,0.35429999999999495 3.6077999999999975,0.3329999999999984 3.6205,0.3323999999999998 3.6377999999999986,0.32459999999999667 3.6514999999999986,0.3108999999999966 3.6594999999999978,0.30749999999999744 3.6697999999999986,0.2961999999999989 3.679599999999997,0.2903999999999982 3.685799999999997,0.2832000000000008 3.6934999999999967,0.2807999999999993 3.7036999999999978,0.2722999999999942 3.717399999999998,0.26539999999999964 3.724999999999998,0.25779999999999603 3.722399999999997,0.2522999999999982 3.7226,0.24569999999999936 3.729599999999998,0.23869999999999436 3.711199999999998,0.219699999999996 3.7089,0.20019999999999527 3.705599999999997,0.19469999999999743 3.7083999999999975,0.18819999999999482 3.706699999999998,0.18379999999999797 3.6967999999999996,0.17619999999999436 3.6942999999999984,0.16270000000000095 3.6839999999999975,0.16089999999999804 3.6692,0.16329999999999956 3.6564999999999976,0.16039999999999566 3.651399999999999,0.16099999999999426 3.6555,0.15379999999999683 3.6540999999999997,0.1490000000000009 3.649099999999997,0.14459999999999695 3.6433999999999997,0.14239999999999498 3.6419999999999995,0.1366999999999976 3.6342999999999996,0.12829999999999586 3.6362999999999985,0.11769999999999925 3.6355999999999966,0.11399999999999721 3.637699999999999,0.11090000000000089 3.6297999999999995,0.09919999999999618 3.627799999999997,0.09740000000000038 3.6159999999999997,0.09429999999999694 3.6077999999999975,0.08849999999999625 3.5991,0.0992999999999995 3.594899999999999,0.09549999999999415 3.591199999999997,0.0945999999999998 3.584699999999998,0.09759999999999991 3.5798999999999985,0.09769999999999612 3.575899999999997,0.09159999999999968 3.565899999999999,0.09049999999999869 3.5631999999999984,0.0882000000000005 3.5534999999999997,0.08849999999999625 3.5466999999999977,0.08650000000000091 3.5425999999999966,0.0887999999999991 3.5428999999999995,0.08579999999999899 3.536999999999999,0.0764999999999958 3.5299999999999976,0.07169999999999987 3.5108999999999995,0.07920000000000016 3.497299999999999,0.08779999999999433 3.484099999999998,0.09969999999999857 3.4660999999999973,0.11029999999999518 3.444499999999998,0.1109999999999971 3.4299,0.10709999999999553 3.3862999999999985,0.09969999999999857 3.369299999999999,0.0998999999999981 3.3481999999999985,0.08269999999999555 3.3119999999999976,0.07589999999999719 "></polygon><polygon points="3.876899999999999,1.9810999999999979 3.8766,1.9799000000000007 3.874299999999998,1.981199999999994 3.8744999999999976,1.9835999999999956 3.876899999999999,1.9810999999999979 "></polygon>
    </svg>
    