
    <svg width="0.4767000000000081" height="0.30499999999999994" xmlns="http://www.w3.org/2000/svg" xmlns:xlink="http://www.w3.org/1999/xlink" style="transform: scale(1, -1)">
        <polygon points="0.12579999999999814,0.008399999999999963 0.13280000000000314,0.007799999999999807 0.12980000000000302,0.0 0.12449999999999761,0.0004999999999999449 0.12199999999999989,0.005499999999999838 0.11899999999999977,0.006699999999999928 0.12310000000000798,0.00969999999999982 0.12579999999999814,0.008399999999999963 "></polygon><polygon points="0.15619999999999834,0.044199999999999795 0.16089999999999804,0.04219999999999979 0.17010000000000502,0.045499999999999874 0.17249999999999943,0.04179999999999984 0.172300000000007,0.03359999999999985 0.16670000000000584,0.030299999999999994 0.1664999999999992,0.026899999999999924 0.1606000000000023,0.022199999999999998 0.15619999999999834,0.02389999999999981 0.16259999999999764,0.024699999999999944 0.165300000000002,0.029999999999999805 0.15699999999999648,0.03529999999999989 0.15170000000000528,0.03049999999999997 0.1548000000000087,0.02499999999999991 0.150100000000009,0.02939999999999987 0.15090000000000714,0.03189999999999982 0.1483999999999952,0.0383 0.14920000000000755,0.04999999999999982 0.150100000000009,0.050799999999999956 0.15310000000000912,0.04469999999999996 0.15619999999999834,0.044199999999999795 "></polygon><polygon points="0.18730000000000757,0.041899999999999826 0.19310000000000116,0.036699999999999955 0.19209999999999638,0.0343 0.18309999999999604,0.037799999999999834 0.18210000000000548,0.04149999999999987 0.1839999999999975,0.04499999999999993 0.18730000000000757,0.041899999999999826 "></polygon><polygon points="0.1384000000000043,0.057499999999999885 0.1384000000000043,0.0593999999999999 0.14119999999999777,0.0593999999999999 0.14060000000000628,0.056400000000000006 0.1384000000000043,0.057499999999999885 "></polygon><polygon points="0.14280000000000825,0.058599999999999985 0.14230000000000587,0.05999999999999983 0.1436999999999955,0.05999999999999983 0.14400000000000546,0.05719999999999992 0.14280000000000825,0.058599999999999985 "></polygon><polygon points="0.15560000000000684,0.07389999999999985 0.16979999999999507,0.060799999999999965 0.16949999999999932,0.05689999999999995 0.1647999999999996,0.05799999999999983 0.161200000000008,0.0625 0.1595000000000084,0.059499999999999886 0.15449999999999875,0.058599999999999985 0.14700000000000557,0.06279999999999997 0.1448000000000036,0.06579999999999986 0.14509999999999934,0.06969999999999987 0.14759999999999707,0.07079999999999997 0.15030000000000143,0.0674999999999999 0.1512000000000029,0.0693999999999999 0.14979999999999905,0.07249999999999979 0.15200000000000102,0.07469999999999999 0.15560000000000684,0.07389999999999985 "></polygon><polygon points="0.1419999999999959,0.06889999999999996 0.14170000000000016,0.06689999999999996 0.13810000000000855,0.06499999999999995 0.1337000000000046,0.06469999999999998 0.1303000000000054,0.06719999999999993 0.13400000000000034,0.07029999999999981 0.1325999999999965,0.07189999999999985 0.13400000000000034,0.07359999999999989 0.1389999999999958,0.07299999999999995 0.14119999999999777,0.0743999999999998 0.1419999999999959,0.06889999999999996 "></polygon><polygon points="0.2014999999999958,0.09669999999999979 0.2026000000000039,0.09829999999999983 0.2044999999999959,0.09689999999999999 0.20400000000000773,0.09609999999999985 0.2014999999999958,0.09669999999999979 "></polygon><polygon points="0.1203000000000003,0.024399999999999977 0.12279999999999802,0.02189999999999981 0.11979999999999791,0.020299999999999985 0.11840000000000828,0.016899999999999915 0.109800000000007,0.01419999999999999 0.10760000000000502,0.021099999999999897 0.11230000000000473,0.02079999999999993 0.11419999999999675,0.02499999999999991 0.1203000000000003,0.024399999999999977 "></polygon><polygon points="0.1162000000000063,0.04359999999999986 0.1203000000000003,0.04499999999999993 0.12109999999999843,0.043099999999999916 0.11899999999999977,0.04169999999999985 0.12290000000000134,0.04019999999999979 0.12449999999999761,0.036799999999999944 0.10739999999999839,0.03579999999999983 0.09789999999999566,0.03819999999999979 0.10429999999999495,0.04469999999999996 0.10729999999999507,0.04579999999999984 0.11339999999999861,0.047499999999999876 0.1162000000000063,0.04359999999999986 "></polygon><polygon points="0.10170000000000812,0.125 0.102800000000002,0.12639999999999985 0.10529999999999973,0.1238999999999999 0.11419999999999675,0.1238999999999999 0.11899999999999977,0.11639999999999984 0.12399999999999523,0.11219999999999986 0.1261000000000081,0.11229999999999984 0.13060000000000116,0.10799999999999987 0.13060000000000116,0.10609999999999986 0.12650000000000716,0.1016999999999999 0.11700000000000443,0.1045999999999998 0.11599999999999966,0.10249999999999981 0.11750000000000682,0.10139999999999993 0.11719999999999686,0.0988 0.1127000000000038,0.09409999999999985 0.10320000000000107,0.09849999999999981 0.10009999999999764,0.1028 0.09759999999999991,0.10219999999999985 0.09590000000000032,0.09939999999999993 0.098700000000008,0.0947 0.1039999999999992,0.09299999999999997 0.10529999999999973,0.08799999999999986 0.10009999999999764,0.08939999999999992 0.09449999999999648,0.08529999999999993 0.08979999999999677,0.08439999999999981 0.08620000000000516,0.08549999999999991 0.08370000000000744,0.09109999999999996 0.08370000000000744,0.09829999999999983 0.08230000000000359,0.09889999999999999 0.080600000000004,0.09689999999999999 0.07640000000000668,0.1005999999999998 0.07099999999999795,0.0956999999999999 0.07430000000000803,0.0915999999999999 0.06820000000000448,0.0806 0.07099999999999795,0.07819999999999983 0.07670000000000243,0.08709999999999996 0.08160000000000878,0.07409999999999983 0.06940000000000168,0.06269999999999998 0.06780000000000541,0.06639999999999979 0.07019999999999982,0.07569999999999988 0.06690000000000396,0.07819999999999983 0.06449999999999534,0.07619999999999982 0.05509999999999593,0.08229999999999982 0.05760000000000787,0.08429999999999982 0.046999999999997044,0.10339999999999994 0.07430000000000803,0.12259999999999982 0.07869999999999777,0.125 0.08259999999999934,0.12439999999999984 0.08419999999999561,0.12749999999999995 0.0853000000000037,0.1266999999999998 0.08150000000000546,0.12090000000000001 0.08169999999999789,0.11819999999999986 0.07399999999999807,0.10919999999999996 0.07670000000000243,0.10609999999999986 0.08310000000000173,0.11139999999999994 0.08259999999999934,0.1066999999999998 0.08509999999999707,0.10549999999999993 0.08670000000000755,0.11279999999999979 0.0853000000000037,0.11549999999999994 0.08979999999999677,0.11939999999999995 0.09310000000000684,0.11719999999999997 0.09780000000000655,0.10919999999999996 0.10130000000000905,0.10939999999999994 0.10269999999999868,0.1117999999999999 0.09780000000000655,0.11419999999999986 0.09480000000000643,0.12439999999999984 0.09780000000000655,0.12749999999999995 0.10170000000000812,0.125 "></polygon><polygon points="0.1483999999999952,0.13219999999999987 0.14700000000000557,0.12919999999999998 0.14260000000000161,0.12859999999999983 0.13230000000000075,0.13249999999999984 0.1214999999999975,0.13409999999999989 0.11809999999999832,0.14079999999999981 0.11809999999999832,0.14439999999999986 0.12310000000000798,0.15249999999999986 0.12390000000000612,0.15559999999999996 0.1226000000000056,0.1560999999999999 0.11480000000000246,0.14049999999999985 0.11780000000000257,0.1360999999999999 0.11730000000000018,0.13449999999999984 0.10869999999999891,0.13969999999999994 0.10779999999999745,0.1388999999999998 0.11169999999999902,0.1349999999999998 0.11090000000000089,0.13329999999999997 0.10949999999999704,0.13219999999999987 0.10450000000000159,0.1338999999999999 0.10170000000000812,0.14029999999999987 0.10009999999999764,0.13859999999999983 0.10030000000000427,0.13579999999999992 0.0981000000000023,0.13439999999999985 0.09420000000000073,0.13469999999999982 0.09149999999999636,0.13749999999999996 0.09010000000000673,0.13329999999999997 0.08670000000000755,0.13219999999999987 0.08559999999999945,0.13749999999999996 0.08509999999999707,0.13329999999999997 0.07620000000000005,0.13249999999999984 0.0742000000000047,0.1327999999999998 0.07269999999999754,0.1379999999999999 0.07309999999999661,0.1318999999999999 0.06969999999999743,0.13029999999999986 0.06199999999999761,0.13939999999999997 0.06060000000000798,0.1351 0.06619999999999493,0.1288999999999998 0.06650000000000489,0.1266999999999998 0.06199999999999761,0.1257999999999999 0.057800000000000296,0.12139999999999995 0.054000000000002046,0.12549999999999994 0.05150000000000432,0.125 0.05010000000000048,0.12719999999999998 0.049000000000006594,0.1266999999999998 0.049000000000006594,0.12969999999999993 0.04650000000000887,0.1288999999999998 0.03509999999999991,0.14049999999999985 0.03920000000000812,0.14439999999999986 0.037800000000004275,0.14639999999999986 0.035600000000002296,0.14639999999999986 0.033799999999999386,0.1391 0.02980000000000871,0.1380999999999999 0.028999999999996362,0.14049999999999985 0.028100000000009118,0.1399999999999999 0.024699999999995725,0.13159999999999994 0.03820000000000334,0.12459999999999982 0.03860000000000241,0.12049999999999983 0.033299999999997,0.11959999999999993 0.02949999999999875,0.10379999999999989 0.012399999999999523,0.09559999999999991 0.012100000000003774,0.09109999999999996 0.006500000000002615,0.0867 0.01300000000000523,0.07129999999999992 0.00910000000000366,0.07019999999999982 0.01300000000000523,0.05719999999999992 0.0,0.05269999999999997 0.0016999999999995907,0.060699999999999976 0.008499999999997954,0.06279999999999997 0.006799999999998363,0.06989999999999985 0.0037999999999982492,0.07189999999999985 0.001999999999995339,0.08459999999999979 0.009399999999999409,0.09319999999999995 0.009900000000001796,0.09589999999999987 0.005899999999996908,0.10139999999999993 0.01290000000000191,0.12090000000000001 0.007800000000003138,0.12549999999999994 0.0075999999999964984,0.12919999999999998 0.011400000000008959,0.1351 0.025000000000005684,0.17299999999999982 0.02370000000000516,0.17609999999999992 0.025300000000001432,0.17969999999999997 0.02400000000000091,0.1843999999999999 0.028400000000004866,0.18579999999999997 0.029200000000003,0.1832999999999998 0.036000000000001364,0.1775 0.041200000000003456,0.17609999999999992 0.04080000000000439,0.1723999999999999 0.04229999999999734,0.16969999999999996 0.046999999999997044,0.17059999999999986 0.046999999999997044,0.1722999999999999 0.045100000000005025,0.17169999999999996 0.04399999999999693,0.1732999999999998 0.043400000000005434,0.17759999999999998 0.035899999999998045,0.18399999999999994 0.032099999999999795,0.18979999999999997 0.03539999999999566,0.19169999999999998 0.036200000000008004,0.19469999999999987 0.04229999999999734,0.19629999999999992 0.04529999999999745,0.1955 0.043300000000002115,0.2012999999999998 0.04609999999999559,0.20629999999999993 0.059799999999995634,0.20639999999999992 0.061700000000001864,0.20079999999999987 0.06400000000000716,0.20029999999999992 0.06530000000000769,0.20299999999999985 0.06230000000000757,0.20889999999999986 0.06470000000000198,0.2124999999999999 0.0683000000000078,0.21239999999999992 0.0648000000000053,0.2135999999999998 0.06310000000000571,0.2166999999999999 0.05339999999999634,0.21529999999999982 0.04990000000000805,0.21689999999999987 0.04779999999999518,0.2154999999999998 0.05310000000000059,0.22609999999999997 0.05310000000000059,0.22999999999999998 0.05150000000000432,0.2316999999999998 0.05339999999999634,0.23419999999999996 0.0537000000000063,0.23929999999999985 0.05639999999999645,0.2427999999999999 0.06080000000000041,0.24459999999999993 0.06490000000000862,0.258 0.06870000000000687,0.26249999999999996 0.08689999999999998,0.2689999999999999 0.0981000000000023,0.2800999999999998 0.10670000000000357,0.2840999999999998 0.11870000000000402,0.28469999999999995 0.12770000000000437,0.27659999999999996 0.12940000000000396,0.27279999999999993 0.12720000000000198,0.26449999999999996 0.1291000000000082,0.2631999999999999 0.12659999999999627,0.2547999999999999 0.12050000000000693,0.24869999999999992 0.11410000000000764,0.2459 0.11010000000000275,0.2457999999999998 0.10590000000000543,0.24829999999999997 0.10309999999999775,0.24639999999999995 0.09530000000000882,0.246 0.09480000000000643,0.24469999999999992 0.10060000000000002,0.24529999999999985 0.10259999999999536,0.24349999999999983 0.10529999999999973,0.24639999999999995 0.10790000000000077,0.2427999999999999 0.11589999999999634,0.24329999999999985 0.11730000000000018,0.2407999999999999 0.11459999999999582,0.23259999999999992 0.11530000000000484,0.23009999999999997 0.11070000000000846,0.22639999999999993 0.1110000000000042,0.22509999999999986 0.11710000000000775,0.22919999999999985 0.11929999999999552,0.2368999999999999 0.12199999999999989,0.23449999999999993 0.12590000000000146,0.22529999999999983 0.12640000000000384,0.23129999999999984 0.12059999999999604,0.24329999999999985 0.1302000000000021,0.2515999999999998 0.13750000000000284,0.26249999999999996 0.1332000000000022,0.2718999999999998 0.13410000000000366,0.27359999999999984 0.14119999999999777,0.27079999999999993 0.1453999999999951,0.2724 0.15260000000000673,0.2723 0.15869999999999607,0.2813999999999999 0.17369999999999663,0.2891999999999999 0.1869999999999976,0.3002999999999998 0.19030000000000769,0.3005 0.19530000000000314,0.30389999999999984 0.2091000000000065,0.3046 0.21340000000000714,0.30179999999999985 0.21000000000000796,0.2994999999999999 0.20980000000000132,0.2971999999999999 0.21300000000000807,0.3001999999999998 0.21580000000000155,0.29959999999999987 0.21980000000000643,0.30499999999999994 0.2220000000000084,0.30299999999999994 0.22150000000000603,0.3010999999999999 0.24139999999999873,0.2891999999999999 0.24200000000000443,0.2845 0.23700000000000898,0.2823 0.2453000000000003,0.2822 0.24720000000000653,0.2771999999999999 0.24370000000000402,0.27279999999999993 0.2483000000000004,0.2750999999999999 0.25369999999999493,0.2676999999999998 0.23870000000000857,0.24329999999999985 0.23449999999999704,0.24109999999999987 0.2231000000000023,0.24359999999999982 0.22060000000000457,0.2419 0.2195999999999998,0.2367999999999999 0.22230000000000416,0.23939999999999984 0.22589999999999577,0.24009999999999998 0.22580000000000666,0.23229999999999995 0.2301000000000073,0.23149999999999982 0.23279999999999745,0.23519999999999985 0.23499999999999943,0.23439999999999994 0.23629999999999995,0.23719999999999986 0.24859999999999616,0.2469999999999999 0.2546999999999997,0.25729999999999986 0.25969999999999516,0.25869999999999993 0.27080000000000837,0.2497999999999998 0.2716000000000065,0.246 0.27190000000000225,0.24959999999999982 0.2738000000000085,0.25059999999999993 0.2849999999999966,0.24729999999999985 0.2849999999999966,0.2436999999999998 0.27779999999999916,0.2377999999999998 0.27779999999999916,0.23549999999999982 0.28650000000000375,0.24 0.28530000000000655,0.24139999999999984 0.28940000000000055,0.2509999999999999 0.299199999999999,0.2549999999999999 0.3037999999999954,0.2550999999999999 0.30400000000000205,0.24429999999999996 0.31230000000000757,0.2346999999999999 0.30809999999999604,0.22439999999999993 0.3149000000000086,0.2306999999999999 0.32200000000000273,0.23329999999999984 0.325800000000001,0.23149999999999982 0.32860000000000866,0.22399999999999998 0.33679999999999666,0.21829999999999994 0.341700000000003,0.21609999999999996 0.3511000000000024,0.21499999999999986 0.35829999999999984,0.21519999999999984 0.3562000000000012,0.21639999999999993 0.35649999999999693,0.21919999999999984 0.36070000000000846,0.21919999999999984 0.3667000000000087,0.22639999999999993 0.37869999999999493,0.22639999999999993 0.3867000000000047,0.2235999999999998 0.3906000000000063,0.2246999999999999 0.3953999999999951,0.21079999999999988 0.39920000000000755,0.20669999999999988 0.3973000000000013,0.20469999999999988 0.3973000000000013,0.19889999999999985 0.3896000000000015,0.18379999999999996 0.38169999999999504,0.16259999999999986 0.38700000000000045,0.1594 0.38530000000000086,0.15689999999999982 0.38760000000000616,0.1549999999999998 0.42310000000000514,0.15889999999999982 0.42369999999999663,0.15469999999999984 0.4258999999999986,0.15279999999999982 0.42369999999999663,0.1492 0.424199999999999,0.14329999999999998 0.4177999999999997,0.15029999999999988 0.41920000000000357,0.15169999999999995 0.41840000000000543,0.1529999999999998 0.41370000000000573,0.1521999999999999 0.4147999999999996,0.14639999999999986 0.41840000000000543,0.14469999999999983 0.41729999999999734,0.14279999999999982 0.41339999999999577,0.1449999999999998 0.41259999999999764,0.14859999999999984 0.41030000000000655,0.1488999999999998 0.40149999999999864,0.1488999999999998 0.39280000000000825,0.14359999999999995 0.38169999999999504,0.14749999999999996 0.3790000000000049,0.1449999999999998 0.37420000000000186,0.15029999999999988 0.3522999999999996,0.14749999999999996 0.34669999999999845,0.14459999999999984 0.3383000000000038,0.1439999999999999 0.3316000000000088,0.14069999999999983 0.31270000000000664,0.13659999999999983 0.28470000000000084,0.1271 0.26650000000000773,0.11499999999999999 0.2605999999999966,0.12049999999999983 0.25730000000000075,0.12749999999999995 0.2575000000000074,0.13119999999999998 0.26310000000000855,0.133 0.26260000000000616,0.13639999999999985 0.2605999999999966,0.13779999999999992 0.2553000000000054,0.13249999999999984 0.2541999999999973,0.1299999999999999 0.2553000000000054,0.12329999999999997 0.25310000000000343,0.1227999999999998 0.2524999999999977,0.12059999999999982 0.25840000000000884,0.1169 0.2622999999999962,0.11109999999999998 0.25090000000000146,0.10239999999999982 0.24399999999999977,0.1069 0.2436000000000007,0.09539999999999993 0.24230000000000018,0.0936999999999999 0.23900000000000432,0.09689999999999999 0.2365000000000066,0.09389999999999987 0.22920000000000584,0.1008 0.22280000000000655,0.10029999999999983 0.216700000000003,0.09639999999999982 0.2108999999999952,0.09549999999999992 0.2027000000000072,0.10009999999999986 0.19519999999999982,0.09699999999999998 0.18949999999999534,0.1016999999999999 0.1839999999999975,0.10329999999999995 0.16920000000000357,0.11249999999999982 0.16310000000000002,0.10139999999999993 0.143100000000004,0.11359999999999992 0.14470000000000027,0.11809999999999987 0.14910000000000423,0.11649999999999983 0.1478000000000037,0.11799999999999988 0.1488999999999976,0.11839999999999984 0.1512000000000029,0.11609999999999987 0.15460000000000207,0.11729999999999996 0.15640000000000498,0.11459999999999981 0.16070000000000562,0.11419999999999986 0.16150000000000375,0.1157999999999999 0.1606000000000023,0.11799999999999988 0.15149999999999864,0.12439999999999984 0.1512000000000029,0.12749999999999995 0.15310000000000912,0.12939999999999996 0.1483999999999952,0.13219999999999987 "></polygon><polygon points="0.04059999999999775,0.20409999999999995 0.04099999999999682,0.20689999999999986 0.044899999999998386,0.20839999999999992 0.044799999999995066,0.20489999999999986 0.04240000000000066,0.20309999999999984 0.04059999999999775,0.20409999999999995 "></polygon><polygon points="0.046800000000004616,0.21389999999999998 0.04739999999999611,0.21299999999999986 0.04550000000000409,0.21129999999999982 0.04550000000000409,0.2118 0.046800000000004616,0.21389999999999998 "></polygon><polygon points="0.11830000000000496,0.2387999999999999 0.1186000000000007,0.2396999999999998 0.11929999999999552,0.23839999999999995 0.11840000000000828,0.238 0.11830000000000496,0.2387999999999999 "></polygon><polygon points="0.2242999999999995,0.04689999999999994 0.22530000000000427,0.04909999999999992 0.22710000000000719,0.048799999999999955 0.22560000000000002,0.0461999999999998 0.2242999999999995,0.04689999999999994 "></polygon><polygon points="0.22280000000000655,0.05029999999999979 0.22450000000000614,0.05049999999999999 0.22419999999999618,0.04859999999999998 0.22280000000000655,0.04919999999999991 0.22280000000000655,0.05029999999999979 "></polygon><polygon points="0.2395000000000067,0.05669999999999997 0.24259999999999593,0.05389999999999984 0.2412999999999954,0.047699999999999854 0.23409999999999798,0.055199999999999916 0.23570000000000846,0.05699999999999994 0.2395000000000067,0.05669999999999997 "></polygon><polygon points="0.25199999999999534,0.05779999999999985 0.25310000000000343,0.055399999999999894 0.24779999999999802,0.058599999999999985 0.24980000000000757,0.059699999999999864 0.25199999999999534,0.05779999999999985 "></polygon><polygon points="0.2441000000000031,0.06509999999999994 0.24930000000000518,0.06499999999999995 0.2471000000000032,0.0622999999999998 0.2447000000000088,0.06269999999999998 0.2442000000000064,0.06019999999999981 0.2464999999999975,0.059499999999999886 0.24909999999999854,0.055299999999999905 0.2477000000000089,0.05149999999999988 0.24370000000000402,0.055299999999999905 0.24250000000000682,0.0602999999999998 0.24030000000000484,0.06219999999999981 0.2377000000000038,0.06039999999999979 0.2400999999999982,0.06299999999999994 0.2365999999999957,0.06569999999999987 0.24040000000000816,0.06359999999999988 0.2441000000000031,0.06509999999999994 "></polygon><polygon points="0.2272999999999996,0.06599999999999984 0.22860000000000014,0.06569999999999987 0.23059999999999548,0.0622999999999998 0.2283000000000044,0.06409999999999982 0.2272999999999996,0.06599999999999984 "></polygon><polygon points="0.20279999999999632,0.0924999999999998 0.2091999999999956,0.0924999999999998 0.2184000000000026,0.08779999999999988 0.22759999999999536,0.08679999999999999 0.2289999999999992,0.08799999999999986 0.23290000000000077,0.08729999999999993 0.23279999999999745,0.08579999999999988 0.23730000000000473,0.08679999999999999 0.23930000000000007,0.08549999999999991 0.23380000000000223,0.07669999999999999 0.223700000000008,0.07079999999999997 0.21590000000000487,0.07689999999999997 0.21340000000000714,0.08139999999999992 0.19790000000000418,0.0928 0.20279999999999632,0.0924999999999998 "></polygon><polygon points="0.23340000000000316,0.09079999999999999 0.2272999999999996,0.08799999999999986 0.21779999999999688,0.09029999999999982 0.21590000000000487,0.09419999999999984 0.2220000000000084,0.09799999999999986 0.22759999999999536,0.09799999999999986 0.23340000000000316,0.09079999999999999 "></polygon><polygon points="0.25379999999999825,0.27339999999999987 0.250700000000009,0.2771999999999999 0.25090000000000146,0.27969999999999984 0.24779999999999802,0.2838999999999998 0.25029999999999575,0.2832999999999999 0.2533999999999992,0.27969999999999984 0.257000000000005,0.27169999999999983 0.2553000000000054,0.2710999999999999 0.25379999999999825,0.27339999999999987 "></polygon><polygon points="0.4177999999999997,0.19829999999999992 0.42950000000000443,0.19079999999999986 0.42730000000000246,0.18689999999999984 0.4240000000000066,0.1875 0.42260000000000275,0.19219999999999993 0.42090000000000316,0.19079999999999986 0.4176000000000073,0.19219999999999993 0.4200000000000017,0.1892999999999998 0.4198999999999984,0.18679999999999986 0.4194999999999993,0.18359999999999999 0.41679999999999495,0.18169999999999997 0.41689999999999827,0.1792999999999998 0.41559999999999775,0.17859999999999987 0.40919999999999845,0.1814 0.4048000000000087,0.1782999999999999 0.4067000000000007,0.18609999999999993 0.40560000000000684,0.1871999999999998 0.40149999999999864,0.17579999999999996 0.3990000000000009,0.17389999999999994 0.3990000000000009,0.1710999999999998 0.39450000000000784,0.1641999999999999 0.393100000000004,0.1671999999999998 0.39509999999999934,0.1714 0.3936999999999955,0.17279999999999984 0.4012000000000029,0.1882999999999999 0.3995000000000033,0.1913999999999998 0.4031000000000091,0.1985999999999999 0.40449999999999875,0.19889999999999985 0.4048000000000087,0.19719999999999982 0.40149999999999864,0.1913999999999998 0.40340000000000487,0.1904999999999999 0.40510000000000446,0.1924999999999999 0.4076000000000022,0.18859999999999988 0.4123000000000019,0.1974999999999998 0.41450000000000387,0.1993999999999998 0.4177999999999997,0.19829999999999992 "></polygon><polygon points="0.34199999999999875,0.2346999999999999 0.3380999999999972,0.23859999999999992 0.33620000000000516,0.24139999999999984 0.3380999999999972,0.24139999999999984 0.3451000000000022,0.2327999999999999 0.34199999999999875,0.2346999999999999 "></polygon><polygon points="0.13049999999999784,0.25949999999999984 0.13049999999999784,0.25859999999999994 0.12839999999999918,0.2568999999999999 0.12879999999999825,0.26059999999999994 0.13049999999999784,0.25949999999999984 "></polygon><polygon points="0.07529999999999859,0.26749999999999985 0.07510000000000616,0.2682 0.07680000000000575,0.26859999999999995 0.07600000000000762,0.26729999999999987 0.07529999999999859,0.26749999999999985 "></polygon><polygon points="0.4502999999999986,0.2648999999999999 0.4626999999999981,0.26359999999999983 0.47050000000000125,0.25749999999999984 0.47450000000000614,0.2528999999999999 0.4759999999999991,0.2487999999999999 0.4741999999999962,0.24839999999999995 0.47450000000000614,0.24709999999999988 0.4767000000000081,0.2436999999999998 0.47390000000000043,0.24129999999999985 0.47390000000000043,0.23519999999999985 0.4703000000000088,0.22489999999999988 0.46699999999999875,0.2234999999999998 0.46110000000000184,0.22489999999999988 0.44830000000000325,0.21929999999999983 0.44650000000000034,0.2153999999999998 0.44119999999999493,0.21429999999999993 0.4314999999999998,0.2267999999999999 0.4322999999999979,0.22909999999999986 0.4288999999999987,0.2295999999999998 0.4275000000000091,0.2348999999999999 0.41920000000000357,0.24069999999999991 0.42199999999999704,0.2469999999999999 0.4188000000000045,0.24639999999999995 0.4187000000000012,0.24919999999999987 0.42210000000000036,0.24929999999999986 0.4194999999999993,0.25849999999999995 0.4211999999999989,0.25959999999999983 0.428600000000003,0.2587999999999999 0.43260000000000787,0.26129999999999987 0.433400000000006,0.2637999999999998 0.44310000000000116,0.26329999999999987 0.44590000000000884,0.26539999999999986 0.4502999999999986,0.2648999999999999 "></polygon><polygon points="0.3135000000000048,0.24659999999999993 0.3207000000000022,0.23859999999999992 0.3208000000000055,0.236 0.3171999999999997,0.23909999999999987 0.3149000000000086,0.23859999999999992 0.31440000000000623,0.24109999999999987 0.3066000000000031,0.24949999999999983 0.3135000000000048,0.24659999999999993 "></polygon><polygon points="0.3294999999999959,0.25959999999999983 0.3452000000000055,0.2538999999999998 0.34369999999999834,0.2528999999999999 0.3457000000000079,0.2510999999999999 0.3602999999999952,0.25319999999999987 0.36880000000000734,0.25139999999999985 0.38060000000000116,0.2517999999999998 0.38280000000000314,0.2489999999999999 0.38120000000000687,0.2448999999999999 0.38280000000000314,0.2417999999999998 0.3751000000000033,0.24039999999999995 0.3689999999999998,0.24149999999999983 0.36480000000000246,0.2399 0.36480000000000246,0.2375999999999998 0.362000000000009,0.2356999999999998 0.348700000000008,0.23349999999999982 0.34310000000000684,0.24039999999999995 0.34310000000000684,0.244 0.341700000000003,0.244 0.34029999999999916,0.24069999999999991 0.3392000000000053,0.24349999999999983 0.3301000000000016,0.24819999999999998 0.33200000000000784,0.25149999999999983 0.32869999999999777,0.24869999999999992 0.32620000000000005,0.24869999999999992 0.3247999999999962,0.2517999999999998 0.3212000000000046,0.2509999999999999 0.3166999999999973,0.2562 0.3242000000000047,0.26149999999999984 0.3281000000000063,0.2617999999999998 0.3294999999999959,0.25959999999999983 "></polygon><polygon points="0.4147999999999996,0.2535999999999998 0.41670000000000584,0.25249999999999995 0.4177999999999997,0.2488999999999999 0.4164999999999992,0.24609999999999999 0.41200000000000614,0.2457999999999998 0.4078000000000088,0.2488999999999999 0.4100999999999999,0.2571999999999999 0.4147999999999996,0.2535999999999998 "></polygon><polygon points="0.28119999999999834,0.258 0.2890000000000015,0.2522 0.2856000000000023,0.248 0.27479999999999905,0.2516999999999998 0.27939999999999543,0.25849999999999995 0.28119999999999834,0.258 "></polygon><polygon points="0.272199999999998,0.25139999999999985 0.2605000000000075,0.25939999999999985 0.26149999999999807,0.26259999999999994 0.2652000000000072,0.2651999999999999 0.2699000000000069,0.2651999999999999 0.27890000000000725,0.25939999999999985 0.272199999999998,0.25139999999999985 "></polygon>
    </svg>
    