
    <svg width="0.1395000000000053" height="0.06360000000000099" xmlns="http://www.w3.org/2000/svg" xmlns:xlink="http://www.w3.org/1999/xlink" style="transform: scale(1, -1)">
        <polygon points="0.13929999999999865,0.0 0.13929999999999865,0.00019999999999953388 0.1395000000000053,0.00019999999999953388 0.1395000000000053,0.0 0.13929999999999865,0.0 "></polygon><polygon points="0.12199999999999989,0.018799999999998818 0.12230000000000274,0.018000000000000682 0.12010000000000076,0.01640000000000086 0.11930000000000263,0.018000000000000682 0.12199999999999989,0.018799999999998818 "></polygon><polygon points="0.0058000000000006935,0.05409999999999826 0.023499999999998522,0.05320000000000036 0.04010000000000247,0.04649999999999821 0.047800000000002285,0.045700000000000074 0.060700000000004195,0.048799999999999955 0.06790000000000163,0.05630000000000024 0.07339999999999947,0.05829999999999913 0.07679999999999865,0.06269999999999953 0.08670000000000044,0.06360000000000099 0.10020000000000095,0.05549999999999855 0.10269999999999868,0.05740000000000123 0.11070000000000135,0.05409999999999826 0.11780000000000257,0.05620000000000047 0.12300000000000466,0.05249999999999844 0.12460000000000093,0.05379999999999896 0.12580000000000524,0.053300000000000125 0.12259999999999849,0.050499999999999545 0.12450000000000472,0.04499999999999815 0.12199999999999989,0.03999999999999915 0.11840000000000117,0.039400000000000546 0.11619999999999919,0.03359999999999985 0.11650000000000205,0.03219999999999956 0.12010000000000076,0.03219999999999956 0.11810000000000542,0.030000000000001137 0.11899999999999977,0.027999999999998693 0.11180000000000234,0.023299999999998988 0.11480000000000246,0.018599999999999284 0.11090000000000089,0.018299999999999983 0.11090000000000089,0.015499999999999403 0.10840000000000316,0.011900000000000688 0.1039999999999992,0.0113999999999983 0.10070000000000334,0.004699999999999704 0.09540000000000504,0.004400000000000404 0.09450000000000358,0.00999999999999801 0.09560000000000457,0.011600000000001387 0.09430000000000405,0.01249999999999929 0.09179999999999922,0.00829999999999842 0.09060000000000201,0.008900000000000574 0.09510000000000218,0.014399999999998414 0.09560000000000457,0.018799999999998818 0.09450000000000358,0.019400000000000972 0.09590000000000032,0.021599999999999397 0.09320000000000306,0.023299999999998988 0.08400000000000318,0.024699999999999278 0.08340000000000458,0.022500000000000853 0.08040000000000447,0.02049999999999841 0.08150000000000546,0.014099999999999113 0.08040000000000447,0.012199999999999989 0.07840000000000202,0.013300000000000978 0.07900000000000063,0.018000000000000682 0.07540000000000191,0.019400000000000972 0.069500000000005,0.015799999999998704 0.06370000000000431,0.021100000000000563 0.06009999999999849,0.017499999999998295 0.05870000000000175,0.01909999999999812 0.05930000000000035,0.022700000000000387 0.05649999999999977,0.024399999999999977 0.05089999999999861,0.024399999999999977 0.04760000000000275,0.022500000000000853 0.04619999999999891,0.02639999999999887 0.04260000000000019,0.027499999999999858 0.043400000000005434,0.030799999999999272 0.04619999999999891,0.03330000000000055 0.043199999999998795,0.03500000000000014 0.041200000000003456,0.03859999999999886 0.03370000000000317,0.04019999999999868 0.027599999999999625,0.039400000000000546 0.025900000000000034,0.03859999999999886 0.0251000000000019,0.0326999999999984 0.023400000000002308,0.03190000000000026 0.022600000000004172,0.03610000000000113 0.01839999999999975,0.03579999999999828 0.019000000000005457,0.039400000000000546 0.014000000000002899,0.04129999999999967 0.013100000000001444,0.04690000000000083 0.010899999999999466,0.046299999999998676 0.009300000000003195,0.04830000000000112 0.0040000000000048885,0.04889999999999972 0.0,0.05249999999999844 0.0058000000000006935,0.05409999999999826 "></polygon>
    </svg>
    