
    <svg width="7.750100000000003" height="4.370100000000001" xmlns="http://www.w3.org/2000/svg" xmlns:xlink="http://www.w3.org/1999/xlink" style="transform: scale(1, -1)">
        <polygon points="1.9232999999999976,0.4450000000000003 1.9057999999999993,0.4438000000000031 1.8887999999999892,0.4335000000000022 1.8739999999999952,0.43070000000000164 1.8719999999999999,0.426400000000001 1.8629999999999995,0.42379999999999995 1.8571999999999917,0.42600000000000193 1.8459000000000003,0.4375999999999962 1.8366999999999933,0.44259999999999877 1.8323999999999927,0.4519999999999982 1.8220999999999918,0.4602999999999966 1.7911000000000001,0.47469999999999857 1.7853999999999957,0.4754999999999967 1.737799999999993,0.5022999999999982 1.731899999999996,0.5041999999999973 1.7160999999999973,0.5240999999999971 1.700499999999991,0.5542999999999978 1.6891999999999996,0.5623000000000005 1.6580000000000013,0.576900000000002 1.6465999999999923,0.5844000000000023 1.6066000000000003,0.627600000000001 1.5925000000000011,0.6351000000000013 1.5882000000000005,0.6387999999999963 1.5857999999999919,0.6443999999999974 1.5810999999999922,0.648299999999999 1.5568999999999988,0.6554000000000002 1.5548000000000002,0.6550999999999974 1.5504999999999995,0.6507000000000005 1.5430999999999955,0.6494 1.537700000000001,0.6512999999999991 1.5207999999999942,0.6631 1.5150999999999897,0.6621999999999986 1.5095999999999918,0.6585999999999999 1.5078999999999922,0.6529999999999987 1.5138999999999925,0.6323000000000008 1.5189999999999912,0.6246999999999971 1.5250999999999948,0.6208000000000027 1.5341999999999985,0.6182999999999979 1.5396999999999963,0.6126000000000005 1.539900000000003,0.6071999999999989 1.5251999999999981,0.5968000000000018 1.517799999999994,0.5951999999999984 1.5095999999999918,0.5977999999999994 1.505200000000002,0.6009000000000029 1.4998999999999967,0.610599999999998 1.4829999999999899,0.6310000000000002 1.4553999999999974,0.6450999999999993 1.4472999999999985,0.6462000000000003 1.4354000000000013,0.6411999999999978 1.4268,0.6340000000000003 1.4227999999999952,0.6261999999999972 1.4210999999999956,0.6184000000000012 1.4268999999999892,0.6034999999999968 1.4318999999999988,0.5985000000000014 1.4428999999999945,0.5942999999999969 1.4480999999999966,0.5852000000000004 1.4466999999999928,0.5801000000000016 1.4398999999999944,0.5732999999999961 1.4351999999999947,0.5718999999999994 1.4283999999999963,0.570999999999998 1.4234000000000009,0.5722000000000023 1.4188999999999936,0.5747999999999962 1.4117999999999995,0.5825999999999993 1.4061999999999983,0.6066000000000003 1.401299999999992,0.613900000000001 1.392399999999995,0.6158999999999963 1.38539999999999,0.6146999999999991 1.3622000000000014,0.6056000000000026 1.3489999999999895,0.5962000000000032 1.3352000000000004,0.596899999999998 1.2997000000000014,0.6069000000000031 1.2926999999999964,0.6058000000000021 1.2878999999999934,0.6021000000000001 1.2860999999999905,0.5964999999999989 1.2886999999999915,0.589100000000002 1.2967000000000013,0.5784999999999982 1.2986999999999966,0.5707000000000022 1.2946000000000026,0.5662999999999982 1.289199999999994,0.5651999999999973 1.2760999999999996,0.5752999999999986 1.2708999999999975,0.5756000000000014 1.2667000000000002,0.572499999999998 1.2640999999999991,0.5681999999999974 1.2664999999999935,0.558799999999998 1.2640999999999991,0.5459999999999994 1.2608999999999924,0.5403999999999982 1.2556000000000012,0.5354000000000028 1.2399999999999949,0.5330000000000013 1.2257999999999925,0.5240999999999971 1.1775999999999982,0.5153999999999996 1.1654999999999944,0.5016999999999996 1.1512000000000029,0.4919000000000011 1.1353000000000009,0.49029999999999774 1.1221000000000032,0.4943000000000026 1.1084999999999923,0.4934999999999974 1.089100000000002,0.4754000000000005 1.0827000000000027,0.4737999999999971 1.059899999999999,0.4831999999999965 1.0515999999999934,0.4806999999999988 1.0388999999999982,0.4632999999999967 1.0379999999999967,0.4566999999999979 1.0341999999999985,0.4515000000000029 1.0213999999999999,0.44480000000000075 1.012599999999992,0.4311999999999969 1.003699999999995,0.4256999999999991 0.9823999999999984,0.4275999999999982 0.9682999999999993,0.43370000000000175 0.9577999999999918,0.4361999999999995 0.9376000000000033,0.4361999999999995 0.9181999999999988,0.4309999999999974 0.9086999999999961,0.42029999999999745 0.9012000000000029,0.4014000000000024 0.8996999999999957,0.39289999999999736 0.8999000000000024,0.3674999999999997 0.8943000000000012,0.34850000000000136 0.890900000000002,0.3434000000000026 0.8829999999999956,0.3376000000000019 0.8686000000000007,0.33440000000000225 0.8640999999999934,0.3352999999999966 0.852099999999993,0.339500000000001 0.830299999999994,0.35020000000000095 0.8229999999999933,0.3526999999999987 0.8177000000000021,0.3521000000000001 0.7789999999999964,0.33209999999999695 0.7612000000000023,0.3200000000000003 0.7552999999999912,0.3132000000000019 0.7439999999999998,0.31099999999999994 0.7295999999999907,0.303600000000003 0.7184999999999917,0.29460000000000264 0.7069999999999936,0.28000000000000114 0.6803000000000026,0.26850000000000307 0.6610000000000014,0.2650999999999968 0.6463999999999999,0.2593999999999994 0.6400000000000006,0.2582999999999984 0.6144999999999925,0.26890000000000214 0.6071999999999917,0.28349999999999653 0.6062999999999903,0.29290000000000305 0.5961999999999961,0.3066999999999993 0.5870000000000033,0.3106000000000009 0.5638000000000005,0.31569999999999965 0.546599999999998,0.321399999999997 0.5280999999999949,0.33330000000000126 0.5242999999999967,0.3369999999999962 0.5223999999999904,0.34309999999999974 0.5208999999999975,0.36549999999999727 0.5182999999999964,0.37769999999999726 0.5131999999999977,0.386099999999999 0.5087999999999937,0.38920000000000243 0.5030000000000001,0.3926000000000016 0.4958999999999918,0.39339999999999975 0.46809999999999263,0.3926000000000016 0.4433999999999969,0.39560000000000173 0.4129999999999967,0.40729999999999933 0.3996999999999957,0.4170999999999978 0.3977999999999895,0.42150000000000176 0.39869999999999095,0.4322999999999979 0.40500000000000114,0.45129999999999626 0.4057999999999993,0.48380000000000223 0.4094999999999942,0.49980000000000047 0.4035999999999973,0.5131000000000014 0.4183000000000021,0.5206999999999979 0.43370000000000175,0.5626999999999995 0.4393000000000029,0.5991 0.44589999999999463,0.6777999999999977 0.4402999999999935,0.7469999999999999 0.44129999999999825,0.7911999999999964 0.46689999999999543,0.857999999999997 0.49150000000000205,0.875 0.5013000000000005,0.8843999999999994 0.528899999999993,0.9262999999999977 0.5516999999999967,0.9682000000000031 0.6011999999999915,1.0193000000000012 0.6306999999999903,1.0360999999999976 0.6555999999999926,1.0645000000000024 0.7239999999999895,1.180500000000002 0.7416999999999945,1.2051999999999978 0.8292999999999893,1.217100000000002 0.8832000000000022,1.2372999999999976 0.890900000000002,1.2524999999999977 0.8887999999999892,1.2659999999999982 0.89909999999999,1.2849999999999966 0.8974999999999937,1.3119000000000014 0.9329999999999927,1.3650999999999982 0.9579999999999984,1.387599999999999 0.9752999999999901,1.3988000000000014 0.9827999999999975,1.4063999999999979 0.9859000000000009,1.4273999999999987 1.0150999999999897,1.5095000000000027 1.015500000000003,1.5229 0.9919999999999902,1.5482999999999976 0.9761999999999915,1.5709000000000017 0.9757999999999925,1.5773999999999972 0.9331999999999994,1.6203999999999965 0.9115999999999929,1.6323000000000008 0.8802999999999912,1.6443999999999974 0.8512999999999948,1.6525999999999996 0.8464999999999918,1.6565000000000012 0.8442999999999898,1.6661999999999964 0.8447000000000031,1.6796000000000006 0.8401999999999958,1.6931000000000012 0.8096000000000032,1.7340000000000018 0.7734999999999985,1.7498999999999967 0.7637,1.7500999999999962 0.7316999999999894,1.7391000000000005 0.7218999999999909,1.7393 0.7272999999999996,1.7565000000000026 0.7398000000000025,1.7697000000000003 0.7475000000000023,1.7811000000000021 0.7552999999999912,1.8001999999999967 0.7336999999999989,1.8138999999999967 0.6813999999999965,1.8686000000000007 0.6855999999999938,1.9375999999999962 0.6884000000000015,1.948999999999998 0.6885999999999939,1.958599999999997 0.6987000000000023,1.9680999999999997 0.6988999999999947,1.9756999999999962 0.6801999999999992,2.0086999999999975 0.6709999999999923,2.0337999999999994 0.6811000000000007,2.043199999999999 0.6984999999999957,2.054400000000001 0.7329000000000008,2.057699999999997 0.7406000000000006,2.069099999999999 0.6929999999999978,2.121699999999997 0.6858999999999895,2.1313999999999993 0.6935000000000002,2.1407999999999987 0.7475999999999914,2.1477000000000004 0.7698999999999927,2.1529999999999987 0.7826000000000022,2.168199999999999 0.7974999999999994,2.175600000000003 0.809899999999999,2.1792000000000016 0.8034999999999997,2.2158000000000015 0.8109999999999928,2.2194999999999965 0.8140999999999963,2.2404999999999973 0.8119999999999976,2.253999999999998 0.7539999999999907,2.2894999999999968 0.7471000000000032,2.306899999999999 0.7282000000000011,2.3378999999999976 0.7015999999999991,2.3517999999999972 0.6745999999999981,2.3541000000000025 0.6496999999999957,2.3449000000000026 0.6347999999999985,2.3374999999999986 0.6126999999999896,2.341700000000003 0.6006,2.349499999999999 0.5885999999999996,2.3611999999999966 0.5788000000000011,2.361399999999996 0.5563999999999965,2.3521 0.5416000000000025,2.3504000000000005 0.5120999999999896,2.350900000000003 0.4893999999999892,2.3282000000000025 0.457499999999996,2.330599999999997 0.428299999999993,2.3444000000000003 0.383899999999997,2.3412000000000006 0.3614999999999924,2.3290000000000006 0.3481000000000023,2.3329999999999984 0.3282999999999987,2.327599999999997 0.3135999999999939,2.332500000000003 0.2967999999999904,2.350999999999999 0.2937999999999903,2.3855999999999966 0.2843999999999909,2.406799999999997 0.2890000000000015,2.448900000000002 0.296599999999998,2.4574 0.2967999999999904,2.4669999999999987 0.2907999999999902,2.471899999999998 0.256299999999996,2.473300000000002 0.24399999999999977,2.4772999999999996 0.22979999999999734,2.5052999999999983 0.20779999999999177,2.5131999999999977 0.18439999999999657,2.5163999999999973 0.16219999999999857,2.5127999999999986 0.1448999999999927,2.512999999999998 0.12649999999999295,2.5180000000000007 0.11310000000000286,2.5249000000000024 0.07500000000000284,2.531100000000002 0.054199999999994475,2.539999999999999 0.03839999999999577,2.552599999999998 0.008299999999991314,2.593200000000003 0.0,2.6152999999999977 0.00019999999999242846,2.6229999999999976 0.005200000000002092,2.6276999999999973 0.07719999999999061,2.647100000000002 0.0981999999999914,2.6507000000000005 0.13269999999999982,2.6454999999999984 0.1366000000000014,2.653100000000002 0.13190000000000168,2.6666000000000025 0.11149999999999238,2.699399999999997 0.09369999999999834,2.7379999999999995 0.050499999999999545,2.8104000000000013 0.03839999999999577,2.8248999999999995 0.03879999999999484,2.846899999999998 0.04649999999999466,2.860199999999999 0.05639999999999645,2.862000000000002 0.09829999999999472,2.8530000000000015 0.10450000000000159,2.852899999999998 0.11339999999999861,2.861399999999996 0.10889999999999134,2.888300000000001 0.1115999999999957,2.899799999999999 0.19759999999999422,2.924599999999998 0.22860000000000014,2.9251999999999967 0.24110000000000298,2.927900000000001 0.26139999999999475,2.9536000000000016 0.2751999999999981,2.9609999999999985 0.2989000000000033,2.967500000000001 0.31040000000000134,2.9797999999999973 0.3178999999999945,2.984499999999997 0.3265999999999991,2.9842999999999975 0.3684999999999974,2.970399999999998 0.3733999999999895,2.9703000000000017 0.39459999999999695,2.9757999999999996 0.40970000000000084,2.982300000000002 0.4194999999999993,2.9782999999999973 0.46240000000000236,2.9547000000000025 0.49209999999999354,2.9532999999999987 0.5127999999999986,2.938600000000001 0.5533999999999963,2.924599999999998 0.5731999999999999,2.9262000000000015 0.6029999999999944,2.9247999999999976 0.6225999999999914,2.9187999999999974 0.6462999999999965,2.9044999999999987 0.6593000000000018,2.902000000000001 0.6829999999999927,2.9033999999999978 0.6989999999999981,2.9003000000000014 0.7197999999999922,2.8922999999999988 0.7680999999999898,2.8896000000000015 0.7841999999999985,2.8911999999999978 0.7964999999999947,2.8872 0.8062999999999931,2.881300000000003 0.8222999999999985,2.879100000000001 0.8422999999999945,2.883499999999998 0.8695999999999913,2.8858999999999995 0.9078999999999979,2.882399999999997 0.9386999999999972,2.8770000000000024 0.9496999999999929,2.8729999999999976 0.966700000000003,2.860199999999999 0.9752999999999901,2.8581999999999965 1.0153999999999996,2.8718000000000004 1.079499999999996,2.863900000000001 1.1043999999999983,2.8682000000000016 1.1277999999999935,2.862000000000002 1.1454999999999984,2.8740999999999985 1.1522999999999968,2.8911999999999978 1.1567999999999898,2.9170000000000016 1.1706999999999965,2.9224999999999994 1.1884000000000015,2.9337000000000018 1.2394999999999925,2.9786 1.2454999999999927,3.0073000000000008 1.2047999999999917,3.052199999999999 1.1988999999999947,3.062899999999999 1.207899999999995,3.071300000000001 1.2215999999999951,3.0720000000000027 1.2353999999999985,3.076500000000003 1.2419999999999902,3.0859000000000023 1.247399999999999,3.1011999999999986 1.2578999999999922,3.1152999999999977 1.264799999999994,3.1372 1.261499999999998,3.1469000000000023 1.2582999999999913,3.1651999999999987 1.2603000000000009,3.1843000000000004 1.2738999999999976,3.1839999999999975 1.2862999999999971,3.1818000000000026 1.2972999999999928,3.1768 1.3126000000000033,3.1880000000000024 1.3290999999999968,3.1972000000000023 1.3389999999999986,3.1950999999999965 1.3558999999999912,3.180399999999999 1.3626000000000005,3.1591000000000022 1.3747999999999934,3.1522000000000006 1.3847999999999985,3.1539 1.3898999999999972,3.157600000000002 1.3926000000000016,3.1642999999999972 1.3957999999999942,3.1813999999999965 1.4021999999999935,3.1880000000000024 1.4221999999999895,3.1914000000000016 1.4298999999999893,3.195999999999998 1.4377999999999957,3.209299999999999 1.4369999999999976,3.220799999999997 1.4194999999999993,3.2528000000000006 1.3970999999999947,3.285899999999998 1.3952000000000027,3.3040999999999983 1.3979999999999961,3.3108000000000004 1.4080999999999904,3.314399999999999 1.416799999999995,3.313200000000002 1.4324000000000012,3.298499999999997 1.4512,3.267400000000002 1.46159999999999,3.245199999999997 1.4629999999999939,3.2154000000000025 1.4761000000000024,3.199799999999996 1.4895999999999958,3.1946999999999974 1.5069999999999908,3.1961999999999975 1.5223999999999904,3.2083999999999975 1.526600000000002,3.2197999999999993 1.5257999999999896,3.232199999999999 1.5140999999999991,3.250700000000002 1.4575999999999993,3.304699999999997 1.425299999999993,3.3278999999999996 1.4244999999999948,3.332900000000002 1.4333999999999918,3.3552999999999997 1.432299999999998,3.3658999999999963 1.4249999999999972,3.3729000000000013 1.4119000000000028,3.3813999999999993 1.4043999999999954,3.390900000000002 1.4050000000000011,3.399700000000003 1.4102000000000032,3.4044000000000025 1.4228999999999985,3.4076999999999984 1.436799999999991,3.406100000000002 1.452699999999993,3.3877999999999986 1.4590999999999923,3.3663000000000025 1.4690999999999974,3.362000000000002 1.47229999999999,3.363999999999997 1.4761999999999915,3.373599999999996 1.4769999999999897,3.3811999999999998 1.4876000000000005,3.3887 1.502299999999991,3.3958999999999975 1.5349999999999966,3.401699999999998 1.5512999999999977,3.4020999999999972 1.5707999999999913,3.4020999999999972 1.6039999999999992,3.396099999999997 1.6200999999999937,3.397100000000002 1.6270999999999987,3.4080999999999975 1.6259999999999906,3.418700000000001 1.6173000000000002,3.447499999999998 1.6084999999999923,3.4688000000000017 1.5902999999999992,3.479599999999998 1.5219999999999914,3.477800000000002 1.4857999999999976,3.4742999999999995 1.4115999999999929,3.4594999999999985 1.3849000000000018,3.4502999999999986 1.3228000000000009,3.4369000000000014 1.2944999999999993,3.427599999999998 1.2480999999999938,3.4202000000000012 1.2212999999999994,3.419699999999999 1.1646999999999963,3.445300000000003 1.14609999999999,3.458500000000001 1.1512000000000029,3.468499999999999 1.2138999999999953,3.4825000000000017 1.2156999999999982,3.484899999999996 1.2346000000000004,3.4861000000000004 1.2732000000000028,3.4949999999999974 1.3670999999999935,3.5182 1.3881999999999977,3.525599999999997 1.4240999999999957,3.516599999999997 1.4398999999999944,3.514499999999998 1.4677999999999969,3.520000000000003 1.488900000000001,3.528799999999997 1.4971999999999923,3.5349999999999966 1.539599999999993,3.5426 1.6123999999999938,3.548400000000001 1.667900000000003,3.548099999999998 1.6987999999999914,3.5405999999999977 1.7215999999999951,3.5407999999999973 1.7471000000000032,3.5386000000000024 1.7608999999999924,3.5394000000000005 1.7834999999999894,3.533299999999997 1.8070000000000022,3.534700000000001 1.8237000000000023,3.538800000000002 1.8519999999999897,3.533700000000003 1.8943999999999903,3.5330999999999975 1.9185999999999979,3.5227999999999966 1.929000000000002,3.5294999999999987 1.9213000000000022,3.541499999999999 1.9107999999999947,3.564700000000002 1.902000000000001,3.5715999999999966 1.8721999999999923,3.5760999999999967 1.8632999999999953,3.5831000000000017 1.868399999999994,3.5970999999999975 1.8609000000000009,3.6066999999999965 1.8648000000000025,3.616900000000001 1.8729000000000013,3.6173999999999964 1.8829999999999956,3.6141999999999967 1.9026999999999958,3.6128999999999962 1.9205999999999932,3.613999999999997 1.9448999999999899,3.631599999999999 1.9449999999999932,3.6465999999999994 1.952299999999994,3.6557999999999993 1.9518999999999949,3.6758000000000024 1.9292999999999978,3.6895000000000024 1.9202999999999975,3.6976999999999975 1.9204999999999899,3.7113999999999976 1.9142999999999972,3.724800000000002 1.9054999999999893,3.7304999999999993 1.9106999999999914,3.7445999999999984 1.9004999999999939,3.747700000000002 1.8966999999999956,3.7537999999999982 1.893500000000003,3.7685999999999993 1.8872999999999962,3.7819999999999965 1.8781999999999925,3.7901999999999987 1.8785000000000025,3.8038999999999987 1.8859999999999957,3.810600000000001 1.8867999999999938,3.823299999999996 1.8725999999999914,3.8327000000000027 1.843599999999995,3.863199999999999 1.8421999999999912,3.8686000000000007 1.8442999999999898,3.875399999999999 1.8481000000000023,3.8791999999999973 1.8654999999999973,3.8892999999999986 1.8819000000000017,3.8967000000000027 1.921199999999999,3.900599999999997 1.940100000000001,3.8977000000000004 1.9465999999999894,3.899000000000001 1.9521999999999906,3.9033999999999978 1.9515999999999991,3.906399999999998 1.9602999999999895,3.918700000000001 1.9706999999999937,3.9224999999999994 1.9762999999999948,3.943399999999997 1.964100000000002,3.9635999999999996 1.9565999999999946,3.982199999999999 1.9612999999999943,4.039999999999999 1.9625999999999948,4.0452999999999975 1.9697999999999922,4.051699999999997 1.9695999999999998,4.056899999999999 1.9740999999999929,4.067300000000003 1.9997999999999934,4.092700000000001 2.0138999999999925,4.109899999999996 2.0208999999999975,4.111899999999999 2.0493999999999915,4.113199999999999 2.0638000000000005,4.107700000000001 2.1184999999999974,4.096200000000003 2.144599999999997,4.093600000000002 2.1563999999999908,4.0859999999999985 2.1607999999999947,4.081400000000002 2.1791999999999945,4.053199999999997 2.184600000000003,4.0336 2.1965999999999894,4.020699999999998 2.223799999999997,4.005800000000001 2.2317999999999927,3.9964000000000013 2.2394999999999925,3.9913000000000025 2.2543999999999897,3.9894999999999996 2.2630999999999943,3.9861000000000004 2.272199999999998,3.9709000000000003 2.274000000000001,3.9645999999999972 2.2805999999999926,3.957799999999999 2.2948999999999984,3.9553999999999974 2.329899999999995,3.957099999999997 2.3500999999999976,3.966799999999999 2.361699999999999,3.9827999999999975 2.380499999999998,4.0167 2.3900999999999897,4.023299999999999 2.3970999999999947,4.025999999999996 2.4054999999999893,4.0268000000000015 2.436399999999992,4.020099999999999 2.442999999999998,4.020699999999998 2.4632999999999896,4.037199999999999 2.4775999999999954,4.0452999999999975 2.4872999999999905,4.048000000000002 2.49669999999999,4.048200000000001 2.531099999999995,4.0319999999999965 2.5356000000000023,4.031799999999997 2.5611999999999995,4.050199999999997 2.577699999999993,4.058300000000003 2.6214999999999975,4.063099999999999 2.627600000000001,4.066400000000002 2.639399999999995,4.069000000000003 2.662300000000002,4.0837999999999965 2.6931999999999903,4.0931 2.7445999999999913,4.1312 2.7513000000000005,4.138300000000001 2.75739999999999,4.1526 2.761499999999998,4.157800000000002 2.76809999999999,4.162199999999999 2.7809000000000026,4.1640000000000015 2.788499999999999,4.162999999999997 2.8031999999999897,4.157200000000003 2.8277999999999963,4.154200000000003 2.859499999999997,4.169600000000003 2.8785999999999916,4.176000000000002 2.8840000000000003,4.179899999999996 2.894199999999998,4.192700000000002 2.9003999999999905,4.194299999999998 2.9095999999999975,4.200200000000002 2.9151999999999987,4.2014 2.929699999999997,4.2089 2.9440999999999917,4.2102 2.95559999999999,4.209400000000002 2.970399999999998,4.2132000000000005 2.9783999999999935,4.219099999999997 2.9894999999999925,4.235599999999998 2.989699999999999,4.241500000000002 2.983400000000003,4.256799999999998 2.986699999999999,4.268700000000003 2.9924999999999926,4.271900000000002 3.0013999999999896,4.2821 3.001899999999992,4.294499999999999 3.0083999999999946,4.303199999999997 3.0023999999999944,4.324199999999998 3.002600000000001,4.328800000000001 3.0176000000000016,4.3414 3.021500000000003,4.351700000000001 3.025599999999997,4.3566999999999965 3.0334000000000003,4.361600000000003 3.0533999999999963,4.369100000000003 3.0614999999999952,4.370100000000001 3.0867999999999967,4.3652000000000015 3.093599999999995,4.366399999999999 3.1093999999999937,4.3598 3.1113,4.353400000000001 3.1152000000000015,4.348599999999998 3.1289999999999907,4.338900000000002 3.138999999999996,4.334000000000003 3.140500000000003,4.323900000000002 3.1474999999999937,4.32 3.166499999999999,4.300399999999996 3.18119999999999,4.3001000000000005 3.1931999999999903,4.2776 3.214999999999989,4.256999999999998 3.2235000000000014,4.242399999999996 3.247399999999999,4.2154000000000025 3.252299999999991,4.205799999999996 3.254499999999993,4.2047000000000025 3.2541999999999973,4.2021000000000015 3.2573000000000008,4.196100000000001 3.2631999999999977,4.195999999999998 3.2657999999999987,4.189999999999998 3.2783999999999907,4.183300000000003 3.286699999999996,4.176299999999998 3.2989000000000033,4.153799999999997 3.3168999999999897,4.148699999999998 3.3282999999999987,4.140900000000002 3.3348999999999904,4.132199999999997 3.3440999999999974,4.124699999999997 3.3336999999999932,4.118499999999997 3.3299999999999983,4.119999999999997 3.3237000000000023,4.116999999999997 3.3252999999999986,4.111699999999999 3.3211999999999904,4.106999999999999 3.3130999999999915,4.1053 3.3007999999999953,4.1092999999999975 3.2904999999999944,4.129300000000001 3.282499999999999,4.108899999999998 3.283299999999997,4.097200000000001 3.2901999999999987,4.086599999999997 3.3079999999999927,4.090499999999999 3.3345999999999947,4.088900000000002 3.3530999999999977,4.081499999999998 3.3470999999999975,4.078600000000002 3.366500000000002,4.0779 3.375799999999998,4.074199999999998 3.3917999999999893,4.064700000000002 3.397599999999997,4.060200000000002 3.4025999999999925,4.052999999999997 3.4010999999999996,4.047699999999999 3.3884999999999934,4.039099999999998 3.381999999999991,4.022500000000001 3.3725999999999914,4.012999999999998 3.3583,4.012299999999996 3.352099999999993,4.016500000000001 3.345399999999998,4.012700000000002 3.3492999999999995,3.9964999999999975 3.348399999999998,3.985500000000002 3.341399999999993,3.985999999999997 3.3327000000000027,3.9906000000000006 3.311799999999991,3.987000000000002 3.302899999999994,3.9787999999999997 3.293999999999997,3.977499999999999 3.29079999999999,3.9727999999999994 3.279600000000002,3.969999999999999 3.2650999999999897,3.9579999999999984 3.2509000000000015,3.9549999999999983 3.2432000000000016,3.9487999999999985 3.2190999999999974,3.9121000000000024 3.2002999999999986,3.893900000000002 3.190899999999999,3.8911999999999978 3.1753999999999962,3.890900000000002 3.1650999999999954,3.884999999999998 3.148399999999995,3.886099999999999 3.1357,3.8847999999999985 3.1269999999999953,3.8811999999999998 3.1226999999999947,3.874600000000001 3.119799999999998,3.859899999999996 3.110199999999992,3.8526000000000025 3.107699999999994,3.8393000000000015 3.0974999999999966,3.8324 3.0801999999999907,3.832500000000003 3.035899999999998,3.820599999999999 3.012199999999993,3.811099999999996 2.9861999999999966,3.8074000000000012 2.9646999999999935,3.7941000000000003 2.947099999999992,3.7905000000000015 2.9444000000000017,3.7871999999999986 2.945599999999999,3.7770999999999972 2.9577000000000027,3.757399999999997 2.9654000000000025,3.7479000000000013 2.9684999999999917,3.735599999999998 2.9745999999999952,3.7340000000000018 2.9809999999999945,3.7287999999999997 2.990799999999993,3.710499999999996 2.9980999999999938,3.7043999999999997 3.0079999999999956,3.7010000000000005 3.0172999999999917,3.700400000000002 3.0367999999999995,3.707500000000003 3.043700000000001,3.707500000000003 3.05919999999999,3.7038999999999973 3.06519999999999,3.700800000000001 3.1004999999999967,3.6953999999999994 3.1633999999999958,3.6738 3.1794999999999902,3.662799999999997 3.184600000000003,3.6535999999999973 3.1814999999999998,3.639099999999999 3.1894999999999953,3.623899999999999 3.193399999999997,3.6101000000000028 3.1854000000000013,3.5936999999999983 3.183899999999994,3.5726000000000013 3.1811000000000007,3.570700000000002 3.1925999999999988,3.555100000000003 3.2079999999999984,3.5486999999999966 3.214999999999989,3.5341000000000022 3.2223999999999933,3.526600000000002 3.2309999999999945,3.510799999999996 3.2404999999999973,3.498599999999996 3.2494999999999976,3.494399999999999 3.258499999999998,3.492899999999999 3.2908999999999935,3.498800000000003 3.3225999999999942,3.5024000000000015 3.326299999999989,3.504399999999997 3.3566000000000003,3.506300000000003 3.3832999999999913,3.511800000000001 3.3907999999999987,3.511800000000001 3.4440999999999917,3.530000000000001 3.4808999999999912,3.5508999999999986 3.486699999999999,3.549500000000002 3.5105999999999966,3.5538999999999987 3.5289999999999964,3.5553000000000026 3.5805000000000007,3.5563999999999965 3.5925999999999902,3.549999999999997 3.596599999999995,3.5435000000000016 3.597200000000001,3.5381 3.59429999999999,3.5279000000000025 3.593999999999994,3.514800000000001 3.5908999999999907,3.5127000000000024 3.5840999999999923,3.4924999999999997 3.5755999999999943,3.485999999999997 3.5685000000000002,3.4848 3.5671999999999997,3.4829000000000008 3.542999999999992,3.4780999999999977 3.5326999999999913,3.472699999999996 3.5232000000000028,3.4720999999999975 3.4735999999999905,3.4915999999999983 3.454899999999995,3.4943000000000026 3.4453999999999922,3.4932000000000016 3.43719999999999,3.4876000000000005 3.4279999999999973,3.4557 3.4214999999999947,3.4467 3.4037000000000006,3.4361999999999995 3.390199999999993,3.425600000000003 3.3718999999999966,3.4177999999999997 3.333199999999991,3.4142999999999972 3.2946000000000026,3.415999999999997 3.2797999999999945,3.4110000000000014 3.272199999999998,3.404299999999999 3.2672999999999917,3.3939999999999984 3.2676999999999907,3.3881000000000014 3.273399999999995,3.3881999999999977 3.2753999999999905,3.3658 3.272599999999997,3.357999999999997 3.2775999999999925,3.3461 3.272999999999996,3.3410999999999973 3.257099999999994,3.3125 3.25739999999999,3.3057000000000016 3.2513000000000005,3.3004999999999995 3.2376000000000005,3.2988 3.1884000000000015,3.2712999999999965 3.1803000000000026,3.270699999999998 3.1717999999999904,3.265099999999997 3.165399999999991,3.2631999999999977 3.161199999999994,3.268799999999999 3.1373999999999995,3.267000000000003 3.137500000000003,3.2646999999999977 3.1293000000000006,3.2597000000000023 3.125799999999998,3.250399999999999 3.130499999999998,3.243000000000002 3.146000000000001,3.2299000000000007 3.1462999999999965,3.225299999999997 3.1422000000000025,3.2235999999999976 3.1062999999999903,3.2539000000000016 3.0944999999999965,3.253 3.075400000000002,3.2663999999999973 3.0692999999999984,3.275500000000001 3.079899999999995,3.2866 3.0938000000000017,3.2976000000000028 3.1259000000000015,3.3078999999999965 3.1573999999999955,3.3278999999999996 3.1625999999999976,3.335099999999997 3.1779999999999973,3.3485999999999976 3.1773000000000025,3.3526000000000025 3.1668999999999983,3.3530000000000015 3.166399999999996,3.3581000000000003 3.1598999999999933,3.3596000000000004 3.1561999999999983,3.357599999999998 3.154699999999991,3.3586000000000027 3.1593000000000018,3.364699999999999 3.1567000000000007,3.368699999999997 3.136499999999998,3.3793000000000006 3.118399999999994,3.381999999999998 3.1137999999999977,3.3840999999999966 3.0427999999999997,3.3907999999999987 3.0297999999999945,3.3933999999999997 3.0148999999999972,3.400599999999997 3.0019999999999953,3.4176 2.977499999999992,3.419699999999999 2.9628999999999905,3.423899999999996 2.9483999999999924,3.4376999999999995 2.9388000000000005,3.4429000000000016 2.912399999999991,3.4527 2.8817999999999984,3.459600000000002 2.8593999999999937,3.4560999999999993 2.828099999999992,3.4562000000000026 2.8144999999999953,3.4613000000000014 2.8087000000000018,3.4679 2.7807999999999993,3.482199999999999 2.7683999999999997,3.4848 2.7565000000000026,3.489699999999999 2.6912999999999982,3.5315999999999974 2.6718999999999937,3.5401999999999987 2.6543999999999954,3.5397999999999996 2.6398999999999972,3.5446000000000026 2.6233000000000004,3.5450000000000017 2.6089999999999947,3.549900000000001 2.5900999999999925,3.5456999999999965 2.5716999999999928,3.535800000000002 2.554699999999997,3.5317000000000007 2.540999999999997,3.525100000000002 2.518799999999999,3.5185999999999993 2.5148999999999972,3.5153999999999996 2.4609999999999985,3.4994999999999976 2.4418999999999897,3.4923999999999964 2.414999999999992,3.486699999999999 2.384599999999992,3.474899999999998 2.3789999999999907,3.4709000000000003 2.3606999999999942,3.4656999999999982 2.3141999999999996,3.4442999999999984 2.306299999999993,3.4427999999999983 2.289900000000003,3.4429000000000016 2.2604999999999933,3.4450000000000003 2.2276999999999987,3.437599999999996 2.1950999999999965,3.4324999999999974 2.1753999999999962,3.4316999999999993 2.138799999999989,3.417900000000003 2.1329999999999956,3.412799999999997 2.1303999999999945,3.405299999999997 2.1263000000000005,3.3847000000000023 2.1280999999999892,3.380499999999998 2.123599999999996,3.373800000000003 2.1199999999999903,3.361699999999999 2.121399999999994,3.356099999999998 2.143799999999999,3.3222000000000023 2.138999999999996,3.297399999999996 2.1477000000000004,3.2712999999999965 2.146000000000001,3.260799999999996 2.117999999999995,3.248199999999997 2.090999999999994,3.2287999999999997 2.079499999999996,3.2242999999999995 2.0634000000000015,3.2246999999999986 2.038899999999998,3.2340000000000018 2.0334000000000003,3.2513999999999967 2.0283999999999907,3.2783999999999978 2.005899999999997,3.3038999999999987 1.994799999999998,3.3278999999999996 1.966399999999993,3.3278999999999996 1.968599999999995,3.305799999999998 1.9568999999999903,3.265900000000002 1.9414999999999907,3.2269999999999968 1.9209000000000032,3.211199999999998 1.9161000000000001,3.186399999999999 1.915300000000002,3.1691999999999965 1.9097000000000008,3.1539999999999964 1.892799999999994,3.130899999999997 1.8954999999999984,3.1263999999999967 1.8926000000000016,3.1088999999999984 1.9025999999999925,3.076500000000003 1.9142999999999972,3.0589999999999975 1.9331999999999994,3.037399999999998 1.939799999999991,3.0180000000000007 1.9337000000000018,2.990400000000001 1.9369999999999976,2.982599999999998 1.944199999999995,2.976700000000001 1.9457999999999913,2.955599999999997 1.9517999999999915,2.9506000000000014 1.9539999999999935,2.943800000000003 1.9535999999999945,2.9343000000000004 1.9555999999999898,2.9236999999999966 1.9714000000000027,2.917499999999997 1.953099999999992,2.8671000000000006 1.9780999999999977,2.8444000000000003 1.9868000000000023,2.8442000000000007 1.9969999999999999,2.8515999999999977 2.011799999999994,2.8770999999999987 2.015599999999992,2.8798999999999992 2.0230999999999995,2.8796999999999997 2.027499999999989,2.8689999999999998 2.0408999999999935,2.862000000000002 2.061700000000002,2.8566000000000003 2.078000000000003,2.8618999999999986 2.0925999999999902,2.855800000000002 2.096199999999996,2.852800000000002 2.1176999999999992,2.8626999999999967 2.133899999999997,2.8652000000000015 2.1503999999999905,2.872399999999999 2.158999999999992,2.8712000000000018 2.1768,2.8802999999999983 2.191599999999994,2.8798999999999992 2.207499999999996,2.9014999999999986 2.2390999999999934,2.9131 2.270799999999994,2.903500000000001 2.286999999999992,2.9039999999999964 2.308799999999991,2.918700000000001 2.325000000000003,2.921199999999999 2.3434999999999917,2.918700000000001 2.363100000000003,2.9132999999999996 2.371399999999994,2.906399999999998 2.4057999999999993,2.900599999999997 2.4240999999999957,2.8932999999999964 2.467399999999998,2.8671000000000006 2.4718000000000018,2.855400000000003 2.47529999999999,2.8515000000000015 2.4801999999999964,2.851300000000002 2.5009000000000015,2.868000000000002 2.5120000000000005,2.8795999999999964 2.516599999999997,2.897199999999998 2.5230999999999995,2.9018000000000015 2.5448999999999984,2.905000000000001 2.578099999999992,2.8995999999999995 2.594399999999993,2.889499999999998 2.6004999999999967,2.8800000000000026 2.611699999999999,2.878700000000002 2.620199999999997,2.8795 2.62769999999999,2.882100000000001 2.6407999999999987,2.892400000000002 2.6458999999999975,2.9065999999999974 2.649000000000001,2.9102999999999994 2.6642999999999972,2.9069999999999965 2.6731999999999942,2.901200000000003 2.7023999999999972,2.918700000000001 2.717100000000002,2.930100000000003 2.7338000000000022,2.923400000000001 2.7577,2.9031999999999982 2.7716999999999956,2.898299999999999 2.7823999999999955,2.8973999999999975 2.8087000000000018,2.9055999999999997 2.810999999999993,2.9176 2.8188999999999993,2.924999999999997 2.824399999999997,2.924900000000001 2.83059999999999,2.9033000000000015 2.8404999999999916,2.8967000000000027 2.844399999999993,2.890099999999997 2.853899999999996,2.886000000000003 2.8755999999999915,2.863199999999999 2.8857,2.8551999999999964 2.8966999999999956,2.8534000000000006 2.9174000000000007,2.857999999999997 2.9303000000000026,2.865699999999997 2.9425999999999988,2.8748999999999967 2.9767999999999972,2.9106000000000023 2.9878999999999962,2.9189000000000007 3.002299999999991,2.9221999999999966 3.0109999999999957,2.922399999999996 3.0300999999999902,2.918300000000002 3.0345999999999975,2.922399999999996 3.0375999999999976,2.9318000000000026 3.0486999999999966,2.9390999999999963 3.065899999999999,2.9251000000000005 3.079099999999997,2.9303000000000026 3.0863999999999976,2.938600000000001 3.0947999999999922,2.944499999999998 3.105400000000003,2.947899999999997 3.1203999999999894,2.947800000000001 3.136899999999997,2.960499999999996 3.1487999999999943,2.950000000000003 3.1577999999999946,2.9461999999999975 3.1717999999999904,2.933 3.183099999999996,2.931600000000003 3.1982,2.9258999999999986 3.2368999999999915,2.9251000000000005 3.2523999999999944,2.920900000000003 3.269300000000001,2.9084000000000003 3.2867999999999995,2.883499999999998 3.290300000000002,2.8706999999999994 3.315799999999996,2.8352000000000004 3.3584999999999923,2.8149000000000015 3.367199999999997,2.805500000000002 3.374299999999991,2.790399999999998 3.375799999999998,2.7543000000000006 3.3789999999999907,2.7464999999999975 3.380899999999997,2.7272999999999996 3.3862000000000023,2.722299999999997 3.401299999999992,2.717399999999998 3.4284999999999997,2.716299999999997 3.480800000000002,2.7211 3.4928999999999917,2.716799999999999 3.504800000000003,2.709600000000002 3.5253000000000014,2.711199999999998 3.5349999999999966,2.7179999999999964 3.5478999999999985,2.7348 3.54849999999999,2.754399999999997 3.5538999999999987,2.761400000000002 3.5638999999999896,2.762500000000003 3.5722999999999985,2.7582999999999984 3.5874000000000024,2.742899999999999 3.6063999999999936,2.731099999999998 3.644199999999998,2.7319999999999993 3.679000000000002,2.7421000000000006 3.6854999999999905,2.7475999999999985 3.693799999999996,2.7601999999999975 3.6906999999999925,2.7982999999999976 3.693799999999996,2.808799999999998 3.7025999999999897,2.8271000000000015 3.7124000000000024,2.8344000000000023 3.7256,2.838099999999997 3.7404999999999973,2.8384999999999962 3.782499999999999,2.8354 3.806299999999993,2.839199999999998 3.818399999999997,2.8444999999999965 3.8525999999999954,2.8637000000000015 3.8569999999999993,2.873100000000001 3.866100000000003,2.8798999999999992 3.8714999999999975,2.876800000000003 3.8907999999999987,2.8511000000000024 3.8996999999999957,2.8459000000000003 3.9084000000000003,2.8459999999999965 3.92049999999999,2.851300000000002 3.9418000000000006,2.8714999999999975 3.947400000000002,2.8798999999999992 3.9484999999999957,2.8965999999999994 3.9675999999999902,2.903500000000001 3.9739000000000004,2.904200000000003 4.005200000000002,2.8999999999999986 4.027499999999989,2.899099999999997 4.048400000000001,2.9054 4.072999999999993,2.9191999999999965 4.091499999999996,2.935699999999997 4.1006,2.9405999999999963 4.111800000000002,2.941499999999998 4.1388999999999925,2.9303000000000026 4.163899999999998,2.915300000000002 4.1728999999999985,2.9024 4.174199999999999,2.8855000000000004 4.1708,2.873199999999997 4.160600000000002,2.8607000000000014 4.156399999999991,2.8459999999999965 4.156700000000001,2.8329999999999984 4.165499999999994,2.8004999999999995 4.175299999999993,2.7828000000000017 4.189799999999991,2.7768999999999977 4.225999999999999,2.7729 4.2393,2.7680000000000007 4.2535000000000025,2.767800000000001 4.28779999999999,2.778799999999997 4.319800000000001,2.783999999999999 4.343199999999996,2.782499999999999 4.361999999999995,2.7849999999999966 4.3736999999999995,2.7845000000000013 4.3994,2.7712999999999965 4.410600000000002,2.7563999999999993 4.416699999999992,2.730699999999999 4.413199999999989,2.7087000000000003 4.409099999999995,2.7032000000000025 4.386099999999999,2.694600000000001 4.370099999999994,2.6784999999999997 4.365600000000001,2.6518999999999977 4.373800000000003,2.6385000000000005 4.393000000000001,2.6141000000000005 4.403499999999994,2.6060000000000016 4.414900000000003,2.6015999999999977 4.431100000000001,2.602800000000002 4.448899999999995,2.6096000000000004 4.4589,2.6111000000000004 4.492199999999997,2.609099999999998 4.512699999999995,2.6032999999999973 4.524000000000001,2.6051999999999964 4.531700000000001,2.6081999999999965 4.544399999999996,2.6291999999999973 4.55749999999999,2.6458999999999975 4.570899999999995,2.6591999999999985 4.584099999999992,2.662399999999998 4.608099999999993,2.675699999999999 4.625,2.678699999999999 4.6484999999999985,2.6944000000000017 4.655799999999999,2.6925999999999988 4.663499999999999,2.687899999999999 4.671499999999995,2.6798 4.678399999999996,2.650199999999998 4.6906999999999925,2.632800000000003 4.698399999999992,2.613199999999999 4.704799999999992,2.6051999999999964 4.714199999999991,2.6017999999999972 4.757499999999993,2.6066000000000003 4.7714,2.604999999999997 4.779600000000002,2.601700000000001 4.7845999999999975,2.594999999999999 4.783999999999992,2.5855999999999995 4.794399999999996,2.5702 4.80319999999999,2.5634999999999977 4.8215,2.5534999999999997 4.82759999999999,2.5444999999999993 4.8297000000000025,2.5324000000000026 4.82889999999999,2.5223999999999975 4.832899999999995,2.5116000000000014 4.845799999999997,2.503300000000003 4.85799999999999,2.500700000000002 4.869900000000001,2.503 4.874299999999991,2.511499999999998 4.8759000000000015,2.538800000000002 4.884599999999992,2.554699999999997 4.899199999999993,2.5741000000000014 4.9208,2.6259000000000015 4.935099999999991,2.6415000000000006 4.955399999999997,2.6554 4.962400000000002,2.657899999999998 4.990600000000001,2.6540999999999997 5.000500000000002,2.6544999999999987 5.050799999999995,2.6717000000000013 5.0763999999999925,2.675600000000003 5.082999999999998,2.6798 5.081499999999991,2.6858000000000004 5.075999999999993,2.6950999999999965 5.083299999999994,2.705199999999998 5.091999999999999,2.710000000000001 5.105199999999996,2.710799999999999 5.15079999999999,2.709000000000003 5.154200000000003,2.6987000000000023 5.156399999999991,2.697499999999998 5.162899999999993,2.684899999999999 5.169899999999998,2.6809999999999974 5.183399999999992,2.6828000000000003 5.195300000000003,2.689799999999998 5.2154000000000025,2.7220999999999975 5.222999999999999,2.7261999999999986 5.227400000000003,2.726700000000001 5.252600000000001,2.7205999999999975 5.263999999999996,2.719700000000003 5.2841999999999985,2.723399999999998 5.310400000000001,2.7182999999999993 5.352800000000002,2.700400000000002 5.367499999999993,2.6983999999999995 5.376199999999997,2.6952 5.384599999999992,2.688200000000002 5.388999999999996,2.676099999999998 5.4071,2.6865999999999985 5.4291999999999945,2.6950000000000003 5.447000000000003,2.6854000000000013 5.460399999999993,2.680900000000001 5.480499999999992,2.679299999999998 5.494399999999999,2.681899999999999 5.519999999999996,2.6910999999999987 5.536299999999997,2.6935999999999964 5.5452999999999975,2.6901999999999973 5.558099999999996,2.6813000000000002 5.562699999999992,2.680399999999999 5.582599999999999,2.6876999999999995 5.588099999999997,2.6858000000000004 5.608899999999991,2.6918000000000006 5.619799999999998,2.691499999999998 5.643000000000001,2.686700000000002 5.667299999999997,2.689799999999998 5.674499999999995,2.695599999999999 5.6950999999999965,2.7038999999999973 5.717699999999994,2.7034999999999982 5.734799999999993,2.700400000000002 5.756900000000002,2.6875 5.791799999999995,2.683100000000003 5.8155,2.6850999999999985 5.820899999999995,2.687599999999996 5.831400000000002,2.6884000000000015 5.839799999999997,2.712600000000002 5.846599999999995,2.7261999999999986 5.851699999999994,2.7336000000000027 5.85799999999999,2.7351000000000028 5.879199999999997,2.717100000000002 5.897599999999997,2.7145999999999972 5.926000000000002,2.7139000000000024 5.95259999999999,2.7196 5.967999999999989,2.7254000000000005 5.9773,2.7378999999999962 5.99069999999999,2.767400000000002 5.996399999999994,2.774700000000003 6.003,2.7790999999999997 6.015799999999999,2.7768999999999977 6.030199999999994,2.771799999999999 6.040300000000002,2.774099999999997 6.0527000000000015,2.7800999999999974 6.0745000000000005,2.793700000000001 6.104599999999991,2.7967000000000013 6.121899999999997,2.7956999999999965 6.176099999999991,2.780000000000001 6.1906999999999925,2.782499999999999 6.199699999999993,2.785800000000002 6.225899999999996,2.7875000000000014 6.247699999999995,2.794400000000003 6.27109999999999,2.7929999999999993 6.264399999999995,2.7819000000000003 6.271500000000003,2.7530999999999963 6.282899999999998,2.7186999999999983 6.280999999999992,2.6880999999999986 6.268199999999993,2.671999999999997 6.2265000000000015,2.6514999999999986 6.2039999999999935,2.6051999999999964 6.176899999999989,2.594299999999997 6.170599999999993,2.586999999999996 6.171599999999998,2.578800000000001 6.177999999999997,2.5683000000000007 6.194999999999993,2.564399999999999 6.2119,2.5671999999999997 6.2291000000000025,2.5656999999999996 6.248800000000003,2.5458 6.261099999999999,2.5204999999999984 6.295099999999991,2.496299999999998 6.304400000000001,2.4846999999999966 6.311399999999992,2.4558999999999997 6.323599999999999,2.4358999999999966 6.323099999999997,2.412799999999997 6.324399999999997,2.401200000000003 6.3523,2.371600000000001 6.357699999999994,2.3583 6.369599999999991,2.3536999999999964 6.383299999999991,2.3552999999999997 6.400199999999998,2.3633999999999986 6.4202999999999975,2.366500000000002 6.432699999999997,2.360900000000001 6.4410000000000025,2.3339 6.451700000000002,2.3183000000000007 6.4583999999999975,2.3048999999999964 6.460700000000003,2.2912999999999997 6.458500000000001,2.2757000000000005 6.448599999999999,2.2693999999999974 6.434100000000001,2.2665000000000006 6.4029000000000025,2.2683999999999997 6.374899999999997,2.266300000000001 6.360199999999992,2.261000000000003 6.336399999999998,2.238900000000001 6.319699999999997,2.2134999999999962 6.314700000000002,2.1950000000000003 6.318399999999997,2.182699999999997 6.32759999999999,2.1758999999999986 6.3459,2.1681000000000026 6.350200000000001,2.161999999999999 6.356999999999999,2.1321999999999974 6.366900000000001,2.1143 6.369100000000003,2.1054999999999993 6.366500000000002,2.061399999999999 6.370199999999997,2.049599999999998 6.381799999999998,2.018099999999997 6.398699999999991,2.0030999999999963 6.415599999999998,1.9761000000000024 6.419600000000003,1.9613999999999976 6.41749999999999,1.9528999999999996 6.412099999999995,1.9483999999999995 6.399199999999993,1.9482 6.393999999999991,1.9446999999999974 6.394099999999995,1.9399000000000015 6.4025999999999925,1.9331000000000031 6.425699999999992,1.9243999999999986 6.455500000000001,1.9101 6.495499999999993,1.9055999999999997 6.504800000000003,1.9007000000000005 6.513300000000001,1.8933999999999997 6.5275999999999925,1.8718000000000004 6.537199999999999,1.8639999999999972 6.592199999999991,1.8556999999999988 6.632099999999994,1.8663999999999987 6.66449999999999,1.8603000000000023 6.682699999999997,1.8590000000000018 6.688699999999997,1.860599999999998 6.695499999999996,1.8667000000000016 6.681899999999999,1.8819000000000017 6.680899999999994,1.8864000000000019 6.683599999999998,1.8965999999999994 6.719099999999997,1.9354000000000013 6.72529999999999,1.9451999999999998 6.725200000000001,1.9562000000000026 6.722700000000003,1.968200000000003 6.724800000000002,1.978900000000003 6.7372999999999905,1.992600000000003 6.747,1.996299999999998 6.783900000000003,1.9985 6.805899999999994,1.9949999999999974 6.831400000000002,1.9806999999999988 6.840999999999994,1.9812000000000012 6.8507999999999925,1.9857999999999976 6.85799999999999,1.987099999999998 6.872900000000001,1.9804999999999993 6.900099999999995,1.9765999999999977 6.95689999999999,1.9834000000000032 6.961399999999998,1.9819999999999993 6.9786,1.9829000000000008 6.995099999999994,1.9808999999999983 7.017899999999997,1.974499999999999 7.0214,1.9709999999999965 7.053100000000001,1.9575999999999993 7.068899999999999,1.9577000000000027 7.0859999999999985,1.9604 7.101100000000002,1.9572999999999965 7.119500000000002,1.9577000000000027 7.127499999999998,1.9532999999999987 7.140299999999996,1.9384999999999977 7.151299999999992,1.9292000000000016 7.162700000000001,1.9258000000000024 7.193599999999989,1.9258999999999986 7.207099999999997,1.917900000000003 7.222700000000003,1.912700000000001 7.2438999999999965,1.910899999999998 7.256900000000002,1.9057999999999993 7.2697,1.8945000000000007 7.304699999999997,1.8765999999999963 7.314799999999991,1.8669999999999973 7.32459999999999,1.8536999999999964 7.331599999999995,1.850200000000001 7.369900000000001,1.8562999999999974 7.381299999999996,1.8564000000000007 7.393199999999993,1.8536999999999964 7.408599999999993,1.842100000000002 7.422499999999999,1.8175000000000026 7.4328,1.8119999999999976 7.451099999999997,1.8130000000000024 7.458500000000001,1.8196000000000012 7.461299999999994,1.8245000000000005 7.471800000000002,1.8323999999999998 7.475099999999998,1.832099999999997 7.480199999999996,1.8262999999999963 7.479900000000001,1.8177999999999983 7.474400000000003,1.7978000000000023 7.473399999999998,1.7766999999999982 7.476100000000002,1.7560999999999964 7.481999999999999,1.7400999999999982 7.482299999999995,1.7314000000000007 7.4756,1.7162000000000006 7.4632000000000005,1.7027999999999963 7.462000000000003,1.699300000000001 7.448499999999996,1.689300000000003 7.437600000000003,1.6869000000000014 7.423099999999991,1.6903999999999968 7.411900000000003,1.688200000000002 7.4007000000000005,1.6824000000000012 7.392099999999999,1.6728999999999985 7.389899999999997,1.662700000000001 7.39139999999999,1.6552000000000007 7.405699999999996,1.6274000000000015 7.408199999999994,1.6184999999999974 7.403499999999994,1.6075000000000017 7.389699999999991,1.5968000000000018 7.392699999999991,1.5927999999999969 7.405999999999992,1.5852000000000004 7.408900000000003,1.5664999999999978 7.415099999999995,1.5533999999999963 7.413499999999999,1.5401000000000025 7.398699999999991,1.5133999999999972 7.410899999999998,1.4754000000000005 7.424199999999999,1.4497 7.430399999999992,1.4247000000000014 7.4358,1.4110000000000014 7.443399999999997,1.4027999999999992 7.459299999999999,1.3950999999999993 7.4624999999999915,1.390900000000002 7.4666,1.371299999999998 7.473100000000002,1.3584999999999994 7.477800000000002,1.353200000000001 7.4876000000000005,1.3506999999999962 7.493799999999993,1.3526000000000025 7.500999999999991,1.357999999999997 7.509900000000002,1.3586000000000027 7.5167,1.3534000000000006 7.527499999999989,1.3369 7.526699999999991,1.319499999999998 7.522300000000001,1.2963000000000022 7.526200000000003,1.2676000000000016 7.5249999999999915,1.2560000000000002 7.5212999999999965,1.2475999999999985 7.521900000000002,1.240000000000002 7.527799999999999,1.2308999999999983 7.538799999999995,1.2192000000000007 7.543300000000002,1.2083999999999975 7.541899999999998,1.203800000000001 7.52109999999999,1.1783000000000001 7.518299999999996,1.1707999999999998 7.520600000000002,1.1640000000000015 7.526299999999992,1.1574000000000026 7.534899999999993,1.1535999999999973 7.560699999999997,1.1330000000000027 7.5702,1.130200000000002 7.577299999999994,1.1317000000000021 7.587000000000003,1.129800000000003 7.597999999999999,1.1212000000000018 7.606200000000001,1.1075000000000017 7.609200000000001,1.0953000000000017 7.60799999999999,1.0906999999999982 7.575800000000001,1.069899999999997 7.554699999999997,1.046199999999999 7.540399999999991,1.0397999999999996 7.5360999999999905,1.035899999999998 7.528999999999996,1.0268999999999977 7.526299999999992,1.011800000000001 7.51339999999999,1.0026999999999973 7.508899999999997,0.9932999999999979 7.509500000000003,0.985599999999998 7.519799999999989,0.9679000000000002 7.52239999999999,0.9594999999999985 7.536199999999994,0.9365000000000023 7.538199999999989,0.9249000000000009 7.537700000000001,0.8962000000000003 7.5408999999999935,0.8840999999999966 7.5471999999999895,0.8808000000000007 7.55619999999999,0.8800000000000026 7.567700000000002,0.8731999999999971 7.570899999999995,0.867600000000003 7.5771000000000015,0.8618999999999986 7.593199999999996,0.8592000000000013 7.612899999999996,0.8460999999999999 7.618299999999991,0.8481000000000023 7.620099999999994,0.853900000000003 7.616500000000002,0.8719999999999999 7.617999999999995,0.8765000000000001 7.624899999999997,0.878300000000003 7.632899999999992,0.8757000000000019 7.651799999999994,0.8616000000000028 7.668399999999991,0.8551000000000002 7.675399999999996,0.8449999999999989 7.6747999999999905,0.8410999999999973 7.695599999999999,0.8123999999999967 7.718800000000002,0.7982999999999976 7.724699999999999,0.7924000000000007 7.731499999999997,0.7809999999999988 7.74669999999999,0.7652999999999963 7.749499999999998,0.7590000000000003 7.747399999999999,0.7518000000000029 7.750100000000003,0.7417999999999978 7.749200000000002,0.7340000000000018 7.744900000000001,0.7269000000000005 7.714299999999994,0.7032999999999987 7.713700000000003,0.6995999999999967 7.717500000000001,0.6831999999999994 7.7235999999999905,0.6741000000000028 7.728799999999993,0.6694999999999993 7.7372999999999905,0.6544999999999987 7.7291000000000025,0.6482000000000028 7.714999999999989,0.6447999999999965 7.700099999999992,0.6447999999999965 7.670400000000001,0.6413999999999973 7.656399999999991,0.6370999999999967 7.645699999999991,0.6302000000000021 7.617199999999997,0.6188000000000002 7.5611999999999995,0.6189999999999998 7.547799999999995,0.6173999999999964 7.534999999999997,0.6113 7.527299999999997,0.6037999999999997 7.525599999999997,0.5985000000000014 7.5274,0.5863999999999976 7.526200000000003,0.5754999999999981 7.522499999999994,0.5675999999999988 7.511299999999991,0.563600000000001 7.5031999999999925,0.5638999999999967 7.489899999999992,0.6026000000000025 7.477699999999999,0.6114999999999995 7.4666,0.6229999999999976 7.458299999999994,0.639400000000002 7.444000000000003,0.6593000000000018 7.434100000000001,0.6653999999999982 7.4221999999999895,0.6790999999999983 7.3847999999999985,0.6890999999999963 7.3337999999999965,0.7072999999999965 7.322800000000001,0.7128000000000014 7.305799999999991,0.7351000000000028 7.3018,0.7316999999999965 7.297799999999995,0.722299999999997 7.283900000000003,0.7147000000000006 7.279699999999991,0.7152999999999992 7.275499999999994,0.7124000000000024 7.259599999999992,0.710799999999999 7.255099999999999,0.7055000000000007 7.249899999999997,0.7038000000000011 7.244699999999995,0.7049999999999983 7.24069999999999,0.7085000000000008 7.234999999999999,0.7077999999999989 7.229599999999991,0.7098000000000013 7.204299999999989,0.7047000000000025 7.187299999999993,0.7047000000000025 7.181899999999999,0.7013999999999996 7.170400000000001,0.7145999999999972 7.170199999999994,0.7214000000000027 7.165599999999998,0.7248000000000019 7.147300000000001,0.7314000000000007 7.140299999999996,0.7314000000000007 7.129599999999996,0.7256999999999962 7.115799999999993,0.7248000000000019 7.105699999999999,0.7210999999999999 7.093400000000003,0.7248999999999981 7.082099999999997,0.7308999999999983 7.074100000000001,0.7314999999999969 7.050600000000003,0.7173000000000016 7.040599999999998,0.7160000000000011 7.030900000000003,0.7179999999999964 7.015699999999995,0.7182999999999993 7.004899999999992,0.7239000000000004 6.999499999999998,0.7312000000000012 7.001199999999997,0.7376999999999967 6.9953,0.7430999999999983 6.989599999999996,0.7481000000000009 6.979599999999991,0.7498999999999967 6.967100000000002,0.7490000000000023 6.9602,0.7453999999999965 6.95389999999999,0.7323000000000022 6.938599999999994,0.7316000000000003 6.93419999999999,0.7276999999999987 6.927199999999999,0.7261999999999986 6.888999999999996,0.728900000000003 6.8785000000000025,0.734499999999997 6.867499999999993,0.7353000000000023 6.854799999999997,0.7396000000000029 6.844099999999997,0.7261999999999986 6.843899999999991,0.7205000000000013 6.854399999999998,0.7122000000000028 6.858099999999993,0.7062000000000026 6.863199999999992,0.7021000000000015 6.858800000000002,0.6987999999999985 6.852699999999999,0.6974000000000018 6.843599999999995,0.6835000000000022 6.838899999999995,0.6794999999999973 6.826299999999989,0.6736000000000004 6.818100000000001,0.6644999999999968 6.807899999999989,0.661999999999999 6.7971,0.6623000000000019 6.791299999999993,0.6664999999999992 6.767699999999991,0.6668000000000021 6.755600000000001,0.6606999999999985 6.750500000000002,0.654200000000003 6.741299999999995,0.6522000000000006 6.732199999999992,0.6540999999999997 6.722399999999993,0.6462000000000003 6.715999999999994,0.644599999999997 6.694800000000001,0.646099999999997 6.685400000000001,0.6473999999999975 6.679899999999989,0.6501999999999981 6.6751000000000005,0.649799999999999 6.674700000000001,0.6392999999999986 6.671399999999991,0.6368000000000009 6.651600000000002,0.6278000000000006 6.646900000000002,0.6341999999999999 6.641599999999997,0.6338000000000008 6.631,0.6227000000000018 6.618799999999993,0.615000000000002 6.613399999999999,0.6158999999999963 6.606999999999999,0.6214999999999975 6.5985999999999905,0.6246000000000009 6.580699999999993,0.6268999999999991 6.569199999999995,0.6133000000000024 6.566999999999993,0.609499999999997 6.566599999999994,0.6047000000000011 6.563599999999994,0.6017999999999972 6.54249999999999,0.6120999999999981 6.536699999999996,0.6131000000000029 6.501899999999992,0.602800000000002 6.4979999999999905,0.5953999999999979 6.4938999999999965,0.5923999999999978 6.471800000000002,0.5878000000000014 6.460499999999996,0.5799999999999983 6.45689999999999,0.5754000000000019 6.455399999999997,0.5696999999999974 6.458299999999994,0.565100000000001 6.455100000000002,0.5604999999999976 6.4472999999999985,0.5564999999999998 6.4384000000000015,0.5538999999999987 6.428100000000001,0.560299999999998 6.423900000000003,0.5559999999999974 6.415999999999997,0.5527999999999977 6.4101,0.560299999999998 6.4007000000000005,0.5619000000000014 6.3934,0.5655000000000001 6.376099999999994,0.5608999999999966 6.375999999999991,0.5563000000000002 6.3777999999999935,0.5527999999999977 6.376899999999992,0.5495000000000019 6.372399999999999,0.5474999999999994 6.352599999999995,0.5546999999999969 6.3444999999999965,0.5651999999999973 6.343899999999991,0.5688000000000031 6.3399,0.5720000000000027 6.328099999999992,0.5730999999999966 6.323499999999996,0.5716999999999999 6.308300000000003,0.5782999999999987 6.299499999999995,0.5786000000000016 6.2928,0.575800000000001 6.278899999999993,0.5771000000000015 6.272999999999996,0.5664999999999978 6.270600000000002,0.5643999999999991 6.26509999999999,0.5645999999999987 6.244699999999995,0.5775999999999968 6.242800000000003,0.5799000000000021 6.242699999999999,0.5861999999999981 6.240299999999991,0.5925000000000011 6.234200000000001,0.5923999999999978 6.2305999999999955,0.5959000000000003 6.244199999999992,0.6082999999999998 6.246299999999991,0.6092000000000013 6.256799999999998,0.6077999999999975 6.2642999999999915,0.6114999999999995 6.266199999999998,0.6182000000000016 6.261399999999995,0.6257999999999981 6.269999999999996,0.6417000000000002 6.277699999999996,0.6417999999999964 6.2851,0.6356999999999999 6.305799999999991,0.6373999999999995 6.319000000000003,0.6345999999999989 6.327399999999997,0.6426999999999978 6.336699999999993,0.6411000000000016 6.3618999999999915,0.6473999999999975 6.364399999999989,0.6550000000000011 6.367800000000003,0.6587000000000032 6.378099999999989,0.6634000000000029 6.37769999999999,0.6646999999999963 6.386899999999997,0.6670999999999978 6.382899999999992,0.6738999999999962 6.384199999999993,0.6788999999999987 6.382499999999993,0.6987000000000023 6.38369999999999,0.7062999999999988 6.380200000000002,0.7203000000000017 6.385499999999993,0.7252999999999972 6.383399999999995,0.7348999999999961 6.3887,0.7674999999999983 6.343299999999999,0.7680999999999969 6.3369,0.7713999999999999 6.296399999999991,0.7811999999999983 6.284300000000002,0.777000000000001 6.274299999999997,0.7680999999999969 6.262900000000002,0.7631000000000014 6.250199999999992,0.7676999999999978 6.230400000000003,0.7717000000000027 6.216499999999996,0.772199999999998 6.188699999999997,0.777000000000001 6.176199999999994,0.7824999999999989 6.158799999999999,0.7937999999999974 6.1477,0.7982000000000014 6.141300000000001,0.8003999999999962 6.122900000000001,0.8023999999999987 6.120399999999989,0.8008000000000024 6.111599999999996,0.8001000000000005 6.105400000000003,0.8018000000000001 6.069999999999993,0.8018000000000001 6.030799999999999,0.7948999999999984 6.013300000000001,0.7826999999999984 5.991599999999991,0.7715000000000032 5.9846,0.7697000000000003 5.978999999999999,0.7745999999999995 5.981200000000001,0.7817000000000007 5.979699999999994,0.7873999999999981 5.972499999999997,0.7888000000000019 5.965699999999998,0.7881999999999962 5.955799999999996,0.7929999999999993 5.9498999999999995,0.7937000000000012 5.938699999999997,0.7941000000000003 5.920400000000001,0.7918000000000021 5.897199999999998,0.7822000000000031 5.8887,0.7723000000000013 5.870499999999993,0.7663000000000011 5.864199999999997,0.7618999999999971 5.86099999999999,0.7561999999999998 5.851699999999994,0.746699999999997 5.828299999999999,0.7338000000000022 5.816499999999991,0.7317999999999998 5.8018,0.7364999999999995 5.778700000000001,0.7364999999999995 5.761499999999998,0.7297999999999973 5.748499999999993,0.7053999999999974 5.743099999999998,0.6995000000000005 5.72999999999999,0.6957000000000022 5.720500000000001,0.6903000000000006 5.716399999999993,0.6831999999999994 5.715899999999991,0.673099999999998 5.720100000000002,0.6691000000000003 5.709699999999998,0.6544999999999987 5.704899999999995,0.6514999999999986 5.6721999999999895,0.6387999999999963 5.650899999999993,0.6330999999999989 5.6370000000000005,0.6347000000000023 5.591700000000003,0.6253000000000029 5.586399999999998,0.6212000000000018 5.580500000000001,0.6191000000000031 5.5674999999999955,0.6178000000000026 5.552999999999997,0.6103999999999985 5.547399999999996,0.6034999999999968 5.537899999999993,0.5974999999999966 5.528199999999998,0.5869999999999962 5.523600000000002,0.5859999999999985 5.51939999999999,0.5814999999999984 5.505200000000002,0.572499999999998 5.495800000000003,0.5671999999999997 5.483899999999991,0.5638999999999967 5.468400000000003,0.5568000000000026 5.449799999999996,0.5638000000000005 5.430499999999995,0.560299999999998 5.424300000000002,0.5563000000000002 5.411999999999992,0.5461000000000027 5.400599999999997,0.5330000000000013 5.39609999999999,0.5309999999999988 5.388799999999989,0.5228999999999999 5.383399999999995,0.5071999999999974 5.364999999999995,0.46929999999999694 5.329999999999998,0.4192999999999998 5.317599999999999,0.41089999999999804 5.314799999999991,0.40449999999999875 5.3155,0.39809999999999945 5.308199999999999,0.3900999999999968 5.294899999999998,0.3810000000000002 5.283299999999997,0.35549999999999926 5.27579999999999,0.3451999999999984 5.268199999999993,0.3481000000000023 5.26039999999999,0.34729999999999706 5.253900000000002,0.35029999999999717 5.250999999999991,0.35430000000000206 5.239099999999993,0.35710000000000264 5.2235999999999905,0.35260000000000247 5.202799999999996,0.33970000000000056 5.195599999999999,0.3374999999999986 5.186099999999996,0.3393999999999977 5.180899999999994,0.33489999999999753 5.162099999999995,0.33089999999999975 5.150300000000001,0.3325000000000031 5.146000000000001,0.33100000000000307 5.142799999999994,0.32730000000000103 5.137799999999999,0.3265000000000029 5.124299999999991,0.3277000000000001 5.097499999999997,0.32569999999999766 5.094099999999997,0.3228999999999971 5.088399999999993,0.321399999999997 5.0833999999999975,0.322499999999998 5.072599999999994,0.32979999999999876 5.066599999999994,0.3301000000000016 5.053799999999995,0.334699999999998 5.034899999999993,0.334699999999998 5.024000000000001,0.3318999999999974 5.0214,0.3271999999999977 5.0160999999999945,0.3241999999999976 5.002200000000002,0.3216999999999999 4.986999999999995,0.3164999999999978 4.974400000000003,0.31620000000000203 4.970399999999998,0.31869999999999976 4.9559,0.3170999999999964 4.9495000000000005,0.31040000000000134 4.944000000000003,0.30810000000000315 4.927799999999991,0.30339999999999634 4.92049999999999,0.3033000000000001 4.909399999999991,0.2984000000000009 4.893500000000003,0.2890999999999977 4.890199999999993,0.2851999999999961 4.8887,0.2798000000000016 4.882099999999994,0.27709999999999724 4.865600000000001,0.27530000000000143 4.859799999999993,0.27309999999999945 4.847200000000001,0.259999999999998 4.841200000000001,0.25719999999999743 4.8226999999999975,0.2545999999999964 4.817599999999999,0.248899999999999 4.813199999999995,0.23870000000000147 4.810199999999995,0.23570000000000135 4.7819999999999965,0.22209999999999752 4.77109999999999,0.21280000000000143 4.761600000000001,0.2073999999999998 4.753099999999989,0.20709999999999695 4.750999999999991,0.20289999999999964 4.746299999999991,0.20199999999999818 4.734999999999999,0.19530000000000314 4.730899999999991,0.18659999999999854 4.7303,0.18180000000000263 4.724099999999993,0.1722999999999999 4.7158000000000015,0.17199999999999704 4.699299999999994,0.16619999999999635 4.695399999999992,0.16850000000000165 4.684299999999993,0.16799999999999926 4.66279999999999,0.1565999999999974 4.6595999999999975,0.14909999999999712 4.652699999999996,0.14589999999999748 4.6404,0.14320000000000022 4.631,0.13819999999999766 4.626599999999996,0.13459999999999894 4.622599999999991,0.12429999999999808 4.610500000000002,0.1186000000000007 4.6033999999999935,0.11030000000000229 4.599400000000003,0.10770000000000124 4.593599999999995,0.10640000000000072 4.572099999999992,0.084699999999998 4.539599999999993,0.07110000000000127 4.53309999999999,0.06980000000000075 4.522300000000001,0.06289999999999907 4.51639999999999,0.06179999999999808 4.506599999999992,0.046999999999997044 4.483699999999999,0.030799999999999272 4.478999999999999,0.022500000000000853 4.4679,0.017899999999997362 4.455299999999994,0.009199999999999875 4.439999999999998,0.008600000000001273 4.433300000000003,0.010699999999999932 4.401699999999991,0.004100000000001103 4.389899999999997,0.004100000000001103 4.375100000000003,0.006799999999998363 4.362899999999996,0.003900000000001569 4.3404000000000025,0.0045000000000001705 4.325400000000002,0.0 4.305099999999996,0.004599999999996385 4.298199999999994,0.004699999999999704 4.291799999999995,0.0011999999999972033 4.286699999999996,0.0007000000000019213 4.268299999999996,0.014699999999997715 4.261600000000001,0.017200000000002547 4.2513000000000005,0.01769999999999783 4.2453,0.020600000000001728 4.24199999999999,0.023800000000001376 4.23129999999999,0.042499999999996874 4.2021000000000015,0.062199999999997146 4.192700000000002,0.0724000000000018 4.179699999999997,0.09210000000000207 4.179000000000002,0.0981000000000023 4.175899999999999,0.10369999999999635 4.175600000000003,0.11129999999999995 4.169199999999989,0.12279999999999802 4.165599999999998,0.13810000000000144 4.158000000000001,0.15339999999999776 4.153999999999996,0.17549999999999955 4.148699999999991,0.17849999999999966 4.139099999999999,0.18939999999999912 4.141799999999989,0.1963000000000008 4.139099999999999,0.20230000000000103 4.133499999999998,0.20570000000000022 4.131299999999996,0.20980000000000132 4.131299999999996,0.21600000000000108 4.126800000000003,0.22520000000000095 4.1170999999999935,0.2359000000000009 4.106999999999999,0.24260000000000304 4.103099999999998,0.24799999999999756 4.103499999999997,0.2524999999999977 4.10029999999999,0.25849999999999795 4.086799999999997,0.2702999999999989 4.078000000000003,0.29110000000000014 4.0833999999999975,0.31349999999999767 4.081999999999994,0.32670000000000243 4.075099999999992,0.3399000000000001 4.073099999999997,0.3470999999999975 4.075400000000002,0.351700000000001 4.071699999999993,0.35710000000000264 4.056699999999992,0.37010000000000076 4.050899999999999,0.37989999999999924 4.045599999999993,0.38450000000000273 4.043300000000002,0.39110000000000156 4.0434999999999945,0.3994999999999962 4.047699999999992,0.414200000000001 4.057699999999997,0.42739999999999867 4.0567999999999955,0.4316999999999993 4.057899999999989,0.4380000000000024 4.054899999999989,0.44700000000000273 4.0563999999999965,0.45349999999999824 4.055399999999992,0.45889999999999986 4.058899999999994,0.46229999999999905 4.060599999999994,0.4742999999999995 4.064599999999999,0.4817999999999998 4.058499999999995,0.49689999999999657 4.059799999999996,0.5020000000000024 4.064499999999995,0.5092999999999961 4.071399999999997,0.5107999999999961 4.075099999999992,0.5133999999999972 4.076099999999997,0.5185999999999993 4.074299999999994,0.5236000000000018 4.06989999999999,0.527000000000001 4.067399999999992,0.5345999999999975 4.068899999999999,0.5409999999999968 4.081099999999992,0.5529000000000011 4.08829999999999,0.5555000000000021 4.093599999999995,0.5594999999999999 4.093299999999999,0.5645000000000024 4.096999999999994,0.5686999999999998 4.098299999999995,0.5863000000000014 4.103099999999998,0.5949000000000026 4.101299999999995,0.6004000000000005 4.102800000000002,0.6060000000000016 4.106799999999993,0.610599999999998 4.107399999999998,0.6167000000000016 4.105199999999996,0.622799999999998 4.107500000000002,0.6293000000000006 4.117499999999993,0.6366000000000014 4.119599999999991,0.6432000000000002 4.113100000000003,0.6471000000000018 4.101299999999995,0.6597000000000008 4.1006,0.6646999999999963 4.104799999999997,0.6792000000000016 4.105400000000003,0.6908999999999992 4.1077999999999975,0.6955000000000027 4.104799999999997,0.7047000000000025 4.101399999999998,0.7083999999999975 4.0916,0.7113999999999976 4.0886,0.7162999999999968 4.0900999999999925,0.7274999999999991 4.093699999999998,0.7344000000000008 4.104500000000002,0.7332999999999998 4.109200000000001,0.7346999999999966 4.111599999999996,0.738900000000001 4.108999999999995,0.7436999999999969 4.108599999999996,0.7507000000000019 4.109399999999994,0.7550000000000026 4.114599999999996,0.7620999999999967 4.113900000000001,0.7668999999999997 4.116900000000001,0.7732000000000028 4.1166999999999945,0.7787999999999968 4.1340999999999894,0.7937000000000012 4.1351999999999975,0.7997999999999976 4.1387,0.8048999999999964 4.138199999999998,0.8100999999999985 4.120899999999992,0.8342999999999989 4.117800000000003,0.8530000000000015 4.108400000000003,0.865000000000002 4.114399999999989,0.8817999999999984 4.115600000000001,0.8973000000000013 4.119599999999991,0.9159000000000006 4.11869999999999,0.9271000000000029 4.121099999999998,0.9328000000000003 4.133200000000002,0.9491999999999976 4.140999999999991,0.963000000000001 4.139499999999998,0.9720000000000013 4.140699999999995,0.9883999999999986 4.13839999999999,0.9953999999999965 4.140799999999999,1.0024999999999977 4.145499999999998,1.0056999999999974 4.152799999999999,1.0167999999999964 4.159099999999995,1.0375000000000014 4.1636999999999915,1.0412999999999997 4.161699999999996,1.0461000000000027 4.163499999999999,1.055500000000002 4.162999999999997,1.0634000000000015 4.158900000000003,1.072499999999998 4.1458999999999975,1.0893000000000015 4.151399999999995,1.0970000000000013 4.157899999999998,1.0996999999999986 4.1636999999999915,1.1075000000000017 4.201099999999997,1.1238000000000028 4.205399999999997,1.1268999999999991 4.208100000000002,1.133899999999997 4.201099999999997,1.154200000000003 4.198399999999992,1.1749999999999972 4.210099999999997,1.1989000000000019 4.209999999999994,1.2057000000000002 4.205100000000002,1.2102000000000004 4.200099999999992,1.2226999999999961 4.200400000000002,1.2299999999999969 4.204799999999992,1.2396999999999991 4.203400000000002,1.2498000000000005 4.19019999999999,1.2625000000000028 4.166499999999999,1.2689000000000021 4.157200000000003,1.2781999999999982 4.1370000000000005,1.2849999999999966 4.126999999999995,1.2839000000000027 4.1144999999999925,1.2802000000000007 4.110900000000001,1.2779000000000025 4.107100000000003,1.272199999999998 4.10029999999999,1.2682999999999964 4.09129999999999,1.267000000000003 4.077199999999991,1.2578999999999994 4.070799999999991,1.2567999999999984 4.057599999999994,1.2511999999999972 4.0488,1.2515 4.0434999999999945,1.2498000000000005 4.036199999999994,1.2393999999999963 4.0304,1.2372000000000014 4.020600000000002,1.2378 4.012500000000003,1.234099999999998 4.006500000000003,1.233699999999999 4.000699999999995,1.2334000000000032 3.994500000000002,1.236699999999999 3.967100000000002,1.2227999999999994 3.9553999999999974,1.2197999999999993 3.9432999999999936,1.2143999999999977 3.939300000000003,1.221499999999999 3.9384000000000015,1.2280999999999977 3.9277999999999906,1.2402999999999977 3.9268,1.2466000000000008 3.9202999999999975,1.2509000000000015 3.9106999999999914,1.260399999999997 3.903899999999993,1.2607 3.894999999999996,1.2479000000000013 3.8739999999999952,1.249600000000001 3.8695999999999913,1.251800000000003 3.865099999999998,1.2597000000000023 3.8789000000000016,1.2663999999999973 3.8759999999999906,1.2772999999999968 3.887199999999993,1.2927999999999997 3.8870000000000005,1.3027000000000015 3.8810999999999893,1.3125 3.883499999999998,1.3201999999999998 3.890900000000002,1.3230000000000004 3.889099999999999,1.3325999999999993 3.8926999999999907,1.3367999999999967 3.9040999999999997,1.342100000000002 3.9080000000000013,1.3462000000000032 3.907499999999999,1.3573000000000022 3.8991999999999933,1.360999999999997 3.8965999999999923,1.3682000000000016 3.9072999999999922,1.3727000000000018 3.9131,1.370899999999999 3.919399999999996,1.3748000000000005 3.9243000000000023,1.388300000000001 3.934100000000001,1.3984000000000023 3.9345,1.4136999999999986 3.9324999999999903,1.4277000000000015 3.939300000000003,1.4307999999999979 3.940100000000001,1.4363000000000028 3.943100000000001,1.4399999999999977 3.9495000000000005,1.441600000000001 3.952699999999993,1.459699999999998 3.9612999999999943,1.4754000000000005 3.9662000000000006,1.4780000000000015 3.972999999999999,1.4765999999999977 3.978899999999996,1.4784999999999968 3.9886999999999944,1.4887000000000015 3.9816000000000003,1.4998000000000005 3.9791999999999916,1.5063999999999993 3.9776999999999987,1.524000000000001 3.9816999999999894,1.5298999999999978 3.991900000000001,1.5381999999999962 3.9902999999999906,1.5431000000000026 3.980400000000003,1.5512000000000015 3.9869999999999948,1.5835000000000008 3.9791999999999916,1.5934000000000026 3.9739000000000004,1.5962000000000032 3.9598000000000013,1.5991999999999962 3.947499999999991,1.597999999999999 3.94489999999999,1.6036999999999964 3.9457999999999913,1.6086000000000027 3.9399999999999977,1.6129999999999995 3.9468999999999994,1.6212000000000018 3.940899999999999,1.6332999999999984 3.9262999999999977,1.6323000000000008 3.909499999999994,1.640900000000002 3.8924999999999983,1.6424999999999983 3.887299999999996,1.6400000000000006 3.8656000000000006,1.6381999999999977 3.86099999999999,1.6402 3.8567999999999927,1.6458999999999975 3.838700000000003,1.649000000000001 3.8229999999999933,1.6593000000000018 3.8155999999999892,1.6676000000000002 3.810299999999998,1.6709000000000032 3.801099999999991,1.6717999999999975 3.7971000000000004,1.6738 3.788199999999989,1.6978000000000009 3.781499999999994,1.7094999999999985 3.7759999999999962,1.7150999999999996 3.764099999999999,1.7171999999999983 3.762500000000003,1.7252999999999972 3.7565999999999917,1.730400000000003 3.7458000000000027,1.7250000000000014 3.741199999999992,1.7267999999999972 3.734099999999998,1.7342000000000013 3.722999999999999,1.733699999999999 3.718199999999996,1.7368999999999986 3.7206999999999937,1.7473000000000027 3.717199999999991,1.7503000000000029 3.704499999999996,1.7511999999999972 3.6991999999999905,1.749299999999998 3.6891999999999996,1.7419999999999973 3.679400000000001,1.7406999999999968 3.6814999999999998,1.732599999999998 3.6794999999999902,1.7278999999999982 3.674599999999998,1.7259000000000029 3.6692999999999927,1.7269000000000005 3.65979999999999,1.7381000000000029 3.6576999999999913,1.7505000000000024 3.652799999999999,1.7552999999999983 3.6496999999999957,1.7700999999999993 3.6422999999999917,1.7805999999999997 3.643799999999999,1.789200000000001 3.6337999999999937,1.7969000000000008 3.622399999999999,1.7991000000000028 3.6141999999999967,1.8048999999999964 3.609499999999997,1.8155999999999963 3.602400000000003,1.8183000000000007 3.593999999999994,1.8100000000000023 3.582499999999996,1.804000000000002 3.5600999999999914,1.8048000000000002 3.556699999999992,1.7948000000000022 3.5688999999999993,1.7892999999999972 3.5748999999999995,1.7845000000000013 3.5704999999999956,1.7742000000000004 3.571399999999997,1.7697000000000003 3.5671999999999997,1.7661000000000016 3.560699999999997,1.7663999999999973 3.5564999999999998,1.7706000000000017 3.5482999999999976,1.7685999999999993 3.547399999999996,1.7631999999999977 3.5437999999999903,1.7599000000000018 3.537300000000002,1.7582000000000022 3.5341999999999985,1.7627000000000024 3.5206000000000017,1.7667999999999964 3.5197999999999894,1.7713999999999999 3.5135999999999967,1.7753000000000014 3.514499999999998,1.7813000000000017 3.513300000000001,1.7875000000000014 3.5078999999999922,1.7929999999999993 3.4930999999999983,1.7973 3.4864000000000033,1.7967000000000013 3.481099999999998,1.7935999999999979 3.4769999999999897,1.7881999999999962 3.471999999999994,1.7875000000000014 3.4705999999999904,1.7832000000000008 3.4728999999999957,1.7779999999999987 3.46929999999999,1.7712999999999965 3.462999999999994,1.7665999999999968 3.456299999999999,1.7682000000000002 3.456099999999992,1.7742000000000004 3.4424999999999955,1.7800000000000011 3.4372999999999934,1.7807999999999993 3.433899999999994,1.7759 3.427599999999998,1.772599999999997 3.422399999999996,1.7719999999999985 3.400499999999994,1.7787999999999968 3.3954999999999984,1.7830999999999975 3.3850999999999942,1.783999999999999 3.381299999999996,1.7811000000000021 3.3796999999999997,1.774000000000001 3.3748999999999967,1.7678999999999974 3.373199999999997,1.7616999999999976 3.369500000000002,1.755899999999997 3.3545000000000016,1.7479000000000013 3.3399,1.7428000000000026 3.327699999999993,1.7423999999999964 3.3160000000000025,1.7445999999999984 3.3111999999999995,1.7477000000000018 3.3048999999999893,1.7453999999999965 3.291499999999999,1.7368000000000023 3.2875999999999976,1.7312999999999974 3.288899999999998,1.7250999999999976 3.2870999999999952,1.7184000000000026 3.2912999999999926,1.7152999999999992 3.3008999999999986,1.7171999999999983 3.3048,1.7143999999999977 3.307299999999998,1.7087999999999965 3.3070999999999913,1.701900000000002 3.304400000000001,1.6970000000000027 3.2974999999999994,1.692300000000003 3.278499999999994,1.6865000000000023 3.272199999999998,1.6788999999999987 3.2668999999999926,1.6773999999999987 3.2560999999999893,1.6768 3.243799999999993,1.6813999999999965 3.231200000000001,1.6792999999999978 3.2235999999999905,1.6736000000000004 3.2239000000000004,1.6636999999999986 3.227499999999992,1.6524 3.219700000000003,1.6392999999999986 3.2179999999999893,1.6336999999999975 3.221899999999991,1.6244000000000014 3.2176999999999936,1.6111999999999966 3.2143999999999977,1.6081000000000003 3.192399999999992,1.6019000000000005 3.1799999999999926,1.5960999999999999 3.1714999999999947,1.588000000000001 3.164199999999994,1.5767000000000024 3.1589000000000027,1.5724000000000018 3.150199999999998,1.5523000000000025 3.1494,1.537700000000001 3.1422000000000025,1.5294000000000025 3.1307999999999936,1.522199999999998 3.1277999999999935,1.5120999999999967 3.123499999999993,1.506999999999998 3.1163999999999987,1.4923000000000002 3.113199999999992,1.4739999999999966 3.114399999999989,1.4624000000000024 3.1178000000000026,1.4577000000000027 3.1178999999999917,1.4504999999999981 3.1110999999999933,1.4476999999999975 3.103999999999999,1.4487000000000023 3.093999999999994,1.4431000000000012 3.0908999999999907,1.438200000000002 3.0808999999999997,1.4328000000000003 3.0438999999999936,1.4268 3.0331999999999937,1.4168999999999983 3.0313000000000017,1.4104000000000028 3.0317000000000007,1.4033999999999978 3.018599999999992,1.402700000000003 3.009599999999992,1.3943999999999974 2.9949999999999903,1.3894999999999982 2.992199999999997,1.3847000000000023 2.978200000000001,1.3828000000000031 2.977499999999992,1.3774999999999977 2.980800000000002,1.3714000000000013 2.9767999999999972,1.3605000000000018 2.972200000000001,1.3558000000000021 2.9620999999999924,1.351300000000002 2.958299999999994,1.3460999999999999 2.950099999999992,1.3421999999999983 2.947099999999992,1.333599999999997 2.9435999999999893,1.328800000000001 2.9388999999999896,1.3263999999999996 2.9301999999999992,1.3265999999999991 2.9236999999999966,1.3245000000000005 2.9102999999999923,1.3147999999999982 2.9033999999999907,1.314700000000002 2.9010999999999996,1.301400000000001 2.8973000000000013,1.297699999999999 2.8906999999999954,1.3006000000000029 2.8840999999999894,1.3008000000000024 2.8810000000000002,1.3042000000000016 2.875,1.3063000000000002 2.8726999999999947,1.3001999999999967 2.879499999999993,1.2879000000000005 2.880200000000002,1.2804000000000002 2.8877999999999986,1.2730999999999995 2.884599999999992,1.2682999999999964 2.8780999999999892,1.2652999999999963 2.8721999999999923,1.2667000000000002 2.864999999999995,1.2723000000000013 2.853999999999999,1.2715000000000032 2.8478999999999957,1.2676999999999978 2.8311999999999955,1.2620999999999967 2.82589999999999,1.257399999999997 2.8259999999999934,1.2500999999999962 2.8215999999999894,1.2511999999999972 2.8144999999999953,1.2567000000000021 2.802199999999999,1.274799999999999 2.797399999999996,1.2751999999999981 2.792900000000003,1.2652999999999963 2.7852999999999923,1.2567999999999984 2.7908999999999935,1.2417999999999978 2.7922999999999973,1.229300000000002 2.7908999999999935,1.2239000000000004 2.795599999999993,1.2152999999999992 2.786199999999994,1.2053000000000011 2.7904999999999944,1.200099999999999 2.7986999999999966,1.1781000000000006 2.802099999999996,1.1728999999999985 2.8186999999999927,1.1694999999999993 2.8322999999999894,1.1610000000000014 2.842199999999991,1.158999999999999 2.863100000000003,1.1601 2.8695999999999913,1.1576999999999984 2.8766999999999996,1.1524 2.8803999999999945,1.146799999999999 2.886799999999994,1.1428999999999974 2.8922999999999917,1.1428000000000011 2.894199999999998,1.1385000000000005 2.8888999999999925,1.1233000000000004 2.8903999999999996,1.112400000000001 2.8926000000000016,1.1073999999999984 2.8965999999999923,1.1041000000000025 2.9009999999999962,1.1028999999999982 2.9093000000000018,1.0944999999999965 2.902000000000001,1.0814000000000021 2.9014999999999986,1.0748999999999995 2.9059000000000026,1.0700999999999965 2.91279999999999,1.0576000000000008 2.9106000000000023,1.0508999999999986 2.9021999999999935,1.0448000000000022 2.902699999999996,1.0381 2.9051999999999936,1.0326000000000022 2.9155999999999977,1.0289000000000001 2.917999999999992,1.0242999999999967 2.9174000000000007,1.0195000000000007 2.898600000000002,1.0118999999999971 2.8999999999999915,1.0065999999999988 2.8933999999999997,1.0011999999999972 2.890199999999993,0.9825999999999979 2.887299999999996,0.978900000000003 2.8803999999999945,0.9769999999999968 2.876899999999992,0.971899999999998 2.875799999999998,0.9660000000000011 2.8787999999999982,0.9611000000000018 2.8791999999999973,0.9530999999999992 2.8817999999999984,0.9478000000000009 2.880899999999997,0.938600000000001 2.878,0.9350999999999985 2.866500000000002,0.9356000000000009 2.8636999999999944,0.9405999999999963 2.829099999999997,0.933799999999998 2.828099999999992,0.9268999999999963 2.8292,0.9223999999999961 2.8366999999999933,0.9136000000000024 2.833500000000001,0.9101999999999961 2.822499999999991,0.9116 2.8186999999999927,0.9072999999999993 2.8271999999999906,0.8986999999999981 2.824299999999994,0.8941999999999979 2.815799999999996,0.8945000000000007 2.8096999999999923,0.8909999999999982 2.7933999999999912,0.8975000000000009 2.795900000000003,0.8828000000000031 2.788799999999995,0.8736999999999995 2.787300000000002,0.8691000000000031 2.7874999999999943,0.8592999999999975 2.782499999999999,0.8549000000000007 2.7763999999999953,0.8564999999999969 2.7711999999999932,0.8633000000000024 2.763999999999996,0.8584999999999994 2.759299999999996,0.8511999999999986 2.754499999999993,0.850200000000001 2.739399999999989,0.8528999999999982 2.7321999999999917,0.8504999999999967 2.7261999999999915,0.8509999999999991 2.7117999999999967,0.8588999999999984 2.6980999999999966,0.8597999999999999 2.6902999999999935,0.8667000000000016 2.6788999999999987,0.8691000000000031 2.6739000000000033,0.8729000000000013 2.6687999999999903,0.8733000000000004 2.6628999999999934,0.8695999999999984 2.657200000000003,0.8750999999999962 2.652499999999989,0.8770999999999987 2.6358000000000033,0.873899999999999 2.6303999999999945,0.878700000000002 2.6200999999999937,0.8825000000000003 2.614699999999999,0.8870999999999967 2.612399999999994,0.8928999999999974 2.6075000000000017,0.8979999999999961 2.5792,0.8947000000000003 2.568399999999997,0.8962999999999965 2.5641999999999996,0.899799999999999 2.563299999999998,0.9198999999999984 2.5537999999999954,0.9369999999999976 2.541799999999995,0.9373000000000005 2.5283999999999907,0.9418000000000006 2.5172000000000025,0.9435000000000002 2.473399999999998,0.9414000000000016 2.456800000000001,0.935299999999998 2.4448000000000008,0.9256999999999991 2.4339999999999975,0.9084000000000003 2.427899999999994,0.9014000000000024 2.423000000000002,0.8999000000000024 2.4087999999999994,0.9025999999999996 2.3977000000000004,0.9091000000000022 2.3840000000000003,0.9142999999999972 2.355499999999992,0.9172000000000011 2.3438999999999908,0.9153999999999982 2.325400000000002,0.9055999999999997 2.3168999999999897,0.9040999999999997 2.2971000000000004,0.9059999999999988 2.2851,0.9042999999999992 2.2757999999999896,0.9057000000000031 2.2623999999999995,0.9044999999999987 2.2406999999999897,0.9054999999999964 2.2220999999999975,0.9020999999999972 2.181699999999992,0.9076000000000022 2.1632999999999925,0.9125999999999976 2.155000000000001,0.9187999999999974 2.1495999999999924,0.9202000000000012 2.1433999999999997,0.9170999999999978 2.1359999999999957,0.908299999999997 2.1340000000000003,0.9014000000000024 2.125699999999995,0.8894999999999982 2.125,0.8778999999999968 2.1115999999999957,0.8673999999999964 2.1059999999999945,0.8519000000000005 2.0908000000000015,0.8502999999999972 2.0840999999999923,0.847299999999997 2.066199999999995,0.8329000000000022 2.067799999999991,0.8277000000000001 2.061300000000003,0.8175000000000026 2.0519999999999925,0.8192999999999984 2.043300000000002,0.815100000000001 2.038799999999995,0.8031999999999968 2.032200000000003,0.7956999999999965 2.028899999999993,0.7888000000000019 2.023699999999991,0.7841000000000022 2.005899999999997,0.7792999999999992 1.99969999999999,0.7689000000000021 1.9919000000000011,0.763300000000001 1.9920999999999935,0.7556999999999974 1.9846999999999895,0.7376999999999967 1.9864000000000033,0.7316999999999965 1.9908999999999963,0.7280999999999977 1.9926999999999992,0.7225999999999999 1.9868999999999915,0.7158999999999978 1.987799999999993,0.7083000000000013 1.9917999999999978,0.703400000000002 1.9932999999999907,0.6925999999999988 1.997399999999999,0.6903999999999968 2.0045999999999964,0.6897999999999982 2.0063999999999993,0.6820000000000022 1.999600000000001,0.6784999999999997 1.9960999999999984,0.6651999999999987 1.9953999999999894,0.6580999999999975 1.9983000000000004,0.6492999999999967 2.004899999999992,0.6441999999999979 2.0164999999999935,0.6460000000000008 2.0168999999999926,0.639800000000001 2.012299999999996,0.633499999999998 2.015900000000002,0.6285999999999987 2.025199999999998,0.6234999999999999 2.0275999999999925,0.6161999999999992 2.020799999999994,0.6088000000000022 2.0294999999999987,0.5959999999999965 2.032499999999999,0.5859000000000023 2.0267999999999944,0.5720000000000027 2.029699999999991,0.5655999999999963 2.035499999999999,0.5640000000000001 2.059899999999999,0.5673999999999992 2.063699999999997,0.5649999999999977 2.063299999999998,0.559199999999997 2.0386999999999915,0.5326999999999984 2.0335999999999927,0.521099999999997 2.018500000000003,0.4994999999999976 2.011799999999994,0.4947000000000017 1.9899999999999949,0.49620000000000175 1.9805999999999955,0.49199999999999733 1.9497999999999962,0.4690999999999974 1.9388000000000005,0.4493000000000009 1.9337999999999909,0.4468999999999994 1.9232999999999976,0.4450000000000003 "></polygon><polygon points="3.200400000000002,3.1492000000000004 3.158299999999997,3.1685000000000016 3.1289999999999907,3.177599999999998 3.129800000000003,3.195999999999998 3.1392000000000024,3.206800000000001 3.1433999999999997,3.206800000000001 3.1899999999999977,3.198599999999999 3.292599999999993,3.1839999999999975 3.314799999999991,3.189399999999999 3.333199999999991,3.1901999999999973 3.3432999999999993,3.1850000000000023 3.3519999999999897,3.1625999999999976 3.316599999999994,3.1435999999999993 3.2797999999999945,3.1462000000000003 3.2767999999999944,3.1225999999999985 3.2676000000000016,3.1036 3.2497999999999934,3.095799999999997 3.226399999999998,3.1118000000000023 3.210099999999997,3.1452000000000027 3.200400000000002,3.1492000000000004 "></polygon><polygon points="3.2316999999999894,4.2896 3.2235000000000014,4.299199999999999 3.197199999999995,4.313899999999997 3.1751999999999896,4.314399999999999 3.1709999999999923,4.325499999999998 3.176899999999989,4.333199999999998 3.192700000000002,4.342300000000002 3.186799999999991,4.336100000000002 3.2128000000000014,4.3277 3.2453999999999894,4.298699999999997 3.2827999999999946,4.260100000000001 3.2967000000000013,4.234200000000001 3.2922999999999973,4.228499999999997 3.2316999999999894,4.2896 "></polygon>
    </svg>
    