
    <svg width="1.9515" height="5.0264999999999995" xmlns="http://www.w3.org/2000/svg" xmlns:xlink="http://www.w3.org/1999/xlink" style="transform: scale(1, -1)">
        <polygon points="1.3416,0.0 1.3413,0.0 1.3416,0.00019999999999953388 1.3416,0.0 "></polygon><polygon points="0.768,1.7896999999999998 0.7662,1.79 0.7667,1.7901999999999996 0.768,1.7896999999999998 "></polygon><polygon points="1.5423,3.3424000000000005 1.5443,3.3327999999999998 1.5438999999999998,3.3107999999999995 1.5458999999999998,3.3015999999999996 1.5438999999999998,3.283599999999999 1.5467,3.2700000000000005 1.5471,3.2435 1.5518999999999998,3.2235000000000005 1.5620999999999998,3.2015000000000002 1.5654,3.1954000000000002 1.5751,3.1849999999999996 1.581,3.181499999999999 1.5941999999999998,3.1673999999999998 1.6038999999999999,3.1506 1.6059999999999999,3.1431999999999993 1.6194,3.1292999999999997 1.6292,3.122799999999999 1.64,3.1094 1.6703,3.0789 1.6948999999999999,3.0652 1.7033999999999998,3.0584 1.7229999999999999,3.0203999999999995 1.7421,2.9995000000000003 1.7616999999999998,2.9600999999999997 1.7595999999999998,2.951199999999999 1.7685,2.930599999999999 1.7739999999999998,2.8875 1.7677999999999998,2.8632 1.7698999999999998,2.8608000000000002 1.7661,2.8436999999999992 1.7767,2.7488 1.773,2.7190000000000003 1.7753999999999999,2.7093999999999996 1.7775999999999998,2.6845999999999988 1.7756999999999998,2.5680000000000005 1.7726,2.5361000000000002 1.7814999999999999,2.3974 1.7932,2.3792999999999997 1.7945,2.3668000000000005 1.7904,2.358299999999999 1.7836999999999998,2.320999999999999 1.7893,2.312599999999999 1.7900999999999998,2.305699999999999 1.7876999999999998,2.3016999999999994 1.7812999999999999,2.298899999999999 1.7772,2.2924999999999995 1.7708,2.268399999999999 1.7692999999999999,2.240099999999999 1.7744,2.2321999999999997 1.7809,2.2282 1.7852999999999999,2.1888999999999994 1.7799999999999998,1.88 1.7779999999999998,1.8094999999999999 1.7767,1.8057999999999996 1.7779999999999998,1.7853999999999992 1.7762,1.7746999999999993 1.7735999999999998,1.7150999999999996 1.7792999999999999,1.6987999999999994 1.7798999999999998,1.6849999999999996 1.7749,1.5650999999999993 1.7754999999999999,1.5497999999999994 1.7809,1.5298999999999996 1.7948,1.5019 1.7934999999999999,1.4366999999999992 1.8033,1.4097999999999997 1.8128,1.4065999999999992 1.8144,1.4014999999999995 1.8195,1.3950999999999993 1.8214,1.3860999999999999 1.8195,1.3828999999999994 1.7983,1.3828999999999994 1.7922,1.3808999999999996 1.7879999999999998,1.3741999999999992 1.7796999999999998,1.3050999999999995 1.7815999999999999,1.0943999999999994 1.7801,1.0945 1.7815999999999999,1.0942999999999996 1.7814999999999999,1.0139999999999993 1.7855999999999999,0.8824999999999994 1.7513999999999998,0.8840999999999992 1.7349999999999999,0.8824999999999994 1.7313999999999998,0.8832999999999993 1.7313999999999998,0.8860999999999999 1.7016,0.8864999999999998 1.7036,0.8731999999999998 1.7030999999999998,0.8595999999999995 1.7117,0.8491 1.7197,0.835 1.7207,0.8106 1.7265,0.8043999999999993 1.7368,0.7985999999999995 1.7491999999999999,0.7944999999999993 1.7495999999999998,0.7855999999999996 1.7479,0.7790999999999997 1.7506,0.7718999999999996 1.7403,0.7618999999999998 1.7386,0.7561 1.7459,0.7412999999999998 1.7435999999999998,0.7203999999999997 1.7476999999999998,0.7155999999999993 1.7572999999999999,0.7172999999999998 1.759,0.7138999999999998 1.7429,0.7010999999999994 1.7409,0.6948999999999996 1.7426,0.6890999999999998 1.7529,0.6884999999999994 1.7552999999999999,0.6866999999999992 1.7573999999999999,0.6799 1.754,0.6719999999999997 1.7523,0.6589 1.7661,0.6530999999999993 1.7698999999999998,0.6482999999999999 1.7646,0.6439999999999992 1.7621,0.6392999999999995 1.7649,0.6340999999999992 1.7634999999999998,0.6299999999999999 1.7441,0.6144999999999996 1.7368999999999999,0.6144999999999996 1.7349999999999999,0.6056999999999997 1.7362,0.5946999999999996 1.7336999999999998,0.5913999999999993 1.7287,0.5899999999999999 1.7251999999999998,0.5817999999999994 1.7205,0.5823 1.7178,0.5773999999999999 1.7217,0.5741999999999994 1.7342,0.5726999999999993 1.7375999999999998,0.5638999999999994 1.7477999999999998,0.5547999999999993 1.7554999999999998,0.5301 1.7469999999999999,0.5253999999999994 1.7469999999999999,0.5187999999999997 1.7542,0.5133999999999999 1.757,0.5050999999999997 1.7564,0.4993999999999996 1.7657999999999998,0.4897999999999998 1.771,0.4916999999999998 1.7771,0.4911999999999992 1.7806,0.4889999999999999 1.785,0.4715999999999996 1.7875999999999999,0.4692999999999996 1.8001999999999998,0.4662999999999995 1.8067,0.4726999999999997 1.8141999999999998,0.4739999999999993 1.8181999999999998,0.4715999999999996 1.8196999999999999,0.46809999999999974 1.8181999999999998,0.4615 1.8104,0.4518999999999993 1.8124,0.4463999999999997 1.8148,0.4444999999999997 1.8279999999999998,0.4490999999999996 1.8316999999999999,0.44209999999999994 1.8402999999999998,0.4418999999999995 1.8424999999999998,0.43659999999999943 1.8397,0.43129999999999935 1.8458999999999999,0.4247999999999994 1.8463999999999998,0.4014999999999995 1.8409,0.4014999999999995 1.8381999999999998,0.3981999999999992 1.8396,0.3888999999999996 1.8498999999999999,0.3860999999999999 1.8564999999999998,0.3887999999999998 1.8635,0.3838999999999997 1.8665999999999998,0.39009999999999945 1.8699,0.39029999999999987 1.873,0.38459999999999983 1.8742999999999999,0.3760999999999992 1.8792,0.3744999999999994 1.8816,0.3694999999999995 1.8779,0.36489999999999956 1.8802999999999999,0.3628999999999998 1.8846999999999998,0.36329999999999973 1.8947999999999998,0.3525999999999998 1.8969999999999998,0.3481999999999994 1.8983999999999999,0.34359999999999946 1.8971,0.3389999999999995 1.8979,0.33369999999999944 1.9017,0.32209999999999983 1.9087999999999998,0.31569999999999965 1.9166999999999998,0.3144 1.9203999999999999,0.31789999999999985 1.9247999999999998,0.3152999999999997 1.9245999999999999,0.3097999999999992 1.9215,0.3060999999999998 1.9196,0.3060999999999998 1.9193,0.30129999999999946 1.9135,0.2999999999999998 1.9132,0.28770000000000007 1.9183,0.2826999999999993 1.9147999999999998,0.2801999999999998 1.9163999999999999,0.2687999999999997 1.9259,0.2624999999999993 1.9334,0.2383999999999995 1.9318,0.23239999999999927 1.9266999999999999,0.2275999999999998 1.9309999999999998,0.2203999999999997 1.9364,0.21729999999999983 1.9424,0.20199999999999996 1.9419,0.19529999999999959 1.9337,0.19130000000000003 1.9396,0.18209999999999926 1.9495,0.1795 1.9515,0.17099999999999937 1.9411999999999998,0.16739999999999977 1.9225999999999999,0.16739999999999977 1.9093,0.1595999999999993 1.8912,0.15879999999999939 1.8834,0.1526999999999994 1.8664999999999998,0.1537999999999995 1.8586999999999998,0.14789999999999992 1.8522999999999998,0.1473999999999993 1.8471,0.1490999999999998 1.8378999999999999,0.14429999999999943 1.8283999999999998,0.1473999999999993 1.8229,0.1459999999999999 1.8165,0.1387999999999998 1.8114999999999999,0.13680000000000003 1.8007,0.13849999999999962 1.7836999999999998,0.12789999999999946 1.7733999999999999,0.12489999999999934 1.7741,0.12359999999999971 1.7617999999999998,0.12209999999999965 1.7546,0.12009999999999987 1.7505,0.11699999999999999 1.7454999999999998,0.11699999999999999 1.7322,0.11249999999999982 1.7313999999999998,0.11359999999999992 1.7302,0.1122999999999994 1.7251999999999998,0.11309999999999931 1.7197,0.11029999999999962 1.698,0.10749999999999993 1.6946999999999999,0.10559999999999992 1.6836,0.10419999999999963 1.6741,0.09999999999999964 1.66,0.09809999999999963 1.6616,0.08719999999999928 1.6607999999999998,0.08610000000000007 1.658,0.09749999999999925 1.6449999999999998,0.09640000000000004 1.6263999999999998,0.09249999999999936 1.6008,0.08420000000000005 1.5675,0.07699999999999996 1.5533,0.07139999999999969 1.5369,0.0688999999999993 1.5066,0.058399999999999785 1.4706,0.04859999999999953 1.4525,0.040299999999999336 1.4368999999999998,0.036099999999999355 1.4346999999999999,0.03390000000000004 1.4341,0.026099999999999568 1.4324999999999999,0.03339999999999943 1.4304999999999999,0.03279999999999994 1.43,0.02999999999999936 1.4271999999999998,0.027800000000000047 1.4283,0.024499999999999744 1.4177,0.024499999999999744 1.4178,0.022499999999999964 1.4358,0.022799999999999265 1.4314,0.022499999999999964 1.4313,0.02059999999999995 1.4065999999999999,0.019399999999999196 1.3916,0.016799999999999926 1.3435,0.0019999999999997797 1.3426,0.04079999999999995 1.3441999999999998,0.05609999999999982 1.2297,0.05709999999999926 1.2222,0.06049999999999933 1.2193999999999998,0.06559999999999988 1.2205,0.07079999999999931 1.2231999999999998,0.06619999999999937 1.2249999999999999,0.07139999999999969 1.2156,0.08339999999999925 1.2197,0.08289999999999953 1.2109999999999999,0.1003999999999996 1.2103,0.10749999999999993 1.1987999999999999,0.12179999999999946 1.1923,0.12189999999999923 1.1804999999999999,0.12679999999999936 1.18,0.12959999999999994 1.168,0.1452 1.1618,0.1581999999999999 1.1597,0.17569999999999997 1.1519,0.18229999999999968 1.1493,0.19949999999999957 1.152,0.21009999999999973 1.1503999999999999,0.21999999999999975 1.1476,0.22379999999999978 1.0366,0.2239999999999993 1.0325,0.23069999999999968 1.0309,0.23879999999999946 1.0278,0.24399999999999977 1.0218,0.24849999999999994 1.0184,0.2552999999999992 1.0087,0.2616999999999994 1.0059,0.2676999999999996 0.9838,0.2848999999999995 0.9701,0.2925999999999993 0.9315,0.30189999999999984 0.926,0.3229999999999995 0.8932,0.33669999999999956 0.8889,0.34689999999999976 0.8905000000000001,0.37239999999999984 0.8762,0.3732999999999995 0.8657,0.3904999999999994 0.8627,0.40059999999999985 0.8614,0.4159999999999995 0.863,0.4234 0.8929,0.4516 0.8926000000000001,0.4615 0.8864,0.47750000000000004 0.8677,0.4783999999999997 0.8557,0.4734999999999996 0.8419,0.47689999999999966 0.8357,0.48019999999999996 0.8327,0.4852999999999996 0.8347,0.48719999999999963 0.8168,0.5021999999999993 0.8109000000000001,0.4936999999999996 0.8047,0.49489999999999945 0.8004,0.49709999999999965 0.7963,0.5020999999999995 0.7973,0.5048999999999992 0.7961,0.508 0.7931,0.5088999999999997 0.7925,0.5131999999999994 0.7907000000000001,0.5139999999999993 0.7907000000000001,0.5162999999999993 0.7884,0.5170999999999992 0.7872,0.5206 0.7804,0.5183999999999997 0.7815,0.5240999999999998 0.7805,0.5252999999999997 0.784,0.5268999999999995 0.7792,0.5290999999999997 0.7795,0.5318999999999994 0.7818,0.5329999999999995 0.7813,0.5358999999999998 0.7844,0.5382999999999996 0.7827000000000001,0.5400999999999998 0.7887000000000001,0.5554999999999994 0.7867000000000001,0.5576999999999996 0.7864,0.5636999999999999 0.7877000000000001,0.5712999999999999 0.7904,0.5729999999999995 0.787,0.5778999999999996 0.7881,0.5794999999999995 0.7877000000000001,0.5857999999999999 0.7914,0.5903 0.7924,0.5952999999999999 0.7906,0.5978999999999992 0.7932,0.6012999999999993 0.7872,0.6075999999999997 0.7896,0.6197999999999997 0.7932,0.6243999999999996 0.7944,0.6238999999999999 0.7944,0.6260999999999992 0.7861,0.6324999999999994 0.7786000000000001,0.6345000000000001 0.7766000000000001,0.6373999999999995 0.7743,0.6379999999999999 0.7692,0.6358999999999995 0.7628,0.6429999999999998 0.761,0.6402999999999999 0.7581,0.6410999999999998 0.7547,0.6376999999999997 0.7531,0.6383999999999999 0.7524000000000001,0.6356999999999999 0.7449,0.6449999999999996 0.7411,0.6446999999999994 0.7358,0.6488999999999994 0.7257,0.6499999999999995 0.7157,0.6628999999999996 0.7214,0.6628999999999996 0.7104,0.6713999999999993 0.7125,0.6726999999999999 0.7102,0.6767999999999992 0.714,0.6814 0.7111000000000001,0.6853999999999996 0.7147,0.6854999999999993 0.7114,0.6910999999999996 0.7199,0.6866999999999992 0.72,0.6891999999999996 0.7218,0.6899999999999995 0.7202000000000001,0.6926999999999994 0.7238,0.6957999999999993 0.717,0.6984999999999992 0.7144,0.6974 0.7126,0.6988999999999992 0.7145,0.7014999999999993 0.71,0.7037999999999993 0.7101000000000001,0.7070999999999996 0.712,0.7075999999999993 0.7121000000000001,0.7094999999999994 0.709,0.7131999999999996 0.7050000000000001,0.7123999999999997 0.7008,0.7178999999999993 0.6992,0.7172999999999998 0.6913,0.7228999999999992 0.6883,0.7188999999999997 0.6904,0.7166999999999994 0.6847,0.7151999999999994 0.6834,0.7130999999999998 0.6759000000000001,0.7158999999999995 0.6786,0.7226999999999997 0.6758000000000001,0.7219999999999995 0.6758000000000001,0.7451999999999996 0.6872,0.7531999999999996 0.6781,0.7637999999999998 0.6785,0.7658999999999994 0.6912,0.7693999999999992 0.7012,0.7753999999999994 0.7065,0.7935999999999996 0.7068,0.8037999999999998 0.7101000000000001,0.8092999999999995 0.7035,0.8170999999999999 0.6975,0.8195999999999994 0.6940000000000001,0.8180999999999994 0.6917,0.8260999999999994 0.6890000000000001,0.8238999999999992 0.6869000000000001,0.8262 0.6699,0.8300999999999998 0.6669,0.8361999999999998 0.6703,0.8435999999999995 0.6675,0.8491999999999997 0.6697,0.8527999999999993 0.6663,0.8558999999999992 0.6665,0.8609999999999998 0.6709,0.8616999999999999 0.6791,0.8664999999999994 0.6826,0.8747999999999996 0.6925,0.8819999999999997 0.6993,0.8841999999999999 0.7004,0.883 0.7137,0.8882999999999992 0.7217,0.8853999999999997 0.7303000000000001,0.8906999999999998 0.7392,0.8908999999999994 0.7402,0.8944999999999999 0.7381,0.8975 0.7433000000000001,0.9036999999999997 0.7467,0.9116999999999997 0.7448,0.9184999999999999 0.7464000000000001,0.9235999999999995 0.7411,0.9484999999999992 0.7554000000000001,0.9728999999999992 0.7587,0.9836999999999998 0.7557,0.9859999999999998 0.7581,0.9889999999999999 0.7558,0.9943999999999997 0.7463,0.9971999999999994 0.7451,1.0010999999999992 0.7419,1.0027999999999997 0.7379,1.0025999999999993 0.7359,1.0002999999999993 0.7361,1.0021999999999993 0.7384000000000001,1.0073999999999996 0.7409,1.0221 0.7479,1.0261999999999993 0.7491,1.0294999999999996 0.7496,1.0459999999999994 0.751,1.0469999999999997 0.7573,1.0453999999999999 0.7609,1.0500999999999996 0.7622,1.0560999999999998 0.7596,1.0648 0.7612,1.0709999999999997 0.7651,1.0728999999999997 0.7689,1.0713 0.7753,1.0848999999999993 0.7777000000000001,1.1080999999999994 0.7832,1.1132 0.7827000000000001,1.1256999999999993 0.7845,1.1374999999999993 0.788,1.1453999999999995 0.7872,1.1681999999999997 0.7903,1.1791 0.7942,1.1796999999999995 0.8015,1.1978999999999997 0.8029000000000001,1.2050999999999998 0.7976,1.2201999999999993 0.7933,1.2426999999999992 0.7872,1.2634999999999996 0.7922,1.2674999999999992 0.7892,1.274 0.7887000000000001,1.2863999999999995 0.7854,1.2902999999999993 0.7781,1.2921999999999993 0.7753,1.2914999999999992 0.7718,1.2938 0.7693,1.2996999999999996 0.7636000000000001,1.3017999999999992 0.7592,1.2989999999999995 0.7543,1.2986999999999993 0.7501,1.2942 0.7452,1.2962999999999996 0.7426,1.2886999999999995 0.7171000000000001,1.2832 0.7105,1.2877 0.7057,1.2870999999999997 0.6971,1.2936999999999994 0.6939000000000001,1.3003 0.6893,1.3034999999999997 0.6866,1.3112999999999992 0.6827,1.3104999999999993 0.6823,1.314 0.6799000000000001,1.3148 0.682,1.319 0.6814,1.3232 0.6782,1.3274999999999997 0.6789000000000001,1.3297999999999996 0.6761,1.3318999999999992 0.6782,1.3356999999999992 0.6746,1.3357999999999999 0.6748000000000001,1.3375999999999992 0.6763,1.3366999999999996 0.6779000000000001,1.3382999999999994 0.6757,1.3403999999999998 0.6775,1.3415999999999997 0.675,1.3434 0.6761,1.3457 0.6703,1.3466999999999993 0.6651,1.3431999999999995 0.6664,1.3477999999999994 0.6629,1.3492999999999995 0.6656,1.3516999999999992 0.669,1.3520999999999992 0.6655,1.3534999999999995 0.6674,1.3568999999999996 0.6649,1.3567999999999998 0.6637000000000001,1.3582999999999998 0.6652,1.3622999999999994 0.6688000000000001,1.3632 0.6739,1.3695999999999993 0.6713,1.3689 0.67,1.3713999999999995 0.6735,1.3746999999999998 0.6699,1.3758 0.6725,1.3794999999999993 0.6671,1.3820999999999994 0.6681,1.3911999999999995 0.6658000000000001,1.3923999999999994 0.6642,1.3972999999999995 0.6655,1.3984999999999994 0.663,1.4009999999999998 0.6654,1.4085999999999999 0.673,1.4726999999999997 0.6713,1.4779 0.6642,1.4784999999999995 0.6624,1.4807999999999995 0.6749,1.4857999999999993 0.6798000000000001,1.4901 0.6806,1.4930999999999992 0.6876,1.4966 0.6975,1.4955999999999996 0.7025,1.5008 0.73,1.5123999999999995 0.7309,1.5169999999999995 0.7288,1.5195999999999996 0.7268,1.5453999999999999 0.7305,1.5593999999999992 0.7347,1.5915 0.743,1.5973999999999995 0.7528,1.5993999999999993 0.7636000000000001,1.5916999999999994 0.771,1.5926 0.7741,1.5946999999999996 0.7675000000000001,1.6025999999999998 0.7604,1.6273 0.7609,1.6334 0.7554000000000001,1.6412999999999993 0.7571,1.6450999999999993 0.7639,1.646 0.7631,1.6528 0.7715,1.6536 0.775,1.6570999999999998 0.7737,1.6735999999999995 0.7709,1.6770999999999994 0.7735,1.6803999999999997 0.7735,1.6829999999999998 0.7676000000000001,1.6825999999999999 0.7611,1.6846999999999994 0.7654,1.6879999999999997 0.7618,1.6915999999999993 0.7614,1.6951999999999998 0.7639,1.7112999999999996 0.7636000000000001,1.7200999999999995 0.7658,1.7242999999999995 0.7638,1.726 0.7649,1.7302999999999997 0.768,1.7307999999999995 0.7702,1.7388999999999992 0.7714,1.7566999999999995 0.7673,1.7599 0.766,1.7664999999999997 0.7679,1.7723999999999993 0.7638,1.7889999999999997 0.7721,1.7902999999999993 0.7718,1.7974999999999994 0.7763,1.8030999999999997 0.771,1.8056999999999999 0.7753,1.8077999999999994 0.7706000000000001,1.8137999999999996 0.7712,1.8203999999999994 0.7653,1.8247999999999998 0.767,1.8277999999999999 0.7659,1.8299999999999992 0.7683,1.8335 0.7663,1.8350999999999997 0.7678,1.8380999999999998 0.7653,1.8409999999999993 0.768,1.8460999999999999 0.7677,1.851 0.7646000000000001,1.8522999999999996 0.7647,1.8544999999999998 0.7612,1.8534999999999995 0.7623,1.8584999999999994 0.7602,1.8607999999999993 0.7609,1.8674 0.7589,1.8695999999999993 0.7613,1.8746999999999998 0.7595000000000001,1.8841999999999999 0.7576,1.8855999999999993 0.7586,1.8891 0.7566,1.8941999999999988 0.7665000000000001,1.8962999999999992 0.7661,1.9029999999999996 0.7654,1.9050000000000002 0.7627,1.9044999999999996 0.7573,1.9078999999999988 0.758,1.9096000000000002 0.7536,1.9156000000000004 0.7457,1.9141000000000004 0.7426,1.9154999999999989 0.7426,1.9190999999999994 0.7381,1.928399999999999 0.7419,1.9332000000000003 0.74,1.9371999999999998 0.7429,1.941399999999999 0.7428,1.9467999999999988 0.7413000000000001,1.9511999999999992 0.7388,1.9488999999999992 0.7367,1.9491000000000005 0.7338,1.9684999999999997 0.729,1.981799999999999 0.7312000000000001,1.991699999999999 0.7334,1.9905 0.7359,1.991699999999999 0.7356,2.004699999999999 0.7383000000000001,2.0158999999999994 0.7354,2.0248 0.7361,2.027499999999999 0.7509,2.0272999999999994 0.7553,2.0425999999999993 0.7535000000000001,2.055699999999999 0.751,2.0607999999999995 0.7551,2.0628 0.7579,2.068599999999999 0.7573,2.0727 0.7509,2.069499999999999 0.7472,2.0698999999999996 0.7449,2.0744 0.7338,2.0835 0.7331,2.089299999999999 0.734,2.0962000000000005 0.7438,2.101 0.7527,2.1025 0.7546,2.1047000000000002 0.757,2.1027999999999993 0.7631,2.1035999999999992 0.7629,2.1080999999999994 0.7694,2.1133999999999995 0.7704,2.1195999999999993 0.7686000000000001,2.124299999999999 0.7779,2.132699999999999 0.7823,2.1336000000000004 0.7823,2.1408999999999994 0.7806000000000001,2.143399999999999 0.7829,2.1491 0.7916,2.147899999999999 0.8106,2.1491 0.8175,2.1475 0.8259,2.154699999999999 0.8272,2.163099999999999 0.8254,2.1651 0.8269,2.1681 0.8327,2.1703 0.8704000000000001,2.169999999999999 0.8714000000000001,2.1743999999999994 0.875,2.1772 0.8738,2.179999999999999 0.8753,2.1827999999999994 0.8733,2.1986 0.875,2.2039 0.8728,2.2046 0.8744000000000001,2.205799999999999 0.8734000000000001,2.2107 0.8717,2.2109999999999994 0.8745,2.212699999999999 0.873,2.216599999999999 0.8734000000000001,2.2215999999999996 0.8709,2.2253 0.8734000000000001,2.2296000000000005 0.8722,2.2321 0.8667,2.233299999999999 0.8616,2.231799999999999 0.8611,2.2336 0.8641,2.237899999999999 0.8584,2.2399999999999993 0.8575,2.2383999999999995 0.8541,2.2404 0.8543000000000001,2.243099999999999 0.8564,2.2444999999999995 0.8544,2.245 0.8535,2.2472000000000003 0.855,2.248599999999999 0.8534,2.2517000000000005 0.8556,2.255 0.853,2.2564 0.854,2.2601000000000004 0.8522000000000001,2.260699999999999 0.8561,2.265199999999999 0.8524,2.265999999999999 0.8552000000000001,2.2679 0.852,2.2724 0.8535,2.2734999999999994 0.8429,2.2772999999999994 0.8499,2.2813999999999988 0.8495,2.2830000000000004 0.8373,2.2833999999999994 0.8392000000000001,2.2868000000000004 0.8374,2.2885999999999997 0.8401000000000001,2.292799999999999 0.836,2.2923 0.8323,2.2939 0.8300000000000001,2.2996999999999987 0.8231,2.2983000000000002 0.8190000000000001,2.3006 0.8154,2.3053 0.8045,2.3089000000000004 0.7982,2.3084999999999996 0.7958000000000001,2.3105 0.7972,2.3137 0.796,2.3165000000000004 0.7981,2.317199999999999 0.7961,2.3181000000000003 0.7956,2.3219000000000003 0.7956,2.3236 0.7975,2.3243 0.7962,2.3288 0.7977,2.3313999999999995 0.7955,2.3367999999999993 0.796,2.3403 0.7998000000000001,2.3413999999999993 0.7998000000000001,2.3438999999999988 0.7949,2.349099999999999 0.7954,2.352899999999999 0.793,2.3564 0.7929,2.360499999999999 0.789,2.3638000000000003 0.7899,2.3752000000000004 0.7914,2.3779999999999992 0.7893,2.3823 0.7837000000000001,2.3862999999999994 0.7739,2.384999999999999 0.7701,2.3912000000000004 0.7736000000000001,2.396299999999999 0.7652,2.4006 0.7558,2.4012000000000002 0.7493,2.4036 0.7458,2.4066 0.735,2.4052 0.731,2.4126000000000003 0.729,2.4133000000000004 0.7283000000000001,2.4171000000000005 0.7193,2.416999999999999 0.7157,2.4144999999999994 0.7151000000000001,2.4213999999999993 0.7094,2.4271000000000003 0.7086,2.4332000000000003 0.7041000000000001,2.438399999999999 0.7004,2.4385000000000003 0.6978,2.4419999999999993 0.6922,2.4417999999999997 0.6864,2.444499999999999 0.6798000000000001,2.449699999999999 0.6785,2.4553000000000003 0.6736,2.4585 0.6683,2.4547 0.658,2.4537000000000004 0.652,2.4616 0.6462,2.4636000000000005 0.6451,2.4617999999999993 0.6436,2.462699999999999 0.6455,2.4667000000000003 0.6447,2.4699 0.6419,2.4722999999999997 0.6398,2.4821 0.6358,2.4859999999999998 0.6273,2.485599999999999 0.626,2.487099999999999 0.6232,2.4851 0.6241,2.4822999999999995 0.6157,2.4882 0.5275,2.6291 0.5286,2.6338 0.5182,2.643 0.5253,2.6416999999999993 0.5408,2.6422999999999996 0.5451,2.6452 0.5432,2.650199999999999 0.5406,2.645599999999999 0.5403,2.6499999999999995 0.5333,2.6502999999999988 0.5229,2.6603000000000003 0.5259,2.666299999999999 0.5236,2.6795 0.5251,2.6818999999999997 0.5284,2.6795999999999998 0.533,2.6795 0.5357999999999999,2.684 0.54,2.6843999999999992 0.5405,2.6832000000000003 0.5378999999999999,2.6817 0.5418,2.6787 0.5468999999999999,2.682299999999999 0.5652,2.6797999999999993 0.5680999999999999,2.6781999999999995 0.5673,2.6704999999999997 0.5696,2.668399999999999 0.5781,2.6734 0.582,2.6726 0.5839,2.6741 0.5851999999999999,2.677599999999999 0.5834,2.6817 0.581,2.682999999999999 0.575,2.679099999999999 0.5737,2.680599999999999 0.5742,2.6845999999999988 0.5764,2.687599999999999 0.5871,2.6904999999999992 0.5918,2.6993 0.6027,2.6991000000000005 0.6032,2.690599999999999 0.6073999999999999,2.6895 0.6127,2.680599999999999 0.6144999999999999,2.6819999999999995 0.6147,2.6864999999999997 0.6164,2.6881999999999993 0.6251,2.686699999999999 0.6349,2.6887999999999996 0.6442,2.702799999999999 0.6394,2.7089999999999987 0.6409,2.7161 0.6455,2.7176 0.6411,2.7230999999999996 0.6402,2.7285999999999992 0.6475,2.7357000000000005 0.6513,2.7359 0.6529,2.743999999999999 0.6637000000000001,2.741699999999999 0.6655,2.7474 0.6612,2.7527 0.6642,2.760799999999999 0.6686,2.764599999999999 0.6696,2.7633 0.6716,2.7663 0.6692,2.771399999999999 0.6664,2.7724 0.6662,2.778299999999999 0.6641,2.7787999999999995 0.6621,2.7846 0.6591,2.7869 0.6593,2.79 0.6563,2.7910999999999992 0.6567000000000001,2.802599999999999 0.6529,2.806399999999999 0.6542,2.8074000000000003 0.6534,2.8091999999999997 0.6582,2.8145 0.6567000000000001,2.8181000000000003 0.6587000000000001,2.823899999999999 0.6533,2.8310000000000004 0.6538,2.8335 0.6514,2.8379000000000003 0.6382,2.8457999999999997 0.6138,2.8960999999999997 0.6144,2.9076999999999993 0.6091,2.9114999999999993 0.6067,2.918 0.6071,2.9226 0.5995,2.9241 0.6003,2.943599999999999 0.6066,2.9438000000000004 0.6083,2.960499999999999 0.6033999999999999,2.9608999999999996 0.6224999999999999,2.9876999999999994 0.6299,2.9871999999999987 0.6285999999999999,2.989399999999999 0.6292,2.995399999999999 0.6313,2.9997999999999996 0.6274,3.0064 0.6293,3.0118 0.6255999999999999,3.0203999999999995 0.6257,3.0248999999999997 0.6242,3.0256 0.6251,3.0293 0.6209,3.032799999999999 0.6231,3.0347999999999997 0.625,3.0340999999999996 0.6259,3.037 0.6319,3.0401 0.6329,3.0392 0.6351,3.0424999999999995 0.6399,3.0446 0.6421,3.0429000000000004 0.6447,3.0431999999999997 0.6449,3.0417999999999994 0.647,3.0423999999999998 0.6487,3.048899999999999 0.6558,3.052599999999999 0.6585,3.057299999999999 0.658,3.061099999999999 0.6604,3.0675 0.6624,3.0684999999999993 0.666,3.0765000000000002 0.6659,3.0819 0.6689,3.0835 0.6692,3.0858 0.6712,3.086199999999999 0.6831,3.1019999999999994 0.6717,3.1087999999999996 0.6629,3.1178 0.6615,3.123599999999999 0.6593,3.1256999999999993 0.652,3.1430999999999996 0.6599,3.1612999999999998 0.6846,3.1896999999999993 0.6814,3.1902999999999997 0.6837,3.1948 0.7038,3.1941999999999995 0.7077,3.205799999999999 0.707,3.213 0.7017,3.2192 0.6968,3.2342000000000004 0.7071000000000001,3.2429999999999994 0.7106,3.2940999999999994 0.7065,3.2977 0.7015,3.298899999999999 0.6995,3.3107999999999995 0.6973,3.3122999999999996 0.6928,3.3105 0.6909000000000001,3.3122999999999996 0.6825,3.3138999999999994 0.6801,3.3176999999999994 0.6773,3.3166 0.6757,3.3175 0.6762,3.3196000000000003 0.6713,3.3189 0.6685,3.320099999999999 0.6672,3.321699999999999 0.6677000000000001,3.3249000000000004 0.6636,3.3282 0.6582,3.3260999999999994 0.6558,3.3268999999999993 0.6527000000000001,3.3245999999999993 0.652,3.3266 0.6496000000000001,3.326199999999999 0.6499,3.3274999999999997 0.6478,3.328499999999999 0.6464,3.325599999999999 0.6446000000000001,3.3259 0.6428,3.3311 0.6443,3.3316999999999988 0.6398,3.3343 0.6412,3.3371000000000004 0.6391,3.3404 0.6416999999999999,3.3413999999999993 0.6423,3.3442999999999996 0.648,3.3465 0.6497,3.355999999999999 0.6486000000000001,3.3573999999999993 0.6467,3.3565999999999994 0.6473,3.3578 0.6447,3.360599999999999 0.6476000000000001,3.3624 0.6471,3.3638000000000003 0.6416,3.3662 0.6413,3.3682999999999987 0.6377,3.3695999999999993 0.6382,3.3707000000000003 0.6364,3.3708 0.6331,3.3753 0.6258,3.3737000000000004 0.6246,3.3760000000000003 0.6232,3.3747 0.6184,3.378899999999999 0.6117,3.3778999999999995 0.6097,3.3801999999999994 0.6075,3.3786999999999994 0.6055,3.3817999999999993 0.6063,3.3829000000000002 0.6029,3.381999999999999 0.6026,3.384999999999999 0.6008,3.386499999999999 0.5957,3.3869 0.5904,3.3899 0.574,3.386499999999999 0.5719,3.3884 0.5616,3.3885999999999994 0.5615,3.390299999999999 0.5596,3.390999999999999 0.5578,3.3876999999999997 0.5562,3.3884999999999996 0.5554,3.3855999999999993 0.5525,3.3855999999999993 0.5517,3.382599999999999 0.5458,3.3838999999999997 0.5443,3.3816999999999995 0.543,3.383 0.5416,3.381099999999999 0.5405,3.3821000000000003 0.5335,3.3800999999999997 0.53,3.3823 0.5282,3.3801999999999994 0.5206,3.3816999999999995 0.5035999999999999,3.3876999999999997 0.4991,3.3824999999999994 0.49439999999999995,3.3815 0.49449999999999994,3.378899999999999 0.4877,3.3768000000000002 0.4888,3.372699999999999 0.4921,3.3701 0.4919,3.3663 0.4881,3.3546000000000005 0.48650000000000004,3.3539000000000003 0.48519999999999996,3.3466999999999993 0.48160000000000003,3.3404 0.4788,3.3396 0.4778,3.341 0.47550000000000003,3.3367999999999993 0.47419999999999995,3.338399999999999 0.471,3.3352999999999993 0.46619999999999995,3.3375999999999992 0.46409999999999996,3.334699999999999 0.4567,3.3348000000000004 0.4485,3.3297999999999996 0.4488,3.3268999999999993 0.4448,3.3273 0.4433,3.3245999999999993 0.44179999999999997,3.325499999999999 0.4363,3.323899999999999 0.43410000000000004,3.321699999999999 0.43299999999999994,3.3229999999999995 0.4314,3.319 0.4306,3.3211000000000004 0.42869999999999997,3.3183 0.42200000000000004,3.3175999999999997 0.42089999999999994,3.3190999999999997 0.41989999999999994,3.3159 0.4175,3.3159 0.4163,3.317799999999999 0.41300000000000003,3.3168999999999995 0.41389999999999993,3.320099999999999 0.40959999999999996,3.319 0.4101,3.3175999999999997 0.4052,3.3169999999999993 0.40290000000000004,3.3191999999999995 0.4042,3.3213 0.403,3.3227 0.3909,3.3267999999999995 0.3908,3.3320999999999996 0.3727,3.3516000000000004 0.37070000000000003,3.3669000000000002 0.37339999999999995,3.3760000000000003 0.3787,3.376599999999999 0.3983,3.366699999999999 0.41100000000000003,3.367399999999999 0.4154,3.3686999999999996 0.41989999999999994,3.3771999999999993 0.43289999999999995,3.3779999999999992 0.43499999999999994,3.3815999999999997 0.45189999999999997,3.390199999999999 0.4546,3.3937 0.4535,3.3998 0.44999999999999996,3.4037999999999995 0.43399999999999994,3.4120999999999997 0.42669999999999997,3.4135 0.4144,3.4095000000000004 0.3992,3.4073 0.387,3.4124999999999988 0.38029999999999997,3.4242 0.3786,3.4365999999999994 0.383,3.451199999999999 0.38249999999999995,3.459699999999999 0.3839,3.4631999999999996 0.38739999999999997,3.4647999999999994 0.3974,3.4631999999999996 0.40969999999999995,3.455799999999999 0.4151,3.457399999999999 0.4193,3.4616 0.4335,3.4655999999999993 0.4424,3.464299999999999 0.45319999999999994,3.4661999999999997 0.4625,3.4644000000000004 0.46950000000000003,3.4676 0.47839999999999994,3.4677 0.48519999999999996,3.4662999999999995 0.48939999999999995,3.4617999999999993 0.4958,3.461199999999999 0.5123,3.465699999999999 0.5234,3.4745 0.5269,3.4800999999999993 0.5166999999999999,3.4966999999999997 0.5231,3.517599999999999 0.526,3.5333999999999994 0.5208,3.531999999999999 0.5196,3.5355999999999996 0.521,3.538899999999999 0.519,3.5394999999999994 0.5195,3.5423999999999998 0.517,3.543 0.5161,3.5410999999999992 0.5131,3.5407 0.5141,3.544199999999999 0.5115999999999999,3.544299999999999 0.511,3.5485999999999995 0.5091,3.5492 0.5122,3.5545999999999998 0.5099,3.5574000000000003 0.5093,3.5561999999999996 0.5067,3.5570999999999993 0.5072,3.5619000000000005 0.5025,3.5645 0.5014,3.5635000000000003 0.4969,3.5654999999999992 0.49460000000000004,3.5644 0.49539999999999995,3.5814999999999992 0.4898,3.602999999999999 0.4819,3.609799999999999 0.46629999999999994,3.6117 0.4627,3.616699999999999 0.469,3.628899999999999 0.4739,3.6473000000000004 0.4738,3.6534000000000004 0.46940000000000004,3.6620999999999997 0.471,3.6635999999999997 0.476,3.6635 0.47939999999999994,3.6671000000000005 0.47819999999999996,3.6734 0.47450000000000003,3.6801000000000004 0.47550000000000003,3.6872999999999996 0.48439999999999994,3.6948 0.48429999999999995,3.705799999999999 0.4928,3.714199999999999 0.4968,3.727199999999999 0.5021,3.736999999999999 0.4979,3.7579000000000002 0.49839999999999995,3.7611 0.49529999999999996,3.7709 0.497,3.7775999999999987 0.49539999999999995,3.792699999999999 0.49829999999999997,3.8084 0.5045999999999999,3.8188000000000004 0.5224,3.8230999999999993 0.5305,3.8266 0.5301,3.8388999999999998 0.5189,3.8465 0.5136999999999999,3.8525 0.5055,3.8678999999999997 0.503,3.8755999999999995 0.501,3.8855999999999993 0.5055999999999999,3.893299999999999 0.508,3.904799999999999 0.5043,3.913999999999999 0.5042,3.9179000000000004 0.507,3.9227 0.5092,3.9234999999999998 0.5196999999999999,3.915499999999999 0.5381,3.914599999999999 0.546,3.9089 0.5544,3.910199999999999 0.5559999999999999,3.912 0.5557,3.916299999999999 0.5579999999999999,3.9226 0.5568,3.9339000000000004 0.5614,3.9464999999999995 0.5589,3.9516999999999998 0.5392,3.9693999999999994 0.5242,3.973 0.5085,3.9737999999999998 0.5048,3.975699999999999 0.499,3.9807999999999995 0.4961,3.9905999999999997 0.4962,4.0004 0.5005,4.008 0.5021,4.0177000000000005 0.5071,4.0264 0.5061,4.034399999999999 0.4968,4.0483 0.4942,4.056499999999999 0.4969,4.061799999999999 0.4972,4.0719 0.495,4.0804 0.49939999999999996,4.0888 0.499,4.1018 0.5042,4.1077 0.5052,4.1109 0.5035999999999999,4.1238 0.5051,4.147099999999999 0.5079,4.1536 0.5164,4.1549000000000005 0.5256,4.162399999999999 0.5255,4.165299999999999 0.5163,4.1688 0.5134,4.173699999999999 0.5156999999999999,4.1743 0.5168,4.1717 0.5181,4.1742 0.5164,4.1756 0.5168,4.176899999999999 0.5198,4.1771 0.522,4.175299999999999 0.5206999999999999,4.1796 0.5226999999999999,4.1831000000000005 0.5285,4.1856 0.5264,4.1869000000000005 0.5271,4.1885 0.5321,4.1926 0.5353,4.1911 0.5408999999999999,4.1930000000000005 0.5416,4.1979999999999995 0.54,4.202699999999999 0.5347,4.204399999999999 0.5248,4.2017999999999995 0.5206999999999999,4.202799999999999 0.5105,4.1991000000000005 0.5027,4.1994 0.497,4.2024 0.492,4.1961 0.4797,4.197499999999999 0.47639999999999993,4.2 0.47539999999999993,4.1971 0.4736,4.1972 0.4728,4.1999 0.469,4.1953000000000005 0.46529999999999994,4.1984 0.4626,4.1971 0.46009999999999995,4.2 0.46640000000000004,4.201899999999999 0.46709999999999996,4.2083 0.47650000000000003,4.212799999999999 0.48119999999999996,4.2124 0.4818,4.213499999999999 0.47750000000000004,4.224899999999999 0.4736,4.2251 0.47209999999999996,4.227999999999999 0.46909999999999996,4.2284999999999995 0.4648,4.222499999999999 0.45930000000000004,4.226299999999999 0.46040000000000003,4.236999999999999 0.45809999999999995,4.2414 0.45840000000000003,4.248499999999999 0.45599999999999996,4.253899999999999 0.45230000000000004,4.256099999999999 0.4516,4.2596 0.4468,4.258 0.44520000000000004,4.261299999999999 0.43410000000000004,4.265 0.43699999999999994,4.268999999999999 0.43479999999999996,4.2702 0.4396,4.2725 0.44409999999999994,4.2793 0.44420000000000004,4.291299999999999 0.44220000000000004,4.292599999999999 0.44199999999999995,4.297999999999999 0.43889999999999996,4.297399999999999 0.43809999999999993,4.2992 0.43399999999999994,4.2976 0.43179999999999996,4.301099999999999 0.4327,4.3029 0.42999999999999994,4.309599999999999 0.42769999999999997,4.3104000000000005 0.42500000000000004,4.307999999999999 0.42289999999999994,4.3099 0.42169999999999996,4.3074 0.41689999999999994,4.3092999999999995 0.4144,4.303999999999999 0.41059999999999997,4.304099999999999 0.41090000000000004,4.3008999999999995 0.4131,4.3005 0.4124,4.2985999999999995 0.4083,4.2975 0.40769999999999995,4.2991 0.40359999999999996,4.2963 0.4023,4.2982000000000005 0.39480000000000004,4.2977 0.3933,4.301799999999999 0.3906,4.301199999999999 0.38749999999999996,4.3043000000000005 0.38549999999999995,4.3031 0.38139999999999996,4.3043000000000005 0.3807,4.3008 0.3778,4.301899999999999 0.3705,4.3104000000000005 0.36629999999999996,4.311699999999999 0.3616,4.310899999999999 0.3646,4.313299999999999 0.36119999999999997,4.315 0.359,4.3114 0.35429999999999995,4.310099999999999 0.35419999999999996,4.307099999999999 0.3558,4.3053 0.34919999999999995,4.3068 0.3534,4.2939 0.3504,4.292699999999999 0.3503,4.295599999999999 0.3458,4.2954 0.3367,4.2909999999999995 0.3335,4.2978 0.33440000000000003,4.3021 0.33240000000000003,4.3069 0.3292,4.305599999999999 0.3262,4.3115 0.3228,4.3137 0.3194,4.312499999999999 0.31679999999999997,4.3168 0.3136,4.317799999999999 0.31489999999999996,4.321799999999999 0.3107,4.3298 0.3131,4.3313999999999995 0.3136,4.333699999999999 0.3145,4.333199999999999 0.3142,4.3349 0.3165,4.335299999999999 0.3161,4.3396 0.31389999999999996,4.341399999999999 0.3125,4.339799999999999 0.3087,4.3419 0.3071,4.3456 0.30569999999999997,4.344499999999999 0.30579999999999996,4.3488 0.3003,4.3508000000000004 0.2985,4.353799999999999 0.2985,4.3557 0.3013,4.3562 0.3032,4.362099999999999 0.301,4.365899999999999 0.2984,4.3662 0.2991,4.368099999999999 0.2973,4.3702 0.2985,4.3731 0.29469999999999996,4.3761 0.2959,4.3793999999999995 0.2942,4.383399999999999 0.295,4.385699999999999 0.2911,4.3899 0.292,4.3928 0.28969999999999996,4.398699999999999 0.2914,4.4019 0.2883,4.4034 0.28969999999999996,4.404799999999999 0.2882,4.4087000000000005 0.2892,4.4096 0.28659999999999997,4.4151 0.27190000000000003,4.418499999999999 0.2617,4.429799999999999 0.2044,4.4501 0.2041,4.4608 0.2002,4.472 0.18689999999999998,4.4827 0.1868,4.485399999999999 0.1848,4.4866 0.1853,4.490099999999999 0.1422,4.5020999999999995 0.1409,4.5035 0.1377,4.5033 0.1374,4.504599999999999 0.13219999999999998,4.5043999999999995 0.12819999999999998,4.509899999999999 0.1283,4.512 0.09089999999999998,4.5193 0.0837,4.522199999999999 0.07359999999999998,4.549699999999999 0.07399999999999998,4.557199999999999 0.07239999999999999,4.5623 0.06559999999999999,4.5790999999999995 0.05339999999999999,4.597599999999999 0.053599999999999995,4.6004 0.056699999999999987,4.604499999999999 0.06749999999999999,4.6063 0.071,4.6084000000000005 0.06919999999999998,4.618999999999999 0.07259999999999998,4.6305000000000005 0.07059999999999998,4.634299999999999 0.06939999999999999,4.6453999999999995 0.0739,4.652499999999999 0.071,4.658499999999999 0.07609999999999999,4.662 0.07939999999999998,4.6612 0.08719999999999999,4.6748 0.09439999999999998,4.679799999999999 0.09849999999999999,4.6809 0.09999999999999999,4.687499999999999 0.10569999999999999,4.693499999999999 0.11259999999999999,4.695899999999999 0.11449999999999999,4.703599999999999 0.12179999999999999,4.708199999999999 0.12009999999999998,4.7123 0.12129999999999999,4.720199999999999 0.11539999999999999,4.730999999999999 0.1141,4.7444 0.1152,4.749299999999999 0.11889999999999999,4.7543999999999995 0.11769999999999999,4.759099999999999 0.1195,4.759299999999999 0.11789999999999999,4.765999999999999 0.11869999999999999,4.769899999999999 0.1261,4.778199999999999 0.1256,4.779599999999999 0.1284,4.7832 0.1283,4.787999999999999 0.1309,4.7906 0.13119999999999998,4.794 0.1291,4.7947 0.1364,4.8031 0.13499999999999998,4.8043000000000005 0.1367,4.806399999999999 0.1362,4.8091 0.1318,4.812499999999999 0.1339,4.816299999999999 0.1316,4.8265 0.13219999999999998,4.832399999999999 0.1366,4.8342 0.13629999999999998,4.841599999999999 0.13849999999999998,4.842299999999999 0.13929999999999998,4.847699999999999 0.13749999999999998,4.849099999999999 0.1382,4.852099999999999 0.16879999999999998,4.861 0.17179999999999998,4.8671999999999995 0.1752,4.869599999999999 0.17429999999999998,4.8717999999999995 0.1779,4.881099999999999 0.1727,4.892 0.16829999999999998,4.9514000000000005 0.148,4.9712000000000005 0.14559999999999998,4.9777 0.14609999999999998,4.9835 0.14329999999999998,4.9873 0.1386,4.989299999999999 0.1399,4.992 0.1391,4.996299999999999 0.1293,4.999199999999999 0.1291,5.0012 0.126,5.0028 0.1243,5.0028999999999995 0.12209999999999999,5.000099999999999 0.11589999999999999,4.999999999999999 0.10519999999999999,4.993099999999999 0.1036,4.9937 0.10089999999999999,4.989999999999999 0.09809999999999999,4.9891 0.09789999999999999,4.986 0.09449999999999999,4.9837 0.08959999999999999,4.9746 0.07989999999999998,4.9752 0.07649999999999998,4.9731 0.07229999999999999,4.974899999999999 0.06309999999999999,4.972599999999999 0.057599999999999985,4.975499999999999 0.04909999999999999,4.9744 0.043099999999999986,4.9773000000000005 0.03989999999999999,4.9827 0.02919999999999999,4.9874 0.02489999999999999,4.987699999999999 0.019199999999999995,4.9934 0.00839999999999999,4.9952 0.0015999999999999903,4.9937 0.0003999999999999837,4.9951 0.0016999999999999793,4.997799999999999 0.0,5.0073 0.0021999999999999797,5.0119 0.009799999999999975,5.018 0.00899999999999998,5.0256 0.011399999999999993,5.0249 0.012299999999999978,5.0264999999999995 0.02869999999999999,5.023499999999999 0.05049999999999999,5.0178 0.08929999999999999,5.014 0.13749999999999998,5.0042 0.1795,4.9998 0.2448,4.9814 0.2901,4.973 0.3353,4.9601 0.41059999999999997,4.9453000000000005 0.4355,4.938899999999999 0.5033,4.9332 0.5579999999999999,4.9212 0.5889,4.9118 0.6479,4.9012 0.6467,4.8928 0.6354,4.8754 0.639,4.8732 0.6511,4.8732 0.6538,4.8663 0.6532,4.8411 0.6448,4.8251 0.6817,4.8463 0.6947,4.8557 0.7195,4.8671999999999995 0.7262000000000001,4.867499999999999 0.735,4.8645000000000005 0.7553,4.8732 0.7831,4.888099999999999 0.8149000000000001,4.886 0.8585,4.8869 0.8855000000000001,4.8847 0.9921,4.886 0.9984000000000001,4.8838 1.0121,4.8838 1.0418,4.8866000000000005 1.0451,4.8844 1.0563,4.884999999999999 1.0442,4.8426 1.0435999999999999,4.8333 1.0342,4.808699999999999 1.0351,4.8015 1.0448,4.7754 1.029,4.749999999999999 1.0177,4.6949 1.012,4.6834999999999996 0.9808,4.643299999999999 0.9694,4.615899999999999 0.9675,4.6078 0.9637,4.5993 0.959,4.593099999999999 0.9567,4.579899999999999 0.9505,4.4697000000000005 0.9454,4.447399999999999 0.9357,4.4241 0.9314,4.408 0.9275,4.4011000000000005 0.9264,4.372099999999999 0.9187000000000001,4.3005 0.9198000000000001,4.2869 0.9183,4.273599999999999 0.9675,4.2395000000000005 1.0037,4.2094 1.097,4.1405 1.1408,4.103699999999999 1.144,4.1085 1.5081,3.9006 1.5101,3.8907999999999996 1.5109,3.8625999999999996 1.5078999999999998,3.7742999999999993 1.5104,3.7116999999999996 1.5108,3.6392999999999995 1.5072999999999999,3.5857 1.5137999999999998,3.5500999999999996 1.5106,3.5384 1.5106,3.499999999999999 1.4865,3.4342999999999995 1.4916999999999998,3.4250999999999996 1.5032999999999999,3.396299999999999 1.5025,3.3786999999999994 1.5047,3.3754999999999997 1.5093999999999999,3.3740999999999994 1.5337999999999998,3.385699999999999 1.5388,3.3685 1.5423,3.3424000000000005 "></polygon><polygon points="0.5155,3.5012 0.5153,3.5017000000000005 0.515,3.503899999999999 0.5155,3.5012 "></polygon><polygon points="0.514,3.5072 0.5143,3.5066999999999995 0.5136,3.507599999999999 0.514,3.5072 "></polygon>
    </svg>
    