
    <svg width="5.4288000000000025" height="5.7166" xmlns="http://www.w3.org/2000/svg" xmlns:xlink="http://www.w3.org/1999/xlink" style="transform: scale(1, -1)">
        <polygon points="0.3398000000000003,0.005199999999999871 0.3315999999999981,0.019500000000000073 0.33200000000000074,0.02289999999999992 0.32750000000000057,0.02429999999999999 0.32179999999999964,0.03069999999999995 0.3219999999999992,0.0391999999999999 0.31810000000000116,0.049900000000000055 0.31909999999999883,0.053199999999999914 0.31400000000000006,0.05899999999999994 0.31429999999999936,0.06620000000000004 0.3161999999999985,0.06919999999999993 0.31200000000000117,0.07640000000000002 0.31159999999999854,0.09460000000000002 0.30930000000000035,0.10709999999999997 0.310299999999998,0.1259999999999999 0.30020000000000024,0.1269 0.29240000000000066,0.12450000000000006 0.2870999999999988,0.12569999999999992 0.28719999999999857,0.13019999999999987 0.28419999999999845,0.13440000000000007 0.28030000000000044,0.1359999999999999 0.2778999999999989,0.14339999999999997 0.2696000000000005,0.14860000000000007 0.27090000000000103,0.16159999999999997 0.26599999999999824,0.16310000000000002 0.2621000000000002,0.1673 0.2588000000000008,0.16649999999999987 0.2528000000000006,0.1733 0.24779999999999802,0.17070000000000007 0.24749999999999872,0.1673 0.24980000000000047,0.16449999999999987 0.24739999999999895,0.15450000000000008 0.23789999999999978,0.15189999999999992 0.2345000000000006,0.14680000000000004 0.2339999999999982,0.1431 0.22500000000000142,0.13159999999999994 0.22380000000000067,0.11759999999999993 0.22530000000000072,0.10919999999999996 0.21979999999999933,0.11699999999999999 0.21709999999999852,0.11299999999999999 0.2126999999999981,0.11369999999999991 0.21189999999999998,0.11620000000000008 0.21119999999999806,0.1149 0.20420000000000016,0.11599999999999988 0.1999999999999993,0.1257999999999999 0.18769999999999953,0.13409999999999989 0.18149999999999977,0.1372 0.17999999999999972,0.1359999999999999 0.1761999999999979,0.13939999999999997 0.17050000000000054,0.14090000000000003 0.16310000000000002,0.1399999999999999 0.15899999999999892,0.14189999999999992 0.14039999999999964,0.13629999999999987 0.1357999999999997,0.13009999999999988 0.12930000000000064,0.12759999999999994 0.1258999999999979,0.12149999999999994 0.12129999999999797,0.11959999999999993 0.10719999999999885,0.09959999999999991 0.09700000000000131,0.09610000000000007 0.0887999999999991,0.0887 0.08530000000000015,0.09230000000000005 0.07590000000000074,0.09559999999999991 0.05760000000000076,0.09460000000000002 0.036300000000000665,0.09630000000000005 0.026900000000001256,0.09450000000000003 0.021599999999999397,0.09509999999999996 0.02149999999999963,0.09779999999999989 0.017399999999998528,0.09640000000000004 0.033500000000000085,0.16439999999999988 0.029599999999998516,0.17979999999999996 0.02639999999999887,0.1823999999999999 0.022800000000000153,0.19890000000000008 0.02919999999999945,0.19819999999999993 0.029699999999998283,0.21819999999999995 0.03439999999999799,0.23039999999999994 0.02949999999999875,0.23019999999999996 0.02779999999999916,0.23199999999999998 0.02430000000000021,0.23120000000000007 0.02289999999999992,0.23309999999999986 0.02710000000000079,0.23550000000000004 0.02909999999999968,0.23960000000000004 0.03200000000000003,0.24049999999999994 0.03259999999999863,0.24839999999999995 0.03439999999999799,0.252 0.030400000000000205,0.26 0.035199999999999676,0.2629999999999999 0.0326999999999984,0.2667999999999999 0.021300000000000097,0.2728999999999999 0.02090000000000103,0.2748999999999999 0.01630000000000109,0.2783 0.01670000000000016,0.2813999999999999 0.011499999999998067,0.28190000000000004 0.010400000000000631,0.28580000000000005 0.0007999999999981355,0.29410000000000003 0.0,0.2985 0.001200000000000756,0.3005 0.0045999999999999375,0.30069999999999997 0.007899999999999352,0.3075999999999999 0.0045999999999999375,0.31390000000000007 0.007500000000000284,0.3215999999999999 0.013099999999997891,0.32919999999999994 0.014099999999999113,0.32810000000000006 0.016099999999998005,0.3295999999999999 0.017199999999998994,0.3288 0.01699999999999946,0.33030000000000004 0.01980000000000004,0.3325 0.0218999999999987,0.33230000000000004 0.015999999999998238,0.3571 0.01759999999999806,0.3797999999999999 0.020599999999998175,0.387 0.023499999999998522,0.41999999999999993 0.021100000000000563,0.4417 0.02039999999999864,0.4705999999999999 0.011600000000001387,0.4771000000000001 0.013400000000000745,0.4865999999999999 0.016799999999999926,0.4938 0.01320000000000121,0.503 0.017399999999998528,0.5045999999999999 0.02149999999999963,0.49829999999999997 0.024899999999998812,0.4976999999999999 0.02880000000000038,0.5045999999999999 0.022500000000000853,0.5081 0.020599999999998175,0.5119 0.022099999999998232,0.5181 0.01770000000000138,0.5329999999999999 0.01770000000000138,0.5391 0.014700000000001268,0.5408 0.01419999999999888,0.5432 0.02049999999999841,0.5526 0.01699999999999946,0.5615 0.011499999999998067,0.5637 0.009899999999998244,0.5658 0.009199999999999875,0.5798 0.010999999999999233,0.5827 0.01589999999999847,0.5848 0.05959999999999965,0.5846 0.0633999999999979,0.5887 0.06319999999999837,0.5912 0.06009999999999849,0.5919 0.05600000000000094,0.5997 0.05799999999999983,0.6028 0.054700000000000415,0.6122 0.055399999999998784,0.6164999999999999 0.05389999999999873,0.6234999999999999 0.057800000000000296,0.6375 0.06429999999999936,0.65 0.0671999999999997,0.6502 0.06599999999999895,0.654 0.0677999999999983,0.6546 0.06929999999999836,0.6596 0.06700000000000017,0.6607999999999999 0.06820000000000093,0.6618999999999999 0.06680000000000064,0.6645 0.06789999999999807,0.6647 0.06360000000000099,0.6685 0.0625,0.6736 0.057800000000000296,0.6789999999999999 0.060600000000000875,0.6836 0.059899999999998954,0.6856 0.05339999999999989,0.6921999999999999 0.05489999999999995,0.6931999999999999 0.05489999999999995,0.6964 0.05729999999999791,0.6970999999999999 0.05719999999999814,0.6990999999999999 0.055399999999998784,0.6998 0.05649999999999977,0.7044 0.05900000000000105,0.7068 0.05689999999999884,0.7105 0.0586999999999982,0.7127 0.05770000000000053,0.7149 0.058799999999997965,0.7197 0.05679999999999907,0.7211 0.05760000000000076,0.7259 0.05620000000000047,0.7272 0.057500000000000995,0.729 0.05630000000000024,0.7328 0.05859999999999843,0.7355999999999999 0.05729999999999791,0.742 0.058799999999997965,0.744 0.05719999999999814,0.7461 0.05910000000000082,0.7464 0.058900000000001285,0.7525 0.05600000000000094,0.758 0.05239999999999867,0.7607999999999999 0.05349999999999966,0.7646999999999999 0.05249999999999844,0.7661 0.055399999999998784,0.7684 0.05409999999999826,0.7696999999999999 0.05369999999999919,0.7793 0.05549999999999855,0.7805 0.05529999999999902,0.7835 0.05790000000000006,0.7827 0.06050000000000111,0.7853 0.06149999999999878,0.7960999999999999 0.06329999999999814,0.7978 0.062300000000000466,0.8003 0.06469999999999843,0.8010999999999999 0.06500000000000128,0.8091999999999999 0.06820000000000093,0.8086 0.06980000000000075,0.8101999999999999 0.07160000000000011,0.8166 0.07610000000000028,0.8232999999999999 0.07649999999999935,0.8357 0.07900000000000063,0.8398 0.07900000000000063,0.8437 0.08190000000000097,0.8451 0.08139999999999858,0.8467 0.08539999999999992,0.8514999999999999 0.08520000000000039,0.8533 0.08759999999999835,0.8546 0.08800000000000097,0.859 0.07709999999999795,0.8893 0.08020000000000138,0.8881 0.08370000000000033,0.8894 0.084699999999998,0.8881 0.08609999999999829,0.89 0.08769999999999811,0.8885 0.08739999999999881,0.8907999999999999 0.09039999999999893,0.8889 0.08970000000000056,0.8906999999999999 0.09479999999999933,0.8927999999999999 0.10770000000000124,0.9148999999999999 0.10770000000000124,0.9188 0.10289999999999822,0.9265 0.09659999999999869,0.9270999999999999 0.0940000000000012,0.9309 0.09590000000000032,0.9393 0.0948999999999991,0.9413 0.09779999999999944,0.9438 0.09750000000000014,0.9516 0.09949999999999903,0.9601 0.09720000000000084,0.9652 0.09799999999999898,0.9689 0.09600000000000009,0.9742999999999999 0.09979999999999833,0.9796 0.09590000000000032,0.9835 0.10210000000000008,0.9887999999999999 0.10320000000000107,0.992 0.10190000000000055,0.9934 0.10190000000000055,0.9987999999999999 0.09880000000000067,1.0026 0.09880000000000067,1.0103 0.09299999999999997,1.0135999999999998 0.08950000000000102,1.0126 0.08419999999999916,1.0166 0.0823999999999998,1.0152999999999999 0.07920000000000016,1.0215999999999998 0.08769999999999811,1.0657999999999999 0.11580000000000013,1.0657999999999999 0.1319999999999979,1.1351 0.10579999999999856,1.1393 0.11029999999999873,1.1606 0.13710000000000022,1.1566999999999998 0.14089999999999847,1.173 0.11369999999999791,1.1774 0.13429999999999964,1.2768 0.16489999999999938,1.2756 0.170300000000001,1.2988 0.13700000000000045,1.2897 0.15810000000000102,1.3913 0.15850000000000009,1.399 0.1551000000000009,1.3991 0.1565000000000012,1.4055 0.15459999999999852,1.4074 0.15429999999999922,1.4146 0.1526999999999994,1.4163999999999999 0.15449999999999875,1.4264999999999999 0.15759999999999863,1.428 0.15810000000000102,1.4405999999999999 0.15589999999999904,1.4443 0.15840000000000032,1.4441 0.16000000000000014,1.4481 0.16600000000000037,1.4471 0.16610000000000014,1.4497 0.16720000000000113,1.4491 0.16979999999999862,1.4526 0.16829999999999856,1.4534 0.16989999999999839,1.4557 0.17210000000000036,1.455 0.1747000000000014,1.4593 0.18590000000000018,1.4683 0.17079999999999984,1.4887 0.16799999999999926,1.4878 0.16529999999999845,1.4821 0.16140000000000043,1.4796 0.1590999999999987,1.4758 0.15700000000000003,1.4802 0.15319999999999823,1.4809999999999999 0.1529999999999987,1.4828999999999999 0.15459999999999852,1.4836 0.15319999999999823,1.4843 0.1556999999999995,1.4862 0.15469999999999828,1.4896 0.15670000000000073,1.4922 0.15080000000000027,1.4962 0.15589999999999904,1.5021 0.1490000000000009,1.5063 0.14890000000000114,1.5109 0.14740000000000109,1.5114 0.14949999999999974,1.5156 0.147199999999998,1.5151 0.14369999999999905,1.5197 0.14760000000000062,1.5259 0.147199999999998,1.5339 0.14499999999999957,1.5366 0.15990000000000038,1.5426 0.1595000000000013,1.5472 0.16389999999999816,1.5537 0.15619999999999834,1.5574 0.14639999999999986,1.5552 0.14499999999999957,1.5584 0.14580000000000126,1.5604 0.1509999999999998,1.5612 0.15119999999999933,1.5631 0.1570999999999998,1.5642 0.16089999999999804,1.5692 0.16059999999999874,1.5729 0.1631999999999998,1.5736999999999999 0.164200000000001,1.5724 0.1659000000000006,1.5745 0.16689999999999827,1.5728 0.17079999999999984,1.5734 0.17689999999999984,1.5657999999999999 0.17650000000000077,1.5889 0.18159999999999954,1.5974 0.17999999999999972,1.5994 0.17950000000000088,1.5958999999999999 0.1745999999999981,1.5926 0.17309999999999803,1.5874 0.16699999999999804,1.5837999999999999 0.1676000000000002,1.5801 0.16169999999999973,1.576 0.16310000000000002,1.5864 0.16169999999999973,1.5877 0.16189999999999927,1.5942 0.1637999999999984,1.5977 0.16529999999999845,1.5977999999999999 0.16509999999999891,1.6035 0.16769999999999996,1.6048 0.1656000000000013,1.6049 0.16639999999999944,1.6063 0.16440000000000055,1.6064 0.16329999999999956,1.6092 0.16939999999999955,1.6120999999999999 0.1706000000000003,1.6111 0.17249999999999943,1.6159999999999999 0.1778000000000013,1.6163 0.17859999999999943,1.6192 0.18379999999999797,1.6245 0.19510000000000005,1.633 0.19839999999999947,1.6407 0.1971999999999987,1.6482999999999999 0.19879999999999853,1.649 0.2010000000000005,1.6475 0.204699999999999,1.6518 0.2079999999999984,1.6526 0.210799999999999,1.6522999999999999 0.21259999999999835,1.6501 0.21719999999999828,1.6542999999999999 0.2215999999999987,1.6521 0.226700000000001,1.6528 0.23320000000000007,1.6489 0.2339999999999982,1.65 0.2394999999999996,1.6495 0.24309999999999832,1.6479 0.24769999999999825,1.6511 0.2514000000000003,1.6569 0.29240000000000066,1.8351 0.30180000000000007,1.8331 0.3017000000000003,1.8391 0.3114999999999988,1.8677 0.3160999999999987,1.8734 0.32720000000000127,1.8779 0.35749999999999815,1.8855 0.37519999999999953,1.8877 0.37129999999999797,1.8907 0.36270000000000024,1.8935 0.35889999999999844,1.9018 0.34720000000000084,1.9041 0.34440000000000026,1.9061 0.3410000000000011,1.9209 0.38569999999999993,1.9769999999999999 0.40719999999999956,2.0018000000000002 0.40479999999999805,2.0096 0.4054000000000002,2.0143 0.40759999999999863,2.0171 0.41130000000000067,2.0161 0.4189000000000007,2.0171 0.4172000000000011,2.0251 0.4101999999999997,2.0347 0.40719999999999956,2.0425 0.4054000000000002,2.043 0.40589999999999904,2.046 0.397199999999998,2.0665 0.39920000000000044,2.0697 0.39780000000000015,2.0763 0.4001999999999981,2.0841 0.39259999999999806,2.0993 0.3902000000000001,2.1006 0.39089999999999847,2.1033999999999997 0.3832999999999984,2.1176 0.38289999999999935,2.1209 0.3855000000000004,2.1356 0.3844999999999992,2.1382 0.38970000000000127,2.1504 0.3890999999999991,2.1555 0.391099999999998,2.1588 0.3899000000000008,2.1645 0.3915000000000006,2.1671 0.39440000000000097,2.1669 0.3954999999999984,2.1722 0.39920000000000044,2.1778 0.3995999999999995,2.1821 0.39649999999999963,2.1866 0.3993000000000002,2.1894 0.39949999999999974,2.1938 0.39809999999999945,2.1943 0.3976000000000006,2.1975 0.3947000000000003,2.199 0.39539999999999864,2.201 0.39699999999999847,2.2011 0.39590000000000103,2.2039 0.39780000000000015,2.2074 0.39649999999999963,2.2076000000000002 0.39669999999999916,2.2092 0.39920000000000044,2.2098 0.39890000000000114,2.2125 0.40179999999999794,2.2138999999999998 0.40060000000000073,2.215 0.40179999999999794,2.2217000000000002 0.403299999999998,2.2226 0.4034000000000013,2.2307 0.40050000000000097,2.2323 0.398299999999999,2.2365 0.39979999999999905,2.2385 0.39709999999999823,2.2408 0.3965999999999994,2.2439999999999998 0.39310000000000045,2.2447 0.3946000000000005,2.2488 0.3938999999999986,2.2515 0.39170000000000016,2.2523 0.39310000000000045,2.2565999999999997 0.39170000000000016,2.2602 0.38959999999999795,2.2602 0.3887999999999998,2.269 0.39809999999999945,2.2925 0.3991000000000007,2.2964 0.3979999999999997,2.2979 0.40009999999999835,2.301 0.40149999999999864,2.3006 0.40690000000000026,2.3138 0.4107999999999983,2.3154 0.4125000000000014,2.323 0.41699999999999804,2.3212 0.4139999999999979,2.3327 0.41600000000000037,2.3312999999999997 0.4195999999999991,2.3325 0.42849999999999966,2.3301 0.4281000000000006,2.3345000000000002 0.4314,2.3350999999999997 0.43290000000000006,2.3383 0.4377999999999993,2.3392999999999997 0.4393999999999991,2.3382 0.43900000000000006,2.3363 0.44409999999999883,2.3358 0.44839999999999947,2.3437 0.4554000000000009,2.3426 0.4511000000000003,2.347 0.4512999999999998,2.3491999999999997 0.4532999999999987,2.3502 0.45949999999999847,2.3441 0.4618000000000002,2.346 0.4610999999999983,2.3484 0.472999999999999,2.3535 0.47960000000000136,2.3544 0.4919000000000011,2.3529 0.4961999999999982,2.3596 0.501100000000001,2.3641 0.5166000000000004,2.3693999999999997 0.5165000000000006,2.372 0.5191999999999979,2.3703 0.5245999999999995,2.3722 0.5261999999999993,2.3749000000000002 0.5310999999999986,2.3747 0.531600000000001,2.3777 0.5361000000000011,2.3762 0.5379000000000005,2.3792 0.5414999999999992,2.374 0.5432999999999986,2.3761 0.5424000000000007,2.3784 0.5442999999999998,2.3794 0.5572999999999979,2.3748 0.560299999999998,2.3762 0.5621000000000009,2.374 0.569700000000001,2.3721 0.5714000000000006,2.3688000000000002 0.5732999999999997,2.3726 0.5774000000000008,2.3714 0.5810999999999993,2.3803 0.5767999999999986,2.3821 0.5815999999999981,2.3817 0.5826999999999991,2.3843 0.587299999999999,2.3852 0.5875999999999983,2.3875 0.5898000000000003,2.3857 0.593,2.3895999999999997 0.5898000000000003,2.3948 0.591899999999999,2.3954 0.5945,2.393 0.6001000000000012,2.3978 0.6019000000000005,2.402 0.6006999999999998,2.4171 0.6018000000000008,2.4217 0.6037999999999997,2.4229 0.602999999999998,2.4266 0.6052999999999997,2.4283 0.6023999999999994,2.4308 0.6051000000000002,2.4314 0.6088999999999984,2.4289 0.6117999999999988,2.4314 0.6171000000000006,2.4318 0.6197999999999979,2.4339 0.6224999999999987,2.439 0.6231000000000009,2.45 0.6257999999999981,2.4532 0.639599999999998,2.4617 0.6404999999999994,2.4632 0.638300000000001,2.4638 0.6380999999999979,2.4653 0.6434999999999995,2.4685 0.6425999999999981,2.4722999999999997 0.644400000000001,2.4728 0.6462000000000003,2.4706 0.6490000000000009,2.4752 0.6528999999999989,2.477 0.6546999999999983,2.482 0.6511999999999993,2.4926 0.6534000000000013,2.4979 0.6527999999999992,2.5017 0.6479999999999997,2.5006 0.6524000000000001,2.5082 0.6508000000000003,2.5125 0.6550000000000011,2.5126 0.6552000000000007,2.521 0.6529999999999987,2.5221999999999998 0.6509,2.518 0.6489000000000011,2.5208 0.6507000000000005,2.5233999999999996 0.6554000000000002,2.5247 0.6570999999999998,2.5279 0.6553000000000004,2.5297 0.6495999999999995,2.5301 0.6519000000000013,2.5353 0.6501999999999981,2.5382 0.6562999999999981,2.5412999999999997 0.6534000000000013,2.5444 0.6528999999999989,2.5488999999999997 0.6537000000000006,2.5513 0.6575999999999986,2.5532 0.6537000000000006,2.5564999999999998 0.6585000000000001,2.5586 0.6554000000000002,2.5629 0.6574999999999989,2.5665 0.6565000000000012,2.5702 0.6595000000000013,2.5688 0.6600000000000001,2.5728999999999997 0.6634999999999991,2.5763 0.6661000000000001,2.5762 0.6661000000000001,2.5796 0.6683999999999983,2.5825 0.6672000000000011,2.5853 0.6686000000000014,2.5934 0.6766000000000005,2.5934999999999997 0.6790999999999983,2.5904 0.692499999999999,2.5869999999999997 0.6996000000000002,2.6016 0.7132000000000005,2.6098 0.7187999999999981,2.6172 0.729499999999998,2.6219 0.7350999999999992,2.6298 0.7484999999999999,2.6391 0.7519999999999989,2.6389 0.7579999999999991,2.6334999999999997 0.761099999999999,2.634 0.764800000000001,2.6376999999999997 0.7698,2.6618 0.7757000000000005,2.6683 0.7757000000000005,2.6715 0.7824999999999989,2.6775 0.7884999999999991,2.6873 0.7993999999999986,2.6844 0.8051999999999992,2.6776999999999997 0.8123000000000005,2.6776999999999997 0.8176999999999985,2.673 0.8340999999999994,2.6784 0.8353000000000002,2.6814 0.8387999999999991,2.6826 0.8434999999999988,2.6825 0.8462999999999994,2.6794000000000002 0.8466999999999985,2.6767000000000003 0.8509999999999991,2.6764 0.8608000000000011,2.6828000000000003 0.8659999999999997,2.6826999999999996 0.8710999999999984,2.6867 0.8780999999999999,2.6853 0.8867000000000012,2.6868 0.8978000000000002,2.6929 0.898299999999999,2.6959999999999997 0.9008000000000003,2.6966 0.9039999999999999,2.6948 0.9482999999999997,2.7483 0.9782000000000011,2.7484 0.9905000000000008,2.7643 1.007200000000001,2.7922000000000002 1.061,2.8931 1.086500000000001,2.9271000000000003 1.1295000000000002,2.9781 1.2414999999999985,3.0651 1.2474999999999987,3.0671 1.2744999999999997,3.0911 1.3805000000000014,3.1751 1.4273999999999987,3.2100999999999997 1.4619,3.2395 1.5277999999999992,3.3369 1.5347000000000008,3.335 1.5783999999999985,3.3911 1.5921999999999983,3.4047 1.6280999999999999,3.4493 1.6494,3.482 1.734099999999998,3.5986 1.7342000000000013,3.6391999999999998 1.6768999999999998,3.682 1.6315999999999988,3.7032 1.631499999999999,3.7766 1.6281999999999996,3.7751 1.627600000000001,3.7732 1.6153000000000013,3.7711 1.6130999999999993,3.7681999999999998 1.6108000000000011,3.7687 1.606300000000001,3.7662 1.6035000000000004,3.7675 1.6006999999999998,3.7652 1.6005000000000003,3.7632 1.5925000000000011,3.7603 1.590399999999999,3.7604 1.588000000000001,3.7634 1.5863000000000014,3.7622 1.5843999999999987,3.7641 1.5810999999999993,3.7625 1.5778999999999996,3.7655 1.5696000000000012,3.7657 1.5700000000000003,3.764 1.5671999999999997,3.7629 1.5654000000000003,3.7593 1.564,3.7529 1.5614999999999988,3.7535 1.5612999999999992,3.7477 1.5591000000000008,3.7468 1.5534,3.7487 1.5464999999999982,3.7553 1.5412999999999997,3.7552 1.5366,3.7601 1.5336999999999996,3.7608 1.5337999999999994,3.7639 1.5203999999999986,3.7751 1.5108999999999995,3.7806 1.5088000000000008,3.7791 1.5043000000000006,3.7807 1.5036999999999985,3.7843 1.497799999999998,3.7876 1.5018999999999991,3.7888 1.5044000000000004,3.7862 1.5044000000000004,3.7991 1.497399999999999,3.8251 1.4920000000000009,3.8353 1.456199999999999,3.8628 1.4570000000000007,3.8653 1.4553000000000011,3.8663 1.4547999999999988,3.8694 1.4540000000000006,3.867 1.452099999999998,3.8669 1.4513999999999996,3.8686 1.4497,3.8670999999999998 1.4492000000000012,3.8702 1.4403000000000006,3.8726 1.4389000000000003,3.8805 1.4365999999999985,3.8829 1.434899999999999,3.8835 1.4312000000000005,3.8809 1.4243999999999986,3.8866 1.4182999999999986,3.8885 1.4122999999999983,3.888 1.408999999999999,3.8896 1.3970999999999982,3.885 1.394400000000001,3.8859 1.388099999999998,3.8795 1.3851000000000013,3.8818 1.3861999999999988,3.886 1.3765,3.8801 1.3724999999999987,3.8750999999999998 1.3664999999999985,3.8571 1.3694999999999986,3.8351 1.3655000000000008,3.8221 1.3634999999999984,3.8201 1.3595000000000006,3.8181 1.314499999999999,3.8261 1.3094999999999999,3.8281 1.296599999999998,3.8519 1.2933999999999983,3.8534 1.293499999999998,3.858 1.2842999999999982,3.8596 1.2822999999999993,3.8641 1.2763999999999989,3.8673 1.273299999999999,3.8759 1.2742000000000004,3.8796 1.2695000000000007,3.8865 1.2664000000000009,3.8863 1.2681000000000004,3.8918 1.266099999999998,3.8971999999999998 1.2609999999999992,3.8995 1.263099999999998,3.9026 1.2624999999999993,3.9081 1.2315000000000005,3.9121 1.2185999999999986,3.9177 1.2119999999999997,3.9166 1.2064999999999984,3.921 1.1988999999999983,3.9133 1.1934000000000005,3.9136 1.1910999999999987,3.9108 1.1836999999999982,3.9089 1.1831999999999994,3.9053 1.1801999999999992,3.902 1.1769999999999996,3.9234 1.170300000000001,3.9303 1.1687000000000012,3.9352 1.1692999999999998,3.9389 1.1727999999999987,3.9423 1.1719000000000008,3.9544 1.174599999999998,3.9635 1.174900000000001,3.9737 1.1797000000000004,3.9793 1.1858000000000004,3.9795 1.189499999999999,3.9941 1.1879999999999988,4.0184999999999995 1.185299999999998,4.0181000000000004 1.184899999999999,4.0206 1.1873000000000005,4.0321 1.1843000000000004,4.0393 1.1860999999999997,4.0472 1.1814,4.0547 1.182500000000001,4.0613 1.1785999999999994,4.0686 1.1815999999999995,4.0733999999999995 1.184899999999999,4.0738 1.1885000000000012,4.0786999999999995 1.1951,4.081300000000001 1.1998999999999995,4.0811 1.200599999999998,4.0847 1.2057000000000002,4.085100000000001 1.207699999999999,4.0884 1.208199999999998,4.0991 1.2194000000000003,4.1173 1.2159000000000013,4.1190999999999995 1.2151999999999994,4.127800000000001 1.220399999999998,4.1299 1.2213999999999992,4.1355 1.2262999999999984,4.1427 1.2254000000000005,4.1449 1.2273999999999994,4.1477 1.2258999999999993,4.1535 1.233699999999999,4.1606000000000005 1.232800000000001,4.164 1.2363,4.1674 1.2350999999999992,4.1718 1.2392000000000003,4.1772 1.2390000000000008,4.181 1.2357000000000014,4.1861 1.2377000000000002,4.1899 1.2367999999999988,4.191 1.2424,4.1956 1.2421000000000006,4.1975999999999996 1.2470999999999997,4.199 1.2475999999999985,4.2016 1.250399999999999,4.2021999999999995 1.2518999999999991,4.2095 1.2550999999999988,4.2115 1.2505999999999986,4.2197 1.2575000000000003,4.238099999999999 1.2658999999999985,4.2494 1.2698999999999998,4.2504 1.2727000000000004,4.2473 1.274799999999999,4.2483 1.2757000000000005,4.252 1.2826999999999984,4.2532 1.287700000000001,4.256 1.2903999999999982,4.2671 1.2944999999999993,4.2703 1.2960999999999991,4.2764 1.3126999999999995,4.2965 1.313600000000001,4.2995 1.3141999999999996,4.3149999999999995 1.3124000000000002,4.3202 1.316399999999998,4.332599999999999 1.3156999999999996,4.3353 1.3186999999999998,4.3406 1.3157999999999994,4.3535 1.3165000000000013,4.360799999999999 1.3125,4.3674 1.3028000000000013,4.3733 1.3031000000000006,4.3817 1.2977999999999987,4.3862000000000005 1.2984000000000009,4.392799999999999 1.2949999999999982,4.3941 1.2939000000000007,4.3969000000000005 1.2933999999999983,4.4007000000000005 1.2954000000000008,4.4045000000000005 1.2912999999999997,4.4084 1.2866999999999997,4.41 1.2860000000000014,4.412100000000001 1.2891000000000012,4.416399999999999 1.2830000000000013,4.423299999999999 1.2819000000000003,4.4331 1.284600000000001,4.4364 1.2865000000000002,4.444 1.2668,4.4559999999999995 1.2609999999999992,4.4661 1.2540000000000013,4.4711 1.2525000000000013,4.4737 1.2537999999999982,4.4834 1.251100000000001,4.4864999999999995 1.2454999999999998,4.490600000000001 1.237099999999998,4.4877 1.2306999999999988,4.4892 1.2202999999999982,4.4997 1.2091999999999992,4.505 1.2062999999999988,4.509 1.2064999999999984,4.5189 1.197700000000001,4.5276 1.1965000000000003,4.5343 1.200599999999998,4.5372 1.2034999999999982,4.5421 1.2134,4.545999999999999 1.2190000000000012,4.5458 1.2228999999999992,4.5515 1.2215999999999987,4.5577000000000005 1.2220000000000013,4.577500000000001 1.2278999999999982,4.5866 1.2283000000000008,4.6041 1.2306999999999988,4.6091 1.230599999999999,4.6178 1.2376000000000005,4.6248000000000005 1.238199999999999,4.643800000000001 1.2433000000000014,4.659 1.2504999999999988,4.6721 1.2530999999999999,4.680400000000001 1.2581999999999987,4.6866 1.2551999999999985,4.7001 1.2581999999999987,4.7095 1.2643999999999984,4.7181999999999995 1.2696000000000005,4.7215 1.2698999999999998,4.7252 1.2647000000000013,4.7334 1.2668,4.745699999999999 1.2704999999999984,4.7521 1.2744,4.7521 1.2848000000000006,4.7573 1.2937000000000012,4.7585 1.299199999999999,4.7629 1.2949999999999982,4.7684 1.3036999999999992,4.7773 1.3019999999999996,4.7843 1.3034999999999997,4.7885 1.3046000000000006,4.7898 1.3107000000000006,4.787100000000001 1.3135000000000012,4.7931 1.3155000000000001,4.7981 1.3155000000000001,4.8121 1.3185000000000002,4.8221 1.3389999999999986,4.8475 1.3401999999999994,4.850899999999999 1.346499999999999,4.8552 1.3455000000000013,4.8671 1.3472000000000008,4.8708 1.352599999999999,4.8738 1.366299999999999,4.886699999999999 1.3659999999999997,4.91 1.3634999999999984,4.9265 1.3657000000000004,4.9401 1.365199999999998,4.9449000000000005 1.369799999999998,4.9475999999999996 1.371500000000001,4.9508 1.369799999999998,4.9663 1.3659,4.978 1.368500000000001,4.9846 1.365400000000001,4.9912 1.3400999999999996,4.9908 1.3320000000000007,4.985799999999999 1.3254999999999981,4.9841 1.3076000000000008,4.9709 1.3068999999999988,4.9663 1.305299999999999,4.9673 1.2998000000000012,4.9645 1.2914999999999992,4.966 1.2897999999999996,4.968 1.2978999999999985,4.987299999999999 1.2984000000000009,4.9921 1.301400000000001,4.9965 1.3028000000000013,5.004099999999999 1.3069999999999986,5.011 1.3095999999999997,5.0237 1.3145999999999987,5.0325 1.315999999999999,5.0401 1.331199999999999,5.0599 1.3329999999999984,5.0703 1.3359999999999985,5.0721 1.3367000000000004,5.078799999999999 1.3429000000000002,5.0835 1.3489000000000004,5.0845 1.3547000000000011,5.0968 1.354499999999998,5.101 1.3589999999999982,5.1048 1.3670000000000009,5.1042000000000005 1.3679999999999986,5.1114 1.3768999999999991,5.1182 1.3772999999999982,5.126799999999999 1.3745000000000012,5.1355 1.3772999999999982,5.1389 1.3782999999999994,5.1442 1.3831999999999987,5.1493 1.3836000000000013,5.153700000000001 1.395199999999999,5.1582 1.3963,5.1669 1.4013999999999989,5.178599999999999 1.4086999999999996,5.1865000000000006 1.416599999999999,5.1911000000000005 1.4284999999999997,5.1939 1.4342000000000006,5.1922999999999995 1.4375,5.1884 1.4446000000000012,5.1852 1.4473999999999982,5.178599999999999 1.450599999999998,5.1784 1.4613000000000014,5.1837 1.464299999999998,5.1879 1.4763999999999982,5.1978 1.4808999999999983,5.197900000000001 1.482599999999998,5.2017 1.4884999999999984,5.2043 1.4895999999999994,5.2078 1.4884999999999984,5.2102 1.4914999999999985,5.214700000000001 1.4867999999999988,5.2187 1.488900000000001,5.221 1.4909,5.2206 1.4909,5.2226 1.497399999999999,5.2277000000000005 1.5079999999999991,5.228 1.5124999999999993,5.224600000000001 1.5166000000000004,5.2267 1.5185999999999993,5.2199 1.5200999999999993,5.2194 1.522199999999998,5.2245 1.5284000000000013,5.221 1.5295999999999985,5.2242 1.533100000000001,5.2253 1.5286000000000008,5.2269000000000005 1.5280999999999985,5.2294 1.5314000000000014,5.231199999999999 1.5327999999999982,5.2351 1.535899999999998,5.2341999999999995 1.5380000000000003,5.2379999999999995 1.5422000000000011,5.2397 1.5457999999999998,5.2385 1.548099999999998,5.2425999999999995 1.5504999999999995,5.2425 1.5503999999999998,5.2454 1.555299999999999,5.2474 1.557500000000001,5.2506 1.5620000000000012,5.2501 1.5635000000000012,5.2537 1.5807000000000002,5.2625 1.5935999999999986,5.2791999999999994 1.716899999999999,5.2791 1.7809999999999988,5.2353000000000005 1.8435999999999986,5.2048000000000005 1.8836000000000013,5.1814 1.9198999999999984,5.1643 1.936399999999999,5.158799999999999 1.9365999999999985,5.1525 1.931000000000001,5.1350999999999996 1.930299999999999,5.1264 1.9334999999999987,5.1240000000000006 1.9410999999999987,5.1231 1.9463000000000008,5.1206 1.950099999999999,5.1282 1.9681999999999995,5.1385000000000005 1.9741999999999997,5.1388 2.0044000000000004,5.1647 2.1003000000000007,5.1974 2.1209999999999987,5.2013 2.1358999999999995,5.2064 2.154299999999999,5.2336 2.1571,5.235799999999999 2.1660000000000004,5.2362 2.171099999999999,5.238099999999999 2.2105999999999995,5.271 2.2288999999999994,5.2831 2.230699999999999,5.2897 2.229099999999999,5.2938 2.2239000000000004,5.2966 2.2242999999999995,5.304399999999999 2.231300000000001,5.307 2.241299999999999,5.3073 2.2559000000000005,5.3009 2.270299999999999,5.2862 2.298300000000001,5.2672 2.309799999999999,5.2492 2.325599999999998,5.2325 2.334900000000001,5.2196 2.3439000000000014,5.2027 2.3603999999999985,5.1817 2.378399999999999,5.1501 2.3859999999999992,5.1423000000000005 2.3888,5.1357 2.3888999999999996,5.1307 2.3826,5.1198999999999995 2.3801999999999985,5.1117 2.3817999999999984,5.0893999999999995 2.3886000000000003,5.0611999999999995 2.3866000000000014,5.054399999999999 2.3901000000000003,5.0542 2.3976000000000006,5.0583 2.403500000000001,5.0576 2.408999999999999,5.0624 2.4116999999999997,5.0615000000000006 2.4171000000000014,5.0629 2.423400000000001,5.0608 2.4483999999999995,5.066800000000001 2.4619,5.068099999999999 2.4682999999999993,5.0713 2.4724000000000004,5.077500000000001 2.4739999999999966,5.0768 2.472999999999999,5.0728 2.4746000000000024,5.071899999999999 2.4761000000000024,5.0741 2.4814000000000007,5.0760000000000005 2.4814000000000007,5.0716 2.4823999999999984,5.0725999999999996 2.484400000000001,5.0710999999999995 2.485500000000002,5.0725 2.4887999999999977,5.0697 2.4853999999999985,5.0664 2.490699999999997,5.0648 2.4902999999999977,5.0611999999999995 2.492600000000003,5.061999999999999 2.495600000000003,5.0591 2.4983000000000004,5.0609 2.496600000000001,5.0572 2.5013000000000005,5.0561 2.500700000000002,5.0515 2.5045999999999964,5.0527 2.505499999999998,5.0509 2.5092,5.0501000000000005 2.5093999999999994,5.0441 2.5116999999999976,5.045999999999999 2.514400000000002,5.0448 2.509599999999999,5.0412 2.509599999999999,5.0365 2.5116999999999976,5.0331 2.5105999999999966,5.0308 2.5127000000000024,5.0297 2.5146000000000015,5.0317 2.517000000000003,5.0313 2.514800000000001,5.027200000000001 2.5174999999999983,5.020099999999999 2.5152999999999963,5.0181000000000004 2.514000000000003,5.0207 2.511800000000001,5.0213 2.512900000000002,5.0152 2.530999999999999,5.0145 2.628700000000002,4.9894 2.630499999999998,4.9901 2.6300000000000026,5.0057 2.636899999999997,5.0227 2.6357,5.027 2.636899999999997,5.0324 2.6464,5.0466999999999995 2.6422000000000025,5.052099999999999 2.6430000000000007,5.059 2.639499999999998,5.0656 2.637599999999999,5.0744 2.635300000000001,5.0771 2.6310999999999964,5.0756 2.6233999999999966,5.0798000000000005 2.625700000000002,5.0829 2.8438000000000017,5.2280999999999995 3.148699999999998,5.2503 3.3297000000000025,5.2981 3.456299999999999,5.3761 3.491100000000003,5.3497 3.499600000000001,5.3415 3.5101999999999975,5.3353 3.607300000000002,5.2612000000000005 3.915700000000001,5.2364 3.942999999999998,5.2374 4.416199999999996,5.7166 4.475900000000003,5.6616 4.494199999999999,5.6265 4.4780000000000015,5.6036 4.491599999999998,5.5767 4.508200000000002,5.5679 4.520099999999999,5.5438 4.5197999999999965,5.5316 4.516100000000002,5.5191 4.487299999999998,5.5102 4.488500000000002,5.492 4.510599999999997,5.4847 4.5341999999999985,5.459099999999999 4.563099999999999,5.4437999999999995 4.548400000000001,5.3833 4.544800000000002,5.3799 4.5199,5.3677 4.5169,5.3437 4.521099999999997,5.3423 4.5379000000000005,5.350899999999999 4.5563,5.3546 4.581099999999999,5.3513 4.595399999999998,5.3523 4.599199999999996,5.359 4.603499999999997,5.3621 4.633099999999999,5.364599999999999 4.643999999999998,5.363300000000001 4.653500000000001,5.3346 4.654499999999999,5.3134999999999994 4.608499999999999,5.314 4.5970999999999975,5.300800000000001 4.592399999999998,5.2928999999999995 4.586799999999997,5.29 4.581699999999998,5.2894000000000005 4.5822,5.2824 4.587499999999999,5.2839 4.591999999999999,5.2802 4.598999999999997,5.2827 4.617100000000001,5.2776 4.616700000000002,5.2727 4.618600000000001,5.2653 4.5944999999999965,5.256 4.599400000000003,5.2501999999999995 4.6143,5.2534 4.648800000000001,5.2666 4.654499999999999,5.265000000000001 4.655299999999997,5.256600000000001 4.657499999999999,5.256600000000001 4.661699999999996,5.263199999999999 4.674100000000003,5.266299999999999 4.686399999999999,5.2490000000000006 4.694899999999997,5.230700000000001 4.711799999999997,5.2132000000000005 4.725999999999999,5.2036 4.736399999999996,5.1937999999999995 4.744300000000003,5.1987000000000005 4.751899999999999,5.2105999999999995 4.759500000000003,5.2155000000000005 4.793500000000002,5.2176 4.8108,5.21 4.8226999999999975,5.200200000000001 4.831299999999999,5.1876999999999995 4.8333999999999975,5.1752 4.850499999999997,5.170999999999999 4.884300000000003,5.1587 4.8917,5.1518999999999995 4.881599999999999,5.0936 4.885100000000001,5.0579 4.880000000000003,4.9996 4.868099999999998,4.9867 4.853200000000001,4.9741 4.8245000000000005,4.9704 4.819499999999998,4.9752 4.817399999999999,4.9742 4.819499999999998,4.9654 4.8322999999999965,4.9524 4.845100000000002,4.9331 4.847799999999999,4.9158 4.838299999999997,4.9005 4.830199999999998,4.8975 4.829099999999997,4.853 4.858400000000003,4.8251 4.866500000000002,4.7898 4.8759000000000015,4.7654 4.884300000000003,4.6644000000000005 4.8889,4.6567 4.899000000000001,4.654999999999999 4.910499999999999,4.6475 4.917299999999997,4.637700000000001 4.923299999999998,4.6236999999999995 4.9405,4.6312 4.9742999999999995,4.6189 4.987400000000001,4.5928 4.991100000000003,4.5899 5.000799999999998,4.5738 5.003300000000003,4.5512999999999995 5.001199999999997,4.5324 5.004199999999997,4.5176 5.005000000000003,4.5029 5.012900000000002,4.493 5.015900000000002,4.4862 5.017299999999999,4.4645 5.027499999999996,4.407 5.067799999999998,4.3891 5.081400000000002,4.3499 5.096899999999998,4.3454999999999995 5.113399999999999,4.3464 5.120899999999999,4.3452 5.130200000000002,4.359999999999999 5.136800000000001,4.3558 5.1402,4.3476 5.1648,4.3373 5.177599999999998,4.3085 5.180399999999999,4.308199999999999 5.183500000000002,4.3108 5.190599999999996,4.3033 5.195500000000003,4.2935 5.195700000000002,4.284800000000001 5.203800000000001,4.270099999999999 5.206600000000002,4.2527 5.211999999999996,4.2375 5.212600000000002,4.2309 5.203899999999997,4.1802 5.218899999999998,4.1657 5.227699999999999,4.138199999999999 5.260100000000001,4.1032 5.267000000000003,4.0866 5.280700000000003,4.0659 5.296700000000001,4.0529 5.306800000000003,4.0547 5.3089999999999975,4.0718 5.3222999999999985,4.075200000000001 5.325800000000001,4.070399999999999 5.333599999999997,4.0296 5.341499999999996,3.9989 5.3614999999999995,3.9983 5.3652000000000015,3.9822 5.3770000000000024,3.9545 5.382899999999999,3.9547 5.381900000000002,3.9534 5.383400000000002,3.9508 5.381,3.9435 5.382399999999997,3.9402 5.374600000000001,3.9363 5.3733,3.9375 5.370600000000003,3.9352 5.372199999999999,3.9314999999999998 5.368299999999998,3.9323 5.3688999999999965,3.9304 5.365099999999998,3.926 5.366,3.9228 5.3643,3.9204 5.359699999999997,3.9208 5.360799999999998,3.9132 5.3583,3.9111 5.353999999999999,3.911 5.354500000000002,3.9095 5.350699999999996,3.909 5.3474,3.9065 5.345100000000002,3.907 5.3455999999999975,3.8923 5.342799999999997,3.8853 5.343600000000002,3.8788 5.3481999999999985,3.8758 5.346299999999999,3.8724 5.348700000000001,3.8554 5.374000000000002,3.6936 5.408200000000001,3.536 5.412999999999997,3.4675000000000002 5.428699999999999,3.4447 5.4288000000000025,3.2408 5.419699999999999,3.1466000000000003 5.388799999999996,3.0861 5.372100000000003,3.0589 5.351999999999997,3.0448 5.335099999999997,3.0353 5.3187,3.0374999999999996 5.292499999999997,3.0106 5.2727,2.9393000000000002 5.270200000000003,2.9367 5.259500000000003,2.934 5.255400000000002,2.9301 5.245899999999999,2.9139 5.229300000000002,2.9054 5.222299999999997,2.8958 5.223300000000002,2.8917 5.231299999999997,2.8795 5.234999999999999,2.8661 5.215200000000003,2.8485 5.2575,2.7919 5.258499999999998,2.7859 5.256700000000002,2.7788 5.256799999999998,2.7687 5.2592,2.7514000000000003 5.253300000000003,2.7466999999999997 5.2483,2.7451 5.246200000000002,2.7379 5.246899999999997,2.7328 5.241799999999998,2.7306 5.2391000000000005,2.7249999999999996 5.239899999999999,2.723 5.233699999999999,2.7127999999999997 5.223700000000001,2.7053000000000003 5.214999999999996,2.705 5.2109999999999985,2.7071 5.2072,2.7043999999999997 5.203699999999998,2.7058999999999997 5.197800000000001,2.7016 5.185699999999997,2.7049000000000003 5.1785,2.7019 5.171100000000003,2.7031 5.168300000000002,2.7014 5.148899999999998,2.7 5.1389,2.6973000000000003 5.129199999999997,2.6981 5.124000000000002,2.6955 5.097999999999999,2.6902999999999997 5.0919000000000025,2.6745 5.0854,2.6700999999999997 5.083500000000001,2.666 5.077300000000001,2.6612999999999998 5.069000000000003,2.658 5.0645000000000024,2.6539 5.049100000000003,2.6498 5.0379000000000005,2.6404 5.007800000000003,2.6322 5.002899999999997,2.5844 4.955399999999997,2.5892 4.9547000000000025,2.5863 4.950800000000001,2.5845000000000002 4.942099999999996,2.5637 4.930999999999997,2.5526999999999997 4.927500000000002,2.544 4.928199999999997,2.5399000000000003 4.9254999999999995,2.5364 4.921599999999998,2.5248 4.917099999999998,2.4999000000000002 4.9155000000000015,2.4827 4.917000000000002,2.4804 4.916499999999999,2.4715 4.9178,2.465 4.911200000000001,2.4432 4.911000000000001,2.4371 4.907800000000002,2.427 4.9084,2.4222 4.892699999999998,2.3937999999999997 4.887099999999997,2.3901 4.8847999999999985,2.3857 4.878999999999998,2.3825 4.880200000000002,2.3731999999999998 4.875399999999999,2.3617 4.874600000000001,2.3456 4.868299999999998,2.3387000000000002 4.8583,2.3369999999999997 4.848999999999997,2.3322 4.8491,2.328 4.8455999999999975,2.3244 4.842599999999997,2.3245 4.842100000000002,2.3190999999999997 4.843699999999998,2.3173 4.837200000000003,2.3144 4.834000000000003,2.3108 4.8367,2.3099 4.837899999999998,2.3045 4.8419000000000025,2.3023 4.841700000000003,2.3003 4.838900000000002,2.2986 4.842500000000001,2.2941000000000003 4.841799999999999,2.2925 4.8233999999999995,2.2846 4.823,2.287 4.819800000000001,2.2857 4.819600000000001,2.288 4.813499999999998,2.2858 4.811500000000002,2.2751 4.809199999999997,2.2747 4.807200000000002,2.2801 4.805,2.2786 4.802500000000002,2.2734 4.8003,2.2728 4.800899999999999,2.2682 4.7956,2.2634 4.792699999999996,2.2640000000000002 4.789499999999997,2.2591 4.787300000000002,2.2607 4.782499999999999,2.2584 4.782499999999999,2.2561999999999998 4.773800000000001,2.2568 4.770400000000002,2.2536 4.7654,2.2536 4.765799999999999,2.2525 4.762900000000002,2.2504999999999997 4.756099999999996,2.2511 4.749899999999997,2.2499000000000002 4.750599999999999,2.2484 4.747,2.2496 4.746099999999998,2.2471 4.742600000000003,2.2462 4.743000000000002,2.2428 4.740899999999996,2.2411 4.736600000000003,2.2462 4.7327999999999975,2.2475 4.726799999999997,2.2432 4.725499999999997,2.24 4.732100000000003,2.2372 4.733499999999999,2.2321 4.739399999999996,2.231 4.735700000000001,2.2141 4.7376000000000005,2.2107 4.735500000000002,2.2054 4.736699999999999,2.1987 4.738300000000002,2.1978 4.7376000000000005,2.1904 4.742100000000001,2.1829 4.740499999999997,2.1791 4.735999999999997,2.1799 4.731400000000001,2.1757 4.728699999999996,2.1747 4.7265000000000015,2.1757999999999997 4.725499999999997,2.1727 4.722699999999996,2.1731 4.723799999999997,2.1696 4.721899999999998,2.1709 4.7216999999999985,2.1691000000000003 4.7166,2.1676 4.717399999999998,2.1666 4.715200000000003,2.1651 4.712299999999999,2.1654 4.711799999999997,2.1669 4.706299999999999,2.1637 4.7059,2.1552 4.709200000000003,2.149 4.707999999999998,2.1491 4.707999999999998,2.1464 4.706099999999999,2.146 4.707900000000002,2.1412 4.704599999999999,2.1406 4.707000000000001,2.1387 4.7059,2.1366 4.7074,2.1338 4.705300000000001,2.1250999999999998 4.701599999999999,2.125 4.701099999999997,2.1238 4.700200000000002,2.1257 4.698599999999999,2.1247 4.699799999999996,2.1224 4.6976999999999975,2.1244 4.695500000000003,2.1216999999999997 4.689399999999999,2.1218 4.689,2.12 4.685699999999997,2.1189999999999998 4.685600000000001,2.1174999999999997 4.679499999999997,2.1136 4.676099999999998,2.1137 4.668999999999997,2.1178 4.668199999999999,2.1135 4.6640000000000015,2.1117 4.663899999999998,2.1104 4.6616,2.1125 4.657299999999999,2.1102 4.652700000000003,2.1143 4.648600000000002,2.1149 4.645200000000003,2.112 4.643999999999998,2.1068 4.643299999999996,2.1083 4.639800000000001,2.1074 4.635599999999997,2.1108000000000002 4.634,2.1102 4.633800000000001,2.107 4.631300000000003,2.1069 4.628099999999996,2.1108000000000002 4.6236999999999995,2.1065 4.6248000000000005,2.1033999999999997 4.622399999999999,2.1026 4.619900000000001,2.105 4.619999999999997,2.1007 4.618000000000002,2.1008 4.619300000000003,2.0978 4.617399999999996,2.0985 4.6173,2.0961 4.615299999999998,2.0968999999999998 4.612400000000001,2.0946 4.615099999999998,2.0917 4.614199999999997,2.0888999999999998 4.613100000000003,2.0898 4.610999999999997,2.0887000000000002 4.610799999999998,2.0901 4.606000000000002,2.0914 4.6041000000000025,2.0888 4.6030000000000015,2.0902 4.601700000000001,2.0858 4.600299999999997,2.0873999999999997 4.600099999999998,2.0862 4.598500000000001,2.0867 4.5991,2.0845000000000002 4.594200000000001,2.0848 4.593499999999999,2.0819 4.592300000000002,2.0824 4.591200000000001,2.0803 4.590200000000003,2.0816 4.587800000000001,2.0789 4.5886,2.0778 4.581499999999998,2.0732999999999997 4.581400000000002,2.0695 4.576999999999998,2.0704000000000002 4.575000000000003,2.0671 4.572899999999997,2.0682 4.572400000000002,2.0657 4.570999999999998,2.0664 4.570500000000003,2.0652 4.566099999999999,2.0678 4.555900000000001,2.0407 4.554600000000001,2.0214 4.544499999999999,2.0052 4.548899999999996,2.0038 4.551499999999997,1.9994 4.546300000000002,1.9933999999999998 4.547399999999996,1.9787 4.545999999999999,1.9750999999999999 4.548000000000002,1.9655 4.540300000000002,1.9605 4.532200000000003,1.9526 4.527299999999997,1.9503 4.5167,1.9388 4.520099999999999,1.9245999999999999 4.517899999999997,1.9207999999999998 4.518500000000003,1.9091 4.528799999999997,1.896 4.537100000000002,1.863 4.5364,1.8515 4.531199999999998,1.8462 4.5259,1.8367 4.5274,1.8319 4.522500000000001,1.8284 4.5199,1.8285 4.5199,1.8266 4.518799999999999,1.8272 4.517800000000001,1.8246 4.5135000000000005,1.8218 4.512500000000003,1.8186 4.509300000000003,1.819 4.510399999999997,1.8176999999999999 4.5086999999999975,1.8176999999999999 4.509500000000003,1.8136 4.506900000000002,1.8138999999999998 4.503599999999999,1.8111 4.502800000000001,1.8121 4.503099999999996,1.8105 4.501800000000003,1.8105 4.500300000000003,1.8073 4.493200000000002,1.8082 4.488500000000002,1.8058 4.486699999999999,1.8073 4.484699999999997,1.8058999999999998 4.486399999999996,1.8034 4.486699999999999,1.7974 4.488900000000001,1.7955999999999999 4.482399999999998,1.7912 4.478900000000003,1.7908 4.479900000000001,1.7885 4.476799999999997,1.7856 4.478499999999997,1.7788 4.476399999999998,1.7757 4.470799999999997,1.7746 4.471299999999999,1.7704 4.468600000000002,1.7682 4.468299999999999,1.7633 4.4705999999999975,1.7604 4.4694999999999965,1.7587 4.4666,1.7577 4.466200000000001,1.7548 4.457599999999999,1.7513 4.456200000000003,1.7527 4.453400000000002,1.7505 4.450400000000002,1.7433999999999998 4.450600000000001,1.7376 4.444299999999998,1.7338 4.435899999999997,1.7256 4.425399999999996,1.7083 4.340499999999999,1.5931 4.3386,1.5888 4.338099999999997,1.5841 4.341200000000001,1.5816 4.369799999999998,1.484 4.4155000000000015,1.3536 4.412399999999998,1.3165 4.3995999999999995,1.2348 4.369,1.0633 4.363900000000001,1.0222 4.360500000000002,0.9656 4.357100000000003,0.945 4.357100000000003,0.8096 4.369100000000003,0.6142 4.374200000000002,0.4891 4.081299999999999,0.4855999999999999 2.194700000000001,0.48529999999999995 2.1128,0.48439999999999994 2.113599999999998,0.4821 2.0474999999999994,0.4807999999999999 1.9303999999999988,0.48150000000000004 1.9224999999999994,0.48039999999999994 1.898299999999999,0.482 1.5934999999999988,0.48439999999999994 1.5606000000000009,0.4841 1.560500000000001,0.48099999999999987 1.5264999999999986,0.4808999999999999 1.503899999999998,0.4828 1.2272999999999996,0.48319999999999996 1.228200000000001,0.4819 1.2117000000000004,0.4919 1.1952999999999996,0.49629999999999996 1.187899999999999,0.4939 1.1775999999999982,0.48719999999999997 1.1681999999999988,0.47730000000000006 1.1511999999999993,0.4719 1.1481999999999992,0.46940000000000004 1.1294000000000004,0.4688999999999999 1.1265999999999998,0.46710000000000007 1.1202000000000005,0.4610000000000001 1.106300000000001,0.45199999999999996 1.0981999999999985,0.4388000000000001 1.096499999999999,0.4307000000000001 1.0874999999999986,0.4207000000000001 1.0754999999999981,0.41649999999999987 1.0616999999999983,0.4154 1.0625,0.4114 1.0379000000000005,0.4166000000000001 1.0223000000000013,0.4174 1.0185999999999993,0.42090000000000005 1.0119000000000007,0.42090000000000005 0.9961999999999982,0.41700000000000004 0.9930999999999983,0.41449999999999987 0.9852999999999987,0.4160999999999999 0.9816000000000003,0.4135 0.9781000000000013,0.4135 0.9685999999999986,0.4072 0.9650999999999996,0.4063999999999999 0.962299999999999,0.4079999999999999 0.9532999999999987,0.4052 0.9488999999999983,0.4081999999999999 0.9375,0.4086000000000001 0.9332999999999991,0.4133 0.9299999999999997,0.4142999999999999 0.9228999999999985,0.4242999999999999 0.9110000000000014,0.4276 0.8995999999999995,0.4262999999999999 0.8980999999999995,0.4294 0.8973000000000013,0.42680000000000007 0.8950999999999993,0.42680000000000007 0.895900000000001,0.42969999999999997 0.889800000000001,0.4284999999999999 0.8854000000000006,0.43189999999999995 0.878899999999998,0.4335 0.8782999999999994,0.4323999999999999 0.8762000000000008,0.4345999999999999 0.8765000000000001,0.43209999999999993 0.8734999999999999,0.4335 0.8733000000000004,0.4315 0.8721999999999994,0.43399999999999994 0.8689,0.4328000000000001 0.867799999999999,0.43379999999999996 0.8661999999999992,0.4323999999999999 0.8655000000000008,0.4274 0.8636999999999979,0.42779999999999996 0.8640000000000008,0.42979999999999996 0.8609000000000009,0.42569999999999997 0.8635999999999981,0.42500000000000004 0.8588999999999984,0.42379999999999995 0.859099999999998,0.41910000000000003 0.8537999999999997,0.4171 0.8501000000000012,0.41900000000000004 0.8448999999999991,0.4182999999999999 0.8436999999999983,0.4194 0.8410000000000011,0.41779999999999995 0.8396000000000008,0.4200999999999999 0.8364000000000011,0.41910000000000003 0.8341999999999992,0.42059999999999986 0.8335000000000008,0.4182999999999999 0.8308,0.42110000000000003 0.8308,0.4183999999999999 0.8272000000000013,0.41769999999999996 0.8265999999999991,0.41979999999999995 0.819700000000001,0.4131 0.8192999999999984,0.4151 0.815100000000001,0.4159999999999999 0.8147999999999982,0.4139999999999999 0.8054999999999986,0.42090000000000005 0.8040999999999983,0.4181999999999999 0.8007999999999988,0.4163999999999999 0.8036999999999992,0.41389999999999993 0.8023999999999987,0.4120999999999999 0.7984000000000009,0.4142999999999999 0.7977999999999987,0.4172 0.7946999999999989,0.41700000000000004 0.7942,0.41480000000000006 0.7923000000000009,0.41700000000000004 0.7898999999999994,0.41690000000000005 0.7898999999999994,0.41849999999999987 0.787700000000001,0.41849999999999987 0.7873999999999981,0.4215 0.7841999999999985,0.4200999999999999 0.7832000000000008,0.4174 0.7804000000000002,0.4195 0.7821999999999996,0.4161999999999999 0.779799999999998,0.41579999999999995 0.7810999999999986,0.4133 0.7777999999999992,0.4123999999999999 0.7769000000000013,0.4102999999999999 0.7773000000000003,0.4082999999999999 0.7792999999999992,0.4082999999999999 0.779799999999998,0.403 0.7773000000000003,0.401 0.7774000000000001,0.3945000000000001 0.7723000000000013,0.3933 0.772199999999998,0.3911 0.7691999999999979,0.3897999999999999 0.7670999999999992,0.38159999999999994 0.7683999999999997,0.3820999999999999 0.7685999999999993,0.3808 0.7664000000000009,0.3769 0.7669999999999995,0.3743000000000001 0.768699999999999,0.3736999999999999 0.7684999999999995,0.36809999999999987 0.7705999999999982,0.3642000000000001 0.7706999999999979,0.3575999999999999 0.7728999999999999,0.35519999999999996 0.7729999999999997,0.34999999999999987 0.769400000000001,0.3516999999999999 0.7630999999999979,0.35050000000000003 0.7566999999999986,0.3456999999999999 0.7357000000000014,0.33709999999999996 0.7261999999999986,0.3233999999999999 0.7261999999999986,0.31410000000000005 0.7217999999999982,0.3054999999999999 0.7200999999999986,0.29669999999999996 0.7210999999999999,0.2925 0.7121999999999993,0.2856000000000001 0.7070000000000007,0.28380000000000005 0.7042000000000002,0.272 0.6936999999999998,0.2691999999999999 0.6821999999999981,0.2614000000000001 0.6814999999999998,0.2569999999999999 0.6752000000000002,0.2506999999999999 0.671599999999998,0.24099999999999988 0.6634999999999991,0.23530000000000006 0.6590999999999987,0.22760000000000002 0.6504000000000012,0.2219 0.6477000000000004,0.21589999999999998 0.6414000000000009,0.21209999999999996 0.6392999999999986,0.20579999999999998 0.633499999999998,0.20910000000000006 0.6266999999999996,0.20829999999999993 0.6265999999999998,0.20100000000000007 0.6195999999999984,0.2003999999999999 0.620000000000001,0.20389999999999997 0.6173000000000002,0.2056 0.6161999999999992,0.21089999999999987 0.6039999999999992,0.21100000000000008 0.5998999999999981,0.20839999999999992 0.6000000000000014,0.1963999999999999 0.6031000000000013,0.18619999999999992 0.6016000000000012,0.18249999999999988 0.6031000000000013,0.18019999999999992 0.5957000000000008,0.1753 0.594100000000001,0.16880000000000006 0.5903999999999989,0.1634 0.5932999999999993,0.15490000000000004 0.5910000000000011,0.1471 0.5977999999999994,0.13819999999999988 0.5988000000000007,0.1358999999999999 0.5992999999999995,0.13440000000000007 0.5992999999999995,0.13429999999999986 0.5973000000000006,0.13319999999999999 0.5952999999999982,0.13559999999999994 0.581199999999999,0.13060000000000005 0.5736999999999988,0.13139999999999996 0.5672999999999995,0.1258999999999999 0.5658999999999992,0.12030000000000007 0.5614999999999988,0.11880000000000002 0.5578000000000003,0.11939999999999995 0.5533999999999999,0.11030000000000006 0.5530000000000008,0.10060000000000002 0.5513000000000012,0.0976999999999999 0.546599999999998,0.09779999999999989 0.5410000000000004,0.10519999999999996 0.5318000000000005,0.10989999999999989 0.5267999999999979,0.10509999999999997 0.5238000000000014,0.1068 0.5167000000000002,0.10640000000000005 0.514599999999998,0.10919999999999996 0.5114999999999981,0.10929999999999995 0.502399999999998,0.10440000000000005 0.4986999999999995,0.1008 0.4989999999999988,0.09010000000000007 0.4878999999999998,0.08749999999999991 0.48059999999999903,0.08329999999999993 0.48249999999999815,0.06489999999999996 0.4861000000000004,0.060899999999999954 0.4834999999999994,0.057499999999999885 0.4837999999999987,0.05390000000000006 0.48529999999999873,0.05279999999999996 0.4839999999999982,0.0512999999999999 0.48270000000000124,0.052200000000000024 0.48019999999999996,0.05059999999999998 0.47080000000000055,0.05469999999999997 0.465799999999998,0.060799999999999965 0.4554000000000009,0.06489999999999996 0.45449999999999946,0.06410000000000005 0.45230000000000103,0.06699999999999995 0.4419000000000004,0.06230000000000002 0.43799999999999883,0.05410000000000004 0.42909999999999826,0.047599999999999865 0.4245999999999981,0.034399999999999986 0.41659999999999897,0.032299999999999995 0.4060999999999986,0.0242 0.39010000000000034,0.020399999999999974 0.3863999999999983,0.018999999999999906 0.38569999999999993,0.016799999999999926 0.3830999999999989,0.018000000000000016 0.3663999999999987,0.011500000000000066 0.35449999999999804,0.0030999999999998806 0.34720000000000084,0.00029999999999996696 0.34229999999999805,0.0 0.3398000000000003,0.005199999999999871 "></polygon><polygon points="0.3869310924369742,1.889321848739496 0.3868000000000009,1.8893 0.3869000000000007,1.8893 0.3869310924369742,1.889321848739496 "></polygon><polygon points="0.3869310924369742,1.889321848739496 0.3879999999999981,1.8895 0.39059999999999917,1.8919 0.3869310924369742,1.889321848739496 "></polygon>
    </svg>
    