
    <svg width="344.96079999999995" height="28.7907" xmlns="http://www.w3.org/2000/svg" xmlns:xlink="http://www.w3.org/1999/xlink" style="transform: scale(1, -1)">
        <polygon points="18.273899999999998,0.011400000000000021 18.286,0.020000000000000018 18.292599999999993,0.01930000000000004 18.296699999999987,0.015500000000000014 18.298999999999978,0.010199999999999987 18.298099999999977,0.006000000000000005 18.293999999999983,0.0007000000000000339 18.28989999999999,0.0 18.284899999999993,0.0015999999999999903 18.271899999999988,0.0020000000000000018 18.2705,0.0047000000000000375 18.273899999999998,0.011400000000000021 "></polygon><polygon points="16.19999999999999,6.2648 16.19719999999998,6.262300000000001 16.194999999999993,6.262300000000001 16.2003,6.2668 16.19999999999999,6.2648 "></polygon><polygon points="16.256099999999975,6.2612000000000005 16.25799999999998,6.2682 16.26219999999998,6.270700000000001 16.263799999999975,6.2700000000000005 16.25829999999999,6.2657 16.2586,6.2609 16.256099999999975,6.2612000000000005 "></polygon><polygon points="16.234399999999994,6.2815 16.24109999999999,6.2795000000000005 16.244999999999976,6.2757000000000005 16.247299999999996,6.2755 16.244099999999975,6.2747 16.24109999999999,6.2784 16.2389,6.2776000000000005 16.2372,6.2796 16.235299999999995,6.279 16.233599999999996,6.2676 16.236699999999985,6.2614 16.24279999999999,6.264 16.244699999999995,6.2696000000000005 16.25029999999998,6.2734000000000005 16.249799999999993,6.2752 16.247799999999984,6.2746 16.249200000000002,6.2765 16.254399999999976,6.2743 16.254399999999976,6.2696000000000005 16.253299999999996,6.2732 16.246899999999982,6.2696000000000005 16.244699999999995,6.2651 16.245800000000003,6.2637 16.24249999999998,6.2621 16.244199999999978,6.260400000000001 16.243299999999977,6.2593000000000005 16.225799999999992,6.2629 16.20829999999998,6.262300000000001 16.20689999999999,6.2609 16.204999999999984,6.2621 16.207899999999995,6.2641 16.209299999999985,6.263 16.210700000000003,6.2651 16.21549999999999,6.263 16.219499999999982,6.264600000000001 16.220699999999994,6.2658000000000005 16.21859999999998,6.266500000000001 16.2192,6.2682 16.226199999999977,6.2682 16.233299999999986,6.2645 16.232,6.268 16.21939999999998,6.270700000000001 16.222799999999978,6.2718 16.232399999999984,6.268800000000001 16.23429999999999,6.2796 16.22889999999998,6.2757000000000005 16.23089999999999,6.2776000000000005 16.21859999999998,6.2737 16.2106,6.279 16.20319999999998,6.2777 16.20399999999998,6.2804 16.214699999999993,6.2807 16.220799999999997,6.2782 16.227499999999992,6.2821 16.234399999999994,6.2815 "></polygon><polygon points="15.924199999999985,6.8209 15.925799999999981,6.8209 15.9358,6.8118 15.942199999999985,6.8096000000000005 15.940799999999996,6.8051 15.942499999999995,6.8034 15.947199999999981,6.8068 15.94889999999998,6.8037 15.952199999999976,6.8023 15.954399999999993,6.7971 15.967799999999983,6.7821 15.967500000000001,6.7757000000000005 15.965299999999985,6.772600000000001 15.964199999999977,6.7729 15.964699999999993,6.7821 15.956699999999984,6.7907 15.952199999999976,6.7987 15.949699999999979,6.800400000000001 15.948599999999999,6.799300000000001 15.952499999999986,6.7946 15.951899999999995,6.7934 15.944999999999993,6.7979 15.930499999999995,6.8132 15.919999999999987,6.8184000000000005 15.918599999999998,6.8223 15.919699999999978,6.8234 15.921699999999987,6.8209 15.924199999999985,6.8209 "></polygon><polygon points="103.27959999999999,18.803 103.29959999999998,18.7994 103.30259999999998,18.7939 103.30179999999999,18.782999999999998 103.2982,18.7802 103.2926,18.7797 103.28479999999999,18.7839 103.27369999999999,18.799699999999998 103.27489999999999,18.803 103.27959999999999,18.803 "></polygon><polygon points="344.9511,19.6984 344.95219999999995,19.688399999999998 344.9572,19.6779 344.9572,19.6684 344.96079999999995,19.6604 344.9606,19.6573 344.938,19.6684 344.9208,19.6737 344.91859999999997,19.677599999999998 344.9011,19.6879 344.9047,19.692899999999998 344.9192,19.680899999999998 344.92139999999995,19.6821 344.92499999999995,19.677599999999998 344.9305,19.6779 344.93330000000003,19.6751 344.9464,19.6726 344.9497,19.6768 344.9447,19.6876 344.94669999999996,19.692899999999998 344.9447,19.694 344.9392,19.6907 344.9375,19.694599999999998 344.938,19.6962 344.94309999999996,19.6984 344.9511,19.6984 "></polygon><polygon points="344.9208,19.7073 344.93359999999996,19.6998 344.9367,19.6934 344.92499999999995,19.694 344.9281,19.695899999999998 344.9242,19.702099999999998 344.91859999999997,19.7065 344.9208,19.7073 "></polygon><polygon points="12.094399999999979,24.1752 12.092799999999983,24.1759 12.092599999999976,24.1767 12.096399999999988,24.1744 12.094399999999979,24.1752 "></polygon><polygon points="12.020299999999992,24.2582 12.014699999999976,24.2565 12.013899999999978,24.257099999999998 12.0231,24.259999999999998 12.020299999999992,24.2582 "></polygon><polygon points="12.062299999999993,24.2602 12.058999999999997,24.2606 12.058300000000003,24.261499999999998 12.062099999999987,24.2608 12.062299999999993,24.2602 "></polygon><polygon points="1.8271999999999764,0.5893 1.8338999999999999,0.5856 1.8329999999999984,0.5815 1.8298999999999808,0.579 1.8179999999999836,0.5796 1.8168000000000006,0.5821000000000001 1.8216999999999928,0.5896 1.8271999999999764,0.5893 "></polygon><polygon points="1.6854999999999905,1.2065000000000001 1.6910999999999774,1.1957 1.6908999999999992,1.1883 1.6888999999999896,1.1854 1.6850000000000023,1.1857 1.6796999999999969,1.2059 1.680499999999995,1.2071 1.6854999999999905,1.2065000000000001 "></polygon><polygon points="6.574399999999997,26.1676 6.576899999999995,26.1662 6.577799999999996,26.1632 6.574699999999979,26.159399999999998 6.5726999999999975,26.1508 6.573599999999999,26.1493 6.569099999999992,26.1465 6.56219999999999,26.147199999999998 6.560899999999975,26.148899999999998 6.561700000000002,26.1598 6.56359999999998,26.1668 6.565499999999986,26.1679 6.5668999999999755,26.1665 6.570799999999991,26.1684 6.574399999999997,26.1676 "></polygon><polygon points="4.337199999999996,26.4601 4.341399999999993,26.4576 4.343599999999981,26.4534 4.343299999999999,26.4457 4.341899999999981,26.4443 4.336099999999988,26.4454 4.329999999999984,26.4584 4.3339,26.4609 4.337199999999996,26.4601 "></polygon><polygon points="8.78309999999999,17.1262 8.784699999999987,17.1235 8.78279999999998,17.118199999999998 8.780299999999983,17.1196 8.777499999999975,17.1177 8.776899999999983,17.115099999999998 8.774399999999986,17.1165 8.77109999999999,17.1126 8.768299999999982,17.1127 8.758600000000001,17.1082 8.757799999999975,17.108999999999998 8.755499999999984,17.113699999999998 8.757199999999983,17.1171 8.762499999999989,17.1179 8.76939999999999,17.1235 8.778099999999995,17.1271 8.78309999999999,17.1262 "></polygon><polygon points="8.787499999999994,17.133399999999998 8.788899999999984,17.1349 8.790300000000002,17.1346 8.7894,17.1326 8.787499999999994,17.133399999999998 "></polygon><polygon points="8.795299999999997,17.1332 8.793299999999988,17.1323 8.79249999999999,17.1343 8.796699999999987,17.1359 8.795299999999997,17.1332 "></polygon><polygon points="8.806099999999986,17.1633 8.796699999999987,17.159 8.794699999999978,17.1598 8.786999999999978,17.1577 8.77419999999998,17.1465 8.750199999999978,17.1159 8.750799999999998,17.113699999999998 8.747500000000002,17.1095 8.745800000000003,17.0996 8.744399999999985,17.1012 8.744699999999995,17.1048 8.748599999999982,17.1159 8.774399999999986,17.1493 8.787499999999994,17.1601 8.793700000000001,17.1603 8.799199999999985,17.1637 8.800600000000003,17.1629 8.811099999999982,17.1696 8.806099999999986,17.1633 "></polygon><polygon points="8.818299999999994,17.144 8.816099999999977,17.142599999999998 8.8142,17.1446 8.816599999999994,17.1465 8.818299999999994,17.144 "></polygon><polygon points="8.789699999999982,17.150399999999998 8.787799999999976,17.1484 8.785899999999998,17.1515 8.788299999999992,17.1523 8.789699999999982,17.150399999999998 "></polygon><polygon points="8.842399999999998,17.1733 8.841999999999985,17.171499999999998 8.839199999999977,17.1723 8.839699999999993,17.1739 8.842399999999998,17.1733 "></polygon><polygon points="8.836799999999982,17.1723 8.8356,17.1734 8.836199999999991,17.1743 8.837799999999987,17.1737 8.836799999999982,17.1723 "></polygon><polygon points="2.4858999999999867,28.1799 2.4891999999999825,28.1782 2.4838000000000022,28.176299999999998 2.4824999999999875,28.1799 2.4858999999999867,28.1799 "></polygon><polygon points="2.5646999999999878,28.3146 2.5661999999999807,28.3161 2.567299999999989,28.316 2.567399999999992,28.3143 2.5641999999999996,28.3123 2.5646999999999878,28.3146 "></polygon><polygon points="0.9556999999999789,28.5949 0.953000000000003,28.5929 0.9518999999999949,28.5965 0.953000000000003,28.5971 0.9556999999999789,28.5949 "></polygon><polygon points="0.9346999999999923,28.606199999999998 0.9424999999999955,28.6051 0.9439999999999884,28.6009 0.9418999999999755,28.6035 0.9375,28.6037 0.9352999999999838,28.5996 0.9402999999999793,28.5987 0.9423999999999921,28.600099999999998 0.9438999999999851,28.5973 0.931699999999978,28.592299999999998 0.9302999999999884,28.587899999999998 0.9281999999999755,28.591 0.9132999999999925,28.5846 0.9074999999999989,28.5846 0.9071999999999889,28.586199999999998 0.9161000000000001,28.5982 0.9165999999999883,28.6048 0.9313999999999965,28.6079 0.9346999999999923,28.606199999999998 "></polygon><polygon points="0.9802999999999997,28.5987 0.9788999999999817,28.595399999999998 0.9654999999999916,28.5932 0.9572000000000003,28.5959 0.9694999999999823,28.600099999999998 0.976399999999984,28.6068 0.9802999999999997,28.5987 "></polygon><polygon points="0.01120000000000232,28.7786 0.0016999999999995907,28.7751 0.0,28.7762 0.008299999999991314,28.782899999999998 0.014199999999988222,28.7907 0.014999999999986358,28.7827 0.01120000000000232,28.7786 "></polygon>
    </svg>
    