
    <svg width="11.732400000000002" height="9.8072" xmlns="http://www.w3.org/2000/svg" xmlns:xlink="http://www.w3.org/1999/xlink" style="transform: scale(1, -1)">
        <polygon points="3.898299999999999,0.10699999999999932 3.8798999999999992,0.11090000000000089 3.8762000000000008,0.11609999999999943 3.8733000000000004,0.1349000000000018 3.8674999999999997,0.14480000000000004 3.874600000000001,0.15360000000000085 3.874600000000001,0.1568000000000005 3.871299999999998,0.16130000000000067 3.8729000000000013,0.16959999999999908 3.869799999999998,0.17760000000000176 3.8658,0.18060000000000187 3.8638000000000012,0.1858000000000004 3.8598,0.1894999999999989 3.850999999999999,0.1938999999999993 3.830400000000001,0.19610000000000127 3.8156,0.20619999999999905 3.7911,0.23120000000000118 3.7811999999999983,0.23710000000000164 3.7714,0.2386000000000017 3.7670999999999992,0.23760000000000048 3.7575000000000003,0.24230000000000018 3.7426999999999992,0.24429999999999907 3.7254000000000005,0.24920000000000186 3.719000000000001,0.25519999999999854 3.7162000000000006,0.26750000000000185 3.7086000000000006,0.2749999999999986 3.6994000000000007,0.27560000000000073 3.6935000000000002,0.2740000000000009 3.6744999999999983,0.2621000000000002 3.661999999999999,0.25179999999999936 3.638099999999998,0.24380000000000024 3.5961,0.2444999999999986 3.5829999999999984,0.24790000000000134 3.5692999999999984,0.24540000000000006 3.556799999999999,0.23140000000000072 3.5474999999999994,0.22579999999999956 3.533100000000001,0.22490000000000165 3.4938000000000002,0.238900000000001 3.482800000000001,0.24080000000000013 3.4650999999999996,0.23819999999999908 3.4229999999999983,0.2403000000000013 3.414300000000001,0.24259999999999948 3.409700000000001,0.24599999999999866 3.4037000000000006,0.24609999999999843 3.4023000000000003,0.24920000000000186 3.3992000000000004,0.2507000000000019 3.3779000000000003,0.24869999999999948 3.363299999999999,0.2497000000000007 3.341899999999999,0.2599000000000018 3.3348000000000013,0.26910000000000167 3.296800000000001,0.2923000000000009 3.2712000000000003,0.3017000000000003 3.2578999999999994,0.31299999999999883 3.2561999999999998,0.31640000000000157 3.247,0.3211000000000013 3.2426999999999992,0.3222999999999985 3.2331000000000003,0.3211000000000013 3.2162000000000006,0.32179999999999964 3.2037000000000013,0.3271000000000015 3.1983999999999995,0.33289999999999864 3.1915000000000013,0.3363000000000014 3.1875999999999998,0.3407000000000018 3.178799999999999,0.36189999999999856 3.1789999999999985,0.3697000000000017 3.177699999999998,0.3758000000000017 3.1751000000000005,0.37950000000000017 3.1647,0.38540000000000063 3.1526999999999994,0.38899999999999935 3.141300000000001,0.3957000000000015 3.1363999999999983,0.3952999999999989 3.126999999999999,0.3890999999999991 3.1163999999999987,0.3904999999999994 3.115199999999998,0.3947000000000003 3.123000000000001,0.41850000000000165 3.121199999999998,0.4280000000000008 3.118299999999998,0.43329999999999913 3.099999999999998,0.4403000000000006 3.0970000000000013,0.4436 3.0852000000000004,0.4667999999999992 3.0853,0.4704000000000015 3.0793999999999997,0.47490000000000165 3.062999999999999,0.46440000000000126 3.060500000000001,0.4663000000000004 3.059799999999999,0.4714999999999989 3.064,0.4894999999999996 3.0608000000000004,0.495000000000001 3.0520999999999994,0.49930000000000163 3.0412999999999997,0.501100000000001 3.033100000000001,0.5002999999999993 3.0250999999999983,0.4972999999999992 3.0074000000000005,0.5101000000000013 2.9974999999999987,0.5265999999999984 2.9909,0.5305999999999997 2.983599999999999,0.5313000000000017 2.9678000000000004,0.5272000000000006 2.958400000000001,0.5302000000000007 2.9518999999999984,0.5352999999999994 2.9479000000000006,0.5362000000000009 2.9278000000000013,0.5358000000000018 2.9152999999999984,0.5405000000000015 2.8932,0.555299999999999 2.8871,0.5562000000000005 2.8686000000000007,0.5566999999999993 2.8416999999999994,0.5622000000000007 2.8223999999999982,0.5550999999999995 2.8139000000000003,0.5560000000000009 2.7924000000000007,0.5702999999999996 2.7867999999999995,0.5691999999999986 2.777799999999999,0.5717999999999996 2.7650000000000006,0.5717999999999996 2.755600000000001,0.5745000000000005 2.7441999999999993,0.5816000000000017 2.721899999999998,0.5858999999999988 2.700099999999999,0.5816000000000017 2.6935000000000002,0.5817000000000014 2.6819999999999986,0.5856999999999992 2.667300000000001,0.5844999999999985 2.659399999999998,0.5809999999999995 2.649899999999999,0.5717999999999996 2.6439999999999984,0.5633000000000017 2.6285999999999987,0.5503 2.616199999999999,0.5455000000000005 2.5942000000000007,0.5426000000000002 2.588000000000001,0.5442999999999998 2.5763,0.5523999999999987 2.558,0.5705999999999989 2.5387999999999984,0.5696000000000012 2.530000000000001,0.5716000000000001 2.504100000000001,0.5863000000000014 2.4971999999999994,0.5932999999999993 2.4771,0.6020000000000003 2.464299999999998,0.5986000000000011 2.4540000000000006,0.6035000000000004 2.4327000000000005,0.6082000000000001 2.3939999999999984,0.6077000000000012 2.354599999999998,0.5920999999999985 2.2909000000000006,0.5983000000000018 2.2669999999999995,0.6094000000000008 2.261099999999999,0.610199999999999 1.4579999999999984,0.4435000000000002 1.4588,0.44879999999999853 1.4566999999999979,0.4596000000000018 1.447700000000001,0.47800000000000153 1.443999999999999,0.4823999999999984 1.4293000000000013,0.49299999999999855 1.4212999999999987,0.49820000000000064 1.3985999999999983,0.5078999999999994 1.3690999999999995,0.5234999999999985 1.3551000000000002,0.5264999999999986 1.3329999999999984,0.5340999999999987 1.312899999999999,0.5374000000000017 1.2949999999999982,0.5379000000000005 1.2771000000000008,0.5411000000000001 1.2688999999999986,0.5443999999999996 1.2513000000000005,0.5581999999999994 1.2420000000000009,0.5718999999999994 1.1982999999999997,0.6186000000000007 1.1796000000000006,0.6306000000000012 1.161200000000001,0.6401000000000003 1.1415000000000006,0.6563000000000017 1.123899999999999,0.6655000000000015 1.1123000000000012,0.6768999999999998 1.1074999999999982,0.6845999999999997 1.0925000000000011,0.7286000000000001 1.0830999999999982,0.741299999999999 1.0545000000000009,0.770900000000001 1.0411000000000001,0.7896000000000001 1.0184999999999995,0.8071000000000019 0.986699999999999,0.821200000000001 0.9831000000000003,0.8303000000000011 0.9865999999999993,0.821200000000001 0.9382999999999981,0.8412000000000006 0.9085000000000001,0.8646999999999991 0.8838000000000008,0.8915000000000006 0.8486000000000011,0.9155000000000015 0.8342999999999989,0.9300999999999995 0.8055999999999983,0.9655999999999985 0.7665000000000006,1.0024000000000015 0.746500000000001,1.0267000000000017 0.7292999999999985,1.0396 0.7175000000000011,1.0568999999999988 0.706900000000001,1.0668000000000006 0.6682999999999986,1.0928000000000004 0.645900000000001,1.1158000000000001 0.6286999999999985,1.1412000000000013 0.6108000000000011,1.1517000000000017 0.6016000000000012,1.1643000000000008 0.5904999999999987,1.175699999999999 0.552699999999998,1.2028999999999996 0.509999999999998,1.2414999999999985 0.5017999999999994,1.2530999999999999 0.48499999999999943,1.2696000000000005 0.45959999999999823,1.3000000000000007 0.41839999999999833,1.3382000000000005 0.4134999999999991,1.3457000000000008 0.40080000000000027,1.3583999999999996 0.38659999999999783,1.3691999999999993 0.37490000000000023,1.3901000000000003 0.3438999999999979,1.4324000000000012 0.33729999999999905,1.4384000000000015 0.3017000000000003,1.4594999999999985 0.27609999999999957,1.4977000000000018 0.2667999999999999,1.4983000000000004 0.25079999999999814,1.5054000000000016 0.22299999999999898,1.524799999999999 0.20929999999999893,1.5381999999999998 0.19790000000000063,1.5563000000000002 0.17389999999999972,1.5797999999999988 0.16130000000000067,1.6031000000000013 0.15469999999999828,1.6433999999999997 0.15469999999999828,1.6568000000000005 0.14259999999999806,1.7098000000000013 0.14120000000000132,1.7239000000000004 0.1258999999999979,1.7443999999999988 0.11219999999999786,1.7691000000000017 0.09639999999999915,1.7833000000000006 0.09659999999999869,1.7887999999999984 0.10219999999999985,1.7956000000000003 0.10210000000000008,1.7992999999999988 0.09149999999999991,1.8102000000000018 0.07339999999999947,1.8214000000000006 0.05859999999999843,1.8373999999999988 0.0522999999999989,1.8374999999999986 0.05030000000000001,1.8389999999999986 0.04830000000000112,1.8444000000000003 0.0478999999999985,1.8545000000000016 0.03200000000000003,1.8641000000000005 0.021300000000000097,1.8673000000000002 0.0,3.5653000000000006 0.02289999999999992,5.081900000000001 1.109300000000001,5.086399999999999 2.0858999999999988,5.0808 2.0840999999999994,5.087199999999999 2.078099999999999,5.0954999999999995 2.0653000000000006,5.106199999999999 2.0554999999999986,5.117100000000001 2.0519,5.135300000000001 2.0386999999999986,5.154400000000001 2.0287000000000006,5.1646 1.9981000000000009,5.1843 1.973700000000001,5.195600000000001 1.9541000000000004,5.214700000000001 1.9426999999999985,5.237299999999999 1.9313000000000002,5.2476 1.9267000000000003,5.256500000000001 1.927299999999999,5.2736 1.9258999999999986,5.283200000000001 1.920099999999998,5.2959 1.9329,5.3477 1.9468999999999994,5.3626000000000005 1.9504999999999981,5.3748000000000005 1.9518999999999984,5.3881 1.9504999999999981,5.414899999999999 1.9695,5.474600000000001 1.972100000000001,5.4884 1.9716999999999985,5.544600000000001 2.0000999999999998,5.5762 2.0153,5.587300000000001 2.0291999999999994,5.601800000000001 2.0402999999999984,5.617800000000001 2.0534999999999997,5.6266 2.0778999999999996,5.652900000000001 2.081699999999998,5.655200000000001 2.0844999999999985,5.667 2.0945,5.687200000000001 2.0975,5.7067 2.0921999999999983,5.728 2.084199999999999,5.7376000000000005 2.073599999999999,5.7440999999999995 2.0722999999999985,5.748100000000001 2.0744000000000007,5.753299999999999 2.084900000000001,5.7637 2.0885,5.7782 2.087900000000001,5.784000000000001 2.080400000000001,5.801500000000001 2.0463999999999984,5.8551 2.0402999999999984,5.8611 2.029799999999998,5.876200000000001 2.0195000000000007,5.8835 2.0124999999999993,5.9008 2.0074000000000005,5.9224 1.9954,5.9544 1.993500000000001,5.9762 1.9937000000000005,6.008700000000001 1.9974999999999987,6.0198 1.999299999999998,6.040699999999999 1.999299999999998,6.067 2.0029000000000003,6.111800000000001 2.0016,6.132300000000001 2.0036999999999985,6.1541 2.0101000000000013,6.1922999999999995 2.0223000000000013,6.2318999999999996 2.0317000000000007,6.243399999999999 2.037399999999998,6.254 2.035899999999998,6.276300000000001 2.0279999999999987,6.307500000000001 2.0233999999999988,6.3165 2.0150000000000006,6.346 2.0096999999999987,6.357800000000001 2.0060000000000002,6.3744 1.987099999999998,6.417300000000001 1.9867999999999988,6.420999999999999 1.9937000000000005,6.435600000000001 1.9982000000000006,6.4556000000000004 2.0067999999999984,6.482100000000001 2.0273000000000003,6.521800000000001 2.035999999999998,6.535299999999999 2.0488,6.5687999999999995 2.0402999999999984,6.584300000000001 2.0356999999999985,6.6027000000000005 2.0367999999999995,6.6248000000000005 2.042300000000001,6.6419 2.049900000000001,6.649800000000001 2.0662999999999982,6.657 2.0775000000000006,6.6639 2.0942000000000007,6.6852 2.0974000000000004,6.6929 2.0970000000000013,6.696400000000001 2.100100000000001,6.6998999999999995 2.096899999999998,6.6983 2.0845999999999982,6.7361 2.0824,6.747300000000001 2.0692999999999984,6.7781 2.0488999999999997,6.809699999999999 2.043599999999998,6.8315 2.049599999999998,6.923500000000001 2.045099999999998,6.9392 2.023799999999998,6.951499999999999 2.0188999999999986,6.956900000000001 2.0180000000000007,6.961500000000001 2.0196000000000005,6.969799999999999 2.029399999999999,6.9780999999999995 2.0335,6.9885 2.0333000000000006,7.0009999999999994 2.0311999999999983,7.0114 2.023699999999998,7.0356000000000005 2.0229999999999997,7.0565 2.0284000000000013,7.074300000000001 2.032799999999998,7.0821000000000005 2.037600000000001,7.1036 2.0280999999999985,7.133000000000001 2.018799999999999,7.146800000000001 2.005700000000001,7.1577 2.001100000000001,7.164300000000001 1.9985999999999997,7.1747 2.0015,7.1783 2.015699999999999,7.1845 2.0349000000000004,7.1896 2.049900000000001,7.1905 2.0797999999999988,7.189 2.110699999999998,7.180300000000001 2.1148999999999987,7.177300000000001 2.125,7.175599999999999 2.1358999999999995,7.1654 2.1377999999999986,7.158100000000001 2.1372999999999998,7.146599999999999 2.133499999999998,7.127600000000001 2.1393999999999984,7.118399999999999 2.1464999999999996,7.111000000000001 2.149799999999999,7.0913 2.1479999999999997,7.0699000000000005 2.148900000000001,7.0649999999999995 2.1561999999999983,7.0547 2.1708,7.0497 2.1952999999999996,7.062200000000001 2.2017999999999986,7.0616 2.2318,7.045300000000001 2.2521999999999984,7.0372 2.2898999999999994,7.037800000000001 2.3130999999999986,7.035400000000001 2.351499999999998,7.020200000000001 2.3800999999999988,6.9986 2.394099999999998,6.990399999999999 2.4041999999999994,6.972300000000001 2.404899999999998,6.9605 2.395299999999999,6.9084 2.3965999999999994,6.902699999999999 2.4086,6.8812999999999995 2.4118999999999993,6.8704 2.4116,6.858499999999999 2.414300000000001,6.851800000000001 2.412499999999998,6.836399999999999 2.4030999999999985,6.8017 2.395699999999998,6.791 2.3904999999999994,6.7767 2.3736999999999995,6.744300000000001 2.357599999999998,6.725099999999999 2.3358999999999988,6.715999999999999 2.3063000000000002,6.710800000000001 2.298300000000001,6.7044 2.2958999999999996,6.7010000000000005 2.2948999999999984,6.6951 2.298400000000001,6.6884999999999994 2.3016000000000005,6.686300000000001 2.317899999999998,6.68 2.329699999999999,6.678000000000001 2.3520000000000003,6.6768 2.3709999999999987,6.683199999999999 2.3785999999999987,6.6829 2.386499999999998,6.6799 2.4113000000000007,6.6661 2.4410999999999987,6.6455 2.4543,6.6248000000000005 2.459199999999999,6.623800000000001 2.485800000000001,6.6259 2.5098999999999982,6.622 2.521699999999999,6.622 2.5580999999999996,6.6365 2.561899999999998,6.6393 2.5783999999999985,6.6370000000000005 2.5885999999999996,6.6378 2.5992999999999995,6.6433 2.605599999999999,6.6546 2.6083999999999996,6.6623 2.6081000000000003,6.667400000000001 2.610599999999998,6.670999999999999 2.6301999999999985,6.680400000000001 2.6370000000000005,6.6806 2.652000000000001,6.6876999999999995 2.6615,6.697000000000001 2.665099999999999,6.708400000000001 2.6921,6.7348 2.717500000000001,6.7529 2.7329000000000008,6.7553 2.747299999999999,6.7607 2.7552999999999983,6.772600000000001 2.7666000000000004,6.7799 2.788499999999999,6.7836 2.814499999999999,6.7795000000000005 2.8247,6.7813 2.8663999999999987,6.7919 2.8877999999999986,6.8065 2.8939999999999984,6.8133 2.901799999999998,6.8138000000000005 2.9147,6.8103 2.9343000000000004,6.8126999999999995 2.9503999999999984,6.820399999999999 2.9693000000000005,6.8268 2.988599999999998,6.8261 3.007999999999999,6.8325 3.037399999999998,6.8384 3.0509999999999984,6.8378 3.091100000000001,6.8292 3.113299999999999,6.8346 3.1388999999999996,6.8378 3.1615,6.8454 3.1781000000000006,6.8484 3.215799999999998,6.8512 3.243400000000001,6.856999999999999 3.2531,6.8606 3.2659999999999982,6.867800000000001 3.2810999999999986,6.8789 3.3032000000000004,6.8889 3.334900000000001,6.8909 3.3580000000000005,6.8888 3.363199999999999,6.883100000000001 3.364699999999999,6.8759999999999994 3.363199999999999,6.8643 3.3503000000000007,6.8475 3.3409000000000013,6.8294999999999995 3.340799999999998,6.8215 3.343799999999998,6.8149 3.3359999999999985,6.8003 3.326699999999999,6.7918 3.317,6.787700000000001 3.311899999999998,6.7729 3.3237999999999985,6.749499999999999 3.3203999999999994,6.7415 3.3153000000000006,6.737400000000001 3.3003,6.7308 3.296800000000001,6.7232 3.2971000000000004,6.7111 3.3078000000000003,6.6831 3.3111999999999995,6.678000000000001 3.318200000000001,6.6469000000000005 3.3145999999999987,6.630800000000001 3.3157999999999994,6.6211 3.331800000000001,6.5907 3.331599999999998,6.5824 3.3260000000000005,6.577300000000001 3.318999999999999,6.577500000000001 3.3104000000000013,6.5722000000000005 3.307299999999998,6.568099999999999 3.3107000000000006,6.557600000000001 3.3217,6.5357 3.3237999999999985,6.527699999999999 3.330400000000001,6.516 3.3446999999999996,6.5001 3.348600000000001,6.4778 3.348700000000001,6.4649 3.3512999999999984,6.459099999999999 3.3689,6.4475999999999996 3.3877999999999986,6.4399 3.4060999999999986,6.434800000000001 3.4364999999999988,6.4107 3.446200000000001,6.412800000000001 3.4624999999999986,6.4107 3.4974999999999987,6.4009 3.506499999999999,6.382300000000001 3.4964000000000013,6.3834 3.4939999999999998,6.3689 3.5052999999999983,6.3622 3.515599999999999,6.359400000000001 3.514800000000001,6.3553 3.5168,6.351800000000001 3.5158999999999985,6.3408 3.518699999999999,6.332599999999999 3.5184999999999995,6.327300000000001 3.5092999999999996,6.3187999999999995 3.507200000000001,6.313700000000001 3.5076,6.308400000000001 3.514599999999998,6.2996 3.522400000000001,6.2979 3.5288000000000004,6.2921 3.534700000000001,6.300000000000001 3.5379000000000005,6.3018 3.5519,6.297600000000001 3.5563000000000002,6.2997 3.5624000000000002,6.3087 3.5748999999999995,6.3187 3.5798999999999985,6.320500000000001 3.5935999999999986,6.3199000000000005 3.599499999999999,6.3223 3.607499999999998,6.330299999999999 3.6092000000000013,6.343400000000001 3.6156000000000006,6.347300000000001 3.626899999999999,6.347900000000001 3.6377999999999986,6.3515999999999995 3.6453999999999986,6.351700000000001 3.6531999999999982,6.3485 3.66,6.348000000000001 3.668499999999998,6.3513 3.672599999999999,6.3513 3.6799999999999997,6.3443000000000005 3.6860999999999997,6.3316 3.6872000000000007,6.3176000000000005 3.6903000000000006,6.3102 3.7037000000000013,6.302200000000001 3.7103,6.292400000000001 3.7197999999999993,6.289200000000001 3.722100000000001,6.2866 3.722899999999999,6.280100000000001 3.7253000000000007,6.2758 3.7342000000000013,6.27 3.7363,6.269400000000001 3.7452000000000005,6.2722 3.7551999999999985,6.2692 3.7654999999999994,6.2697 3.773199999999999,6.264200000000001 3.7805999999999997,6.261900000000001 3.7866,6.2562 3.800799999999999,6.252000000000001 3.8049,6.253500000000001 3.809000000000001,6.2577 3.8169000000000004,6.2585 3.827099999999998,6.257099999999999 3.8383000000000003,6.251900000000001 3.847999999999999,6.2509999999999994 3.8552999999999997,6.253 3.876899999999999,6.271100000000001 3.8870000000000005,6.274900000000001 3.8930000000000007,6.273300000000001 3.906399999999998,6.2744 3.9118999999999993,6.252700000000001 3.9095000000000013,6.232800000000001 3.910899999999998,6.2308 3.921900000000001,6.2288 3.9274999999999984,6.2149 3.932199999999998,6.209300000000001 3.9453999999999994,6.197900000000001 3.950700000000001,6.195600000000001 3.968499999999999,6.199300000000001 3.9777999999999984,6.206200000000001 3.982099999999999,6.205400000000001 3.9909999999999997,6.2012 3.9954,6.1942 4.004000000000001,6.190100000000001 4.010100000000001,6.183999999999999 4.0158999999999985,6.171900000000001 4.0169999999999995,6.163 4.0152,6.1593 4.004200000000001,6.1533 4.0044,6.143700000000001 4.0014,6.1372 4.0047,6.134600000000001 4.020299999999999,6.1387 4.031099999999999,6.143700000000001 4.0319,6.1455 4.060400000000001,6.1494 4.085799999999999,6.147399999999999 4.102499999999999,6.1441 4.144400000000001,6.1417 4.172799999999999,6.1431000000000004 4.191800000000001,6.1486 4.2438,6.1554 4.257100000000001,6.1533999999999995 4.282499999999999,6.1447 4.3081,6.1393 4.336500000000001,6.123200000000001 4.3429,6.1206 4.349999999999998,6.1206 4.3995,6.142200000000001 4.434100000000001,6.1511 4.449999999999999,6.161300000000001 4.4773,6.1655999999999995 4.493299999999998,6.162800000000001 4.508199999999999,6.1533 4.5196000000000005,6.1487 4.566399999999998,6.121499999999999 4.5778,6.107900000000001 4.583400000000001,6.104900000000001 4.5914,6.104900000000001 4.618600000000001,6.112299999999999 4.6328,6.111600000000001 4.678799999999999,6.095700000000001 4.695799999999998,6.0954999999999995 4.7028,6.0983 4.7193000000000005,6.0891 4.731400000000001,6.078100000000001 4.736999999999998,6.0794 4.747299999999999,6.0855999999999995 4.774699999999999,6.1107 4.785499999999999,6.114800000000001 4.815200000000001,6.1196 4.8262,6.1168 4.860599999999998,6.097099999999999 4.869199999999999,6.0968 4.872499999999999,6.099500000000001 4.8811,6.1005 4.8969999999999985,6.0969 4.906700000000001,6.102399999999999 4.913999999999998,6.120800000000001 4.921700000000001,6.1221 4.931999999999999,6.130800000000001 4.932400000000001,6.1394 4.934899999999999,6.144400000000001 4.944399999999998,6.142200000000001 4.960100000000001,6.143000000000001 4.966100000000001,6.1548 4.9772,6.1617999999999995 4.9817,6.1699 4.989799999999999,6.202400000000001 5.003399999999999,6.2113 5.0062999999999995,6.2226 5.009,6.226000000000001 5.011800000000001,6.2278 5.020800000000001,6.2287 5.028199999999998,6.2378 5.025500000000001,6.2432 5.014199999999999,6.2524999999999995 5.0136,6.2553 5.014599999999998,6.258900000000001 5.017599999999998,6.2622 5.0244,6.2623999999999995 5.027999999999999,6.265499999999999 5.023299999999999,6.277000000000001 5.025600000000001,6.2866 5.023699999999998,6.3016000000000005 5.026699999999998,6.3126999999999995 5.0245999999999995,6.333400000000001 5.026399999999999,6.335100000000001 5.0289,6.333400000000001 5.038699999999999,6.3325 5.0398,6.338699999999999 5.044699999999999,6.3384 5.046299999999999,6.3438 5.0518,6.3431999999999995 5.0519,6.353899999999999 5.058,6.361800000000001 5.0661999999999985,6.368 5.067799999999998,6.372199999999999 5.065799999999999,6.384500000000001 5.0611,6.3926 5.061799999999998,6.404 5.057500000000001,6.408799999999999 5.052699999999998,6.4094 5.047799999999999,6.4254 5.043099999999999,6.431100000000001 5.042300000000001,6.434699999999999 5.049800000000001,6.440799999999999 5.050799999999999,6.4458 5.0413,6.4529 5.037600000000001,6.4581 5.0365,6.4643999999999995 5.040800000000001,6.4701 5.049499999999998,6.4765999999999995 5.0565,6.478 5.060299999999998,6.484999999999999 5.069399999999998,6.4892 5.074300000000001,6.488300000000001 5.084199999999999,6.4811 5.101199999999999,6.4732 5.1142,6.478300000000001 5.119399999999999,6.4848 5.133800000000001,6.487400000000001 5.139599999999998,6.4915 5.142900000000001,6.4916 5.1525,6.486000000000001 5.162600000000001,6.4824 5.174299999999999,6.482100000000001 5.179199999999998,6.479800000000001 5.193899999999999,6.4946 5.203599999999998,6.4986 5.211199999999998,6.4978 5.214500000000001,6.4993 5.2181999999999995,6.504 5.2224,6.5158000000000005 5.2254000000000005,6.5191 5.228999999999999,6.513199999999999 5.2347,6.488900000000001 5.236599999999999,6.486000000000001 5.2379999999999995,6.473800000000001 5.2422,6.462300000000001 5.2414999999999985,6.453100000000001 5.2483,6.4422 5.2469,6.431100000000001 5.2484,6.4201 5.256699999999999,6.3988 5.255800000000001,6.394 5.251799999999999,6.3927 5.247299999999999,6.3857 5.253,6.3675999999999995 5.2515,6.361800000000001 5.2440999999999995,6.3497 5.244799999999998,6.3474 5.240600000000001,6.333400000000001 5.242699999999999,6.3285 5.247499999999999,6.3245000000000005 5.250499999999999,6.3169 5.251999999999999,6.2951999999999995 5.253899999999998,6.2927 5.2669,6.286099999999999 5.272400000000001,6.281499999999999 5.2774,6.2797 5.282799999999998,6.2804 5.284099999999999,6.286 5.2867,6.286099999999999 5.3123000000000005,6.276199999999999 5.318100000000001,6.2698 5.3263,6.2639 5.347300000000001,6.2516 5.3603999999999985,6.2515 5.359999999999999,6.2416 5.372699999999998,6.2326999999999995 5.3949,6.2242 5.400199999999998,6.2136 5.416899999999998,6.208 5.418900000000001,6.203900000000001 5.418800000000001,6.196300000000001 5.420099999999998,6.193899999999999 5.427399999999999,6.1905 5.435700000000001,6.1904 5.4411999999999985,6.1881 5.458300000000001,6.1693999999999996 5.476600000000001,6.1593 5.488800000000001,6.1486 5.4968,6.1325 5.488800000000001,6.1097 5.4863,6.099500000000001 5.4879,6.090400000000001 5.4817,6.0738 5.482299999999999,6.0573 5.483599999999999,6.052300000000001 5.487199999999998,6.047600000000001 5.4877,6.0435 5.484999999999999,6.0419 5.4864,6.0389 5.485199999999999,6.0367999999999995 5.489000000000001,6.0344 5.488499999999998,6.0289 5.494299999999999,6.0252 5.5051999999999985,6.030900000000001 5.515999999999998,6.0227 5.5153,6.008700000000001 5.5213,6.0052 5.522300000000001,6.000299999999999 5.530999999999999,5.9901 5.5291999999999994,5.980500000000001 5.5318000000000005,5.972300000000001 5.530200000000001,5.9573 5.533200000000001,5.9445 5.5398,5.931100000000001 5.542200000000001,5.9209 5.552199999999999,5.9041 5.5565,5.899900000000001 5.5671,5.8963 5.573699999999999,5.889200000000001 5.578900000000001,5.8803 5.581800000000001,5.8797 5.591000000000001,5.872300000000001 5.6114,5.8729 5.618600000000001,5.864800000000001 5.628799999999998,5.8629 5.636199999999999,5.8568999999999996 5.6371,5.845600000000001 5.6343,5.8399 5.648900000000001,5.8231 5.642599999999998,5.8146 5.6423999999999985,5.811 5.648299999999999,5.808300000000001 5.655000000000001,5.8088999999999995 5.6599,5.803000000000001 5.6709,5.7943999999999996 5.677699999999998,5.793900000000001 5.679099999999998,5.7955000000000005 5.6892,5.792 5.744900000000001,5.789200000000001 5.783799999999999,5.784700000000001 5.796299999999999,5.789899999999999 5.8231,5.8123000000000005 5.834699999999998,5.818 5.844899999999999,5.8346 5.8521,5.8368 5.873000000000001,5.8355999999999995 5.889700000000001,5.8302 5.924099999999999,5.826700000000001 5.948999999999998,5.821400000000001 5.9543,5.818899999999999 5.975100000000001,5.782 6.003899999999998,5.761699999999999 6.040900000000001,5.743399999999999 6.050899999999999,5.7447 6.0596,5.7379999999999995 6.064299999999999,5.7293 6.068999999999999,5.710000000000001 6.075599999999998,5.7033000000000005 6.078299999999999,5.6866 6.078299999999999,5.6836 6.0746,5.6784 6.075599999999998,5.6752 6.082699999999999,5.6722 6.0915,5.657299999999999 6.099399999999999,5.6502 6.1111,5.6350999999999996 6.114699999999999,5.6362000000000005 6.1173,5.6385000000000005 6.119,5.6434999999999995 6.128799999999998,5.649900000000001 6.128799999999998,5.653499999999999 6.1173,5.6707 6.1190999999999995,5.678800000000001 6.1311,5.6838999999999995 6.1358,5.6899 6.145099999999999,5.7133 6.1525,5.7186 6.1584,5.7203 6.164999999999999,5.717700000000001 6.149100000000001,5.6812000000000005 6.149799999999999,5.672499999999999 6.1572,5.6692 6.166899999999998,5.671200000000001 6.174499999999998,5.6685 6.189899999999998,5.6578 6.199300000000001,5.659800000000001 6.207899999999999,5.6594999999999995 6.2163,5.6530000000000005 6.226099999999999,5.6524 6.237099999999998,5.658900000000001 6.252700000000001,5.671900000000001 6.270399999999999,5.6663 6.291699999999999,5.6563 6.3352,5.6602 6.343,5.654999999999999 6.3481999999999985,5.6439 6.3521,5.6251 6.3553999999999995,5.6198999999999995 6.376200000000001,5.6075 6.389700000000001,5.593400000000001 6.3931000000000004,5.5829 6.4039,5.5615000000000006 6.4193,5.5512 6.4284,5.5488 6.4495000000000005,5.5390999999999995 6.451899999999998,5.5359 6.453299999999999,5.5296 6.448899999999998,5.515499999999999 6.449200000000001,5.511100000000001 6.4529,5.5046 6.461500000000001,5.4961 6.487099999999998,5.4787 6.504300000000001,5.464500000000001 6.5321,5.434100000000001 6.534500000000001,5.428100000000001 6.5335,5.4244 6.5275,5.417300000000001 6.5244,5.4109 6.526399999999999,5.3969000000000005 6.524999999999999,5.387499999999999 6.5181000000000004,5.378400000000001 6.5112999999999985,5.3751 6.490600000000001,5.3727 6.485900000000001,5.3712 6.480499999999999,5.3665 6.4777999999999984,5.3561 6.478300000000001,5.336600000000001 6.4861,5.321300000000001 6.494499999999999,5.3126999999999995 6.5062,5.2936 6.5319,5.272600000000001 6.548099999999998,5.248200000000001 6.549499999999998,5.2418 6.5478999999999985,5.2216000000000005 6.550599999999999,5.210100000000001 6.563299999999998,5.195399999999999 6.570899999999998,5.1753 6.5762,5.171100000000001 6.5844999999999985,5.169700000000001 6.5931999999999995,5.1724 6.5976,5.1754999999999995 6.6053,5.1865000000000006 6.615400000000001,5.2179 6.6236999999999995,5.2356 6.642699999999998,5.2513000000000005 6.648399999999999,5.253 6.6602,5.2532 6.669799999999999,5.248800000000001 6.678699999999999,5.240600000000001 6.6987999999999985,5.2156 6.7209,5.2036999999999995 6.7348,5.191599999999999 6.746199999999998,5.1738 6.752399999999998,5.167300000000001 6.768599999999999,5.1349 6.7972,5.1226 6.803599999999999,5.110200000000001 6.815899999999999,5.0937 6.831199999999999,5.0785 6.839500000000001,5.0624 6.844100000000001,5.0472 6.843,5.0291999999999994 6.844899999999999,5.014800000000001 6.853999999999999,5.0006 6.853300000000001,4.996499999999999 6.840399999999999,4.988900000000001 6.840499999999999,4.9854 6.856999999999999,4.9681 6.858699999999999,4.9632000000000005 6.8597,4.950100000000001 6.8580000000000005,4.9327000000000005 6.8599,4.924200000000001 6.862300000000001,4.9208 6.8703,4.9177 6.8825,4.9178999999999995 6.889099999999999,4.9092 6.894400000000001,4.9079999999999995 6.904699999999998,4.9106000000000005 6.9091999999999985,4.9101 6.916599999999999,4.905100000000001 6.926300000000001,4.894299999999999 6.9359,4.8706 6.938399999999998,4.8568999999999996 6.938099999999999,4.835000000000001 6.9512,4.804500000000001 6.959,4.774000000000001 6.978999999999999,4.715400000000001 6.979099999999999,4.6967 6.9892,4.6913 7.008499999999998,4.7012 7.017800000000001,4.6997 7.017800000000001,4.6943 7.0153,4.6904 7.002800000000001,4.679500000000001 6.999700000000001,4.6721 7.0051999999999985,4.660500000000001 7.0123,4.6539 7.0158999999999985,4.6525 7.027699999999999,4.653499999999999 7.039100000000001,4.6568000000000005 7.058599999999998,4.6655 7.0806000000000004,4.679500000000001 7.105999999999998,4.6928 7.1240999999999985,4.7004 7.1403,4.7029 7.154699999999998,4.698500000000001 7.161899999999999,4.6944 7.1797,4.672600000000001 7.186499999999999,4.6577 7.190300000000001,4.6372 7.1951,4.632899999999999 7.199300000000001,4.6341 7.208400000000001,4.640499999999999 7.2272,4.6579 7.241800000000001,4.663399999999999 7.255399999999998,4.6708 7.285299999999999,4.6944 7.3079,4.7029 7.318300000000001,4.708600000000001 7.3263,4.719799999999999 7.328299999999999,4.727500000000001 7.332999999999998,4.7347 7.3491,4.7356 7.3614999999999995,4.7279 7.370899999999999,4.7263 7.3748000000000005,4.7303 7.378,4.743500000000001 7.381499999999999,4.7484 7.3857,4.7509 7.405999999999999,4.749600000000001 7.4344,4.7612000000000005 7.463699999999999,4.7684 7.500799999999998,4.798400000000001 7.5288,4.8331 7.5459,4.844200000000001 7.565200000000001,4.8484 7.570799999999998,4.8522 7.5794,4.8552 7.5945,4.8667 7.5991,4.8675999999999995 7.612500000000001,4.864000000000001 7.616900000000001,4.8612 7.627299999999998,4.851100000000001 7.648900000000001,4.8352 7.656600000000001,4.834200000000001 7.6645,4.8354 7.681999999999999,4.8475 7.685199999999998,4.8474 7.690100000000001,4.8466000000000005 7.696100000000001,4.832599999999999 7.697600000000001,4.8216 7.695699999999999,4.8162 7.682600000000001,4.798400000000001 7.6736,4.791 7.669999999999998,4.7844 7.669799999999999,4.777800000000001 7.675999999999998,4.7574000000000005 7.676500000000001,4.7508 7.665600000000001,4.726100000000001 7.657299999999999,4.7197 7.6448,4.718500000000001 7.627500000000001,4.7202 7.6236999999999995,4.7181 7.6236,4.7132000000000005 7.6356,4.6951 7.6312999999999995,4.671799999999999 7.645599999999998,4.659599999999999 7.6556999999999995,4.647500000000001 7.6662,4.6434 7.700700000000001,4.648200000000001 7.706900000000001,4.6447 7.716899999999999,4.6348 7.727399999999999,4.6288 7.7409,4.6267 7.759,4.629099999999999 7.7791999999999994,4.638400000000001 7.7912,4.646599999999999 7.796499999999998,4.6464 7.8172,4.637700000000001 7.831399999999999,4.6342 7.845700000000001,5.5838 7.842299999999998,5.932500000000001 7.833500000000001,5.9297 7.802699999999998,5.9329 7.790900000000001,5.9305 7.7742,5.9177 7.768599999999999,5.910400000000001 7.7622,5.8977 7.760300000000001,5.8843 7.758499999999998,5.880800000000001 7.7501,5.8767 7.7453,5.8666 7.729900000000001,5.863200000000001 7.7094999999999985,5.853400000000001 7.695699999999999,5.8512 7.680699999999998,5.852 7.670300000000001,5.8553 7.665499999999998,5.862299999999999 7.6585,5.8673 7.647500000000001,5.863300000000001 7.6434,5.8652999999999995 7.6356,5.8803 7.630600000000001,5.8866 7.626000000000001,5.8887 7.614999999999998,5.886699999999999 7.6111,5.8878 7.608599999999999,5.894400000000001 7.6053,5.8942 7.596799999999998,5.885 7.592199999999998,5.883100000000001 7.5823,5.8827 7.578900000000001,5.879900000000001 7.572499999999998,5.866 7.5661999999999985,5.8599 7.538799999999998,5.851100000000001 7.5275,5.845700000000001 7.519500000000001,5.8398 7.509999999999998,5.828799999999999 7.5077,5.816700000000001 7.4939,5.786 7.488299999999999,5.777000000000001 7.487400000000001,5.759399999999999 7.511800000000001,5.6968 7.514700000000001,5.693 7.5245,5.6861999999999995 7.552399999999999,5.6911000000000005 7.5562000000000005,5.6889 7.558699999999998,5.681800000000001 7.560600000000001,5.667199999999999 7.5564,5.656499999999999 7.540600000000001,5.6442 7.530799999999999,5.6409 7.514299999999999,5.627800000000001 7.499299999999998,5.627800000000001 7.480899999999998,5.638199999999999 7.462599999999998,5.639200000000001 7.4548999999999985,5.6419999999999995 7.437999999999999,5.649100000000001 7.425699999999999,5.6572 7.418399999999998,5.6653 7.404899999999998,5.672600000000001 7.3932,5.6709 7.375299999999999,5.6608 7.3659,5.6599 7.360900000000001,5.6615 7.3466999999999985,5.6724 7.336099999999998,5.674300000000001 7.333600000000001,5.676500000000001 7.3352,5.692 7.331099999999999,5.696400000000001 7.3017,5.7112 7.293299999999999,5.711600000000001 7.265599999999999,5.7014 7.256499999999999,5.7010000000000005 7.2408,5.707599999999999 7.2104,5.7082 7.184899999999999,5.7010000000000005 7.172000000000001,5.6959 7.159500000000001,5.687799999999999 7.153500000000001,5.6861999999999995 7.145599999999998,5.701600000000001 7.1403,5.7051 7.1326,5.7051 7.1233,5.7018 7.1080000000000005,5.6936 7.086400000000001,5.6957 7.070899999999998,5.7010000000000005 7.065100000000001,5.7118 7.067399999999999,5.7216000000000005 7.067,5.7293 7.050899999999999,5.7478 7.045300000000001,5.7583 7.042200000000001,5.769500000000001 7.040099999999999,5.7887 7.0351,5.7979 7.022199999999998,5.8087 7.010100000000001,5.8231 7.002099999999999,5.8393999999999995 6.9924,5.852500000000001 6.984200000000001,5.8698 6.975899999999999,5.8788 6.952999999999999,5.8977 6.941700000000001,5.909800000000001 6.9304999999999986,5.9154 6.920400000000001,5.917300000000001 6.9025,5.9262999999999995 6.888099999999998,5.9419 6.8675,5.979000000000001 6.8504000000000005,5.993600000000001 6.8339,6.014200000000001 6.811799999999998,6.0265 6.8064,6.0357 6.8064,6.045300000000001 6.804099999999998,6.0534 6.7989,6.0593 6.7958,6.080299999999999 6.7867999999999995,6.0966000000000005 6.773299999999999,6.0969999999999995 6.753899999999998,6.088000000000001 6.744699999999998,6.086600000000001 6.739699999999999,6.0878 6.723700000000001,6.0962 6.7058,6.112 6.6754999999999995,6.1289 6.6676,6.1357 6.659299999999998,6.144500000000001 6.6545999999999985,6.162599999999999 6.6478,6.169499999999999 6.6357,6.168100000000001 6.625499999999999,6.169700000000001 6.6114999999999995,6.1668 6.605699999999999,6.167199999999999 6.5855,6.177200000000001 6.5686,6.180200000000001 6.543199999999999,6.1972000000000005 6.532499999999999,6.1987000000000005 6.527899999999999,6.2014 6.5244,6.206200000000001 6.5257000000000005,6.2258 6.517299999999999,6.242100000000001 6.513400000000001,6.245800000000001 6.500399999999999,6.246600000000001 6.494199999999999,6.24 6.487500000000001,6.2379 6.482900000000001,6.2391000000000005 6.4769000000000005,6.2494 6.4708000000000006,6.254200000000001 6.4679,6.259600000000001 6.468299999999999,6.2654 6.473299999999998,6.2814 6.483999999999998,6.2965 6.484999999999999,6.3019 6.482299999999999,6.3125 6.479599999999998,6.3187999999999995 6.4604,6.3438 6.4498,6.351100000000001 6.4495000000000005,6.355500000000001 6.4620999999999995,6.3636 6.466200000000001,6.367900000000001 6.468699999999998,6.3757 6.465,6.3819 6.453099999999999,6.3909 6.448899999999998,6.3963 6.448699999999999,6.4017 6.4604,6.4224 6.459800000000001,6.429600000000001 6.456299999999999,6.4374 6.449400000000001,6.446899999999999 6.436399999999999,6.4549 6.427099999999999,6.4651 6.415800000000001,6.4815000000000005 6.4117999999999995,6.492000000000001 6.413899999999998,6.527800000000001 6.4239,6.5756 6.424599999999998,6.5939 6.427699999999998,6.603300000000001 6.4419,6.616 6.448499999999999,6.6251999999999995 6.451499999999999,6.6434999999999995 6.460000000000001,6.6594 6.4558,6.6829 6.456900000000001,6.6884999999999994 6.4602,6.693099999999999 6.4711,6.6967 6.48,6.703100000000001 6.483999999999998,6.711 6.484999999999999,6.721299999999999 6.483799999999999,6.7308 6.477899999999998,6.7431 6.475999999999999,6.753400000000001 6.477499999999999,6.765700000000001 6.4815000000000005,6.7757000000000005 6.4864999999999995,6.781700000000001 6.4984,6.787700000000001 6.500399999999999,6.7921 6.4998000000000005,6.804 6.502500000000001,6.813600000000001 6.5107,6.8248 6.513999999999999,6.8332 6.5152,6.8428 6.5107,6.8515 6.509,6.860100000000001 6.509599999999999,6.8705 6.5242,6.9064 6.524999999999999,6.9236 6.520699999999998,6.9384 6.5136,6.946 6.5046,6.9618 6.502700000000001,6.968 6.503599999999999,6.9747 6.518000000000001,6.9933 6.520199999999999,6.9991 6.522300000000001,7.026 6.533799999999999,7.046799999999999 6.538,7.0604 6.533000000000001,7.0802 6.5321,7.0939 6.534600000000001,7.100200000000001 6.566099999999999,7.130599999999999 6.568899999999999,7.1455 6.569499999999998,7.1686 6.566099999999999,7.208400000000001 6.5699000000000005,7.225300000000001 6.575099999999999,7.2333 6.5809,7.2479 6.600100000000001,7.264200000000001 6.602499999999999,7.279400000000001 6.605899999999998,7.2858 6.626100000000001,7.303700000000001 6.632100000000001,7.339700000000001 6.636499999999998,7.347200000000001 6.642299999999999,7.3521 6.6507000000000005,7.354699999999999 6.671499999999998,7.357200000000001 6.6797,7.3613 6.684699999999999,7.370900000000001 6.688099999999999,7.3849 6.6921,7.3925 6.709900000000001,7.400600000000001 6.716899999999999,7.4056 6.718299999999999,7.4108 6.7149,7.425700000000001 6.708500000000001,7.4381 6.698499999999999,7.444000000000001 6.684100000000001,7.4473 6.6799,7.4498 6.685299999999998,7.482100000000001 6.6953,7.5068 6.695499999999999,7.5129 6.6919,7.52 6.681100000000001,7.5283999999999995 6.673300000000001,7.537700000000001 6.651299999999999,7.5504999999999995 6.650299999999998,7.555400000000001 6.660299999999999,7.571 6.656700000000001,7.5891 6.652899999999999,7.595000000000001 6.651299999999999,7.605 6.654899999999998,7.6141000000000005 6.6617,7.621600000000001 6.662099999999999,7.6364 6.6571,7.6548 6.652899999999999,7.6616 6.6387,7.6768 6.639700000000001,7.6912 6.6362999999999985,7.711399999999999 6.647300000000001,7.743500000000001 6.649899999999999,7.7639 6.6495,7.7722999999999995 6.644300000000001,7.781600000000001 6.628299999999999,7.789200000000001 6.624500000000001,7.7964 6.6221,7.8062000000000005 6.613099999999999,7.820600000000001 6.602499999999999,7.8323 6.5966999999999985,7.835800000000001 6.591100000000001,7.8453 6.5915,7.8538 6.600100000000001,7.8682 6.6113,7.8834 6.6312999999999995,7.9048 6.6362999999999985,7.9140999999999995 6.638300000000001,7.9239999999999995 6.637699999999999,7.9503 6.644099999999998,7.992700000000001 6.6449,8.0112 6.6523,8.0311 6.6553,8.0488 6.653500000000001,8.055200000000001 6.639700000000001,8.071 6.634899999999998,8.0826 6.6419,8.0963 6.6373,8.1121 6.639700000000001,8.130700000000001 6.648699999999998,8.1544 6.657899999999998,8.1707 6.6707,8.1885 6.6721,8.1973 6.669499999999999,8.2062 6.671099999999999,8.2128 6.6829,8.2266 6.685500000000001,8.2318 6.688500000000001,8.2451 6.6875,8.2607 6.6905,8.264 6.7059,8.2642 6.709299999999999,8.2659 6.709299999999999,8.2703 6.7013,8.2811 6.684699999999999,8.295300000000001 6.6875,8.3054 6.683499999999999,8.3185 6.677499999999998,8.3245 6.6556999999999995,8.3241 6.649899999999999,8.327300000000001 6.645499999999998,8.331 6.629200000000001,8.3537 6.628599999999999,8.3572 6.630499999999998,8.3619 6.636199999999999,8.368500000000001 6.640000000000001,8.3779 6.635400000000001,8.3958 6.633099999999999,8.4153 6.6279,8.4337 6.6174,8.4505 6.622799999999998,8.4749 6.616399999999999,8.4857 6.608899999999998,8.4923 6.6052,8.4948 6.5943000000000005,8.4962 6.592600000000001,8.5004 6.5976,8.5059 6.603300000000001,8.5092 6.6240999999999985,8.5106 6.6295,8.5126 6.630499999999998,8.5164 6.6294,8.5215 6.623200000000001,8.5304 6.619799999999998,8.5302 6.6035,8.5158 6.5966999999999985,8.5143 6.589400000000001,8.5149 6.5844999999999985,8.5186 6.581099999999999,8.5254 6.5792,8.536200000000001 6.582899999999999,8.5726 6.5821000000000005,8.5851 6.5761,8.5933 6.5661999999999985,8.5984 6.551300000000001,8.5967 6.546800000000001,8.5975 6.544499999999999,8.601 6.546800000000001,8.6126 6.544599999999999,8.6234 6.532299999999999,8.632 6.5291,8.6376 6.529,8.6414 6.5319,8.649000000000001 6.5364,8.7002 6.531099999999999,8.7155 6.523799999999998,8.7212 6.503499999999999,8.7311 6.471599999999999,8.7382 6.428100000000001,8.7567 6.4023,8.7803 6.398399999999999,8.7864 6.393000000000001,8.8064 6.3903,8.8316 6.3946000000000005,8.840300000000001 6.410599999999999,8.8535 6.636099999999999,8.9971 6.652100000000001,9.008700000000001 6.7286,9.0741 6.755299999999998,9.104000000000001 6.802399999999999,9.1495 6.819299999999998,9.1805 6.970600000000001,9.5688 6.9757,9.5751 6.990099999999998,9.5828 7.0016,9.5919 7.0046,9.5978 7.005700000000001,9.6103 7.009899999999998,9.6174 7.580199999999998,9.6988 7.585899999999999,9.6916 7.592600000000001,9.6877 7.612099999999998,9.6855 7.627700000000001,9.6622 7.6311,9.6605 7.639199999999999,9.6602 7.646899999999999,9.662700000000001 7.658100000000001,9.6715 7.6645,9.6745 7.682400000000001,9.676400000000001 7.6905,9.6793 7.7011,9.6875 7.712299999999999,9.705400000000001 7.7179,9.7096 8.4495,9.8059 8.4558,9.7992 8.4601,9.7977 8.477799999999998,9.8057 8.4844,9.8072 8.4894,9.8062 8.5155,9.7876 8.521899999999999,9.7856 8.5332,9.7933 8.5458,9.791500000000001 8.5533,9.7989 8.556999999999999,9.8002 8.5639,9.796100000000001 8.5704,9.7871 8.577099999999998,9.7828 8.584,9.782 8.815999999999999,9.8025 8.862099999999998,9.722 9.015899999999998,9.5287 9.023,9.5221 9.0369,9.5025 9.0517,9.4891 9.0705,9.4763 9.116900000000001,9.4578 9.1236,9.4565 9.156500000000001,9.4572 9.1768,9.4618 9.1889,9.4662 9.2011,9.4766 9.2076,9.4923 9.223299999999998,9.5013 9.232,9.503 9.2469,9.4985 9.264800000000001,9.4992 9.274899999999999,9.4953 9.2775,9.4916 9.290600000000001,9.4665 9.2881,9.4586 9.2881,9.4527 9.293499999999998,9.4509 9.293199999999999,9.4472 9.2988,9.4472 9.305900000000001,9.448500000000001 9.308699999999998,9.4506 9.314799999999998,9.4499 9.314899999999998,9.4552 9.321200000000001,9.4594 9.3205,9.462 9.324200000000001,9.4667 9.328199999999999,9.4671 9.3324,9.4725 9.34,9.4687 9.3413,9.4718 9.345299999999998,9.4708 9.3445,9.4638 9.3457,9.4624 9.3504,9.4635 9.3494,9.4664 9.350999999999999,9.4678 9.354599999999998,9.4647 9.3601,9.468 9.367999999999999,9.4623 9.3749,9.4671 9.3766,9.4724 9.378899999999998,9.47 9.383,9.4716 9.381599999999999,9.4733 9.381799999999998,9.4806 9.3792,9.4848 9.3824,9.4869 9.383600000000001,9.4902 9.3856,9.4879 9.3946,9.4917 9.396799999999999,9.4894 9.3947,9.485100000000001 9.396899999999999,9.4831 9.3967,9.4778 9.3991,9.4782 9.4011,9.4742 9.4025,9.4756 9.4068,9.471 9.408100000000001,9.4715 9.4082,9.4677 9.406500000000001,9.4669 9.41,9.4631 9.411200000000001,9.4553 9.4147,9.4532 9.4158,9.4488 9.4254,9.4453 9.427299999999999,9.4416 9.4287,9.4431 9.4282,9.4415 9.4341,9.4395 9.4407,9.4412 9.4485,9.4392 9.450800000000001,9.4417 9.456499999999998,9.4392 9.459499999999998,9.441 9.462900000000001,9.4397 9.472100000000001,9.440100000000001 9.473199999999999,9.4418 9.4741,9.4396 9.479,9.440100000000001 9.4804,9.4356 9.4849,9.4334 9.486,9.4304 9.4937,9.4237 9.4927,9.4227 9.496199999999998,9.4207 9.4953,9.4198 9.4999,9.4124 9.500899999999998,9.4078 9.5049,9.4042 9.506,9.3974 9.517900000000001,9.3933 9.5229,9.3948 9.5242,9.3981 9.528299999999998,9.3997 9.5485,9.3985 9.557500000000001,9.4003 9.561599999999999,9.3925 9.5653,9.3909 9.572199999999999,9.3915 9.582699999999999,9.3768 9.5869,9.3736 9.5898,9.3753 9.5917,9.3641 9.599699999999999,9.3486 9.5994,9.3438 9.601499999999998,9.3419 9.5882,9.3143 9.587499999999999,9.3077 9.5928,9.2909 9.5916,9.28 9.593399999999999,9.2771 9.587599999999998,9.2662 9.5929,9.2617 9.593399999999999,9.2569 9.5976,9.2514 9.5993,9.2423 9.604700000000001,9.236 9.6094,9.2345 9.612300000000001,9.2361 9.6157,9.234 9.622,9.2231 9.626999999999999,9.2208 9.631999999999998,9.216 9.6372,9.2148 9.638099999999998,9.211500000000001 9.641300000000001,9.2122 9.643799999999999,9.2089 9.6507,9.2087 9.6524,9.2059 9.6597,9.2032 9.664200000000001,9.1992 9.6737,9.1975 9.6814,9.1906 9.6814,9.1877 9.6829,9.184800000000001 9.685199999999998,9.1844 9.688299999999998,9.1766 9.6908,9.177 9.694199999999999,9.174900000000001 9.699099999999998,9.1626 9.7131,9.1624 9.7151,9.1587 9.7198,9.1576 9.720299999999998,9.155100000000001 9.727799999999998,9.1558 9.737199999999998,9.1599 9.7558,9.1559 9.7576,9.1591 9.761199999999999,9.1596 9.7682,9.1646 9.7729,9.1708 9.7745,9.170300000000001 9.7772,9.1733 9.776399999999999,9.1756 9.778099999999998,9.1792 9.7802,9.1814 9.784299999999998,9.1821 9.7851,9.1844 9.793199999999999,9.1846 9.7989,9.187 9.803899999999999,9.1865 9.807400000000001,9.190100000000001 9.8128,9.1888 9.816500000000001,9.1928 9.8215,9.1941 9.836400000000001,9.1914 9.84,9.1884 9.8415,9.1847 9.876100000000001,9.1782 9.9315,9.158 9.9452,9.1547 9.9512,9.1595 9.9617,9.162 9.9695,9.1548 9.9679,9.1523 9.970500000000001,9.1433 9.967099999999999,9.1334 9.960999999999999,9.1256 9.9601,9.1175 9.956900000000001,9.1161 9.957,9.1125 9.9555,9.112 9.956299999999999,9.107800000000001 9.951799999999999,9.1038 9.9495,9.097 9.9573,9.0787 9.958400000000001,9.0664 9.956900000000001,9.0601 9.964400000000001,9.05 9.973399999999998,9.044 9.9783,9.0308 9.9847,9.0212 9.9966,9.0143 10.008099999999999,9.0039 10.018799999999999,9.0033 10.0337,9.0078 10.035300000000003,9.017100000000001 10.089400000000001,9.0311 10.159400000000002,9.0149 10.181799999999999,9.0215 10.211899999999996,8.9888 10.275400000000001,8.9489 10.402399999999997,8.954 10.457199999999997,8.9611 10.467600000000001,8.9502 10.479499999999998,8.9501 10.514799999999997,8.9284 10.504699999999996,8.907 10.565900000000003,8.8248 10.586099999999998,8.8312 10.597800000000003,8.839 10.667599999999997,8.8079 10.738400000000002,8.8049 10.775299999999998,8.7972 10.785599999999999,8.7597 10.8201,8.7574 10.831900000000001,8.7423 10.834500000000002,8.7306 10.861700000000003,8.7148 10.886999999999997,8.7009 10.913099999999996,8.7127 10.917100000000001,8.692400000000001 10.925099999999997,8.6911 10.934700000000003,8.6995 10.948199999999996,8.6789 10.979699999999998,8.6796 10.964499999999997,8.659 10.968700000000002,8.6441 10.964499999999997,8.6218 10.972399999999997,8.613 10.9697,8.6027 10.9667,8.597900000000001 10.971099999999996,8.5876 10.983700000000002,8.5937 11.002300000000002,8.5962 11.010299999999997,8.5851 11.043699999999998,8.58 11.0549,8.576600000000001 11.060599999999997,8.574300000000001 11.0641,8.5676 11.063199999999998,8.5585 11.059900000000003,8.5515 11.049800000000001,8.5435 11.043499999999998,8.5315 11.031200000000002,8.5186 11.028000000000002,8.507 11.034000000000002,8.4761 11.040099999999999,8.4601 11.051100000000002,8.4457 11.0551,8.4431 11.059299999999997,8.4426 11.081300000000002,8.4521 11.090700000000002,8.4529 11.096500000000002,8.4489 11.111700000000003,8.4271 11.118500000000001,8.405 11.126099999999997,8.4042 11.1369,8.414200000000001 11.138699999999996,8.4285 11.145700000000001,8.4373 11.142100000000003,8.4509 11.140899999999998,8.4681 11.144899999999996,8.4753 11.160099999999996,8.4755 11.165499999999998,8.4711 11.177899999999998,8.4655 11.193299999999997,8.4658 11.207699999999999,8.4791 11.2135,8.481300000000001 11.2223,8.4791 11.2377,8.4617 11.2499,8.4545 11.2529,8.4479 11.255100000000002,8.4312 11.260099999999998,8.4236 11.254900000000003,8.4061 11.2527,8.384 11.255500000000001,8.3798 11.264700000000001,8.3514 11.2655,8.345 11.261100000000003,8.3306 11.2651,8.3234 11.283100000000001,8.3157 11.292300000000001,8.3137 11.3051,8.3069 11.315099999999997,8.2968 11.326899999999998,8.2683 11.336699999999997,8.2581 11.357299999999999,8.252 11.372699999999998,8.2434 11.385499999999997,8.228 11.391499999999997,8.224400000000001 11.3935,8.221400000000001 11.400699999999997,8.1956 11.4149,8.1738 11.415699999999998,8.1625 11.413500000000003,8.1568 11.395700000000001,8.1473 11.384899999999998,8.132 11.383500000000002,8.1224 11.376900000000003,8.103 11.368100000000002,8.0872 11.364700000000003,8.077 11.360899999999997,8.0718 11.3539,8.0671 11.348299999999998,8.0547 11.341899999999999,8.0214 11.334500000000002,8.014 11.335899999999999,8.0099 11.346900000000002,8.004900000000001 11.343300000000003,7.996600000000001 11.355700000000002,7.992100000000001 11.3629,7.984999999999999 11.366899999999998,7.975 11.366499999999998,7.9672 11.368100000000002,7.9633 11.382699999999996,7.9697 11.401700000000002,7.9717 11.407300000000003,7.971299999999999 11.413500000000003,7.968 11.419900000000002,7.9617 11.427299999999999,7.9582999999999995 11.4297,7.951700000000001 11.435300000000002,7.9445 11.448699999999999,7.935700000000001 11.4571,7.9252 11.461299999999998,7.915000000000001 11.463899999999999,7.912700000000001 11.471300000000003,7.910500000000001 11.482499999999998,7.9017 11.499500000000001,7.901400000000001 11.5151,7.897600000000001 11.534299999999998,7.8849 11.541500000000003,7.864599999999999 11.555299999999999,7.8619 11.5613,7.8566 11.5643,7.850300000000001 11.5639,7.8458000000000006 11.569100000000002,7.834200000000001 11.573699999999999,7.8353 11.582699999999999,7.832800000000001 11.583899999999996,7.827300000000001 11.581700000000001,7.820600000000001 11.570699999999999,7.8063 11.566500000000001,7.775600000000001 11.558899999999998,7.763999999999999 11.558499999999999,7.7600999999999996 11.5639,7.742700000000001 11.562700000000003,7.7332 11.5761,7.7247 11.5733,7.7075 11.578700000000001,7.689500000000001 11.583699999999997,7.6821 11.583699999999997,7.6671 11.5885,7.659700000000001 11.592099999999999,7.648899999999999 11.592499999999998,7.6326 11.595099999999999,7.6296 11.6095,7.632 11.613299999999999,7.6309000000000005 11.6219,7.620699999999999 11.625499999999999,7.618500000000001 11.633300000000002,7.616899999999999 11.6369,7.6183 11.641099999999998,7.6174 11.648500000000002,7.613200000000001 11.654700000000002,7.6066 11.655899999999999,7.5886 11.650899999999996,7.5806000000000004 11.6401,7.5724 11.641699999999997,7.5677 11.656699999999997,7.5695 11.663900000000002,7.5657 11.6679,7.5549 11.678099999999997,7.5383 11.6833,7.536900000000001 11.698699999999999,7.5222999999999995 11.700100000000003,7.519 11.696900000000003,7.5062999999999995 11.700100000000003,7.499600000000001 11.7041,7.4984 11.723400000000002,7.5044 11.7285,7.504099999999999 11.7317,7.4993 11.732400000000002,7.494300000000001 11.726200000000002,7.476800000000001 11.717600000000001,7.4686 11.708400000000001,7.465400000000001 11.692499999999999,7.4529 11.684099999999997,7.4527 11.677800000000001,7.4505 11.668699999999998,7.4444 11.657,7.4232 11.6403,7.4087 11.6341,7.4048 11.6251,7.416399999999999 11.614499999999996,7.4108 11.612100000000002,7.3994 11.608299999999996,7.391400000000001 11.5917,7.3728 11.577499999999997,7.361600000000001 11.558400000000002,7.3355 11.546899999999997,7.3370999999999995 11.542100000000001,7.3309999999999995 11.5412,7.3260000000000005 11.543699999999998,7.313600000000001 11.542799999999996,7.3100000000000005 11.535,7.306100000000001 11.523900000000001,7.297600000000001 11.515199999999997,7.2989999999999995 11.511199999999999,7.297499999999999 11.5063,7.291600000000001 11.501900000000003,7.281499999999999 11.493100000000002,7.2803 11.486500000000003,7.276400000000001 11.4759,7.258000000000001 11.471599999999999,7.2547 11.453100000000003,7.253500000000001 11.418099999999999,7.265600000000001 11.401,7.2661999999999995 11.391699999999997,7.263 11.3779,7.254300000000001 11.358500000000003,7.254300000000001 11.342299999999998,7.250400000000001 11.3353,7.2391000000000005 11.328199999999999,7.218999999999999 11.322300000000002,7.211399999999999 11.3094,7.2044 11.303499999999996,7.2033000000000005 11.281200000000002,7.209 11.2685,7.205400000000001 11.261599999999998,7.1942 11.255700000000001,7.189 11.252100000000002,7.183300000000001 11.2529,7.1792 11.261599999999998,7.170999999999999 11.265899999999998,7.1705000000000005 11.275699999999997,7.1754999999999995 11.281899999999997,7.1767 11.287600000000001,7.1737 11.305200000000003,7.1379 11.316399999999998,7.105500000000001 11.3111,7.0954 11.3066,7.093299999999999 11.3049,7.0883 11.306099999999997,7.080500000000001 11.312000000000001,7.076499999999999 11.321299999999997,7.075100000000001 11.324699999999996,7.0716 11.326399999999996,7.057 11.333400000000001,7.037700000000001 11.3415,7.0222 11.342499999999998,7.0151 11.348499999999998,7.0052 11.372600000000002,6.980700000000001 11.384199999999996,6.961399999999999 11.3884,6.9367 11.400699999999997,6.928800000000001 11.419900000000002,6.9224 11.422900000000002,6.9186 11.419099999999997,6.9091000000000005 11.414799999999996,6.903499999999999 11.415000000000003,6.8977 11.4036,6.884399999999999 11.403299999999998,6.8804 11.394299999999998,6.8604 11.393800000000002,6.848700000000001 11.390199999999997,6.8382000000000005 11.372499999999999,6.824999999999999 11.370299999999997,6.8201 11.370000000000001,6.8138000000000005 11.363200000000003,6.805 11.351499999999998,6.7751 11.3477,6.7692 11.322300000000002,6.7455 11.325399999999998,6.722900000000001 11.325199999999999,6.7174 11.322999999999997,6.713000000000001 11.305800000000001,6.7087 11.300500000000003,6.7059 11.2972,6.7021 11.3006,6.6678 11.3049,6.6507000000000005 11.3019,6.6408000000000005 11.293600000000001,6.6408000000000005 11.287000000000003,6.642799999999999 11.264700000000001,6.656499999999999 11.2542,6.6553 11.250499999999999,6.650399999999999 11.254900000000003,6.6304 11.253400000000003,6.6051 11.261500000000002,6.576499999999999 11.262199999999996,6.547499999999999 11.259600000000002,6.540900000000001 11.252399999999998,6.535500000000001 11.2437,6.517799999999999 11.239799999999999,6.4994 11.2407,6.487299999999999 11.249199999999998,6.4864999999999995 11.267100000000003,6.498200000000001 11.272099999999998,6.4991 11.281600000000001,6.4939 11.288,6.4940999999999995 11.2914,6.4968 11.2974,6.498200000000001 11.303499999999996,6.495900000000001 11.305400000000002,6.4893 11.312499999999996,6.480700000000001 11.320400000000003,6.4787 11.3248,6.4734 11.327899999999996,6.4527 11.327699999999997,6.439299999999999 11.318999999999999,6.4023 11.322300000000002,6.368 11.3188,6.3461 11.331599999999998,6.3194 11.329199999999997,6.302899999999999 11.331399999999999,6.297000000000001 11.340300000000003,6.2843 11.342600000000001,6.2759 11.340700000000002,6.2538 11.3141,6.2225 11.311499999999999,6.2143999999999995 11.314199999999996,6.1989 11.321900000000003,6.187100000000001 11.3308,6.1592 11.3278,6.1449 11.317400000000003,6.1271 11.318200000000001,6.1164000000000005 11.313199999999998,6.095000000000001 11.314699999999998,6.0724 11.3036,6.053100000000001 11.292799999999996,6.045300000000001 11.287099999999999,6.027800000000001 11.2805,6.0189 11.276300000000003,6.0053 11.274899999999999,5.9902 11.2655,5.968400000000001 11.262199999999996,5.9551 11.262600000000003,5.9421 11.269000000000002,5.9224 11.2732,5.9186 11.278299999999998,5.916600000000001 11.305200000000003,5.916 11.3122,5.9132 11.311699999999998,5.907500000000001 11.305600000000002,5.8927 11.308899999999998,5.8736 11.306000000000001,5.841200000000001 11.3094,5.834 11.328799999999998,5.8109 11.345899999999997,5.782 11.354600000000001,5.7730999999999995 11.361900000000002,5.7553 11.363899999999997,5.738200000000001 11.3674,5.7348 11.372899999999998,5.7326 11.3813,5.7331 11.420300000000001,5.739800000000001 11.445699999999999,5.7531 11.469599999999996,5.7613 11.485800000000001,5.753 11.4924,5.747 11.500499999999999,5.743500000000001 11.517300000000002,5.740600000000001 11.532900000000001,5.7437000000000005 11.538099999999996,5.7431 11.543299999999999,5.7394 11.549400000000002,5.731400000000001 11.550700000000003,5.7141 11.544599999999999,5.7044999999999995 11.5183,5.6883 11.5138,5.682500000000001 11.508100000000002,5.667400000000001 11.5048,5.662599999999999 11.498999999999999,5.6592 11.4864,5.6587 11.482000000000003,5.6563 11.479899999999997,5.6493 11.479800000000001,5.6424 11.482499999999998,5.632300000000001 11.481199999999998,5.621 11.4524,5.6076 11.439199999999996,5.597799999999999 11.4267,5.5748 11.419099999999997,5.5687999999999995 11.351499999999998,5.5434 11.309900000000003,5.5306 11.294500000000003,5.51 11.284499999999998,5.4922 11.276100000000003,5.486700000000001 11.257099999999998,5.4792000000000005 11.252300000000002,5.4755 11.235000000000003,5.4496 11.221900000000002,5.4451 11.216899999999999,5.4643 11.194599999999998,5.475300000000001 11.183200000000003,5.4773 11.178900000000002,5.477 11.163999999999998,5.4697 11.148,5.466900000000001 11.132299999999997,5.4765999999999995 11.122800000000002,5.477 11.113899999999997,5.4732 11.1084,5.465199999999999 11.090900000000001,5.458600000000001 11.084999999999997,5.452999999999999 11.0577,5.415000000000001 11.048100000000002,5.384500000000001 11.036399999999997,5.355 11.012199999999996,5.335800000000001 10.984599999999997,5.3094 10.981199999999998,5.3035 10.989499999999996,5.2722 10.986900000000002,5.2353000000000005 10.990599999999997,5.229800000000001 10.996300000000002,5.215300000000001 11.0016,5.209 11.0217,5.1998999999999995 11.027800000000003,5.194000000000001 11.0489,5.1881 11.058899999999998,5.1827000000000005 11.063300000000002,5.1739 11.059999999999999,5.151 11.0607,5.133900000000001 11.0551,5.1119 11.051199999999998,5.0839 11.043499999999998,5.0586 11.037000000000003,5.0487 11.035700000000002,5.043800000000001 11.0354,5.0335 11.037699999999997,5.019400000000001 11.027199999999997,4.9894 11.022299999999998,4.9612 11.0243,4.939400000000001 11.027399999999997,4.931000000000001 11.031299999999998,4.9046 11.037400000000002,4.888400000000001 11.043800000000001,4.878299999999999 11.0461,4.865 11.038700000000002,4.855 11.020999999999997,4.8399 11.011999999999997,4.825100000000001 10.994400000000002,4.8131 10.988699999999998,4.8055 10.9817,4.7905999999999995 10.977799999999998,4.7867 10.967299999999998,4.780900000000001 10.966899999999999,4.777900000000001 10.971900000000002,4.761100000000001 10.970499999999998,4.749499999999999 10.964400000000001,4.7285 10.9622,4.6981 10.9637,4.6829 10.959900000000001,4.6675 10.945199999999996,4.644299999999999 10.927400000000002,4.6333 10.9235,4.629099999999999 10.9205,4.614599999999999 10.9085,4.610799999999999 10.905199999999997,4.612500000000001 10.897200000000002,4.612500000000001 10.889700000000001,4.608700000000001 10.883999999999997,4.599 10.880799999999997,4.5634999999999994 10.873499999999996,4.548400000000001 10.860499999999998,4.538600000000001 10.853100000000001,4.536300000000001 10.843399999999999,4.5358 10.826199999999996,4.524100000000001 10.812499999999996,4.5189 10.8079,4.518700000000001 10.799499999999998,4.511800000000001 10.7925,4.502600000000001 10.7788,4.4963999999999995 10.756600000000002,4.4994 10.739799999999999,4.507 10.731199999999998,4.5082 10.7244,4.503 10.723600000000001,4.4922 10.7255,4.490399999999999 10.724500000000003,4.486700000000001 10.709799999999998,4.4687 10.720299999999998,4.4526 10.7336,4.4414 10.746799999999997,4.435600000000001 10.769400000000001,4.429500000000001 10.7867,4.4312000000000005 10.802499999999998,4.4308 10.822700000000001,4.4237 10.821699999999996,4.4077 10.802800000000001,4.4078 10.795399999999997,4.4055 10.793299999999999,4.397 10.796200000000002,4.393599999999999 10.808899999999998,4.390000000000001 10.827899999999996,4.388300000000001 10.832600000000003,4.3865 10.851600000000001,4.3735 10.856799999999996,4.366099999999999 10.871799999999997,4.3535 10.869400000000002,4.347099999999999 10.865999999999996,4.3467 10.849300000000003,4.352500000000001 10.846,4.350300000000001 10.841399999999997,4.341100000000001 10.832699999999999,4.3317 10.826600000000003,4.3283000000000005 10.814899999999998,4.3253 10.8094,4.32 10.806000000000001,4.309100000000001 10.806299999999997,4.3035 10.810199999999998,4.297700000000001 10.824900000000003,4.291 10.832699999999999,4.2774 10.8355,4.276199999999999 10.8533,4.285 10.8657,4.286300000000001 10.870900000000002,4.285299999999999 10.880700000000001,4.2796 10.894000000000002,4.2765 10.899399999999996,4.2736 10.9134,4.2653 10.929199999999998,4.2529 10.934700000000003,4.2456 10.9391,4.2256 10.946000000000002,4.216900000000001 10.961200000000002,4.2051 10.980700000000002,4.183999999999999 10.982299999999999,4.1736 10.9772,4.132099999999999 10.979400000000002,4.1279 10.9937,4.1258 11.006600000000002,4.127800000000001 11.013699999999996,4.127000000000001 11.019200000000001,4.1137 11.019499999999997,4.104800000000001 11.0119,4.0847999999999995 11.0123,4.077 11.020599999999998,4.060700000000001 11.026700000000002,4.0601 11.029799999999998,4.0578 11.042799999999996,4.0428999999999995 11.052699999999998,4.037000000000001 11.057599999999997,4.036300000000001 11.060599999999997,4.0379000000000005 11.068999999999999,4.0488 11.077099999999998,4.0639 11.079800000000002,4.0824 11.081999999999997,4.0882000000000005 11.096099999999996,4.105 11.120000000000001,4.1218 11.1399,4.124499999999999 11.145500000000002,4.1271 11.154,4.1358 11.1602,4.1396 11.168200000000002,4.1396999999999995 11.181499999999996,4.1303 11.2058,4.1198999999999995 11.215099999999996,4.1006 11.226600000000001,4.0914 11.241600000000002,4.085800000000001 11.260099999999998,4.0855 11.261399999999998,4.0823 11.2595,4.080299999999999 11.250200000000003,4.0794999999999995 11.220299999999998,4.0707 11.182599999999997,4.0549 11.166,4.052200000000001 11.1176,4.037700000000001 11.1131,4.0379000000000005 11.020599999999998,4.0022 10.925500000000003,3.9771 10.749399999999998,3.916500000000001 10.663900000000002,3.8847000000000005 10.532700000000002,3.8279999999999994 10.489700000000003,3.8117 10.444199999999999,3.8005999999999993 10.413999999999998,3.7962000000000007 10.3965,3.7912999999999997 10.306000000000001,3.7750000000000004 10.2576,3.7643000000000004 10.147200000000002,3.7285000000000004 10.122899999999998,3.7179 10.055499999999999,3.6929 10.0155,3.6823999999999995 10.003499999999999,3.6827000000000005 9.989899999999999,3.6791 9.976099999999999,3.6782000000000004 9.903299999999998,3.6401000000000003 9.8811,3.6301000000000005 9.851700000000001,3.6118000000000006 9.8355,3.6050000000000004 9.825099999999999,3.6022 9.796700000000001,3.602500000000001 9.7359,3.5858000000000008 9.7149,3.584200000000001 9.6861,3.5759000000000007 9.674699999999998,3.5699000000000005 9.6571,3.556800000000001 9.607700000000001,3.5284999999999993 9.561899999999998,3.498900000000001 9.548199999999998,3.4921000000000006 9.526399999999999,3.4781999999999993 9.518,3.4749 9.478100000000001,3.4651999999999994 9.445599999999999,3.4605999999999995 9.3962,3.4503000000000004 9.3641,3.4411000000000005 9.347100000000001,3.4399999999999995 9.323599999999999,3.434100000000001 9.3047,3.4277999999999995 9.2833,3.423400000000001 9.258700000000001,3.414200000000001 9.214500000000001,3.4011999999999993 9.191399999999998,3.3884000000000007 9.173099999999998,3.3811999999999998 8.816299999999998,3.2958 8.7955,3.2857000000000003 8.721599999999999,3.2652 8.7073,3.2592999999999996 8.683799999999998,3.2461 8.656099999999999,3.2360000000000007 8.6217,3.2186000000000003 8.5765,3.2036999999999995 8.5516,3.1922999999999995 8.5442,3.1906 8.501000000000001,3.173 8.4783,3.1616999999999997 8.4693,3.1555999999999997 8.394300000000001,3.1189 8.3431,3.1114999999999995 8.3156,3.1019000000000005 8.278099999999998,3.095600000000001 8.247399999999999,3.0847999999999995 8.243299999999998,3.0853 8.2394,3.0813000000000006 8.2396,3.0763 8.2466,3.0487 8.245899999999999,3.0380000000000003 8.2426,3.0294000000000008 8.2409,3.0053 8.246400000000001,2.9914000000000005 8.2592,2.9381000000000004 8.2699,2.9182000000000006 8.2757,2.9017999999999997 8.280100000000001,2.871600000000001 8.294,2.8351000000000006 8.304099999999998,2.8193 8.3446,2.7813 8.3631,2.7658000000000005 8.3841,2.752600000000001 8.3899,2.7452000000000005 8.396,2.7270000000000003 8.4026,2.696200000000001 8.4028,2.6768 8.399999999999999,2.6516 8.401499999999999,2.639800000000001 8.412199999999999,2.6149000000000004 8.413999999999998,2.6061999999999994 8.413699999999999,2.5981000000000005 8.3845,2.5410000000000004 8.383399999999998,2.5355000000000008 8.3906,2.5212000000000003 8.4025,2.5123999999999995 8.4143,2.498800000000001 8.433799999999998,2.4642999999999997 8.428799999999999,2.4575999999999993 8.404699999999998,2.4418000000000006 8.3809,2.4335000000000004 8.360699999999998,2.4337 8.3417,2.4388000000000005 8.299599999999998,2.4398 8.290199999999999,2.4434000000000005 8.284099999999999,2.4558999999999997 8.2806,2.4575999999999993 8.2547,2.4319000000000006 8.242999999999999,2.4236000000000004 8.235,2.422600000000001 8.2258,2.4254999999999995 8.2213,2.4290000000000003 8.1951,2.4613999999999994 8.181899999999999,2.465300000000001 8.162499999999998,2.4649 8.1369,2.456900000000001 8.102799999999998,2.4575999999999993 8.080199999999998,2.4513 8.0365,2.4473000000000003 8.0017,2.4422999999999995 7.994,2.4428 7.976499999999998,2.4489 7.9681,2.4552999999999994 7.9632000000000005,2.4571000000000005 7.941600000000001,2.4618 7.924099999999999,2.4618 7.915600000000001,2.4635999999999996 7.9030999999999985,2.4692000000000007 7.820699999999999,2.4718999999999998 7.806799999999999,2.4682999999999993 7.7882,2.457700000000001 7.7637,2.4473000000000003 7.747299999999999,2.4429 7.706299999999999,2.4369999999999994 7.677599999999998,2.4250000000000007 7.6373999999999995,2.4227000000000007 7.6233,2.4252000000000002 7.607399999999998,2.4253 7.583400000000001,2.4194999999999993 7.5626999999999995,2.408200000000001 7.532599999999999,2.396000000000001 7.515999999999998,2.3925 7.4727,2.3987 7.435600000000001,2.3855000000000004 7.409600000000001,2.3704 7.3856,2.3635 7.374700000000001,2.3625000000000007 7.328299999999999,2.3404000000000007 7.307099999999998,2.3245000000000005 7.283899999999999,2.3160000000000007 7.2608,2.3107000000000006 7.233999999999998,2.2982999999999993 7.188700000000001,2.2675 7.167200000000001,2.2447 7.149699999999999,2.2311999999999994 7.137899999999998,2.2242999999999995 7.115199999999998,2.2143999999999995 7.0854,2.1845 7.077099999999998,2.1738 7.066700000000001,2.1553000000000004 7.0534,2.1408000000000005 7.043499999999998,2.1334999999999997 7.033799999999999,2.1328999999999994 7.015999999999998,2.1372999999999998 6.994399999999999,2.1379 6.9742,2.1348000000000003 6.959199999999999,2.1235 6.955099999999998,2.1227 6.939299999999999,2.1076999999999995 6.9299,2.0954999999999995 6.919499999999999,2.078099999999999 6.917300000000001,2.068200000000001 6.914300000000001,2.062899999999999 6.903299999999998,2.052900000000001 6.894099999999998,2.0482000000000014 6.889700000000001,2.041900000000002 6.887899999999998,2.0333000000000006 6.889499999999998,2.0127999999999986 6.894099999999998,2.0023000000000017 6.899100000000001,1.9832 6.9007000000000005,1.9614000000000011 6.895499999999998,1.9408999999999992 6.8919,1.9329 6.885300000000001,1.9263000000000012 6.8740999999999985,1.9196999999999989 6.871099999999998,1.9108000000000018 6.871099999999998,1.8999999999999986 6.875299999999999,1.8871000000000002 6.875299999999999,1.8544000000000018 6.8809000000000005,1.8442000000000007 6.8887,1.8354999999999997 6.892699999999998,1.8277999999999999 6.892699999999998,1.8222999999999985 6.877099999999999,1.8041000000000018 6.8733,1.7962999999999987 6.8659,1.7767000000000017 6.8645,1.7631000000000014 6.8675,1.7551999999999985 6.878499999999999,1.7439999999999998 6.878899999999998,1.7262999999999984 6.8855,1.7081000000000017 6.885100000000001,1.7025000000000006 6.879300000000001,1.6738 6.8736999999999995,1.6649999999999991 6.8614999999999995,1.652000000000001 6.855899999999998,1.6401000000000003 6.8551,1.6354000000000006 6.858699999999999,1.6232000000000006 6.860299999999999,1.6049000000000007 6.8568999999999996,1.5972000000000008 6.8492999999999995,1.5874999999999986 6.803899999999999,1.5549 6.7959,1.544599999999999 6.792099999999998,1.5350000000000001 6.7821,1.5275999999999996 6.7730999999999995,1.5236000000000018 6.7135,1.5208000000000013 6.694499999999998,1.5164000000000009 6.2957,1.3512999999999984 6.189599999999999,1.2515 6.0778,1.200099999999999 5.947099999999999,1.1557999999999993 5.857599999999998,1.1158000000000001 5.649799999999999,0.8316000000000017 5.6403,0.7448000000000015 5.622,0.7259999999999991 5.619399999999999,0.7204000000000015 5.608799999999999,0.7071000000000005 5.5722999999999985,0.6685000000000016 5.540900000000001,0.642199999999999 5.531099999999999,0.6361999999999988 5.511199999999999,0.6191999999999993 5.445599999999999,0.5695000000000014 5.434100000000001,0.5573000000000015 5.418199999999999,0.543800000000001 5.3919,0.5260999999999996 5.363800000000001,0.5038000000000018 5.151699999999998,0.2773000000000003 5.1661,0.23770000000000024 5.1326,0.20779999999999887 5.099899999999998,0.1822000000000017 5.083300000000001,0.16059999999999874 5.0547,0.11700000000000088 5.025400000000001,0.1255999999999986 5.0184,0.12300000000000111 5.008299999999998,0.11619999999999919 4.9969,0.11380000000000123 4.977399999999999,0.11469999999999914 4.974399999999999,0.11380000000000123 4.967299999999998,0.10709999999999908 4.9603,0.1056999999999988 4.9483999999999995,0.10630000000000095 4.9300999999999995,0.10180000000000078 4.910499999999999,0.09299999999999997 4.904,0.09199999999999875 4.886700000000001,0.0945999999999998 4.8796,0.08810000000000073 4.867799999999999,0.08640000000000114 4.854099999999999,0.08970000000000056 4.8462,0.0890999999999984 4.837900000000001,0.08190000000000097 4.820799999999998,0.05369999999999919 4.807299999999998,0.04980000000000118 4.790900000000001,0.042500000000000426 4.773,0.038000000000000256 4.768999999999998,0.0326999999999984 4.7577,0.024899999999998812 4.7378,0.0017999999999993577 4.730799999999999,0.0 4.717600000000001,0.0009000000000014552 4.7042,0.0058000000000006935 4.698899999999998,0.010600000000000165 4.6873000000000005,0.013300000000000978 4.667099999999998,0.024499999999999744 4.6347999999999985,0.024499999999999744 4.623100000000001,0.028900000000000148 4.615099999999998,0.030100000000000904 4.6068,0.0367999999999995 4.603400000000001,0.05529999999999902 4.598499999999998,0.06650000000000134 4.5869,0.08200000000000074 4.573999999999998,0.09339999999999904 4.564899999999998,0.0951999999999984 4.525199999999998,0.09509999999999863 4.509499999999999,0.09690000000000154 4.4773,0.11720000000000041 4.4527,0.12590000000000146 4.432500000000001,0.13759999999999906 4.4192,0.14329999999999998 4.387599999999999,0.14610000000000056 4.368500000000001,0.15020000000000167 4.350100000000001,0.15030000000000143 4.329000000000001,0.14760000000000062 4.3176999999999985,0.15119999999999933 4.3109,0.15820000000000078 4.3017,0.1639000000000017 4.290600000000001,0.16600000000000037 4.278600000000001,0.16659999999999897 4.270499999999998,0.16489999999999938 4.258099999999999,0.16610000000000014 4.250399999999999,0.1708999999999996 4.248000000000001,0.17439999999999856 4.243400000000001,0.18179999999999907 4.240400000000001,0.19340000000000046 4.235199999999999,0.19750000000000156 4.229199999999999,0.19869999999999877 4.199300000000001,0.17980000000000018 4.165399999999998,0.16519999999999868 4.120899999999999,0.15810000000000102 4.1126000000000005,0.15399999999999991 4.1099,0.14710000000000178 4.110299999999999,0.142199999999999 4.1218,0.1372 4.1235,0.13449999999999918 4.1225999999999985,0.1311 4.1175999999999995,0.1255999999999986 4.111799999999999,0.11189999999999856 4.102699999999999,0.10529999999999973 4.092399999999998,0.10320000000000107 4.083600000000001,0.1034000000000006 4.0577000000000005,0.1100999999999992 4.047799999999999,0.10719999999999885 4.029399999999999,0.10849999999999937 4.011599999999998,0.09919999999999973 4.005700000000001,0.0934999999999988 3.9989999999999988,0.08269999999999911 3.993400000000001,0.0815000000000019 3.976700000000001,0.08770000000000167 3.9609999999999985,0.08680000000000021 3.9396999999999984,0.08960000000000079 3.9301999999999992,0.0931999999999995 3.9220000000000006,0.10099999999999909 3.902899999999999,0.1039999999999992 3.898299999999999,0.10699999999999932 "></polygon>
    </svg>
    