
    <svg width="7.817" height="6.812299999999999" xmlns="http://www.w3.org/2000/svg" xmlns:xlink="http://www.w3.org/1999/xlink" style="transform: scale(1, -1)">
        <polygon points="7.466300000000004,3.4593999999999987 7.470100000000002,3.4373000000000005 7.462000000000003,3.4360999999999997 7.4634,3.4324999999999974 7.4711,3.4252000000000002 7.471600000000002,3.4177999999999997 7.478900000000003,3.3957999999999977 7.483499999999999,3.3957999999999977 7.501800000000003,3.3904999999999994 7.518999999999998,3.390599999999999 7.537599999999998,3.3938999999999986 7.537599999999998,3.3963 7.541800000000002,3.398199999999999 7.561900000000001,3.4024 7.567799999999998,3.4008000000000003 7.574800000000003,3.4026999999999994 7.595399999999998,3.4031999999999982 7.607300000000002,3.3948 7.610700000000001,3.3642000000000003 7.613300000000002,3.3547999999999973 7.619999999999997,3.3428000000000004 7.633200000000002,3.337399999999999 7.639400000000002,3.3217 7.639499999999998,3.306799999999999 7.630499999999998,3.2817000000000007 7.625599999999999,3.2480999999999973 7.610799999999998,3.1859 7.610900000000001,3.164300000000001 7.614600000000003,3.1408999999999985 7.613199999999999,3.1332999999999984 7.6037000000000035,3.1173 7.594000000000001,3.1069999999999993 7.584200000000003,3.1020000000000003 7.571100000000001,3.0844999999999985 7.552599999999998,3.0738999999999983 7.546300000000002,3.0672999999999995 7.538600000000002,3.0650999999999975 7.541800000000002,3.0612999999999992 7.538400000000003,3.058299999999999 7.537599999999998,3.0490999999999993 7.547699999999999,3.032899999999998 7.547400000000003,3.0250999999999983 7.539900000000003,3.0109999999999992 7.542099999999998,2.9878 7.538499999999999,2.9697999999999993 7.538600000000002,2.9619999999999997 7.544400000000003,2.9528 7.555500000000002,2.9441999999999986 7.565300000000001,2.9422999999999995 7.591099999999997,2.9415999999999976 7.597200000000001,2.9436999999999998 7.606900000000003,2.9430999999999976 7.605499999999999,2.9208999999999996 7.602200000000003,2.9007000000000005 7.603299999999997,2.8917 7.613199999999999,2.8782999999999994 7.6143,2.8671000000000006 7.6098,2.8171999999999997 7.607700000000001,2.8146999999999984 7.6148000000000025,2.7958 7.612200000000001,2.7891999999999975 7.6068,2.785999999999998 7.607599999999998,2.7774 7.6023,2.764099999999999 7.593299999999999,2.7531 7.596499999999999,2.7476999999999983 7.5970999999999975,2.7424 7.600500000000004,2.738699999999998 7.612099999999998,2.7349999999999994 7.634700000000002,2.736699999999999 7.638399999999997,2.7342999999999975 7.651699999999998,2.7348999999999997 7.6646,2.7390000000000008 7.669400000000003,2.738299999999999 7.6785,2.7407000000000004 7.686500000000002,2.7451000000000008 7.6982,2.7475999999999985 7.724699999999999,2.7650000000000006 7.730800000000002,2.7646999999999977 7.734700000000004,2.7612999999999985 7.740400000000001,2.7471999999999994 7.742800000000003,2.7346000000000004 7.7413000000000025,2.727899999999998 7.7181,2.7089999999999996 7.717500000000001,2.7029999999999994 7.720700000000001,2.6966 7.7545,2.6722 7.7819,2.6632999999999996 7.800800000000002,2.6526999999999994 7.814799999999998,2.6389999999999993 7.816600000000001,2.6278000000000006 7.8093,2.6104999999999983 7.809800000000003,2.5854999999999997 7.797600000000003,2.5318000000000005 7.786700000000003,2.4553999999999974 7.776000000000003,2.4086 7.7729,2.4008000000000003 7.762900000000002,2.395599999999998 7.7622,2.3931000000000004 7.750799999999998,2.392199999999999 7.747399999999999,2.389599999999998 7.733899999999998,2.3851999999999975 7.731499999999997,2.3821999999999974 7.725299999999997,2.3810000000000002 7.7179,2.3855000000000004 7.707000000000001,2.3794000000000004 7.692900000000002,2.3809000000000005 7.683100000000003,2.3766 7.674199999999999,2.3566000000000003 7.680500000000002,2.3461 7.682099999999998,2.3188999999999993 7.671500000000002,2.3105999999999973 7.656199999999998,2.3130999999999986 7.654499999999999,2.3284999999999982 7.645499999999998,2.3275000000000006 7.632199999999997,2.315999999999999 7.632600000000004,2.3100999999999985 7.630200000000002,2.308 7.617699999999999,2.2635000000000005 7.617899999999999,2.2589000000000006 7.632800000000003,2.2393 7.633200000000002,2.2319999999999993 7.6218,2.2302999999999997 7.610500000000002,2.225999999999999 7.6114999999999995,2.219899999999999 7.608800000000002,2.2193000000000005 7.604700000000001,2.214199999999998 7.600900000000003,2.2002999999999986 7.6021,2.1960999999999977 7.610799999999998,2.1884999999999977 7.624699999999997,2.183799999999998 7.6285000000000025,2.1796000000000006 7.6282,2.1678999999999995 7.622700000000002,2.1453999999999986 7.625700000000002,2.133499999999998 7.565600000000003,2.0777 7.565899999999999,2.0738999999999983 7.561300000000003,2.0609 7.5626999999999995,2.048199999999998 7.526499999999999,2.008800000000001 7.496000000000002,1.9710999999999999 7.483899999999998,1.9526000000000003 7.462200000000003,1.9131 7.429600000000001,1.8650999999999982 7.328899999999997,1.866699999999998 7.283000000000001,1.8266999999999989 7.276899999999998,1.8240999999999978 7.272300000000001,1.8201999999999998 7.270299999999999,1.8203999999999994 7.266300000000001,1.8123000000000005 7.261099999999999,1.8093000000000004 7.2597999999999985,1.8059999999999974 7.254100000000001,1.8010999999999981 7.250500000000002,1.7920999999999978 7.246600000000001,1.7585999999999977 7.2475999999999985,1.7451000000000008 7.256700000000002,1.718799999999998 7.2597999999999985,1.6121999999999979 7.264899999999997,1.586199999999998 7.277300000000004,1.5474999999999994 7.2806,1.5306999999999995 7.278800000000004,1.5051999999999985 7.243099999999998,1.4269999999999996 7.230400000000003,1.4077999999999982 7.1633,1.3318999999999974 7.149900000000002,1.3210999999999977 7.142699999999998,1.311 7.138199999999998,1.2977999999999987 7.1297,1.2844999999999978 7.125,1.2799999999999976 7.137700000000002,1.2738999999999976 7.152300000000004,1.2621000000000002 7.145200000000003,1.2601999999999975 7.1464,1.256999999999998 7.152700000000003,1.2543000000000006 7.154299999999999,1.2574000000000005 7.155700000000003,1.2575000000000003 7.158299999999997,1.253899999999998 7.164900000000003,1.2520999999999987 7.1678,1.2497000000000007 7.168300000000002,1.2437000000000005 7.161299999999997,1.2395999999999994 7.156100000000002,1.2306999999999988 7.161299999999997,1.2129999999999974 7.173000000000002,1.2033999999999985 7.181400000000004,1.192899999999998 7.1843,1.1923999999999992 7.189700000000002,1.1807999999999979 7.186700000000002,1.1788999999999987 7.186999999999998,1.1768999999999998 7.1922,1.1724999999999994 7.193199999999997,1.1689000000000007 7.216099999999997,1.1412999999999975 7.228400000000001,1.1235 7.2379999999999995,1.1082999999999998 7.241999999999997,1.0924999999999976 7.214599999999997,1.1098999999999997 7.207000000000001,1.1106999999999978 7.188499999999998,1.1081000000000003 7.177100000000003,1.1038999999999994 7.1617999999999995,1.0919999999999987 6.921599999999998,0.8461999999999996 6.904699999999998,0.8266999999999989 6.665900000000001,0.5798999999999985 6.627700000000001,0.5390999999999977 6.629300000000001,0.5388999999999982 6.5198,0.4256999999999991 6.5075,0.4156999999999975 6.4436,0.3498999999999981 6.442499999999999,0.3508999999999993 6.3733,0.2788000000000004 6.3523,0.2600999999999978 6.299400000000002,0.20479999999999876 6.290700000000001,0.19849999999999923 6.266000000000002,0.16809999999999903 6.259699999999999,0.1640999999999977 6.2486999999999995,0.1529999999999987 6.243500000000001,0.15009999999999835 6.2318999999999996,0.13599999999999923 6.1434999999999995,0.04779999999999873 6.070399999999999,0.0 6.066600000000001,0.004999999999999005 6.049099999999999,0.015200000000000102 6.036300000000001,0.04690000000000083 6.0273,0.055399999999998784 6.011300000000002,0.05790000000000006 5.9956,0.05339999999999989 5.988099999999999,0.053000000000000824 5.9785,0.053599999999999426 5.972899999999999,0.05559999999999832 5.9597000000000016,0.06469999999999843 5.947600000000001,0.08549999999999969 5.941300000000002,0.08919999999999817 5.921900000000001,0.09199999999999875 5.906600000000001,0.09059999999999846 5.8916,0.08639999999999759 5.8825,0.08139999999999858 5.875299999999999,0.0821000000000005 5.861699999999999,0.07659999999999911 5.860400000000002,0.07429999999999737 5.849,0.07429999999999737 5.8325,0.08220000000000027 5.813200000000002,0.0840999999999994 5.7986,0.0884999999999998 5.761800000000001,0.10589999999999833 5.757100000000001,0.10409999999999897 5.755500000000001,0.09890000000000043 5.751799999999999,0.0945999999999998 5.744299999999999,0.09399999999999764 5.735400000000002,0.09769999999999968 5.732500000000002,0.10589999999999833 5.721499999999999,0.10810000000000031 5.707799999999999,0.10719999999999885 5.701699999999999,0.11629999999999896 5.6949000000000005,0.11939999999999884 5.661100000000001,0.1252999999999993 5.645500000000002,0.11689999999999756 5.627600000000001,0.12439999999999785 5.616600000000002,0.12549999999999883 5.600999999999999,0.13049999999999784 5.593700000000002,0.13019999999999854 5.548400000000001,0.11929999999999907 5.520600000000002,0.11699999999999733 5.512800000000002,0.11400000000000077 5.503499999999999,0.11349999999999838 5.490100000000002,0.10960000000000036 5.4780000000000015,0.10820000000000007 5.469000000000001,0.10479999999999734 5.433299999999999,0.11139999999999972 5.423300000000001,0.1103999999999985 5.412200000000002,0.10319999999999752 5.401,0.08899999999999864 5.392500000000002,0.08520000000000039 5.3828,0.08769999999999811 5.370699999999999,0.09799999999999898 5.363199999999999,0.10069999999999979 5.3337,0.10119999999999862 5.326699999999999,0.09859999999999758 5.317499999999999,0.09049999999999869 5.3111,0.08949999999999747 5.291499999999999,0.09659999999999869 5.265699999999999,0.09939999999999927 5.257999999999999,0.10389999999999944 5.247399999999999,0.10529999999999973 5.241099999999999,0.10409999999999897 5.217300000000002,0.09099999999999753 5.152899999999999,0.07249999999999801 5.139900000000001,0.07039999999999935 5.1188,0.07310000000000016 5.097899999999999,0.07089999999999819 5.079699999999999,0.0741999999999976 5.0748999999999995,0.07319999999999993 5.057200000000002,0.06469999999999843 5.051300000000001,0.06469999999999843 5.040900000000001,0.07019999999999982 5.0366,0.07460000000000022 5.017299999999999,0.1036999999999999 5.001000000000001,0.11349999999999838 4.9986999999999995,0.1208999999999989 4.9952000000000005,0.125 4.984999999999999,0.1264000000000003 4.959900000000001,0.12379999999999924 4.947700000000001,0.12429999999999808 4.920200000000001,0.12079999999999913 4.909200000000002,0.11819999999999808 4.894100000000002,0.11079999999999757 4.8870000000000005,0.11079999999999757 4.8796,0.11560000000000059 4.872900000000001,0.1247000000000007 4.862500000000001,0.134999999999998 4.8369,0.1477000000000004 4.8169,0.16549999999999798 4.7943999999999996,0.16539999999999822 4.7852,0.16900000000000048 4.783100000000001,0.1742999999999988 4.783200000000001,0.18789999999999907 4.780999999999999,0.18999999999999773 4.773199999999999,0.1921999999999997 4.761800000000001,0.19079999999999941 4.749600000000001,0.19500000000000028 4.7364999999999995,0.19529999999999959 4.732700000000001,0.19699999999999918 4.7288,0.19960000000000022 4.7271,0.20579999999999998 4.723200000000002,0.20599999999999952 4.6888000000000005,0.2312999999999974 4.6921,0.2333999999999996 4.6480999999999995,0.22939999999999827 4.6324000000000005,0.2380999999999993 4.6266,0.24540000000000006 4.6188,0.24840000000000018 4.5958000000000006,0.2494999999999976 4.573699999999999,0.254999999999999 4.547000000000001,0.27239999999999753 4.545300000000001,0.27590000000000003 4.535399999999999,0.2812999999999981 4.500299999999999,0.2810999999999986 4.478400000000001,0.27779999999999916 4.457699999999999,0.2842999999999982 4.436800000000002,0.28249999999999886 4.432500000000001,0.28470000000000084 4.425000000000001,0.2950999999999979 4.415700000000001,0.2961999999999989 4.388100000000001,0.285499999999999 4.384699999999999,0.2813999999999979 4.3796,0.2705999999999982 4.371100000000002,0.26559999999999917 4.3641000000000005,0.2674999999999983 4.3551,0.27560000000000073 4.344000000000001,0.2807999999999993 4.337500000000002,0.2792999999999992 4.3245000000000005,0.26980000000000004 4.3012000000000015,0.2668999999999997 4.297499999999999,0.2643999999999984 4.296199999999999,0.26129999999999853 4.296800000000001,0.24929999999999808 4.287400000000002,0.24499999999999744 4.277799999999999,0.24319999999999808 4.247,0.25459999999999994 4.2273,0.2563999999999993 4.187100000000001,0.24939999999999785 4.174500000000002,0.24510000000000076 4.166499999999999,0.23859999999999815 4.142199999999999,0.2286999999999999 4.135000000000002,0.22779999999999845 4.1248000000000005,0.2292999999999985 4.115400000000001,0.23689999999999856 4.098099999999999,0.2596999999999987 4.0609,0.2893000000000008 4.0466000000000015,0.304199999999998 4.035800000000002,0.3343999999999987 4.025100000000002,0.3509999999999991 4.019000000000002,0.3564000000000007 4.013000000000002,0.3584999999999994 4.010200000000001,0.3611000000000004 3.9665,0.3473000000000006 3.946999999999999,0.3448999999999991 3.9206000000000003,0.3460000000000001 3.901299999999999,0.3492999999999995 3.8686000000000007,0.3595000000000006 3.8554999999999993,0.36599999999999966 3.8337000000000003,0.38159999999999883 3.8137000000000008,0.40149999999999864 3.800799999999999,0.42050000000000054 3.7921000000000014,0.43929999999999936 3.785399999999999,0.4684999999999988 3.783999999999999,0.4872999999999976 3.7860000000000014,0.5097999999999985 3.789200000000001,0.5259999999999998 3.794599999999999,0.5352999999999994 3.7957,0.5436999999999976 3.8015000000000008,0.5572999999999979 3.825800000000001,0.5894999999999975 3.838799999999999,0.5996999999999986 3.837900000000001,0.6007999999999996 3.840299999999999,0.602999999999998 3.8337000000000003,0.6128 3.820499999999999,0.6204000000000001 3.8154000000000003,0.6206999999999994 3.7942,0.6281999999999996 3.7791999999999994,0.6311999999999998 3.752100000000002,0.6523000000000003 3.7408,0.6523000000000003 3.7211999999999996,0.6473999999999975 3.679400000000001,0.6574999999999989 3.6641000000000012,0.6583000000000006 3.651500000000002,0.6633999999999993 3.6220999999999997,0.6672999999999973 3.6090000000000018,0.6773999999999987 3.5901999999999994,0.6875999999999998 3.5833000000000013,0.6893999999999991 3.5564999999999998,0.6910999999999987 3.537300000000002,0.7031999999999989 3.5313000000000017,0.7095999999999982 3.5120000000000005,0.7198999999999991 3.4749000000000017,0.7306999999999988 3.4601000000000006,0.7332000000000001 3.4324000000000012,0.7433999999999976 3.4252000000000002,0.7553999999999981 3.415099999999999,0.7653999999999996 3.4011999999999993,0.7708999999999975 3.389199999999999,0.7704999999999984 3.3705,0.7764999999999986 3.3613999999999997,0.7761999999999993 3.3493999999999993,0.7881999999999998 3.3442000000000007,0.7911999999999999 3.3343999999999987,0.7910000000000004 3.3233999999999995,0.779799999999998 3.3183000000000007,0.7774000000000001 3.3081999999999994,0.7789999999999999 3.3016000000000005,0.7781999999999982 3.2897999999999996,0.7646999999999977 3.280999999999999,0.7578999999999994 3.2753000000000014,0.7545000000000002 3.262699999999999,0.7516999999999996 3.2576,0.754999999999999 3.242799999999999,0.7595999999999989 3.227599999999999,0.7677999999999976 3.2194000000000003,0.7689999999999984 3.212500000000002,0.7762999999999991 3.2042,0.7820999999999998 3.1889000000000003,0.7841999999999985 3.170300000000001,0.790499999999998 3.163499999999999,0.7956000000000003 3.1538000000000004,0.8000000000000007 3.1426000000000016,0.8117999999999981 3.1237999999999992,0.817499999999999 3.1095000000000006,0.8138000000000005 3.101099999999999,0.8207999999999984 3.087399999999999,0.8240999999999978 3.0714000000000006,0.8253999999999984 3.0608000000000004,0.8283999999999985 3.0546000000000006,0.8322000000000003 3.0481000000000016,0.8287999999999975 3.0119000000000007,0.8254999999999981 2.959500000000002,0.8178999999999981 2.9328000000000003,0.8268999999999984 2.9063000000000017,0.8283999999999985 2.8956000000000017,0.8332999999999977 2.8850000000000016,0.8345999999999982 2.8612,0.8421999999999983 2.855800000000002,0.842299999999998 2.8429,0.8381000000000007 2.8297999999999988,0.8423999999999978 2.8126999999999995,0.8417999999999992 2.785399999999999,0.8458000000000006 2.781100000000002,0.8475999999999999 2.770199999999999,0.8643999999999998 2.7712000000000003,0.8686000000000007 2.767400000000002,0.8805999999999976 2.758800000000001,0.8890999999999991 2.757999999999999,0.892199999999999 2.761700000000001,0.8943999999999974 2.7596999999999987,0.897199999999998 2.765699999999999,0.9016999999999982 2.765699999999999,0.9057999999999993 2.754100000000001,0.9039000000000001 2.7463000000000015,0.9045999999999985 2.7403000000000013,0.897199999999998 2.7333999999999996,0.9034999999999975 2.7332,0.9079999999999977 2.7387000000000015,0.9149999999999991 2.7371000000000016,0.9192 2.7469,0.9292999999999978 2.7453000000000003,0.9321999999999981 2.7464000000000013,0.9359999999999999 2.7377000000000002,0.9410999999999987 2.7224000000000004,0.9433000000000007 2.7212999999999994,0.9507999999999974 2.7258999999999993,0.9541000000000004 2.7332,0.9558999999999997 2.7348999999999997,0.9592999999999989 2.7388000000000012,0.9590999999999994 2.7422000000000004,0.9631000000000007 2.735800000000001,0.9666999999999994 2.7299000000000007,0.9769000000000005 2.716100000000001,0.9896999999999991 2.721,0.9954999999999998 2.7223000000000006,1.0004999999999988 2.7104999999999997,1.0220999999999982 2.708500000000001,1.0302000000000007 2.6915000000000013,1.0447999999999986 2.6812000000000005,1.0589999999999975 2.679400000000001,1.0753999999999984 2.681899999999999,1.0899999999999999 2.674400000000002,1.1052999999999997 2.664300000000001,1.1203000000000003 2.6468999999999987,1.1310000000000002 2.6448,1.1350999999999978 2.645500000000002,1.1405999999999992 2.6300999999999988,1.1525999999999996 2.6183000000000014,1.1799 2.6052999999999997,1.1906999999999996 2.597899999999999,1.1992999999999974 2.591799999999999,1.2078999999999986 2.587399999999999,1.218 2.5817000000000014,1.2211999999999996 2.5763,1.2220999999999975 2.5760000000000005,1.2254000000000005 2.5787000000000013,1.2286000000000001 2.578500000000002,1.2315000000000005 2.5669000000000004,1.245899999999999 2.5634000000000015,1.2471999999999994 2.555600000000002,1.2426999999999992 2.552199999999999,1.2425999999999995 2.5490999999999993,1.2449999999999974 2.5409000000000006,1.2622 2.5319000000000003,1.2654999999999994 2.520299999999999,1.2653999999999996 2.515599999999999,1.267199999999999 2.512800000000002,1.2698 2.5091,1.2800999999999974 2.4951000000000008,1.288499999999999 2.4860000000000007,1.3042999999999978 2.479300000000002,1.3073999999999977 2.4743999999999993,1.3149999999999977 2.4635999999999996,1.3203999999999994 2.461500000000001,1.3306000000000004 2.4593999999999987,1.3318999999999974 2.4572000000000003,1.3385999999999996 2.4583000000000013,1.3458000000000006 2.4514999999999993,1.3556999999999988 2.450700000000001,1.3619999999999983 2.462299999999999,1.371299999999998 2.4665,1.3826 2.4635,1.3916000000000004 2.4648000000000003,1.3983999999999988 2.4612000000000016,1.4027999999999992 2.462600000000002,1.4082000000000008 2.458500000000001,1.4130000000000003 2.4654999999999987,1.4190000000000005 2.4694000000000003,1.4205000000000005 2.464600000000001,1.4289999999999985 2.4642000000000017,1.4338999999999977 2.4743999999999993,1.4519999999999982 2.4711999999999996,1.4574999999999996 2.471700000000002,1.4635999999999996 2.465600000000002,1.4704999999999977 2.4603,1.4739000000000004 2.458000000000002,1.4802 2.452300000000001,1.486699999999999 2.464600000000001,1.5066999999999986 2.4619,1.5268999999999977 2.454900000000002,1.5418999999999983 2.4551000000000016,1.5454000000000008 2.460000000000001,1.5546000000000006 2.4704000000000015,1.5635999999999974 2.4754000000000005,1.5703999999999994 2.476800000000001,1.5807000000000002 2.479099999999999,1.5835000000000008 2.4780000000000015,1.5871999999999993 2.4840000000000018,1.6171000000000006 2.4936000000000007,1.6247000000000007 2.4893,1.6385000000000005 2.4901000000000018,1.6441999999999979 2.4970999999999997,1.653299999999998 2.498000000000001,1.6591999999999985 2.4933000000000014,1.6762999999999977 2.496600000000001,1.6800999999999995 2.4940999999999995,1.6826000000000008 2.494399999999999,1.6873000000000005 2.4924999999999997,1.6875999999999998 2.4910999999999994,1.6900999999999975 2.490400000000001,1.6979000000000006 2.4925999999999995,1.7033999999999985 2.4952000000000005,1.7051999999999978 2.4923,1.709299999999999 2.492799999999999,1.7138999999999989 2.4967000000000006,1.7170999999999985 2.493500000000001,1.7179000000000002 2.4933000000000014,1.7205999999999975 2.486799999999999,1.7253000000000007 2.4863999999999997,1.7270000000000003 2.488400000000002,1.7280999999999977 2.479300000000002,1.7363999999999997 2.478200000000001,1.7418999999999976 2.4764000000000017,1.7415999999999983 2.474800000000002,1.7463999999999977 2.4682999999999993,1.7546 2.469000000000001,1.7644999999999982 2.467500000000001,1.7753999999999976 2.4711,1.7956000000000003 2.468499999999999,1.7966999999999977 2.467100000000002,1.803799999999999 2.467200000000002,1.8161999999999985 2.4709000000000003,1.8219999999999992 2.4779000000000018,1.8253999999999984 2.4845000000000006,1.8362999999999978 2.4825000000000017,1.8398000000000003 2.4842000000000013,1.8416999999999994 2.4827000000000012,1.8445999999999998 2.491299999999999,1.8645999999999994 2.4917000000000016,1.8765999999999998 2.4933000000000014,1.8781999999999996 2.489699999999999,1.8877999999999986 2.4923,1.8964999999999996 2.4871000000000016,1.9053000000000004 2.4827000000000012,1.9107999999999983 2.4574999999999996,1.9307999999999979 2.445700000000002,1.9344999999999999 2.4375999999999998,1.927299999999999 2.4094000000000015,1.9220000000000006 2.3842999999999996,1.942499999999999 2.366299999999999,1.9416999999999973 2.339500000000001,1.9270999999999994 2.315100000000001,1.9358000000000004 2.233900000000002,1.953599999999998 2.1960000000000015,1.9389000000000003 2.1395000000000017,1.9433000000000007 2.1248000000000005,1.9528999999999996 2.0517000000000003,1.9225999999999992 2.0519,1.9281000000000006 2.0481000000000016,1.9396999999999984 2.051400000000001,1.9464000000000006 2.0515000000000008,1.9563999999999986 2.0610999999999997,1.9954 2.0593000000000004,2.0662999999999982 2.0625,2.0731 2.0623000000000005,2.0814999999999984 2.067,2.093799999999998 2.066200000000002,2.101499999999998 2.0619000000000014,2.1149999999999984 2.063100000000002,2.1234 2.055900000000001,2.1343999999999994 2.0526000000000018,2.1435999999999993 2.052199999999999,2.1492000000000004 2.054100000000002,2.156299999999998 2.0503,2.163599999999999 2.050900000000002,2.1708 2.047699999999999,2.1888000000000005 2.0416999999999987,2.1986999999999988 2.035399999999999,2.200199999999999 2.0289,2.208199999999998 2.0274,2.2241 2.0222000000000016,2.2384999999999984 2.0109999999999992,2.2573000000000008 2.0076,2.2773000000000003 1.9982000000000006,2.2972 1.9977000000000018,2.3019 1.9901000000000018,2.3062000000000005 1.9845000000000006,2.312999999999999 1.9743999999999993,2.3324 1.9688000000000017,2.3363999999999976 1.9552000000000014,2.3412000000000006 1.9252000000000002,2.342399999999998 1.9156000000000013,2.339199999999998 1.9093000000000018,2.3390999999999984 1.8917000000000002,2.345700000000001 1.8750999999999998,2.3543999999999983 1.8611000000000004,2.3652999999999977 1.8491,2.384999999999998 1.8408000000000015,2.3918999999999997 1.8081999999999994,2.4101 1.8024000000000022,2.4117999999999995 1.7776999999999994,2.412399999999998 1.7607,2.4101999999999997 1.7501999999999995,2.4065999999999974 1.7331000000000003,2.407799999999998 1.7213999999999992,2.4116999999999997 1.7127000000000017,2.417099999999998 1.6780000000000008,2.4312000000000005 1.6651999999999987,2.4406999999999996 1.6407999999999987,2.4468999999999994 1.613900000000001,2.4604 1.601300000000002,2.460699999999999 1.5890000000000022,2.458099999999998 1.5808,2.4662000000000006 1.573599999999999,2.4663000000000004 1.5695000000000014,2.470299999999998 1.5534,2.476399999999998 1.5425000000000004,2.4771 1.522000000000002,2.483599999999999 1.5076999999999998,2.484400000000001 1.4882999999999988,2.4819999999999993 1.4817999999999998,2.4908 1.4643000000000015,2.5254999999999974 1.4649999999999999,2.5294999999999987 1.4596000000000018,2.532899999999998 1.443200000000001,2.533200000000001 1.4346999999999994,2.5315999999999974 1.4063000000000017,2.5382999999999996 1.3846999999999987,2.5410000000000004 1.3782999999999994,2.543599999999998 1.3565000000000005,2.5753999999999984 1.3413000000000004,2.6141000000000005 1.3340999999999994,2.6264000000000003 1.3188999999999993,2.6374999999999993 1.2987000000000002,2.6449 1.2879000000000005,2.6540999999999997 1.2733999999999988,2.654399999999999 1.2626999999999988,2.6622999999999983 1.2543000000000006,2.6644000000000005 1.231300000000001,2.668599999999998 1.2148000000000003,2.669699999999999 1.2041000000000004,2.673199999999998 1.1937999999999995,2.6789999999999985 1.177299999999999,2.6961999999999975 1.1723999999999997,2.717399999999998 1.1677,2.728999999999999 1.1585,2.738199999999999 1.153100000000002,2.7521999999999984 1.1489000000000011,2.7531 1.1285999999999987,2.7482000000000006 1.1127000000000002,2.7471999999999994 1.1008999999999993,2.7550999999999988 1.0911000000000008,2.7563999999999993 1.0914000000000001,2.7712000000000003 1.0955000000000013,2.7758000000000003 1.1008999999999993,2.7876999999999974 1.1191999999999993,2.8085999999999984 1.1122000000000014,2.8109 1.0978999999999992,2.8199000000000005 1.0878000000000014,2.828199999999999 1.0740000000000016,2.846 1.006800000000002,2.837399999999999 1.0025000000000013,2.839299999999998 0.9772999999999996,2.8596000000000004 0.9687000000000019,2.8598 0.9587000000000003,2.8634999999999984 0.9322000000000017,2.8771999999999984 0.9282000000000004,2.8836999999999975 0.9230000000000018,2.900199999999998 0.9210999999999991,2.9140999999999977 0.9162999999999997,2.920099999999998 0.911999999999999,2.9375999999999998 0.9101999999999997,2.9544999999999995 0.9037000000000006,2.9732999999999983 0.9042999999999992,2.9833999999999996 0.8893000000000022,2.9941999999999993 0.8721999999999994,3.0574999999999974 0.8607000000000014,3.0737999999999985 0.8532000000000011,3.097999999999999 0.8390000000000022,3.1235 0.8337000000000003,3.1506000000000007 0.8239000000000019,3.159399999999998 0.8185000000000002,3.169699999999999 0.8064,3.1835999999999984 0.8064999999999998,3.206299999999999 0.8042000000000016,3.2120999999999995 0.7573000000000008,3.2704999999999984 0.7376000000000005,3.289999999999999 0.7317,3.3073999999999977 0.7280000000000015,3.312999999999999 0.7255000000000003,3.320499999999999 0.7249000000000017,3.339299999999998 0.7299000000000007,3.358999999999998 0.7426999999999992,3.3724999999999987 0.753700000000002,3.3797999999999995 0.7547999999999995,3.3848999999999982 0.758700000000001,3.3893999999999984 0.758700000000001,3.3943999999999974 0.7492000000000019,3.433699999999998 0.7487999999999992,3.442899999999998 0.7332000000000001,3.469899999999999 0.7302,3.4818999999999996 0.7123999999999988,3.511599999999998 0.706199999999999,3.517699999999998 0.7011000000000003,3.5207999999999977 0.6869000000000014,3.5228 0.6564000000000014,3.5429999999999993 0.6363000000000021,3.560399999999998 0.6257000000000019,3.5661999999999985 0.6171000000000006,3.567 0.6085999999999991,3.575199999999999 0.5997000000000021,3.5772999999999975 0.5881000000000007,3.584699999999998 0.5841999999999992,3.593399999999999 0.5853000000000002,3.6001999999999974 0.5815000000000019,3.6158 0.5692000000000021,3.6309000000000005 0.5587000000000018,3.6691000000000003 0.5531000000000006,3.7017999999999986 0.5555000000000021,3.7135 0.553799999999999,3.7231999999999985 0.5594000000000001,3.7297999999999973 0.5654000000000003,3.7332 0.5660999999999987,3.7357999999999976 0.5605000000000011,3.7419999999999973 0.5593000000000004,3.747799999999998 0.5529000000000011,3.7586999999999975 0.5498000000000012,3.7856999999999985 0.5450000000000017,3.796599999999998 0.5404000000000018,3.7990999999999993 0.5376000000000012,3.8039999999999985 0.5282000000000018,3.809100000000001 0.5215999999999994,3.816499999999998 0.4955999999999996,3.8268999999999984 0.4817,3.8290000000000006 0.4535000000000018,3.8503000000000007 0.44369999999999976,3.861799999999999 0.4359000000000002,3.8741999999999983 0.4278000000000013,3.8939999999999984 0.4189000000000007,3.902100000000001 0.4159000000000006,3.907399999999999 0.41359999999999886,3.9201999999999977 0.41100000000000136,3.9243999999999986 0.4039999999999999,3.9284 0.3813999999999993,3.9343000000000004 0.3666000000000018,3.944399999999998 0.34410000000000096,3.9742999999999995 0.33699999999999974,3.9872999999999976 0.2834000000000003,4.040399999999998 0.28000000000000114,4.049499999999998 0.27990000000000137,4.0600999999999985 0.26259999999999906,4.104599999999998 0.2579999999999991,4.107299999999999 0.2521000000000022,4.1235 0.22860000000000014,4.1615 0.2234000000000016,4.184699999999999 0.21809999999999974,4.195499999999999 0.20990000000000109,4.2028 0.2071000000000005,4.209399999999999 0.2065000000000019,4.217499999999998 0.19010000000000105,4.241999999999997 0.18670000000000186,4.254300000000001 0.18120000000000047,4.2639 0.15690000000000026,4.299299999999999 0.15050000000000097,4.302499999999998 0.13480000000000203,4.3032 0.13070000000000093,4.306100000000001 0.12780000000000058,4.310700000000001 0.1280000000000001,4.322399999999998 0.1247000000000007,4.3277 0.10130000000000194,4.3359999999999985 0.09560000000000102,4.339700000000001 0.0840999999999994,4.341999999999999 0.07860000000000156,4.357499999999998 0.0663000000000018,4.370899999999999 0.05349999999999966,4.390999999999998 0.04410000000000025,4.414099999999998 0.04299999999999926,4.427 0.04439999999999955,4.4327000000000005 0.03059999999999974,4.468 0.027599999999999625,4.472999999999999 0.021399999999999864,4.4754000000000005 0.014500000000001734,4.482299999999999 0.006199999999999761,4.4999 0.0,4.508900000000001 0.0045999999999999375,4.522500000000001 0.002500000000001279,4.5295999999999985 0.001200000000000756,4.546399999999998 0.02680000000000149,4.6035 0.025900000000000034,4.620100000000001 0.03229999999999933,4.620699999999999 0.03389999999999915,4.625899999999998 0.030699999999999505,4.630499999999998 0.027499999999999858,4.6297 0.029700000000001836,4.6371 0.0768000000000022,4.609500000000001 0.08389999999999986,4.600300000000001 0.10529999999999973,4.5901 0.11990000000000123,4.589099999999998 0.14120000000000132,4.591100000000001 0.1443000000000012,4.589600000000001 0.1457000000000015,4.586499999999997 0.15170000000000172,4.586399999999998 0.15630000000000166,4.582999999999998 0.16499999999999915,4.5807 0.2071000000000005,4.578599999999998 0.2248000000000019,4.581199999999999 0.23580000000000112,4.5793 0.2751000000000019,4.565300000000001 0.2895000000000003,4.5661999999999985 0.29879999999999995,4.5718 0.31129999999999924,4.585799999999999 0.31980000000000075,4.5883 0.33810000000000073,4.5848999999999975 0.38009999999999877,4.584199999999999 0.4039999999999999,4.592199999999998 0.4164999999999992,4.602499999999999 0.4355000000000011,4.6144 0.44140000000000157,4.616 0.45060000000000144,4.6153999999999975 0.4582000000000015,4.607900000000001 0.4610000000000021,4.5955999999999975 0.46740000000000137,4.589600000000001 0.48470000000000013,4.584699999999998 0.49950000000000117,4.582699999999999 0.5091000000000001,4.577999999999999 0.5134000000000007,4.579000000000001 0.5231999999999992,4.577500000000001 0.533100000000001,4.5716 0.5576000000000008,4.546599999999998 0.5724000000000018,4.5365 0.593,4.534299999999998 0.6018000000000008,4.529899999999998 0.6058000000000021,4.526199999999999 0.607800000000001,4.521000000000001 0.6117999999999988,4.518000000000001 0.6149000000000022,4.509999999999998 0.6132999999999988,4.5017 0.6166000000000018,4.497199999999999 0.6166000000000018,4.494 0.6095000000000006,4.485199999999999 0.6153000000000013,4.475300000000001 0.6182000000000016,4.456499999999998 0.6219000000000001,4.4513 0.6402999999999999,4.447399999999998 0.6448999999999998,4.444399999999998 0.6640000000000015,4.441399999999998 0.6722000000000001,4.433599999999998 0.6816999999999993,4.43 0.7029999999999994,4.427199999999999 0.7187000000000019,4.428100000000001 0.735400000000002,4.421900000000001 0.7409999999999997,4.423099999999998 0.7477000000000018,4.433899999999998 0.7535999999999987,4.439599999999999 0.7713999999999999,4.448899999999998 0.7897999999999996,4.447599999999998 0.7997000000000014,4.450499999999998 0.8256000000000014,4.4437999999999995 0.8343999999999987,4.4436 0.8446999999999996,4.445699999999999 0.8537999999999997,4.4522999999999975 0.8596000000000004,4.4659999999999975 0.8645999999999994,4.471499999999999 0.8655000000000008,4.474899999999998 0.8638000000000012,4.477599999999999 0.8522999999999996,4.482599999999998 0.8519000000000005,4.487500000000001 0.8546000000000014,4.494399999999999 0.8628999999999998,4.4985 0.9073999999999991,4.505599999999998 0.9413000000000018,4.520199999999999 0.9711999999999996,4.539099999999998 0.9771999999999998,4.5379000000000005 0.9824000000000019,4.533799999999999 0.985400000000002,4.522199999999998 0.990000000000002,4.5147999999999975 0.9924,4.5112999999999985 1.0000999999999998,4.506499999999999 1.0124999999999993,4.505299999999998 1.0206000000000017,4.506999999999998 1.0326000000000022,4.506399999999999 1.0437000000000012,4.504300000000001 1.052900000000001,4.4986 1.0596999999999994,4.491599999999998 1.0710000000000015,4.4879999999999995 1.092100000000002,4.4907 1.1105000000000018,4.490600000000001 1.1296,4.4864999999999995 1.161200000000001,4.483699999999999 1.1745000000000019,4.477999999999998 1.194700000000001,4.4663 1.2193000000000005,4.457599999999999 1.2515,4.4373000000000005 1.267199999999999,4.4354999999999976 1.3068999999999988,4.435599999999997 1.315999999999999,4.433799999999998 1.3289000000000009,4.4224 1.3404999999999987,4.4069 1.3454000000000015,4.395699999999998 1.3488000000000007,4.377199999999998 1.357099999999999,4.3705 1.3651000000000018,4.369299999999999 1.3767999999999994,4.364899999999999 1.4090999999999987,4.364899999999999 1.4293000000000013,4.3537 1.4408999999999992,4.350999999999999 1.446200000000001,4.3462 1.4596000000000018,4.3413 1.4727999999999994,4.340399999999999 1.479800000000001,4.342199999999998 1.4997000000000007,4.365299999999998 1.5109999999999992,4.373099999999997 1.5150000000000006,4.378399999999999 1.5329000000000015,4.382899999999999 1.5492999999999988,4.3902 1.5627999999999993,4.394099999999998 1.579900000000002,4.4223 1.5882000000000005,4.429499999999997 1.5960999999999999,4.4300999999999995 1.6098,4.4268 1.6216000000000008,4.4285 1.628700000000002,4.434999999999999 1.6460000000000008,4.432399999999998 1.6524999999999999,4.433399999999999 1.6721000000000004,4.4422 1.6904000000000003,4.4467 1.702300000000001,4.446099999999998 1.709299999999999,4.447499999999998 1.7164000000000001,4.4542 1.7194000000000003,4.455099999999998 1.738900000000001,4.4542 1.7502999999999993,4.456599999999998 1.7604000000000006,4.4634 1.767400000000002,4.4659999999999975 1.7967000000000013,4.4574 1.8253000000000021,4.500999999999998 1.841899999999999,4.522600000000001 1.874600000000001,4.548199999999998 1.908100000000001,4.578099999999999 1.893699999999999,4.617699999999999 2.105800000000002,4.844200000000001 2.1339000000000006,4.8664999999999985 2.1601999999999997,4.8842 2.1761000000000017,4.8977 2.1875999999999998,4.9099 2.2531999999999996,4.959599999999998 2.2730999999999995,4.976599999999998 2.2829000000000015,4.982599999999998 2.3142999999999994,5.008900000000001 2.3507999999999996,5.047499999999999 2.3613999999999997,5.0608 2.3640000000000008,5.066399999999998 2.3823000000000008,5.0852 2.3918,5.172000000000001 2.599599999999999,5.456199999999999 2.6891,5.496199999999998 2.8198000000000008,5.540499999999998 2.9315999999999995,5.591899999999999 3.037700000000001,5.691699999999997 3.4364999999999988,5.8568 3.4555000000000007,5.8612 3.5151000000000003,5.864000000000001 3.5241000000000007,5.8679999999999986 3.5340999999999987,5.875399999999999 3.5379000000000005,5.884999999999998 3.5458999999999996,5.895299999999999 3.5913000000000004,5.9278999999999975 3.5989000000000004,5.9376 3.6022999999999996,5.9453 3.6007,5.9636 3.597100000000001,5.9758 3.597899999999999,5.980499999999999 3.6035000000000004,5.9924 3.6157000000000004,6.005399999999998 3.6213000000000015,6.014199999999999 3.627100000000002,6.0428999999999995 3.6275000000000013,6.048500000000001 3.620899999999999,6.066699999999997 3.6205,6.084399999999999 3.6095000000000006,6.0955999999999975 3.6065000000000005,6.1035 3.6079000000000008,6.117100000000001 3.6153000000000013,6.136699999999998 3.6190999999999995,6.144500000000001 3.6346999999999987,6.162699999999997 3.6346999999999987,6.168199999999999 3.630700000000001,6.175899999999999 3.6229000000000013,6.1846 3.6173,6.194800000000001 3.6173,6.227499999999999 3.6130999999999993,6.2403999999999975 3.6130999999999993,6.251200000000001 3.6160999999999994,6.260099999999998 3.6273000000000017,6.2667 3.6339000000000006,6.273299999999999 3.6374999999999993,6.281299999999998 3.6427000000000014,6.3018 3.6411000000000016,6.323599999999999 3.636099999999999,6.342700000000001 3.631499999999999,6.3531999999999975 3.6298999999999992,6.3736999999999995 3.631700000000002,6.382300000000001 3.636099999999999,6.3886 3.645299999999999,6.3933 3.6563000000000017,6.403299999999998 3.6593000000000018,6.4086 3.6615,6.418499999999998 3.671900000000001,6.435899999999998 3.6813000000000002,6.448099999999998 3.697099999999999,6.463099999999999 3.7012,6.463899999999999 3.7162000000000006,6.475199999999999 3.7363999999999997,6.478299999999999 3.757999999999999,6.477699999999999 3.7758000000000003,6.473299999999998 3.785499999999999,6.473899999999999 3.7954000000000008,6.481199999999999 3.8087000000000018,6.495699999999999 3.819099999999999,6.514199999999999 3.827400000000001,6.524899999999999 3.857199999999999,6.554799999999998 3.8798999999999992,6.564699999999998 3.8917,6.571599999999998 3.909200000000002,6.585099999999999 3.9307000000000016,6.607899999999999 3.975999999999999,6.638699999999998 4.002800000000001,6.6511 4.0259,6.6564 4.049099999999999,6.664899999999999 4.0703,6.6808 4.116700000000002,6.7029 4.127600000000001,6.703899999999999 4.151600000000002,6.710799999999999 4.177600000000002,6.725899999999999 4.214700000000001,6.739099999999999 4.257999999999999,6.732899999999999 4.2745999999999995,6.7364 4.3047,6.7486 4.325400000000002,6.759899999999998 4.349399999999999,6.765699999999999 4.365300000000001,6.765599999999999 4.3794,6.7631 4.419599999999999,6.7654 4.4483,6.777399999999998 4.4893,6.783299999999999 4.505700000000001,6.787699999999999 4.530200000000001,6.7981 4.5488,6.808699999999998 4.5626999999999995,6.812299999999999 4.645099999999999,6.8096 4.657600000000002,6.8039999999999985 4.6661,6.802199999999999 4.683600000000002,6.802199999999999 4.705200000000001,6.797499999999999 4.710100000000001,6.795699999999998 4.718499999999999,6.789299999999999 4.736000000000001,6.783199999999999 4.7437000000000005,6.782699999999998 4.778500000000001,6.787699999999999 4.822199999999999,6.791699999999999 4.844799999999999,6.797999999999998 4.878900000000002,6.7973 4.904499999999999,6.805299999999999 4.9239,6.8057 4.937100000000001,6.801799999999998 4.9633,6.769399999999999 4.9678,6.7658999999999985 4.977,6.763 4.984999999999999,6.763999999999999 4.996700000000001,6.7722999999999995 5.022600000000001,6.797999999999998 5.0261,6.796299999999999 5.0322,6.783799999999999 5.041599999999999,6.780199999999999 5.0837,6.7791999999999994 5.102699999999999,6.774099999999999 5.122900000000001,6.773899999999999 5.1533000000000015,6.7856999999999985 5.174099999999999,6.8012 5.175799999999999,6.804699999999999 5.173500000000001,6.8088999999999995 5.1844,6.797099999999999 5.183900000000001,6.418799999999997 5.250399999999999,6.4177 5.4162,6.419599999999999 5.683,6.419599999999999 5.7119,6.403299999999998 5.716899999999999,6.391400000000001 5.719200000000001,6.3809000000000005 5.728300000000001,6.3702000000000005 5.7440999999999995,6.360599999999998 5.752700000000001,6.360099999999999 5.768799999999999,6.3626000000000005 5.7745999999999995,6.369699999999998 5.7791,6.369799999999998 5.787099999999999,6.380800000000001 5.7864,6.383099999999999 5.790900000000001,6.3917 5.792300000000001,6.3992 5.805800000000001,6.3984999999999985 5.8138000000000005,6.4019999999999975 5.8201,6.407899999999998 5.8263,6.419599999999999 5.828500000000002,6.416999999999998 5.828299999999999,6.4129000000000005 5.823900000000002,6.405099999999997 5.8271000000000015,6.401399999999999 5.834099999999999,6.4045999999999985 5.834399999999999,6.403399999999998 5.8416,6.407499999999999 5.849499999999999,6.4024 5.849900000000002,6.410799999999998 5.856400000000001,6.410899999999998 5.860800000000001,6.417400000000001 5.866700000000002,6.418699999999998 5.8687000000000005,6.4238 5.905999999999999,6.434899999999999 5.911999999999999,6.429699999999999 5.914300000000001,6.430999999999999 5.940300000000001,6.4292 5.948599999999999,6.414899999999999 5.964000000000002,6.414999999999999 5.977399999999999,6.411999999999999 5.987100000000002,6.412499999999998 6.0013000000000005,6.418399999999998 6.011700000000001,6.4099 6.029800000000002,6.409800000000001 6.0455000000000005,6.399699999999999 6.069300000000002,6.3923999999999985 6.0791,6.382899999999999 6.0958000000000006,6.371099999999998 6.100899999999999,6.3664999999999985 6.101400000000002,6.3642 6.098600000000001,6.362199999999998 6.098400000000002,6.3592999999999975 6.1006,6.352999999999998 6.1037,6.351199999999999 6.110700000000001,6.3394999999999975 6.126000000000001,6.328499999999998 6.135300000000001,6.316399999999998 6.1493,6.3039999999999985 6.156300000000002,6.2928999999999995 6.166499999999999,6.282499999999999 6.168400000000002,6.282899999999998 6.1751000000000005,6.279299999999999 6.179600000000001,6.2837 6.184799999999999,6.286099999999998 6.188600000000001,6.284399999999998 6.192599999999999,6.2780999999999985 6.189800000000002,6.268799999999999 6.190999999999999,6.266400000000001 6.186399999999999,6.265499999999999 6.1861999999999995,6.263299999999997 6.1888000000000005,6.2605 6.194099999999999,6.263400000000001 6.208300000000001,6.265799999999999 6.213699999999999,6.264699999999998 6.213100000000001,6.261499999999998 6.214500000000001,6.260400000000001 6.218800000000002,6.2638 6.223099999999999,6.2608 6.224800000000002,6.2621 6.227900000000002,6.2606 6.243400000000001,6.262699999999999 6.261300000000002,6.248899999999999 6.307100000000002,6.2353999999999985 6.350000000000001,6.228300000000001 6.380200000000002,6.229499999999998 6.3972000000000016,6.2224 6.453700000000001,6.2179 6.4648,6.212999999999997 6.495100000000001,6.1911999999999985 6.52,6.182600000000001 6.532800000000002,6.1829 6.547699999999999,6.1632 6.5527000000000015,6.161300000000001 6.5596,6.1617 6.557100000000002,6.1583000000000006 6.557500000000001,6.1568000000000005 6.561800000000002,6.156199999999998 6.565200000000001,6.1494 6.578099999999999,6.142199999999999 6.579799999999999,6.138299999999997 6.5760000000000005,6.1356 6.576499999999999,6.132199999999997 6.578700000000001,6.131699999999999 6.576900000000002,6.124700000000001 6.587399999999999,6.125299999999999 6.5915,6.1206 6.59,6.1172 6.592400000000001,6.1145 6.592700000000001,6.1112 6.596,6.108499999999999 6.597899999999999,6.106999999999999 6.602,6.111999999999998 6.610500000000002,6.110099999999999 6.613900000000001,6.101800000000001 6.619900000000001,6.1006 6.6248000000000005,6.095499999999998 6.634800000000002,6.093699999999998 6.645400000000002,6.0867 6.655799999999999,6.083099999999998 6.664200000000001,6.071999999999999 6.6675,6.052 6.671800000000001,6.047799999999999 6.671199999999999,6.031099999999999 6.669499999999999,6.030799999999999 6.6701000000000015,6.0289 6.6678,6.0276 6.6754999999999995,6.006699999999999 6.799500000000002,5.9772 7.0364,5.9853999999999985 7.0473,5.984999999999999 7.107199999999999,5.9697 7.110199999999999,5.967599999999997 7.1739999999999995,5.949999999999999 7.249699999999997,5.920199999999998 7.337600000000002,5.882899999999999 7.471200000000003,5.819599999999998 7.474000000000004,5.8171 7.4643000000000015,5.744499999999999 7.465499999999999,5.739799999999999 7.471200000000003,5.734099999999998 7.531799999999997,5.7102 7.542999999999999,5.712599999999998 7.565899999999999,5.7118 7.570900000000002,5.714299999999998 7.587499999999999,5.7105 7.594700000000003,5.719099999999997 7.604799999999997,5.720700000000001 7.615400000000001,5.711600000000001 7.630699999999997,5.711099999999998 7.648200000000003,5.700199999999999 7.6554,5.699400000000001 7.663499999999999,5.703299999999999 7.668999999999997,5.709 7.674300000000002,5.7109999999999985 7.682000000000002,5.717599999999997 7.685299999999998,5.718299999999999 7.689599999999999,5.715699999999998 7.7333,5.715 7.740499999999997,5.712399999999999 7.733899999999998,5.6663 7.7258,5.640699999999999 7.674199999999999,5.525399999999998 7.669899999999998,5.5223999999999975 7.613500000000002,5.5047 7.6068,5.503799999999998 7.595199999999998,5.4986999999999995 7.600500000000004,5.4876000000000005 7.611600000000003,5.471399999999999 7.664999999999999,5.401499999999999 7.683900000000001,5.369999999999997 7.689799999999998,5.365600000000001 7.700000000000003,5.350999999999999 7.7485,5.240299999999998 7.7520000000000024,5.2224 7.756700000000002,5.168799999999997 7.759399999999999,5.111000000000001 7.762700000000002,5.105499999999999 7.770099999999999,5.1036 7.795099999999998,5.0848999999999975 7.807299999999998,5.072599999999998 7.791800000000002,5.0577000000000005 7.7901000000000025,5.0516000000000005 7.783299999999997,5.044599999999999 7.772800000000004,5.025399999999998 7.767600000000002,5.023999999999997 7.768999999999998,5.018000000000001 7.7639,5.004199999999997 7.758800000000001,4.974899999999998 7.759900000000002,4.9679 7.756799999999998,4.9693000000000005 7.751899999999999,4.965399999999999 7.745600000000003,4.963699999999999 7.7353999999999985,4.9476999999999975 7.7242999999999995,4.938199999999998 7.7211,4.9251000000000005 7.722200000000001,4.904 7.724699999999999,4.892499999999998 7.735700000000001,4.877299999999998 7.7379999999999995,4.867799999999999 7.743400000000001,4.8568 7.7520000000000024,4.8527999999999984 7.7712,4.850899999999999 7.796199999999999,4.828199999999999 7.805199999999999,4.8161999999999985 7.8035,4.806999999999999 7.804099999999998,4.792999999999999 7.801000000000002,4.7836 7.788200000000003,4.772199999999998 7.779899999999998,4.7484 7.774000000000001,4.717499999999998 7.776299999999999,4.7057 7.782200000000003,4.699299999999997 7.773400000000002,4.7037999999999975 7.772599999999997,4.697199999999999 7.765300000000003,4.699999999999999 7.764000000000003,4.694599999999998 7.7637,4.6813 7.768900000000002,4.6739999999999995 7.783700000000003,4.6656999999999975 7.788499999999999,4.660299999999999 7.782800000000002,4.6601 7.779200000000003,4.655899999999999 7.780300000000004,4.6525 7.7757000000000005,4.650199999999998 7.777500000000003,4.6385000000000005 7.776600000000002,4.636199999999999 7.773600000000002,4.6362999999999985 7.775500000000001,4.633199999999999 7.772199999999998,4.624700000000001 7.772100000000002,4.6202000000000005 7.767699999999998,4.623899999999999 7.767000000000003,4.619 7.762100000000004,4.618199999999998 7.757800000000003,4.618499999999997 7.756300000000003,4.6214999999999975 7.752600000000001,4.622 7.748600000000003,4.625399999999999 7.746400000000001,4.6251999999999995 7.743099999999998,4.619999999999997 7.739699999999999,4.621399999999998 7.738300000000002,4.6202000000000005 7.736600000000003,4.6234 7.733699999999999,4.617799999999999 7.731299999999997,4.6175999999999995 7.726700000000001,4.610699999999998 7.722700000000003,4.6083 7.7241,4.6053999999999995 7.7220999999999975,4.6021 7.723300000000002,4.564599999999999 7.7169000000000025,4.5471 7.715000000000003,4.547000000000001 7.716200000000001,4.5452999999999975 7.713900000000002,4.5411 7.714599999999997,4.533899999999999 7.711500000000001,4.5319 7.7151,4.527999999999999 7.7158000000000015,4.512599999999999 7.717399999999998,4.509899999999998 7.715899999999998,4.508599999999998 7.734499999999997,4.506 7.737099999999998,4.503899999999998 7.734099999999998,4.4969 7.735599999999998,4.491899999999998 7.733400000000003,4.4863 7.730600000000003,4.465399999999999 7.725000000000001,4.4574 7.716000000000001,4.460899999999999 7.709600000000002,4.456599999999998 7.704799999999999,4.4453 7.704599999999999,4.440799999999999 7.699300000000001,4.4365999999999985 7.7043000000000035,4.4343 7.7089,4.4152999999999984 7.700299999999999,4.4072 7.699800000000003,4.403600000000001 7.7021000000000015,4.4034999999999975 7.704000000000001,4.4008 7.701700000000002,4.397299999999998 7.698500000000003,4.3964 7.699399999999997,4.3916 7.6976999999999975,4.389699999999998 7.702399999999997,4.388999999999999 7.706099999999999,4.393599999999999 7.7105999999999995,4.3947 7.709800000000001,4.381599999999999 7.7143000000000015,4.3801999999999985 7.714700000000001,4.3765 7.718299999999999,4.373799999999999 7.719999999999999,4.3687000000000005 7.7149,4.366199999999999 7.715000000000003,4.3706 7.709600000000002,4.369599999999998 7.715499999999999,4.360299999999999 7.718600000000002,4.3597 7.719500000000004,4.3577999999999975 7.716799999999999,4.352899999999998 7.719099999999997,4.350899999999999 7.721200000000003,4.3521 7.724899999999998,4.339199999999998 7.7216999999999985,4.338799999999999 7.7209,4.337 7.726300000000002,4.334599999999998 7.734099999999998,4.316299999999998 7.732700000000001,4.314299999999999 7.7361,4.311299999999999 7.735999999999997,4.302799999999998 7.732100000000003,4.291499999999999 7.733899999999998,4.2773 7.740299999999998,4.264599999999998 7.749499999999998,4.262999999999998 7.755200000000002,4.2576 7.759599999999999,4.250699999999998 7.758099999999999,4.227499999999999 7.764200000000002,4.2027 7.770400000000002,4.190899999999999 7.770800000000001,4.179199999999998 7.762500000000003,4.1606999999999985 7.759599999999999,4.146899999999999 7.764099999999999,4.114799999999999 7.774900000000002,4.101299999999998 7.793399999999998,4.094799999999999 7.802,4.085799999999999 7.800800000000002,4.0762 7.816299999999998,4.061799999999998 7.817,4.0577000000000005 7.810400000000001,4.043599999999998 7.806899999999999,4.043499999999998 7.799999999999997,4.0365 7.795900000000003,4.035999999999998 7.785800000000002,4.0284999999999975 7.7794000000000025,4.0025999999999975 7.7783000000000015,3.988299999999999 7.784700000000001,3.9754000000000005 7.7849,3.9620999999999995 7.7830999999999975,3.9541000000000004 7.777300000000004,3.946999999999999 7.759,3.936399999999999 7.7438,3.9309999999999974 7.7391000000000005,3.9406999999999996 7.741799999999998,3.9481 7.738399999999999,3.9465000000000003 7.733600000000003,3.9467999999999996 7.728099999999998,3.9425999999999988 7.7224,3.9415999999999976 7.706600000000002,3.9290999999999983 7.693100000000001,3.9254999999999995 7.681699999999999,3.9177 7.677199999999999,3.917099999999998 7.6766000000000005,3.920099999999998 7.671300000000002,3.9223999999999997 7.668599999999998,3.9193999999999996 7.6661,3.9201999999999977 7.6599,3.9133999999999993 7.653700000000001,3.9129000000000005 7.650300000000001,3.9084000000000003 7.637900000000002,3.9023000000000003 7.6507000000000005,3.8888999999999996 7.656599999999997,3.876899999999999 7.657600000000002,3.8625000000000007 7.6524,3.8477999999999994 7.6479,3.8404999999999987 7.660800000000002,3.8284999999999982 7.664900000000003,3.8186 7.6648,3.813399999999998 7.671199999999999,3.798099999999998 7.698900000000002,3.757999999999999 7.716099999999997,3.7293999999999983 7.716999999999999,3.7215999999999987 7.710700000000003,3.7052999999999976 7.695300000000003,3.6753 7.694499999999998,3.666599999999999 7.689799999999998,3.653299999999998 7.682699999999997,3.643699999999999 7.671100000000003,3.6327999999999996 7.655300000000004,3.6237999999999992 7.6509,3.6230999999999973 7.639899999999997,3.622399999999999 7.6068,3.6432 7.576599999999999,3.6407999999999987 7.5593,3.629999999999999 7.553100000000001,3.6244999999999976 7.546100000000003,3.6221999999999994 7.540300000000002,3.622899999999998 7.519199999999998,3.607599999999998 7.514400000000002,3.6068 7.5107,3.6108999999999973 7.5047,3.6095000000000006 7.501400000000004,3.605699999999999 7.497900000000001,3.6053999999999995 7.497,3.6019000000000005 7.490099999999998,3.5973000000000006 7.488500000000002,3.5992999999999995 7.485900000000001,3.5986999999999973 7.474400000000003,3.591100000000001 7.464700000000001,3.5790000000000006 7.4665000000000035,3.5757999999999974 7.466700000000003,3.5627999999999993 7.480600000000003,3.5427 7.485999999999997,3.5284999999999975 7.492699999999999,3.4941999999999993 7.491999999999997,3.4913999999999987 7.487900000000003,3.4894 7.4802000000000035,3.4887999999999977 7.465699999999998,3.4838999999999984 7.460700000000003,3.4848 7.466300000000004,3.4593999999999987 "></polygon>
    </svg>
    