
    <svg width="0.19810000000001082" height="0.21160000000000068" xmlns="http://www.w3.org/2000/svg" xmlns:xlink="http://www.w3.org/1999/xlink" style="transform: scale(1, -1)">
        <polygon points="0.0853000000000037,0.057500000000000995 0.08559999999999945,0.0600000000000005 0.07610000000001094,0.06550000000000011 0.07610000000001094,0.0686 0.07480000000001041,0.0691000000000006 0.07340000000000657,0.0669000000000004 0.07340000000000657,0.0686 0.0688999999999993,0.06879999999999953 0.06750000000000966,0.06610000000000049 0.06560000000000343,0.06610000000000049 0.061400000000006116,0.07249999999999979 0.05280000000000484,0.07639999999999958 0.051400000000001,0.0779999999999994 0.051400000000001,0.07910000000000039 0.05389999999999873,0.07830000000000048 0.05280000000000484,0.08109999999999928 0.04560000000000741,0.08689999999999998 0.0350000000000108,0.09079999999999977 0.03140000000000498,0.10110000000000063 0.027000000000001023,0.10190000000000055 0.020600000000001728,0.10640000000000072 0.02030000000000598,0.10800000000000054 0.012300000000010414,0.11359999999999992 0.010600000000010823,0.11769999999999925 0.007000000000005002,0.11829999999999963 0.004800000000003024,0.12439999999999962 0.0,0.1269000000000009 0.0006000000000057071,0.13049999999999962 0.008400000000008845,0.14220000000000077 0.00750000000000739,0.14750000000000085 0.015600000000006276,0.15639999999999965 0.01860000000000639,0.16830000000000034 0.009799999999998477,0.1982999999999997 0.004800000000003024,0.20390000000000086 0.005000000000009663,0.20770000000000088 0.0072000000000116415,0.21080000000000076 0.012300000000010414,0.21160000000000068 0.013600000000010937,0.20940000000000047 0.017800000000008254,0.20770000000000088 0.018100000000004002,0.2051999999999996 0.021700000000009823,0.2016000000000009 0.030000000000001137,0.1974999999999998 0.032300000000006435,0.19379999999999953 0.039700000000010505,0.1911000000000005 0.04590000000000316,0.1833000000000009 0.05000000000001137,0.17440000000000033 0.07030000000000314,0.15520000000000067 0.0759000000000043,0.14719999999999978 0.07950000000001012,0.14550000000000018 0.0853000000000037,0.14690000000000047 0.08389999999999986,0.14579999999999949 0.08450000000000557,0.1440999999999999 0.0928000000000111,0.1396999999999995 0.0928000000000111,0.1355000000000004 0.09390000000000498,0.1391000000000009 0.10060000000000002,0.13390000000000057 0.10529999999999973,0.1341000000000001 0.10699999999999932,0.1313999999999993 0.1075000000000017,0.12439999999999962 0.11670000000000869,0.12829999999999941 0.11920000000000641,0.12410000000000032 0.12279999999999802,0.1225000000000005 0.12950000000000728,0.11519999999999975 0.13530000000000086,0.11250000000000071 0.13450000000000273,0.10909999999999975 0.1367000000000047,0.10580000000000034 0.13640000000000896,0.10270000000000046 0.13920000000000243,0.10299999999999976 0.13920000000000243,0.10079999999999956 0.14530000000000598,0.09660000000000046 0.1459000000000117,0.09360000000000035 0.154200000000003,0.09019999999999939 0.165300000000002,0.0777000000000001 0.16730000000001155,0.0732999999999997 0.17390000000000327,0.07249999999999979 0.17889999999999873,0.06610000000000049 0.18200000000000216,0.051400000000001 0.18999999999999773,0.035199999999999676 0.1898000000000053,0.026400000000000645 0.19170000000001153,0.025500000000000966 0.194500000000005,0.011100000000000776 0.19810000000001082,0.006299999999999528 0.19729999999999848,0.0032999999999994145 0.19250000000000966,0.002700000000000813 0.18999999999999773,0.0 0.18310000000001025,0.0015999999999998238 0.17950000000000443,0.0005000000000006111 0.17920000000000869,0.005000000000000782 0.17610000000000525,0.008000000000000895 0.1734000000000009,0.009700000000000486 0.16779999999999973,0.008300000000000196 0.1617000000000104,0.013600000000000279 0.15749999999999886,0.01440000000000019 0.1553000000000111,0.018599999999999284 0.14339999999999975,0.018800000000000594 0.13890000000000668,0.021599999999999397 0.13640000000000896,0.019999999999999574 0.13530000000000086,0.021599999999999397 0.136099999999999,0.0237999999999996 0.13860000000001094,0.024399999999999977 0.1377999999999986,0.02689999999999948 0.1313999999999993,0.02940000000000076 0.13110000000000355,0.027699999999999392 0.12310000000000798,0.02940000000000076 0.12199999999999989,0.03160000000000096 0.1186000000000007,0.03160000000000096 0.11420000000001096,0.036099999999999355 0.10950000000001125,0.038000000000000256 0.10609999999999786,0.04190000000000005 0.10309999999999775,0.04269999999999996 0.0981000000000023,0.049099999999999255 0.09480000000000643,0.050499999999999545 0.09310000000000684,0.0539000000000005 0.091700000000003,0.053300000000000125 0.08750000000000568,0.05630000000000024 0.08859999999999957,0.0622000000000007 0.0864000000000118,0.05969999999999942 0.08670000000000755,0.05719999999999992 0.0853000000000037,0.057500000000000995 "></polygon>
    </svg>
    