
    <svg width="0.5498999999999938" height="0.7317" xmlns="http://www.w3.org/2000/svg" xmlns:xlink="http://www.w3.org/1999/xlink" style="transform: scale(1, -1)">
        <polygon points="0.45929999999999893,0.003600000000002268 0.46349999999999625,0.00140000000000029 0.4637999999999991,0.0 0.4589999999999961,0.00030000000000285354 0.4573999999999998,0.005000000000002558 0.45929999999999893,0.003600000000002268 "></polygon><polygon points="0.4970999999999961,0.060300000000001575 0.4981999999999971,0.057800000000000296 0.4987999999999957,0.05940000000000012 0.5001999999999995,0.058900000000001285 0.4995999999999938,0.05220000000000269 0.49569999999999936,0.05220000000000269 0.48679999999999524,0.046400000000001995 0.4859999999999971,0.043900000000000716 0.4889999999999972,0.041100000000000136 0.48569999999999425,0.03920000000000101 0.4865999999999957,0.038000000000000256 0.4848999999999961,0.03720000000000212 0.48460000000000036,0.03440000000000154 0.4812999999999974,0.03300000000000125 0.47990000000000066,0.030000000000001137 0.48569999999999425,0.02470000000000283 0.4912999999999954,0.022500000000000853 0.4987999999999957,0.017500000000001847 0.5015000000000001,0.017500000000001847 0.5028999999999968,0.014700000000001268 0.4923999999999964,0.020800000000001262 0.4790999999999954,0.024100000000000676 0.4773999999999958,0.026700000000001722 0.47349999999999426,0.027200000000000557 0.4731999999999985,0.029400000000002535 0.47099999999999653,0.029700000000001836 0.4690999999999974,0.03300000000000125 0.46989999999999554,0.0400000000000027 0.47179999999999467,0.040300000000002 0.4706999999999937,0.044400000000003104 0.47459999999999525,0.04720000000000013 0.47459999999999525,0.0508000000000024 0.47819999999999396,0.056100000000000705 0.4812999999999974,0.056100000000000705 0.4859999999999971,0.05910000000000082 0.4865999999999957,0.057200000000001694 0.4889999999999972,0.05940000000000012 0.49159999999999826,0.058600000000001984 0.49319999999999453,0.0619000000000014 0.49629999999999797,0.0622000000000007 0.4970999999999961,0.060300000000001575 "></polygon><polygon points="0.5060000000000002,0.0619000000000014 0.5045999999999964,0.06280000000000285 0.5045999999999964,0.06390000000000029 0.507399999999997,0.06360000000000099 0.5060000000000002,0.0619000000000014 "></polygon><polygon points="0.5087999999999937,0.07610000000000028 0.5098999999999947,0.07469999999999999 0.5087999999999937,0.07220000000000226 0.506299999999996,0.07250000000000156 0.5070999999999941,0.07390000000000185 0.5053999999999945,0.07190000000000296 0.5020999999999987,0.07330000000000325 0.5056999999999974,0.07750000000000057 0.5087999999999937,0.07610000000000028 "></polygon><polygon points="0.517399999999995,0.056100000000000705 0.5165000000000006,0.055800000000001404 0.5156999999999954,0.05690000000000239 0.518499999999996,0.057500000000000995 0.517399999999995,0.056100000000000705 "></polygon><polygon points="0.5198999999999998,0.10140000000000171 0.5206999999999979,0.09800000000000253 0.516299999999994,0.10110000000000241 0.5142999999999986,0.09609999999999985 0.5156999999999954,0.09470000000000312 0.5156999999999954,0.097800000000003 0.518499999999996,0.09800000000000253 0.5178999999999974,0.09580000000000055 0.5198999999999998,0.09220000000000184 0.5156999999999954,0.09280000000000044 0.517399999999995,0.08970000000000056 0.5201999999999956,0.08920000000000172 0.5228999999999999,0.09330000000000283 0.5270999999999972,0.09500000000000242 0.5328999999999979,0.09250000000000114 0.5376999999999938,0.09390000000000143 0.5396000000000001,0.08970000000000056 0.5437999999999974,0.08800000000000097 0.5442999999999998,0.08420000000000272 0.5398999999999958,0.07970000000000255 0.5428999999999959,0.07690000000000197 0.541799999999995,0.07469999999999999 0.5334999999999965,0.07330000000000325 0.5298999999999978,0.07110000000000127 0.5270999999999972,0.07220000000000226 0.5292999999999992,0.07550000000000168 0.5227000000000004,0.07530000000000214 0.5170999999999992,0.07110000000000127 0.5140999999999991,0.07280000000000086 0.5140999999999991,0.07690000000000197 0.5109999999999957,0.08280000000000243 0.5135000000000005,0.08220000000000027 0.5137999999999963,0.08470000000000155 0.5167999999999964,0.08660000000000068 0.5112999999999985,0.09050000000000225 0.5128999999999948,0.09470000000000312 0.5095999999999989,0.09390000000000143 0.5078999999999994,0.09500000000000242 0.5048999999999992,0.10080000000000311 0.507399999999997,0.10190000000000055 0.5109999999999957,0.10050000000000026 0.5120999999999967,0.10300000000000153 0.5142999999999986,0.10360000000000014 0.519599999999997,0.10300000000000153 0.5198999999999998,0.10140000000000171 "></polygon><polygon points="0.5106999999999999,0.1180000000000021 0.5090000000000003,0.11670000000000158 0.5076999999999998,0.11920000000000286 0.5103999999999971,0.1194000000000024 0.5106999999999999,0.1180000000000021 "></polygon><polygon points="0.5401999999999987,0.12830000000000297 0.5398999999999958,0.12670000000000314 0.5453999999999937,0.125 0.5490999999999957,0.12160000000000082 0.546599999999998,0.1203000000000003 0.5439999999999969,0.11280000000000001 0.5370999999999952,0.11110000000000042 0.5312999999999946,0.1075000000000017 0.528499999999994,0.1092000000000013 0.529599999999995,0.11170000000000258 0.5265999999999948,0.1130000000000031 0.5248999999999953,0.11780000000000257 0.5262999999999991,0.11780000000000257 0.5265999999999948,0.12080000000000268 0.5292999999999992,0.12330000000000041 0.5364999999999966,0.1244000000000014 0.5364999999999966,0.1308000000000007 0.5398999999999958,0.1308000000000007 0.5401999999999987,0.12830000000000297 "></polygon><polygon points="0.5023999999999944,0.11000000000000298 0.5048999999999992,0.10470000000000113 0.4995999999999938,0.10410000000000252 0.4981999999999971,0.1022000000000034 0.4953999999999965,0.1069000000000031 0.4987999999999957,0.1075000000000017 0.4995999999999938,0.11110000000000042 0.5023999999999944,0.11000000000000298 "></polygon><polygon points="0.5251999999999981,0.17280000000000229 0.5262999999999991,0.1711000000000027 0.5201999999999956,0.1650000000000027 0.5228999999999999,0.1639000000000017 0.5217999999999989,0.16170000000000329 0.5227000000000004,0.15610000000000213 0.5170999999999992,0.15080000000000027 0.5156999999999954,0.14639999999999986 0.5087999999999937,0.14500000000000313 0.5103999999999971,0.14170000000000016 0.5078999999999994,0.14250000000000185 0.5056999999999974,0.1372 0.507399999999997,0.13470000000000226 0.5101999999999975,0.13610000000000255 0.5112999999999985,0.13920000000000243 0.5131999999999977,0.13860000000000028 0.5142999999999986,0.13280000000000314 0.5217999999999989,0.1305000000000014 0.5227000000000004,0.1255000000000024 0.5167999999999964,0.1247000000000007 0.5165000000000006,0.12220000000000297 0.5120999999999967,0.12110000000000198 0.5103999999999971,0.12160000000000082 0.5126999999999953,0.1244000000000014 0.506299999999996,0.12420000000000186 0.505199999999995,0.12160000000000082 0.5015000000000001,0.1197000000000017 0.4992999999999981,0.1203000000000003 0.5009999999999977,0.12080000000000268 0.5006999999999948,0.12360000000000326 0.4942999999999955,0.12530000000000285 0.4928999999999988,0.12720000000000198 0.49039999999999395,0.125 0.48460000000000036,0.12780000000000058 0.48039999999999594,0.12780000000000058 0.4742999999999995,0.12420000000000186 0.4742999999999995,0.12160000000000082 0.4790999999999954,0.1183000000000014 0.48930000000000007,0.1194000000000024 0.48989999999999867,0.12080000000000268 0.49210000000000065,0.12080000000000268 0.49269999999999925,0.11920000000000286 0.4987999999999957,0.120000000000001 0.49789999999999424,0.11750000000000327 0.49210000000000065,0.1183000000000014 0.48989999999999867,0.11580000000000013 0.4853999999999985,0.11500000000000199 0.4831999999999965,0.1069000000000031 0.4865999999999957,0.10500000000000043 0.4870999999999981,0.10190000000000055 0.4887999999999977,0.102800000000002 0.49159999999999826,0.1022000000000034 0.4889999999999972,0.10030000000000072 0.4901999999999944,0.09660000000000224 0.4884999999999948,0.0964000000000027 0.4881999999999991,0.09390000000000143 0.495199999999997,0.09530000000000172 0.4953999999999965,0.09140000000000015 0.4987999999999957,0.08999999999999986 0.49739999999999895,0.08420000000000272 0.5001999999999995,0.08470000000000155 0.5015000000000001,0.08250000000000313 0.49909999999999854,0.07920000000000016 0.4970999999999961,0.08079999999999998 0.4923999999999964,0.08050000000000068 0.49269999999999925,0.07670000000000243 0.4906999999999968,0.07750000000000057 0.48739999999999384,0.07330000000000325 0.4870999999999981,0.06940000000000168 0.49159999999999826,0.0683000000000007 0.4923999999999964,0.06610000000000227 0.48679999999999524,0.06360000000000099 0.4812999999999974,0.05690000000000239 0.4754000000000005,0.057200000000001694 0.4767999999999972,0.06550000000000011 0.4731999999999985,0.07110000000000127 0.4748999999999981,0.07190000000000296 0.47349999999999426,0.07330000000000325 0.4759999999999991,0.07530000000000214 0.4767999999999972,0.07830000000000226 0.47629999999999484,0.08500000000000085 0.4706999999999937,0.09140000000000015 0.46519999999999584,0.091700000000003 0.4667999999999992,0.09580000000000055 0.46409999999999485,0.09860000000000113 0.45929999999999893,0.09609999999999985 0.46409999999999485,0.10110000000000241 0.465999999999994,0.10050000000000026 0.46649999999999636,0.102800000000002 0.46819999999999595,0.102800000000002 0.4653999999999954,0.10330000000000084 0.46519999999999584,0.10500000000000043 0.4673999999999978,0.11190000000000211 0.4695999999999998,0.1130000000000031 0.4673999999999978,0.11720000000000041 0.46649999999999636,0.11550000000000082 0.4653999999999954,0.11920000000000286 0.46929999999999694,0.1247000000000007 0.4695999999999998,0.1311 0.4767999999999972,0.14080000000000226 0.4823999999999984,0.14420000000000144 0.4837999999999951,0.14800000000000324 0.4853999999999985,0.14780000000000015 0.4878999999999962,0.15050000000000097 0.48989999999999867,0.15610000000000213 0.4934999999999974,0.15780000000000172 0.4923999999999964,0.16000000000000014 0.4939999999999998,0.16000000000000014 0.4948999999999941,0.16220000000000212 0.4987999999999957,0.1639000000000017 0.506299999999996,0.1639000000000017 0.508499999999998,0.160300000000003 0.5112999999999985,0.16190000000000282 0.5101999999999975,0.166400000000003 0.5117999999999938,0.166400000000003 0.5128999999999948,0.16890000000000072 0.5187999999999988,0.1700000000000017 0.5192999999999941,0.17220000000000013 0.5220999999999947,0.17250000000000298 0.5227000000000004,0.1750000000000007 0.5259999999999962,0.1769000000000034 0.5251999999999981,0.17280000000000229 "></polygon><polygon points="0.495199999999997,0.12360000000000326 0.4948999999999941,0.12160000000000082 0.4928999999999988,0.12280000000000157 0.4934999999999974,0.1244000000000014 0.495199999999997,0.12360000000000326 "></polygon><polygon points="0.4945999999999984,0.1994000000000007 0.4981999999999971,0.19410000000000238 0.4976999999999947,0.19080000000000297 0.49099999999999966,0.18970000000000198 0.4859999999999971,0.19080000000000297 0.48460000000000036,0.19390000000000285 0.4853999999999985,0.19550000000000267 0.49159999999999826,0.19830000000000325 0.4928999999999988,0.20050000000000168 0.4945999999999984,0.1994000000000007 "></polygon><polygon points="0.5242999999999967,0.13580000000000325 0.5228999999999999,0.13530000000000086 0.5220999999999947,0.1355000000000004 0.5245999999999995,0.1369000000000007 0.5242999999999967,0.13580000000000325 "></polygon><polygon points="0.5265999999999948,0.14250000000000185 0.5234999999999985,0.14190000000000325 0.5228999999999999,0.14300000000000068 0.5270999999999972,0.14280000000000115 0.5265999999999948,0.14250000000000185 "></polygon><polygon points="0.5182000000000002,0.17190000000000083 0.5176999999999978,0.170300000000001 0.5152000000000001,0.1708000000000034 0.5170999999999992,0.17280000000000229 0.5182000000000002,0.17190000000000083 "></polygon><polygon points="0.5498999999999938,0.1822000000000017 0.5488,0.1814 0.5471000000000004,0.1819000000000024 0.5481999999999942,0.18390000000000128 0.5498999999999938,0.1822000000000017 "></polygon><polygon points="0.5128999999999948,0.19830000000000325 0.5170999999999992,0.19690000000000296 0.5176999999999978,0.1930000000000014 0.5156999999999954,0.19080000000000297 0.5067999999999984,0.188600000000001 0.5056999999999974,0.1869000000000014 0.5028999999999968,0.1872000000000007 0.5026999999999973,0.19110000000000227 0.4987999999999957,0.1936 0.4992999999999981,0.19640000000000057 0.5031999999999996,0.1980000000000004 0.505199999999995,0.1980000000000004 0.5053999999999945,0.19640000000000057 0.5098999999999947,0.19720000000000226 0.5095999999999989,0.19860000000000255 0.5128999999999948,0.19830000000000325 "></polygon><polygon points="0.35649999999999693,0.5869 0.3581999999999965,0.5872000000000028 0.359099999999998,0.5838999999999999 0.3631999999999991,0.5855000000000032 0.3626999999999967,0.5869 0.36880000000000024,0.5897000000000006 0.36880000000000024,0.5955000000000013 0.3902000000000001,0.6055000000000028 0.39039999999999964,0.6094000000000008 0.39459999999999695,0.6044000000000018 0.391299999999994,0.6058000000000021 0.3885000000000005,0.6019000000000005 0.38569999999999993,0.6011000000000024 0.3873999999999995,0.5989000000000004 0.3970999999999947,0.6036000000000001 0.39929999999999666,0.6011000000000024 0.39739999999999753,0.5997000000000021 0.4017999999999944,0.5980000000000025 0.38459999999999894,0.5960999999999999 0.37819999999999965,0.5972000000000008 0.37069999999999936,0.5939000000000014 0.37519999999999953,0.5855000000000032 0.36710000000000065,0.5817000000000014 0.3651999999999944,0.581900000000001 0.3637999999999977,0.5850000000000009 0.3581999999999965,0.5822000000000003 0.35429999999999495,0.5825000000000031 0.3551999999999964,0.5772000000000013 0.3587999999999951,0.5747 0.3567999999999998,0.5733000000000033 0.35599999999999454,0.5691000000000024 0.3598999999999961,0.5680000000000014 0.3645999999999958,0.557500000000001 0.3634999999999948,0.5561000000000007 0.3609999999999971,0.5564 0.36129999999999995,0.5541000000000018 0.3628999999999962,0.5544000000000011 0.3615999999999957,0.551400000000001 0.3587999999999951,0.5528000000000013 0.3587999999999951,0.5550000000000033 0.3562999999999974,0.5547000000000004 0.3562999999999974,0.5578000000000003 0.35490000000000066,0.5580000000000034 0.3481999999999985,0.5736000000000026 0.3462999999999994,0.5755000000000017 0.3445999999999998,0.5747 0.34539999999999793,0.5764000000000031 0.34270000000000067,0.583000000000002 0.34129999999999683,0.5844000000000023 0.3387999999999991,0.583000000000002 0.34599999999999653,0.5680000000000014 0.3523999999999958,0.5608000000000004 0.3545999999999978,0.5550000000000033 0.3451999999999984,0.5478000000000023 0.34599999999999653,0.5447000000000024 0.34319999999999595,0.5442 0.34429999999999694,0.539200000000001 0.3462999999999994,0.539200000000001 0.34489999999999554,0.5358000000000018 0.34849999999999426,0.5344000000000015 0.34319999999999595,0.529200000000003 0.34489999999999554,0.5233000000000025 0.34379999999999455,0.5211000000000006 0.3476999999999961,0.5200000000000031 0.3487999999999971,0.5150000000000006 0.35069999999999624,0.5147000000000013 0.34959999999999525,0.5128000000000021 0.34429999999999694,0.5111000000000026 0.34539999999999793,0.497200000000003 0.34379999999999455,0.4955000000000034 0.34599999999999653,0.4872000000000014 0.35069999999999624,0.4878 0.3526999999999987,0.48440000000000083 0.3551999999999964,0.4853000000000023 0.35649999999999693,0.4842000000000013 0.3573999999999984,0.4817 0.3551999999999964,0.47690000000000055 0.3528999999999982,0.47800000000000153 0.3521000000000001,0.4747000000000021 0.35019999999999385,0.4753000000000007 0.3515999999999977,0.47390000000000043 0.34959999999999525,0.4616000000000007 0.3509999999999991,0.45670000000000144 0.35019999999999385,0.45390000000000086 0.3456999999999937,0.45250000000000057 0.34429999999999694,0.4372000000000007 0.33959999999999724,0.41610000000000014 0.34379999999999455,0.414200000000001 0.33849999999999625,0.41300000000000026 0.3392999999999944,0.40330000000000155 0.33739999999999526,0.40080000000000027 0.340999999999994,0.3967000000000027 0.33849999999999625,0.3950000000000031 0.3399000000000001,0.38920000000000243 0.33679999999999666,0.38640000000000185 0.33679999999999666,0.3805000000000014 0.33909999999999485,0.3778000000000006 0.33739999999999526,0.376100000000001 0.33569999999999567,0.3653000000000013 0.3317999999999941,0.3572000000000024 0.33569999999999567,0.35360000000000014 0.3353999999999999,0.34860000000000113 0.33379999999999654,0.34800000000000253 0.33379999999999654,0.3366000000000007 0.33269999999999555,0.34190000000000254 0.329899999999995,0.33940000000000126 0.3328999999999951,0.33470000000000155 0.33019999999999783,0.32280000000000086 0.33159999999999457,0.3119000000000014 0.32849999999999824,0.3033000000000001 0.3328999999999951,0.2939000000000007 0.3260000000000005,0.28800000000000026 0.31989999999999696,0.27690000000000126 0.31400000000000006,0.27390000000000114 0.31400000000000006,0.27080000000000126 0.30879999999999797,0.26920000000000144 0.2962999999999951,0.2566000000000024 0.2920999999999978,0.24860000000000326 0.2926999999999964,0.2430000000000021 0.2920999999999978,0.24170000000000158 0.28020000000000067,0.263300000000001 0.27659999999999485,0.279200000000003 0.27659999999999485,0.28940000000000055 0.27319999999999567,0.297500000000003 0.24789999999999424,0.33580000000000254 0.24629999999999797,0.3433000000000028 0.2417999999999978,0.34830000000000183 0.24269999999999925,0.34609999999999985 0.24099999999999966,0.34580000000000055 0.24459999999999837,0.3389000000000024 0.24399999999999977,0.33780000000000143 0.22629999999999484,0.35800000000000054 0.2190999999999974,0.36410000000000053 0.21770000000000067,0.3672000000000004 0.1967999999999961,0.3778000000000006 0.18269999999999698,0.39890000000000114 0.18099999999999739,0.40530000000000044 0.18179999999999552,0.4133000000000031 0.1798999999999964,0.42190000000000083 0.1781999999999968,0.4236000000000004 0.18130000000000024,0.4233000000000011 0.18489999999999895,0.4328000000000003 0.19709999999999894,0.4464000000000006 0.19789999999999708,0.4616000000000007 0.1967999999999961,0.46300000000000097 0.19879999999999853,0.46440000000000126 0.19769999999999754,0.46580000000000155 0.20019999999999527,0.46580000000000155 0.20179999999999865,0.46799999999999997 0.20319999999999538,0.47360000000000113 0.21039999999999992,0.48440000000000083 0.21039999999999992,0.4883000000000024 0.2067999999999941,0.4922000000000004 0.2084999999999937,0.5017000000000031 0.20539999999999736,0.5053000000000019 0.20599999999999596,0.5167000000000002 0.20319999999999538,0.5178000000000011 0.2073999999999998,0.5189000000000021 0.20709999999999695,0.5228000000000002 0.20539999999999736,0.5247000000000028 0.20349999999999824,0.5244 0.20489999999999498,0.525500000000001 0.20349999999999824,0.5264000000000024 0.20519999999999783,0.5267000000000017 0.20349999999999824,0.5408000000000008 0.20069999999999766,0.5425000000000004 0.2010000000000005,0.5439000000000007 0.19909999999999428,0.5439000000000007 0.2010000000000005,0.5450000000000017 0.19989999999999952,0.5469000000000008 0.1973999999999947,0.5458000000000034 0.1962999999999937,0.5472000000000001 0.19709999999999894,0.5494000000000021 0.19489999999999696,0.5497000000000014 0.19599999999999795,0.551400000000001 0.19350000000000023,0.5505000000000031 0.191599999999994,0.5519000000000034 0.19180000000000064,0.5569000000000024 0.18900000000000006,0.5567000000000029 0.1892999999999958,0.5594000000000001 0.19069999999999965,0.5589000000000013 0.191599999999994,0.5608000000000004 0.18849999999999767,0.5614000000000026 0.18379999999999797,0.569700000000001 0.18239999999999412,0.5730000000000004 0.18379999999999797,0.575800000000001 0.1792999999999978,0.5772000000000013 0.1792999999999978,0.5797000000000025 0.1745999999999981,0.5777999999999999 0.1723999999999961,0.5789000000000009 0.17210000000000036,0.5817000000000014 0.17849999999999966,0.5836000000000006 0.1751999999999967,0.5994000000000028 0.1723999999999961,0.6050000000000004 0.1728999999999985,0.6103000000000023 0.17599999999999483,0.6130000000000031 0.17210000000000036,0.6141000000000005 0.1453999999999951,0.6103000000000023 0.1459999999999937,0.6047000000000011 0.14209999999999923,0.5878000000000014 0.1442999999999941,0.5844000000000023 0.14269999999999783,0.5833000000000013 0.14379999999999882,0.5789000000000009 0.14569999999999794,0.5792000000000002 0.14569999999999794,0.576900000000002 0.14819999999999567,0.576900000000002 0.1495999999999995,0.5744000000000007 0.1477000000000004,0.5711000000000013 0.14789999999999992,0.5633000000000017 0.13709999999999667,0.5669000000000004 0.13679999999999382,0.5644000000000027 0.13539999999999708,0.5642000000000031 0.13569999999999993,0.5672000000000033 0.1267999999999958,0.565800000000003 0.12489999999999668,0.5639000000000003 0.1156999999999968,0.564700000000002 0.10989999999999611,0.5669000000000004 0.11129999999999995,0.5753000000000021 0.10739999999999839,0.5767000000000024 0.10849999999999937,0.5842000000000027 0.10409999999999542,0.5872000000000028 0.10319999999999396,0.5986000000000011 0.10599999999999454,0.6025000000000027 0.10789999999999367,0.6122000000000014 0.11069999999999425,0.6122000000000014 0.10929999999999751,0.6075000000000017 0.1109999999999971,0.6067 0.11319999999999908,0.6094000000000008 0.11539999999999395,0.6094000000000008 0.11599999999999966,0.6117000000000026 0.11929999999999552,0.610000000000003 0.11899999999999977,0.6128 0.12159999999999371,0.6136000000000017 0.10929999999999751,0.620000000000001 0.09789999999999566,0.6230000000000011 0.05930000000000035,0.625 0.05569999999999453,0.6230000000000011 0.05269999999999442,0.6233000000000004 0.052099999999995816,0.625 0.0490999999999957,0.6258000000000017 0.049399999999998556,0.6292000000000009 0.050399999999996226,0.6280000000000001 0.05739999999999412,0.6289000000000016 0.0595999999999961,0.6258000000000017 0.10159999999999769,0.6236000000000033 0.10960000000000036,0.621100000000002 0.11959999999999837,0.6153000000000013 0.129099999999994,0.6130000000000031 0.13179999999999836,0.6214000000000013 0.13100000000000023,0.633300000000002 0.12959999999999638,0.6350000000000016 0.12819999999999965,0.6339000000000006 0.1284999999999954,0.6355000000000004 0.12489999999999668,0.6353000000000009 0.12349999999999994,0.6378000000000021 0.12379999999999569,0.639400000000002 0.12769999999999726,0.6392000000000024 0.13349999999999795,0.6367000000000012 0.13709999999999667,0.6372 0.13659999999999428,0.6350000000000016 0.13819999999999766,0.634400000000003 0.13769999999999527,0.6330000000000027 0.13459999999999894,0.634400000000003 0.13179999999999836,0.6319000000000017 0.13269999999999982,0.6225000000000023 0.13179999999999836,0.615000000000002 0.1442999999999941,0.6158000000000001 0.1453999999999951,0.6111000000000004 0.16629999999999967,0.6141000000000005 0.1623999999999981,0.6147000000000027 0.16319999999999624,0.6158000000000001 0.17210000000000036,0.6147000000000027 0.1798999999999964,0.6255000000000024 0.18039999999999878,0.6303000000000019 0.17849999999999966,0.6308000000000007 0.17789999999999395,0.633300000000002 0.18069999999999453,0.6414000000000009 0.1781999999999968,0.6467000000000027 0.17489999999999384,0.645500000000002 0.17039999999999367,0.6547000000000018 0.17379999999999995,0.6536000000000008 0.17129999999999512,0.6580000000000013 0.17269999999999897,0.6611000000000011 0.17569999999999908,0.6608000000000018 0.17489999999999384,0.6630000000000003 0.18099999999999739,0.6630000000000003 0.17960000000000065,0.665300000000002 0.1828999999999965,0.6650000000000027 0.1862999999999957,0.6672000000000011 0.18539999999999424,0.6708000000000034 0.18709999999999383,0.6711000000000027 0.18679999999999808,0.6739000000000033 0.1892999999999958,0.6719000000000008 0.19379999999999598,0.6742000000000026 0.19409999999999883,0.676400000000001 0.19599999999999795,0.6772000000000027 0.19650000000000034,0.6755000000000031 0.20179999999999865,0.6772000000000027 0.20659999999999457,0.6772000000000027 0.20819999999999794,0.6758000000000024 0.2102000000000004,0.6783000000000001 0.23039999999999594,0.6797000000000004 0.23989999999999867,0.6778000000000013 0.2406999999999968,0.6789000000000023 0.24789999999999424,0.678600000000003 0.24739999999999895,0.6758000000000024 0.24459999999999837,0.6750000000000007 0.2481999999999971,0.6747000000000014 0.24909999999999854,0.678600000000003 0.255199999999995,0.677500000000002 0.25739999999999696,0.678600000000003 0.2581999999999951,0.6758000000000024 0.25959999999999894,0.6778000000000013 0.25959999999999894,0.6742000000000026 0.26129999999999853,0.6728000000000023 0.2592999999999961,0.6717000000000013 0.26429999999999865,0.671400000000002 0.26489999999999725,0.6686000000000014 0.267399999999995,0.6683000000000021 0.266299999999994,0.6697000000000024 0.26899999999999835,0.6694000000000031 0.27019999999999555,0.6722000000000001 0.2728999999999999,0.6728000000000023 0.2781999999999982,0.6700000000000017 0.27709999999999724,0.6672000000000011 0.28020000000000067,0.6694000000000031 0.27899999999999636,0.6680000000000028 0.28129999999999455,0.6672000000000011 0.28409999999999513,0.6683000000000021 0.28409999999999513,0.6733000000000011 0.2884999999999991,0.6739000000000033 0.2909999999999968,0.6758000000000024 0.2901999999999987,0.6772000000000027 0.29459999999999553,0.677500000000002 0.2959999999999994,0.6817000000000029 0.29929999999999524,0.6789000000000023 0.30349999999999966,0.6839000000000013 0.31349999999999767,0.6875 0.3206999999999951,0.7005000000000017 0.31680000000000064,0.688600000000001 0.31739999999999924,0.6867000000000019 0.32459999999999667,0.684700000000003 0.32629999999999626,0.6803000000000026 0.3248999999999995,0.6778000000000013 0.3265999999999991,0.6708000000000034 0.32459999999999667,0.6697000000000024 0.3228999999999971,0.6639000000000017 0.32379999999999853,0.6628000000000007 0.33039999999999736,0.6639000000000017 0.3307000000000002,0.6622000000000021 0.33099999999999596,0.6644000000000005 0.3345999999999947,0.6636000000000024 0.3365999999999971,0.6585999999999999 0.33789999999999765,0.6628000000000007 0.340999999999994,0.6630000000000003 0.33959999999999724,0.6605000000000025 0.3406999999999982,0.6580000000000013 0.34319999999999595,0.6594000000000015 0.3476999999999961,0.6585999999999999 0.3487999999999971,0.6514000000000024 0.340999999999994,0.6442000000000014 0.3476999999999961,0.639400000000002 0.33959999999999724,0.6419000000000032 0.33849999999999625,0.6436000000000028 0.3359999999999985,0.6417000000000002 0.33209999999999695,0.6433 0.33159999999999457,0.6411000000000016 0.33429999999999893,0.6408000000000023 0.3339999999999961,0.6392000000000024 0.32519999999999527,0.6400000000000006 0.31989999999999696,0.6367000000000012 0.3153999999999968,0.6386000000000003 0.31519999999999726,0.6414000000000009 0.3117999999999981,0.6414000000000009 0.3123999999999967,0.6453000000000024 0.3073999999999941,0.6458000000000013 0.3048999999999964,0.6480000000000032 0.3037999999999954,0.6463999999999999 0.3020999999999958,0.6472000000000016 0.2990999999999957,0.6447000000000003 0.2959999999999994,0.644400000000001 0.2948999999999984,0.6425000000000018 0.2873999999999981,0.6439000000000021 0.28709999999999525,0.6411000000000016 0.2901999999999987,0.6402999999999999 0.2867999999999995,0.6389000000000031 0.2901999999999987,0.6392000000000024 0.29069999999999396,0.6358000000000033 0.2890999999999977,0.634400000000003 0.28819999999999624,0.6364000000000019 0.28709999999999525,0.6364000000000019 0.2873999999999981,0.6336000000000013 0.2890999999999977,0.6330000000000027 0.2879000000000005,0.6316000000000024 0.2915999999999954,0.6303000000000019 0.2892999999999972,0.6280000000000001 0.29069999999999396,0.625 0.29240000000000066,0.6247000000000007 0.2920999999999978,0.6216000000000008 0.296599999999998,0.6194000000000024 0.29929999999999524,0.6155000000000008 0.3012999999999977,0.6155000000000008 0.3053999999999988,0.6083000000000034 0.30989999999999895,0.607800000000001 0.31099999999999994,0.6055000000000028 0.3170999999999964,0.6022000000000034 0.3195999999999941,0.5992000000000033 0.3206999999999951,0.5942000000000007 0.3236999999999952,0.5928000000000004 0.32319999999999993,0.5908000000000015 0.33379999999999654,0.5922000000000018 0.3365999999999971,0.5914000000000001 0.33849999999999625,0.5883000000000003 0.3406999999999982,0.5889000000000024 0.34149999999999636,0.5869 0.34489999999999554,0.5875000000000021 0.3423999999999978,0.588000000000001 0.340999999999994,0.591700000000003 0.33489999999999753,0.5944000000000003 0.3334999999999937,0.5969000000000015 0.3295999999999992,0.5980000000000025 0.33039999999999736,0.6030000000000015 0.32849999999999824,0.6033000000000008 0.32739999999999725,0.6086000000000027 0.32519999999999527,0.6111000000000004 0.32789999999999964,0.6136000000000017 0.3234999999999957,0.6172000000000004 0.3353999999999999,0.6294000000000004 0.33909999999999485,0.6308000000000007 0.35019999999999385,0.6300000000000026 0.3498999999999981,0.6275000000000013 0.35129999999999484,0.6264000000000003 0.34659999999999513,0.6205000000000034 0.34899999999999665,0.6203000000000003 0.3504000000000005,0.6153000000000013 0.3534999999999968,0.6125000000000007 0.35379999999999967,0.6075000000000017 0.3528999999999982,0.6086000000000027 0.3515999999999977,0.6086000000000027 0.3523999999999958,0.6050000000000004 0.34899999999999665,0.6033000000000008 0.3521000000000001,0.5886000000000031 0.35429999999999495,0.5866000000000007 0.35649999999999693,0.5869 "></polygon><polygon points="0.3902000000000001,0.6722000000000001 0.392399999999995,0.6711000000000027 0.391299999999994,0.6694000000000031 0.4099000000000004,0.6689000000000007 0.4099000000000004,0.6589000000000027 0.40399999999999636,0.6583000000000006 0.40379999999999683,0.6475000000000009 0.40679999999999694,0.6475000000000009 0.41379999999999484,0.6361000000000026 0.4140999999999977,0.6330000000000027 0.4123999999999981,0.6330000000000027 0.4101999999999961,0.6369000000000007 0.4017999999999944,0.6328000000000031 0.40039999999999765,0.6294000000000004 0.4048999999999978,0.6242000000000019 0.3948999999999998,0.6242000000000019 0.3937999999999988,0.6275000000000013 0.39099999999999824,0.6275000000000013 0.3915000000000006,0.6289000000000016 0.3878999999999948,0.6339000000000006 0.3859999999999957,0.6458000000000013 0.3814999999999955,0.6486000000000018 0.381299999999996,0.6524999999999999 0.37599999999999767,0.6591000000000022 0.3763000000000005,0.6619000000000028 0.380199999999995,0.6611000000000011 0.380199999999995,0.6644000000000005 0.3778999999999968,0.6647000000000034 0.37769999999999726,0.6680000000000028 0.38179999999999836,0.6675000000000004 0.38519999999999754,0.6744000000000021 0.3878999999999948,0.6744000000000021 0.3902000000000001,0.6722000000000001 "></polygon><polygon points="0.35490000000000066,0.7305000000000028 0.36019999999999897,0.7305000000000028 0.3645999999999958,0.7244000000000028 0.36819999999999453,0.722800000000003 0.3837999999999937,0.7186000000000021 0.3820999999999941,0.7155000000000022 0.380199999999995,0.7158000000000015 0.3826999999999998,0.7139000000000024 0.3826999999999998,0.7105000000000032 0.3803999999999945,0.7061000000000028 0.38159999999999883,0.6994000000000007 0.379099999999994,0.6986000000000026 0.37989999999999924,0.6972000000000023 0.38179999999999836,0.6978000000000009 0.38289999999999935,0.6905000000000001 0.3865999999999943,0.6905000000000001 0.38709999999999667,0.6889000000000003 0.38289999999999935,0.6872000000000007 0.3831999999999951,0.6783000000000001 0.38519999999999754,0.678600000000003 0.3865999999999943,0.6766000000000005 0.3831999999999951,0.6772000000000027 0.3826999999999998,0.6711000000000027 0.3778999999999968,0.672500000000003 0.3806999999999974,0.676400000000001 0.37769999999999726,0.6744000000000021 0.37769999999999726,0.6769000000000034 0.37599999999999767,0.6778000000000013 0.3773999999999944,0.6803000000000026 0.3742999999999981,0.6805000000000021 0.3731999999999971,0.6828000000000003 0.3767999999999958,0.6814 0.37709999999999866,0.689700000000002 0.37539999999999907,0.689700000000002 0.37599999999999767,0.683600000000002 0.3731999999999971,0.6841000000000008 0.37289999999999424,0.6880000000000024 0.3689999999999998,0.6878000000000029 0.3689999999999998,0.6900000000000013 0.3637999999999977,0.689700000000002 0.36019999999999897,0.6872000000000007 0.36069999999999425,0.6855000000000011 0.36489999999999867,0.6878000000000029 0.3662999999999954,0.6872000000000007 0.3615999999999957,0.6839000000000013 0.3620999999999981,0.6805000000000021 0.36019999999999897,0.6800000000000033 0.3592999999999975,0.6864000000000026 0.3562999999999974,0.6867000000000019 0.3567999999999998,0.6894000000000027 0.35429999999999495,0.6889000000000003 0.3515999999999977,0.695800000000002 0.3534999999999968,0.6980000000000004 0.3517999999999972,0.6972000000000023 0.3492999999999995,0.6986000000000026 0.35019999999999385,0.7003000000000021 0.3476999999999961,0.6983000000000033 0.3462999999999994,0.6883000000000017 0.3429000000000002,0.6844000000000001 0.3370999999999995,0.6839000000000013 0.33159999999999457,0.6905000000000001 0.328799999999994,0.6917000000000009 0.328799999999994,0.708000000000002 0.32739999999999725,0.7103000000000002 0.329899999999995,0.7147000000000006 0.3281999999999954,0.7155000000000022 0.3281999999999954,0.7205000000000013 0.32569999999999766,0.7208000000000006 0.3265999999999991,0.7225000000000001 0.3352000000000004,0.7197000000000031 0.33909999999999485,0.7261000000000024 0.3403999999999954,0.7255000000000003 0.3387999999999991,0.7233000000000018 0.3406999999999982,0.7236000000000011 0.34209999999999496,0.7244000000000028 0.340999999999994,0.7264000000000017 0.34659999999999513,0.7272000000000034 0.3462999999999994,0.7300000000000004 0.35069999999999624,0.7300000000000004 0.3534999999999968,0.7317 0.35490000000000066,0.7305000000000028 "></polygon><polygon points="0.03769999999999385,0.6216000000000008 0.03960000000000008,0.620000000000001 0.034900000000000375,0.6178000000000026 0.03569999999999851,0.6225000000000023 0.03769999999999385,0.6216000000000008 "></polygon><polygon points="0.0484999999999971,0.6256000000000022 0.04819999999999425,0.6248000000000005 0.04679999999999751,0.6253000000000029 0.04739999999999611,0.6254000000000026 0.0484999999999971,0.6256000000000022 "></polygon><polygon points="0.04289999999999594,0.6266000000000034 0.04299999999999926,0.6265000000000001 0.043199999999998795,0.6264000000000003 0.04289999999999594,0.6264000000000003 0.04289999999999594,0.6266000000000034 "></polygon><polygon points="0.04159999999999542,0.6291000000000011 0.04219999999999402,0.6282000000000032 0.04229999999999734,0.6280000000000001 0.04159999999999542,0.6286000000000023 0.04159999999999542,0.6291000000000011 "></polygon><polygon points="0.041499999999999204,0.6292000000000009 0.04129999999999967,0.6292000000000009 0.04129999999999967,0.6294000000000004 0.041499999999999204,0.6292000000000009 "></polygon><polygon points="0.04099999999999682,0.6297000000000033 0.04099999999999682,0.6297000000000033 0.04119999999999635,0.6294000000000004 0.04099999999999682,0.6294000000000004 0.04099999999999682,0.6297000000000033 "></polygon><polygon points="0.04069999999999396,0.6300000000000026 0.0409000000000006,0.629800000000003 0.04099999999999682,0.6297000000000033 0.04069999999999396,0.6297000000000033 0.04069999999999396,0.6300000000000026 "></polygon><polygon points="0.03909999999999769,0.6311 0.03989999999999583,0.6309000000000005 0.04049999999999443,0.6303000000000019 0.03909999999999769,0.6308000000000007 0.03909999999999769,0.6311 "></polygon><polygon points="0.31159999999999854,0.6325000000000003 0.3106999999999971,0.6311 0.3131999999999948,0.627200000000002 0.31680000000000064,0.627200000000002 0.31680000000000064,0.6197000000000017 0.3112999999999957,0.622200000000003 0.3078999999999965,0.6192000000000029 0.3042999999999978,0.6192000000000029 0.3042999999999978,0.6244000000000014 0.30630000000000024,0.6247000000000007 0.30460000000000065,0.628300000000003 0.3090999999999937,0.6325000000000003 0.3090999999999937,0.6341999999999999 0.3120999999999938,0.6341999999999999 0.31159999999999854,0.6325000000000003 "></polygon><polygon points="0.049299999999995237,0.6293000000000006 0.04919999999999902,0.6297000000000033 0.049299999999995237,0.6297000000000033 0.049299999999995237,0.6293000000000006 "></polygon><polygon points="0.1634999999999991,0.6428000000000011 0.1640999999999977,0.6408000000000023 0.16209999999999525,0.6397000000000013 0.1606999999999985,0.6463999999999999 0.1623999999999981,0.6461000000000006 0.1634999999999991,0.6428000000000011 "></polygon><polygon points="0.044799999999995066,0.6305000000000014 0.0437999999999974,0.6308000000000007 0.04739999999999611,0.6316000000000024 0.0490999999999957,0.6300000000000026 0.044799999999995066,0.6305000000000014 "></polygon><polygon points="0.03849999999999909,0.6312000000000033 0.03899999999999437,0.6311 0.03849999999999909,0.6311 0.03849999999999909,0.6312000000000033 "></polygon><polygon points="0.03790000000000049,0.6316000000000024 0.011799999999993815,0.6447000000000003 0.0,0.6503000000000014 0.0009999999999976694,0.6511000000000031 0.04289999999999594,0.6307000000000009 0.03790000000000049,0.6316000000000024 "></polygon><polygon points="0.27899999999999636,0.6722000000000001 0.27709999999999724,0.6722000000000001 0.2778999999999954,0.6753 0.27899999999999636,0.6753 0.27899999999999636,0.6722000000000001 "></polygon><polygon points="0.26489999999999725,0.6772000000000027 0.266299999999994,0.6772000000000027 0.2667999999999964,0.6739000000000033 0.26959999999999695,0.6744000000000021 0.2698999999999998,0.6719000000000008 0.2656999999999954,0.6711000000000027 0.26379999999999626,0.6744000000000021 0.2628999999999948,0.6733000000000011 0.2603999999999971,0.6744000000000021 0.26129999999999853,0.6783000000000001 0.26489999999999725,0.6772000000000027 "></polygon><polygon points="0.2645999999999944,0.6878000000000029 0.26599999999999824,0.6864000000000026 0.2656999999999954,0.6880000000000024 0.267399999999995,0.6880000000000024 0.2670999999999992,0.6858000000000004 0.26069999999999993,0.6833000000000027 0.26069999999999993,0.6878000000000029 0.2628999999999948,0.6889000000000003 0.2645999999999944,0.6878000000000029 "></polygon>
    </svg>
    