
    <svg width="6.2652" height="2.977899999999998" xmlns="http://www.w3.org/2000/svg" xmlns:xlink="http://www.w3.org/1999/xlink" style="transform: scale(1, -1)">
        <polygon points="2.784899999999997,0.0876000000000019 2.7821999999999996,0.08979999999999677 2.7818999999999967,0.0929000000000002 2.7781999999999982,0.09409999999999741 2.7772999999999968,0.09660000000000224 2.7799999999999976,0.10119999999999862 2.7791999999999994,0.10499999999999687 2.759499999999999,0.10450000000000159 2.7505999999999986,0.09689999999999799 2.746299999999998,0.09620000000000317 2.7425999999999995,0.09660000000000224 2.743199999999998,0.09960000000000235 2.7402999999999977,0.10130000000000194 2.7302,0.10020000000000095 2.728399999999997,0.10320000000000107 2.724499999999999,0.10379999999999967 2.721799999999998,0.10779999999999745 2.717399999999998,0.10990000000000322 2.714299999999998,0.11359999999999815 2.7119999999999997,0.12160000000000082 2.7049999999999983,0.12369999999999948 2.7038999999999973,0.12660000000000338 2.6992999999999974,0.1261999999999972 2.689799999999998,0.1291000000000011 2.6819999999999986,0.1266999999999996 2.6755999999999993,0.1296000000000035 2.6690999999999967,0.1296000000000035 2.6655999999999977,0.1319999999999979 2.6420999999999992,0.13580000000000325 2.6372999999999998,0.13799999999999812 2.6298999999999992,0.13889999999999958 2.624699999999997,0.1372 2.6133999999999986,0.14419999999999789 2.608999999999998,0.14350000000000307 2.6004999999999967,0.14869999999999806 2.5947999999999993,0.1465999999999994 2.5885,0.14739999999999753 2.5863999999999976,0.15059999999999718 2.575599999999998,0.15780000000000172 2.5718999999999994,0.16279999999999717 2.5677999999999983,0.16369999999999862 2.5655,0.16870000000000118 2.5488999999999997,0.1681999999999988 2.543199999999999,0.16610000000000014 2.5337999999999994,0.15919999999999845 2.529399999999999,0.15209999999999724 2.523299999999999,0.15400000000000347 2.513499999999997,0.15149999999999864 2.5041999999999973,0.15579999999999927 2.503,0.15930000000000177 2.4819999999999993,0.15850000000000364 2.475299999999997,0.16109999999999758 2.4665,0.16080000000000183 2.4659999999999975,0.15619999999999834 2.4686999999999983,0.14529999999999887 2.463899999999999,0.14059999999999917 2.4619999999999997,0.13300000000000267 2.459199999999999,0.13060000000000116 2.4589999999999996,0.12599999999999767 2.4605999999999995,0.1238000000000028 2.458199999999998,0.11959999999999837 2.4579999999999984,0.11399999999999721 2.455099999999998,0.11119999999999663 2.445499999999999,0.11880000000000024 2.4442999999999984,0.1221000000000032 2.434199999999997,0.12389999999999901 2.4208999999999996,0.13009999999999877 2.4148999999999994,0.13530000000000086 2.4162999999999997,0.1390999999999991 2.4004999999999974,0.1430999999999969 2.399199999999997,0.14509999999999934 2.4003999999999976,0.14789999999999992 2.3959999999999972,0.15059999999999718 2.3970999999999982,0.15379999999999683 2.3898999999999972,0.15959999999999752 2.3908999999999985,0.16140000000000043 2.388499999999997,0.16749999999999687 2.3903999999999996,0.17249999999999943 2.3842999999999996,0.17840000000000344 2.379999999999999,0.17969999999999686 2.376199999999997,0.17860000000000298 2.371699999999997,0.18189999999999884 2.3634999999999984,0.1828000000000003 2.347299999999997,0.18039999999999878 2.3428999999999967,0.1850999999999985 2.335699999999999,0.18719999999999715 2.3309999999999995,0.1844999999999999 2.324099999999998,0.18599999999999994 2.3161999999999985,0.18140000000000356 2.304299999999998,0.18350000000000222 2.3005999999999993,0.18090000000000117 2.2966999999999977,0.18390000000000128 2.3012999999999977,0.18540000000000134 2.3009999999999984,0.19069999999999965 2.308699999999998,0.19420000000000215 2.303199999999997,0.19729999999999848 2.2929999999999993,0.1980000000000004 2.2855999999999987,0.19539999999999935 2.2700999999999993,0.19819999999999993 2.2607,0.19500000000000028 2.255499999999998,0.19709999999999894 2.250499999999999,0.209699999999998 2.2510999999999974,0.21620000000000061 2.253999999999998,0.21829999999999927 2.2502999999999993,0.22879999999999967 2.2330999999999968,0.2325000000000017 2.231499999999997,0.23680000000000234 2.219299999999997,0.23899999999999721 2.2211999999999996,0.24219999999999686 2.218499999999999,0.24519999999999698 2.218799999999998,0.25379999999999825 2.214199999999998,0.2580999999999989 2.2149,0.26250000000000284 2.2104,0.26500000000000057 2.2149,0.2693000000000012 2.217399999999998,0.2745999999999995 2.2169999999999987,0.27879999999999683 2.2109999999999985,0.28529999999999944 2.2135999999999996,0.28699999999999903 2.212699999999998,0.28990000000000293 2.2093999999999987,0.29169999999999874 2.2034999999999982,0.2997999999999976 2.2075999999999993,0.3055999999999983 2.2119,0.307699999999997 2.2114999999999974,0.310299999999998 2.202499999999997,0.3171000000000035 2.194099999999999,0.3149000000000015 2.1930999999999976,0.3160999999999987 2.1953999999999994,0.323599999999999 2.189899999999998,0.3254000000000019 2.1901999999999973,0.32800000000000296 2.1799,0.3318000000000012 2.1754,0.33039999999999736 2.164399999999997,0.3211000000000013 2.1530999999999985,0.3222999999999985 2.1479999999999997,0.3171000000000035 2.144099999999998,0.3205999999999989 2.1373999999999995,0.3207000000000022 2.1366999999999976,0.3177000000000021 2.130499999999998,0.3166000000000011 2.1265,0.3141000000000034 2.1263999999999967,0.31159999999999854 2.1226999999999983,0.3089000000000013 2.118199999999998,0.30870000000000175 2.115699999999997,0.30530000000000257 2.110199999999999,0.30349999999999966 2.1068999999999996,0.29930000000000234 2.1080999999999968,0.2967000000000013 2.1069999999999993,0.290300000000002 2.1035999999999966,0.2897000000000034 2.0991,0.2856000000000023 2.095399999999998,0.284399999999998 2.091199999999997,0.2849000000000004 2.084699999999998,0.2909999999999968 2.0773999999999972,0.28829999999999956 2.0702999999999996,0.29129999999999967 2.060299999999998,0.2909999999999968 2.0564,0.29350000000000165 2.0562999999999967,0.2991000000000028 2.0519,0.301400000000001 2.047699999999999,0.2995999999999981 2.0413999999999994,0.30040000000000333 2.037399999999998,0.29690000000000083 2.0300999999999974,0.29769999999999897 2.023699999999998,0.2931000000000026 2.017999999999997,0.2862999999999971 2.0138,0.28580000000000183 2.0142999999999986,0.28249999999999886 2.0122999999999998,0.28359999999999985 2.011499999999998,0.28659999999999997 2.003399999999999,0.2896000000000001 1.9975999999999985,0.28880000000000194 1.997799999999998,0.28759999999999764 1.9843999999999973,0.290300000000002 1.9773999999999994,0.2849000000000004 1.9737999999999971,0.2856000000000023 1.9649,0.283299999999997 1.9608999999999988,0.27900000000000347 1.9536999999999978,0.2785999999999973 1.9512999999999998,0.2764000000000024 1.9479999999999968,0.27879999999999683 1.947499999999998,0.2820999999999998 1.9452999999999996,0.28359999999999985 1.9467999999999996,0.2879999999999967 1.9421999999999997,0.28889999999999816 1.942899999999998,0.29189999999999827 1.9455999999999989,0.2931000000000026 1.9497,0.3006999999999991 1.9451999999999998,0.3033000000000001 1.9438999999999993,0.30740000000000123 1.9342999999999968,0.31389999999999674 1.9196999999999989,0.3188999999999993 1.9179999999999993,0.3211000000000013 1.9225999999999992,0.32869999999999777 1.9194999999999993,0.3305999999999969 1.913999999999998,0.33030000000000115 1.9094999999999978,0.33370000000000033 1.907,0.3307000000000002 1.901799999999998,0.3305000000000007 1.9001999999999981,0.32739999999999725 1.8972999999999978,0.32809999999999917 1.8928999999999974,0.323599999999999 1.8887999999999998,0.3230000000000004 1.8879999999999981,0.31810000000000116 1.8789999999999978,0.31170000000000186 1.8718999999999966,0.31269999999999953 1.8678999999999988,0.3153000000000006 1.8630999999999993,0.3117999999999981 1.8611999999999966,0.3126000000000033 1.857099999999999,0.3096000000000032 1.8584999999999994,0.3061000000000007 1.8524999999999991,0.30400000000000205 1.849499999999999,0.3006999999999991 1.845799999999997,0.30060000000000286 1.8436999999999983,0.29579999999999984 1.8384,0.2944999999999993 1.8419999999999987,0.28719999999999857 1.8393999999999977,0.28309999999999746 1.8297999999999988,0.28020000000000067 1.8265999999999991,0.2813999999999979 1.8294999999999995,0.28580000000000183 1.8227999999999973,0.2879000000000005 1.8203999999999994,0.29120000000000346 1.815999999999999,0.29180000000000206 1.8153999999999968,0.299199999999999 1.8119999999999976,0.3006999999999991 1.8046999999999969,0.30169999999999675 1.7949999999999982,0.29769999999999897 1.7883999999999993,0.2967000000000013 1.7863999999999969,0.303600000000003 1.780899999999999,0.30449999999999733 1.7744,0.302500000000002 1.7673999999999985,0.30579999999999785 1.7616999999999976,0.3061000000000007 1.7589999999999968,0.31210000000000093 1.7556999999999974,0.31389999999999674 1.7323999999999984,0.30449999999999733 1.7313999999999972,0.3006999999999991 1.7288999999999994,0.2997000000000014 1.7267999999999972,0.28999999999999915 1.7167999999999992,0.2860999999999976 1.712299999999999,0.2805000000000035 1.7134999999999998,0.2751000000000019 1.7121999999999993,0.2715000000000032 1.718799999999998,0.2618000000000009 1.7165999999999997,0.2580999999999989 1.7155999999999985,0.2513000000000005 1.7127999999999979,0.2494999999999976 1.7126999999999981,0.24739999999999895 1.7199999999999989,0.2441000000000031 1.7228999999999992,0.23029999999999973 1.7215999999999987,0.22740000000000293 1.7173999999999978,0.22749999999999915 1.7051999999999978,0.22350000000000136 1.695999999999998,0.21529999999999916 1.6870999999999974,0.2143999999999977 1.6851999999999983,0.21950000000000358 1.676599999999997,0.21779999999999688 1.673099999999998,0.21860000000000213 1.6703999999999972,0.22229999999999706 1.6712999999999987,0.22740000000000293 1.6683999999999983,0.2295999999999978 1.6574999999999989,0.2190000000000012 1.6524,0.21629999999999683 1.6463,0.21739999999999782 1.6435999999999993,0.21459999999999724 1.6431999999999967,0.21179999999999666 1.6311,0.20689999999999742 1.6290999999999976,0.2032000000000025 1.6236999999999995,0.20109999999999673 1.6202999999999967,0.20179999999999865 1.6068999999999996,0.21159999999999712 1.5973999999999968,0.21179999999999666 1.595799999999997,0.2242999999999995 1.5874999999999986,0.2261000000000024 1.5858999999999988,0.2295999999999978 1.587299999999999,0.232999999999997 1.5718999999999994,0.24040000000000106 1.568999999999999,0.24369999999999692 1.563399999999998,0.24020000000000152 1.5625,0.23550000000000182 1.5643999999999991,0.23170000000000357 1.5623999999999967,0.22390000000000043 1.5581999999999994,0.216700000000003 1.5525999999999982,0.21589999999999776 1.5425999999999966,0.21050000000000324 1.5335999999999999,0.2137000000000029 1.521099999999997,0.20839999999999748 1.5190999999999981,0.20949999999999847 1.5096999999999987,0.2090999999999994 1.5016999999999996,0.20049999999999812 1.4954999999999998,0.2015000000000029 1.4826999999999977,0.19760000000000133 1.4742999999999995,0.1968000000000032 1.4640999999999984,0.1968999999999994 1.4604,0.19899999999999807 1.4525999999999968,0.1974000000000018 1.4391999999999996,0.18529999999999802 1.4375999999999998,0.1799000000000035 1.4304999999999986,0.17680000000000007 1.4140999999999977,0.16020000000000323 1.4079999999999977,0.16190000000000282 1.407899999999998,0.16449999999999676 1.4035999999999973,0.16669999999999874 1.3904999999999994,0.1681999999999988 1.3852999999999973,0.1711000000000027 1.343799999999998,0.16799999999999926 1.328599999999998,0.1734000000000009 1.3262,0.1717999999999975 1.3221999999999987,0.17379999999999995 1.3081999999999994,0.16400000000000148 1.298099999999998,0.16170000000000329 1.2936999999999976,0.15879999999999939 1.2918999999999983,0.1495999999999995 1.2892999999999972,0.14569999999999794 1.2802999999999969,0.14110000000000156 1.271799999999999,0.14289999999999736 1.2672999999999988,0.14119999999999777 1.2605999999999966,0.14280000000000115 1.2566999999999986,0.14159999999999684 1.2498999999999967,0.14529999999999887 1.2483999999999966,0.1448000000000036 1.235999999999997,0.15229999999999677 1.2271999999999998,0.15500000000000114 1.1962999999999973,0.15160000000000196 1.1895999999999987,0.15789999999999793 1.1846999999999994,0.1595000000000013 1.1825999999999972,0.16320000000000334 1.183399999999999,0.16740000000000066 1.1753,0.17029999999999745 1.1655999999999977,0.16960000000000264 1.1552999999999969,0.16610000000000014 1.146799999999999,0.1670999999999978 1.1305999999999976,0.16340000000000288 1.1098999999999997,0.16859999999999786 1.1042999999999985,0.16790000000000305 1.0849999999999973,0.17130000000000223 1.0653999999999968,0.16320000000000334 1.0586999999999982,0.16620000000000346 1.0474999999999994,0.16610000000000014 1.0416999999999987,0.1570999999999998 1.037899999999997,0.15760000000000218 1.0338999999999992,0.15610000000000213 1.0302999999999969,0.15409999999999968 1.0292999999999992,0.15149999999999864 1.0257999999999967,0.15039999999999765 1.0250999999999983,0.14820000000000277 1.0079999999999991,0.14379999999999882 1.0022999999999982,0.13750000000000284 0.9925999999999995,0.13159999999999883 0.976899999999997,0.16340000000000288 0.9674999999999976,0.16190000000000282 0.9640999999999984,0.1647000000000034 0.9542999999999999,0.1629999999999967 0.9490999999999978,0.16559999999999775 0.9351999999999983,0.16550000000000153 0.9299999999999997,0.16380000000000194 0.926599999999997,0.16449999999999676 0.924199999999999,0.16190000000000282 0.9224999999999994,0.16219999999999857 0.9210999999999991,0.15990000000000038 0.9186999999999976,0.15990000000000038 0.9147999999999996,0.15630000000000166 0.9096999999999973,0.15460000000000207 0.9092999999999982,0.15160000000000196 0.9040999999999997,0.14929999999999666 0.9033999999999978,0.14739999999999753 0.889999999999997,0.14580000000000126 0.8877999999999986,0.14209999999999923 0.878899999999998,0.14159999999999684 0.8793999999999969,0.13700000000000045 0.8736999999999995,0.1332000000000022 0.8725999999999985,0.1191999999999993 0.8741999999999983,0.11659999999999826 0.8676999999999992,0.1069000000000031 0.8676999999999992,0.10229999999999961 0.8572999999999986,0.09550000000000125 0.8496999999999986,0.09340000000000259 0.8409999999999975,0.08800000000000097 0.8310999999999993,0.0882000000000005 0.8226999999999975,0.08429999999999893 0.8160999999999987,0.08679999999999666 0.803099999999997,0.08789999999999765 0.7881999999999998,0.08550000000000324 0.7586999999999975,0.08610000000000184 0.7492999999999981,0.08259999999999934 0.7406999999999968,0.0829000000000022 0.7159999999999975,0.08619999999999806 0.6940999999999988,0.09450000000000358 0.6698999999999984,0.09949999999999903 0.6625999999999976,0.09590000000000032 0.6561999999999983,0.09570000000000078 0.6372,0.09720000000000084 0.6229999999999976,0.10119999999999862 0.615599999999997,0.09850000000000136 0.5997999999999983,0.0998999999999981 0.5917999999999992,0.10210000000000008 0.588199999999997,0.11430000000000007 0.5897999999999968,0.11590000000000344 0.6013999999999982,0.11619999999999919 0.6030999999999977,0.11869999999999692 0.6016999999999975,0.12660000000000338 0.5955999999999975,0.13920000000000243 0.5955999999999975,0.14690000000000225 0.5973999999999968,0.1518999999999977 0.5893999999999977,0.16159999999999997 0.5893999999999977,0.16389999999999816 0.5821999999999967,0.1670999999999978 0.581199999999999,0.17390000000000327 0.5902999999999992,0.18540000000000134 0.5963999999999992,0.1858000000000004 0.603399999999997,0.19599999999999795 0.6082000000000001,0.2002999999999986 0.6087999999999987,0.2032000000000025 0.604099999999999,0.20940000000000225 0.5939999999999976,0.21690000000000254 0.5923999999999978,0.22100000000000364 0.5960999999999999,0.22970000000000113 0.589699999999997,0.2319000000000031 0.5888999999999989,0.24549999999999983 0.5859999999999985,0.2488000000000028 0.5903999999999989,0.25509999999999877 0.5992999999999995,0.26030000000000086 0.6012999999999984,0.273299999999999 0.5925999999999974,0.2802999999999969 0.5877999999999979,0.28990000000000293 0.5895999999999972,0.2978999999999985 0.6001999999999974,0.29999999999999716 0.5991999999999997,0.3108000000000004 0.6032999999999973,0.3166999999999973 0.6027999999999984,0.3201999999999998 0.5991999999999997,0.3213000000000008 0.5966999999999985,0.3248999999999995 0.5951999999999984,0.3322000000000003 0.5962999999999994,0.33429999999999893 0.5914999999999999,0.3380999999999972 0.590799999999998,0.3410000000000011 0.5832999999999977,0.34129999999999683 0.5810999999999993,0.34539999999999793 0.5798999999999985,0.35479999999999734 0.5823,0.3592999999999975 0.5814999999999984,0.36599999999999966 0.5836999999999968,0.3686000000000007 0.5848999999999975,0.37519999999999953 0.5828999999999986,0.3783999999999992 0.5833999999999975,0.3836000000000013 0.5788999999999973,0.3885000000000005 0.5815999999999981,0.392000000000003 0.5821999999999967,0.3978999999999999 0.5884,0.4005999999999972 0.5899999999999999,0.4042999999999992 0.590799999999998,0.40330000000000155 0.597299999999997,0.40520000000000067 0.6136999999999979,0.4055000000000035 0.6143000000000001,0.41029999999999944 0.6119999999999983,0.41199999999999903 0.611699999999999,0.4147000000000034 0.6152999999999977,0.41610000000000014 0.6176999999999992,0.42130000000000223 0.6198999999999977,0.42199999999999704 0.6196999999999981,0.424199999999999 0.6237999999999992,0.4316000000000031 0.6335999999999977,0.44069999999999965 0.6368999999999971,0.44129999999999825 0.6376999999999988,0.44480000000000075 0.6509999999999998,0.46300000000000097 0.6551999999999971,0.46300000000000097 0.6574999999999989,0.46750000000000114 0.6622999999999983,0.4703000000000017 0.659399999999998,0.4778999999999982 0.6618999999999993,0.48340000000000316 0.6594999999999978,0.4866000000000028 0.6594999999999978,0.4902000000000015 0.6529999999999987,0.4986999999999995 0.6501999999999981,0.5075000000000003 0.6446999999999967,0.5091999999999999 0.6450999999999993,0.5161000000000016 0.6403999999999996,0.5202000000000027 0.6376999999999988,0.5270999999999972 0.6295999999999999,0.527000000000001 0.6250999999999998,0.5225999999999971 0.6218999999999966,0.526600000000002 0.6181999999999981,0.5219000000000023 0.6130999999999993,0.5213000000000036 0.6120999999999981,0.5183000000000035 0.6063999999999972,0.5208000000000013 0.6047999999999973,0.5234000000000023 0.6067999999999998,0.5268000000000015 0.6019999999999968,0.5396000000000001 0.599499999999999,0.5392999999999972 0.5941999999999972,0.5437000000000012 0.5903999999999989,0.5514999999999972 0.5847999999999978,0.5548000000000002 0.5812999999999988,0.5630000000000024 0.5768999999999984,0.5666000000000011 0.5753999999999984,0.5825999999999993 0.5676999999999985,0.5945999999999998 0.5683999999999969,0.5996999999999986 0.5629999999999988,0.6022999999999996 0.5611999999999995,0.6082999999999998 0.5574999999999974,0.6122999999999976 0.5579999999999998,0.6152999999999977 0.5445999999999991,0.6289000000000016 0.5391999999999975,0.6296999999999997 0.5364999999999966,0.627600000000001 0.5314999999999976,0.628700000000002 0.5280999999999985,0.6396000000000015 0.5303999999999967,0.6437000000000026 0.5262999999999991,0.6469000000000023 0.5257999999999967,0.6503999999999976 0.5280999999999985,0.6555000000000035 0.5226999999999968,0.661999999999999 0.5228999999999999,0.6668999999999983 0.5201999999999991,0.6713000000000022 0.5122999999999998,0.6734999999999971 0.5089999999999968,0.6773000000000025 0.5071999999999974,0.6843999999999966 0.5031999999999996,0.6878999999999991 0.5070999999999977,0.6944000000000017 0.5035999999999987,0.6965000000000003 0.5053999999999981,0.6993000000000009 0.5026999999999973,0.7064000000000021 0.5064999999999991,0.7267999999999972 0.5025999999999975,0.7293000000000021 0.5033999999999992,0.7409000000000034 0.5020999999999987,0.7426999999999992 0.5033999999999992,0.7477000000000018 0.4881999999999991,0.7545000000000002 0.4945999999999984,0.7620999999999967 0.49569999999999936,0.7665000000000006 0.49409999999999954,0.7717000000000027 0.486699999999999,0.7713999999999999 0.4819999999999993,0.7745999999999995 0.4717999999999982,0.7702000000000027 0.45649999999999835,0.7715999999999994 0.44709999999999894,0.7781999999999982 0.4317999999999991,0.7967000000000013 0.4300999999999995,0.7916000000000025 0.4258999999999986,0.7881 0.41449999999999676,0.7867999999999995 0.39899999999999736,0.7929999999999993 0.389999999999997,0.7942000000000036 0.38709999999999667,0.7967999999999975 0.3769999999999989,0.7954000000000008 0.36999999999999744,0.7989000000000033 0.36559999999999704,0.8055999999999983 0.36529999999999774,0.8087000000000018 0.3619999999999983,0.809199999999997 0.3556999999999988,0.8141000000000034 0.3567999999999998,0.8201000000000036 0.3523999999999994,0.8177000000000021 0.3356999999999992,0.8145000000000024 0.31359999999999744,0.8158999999999992 0.3066999999999993,0.8218999999999994 0.30180000000000007,0.8222000000000023 0.28729999999999833,0.8288999999999973 0.28719999999999857,0.8323000000000036 0.28389999999999915,0.8329999999999984 0.2807999999999993,0.8369 0.2713000000000001,0.841700000000003 0.267199999999999,0.8460000000000036 0.2542999999999971,0.8496000000000024 0.24849999999999994,0.8474999999999966 0.24259999999999948,0.8509000000000029 0.2367999999999988,0.8513000000000019 0.226899999999997,0.8633000000000024 0.220799999999997,0.8624999999999972 0.2137999999999991,0.8654999999999973 0.20169999999999888,0.872799999999998 0.1988999999999983,0.878300000000003 0.19069999999999965,0.8830999999999989 0.18529999999999802,0.8888000000000034 0.16589999999999705,0.8950000000000031 0.16169999999999973,0.9018000000000015 0.14999999999999858,0.908299999999997 0.14899999999999736,0.9108000000000018 0.15419999999999945,0.9129999999999967 0.14329999999999998,0.924199999999999 0.1418999999999997,0.9331999999999994 0.13849999999999696,0.9390000000000001 0.1380999999999979,0.9418999999999969 0.14029999999999987,0.9451000000000036 0.13789999999999836,0.9495999999999967 0.12239999999999895,0.9560999999999993 0.10739999999999839,0.9568000000000012 0.10799999999999699,0.9588999999999999 0.10559999999999903,0.965600000000002 0.09789999999999921,0.9735000000000014 0.09799999999999898,0.9767999999999972 0.09569999999999723,0.9776999999999987 0.09389999999999787,0.9838999999999984 0.08679999999999666,0.9919000000000011 0.08840000000000003,0.997399999999999 0.07789999999999964,1.0033999999999992 0.07789999999999964,1.0082000000000022 0.07429999999999737,1.0112999999999985 0.07379999999999853,1.0137 0.06419999999999959,1.0122 0.06359999999999744,1.0202000000000027 0.05999999999999872,1.0200000000000031 0.05469999999999686,1.0234000000000023 0.053199999999996805,1.027000000000001 0.045199999999997686,1.0339000000000027 0.03999999999999915,1.040700000000001 0.04229999999999734,1.0467999999999975 0.029699999999998283,1.0518 0.02869999999999706,1.0564999999999998 0.020999999999997243,1.0656000000000034 0.009599999999998943,1.0656999999999996 0.0018999999999991246,1.0701000000000036 0.007799999999999585,1.0786000000000016 0.0074999999999967315,1.0816000000000017 0.011599999999997834,1.0793000000000035 0.01839999999999975,1.0812999999999988 0.02809999999999846,1.081000000000003 0.030799999999999272,1.0833000000000013 0.04079999999999728,1.0844000000000023 0.04479999999999862,1.0904999999999987 0.04959999999999809,1.0904000000000025 0.05609999999999715,1.0874000000000024 0.06449999999999889,1.0919999999999987 0.07269999999999754,1.0812999999999988 0.08089999999999975,1.0870999999999995 0.09269999999999712,1.090200000000003 0.10259999999999891,1.1037000000000035 0.1004999999999967,1.1067999999999998 0.09949999999999903,1.121699999999997 0.10689999999999955,1.1295000000000002 0.10829999999999984,1.1351999999999975 0.11399999999999721,1.1373999999999995 0.1189,1.1413999999999973 0.12040000000000006,1.1465999999999994 0.11629999999999896,1.1537999999999968 0.12139999999999773,1.1531999999999982 0.1341000000000001,1.1561000000000021 0.1488999999999976,1.1537000000000006 0.15919999999999845,1.1555000000000035 0.16169999999999973,1.168999999999997 0.17159999999999798,1.1766000000000005 0.17329999999999757,1.1809999999999974 0.170499999999997,1.1875 0.17379999999999995,1.1929999999999978 0.17609999999999815,1.2124999999999986 0.1944999999999979,1.231499999999997 0.1875,1.238500000000002 0.1872999999999969,1.2451000000000008 0.18989999999999796,1.2505999999999986 0.1822999999999979,1.2582000000000022 0.16859999999999786,1.2650999999999968 0.15839999999999677,1.2736000000000018 0.15069999999999695,1.2760000000000034 0.1444999999999972,1.2832000000000008 0.1346999999999987,1.2890000000000015 0.12439999999999785,1.3003 0.11639999999999873,1.3036999999999992 0.10269999999999868,1.3173999999999992 0.08539999999999992,1.3252000000000024 0.07269999999999754,1.325800000000001 0.07519999999999882,1.3470999999999975 0.0840999999999994,1.3519000000000005 0.08329999999999771,1.3537999999999997 0.08619999999999806,1.3671999999999969 0.09259999999999735,1.3744000000000014 0.09479999999999933,1.3795000000000002 0.09299999999999997,1.384599999999999 0.09979999999999833,1.3843999999999994 0.10289999999999822,1.3922000000000025 0.08959999999999724,1.3995999999999995 0.095799999999997,1.4003000000000014 0.09679999999999822,1.4035999999999973 0.09469999999999956,1.4070000000000036 0.10249999999999915,1.4104000000000028 0.10879999999999868,1.4170999999999978 0.11239999999999739,1.4254999999999995 0.10699999999999932,1.4313000000000002 0.09739999999999682,1.4343000000000004 0.0951999999999984,1.4399000000000015 0.10499999999999687,1.441200000000002 0.11029999999999873,1.4455000000000027 0.10859999999999914,1.4491999999999976 0.11139999999999972,1.4528000000000034 0.11289999999999978,1.4588999999999999 0.1205999999999996,1.4632999999999967 0.12459999999999738,1.4699999999999989 0.13449999999999918,1.4705999999999975 0.13389999999999702,1.4801000000000002 0.13979999999999748,1.486699999999999 0.13870000000000005,1.490000000000002 0.13509999999999778,1.4928999999999988 0.12369999999999948,1.4977000000000018 0.11969999999999814,1.501800000000003 0.11879999999999669,1.5056000000000012 0.11319999999999908,1.5118999999999971 0.11399999999999721,1.5146000000000015 0.10739999999999839,1.5178999999999974 0.09859999999999758,1.5259 0.09869999999999735,1.5292999999999992 0.09469999999999956,1.5392999999999972 0.08899999999999864,1.542900000000003 0.08749999999999858,1.5469000000000008 0.07989999999999853,1.5508000000000024 0.0788999999999973,1.568800000000003 0.08759999999999835,1.5707999999999984 0.10549999999999926,1.5788999999999973 0.10889999999999844,1.5763000000000034 0.11469999999999914,1.5769999999999982 0.13709999999999667,1.5938000000000017 0.14849999999999852,1.595799999999997 0.16019999999999968,1.6043999999999983 0.15919999999999845,1.6122000000000014 0.1623999999999981,1.6189000000000036 0.16899999999999693,1.6259999999999977 0.17879999999999896,1.6319000000000017 0.18009999999999948,1.6315999999999988 0.1792999999999978,1.6268999999999991 0.18069999999999808,1.6244000000000014 0.1900999999999975,1.6191999999999993 0.20479999999999876,1.615000000000002 0.21509999999999962,1.6079000000000008 0.2129999999999974,1.620199999999997 0.2251999999999974,1.6366999999999976 0.23229999999999862,1.6362000000000023 0.23859999999999815,1.6394999999999982 0.24409999999999954,1.6358999999999995 0.25739999999999696,1.6407999999999987 0.261099999999999,1.6400999999999968 0.27239999999999753,1.6272999999999982 0.27609999999999957,1.6251000000000033 0.2951999999999977,1.627600000000001 0.29939999999999856,1.626800000000003 0.3125,1.6193999999999988 0.3147999999999982,1.6133999999999986 0.3188999999999993,1.6099999999999994 0.32299999999999685,1.613199999999999 0.32299999999999685,1.6176999999999992 0.33399999999999963,1.6231000000000009 0.33899999999999864,1.6319000000000017 0.3417999999999992,1.6332999999999984 0.34429999999999694,1.6334000000000017 0.35279999999999845,1.6265 0.35949999999999704,1.6310000000000002 0.37509999999999977,1.6317999999999984 0.3894999999999982,1.6379999999999981 0.3943999999999974,1.6448000000000036 0.39929999999999666,1.647599999999997 0.4039999999999999,1.6585000000000036 0.415499999999998,1.6674999999999969 0.41839999999999833,1.6745000000000019 0.41809999999999903,1.6777999999999977 0.4103999999999992,1.6903999999999968 0.4167999999999985,1.6944000000000017 0.42109999999999914,1.693399999999997 0.4239999999999995,1.694899999999997 0.42359999999999687,1.700099999999999 0.42609999999999815,1.7038999999999973 0.42639999999999745,1.7272000000000034 0.47889999999999944,1.7460999999999984 0.4826999999999977,1.755200000000002 0.49529999999999674,1.7719000000000023 0.530899999999999,1.7897999999999996 0.5318999999999967,1.8006000000000029 0.540899999999997,1.8079000000000036 0.5499999999999972,1.8327000000000027 0.5636999999999972,1.8419000000000025 0.5824999999999996,1.8462999999999994 0.5854999999999997,1.8496999999999986 0.6135999999999981,1.8669000000000011 0.6150999999999982,1.8772999999999982 0.6205999999999996,1.8836999999999975 0.625,1.8922999999999988 0.6254999999999988,1.8958000000000013 0.6233999999999966,1.9052000000000007 0.626299999999997,1.9116 0.6244999999999976,1.9174999999999969 0.6158999999999999,1.921999999999997 0.6350999999999978,1.9431999999999974 0.6350999999999978,1.9455999999999989 0.6341999999999999,1.9483000000000033 0.6250999999999998,1.9512 0.6154999999999973,1.9575000000000031 0.610199999999999,1.9575000000000031 0.6048999999999971,1.960099999999997 0.5899999999999999,1.9626999999999981 0.5707999999999984,1.9577999999999989 0.5653999999999968,1.9634 0.5596999999999994,1.9658000000000015 0.5501999999999967,1.9741 0.5389999999999979,1.9757999999999996 0.5300999999999974,1.9793999999999983 0.5268999999999977,1.9859000000000009 0.518699999999999,1.9911999999999992 0.5139999999999993,1.9983999999999966 0.5024999999999977,2.0093999999999994 0.5015000000000001,2.0223999999999975 0.4948999999999977,2.0279000000000025 0.4812999999999974,2.0305999999999997 0.4756999999999998,2.040700000000001 0.47809999999999775,2.0512000000000015 0.46389999999999887,2.0638999999999967 0.459699999999998,2.085000000000001 0.44379999999999953,2.092500000000001 0.4322999999999979,2.0944000000000003 0.4218999999999973,2.100900000000003 0.4112999999999971,2.112499999999997 0.3940999999999981,2.1214000000000013 0.39199999999999946,2.126100000000001 0.3907999999999987,2.136000000000003 0.37579999999999814,2.140900000000002 0.3683999999999976,2.146500000000003 0.3569999999999993,2.148299999999999 0.34469999999999956,2.1550999999999974 0.3251999999999988,2.1522999999999968 0.31969999999999743,2.1537000000000006 0.307699999999997,2.1522999999999968 0.30269999999999797,2.1537000000000006 0.2940999999999967,2.1614999999999966 0.2937999999999974,2.1698999999999984 0.2881,2.1781000000000006 0.2862999999999971,2.185299999999998 0.26759999999999806,2.1921999999999997 0.2593999999999994,2.186700000000002 0.2542999999999971,2.1858000000000004 0.22839999999999705,2.1925000000000026 0.22209999999999752,2.197400000000002 0.22129999999999939,2.2045999999999992 0.21839999999999904,2.2098999999999975 0.2082999999999977,2.2203000000000017 0.19579999999999842,2.2203000000000017 0.18759999999999977,2.2180999999999997 0.16859999999999786,2.2272000000000034 0.1673999999999971,2.2342999999999975 0.1600999999999999,2.241900000000001 0.15869999999999962,2.2531000000000034 0.15149999999999864,2.258499999999998 0.1485999999999983,2.2622 0.14869999999999806,2.2661000000000016 0.14129999999999754,2.2729 0.14039999999999964,2.278799999999997 0.1369999999999969,2.285499999999999 0.1383999999999972,2.296900000000001 0.1311,2.3064999999999998 0.12949999999999662,2.3108999999999966 0.1261999999999972,2.3130000000000024 0.12549999999999883,2.325400000000002 0.13319999999999865,2.3397000000000006 0.13260000000000005,2.341799999999999 0.12659999999999982,2.3455000000000013 0.12449999999999761,2.3496000000000024 0.1313999999999993,2.3596999999999966 0.12859999999999872,2.365000000000002 0.12650000000000006,2.3751000000000033 0.11959999999999837,2.3826000000000036 0.129999999999999,2.392400000000002 0.13049999999999784,2.3973999999999975 0.12859999999999872,2.4003999999999976 0.12359999999999971,2.4033999999999978 0.12269999999999825,2.4087999999999994 0.11879999999999669,2.413400000000003 0.09799999999999898,2.4168999999999983 0.08999999999999986,2.4208 0.08429999999999893,2.4243000000000023 0.078599999999998,2.430900000000001 0.061899999999997846,2.4365000000000023 0.05889999999999773,2.4388999999999967 0.058499999999998664,2.441899999999997 0.04689999999999728,2.451900000000002 0.046999999999997044,2.4605999999999995 0.0437999999999974,2.466700000000003 0.0440999999999967,2.471899999999998 0.042099999999997806,2.478200000000001 0.035899999999998045,2.4842999999999975 0.040399999999998215,2.491799999999998 0.03919999999999746,2.5056999999999974 0.04339999999999833,2.5116999999999976 0.03569999999999851,2.511800000000001 0.02419999999999689,2.5200999999999993 0.012199999999999989,2.5366 0.008499999999997954,2.5450000000000017 0.005099999999998772,2.5476000000000028 0.0035999999999987153,2.5538999999999987 0.0,2.5581999999999994 0.0024999999999977263,2.563600000000001 0.0031999999999996476,2.570700000000002 0.011799999999997368,2.5760000000000005 0.01589999999999847,2.5855000000000032 0.02289999999999992,2.5955000000000013 0.022599999999997067,2.5989000000000004 0.032399999999999096,2.6302999999999983 0.03509999999999991,2.651299999999999 0.038999999999997925,2.6591999999999985 0.03719999999999857,2.6644999999999968 0.03849999999999909,2.667900000000003 0.03489999999999682,2.6736000000000004 0.034499999999997755,2.677199999999999 0.03939999999999699,2.6820999999999984 0.054999999999999716,2.6910000000000025 0.05349999999999966,2.7006000000000014 0.058799999999997965,2.7070000000000007 0.0592999999999968,2.714500000000001 0.062199999999997146,2.7242999999999995 0.06059999999999732,2.7276999999999987 0.06179999999999808,2.732999999999997 0.058799999999997965,2.7346999999999966 0.05999999999999872,2.738100000000003 0.0586999999999982,2.7402999999999977 0.06689999999999685,2.7460999999999984 0.06119999999999948,2.7509000000000015 0.06329999999999814,2.752899999999997 0.06059999999999732,2.7595000000000027 0.07479999999999976,2.7608999999999995 0.09369999999999834,2.7657999999999987 0.09499999999999886,2.771799999999999 0.09769999999999968,2.772199999999998 0.11989999999999768,2.770699999999998 0.13389999999999702,2.7760999999999996 0.15139999999999887,2.7723000000000013 0.17239999999999966,2.774700000000003 0.1758999999999986,2.7757000000000005 0.17749999999999844,2.7800999999999974 0.18419999999999703,2.7809000000000026 0.18579999999999686,2.786299999999997 0.18889999999999674,2.7890999999999977 0.1830999999999996,2.7935000000000016 0.18739999999999668,2.797400000000003 0.18599999999999994,2.799199999999999 0.17609999999999815,2.8034999999999997 0.1789999999999985,2.8066999999999993 0.20139999999999958,2.8096999999999994 0.20749999999999957,2.8138999999999967 0.22979999999999734,2.8111999999999995 0.2326999999999977,2.819499999999998 0.2738999999999976,2.822400000000002 0.2727999999999966,2.828400000000002 0.2784999999999975,2.8324 0.27169999999999916,2.835000000000001 0.26980000000000004,2.8382999999999967 0.2735999999999983,2.840299999999999 0.2749999999999986,2.8430999999999997 0.27639999999999887,2.8573999999999984 0.2694999999999972,2.8618000000000023 0.2677999999999976,2.865400000000001 0.26839999999999975,2.8699000000000012 0.27869999999999706,2.8984999999999985 0.2842999999999982,2.907200000000003 0.2901999999999987,2.908999999999999 0.28969999999999985,2.912799999999997 0.2928999999999995,2.919699999999999 0.2876999999999974,2.9202999999999975 0.28689999999999927,2.924599999999998 0.2806999999999995,2.9232000000000014 0.2776999999999994,2.927500000000002 0.2813999999999979,2.9283 0.2820999999999998,2.9328000000000003 0.28529999999999944,2.935600000000001 0.2883999999999993,2.935699999999997 0.29139999999999944,2.9326000000000008 0.29469999999999885,2.9343000000000004 0.2947999999999986,2.9369000000000014 0.30239999999999867,2.9376000000000033 0.3035999999999994,2.9410999999999987 0.2967999999999975,2.9465000000000003 0.30109999999999815,2.947499999999998 0.30579999999999785,2.9448000000000008 0.3119999999999976,2.9491000000000014 0.3117999999999981,2.951500000000003 0.3069999999999986,2.9523999999999972 0.3058999999999976,2.9540000000000006 0.3080999999999996,2.956000000000003 0.3116999999999983,2.956400000000002 0.3161999999999985,2.9620000000000033 0.31929999999999836,2.968200000000003 0.3161999999999985,2.971499999999999 0.3166999999999973,2.972999999999999 0.31869999999999976,2.973300000000002 0.323599999999999,2.9709000000000003 0.3247,2.9688000000000017 0.3266999999999989,2.969000000000001 0.32879999999999754,2.9701999999999984 0.3292999999999999,2.9731999999999985 0.3370999999999995,2.977899999999998 0.34059999999999846,2.972999999999999 0.34199999999999875,2.972999999999999 0.34129999999999683,2.9750999999999976 0.35219999999999985,2.969999999999999 0.3882999999999974,2.9673000000000016 0.40719999999999956,2.9634 0.43989999999999796,2.9373999999999967 0.4583999999999975,2.926000000000002 0.47089999999999677,2.919400000000003 0.4983999999999966,2.911999999999999 0.5286999999999971,2.898699999999998 0.5566999999999993,2.880200000000002 0.5831999999999979,2.8676999999999992 0.5936999999999983,2.8652999999999977 0.6492999999999967,2.8633000000000024 0.6708999999999996,2.8592000000000013 0.6820999999999984,2.8549000000000007 0.6949999999999967,2.845100000000002 0.6981999999999999,2.841000000000001 0.703599999999998,2.8293000000000035 0.7033999999999985,2.8233999999999995 0.6903999999999968,2.803199999999997 0.671599999999998,2.7860999999999976 0.6742999999999988,2.7841999999999985 0.6677999999999997,2.7790000000000035 0.6362999999999985,2.7719000000000023 0.628499999999999,2.7713000000000036 0.6274999999999977,2.774099999999997 0.5865999999999971,2.7668000000000035 0.5673999999999992,2.759999999999998 0.5510999999999981,2.7561999999999998 0.5494999999999983,2.7573000000000008 0.5364999999999966,2.747100000000003 0.5381999999999998,2.7462000000000018 0.5351999999999997,2.7426999999999992 0.5309999999999988,2.7316000000000003 0.5259999999999998,2.7132000000000005 0.5179999999999971,2.699300000000001 0.5213000000000001,2.6983999999999995 0.5198,2.689399999999999 0.5086999999999975,2.6743999999999986 0.5054999999999978,2.6747000000000014 0.5053999999999981,2.669800000000002 0.49599999999999866,2.6522000000000006 0.49659999999999727,2.6402 0.4995999999999974,2.638300000000001 0.5019999999999989,2.6298999999999992 0.5003999999999991,2.6293000000000006 0.5106999999999999,2.6159999999999997 0.5241999999999969,2.603900000000003 0.5584999999999987,2.5927000000000007 0.5916999999999994,2.589100000000002 0.6012999999999984,2.5863000000000014 0.6061999999999976,2.584299999999999 0.6046999999999976,2.5827000000000027 0.6104999999999983,2.5786999999999978 0.611699999999999,2.5799999999999983 0.642199999999999,2.572800000000001 0.6433,2.575099999999999 0.6921999999999997,2.5683000000000007 0.6916999999999973,2.5664000000000016 0.7014999999999993,2.563699999999997 0.7007999999999974,2.561799999999998 0.7259999999999991,2.562199999999997 0.7328999999999972,2.562899999999999 0.732999999999997,2.5645000000000024 0.7884999999999991,2.5709000000000017 0.8705999999999996,2.5985000000000014 0.8866999999999976,2.602899999999998 0.8966999999999992,2.6026999999999987 0.9254999999999995,2.6122999999999976 0.9835999999999991,2.6154999999999973 1.0311999999999983,2.613100000000003 1.0453999999999972,2.6159999999999997 1.072899999999997,2.618299999999998 1.0938999999999979,2.6156000000000006 1.1219999999999999,2.6056000000000026 1.1651999999999987,2.599400000000003 1.178099999999997,2.5936999999999983 1.1832999999999991,2.5900999999999996 1.1814999999999998,2.588700000000003 1.2014999999999993,2.5773999999999972 1.2271999999999998,2.5690000000000026 1.2256,2.5662999999999982 1.2500999999999998,2.5608000000000004 1.251299999999997,2.562800000000003 1.2699999999999996,2.5570999999999984 1.2890999999999977,2.556899999999999 1.3338,2.567300000000003 1.3584999999999994,2.569600000000001 1.4131999999999998,2.5656000000000034 1.4113999999999969,2.5634000000000015 1.4228999999999985,2.551400000000001 1.4393999999999991,2.5452000000000012 1.4671999999999983,2.5394999999999968 1.4680999999999997,2.5411 1.4898999999999987,2.5330000000000013 1.4887999999999977,2.531399999999998 1.521099999999997,2.5206000000000017 1.5840999999999994,2.5105999999999966 1.6244999999999976,2.5101000000000013 1.6463999999999999,2.5050999999999988 1.6773999999999987,2.4947000000000017 1.7184999999999988,2.484400000000001 1.7272999999999996,2.4804999999999993 1.7310999999999979,2.477899999999998 1.7297999999999973,2.4765000000000015 1.7440999999999995,2.4677000000000007 1.781299999999998,2.4628000000000014 1.799199999999999,2.4583000000000013 1.816399999999998,2.4510999999999967 1.8310999999999993,2.4480999999999966 1.8441999999999972,2.447899999999997 1.8565999999999967,2.450099999999999 1.8765999999999998,2.4510999999999967 1.8963999999999999,2.4557 1.9131999999999998,2.4568999999999974 1.9684999999999988,2.4658999999999978 2.0062999999999995,2.4628999999999976 2.0392999999999972,2.4782999999999973 2.036999999999999,2.4812999999999974 2.0405999999999977,2.4851000000000028 2.052199999999999,2.490699999999997 2.0564,2.4958000000000027 2.0662999999999982,2.5024000000000015 2.100299999999997,2.509900000000002 2.1021,2.5101000000000013 2.1037999999999997,2.5075000000000003 2.155999999999999,2.5270999999999972 2.1705999999999968,2.5304 2.170399999999997,2.5279999999999987 2.181899999999999,2.525500000000001 2.235599999999998,2.5191000000000017 2.2807999999999993,2.5078999999999994 2.2983999999999973,2.499600000000001 2.310799999999997,2.4909999999999997 2.3268999999999984,2.4829000000000008 2.325599999999998,2.4817000000000036 2.3364999999999974,2.4735000000000014 2.362499999999997,2.459299999999999 2.3781999999999996,2.4536000000000016 2.3920999999999992,2.4506000000000014 2.4101999999999997,2.452599999999997 2.437299999999997,2.4635000000000034 2.4568999999999974,2.473399999999998 2.456199999999999,2.474800000000002 2.473499999999998,2.477899999999998 2.4939999999999998,2.4780999999999977 2.513499999999997,2.472299999999997 2.5214999999999996,2.4714000000000027 2.5367999999999995,2.472299999999997 2.5757999999999974,2.480800000000002 2.5905999999999985,2.481499999999997 2.590799999999998,2.4887999999999977 2.6052,2.494799999999998 2.6561999999999983,2.4928000000000026 2.665399999999998,2.490099999999998 2.6744999999999983,2.480400000000003 2.673199999999998,2.479300000000002 2.6941999999999986,2.468899999999998 2.7048999999999985,2.460099999999997 2.7159999999999975,2.4566000000000017 2.7689999999999984,2.449399999999997 2.7902999999999984,2.4557 2.8003,2.4602000000000004 2.8013999999999974,2.458199999999998 2.8249999999999993,2.463000000000001 2.8249999999999993,2.465299999999999 2.884599999999999,2.452599999999997 2.904299999999999,2.4498999999999995 2.9255999999999993,2.439700000000002 2.929699999999997,2.434899999999999 2.945999999999998,2.4226000000000028 2.945499999999999,2.4215000000000018 2.9800999999999966,2.4093000000000018 3.0032999999999994,2.3943999999999974 3.0244999999999997,2.3873999999999995 3.030899999999999,2.3877999999999986 3.0477999999999987,2.3845000000000027 3.108699999999999,2.3939999999999984 3.1082,2.396000000000001 3.1343999999999994,2.405999999999999 3.165999999999997,2.412399999999998 3.167099999999998,2.4104000000000028 3.171599999999998,2.411900000000003 3.1721999999999966,2.4106000000000023 3.2023999999999972,2.4085000000000036 3.2028,2.4099000000000004 3.221,2.4104000000000028 3.2287,2.4125999999999976 3.267699999999998,2.432699999999997 3.2988999999999997,2.4421000000000035 3.2982999999999976,2.442999999999998 3.3064999999999998,2.4480000000000004 3.322899999999997,2.455300000000001 3.3374999999999986,2.457099999999997 3.375799999999998,2.457099999999997 3.3766999999999996,2.4555000000000007 3.3835999999999977,2.4566000000000017 3.3994999999999997,2.4604 3.4376999999999995,2.4757999999999996 3.450199999999999,2.485900000000001 3.4589999999999996,2.5020999999999987 3.469299999999997,2.5112999999999985 3.4792999999999985,2.5172000000000025 3.481499999999997,2.5153000000000034 3.5035999999999987,2.5219000000000023 3.512699999999999,2.526299999999999 3.541999999999998,2.5489999999999995 3.538999999999998,2.5516999999999967 3.5448999999999984,2.560600000000001 3.5656,2.578400000000002 3.5681999999999974,2.5771000000000015 3.5763,2.593899999999998 3.5976,2.6173 3.598899999999997,2.6165999999999983 3.6175999999999995,2.629100000000001 3.6342999999999996,2.6355000000000004 3.641499999999997,2.6415000000000006 3.657399999999999,2.6507999999999967 3.658999999999999,2.649099999999997 3.6705999999999968,2.6552000000000007 3.700499999999998,2.666499999999999 3.711199999999998,2.6753 3.7181999999999995,2.684600000000003 3.7171999999999983,2.685299999999998 3.7246999999999986,2.691200000000002 3.7296999999999976,2.6982 3.752799999999997,2.716799999999999 3.750499999999999,2.718200000000003 3.7693999999999974,2.7376999999999967 3.7922999999999973,2.746699999999997 3.8156999999999996,2.7509000000000015 3.837399999999999,2.7505000000000024 3.837799999999998,2.7486999999999995 3.849499999999999,2.7486999999999995 3.8848999999999982,2.759300000000003 3.901299999999999,2.765900000000002 3.9102999999999994,2.7672000000000025 3.937999999999999,2.7757000000000005 3.9373999999999967,2.777000000000001 3.9624999999999986,2.792099999999998 3.9639999999999986,2.7905999999999977 4.031199999999998,2.808 4.037699999999997,2.808399999999999 4.057299999999998,2.8057000000000016 4.0641,2.802900000000001 4.092199999999998,2.8008000000000024 4.092299999999998,2.7986000000000004 4.1128,2.800699999999999 4.116299999999999,2.8016000000000005 4.1153999999999975,2.804000000000002 4.159799999999997,2.812199999999997 4.186,2.819099999999999 4.228099999999998,2.819499999999998 4.250499999999999,2.8155 4.272699999999997,2.8217 4.321499999999997,2.8282999999999987 4.320499999999999,2.830300000000001 4.347999999999999,2.8399 4.365799999999997,2.841700000000003 4.381399999999999,2.8400000000000034 4.381399999999999,2.8382000000000005 4.420499999999997,2.8434000000000026 4.435599999999997,2.8479000000000028 4.483999999999998,2.8689000000000036 4.4986,2.876899999999999 4.539899999999999,2.8885000000000005 4.539099999999998,2.8896999999999977 4.564399999999999,2.8988000000000014 4.5809999999999995,2.897500000000001 4.619599999999998,2.901699999999998 4.652199999999997,2.8994 4.68,2.907600000000002 4.699599999999997,2.9101 4.7058,2.9095000000000013 4.705099999999998,2.9070000000000036 4.707099999999997,2.905700000000003 4.718699999999998,2.9010999999999996 4.738099999999999,2.8984999999999985 4.747699999999998,2.898600000000002 4.759899999999998,2.9022999999999968 4.780099999999997,2.9055999999999997 4.796399999999998,2.9055999999999997 4.826699999999999,2.8956000000000017 4.842899999999997,2.886000000000003 4.875,2.8821999999999974 4.897799999999997,2.8830000000000027 4.910399999999999,2.8857 4.917199999999998,2.890599999999999 4.929699999999997,2.891599999999997 4.935699999999997,2.887900000000002 4.933399999999999,2.884599999999999 4.934299999999997,2.8806999999999974 4.941799999999997,2.875300000000003 4.9339999999999975,2.870899999999999 4.9346,2.864699999999999 4.9375,2.859099999999998 4.9483,2.8485000000000014 4.948899999999998,2.8406999999999982 5.0138,2.8241999999999976 5.0284999999999975,2.804400000000001 5.057099999999998,2.777799999999999 5.126399999999997,2.7879999999999967 5.269599999999997,2.777700000000003 5.301199999999998,2.8134000000000015 5.331299999999999,2.7952999999999975 5.367699999999999,2.724899999999998 5.3897999999999975,2.7194000000000003 5.395499999999998,2.719000000000001 5.411899999999999,2.723799999999997 5.501199999999997,2.731900000000003 5.574499999999997,2.773699999999998 5.601899999999997,2.750300000000003 5.611699999999999,2.705599999999997 5.633899999999997,2.666400000000003 5.651899999999998,2.608400000000003 5.673499999999997,2.602400000000003 5.785399999999999,2.5589000000000013 5.789499999999997,2.5576000000000008 5.790599999999998,2.558799999999998 5.831399999999999,2.5471999999999966 5.8476,2.5458 5.883199999999999,2.5354000000000028 6.0062999999999995,2.520699999999998 6.034899999999997,2.5150000000000006 6.036399999999997,2.511899999999997 6.093299999999999,2.501100000000001 6.0920999999999985,2.5039000000000016 6.126199999999997,2.500799999999998 6.1595999999999975,2.503700000000002 6.236099999999997,2.505600000000001 6.234999999999999,2.4998000000000005 6.231099999999998,2.497799999999998 6.2288,2.4894999999999996 6.2318999999999996,2.4765000000000015 6.234699999999997,2.473700000000001 6.2333,2.4662000000000006 6.221599999999999,2.461199999999998 6.219399999999997,2.455599999999997 6.219899999999999,2.443100000000001 6.222999999999999,2.4358999999999966 6.223799999999997,2.418999999999997 6.235499999999998,2.402799999999999 6.229099999999999,2.3937000000000026 6.229899999999997,2.3847999999999985 6.232199999999999,2.383099999999999 6.226599999999998,2.379800000000003 6.226599999999998,2.3725999999999985 6.224399999999999,2.3667000000000016 6.2318999999999996,2.346200000000003 6.242199999999997,2.3352999999999966 6.243299999999998,2.3323000000000036 6.244999999999997,2.3323000000000036 6.246599999999997,2.3286999999999978 6.252499999999998,2.3262 6.253,2.3241999999999976 6.254899999999999,2.3241999999999976 6.255499999999998,2.3220000000000027 6.2591,2.3198000000000008 6.2608,2.3175999999999988 6.259999999999998,2.3119999999999976 6.2652,2.307000000000002 6.2652,2.3044999999999973 6.2622,2.3031000000000006 6.261899999999997,2.298099999999998 6.2591,2.2944999999999993 6.2601999999999975,2.2920000000000016 6.258299999999998,2.2890000000000015 6.259399999999999,2.2856000000000023 6.2561,2.2828000000000017 6.254399999999997,2.2759 6.2501999999999995,2.2717000000000027 6.2501999999999995,2.2695000000000007 6.2455,2.265599999999999 6.242199999999997,2.2590000000000003 6.2425,2.2552999999999983 6.231099999999998,2.2406000000000006 6.220199999999998,2.2297999999999973 6.215,2.2214000000000027 6.215199999999999,2.2184000000000026 6.205499999999997,2.2051000000000016 6.202999999999999,2.204500000000003 6.2013,2.2002999999999986 6.195499999999999,2.1951000000000036 6.191899999999997,2.194499999999998 6.187199999999997,2.1891999999999996 6.179099999999998,2.185299999999998 6.173599999999997,2.1803000000000026 6.171599999999998,2.1805999999999983 6.170199999999998,2.1788999999999987 6.164999999999999,2.1803000000000026 6.158799999999999,2.1762000000000015 6.154399999999999,2.1762000000000015 6.151299999999999,2.1692000000000036 6.1412999999999975,2.161200000000001 6.137499999999999,2.1548000000000016 6.127199999999998,2.1467000000000027 6.122699999999998,2.132800000000003 6.122399999999999,2.1248000000000005 6.120199999999997,2.125300000000003 6.1205,2.130600000000001 6.118299999999998,2.135300000000001 6.109099999999998,2.1448000000000036 6.090499999999999,2.149799999999999 6.0825,2.149000000000001 6.0716,2.1522999999999968 6.061899999999998,2.156500000000001 6.046899999999997,2.1681000000000026 6.029999999999998,2.1728000000000023 6.023799999999998,2.173099999999998 6.0152,2.1758999999999986 6.012699999999999,2.1784000000000034 6.001299999999997,2.1766999999999967 5.984399999999997,2.1816999999999993 5.965,2.183100000000003 5.946099999999998,2.1803000000000026 5.9422,2.1773000000000025 5.931899999999999,2.178699999999999 5.922999999999998,2.174500000000002 5.9102,2.173400000000001 5.907399999999999,2.1694999999999993 5.901599999999998,2.1672999999999973 5.897699999999997,2.1706000000000003 5.889699999999998,2.168700000000001 5.890799999999999,2.1676 5.887499999999999,2.168700000000001 5.881899999999998,2.1640000000000015 5.854899999999997,2.1625999999999976 5.832699999999999,2.162300000000002 5.831099999999999,2.164200000000001 5.828599999999998,2.163400000000003 5.8298999999999985,2.1655999999999977 5.826099999999997,2.168700000000001 5.8216,2.1666999999999987 5.8233,2.1683999999999983 5.821099999999998,2.170099999999998 5.817999999999998,2.170099999999998 5.8187999999999995,2.1683999999999983 5.8165999999999976,2.168999999999997 5.816299999999998,2.1706000000000003 5.808299999999999,2.169800000000002 5.789999999999999,2.161999999999999 5.790199999999999,2.1601 5.7761,2.1539 5.775199999999998,2.152000000000001 5.766099999999998,2.1462000000000003 5.7622,2.1464 5.759699999999999,2.143900000000002 5.749399999999998,2.142000000000003 5.740499999999997,2.133099999999999 5.732699999999998,2.1189000000000036 5.729099999999999,2.1152999999999977 5.728599999999997,2.110599999999998 5.725499999999997,2.106499999999997 5.723599999999998,2.0976 5.726099999999999,2.0930999999999997 5.715,2.079500000000003 5.713799999999999,2.0752999999999986 5.7037999999999975,2.0598000000000027 5.702999999999999,2.0508999999999986 5.700199999999999,2.043999999999997 5.701099999999997,2.0401000000000025 5.697999999999997,2.0386999999999986 5.694399999999998,2.0330999999999975 5.6922,2.026200000000003 5.688799999999997,2.0234000000000023 5.6854999999999976,2.0167 5.684699999999999,2.0116999999999976 5.6815999999999995,2.0108999999999995 5.682199999999998,2.0092 5.678599999999999,2.0086999999999975 5.677499999999998,2.0101000000000013 5.674899999999997,2.0076000000000036 5.671599999999998,2.0009000000000015 5.672999999999998,2.0001000000000033 5.670499999999997,1.9930999999999983 5.671899999999997,1.9911999999999992 5.668299999999999,1.9889999999999972 5.665499999999998,1.9898000000000025 5.665199999999999,1.9872999999999976 5.661299999999997,1.983699999999999 5.659699999999997,1.983699999999999 5.660499999999999,1.9859000000000009 5.657999999999998,1.9859000000000009 5.653299999999998,1.9827999999999975 5.653299999999998,1.9801000000000002 5.650199999999998,1.9823000000000022 5.6433,1.9812000000000012 5.642999999999997,1.982599999999998 5.645,1.9834000000000032 5.642199999999999,1.9848 5.637699999999999,1.984499999999997 5.637499999999999,1.9823000000000022 5.633299999999998,1.9842000000000013 5.622699999999998,1.9819999999999993 5.614899999999999,1.9759000000000029 5.597999999999999,1.9756 5.5977,1.9739999999999966 5.594099999999997,1.9739999999999966 5.588299999999997,1.9703000000000017 5.584099999999999,1.9703000000000017 5.5794,1.9664000000000001 5.577199999999998,1.962299999999999 5.577999999999999,1.9547999999999988 5.5763,1.9562000000000026 5.576099999999997,1.9602999999999966 5.5726999999999975,1.9605999999999995 5.569699999999997,1.9575999999999993 5.574099999999998,1.9562000000000026 5.5676999999999985,1.955599999999997 5.570499999999999,1.9540000000000006 5.567399999999999,1.9540000000000006 5.5655,1.950099999999999 5.5579,1.9508999999999972 5.557299999999998,1.9487000000000023 5.566299999999998,1.9472999999999985 5.5665999999999976,1.9436999999999998 5.572199999999999,1.939 5.5848999999999975,1.9408999999999992 5.5869,1.9386999999999972 5.593299999999999,1.9380999999999986 5.597499999999997,1.9350999999999985 5.601899999999997,1.9373000000000005 5.603299999999997,1.9309000000000012 5.600199999999997,1.923099999999998 5.601099999999999,1.9177999999999997 5.597199999999997,1.9131 5.596299999999999,1.900100000000002 5.593299999999999,1.8952999999999989 5.586599999999997,1.8917000000000002 5.584399999999999,1.8789999999999978 5.580199999999998,1.8753000000000029 5.579699999999999,1.8637000000000015 5.576899999999998,1.860599999999998 5.576899999999998,1.8545000000000016 5.5716,1.8476 5.572499999999998,1.8419999999999987 5.569099999999999,1.836199999999998 5.569899999999997,1.8278000000000034 5.564699999999998,1.8211999999999975 5.557199999999998,1.819499999999998 5.554099999999998,1.8119999999999976 5.546899999999997,1.8087000000000018 5.544099999999997,1.8008999999999986 5.545199999999998,1.7837000000000032 5.542399999999997,1.7800999999999974 5.543599999999998,1.7789000000000001 5.542199999999998,1.774799999999999 5.5443999999999996,1.7727999999999966 5.541599999999999,1.7717000000000027 5.544699999999999,1.7700999999999993 5.5427,1.7676000000000016 5.546099999999999,1.7642000000000024 5.556899999999999,1.7120000000000033 5.562999999999999,1.6951000000000036 5.561899999999998,1.6914999999999978 5.557499999999997,1.6861999999999995 5.553799999999999,1.6856000000000009 5.552199999999999,1.6820000000000022 5.553799999999999,1.6681000000000026 5.558799999999998,1.6525999999999996 5.554099999999998,1.6381000000000014 5.557499999999997,1.621699999999997 5.559399999999997,1.6189000000000036 5.551299999999998,1.6201000000000008 5.547499999999999,1.6189000000000036 5.542199999999998,1.6148000000000025 5.5383,1.6047999999999973 5.540499999999998,1.587299999999999 5.542199999999998,1.5855999999999995 5.5427,1.579500000000003 5.543799999999997,1.579500000000003 5.543299999999999,1.5769999999999982 5.546099999999999,1.5709000000000017 5.547499999999999,1.5617000000000019 5.554099999999998,1.5473 5.553299999999997,1.5448000000000022 5.554699999999997,1.5405999999999977 5.557199999999998,1.5373000000000019 5.556899999999999,1.5315000000000012 5.553799999999999,1.5283999999999978 5.5504999999999995,1.5275999999999996 5.5488,1.5208999999999975 5.544999999999998,1.5187000000000026 5.544699999999999,1.5161999999999978 5.5504999999999995,1.496699999999997 5.557699999999997,1.4840000000000018 5.558299999999999,1.4759000000000029 5.556099999999997,1.4709000000000003 5.557499999999997,1.4664000000000001 5.549899999999997,1.462600000000002 5.5322,1.4664000000000001 5.528299999999998,1.4652999999999992 5.496299999999998,1.465600000000002 5.479099999999999,1.4697999999999993 5.471599999999999,1.4690000000000012 5.468299999999999,1.4664000000000001 5.464399999999998,1.4658999999999978 5.461299999999998,1.4686999999999983 5.449399999999997,1.4673000000000016 5.449099999999998,1.4686999999999983 5.431899999999999,1.4703000000000017 5.421899999999997,1.473399999999998 5.407699999999998,1.4726 5.402699999999999,1.4739999999999966 5.395799999999998,1.4720000000000013 5.390499999999999,1.4748000000000019 5.3827,1.473399999999998 5.377499999999998,1.4692000000000007 5.377199999999998,1.4669999999999987 5.370199999999997,1.4588999999999999 5.371599999999997,1.4564000000000021 5.369699999999998,1.455599999999997 5.3690999999999995,1.4530999999999992 5.3679999999999986,1.4361999999999995 5.369999999999997,1.432299999999998 5.376299999999997,1.4303000000000026 5.3801999999999985,1.4256000000000029 5.386599999999998,1.424199999999999 5.388599999999997,1.4262000000000015 5.395499999999998,1.4266999999999967 5.397699999999997,1.4251000000000005 5.397199999999998,1.4239000000000033 5.390499999999999,1.4226000000000028 5.387499999999999,1.4194999999999993 5.386099999999999,1.4194999999999993 5.386599999999998,1.421999999999997 5.384699999999999,1.424199999999999 5.382399999999997,1.4239000000000033 5.382399999999997,1.4226000000000028 5.378599999999999,1.4234000000000009 5.3740999999999985,1.421999999999997 5.368599999999997,1.416400000000003 5.366899999999998,1.411200000000001 5.355499999999999,1.4170000000000016 5.347999999999999,1.4172999999999973 5.347999999999999,1.4151000000000025 5.345499999999998,1.4151000000000025 5.341099999999997,1.410899999999998 5.333299999999998,1.4003000000000014 5.332999999999998,1.4025999999999996 5.331299999999999,1.403100000000002 5.323599999999999,1.4027999999999992 5.319399999999998,1.4044999999999987 5.3111,1.4012000000000029 5.304399999999998,1.4044999999999987 5.301099999999998,1.4033999999999978 5.293599999999998,1.3950999999999993 5.289999999999999,1.3870000000000005 5.287199999999999,1.372799999999998 5.288599999999999,1.3500999999999976 5.291599999999999,1.3378000000000014 5.307199999999998,1.3198000000000008 5.302199999999999,1.317300000000003 5.298599999999997,1.3177999999999983 5.296099999999999,1.3158999999999992 5.298299999999998,1.3192000000000021 5.290799999999997,1.325099999999999 5.2723999999999975,1.3301000000000016 5.2622,1.3286999999999978 5.256599999999999,1.3228000000000009 5.251899999999999,1.3280999999999992 5.244999999999997,1.3303000000000011 5.240199999999998,1.3301000000000016 5.232499999999998,1.327300000000001 5.223299999999998,1.3177999999999983 5.215499999999999,1.3156000000000034 5.207199999999997,1.3181000000000012 5.1966,1.323999999999998 5.188799999999997,1.3248000000000033 5.179399999999998,1.3233999999999995 5.165499999999998,1.3166999999999973 5.156599999999997,1.3076000000000008 5.151299999999999,1.2986999999999966 5.147699999999997,1.2959000000000032 5.143799999999999,1.2867000000000033 5.1423999999999985,1.2867000000000033 5.139699999999998,1.2706000000000017 5.1402,1.2603000000000009 5.137699999999999,1.2550999999999988 5.139899999999997,1.2520000000000024 5.139899999999997,1.2473000000000027 5.137699999999999,1.2483999999999966 5.137699999999999,1.2515 5.1358,1.2531000000000034 5.128799999999998,1.2520000000000024 5.1358,1.2494999999999976 5.135499999999997,1.2481000000000009 5.128,1.2481000000000009 5.122199999999999,1.2533999999999992 5.119699999999998,1.2533999999999992 5.119999999999997,1.2498000000000005 5.1175,1.2462000000000018 5.112199999999998,1.2473000000000027 5.1113,1.2494999999999976 5.1129999999999995,1.2511999999999972 5.1113,1.2515 5.108799999999999,1.2483999999999966 5.106099999999998,1.2481000000000009 5.1083,1.246699999999997 5.107499999999998,1.2441999999999993 5.102699999999999,1.2417000000000016 5.102999999999998,1.2331000000000003 5.106099999999998,1.227800000000002 5.099999999999998,1.2259000000000029 5.104399999999998,1.2239999999999966 5.1052,1.2220000000000013 5.108599999999999,1.222299999999997 5.107999999999997,1.2184000000000026 5.111599999999999,1.2177999999999969 5.114099999999997,1.2147999999999968 5.117699999999999,1.2152999999999992 5.117199999999997,1.2134 5.120199999999997,1.2147999999999968 5.1236,1.211199999999998 5.1311,1.2152999999999992 5.128,1.2180999999999997 5.1311,1.2214000000000027 5.1297,1.223399999999998 5.1358,1.2272999999999996 5.137699999999999,1.2216999999999985 5.1463,1.2128000000000014 5.151599999999998,1.2094999999999985 5.1541,1.2098000000000013 5.159099999999999,1.2051000000000016 5.165199999999999,1.2030999999999992 5.166599999999999,1.2012 5.1647,1.1965000000000003 5.165499999999998,1.1938999999999993 5.171299999999999,1.1936999999999998 5.178799999999999,1.1959000000000017 5.179099999999998,1.198999999999998 5.185199999999998,1.2028000000000034 5.184899999999999,1.2058999999999997 5.187399999999997,1.2102999999999966 5.194699999999997,1.2128000000000014 5.190799999999999,1.2180999999999997 5.195499999999999,1.2226 5.199399999999997,1.2201000000000022 5.202399999999997,1.2205999999999975 5.205499999999997,1.2173000000000016 5.219399999999997,1.2109000000000023 5.227499999999999,1.2098000000000013 5.236899999999999,1.2109000000000023 5.238599999999998,1.2134 5.236099999999997,1.2175999999999974 5.231299999999997,1.2169999999999987 5.230499999999999,1.2180999999999997 5.237699999999997,1.2214000000000027 5.2394,1.2276000000000025 5.242699999999999,1.2287000000000035 5.243799999999997,1.2276000000000025 5.2429999999999986,1.2242000000000033 5.2501999999999995,1.2209000000000003 5.250499999999999,1.2186999999999983 5.2562999999999995,1.2137000000000029 5.262999999999998,1.2102999999999966 5.2713,1.2092000000000027 5.281599999999997,1.211500000000001 5.281599999999997,1.2150999999999996 5.284099999999999,1.216700000000003 5.282399999999999,1.2231000000000023 5.284399999999998,1.2248000000000019 5.2866,1.2248000000000019 5.284699999999997,1.2227999999999994 5.285499999999999,1.2212000000000032 5.291599999999999,1.2173000000000016 5.289999999999999,1.2150999999999996 5.290799999999997,1.2141999999999982 5.295499999999997,1.2128000000000014 5.297699999999999,1.2152999999999992 5.308,1.2162000000000006 5.306099999999997,1.211500000000001 5.306299999999997,1.2094999999999985 5.308599999999998,1.2087000000000003 5.306099999999997,1.2062000000000026 5.304099999999998,1.2064999999999984 5.302999999999997,1.2040000000000006 5.309899999999999,1.2012 5.308799999999998,1.1978000000000009 5.3125,1.1959000000000017 5.3104999999999976,1.194499999999998 5.308299999999999,1.1966999999999999 5.3004999999999995,1.1953000000000031 5.301299999999998,1.1931000000000012 5.299899999999997,1.1897999999999982 5.303799999999999,1.183399999999999 5.316099999999999,1.1758999999999986 5.3308,1.174199999999999 5.3338,1.1784000000000034 5.341899999999999,1.1792000000000016 5.342199999999998,1.181199999999997 5.345499999999998,1.183399999999999 5.343799999999998,1.185299999999998 5.347999999999999,1.1856000000000009 5.347199999999997,1.1884000000000015 5.349999999999998,1.1903000000000006 5.348599999999998,1.191200000000002 5.346599999999999,1.1878000000000029 5.344399999999997,1.1876000000000033 5.343799999999998,1.1908999999999992 5.354999999999997,1.192300000000003 5.357499999999998,1.1903000000000006 5.353299999999997,1.1891999999999996 5.3508,1.186399999999999 5.352699999999999,1.184199999999997 5.356099999999998,1.1856000000000009 5.359399999999997,1.1848000000000027 5.356099999999998,1.1798000000000002 5.3613,1.174199999999999 5.368299999999998,1.173099999999998 5.369699999999998,1.1715000000000018 5.370799999999999,1.1739000000000033 5.372699999999998,1.1736999999999966 5.3740999999999985,1.1753 5.378,1.174199999999999 5.385499999999997,1.1756000000000029 5.384399999999999,1.1715000000000018 5.386099999999999,1.1694999999999993 5.3827,1.1687000000000012 5.3811,1.1651000000000025 5.366299999999999,1.1655999999999977 5.362199999999998,1.159799999999997 5.363299999999999,1.1503000000000014 5.364999999999998,1.1484000000000023 5.3736,1.147599999999997 5.3801999999999985,1.1441999999999979 5.378299999999999,1.142000000000003 5.373299999999997,1.1411999999999978 5.372199999999999,1.1370000000000005 5.366299999999999,1.1366999999999976 5.3644,1.1313999999999993 5.366899999999998,1.1272999999999982 5.378599999999999,1.1139999999999972 5.378599999999999,1.1120000000000019 5.3801999999999985,1.1122999999999976 5.381599999999999,1.1098 5.386599999999998,1.1103000000000023 5.3851999999999975,1.108699999999999 5.3851999999999975,1.1056000000000026 5.387499999999999,1.1052999999999997 5.386099999999999,1.1009000000000029 5.396099999999997,1.0927999999999969 5.399699999999999,1.0942000000000007 5.4086,1.0900999999999996 5.411899999999999,1.0925999999999974 5.412699999999997,1.0981000000000023 5.414999999999999,1.099499999999999 5.419999999999998,1.0981000000000023 5.428799999999999,1.102800000000002 5.430799999999998,1.0981000000000023 5.431899999999999,1.1011999999999986 5.4361,1.0998000000000019 5.4365999999999985,1.1011999999999986 5.441099999999999,1.1015000000000015 5.442399999999999,1.0992000000000033 5.4391,1.0955999999999975 5.439999999999998,1.0934000000000026 5.4365999999999985,1.0914000000000001 5.438799999999997,1.0902999999999992 5.438599999999997,1.0889000000000024 5.428799999999999,1.0852999999999966 5.438299999999998,1.0842000000000027 5.436299999999999,1.0786999999999978 5.442999999999998,1.0775999999999968 5.4513,1.0722999999999985 5.4497,1.0711999999999975 5.441899999999997,1.0722999999999985 5.438299999999998,1.0709000000000017 5.434899999999999,1.0670000000000002 5.426099999999998,1.0658999999999992 5.425799999999999,1.0645000000000024 5.43,1.0619999999999976 5.429399999999998,1.0598000000000027 5.4254999999999995,1.0587000000000018 5.421899999999997,1.0544999999999973 5.415499999999998,1.0534000000000034 5.413799999999998,1.0544999999999973 5.4086,1.0512000000000015 5.408299999999997,1.043999999999997 5.410499999999999,1.0381 5.4133,1.0384000000000029 5.4163,1.0337000000000032 5.422199999999997,1.0302999999999969 5.415799999999997,1.0283999999999978 5.4102,1.0300999999999974 5.404699999999998,1.0227999999999966 5.404699999999998,1.0187000000000026 5.406599999999997,1.015900000000002 5.4116,1.0108999999999995 5.421299999999999,1.0086999999999975 5.4238,1.0056000000000012 5.427699999999998,1.0061999999999998 5.4269,1.0101000000000013 5.430199999999999,1.0103000000000009 5.431299999999997,1.0084000000000017 5.434099999999997,1.0078000000000031 5.434699999999999,1.0033999999999992 5.437399999999997,1.0020000000000024 5.441099999999999,1.0033999999999992 5.441899999999997,1.0001000000000033 5.438599999999997,0.9986999999999995 5.434899999999999,0.9998000000000005 5.432699999999997,0.9969999999999999 5.432699999999997,0.9934000000000012 5.434899999999999,0.9911999999999992 5.4391,0.9911999999999992 5.439399999999999,0.9883999999999986 5.442999999999998,0.9876000000000005 5.4426999999999985,0.9847999999999999 5.448599999999999,0.9801000000000002 5.452399999999997,0.9795000000000016 5.453299999999999,0.9808999999999983 5.4548999999999985,0.9791999999999987 5.461299999999998,0.9817000000000036 5.459399999999999,0.9795000000000016 5.460199999999997,0.9772999999999996 5.4666,0.9756 5.466899999999999,0.9742000000000033 5.4697,0.9759000000000029 5.470499999999998,0.9739999999999966 5.4758,0.9725999999999999 5.4741,0.9673000000000016 5.476099999999999,0.9639000000000024 5.4802,0.964500000000001 5.480799999999999,0.9626000000000019 5.484399999999997,0.9626000000000019 5.4863,0.964500000000001 5.486099999999997,0.9583999999999975 5.489899999999999,0.9592000000000027 5.490499999999997,0.9609000000000023 5.4929999999999986,0.9587000000000003 5.4979999999999976,0.9600999999999971 5.497199999999999,0.9570000000000007 5.493799999999997,0.9564000000000021 5.4925,0.9540000000000006 5.494999999999997,0.9530999999999992 5.4990999999999985,0.9547999999999988 5.5,0.9506000000000014 5.503,0.9519999999999982 5.502699999999997,0.9495000000000005 5.499399999999998,0.9466999999999999 5.501299999999997,0.9438999999999993 5.505499999999998,0.9455999999999989 5.508799999999997,0.9438999999999993 5.5091,0.9425999999999988 5.506899999999998,0.941200000000002 5.507199999999997,0.9386999999999972 5.516099999999998,0.9391999999999996 5.515799999999999,0.935299999999998 5.5091,0.9348000000000027 5.508299999999998,0.9316999999999993 5.509399999999999,0.9305999999999983 5.514899999999997,0.9284000000000034 5.518799999999999,0.9311999999999969 5.519699999999997,0.9294999999999973 5.5183,0.9284000000000034 5.5223999999999975,0.9269999999999996 5.521099999999997,0.9236999999999966 5.523799999999998,0.9215000000000018 5.526299999999999,0.921999999999997 5.527699999999999,0.9251000000000005 5.5305,0.9264999999999972 5.5322,0.9247999999999976 5.531099999999999,0.9217000000000013 5.534699999999997,0.9206000000000003 5.534899999999997,0.9176000000000002 5.531899999999997,0.9151000000000025 5.532399999999999,0.9140000000000015 5.539999999999999,0.9123000000000019 5.541599999999999,0.9089000000000027 5.548299999999998,0.9095000000000013 5.550199999999997,0.9076000000000022 5.552399999999999,0.9087000000000032 5.556299999999997,0.903100000000002 5.554699999999997,0.899799999999999 5.559699999999999,0.899799999999999 5.560799999999997,0.8939000000000021 5.564999999999998,0.8945000000000007 5.569399999999998,0.8922999999999988 5.570799999999998,0.8881000000000014 5.565199999999997,0.8840000000000003 5.5702,0.8811999999999998 5.569699999999997,0.8755999999999986 5.574099999999998,0.8744999999999976 5.576599999999999,0.8712000000000018 5.579099999999997,0.8712000000000018 5.581099999999999,0.8669999999999973 5.588299999999997,0.8663999999999987 5.591299999999997,0.867600000000003 5.593,0.8703000000000003 5.597399999999997,0.8673000000000002 5.603299999999997,0.8695000000000022 5.605499999999999,0.8656000000000006 5.601599999999998,0.8652999999999977 5.600199999999997,0.8637000000000015 5.602699999999999,0.8620000000000019 5.606599999999997,0.8637000000000015 5.606299999999997,0.8597999999999999 5.612399999999997,0.8573000000000022 5.612399999999997,0.8506 5.618799999999997,0.8481000000000023 5.621299999999998,0.8487000000000009 5.618799999999997,0.8427999999999969 5.6240999999999985,0.8414000000000001 5.6240999999999985,0.8389000000000024 5.626299999999997,0.8376000000000019 5.625,0.8337000000000003 5.6266,0.8308999999999997 5.628,0.8323000000000036 5.630499999999998,0.8308999999999997 5.6341,0.8314000000000021 5.634999999999998,0.829500000000003 5.636899999999997,0.8305999999999969 5.6388,0.8275999999999968 5.641099999999998,0.8297999999999988 5.648,0.8290000000000006 5.650199999999998,0.8241999999999976 5.641599999999997,0.8203000000000031 5.641599999999997,0.8186999999999998 5.646899999999999,0.8183999999999969 5.648799999999998,0.815100000000001 5.647199999999998,0.8136999999999972 5.648299999999999,0.811399999999999 5.654399999999999,0.811399999999999 5.661299999999997,0.8070000000000022 5.661299999999997,0.8023000000000025 5.659399999999998,0.8019999999999996 5.659699999999997,0.8008999999999986 5.661099999999998,0.799199999999999 5.6663,0.7984000000000009 5.671899999999997,0.7927999999999997 5.671099999999999,0.7897999999999996 5.668299999999999,0.7901000000000025 5.665499999999998,0.7890000000000015 5.665499999999998,0.7875999999999976 5.6738,0.785899999999998 5.674899999999997,0.778100000000002 5.676299999999998,0.7777999999999992 5.674899999999997,0.7764000000000024 5.677699999999998,0.7740000000000009 5.676099999999998,0.7723000000000013 5.680199999999999,0.7702999999999989 5.678599999999999,0.7691999999999979 5.690199999999997,0.7595000000000027 5.6922,0.7481000000000009 5.690899999999999,0.7475999999999985 5.6875,0.752200000000002 5.673299999999998,0.7511999999999972 5.6754999999999995,0.7462000000000018 5.671599999999998,0.7439000000000036 5.650299999999998,0.741500000000002 5.632199999999997,0.7421000000000006 5.6214999999999975,0.7496999999999971 5.616799999999998,0.7486999999999995 5.613599999999998,0.7441000000000031 5.5961,0.7376000000000005 5.594099999999997,0.7430000000000021 5.587599999999998,0.740000000000002 5.575399999999998,0.7428000000000026 5.572199999999999,0.7349999999999994 5.5657,0.7376000000000005 5.5589999999999975,0.7338000000000022 5.5528999999999975,0.734099999999998 5.545599999999997,0.7389999999999972 5.544699999999999,0.7413000000000025 5.5467999999999975,0.7471000000000032 5.544999999999998,0.7494000000000014 5.532399999999999,0.7503000000000029 5.512499999999999,0.7612999999999985 5.508099999999999,0.7618000000000009 5.505499999999998,0.7601000000000013 5.5061,0.7511999999999972 5.5025999999999975,0.748899999999999 5.499399999999998,0.7486000000000033 5.498399999999997,0.7567999999999984 5.494,0.7565999999999988 5.4925999999999995,0.7486000000000033 5.485199999999999,0.748899999999999 5.4772,0.7518999999999991 5.469199999999997,0.7449999999999974 5.466899999999999,0.7357999999999976 5.469099999999997,0.7310000000000016 5.4716999999999985,0.7297999999999973 5.472399999999997,0.7241 5.4705999999999975,0.7192000000000007 5.4727,0.7162999999999968 5.475399999999997,0.7158000000000015 5.480499999999999,0.7184999999999988 5.483099999999997,0.7165999999999997 5.483599999999999,0.7105999999999995 5.480599999999999,0.7075000000000031 5.476399999999998,0.7062000000000026 5.4726,0.7066000000000017 5.4705999999999975,0.7100000000000009 5.462699999999998,0.7090000000000032 5.461499999999997,0.7023999999999972 5.458699999999997,0.7008999999999972 5.455599999999997,0.701900000000002 5.454799999999999,0.7068999999999974 5.450899999999997,0.7090999999999994 5.439299999999999,0.7062999999999988 5.433799999999998,0.7111999999999981 5.429799999999997,0.7103999999999999 5.428699999999999,0.7115999999999971 5.434899999999999,0.7194000000000003 5.426299999999998,0.723399999999998 5.419799999999999,0.7197999999999993 5.410299999999999,0.7250000000000014 5.393699999999999,0.7254999999999967 5.391099999999998,0.7276999999999987 5.396599999999999,0.7329000000000008 5.385299999999997,0.7379000000000033 5.3812999999999995,0.7331000000000003 5.378499999999999,0.7321999999999989 5.371399999999998,0.7359000000000009 5.348799999999997,0.7381999999999991 5.3481999999999985,0.7361000000000004 5.3523,0.7317000000000036 5.349799999999998,0.7301000000000002 5.337499999999999,0.7321000000000026 5.3323,0.7301000000000002 5.329999999999998,0.7235999999999976 5.326599999999999,0.7227000000000032 5.3247,0.7177999999999969 5.3216,0.7173999999999978 5.319399999999998,0.7229000000000028 5.309799999999999,0.7167999999999992 5.307399999999998,0.7173000000000016 5.305799999999998,0.7218000000000018 5.299099999999999,0.7205999999999975 5.290199999999999,0.715600000000002 5.288499999999999,0.7195999999999998 5.281199999999998,0.7169999999999987 5.272799999999997,0.7195000000000036 5.270299999999999,0.7184000000000026 5.2708999999999975,0.7160999999999973 5.278799999999997,0.7103999999999999 5.264299999999999,0.7028000000000034 5.258799999999997,0.7013000000000034 5.258499999999998,0.7075999999999993 5.2531,0.7094000000000023 5.236899999999999,0.6961000000000013 5.233599999999999,0.6966999999999999 5.2277999999999984,0.7017999999999986 5.224799999999998,0.7017999999999986 5.224899999999998,0.6966999999999999 5.216999999999999,0.6871999999999971 5.224799999999998,0.6856000000000009 5.225199999999997,0.6829999999999998 5.2136,0.6788000000000025 5.2136,0.6773999999999987 5.221599999999999,0.6754999999999995 5.223599999999998,0.6715000000000018 5.220099999999999,0.6666000000000025 5.207599999999999,0.6647999999999996 5.1915999999999976,0.6783000000000001 5.177799999999998,0.701900000000002 5.165199999999999,0.7158999999999978 5.161499999999997,0.7184000000000026 5.146099999999997,0.7162999999999968 5.136899999999997,0.7175999999999974 5.127099999999999,0.7244000000000028 5.119699999999998,0.7334999999999994 5.116699999999998,0.7347999999999999 5.108999999999998,0.7336999999999989 5.0976,0.7351000000000028 5.092299999999998,0.740000000000002 5.088099999999997,0.7520999999999987 5.084399999999999,0.7550999999999988 5.075899999999997,0.7541000000000011 5.072099999999999,0.7552999999999983 5.066999999999997,0.7650000000000006 5.0504999999999995,0.7785000000000011 5.043199999999999,0.7899999999999991 5.040399999999998,0.7995999999999981 5.0330999999999975,0.814700000000002 5.0208999999999975,0.8233000000000033 4.995799999999999,0.8273999999999972 4.994299999999999,0.8292000000000002 4.995799999999999,0.8308999999999997 4.994899999999998,0.8367999999999967 4.991799999999998,0.8432999999999993 4.985599999999998,0.8492999999999995 4.965699999999998,0.8556000000000026 4.9548999999999985,0.8616000000000028 4.941899999999997,0.8641999999999967 4.928099999999997,0.8714999999999975 4.918999999999997,0.8686999999999969 4.904299999999999,0.8718999999999966 4.885999999999999,0.8663000000000025 4.877899999999997,0.8549000000000007 4.864199999999997,0.8492000000000033 4.863599999999998,0.8462999999999994 4.865499999999997,0.8393999999999977 4.868799999999997,0.8348000000000013 4.865699999999997,0.8301000000000016 4.859499999999997,0.8301999999999978 4.842599999999997,0.8393999999999977 4.8386,0.8393999999999977 4.8278,0.8352999999999966 4.804699999999997,0.8374999999999986 4.7959,0.8402999999999992 4.780099999999997,0.8521000000000001 4.770399999999999,0.855400000000003 4.7591,0.8552000000000035 4.733899999999998,0.859499999999997 4.725899999999999,0.8575000000000017 4.7166999999999994,0.8522000000000034 4.707099999999997,0.8491 4.694699999999997,0.8489999999999966 4.684299999999997,0.8464000000000027 4.6865999999999985,0.8301999999999978 4.681999999999999,0.8228000000000009 4.6707,0.811399999999999 4.658799999999999,0.8057999999999979 4.643999999999998,0.8025999999999982 4.639299999999999,0.7984000000000009 4.639299999999999,0.7824000000000026 4.632199999999997,0.7734000000000023 4.624299999999998,0.7672999999999988 4.598899999999997,0.7661999999999978 4.574299999999997,0.7580999999999989 4.521199999999997,0.752600000000001 4.507299999999997,0.7449999999999974 4.504499999999997,0.740000000000002 4.494699999999998,0.7346000000000004 4.451899999999998,0.7394999999999996 4.437399999999997,0.7432000000000016 4.4163,0.7293000000000021 4.407299999999999,0.7197000000000031 4.395099999999999,0.7229000000000028 4.388299999999997,0.7212000000000032 4.379499999999997,0.7218000000000018 4.369699999999998,0.7263000000000019 4.357599999999998,0.7259999999999991 4.344899999999999,0.7299000000000007 4.320599999999999,0.7308000000000021 4.300699999999999,0.7349000000000032 4.284499999999998,0.7423000000000002 4.2795999999999985,0.7421000000000006 4.276,0.7355000000000018 4.275699999999997,0.7291000000000025 4.248999999999999,0.7165000000000035 4.235099999999999,0.7066999999999979 4.225399999999997,0.6927000000000021 4.2272,0.6859999999999999 4.2353999999999985,0.6792000000000016 4.241999999999997,0.6704000000000008 4.240299999999998,0.6655999999999977 4.230499999999999,0.6555000000000035 4.229199999999999,0.6522000000000006 4.237699999999997,0.6433000000000035 4.224999999999998,0.6351000000000013 4.2134,0.6231999999999971 4.207099999999997,0.6103000000000023 4.202399999999997,0.6067000000000036 4.194199999999999,0.6024999999999991 4.1846,0.6015999999999977 4.040099999999999,0.6013999999999982 4.0336,0.5979000000000028 4.0046,0.5484000000000009 3.995799999999999,0.5240999999999971 3.9975999999999985,0.513300000000001 4.021199999999997,0.4855000000000018 4.026399999999999,0.4772000000000034 4.0183,0.47509999999999764 4.017799999999998,0.47760000000000247 4.002199999999998,0.4778999999999982 3.9907999999999966,0.48279999999999745 3.9846999999999966,0.48170000000000357 3.971899999999998,0.47570000000000334 3.9573,0.47570000000000334 3.9487999999999985,0.4778999999999982 3.9421999999999997,0.4771000000000001 3.9201999999999977,0.4836000000000027 3.915999999999997,0.486699999999999 3.906799999999997,0.4876000000000005 3.9041999999999994,0.49329999999999785 3.8903,0.5054000000000016 3.8911999999999978,0.5118999999999971 3.8867999999999974,0.5131000000000014 3.8863999999999983,0.5097999999999985 3.8827999999999996,0.5108999999999995 3.880499999999998,0.5016999999999996 3.8733999999999966,0.4964000000000013 3.852899999999998,0.49960000000000093 3.839299999999998,0.5045000000000002 3.8349999999999973,0.5076000000000036 3.8334999999999972,0.5131999999999977 3.830499999999997,0.5131999999999977 3.8064,0.5046000000000035 3.7986999999999966,0.49980000000000047 3.786999999999999,0.4975000000000023 3.7770999999999972,0.4928999999999988 3.7723999999999975,0.48799999999999955 3.7753999999999976,0.48919999999999675 3.7699,0.4772999999999996 3.760399999999997,0.47740000000000293 3.749799999999997,0.4806000000000026 3.7429999999999986,0.48100000000000165 3.7363999999999997,0.4782999999999973 3.734099999999998,0.4754999999999967 3.7251999999999974,0.4724000000000004 3.722899999999999,0.46869999999999834 3.7239999999999966,0.46300000000000097 3.7185999999999986,0.4630999999999972 3.7151999999999994,0.4609999999999985 3.717699999999997,0.45649999999999835 3.715299999999999,0.4504999999999981 3.720399999999998,0.44530000000000314 3.7201999999999984,0.4393999999999991 3.722899999999999,0.4350000000000023 3.718499999999999,0.4292999999999978 3.7180999999999997,0.42499999999999716 3.7247999999999983,0.4170000000000016 3.7235999999999976,0.4134999999999991 3.737099999999998,0.40330000000000155 3.7434999999999974,0.40509999999999735 3.7454,0.4029999999999987 3.7474999999999987,0.4052999999999969 3.7500999999999998,0.3994 3.747899999999998,0.39520000000000266 3.752799999999997,0.3896000000000015 3.7638999999999996,0.3902000000000001 3.776799999999998,0.38709999999999667 3.780299999999997,0.3900999999999968 3.7800999999999974,0.3924999999999983 3.7921999999999976,0.39399999999999835 3.7901999999999987,0.3872 3.791999999999998,0.38340000000000174 3.790399999999998,0.37890000000000157 3.791499999999999,0.3763000000000005 3.7968999999999973,0.37480000000000047 3.797599999999999,0.37129999999999797 3.800099999999997,0.3691000000000031 3.8050999999999995,0.36939999999999884 3.8070999999999984,0.36780000000000257 3.8039999999999985,0.3545000000000016 3.801199999999998,0.3171999999999997 3.8123999999999967,0.3149999999999977 3.830199999999998,0.31739999999999924 3.8369999999999997,0.29229999999999734 3.8358999999999988,0.2867999999999995 3.84,0.28240000000000265 3.8382999999999967,0.2792999999999992 3.8344999999999985,0.2775999999999996 3.8264999999999993,0.26599999999999824 3.8287999999999975,0.2629000000000019 3.8263999999999996,0.25610000000000355 3.813299999999998,0.24960000000000093 3.8074999999999974,0.24849999999999994 3.807199999999998,0.24680000000000035 3.8096999999999994,0.2366000000000028 3.8202999999999996,0.22970000000000113 3.8287999999999975,0.22639999999999816 3.842699999999997,0.21340000000000003 3.848399999999998,0.20459999999999923 3.8458999999999968,0.20120000000000005 3.8389999999999986,0.2049999999999983 3.8325999999999993,0.2008999999999972 3.822999999999997,0.1997 3.815899999999999,0.1899000000000015 3.806899999999999,0.1850999999999985 3.809899999999999,0.17269999999999897 3.8064,0.16389999999999816 3.8019,0.1599999999999966 3.8024999999999984,0.1518000000000015 3.797699999999999,0.1501000000000019 3.7943999999999996,0.14670000000000272 3.7928999999999995,0.14000000000000057 3.7867999999999995,0.13580000000000325 3.780199999999997,0.13589999999999947 3.780299999999997,0.13190000000000168 3.7783999999999978,0.12930000000000064 3.7805999999999997,0.12859999999999872 3.778699999999997,0.12519999999999953 3.779399999999999,0.12349999999999994 3.7735999999999983,0.113900000000001 3.763499999999997,0.11690000000000111 3.755899999999997,0.11350000000000193 3.7502999999999993,0.1180000000000021 3.742799999999999,0.11379999999999768 3.7425999999999995,0.11710000000000065 3.7349999999999994,0.11090000000000089 3.7346999999999966,0.1086000000000027 3.722999999999999,0.11229999999999762 3.706999999999997,0.10929999999999751 3.6961999999999975,0.11299999999999955 3.686399999999999,0.11229999999999762 3.6855999999999973,0.11019999999999897 3.6754999999999995,0.1097999999999999 3.674199999999999,0.10699999999999932 3.6546999999999983,0.10430000000000206 3.647199999999998,0.09819999999999851 3.646799999999999,0.09279999999999688 3.642599999999998,0.0882000000000005 3.6266999999999996,0.08319999999999794 3.6187999999999967,0.07789999999999964 3.6093999999999973,0.07759999999999678 3.592799999999997,0.0799999999999983 3.5885999999999996,0.07840000000000202 3.5782999999999987,0.0799999999999983 3.5716,0.07430000000000092 3.562299999999997,0.07309999999999661 3.5468999999999973,0.06560000000000343 3.536299999999997,0.06680000000000064 3.5279999999999987,0.06430000000000291 3.5109999999999992,0.07059999999999889 3.5146999999999977,0.07719999999999771 3.516099999999998,0.0852999999999966 3.5101999999999975,0.08590000000000231 3.4971999999999994,0.08380000000000365 3.495099999999997,0.08659999999999712 3.495799999999999,0.08930000000000149 3.4915999999999983,0.09259999999999735 3.480999999999998,0.0951999999999984 3.4780999999999977,0.09859999999999758 3.4686999999999983,0.10199999999999676 3.466799999999999,0.09909999999999997 3.4614999999999974,0.09969999999999857 3.456699999999998,0.09740000000000038 3.455599999999997,0.09490000000000265 3.451599999999999,0.09660000000000224 3.4441999999999986,0.09510000000000218 3.438399999999998,0.08970000000000056 3.4314,0.08619999999999806 3.427199999999999,0.07979999999999876 3.421599999999998,0.08070000000000022 3.416599999999999,0.07939999999999969 3.410499999999999,0.08279999999999887 3.402799999999999,0.07820000000000249 3.398299999999999,0.07840000000000202 3.3933999999999997,0.08129999999999882 3.375399999999999,0.0812000000000026 3.371299999999998,0.0777000000000001 3.365599999999997,0.07630000000000337 3.3645999999999994,0.07019999999999982 3.360099999999999,0.06470000000000198 3.3614999999999995,0.05859999999999843 3.3576999999999977,0.05640000000000356 3.3482999999999983,0.05830000000000268 3.3439999999999976,0.060600000000000875 3.3421999999999983,0.06400000000000006 3.3325999999999993,0.06629999999999825 3.331199999999999,0.06799999999999784 3.312899999999999,0.07000000000000028 3.306199999999997,0.07560000000000144 3.3005999999999993,0.07459999999999667 3.2951999999999977,0.07560000000000144 3.2901999999999987,0.07330000000000325 3.2852999999999994,0.07330000000000325 3.272199999999998,0.06640000000000157 3.262999999999998,0.06739999999999924 3.2532999999999994,0.07139999999999702 3.2455,0.07099999999999795 3.2394,0.07350000000000279 3.239799999999999,0.0765000000000029 3.2318999999999996,0.07880000000000109 3.2291999999999987,0.08189999999999742 3.2241,0.08039999999999736 3.2089999999999996,0.08109999999999928 3.2063999999999986,0.07809999999999917 3.193999999999999,0.07339999999999947 3.1919999999999966,0.06490000000000151 3.1899999999999977,0.06430000000000291 3.187299999999997,0.058799999999997965 3.183699999999998,0.05579999999999785 3.1846999999999994,0.054000000000002046 3.1824999999999974,0.051600000000000534 3.180799999999998,0.04339999999999833 3.174199999999999,0.042099999999997806 3.165899999999997,0.04840000000000089 3.156699999999997,0.05069999999999908 3.1230999999999973,0.052599999999998204 3.117199999999997,0.046999999999997044 3.1104999999999983,0.04800000000000182 3.1062999999999974,0.04540000000000077 3.1000999999999976,0.04520000000000124 3.0909999999999975,0.040300000000002 3.0803999999999974,0.0397000000000034 3.076699999999999,0.029400000000002535 3.071399999999997,0.029000000000003467 3.0650999999999975,0.030900000000002592 3.0601999999999983,0.029699999999998283 3.0579,0.026099999999999568 3.0513999999999974,0.027000000000001023 3.0429999999999993,0.022500000000000853 3.037099999999999,0.02289999999999992 3.0331999999999972,0.02109999999999701 3.0154999999999994,0.024399999999999977 3.0077999999999996,0.02020000000000266 3.0044999999999966,0.015099999999996783 3.0010999999999974,0.015500000000002956 2.9979999999999976,0.012599999999999056 2.989699999999999,0.012300000000003308 2.9841999999999977,0.00549999999999784 2.978999999999999,0.006999999999997897 2.9757999999999996,0.005699999999997374 2.9636999999999993,0.00840000000000174 2.944499999999998,0.009099999999996555 2.9401999999999973,0.007199999999997431 2.935699999999997,0.0 2.920499999999997,0.007199999999997431 2.900199999999998,0.010800000000003251 2.886999999999997,0.008600000000001273 2.8794999999999966,0.010800000000003251 2.880899999999997,0.017899999999997362 2.8729999999999976,0.02790000000000248 2.8706999999999994,0.027999999999998693 2.8730999999999973,0.03240000000000265 2.870099999999997,0.04260000000000019 2.866199999999999,0.046100000000002694 2.8619999999999983,0.04630000000000223 2.8562999999999974,0.05449999999999733 2.8476,0.055100000000003035 2.8440999999999974,0.058900000000001285 2.837299999999999,0.05749999999999744 2.8308,0.06069999999999709 2.8308999999999997,0.062300000000000466 2.8263,0.0653999999999968 2.8287999999999975,0.07130000000000081 2.817899999999998,0.07529999999999859 2.8171999999999997,0.07809999999999917 2.8142999999999994,0.08070000000000022 2.803799999999999,0.0805999999999969 2.7977999999999987,0.08559999999999945 2.786999999999999,0.08570000000000277 2.784899999999997,0.0876000000000019 "></polygon><polygon points="5.3522,1.2047999999999988 5.353299999999997,1.203400000000002 5.350499999999997,1.2017000000000024 5.341899999999999,1.2019999999999982 5.347199999999997,1.2064999999999984 5.350499999999997,1.2064999999999984 5.3522,1.2047999999999988 "></polygon>
    </svg>
    