
    <svg width="7.924300000000001" height="5.6815" xmlns="http://www.w3.org/2000/svg" xmlns:xlink="http://www.w3.org/1999/xlink" style="transform: scale(1, -1)">
        <polygon points="1.3412000000000006,0.37700000000000067 1.3385000000000007,0.3742000000000001 1.3098,0.3609000000000009 1.2913000000000006,0.3609000000000009 1.2836000000000007,0.35330000000000084 1.2665000000000006,0.35240000000000116 1.2601000000000004,0.3550000000000004 1.2553,0.35350000000000037 1.2501000000000007,0.35710000000000086 1.2478000000000007,0.3559000000000001 1.2412,0.3384999999999998 1.2422000000000004,0.33619999999999983 1.2517000000000005,0.33619999999999983 1.2534,0.3349000000000011 1.2532000000000005,0.3324999999999996 1.2476000000000003,0.3239000000000001 1.2489000000000008,0.31869999999999976 1.2479000000000005,0.3127000000000013 1.2433000000000005,0.307500000000001 1.2438000000000002,0.2995000000000001 1.2394000000000007,0.2978000000000005 1.2345000000000006,0.2901000000000007 1.2388000000000003,0.28279999999999994 1.2351,0.2749000000000006 1.2294,0.26810000000000045 1.2317,0.26149999999999984 1.2293000000000003,0.25430000000000064 1.2301000000000002,0.24880000000000102 1.2280000000000006,0.23680000000000057 1.2185000000000006,0.22100000000000009 1.2002000000000006,0.198500000000001 1.1681000000000008,0.22489999999999988 1.1577000000000002,0.2251000000000012 1.1481000000000003,0.21780000000000044 1.1457000000000006,0.21110000000000007 1.1475,0.20170000000000066 1.1440000000000001,0.19540000000000113 1.1387,0.19299999999999962 1.1294000000000004,0.19340000000000046 1.1245000000000003,0.19589999999999996 1.1146000000000003,0.20530000000000115 1.1082,0.21889999999999965 1.1018000000000008,0.24520000000000053 1.0987,0.251100000000001 1.0855000000000006,0.26120000000000054 1.0813000000000006,0.2613000000000003 1.0528000000000004,0.2519000000000009 1.0255,0.25040000000000084 1.0188000000000006,0.2469999999999999 1.0110000000000001,0.2455999999999996 1.0047000000000006,0.254900000000001 1.0,0.2580000000000009 0.9995000000000003,0.26839999999999975 0.9971000000000005,0.2728999999999999 0.9977,0.2797999999999998 0.9956000000000005,0.2871000000000006 0.9968000000000004,0.3041999999999998 1.0091,0.31430000000000113 1.0116000000000005,0.3188000000000013 1.0135000000000005,0.3323999999999998 1.0121000000000002,0.3387000000000011 1.0094000000000003,0.3412000000000006 0.9996,0.3449000000000009 0.9664000000000001,0.34440000000000026 0.9596,0.33940000000000126 0.9583000000000004,0.3366000000000007 0.9642,0.3239000000000001 0.9719000000000007,0.3216999999999999 0.9736000000000002,0.3186 0.9714,0.3125 0.9627000000000008,0.2992000000000008 0.9541000000000004,0.2896000000000001 0.9479000000000006,0.2862000000000009 0.9384000000000006,0.28669999999999973 0.9287000000000001,0.29290000000000127 0.9272,0.3011999999999997 0.9157000000000002,0.3141999999999996 0.9094000000000007,0.3150000000000013 0.9061000000000003,0.3171999999999997 0.9042000000000003,0.3211000000000013 0.9012000000000002,0.32150000000000034 0.8991000000000007,0.31890000000000107 0.8997999999999999,0.31210000000000093 0.8959000000000001,0.3089000000000013 0.8906000000000001,0.30049999999999955 0.8875000000000002,0.3009000000000004 0.883,0.30540000000000056 0.8744000000000005,0.30630000000000024 0.8703000000000003,0.3131000000000004 0.8661000000000003,0.3130000000000006 0.8616000000000001,0.30990000000000073 0.8592000000000004,0.30510000000000126 0.8598000000000008,0.29659999999999975 0.8531000000000004,0.28770000000000095 0.8501000000000003,0.2871000000000006 0.8442000000000007,0.2895000000000003 0.8366000000000007,0.27810000000000024 0.8265000000000002,0.2759999999999998 0.8244000000000007,0.2771000000000008 0.8228,0.2853000000000012 0.8109000000000002,0.28690000000000104 0.8066000000000004,0.29320000000000057 0.7984,0.31489999999999974 0.7941000000000003,0.32099999999999973 0.7914000000000003,0.32869999999999955 0.782,0.33450000000000024 0.7802000000000007,0.3392999999999997 0.7812000000000001,0.3459000000000003 0.7779000000000007,0.34909999999999997 0.7695000000000007,0.35160000000000124 0.7474000000000007,0.35270000000000046 0.7462,0.3475999999999999 0.7479000000000005,0.335700000000001 0.7421000000000006,0.3351000000000006 0.7338000000000005,0.34140000000000015 0.7326000000000006,0.3536999999999999 0.7288000000000006,0.3562000000000012 0.7187000000000001,0.35410000000000075 0.7198000000000002,0.36350000000000016 0.7183000000000002,0.3681000000000001 0.7150000000000007,0.36870000000000047 0.7091000000000003,0.3670000000000009 0.7008000000000001,0.38349999999999973 0.7026000000000003,0.38540000000000063 0.7282000000000002,0.3821000000000012 0.7302,0.38400000000000034 0.7301000000000002,0.3868000000000009 0.7258000000000004,0.3915000000000006 0.7226000000000008,0.39949999999999974 0.7258000000000004,0.4106000000000005 0.7244999999999999,0.416500000000001 0.7253000000000007,0.42180000000000106 0.7321,0.42910000000000004 0.7302,0.4322999999999997 0.7229000000000001,0.43459999999999965 0.7146000000000008,0.44390000000000107 0.7056000000000004,0.4413999999999998 0.6984000000000004,0.44120000000000026 0.6894,0.450800000000001 0.6898,0.4610000000000003 0.6874000000000002,0.4626999999999999 0.6729000000000003,0.46720000000000006 0.6672000000000002,0.46390000000000065 0.6617000000000006,0.4634999999999998 0.6543000000000001,0.47140000000000093 0.6386000000000003,0.4695999999999998 0.6328000000000005,0.4775000000000009 0.6247000000000007,0.4772999999999996 0.6051000000000002,0.4924999999999997 0.5993000000000004,0.4908999999999999 0.5909000000000004,0.4850000000000012 0.5882000000000005,0.48189999999999955 0.5876000000000001,0.47499999999999964 0.5845000000000002,0.4724000000000004 0.5819000000000001,0.4725999999999999 0.5780000000000003,0.47850000000000037 0.5629,0.4817999999999998 0.5510000000000002,0.49130000000000074 0.5462000000000007,0.5066000000000006 0.5471000000000004,0.5091999999999999 0.5540000000000003,0.5126000000000008 0.5575000000000001,0.520900000000001 0.5587,0.5286000000000008 0.5543000000000005,0.5372000000000003 0.5574000000000003,0.5423000000000009 0.5606,0.5445000000000011 0.5691000000000006,0.5461000000000009 0.5720000000000001,0.551400000000001 0.5701,0.5541 0.5598000000000001,0.5579999999999998 0.5558000000000005,0.5614000000000008 0.5556000000000001,0.5686999999999998 0.5522,0.5728000000000009 0.5358,0.5795000000000012 0.5311000000000003,0.5833000000000013 0.5293000000000001,0.605500000000001 0.5306000000000006,0.6095000000000006 0.5327000000000002,0.6105999999999998 0.5545,0.6029 0.5548000000000002,0.6073000000000004 0.5505000000000004,0.6127000000000002 0.5574000000000003,0.6225000000000005 0.5492000000000008,0.6288 0.5472000000000001,0.6410999999999998 0.5365000000000002,0.6439000000000004 0.5287000000000006,0.6506000000000007 0.5252000000000008,0.6597000000000008 0.5145,0.6645000000000003 0.5066000000000006,0.6623000000000001 0.5013000000000005,0.6638000000000002 0.49770000000000003,0.6692 0.49680000000000035,0.6725000000000012 0.49880000000000013,0.6773000000000007 0.5040000000000004,0.6817000000000011 0.5097000000000005,0.6956000000000007 0.5152000000000001,0.7027999999999999 0.5085000000000006,0.7042000000000002 0.5021000000000004,0.6997 0.4958,0.6994000000000007 0.49160000000000004,0.6974 0.47750000000000004,0.6874000000000002 0.47380000000000067,0.6799 0.46640000000000015,0.6826000000000008 0.45590000000000064,0.6796000000000006 0.45370000000000044,0.684000000000001 0.4557000000000002,0.688600000000001 0.47160000000000046,0.7027000000000001 0.47110000000000074,0.7050000000000001 0.46720000000000006,0.7061000000000011 0.45999999999999996,0.7036999999999995 0.45260000000000034,0.706900000000001 0.4424000000000001,0.7055000000000007 0.4389000000000003,0.7079000000000004 0.4372000000000007,0.7146000000000008 0.4401999999999999,0.7228000000000012 0.4450000000000003,0.7201000000000004 0.45250000000000057,0.7230000000000008 0.4558,0.7222000000000008 0.45870000000000033,0.7175000000000011 0.46170000000000044,0.7163000000000004 0.46450000000000014,0.7178000000000004 0.4710000000000001,0.7177000000000007 0.4748000000000001,0.7226999999999997 0.46970000000000045,0.7306000000000008 0.4507000000000003,0.7336000000000009 0.43900000000000006,0.741200000000001 0.43730000000000047,0.7468000000000004 0.4386000000000001,0.7523 0.4378000000000002,0.7560000000000002 0.4419000000000004,0.7628000000000004 0.4453000000000005,0.7805999999999997 0.4442000000000004,0.7818000000000005 0.4234,0.7786000000000008 0.41380000000000017,0.7744999999999997 0.4085000000000001,0.7752999999999997 0.40420000000000034,0.7802000000000007 0.4073000000000002,0.7838000000000012 0.4204000000000008,0.7866999999999997 0.4276,0.7999000000000009 0.43040000000000056,0.8093000000000004 0.4298000000000002,0.8178999999999998 0.42410000000000014,0.8257000000000012 0.4164000000000003,0.8167000000000009 0.3960000000000008,0.8079000000000001 0.4018000000000006,0.8224999999999998 0.4101000000000008,0.8278999999999996 0.4117000000000006,0.8369 0.4051,0.8369999999999997 0.3993000000000002,0.8411000000000008 0.3980000000000006,0.8486000000000011 0.4001000000000001,0.8552999999999997 0.41220000000000034,0.8605999999999998 0.4187000000000003,0.8674999999999997 0.41990000000000016,0.8710000000000004 0.4148000000000005,0.8745000000000012 0.39840000000000053,0.8777000000000008 0.3977000000000004,0.8814000000000011 0.4043000000000001,0.8903999999999996 0.40779999999999994,0.9036000000000008 0.40420000000000034,0.9030000000000005 0.3946000000000005,0.8974000000000011 0.3902000000000001,0.9060000000000006 0.3875000000000002,0.9068000000000005 0.3864000000000001,0.9000000000000004 0.38200000000000056,0.8992000000000004 0.3709000000000007,0.8869000000000007 0.3614000000000006,0.8827999999999996 0.34800000000000075,0.884500000000001 0.34390000000000054,0.8902999999999999 0.3313000000000006,0.883700000000001 0.3277000000000001,0.8895999999999997 0.33170000000000055,0.8978999999999999 0.3228,0.9037000000000006 0.31289999999999996,0.9074000000000009 0.3109000000000002,0.9100000000000001 0.3133000000000008,0.9150000000000009 0.3120000000000003,0.9212000000000007 0.30880000000000063,0.9211000000000009 0.2964000000000002,0.9083000000000006 0.2868000000000004,0.9145000000000003 0.2596000000000007,0.9121000000000006 0.2525000000000004,0.9088000000000012 0.24870000000000037,0.9137000000000004 0.2403000000000004,0.9146000000000001 0.23819999999999997,0.9130000000000003 0.23760000000000048,0.9080000000000013 0.23280000000000012,0.9083000000000006 0.22350000000000048,0.9177 0.21860000000000035,0.918800000000001 0.21390000000000065,0.9173000000000009 0.21080000000000076,0.9143000000000008 0.2168000000000001,0.9109999999999996 0.21740000000000048,0.9073000000000011 0.21500000000000075,0.9037000000000006 0.20970000000000066,0.9068000000000005 0.20500000000000007,0.9004000000000012 0.19819999999999993,0.9004000000000012 0.18920000000000048,0.8923000000000005 0.18430000000000035,0.8922000000000008 0.17290000000000028,0.8987999999999996 0.16690000000000005,0.9006000000000007 0.16600000000000037,0.9024999999999999 0.16790000000000038,0.9050000000000011 0.16420000000000012,0.9057000000000013 0.15969999999999995,0.9031000000000002 0.15380000000000038,0.8864000000000001 0.1507000000000005,0.8841999999999999 0.14470000000000027,0.8848000000000003 0.13670000000000027,0.8935000000000013 0.1272000000000002,0.8910999999999998 0.12210000000000054,0.8941999999999997 0.1117000000000008,0.8945000000000007 0.10170000000000012,0.9050000000000011 0.09570000000000078,0.9071999999999996 0.09500000000000064,0.9167000000000005 0.0907,0.9218000000000011 0.0860000000000003,0.9215 0.08090000000000064,0.9181000000000008 0.07810000000000006,0.9189000000000007 0.07450000000000045,0.9240000000000013 0.07420000000000027,0.9314 0.07220000000000049,0.9367000000000001 0.06740000000000013,0.9403000000000006 0.05740000000000034,0.9410000000000007 0.05080000000000062,0.9448000000000008 0.04630000000000045,0.9511000000000003 0.0517000000000003,0.9547000000000008 0.051300000000000345,0.9570000000000007 0.0539000000000005,0.9596999999999998 0.04900000000000038,0.9685000000000006 0.050200000000000244,0.9722000000000008 0.04610000000000003,0.9756999999999998 0.04010000000000069,0.9754000000000005 0.03610000000000024,0.9725000000000001 0.03080000000000016,0.976700000000001 0.02970000000000006,0.9793000000000003 0.032399999999999984,0.9836000000000009 0.01920000000000055,1.0071000000000012 0.015900000000000247,1.0079000000000011 0.009400000000000297,1.015600000000001 0.009800000000000253,1.0241000000000007 0.0051000000000005485,1.0219000000000005 0.00140000000000029,1.0221999999999998 0.0034000000000000696,1.0273000000000003 0.0,1.0321999999999996 0.000600000000000378,1.0379000000000005 0.006700000000000372,1.0523000000000007 0.0045999999999999375,1.061300000000001 0.00790000000000024,1.0648999999999997 0.010100000000000442,1.0706000000000007 0.0127000000000006,1.0719000000000012 0.015600000000000058,1.0785 0.019400000000000084,1.0810000000000013 0.021000000000000796,1.0881000000000007 0.02430000000000021,1.0912000000000006 0.02320000000000011,1.0946999999999996 0.03370000000000051,1.1165000000000003 0.04150000000000009,1.1454000000000004 0.05350000000000055,1.1605000000000008 0.04600000000000026,1.1798000000000002 0.052999999999999936,1.1913999999999998 0.053800000000000736,1.196200000000001 0.05140000000000011,1.2040000000000006 0.047300000000000786,1.2071000000000005 0.04130000000000056,1.2088999999999999 0.04050000000000065,1.2126000000000001 0.03790000000000049,1.2140000000000004 0.036000000000000476,1.2223000000000006 0.03900000000000059,1.227500000000001 0.038600000000000634,1.2441000000000013 0.042500000000000426,1.3171999999999997 0.04890000000000061,1.3343000000000007 0.04499999999999993,1.3573000000000004 0.05250000000000021,1.362 0.06630000000000003,1.364700000000001 0.0697000000000001,1.3695000000000004 0.07110000000000039,1.3819 0.07430000000000003,1.3908000000000005 0.07480000000000064,1.402000000000001 0.08079999999999998,1.4111000000000011 0.08390000000000075,1.412700000000001 0.0835000000000008,1.4154 0.08990000000000009,1.4223999999999997 0.09480000000000022,1.4353999999999996 0.09660000000000046,1.4515000000000011 0.09390000000000054,1.4566 0.08340000000000014,1.4670000000000005 0.07050000000000001,1.4710999999999999 0.0539000000000005,1.5044000000000004 0.05460000000000065,1.5328999999999997 0.049600000000000755,1.5419999999999998 0.05030000000000001,1.5606000000000009 0.047100000000000364,1.5646000000000004 0.03200000000000003,1.5693000000000001 0.029300000000000104,1.5721000000000007 0.029600000000000293,1.5760000000000005 0.03230000000000022,1.5799000000000003 0.03230000000000022,1.5937000000000001 0.02430000000000021,1.6227999999999998 0.022400000000000198,1.6620000000000008 0.028200000000000003,1.6707999999999998 0.04830000000000023,1.6766000000000005 0.0528000000000004,1.6795000000000009 0.06050000000000022,1.6796000000000006 0.1247000000000007,1.6967999999999996 0.15520000000000067,1.7167000000000012 0.1775000000000002,1.7355 0.18300000000000072,1.7522000000000002 0.1867000000000001,1.7719000000000005 0.18590000000000018,1.779300000000001 0.19070000000000054,1.7964000000000002 0.20470000000000077,1.8055000000000003 0.23300000000000054,1.8199000000000005 0.24680000000000035,1.833400000000001 0.25150000000000006,1.8478000000000012 0.25430000000000064,1.8650000000000002 0.2511000000000001,1.9341000000000008 0.2514000000000003,1.9488000000000003 0.25320000000000054,1.9577000000000009 0.25950000000000006,1.9672999999999998 0.2726000000000006,1.9769000000000005 0.28720000000000034,1.9830000000000005 0.3026,1.9946000000000002 0.30790000000000006,2.0044000000000004 0.31150000000000055,2.016300000000001 0.3180000000000005,2.0244 0.3194000000000008,2.0313999999999997 0.3169000000000004,2.036100000000001 0.31570000000000054,2.0439000000000007 0.3080000000000007,2.0531000000000006 0.3045,2.0656 0.3084000000000007,2.081800000000001 0.3039000000000005,2.1113999999999997 0.3150000000000004,2.1281 0.3141000000000007,2.1331000000000007 0.30430000000000046,2.1469000000000005 0.2995000000000001,2.1571 0.2962000000000007,2.1700999999999997 0.2957000000000001,2.1842000000000006 0.29020000000000046,2.1904000000000003 0.28420000000000023,2.1935000000000002 0.2776000000000005,2.203800000000001 0.2702,2.2051 0.2403000000000004,2.202300000000001 0.2345000000000006,2.2036 0.22570000000000068,2.2104999999999997 0.21980000000000022,2.2182000000000013 0.21950000000000003,2.2257 0.22990000000000066,2.2493 0.24330000000000052,2.2729999999999997 0.24730000000000008,2.2848000000000006 0.24740000000000073,2.2904999999999998 0.24270000000000014,2.3086 0.24880000000000013,2.3209 0.24790000000000045,2.3310000000000013 0.2538,2.3451000000000004 0.25010000000000066,2.3544 0.2549000000000001,2.3626000000000005 0.24910000000000032,2.365 0.24490000000000034,2.3642000000000003 0.23710000000000075,2.3577000000000012 0.23330000000000073,2.358500000000001 0.22140000000000004,2.3699000000000012 0.22530000000000072,2.3749000000000002 0.21950000000000003,2.3846000000000007 0.20860000000000056,2.385300000000001 0.2030000000000003,2.3925 0.1952000000000007,2.3932 0.1811000000000007,2.4006000000000007 0.17130000000000045,2.401300000000001 0.1676000000000002,2.4044000000000008 0.16470000000000073,2.4019000000000013 0.16159999999999997,2.395200000000001 0.1576000000000004,2.3970000000000002 0.15370000000000061,2.401300000000001 0.14910000000000068,2.402000000000001 0.14470000000000027,2.4098000000000006 0.13560000000000016,2.412000000000001 0.13170000000000037,2.4162999999999997 0.12850000000000072,2.417 0.1247000000000007,2.4137000000000004 0.12270000000000003,2.4137000000000004 0.11880000000000024,2.418100000000001 0.11080000000000023,2.4222 0.10890000000000022,2.4263000000000012 0.10960000000000036,2.4307999999999996 0.11260000000000048,2.434700000000001 0.12090000000000067,2.4358000000000004 0.12910000000000021,2.4388000000000005 0.13060000000000027,2.440800000000001 0.1369000000000007,2.4414 0.1394000000000002,2.436 0.14559999999999995,2.4352 0.15160000000000018,2.4316000000000013 0.15820000000000078,2.4231999999999996 0.1648000000000005,2.4238 0.18540000000000045,2.436300000000001 0.19019999999999992,2.4438000000000013 0.19169999999999998,2.444000000000001 0.19640000000000057,2.4389000000000003 0.21160000000000068,2.4372000000000007 0.21470000000000056,2.445400000000001 0.2259000000000002,2.4525000000000006 0.23270000000000035,2.453100000000001 0.23480000000000079,2.4519 0.23600000000000065,2.443200000000001 0.23870000000000058,2.440100000000001 0.24480000000000057,2.4387000000000008 0.2486000000000006,2.4345 0.25120000000000076,2.4345 0.25560000000000027,2.440800000000001 0.26560000000000006,2.4414999999999996 0.26449999999999996,2.4448000000000008 0.26639999999999997,2.452400000000001 0.2638000000000007,2.453000000000001 0.26840000000000064,2.462200000000001 0.2755000000000001,2.468 0.28300000000000036,2.4692000000000007 0.29440000000000044,2.477400000000001 0.2981000000000007,2.4853000000000005 0.30240000000000045,2.4860000000000007 0.3081000000000005,2.4947 0.32170000000000076,2.4977 0.32590000000000074,2.503 0.33030000000000026,2.5037000000000003 0.3333000000000004,2.5069999999999997 0.33860000000000046,2.5203000000000007 0.3385000000000007,2.5259 0.3402000000000003,2.5288000000000004 0.34970000000000034,2.5330000000000013 0.35720000000000063,2.530800000000001 0.3609,2.5321 0.36240000000000006,2.5467000000000013 0.36430000000000007,2.548300000000001 0.37290000000000045,2.546100000000001 0.3788,2.5485000000000007 0.39220000000000077,2.5587999999999997 0.4074,2.5622000000000007 0.42770000000000064,2.5701 0.4308000000000005,2.5730000000000004 0.4316000000000004,2.576500000000001 0.4358000000000004,2.5770999999999997 0.44040000000000035,2.580400000000001 0.44540000000000024,2.5762 0.4571000000000005,2.5763 0.4691000000000001,2.5808999999999997 0.48410000000000064,2.5829000000000004 0.49710000000000054,2.5798000000000005 0.5068000000000001,2.5856000000000012 0.524,2.581900000000001 0.5300000000000002,2.5831999999999997 0.5387000000000004,2.5907999999999998 0.5421000000000005,2.5885999999999996 0.5451000000000006,2.5889000000000006 0.5499,2.5927000000000007 0.5594000000000001,2.5950000000000006 0.5656000000000008,2.5999999999999996 0.5988000000000007,2.599400000000001 0.6127000000000002,2.6041000000000007 0.6189,2.6014999999999997 0.6261000000000001,2.6028000000000002 0.6313000000000004,2.5997000000000003 0.6378000000000004,2.600100000000001 0.6508000000000003,2.6052999999999997 0.6560000000000006,2.6102000000000007 0.6623000000000001,2.6134000000000004 0.6728000000000005,2.6121999999999996 0.6781000000000006,2.6163000000000007 0.6811000000000007,2.6159 0.6872000000000007,2.608500000000001 0.6928000000000001,2.6065000000000005 0.7115,2.6074 0.7119,2.6088000000000005 0.7312000000000003,2.6065000000000005 0.7555000000000005,2.606200000000001 0.7661000000000007,2.5998 0.7711000000000006,2.5988000000000007 0.7725,2.5999 0.7732000000000001,2.598600000000001 0.7846000000000002,2.595700000000001 0.7875000000000005,2.5973000000000006 0.7943000000000007,2.6057000000000006 0.8014000000000001,2.6298000000000012 0.8012000000000006,2.6365 0.8116000000000003,2.649000000000001 0.8215000000000003,2.6547 0.8357000000000001,2.6563 0.8496000000000006,2.6523000000000003 0.8606000000000007,2.652800000000001 0.8722000000000003,2.6641000000000012 0.8769,2.671100000000001 0.8814000000000002,2.6942000000000004 0.8859000000000004,2.703100000000001 0.8934000000000006,2.7125000000000004 0.9044000000000008,2.7203999999999997 0.9115000000000002,2.723600000000001 0.9183000000000003,2.723700000000001 0.9299,2.7287999999999997 0.9378000000000002,2.7291000000000007 0.9498000000000006,2.733500000000001 0.9574000000000007,2.7485999999999997 0.9573,2.7512000000000008 0.9468000000000005,2.760300000000001 0.9354000000000005,2.7661999999999995 0.9320000000000004,2.770100000000001 0.9279999999999999,2.7810000000000006 0.9279999999999999,2.7888 0.9323000000000006,2.7954000000000008 0.9779,2.831100000000001 0.9952000000000005,2.8476 1.0044000000000004,2.8531000000000013 1.0156,2.8665000000000003 1.0230000000000006,2.8770000000000007 1.0310000000000006,2.893600000000001 1.0323000000000002,2.9154999999999998 1.0345000000000004,2.9217000000000013 1.0421000000000005,2.9258000000000006 1.0519000000000007,2.924900000000001 1.0708000000000002,2.9199 1.0893000000000006,2.908900000000001 1.0952000000000002,2.9076000000000004 1.0979,2.9132 1.0951000000000004,2.9212000000000007 1.0883000000000003,2.9282000000000004 1.0810000000000004,2.9404000000000003 1.0776000000000003,2.9534000000000002 1.0679000000000007,2.9757 1.0660000000000007,3.0136000000000003 1.0680000000000005,3.0256000000000007 1.0809000000000006,3.052900000000001 1.0895000000000001,3.0824999999999996 1.0944000000000003,3.09 1.1188000000000002,3.1171000000000006 1.1254,3.1308000000000007 1.1222000000000003,3.1401000000000003 1.1127000000000002,3.152100000000001 1.1085000000000003,3.161200000000001 1.1058000000000003,3.1735000000000007 1.1029,3.1761999999999997 1.0991,3.1895000000000007 1.0908000000000007,3.2010000000000005 1.0741000000000005,3.215300000000001 1.0556,3.222900000000001 1.0527000000000006,3.2264999999999997 1.0410000000000004,3.2329000000000008 1.0314000000000005,3.2506000000000004 1.0275000000000007,3.2643000000000004 1.0313000000000008,3.283200000000001 1.0294000000000008,3.3094 1.0341000000000005,3.3164 1.0397000000000007,3.3207000000000004 1.045,3.321300000000001 1.0502000000000002,3.3191000000000006 1.0718000000000005,3.3201 1.0794000000000006,3.3225999999999996 1.0923000000000007,3.3222000000000005 1.1390000000000002,3.3301 1.1493000000000002,3.330300000000001 1.1611000000000002,3.3260000000000005 1.1664000000000003,3.3222000000000005 1.1847000000000003,3.303600000000001 1.2076000000000002,3.2965999999999998 1.2244000000000002,3.2981 1.2427000000000001,3.3069000000000006 1.2706,3.3247999999999998 1.2796000000000003,3.3391 1.2856000000000005,3.3544 1.2906000000000004,3.3770000000000007 1.2917000000000005,3.400500000000001 1.2804000000000002,3.4558999999999997 1.2865000000000002,3.5023 1.2856000000000005,3.5107 1.2887000000000004,3.536100000000001 1.287,3.5487 1.2813000000000008,3.5595999999999997 1.2628000000000004,3.5778 1.2373000000000003,3.6082 1.2275,3.636700000000001 1.218,3.6586 1.2058,3.676400000000001 1.1855000000000002,3.6994000000000007 1.1656000000000004,3.715200000000001 1.1619000000000002,3.7216000000000005 1.1635,3.7329000000000008 1.173,3.7451000000000008 1.1823000000000006,3.749500000000001 1.2153,3.7721 1.2315000000000005,3.7796000000000003 1.2668,3.7784000000000013 1.2726000000000006,3.781500000000001 1.2773000000000003,3.7879000000000005 1.2752000000000008,3.7963000000000005 1.2711000000000006,3.8019999999999996 1.2642000000000007,3.8072999999999997 1.2585000000000006,3.8185000000000002 1.2581000000000007,3.8237000000000005 1.2606000000000002,3.8286 1.2962000000000007,3.857100000000001 1.3127000000000004,3.8659999999999997 1.3404000000000007,3.8756000000000004 1.3626000000000005,3.889000000000001 1.3718000000000004,3.8973000000000013 1.3740000000000006,3.9022000000000006 1.3855000000000004,3.9107000000000003 1.3962000000000003,3.9250000000000007 1.4035000000000002,3.941700000000001 1.4103000000000003,3.9723000000000006 1.4163000000000006,3.9848 1.4264000000000001,3.994300000000001 1.4502000000000006,4.002600000000001 1.4606000000000003,4.0105 1.4656000000000002,4.017000000000001 1.4825,4.025500000000001 1.5131000000000006,4.032400000000001 1.5205000000000002,4.0388 1.5343000000000004,4.0587 1.5356000000000005,4.0725 1.5324000000000004,4.0901 1.5344000000000002,4.0947 1.5469000000000004,4.100100000000001 1.5566000000000004,4.0982 1.5621000000000005,4.094200000000001 1.5693000000000001,4.069800000000001 1.5687000000000002,4.0654 1.5726000000000004,4.058200000000001 1.5791000000000004,4.053700000000001 1.5987000000000005,4.048 1.6031000000000004,4.0435 1.6033000000000004,4.035400000000001 1.5991000000000004,4.0305 1.5606000000000004,4.0204 1.5488000000000004,4.0128 1.5441000000000003,4.006500000000001 1.5451000000000001,3.992700000000001 1.5514000000000006,3.985900000000001 1.5581000000000005,3.9817 1.5723000000000003,3.9756 1.6065000000000005,3.9779999999999998 1.6417000000000002,3.9694000000000003 1.6666000000000003,3.9612 1.6847000000000003,3.9604999999999997 1.7051000000000003,3.9619 1.7212000000000005,3.9574 1.7419000000000002,3.9443 1.7542000000000004,3.9324000000000012 1.7838000000000003,3.894 1.7963000000000005,3.882100000000001 1.8325000000000005,3.8696 1.8475000000000001,3.8613999999999997 1.8582000000000005,3.8531000000000013 1.8928000000000003,3.8199000000000005 1.9191000000000003,3.8011 1.9361000000000002,3.7955000000000005 1.9397000000000002,3.792200000000001 1.9681000000000002,3.7805999999999997 1.9867000000000004,3.770900000000001 2.0407,3.758700000000001 2.0501000000000005,3.7589000000000006 2.0541000000000005,3.7569 2.0701000000000005,3.7568 2.0857000000000006,3.761800000000001 2.0962000000000005,3.7746000000000013 2.0993000000000004,3.7924000000000007 2.0938000000000003,3.8295000000000012 2.0847,3.8480000000000008 2.0840000000000005,3.856 2.0874,3.862300000000001 2.0941000000000005,3.866100000000001 2.1152,3.8705 2.1487000000000003,3.873900000000001 2.1651000000000002,3.8735999999999997 2.1775,3.8758999999999997 2.2628000000000004,3.8827999999999996 2.2749,3.8888 2.2811000000000003,3.9045000000000005 2.2804,3.9156000000000013 2.2752000000000003,3.9276 2.2745,3.9377000000000013 2.2593000000000005,3.9579000000000004 2.2560000000000002,4.022600000000001 2.2492000000000005,4.0754 2.2369000000000003,4.133000000000001 2.2399000000000004,4.1446000000000005 2.2479000000000005,4.1579 2.2504000000000004,4.1591000000000005 2.2583,4.1746 2.2617000000000003,4.2048000000000005 2.2624000000000004,4.2239 2.2606,4.2301 2.2638000000000003,4.247400000000001 2.2626000000000004,4.268800000000001 2.2570000000000006,4.2774 2.2383,4.2951 2.2351000000000005,4.299900000000001 2.2341,4.305200000000001 2.2393000000000005,4.3147 2.2463,4.3171 2.2573000000000003,4.317400000000001 2.2795000000000005,4.311400000000001 2.2900000000000005,4.3077000000000005 2.3091000000000004,4.2955000000000005 2.3333000000000004,4.2842 2.3500000000000005,4.284800000000001 2.3846000000000003,4.294500000000001 2.4116000000000004,4.2943 2.4159,4.2926 2.4360000000000004,4.2757000000000005 2.4502,4.2620000000000005 2.4590000000000005,4.2346 2.4674000000000005,4.222800000000001 2.4733000000000005,4.2225 2.4798000000000004,4.227400000000001 2.4961,4.256500000000001 2.5016000000000003,4.2621 2.5124000000000004,4.266500000000001 2.5237000000000003,4.262500000000001 2.5652000000000004,4.2257 2.5748,4.227500000000001 2.5817000000000005,4.233600000000001 2.5895000000000006,4.2347 2.6469000000000005,4.254200000000001 2.6159000000000003,4.3233 2.623,4.4245 2.6865000000000006,4.5968 2.6675000000000004,4.601100000000001 2.6819,4.659500000000001 2.7015000000000002,4.669500000000001 2.7014000000000005,4.6683 2.8466000000000005,4.7331 2.9466000000000006,4.8216 2.9426000000000005,4.828100000000001 3.0424,4.896800000000001 3.1201000000000003,4.8735 3.1207000000000003,4.875 3.1250000000000004,4.8763000000000005 3.2269000000000005,4.851100000000001 3.4131000000000005,4.7492 3.5252000000000003,4.794700000000001 3.5435000000000003,5.0798000000000005 3.7729000000000004,5.0847 3.8440000000000003,5.1058 4.204000000000001,5.3325 4.363300000000001,5.3705 4.431,5.389000000000001 4.471,5.421900000000001 4.4871,5.433 4.5171,5.446900000000001 4.567200000000001,5.4838000000000005 4.5932,5.510300000000001 4.5852,5.513200000000001 4.6348,5.5516000000000005 4.6627,5.580300000000001 4.675800000000001,5.5913 4.6793000000000005,5.5968 4.6951,5.6122 4.731400000000001,5.638300000000001 4.755800000000001,5.652800000000001 4.7797,5.669600000000001 4.7997000000000005,5.6793 4.8174,5.680400000000001 4.9888,5.6789000000000005 5.0568,5.6815 5.0632,5.6797 5.0768,5.667 5.0989,5.6381 5.1153,5.612300000000001 5.1212,5.607800000000001 5.1302,5.6065000000000005 5.1425,5.6103000000000005 5.2019,5.645100000000001 5.2172,5.652200000000001 5.2491,5.670400000000001 5.2651,5.6759 5.287100000000001,5.670300000000001 5.3394,5.650400000000001 5.351,5.6487 5.3552,5.645100000000001 5.3702000000000005,5.6381 5.383500000000001,5.635200000000001 5.482200000000001,5.596500000000001 5.5097000000000005,5.584100000000001 5.5811,5.576700000000001 5.6135,5.577 5.6402,5.5793 5.6607,5.579000000000001 5.667800000000001,5.5807 5.6831000000000005,5.579700000000001 5.7195,5.5878 5.7483,5.5886 5.7479000000000005,5.577 5.7546,5.485000000000001 5.747000000000001,5.468200000000001 5.7209,5.4383 5.755000000000001,5.3484 5.750100000000001,5.320600000000001 5.7313,5.267200000000001 5.6965,5.181600000000001 5.6852,5.132300000000001 5.6869000000000005,5.122200000000001 5.6957,5.0913 5.7109000000000005,5.0595 5.7286,5.042900000000001 5.7335,5.048300000000001 5.785500000000001,4.9894 5.794300000000001,4.9773 5.8154,4.9658 5.8418,4.9609000000000005 5.8577,4.9419 5.872400000000001,4.920200000000001 5.889,4.9071 5.904800000000001,4.887600000000001 5.922700000000001,4.848600000000001 5.9058,4.8209 5.9099,4.789100000000001 5.892,4.7719000000000005 5.875900000000001,4.747300000000001 5.8768,4.7369 5.8822,4.725100000000001 5.9008,4.701500000000001 5.9032,4.694100000000001 5.914000000000001,4.6852 5.9030000000000005,4.6693999999999996 5.9177,4.626800000000001 5.9294,4.6099 5.941000000000001,4.5985 5.969200000000001,4.576600000000001 5.972300000000001,4.5686 5.9694,4.5555 5.9741,4.5489 5.9823,4.550800000000001 5.9994000000000005,4.5647 6.0021,4.5502 5.9994000000000005,4.541500000000001 5.9923,4.536100000000001 5.990500000000001,4.5288 5.9923,4.5166 5.9954,4.5093 6.010800000000001,4.4931 6.0236,4.4853000000000005 6.039700000000001,4.472800000000001 6.045100000000001,4.465300000000001 6.045800000000001,4.446 6.049300000000001,4.4396 6.0593,4.433 6.0701,4.430300000000001 6.0971,4.411900000000001 6.1009,4.408200000000001 6.1036,4.393800000000001 6.108300000000001,4.3865 6.1211,4.379900000000001 6.1321,4.377700000000001 6.1326,4.385200000000001 6.1394,4.3855 6.139900000000001,4.3789 6.1383,4.3766 6.1442000000000005,4.3702000000000005 6.144500000000001,4.3642 6.1401,4.354700000000001 6.118600000000001,4.3293 6.1192,4.3178 6.1242,4.3087 6.1379,4.298 6.154400000000001,4.292300000000001 6.2915,4.2919 6.3158,4.276200000000001 6.3034,4.272400000000001 6.2973,4.263200000000001 6.3005,4.2416 6.346100000000001,4.217600000000001 6.3653,4.2227 6.426,4.217600000000001 6.4317,4.211600000000001 6.457000000000001,4.1957 6.4775,4.179500000000001 6.492500000000001,4.1747 6.508900000000001,4.1753 6.524800000000001,4.1572 6.5337000000000005,4.129900000000001 6.526300000000001,4.1183 6.533,4.0863 6.5597,4.082000000000001 6.5867,4.0604 6.606800000000001,4.059700000000001 6.655600000000001,4.0129 6.675000000000001,4.0116 6.6787,4.0052 6.740500000000001,3.9862 6.7598,3.9903000000000013 6.7999,3.9574999999999996 6.8019,3.9512 6.7981,3.9488000000000003 6.7554,3.9322 6.7502,3.9326000000000008 6.739800000000001,3.949300000000001 6.7396,3.9596999999999998 6.7358,3.9696 6.7297,3.972800000000001 6.7212000000000005,3.972800000000001 6.7233,3.9484000000000012 6.7201,3.945400000000001 6.720400000000001,3.9344 6.705400000000001,3.9159000000000006 6.7014000000000005,3.915700000000001 6.695500000000001,3.9191000000000003 6.6676,3.921100000000001 6.6638,3.9297000000000004 6.6627,3.9289000000000005 6.6512,3.9358000000000004 6.645700000000001,3.9313000000000002 6.6424,3.933200000000001 6.6386,3.9319000000000006 6.572,3.967500000000001 6.5476,3.9659000000000013 6.5377,3.9711 6.5177000000000005,3.972200000000001 6.5107,3.969800000000001 6.509600000000001,3.922500000000001 6.5105,3.706900000000001 6.5117,3.658100000000001 6.516400000000001,3.598600000000001 6.6423000000000005,3.5984 6.685300000000001,3.5637000000000008 6.7096,3.5417000000000005 6.7209,3.5349000000000004 6.729100000000001,3.5257000000000005 6.8115000000000006,3.4578000000000007 6.8216,3.4513999999999996 6.8367,3.437000000000001 6.8461,3.430900000000001 6.859100000000001,3.418000000000001 6.907100000000001,3.3781999999999996 6.9294,3.3621999999999996 6.9522,3.3423 7.095000000000001,3.232000000000001 7.2022,3.2234999999999996 7.208500000000001,3.2249 7.229100000000001,3.2226 7.313400000000001,3.220600000000001 7.3249,3.2188 7.3649000000000004,3.218 7.3827,3.215300000000001 7.3928,3.2171000000000003 7.4436,3.3034999999999997 7.4678,3.2964 7.4804,3.3109 7.4964,3.3361 7.532,3.327300000000001 7.5803,3.3261000000000003 7.601700000000001,3.3200000000000003 7.6105,3.3263999999999996 7.623100000000001,3.3298000000000005 7.6297,3.3057999999999996 7.634600000000001,3.3046000000000006 7.647500000000001,3.2962000000000007 7.679500000000001,3.286900000000001 7.6767,3.2611000000000008 7.670400000000001,3.248000000000001 7.7149,3.2230000000000008 7.744800000000001,3.1819000000000006 7.7472,3.120700000000001 7.7867,3.0738000000000003 7.790100000000001,3.066700000000001 7.7873,3.0538000000000007 7.7858,3.0351 7.793200000000001,3.0273000000000003 7.791500000000001,3.0252 7.780100000000001,3.0234000000000005 7.7811,3.0175 7.7721,3.0142000000000007 7.767200000000001,3.019 7.754900000000001,3.0249000000000006 7.742900000000001,3.021600000000001 7.734400000000001,3.0130999999999997 7.7211,3.0214 7.705400000000001,3.0205 7.7005,3.0229999999999997 7.6930000000000005,3.023200000000001 7.683400000000001,3.0182 7.6741,3.0189000000000004 7.671,3.0175 7.673,3.0105000000000004 7.6623,3.007900000000001 7.6539,3.0005000000000006 7.6450000000000005,2.9975000000000005 7.6364,2.9906000000000006 7.6303,2.9795999999999996 7.6263000000000005,2.9779999999999998 7.623,2.9787 7.6106,2.992700000000001 7.6069,2.9945000000000004 7.601000000000001,2.9924 7.591100000000001,2.981200000000001 7.5883,2.9746000000000006 7.5913,2.9718999999999998 7.5914,2.9686000000000003 7.5834,2.960000000000001 7.583600000000001,2.9551 7.5853,2.9497999999999998 7.865600000000001,2.575700000000001 7.890600000000001,2.5403000000000002 7.9009,2.5307000000000013 7.9147,2.5109000000000012 7.924300000000001,2.5005000000000006 7.9237,2.4969 7.9213000000000005,2.495000000000001 7.916,2.4944000000000006 7.9134,2.488100000000001 7.9213000000000005,2.4734 7.9215,2.4695 7.9192,2.466000000000001 7.908,2.4617000000000004 7.8981,2.453000000000001 7.8932,2.436 7.894400000000001,2.4322999999999997 7.8969000000000005,2.4297000000000004 7.901400000000001,2.4288000000000007 7.902100000000001,2.4265000000000008 7.9,2.422600000000001 7.889,2.4170999999999996 7.8866000000000005,2.4123 7.889,2.405800000000001 7.8871,2.401 7.891,2.3969000000000005 7.8913,2.3920000000000012 7.8689,2.388200000000001 7.8593,2.3842999999999996 7.857200000000001,2.3691000000000013 7.8478,2.360100000000001 7.838000000000001,2.3551 7.8329,2.3450000000000006 7.8226,2.334200000000001 7.821400000000001,2.324300000000001 7.8181,2.319700000000001 7.819700000000001,2.3072999999999997 7.8256000000000006,2.2958 7.8227,2.2848000000000006 7.8237000000000005,2.2818000000000005 7.8285,2.2797 7.8246,2.2733000000000008 7.776400000000001,2.2468000000000004 7.7377,2.2086000000000006 7.7251,2.1999000000000013 7.712,2.1996 7.7043,2.1961000000000013 7.6852,2.1759000000000004 7.676200000000001,2.1685 7.663600000000001,2.1531000000000002 7.6096,2.097800000000001 7.5921,2.082600000000001 7.5381,2.0266 7.529300000000001,2.0221999999999998 7.500900000000001,2.0189000000000004 7.4778,2.0205 7.4752,2.0191 7.4314,2.0296000000000003 7.411300000000001,2.038500000000001 7.4031,2.036900000000001 7.3916,2.0447000000000006 7.3862000000000005,2.0442 7.3666,2.0373 7.3645000000000005,2.0435 7.3606,2.0433000000000003 7.3545,2.0371000000000006 7.3471,2.033200000000001 7.3405000000000005,2.0318000000000005 7.3261,2.035400000000001 7.321400000000001,2.0348000000000006 7.316700000000001,2.0305999999999997 7.3142000000000005,2.0252999999999997 7.3063,2.0237 7.3021,2.0206999999999997 7.296200000000001,2.021000000000001 7.2925,2.0182 7.2827,2.0214 7.2774,2.0212000000000003 7.2746,2.0161 7.2713,2.015600000000001 7.266900000000001,2.0191 7.2587,2.0153999999999996 7.2554,2.016300000000001 7.2526,2.0206999999999997 7.248200000000001,2.0228 7.2410000000000005,2.0221 7.2363,2.0287000000000006 7.2330000000000005,2.0280000000000005 7.2263,2.0142000000000007 7.2186,2.0069 7.2119,2.0082000000000004 7.2065,2.013300000000001 7.2023,2.0130999999999997 7.1892000000000005,1.9995000000000012 7.182,1.9953000000000003 7.167800000000001,1.9954999999999998 7.161700000000001,2.0013000000000005 7.1564000000000005,2.000400000000001 7.144,1.9898000000000007 7.1394,1.9893 7.1326,1.9930000000000003 7.118600000000001,1.9936000000000007 7.1119,1.9970999999999997 7.1086,2.0021000000000004 7.1088000000000005,2.020100000000001 7.102,2.0267 7.093400000000001,2.0288000000000004 7.099200000000001,2.0382 7.0978,2.0424000000000007 7.0913,2.0433000000000003 7.087300000000001,2.0458 7.0868,2.0561000000000007 7.078900000000001,2.0612000000000013 7.0756000000000006,2.0688000000000013 7.073300000000001,2.070400000000001 7.069500000000001,2.0694999999999997 7.0602,2.0495 7.056100000000001,2.0467000000000013 7.050700000000001,2.0462000000000007 7.042800000000001,2.0487 7.0374,2.0533 7.028300000000001,2.0554000000000006 7.0201,2.065200000000001 7.0136,2.0648 6.9991,2.0534999999999997 6.9947,2.053000000000001 6.986800000000001,2.0654000000000003 6.979100000000001,2.0624000000000002 6.970400000000001,2.0615000000000006 6.9651000000000005,2.0638000000000005 6.962000000000001,2.0711000000000013 6.9590000000000005,2.072700000000001 6.9534,2.0711000000000013 6.9499,2.065100000000001 6.9446,2.065100000000001 6.9411000000000005,2.0548 6.9381,2.0513000000000012 6.9332,2.0504 6.9266000000000005,2.0531000000000006 6.903300000000001,2.0411 6.8987,2.0223000000000013 6.9025,2.0084999999999997 6.9088,2.0054999999999996 6.9095,2.0016 6.9072000000000005,1.9984000000000002 6.8941,1.9962999999999997 6.8916,1.9891000000000005 6.8809000000000005,1.983600000000001 6.8783,1.984 6.8757,1.9891000000000005 6.8727,1.9893 6.8699,1.9861000000000004 6.870800000000001,1.9802999999999997 6.862500000000001,1.9707000000000008 6.863200000000001,1.9659000000000013 6.859500000000001,1.9629000000000012 6.854100000000001,1.9611999999999998 6.8422,1.9626000000000001 6.838900000000001,1.9617000000000004 6.8369,1.9580000000000002 6.8406,1.952 6.8394,1.9479000000000006 6.8453,1.9336000000000002 6.8509,1.9304000000000006 6.850700000000001,1.9223999999999997 6.8598,1.9101999999999997 6.8598,1.907 6.8573,1.9042000000000012 6.850300000000001,1.9001000000000001 6.845700000000001,1.8899000000000008 6.844,1.8887999999999998 6.833500000000001,1.8915000000000006 6.830500000000001,1.898200000000001 6.827,1.9000000000000004 6.8226,1.8993000000000002 6.820500000000001,1.8908000000000005 6.8093,1.892100000000001 6.8018,1.9091000000000005 6.7936000000000005,1.9160000000000004 6.784700000000001,1.9200999999999997 6.7780000000000005,1.9199000000000002 6.774500000000001,1.9170999999999996 6.7715000000000005,1.9108999999999998 6.7737,1.8887999999999998 6.777200000000001,1.879900000000001 6.7807,1.8760000000000012 6.7856000000000005,1.875300000000001 6.7884,1.8789999999999996 6.7827,1.8847000000000005 6.782500000000001,1.8872999999999998 6.784800000000001,1.8888999999999996 6.7897,1.8884000000000007 6.793,1.882200000000001 6.792300000000001,1.8726000000000003 6.7952,1.863100000000001 6.792800000000001,1.8588000000000005 6.7793,1.853200000000001 6.771000000000001,1.8442000000000007 6.767200000000001,1.8445 6.7469,1.8582 6.7418000000000005,1.8590999999999998 6.7309,1.8572000000000006 6.7250000000000005,1.8597000000000001 6.7099,1.8574000000000002 6.7041,1.8575999999999997 6.700100000000001,1.8605999999999998 6.6957,1.8613 6.6875,1.8596000000000004 6.6784,1.860100000000001 6.6667000000000005,1.8697 6.6609,1.869200000000001 6.6553,1.8648000000000007 6.6481,1.8554000000000013 6.6479,1.8506 6.655200000000001,1.8359000000000005 6.6622,1.8300999999999998 6.6725,1.8265000000000011 6.6753,1.8228000000000009 6.6746,1.8179999999999996 6.6683,1.8097000000000012 6.670400000000001,1.8064999999999998 6.667400000000001,1.8021000000000011 6.6714,1.7973 6.6686000000000005,1.7878000000000007 6.6714,1.7803000000000004 6.6694,1.7744999999999997 6.679,1.763300000000001 6.6748,1.7599999999999998 6.6694,1.7603000000000009 6.665900000000001,1.7628000000000004 6.6601,1.7726000000000006 6.6372,1.7705000000000002 6.6307,1.7652 6.6159,1.7462999999999997 6.6103000000000005,1.744200000000001 6.5793,1.7446000000000002 6.574400000000001,1.7420000000000009 6.5717,1.7383000000000006 6.5735,1.7308000000000003 6.569800000000001,1.7266000000000012 6.578900000000001,1.7186000000000003 6.583600000000001,1.7177000000000007 6.5871,1.7223000000000006 6.5861,1.7278000000000002 6.592700000000001,1.7248 6.5971,1.7177000000000007 6.602,1.7165999999999997 6.6055,1.712200000000001 6.6035,1.7040000000000006 6.609100000000001,1.6987000000000005 6.6054,1.6888000000000005 6.6119,1.6847000000000012 6.6154,1.6773000000000007 6.6124,1.6679000000000013 6.6187000000000005,1.6615000000000002 6.6185,1.6555 6.6342,1.6401000000000003 6.6349,1.6374000000000013 6.6291,1.6293000000000006 6.619000000000001,1.6405000000000012 6.6099000000000006,1.6476000000000006 6.6036,1.6506000000000007 6.593400000000001,1.6527000000000012 6.588500000000001,1.6578999999999997 6.5838,1.6577000000000002 6.562,1.6479999999999997 6.554,1.6484000000000005 6.5487,1.6516000000000002 6.541,1.6621000000000006 6.5353,1.6782000000000004 6.532,1.6822999999999997 6.5281,1.6845999999999997 6.5181000000000004,1.6845999999999997 6.508100000000001,1.6792999999999996 6.5031,1.687800000000001 6.5006,1.6896000000000004 6.4975000000000005,1.689400000000001 6.4908,1.6811000000000007 6.489000000000001,1.6734000000000009 6.490200000000001,1.6632999999999996 6.4888,1.6569000000000003 6.4678,1.6347000000000005 6.4405,1.6164000000000005 6.431100000000001,1.5953999999999997 6.42,1.594800000000001 6.4167000000000005,1.5970000000000013 6.3870000000000005,1.5942000000000007 6.3733,1.5942000000000007 6.367,1.596400000000001 6.260400000000001,1.5951000000000004 6.2334000000000005,1.5973000000000006 6.1898,1.596400000000001 6.158,1.5984999999999996 6.1302,1.5836000000000006 6.1099000000000006,1.5749000000000013 6.101100000000001,1.5778999999999996 6.0944,1.5776000000000003 6.0696,1.5661000000000005 6.0566,1.556700000000001 6.0197,1.5355000000000008 6.0281,1.5515000000000008 6.028700000000001,1.5767000000000007 6.026000000000001,1.5836000000000006 6.0139000000000005,1.5836000000000006 6.0103,1.5858000000000008 6.0216,1.603200000000001 6.0228,1.611600000000001 5.9638,1.6222000000000012 5.9329,1.6316000000000006 5.8782000000000005,1.643600000000001 5.8104000000000005,1.6493000000000002 5.785500000000001,1.6557000000000013 5.7102,1.6705000000000005 5.665,1.6834000000000007 5.6197,1.6918000000000006 5.5544,1.7102000000000004 5.5124,1.7146000000000008 5.4642,1.724400000000001 5.425400000000001,1.728200000000001 5.3872,1.7369000000000003 5.3863,1.7353000000000005 5.383900000000001,1.7360000000000007 5.3824000000000005,1.7386999999999997 5.3669,1.7413000000000007 5.3573,1.7459000000000007 5.3411,1.7504000000000008 5.242900000000001,1.7736999999999998 5.2382,1.7706 5.235600000000001,1.7664000000000009 5.234100000000001,1.7522000000000002 5.2304,1.7502000000000013 5.2292000000000005,1.7466000000000008 5.235600000000001,1.7409999999999997 5.2458,1.738100000000001 5.2472,1.7363999999999997 5.248600000000001,1.7276000000000007 5.245500000000001,1.7224000000000004 5.2231000000000005,1.7175000000000011 5.215400000000001,1.718300000000001 5.2088,1.7141000000000002 5.1984,1.7140000000000004 5.1822,1.7056000000000004 5.183400000000001,1.699300000000001 5.1785000000000005,1.6858000000000004 5.1726,1.6834000000000007 5.165500000000001,1.6835000000000004 5.163600000000001,1.6712000000000007 5.159000000000001,1.6679000000000013 5.157500000000001,1.6684 5.1585,1.6768 5.1530000000000005,1.6797000000000004 5.1485,1.6852999999999998 5.1465000000000005,1.6911000000000005 5.1479,1.6975999999999996 5.143000000000001,1.705 5.144,1.7172999999999998 5.1463,1.7220000000000013 5.1427000000000005,1.7228000000000012 5.1408000000000005,1.7208000000000006 5.1372,1.7247000000000003 5.133900000000001,1.7256999999999998 5.131,1.7236000000000011 5.125900000000001,1.7233999999999998 5.1248000000000005,1.7248 5.1211,1.7241999999999997 5.1177,1.7257999999999996 5.1143,1.7248999999999999 5.1134,1.7218 5.1082,1.7186000000000003 5.1047,1.7199000000000009 5.0976,1.7135999999999996 5.090800000000001,1.7131000000000007 5.0872,1.7026000000000003 5.0886000000000005,1.6949000000000005 5.086600000000001,1.6865000000000006 5.087400000000001,1.6849000000000007 5.0791,1.6639 5.0841,1.646700000000001 5.0803,1.6432000000000002 5.0853,1.636000000000001 5.081,1.6293000000000006 5.0628,1.6288 5.0578,1.626900000000001 5.0505,1.6321000000000012 5.043200000000001,1.6341999999999999 5.037000000000001,1.6247000000000007 5.038600000000001,1.6218000000000004 5.0331,1.6195000000000004 5.032900000000001,1.6212 5.0304,1.6210000000000004 5.0284,1.6191000000000013 5.024100000000001,1.619200000000001 5.0171,1.6156000000000006 5.0183,1.6109000000000009 5.016400000000001,1.6052999999999997 5.0179,1.6043000000000003 5.0175,1.6011000000000006 5.014900000000001,1.5999999999999996 5.0143,1.5972000000000008 5.008100000000001,1.5912000000000006 5.0076,1.5877999999999997 5.002400000000001,1.591000000000001 5.0021,1.5899 4.995900000000001,1.590300000000001 4.992800000000001,1.5978000000000012 4.9893,1.5995000000000008 4.9831,1.5942000000000007 4.9825,1.5900999999999996 4.9748,1.5833000000000013 4.974200000000001,1.5739 4.9703,1.5778999999999996 4.967700000000001,1.5780000000000012 4.966900000000001,1.5810000000000013 4.969,1.5824999999999996 4.966,1.5896000000000008 4.960000000000001,1.5884 4.9531,1.591800000000001 4.950100000000001,1.590300000000001 4.9459,1.5831999999999997 4.943300000000001,1.5746000000000002 4.939100000000001,1.569700000000001 4.9396,1.5671 4.9373000000000005,1.5620000000000012 4.9328,1.559800000000001 4.9312000000000005,1.546800000000001 4.9332,1.5418000000000003 4.9313,1.5393000000000008 4.9325,1.537700000000001 4.9274000000000004,1.5342000000000002 4.925400000000001,1.5297999999999998 4.925700000000001,1.5226000000000006 4.9168,1.519400000000001 4.912800000000001,1.5149000000000008 4.9077,1.513300000000001 4.905200000000001,1.5107 4.901800000000001,1.5111000000000008 4.900600000000001,1.5090000000000003 4.899100000000001,1.5127000000000006 4.9003000000000005,1.5157000000000007 4.896800000000001,1.5198999999999998 4.8951,1.5328999999999997 4.8925,1.5381 4.8895,1.5404 4.8834,1.5408000000000008 4.8706000000000005,1.5490000000000013 4.8738,1.5540000000000003 4.8653,1.5627000000000013 4.862500000000001,1.5622000000000007 4.8574,1.5553000000000008 4.847700000000001,1.5578000000000003 4.847200000000001,1.5601000000000003 4.8551,1.573500000000001 4.8616,1.5736000000000008 4.8635,1.575000000000001 4.8666,1.5807000000000002 4.865200000000001,1.586500000000001 4.8514,1.5874000000000006 4.846500000000001,1.5892999999999997 4.841200000000001,1.5815000000000001 4.838,1.5818000000000012 4.833200000000001,1.5845000000000002 4.832000000000001,1.589500000000001 4.8348,1.5975000000000001 4.772600000000001,1.5960999999999999 4.7114,1.5968999999999998 4.7113000000000005,1.6047000000000011 4.6916,1.6054000000000013 4.6905,1.5972000000000008 4.6639,1.5972000000000008 4.656000000000001,1.5835000000000008 4.6489,1.5655999999999999 4.6263000000000005,1.5617 4.626600000000001,1.5632000000000001 4.6301000000000005,1.564400000000001 4.6299,1.5797000000000008 4.6286000000000005,1.5808 4.6023000000000005,1.5792000000000002 4.6024,1.6011000000000006 4.5678,1.6013000000000002 4.5425,1.5973000000000006 4.518800000000001,1.5967000000000002 4.5186,1.6067999999999998 4.404100000000001,1.6028000000000002 4.4043,1.5846999999999998 4.3611,1.5875000000000004 4.2419,1.5899 4.1814,1.5873000000000008 4.148000000000001,1.5877999999999997 4.1417,1.5850000000000009 4.1345,1.5881000000000007 4.1271,1.5876000000000001 4.122800000000001,1.589500000000001 4.11,1.6014 4.0961,1.619200000000001 4.0955,1.6141000000000005 4.0898,1.612400000000001 4.090400000000001,1.6100000000000012 3.9748,1.6090999999999998 3.9731000000000005,1.639100000000001 3.7744000000000004,1.6369000000000007 3.7755,1.607000000000001 3.5126000000000004,1.6029 3.4609000000000005,1.6164000000000005 3.4361,1.6135000000000002 3.4005000000000005,1.6132000000000009 3.2987,1.6196000000000002 3.2465,1.6157000000000004 3.2188000000000003,1.6100000000000012 3.1587000000000005,1.607000000000001 3.1413,1.6077000000000012 3.1085000000000003,1.615400000000001 3.0666,1.6222000000000012 3.0212000000000003,1.6171000000000006 2.9635000000000002,1.6170000000000009 2.9360000000000004,1.6204999999999998 2.9009000000000005,1.6202000000000005 2.8921000000000006,1.6181999999999999 2.7639000000000005,1.6181 2.7572000000000005,1.6169000000000011 2.7510000000000003,1.6115000000000013 2.7498000000000005,1.6081000000000003 2.7506000000000004,1.6037 2.6849000000000003,1.6029999999999998 2.6783000000000006,1.5663999999999998 2.6811000000000003,1.5594000000000001 2.6900000000000004,1.552900000000001 2.6992000000000003,1.541500000000001 2.7010000000000005,1.5373999999999999 2.7014000000000005,1.5227000000000004 2.6852000000000005,1.4962999999999997 2.6809000000000003,1.4916 2.6676,1.4893999999999998 2.6606000000000005,1.4901 2.6545000000000005,1.4853000000000005 2.6524000000000005,1.4728000000000012 2.6554,1.4649999999999999 2.6554,1.4566 2.6512000000000002,1.447000000000001 2.6398,1.4307999999999996 2.6379000000000006,1.4025999999999996 2.6270000000000002,1.3803 2.6273000000000004,1.3752000000000013 2.6244000000000005,1.3716000000000008 2.6239000000000003,1.363100000000001 2.6000000000000005,1.3346999999999998 2.5811,1.3211000000000013 2.5789000000000004,1.3082000000000011 2.5882000000000005,1.3036000000000012 2.5951000000000004,1.3031000000000006 2.6080000000000005,1.2987000000000002 2.6134000000000004,1.2871000000000006 2.6128000000000005,1.2828 2.6079000000000003,1.2743000000000002 2.6083000000000003,1.2706999999999997 2.6032,1.262500000000001 2.5879000000000003,1.251100000000001 2.5783000000000005,1.2355 2.5777000000000005,1.229000000000001 2.5793000000000004,1.223700000000001 2.5778000000000003,1.2157 2.5787000000000004,1.2112999999999996 2.5837000000000003,1.2083000000000013 2.5862000000000003,1.2011000000000003 2.5913000000000004,1.1986000000000008 2.5945000000000005,1.1944999999999997 2.5962000000000005,1.1867 2.6045000000000003,1.1728000000000005 2.6081000000000003,1.1620000000000008 2.6171,1.1500000000000004 2.6208000000000005,1.139100000000001 2.6185000000000005,1.1286000000000005 2.6198000000000006,1.1217000000000006 2.6237000000000004,1.1134000000000004 2.6284000000000005,1.110100000000001 2.6299000000000006,1.1052999999999997 2.6389000000000005,1.0997000000000003 2.6443000000000003,1.0899999999999999 2.6478,1.079600000000001 2.6468000000000003,1.0725999999999996 2.6542000000000003,1.0564999999999998 2.6651000000000002,1.0495999999999999 2.6633000000000004,1.0475000000000012 2.6781,1.0412999999999997 2.6852000000000005,1.0361000000000011 2.7276000000000002,1.025500000000001 2.7416000000000005,1.0244999999999997 2.7441000000000004,1.0237999999999996 2.7457000000000003,1.0213 2.7429000000000006,1.0113000000000003 2.7388000000000003,1.0073000000000008 2.7191000000000005,0.9968000000000004 2.7100000000000004,0.9984999999999999 2.7014000000000005,0.9970999999999997 2.6875000000000004,0.9870000000000001 2.6775,0.9660000000000011 2.6764000000000006,0.9423000000000012 2.6738000000000004,0.9335000000000004 2.6697,0.9268999999999998 2.6687000000000003,0.9175000000000004 2.6749000000000005,0.9093 2.6774000000000004,0.9027000000000012 2.6847000000000003,0.8956 2.7211000000000003,0.8756000000000004 2.7396000000000003,0.8707000000000011 2.7556000000000003,0.8628999999999998 2.7593000000000005,0.8582000000000001 2.7627,0.8461999999999996 2.7616000000000005,0.8323 2.7589000000000006,0.8265000000000011 2.7442,0.8129000000000008 2.7303,0.8048000000000002 2.7230000000000003,0.7965999999999998 2.7211000000000003,0.7897999999999996 2.7248000000000006,0.7746000000000013 2.7239000000000004,0.7704000000000004 2.7277000000000005,0.7630999999999997 2.7311000000000005,0.7397000000000009 2.7249000000000003,0.7253000000000007 2.7267000000000006,0.7058 2.7305,0.6926000000000005 2.7279000000000004,0.6783999999999999 2.7281000000000004,0.6685999999999996 2.7303,0.6584000000000003 2.7363000000000004,0.6433999999999997 2.7366,0.6258999999999997 2.7416000000000005,0.620000000000001 2.7433000000000005,0.6104000000000003 2.7556000000000003,0.5921000000000003 2.7688,0.5805000000000007 2.7756000000000003,0.559000000000001 2.7740000000000005,0.5471000000000004 2.7667,0.5404999999999998 2.7591000000000006,0.5267999999999997 2.7546000000000004,0.5118000000000009 2.7554000000000003,0.5020000000000007 2.7577000000000003,0.4969000000000001 2.7566,0.4829000000000008 2.7717000000000005,0.4533000000000005 2.7884,0.43700000000000117 2.7921000000000005,0.4261999999999997 2.7864000000000004,0.41389999999999993 2.7816000000000005,0.41350000000000087 2.7686,0.4067000000000007 2.7603000000000004,0.3994 2.7585,0.3918999999999997 2.7524,0.3838000000000008 2.7500000000000004,0.3752000000000013 2.7437000000000005,0.3664000000000005 2.7403000000000004,0.3559000000000001 2.7284,0.34529999999999994 2.7285000000000004,0.33999999999999986 2.7356000000000003,0.3239000000000001 2.7318000000000002,0.30900000000000105 2.7315000000000005,0.2961000000000009 2.7349000000000006,0.2881999999999998 2.7470000000000003,0.2832000000000008 2.7577000000000003,0.28160000000000096 2.7604,0.2796000000000003 2.7621,0.2766000000000002 2.7617000000000003,0.2704000000000004 2.7648,0.25150000000000006 2.7737000000000003,0.24040000000000106 2.7716000000000003,0.2306000000000008 2.7668000000000004,0.2289000000000012 2.7644,0.2234999999999996 2.7568,0.21659999999999968 2.7547,0.20540000000000092 2.7478000000000002,0.2002000000000006 2.7479000000000005,0.18160000000000132 2.7493000000000003,0.17830000000000013 2.7476000000000003,0.17570000000000086 2.7498000000000005,0.16920000000000002 2.7567000000000004,0.1565000000000012 2.7635000000000005,0.1487999999999996 2.7720000000000002,0.14530000000000065 2.7879000000000005,0.12840000000000096 2.7974000000000006,0.1264000000000003 2.8051000000000004,0.1227999999999998 2.8109,0.11460000000000115 2.8184000000000005,0.10970000000000013 2.8252,0.10270000000000046 2.8318000000000003,0.09030000000000094 2.8117000000000005,0.07370000000000054 2.7941000000000003,0.049900000000000944 2.7876000000000003,0.03850000000000087 2.7830000000000004,0.03550000000000075 2.7655000000000003,0.00849999999999973 2.7557000000000005,0.0 2.7478000000000002,0.0010000000000012221 2.7317000000000005,0.00870000000000104 2.7202,0.018200000000000216 2.6717000000000004,0.06980000000000075 2.6502000000000003,0.08900000000000041 2.6177000000000006,0.12990000000000101 2.5934000000000004,0.17260000000000097 2.5765000000000002,0.20749999999999957 2.5528000000000004,0.2455999999999996 2.5414000000000003,0.27090000000000103 2.5342000000000002,0.29349999999999987 2.5237000000000003,0.3186 2.5122000000000004,0.3362999999999996 2.5061000000000004,0.34190000000000076 2.5017000000000005,0.34220000000000006 2.4706000000000006,0.3177000000000003 2.4588000000000005,0.31840000000000046 2.4527000000000005,0.3222000000000005 2.4311000000000003,0.35689999999999955 2.4273000000000002,0.3600000000000012 2.4246000000000003,0.37010000000000076 2.4239,0.38980000000000103 2.4184000000000005,0.4001000000000001 2.4108000000000005,0.4082000000000008 2.4038000000000004,0.42180000000000106 2.3983000000000003,0.4385000000000012 2.3934,0.4435000000000002 2.3817000000000004,0.4471000000000007 2.3538000000000006,0.4413 2.3347,0.44180000000000064 2.3319000000000005,0.4438000000000013 2.3245000000000005,0.45560000000000045 2.3246,0.49490000000000123 2.3265000000000002,0.5137999999999998 2.3234000000000004,0.5264000000000006 2.3176000000000005,0.5263000000000009 2.3148000000000004,0.5236000000000001 2.3095000000000003,0.5233000000000008 2.3046,0.5198 2.3027,0.5076 2.2939000000000003,0.4980000000000011 2.2832000000000003,0.4964000000000013 2.2791000000000006,0.4941000000000013 2.2662000000000004,0.47520000000000095 2.2564,0.470600000000001 2.24,0.4519000000000002 2.2377000000000002,0.4504999999999999 2.2300000000000004,0.4554000000000009 2.2229000000000005,0.4520999999999997 2.2070000000000003,0.45220000000000127 2.2004000000000006,0.4580000000000002 2.1991000000000005,0.46419999999999995 2.2073000000000005,0.4800000000000004 2.2088000000000005,0.48719999999999963 2.2082,0.49380000000000024 2.2036000000000002,0.5004000000000008 2.1985000000000006,0.5012000000000008 2.1756,0.4894999999999996 2.1693000000000002,0.4900000000000002 2.1622000000000003,0.4975000000000005 2.1521000000000003,0.5030000000000001 2.1217,0.5153999999999996 2.1142000000000003,0.5150000000000006 2.0981000000000005,0.5103000000000009 2.0491,0.5240000000000009 2.0269000000000004,0.5219000000000005 2.0150000000000006,0.5236999999999998 1.9955000000000003,0.5233000000000008 1.9695000000000005,0.5251999999999999 1.9503000000000004,0.5243000000000002 1.9392000000000005,0.5211000000000006 1.9196000000000004,0.5186000000000011 1.8866000000000005,0.5516000000000005 1.8772000000000002,0.5560000000000009 1.8703000000000003,0.5545000000000009 1.8451000000000004,0.5389999999999997 1.8380000000000005,0.5381 1.8103000000000002,0.5414000000000012 1.8073000000000006,0.5388000000000002 1.7920000000000003,0.5380000000000003 1.7669000000000006,0.5305 1.7465000000000002,0.5218000000000007 1.7303000000000002,0.5109000000000012 1.7097000000000002,0.48719999999999963 1.6185000000000005,0.49950000000000117 1.6141000000000005,0.4919000000000011 1.6002000000000005,0.4778000000000002 1.5905000000000005,0.47830000000000084 1.5819000000000005,0.47029999999999994 1.5740000000000003,0.47130000000000116 1.5608000000000004,0.46910000000000096 1.5570000000000004,0.4723000000000006 1.5545000000000004,0.47220000000000084 1.5499000000000005,0.4684000000000008 1.5460000000000003,0.4684000000000008 1.5444000000000004,0.46560000000000024 1.5452000000000004,0.46170000000000044 1.5408000000000004,0.45120000000000005 1.5461000000000005,0.442400000000001 1.5436000000000005,0.4375 1.5379000000000005,0.4319000000000006 1.5313000000000003,0.42849999999999966 1.5257000000000005,0.42820000000000036 1.5187,0.4303000000000008 1.5103,0.43539999999999957 1.5018000000000002,0.43270000000000053 1.4883000000000006,0.4330999999999996 1.4833000000000007,0.4295000000000009 1.4744000000000002,0.4173000000000009 1.476,0.40050000000000097 1.4554,0.3979999999999997 1.4526000000000003,0.4004000000000012 1.4400000000000004,0.4034000000000013 1.4268,0.4129000000000005 1.4097,0.41990000000000016 1.3955000000000002,0.4306000000000001 1.3888000000000007,0.4307999999999996 1.3835000000000006,0.4283999999999999 1.3781000000000008,0.42159999999999975 1.3737000000000004,0.4108999999999998 1.3518000000000008,0.39620000000000033 1.3457000000000008,0.38150000000000084 1.3412000000000006,0.37700000000000067 "></polygon>
    </svg>
    