
    <svg width="1.8495000000000026" height="2.1601999999999997" xmlns="http://www.w3.org/2000/svg" xmlns:xlink="http://www.w3.org/1999/xlink" style="transform: scale(1, -1)">
        <polygon points="1.0445000000000029,0.2131999999999996 1.0466000000000015,0.20999999999999996 1.0427,0.2027000000000001 1.0430000000000028,0.19850000000000012 1.0417000000000023,0.19819999999999993 1.0431000000000026,0.19479999999999986 1.0415000000000028,0.19299999999999962 1.0396,0.19379999999999953 1.0358000000000018,0.19240000000000013 1.0304000000000002,0.1968999999999994 1.0304000000000002,0.19289999999999985 1.0256000000000007,0.1910999999999996 1.0242000000000004,0.18869999999999987 1.0232000000000028,0.19299999999999962 1.0195000000000007,0.19390000000000018 1.0151000000000003,0.1921999999999997 1.0156000000000027,0.1871999999999998 1.0127000000000024,0.18480000000000008 1.005200000000002,0.18929999999999936 1.0030000000000001,0.18900000000000006 1.003300000000003,0.1860999999999997 1.0010000000000012,0.1838999999999995 1.0004000000000026,0.1739999999999995 0.9980000000000011,0.17019999999999946 0.9952000000000005,0.17049999999999965 0.9937000000000005,0.17659999999999965 0.9908999999999999,0.17239999999999966 0.9921000000000006,0.1697999999999995 0.991100000000003,0.16749999999999954 0.988900000000001,0.16849999999999987 0.9886000000000017,0.1711999999999998 0.9864000000000033,0.17319999999999958 0.982800000000001,0.1697999999999995 0.9721000000000011,0.16889999999999983 0.9703000000000017,0.16639999999999944 0.9686000000000021,0.1665000000000001 0.9674000000000014,0.15770000000000017 0.965200000000003,0.1559999999999997 0.9643000000000015,0.1532 0.9654000000000025,0.1513 0.9626000000000019,0.14649999999999963 0.9577000000000027,0.14089999999999936 0.9516000000000027,0.13929999999999954 0.9505000000000017,0.14060000000000006 0.9418000000000006,0.12990000000000013 0.9385000000000012,0.1307999999999998 0.9335000000000022,0.1263999999999994 0.9276000000000018,0.12659999999999982 0.9274000000000022,0.12319999999999975 0.9167000000000023,0.11979999999999968 0.9157000000000011,0.12119999999999997 0.9135000000000026,0.12029999999999941 0.9123000000000019,0.11929999999999996 0.9138000000000019,0.11819999999999986 0.9112000000000009,0.11699999999999999 0.9088000000000029,0.12109999999999932 0.9075000000000024,0.1177999999999999 0.9009,0.11679999999999957 0.9018000000000015,0.11599999999999966 0.9003000000000014,0.11359999999999992 0.8978000000000002,0.11369999999999969 0.8962000000000003,0.11719999999999953 0.8951000000000029,0.11580000000000013 0.8928000000000011,0.11709999999999976 0.8921000000000028,0.11419999999999941 0.8896000000000015,0.11269999999999936 0.8874000000000031,0.11319999999999997 0.8880000000000017,0.11430000000000007 0.8866000000000014,0.11369999999999969 0.8871000000000002,0.11139999999999972 0.8840000000000003,0.11019999999999985 0.8853000000000009,0.10749999999999993 0.8832000000000022,0.10569999999999968 0.884800000000002,0.10440000000000005 0.8840000000000003,0.10020000000000007 0.8819000000000017,0.09949999999999992 0.8801000000000023,0.10309999999999953 0.8786000000000023,0.10130000000000017 0.8763000000000005,0.10210000000000008 0.8765000000000001,0.1003999999999996 0.8739000000000026,0.09940000000000015 0.8729000000000013,0.10089999999999932 0.8709000000000024,0.09450000000000003 0.8733000000000004,0.09309999999999974 0.872600000000002,0.09189999999999987 0.875,0.0920999999999994 0.8736000000000033,0.0884999999999998 0.8705000000000034,0.09059999999999935 0.8716000000000008,0.08829999999999938 0.8662000000000027,0.08589999999999964 0.8648000000000025,0.08889999999999976 0.8505000000000003,0.08809999999999985 0.850200000000001,0.09109999999999996 0.8463000000000029,0.09149999999999991 0.8460000000000001,0.09289999999999932 0.8480000000000025,0.09330000000000016 0.8424000000000014,0.0992999999999995 0.8444000000000003,0.10089999999999932 0.8383000000000003,0.10020000000000007 0.8378000000000014,0.1014999999999997 0.8327000000000027,0.10159999999999947 0.8320000000000007,0.10339999999999971 0.8301000000000016,0.10269999999999957 0.8303000000000011,0.10529999999999973 0.8277999999999999,0.10459999999999958 0.8285000000000018,0.10769999999999946 0.8272000000000013,0.10709999999999997 0.8256000000000014,0.10889999999999933 0.8207000000000022,0.1072999999999995 0.8209000000000017,0.10499999999999954 0.8176000000000023,0.10299999999999976 0.8135000000000012,0.10519999999999996 0.8117000000000019,0.10379999999999967 0.8114000000000026,0.09980000000000011 0.8063000000000002,0.0945999999999998 0.8062000000000005,0.09229999999999983 0.8016000000000005,0.08639999999999937 0.8017000000000003,0.08289999999999953 0.7993000000000023,0.07690000000000019 0.7965000000000018,0.07489999999999952 0.7952000000000012,0.06780000000000008 0.7909000000000006,0.06569999999999965 0.7825000000000024,0.055600000000000094 0.7745000000000033,0.057299999999999685 0.7728999999999999,0.05149999999999988 0.7664000000000009,0.04579999999999984 0.7629000000000019,0.03739999999999988 0.764800000000001,0.028099999999999348 0.7631000000000014,0.020500000000000185 0.7672000000000025,0.01839999999999975 0.7686000000000028,0.014100000000000001 0.7605000000000004,0.0034000000000000696 0.7597000000000023,0.004999999999999893 0.7570000000000014,0.0012999999999996348 0.7530999999999999,0.0 0.7434000000000012,0.0035999999999996035 0.7422000000000004,0.011999999999999567 0.735000000000003,0.014299999999999535 0.731300000000001,0.010099999999999554 0.7253000000000007,0.007799999999999585 0.7195,0.010399999999999743 0.7170000000000023,0.014699999999999491 0.7064000000000021,0.007600000000000051 0.6987000000000023,0.010600000000000165 0.6903000000000006,0.01949999999999985 0.686200000000003,0.017799999999999372 0.6732000000000014,0.022999999999999687 0.6672000000000011,0.02069999999999972 0.6543000000000028,0.02459999999999951 0.5627000000000031,0.026199999999999335 0.39080000000000226,0.024700000000000166 0.38940000000000197,0.03730000000000011 0.38970000000000127,0.08099999999999952 0.3872,0.11219999999999963 0.3882000000000012,0.1318999999999999 0.38140000000000285,0.2591999999999999 0.3780999999999999,0.2942 0.3680000000000021,0.3506 0.36710000000000065,0.3700000000000001 0.3606000000000016,0.38459999999999983 0.3471000000000011,0.4285999999999994 0.34320000000000306,0.43630000000000013 0.32630000000000337,0.4580000000000002 0.3052000000000028,0.4804999999999997 0.2836000000000034,0.4966999999999997 0.2635000000000005,0.5273999999999996 0.25840000000000174,0.5379999999999998 0.2530000000000001,0.5518999999999998 0.2439,0.5946999999999996 0.23950000000000315,0.6267999999999998 0.2392000000000003,0.6409999999999996 0.23110000000000142,0.6794999999999995 0.2410000000000032,0.7514999999999996 0.24239999999999995,0.8161999999999998 0.24480000000000146,0.8277999999999999 0.2406000000000006,0.9090999999999996 0.2375000000000007,0.9488999999999996 0.23200000000000287,0.9817999999999998 0.22690000000000055,0.9954999999999998 0.21890000000000143,1.0438999999999998 0.20950000000000202,1.0760999999999998 0.20340000000000202,1.1079999999999997 0.20020000000000238,1.1612999999999998 0.20310000000000272,1.1727999999999996 0.20720000000000027,1.1797999999999997 0.233900000000002,1.2012999999999998 0.23900000000000077,1.2010999999999998 0.23090000000000188,1.2108999999999996 0.22940000000000182,1.2192999999999996 0.2305000000000028,1.2264 0.2251000000000012,1.2367999999999997 0.22600000000000264,1.2468999999999997 0.23040000000000305,1.2498999999999998 0.2305000000000028,1.2541999999999995 0.23380000000000223,1.2563 0.23240000000000194,1.2603999999999997 0.226700000000001,1.2664 0.2284000000000006,1.2687999999999997 0.22330000000000183,1.2687 0.22160000000000224,1.2712999999999997 0.22430000000000305,1.2828999999999997 0.22790000000000177,1.2828999999999997 0.23060000000000258,1.2855999999999996 0.22770000000000223,1.2880999999999996 0.2248000000000019,1.2876999999999996 0.22360000000000113,1.2895999999999996 0.2248000000000019,1.2933 0.22820000000000107,1.2955999999999999 0.22880000000000322,1.2992999999999997 0.2322000000000024,1.3013999999999997 0.23170000000000002,1.3047 0.22760000000000247,1.3074 0.22770000000000223,1.3112999999999997 0.23080000000000211,1.3118999999999996 0.23290000000000077,1.3140999999999998 0.23400000000000176,1.319 0.23880000000000123,1.3213 0.23910000000000053,1.3306999999999998 0.2433000000000014,1.3314999999999997 0.24290000000000234,1.3377999999999997 0.24450000000000216,1.3420999999999998 0.24860000000000326,1.3405999999999998 0.24580000000000268,1.3465999999999996 0.24730000000000274,1.3476999999999997 0.25170000000000314,1.3453 0.25390000000000157,1.3476999999999997 0.2555000000000014,1.3537999999999997 0.2599000000000018,1.3550999999999997 0.2557000000000009,1.3562999999999996 0.2497000000000007,1.3623999999999996 0.25360000000000227,1.3684999999999996 0.24660000000000082,1.3723999999999998 0.24570000000000292,1.3743999999999996 0.2483000000000004,1.3758 0.25290000000000035,1.3754 0.2510000000000012,1.3803999999999998 0.25200000000000244,1.3819 0.2560000000000002,1.3819999999999997 0.2566000000000024,1.3836999999999997 0.2544000000000004,1.3930999999999996 0.2562000000000033,1.4019 0.25420000000000087,1.4024999999999999 0.25390000000000157,1.4051999999999998 0.2488000000000028,1.4082 0.2514000000000003,1.4112999999999998 0.2510000000000012,1.4160999999999997 0.2532000000000032,1.4175999999999997 0.2441000000000031,1.4261 0.238900000000001,1.4284999999999997 0.23850000000000193,1.4308999999999998 0.24050000000000082,1.4334999999999996 0.2331000000000003,1.4343 0.23060000000000258,1.4373999999999998 0.2347999999999999,1.4409999999999998 0.23520000000000252,1.4445999999999999 0.22820000000000107,1.4436999999999998 0.22409999999999997,1.4493999999999998 0.2193000000000005,1.4468999999999999 0.2143000000000015,1.4482999999999997 0.20690000000000097,1.4474999999999998 0.20440000000000325,1.4490999999999996 0.20260000000000034,1.4470999999999998 0.19580000000000197,1.4527999999999999 0.1927000000000021,1.4612999999999996 0.18430000000000035,1.4609999999999999 0.1828000000000003,1.4663 0.18440000000000012,1.4694999999999996 0.17660000000000053,1.4776999999999996 0.16960000000000264,1.4727999999999999 0.16710000000000136,1.4735999999999998 0.1647000000000034,1.4785 0.16690000000000182,1.4797999999999996 0.17070000000000007,1.4878999999999998 0.1650000000000027,1.4989 0.16790000000000305,1.5019999999999998 0.16540000000000177,1.5054999999999996 0.1670000000000016,1.5102999999999995 0.16070000000000206,1.5130999999999997 0.1598000000000006,1.5168999999999997 0.15740000000000265,1.5155999999999996 0.154200000000003,1.5179999999999998 0.15440000000000254,1.5204999999999997 0.1524000000000001,1.5233999999999996 0.14990000000000236,1.5206999999999997 0.14190000000000325,1.5231 0.13870000000000005,1.5303999999999998 0.13150000000000261,1.5339999999999998 0.12780000000000058,1.5398999999999998 0.12150000000000105,1.5391 0.1092000000000013,1.5473 0.10700000000000287,1.5474999999999999 0.10390000000000299,1.5446999999999997 0.10060000000000002,1.5459999999999998 0.09930000000000305,1.5492999999999997 0.09600000000000009,1.5493999999999999 0.08870000000000289,1.5704999999999996 0.08930000000000149,1.5793 0.09370000000000189,1.5871999999999997 0.09010000000000318,1.5984999999999996 0.08850000000000335,1.5991999999999997 0.08720000000000283,1.5969999999999995 0.08500000000000085,1.5969999999999995 0.0829000000000022,1.6003999999999996 0.0765000000000029,1.6023999999999998 0.07450000000000045,1.6064999999999996 0.06870000000000331,1.6056999999999997 0.06720000000000326,1.6096 0.06960000000000122,1.6122999999999998 0.06500000000000128,1.6157999999999997 0.06810000000000116,1.6204999999999998 0.0663000000000018,1.6242999999999999 0.06360000000000099,1.6239999999999997 0.05980000000000274,1.6275 0.06099999999999994,1.6311999999999998 0.05940000000000012,1.6353999999999997 0.05600000000000094,1.6408999999999998 0.05120000000000147,1.6435999999999997 0.04940000000000211,1.65 0.04520000000000124,1.6506999999999996 0.03850000000000264,1.646 0.027200000000000557,1.6437 0.024399999999999977,1.6473999999999998 0.011900000000000688,1.6491999999999996 0.005300000000001859,1.6533999999999995 0.0010000000000012221,1.6597999999999997 0.0,1.6843 0.0018000000000029104,1.6886999999999999 0.0070000000000014495,1.6907999999999999 0.01120000000000232,1.6963999999999997 0.017300000000002314,1.6994999999999996 0.026300000000002655,1.7095999999999996 0.031800000000000495,1.7109999999999999 0.03750000000000142,1.7089999999999996 0.03950000000000031,1.7293999999999996 0.041100000000000136,1.7310999999999996 0.0397000000000034,1.7321 0.04070000000000107,1.7348999999999997 0.042200000000001125,1.7344999999999997 0.04040000000000177,1.7391999999999999 0.041900000000001825,1.7428 0.04040000000000177,1.7428 0.04180000000000206,1.7450999999999999 0.04430000000000334,1.7443 0.04630000000000223,1.7497999999999996 0.04800000000000182,1.7500999999999998 0.05489999999999995,1.7598999999999996 0.05630000000000024,1.7598999999999996 0.053700000000002746,1.7628999999999997 0.05480000000000018,1.7639999999999998 0.05040000000000333,1.7653999999999996 0.048799999999999955,1.7689999999999997 0.05180000000000007,1.7712999999999997 0.049500000000001876,1.7755999999999998 0.0508000000000024,1.7773999999999996 0.05450000000000088,1.7772999999999999 0.05410000000000181,1.7807 0.04770000000000252,1.7819999999999996 0.0472999999999999,1.7837999999999998 0.05530000000000257,1.7856999999999998 0.05690000000000239,1.7918999999999996 0.05630000000000024,1.7937999999999996 0.052600000000001756,1.7927999999999997 0.04960000000000164,1.7953999999999999 0.047100000000000364,1.7999999999999998 0.04870000000000019,1.8014999999999999 0.047100000000000364,1.8045999999999998 0.05150000000000077,1.8131 0.05390000000000228,1.8133 0.05410000000000181,1.8175999999999997 0.05570000000000164,1.8162999999999996 0.06080000000000041,1.8197999999999999 0.05880000000000152,1.8215 0.058600000000001984,1.8249999999999997 0.055400000000002336,1.8270999999999997 0.05530000000000257,1.8293999999999997 0.053300000000000125,1.8295 0.053700000000002746,1.8427999999999995 0.05220000000000269,1.8460999999999999 0.0505000000000031,1.8462999999999998 0.05320000000000036,1.8485999999999998 0.05339999999999989,1.8512 0.057800000000000296,1.8529999999999998 0.05870000000000175,1.8571 0.05760000000000076,1.8598999999999997 0.05970000000000297,1.8615999999999997 0.06150000000000233,1.8682999999999996 0.07190000000000296,1.8663999999999996 0.08100000000000307,1.8750999999999998 0.08780000000000143,1.8781999999999996 0.09060000000000201,1.8769999999999998 0.091700000000003,1.8781999999999996 0.09540000000000148,1.8730999999999995 0.0984000000000016,1.8744999999999998 0.10180000000000078,1.8733 0.10770000000000124,1.8752999999999997 0.108900000000002,1.8733 0.11560000000000059,1.8728999999999996 0.11460000000000292,1.8710999999999998 0.11660000000000181,1.8716 0.12080000000000268,1.8662999999999998 0.1238000000000028,1.8659999999999997 0.12320000000000064,1.8626999999999998 0.12600000000000122,1.8618999999999999 0.1271000000000022,1.8596999999999997 0.1346000000000025,1.8655999999999997 0.13830000000000098,1.8642999999999996 0.13920000000000243,1.8660999999999999 0.14060000000000272,1.8657999999999997 0.13860000000000028,1.8716 0.14050000000000296,1.8737 0.1437000000000026,1.8735999999999997 0.1437000000000026,1.8750999999999998 0.14800000000000324,1.8754 0.1490000000000009,1.8787999999999996 0.15050000000000097,1.8777999999999997 0.15050000000000097,1.8743999999999996 0.15249999999999986,1.8754 0.15530000000000044,1.8733999999999997 0.16210000000000235,1.8748999999999998 0.16190000000000282,1.8695999999999997 0.16580000000000084,1.8685999999999998 0.16840000000000188,1.8660999999999999 0.16870000000000118,1.8628999999999998 0.17210000000000036,1.8615 0.17360000000000042,1.8545999999999996 0.1819000000000024,1.8558999999999997 0.18350000000000222,1.8592999999999997 0.18610000000000326,1.8598 0.18810000000000215,1.8568999999999996 0.18470000000000297,1.8546999999999998 0.1877000000000031,1.8546999999999998 0.19090000000000273,1.8524999999999996 0.1997,1.8524999999999996 0.2029000000000032,1.8545999999999996 0.20800000000000196,1.8477999999999999 0.21250000000000213,1.8485999999999998 0.21480000000000032,1.8444999999999996 0.2184000000000026,1.8436999999999997 0.21910000000000096,1.8415999999999997 0.21770000000000067,1.8400999999999996 0.21920000000000073,1.8379999999999996 0.22250000000000014,1.8384999999999998 0.22290000000000276,1.8417999999999997 0.22490000000000165,1.8422999999999998 0.22560000000000002,1.8445999999999998 0.22960000000000136,1.8411 0.23260000000000147,1.8413999999999997 0.23500000000000298,1.8421999999999996 0.23510000000000275,1.8455 0.23870000000000147,1.8427999999999995 0.2394000000000034,1.8455 0.2439,1.8472999999999997 0.24550000000000338,1.8447999999999998 0.24670000000000059,1.8479999999999999 0.24990000000000023,1.8430999999999997 0.25370000000000203,1.8474999999999997 0.2643000000000022,1.8518 0.2666000000000004,1.8455 0.2723000000000013,1.8463999999999996 0.28130000000000166,1.8438999999999997 0.2836000000000034,1.8386999999999998 0.28610000000000113,1.8380999999999998 0.2930000000000028,1.8293999999999997 0.30870000000000175,1.8261999999999996 0.3143000000000029,1.8234999999999997 0.3150000000000013,1.8185999999999996 0.3187000000000033,1.8135999999999997 0.320800000000002,1.8137999999999996 0.32220000000000226,1.8164999999999996 0.32530000000000214,1.8165999999999998 0.33200000000000074,1.8068 0.33110000000000284,1.8035999999999999 0.33440000000000225,1.8004999999999995 0.3342000000000027,1.7956999999999996 0.33140000000000214,1.7937999999999996 0.33130000000000237,1.7900999999999998 0.328400000000002,1.7875999999999999 0.3274000000000008,1.7803999999999998 0.3312000000000026,1.7769 0.334500000000002,1.779 0.3368000000000002,1.7769999999999997 0.33850000000000335,1.7711999999999999 0.34410000000000096,1.7671999999999999 0.3439000000000014,1.7626 0.34790000000000276,1.7565999999999997 0.34790000000000276,1.7492999999999999 0.3545000000000016,1.7382999999999997 0.35360000000000014,1.7361999999999997 0.34550000000000125,1.7300999999999997 0.3351000000000006,1.7264999999999997 0.33240000000000336,1.7238999999999995 0.3403000000000027,1.7172999999999998 0.3373000000000026,1.7060999999999997 0.3437000000000019,1.7052999999999998 0.34630000000000294,1.7011999999999996 0.3500000000000014,1.7017999999999995 0.34930000000000305,1.6961 0.3474000000000004,1.6932999999999998 0.3518000000000008,1.6889999999999996 0.3564000000000007,1.6782 0.353900000000003,1.6726999999999999 0.35100000000000264,1.6714999999999995 0.35230000000000317,1.6679 0.35130000000000194,1.6654999999999998 0.3559000000000019,1.6629999999999998 0.3617000000000026,1.6506999999999996 0.36040000000000205,1.6464999999999996 0.36430000000000007,1.6412999999999998 0.36150000000000304,1.638 0.3670000000000009,1.638 0.37020000000000053,1.63 0.3721000000000032,1.6319 0.37650000000000006,1.6319999999999997 0.37700000000000244,1.6385999999999998 0.3799000000000028,1.6387999999999998 0.3838000000000008,1.6477999999999997 0.3886000000000003,1.6512999999999995 0.3947000000000003,1.6528999999999998 0.3957000000000015,1.6498999999999997 0.3998000000000026,1.6481999999999997 0.4065000000000012,1.6546999999999996 0.41210000000000235,1.6555999999999997 0.4189000000000007,1.6612999999999998 0.4302000000000028,1.6654999999999998 0.43130000000000024,1.6686999999999999 0.4372000000000007,1.6723999999999997 0.4403000000000006,1.6706999999999996 0.44690000000000296,1.6717999999999997 0.45000000000000284,1.6694999999999998 0.46240000000000236,1.6690999999999998 0.464500000000001,1.6664999999999996 0.47460000000000235,1.6626999999999996 0.4771000000000001,1.6649999999999996 0.4784000000000006,1.6634999999999995 0.482800000000001,1.6679 0.48540000000000205,1.6679 0.4913000000000025,1.6610999999999998 0.49980000000000047,1.6573999999999995 0.5058000000000007,1.6510999999999996 0.5067000000000021,1.6479 0.5119000000000007,1.6471999999999998 0.5158000000000023,1.6414 0.520900000000001,1.6399999999999997 0.5317000000000007,1.6426999999999996 0.5347000000000008,1.6412999999999998 0.5374000000000017,1.6424999999999996 0.5417000000000023,1.6399999999999997 0.5435000000000016,1.6439 0.5415000000000028,1.6519 0.5446000000000026,1.6529999999999996 0.5501000000000005,1.6517999999999997 0.5648000000000017,1.6582 0.5729000000000006,1.6580999999999997 0.5818000000000012,1.6651999999999996 0.5873000000000026,1.6670999999999996 0.5892000000000017,1.6663999999999999 0.5889000000000024,1.6631999999999998 0.5904000000000025,1.662 0.593,1.6633999999999998 0.5942000000000007,1.6620999999999997 0.5975999999999999,1.6637999999999997 0.6004000000000005,1.6622999999999997 0.6052,1.6634999999999995 0.6090000000000018,1.6597 0.6155000000000008,1.6597999999999997 0.6202000000000005,1.6646999999999998 0.6234000000000002,1.6635999999999997 0.6291000000000011,1.6660999999999997 0.638300000000001,1.6807999999999996 0.6478999999999999,1.6829999999999998 0.6515000000000022,1.6813999999999996 0.6595000000000013,1.6822999999999997 0.6648000000000032,1.6782 0.6684000000000019,1.6785999999999999 0.6741000000000028,1.6749999999999998 0.6782000000000004,1.6702999999999997 0.6844000000000001,1.6700999999999997 0.6879000000000026,1.6666999999999996 0.6889000000000003,1.6634999999999995 0.6936,1.6611999999999996 0.6937000000000033,1.6629999999999998 0.6953000000000031,1.6631999999999998 0.7037000000000013,1.6588999999999996 0.7048000000000023,1.6574999999999998 0.7037000000000013,1.6548999999999996 0.7075000000000031,1.6502999999999997 0.714500000000001,1.654 0.7182000000000031,1.6515999999999997 0.7207000000000008,1.6543999999999999 0.7227000000000032,1.6515999999999997 0.7316000000000003,1.6589999999999998 0.7374000000000009,1.6586999999999996 0.7444000000000024,1.6626999999999996 0.7519000000000027,1.6585999999999999 0.7545999999999999,1.6613999999999995 0.7596000000000025,1.6727999999999996 0.7622,1.6748999999999996 0.7626000000000026,1.6841999999999997 0.7656000000000027,1.6909999999999998 0.7679000000000009,1.6926999999999999 0.767000000000003,1.6991999999999998 0.7695000000000007,1.7045 0.7740000000000009,1.706 0.7773000000000003,1.7036999999999995 0.7840000000000025,1.7053999999999996 0.7864000000000004,1.7037999999999998 0.7924000000000007,1.7130999999999998 0.8003,1.7150999999999996 0.8088000000000015,1.7091999999999996 0.8104000000000013,1.6985999999999999 0.8141000000000034,1.6969999999999996 0.8140000000000001,1.6952999999999996 0.8163000000000018,1.6955999999999998 0.8193000000000019,1.6930999999999998 0.8240000000000016,1.6930999999999998 0.8271000000000015,1.6908999999999996 0.8317000000000014,1.6931999999999996 0.833000000000002,1.6956999999999995 0.8363000000000014,1.6942999999999997 0.8424000000000014,1.7015999999999996 0.8524000000000029,1.7032999999999996 0.8542000000000023,1.7072999999999996 0.8579000000000008,1.7054999999999998 0.8616000000000028,1.7089999999999996 0.8663000000000025,1.71 0.871100000000002,1.7078999999999995 0.8766000000000034,1.7079999999999997 0.8804000000000016,1.7136999999999998 0.8780999999999999,1.7158999999999995 0.8786000000000023,1.7178999999999998 0.8816000000000024,1.7174999999999998 0.8871000000000002,1.7199999999999998 0.8891000000000027,1.7188999999999997 0.8927000000000014,1.7229999999999999 0.8904000000000032,1.7253999999999996 0.8931000000000004,1.7290999999999999 0.8919000000000032,1.7327 0.8956000000000017,1.7361999999999997 0.8956000000000017,1.7384999999999997 0.8999000000000024,1.7416999999999998 0.9015000000000022,1.7485 0.9089000000000027,1.7544999999999997 0.9119000000000028,1.7617999999999996 0.9177,1.7672999999999996 0.9187000000000012,1.7761999999999998 0.9230000000000018,1.7820999999999998 0.9300000000000033,1.8064999999999998 0.9282000000000004,1.8084999999999996 0.9282000000000004,1.8125999999999998 0.9332000000000029,1.8192 0.9356000000000009,1.8286999999999995 0.9339000000000013,1.8320999999999996 0.9293000000000013,1.8340999999999998 0.9274000000000022,1.8373 0.9303000000000026,1.8464999999999998 0.9294000000000011,1.8615 0.9309000000000012,1.8807999999999998 0.9289000000000023,1.8889999999999998 0.9250000000000007,1.8921999999999999 0.9260000000000019,1.8941 0.9234000000000009,1.9019999999999997 0.9210000000000029,1.9043999999999999 0.9217000000000013,1.9076 0.9202000000000012,1.9087999999999998 0.9201000000000015,1.9123999999999999 0.924000000000003,1.9165999999999999 0.9258000000000024,1.9217 0.9287000000000027,1.9236999999999997 0.9283999999999999,1.9286999999999996 0.933600000000002,1.9358999999999997 0.9349000000000025,1.9455999999999998 0.9334000000000024,1.9496999999999995 0.9357000000000006,1.9503 0.9381000000000022,1.9546999999999999 0.9373000000000005,1.9581 0.9425000000000026,1.9692999999999996 0.9420000000000002,1.9715999999999996 0.9499000000000031,1.9736999999999996 0.9551000000000016,1.9804 0.9632000000000005,1.9806999999999997 0.9664999999999999,1.9835999999999996 0.9681000000000033,1.9935999999999998 0.9660000000000011,1.9987999999999997 0.9698000000000029,2.009 0.9675000000000011,2.0121999999999995 0.9676000000000009,2.0172999999999996 0.9649999999999999,2.0199999999999996 0.9669000000000025,2.0241999999999996 0.9619,2.0340999999999996 0.9603000000000002,2.0446 0.9613000000000014,2.0555 0.9541000000000004,2.0725999999999996 0.9540000000000006,2.0803 0.9495000000000005,2.0907999999999998 0.9437000000000033,2.0965999999999996 0.9428000000000019,2.0999999999999996 0.9434000000000005,2.1056 0.9565000000000019,2.1209999999999996 0.9546000000000028,2.1302 0.9549000000000021,2.1391999999999998 0.9585000000000008,2.1430999999999996 0.9966000000000008,2.1262999999999996 1.0021000000000022,2.1247 1.0187000000000026,2.1258 1.032700000000002,2.1190999999999995 1.0462000000000025,2.1071 1.0563000000000002,2.0913 1.0617000000000019,2.0766999999999998 1.072300000000002,2.0694 1.0901000000000032,2.0517 1.096300000000003,2.0467 1.1052,2.0446999999999997 1.1225000000000023,2.0340999999999996 1.1353000000000009,2.0321 1.1460000000000008,2.0372 1.1565000000000012,2.0389999999999997 1.1632000000000033,2.0431999999999997 1.1701000000000015,2.0431999999999997 1.1789000000000023,2.0397 1.1828000000000003,2.0408 1.1957000000000022,2.0601 1.198400000000003,2.0713 1.197300000000002,2.0772999999999997 1.1985000000000028,2.0816 1.2031000000000027,2.0824 1.2132000000000005,2.0877999999999997 1.214500000000001,2.0988999999999995 1.2248000000000019,2.1003999999999996 1.2412000000000027,2.1106999999999996 1.2433000000000014,2.1104999999999996 1.2474000000000025,2.1064999999999996 1.2499000000000002,2.1014999999999997 1.2495000000000012,2.0988999999999995 1.2550000000000026,2.0961 1.2774,2.0940999999999996 1.2997000000000014,2.0967999999999996 1.3733000000000004,2.114 1.3727000000000018,2.1241 1.3760000000000012,2.1285999999999996 1.379800000000003,2.1437999999999997 1.384400000000003,2.1468999999999996 1.3873000000000033,2.1525999999999996 1.3930000000000007,2.1571999999999996 1.4037000000000006,2.1576999999999997 1.408100000000001,2.1601999999999997 1.4134000000000029,2.1555999999999997 1.4167000000000023,2.1494999999999997 1.4205000000000005,2.147 1.421000000000003,2.1435999999999997 1.4254000000000033,2.1451 1.427900000000001,2.1418999999999997 1.436200000000003,2.1401999999999997 1.4383000000000017,2.1411 1.4430000000000014,2.1485 1.4506000000000014,2.1517999999999997 1.4577000000000027,2.1517999999999997 1.4617000000000004,2.1489999999999996 1.4624000000000024,2.1447 1.4588,2.1382 1.4604,2.1304 1.4578000000000024,2.1256 1.4600000000000009,2.1222 1.4692000000000007,2.1188 1.4699000000000026,2.1104 1.4683000000000028,2.1064 1.4704000000000015,2.1035 1.4768000000000008,2.1012999999999997 1.482400000000002,2.1041999999999996 1.4851000000000028,2.1037 1.4890000000000008,2.0927999999999995 1.4938000000000002,2.0928999999999998 1.4993000000000016,2.0850999999999997 1.5076,2.0805999999999996 1.5095000000000027,2.0767999999999995 1.5089000000000006,2.0706999999999995 1.5105000000000004,2.0686999999999998 1.5152,2.0686999999999998 1.5181000000000004,2.0656999999999996 1.5280000000000022,2.0662 1.534600000000001,2.0646999999999998 1.5382000000000033,2.0595 1.5428000000000033,2.0568 1.5370000000000026,2.0475999999999996 1.5384000000000029,2.0439999999999996 1.5356000000000023,2.0361 1.5299000000000014,2.0317 1.5288000000000004,2.0262999999999995 1.5237000000000016,2.0222999999999995 1.5232000000000028,2.0174999999999996 1.5198,2.0113 1.5206000000000017,2.0040999999999998 1.5191000000000017,1.9955999999999996 1.514800000000001,1.9917999999999996 1.5065000000000026,1.9646999999999997 1.4956000000000031,1.9515999999999996 1.4956000000000031,1.9466999999999999 1.4851000000000028,1.9456999999999995 1.4826000000000015,1.9410999999999996 1.485000000000003,1.9242999999999997 1.4841000000000015,1.9128999999999996 1.4788000000000032,1.9083999999999999 1.4757000000000033,1.8982999999999999 1.4697000000000031,1.8937999999999997 1.4658000000000015,1.8827999999999996 1.4570000000000007,1.8737999999999997 1.4543,1.8670999999999998 1.4435000000000002,1.8514999999999997 1.4376000000000033,1.8343999999999996 1.421800000000001,1.8152 1.4195000000000029,1.8079999999999998 1.4200000000000017,1.8049999999999997 1.4303000000000026,1.7910999999999997 1.4319000000000024,1.7904999999999998 1.4363000000000028,1.7929 1.442700000000002,1.7919999999999998 1.4522000000000013,1.7811999999999997 1.458400000000001,1.7788999999999997 1.4673000000000016,1.7842999999999996 1.4720000000000013,1.7895999999999996 1.4884000000000022,1.7959999999999998 1.5032000000000032,1.8049 1.5108000000000033,1.8135999999999997 1.522400000000001,1.8141999999999996 1.5271000000000008,1.8169999999999997 1.5265000000000022,1.8095999999999997 1.5294000000000025,1.8044999999999995 1.5244,1.7929 1.5249000000000024,1.7889999999999997 1.5207000000000015,1.7876999999999996 1.5217000000000027,1.7820999999999998 1.5177000000000014,1.7807999999999997 1.5166000000000004,1.7771 1.5142000000000024,1.7779999999999996 1.5114000000000019,1.7754999999999996 1.5093000000000032,1.7767999999999997 1.5081000000000024,1.7701999999999996 1.504100000000001,1.7722999999999995 1.5035000000000025,1.7666 1.4973000000000027,1.7615999999999996 1.4974000000000025,1.7578999999999998 1.4944000000000024,1.7571999999999997 1.4927000000000028,1.7544999999999997 1.4907000000000004,1.7546999999999997 1.4834000000000032,1.7469999999999999 1.4766000000000012,1.7540999999999998 1.4735000000000014,1.7535999999999996 1.4703000000000017,1.7500999999999998 1.4657000000000018,1.7501999999999995 1.466000000000001,1.7454999999999998 1.4637000000000029,1.7461999999999995 1.4642000000000017,1.7443999999999997 1.4620000000000033,1.7447 1.4622000000000028,1.7413999999999996 1.4655000000000022,1.7374999999999998 1.4638000000000027,1.7342 1.4617000000000004,1.7344999999999997 1.4544000000000032,1.7278999999999995 1.443800000000003,1.7245 1.4403000000000006,1.7247999999999997 1.4418000000000006,1.7169999999999996 1.4363000000000028,1.7132999999999998 1.4384000000000015,1.7104999999999997 1.4435000000000002,1.7081 1.4472000000000023,1.7013999999999996 1.4424000000000028,1.6921 1.4450000000000003,1.6879 1.4420000000000002,1.6848999999999998 1.4428000000000019,1.6822 1.4407000000000032,1.6795999999999998 1.4420000000000002,1.6755999999999998 1.4395000000000024,1.6731999999999996 1.4379000000000026,1.6662 1.4365000000000023,1.6660999999999997 1.4359000000000002,1.6692999999999998 1.4328000000000003,1.6683999999999997 1.4350000000000023,1.6679 1.4353000000000016,1.6662 1.433600000000002,1.6651999999999996 1.4349000000000025,1.6624999999999996 1.4323000000000015,1.6608999999999998 1.432100000000002,1.6571999999999996 1.4277000000000015,1.6587999999999998 1.427500000000002,1.6561 1.4232000000000014,1.6519999999999997 1.4223,1.6502 1.4250000000000007,1.6529999999999996 1.4272000000000027,1.6504999999999996 1.4258000000000024,1.6441 1.4239000000000033,1.6425999999999998 1.4253,1.6382999999999996 1.421000000000003,1.6374999999999997 1.4222000000000001,1.6353999999999997 1.4207,1.6336 1.421800000000001,1.6298 1.4195000000000029,1.6302999999999996 1.4185000000000016,1.6262999999999996 1.4147000000000034,1.6265999999999998 1.412700000000001,1.6224999999999996 1.4156000000000013,1.6185999999999998 1.4132000000000033,1.6187999999999998 1.411800000000003,1.6153 1.4067000000000007,1.6113999999999997 1.4055,1.6092 1.4083000000000006,1.6111999999999997 1.4086000000000034,1.6087999999999996 1.4151000000000025,1.6102999999999996 1.4152000000000022,1.6058 1.4117000000000033,1.6050999999999997 1.4139000000000017,1.6007999999999996 1.4160000000000004,1.6001999999999996 1.4174000000000007,1.5957 1.4254000000000033,1.6009999999999995 1.4344000000000001,1.5953 1.4353000000000016,1.5926999999999998 1.4335000000000022,1.5890999999999997 1.4365000000000023,1.5856 1.4374000000000002,1.5772 1.4358000000000004,1.5741999999999998 1.4388000000000005,1.5711 1.4378000000000029,1.5662999999999996 1.442300000000003,1.5654999999999997 1.4442000000000021,1.561 1.4460000000000015,1.5620999999999996 1.4487000000000023,1.5603999999999996 1.449900000000003,1.5565999999999995 1.4518000000000022,1.5589999999999997 1.4573,1.5603999999999996 1.462600000000002,1.5551 1.4639000000000024,1.5500999999999996 1.457600000000003,1.5486999999999997 1.4582000000000015,1.5471999999999997 1.4613000000000014,1.5455999999999999 1.4640000000000022,1.5479999999999996 1.468700000000002,1.5457999999999998 1.4694000000000003,1.5437999999999996 1.467600000000001,1.5423999999999998 1.4711000000000034,1.5433 1.4736000000000011,1.5379999999999998 1.4792000000000023,1.5352999999999999 1.4825000000000017,1.5237999999999996 1.486500000000003,1.5216999999999996 1.4936000000000007,1.5214999999999996 1.502200000000002,1.5170999999999997 1.5049000000000028,1.517 1.506800000000002,1.5197999999999996 1.5093000000000032,1.5198999999999998 1.5152999999999999,1.5265999999999997 1.5221000000000018,1.5283999999999995 1.5311000000000021,1.5395999999999996 1.538800000000002,1.5372999999999997 1.5422000000000011,1.5444999999999998 1.5526000000000018,1.5586999999999995 1.564700000000002,1.5700999999999996 1.5641000000000034,1.5751 1.5735000000000028,1.5772 1.577300000000001,1.5758999999999999 1.581000000000003,1.5702999999999996 1.581500000000002,1.5652999999999997 1.5870000000000033,1.5639999999999996 1.5879000000000012,1.5577999999999999 1.5954000000000015,1.5562999999999998 1.5994000000000028,1.5474999999999999 1.6056000000000026,1.5492 1.612400000000001,1.5444999999999998 1.6192000000000029,1.5435999999999996 1.6311,1.5322999999999998 1.6402,1.5203999999999995 1.6467000000000027,1.5168 1.645500000000002,1.5013999999999998 1.6493000000000002,1.4943999999999997 1.6559000000000026,1.4916999999999998 1.6628000000000007,1.4821 1.6697000000000024,1.4766999999999997 1.6787000000000027,1.4827 1.6848000000000027,1.4884999999999997 1.685100000000002,1.4914999999999998 1.6928000000000019,1.4968999999999997 1.6979000000000006,1.4966999999999997 1.7043,1.5004 1.7088,1.4987999999999997 1.7149999999999999,1.4903999999999997 1.7137000000000029,1.4897999999999998 1.7183000000000028,1.4860999999999995 1.720600000000001,1.4865999999999997 1.7260000000000026,1.4800999999999997 1.7311000000000014,1.4808999999999997 1.7377000000000002,1.4792999999999998 1.7431000000000019,1.4737999999999998 1.7471000000000032,1.4727999999999999 1.7647000000000013,1.4770999999999996 1.7710000000000008,1.4750999999999999 1.7840000000000025,1.4800999999999997 1.8002000000000002,1.4816999999999996 1.8022000000000027,1.4832999999999998 1.8054000000000023,1.4821999999999997 1.8135000000000012,1.4888 1.8263000000000034,1.4899999999999998 1.8362000000000016,1.4943999999999997 1.8390000000000022,1.4941999999999998 1.8418000000000028,1.4910999999999999 1.844100000000001,1.4924 1.8495000000000026,1.4905 1.8450000000000024,1.4865999999999997 1.8434000000000026,1.4818999999999996 1.8398000000000003,1.4808999999999997 1.836500000000001,1.4735999999999998 1.8375000000000021,1.4717999999999996 1.8328000000000024,1.4649999999999999 1.8259000000000007,1.4588999999999999 1.8216,1.4463999999999997 1.8163000000000018,1.4417999999999997 1.8176000000000023,1.4381999999999997 1.8142000000000031,1.4270999999999998 1.7946000000000026,1.4158 1.8008000000000024,1.4062999999999999 1.801400000000001,1.4017999999999997 1.808600000000002,1.3977999999999997 1.813200000000002,1.3886999999999996 1.8290000000000006,1.3859999999999997 1.8358000000000025,1.3754 1.8353000000000002,1.3718999999999997 1.8317000000000014,1.3664999999999998 1.8316000000000017,1.3582999999999998 1.8333000000000013,1.3554 1.8290000000000006,1.3434999999999997 1.829500000000003,1.3411 1.8247,1.3306999999999998 1.8172000000000033,1.3232 1.8207000000000022,1.3196999999999997 1.8335000000000008,1.3268999999999997 1.8451000000000022,1.3074 1.846,1.3047 1.837600000000002,1.2772999999999999 1.8475000000000001,1.2628999999999997 1.840600000000002,1.2624999999999997 1.8271000000000015,1.2555999999999998 1.8201,1.2563999999999997 1.8148000000000017,1.251 1.812700000000003,1.2457999999999996 1.8202000000000034,1.2323999999999997 1.8203000000000031,1.2290999999999999 1.821900000000003,1.2288999999999999 1.8252000000000024,1.2232999999999996 1.8366000000000007,1.2167999999999997 1.842100000000002,1.2158999999999995 1.8286000000000016,1.2064 1.8161000000000023,1.2035999999999998 1.8104000000000013,1.1993999999999998 1.8019000000000034,1.1966999999999999 1.7973,1.1909999999999998 1.7869000000000028,1.1898999999999997 1.7814000000000014,1.1870999999999996 1.779,1.1877999999999997 1.7737000000000016,1.1841999999999997 1.7652,1.1815999999999995 1.7622,1.1784 1.7570000000000014,1.1773999999999996 1.7469000000000001,1.1832999999999996 1.7449000000000012,1.1883 1.7438000000000002,1.2010999999999998 1.7393,1.2022 1.7296000000000014,1.1954999999999996 1.7295000000000016,1.1829999999999998 1.722800000000003,1.1747999999999998 1.7204000000000015,1.1679999999999997 1.7137000000000029,1.1656999999999997 1.7068000000000012,1.1603999999999997 1.7020000000000017,1.1601 1.684700000000003,1.1526999999999998 1.6739000000000033,1.1496999999999997 1.6662,1.1500999999999997 1.6608000000000018,1.1418 1.660300000000003,1.138 1.6483000000000025,1.126 1.6473000000000013,1.1222999999999996 1.6380000000000017,1.1162999999999998 1.633700000000001,1.1084999999999998 1.6453000000000024,1.0953 1.6471000000000018,1.0906999999999996 1.6462000000000003,1.085 1.6572000000000031,1.0852999999999997 1.6645000000000003,1.0826999999999996 1.6697000000000024,1.0795999999999997 1.6702000000000012,1.0778999999999996 1.6735000000000007,1.0774 1.6774000000000022,1.0715 1.6765000000000008,1.0669999999999997 1.6723,1.0614 1.6736000000000004,1.0561999999999996 1.671800000000001,1.0513999999999997 1.6680000000000028,1.0471999999999997 1.665700000000001,1.0467 1.660300000000003,1.0375999999999999 1.6549000000000014,1.0347 1.6488000000000014,1.0275999999999996 1.644400000000001,1.0267999999999997 1.6387,1.0225 1.6366000000000014,1.0162999999999998 1.6181000000000019,1.0035999999999996 1.6038000000000032,1.0004999999999997 1.5973000000000006,0.9970999999999997 1.5831000000000017,0.9851999999999999 1.5676000000000023,0.9796999999999998 1.564,0.9754999999999998 1.544400000000003,0.9707999999999997 1.534600000000001,0.9662999999999999 1.5309000000000026,0.9612999999999996 1.5249000000000024,0.9578999999999995 1.5215000000000032,0.9489999999999998 1.5137,0.9400999999999997 1.5104000000000006,0.9393999999999996 1.5091999999999999,0.9478999999999997 1.499600000000001,0.9527999999999999 1.4914000000000023,0.9493999999999998 1.4884000000000022,0.9419 1.4840000000000018,0.9398 1.478900000000003,0.9333999999999998 1.4709000000000003,0.9299999999999997 1.4651000000000032,0.9208999999999996 1.460600000000003,0.9174999999999995 1.4608000000000025,0.9134999999999995 1.4524000000000008,0.9094999999999995 1.4520000000000017,0.9073999999999995 1.445400000000003,0.9018999999999999 1.448400000000003,0.8939999999999997 1.4518000000000022,0.8928999999999996 1.451900000000002,0.8956 1.4558,0.8943999999999996 1.4566000000000017,0.8907999999999996 1.4547000000000025,0.8886999999999996 1.456500000000002,0.8865999999999996 1.4541000000000004,0.8846999999999996 1.4541000000000004,0.8806999999999996 1.4516000000000027,0.8809999999999998 1.4501000000000026,0.8783999999999996 1.4517000000000024,0.8769999999999998 1.453800000000001,0.8786999999999998 1.4573,0.8765999999999998 1.4571000000000005,0.8742999999999999 1.4553000000000011,0.8733 1.4564000000000021,0.8636999999999997 1.4510000000000005,0.8617999999999997 1.4524000000000008,0.8597999999999999 1.4506000000000014,0.8568999999999996 1.448400000000003,0.8558999999999997 1.4465000000000003,0.8578999999999999 1.4470000000000027,0.8542999999999998 1.4430000000000014,0.8502999999999998 1.4403000000000006,0.8485999999999998 1.4363000000000028,0.8497999999999997 1.4294000000000011,0.8453999999999997 1.4299,0.843 1.4331000000000031,0.8421999999999996 1.4323000000000015,0.8371 1.4292000000000016,0.8356999999999997 1.4299,0.8325999999999998 1.4268,0.8316999999999997 1.4274000000000022,0.8282999999999996 1.4215000000000018,0.8286999999999995 1.4196000000000026,0.8160999999999996 1.415300000000002,0.8157999999999999 1.415300000000002,0.8036999999999996 1.4097000000000008,0.8028999999999997 1.4078000000000017,0.7988999999999997 1.4113000000000007,0.7949999999999999 1.411200000000001,0.7927 1.4080000000000013,0.7897999999999996 1.4049000000000014,0.7901999999999996 1.4086000000000034,0.7851999999999997 1.4083000000000006,0.7817999999999996 1.4044000000000025,0.7833999999999999 1.4023000000000003,0.7793999999999999 1.403100000000002,0.7767 1.3993000000000002,0.7709999999999999 1.400100000000002,0.7699999999999996 1.3968000000000025,0.7688999999999999 1.398100000000003,0.7666 1.3969000000000023,0.7649999999999997 1.3902999999999999,0.7651999999999997 1.391300000000001,0.7612999999999999 1.386300000000002,0.7556999999999996 1.391300000000001,0.7537999999999996 1.391300000000001,0.7514999999999996 1.3884000000000007,0.7496999999999998 1.3901000000000003,0.7417999999999996 1.3976000000000006,0.7388999999999997 1.3987000000000016,0.7325999999999997 1.397000000000002,0.7309999999999999 1.4004000000000012,0.7267999999999999 1.4003000000000014,0.7235999999999998 1.404,0.7171999999999996 1.4038000000000004,0.7085999999999997 1.4089000000000027,0.7058999999999997 1.4099000000000004,0.7034999999999996 1.4082000000000008,0.6963999999999997 1.409600000000001,0.6959 1.4097000000000008,0.6855999999999995 1.4049000000000014,0.6819999999999999 1.404,0.6762999999999999 1.3961000000000006,0.6722999999999999 1.3936000000000028,0.6752999999999996 1.395500000000002,0.6762999999999999 1.3954000000000022,0.6790999999999996 1.3907000000000025,0.6776999999999997 1.389800000000001,0.6808999999999998 1.384800000000002,0.6818999999999997 1.3831000000000024,0.6874999999999996 1.385200000000001,0.6898999999999997 1.383300000000002,0.6913999999999998 1.3796,0.6911999999999998 1.3794000000000004,0.6931999999999996 1.375200000000003,0.6942999999999997 1.3663000000000025,0.6943999999999999 1.3617000000000026,0.6922999999999999 1.3588000000000022,0.6885999999999997 1.3555000000000028,0.6908999999999996 1.3566000000000003,0.6931999999999996 1.354800000000001,0.6943999999999999 1.3468000000000018,0.6957999999999998 1.337100000000003,0.6885999999999997 1.3355000000000032,0.6892999999999998 1.3351000000000006,0.6853999999999996 1.329500000000003,0.6848999999999998 1.330400000000001,0.6815999999999995 1.3276000000000003,0.6802999999999999 1.3271000000000015,0.6769999999999996 1.323800000000002,0.6749999999999998 1.3256000000000014,0.6694999999999998 1.3232,0.6689999999999996 1.3257000000000012,0.6668999999999996 1.3229000000000006,0.6649999999999996 1.3240000000000016,0.6630999999999996 1.3210000000000015,0.6629999999999998 1.3205000000000027,0.6608999999999998 1.3230000000000004,0.6612999999999998 1.3242000000000012,0.6598999999999999 1.321200000000001,0.6567999999999996 1.3225000000000016,0.6536999999999997 1.3202000000000034,0.6541999999999999 1.3199000000000005,0.6517 1.3165000000000013,0.6511999999999998 1.3170000000000002,0.6461999999999999 1.3139000000000003,0.6457999999999999 1.315800000000003,0.6452999999999998 1.3135000000000012,0.6437999999999997 1.3145000000000024,0.6405999999999996 1.3080000000000034,0.6374 1.3104000000000013,0.6360999999999999 1.3113000000000028,0.6313 1.3083000000000027,0.6273999999999997 1.3081000000000031,0.6246999999999998 1.3056000000000019,0.6237999999999997 1.3035000000000032,0.6203999999999996 1.297900000000002,0.6182999999999996 1.2978000000000023,0.6124999999999998 1.291400000000003,0.6073 1.2895000000000003,0.6095999999999999 1.288800000000002,0.6071 1.2836000000000034,0.6036999999999999 1.284200000000002,0.6010999999999997 1.2818000000000005,0.6012999999999997 1.278500000000001,0.5978999999999997 1.278500000000001,0.5956999999999999 1.2764000000000024,0.5965999999999996 1.2741000000000007,0.5938999999999997 1.272400000000001,0.5957999999999997 1.2707000000000015,0.5921999999999996 1.2678000000000011,0.5943999999999998 1.2656000000000027,0.5928999999999998 1.2647000000000013,0.5892999999999997 1.2597000000000023,0.5895999999999999 1.2608000000000033,0.5857999999999999 1.2559000000000005,0.5860999999999996 1.2591999999999999,0.5776999999999997 1.2565000000000026,0.5751 1.2571000000000012,0.5734999999999997 1.2551000000000023,0.5730999999999997 1.2547000000000033,0.5665999999999998 1.2524000000000015,0.5654999999999997 1.2530000000000001,0.5629 1.250200000000003,0.5593999999999997 1.2494000000000014,0.5511999999999997 1.2469000000000001,0.5488 1.244600000000002,0.5497999999999998 1.243000000000002,0.5471999999999997 1.2394000000000034,0.5463999999999998 1.2405000000000008,0.5408 1.2379000000000033,0.5372999999999997 1.2363,0.5372999999999997 1.236900000000002,0.5351999999999997 1.231300000000001,0.5288999999999997 1.2342000000000013,0.5267999999999997 1.2327000000000012,0.5259999999999998 1.2327000000000012,0.5175999999999998 1.2291000000000025,0.5164999999999997 1.2303000000000033,0.5066999999999999 1.2286000000000001,0.5071999999999997 1.2275000000000027,0.5011999999999999 1.2255000000000003,0.4990999999999999 1.2271,0.49839999999999973 1.2266000000000012,0.4955999999999996 1.2197000000000031,0.4846999999999997 1.2135000000000034,0.47909999999999986 1.2186000000000021,0.46859999999999946 1.217600000000001,0.4673999999999996 1.2197000000000031,0.4650999999999996 1.2186000000000021,0.46419999999999995 1.2222000000000008,0.46279999999999966 1.2223000000000006,0.4604999999999997 1.2295000000000016,0.45920000000000005 1.2276000000000025,0.45679999999999943 1.2286000000000001,0.4548999999999994 1.2272000000000034,0.4521999999999995 1.2236000000000011,0.4519000000000002 1.2247000000000021,0.44899999999999984 1.223200000000002,0.4452999999999996 1.2165,0.44229999999999947 1.2149,0.43409999999999993 1.2079000000000022,0.4289999999999994 1.2046000000000028,0.4239999999999995 1.2026000000000003,0.42459999999999987 1.2039000000000009,0.4219999999999997 1.2007000000000012,0.4220999999999995 1.1995000000000005,0.4239999999999995 1.1976000000000013,0.4227999999999996 1.195400000000003,0.42379999999999995 1.190100000000001,0.4180999999999999 1.1910000000000025,0.4158999999999997 1.1870000000000012,0.4128999999999996 1.188200000000002,0.41080000000000005 1.187700000000003,0.40639999999999965 1.1859000000000002,0.4062999999999999 1.1870000000000012,0.4051 1.1823000000000015,0.39809999999999945 1.1842000000000006,0.39529999999999976 1.1824000000000012,0.3934999999999995 1.1831000000000031,0.39199999999999946 1.1812000000000005,0.39119999999999955 1.180500000000002,0.3883000000000001 1.1784,0.38819999999999943 1.178600000000003,0.3860000000000001 1.176000000000002,0.3849999999999998 1.177500000000002,0.38459999999999983 1.1769000000000034,0.38260000000000005 1.1789000000000023,0.3837999999999999 1.1795000000000009,0.38149999999999995 1.1754000000000033,0.37650000000000006 1.1708000000000034,0.3753000000000002 1.1701000000000015,0.37040000000000006 1.1687000000000012,0.3708 1.1680000000000028,0.36879999999999935 1.1663000000000032,0.3696999999999999 1.1669000000000018,0.3675999999999995 1.164200000000001,0.3660999999999994 1.1634000000000029,0.3624999999999998 1.1609000000000016,0.3617999999999997 1.1616,0.3597999999999999 1.158100000000001,0.3545999999999996 1.1523000000000003,0.3525999999999998 1.151600000000002,0.35079999999999956 1.1487000000000016,0.35079999999999956 1.1487000000000016,0.3484999999999996 1.1387,0.3426999999999998 1.1377000000000024,0.3400999999999996 1.1328000000000031,0.33729999999999993 1.1326,0.33530000000000015 1.1299000000000028,0.3373999999999997 1.1255000000000024,0.3338000000000001 1.1229000000000013,0.3340999999999994 1.1232000000000006,0.33259999999999934 1.1212000000000018,0.3320999999999996 1.1233000000000004,0.3309999999999995 1.123000000000001,0.3290999999999995 1.1175000000000033,0.32839999999999936 1.1162000000000027,0.33069999999999933 1.1140000000000008,0.32430000000000003 1.112400000000001,0.3243999999999998 1.1121000000000016,0.31959999999999944 1.1080000000000005,0.31679999999999975 1.1030000000000015,0.3179999999999996 1.0942000000000007,0.3122999999999996 1.0940000000000012,0.31049999999999933 1.0914000000000001,0.3111999999999995 1.0903000000000027,0.30929999999999946 1.0848000000000013,0.3094000000000001 1.0829000000000022,0.3050999999999995 1.081500000000002,0.3052999999999999 1.0777,0.3014999999999999 1.0768000000000022,0.29689999999999994 1.0745000000000005,0.29749999999999943 1.0746000000000002,0.2931999999999997 1.0732,0.2931999999999997 1.075400000000002,0.2911999999999999 1.0710000000000015,0.28749999999999964 1.072300000000002,0.2835000000000001 1.0696000000000012,0.2787999999999995 1.0706000000000024,0.27669999999999995 1.0689000000000028,0.2753999999999994 1.0701,0.274 1.0623000000000005,0.2688999999999995 1.060500000000001,0.2593999999999994 1.056000000000001,0.2524999999999995 1.0565000000000033,0.24819999999999975 1.052100000000003,0.24690000000000012 1.0547000000000004,0.24299999999999944 1.0541000000000018,0.24099999999999966 1.0561000000000007,0.2394999999999996 1.0534,0.23249999999999993 1.054000000000002,0.22809999999999953 1.0504000000000033,0.22689999999999966 1.0469000000000008,0.22829999999999995 1.046400000000002,0.22630000000000017 1.051000000000002,0.2256999999999998 1.0492000000000026,0.22199999999999953 1.0532000000000004,0.2168000000000001 1.053600000000003,0.21530000000000005 1.0518,0.2145999999999999 1.0531000000000006,0.21199999999999974 1.0524000000000022,0.21039999999999992 1.0498000000000012,0.20999999999999996 1.0461000000000027,0.21419999999999995 1.0430000000000028,0.21329999999999938 1.0445000000000029,0.2131999999999996 "></polygon><polygon points="0.23610000000000042,1.1976999999999998 0.2380000000000031,1.1926999999999999 0.2270000000000003,1.1858 0.22570000000000334,1.1793999999999998 0.22830000000000084,1.1792999999999996 0.228900000000003,1.1855999999999995 0.2403000000000013,1.1923999999999997 0.23820000000000263,1.1972999999999998 0.24110000000000298,1.2006999999999999 0.23610000000000042,1.1976999999999998 "></polygon><polygon points="0.21480000000000032,1.1506999999999996 0.21630000000000038,1.1458999999999997 0.22350000000000136,1.1454999999999997 0.2245000000000026,1.1468999999999996 0.22430000000000305,1.1525999999999996 0.21380000000000265,1.1528999999999998 0.21480000000000032,1.1506999999999996 "></polygon>
    </svg>
    