
    <svg width="5.721000000000001" height="5.2562999999999995" xmlns="http://www.w3.org/2000/svg" xmlns:xlink="http://www.w3.org/1999/xlink" style="transform: scale(1, -1)">
        <polygon points="0.03390000000000004,0.02089999999999992 0.03590000000000071,0.016699999999999937 0.03330000000000055,0.01629999999999998 0.03270000000000017,0.014000000000000012 0.035200000000000564,0.006899999999999906 0.027900000000000702,0.0040999999999999925 0.02740000000000009,0.00019999999999997797 0.019600000000000506,0.0 0.018700000000000827,0.0030000000000001137 0.014600000000000612,0.0024999999999999467 0.012599999999999945,0.00019999999999997797 0.01070000000000082,0.0033000000000000806 0.012100000000000222,0.006099999999999994 0.004300000000000637,0.008599999999999941 0.0041999999999999815,0.014799999999999924 0.006800000000000139,0.020000000000000018 0.009800000000000253,0.020999999999999908 0.010200000000000209,0.02279999999999993 0.00930000000000053,0.02639999999999998 0.006400000000000183,0.02950000000000008 0.007600000000000051,0.033400000000000096 0.006099999999999994,0.03499999999999992 0.006800000000000139,0.038999999999999924 0.005300000000000082,0.0403 0.0049000000000001265,0.04459999999999997 0.002200000000000202,0.04469999999999996 0.00140000000000029,0.046599999999999975 0.003100000000000769,0.05130000000000012 0.00020000000000042206,0.052000000000000046 0.0,0.05410000000000004 0.0015000000000000568,0.05889999999999995 0.0054000000000007375,0.0605 0.0062000000000006494,0.0636000000000001 0.009000000000000341,0.06220000000000003 0.014200000000000657,0.06540000000000012 0.02120000000000033,0.06140000000000012 0.024100000000000676,0.06340000000000012 0.022800000000000153,0.06059999999999999 0.025000000000000355,0.05950000000000011 0.02629999999999999,0.060799999999999965 0.0246000000000004,0.06509999999999994 0.027600000000000513,0.0605 0.02600000000000069,0.056599999999999984 0.032900000000000595,0.04970000000000008 0.032900000000000595,0.04410000000000003 0.03680000000000039,0.03980000000000006 0.0351000000000008,0.036599999999999966 0.03730000000000011,0.03269999999999995 0.03960000000000008,0.032200000000000006 0.03790000000000049,0.02970000000000006 0.03900000000000059,0.02520000000000011 0.03570000000000029,0.023900000000000032 0.03390000000000004,0.02089999999999992 "></polygon><polygon points="3.061000000000001,4.6769 3.0545999999999998,4.6783 3.0499,4.681900000000001 3.0496000000000008,4.6850000000000005 3.0443000000000007,4.6886 3.0264999999999995,4.696899999999999 3.0071000000000003,4.7019 3.0040000000000004,4.6989 3.0018000000000002,4.6991 2.9887000000000006,4.7072 2.9735000000000005,4.7138 2.9615,4.7119 2.9521000000000006,4.7138 2.9478999999999997,4.7075 2.9415000000000004,4.7066 2.9371,4.7097 2.9287,4.7108 2.9171000000000005,4.717700000000001 2.9006999999999996,4.723599999999999 2.885700000000001,4.7255 2.881000000000001,4.7225 2.8770999999999995,4.7255 2.8693,4.7255 2.859000000000001,4.73 2.852100000000001,4.7347 2.846800000000001,4.7361 2.846000000000001,4.7379999999999995 2.8371000000000004,4.7366 2.8343,4.74 2.831500000000001,4.7397 2.8279000000000005,4.7422 2.8226000000000004,4.7494 2.823200000000001,4.7569 2.8198999999999996,4.7585999999999995 2.8206999999999995,4.763 2.819,4.7658000000000005 2.8210000000000006,4.7707999999999995 2.8167999999999997,4.7714 2.819,4.7758 2.8145999999999995,4.7783 2.8143000000000002,4.7839 2.8114999999999997,4.7858 2.812400000000001,4.788600000000001 2.807100000000001,4.7913 2.8051000000000004,4.7966 2.8057000000000007,4.803 2.8032000000000012,4.8041 2.8023,4.8083 2.8004000000000007,4.809699999999999 2.8007,4.8247 2.7976,4.827999999999999 2.7990000000000004,4.8322 2.801800000000001,4.833600000000001 2.8043000000000005,4.8383 2.8029,4.842499999999999 2.8037,4.8454999999999995 2.8012000000000006,4.848599999999999 2.8043000000000005,4.8583 2.807900000000001,4.8619 2.8104000000000005,4.8675 2.8104000000000005,4.875 2.8137,4.878 2.8137,4.8814 2.816200000000001,4.8852 2.819,4.9002 2.8267999999999995,4.9125 2.8301000000000007,4.9133 2.830700000000001,4.9186 2.8332000000000006,4.92 2.8343,4.925 2.8365,4.9254999999999995 2.8404,4.9325 2.8454000000000006,4.9336 2.8462000000000005,4.9358 2.8485000000000005,4.9350000000000005 2.8503999999999996,4.9366 2.8532,4.9364 2.8532,4.9402 2.8576000000000006,4.9394 2.8593,4.9419 2.8654,4.9419 2.866500000000001,4.9376999999999995 2.8690000000000007,4.9389 2.8776,4.9366 2.8837,4.9399999999999995 2.888700000000001,4.9361 2.8951000000000002,4.9350000000000005 2.904000000000001,4.9364 2.906200000000001,4.9344 2.9136999999999995,4.934699999999999 2.9201000000000006,4.9376999999999995 2.922300000000001,4.9364 2.9242999999999997,4.9376999999999995 2.9254000000000007,4.9361 2.9295999999999998,4.9364 2.929000000000001,4.9338999999999995 2.9324000000000003,4.933 2.9376000000000007,4.928599999999999 2.944,4.9294 2.9462,4.9322 2.9570999999999996,4.9361 2.9668,4.955 2.9692999999999996,4.9711 2.9635000000000007,4.978 2.959600000000001,4.9786 2.9582000000000006,4.9811 2.9562,4.9813 2.9570999999999996,4.984999999999999 2.954300000000001,4.9852 2.954300000000001,4.9889 2.9570999999999996,4.9905 2.9578999999999995,4.995 2.9612000000000007,4.9969 2.9615,5.003 2.965700000000001,5.005 2.965700000000001,5.0072 2.9682000000000004,5.0085999999999995 2.9682000000000004,5.0116 2.9735000000000005,5.0111 2.976,5.0125 2.977900000000001,5.0183 2.9814999999999996,5.0202 2.9821,5.0227 2.986200000000001,5.023899999999999 2.9871000000000008,5.027699999999999 2.9904,5.0291 2.9928999999999997,5.0347 2.9928999999999997,5.0390999999999995 2.991500000000001,5.0402000000000005 2.9926000000000004,5.045 2.9904,5.0461 2.990100000000001,5.0552 2.994600000000001,5.0638000000000005 2.9926000000000004,5.084099999999999 2.994600000000001,5.0933 2.992300000000001,5.1005 2.9940000000000007,5.105 2.9926000000000004,5.1097 2.9957000000000003,5.1166 2.9943,5.1227 2.9968000000000012,5.1383 3.006800000000001,5.1427 3.0081999999999995,5.1497 3.0151000000000012,5.155200000000001 3.0162000000000004,5.1594 3.025100000000001,5.1644000000000005 3.0276000000000005,5.1716 3.0325999999999995,5.1744 3.0368000000000004,5.1825 3.0437000000000003,5.1902 3.0439999999999996,5.1958 3.0476,5.1977 3.052600000000001,5.2044 3.0523999999999996,5.208 3.0553999999999997,5.2072 3.0576,5.2089 3.058700000000001,5.2141 3.0618000000000007,5.215 3.0637,5.217700000000001 3.063200000000001,5.220000000000001 3.067100000000001,5.223 3.0674,5.2316 3.0740000000000007,5.244400000000001 3.0787000000000004,5.2452000000000005 3.0862000000000007,5.2508 3.092100000000001,5.2519 3.0985000000000005,5.2562999999999995 3.1079,5.2494 3.1117999999999997,5.2501999999999995 3.1137000000000006,5.2491 3.1137000000000006,5.245 3.111200000000001,5.2440999999999995 3.1101,5.24 3.1079,5.2379999999999995 3.109000000000001,5.2344 3.116500000000001,5.2265999999999995 3.120400000000001,5.228 3.1392999999999995,5.228 3.147100000000001,5.2222 3.1526000000000005,5.223599999999999 3.1551,5.2258 3.159300000000001,5.223800000000001 3.1618000000000004,5.228 3.1635,5.225 3.1657,5.2252 3.166800000000001,5.2283 3.1687000000000003,5.2286 3.1671000000000005,5.2333 3.171500000000001,5.228 3.179000000000001,5.2286 3.1795999999999998,5.2308 3.1834999999999996,5.2294 3.1901,5.2216000000000005 3.194300000000001,5.2219 3.1954000000000002,5.2247 3.1990000000000007,5.223800000000001 3.201200000000001,5.2263 3.2054,5.2244 3.2115,5.2252 3.216,5.2222 3.217900000000001,5.225 3.2199,5.2233 3.2224000000000013,5.2244 3.2261999999999995,5.2227 3.2282,5.2265999999999995 3.233200000000001,5.2277000000000005 3.234800000000001,5.2265999999999995 3.244600000000001,5.228 3.2457000000000003,5.2265999999999995 3.2493000000000007,5.2265999999999995 3.2540000000000004,5.2314 3.263700000000001,5.2330000000000005 3.2642999999999995,5.234999999999999 3.2671,5.2355 3.2821000000000007,5.2326999999999995 3.2846,5.2311 3.2874000000000008,5.223800000000001 3.2939999999999996,5.2222 3.3015,5.2119 3.2999,5.2058 3.3035000000000005,5.1986 3.3065000000000007,5.1991 3.3082000000000003,5.1977 3.307100000000001,5.1947 3.3082000000000003,5.188000000000001 3.3135000000000003,5.1891 3.3173000000000004,5.1833 3.3182,5.17 3.317100000000001,5.1661 3.3196000000000003,5.1619 3.319,5.154999999999999 3.3206999999999995,5.1497 3.3196000000000003,5.1441 3.3215000000000012,5.1419 3.3204000000000002,5.138 3.3221,5.1333 3.318500000000001,5.1251999999999995 3.3196000000000003,5.1183 3.317100000000001,5.116099999999999 3.3157000000000005,5.103899999999999 3.3114999999999997,5.1015999999999995 3.3104000000000005,5.0975 3.3076,5.0972 3.306,5.0905000000000005 3.3023,5.0893999999999995 3.2992999999999997,5.083 3.296500000000001,5.0822 3.2935000000000008,5.077500000000001 3.2882000000000007,5.0758 3.2876000000000003,5.07 3.283500000000001,5.0675 3.2807000000000004,5.055 3.269000000000001,5.044700000000001 3.268200000000001,5.0422 3.2615000000000007,5.036099999999999 3.2601000000000004,5.0313 3.252300000000001,5.025 3.2487000000000004,5.0116 3.244600000000001,5.0116 3.242400000000001,5.0088 3.239,4.9975000000000005 3.2371000000000008,4.9961 3.2359999999999998,4.9877 3.226,4.9714 3.2257000000000007,4.963 3.2212000000000005,4.96 3.2212000000000005,4.9552 3.2190000000000003,4.955 3.2192999999999996,4.9508 3.2168,4.9497 3.216500000000001,4.9475 3.2135000000000007,4.9477 3.209600000000001,4.9376999999999995 3.2039999999999997,4.9336 3.2021000000000006,4.9266000000000005 3.1968000000000005,4.925 3.194,4.9219 3.1960000000000006,4.9191 3.193500000000001,4.9166 3.194,4.9133 3.1924,4.9119 3.1937000000000006,4.91 3.193500000000001,4.905200000000001 3.1895999999999995,4.9013 3.1937000000000006,4.8975 3.1917999999999997,4.8911 3.1815000000000007,4.8841 3.1787,4.8738 3.170700000000001,4.8711 3.165400000000001,4.8658 3.159,4.8669 3.1535,4.865 3.1487000000000007,4.8594 3.147900000000001,4.8525 3.1551,4.8408 3.1565000000000003,4.8308 3.154600000000001,4.8283000000000005 3.156200000000001,4.8258 3.154600000000001,4.818 3.1567999999999996,4.8169 3.1543,4.8044 3.152300000000001,4.8025 3.152300000000001,4.7972 3.1482,4.7919 3.147900000000001,4.7847 3.143200000000001,4.7811 3.1396000000000006,4.7752 3.134900000000001,4.774100000000001 3.1304000000000007,4.7638 3.1209999999999996,4.7561 3.1162,4.7494 3.1132,4.7486 3.1101,4.7433 3.1046000000000005,4.7413 3.0965,4.732200000000001 3.0949,4.7244 3.092100000000001,4.7219 3.0911999999999997,4.7183 3.0826000000000002,4.7094000000000005 3.0832000000000006,4.7008 3.0801000000000007,4.700200000000001 3.0796,4.6977 3.075400000000001,4.6952 3.0751,4.6916 3.061000000000001,4.6769 "></polygon><polygon points="3.762100000000001,2.2769 3.761,2.2782999999999998 3.7642999999999995,2.2782999999999998 3.7626,2.2769 3.762100000000001,2.2769 "></polygon><polygon points="3.7070999999999996,2.4044 3.7090000000000005,2.4022 3.7154,2.4002 3.7212000000000005,2.393 3.717100000000001,2.3852 3.7182000000000004,2.3813 3.717100000000001,2.3763 3.7222999999999997,2.3661 3.728700000000001,2.3625 3.718700000000001,2.3608000000000002 3.7143000000000006,2.3569 3.7099,2.3583 3.704300000000001,2.3569 3.694300000000001,2.3658 3.689800000000001,2.3658 3.6862000000000004,2.3633 3.6862000000000004,2.3733 3.6887,2.3816 3.691,2.4022 3.6962,2.4041 3.6985,2.403 3.7047999999999996,2.4052 3.7070999999999996,2.4044 "></polygon><polygon points="3.8901000000000012,2.4602 3.8907,2.4558 3.8929,2.4530000000000003 3.8914999999999997,2.4491 3.8951000000000002,2.4419 3.892400000000001,2.4405 3.8874000000000004,2.4433 3.8843000000000005,2.4402 3.8821000000000003,2.4419 3.8843000000000005,2.4483 3.8815,2.4486 3.8851000000000004,2.4533 3.8861999999999997,2.4602 3.8884999999999996,2.4619 3.8901000000000012,2.4602 "></polygon><polygon points="3.8998,2.4725 3.9036999999999997,2.468 3.9026000000000005,2.4655 3.9004000000000003,2.4655 3.9004000000000003,2.4694000000000003 3.898500000000001,2.4702 3.898500000000001,2.4733 3.8998,2.4725 "></polygon><polygon points="4.380300000000001,2.4652000000000003 4.382600000000001,2.46 4.3790000000000004,2.4538 4.3801,2.4497 4.373500000000001,2.4451 4.374,2.4311 4.375900000000001,2.4263 4.3807,2.4242 4.378000000000001,2.4184 4.3793999999999995,2.4135999999999997 4.373400000000001,2.4065 4.3793999999999995,2.404 4.3799,2.4017 4.375800000000001,2.3968 4.370300000000001,2.3945 4.3646,2.3964 4.354300000000001,2.3954 4.3456,2.3935 4.3397,2.3885 4.3335,2.3889 4.326200000000001,2.393 4.3138,2.4055999999999997 4.2917,2.412 4.2841,2.4156 4.2784,2.4223 4.275900000000001,2.4326 4.2685,2.4443 4.2618,2.45 4.225600000000001,2.4656000000000002 4.1895999999999995,2.4647 4.173800000000001,2.466 4.1697,2.4924 4.1442000000000005,2.5157 4.132000000000001,2.5326 4.127,2.536 4.1199,2.5366 4.083100000000001,2.5324999999999998 4.054800000000001,2.5312 4.048900000000001,2.5288 4.0454,2.5361000000000002 4.0407,2.5354 4.034300000000001,2.5308 4.028800000000001,2.5299 4.025800000000001,2.5248 4.0208,2.5209 4.009900000000001,2.5183 4.0017000000000005,2.5122999999999998 3.9919000000000002,2.5116 3.985500000000001,2.5063 3.9690000000000003,2.4985999999999997 3.962600000000001,2.5097 3.9612000000000007,2.5258000000000003 3.9537000000000004,2.5472 3.9432,2.5669 3.9404000000000012,2.5694 3.939000000000001,2.5744 3.935100000000001,2.5786 3.935100000000001,2.5811 3.932900000000001,2.583 3.9307000000000007,2.5825 3.9254000000000007,2.5905 3.9201000000000006,2.5936 3.9173999999999998,2.5972 3.9120999999999997,2.5989 3.9073,2.5968999999999998 3.8904000000000005,2.6055 3.8837,2.6014 3.8737000000000004,2.6044 3.8632,2.6047000000000002 3.860400000000001,2.6019 3.8571,2.6014 3.854,2.5955 3.8381999999999996,2.5916 3.8340000000000005,2.5858 3.825400000000001,2.585 3.8198,2.5811 3.8015,2.5802 3.8004000000000007,2.5764 3.7946,2.5725 3.7946,2.5689 3.7931999999999997,2.5677000000000003 3.7862,2.5747 3.7809999999999997,2.5772 3.772900000000001,2.5751999999999997 3.7676000000000007,2.5766 3.766800000000001,2.5825 3.7596,2.6002 3.7554000000000007,2.6044 3.7504,2.6055 3.7489999999999997,2.6077 3.7420999999999998,2.6069 3.7396000000000003,2.6127000000000002 3.7440000000000007,2.6144 3.7426000000000004,2.6252 3.7335000000000003,2.6366 3.7243000000000004,2.6408 3.7282,2.6483 3.734000000000001,2.6471999999999998 3.7375999999999996,2.6508000000000003 3.7407000000000012,2.6508000000000003 3.7418000000000005,2.653 3.747600000000001,2.6522 3.7489999999999997,2.6502 3.7529000000000012,2.6538 3.7540000000000004,2.6611000000000002 3.757600000000001,2.6675 3.759900000000001,2.6757999999999997 3.7676000000000007,2.6811 3.7695999999999996,2.6864 3.7687,2.6961 3.7701000000000002,2.7011000000000003 3.7723000000000004,2.7027 3.773500000000001,2.7169 3.7793,2.7225 3.7817999999999996,2.7311 3.779000000000001,2.7411000000000003 3.7832,2.7419000000000002 3.7910000000000013,2.7504999999999997 3.7982000000000005,2.7514000000000003 3.8065000000000007,2.7494 3.811000000000001,2.7519 3.8157000000000005,2.7602 3.8174,2.7694 3.825400000000001,2.7788 3.8251,2.7836 3.8340000000000005,2.7841 3.8389999999999995,2.7877 3.842900000000001,2.7939 3.8454000000000006,2.8016 3.8446000000000007,2.8175 3.8479,2.8186 3.8462000000000005,2.8205 3.8472999999999997,2.8263 3.8465,2.8452 3.842100000000001,2.8608000000000002 3.8449,2.8622 3.8462000000000005,2.8669000000000002 3.8495999999999997,2.8672 3.854,2.8714 3.8624,2.8869 3.8685,2.888 3.8739999999999997,2.893 3.8754,2.8966000000000003 3.8837,2.9025 3.8937,2.9050000000000002 3.9035,2.9122000000000003 3.9128999999999996,2.9222 3.9234999999999998,2.9289 3.926800000000001,2.9372 3.9279,2.9466 3.9318,2.9527 3.9446000000000003,2.955 3.9524,2.9675000000000002 3.9576000000000002,2.9794 3.9570999999999996,2.9821999999999997 3.962600000000001,2.9943999999999997 3.9646,3.0027 3.9729,3.0197000000000003 3.9776,3.025 3.9796000000000005,3.0416 3.9867999999999997,3.0463 3.9875999999999996,3.0492 3.9920999999999998,3.0536000000000003 3.9957000000000003,3.0526999999999997 4.0004,3.0589 4.0040000000000004,3.0583 4.0104,3.0627 4.0049,3.075 3.9979000000000005,3.0789 3.9957000000000003,3.0819 3.9935,3.0897 3.991500000000001,3.0913 3.988500000000001,3.0902000000000003 3.9879000000000007,3.1016 3.9904,3.1052 3.9920999999999998,3.115 3.992300000000001,3.1352 3.9971000000000005,3.1408 3.9996,3.1408 4.0026,3.1433 4.006200000000001,3.1513 4.0104,3.1538 4.0132,3.1583 4.0232,3.1614 4.029600000000001,3.1708 4.0407,3.175 4.065400000000001,3.2141 4.0718000000000005,3.2169 4.0735,3.2166 4.0726,3.2152000000000003 4.0735,3.2147 4.0787,3.2172 4.0818,3.2211 4.0889999999999995,3.2236000000000002 4.109000000000001,3.2439 4.123500000000001,3.2658 4.1229000000000005,3.268 4.124900000000001,3.2705 4.1276,3.2833 4.127400000000001,3.2888 4.125100000000001,3.2904999999999998 4.127900000000001,3.2925 4.127900000000001,3.2977 4.1290000000000004,3.2969 4.1299,3.3 4.128700000000001,3.3052 4.1407,3.2997 4.131200000000001,3.3061 4.1270999999999995,3.3064 4.1254,3.31 4.126500000000001,3.3129999999999997 4.1351,3.3213999999999997 4.140100000000001,3.3219000000000003 4.1415,3.3275 4.144800000000001,3.3305 4.144000000000001,3.3319 4.1453999999999995,3.3336 4.1537,3.3391 4.157900000000001,3.3377 4.1610000000000005,3.343 4.1682,3.3455 4.1757,3.3597 4.176000000000001,3.3658 4.177600000000001,3.3672 4.176000000000001,3.3744 4.178200000000001,3.3758 4.180700000000001,3.3735999999999997 4.1834999999999996,3.3737 4.1862,3.3761 4.1901,3.3761 4.192900000000001,3.38 4.1954,3.3941 4.1954,3.4114 4.192900000000001,3.4141 4.193500000000001,3.42 4.1865,3.4425 4.1846000000000005,3.4575 4.174600000000001,3.4852 4.1751,3.4897 4.1726,3.4908 4.1687,3.5011 4.1582,3.5405 4.1482,3.5602 4.1504,3.5633 4.1512,3.5775 4.155400000000001,3.58 4.1610000000000005,3.5808 4.1665,3.5855 4.170100000000001,3.5911 4.173700000000001,3.6008 4.173700000000001,3.6052 4.1773,3.6125 4.1804,3.6355 4.1765,3.6477 4.178200000000001,3.6769 4.1773,3.6972 4.1712,3.7202 4.173700000000001,3.7355 4.1657,3.7647 4.1587000000000005,3.783 4.1618,3.795 4.1673,3.7966 4.1743,3.7963 4.177600000000001,3.8016 4.179900000000001,3.8016 4.182900000000001,3.8052 4.1885,3.8027 4.1932,3.8033 4.202100000000001,3.8097 4.2032,3.8152 4.204900000000001,3.8155 4.218800000000001,3.7951 4.217200000000001,3.7692 4.2136000000000005,3.7578 4.221000000000001,3.7405 4.2297,3.7122 4.243000000000001,3.7084 4.2479000000000005,3.7022 4.2612,3.6989 4.262900000000001,3.694 4.2617,3.6855 4.272100000000001,3.6862 4.2738000000000005,3.6796 4.2801,3.6778 4.281100000000001,3.6698 4.2853,3.6677 4.2863999999999995,3.6646 4.2916,3.6627 4.303400000000001,3.6646 4.3036,3.6615 4.3058000000000005,3.6592000000000002 4.315,3.6545 4.3161,3.6505 4.319,3.6495 4.322,3.6592000000000002 4.3302000000000005,3.6543 4.339200000000001,3.6562 4.349700000000001,3.6487 4.3585,3.6458 4.3664,3.6406 4.3699,3.6423 4.3715,3.6402 4.3707,3.6361 4.3725,3.6349 4.38,3.6365 4.3843000000000005,3.6392 4.387900000000001,3.6376 4.3961,3.6375 4.414600000000001,3.6281 4.419100000000001,3.6318 4.424600000000001,3.6321 4.4251,3.6272 4.4304,3.6274 4.4316,3.6326 4.4537,3.6277 4.4638,3.6287 4.4811000000000005,3.6271 4.486400000000001,3.6303 4.4933000000000005,3.6293 4.498400000000001,3.625 4.4975,3.6222 4.493900000000001,3.6205 4.496800000000001,3.6141 4.5002,3.6132 4.503700000000001,3.6086 4.506800000000001,3.6092 4.5202,3.6231 4.5299000000000005,3.6237 4.5293,3.6209000000000002 4.5369,3.6208 4.5432,3.6178 4.5497000000000005,3.6183 4.5615,3.6293 4.565500000000001,3.6347 4.565400000000001,3.6386 4.5676,3.6404 4.571700000000001,3.6393 4.5745,3.6419 4.5737,3.6393 5.718000000000001,3.64 5.716,3.6248 5.7191,3.5871 5.7177999999999995,3.577 5.7167,3.4629000000000003 5.718100000000001,3.4571 5.716600000000001,3.4512 5.7193,3.3587 5.7167,3.3224 5.7182,3.3053 5.7174000000000005,3.2946 5.7193,3.2946999999999997 5.7197000000000005,3.213 5.717300000000001,3.213 5.7183,3.02 5.717100000000001,2.9995000000000003 5.7176,2.9581 5.718700000000001,2.9581 5.718700000000001,2.956 5.7207,2.957 5.721000000000001,2.8487 5.718800000000001,2.8486000000000002 5.7177999999999995,2.8350999999999997 5.717200000000001,2.7706999999999997 5.7184,2.4669 5.700300000000001,2.4647 5.586200000000001,2.4653 5.5606,2.4638 5.536600000000001,2.4669 5.508500000000001,2.4649 5.504600000000001,2.467 5.4875,2.4651 5.432000000000001,2.4655 5.404800000000001,2.464 5.399300000000001,2.4653 5.379700000000001,2.4645 5.3699,2.4659 5.2189000000000005,2.4648 5.1833,2.466 4.8304,2.4659 4.8265,2.4643 4.6788,2.4666 4.668,2.4654 4.5463,2.4644 4.5141,2.4661 4.5081999999999995,2.4647 4.493100000000001,2.4657 4.4753,2.4647 4.458100000000001,2.4671000000000003 4.454900000000001,2.4655 4.380300000000001,2.4652000000000003 "></polygon><polygon points="4.1229000000000005,3.2927 4.1229000000000005,3.2904999999999998 4.121200000000001,3.2902 4.121200000000001,3.2936 4.1229000000000005,3.2927 "></polygon><polygon points="3.2935000000000008,5.2275 3.2943000000000007,5.2258 3.2901,5.226100000000001 3.291800000000001,5.228899999999999 3.2935000000000008,5.2275 "></polygon><polygon points="2.9532,5.0111 2.9537000000000004,5.0085999999999995 2.950400000000001,5.009399999999999 2.9517999999999995,5.0125 2.9532,5.0111 "></polygon>
    </svg>
    