
    <svg width="5.8027" height="6.3063" xmlns="http://www.w3.org/2000/svg" xmlns:xlink="http://www.w3.org/1999/xlink" style="transform: scale(1, -1)">
        <polygon points="0.3254999999999999,3.1391999999999998 0.3241999999999994,3.1378 0.3249999999999993,3.1425 0.3257999999999992,3.142 0.3254999999999999,3.1391999999999998 "></polygon><polygon points="0.323599999999999,2.7603 0.3222000000000005,2.7595 0.3227999999999991,2.7636 0.3239000000000001,2.7622 0.323599999999999,2.7603 "></polygon><polygon points="0.3179999999999996,2.7775 0.3139000000000003,2.7758 0.3125,2.7781000000000002 0.3163999999999998,2.7792 0.3179999999999996,2.7775 "></polygon><polygon points="0.30299999999999905,2.785 0.3035999999999994,2.7822 0.30219999999999914,2.7813999999999997 0.3013999999999992,2.7864 0.30299999999999905,2.785 "></polygon><polygon points="0.21579999999999977,2.9697 0.2104999999999997,2.9638999999999998 0.2029999999999994,2.9633 0.1999999999999993,2.9646999999999997 0.20330000000000048,2.9680999999999997 0.21419999999999995,2.9730999999999996 0.21640000000000015,2.9728 0.21579999999999977,2.9697 "></polygon><polygon points="0.27669999999999995,2.9425 0.2729999999999997,2.9458 0.2644000000000002,2.9478 0.2599999999999998,2.9532999999999996 0.2685999999999993,2.9519 0.27139999999999986,2.9503 0.28689999999999927,2.9455999999999998 0.28999999999999915,2.947 0.29190000000000005,2.9492 0.29219999999999935,2.9569 0.28999999999999915,2.9622 0.29110000000000014,2.9642 0.29470000000000063,2.9642 0.3041999999999998,2.9596999999999998 0.3153000000000006,2.9475 0.3283000000000005,2.9397 0.3330000000000002,2.9383 0.35050000000000026,2.9397 0.3642000000000003,2.9339 0.367799999999999,2.9299999999999997 0.35800000000000054,2.9278 0.35829999999999984,2.9195 0.35580000000000034,2.9116999999999997 0.35249999999999915,2.9082999999999997 0.34830000000000005,2.8970000000000002 0.34469999999999956,2.8939 0.3415999999999997,2.8939 0.32750000000000057,2.9017 0.3049999999999997,2.8983 0.29389999999999894,2.8983 0.2903000000000002,2.9 0.28609999999999935,2.9089 0.2768999999999995,2.9097 0.2724999999999991,2.9124999999999996 0.2705000000000002,2.9236 0.27890000000000015,2.9330999999999996 0.27970000000000006,2.9360999999999997 0.27669999999999995,2.9425 "></polygon><polygon points="0.32530000000000037,2.9461 0.3304999999999989,2.9444999999999997 0.3340999999999994,2.9410999999999996 0.3308,2.9402999999999997 0.32530000000000037,2.9431 0.3227999999999991,2.9461 0.32530000000000037,2.9461 "></polygon><polygon points="0.3140999999999998,2.9542 0.3155000000000001,2.9536 0.3188999999999993,2.95 0.3139000000000003,2.9519 0.311399999999999,2.9553 0.3140999999999998,2.9542 "></polygon><polygon points="0.2654999999999994,2.9532999999999996 0.2532999999999994,2.9556 0.24549999999999983,2.9553 0.23719999999999963,2.9503 0.22529999999999895,2.9478 0.22419999999999973,2.9461 0.21030000000000015,2.9408 0.2021999999999995,2.947 0.198599999999999,2.9463999999999997 0.1905000000000001,2.9497 0.19280000000000008,2.9522 0.19640000000000057,2.9516999999999998 0.19890000000000008,2.9522 0.1880000000000006,2.9564 0.1921999999999997,2.9575 0.19030000000000058,2.9583 0.1913999999999998,2.96 0.1958000000000002,2.9611 0.2104999999999997,2.9627999999999997 0.21110000000000007,2.9603 0.2129999999999992,2.9606 0.21250000000000036,2.9636 0.21640000000000015,2.9695 0.21909999999999918,2.9817 0.22610000000000063,2.9911 0.23799999999999955,2.9958 0.2514000000000003,2.9964 0.2593999999999994,2.9931 0.2693999999999992,2.9844 0.28219999999999956,2.9767 0.29139999999999944,2.9657999999999998 0.28940000000000055,2.9625 0.2917000000000005,2.9566999999999997 0.29139999999999944,2.9495 0.28720000000000034,2.9461 0.2654999999999994,2.9532999999999996 "></polygon><polygon points="0.3096999999999994,3.06 0.3116000000000003,3.0533 0.3153000000000006,3.0497 0.3193999999999999,3.04 0.32779999999999987,3.0282999999999998 0.3346999999999998,3.0214 0.34469999999999956,3.0181 0.34580000000000055,3.0056 0.35079999999999956,2.9936 0.3550000000000004,2.9886 0.36439999999999984,2.9863999999999997 0.36660000000000004,2.9786 0.3664000000000005,2.9714 0.3796999999999997,2.9611 0.3803000000000001,2.9585999999999997 0.3788999999999998,2.9572 0.3727999999999998,2.9556 0.3589000000000002,2.9558 0.34970000000000034,2.9433 0.34050000000000047,2.9436 0.3193999999999999,2.9532999999999996 0.3071999999999999,2.9636 0.29550000000000054,2.9669999999999996 0.28659999999999997,2.9775 0.27999999999999936,2.9814 0.2746999999999993,2.9875 0.2524999999999995,3.0 0.2532999999999994,3.0045 0.2624999999999993,3.01 0.2644000000000002,3.0136 0.2693999999999992,3.0175 0.27030000000000065,3.0206 0.2719000000000005,3.0206 0.27720000000000056,3.0252999999999997 0.28139999999999965,3.0263999999999998 0.27669999999999995,3.0278 0.2729999999999997,3.0221999999999998 0.26890000000000036,3.0214 0.27360000000000007,3.032 0.27580000000000027,3.0517 0.27500000000000036,3.06 0.28919999999999924,3.057 0.3008000000000006,3.0608 0.30829999999999913,3.0661 0.3096999999999994,3.06 "></polygon><polygon points="2.4558,0.03359999999999985 2.455,0.03330000000000011 2.455499999999999,0.035800000000000054 2.4564000000000004,0.03529999999999989 2.4558,0.03359999999999985 "></polygon><polygon points="1.9710999999999999,0.6010999999999997 1.9700000000000006,0.5985999999999998 1.9717000000000002,0.5939000000000001 1.969199999999999,0.5924999999999998 1.9688999999999997,0.5892 1.966899999999999,0.5892 1.9664000000000001,0.5941999999999998 1.9686000000000003,0.5964 1.9678000000000004,0.6006 1.9694000000000003,0.6042000000000001 1.9710999999999999,0.6010999999999997 "></polygon><polygon points="1.5704999999999991,1.0128 1.5716,1.0116999999999998 1.5686,1.0139 1.5696999999999992,1.0139 1.5704999999999991,1.0128 "></polygon><polygon points="0.4580000000000002,1.9167 0.45889999999999986,1.9186 0.4594000000000005,1.9186 0.45919999999999916,1.9158 0.4580000000000002,1.9167 "></polygon><polygon points="0.6553000000000004,2.0075 0.6571999999999996,2.0061 0.6579999999999995,2.0039 0.6547000000000001,2.0069999999999997 0.6539000000000001,2.0095 0.6553000000000004,2.0075 "></polygon><polygon points="0.3127999999999993,2.6736 0.3102999999999998,2.6731 0.3096999999999994,2.6745 0.3116000000000003,2.6753 0.3127999999999993,2.6736 "></polygon><polygon points="0.3066999999999993,2.6878 0.30799999999999983,2.6872 0.30829999999999913,2.6860999999999997 0.3041999999999998,2.6872 0.3041999999999998,2.6886 0.3066999999999993,2.6878 "></polygon><polygon points="0.3069000000000006,2.7347 0.3071999999999999,2.7302999999999997 0.3041999999999998,2.7306 0.3035999999999994,2.7356 0.30609999999999893,2.7371999999999996 0.3069000000000006,2.7347 "></polygon><polygon points="0.3288999999999991,2.7458 0.33280000000000065,2.7356 0.329699999999999,2.727 0.3269000000000002,2.7247 0.3218999999999994,2.7333 0.3247,2.7342 0.32670000000000066,2.7375 0.3271999999999995,2.7408 0.3254999999999999,2.7436 0.32670000000000066,2.7478 0.3279999999999994,2.7481 0.3288999999999991,2.7458 "></polygon><polygon points="0.3224999999999998,2.7408 0.3218999999999994,2.7392 0.3178000000000001,2.7358000000000002 0.317499999999999,2.7389 0.3204999999999991,2.7436 0.3224999999999998,2.7436 0.3224999999999998,2.7408 "></polygon><polygon points="0.33029999999999937,2.7492 0.3285999999999998,2.7495 0.3288999999999991,2.7522 0.3304999999999989,2.7511 0.33029999999999937,2.7492 "></polygon><polygon points="0.3086000000000002,2.7225 0.3100000000000005,2.7211 0.3102999999999998,2.7156000000000002 0.311399999999999,2.7161 0.3108000000000004,2.7111 0.3086000000000002,2.7081 0.3130000000000006,2.7096999999999998 0.3171999999999997,2.7039 0.3155000000000001,2.6971999999999996 0.31049999999999933,2.6933 0.3047000000000004,2.6955999999999998 0.29219999999999935,2.7188999999999997 0.29720000000000013,2.7199999999999998 0.29550000000000054,2.7180999999999997 0.2966999999999995,2.7167 0.3003,2.7207999999999997 0.30219999999999914,2.7192 0.30609999999999893,2.7233 0.3086000000000002,2.7225 "></polygon><polygon points="0.3117000000000001,2.7394 0.3166999999999991,2.7378 0.3208000000000002,2.7286 0.3249999999999993,2.7264 0.3254999999999999,2.7233 0.323599999999999,2.7206 0.3155000000000001,2.7199999999999998 0.31049999999999933,2.7253 0.30799999999999983,2.7378 0.3096999999999994,2.7405999999999997 0.3117000000000001,2.7394 "></polygon><polygon points="2.5336999999999996,0.1398999999999999 2.5282999999999998,0.13169999999999993 2.5245999999999995,0.11189999999999989 2.5275999999999996,0.09189999999999987 2.5274,0.08319999999999972 2.523999999999999,0.07299999999999995 2.5138999999999996,0.058499999999999996 2.5128000000000004,0.035499999999999865 2.5013000000000005,0.0 2.4941999999999993,0.004999999999999893 2.4961,0.01059999999999972 2.4918999999999993,0.006699999999999928 2.4513999999999996,0.03249999999999975 2.4533000000000005,0.03330000000000011 2.454699999999999,0.03200000000000003 2.4574999999999996,0.0349999999999997 2.459999999999999,0.034199999999999786 2.4603,0.03639999999999999 2.4635999999999996,0.032200000000000006 2.4672,0.032200000000000006 2.4635999999999996,0.03330000000000011 2.4627999999999997,0.03810000000000002 2.454699999999999,0.040000000000000036 2.455,0.0371999999999999 2.4519,0.03469999999999995 2.4511000000000003,0.03639999999999999 2.4464000000000006,0.0360999999999998 2.4358000000000004,0.04219999999999979 2.4163999999999994,0.05609999999999982 2.4144000000000005,0.059499999999999886 2.403599999999999,0.06499999999999995 2.3839000000000006,0.07939999999999969 2.3839000000000006,0.08279999999999976 2.386899999999999,0.08529999999999971 2.3903,0.08469999999999978 2.3918999999999997,0.08250000000000002 2.388,0.08950000000000014 2.3872,0.0867 2.382999999999999,0.08360000000000012 2.376899999999999,0.0855999999999999 2.3493999999999993,0.10780000000000012 2.3477999999999994,0.11059999999999981 2.3499999999999996,0.10860000000000003 2.3497000000000003,0.10999999999999988 2.3458000000000006,0.11359999999999992 2.3247,0.12919999999999998 2.3217,0.13419999999999987 2.3208,0.1477999999999997 2.3110999999999997,0.1621999999999999 2.307499999999999,0.1730999999999998 2.3092000000000006,0.1860999999999997 2.3161000000000005,0.1985999999999999 2.3179999999999996,0.2056 2.318299999999999,0.20419999999999972 2.3202999999999996,0.20419999999999972 2.3200000000000003,0.2056 2.3011,0.2296999999999998 2.2952999999999992,0.23939999999999984 2.2790999999999997,0.2570000000000001 2.243599999999999,0.30169999999999986 2.1777999999999995,0.3677999999999999 2.1282999999999994,0.41169999999999973 2.0321999999999996,0.48999999999999977 1.959999999999999,0.5392000000000001 1.9407999999999994,0.5552999999999999 1.9413999999999998,0.5575000000000001 1.9474999999999998,0.5617000000000001 1.9489,0.5657999999999999 1.9560999999999993,0.5752999999999999 1.9566999999999997,0.5844999999999998 1.9629999999999992,0.597 1.9627999999999997,0.6063999999999998 1.9582999999999995,0.6193999999999997 1.9591999999999992,0.6355999999999997 1.9574999999999996,0.6366999999999998 1.9594000000000005,0.6374999999999997 1.9586000000000006,0.6463999999999999 1.9604999999999997,0.6467 1.9613999999999994,0.6332999999999998 1.9603000000000002,0.6332999999999998 1.9596999999999998,0.6200000000000001 1.9655000000000005,0.6013999999999999 1.9633000000000003,0.5913999999999997 1.9611,0.5888999999999998 1.9621999999999993,0.5789 1.9586000000000006,0.5722 1.9566999999999997,0.5630999999999999 1.959999999999999,0.5591999999999997 1.9627999999999997,0.5583 1.9619,0.5507999999999997 1.9764,0.5453000000000001 1.9825,0.5356000000000001 1.9857999999999993,0.5352999999999999 1.9878,0.5333000000000001 2.0040999999999993,0.5331000000000001 2.0063999999999993,0.5347 2.0061,0.5410999999999997 2.0105000000000004,0.5385999999999997 2.0136000000000003,0.5385999999999997 2.0142000000000007,0.5402999999999998 2.013299999999999,0.5432999999999999 2.0107999999999997,0.5442 1.9944000000000006,0.5421999999999998 1.9932999999999996,0.5514000000000001 1.9896999999999991,0.5539000000000001 1.9869000000000003,0.5535999999999999 1.9832999999999998,0.5625 1.9802999999999997,0.5610999999999997 1.9778000000000002,0.5566999999999998 1.975299999999999,0.5591999999999997 1.9694000000000003,0.5549999999999997 1.9664000000000001,0.5566999999999998 1.9657999999999998,0.5735999999999999 1.9708000000000006,0.5796999999999999 1.972199999999999,0.5852999999999997 1.9749999999999996,0.5888999999999998 1.9761000000000006,0.597 1.9747000000000003,0.5956000000000001 1.972199999999999,0.5966999999999998 1.9733,0.6046999999999998 1.9686000000000003,0.6074999999999999 1.966099999999999,0.6132999999999997 1.9635999999999996,0.6252999999999997 1.9629999999999992,0.6427999999999998 1.9525000000000006,0.6602999999999999 1.9352999999999998,0.6755999999999998 1.892999999999999,0.7056 1.8902999999999999,0.7060999999999997 1.8902999999999999,0.7077999999999998 1.8888999999999996,0.7071999999999998 1.8827999999999996,0.7105999999999999 1.8440999999999992,0.7353000000000001 1.8428000000000004,0.7505999999999999 1.8285999999999998,0.7774999999999999 1.8153000000000006,0.7925 1.8088999999999995,0.7969999999999997 1.7658000000000005,0.8456000000000001 1.7449999999999992,0.8649999999999998 1.7196999999999996,0.8952999999999998 1.6866000000000003,0.9260999999999999 1.5808,1.0036 1.578899999999999,1.0063999999999997 1.5832999999999995,1.0055999999999998 1.5832999999999995,1.0074999999999998 1.5779999999999994,1.0097 1.566699999999999,1.0211000000000001 1.5564,1.0257999999999998 1.5511,1.0307999999999997 1.5396999999999998,1.0375 1.5364000000000004,1.0419999999999998 1.5325000000000006,1.0427999999999997 1.523299999999999,1.0514000000000001 1.4696999999999996,1.0867 1.4383,1.1132999999999997 1.3927999999999994,1.1452999999999998 1.3835999999999995,1.1528 1.3835999999999995,1.1543999999999999 1.3755000000000006,1.162 1.3721999999999994,1.1627999999999998 1.3717000000000006,1.1610999999999998 1.3682999999999996,1.1633 1.3340999999999994,1.1875 1.3322000000000003,1.1892 1.3328000000000007,1.1911 1.3196999999999992,1.1999999999999997 1.3147000000000002,1.202 1.3118999999999996,1.2014 1.312199999999999,1.2041999999999997 1.2874999999999996,1.2214 1.2886000000000006,1.2245 1.2860999999999994,1.2235999999999998 1.2825000000000006,1.2252999999999998 1.2579999999999991,1.2433 1.2515999999999998,1.2496999999999998 1.2310999999999996,1.2647 1.2204999999999995,1.2706 1.2104999999999997,1.2799999999999998 1.1968999999999994,1.2889 1.1944,1.2925 1.1990999999999996,1.2877999999999998 1.204699999999999,1.2845 1.197799999999999,1.29 1.1966,1.2927999999999997 1.1944,1.2931 1.193299999999999,1.2961 1.1905000000000001,1.2980999999999998 1.1883,1.2974999999999999 1.184099999999999,1.3022 1.1832999999999991,1.3066999999999998 1.1852999999999998,1.3096999999999999 1.1858000000000004,1.3155999999999999 1.1777999999999995,1.3357999999999999 1.1785999999999994,1.3380999999999998 1.1685999999999996,1.3491999999999997 1.097199999999999,1.4192 1.0902999999999992,1.4243999999999999 1.0816999999999997,1.435 1.0630000000000006,1.4510999999999998 1.0525000000000002,1.4657999999999998 1.0128000000000004,1.5091999999999999 0.9977999999999998,1.5219999999999998 0.9944000000000006,1.5270000000000001 0.9822000000000006,1.5383 0.9564000000000004,1.5577999999999999 0.9480000000000004,1.5655999999999999 0.9466999999999999,1.5699999999999998 0.9421999999999997,1.5716999999999999 0.9307999999999996,1.5810999999999997 0.9188999999999989,1.5981 0.9154999999999998,1.6078000000000001 0.9110999999999994,1.6117 0.9016000000000002,1.6322 0.8943999999999992,1.6385999999999998 0.8872,1.6511 0.8882999999999992,1.6585999999999999 0.8868999999999989,1.6635999999999997 0.8857999999999997,1.6867 0.8872,1.6917 0.886099999999999,1.6944 0.8894000000000002,1.7008 0.8864000000000001,1.7096999999999998 0.8886000000000003,1.7121999999999997 0.8866999999999994,1.7210999999999999 0.8868999999999989,1.7361 0.8843999999999994,1.7435999999999998 0.8735999999999997,1.7616999999999998 0.8567,1.7839 0.8558000000000003,1.787 0.8324999999999996,1.8136 0.7988999999999997,1.8495 0.7715999999999994,1.8735999999999997 0.7496999999999989,1.8967 0.7471999999999994,1.9022000000000001 0.7439,1.9032999999999998 0.7353000000000005,1.9131 0.734399999999999,1.9146999999999998 0.7369000000000003,1.9169999999999998 0.7353000000000005,1.9203000000000001 0.7318999999999996,1.9213999999999998 0.7361000000000004,1.9181 0.7339000000000002,1.9152999999999998 0.7121999999999993,1.9352999999999998 0.7121999999999993,1.9375 0.7165999999999997,1.9360999999999997 0.7147000000000006,1.9396999999999998 0.7143999999999995,1.9383 0.7088999999999999,1.9388999999999998 0.7019000000000002,1.9455999999999998 0.6697000000000006,1.9880999999999998 0.6624999999999996,1.9945 0.6327999999999996,2.0317 0.6427999999999994,2.0220000000000002 0.6571999999999996,2.0025 0.6618999999999993,1.9981 0.6630000000000003,1.9947 0.6667000000000005,1.9928 0.6810999999999989,1.9756 0.677999999999999,1.9817 0.6593999999999998,2.0016999999999996 0.6579999999999995,2.0064 0.6539000000000001,2.0107999999999997 0.6563999999999997,2.0147 0.6539000000000001,2.0144 0.6532999999999998,2.0125 0.6494,2.0141999999999998 0.6435999999999993,2.0225 0.6321999999999992,2.0332999999999997 0.6288999999999998,2.0385999999999997 0.6264000000000003,2.0393999999999997 0.6246999999999989,2.0444 0.6225000000000005,2.0444 0.6213999999999995,2.0488999999999997 0.6208075949367089,2.046135443037975 0.6217000000000006,2.0456 0.625,2.0393999999999997 0.6307999999999989,2.0347 0.6311,2.0332999999999997 0.6246999999999989,2.0385999999999997 0.6080000000000005,2.0575 0.6072000000000006,2.0595 0.6082999999999998,2.0583 0.6089000000000002,2.0589 0.6046999999999993,2.0641999999999996 0.5968999999999998,2.0702999999999996 0.5854999999999997,2.0845000000000002 0.5822000000000003,2.0953 0.5727999999999991,2.1102999999999996 0.5727999999999991,2.1172 0.5688999999999993,2.1189 0.5661000000000005,2.1231 0.5678000000000001,2.1261 0.5643999999999991,2.1314 0.5653000000000006,2.1375 0.5627999999999993,2.1441999999999997 0.5625,2.1635999999999997 0.5588999999999995,2.1725 0.5596999999999994,2.1794000000000002 0.5579999999999998,2.1841999999999997 0.5604999999999993,2.1895 0.5592000000000006,2.195 0.5661000000000005,2.197 0.5704999999999991,2.2092 0.5669000000000004,2.2308 0.5639000000000003,2.2378 0.567499999999999,2.2378 0.5702999999999996,2.2339 0.5761000000000003,2.235 0.5741999999999994,2.2363999999999997 0.5702999999999996,2.2361 0.5710999999999995,2.2403 0.5643999999999991,2.2392 0.5557999999999996,2.2535999999999996 0.5525000000000002,2.2752999999999997 0.5455000000000005,2.2992 0.5452999999999992,2.3030999999999997 0.5488999999999997,2.3118999999999996 0.5488999999999997,2.3181 0.5419,2.3295 0.537799999999999,2.3457999999999997 0.5274999999999999,2.36 0.5274999999999999,2.3672 0.5193999999999992,2.3785999999999996 0.5175000000000001,2.3846999999999996 0.5122,2.3917 0.5097000000000005,2.3994999999999997 0.4924999999999997,2.4280999999999997 0.4792000000000005,2.4425 0.46780000000000044,2.4603 0.45669999999999966,2.4714 0.436399999999999,2.4992 0.41029999999999944,2.5271999999999997 0.40140000000000065,2.5414 0.373899999999999,2.5755999999999997 0.3638999999999992,2.5907999999999998 0.3232999999999997,2.6380999999999997 0.3149999999999995,2.6521999999999997 0.3153000000000006,2.6563999999999997 0.3140999999999998,2.657 0.3116000000000003,2.6681 0.29689999999999905,2.6858 0.28659999999999997,2.7106 0.2829999999999995,2.7264 0.28609999999999935,2.7236000000000002 0.28889999999999993,2.7117 0.29579999999999984,2.6986 0.2966999999999995,2.6925 0.29940000000000033,2.6910999999999996 0.30219999999999914,2.6830999999999996 0.3049999999999997,2.6817 0.30439999999999934,2.6799999999999997 0.3064,2.6792 0.3088999999999995,2.6727999999999996 0.311399999999999,2.6714 0.3121999999999989,2.6683 0.3130000000000006,2.6692 0.3135999999999992,2.6619 0.3202999999999996,2.6643999999999997 0.3214000000000006,2.6717 0.317499999999999,2.682 0.317499999999999,2.6939 0.3196999999999992,2.695 0.3204999999999991,2.6981 0.3241999999999994,2.6982999999999997 0.3204999999999991,2.6989 0.3200000000000003,2.7047 0.3147000000000002,2.71 0.3139000000000003,2.7131 0.323599999999999,2.7172 0.3293999999999997,2.7230999999999996 0.33360000000000056,2.7214 0.33830000000000027,2.7278000000000002 0.3391000000000002,2.7314 0.33859999999999957,2.735 0.3340999999999994,2.7403 0.3340999999999994,2.7472 0.3310999999999993,2.7556 0.3318999999999992,2.7596999999999996 0.3271999999999995,2.7733 0.3216999999999999,2.7786 0.3166999999999991,2.7797 0.3069000000000006,2.7792 0.3047000000000004,2.7808 0.3039000000000005,2.7858 0.305299999999999,2.7919 0.3025000000000002,2.7983000000000002 0.30299999999999905,2.7903000000000002 0.29999999999999893,2.7883 0.29609999999999914,2.7761 0.29579999999999984,2.7678 0.29720000000000013,2.7639 0.29689999999999905,2.7767 0.29940000000000033,2.782 0.305299999999999,2.777 0.317499999999999,2.775 0.3200000000000003,2.7725 0.317499999999999,2.7641999999999998 0.3116000000000003,2.7569999999999997 0.311399999999999,2.7508 0.3071999999999999,2.7458 0.3066999999999993,2.7394 0.30299999999999905,2.7358000000000002 0.3025000000000002,2.7314 0.3055000000000003,2.7295 0.30609999999999893,2.7264 0.2978000000000005,2.7241999999999997 0.29499999999999993,2.7306 0.2942,2.7721999999999998 0.2927999999999997,2.7721999999999998 0.29219999999999935,2.7656 0.2925000000000004,2.7725 0.29049999999999976,2.7761 0.29079999999999906,2.7725 0.28829999999999956,2.7683 0.28749999999999964,2.782 0.28439999999999976,2.7925 0.267199999999999,2.8258 0.19030000000000058,2.94 0.15549999999999997,2.9783 0.14499999999999957,2.9953 0.14329999999999998,3.0082999999999998 0.14690000000000047,2.9939 0.14889999999999937,2.9931 0.15109999999999957,2.9878 0.16279999999999895,2.972 0.17999999999999972,2.9564 0.186399999999999,2.9458 0.19420000000000037,2.9421999999999997 0.1993999999999989,2.9378 0.21250000000000036,2.9378 0.22109999999999985,2.942 0.23499999999999943,2.945 0.23579999999999934,2.9467 0.24939999999999962,2.9532999999999996 0.2575000000000003,2.9524999999999997 0.26529999999999987,2.9458 0.273299999999999,2.9442 0.27800000000000047,2.9367 0.2768999999999995,2.9328 0.2697000000000003,2.9242 0.27139999999999986,2.9128 0.27529999999999966,2.9092000000000002 0.28529999999999944,2.9081 0.28969999999999985,2.8986 0.29330000000000034,2.8970000000000002 0.3086000000000002,2.8975 0.3261000000000003,2.9006 0.341899999999999,2.8928 0.34670000000000023,2.8936 0.35580000000000034,2.9103 0.35800000000000054,2.9114 0.35720000000000063,2.9158 0.35939999999999905,2.92 0.35859999999999914,2.9256 0.3613999999999997,2.9280999999999997 0.36859999999999893,2.9272 0.3713999999999995,2.9317 0.3660999999999994,2.9364 0.35190000000000055,2.9436 0.35939999999999905,2.9542 0.3733000000000004,2.9536 0.3825000000000003,2.9593999999999996 0.3833000000000002,2.9631 0.3778000000000006,2.965 0.3682999999999996,2.9717000000000002 0.3682999999999996,2.9802999999999997 0.36549999999999905,2.9878 0.3542000000000005,2.9903 0.35249999999999915,2.9922 0.34670000000000023,3.0053 0.34639999999999915,3.0175 0.34360000000000035,3.0197 0.33639999999999937,3.0214 0.33280000000000065,3.0271999999999997 0.32779999999999987,3.0308 0.3257999999999992,3.0361 0.3216999999999999,3.04 0.3130000000000006,3.0558 0.311399999999999,3.0619 0.3108000000000004,3.0845 0.3140999999999998,3.0964 0.3218999999999994,3.1042 0.3208000000000002,3.1216999999999997 0.32670000000000066,3.1399999999999997 0.3261000000000003,3.1478 0.3243999999999989,3.1506 0.3241999999999994,3.1667 0.3354999999999997,3.1816999999999998 0.34360000000000035,3.1957999999999998 0.35360000000000014,3.2022 0.35749999999999993,3.2077999999999998 0.35639999999999894,3.2122 0.34249999999999936,3.2218999999999998 0.33999999999999986,3.2294 0.34529999999999994,3.237 0.34830000000000005,3.2531 0.3650000000000002,3.2710999999999997 0.3764000000000003,3.2866999999999997 0.3841999999999999,3.2856 0.392199999999999,3.2771999999999997 0.40080000000000027,3.2767 0.40830000000000055,3.2836 0.41169999999999973,3.2903 0.4175000000000004,3.2895 0.42029999999999923,3.295 0.41970000000000063,3.2972 0.41279999999999895,3.31 0.41249999999999964,3.3181 0.4079999999999995,3.32 0.40499999999999936,3.3272 0.404399999999999,3.3414 0.40859999999999985,3.3436 0.40530000000000044,3.3475 0.4057999999999993,3.3525 0.40969999999999906,3.3569 0.42029999999999923,3.3597 0.42799999999999905,3.3642 0.4314,3.372 0.4397000000000002,3.3767 0.4411000000000005,3.3803 0.4450000000000003,3.3832999999999998 0.4454999999999991,3.3897 0.4477999999999991,3.3911 0.4535999999999998,3.4061 0.45780000000000065,3.4086 0.4594000000000005,3.4177999999999997 0.45860000000000056,3.4228 0.4643999999999995,3.4283 0.47279999999999944,3.4274999999999998 0.48579999999999934,3.4381 0.5007999999999999,3.4556 0.5083000000000002,3.4753 0.5160999999999998,3.4853 0.5374999999999996,3.5014 0.5496999999999996,3.517 0.5596999999999994,3.5336 0.5704999999999991,3.5578 0.5765999999999991,3.5645 0.5844000000000005,3.5781 0.5922000000000001,3.5978 0.5983,3.6228 0.6032999999999991,3.6633 0.6013999999999999,3.7145 0.6038999999999994,3.7225 0.6052999999999997,3.7842 0.6058000000000003,3.7861 0.609399999999999,3.7866999999999997 0.6121999999999996,3.7892 0.6185999999999989,3.8146999999999998 0.6217000000000006,3.8175 0.6272000000000002,3.8392 0.6294000000000004,3.8733 0.6280000000000001,3.9253 0.6264000000000003,3.932 0.6280000000000001,3.9453 0.6394000000000002,3.9499999999999997 0.642199999999999,3.955 0.6479999999999997,3.9863999999999997 0.6471999999999998,4.0264 0.6386000000000003,4.0756 0.6307999999999989,4.1022 0.6296999999999997,4.1083 0.6304999999999996,4.1175 0.6252999999999993,4.1325 0.6233000000000004,4.1495 0.6160999999999994,4.1697 0.611699999999999,4.2103 0.6146999999999991,4.2161 0.6143999999999998,4.2256 0.6074999999999999,4.2697 0.6016999999999992,4.2953 0.6024999999999991,4.2985999999999995 0.6080000000000005,4.2989 0.6105,4.3014 0.6121999999999996,4.3092 0.611699999999999,4.3147 0.6166999999999998,4.3186 0.6166999999999998,4.3214 0.6282999999999994,4.3208 0.6333000000000002,4.3222 0.6502999999999997,4.3422 0.6549999999999994,4.3436 0.6563999999999997,4.3408 0.6557999999999993,4.3361 0.6596999999999991,4.3325 0.6622000000000003,4.3281 0.6622000000000003,4.3247 0.6683000000000003,4.3178 0.6677999999999997,4.3122 0.6785999999999994,4.2983 0.6760999999999999,4.2964 0.6768999999999998,4.2928 0.6746999999999996,4.2867 0.6710999999999991,4.2856 0.6677999999999997,4.2817 0.6724999999999994,4.2823 0.6768999999999998,4.2756 0.6799999999999997,4.2597 0.6783000000000001,4.2503 0.6824999999999992,4.2439 0.6819000000000006,4.2397 0.6793999999999993,4.2367 0.6852999999999998,4.2383 0.6882999999999999,4.2331 0.6899999999999995,4.225 0.6893999999999991,4.215 0.6858000000000004,4.2082999999999995 0.6807999999999996,4.205 0.6832999999999991,4.1975 0.680299999999999,4.1939 0.6716999999999995,4.1917 0.6688999999999989,4.1933 0.6688999999999989,4.1964 0.6661000000000001,4.1964 0.6640999999999995,4.1928 0.6622000000000003,4.1925 0.6616,4.1878 0.6671999999999993,4.195 0.6677999999999997,4.1845 0.6636000000000006,4.1819999999999995 0.6663999999999994,4.1772 0.6602999999999994,4.1731 0.6614000000000004,4.1708 0.6630000000000003,4.1706 0.6636000000000006,4.1733 0.6697000000000006,4.1764 0.673,4.1764 0.6749999999999989,4.1753 0.6760999999999999,4.1711 0.6732999999999993,4.1681 0.6763999999999992,4.1672 0.6775000000000002,4.1639 0.6789000000000005,4.1639 0.6760999999999999,4.1777999999999995 0.6744000000000003,4.1796999999999995 0.6768999999999998,4.1892 0.6905000000000001,4.1983 0.6936,4.1989 0.6964000000000006,4.1953 0.6952999999999996,4.1867 0.6974999999999998,4.18 0.7027999999999999,4.1775 0.7033000000000005,4.1753 0.7029999999999994,4.1655999999999995 0.698599999999999,4.1583 0.6991999999999994,4.1572 0.7050000000000001,4.1639 0.7050000000000001,4.1725 0.7066999999999997,4.1747 0.7060999999999993,4.1831 0.7141000000000002,4.195 0.7200000000000006,4.1978 0.7255000000000003,4.1956 0.7296999999999993,4.1886 0.7341999999999995,4.1861 0.7371999999999996,4.1806 0.7383000000000006,4.1745 0.7379999999999995,4.1606 0.7332999999999998,4.15 0.7317,4.1308 0.7233,4.1242 0.7216000000000005,4.1217 0.7243999999999993,4.1225 0.7322000000000006,4.1297 0.7349999999999994,4.1514 0.7392000000000003,4.1608 0.7385999999999999,4.1689 0.7432999999999996,4.17 0.7449999999999992,4.1672 0.7463999999999995,4.1667 0.7461000000000002,4.1683 0.7492000000000001,4.1714 0.7532999999999994,4.1716999999999995 0.7585999999999995,4.1655999999999995 0.7679999999999989,4.1495 0.7797000000000001,4.1272 0.7811000000000003,4.1171999999999995 0.7850000000000001,4.1097 0.7852999999999994,4.1056 0.7782999999999998,4.0988999999999995 0.7668999999999997,4.1006 0.7616999999999994,4.0992 0.754999999999999,4.0925 0.7457999999999991,4.0866999999999996 0.7454999999999998,4.085 0.7483000000000004,4.0861 0.7493999999999996,4.085 0.7446999999999999,4.0822 0.7435999999999989,4.0775 0.7461000000000002,4.0775 0.7496999999999989,4.0811 0.7538999999999998,4.0893999999999995 0.7638999999999996,4.0986 0.7819000000000003,4.0969999999999995 0.7838999999999992,4.0961 0.7850000000000001,4.0931 0.7880000000000003,4.0942 0.7925000000000004,4.0914 0.7965999999999998,4.0811 0.7960999999999991,4.0639 0.7938999999999989,4.0508 0.7913999999999994,4.0458 0.7843999999999998,4.0414 0.7746999999999993,4.0317 0.7752999999999997,4.0302999999999995 0.7813999999999997,4.0325 0.7838999999999992,4.0389 0.787799999999999,4.0428 0.7933000000000003,4.045 0.796899999999999,4.0511 0.7988999999999997,4.0503 0.7988999999999997,4.0408 0.8018999999999998,4.0447 0.7988999999999997,4.0567 0.7999999999999989,4.0653 0.7988999999999997,4.0789 0.8008000000000006,4.0806 0.8049999999999997,4.0783 0.8065999999999995,4.0792 0.8060999999999989,4.0931 0.8041999999999998,4.1003 0.8060999999999989,4.1067 0.8021999999999991,4.1075 0.7999999999999989,4.1103 0.8004999999999995,4.1228 0.7994000000000003,4.1267 0.7941000000000003,4.1333 0.7938999999999989,4.1408 0.8003,4.1461 0.8033000000000001,4.1467 0.8060999999999989,4.1564 0.8132999999999999,4.1633 0.8163999999999998,4.1631 0.8214000000000006,4.1583 0.8288999999999991,4.1552999999999995 0.8414000000000001,4.1556 0.8513999999999999,4.1525 0.8591999999999995,4.1528 0.8646999999999991,4.1497 0.8650000000000002,4.1481 0.8717000000000006,4.1467 0.8768999999999991,4.1436 0.8835999999999995,4.1281 0.8833000000000002,4.1167 0.8918999999999997,4.1169 0.8939000000000004,4.1206 0.9004999999999992,4.1242 0.9030000000000005,4.1222 0.9065999999999992,4.1225 0.910499999999999,4.125 0.9124999999999996,4.1314 0.9193999999999996,4.1356 0.9228000000000005,4.1431 0.9277999999999995,4.1442 0.9458000000000002,4.1381 0.9474999999999998,4.1295 0.9503000000000004,4.1267 0.9511000000000003,4.1217 0.9558,4.1194999999999995 0.9578000000000007,4.1144 0.9613999999999994,4.1144 0.9655000000000005,4.1208 0.969199999999999,4.1231 0.9924999999999997,4.1228 1.0254999999999992,4.1110999999999995 1.0411000000000001,4.1075 1.0443999999999996,4.1047 1.0582999999999991,4.11 1.0574999999999992,4.1189 1.062199999999999,4.1231 1.0749999999999993,4.1255999999999995 1.0883000000000003,4.1258 1.1080000000000005,4.1297 1.1119000000000003,4.1286 1.115499999999999,4.1245 1.1260999999999992,4.1255999999999995 1.1280000000000001,4.1297 1.1382999999999992,4.137 1.1569000000000003,4.1408 1.1814,4.1542 1.192499999999999,4.157 1.1911000000000005,4.1775 1.1761,4.1672 1.1579999999999995,4.165 1.1386000000000003,4.16 1.123899999999999,4.1606 1.1158000000000001,4.1589 1.1103000000000005,4.1617 1.0999999999999996,4.1592 1.0899999999999999,4.1636 1.079699999999999,4.1658 1.0716999999999999,4.1706 1.0579999999999998,4.1728 1.0496999999999996,4.1761 1.034699999999999,4.1847 1.0277999999999992,4.1914 1.0221999999999998,4.1936 1.017999999999999,4.1933 1.0124999999999993,4.2014 1.011099999999999,4.2097 1.0175,4.2194 1.0228000000000002,4.2392 1.0244,4.2433 1.0272000000000006,4.2444 1.0274999999999999,4.2506 1.0303000000000004,4.2578 1.0282999999999998,4.2567 1.0260999999999996,4.2475 1.0213999999999999,4.2408 1.0146999999999995,4.2214 1.010299999999999,4.2142 0.9952000000000005,4.209 0.9916999999999998,4.205 0.9902999999999995,4.207 0.9849999999999994,4.2033 0.9794,4.202 0.9718999999999998,4.2086 0.969199999999999,4.2081 0.9647000000000006,4.2108 0.9578000000000007,4.2233 0.9543999999999997,4.2261 0.9633000000000003,4.2353 0.969199999999999,4.2328 0.9704999999999995,4.2336 0.9702999999999999,4.2364 0.9674999999999994,4.2402999999999995 0.9696999999999996,4.2367 0.969199999999999,4.2336 0.9664000000000001,4.2360999999999995 0.9625000000000004,4.2364 0.9588999999999999,4.2311 0.9538999999999991,4.2275 0.942499999999999,4.2247 0.9293999999999993,4.2389 0.9222000000000001,4.2411 0.9171999999999993,4.2461 0.9093999999999998,4.2467 0.904399999999999,4.2517 0.8963999999999999,4.255 0.8939000000000004,4.2614 0.8886000000000003,4.2625 0.8811,4.2730999999999995 0.8717000000000006,4.2802999999999995 0.8691999999999993,4.2842 0.8696999999999999,4.2881 0.8660999999999994,4.2924999999999995 0.8552999999999997,4.2922 0.8563999999999989,4.2861 0.8529999999999998,4.28 0.8483,4.2795 0.8397000000000006,4.2817 0.8269000000000002,4.2983 0.8292000000000002,4.3027999999999995 0.8285999999999998,4.3039 0.823599999999999,4.2956 0.8214000000000006,4.295 0.8193999999999999,4.2895 0.8161000000000005,4.2903 0.8127999999999993,4.2886 0.8118999999999996,4.285299999999999 0.8130000000000006,4.2836 0.8078000000000003,4.2761 0.802999999999999,4.2736 0.8008000000000006,4.2753 0.8021999999999991,4.2768999999999995 0.7972000000000001,4.2814 0.7929999999999993,4.2747 0.7960999999999991,4.2808 0.7955000000000005,4.2842 0.7917000000000005,4.2917 0.7874999999999996,4.3067 0.7833000000000006,4.3086 0.7821999999999996,4.3153 0.7772000000000006,4.325 0.7728000000000002,4.3286 0.7728000000000002,4.3308 0.7744,4.3317 0.7729999999999997,4.3332999999999995 0.7728000000000002,4.3439 0.767199999999999,4.3519 0.761099999999999,4.3575 0.7579999999999991,4.3578 0.7522000000000002,4.3692 0.7439,4.3758 0.7379999999999995,4.3906 0.7355,4.3917 0.7332999999999998,4.39 0.7324999999999999,4.3919999999999995 0.7339000000000002,4.3942 0.7241999999999997,4.407 0.7119,4.4406 0.6997,4.4597 0.6911000000000005,4.4686 0.6903000000000006,4.4731 0.6829999999999998,4.4853 0.6654999999999998,4.502 0.6488999999999994,4.5108 0.6339000000000006,4.5117 0.6307999999999989,4.5085999999999995 0.6304999999999996,4.5039 0.6221999999999994,4.5003 0.6191999999999993,4.4961 0.6080000000000005,4.507 0.6080000000000005,4.5144 0.6107999999999993,4.52 0.6077999999999992,4.5411 0.609399999999999,4.5485999999999995 0.6077999999999992,4.562 0.6090999999999998,4.5719 0.6085999999999991,4.5864 0.6166999999999998,4.5933 0.6172000000000004,4.6028 0.6235999999999997,4.6103 0.6278000000000006,4.6108 0.6311,4.6083 0.6400000000000006,4.6081 0.6469000000000005,4.6108 0.6486000000000001,4.6142 0.6514000000000006,4.6131 0.6532999999999998,4.609999999999999 0.6575000000000006,4.6089 0.6685999999999996,4.6091999999999995 0.6785999999999994,4.6122 0.6932999999999989,4.625 0.7003000000000004,4.6361 0.7141000000000002,4.6356 0.7218999999999998,4.632 0.7444000000000006,4.6311 0.7479999999999993,4.6322 0.7516999999999996,4.6381 0.7622,4.6375 0.7660999999999998,4.6467 0.7683,4.6456 0.7729999999999997,4.6464 0.7758000000000003,4.6491999999999996 0.7799999999999994,4.6497 0.7903000000000002,4.6558 0.7957999999999998,4.655 0.7955000000000005,4.6583 0.7972000000000001,4.6594999999999995 0.8041999999999998,4.6578 0.8079999999999998,4.6547 0.8139000000000003,4.6544 0.8171999999999997,4.6508 0.8196999999999992,4.6436 0.8240999999999996,4.6389 0.8224999999999998,4.6367 0.8230000000000004,4.6339 0.8283000000000005,4.6311 0.8293999999999997,4.6267 0.8308,4.6264 0.8353000000000002,4.6152999999999995 0.8346999999999998,4.6075 0.8375000000000004,4.6006 0.8330000000000002,4.5808 0.8208000000000002,4.5806 0.811399999999999,4.5866999999999996 0.8074999999999992,4.587 0.7978000000000005,4.5914 0.7933000000000003,4.5914 0.7933000000000003,4.5861 0.798,4.5836 0.8055000000000003,4.5736 0.8141999999999996,4.5697 0.8141999999999996,4.5633 0.8100000000000005,4.5588999999999995 0.8082999999999991,4.5542 0.8147000000000002,4.5622 0.8157999999999994,4.5683 0.8186,4.5703 0.823599999999999,4.5694 0.8283000000000005,4.5664 0.8288999999999991,4.5592 0.8310999999999993,4.5581 0.8304999999999989,4.5511 0.8275000000000006,4.5506 0.8227999999999991,4.5456 0.8216000000000001,4.537 0.8169000000000004,4.5302999999999995 0.8169000000000004,4.5222 0.8121999999999989,4.5178 0.8110999999999997,4.5146999999999995 0.8132999999999999,4.5064 0.8092000000000006,4.5058 0.8094000000000001,4.5045 0.8149999999999995,4.5058 0.8121999999999989,4.5125 0.8125,4.5161 0.8179999999999996,4.5222 0.8179999999999996,4.5306 0.8227999999999991,4.5367 0.8249999999999993,4.5458 0.8399999999999999,4.5522 0.8505000000000003,4.5442 0.8491,4.5405999999999995 0.8436000000000003,4.5405999999999995 0.8436000000000003,4.5372 0.8416999999999994,4.5358 0.8440999999999992,4.5367 0.8446999999999996,4.5397 0.8505000000000003,4.5405999999999995 0.8511000000000006,4.5453 0.8428000000000004,4.5525 0.8410999999999991,4.5572 0.8477999999999994,4.577 0.847999999999999,4.5825 0.8515999999999995,4.5872 0.8572000000000006,4.5878 0.859399999999999,4.5828 0.8603000000000005,4.5744 0.8629999999999995,4.5739 0.8699999999999992,4.5458 0.8682999999999996,4.5342 0.8628,4.5278 0.8607999999999993,4.5222 0.8611000000000004,4.5175 0.8652999999999995,4.5092 0.8646999999999991,4.5024999999999995 0.8668999999999993,4.5022 0.8674999999999997,4.497199999999999 0.865499999999999,4.4942 0.861699999999999,4.4939 0.8574999999999999,4.4897 0.8450000000000006,4.4869 0.8432999999999993,4.4845 0.8428000000000004,4.4756 0.8377999999999997,4.4725 0.843,4.4742 0.8444000000000003,4.4847 0.8475000000000001,4.4867 0.8633000000000006,4.4908 0.8685999999999989,4.4892 0.8717000000000006,4.491099999999999 0.8752999999999993,4.4902999999999995 0.8786000000000005,4.4856 0.8764000000000003,4.4780999999999995 0.8794000000000004,4.4706 0.8788999999999998,4.4675 0.8752999999999993,4.4633 0.8713999999999995,4.4547 0.8635999999999999,4.4497 0.8589000000000002,4.4439 0.8568999999999996,4.4364 0.8599999999999994,4.4439 0.8727999999999998,4.4542 0.8774999999999995,4.4636 0.8839000000000006,4.4675 0.8878000000000004,4.4658 0.8933,4.4703 0.8908000000000005,4.4738999999999995 0.8902999999999999,4.4806 0.892199999999999,4.4860999999999995 0.8888999999999996,4.4921999999999995 0.8894000000000002,4.4963999999999995 0.8925000000000001,4.5036 0.8957999999999995,4.507 0.9040999999999997,4.5024999999999995 0.9088999999999992,4.5083 0.9079999999999995,4.5106 0.9102999999999994,4.5181 0.9140999999999995,4.5197 0.912799999999999,4.5275 0.9167000000000005,4.532 0.9149999999999991,4.5358 0.9169,4.5578 0.9192,4.5592 0.9202999999999992,4.5625 0.9275000000000002,4.5631 0.9291,4.5608 0.9271999999999991,4.5558 0.9277999999999995,4.5495 0.9299999999999997,4.547499999999999 0.9354999999999993,4.5469 0.9371999999999989,4.547499999999999 0.9289000000000005,4.5492 0.9293999999999993,4.5636 0.9271999999999991,4.5649999999999995 0.9205000000000005,4.5645 0.9179999999999993,4.5678 0.9193999999999996,4.5792 0.9136000000000006,4.5936 0.9132999999999996,4.5988999999999995 0.9171999999999993,4.6022 0.9210999999999991,4.5988999999999995 0.923,4.5994 0.9214000000000002,4.5994 0.9192,4.6028 0.9167000000000005,4.6025 0.9118999999999993,4.6 0.9093999999999998,4.6006 0.9057999999999993,4.6078 0.9108,4.6242 0.9102999999999994,4.655 0.9132999999999996,4.6667 0.9146999999999998,4.6669 0.9118999999999993,4.6728 0.9114000000000004,4.6836 0.9130000000000003,4.6872 0.9102999999999994,4.697 0.9138999999999999,4.7031 0.9149999999999991,4.7072 0.9138999999999999,4.7095 0.9167000000000005,4.7169 0.9161000000000001,4.7203 0.9175000000000004,4.7214 0.9146999999999998,4.7428 0.9093999999999998,4.7564 0.9088999999999992,4.7608 0.910499999999999,4.7633 0.9100000000000001,4.7656 0.9071999999999996,4.7669999999999995 0.9077999999999999,4.7695 0.9055,4.7707999999999995 0.9053000000000004,4.7733 0.9030000000000005,4.7739 0.9039000000000001,4.7758 0.9018999999999995,4.7795 0.9030000000000005,4.785299999999999 0.8947000000000003,4.8088999999999995 0.8886000000000003,4.8164 0.8866999999999994,4.8156 0.8813999999999993,4.8271999999999995 0.8804999999999996,4.8358 0.8782999999999994,4.8408 0.8772000000000002,4.8556 0.8696999999999999,4.8831 0.8699999999999992,4.9017 0.8680000000000003,4.9108 0.8650000000000002,4.9136 0.8621999999999996,4.9139 0.8563999999999989,4.9239 0.8519000000000005,4.9283 0.8513999999999999,4.9378 0.8528000000000002,4.9392 0.8532999999999991,4.9460999999999995 0.8580000000000005,4.9489 0.8574999999999999,4.9508 0.8599999999999994,4.9517 0.8664000000000005,4.9611 0.8703000000000003,4.9761 0.875,4.9831 0.873899999999999,4.9844 0.875,4.9883 0.8827999999999996,4.9975 0.8847000000000005,4.997199999999999 0.886099999999999,4.9989 0.8878000000000004,5.0206 0.886099999999999,5.021599999999999 0.9023000000000003,5.0294 0.9086999999999996,5.0347 0.9184999999999999,5.0354 0.9267000000000003,5.041399999999999 0.9375999999999998,5.044 0.9426000000000005,5.0479 0.9456000000000007,5.053 0.9511000000000003,5.0539 0.9574999999999996,5.0585 0.9621999999999993,5.0592 0.9657,5.0519 0.9716000000000005,5.0543 0.9999000000000002,5.0556 1.0366999999999997,5.059699999999999 1.0437999999999992,5.0591 1.0488,5.0557 1.061,5.0388 1.0864999999999991,5.015499999999999 1.0906000000000002,4.9891 1.106399999999999,4.9878 1.1424000000000003,4.9887 1.1785999999999994,4.9731 1.1852999999999998,4.9674 1.1927000000000003,4.9557 1.1951999999999998,4.9454 1.200899999999999,4.9387 1.208499999999999,4.9351 1.230599999999999,4.9287 1.2430000000000003,4.9161 1.2502999999999993,4.912 1.256499999999999,4.9116 1.2623999999999995,4.9166 1.2711000000000006,4.9185 1.2813999999999997,4.9195 1.2871000000000006,4.9176 1.2926000000000002,4.9199 1.2966999999999995,4.9248 1.296199999999999,4.9271 1.2902000000000005,4.9296 1.296199999999999,4.9367 1.2948000000000004,4.9415 1.2974999999999994,4.9473 1.2927,4.9494 1.290799999999999,4.9542 1.2903000000000002,4.9681999999999995 1.296899999999999,4.972799999999999 1.2957999999999998,4.9769 1.2994000000000003,4.9831 1.2971000000000004,4.9883 1.3717000000000006,4.9886 1.3749000000000002,4.9902 1.3920999999999992,4.9878 1.4099000000000004,4.9887999999999995 1.424999999999999,4.9878 1.4308999999999994,4.9892 1.463099999999999,4.9875 1.5847999999999995,4.9885 1.5955999999999992,4.9897 1.7432999999999996,4.9874 1.7471999999999994,4.989 2.1000999999999994,4.9891 2.1357,4.9879 2.2866999999999997,4.989 2.2965,4.9876 2.3161000000000005,4.9884 2.3216,4.9871 2.3488000000000007,4.9886 2.404299999999999,4.9882 2.4214,4.9901 2.4253,4.9879999999999995 2.4534000000000002,4.99 2.4773999999999994,4.9869 2.503,4.9884 2.6171000000000006,4.9878 2.6351999999999993,4.99 2.6340000000000003,5.2938 2.634599999999999,5.3582 2.6356,5.3717 2.6378000000000004,5.3718 2.6374999999999993,5.4801 2.6355000000000004,5.4791 2.6355000000000004,5.481199999999999 2.6343999999999994,5.481199999999999 2.6339000000000006,5.5226 2.6350999999999996,5.5431 2.6341,5.7361 2.6365,5.7361 2.636099999999999,5.8178 2.6342,5.8177 2.635,5.8284 2.6334999999999997,5.8454999999999995 2.636099999999999,5.8818 2.6334,5.9742999999999995 2.6349,5.9802 2.6334999999999997,5.986 2.634599999999999,6.100099999999999 2.6358999999999995,6.1102 2.6327999999999996,6.1479 2.6348000000000003,6.1631 2.6465999999999994,6.1659 2.653599999999999,6.162 2.6602999999999994,6.164899999999999 2.6556999999999995,6.1716 2.657,6.1726 2.6580999999999992,6.1823 2.6641999999999992,6.1874 2.664299999999999,6.1896 2.6633999999999993,6.1924 2.6593999999999998,6.1926000000000005 2.6593999999999998,6.196199999999999 2.663499999999999,6.2019 2.6593999999999998,6.2067 2.6656999999999993,6.2105 2.6633999999999993,6.2132000000000005 2.6555,6.2163 2.6578999999999997,6.218999999999999 2.6609999999999996,6.2181 2.6645000000000003,6.234 2.6706000000000003,6.2264 2.6791,6.2308 2.682599999999999,6.2357 2.6777999999999995,6.246 2.6845999999999997,6.2531 2.684099999999999,6.2555 2.6776999999999997,6.2558 2.683,6.261 2.683299999999999,6.2671 2.6814999999999998,6.2687 2.6784999999999997,6.2683 2.6801999999999992,6.2749 2.6659000000000006,6.278499999999999 2.6769,6.287599999999999 2.6843000000000004,6.2883 2.6889000000000003,6.2857 2.6965000000000003,6.291399999999999 2.6996,6.2878 2.7204999999999995,6.2816 2.7299000000000007,6.2829 2.737399999999999,6.2886 2.7403999999999993,6.2888 2.7447999999999997,6.2848 2.7455999999999996,6.2806999999999995 2.7522,6.2802 2.7554999999999996,6.2806 2.7601999999999993,6.2854 2.7604000000000006,6.2879000000000005 2.756499999999999,6.290699999999999 2.7568,6.292 2.7638,6.2903 2.776,6.2911 2.7860999999999994,6.2832 2.7903000000000002,6.283799999999999 2.802299999999999,6.2908 2.8078000000000003,6.2913 2.8163,6.288399999999999 2.8237000000000005,6.2919 2.8277,6.287599999999999 2.8340999999999994,6.2851 2.840299999999999,6.2882 2.8491,6.2851 2.8545,6.2877 2.8606,6.2947 2.8703000000000003,6.2974 2.8831000000000007,6.2977 2.8986,6.2934 2.9085,6.284599999999999 2.9129000000000005,6.2841000000000005 2.9312000000000005,6.2940000000000005 2.9368,6.291399999999999 2.9495000000000005,6.2934 2.9557,6.3037 2.9656000000000002,6.3055 2.9673999999999996,6.3031 2.971399999999999,6.3033 3.0015,6.3063 3.0046,6.2963000000000005 3.0116999999999994,6.29 3.023999999999999,6.289899999999999 3.031599999999999,6.2816 3.0466999999999995,6.2855 3.0427999999999997,6.277 3.046099999999999,6.271599999999999 3.0464,6.268 3.0485000000000007,6.2654 3.051,6.266 3.0534,6.2728 3.0528999999999993,6.2657 3.049899999999999,6.2628 3.0528999999999993,6.2599 3.0593000000000004,6.2582 3.0633,6.2585999999999995 3.067,6.2615 3.0848999999999993,6.259 3.0878999999999994,6.2604 3.088099999999999,6.266 3.0938,6.262499999999999 3.0950000000000006,6.2694 3.0961,6.2652 3.0985999999999994,6.2656 3.100999999999999,6.2638 3.106399999999999,6.2661999999999995 3.1084999999999994,6.263999999999999 3.1194000000000006,6.265499999999999 3.1228999999999996,6.2616 3.1243999999999996,6.2619 3.1265,6.2644 3.1251999999999995,6.2705 3.1265,6.2725 3.1294000000000004,6.2728 3.1363000000000003,6.2697 3.1411999999999995,6.263199999999999 3.154,6.269 3.1537000000000006,6.266 3.1557999999999993,6.2616 3.161999999999999,6.2620000000000005 3.1669,6.2597000000000005 3.168799999999999,6.2611 3.1693999999999996,6.2707999999999995 3.1715999999999998,6.2717 3.1807,6.271 3.1822999999999997,6.2682 3.189499999999999,6.2676 3.1953999999999994,6.273 3.202399999999999,6.2695 3.2121999999999993,6.2682 3.2162000000000006,6.2691 3.221499999999999,6.274 3.222199999999999,6.2779 3.229799999999999,6.271 3.2347,6.2689 3.2425999999999995,6.271 3.251099999999999,6.276199999999999 3.253499999999999,6.2741 3.263399999999999,6.2736 3.2696000000000005,6.2791999999999994 3.2720000000000002,6.2751 3.2811000000000003,6.2779 3.2894000000000005,6.2722999999999995 3.295399999999999,6.2721 3.3018,6.2752 3.3077000000000005,6.2715 3.3161000000000005,6.2787 3.3178,6.2768 3.3276000000000003,6.276 3.338099999999999,6.271599999999999 3.3484,6.2712 3.350299999999999,6.2728 3.3500999999999994,6.2759 3.3527000000000005,6.2744 3.3713999999999995,6.2742 3.3827999999999996,6.2684999999999995 3.3886000000000003,6.270099999999999 3.3970000000000002,6.2673000000000005 3.4086,6.2677 3.4106000000000005,6.2681000000000004 3.4132999999999996,6.2742 3.4238,6.2795000000000005 3.428799999999999,6.2732 3.4383999999999997,6.2696000000000005 3.4452999999999996,6.2642 3.4541000000000004,6.261699999999999 3.4649,6.2675 3.4688999999999997,6.272 3.4834999999999994,6.267799999999999 3.4940999999999995,6.2684999999999995 3.5,6.2667 3.5054,6.2691 3.5128000000000004,6.266299999999999 3.5228,6.2489 3.5335,6.2454 3.5380000000000003,6.241099999999999 3.5463000000000005,6.2391000000000005 3.5485000000000007,6.2416 3.5541,6.242 3.5580999999999996,6.246 3.559099999999999,6.2492 3.5663,6.2454 3.5836000000000006,6.2516 3.5876,6.2561 3.5912000000000006,6.2666 3.6075999999999997,6.2729 3.626099999999999,6.2699 3.6791,6.256 3.7543000000000006,6.2432 3.7734000000000005,6.244199999999999 3.793099999999999,6.2529 3.8123000000000005,6.2511 3.8267000000000007,6.2447 3.8346999999999998,6.2443 3.8538999999999994,6.2474 3.8736999999999995,6.258699999999999 3.8819,6.256 3.8839000000000006,6.2490000000000006 3.8911999999999995,6.2438 3.902899999999999,6.244 3.903599999999999,6.2462 3.9101,6.2467 3.9118999999999993,6.2405 3.9176,6.2406 3.922599999999999,6.2339 3.9352,6.2328 3.939499999999999,6.23 3.9475999999999996,6.2318 3.9525000000000006,6.2287 3.955499999999999,6.231199999999999 3.9649,6.2303 3.9723000000000006,6.2315000000000005 3.9742999999999995,6.2337 3.983699999999999,6.2330000000000005 3.9916,6.230499999999999 4.0099,6.2179 4.025599999999999,6.2204 4.0335,6.2192 4.036999999999999,6.2145 4.042,6.2132000000000005 4.043799999999999,6.2105999999999995 4.0481,6.2143 4.050699999999999,6.2138 4.0564,6.218 4.058299999999999,6.2162 4.0631,6.2194 4.071199999999999,6.2187 4.0741,6.2204999999999995 4.0792,6.2201 4.0832999999999995,6.2249 4.0861,6.2241 4.0916,6.2292000000000005 4.0945,6.2279 4.096,6.2295 4.0951,6.2346 4.097300000000001,6.2402 4.1084,6.2349 4.1182,6.2417 4.119999999999999,6.246499999999999 4.124699999999999,6.244 4.1233,6.233499999999999 4.1267,6.2306 4.1447,6.2295 4.148299999999999,6.2245 4.1508,6.2242999999999995 4.1531,6.2262 4.156000000000001,6.2199 4.160499999999999,6.2176 4.1669,6.2209 4.1728000000000005,6.2177 4.1751000000000005,6.218999999999999 4.1783,6.2351 4.1808,6.2354 4.1845,6.2326 4.187099999999999,6.2339 4.1875,6.2273 4.1897,6.2254000000000005 4.191800000000001,6.2269000000000005 4.1973,6.2253 4.2203,6.234999999999999 4.2212,6.2364 4.216799999999999,6.242 4.2187,6.2437000000000005 4.224,6.2417 4.2325,6.2438 4.2416,6.2346 4.2468,6.2353000000000005 4.247199999999999,6.2326999999999995 4.2599,6.2348 4.265499999999999,6.2341999999999995 4.2692,6.2318 4.276,6.2361 4.285399999999999,6.2384 4.286099999999999,6.2357 4.291599999999999,6.2395 4.296099999999999,6.236800000000001 4.298399999999999,6.238099999999999 4.305299999999999,6.235799999999999 4.315300000000001,6.2371 4.3194,6.2398 4.320600000000001,6.2359 4.327500000000001,6.2321 4.3308,6.2321 4.3329,6.2348 4.3339,6.2267 4.3367,6.2245 4.343299999999999,6.2269000000000005 4.358499999999999,6.228 4.3657,6.2348 4.3690999999999995,6.2347 4.374699999999999,6.2387 4.3759999999999994,6.234999999999999 4.3881,6.227399999999999 4.399900000000001,6.2356 4.402099999999999,6.2415 4.409599999999999,6.2431 4.411899999999999,6.2402 4.4153,6.2395 4.418099999999999,6.242 4.4161,6.2486999999999995 4.4190000000000005,6.255 4.417299999999999,6.258 4.449999999999999,6.270099999999999 4.456199999999999,6.2695 4.460699999999999,6.272 4.4719,6.269 4.4786,6.2654 4.4849,6.2692 4.492699999999999,6.2702 4.4931,6.2673000000000005 4.4853000000000005,6.265000000000001 4.4846,6.2622 4.486599999999999,6.259399999999999 4.4902999999999995,6.2585999999999995 4.491999999999999,6.2515 4.4952000000000005,6.2511 4.5032,6.257099999999999 4.5022,6.2524999999999995 4.5039,6.2486999999999995 4.5074000000000005,6.2475000000000005 4.513299999999999,6.2507 4.5227,6.2458 4.525,6.2486999999999995 4.531699999999999,6.25 4.5356000000000005,6.2558 4.542299999999999,6.257099999999999 4.5488,6.2614 4.5534,6.2581 4.5558,6.2536000000000005 4.5617,6.2512 4.562899999999999,6.2484 4.559699999999999,6.246499999999999 4.559899999999999,6.243399999999999 4.5671,6.2383 4.571,6.2387999999999995 4.5693,6.2347 4.572099999999999,6.2296 4.575799999999999,6.231 4.5844000000000005,6.2389 4.587400000000001,6.223599999999999 4.5923,6.2170000000000005 4.5954999999999995,6.2162 4.5945,6.2089 4.595699999999999,6.2059999999999995 4.6036,6.1983999999999995 4.599499999999999,6.1974 4.5914,6.1873000000000005 4.5855,6.1846 4.584099999999999,6.1785 4.584299999999999,6.176 4.5914,6.1753 4.596299999999999,6.1723 4.597999999999999,6.1684 4.5936,6.162 4.599399999999999,6.1617 4.5985,6.1525 4.596399999999999,6.1502 4.5921,6.149699999999999 4.5916,6.1472 4.5944,6.1449 4.599399999999999,6.1335999999999995 4.5976,6.1299 4.5923,6.1297 4.5877,6.1240000000000006 4.594799999999999,6.1196 4.5953,6.1164000000000005 4.591799999999999,6.1127 4.5914,6.109 4.594099999999999,6.0989 4.598699999999999,6.0989 4.599399999999999,6.0951 4.5982,6.0915 4.5998,6.0888 4.596399999999999,6.0846 4.597799999999999,6.0823 4.594799999999999,6.0793 4.5939,6.0748 4.595699999999999,6.065799999999999 4.5939,6.0588999999999995 4.5959,6.055400000000001 4.594799999999999,6.052 4.590399999999999,6.0479 4.590199999999999,6.041 4.587199999999999,6.0416 4.583600000000001,6.0453 4.5817,6.0449 4.5815,6.0417000000000005 4.589,6.0341000000000005 4.587,6.0299 4.5783000000000005,6.0258 4.574199999999999,6.0157 4.5694,6.0164 4.5634,6.0141 4.554499999999999,6.015499999999999 4.5512999999999995,6.010199999999999 4.5466999999999995,6.0111 4.537799999999999,6.0017 4.5403,5.997999999999999 4.5364,5.995699999999999 4.535499999999999,5.989 4.529999999999999,5.987 4.5252,5.9818999999999996 4.519,5.9785 4.5181000000000004,5.9736 4.5100999999999996,5.9725 4.5076,5.9658 4.5092,5.9562 4.517199999999999,5.9405 4.5169999999999995,5.9371 4.5078,5.9295 4.5046,5.9288 4.5016,5.9245 4.494299999999999,5.9226 4.491299999999999,5.9196 4.488099999999999,5.9125 4.4841999999999995,5.9086 4.4833,5.9054 4.485199999999999,5.9012 4.4817,5.8978 4.472999999999999,5.8916 4.468,5.8934 4.462299999999999,5.8921 4.458600000000001,5.884 4.4611,5.8774 4.4579,5.8725 4.459999999999999,5.8663 4.472099999999999,5.8601 4.4712,5.8521 4.4732,5.8491 4.4876000000000005,5.8486 4.4924,5.8445 4.494299999999999,5.8399 4.494,5.8256 4.4963,5.8205 4.4908,5.8139 4.492699999999999,5.8078 4.495899999999999,5.8072 4.501799999999999,5.797499999999999 4.4990000000000006,5.787 4.4961,5.7821 4.4887999999999995,5.7791999999999994 4.486699999999999,5.784 4.483499999999999,5.7847 4.482099999999999,5.7819 4.482799999999999,5.7741 4.4796,5.7642 4.482799999999999,5.7599 4.482799999999999,5.7477 4.480700000000001,5.7447 4.4755,5.7417 4.4718,5.7364 4.4595,5.7325 4.456999999999999,5.7236 4.459199999999999,5.7164 4.4581,5.7139 4.453099999999999,5.7120999999999995 4.445499999999999,5.699199999999999 4.4375,5.6925 4.4391,5.6879 4.4368,5.6826 4.440199999999999,5.674799999999999 4.4398,5.6677 4.4434000000000005,5.6633 4.4405,5.6541 4.4427,5.6488 4.4405,5.6436 4.4457,5.6314 4.450699999999999,5.6318 4.4512,5.6256 4.4475,5.624499999999999 4.4466,5.622 4.4496,5.6197 4.4514,5.6155 4.4496,5.6082 4.445499999999999,5.6065 4.4436,5.6013 4.4459,5.5976 4.442499999999999,5.5889 4.446400000000001,5.5831 4.4459,5.5801 4.441800000000001,5.5817 4.436999999999999,5.5804 4.4327000000000005,5.5817 4.4313,5.5776 4.4336,5.5739 4.438599999999999,5.5723 4.4411000000000005,5.5682 4.441599999999999,5.5608 4.4399999999999995,5.5541 4.4376999999999995,5.552099999999999 4.439499999999999,5.549799999999999 4.445,5.5507 4.4457,5.5459 4.448599999999999,5.5417 4.4541,5.5422 4.4548000000000005,5.5403 4.452500000000001,5.5341000000000005 4.4596,5.521 4.4642,5.5161999999999995 4.4697,5.5206 4.4733,5.5203 4.4733,5.5229 4.4758,5.5258 4.478999999999999,5.5265 4.484299999999999,5.5183 4.490499999999999,5.5148 4.491999999999999,5.5061 4.494999999999999,5.5061 4.4986999999999995,5.5028 4.495699999999999,5.4996 4.4932,5.4891 4.4986999999999995,5.491099999999999 4.499599999999999,5.4887999999999995 4.494299999999999,5.4803 4.4952000000000005,5.4783 4.500500000000001,5.478 4.506399999999999,5.4808 4.5085,5.4718 4.514200000000001,5.4727 4.5183,5.47 4.521100000000001,5.4647 4.5206,5.4615 4.5167,5.4564 4.5183,5.4536 4.5230999999999995,5.4527 4.5236,5.4509 4.5215,5.4472 4.5238,5.4421 4.521699999999999,5.4387 4.522,5.4346 4.526999999999999,5.43 4.529299999999999,5.4341 4.5344999999999995,5.429 4.539299999999999,5.4185 4.536999999999999,5.4127 4.5379000000000005,5.4093 4.542299999999999,5.406499999999999 4.5441,5.4018999999999995 4.5494,5.4018999999999995 4.552999999999999,5.3962 4.5496,5.3872 4.549799999999999,5.3824 4.556699999999999,5.383 4.557599999999999,5.3796 4.546799999999999,5.3582 4.547699999999999,5.3552 4.554399999999999,5.3495 4.554600000000001,5.3472 4.5451999999999995,5.3396 4.5443,5.3355 4.5459,5.3309 4.550699999999999,5.3274 4.554600000000001,5.3288 4.558,5.3325 4.562099999999999,5.3327 4.564399999999999,5.3271999999999995 4.5578,5.3067 4.5404,5.2957 4.531699999999999,5.2943999999999996 4.529399999999999,5.2911 4.530099999999999,5.2808 4.5244,5.2757 4.5207,5.276 4.5143,5.282 4.498099999999999,5.2776 4.4948999999999995,5.2799 4.4933,5.2844999999999995 4.4892,5.2831 4.4853000000000005,5.2776 4.4833,5.2707 4.483499999999999,5.2588 4.4787,5.2549 4.477499999999999,5.2505 4.481,5.2418 4.4794,5.2381 4.475899999999999,5.2376 4.4716000000000005,5.242 4.468399999999999,5.2413 4.4567,5.2303 4.4567,5.225 4.4681999999999995,5.2239 4.482099999999999,5.2192 4.4899000000000004,5.2153 4.496,5.2087 4.518599999999999,5.2176 4.5268999999999995,5.216 4.536899999999999,5.2166999999999994 4.5433,5.2146 4.555899999999999,5.218999999999999 4.558399999999999,5.2146 4.561399999999999,5.2139 4.5657,5.2185 4.5716,5.2183 4.575099999999999,5.2155000000000005 4.5785,5.2155000000000005 4.587899999999999,5.2203 4.5936,5.2181999999999995 4.6,5.2204999999999995 4.6061,5.212 4.6098,5.2118 4.6137,5.2158999999999995 4.6151,5.2302 4.6240000000000006,5.2265 4.625299999999999,5.2288 4.6258,5.2338000000000005 4.622399999999999,5.2398 4.622399999999999,5.2529 4.635400000000001,5.2536 4.6404,5.2488 4.6434,5.2483 4.6471,5.2492 4.6523,5.2568 4.6729,5.2561 4.674899999999999,5.2584 4.6736,5.2611 4.6667000000000005,5.2664 4.666499999999999,5.2699 4.6754,5.2816 4.6782,5.2818 4.6845,5.2774 4.698,5.2730999999999995 4.7005,5.2744 4.7026,5.2809 4.710100000000001,5.2818 4.7143,5.2882 4.7227,5.2859 4.7318999999999996,5.2903 4.7371,5.2909 4.738899999999999,5.2836 4.743,5.2854 4.746700000000001,5.2847 4.758100000000001,5.2767 4.775499999999999,5.2707 4.777799999999999,5.2652 4.7951,5.2599 4.7965,5.2661 4.8012999999999995,5.2658 4.810700000000001,5.2573 4.8148,5.2566 4.8157,5.258 4.811999999999999,5.2623999999999995 4.8134,5.2644 4.8248,5.2667 4.8415,5.2747 4.847899999999999,5.2736 4.852499999999999,5.269 4.856999999999999,5.2694 4.8765,5.2811 4.8781,5.2892 4.8888,5.2951 4.8909,5.2981 4.8911,5.3075 4.9046,5.3111999999999995 4.9087,5.3202 4.9298,5.3210999999999995 4.934799999999999,5.3199 4.933,5.331799999999999 4.9338999999999995,5.3347999999999995 4.9396,5.3357 4.9481,5.3401 4.9551,5.3362 4.965399999999999,5.3433 4.979099999999999,5.3447 4.983699999999999,5.3401 4.9879999999999995,5.3391 4.9902999999999995,5.3456 4.994400000000001,5.3405000000000005 5.0082,5.3416 5.010199999999999,5.3453 5.0258,5.352399999999999 5.027799999999999,5.3591 5.031699999999999,5.3607 5.0395,5.3611 5.044700000000001,5.3588000000000005 5.0456,5.357 5.042199999999999,5.3530999999999995 5.0428999999999995,5.3512 5.0512999999999995,5.3517 5.0548,5.3498 5.0596,5.3436 5.062799999999999,5.3431999999999995 5.0657,5.3494 5.0685,5.3514 5.079000000000001,5.3521 5.0859000000000005,5.3568999999999996 5.0893,5.3617 5.089499999999999,5.370699999999999 5.084099999999999,5.3817 5.0861,5.3877 5.0914,5.3849 5.0946,5.3863 5.0976,5.3895 5.097099999999999,5.3948 5.100099999999999,5.3987 5.1076,5.3982 5.110799999999999,5.4026 5.1081,5.4079 5.1088000000000005,5.4143 5.1028,5.4111 5.1012,5.4132 5.102399999999999,5.420999999999999 5.106299999999999,5.4277 5.1106,5.4284 5.113099999999999,5.4262999999999995 5.1143,5.4193999999999996 5.1175,5.4185 5.125,5.4214 5.134599999999999,5.4184 5.1403,5.4193 5.1511,5.4246 5.1568000000000005,5.4244 5.1623,5.4166 5.1668,5.4161 5.1762,5.4201999999999995 5.192399999999999,5.4234 5.1972000000000005,5.4229 5.226699999999999,5.4079 5.2493,5.4084 5.2669,5.4129 5.272399999999999,5.4127 5.2781,5.4085 5.283799999999999,5.4069 5.299799999999999,5.4108 5.3049,5.4227 5.309699999999999,5.424799999999999 5.311999999999999,5.4289 5.324999999999999,5.422 5.328899999999999,5.4183 5.3307,5.4121 5.3291,5.4043 5.3307,5.4011 5.343,5.3894 5.350299999999999,5.388199999999999 5.359,5.3758 5.366899999999999,5.3713999999999995 5.403499999999999,5.3663 5.409699999999999,5.3708 5.4193,5.3825 5.425699999999999,5.3832 5.43,5.3855 5.4449000000000005,5.3857 5.4604,5.3822 5.470699999999999,5.382 5.4757,5.3857 5.4876000000000005,5.3863 5.4915,5.384 5.4983,5.3732 5.5059000000000005,5.3654 5.5173000000000005,5.3607 5.5257000000000005,5.3617 5.5305,5.3603 5.537599999999999,5.3529 5.547699999999999,5.3522 5.552,5.3499 5.5593,5.3418 5.572099999999999,5.337 5.5794,5.3319 5.587999999999999,5.3174 5.597099999999999,5.295999999999999 5.6042000000000005,5.2902000000000005 5.6058,5.2905 5.607200000000001,5.285 5.603999999999999,5.273899999999999 5.606,5.2604 5.6044,5.2514 5.597999999999999,5.2399000000000004 5.5954,5.2318999999999996 5.5966000000000005,5.2242999999999995 5.6013,5.2195 5.6096,5.2172 5.6107,5.208 5.6244,5.201 5.6294,5.1948 5.6358,5.1789 5.6442,5.1681 5.645300000000001,5.1445 5.6471,5.1364 5.6722,5.1114999999999995 5.6876999999999995,5.0901 5.6968,5.0844 5.6991,5.0805 5.6991,5.0747 5.7021999999999995,5.0625 5.6995000000000005,5.0524000000000004 5.700200000000001,5.0481 5.7127,5.026 5.7141,5.0171 5.720599999999999,5.007099999999999 5.724499999999999,4.9922 5.7326999999999995,4.9799999999999995 5.7384,4.9607 5.745699999999999,4.9512 5.751999999999999,4.9501 5.767999999999999,4.9418 5.7776,4.9284 5.786,4.9241 5.793799999999999,4.9233 5.798399999999999,4.9193 5.8027,4.8966 5.8004999999999995,4.8892 5.7936,4.8812 5.792,4.8706 5.7882,4.8674 5.7658000000000005,4.8651 5.7661999999999995,4.8614 5.7715,4.8553999999999995 5.7774,4.8536 5.7841000000000005,4.8393999999999995 5.7859,4.826 5.7890999999999995,4.8159 5.785499999999999,4.8106 5.7730999999999995,4.8035 5.7645,4.7801 5.7615,4.7775 5.738899999999999,4.7711 5.731399999999999,4.766 5.715,4.7433 5.7157,4.7329 5.702399999999999,4.721 5.6937999999999995,4.718 5.693099999999999,4.715 5.6884999999999994,4.712 5.6789000000000005,4.6937999999999995 5.6684,4.6892 5.66,4.6632 5.670999999999999,4.652 5.684899999999999,4.6281 5.666,4.6198 5.6587,4.6079 5.6503,4.6014 5.6393,4.6007 5.6229,4.5837 5.6112,4.5823 5.5954999999999995,4.5710999999999995 5.5939,4.5676 5.594099999999999,4.5607 5.5839,4.5465 5.589599999999999,4.5344999999999995 5.5814,4.5343 5.558299999999999,4.5390999999999995 5.535299999999999,4.5273 5.523199999999999,4.5271 5.5159,4.531 5.5099,4.5402 5.4992,4.5415 5.483499999999999,4.5339 5.479099999999999,4.5337 5.470000000000001,4.5394 5.452399999999999,4.5458 5.4373000000000005,4.5484 5.42,4.5489999999999995 5.407,4.5405 5.383100000000001,4.512 5.3712,4.4846 5.3726,4.4803 5.392899999999999,4.4651 5.3934,4.4601 5.3919999999999995,4.4573 5.385400000000001,4.4521999999999995 5.3749,4.438 5.3736,4.4206 5.3668,4.4104 5.3606,4.407 5.351699999999999,4.3978 5.3385,4.3952 5.323,4.3817 5.310700000000001,4.3789 5.289899999999999,4.3669 5.283099999999999,4.3559 5.2781,4.3529 5.271699999999999,4.3416 5.267799999999999,4.3271999999999995 5.261899999999999,4.3274 5.2578,4.32 5.248200000000001,4.3161 5.242100000000001,4.3064 5.2425,4.3014 5.249599999999999,4.298 5.238199999999999,4.2871 5.2453,4.2805 5.2353000000000005,4.2793 5.2341,4.2766 5.2362,4.2734 5.2364,4.2688 5.2424,4.2587 5.234399999999999,4.255 5.2264,4.255 5.2216000000000005,4.2444 5.212999999999999,4.2368 5.1982,4.2287 5.196299999999999,4.226 5.1968,4.2191 5.194100000000001,4.2111 5.194799999999999,4.2062 5.2012,4.2007 5.1891,4.1934 5.197799999999999,4.1833 5.2065,4.1688 5.2058,4.1589 5.2126,4.1525 5.2174,4.1452 5.226799999999999,4.122 5.228199999999999,4.1114999999999995 5.223699999999999,4.0935 5.215,4.0814 5.215299999999999,4.0748999999999995 5.222099999999999,4.0637 5.222099999999999,4.0524 5.2242,4.0412 5.2292000000000005,4.0355 5.2347,4.0386999999999995 5.2416,4.0394 5.254300000000001,4.0363999999999995 5.258900000000001,4.0321 5.258900000000001,4.0215 5.2539,4.0121 5.249599999999999,3.9951 5.2339,3.9907 5.235199999999999,3.9585 5.231199999999999,3.9261 5.2272,3.9072 5.2157,3.8746 5.2096,3.8634999999999997 5.1937,3.8463 5.188000000000001,3.8322 5.186,3.8186999999999998 5.187199999999999,3.8026 5.1958,3.7784999999999997 5.2052,3.7662 5.2269000000000005,3.7481 5.24,3.7405999999999997 5.246599999999999,3.7424 5.254,3.7601 5.2613,3.7675 5.271599999999999,3.7694 5.2852,3.7676 5.319100000000001,3.7551 5.4201,3.7015 5.4506,3.6782 5.4632000000000005,3.6608 5.468500000000001,3.6466 5.4727,3.6273 5.4734,3.5676 5.4771,3.5511 5.4833,3.5486 5.4924,3.5491 5.529399999999999,3.5579 5.5533,3.5578 5.5655,3.5516 5.614799999999999,3.533 5.6267,3.5312 5.6541,3.5316 5.6653,3.5298 5.6865000000000006,3.5221 5.7012,3.5136 5.7127,3.5000999999999998 5.73,3.4725 5.7567,3.4475 5.7636,3.439 5.7829,3.4019 5.7933,3.3748 5.797499999999999,3.3575999999999997 5.799899999999999,3.3335 5.799099999999999,3.3098 5.786999999999999,3.2746 5.7713,3.2495 5.7652,3.2295 5.759,3.1895 5.741199999999999,3.1382 5.7308,3.1181 5.715999999999999,3.1027 5.7105999999999995,3.0816999999999997 5.719899999999999,3.0478 5.7234,2.9901 5.765599999999999,2.8057 5.771100000000001,2.7828 5.7811,2.7534 5.786,2.7306 5.7834,2.7072 5.773199999999999,2.6871 5.76,2.6670999999999996 5.753499999999999,2.6498 5.752699999999999,2.6257 5.7577,2.6147 5.7681000000000004,2.6041 5.795999999999999,2.5838 5.8012999999999995,2.5759999999999996 5.802099999999999,2.5654 5.7989,2.5578 5.793699999999999,2.5514 5.7722999999999995,2.537 5.7666,2.5312 5.763,2.5209 5.7646,2.5134999999999996 5.7826,2.4829999999999997 5.786099999999999,2.4702 5.7857,2.4570999999999996 5.7805,2.4459999999999997 5.774099999999999,2.4382 5.7506,2.4245 5.684699999999999,2.3936 5.6774000000000004,2.3890000000000002 5.674899999999999,2.3807 5.677299999999999,2.3699 5.6815999999999995,2.3608000000000002 5.6922,2.3461 5.7028,2.336 5.7142,2.3297999999999996 5.7218,2.3278 5.7392,2.3166 5.7479,2.3075 5.7516,2.2983000000000002 5.7492,2.2920999999999996 5.7424,2.2834 5.7271,2.271 5.7212,2.262 5.7172,2.2374 5.7142,2.1868 5.705399999999999,2.1626 5.702299999999999,2.1470000000000002 5.7035,2.1319999999999997 5.7010000000000005,2.1186999999999996 5.699,2.115 5.6873000000000005,2.1055 5.6137,2.0599 5.6028,2.0495 5.5946,2.0446999999999997 5.5577000000000005,2.0075 5.5509,1.9933999999999998 5.5478000000000005,1.972 5.5474,1.9573 5.5558,1.9028 5.553599999999999,1.8851 5.545,1.8761 5.5336,1.8702999999999999 5.525599999999999,1.8636 5.516299999999999,1.8413 5.5113,1.8331999999999997 5.4976,1.8253 5.474600000000001,1.819 5.464499999999999,1.8136999999999999 5.458399999999999,1.8030999999999997 5.456799999999999,1.7963999999999998 5.4649,1.7816999999999998 5.5173000000000005,1.7058 5.521699999999999,1.6940999999999997 5.5206,1.6869999999999998 5.513999999999999,1.6766 5.4794,1.6486 5.4664,1.6305999999999998 5.4201,1.5419 5.4033,1.5166999999999997 5.3834,1.5091 5.3697,1.5166 5.3566,1.5309999999999997 5.3506,1.5352000000000001 5.344899999999999,1.5351 5.328899999999999,1.5198999999999998 5.324999999999999,1.5190000000000001 5.3187999999999995,1.5223999999999998 5.298399999999999,1.5442 5.2872,1.5476 5.2780000000000005,1.5471 5.27,1.5442999999999998 5.248099999999999,1.5295 5.2376000000000005,1.5261999999999998 5.222999999999999,1.5257 5.192,1.5366999999999997 5.1859,1.5404999999999998 5.1723,1.5545 5.1691,1.5619 5.168799999999999,1.5701999999999998 5.171099999999999,1.5781999999999998 5.1836,1.5970999999999997 5.216799999999999,1.6320000000000001 5.2193000000000005,1.6469 5.2170000000000005,1.6568 5.213799999999999,1.661 5.1926000000000005,1.6774 5.187099999999999,1.6862 5.1808,1.7300999999999997 5.1373,1.7938999999999998 5.1143,1.8373 5.0908999999999995,1.8582999999999998 5.071400000000001,1.8725 5.0586,1.8773 5.054,1.8767999999999998 5.049199999999999,1.8704 5.0251,1.8283999999999998 4.9918,1.7953999999999999 4.975199999999999,1.7738 4.945399999999999,1.7401 4.938599999999999,1.7294999999999998 4.8843,1.6663000000000001 4.871599999999999,1.6484999999999999 4.836499999999999,1.6065999999999998 4.8065,1.5612 4.8035,1.5594999999999999 4.793200000000001,1.5572 4.784699999999999,1.5602 4.7712,1.5695999999999999 4.754300000000001,1.5756999999999999 4.742799999999999,1.5766 4.7309,1.5754000000000001 4.7003,1.5644999999999998 4.691800000000001,1.564 4.6852,1.5661 4.6744,1.5699999999999998 4.656499999999999,1.5835 4.636799999999999,1.5937999999999999 4.6325,1.5983999999999998 4.6167,1.6048 4.563599999999999,1.6115 4.5504999999999995,1.6164999999999998 4.5402000000000005,1.6229 4.5322,1.6313999999999997 4.5237,1.6486999999999998 4.516299999999999,1.6528 4.510400000000001,1.6513999999999998 4.5001,1.6393999999999997 4.4894,1.6214 4.4824,1.6143 4.475999999999999,1.6113 4.466799999999999,1.6118999999999999 4.4558,1.617 4.4308,1.6305 4.4221,1.6368999999999998 4.3894,1.6477999999999997 4.3727,1.6475999999999997 4.3576,1.6532999999999998 4.3482,1.6542 4.3413,1.6568999999999998 4.3315,1.6660999999999997 4.327299999999999,1.6764000000000001 4.3352,1.7237999999999998 4.334199999999999,1.7389999999999999 4.325899999999999,1.7609 4.307599999999999,1.7883999999999998 4.299099999999999,1.7955 4.2669999999999995,1.8096999999999999 4.231,1.8356 4.2136,1.8535 4.2036999999999995,1.8687 4.185599999999999,1.8912 4.1823999999999995,1.9102000000000001 4.1761,1.9323000000000001 4.174199999999999,1.9552999999999998 4.1698,1.9771 4.1645,1.9928 4.1572,2.0075 4.1419999999999995,2.0511 4.1294,2.0647 4.0799,2.097 4.0639,2.1094 4.043699999999999,2.1218 4.0337,2.1258999999999997 4.022499999999999,2.1262999999999996 3.985899999999999,2.1163 3.9840999999999998,2.114 3.9505,2.1087 3.926499999999999,2.1116 3.9147999999999996,2.1153 3.8911999999999995,2.1262999999999996 3.8721999999999994,2.1323999999999996 3.8621999999999996,2.1315 3.8567,2.1246 3.8507999999999996,2.1056999999999997 3.8439999999999994,2.0942 3.8354999999999997,2.0898 3.8210999999999995,2.0892999999999997 3.785399999999999,2.1022 3.7719000000000005,2.1163999999999996 3.7624999999999993,2.1207 3.745799999999999,2.1207 3.7445000000000004,2.1161 3.7676999999999996,2.0472 3.7714,2.02 3.770999999999999,1.9989 3.775599999999999,1.9716999999999998 3.7828,1.9522 3.7944999999999993,1.9312999999999998 3.8203999999999994,1.904 3.8240999999999996,1.8954999999999997 3.8225,1.8748 3.8111999999999995,1.8319999999999999 3.8130000000000006,1.8258 3.8277,1.8045999999999998 3.8325999999999993,1.7767999999999997 3.8291000000000004,1.7687 3.8051999999999992,1.7367 3.7973999999999997,1.7227000000000001 3.798399999999999,1.7111999999999998 3.8270999999999997,1.6719 3.8295999999999992,1.6643 3.8211999999999993,1.6441 3.8065999999999995,1.6225999999999998 3.8019999999999996,1.6109 3.8064999999999998,1.5776 3.8033,1.5682999999999998 3.798,1.5667 3.768699999999999,1.5694 3.5997000000000003,1.5707999999999998 3.584999999999999,1.5694 3.4770000000000003,1.5694 3.4484999999999992,1.5627 3.410499999999999,1.5564 3.3926999999999996,1.5514000000000001 3.378,1.5654 3.3651,1.593 3.3580000000000005,1.6046999999999998 3.3489000000000004,1.6111 3.3230000000000004,1.6362 3.3057999999999996,1.6482999999999999 3.2971000000000004,1.6507999999999998 3.2751,1.6494 3.2406000000000006,1.6324 3.215299999999999,1.616 3.2044999999999995,1.6120999999999999 3.1923999999999992,1.6124999999999998 3.1674000000000007,1.6191999999999998 3.1585,1.6191999999999998 3.1479999999999997,1.612 3.131499999999999,1.6099 3.1212999999999997,1.6033 3.107099999999999,1.5798 3.0947999999999993,1.5551999999999997 3.0755999999999997,1.5341999999999998 3.0717,1.5337 3.0623000000000005,1.5372 3.0405999999999995,1.553 3.0299999999999994,1.5638 3.0112000000000005,1.5987999999999998 2.9982000000000006,1.6179000000000001 2.9794,1.6372 2.966799999999999,1.6461000000000001 2.9489,1.6513999999999998 2.922599999999999,1.6703000000000001 2.913499999999999,1.6707 2.9075000000000006,1.6656 2.9101,1.6339000000000001 2.9141999999999992,1.6233 2.9328000000000003,1.5996000000000001 2.9513,1.5692999999999997 2.9536,1.5602999999999998 2.9534000000000002,1.5461 2.942,1.5105999999999997 2.9375,1.4867 2.9366000000000003,1.4699 2.9537999999999993,1.4301 2.962299999999999,1.3994999999999997 2.9694000000000003,1.3853 2.9856999999999996,1.363 2.9967000000000006,1.3434 3.0031,1.3277999999999999 3.004199999999999,1.3176999999999999 3.001999999999999,1.3035999999999999 2.9969,1.2995 2.9865999999999993,1.2982999999999998 2.9688,1.3014999999999999 2.9564000000000004,1.3018 2.9483999999999995,1.2988 2.9418000000000006,1.2925 2.9383999999999997,1.2694999999999999 2.9327000000000005,1.2481 2.9209999999999994,1.2216999999999998 2.916499999999999,1.2065000000000001 2.9178999999999995,1.201 2.9231,1.1917999999999997 2.9305000000000003,1.1848999999999998 2.9428,1.1797999999999997 2.9564000000000004,1.1698999999999997 2.9733,1.161 2.9888999999999992,1.1549999999999998 3.0120000000000005,1.1528999999999998 3.061,1.1376 3.0968999999999998,1.1292999999999997 3.167,1.0985999999999998 3.1950000000000003,1.0905 3.2386999999999997,1.0709999999999997 3.3116000000000003,1.0419 3.3436000000000003,1.0343999999999998 3.3574,1.0291000000000001 3.366999999999999,1.0213 3.3688000000000002,1.0131999999999999 3.3660999999999994,1.0042 3.350999999999999,0.9796 3.3307,0.9348999999999998 3.3253000000000004,0.9163000000000001 3.3186,0.9026999999999998 3.3139000000000003,0.8554999999999997 3.3111999999999995,0.8483999999999998 3.3026999999999997,0.8376000000000001 3.2917000000000005,0.8310999999999997 3.271799999999999,0.8243999999999998 3.2478,0.8188999999999997 3.239799999999999,0.8123999999999998 3.2354000000000003,0.8028 3.2371,0.7967999999999997 3.2439,0.7864 3.265699999999999,0.7763 3.302199999999999,0.7488000000000001 3.3225999999999996,0.7061999999999999 3.3437,0.6671 3.3488000000000007,0.6513 3.3459000000000003,0.6381000000000001 3.3283000000000005,0.6069999999999998 3.307499999999999,0.5756999999999999 3.2592,0.5124 3.2437000000000005,0.5013000000000001 3.2201000000000004,0.4918999999999998 3.198599999999999,0.47989999999999977 3.1877999999999993,0.46789999999999976 3.180999999999999,0.45500000000000007 3.1774000000000004,0.42579999999999973 3.1783,0.4137999999999997 3.1898,0.39979999999999993 3.2049000000000003,0.39129999999999976 3.2409,0.3752 3.2469,0.3696999999999999 3.2482000000000006,0.36439999999999984 3.2143999999999995,0.28779999999999983 3.1960999999999995,0.25639999999999974 3.1846999999999994,0.24330000000000007 3.176499999999999,0.24029999999999996 3.1632,0.24330000000000007 3.1304,0.2614000000000001 3.0931999999999995,0.2786999999999997 3.0869999999999997,0.2829999999999999 3.0138999999999996,0.3064 3.0081000000000007,0.3102999999999998 2.9967000000000006,0.31999999999999984 2.981299999999999,0.3439000000000001 2.9779,0.34640000000000004 2.9696,0.35840000000000005 2.9467,0.3999999999999999 2.9320000000000004,0.4205000000000001 2.9262999999999995,0.4238999999999997 2.9216999999999995,0.4300999999999999 2.91,0.43889999999999985 2.8858999999999995,0.45199999999999996 2.8651,0.46119999999999983 2.8377999999999997,0.4767999999999999 2.8298000000000005,0.4779 2.8202,0.47219999999999995 2.8085000000000004,0.4609000000000001 2.7872000000000003,0.4339999999999997 2.758799999999999,0.40680000000000005 2.7425999999999995,0.4009999999999998 2.7287999999999997,0.40059999999999985 2.7081999999999997,0.40349999999999975 2.6935000000000002,0.40379999999999994 2.6618999999999993,0.39549999999999974 2.6458999999999993,0.3872 2.6347000000000005,0.3767999999999998 2.603299999999999,0.33329999999999993 2.5703999999999994,0.3022 2.5565999999999995,0.28469999999999995 2.549999999999999,0.27259999999999973 2.545399999999999,0.24839999999999973 2.5458999999999996,0.2258 2.5519,0.17890000000000006 2.5496,0.16420000000000012 2.5336999999999996,0.1398999999999999 "></polygon><polygon points="0.6208075949367089,2.046135443037975 0.6207294117647031,2.046182352941178 0.6207999999999991,2.0461 0.6208075949367089,2.046135443037975 "></polygon><polygon points="0.6207294117647031,2.046182352941178 0.6135999999999999,2.0545 0.6099999999999994,2.0572 0.6172000000000004,2.0483000000000002 0.6207294117647031,2.046182352941178 "></polygon><polygon points="0.21689999999999898,3.2683 0.22359999999999935,3.2686 0.22639999999999993,3.2628 0.22610000000000063,3.2580999999999998 0.22969999999999935,3.2606 0.23029999999999973,3.2661 0.23279999999999923,3.2661 0.23889999999999922,3.2572 0.2416999999999998,3.2514 0.24189999999999934,3.2453 0.2416999999999998,3.242 0.23799999999999955,3.2414 0.23799999999999955,3.2392 0.2483000000000004,3.2164 0.2510999999999992,3.2019 0.2616999999999994,3.1914 0.27749999999999986,3.1811 0.279399999999999,3.1780999999999997 0.27500000000000036,3.1664 0.27500000000000036,3.1628 0.27829999999999977,3.1574999999999998 0.27999999999999936,3.1489 0.279399999999999,3.1581 0.27609999999999957,3.165 0.279399999999999,3.1685999999999996 0.28219999999999956,3.1786 0.29330000000000034,3.1786 0.29829999999999934,3.1757999999999997 0.30439999999999934,3.1757999999999997 0.3202999999999996,3.1677999999999997 0.3222000000000005,3.1647 0.3243999999999989,3.1428 0.3196999999999992,3.1219 0.3204999999999991,3.1047 0.3118999999999996,3.0947 0.3094000000000001,3.085 0.3086000000000002,3.0669 0.30049999999999955,3.0617 0.28720000000000034,3.0578 0.28110000000000035,3.0603 0.2746999999999993,3.0608 0.2721999999999998,3.0646999999999998 0.2697000000000003,3.0694999999999997 0.2685999999999993,3.0786 0.2646999999999995,3.0831 0.2629999999999999,3.0906 0.2561,3.1022 0.2553000000000001,3.1208 0.2524999999999995,3.1325 0.248899999999999,3.1372 0.24690000000000012,3.1433 0.2475000000000005,3.1542 0.2441999999999993,3.17 0.23439999999999905,3.1803 0.21829999999999927,3.1883 0.20999999999999908,3.1992 0.2104999999999997,3.2053 0.21579999999999977,3.207 0.22029999999999994,3.2114 0.22189999999999976,3.2169999999999996 0.22080000000000055,3.2218999999999998 0.21720000000000006,3.2275 0.21359999999999957,3.2283 0.20359999999999978,3.2405999999999997 0.1880000000000006,3.2485999999999997 0.1875,3.2582999999999998 0.1936,3.2686 0.19919999999999938,3.2686 0.2029999999999994,3.2658 0.20969999999999978,3.2695 0.21689999999999898,3.2683 "></polygon><polygon points="0.01529999999999987,3.37 0.017799999999999372,3.3674999999999997 0.017199999999998994,3.3611 0.01890000000000036,3.3603 0.012199999999999989,3.3581 0.010500000000000398,3.3560999999999996 0.010500000000000398,3.3528 0.01249999999999929,3.3475 0.019999999999999574,3.3425 0.020799999999999486,3.34 0.012800000000000367,3.3433 0.008300000000000196,3.3407999999999998 0.008300000000000196,3.3396999999999997 0.01529999999999987,3.3422 0.025299999999999656,3.335 0.023899999999999366,3.3407999999999998 0.03500000000000014,3.3417 0.04279999999999973,3.3356 0.05250000000000021,3.3344 0.0539000000000005,3.3228 0.050499999999999545,3.3161 0.05609999999999893,3.3142 0.05719999999999992,3.31 0.051899999999999835,3.3083 0.04889999999999972,3.3036 0.05080000000000062,3.3064 0.05690000000000062,3.3083 0.05889999999999951,3.3110999999999997 0.05829999999999913,3.3146999999999998 0.06439999999999912,3.3139 0.06780000000000008,3.315 0.07920000000000016,3.3108 0.07779999999999987,3.3058 0.07610000000000028,3.3053 0.07530000000000037,3.2975 0.07779999999999987,3.2908 0.08029999999999937,3.2897 0.08469999999999978,3.2782999999999998 0.08830000000000027,3.2767 0.08719999999999928,3.2725 0.08939999999999948,3.272 0.09220000000000006,3.2736 0.09389999999999965,3.2706 0.09580000000000055,3.2714 0.09689999999999976,3.2702999999999998 0.09580000000000055,3.2678 0.09299999999999997,3.2683 0.09140000000000015,3.2664 0.09249999999999936,3.2647 0.09580000000000055,3.2649999999999997 0.09750000000000014,3.2582999999999998 0.09389999999999965,3.255 0.09469999999999956,3.2506 0.09299999999999997,3.2358 0.10219999999999985,3.2267 0.09769999999999968,3.2127999999999997 0.09890000000000043,3.2036 0.10280000000000022,3.1989 0.11500000000000021,3.1908 0.12389999999999901,3.1825 0.1333000000000002,3.1795 0.1357999999999997,3.1761 0.14029999999999987,3.1738999999999997 0.14080000000000048,3.1703 0.14530000000000065,3.1635999999999997 0.1465999999999994,3.1542 0.15279999999999916,3.145 0.15690000000000026,3.1433 0.16220000000000034,3.1436 0.17499999999999893,3.1511 0.1889000000000003,3.1425 0.1882999999999999,3.1411 0.18249999999999922,3.142 0.18029999999999902,3.1378 0.17639999999999922,3.135 0.17939999999999934,3.1357999999999997 0.18249999999999922,3.1406 0.1889000000000003,3.1406 0.1919000000000004,3.1417 0.1905000000000001,3.1444 0.18420000000000059,3.1486 0.18299999999999983,3.1517 0.17329999999999934,3.1528 0.16690000000000005,3.1508 0.15859999999999985,3.1508 0.15499999999999936,3.1525 0.15300000000000047,3.1558 0.15279999999999916,3.1611 0.15499999999999936,3.1647 0.15329999999999977,3.1738999999999997 0.15690000000000026,3.1839 0.16249999999999964,3.1902999999999997 0.16000000000000014,3.2077999999999998 0.16389999999999993,3.2142 0.16579999999999906,3.2283 0.16939999999999955,3.2358 0.17409999999999926,3.235 0.18029999999999902,3.2302999999999997 0.18719999999999892,3.2281 0.19669999999999987,3.2289 0.20640000000000036,3.2275 0.2065999999999999,3.2233 0.2029999999999994,3.2207999999999997 0.1882999999999999,3.2228 0.1836000000000002,3.2195 0.18050000000000033,3.2117 0.1828000000000003,3.2066999999999997 0.18549999999999933,3.205 0.1889000000000003,3.2039 0.19529999999999959,3.205 0.1850000000000005,3.2085999999999997 0.1816999999999993,3.2122 0.1836000000000002,3.2178 0.1885999999999992,3.2217 0.1938999999999993,3.2218999999999998 0.20420000000000016,3.2172 0.21170000000000044,3.2206 0.21669999999999945,3.2197 0.21689999999999898,3.2138999999999998 0.2068999999999992,3.2056 0.20579999999999998,3.2011 0.21030000000000015,3.1928 0.21829999999999927,3.1858 0.21889999999999965,3.1835999999999998 0.21139999999999937,3.1833 0.2054999999999989,3.1878 0.204699999999999,3.187 0.21110000000000007,3.1822 0.22780000000000022,3.1814 0.23550000000000004,3.1747 0.23749999999999893,3.1755999999999998 0.24049999999999905,3.1719 0.24579999999999913,3.1586 0.2463999999999995,3.152 0.24469999999999992,3.1471999999999998 0.2524999999999995,3.127 0.2553000000000001,3.1022 0.2618999999999989,3.0911 0.2632999999999992,3.0827999999999998 0.26750000000000007,3.0781 0.27030000000000065,3.0656 0.27420000000000044,3.0595 0.27500000000000036,3.0517 0.27280000000000015,3.032 0.2663999999999991,3.0178 0.2616999999999994,3.0117 0.2477999999999998,3.0025 0.23939999999999984,3.0021999999999998 0.24109999999999943,3.0003 0.24029999999999951,2.9966999999999997 0.23080000000000034,2.9966999999999997 0.23139999999999894,2.9989 0.23439999999999905,2.9992 0.23499999999999943,3.0008 0.23499999999999943,3.0021999999999998 0.23139999999999894,3.002 0.22419999999999973,2.9922 0.21609999999999907,2.985 0.21279999999999966,2.9839 0.20420000000000016,2.9730999999999996 0.1977999999999991,2.9695 0.19079999999999941,2.9683 0.1852999999999998,2.9699999999999998 0.17580000000000062,2.9847 0.16440000000000055,2.9958 0.15969999999999906,3.0061 0.16080000000000005,3.0125 0.16080000000000005,3.0053 0.16389999999999993,2.9989 0.16670000000000051,2.9978 0.16610000000000014,2.9958 0.16779999999999973,2.9933 0.17249999999999943,2.9922 0.16750000000000043,2.9966999999999997 0.16670000000000051,2.9995 0.16469999999999985,2.9997 0.16329999999999956,3.0033 0.16220000000000034,3.0147 0.15549999999999997,3.0364 0.09999999999999964,3.1155999999999997 0.09169999999999945,3.1319999999999997 0.08300000000000018,3.1558 0.0779999999999994,3.1757999999999997 0.06359999999999921,3.2111 0.04389999999999894,3.2483 0.03500000000000014,3.2597 0.03169999999999895,3.2664 0.024699999999999278,3.2728 0.015499999999999403,3.2853 0.008900000000000574,3.2967 0.0002999999999993008,3.3236 0.0,3.3481 0.0024999999999995026,3.3597 0.008300000000000196,3.3630999999999998 0.009399999999999409,3.37 0.01529999999999987,3.37 "></polygon><polygon points="0.2554999999999996,3.2239 0.2546999999999997,3.2244 0.254999999999999,3.2260999999999997 0.2563999999999993,3.2256 0.2554999999999996,3.2239 "></polygon><polygon points="0.2679999999999989,3.2011 0.2697000000000003,3.1981 0.2683,3.1963999999999997 0.2660999999999998,3.1978 0.26500000000000057,3.2019 0.267199999999999,3.2024999999999997 0.2679999999999989,3.2011 "></polygon><polygon points="0.2597000000000005,3.215 0.2636000000000003,3.2064 0.2644000000000002,3.1969 0.2557999999999989,3.2031 0.2557999999999989,3.2066999999999997 0.2575000000000003,3.2077999999999998 0.2561,3.2157999999999998 0.2583000000000002,3.2167 0.2597000000000005,3.215 "></polygon><polygon points="0.09719999999999906,3.2525 0.09580000000000055,3.2511 0.09580000000000055,3.2542 0.09750000000000014,3.2544 0.09719999999999906,3.2525 "></polygon><polygon points="0.09970000000000034,3.26 0.09909999999999997,3.2575 0.09830000000000005,3.2569999999999997 0.09830000000000005,3.2603 0.09970000000000034,3.26 "></polygon><polygon points="0.21909999999999918,3.28 0.22219999999999906,3.2761 0.21860000000000035,3.2733 0.21689999999999898,3.28 0.21909999999999918,3.28 "></polygon><polygon points="0.8016000000000005,4.0967 0.802999999999999,4.0897 0.8008000000000006,4.085 0.7988999999999997,4.085 0.7955000000000005,4.095 0.7988999999999997,4.0983 0.8016000000000005,4.0967 "></polygon><polygon points="0.404399999999999,3.2911 0.40279999999999916,3.2897 0.40169999999999995,3.2914 0.40470000000000006,3.2933 0.404399999999999,3.2911 "></polygon><polygon points="0.34280000000000044,3.3217 0.34500000000000064,3.3194999999999997 0.3454999999999995,3.315 0.35029999999999895,3.3108 0.35079999999999956,3.3030999999999997 0.3552999999999997,3.3003 0.36439999999999984,3.2889 0.36219999999999963,3.2817 0.35580000000000034,3.2744 0.35299999999999976,3.267 0.34249999999999936,3.2546999999999997 0.34079999999999977,3.245 0.3415999999999997,3.2367 0.3379999999999992,3.2306 0.33890000000000065,3.2249999999999996 0.34299999999999997,3.2175 0.35249999999999915,3.2133 0.3552999999999997,3.2106 0.3552999999999997,3.2083 0.3528000000000002,3.2047 0.34029999999999916,3.1953 0.3340999999999994,3.182 0.3230000000000004,3.1675 0.3171999999999997,3.1728 0.3117000000000001,3.1728 0.3013999999999992,3.1786 0.28969999999999985,3.1816999999999998 0.28689999999999927,3.1845 0.285499999999999,3.1835999999999998 0.28800000000000026,3.1803 0.28279999999999994,3.1799999999999997 0.2721999999999998,3.1886 0.2685999999999993,3.1942 0.2719000000000005,3.1947 0.2719000000000005,3.1961 0.2654999999999994,3.2064 0.2585999999999995,3.2321999999999997 0.2607999999999997,3.242 0.27389999999999937,3.2445 0.27829999999999977,3.2527999999999997 0.27859999999999907,3.2586 0.28110000000000035,3.2595 0.285499999999999,3.2580999999999998 0.28689999999999927,3.2508 0.28330000000000055,3.2353 0.285499999999999,3.2228 0.29389999999999894,3.2138999999999998 0.29720000000000013,3.2014 0.3066999999999993,3.1944999999999997 0.3096999999999994,3.1961 0.3121999999999989,3.1992 0.3100000000000005,3.2016999999999998 0.3121999999999989,3.2031 0.3100000000000005,3.2028 0.3078000000000003,3.1963999999999997 0.30609999999999893,3.1955999999999998 0.30439999999999934,3.1997 0.29829999999999934,3.2066999999999997 0.2964000000000002,3.2157999999999998 0.28940000000000055,3.2244 0.28749999999999964,3.2314 0.28800000000000026,3.2397 0.29049999999999976,3.2485999999999997 0.2925000000000004,3.2497 0.29529999999999923,3.247 0.2942,3.2517 0.29940000000000033,3.2517 0.3035999999999994,3.2580999999999998 0.3047000000000004,3.2636 0.3127999999999993,3.2697 0.3121999999999989,3.2721999999999998 0.3094000000000001,3.2736 0.31049999999999933,3.2761 0.3139000000000003,3.2763999999999998 0.317499999999999,3.2721999999999998 0.3186,3.2695 0.3153000000000006,3.2702999999999998 0.3153000000000006,3.2691999999999997 0.3186,3.2686 0.3204999999999991,3.27 0.3186,3.2752999999999997 0.3216999999999999,3.2767 0.3222000000000005,3.2811 0.3188999999999993,3.2831 0.3186,3.2853 0.3232999999999997,3.2861 0.3318999999999992,3.2845 0.3318999999999992,3.2892 0.3254999999999999,3.2997 0.3192000000000004,3.3056 0.3202999999999996,3.3108 0.3230000000000004,3.3133 0.3324999999999996,3.3136 0.3369,3.3217 0.33999999999999986,3.3228 0.34280000000000044,3.3217 "></polygon><polygon points="0.40109999999999957,3.3072 0.4004999999999992,3.3003 0.39780000000000015,3.2963999999999998 0.39639999999999986,3.2967 0.3929999999999989,3.3011 0.39390000000000036,3.3066999999999998 0.3955000000000002,3.3083 0.40109999999999957,3.3072 "></polygon><polygon points="0.3130000000000006,3.3536 0.3108000000000004,3.3438999999999997 0.3135999999999992,3.3407999999999998 0.3163999999999998,3.3292 0.3132999999999999,3.3286 0.3069000000000006,3.3333 0.3033000000000001,3.3322 0.3010999999999999,3.3295 0.3010999999999999,3.3261 0.3041999999999998,3.322 0.299199999999999,3.3156 0.29529999999999923,3.3136 0.29470000000000063,3.3097 0.29609999999999914,3.3061 0.29720000000000013,3.3061 0.2964000000000002,3.3139 0.29969999999999963,3.315 0.3049999999999997,3.3213999999999997 0.3047000000000004,3.3247 0.3025000000000002,3.3274999999999997 0.3035999999999994,3.3314 0.3078000000000003,3.3322 0.311399999999999,3.3272 0.3155000000000001,3.3272 0.317499999999999,3.3292 0.317499999999999,3.3319 0.3153000000000006,3.3361 0.3179999999999996,3.3383 0.3324999999999996,3.3316999999999997 0.3344000000000005,3.3278 0.3332999999999995,3.3183 0.3304999999999989,3.3164 0.3224999999999998,3.3152999999999997 0.3163999999999998,3.3117 0.3182999999999989,3.3042 0.3239000000000001,3.2992 0.323599999999999,3.2975 0.33000000000000007,3.29 0.3308,3.2864 0.3204999999999991,3.2872 0.3178000000000001,3.2853 0.3200000000000003,3.2781 0.3171999999999997,3.2739 0.3132999999999999,3.2775 0.3088999999999995,3.2756 0.3086000000000002,3.272 0.31049999999999933,3.2697 0.3047000000000004,3.2656 0.30189999999999984,3.2575 0.29829999999999934,3.2527999999999997 0.29389999999999894,3.2525 0.29219999999999935,3.2567 0.28640000000000043,3.2630999999999997 0.27890000000000015,3.2656 0.27609999999999957,3.2622 0.2746999999999993,3.2514 0.2724999999999991,3.2472 0.2699999999999996,3.2456 0.26529999999999987,3.2464 0.2557999999999989,3.2561 0.2477999999999998,3.2706 0.2463999999999995,3.2933 0.2483000000000004,3.2988999999999997 0.2453000000000003,3.302 0.24579999999999913,3.3085999999999998 0.2516999999999996,3.3133 0.2538999999999998,3.3133 0.2536000000000005,3.3097 0.2566000000000006,3.3085999999999998 0.2546999999999997,3.3097 0.2544000000000004,3.3125 0.2557999999999989,3.3136 0.2568999999999999,3.3222 0.2668999999999997,3.3333 0.27919999999999945,3.3372 0.28580000000000005,3.3367 0.2903000000000002,3.3383 0.2942,3.3430999999999997 0.3039000000000005,3.3467 0.3110999999999997,3.3542 0.3130000000000006,3.3536 "></polygon><polygon points="0.379999999999999,3.3110999999999997 0.3874999999999993,3.3072 0.3886000000000003,3.2988999999999997 0.3847000000000005,3.2942 0.3778000000000006,3.2922 0.375,3.3091999999999997 0.3757999999999999,3.3117 0.379999999999999,3.3110999999999997 "></polygon><polygon points="0.3179999999999996,3.3094 0.317499999999999,3.3117 0.3182999999999989,3.312 0.3186,3.3103 0.3179999999999996,3.3094 "></polygon><polygon points="1.136099999999999,4.1383 1.1347000000000005,4.1381 1.1357999999999997,4.1403 1.136899999999999,4.1396999999999995 1.136099999999999,4.1383 "></polygon><polygon points="0.8141999999999996,4.2028 0.8117000000000001,4.1981 0.8079999999999998,4.2011 0.8102999999999998,4.2058 0.8135999999999992,4.2056 0.8141999999999996,4.2028 "></polygon><polygon points="0.6993999999999989,4.1892 0.7043999999999997,4.1847 0.7038999999999991,4.1792 0.7003000000000004,4.18 0.6974999999999998,4.1831 0.6977999999999991,4.1911 0.6993999999999989,4.1892 "></polygon><polygon points="0.7078000000000007,4.202 0.7117000000000004,4.2008 0.7127999999999997,4.1947 0.7052999999999994,4.1853 0.7003000000000004,4.1889 0.6982999999999997,4.1975 0.7011000000000003,4.2021999999999995 0.7043999999999997,4.2017 0.7064000000000004,4.2031 0.7078000000000007,4.202 "></polygon><polygon points="0.8475000000000001,4.2683 0.8613999999999997,4.262 0.8611000000000004,4.2564 0.8591999999999995,4.2531 0.8521999999999998,4.2528 0.8483,4.2481 0.8450000000000006,4.2503 0.8410999999999991,4.25 0.841899999999999,4.2603 0.8399999999999999,4.2661 0.843,4.2695 0.8475000000000001,4.2683 "></polygon><polygon points="0.8757999999999999,4.5306 0.8782999999999994,4.5236 0.8765999999999998,4.5133 0.8778000000000006,4.5061 0.8755000000000006,4.5022 0.8721999999999994,4.5011 0.865499999999999,4.5095 0.8621999999999996,4.5214 0.8650000000000002,4.5286 0.8703000000000003,4.5295 0.8741000000000003,4.532 0.8757999999999999,4.5306 "></polygon><polygon points="0.817499999999999,4.2861 0.8155000000000001,4.2836 0.8141999999999996,4.2833 0.8165999999999993,4.2881 0.8179999999999996,4.2878 0.817499999999999,4.2861 "></polygon><polygon points="0.8132999999999999,4.2878 0.8143999999999991,4.2881 0.8139000000000003,4.2842 0.8130000000000006,4.2847 0.8132999999999999,4.2878 "></polygon><polygon points="0.8353000000000002,4.5522 0.8344000000000005,4.5531 0.8371999999999993,4.5539 0.8361000000000001,4.552 0.8353000000000002,4.5522 "></polygon><polygon points="0.8452999999999999,4.5858 0.843,4.5728 0.8397000000000006,4.5719 0.8375000000000004,4.5786 0.8385999999999996,4.5825 0.843,4.59 0.8450000000000006,4.59 0.8452999999999999,4.5858 "></polygon>
    </svg>
    