
    <svg width="3.0257999999999985" height="0.7622" xmlns="http://www.w3.org/2000/svg" xmlns:xlink="http://www.w3.org/1999/xlink" style="transform: scale(1, -1)">
        <polygon points="0.1266999999999996,0.10060000000000002 0.1277000000000008,0.09609999999999985 0.12539999999999907,0.09529999999999994 0.12310000000000088,0.09520000000000017 0.11909999999999954,0.09799999999999898 0.1153999999999975,0.09740000000000038 0.11809999999999832,0.08890000000000065 0.1164999999999985,0.08809999999999896 0.11250000000000071,0.09159999999999968 0.11019999999999897,0.0907 0.10820000000000007,0.08719999999999928 0.10820000000000007,0.08399999999999963 0.11410000000000053,0.07850000000000001 0.11349999999999838,0.07290000000000063 0.11609999999999943,0.0688999999999993 0.11369999999999791,0.06770000000000032 0.11110000000000042,0.06979999999999897 0.10820000000000007,0.06949999999999967 0.10719999999999885,0.06020000000000003 0.10439999999999827,0.05749999999999922 0.09730000000000061,0.055600000000000094 0.09179999999999922,0.057000000000000384 0.09179999999999922,0.052799999999999514 0.09570000000000078,0.049099999999999255 0.09450000000000003,0.044599999999999085 0.09099999999999753,0.04560000000000031 0.0887999999999991,0.05039999999999978 0.08220000000000027,0.049300000000000566 0.08040000000000092,0.04049999999999976 0.08680000000000021,0.0345999999999993 0.0884999999999998,0.03509999999999991 0.090799999999998,0.031599999999999184 0.08360000000000056,0.02779999999999916 0.08830000000000027,0.017400000000000304 0.08520000000000039,0.011799999999999145 0.07409999999999783,0.00879999999999903 0.0694999999999979,0.0 0.0625,0.00849999999999973 0.05699999999999861,0.01130000000000031 0.04560000000000031,0.013199999999999434 0.0470000000000006,0.02909999999999968 0.051400000000001,0.048199999999999577 0.05089999999999861,0.05959999999999965 0.04919999999999902,0.06240000000000023 0.04589999999999961,0.06320000000000014 0.04449999999999932,0.06659999999999933 0.043900000000000716,0.07819999999999894 0.041100000000000136,0.0801999999999996 0.03999999999999915,0.08649999999999913 0.0362000000000009,0.0907 0.032799999999998164,0.08990000000000009 0.02949999999999875,0.0948999999999991 0.034499999999997755,0.11490000000000045 0.034199999999998454,0.17569999999999908 0.028900000000000148,0.19570000000000043 0.02529999999999788,0.20289999999999964 0.019999999999999574,0.20539999999999914 0.01640000000000086,0.2049000000000003 0.010600000000000165,0.21039999999999992 0.010899999999999466,0.2232000000000003 0.014799999999997482,0.23460000000000036 0.014499999999998181,0.25319999999999965 0.010600000000000165,0.2665000000000006 0.00420000000000087,0.2749000000000006 0.006099999999999994,0.2804000000000002 0.00859999999999772,0.2818000000000005 0.01279999999999859,0.2810000000000006 0.01670000000000016,0.2857000000000003 0.019999999999999574,0.30100000000000016 0.022500000000000853,0.30410000000000004 0.02359999999999829,0.3140999999999998 0.03359999999999985,0.3165999999999993 0.04749999999999943,0.32290000000000063 0.06670000000000087,0.3362999999999996 0.07479999999999976,0.3462999999999994 0.08980000000000032,0.37209999999999965 0.09420000000000073,0.38540000000000063 0.09949999999999903,0.3893000000000004 0.10139999999999816,0.39400000000000013 0.10919999999999774,0.39679999999999893 0.12340000000000018,0.41159999999999997 0.14729999999999777,0.4207000000000001 0.14949999999999974,0.42489999999999917 0.15729999999999933,0.4109999999999996 0.1598000000000006,0.40910000000000046 0.1758999999999986,0.4099000000000004 0.18120000000000047,0.4068000000000005 0.18870000000000076,0.4054000000000002 0.18560000000000088,0.39069999999999894 0.18389999999999773,0.3890999999999991 0.176400000000001,0.3887999999999998 0.17419999999999902,0.3863000000000003 0.17389999999999972,0.3826999999999998 0.1786999999999992,0.37819999999999965 0.1706000000000003,0.37320000000000064 0.1706000000000003,0.37040000000000006 0.17139999999999844,0.37289999999999957 0.1769999999999996,0.37429999999999986 0.17980000000000018,0.37819999999999965 0.17950000000000088,0.38039999999999985 0.1753,0.38429999999999964 0.1755999999999993,0.3871000000000002 0.1822999999999979,0.3871000000000002 0.18529999999999802,0.3887999999999998 0.1880999999999986,0.3920999999999992 0.19059999999999988,0.4034999999999993 0.1999999999999993,0.4093 0.21170000000000044,0.4017999999999997 0.2331000000000003,0.3985000000000003 0.24670000000000059,0.39069999999999894 0.2472999999999992,0.3863000000000003 0.2453000000000003,0.3826999999999998 0.2469999999999999,0.38039999999999985 0.2444999999999986,0.37679999999999936 0.2392000000000003,0.37819999999999965 0.2375000000000007,0.38129999999999953 0.22639999999999816,0.38379999999999903 0.21419999999999817,0.37819999999999965 0.2110999999999983,0.37849999999999895 0.20949999999999847,0.38069999999999915 0.20889999999999986,0.37599999999999945 0.20479999999999876,0.37270000000000003 0.20090000000000074,0.3653999999999993 0.20120000000000005,0.357899999999999 0.1930999999999976,0.35570000000000057 0.1891999999999996,0.3604000000000003 0.18590000000000018,0.36129999999999995 0.18420000000000059,0.359 0.1833999999999989,0.3498999999999999 0.17999999999999972,0.3490000000000002 0.182500000000001,0.3478999999999992 0.1847999999999992,0.3492999999999995 0.18619999999999948,0.36019999999999897 0.19229999999999947,0.35490000000000066 0.1999999999999993,0.3543000000000003 0.20250000000000057,0.3460000000000001 0.1941999999999986,0.3421000000000003 0.19089999999999918,0.3360000000000003 0.1883999999999979,0.3366000000000007 0.18999999999999773,0.3340999999999994 0.1938999999999993,0.3353999999999999 0.19559999999999889,0.3338000000000001 0.1930999999999976,0.32819999999999894 0.19529999999999959,0.32569999999999943 0.1944999999999979,0.3246000000000002 0.19529999999999959,0.32129999999999903 0.19729999999999848,0.32129999999999903 0.19529999999999959,0.32429999999999914 0.197499999999998,0.327399999999999 0.19500000000000028,0.3295999999999992 0.197499999999998,0.3352000000000004 0.1999999999999993,0.3346 0.20090000000000074,0.3307000000000002 0.20730000000000004,0.32319999999999993 0.2049999999999983,0.32819999999999894 0.20120000000000005,0.33179999999999943 0.20169999999999888,0.3356999999999992 0.19480000000000075,0.3378999999999994 0.1941999999999986,0.3401999999999994 0.20339999999999847,0.3429000000000002 0.20390000000000086,0.3523999999999994 0.20749999999999957,0.3521000000000001 0.21429999999999794,0.32949999999999946 0.22250000000000014,0.31599999999999895 0.23559999999999803,0.2843 0.23199999999999932,0.2745999999999995 0.2353999999999985,0.2670999999999992 0.2403999999999975,0.2638999999999996 0.2439,0.2510999999999992 0.25019999999999953,0.2419999999999991 0.2613999999999983,0.2323000000000004 0.2708999999999975,0.22719999999999985 0.2798999999999978,0.2250999999999994 0.2972999999999999,0.22489999999999988 0.34720000000000084,0.21480000000000032 0.35279999999999845,0.20860000000000056 0.36219999999999786,0.20420000000000016 0.429199999999998,0.21229999999999905 0.43299999999999983,0.20860000000000056 0.4330999999999996,0.20640000000000036 0.4516999999999989,0.2041000000000004 0.476700000000001,0.22339999999999982 0.4878999999999998,0.22359999999999935 0.492799999999999,0.21899999999999942 0.5009999999999977,0.2284000000000006 0.5112999999999985,0.23320000000000007 0.5627999999999993,0.25039999999999907 0.5787999999999975,0.25319999999999965 0.5874999999999986,0.2665000000000006 0.5902999999999992,0.29389999999999894 0.5928000000000004,0.299199999999999 0.6316999999999986,0.32559999999999967 0.6499999999999986,0.34339999999999904 0.660499999999999,0.3604000000000003 0.6637999999999984,0.3622999999999994 0.6692,0.3612000000000002 0.6819999999999986,0.3543000000000003 0.7124999999999986,0.3439999999999994 0.7454000000000001,0.3390000000000004 0.7540999999999976,0.3412000000000006 0.7775999999999996,0.35329999999999906 0.7890999999999977,0.3531999999999993 0.8225999999999996,0.3482000000000003 0.8340999999999994,0.3496000000000006 0.8442999999999987,0.3534000000000006 0.9212999999999987,0.3570999999999991 0.9297999999999984,0.3589000000000002 0.9432999999999989,0.37539999999999907 0.9481999999999999,0.3780000000000001 0.9566999999999997,0.3786000000000005 0.9655999999999985,0.3768999999999991 0.9835999999999991,0.37069999999999936 0.9948999999999995,0.3689 1.0272999999999985,0.37069999999999936 1.0681999999999992,0.37729999999999997 1.1052,0.38979999999999926 1.111699999999999,0.39429999999999943 1.1204999999999998,0.40610000000000035 1.1265,0.41080000000000005 1.1343999999999994,0.41419999999999924 1.1445999999999987,0.4108999999999998 1.1757999999999988,0.3818999999999999 1.1864999999999988,0.37739999999999974 1.189499999999999,0.3786000000000005 1.193299999999999,0.3774999999999995 1.206199999999999,0.38119999999999976 1.2211999999999996,0.392199999999999 1.227599999999999,0.40589999999999904 1.2317999999999998,0.41029999999999944 1.2309999999999999,0.42629999999999946 1.219199999999999,0.43650000000000055 1.2055999999999987,0.4169999999999998 1.1971999999999987,0.4108999999999998 1.1883,0.4115000000000002 1.1818999999999988,0.41419999999999924 1.1575999999999986,0.4359000000000002 1.1504999999999992,0.4381000000000004 1.1384999999999987,0.4381000000000004 1.130799999999999,0.4368999999999996 1.1202999999999985,0.432599999999999 1.0648999999999997,0.4018999999999995 1.052999999999999,0.3965999999999994 1.0332999999999988,0.3912999999999993 1.0013999999999985,0.39010000000000034 0.9543999999999997,0.39809999999999945 0.9151999999999987,0.38899999999999935 0.8874999999999993,0.3877000000000006 0.8686999999999987,0.3852999999999991 0.8549999999999986,0.3817000000000004 0.8009999999999984,0.37480000000000047 0.7435000000000009,0.3741000000000003 0.7352999999999987,0.3721999999999994 0.7173999999999978,0.37159999999999904 0.7091999999999992,0.37400000000000055 0.697499999999998,0.3833000000000002 0.664200000000001,0.3874999999999993 0.6526999999999994,0.37819999999999965 0.6405999999999992,0.3719999999999999 0.6220999999999997,0.36689999999999934 0.6143999999999998,0.3626000000000005 0.6185000000000009,0.35970000000000013 0.6182999999999979,0.3570999999999991 0.5975999999999999,0.3460000000000001 0.5914000000000001,0.33919999999999995 0.5813999999999986,0.3332999999999995 0.5765999999999991,0.3247 0.5350999999999999,0.2925000000000004 0.5161999999999978,0.2836999999999996 0.5126999999999988,0.2797999999999998 0.5066999999999986,0.27779999999999916 0.4985999999999997,0.2706999999999997 0.49269999999999925,0.27179999999999893 0.4853999999999985,0.27669999999999995 0.47830000000000084,0.2776999999999994 0.43130000000000024,0.26569999999999894 0.40179999999999794,0.2616999999999994 0.39429999999999765,0.26319999999999943 0.38429999999999964,0.26779999999999937 0.3637999999999977,0.28309999999999924 0.3531999999999975,0.28749999999999964 0.33789999999999765,0.28999999999999915 0.30409999999999826,0.2887000000000004 0.3006999999999991,0.29349999999999987 0.3019999999999996,0.2967999999999993 0.310299999999998,0.29769999999999897 0.3099999999999987,0.29959999999999987 0.3194999999999979,0.30790000000000006 0.3222999999999985,0.31540000000000035 0.33370000000000033,0.3265999999999991 0.33699999999999974,0.3348999999999993 0.33869999999999933,0.3460000000000001 0.33670000000000044,0.3582000000000001 0.33949999999999747,0.3567999999999998 0.34089999999999776,0.3584999999999994 0.33859999999999957,0.35960000000000036 0.3377999999999979,0.36430000000000007 0.33200000000000074,0.37180000000000035 0.33200000000000074,0.37519999999999953 0.33500000000000085,0.37599999999999945 0.33200000000000074,0.38039999999999985 0.3310999999999993,0.3849 0.32750000000000057,0.38540000000000063 0.3214000000000006,0.39289999999999914 0.3194999999999979,0.3932000000000002 0.3158999999999992,0.3999000000000006 0.307500000000001,0.4039999999999999 0.2970000000000006,0.4048999999999996 0.29359999999999786,0.408199999999999 0.289200000000001,0.4068000000000005 0.28889999999999816,0.4099000000000004 0.28669999999999973,0.4109999999999996 0.28529999999999944,0.414299999999999 0.2738999999999976,0.4156999999999993 0.26810000000000045,0.42210000000000036 0.26810000000000045,0.42350000000000065 0.2749999999999986,0.42600000000000016 0.27449999999999974,0.42849999999999966 0.28119999999999834,0.43769999999999953 0.28669999999999973,0.4496000000000002 0.2909000000000006,0.4659999999999993 0.289200000000001,0.49070000000000036 0.28359999999999985,0.5029000000000003 0.2705999999999982,0.5198999999999998 0.272199999999998,0.5276999999999994 0.3031000000000006,0.5276999999999994 0.32010000000000005,0.5253999999999994 0.32819999999999894,0.5275999999999996 0.6222999999999992,0.5282 0.7896999999999998,0.5266000000000002 1.3442999999999987,0.5261999999999993 1.3510999999999989,0.5645000000000007 1.3605999999999998,0.6035000000000004 1.3697,0.6283999999999992 1.3758999999999997,0.6408000000000005 1.3841999999999999,0.6547000000000001 1.3981999999999992,0.6722999999999999 1.4027999999999992,0.6768000000000001 1.4133999999999993,0.6753999999999998 1.4132999999999996,0.6827000000000005 1.4194999999999993,0.6853999999999996 1.4193999999999996,0.6890000000000001 1.4224999999999994,0.6926000000000005 1.435599999999999,0.7017000000000007 1.4593999999999987,0.712299999999999 1.4787,0.7185000000000006 1.4971999999999994,0.7210999999999999 1.5145,0.7203999999999997 1.5352999999999994,0.7158999999999995 1.5490999999999993,0.7101000000000006 1.5633999999999997,0.6997 1.5780999999999992,0.6847999999999992 1.6021999999999998,0.6850000000000005 1.6957999999999984,0.7418999999999993 1.7553,0.7622 1.8408999999999995,0.7315000000000005 1.8500999999999994,0.7308000000000003 1.8710999999999984,0.7362000000000002 1.913499999999999,0.7323000000000004 1.9452999999999996,0.7224000000000004 1.978299999999999,0.706199999999999 1.9985999999999997,0.6913 2.000499999999999,0.6820000000000004 2.003399999999999,0.677999999999999 2.0104999999999986,0.6770999999999994 2.0150999999999986,0.6708999999999996 2.016,0.6685999999999996 2.0127999999999986,0.6593999999999998 2.0146999999999995,0.6564999999999994 2.023199999999999,0.6524000000000001 2.029299999999999,0.6297999999999995 2.0306999999999995,0.6151999999999997 2.0237999999999996,0.609399999999999 2.0249999999999986,0.6034000000000006 2.0328,0.6024999999999991 2.0352999999999994,0.5891000000000002 2.104899999999999,0.5504999999999995 2.1176999999999992,0.5505999999999993 2.128399999999999,0.5602 2.1586999999999996,0.5787999999999993 2.1769,0.5869999999999997 2.1911999999999985,0.5908999999999995 2.213799999999999,0.5917999999999992 2.2597999999999985,0.5870999999999995 2.2840999999999987,0.5770999999999997 2.3112999999999992,0.5604999999999993 2.3211999999999993,0.5516000000000005 2.3297999999999988,0.5406999999999993 2.341199999999999,0.5198999999999998 2.3453,0.5068000000000001 2.348799999999999,0.4758999999999993 2.3737999999999992,0.4588000000000001 2.3834999999999997,0.44899999999999984 2.3900999999999986,0.4369999999999994 2.4049999999999994,0.4322999999999997 2.413499999999999,0.42719999999999914 2.4228999999999985,0.42409999999999926 2.4415999999999993,0.41249999999999964 2.4468999999999994,0.40549999999999997 2.4495999999999984,0.4040999999999997 2.4697999999999993,0.4015000000000004 2.497299999999999,0.39039999999999964 2.5112999999999985,0.3971 2.5442,0.40700000000000003 2.5631999999999984,0.4101999999999997 2.5783999999999985,0.40939999999999976 2.604099999999999,0.4367000000000001 2.626199999999999,0.45309999999999917 2.6533999999999995,0.46799999999999997 2.666599999999999,0.47219999999999906 2.681799999999999,0.4723000000000006 2.697799999999999,0.4800000000000004 2.7285999999999984,0.4902999999999995 2.7494999999999994,0.4903999999999993 2.7642999999999986,0.4878999999999998 2.7905999999999995,0.488999999999999 2.822899999999999,0.5084 2.8346999999999998,0.5129999999999999 2.8514999999999997,0.5152000000000001 2.8598999999999997,0.5137 2.883099999999999,0.5024999999999995 2.9133999999999993,0.49460000000000015 2.930999999999999,0.48460000000000036 2.9373999999999985,0.47719999999999985 2.9528999999999996,0.45149999999999935 2.9620999999999995,0.4428000000000001 2.9815999999999985,0.4314 3.0015,0.39480000000000004 3.0222999999999995,0.37950000000000017 3.0257999999999985,0.37379999999999924 3.0253999999999994,0.34909999999999997 3.0177999999999994,0.3201999999999998 3.0145999999999997,0.31349999999999945 2.9932999999999996,0.2820999999999998 2.979099999999999,0.26900000000000013 2.957799999999999,0.2577999999999996 2.9452999999999996,0.2544000000000004 2.9231,0.251199999999999 2.8999999999999986,0.2522000000000002 2.8666,0.2568999999999999 2.8133999999999997,0.226799999999999 2.7782,0.22419999999999973 2.777899999999999,0.2173999999999996 2.7752,0.21679999999999922 2.773299999999999,0.21850000000000058 2.7711999999999986,0.21700000000000053 2.7584,0.22080000000000055 2.7521999999999984,0.22080000000000055 2.7528999999999986,0.22749999999999915 2.7432999999999996,0.22710000000000008 2.7353999999999985,0.21640000000000015 2.720699999999999,0.21359999999999957 2.7147999999999985,0.2201000000000004 2.703999999999999,0.21659999999999968 2.6960999999999995,0.2110000000000003 2.7033999999999985,0.20260000000000034 2.703199999999999,0.18369999999999997 2.698599999999999,0.1733999999999991 2.6853999999999996,0.158199999999999 2.6781999999999986,0.15869999999999962 2.6693999999999996,0.1532 2.6631,0.15199999999999925 2.6354999999999986,0.1617999999999995 2.629299999999999,0.16199999999999903 2.6166,0.15859999999999985 2.607099999999999,0.15289999999999893 2.5829999999999984,0.15080000000000027 2.5625999999999998,0.16189999999999927 2.5547999999999984,0.17539999999999978 2.5440999999999985,0.17269999999999897 2.5101999999999993,0.1730999999999998 2.4857999999999993,0.16809999999999903 2.4696,0.16300000000000026 2.4688999999999997,0.1647999999999996 2.4596999999999998,0.16520000000000046 2.4520999999999997,0.16879999999999917 2.4283,0.1755999999999993 2.404299999999999,0.18880000000000052 2.3800999999999988,0.2063000000000006 2.3575,0.2362000000000002 2.3110999999999997,0.24189999999999934 2.2947999999999986,0.24939999999999962 2.2807999999999993,0.26309999999999967 2.2566999999999986,0.2981999999999996 2.2288999999999994,0.28330000000000055 2.2002999999999986,0.27449999999999974 2.1736999999999984,0.27859999999999907 2.1704999999999988,0.2762999999999991 2.1586,0.2762999999999991 2.1118999999999986,0.2958999999999996 2.0881999999999987,0.3096999999999994 2.0695999999999994,0.33009999999999984 2.058,0.35299999999999976 2.0328999999999997,0.3501999999999992 2.0142999999999986,0.3514999999999997 1.9945999999999984,0.3589000000000002 1.986699999999999,0.3634000000000004 1.9657999999999998,0.38149999999999906 1.9551999999999996,0.38039999999999985 1.918899999999999,0.3829999999999991 1.8908999999999985,0.39250000000000007 1.8435999999999986,0.41409999999999947 1.8225999999999996,0.4253999999999998 1.795,0.44430000000000014 1.7577999999999996,0.48070000000000057 1.7422999999999984,0.5008999999999997 1.7284999999999986,0.5338999999999992 1.6776,0.5167000000000002 1.6746999999999996,0.5067000000000004 1.6321999999999992,0.46839999999999904 1.6217999999999986,0.4637999999999991 1.6105999999999998,0.4123000000000001 1.5953,0.3620000000000001 1.5899999999999999,0.35360000000000014 1.5767999999999986,0.3417999999999992 1.538499999999999,0.3118999999999996 1.5221999999999998,0.30219999999999914 1.4619999999999997,0.29219999999999935 1.4486999999999988,0.29269999999999996 1.437899999999999,0.2905999999999995 1.4297999999999984,0.29490000000000016 1.3801999999999985,0.3108000000000004 1.3681999999999999,0.3109000000000002 1.3474999999999984,0.3216000000000001 1.3256999999999994,0.33039999999999914 1.301499999999999,0.3271999999999995 1.3012999999999995,0.3291000000000004 1.2970999999999986,0.32750000000000057 1.2782999999999998,0.3138000000000005 1.279399999999999,0.3102999999999998 1.2603999999999989,0.2948000000000004 1.2386,0.28609999999999935 1.2264,0.2845999999999993 1.1623,0.29689999999999905 1.1369999999999987,0.3058999999999994 1.1145999999999994,0.29389999999999894 1.090399999999999,0.28699999999999903 1.0565999999999995,0.28420000000000023 1.0152999999999999,0.28330000000000055 1.014899999999999,0.1164000000000005 0.9238999999999997,0.11650000000000027 0.9247999999999994,0.10280000000000022 0.8663999999999987,0.10479999999999912 0.8178999999999998,0.09989999999999988 0.7932999999999986,0.0990000000000002 0.7260999999999989,0.09999999999999964 0.6019000000000005,0.09820000000000029 0.4471999999999987,0.10089999999999932 0.2527000000000008,0.09999999999999964 0.23389999999999844,0.10060000000000002 0.2309999999999981,0.1034000000000006 0.2223000000000006,0.10559999999999903 0.2146000000000008,0.1051000000000002 0.20120000000000005,0.10099999999999909 0.19159999999999755,0.10110000000000063 0.18679999999999808,0.10449999999999982 0.17950000000000088,0.10650000000000048 0.15820000000000078,0.1095000000000006 0.1457999999999977,0.10309999999999953 0.12869999999999848,0.10319999999999929 0.1266999999999996,0.10060000000000002 "></polygon><polygon points="0.3066999999999993,0.29930000000000057 0.3078000000000003,0.3003999999999998 0.3094999999999999,0.3006999999999991 0.3080999999999996,0.29850000000000065 0.3066999999999993,0.29930000000000057 "></polygon><polygon points="0.00280000000000058,0.32129999999999903 0.0008999999999979025,0.32039999999999935 0.0,0.32070000000000043 0.0016999999999995907,0.32349999999999923 0.00280000000000058,0.32129999999999903 "></polygon><polygon points="0.21589999999999776,0.3545999999999996 0.21389999999999887,0.3492999999999995 0.20560000000000045,0.3539999999999992 0.20730000000000004,0.35599999999999987 0.21499999999999986,0.35740000000000016 0.21640000000000015,0.3570999999999991 0.21589999999999776,0.3545999999999996 "></polygon><polygon points="0.21199999999999974,0.36650000000000027 0.2113999999999976,0.36129999999999995 0.20619999999999905,0.35740000000000016 0.20730000000000004,0.36129999999999995 0.20619999999999905,0.36379999999999946 0.20889999999999986,0.37040000000000006 0.21229999999999905,0.36989999999999945 0.21199999999999974,0.36650000000000027 "></polygon><polygon points="0.21170000000000044,0.4078999999999997 0.21559999999999846,0.4060000000000006 0.21419999999999817,0.4026999999999994 0.20589999999999975,0.4085000000000001 0.21170000000000044,0.4078999999999997 "></polygon>
    </svg>
    