
    <svg width="6.7917999999999985" height="2.8385999999999996" xmlns="http://www.w3.org/2000/svg" xmlns:xlink="http://www.w3.org/1999/xlink" style="transform: scale(1, -1)">
        <polygon points="2.165499999999998,0.013600000000003831 2.1195999999999984,0.017099999999999227 2.1072999999999986,0.034300000000001774 2.0946999999999996,0.04260000000000019 2.0795999999999992,0.04290000000000305 2.0458999999999996,0.0391000000000048 2.0227000000000004,0.04830000000000467 1.9968000000000004,0.03920000000000101 1.966899999999999,0.02410000000000423 1.9207,0.027599999999999625 1.8912999999999975,0.0362000000000009 1.875,0.054100000000005366 1.8466999999999985,0.04760000000000275 1.8348999999999975,0.04870000000000374 1.795099999999998,0.044299999999999784 1.7805999999999997,0.04720000000000368 1.7617999999999974,0.0367999999999995 1.7579999999999991,0.028300000000001546 1.7446999999999981,0.026299999999999102 1.7287999999999997,0.039400000000000546 1.7034999999999982,0.06419999999999959 1.6751000000000005,0.0666000000000011 1.6594999999999978,0.07400000000000517 1.6464999999999996,0.07570000000000476 1.6387999999999998,0.07460000000000377 1.6259999999999977,0.0800000000000054 1.6149999999999984,0.08870000000000289 1.573599999999999,0.09540000000000504 1.5525999999999982,0.09470000000000312 1.535499999999999,0.10470000000000113 1.5090000000000003,0.14390000000000214 1.499299999999998,0.155300000000004 1.4656999999999982,0.17980000000000018 1.446399999999997,0.19030000000000058 1.3343999999999987,0.2026000000000039 1.315299999999997,0.19930000000000092 1.3038999999999987,0.18959999999999866 1.2856999999999985,0.18830000000000524 1.2624999999999993,0.2039000000000044 1.2496999999999971,0.2027000000000001 1.2361000000000004,0.1980000000000004 1.2205999999999975,0.2020000000000053 1.2228999999999992,0.21450000000000102 1.2326999999999977,0.226700000000001 1.230599999999999,0.23740000000000094 1.2155999999999985,0.24399999999999977 1.2028999999999996,0.238900000000001 1.1798000000000002,0.23389999999999844 1.1732999999999976,0.2447000000000017 1.1968999999999994,0.25500000000000256 1.1868999999999978,0.25789999999999935 1.1764999999999972,0.25390000000000157 1.1641999999999975,0.2552000000000021 1.1571999999999996,0.25730000000000075 1.147599999999997,0.2638999999999996 1.145699999999998,0.2675000000000054 1.1572999999999993,0.27070000000000505 1.1602999999999994,0.2749999999999986 1.1733999999999973,0.2756000000000043 1.1779999999999973,0.27900000000000347 1.1799999999999997,0.2845000000000013 1.1766000000000005,0.2867000000000033 1.1625999999999976,0.28540000000000276 1.1555,0.28659999999999997 1.140699999999999,0.28470000000000084 1.1439999999999984,0.2916000000000025 1.1420999999999992,0.30000000000000426 1.1540999999999997,0.30859999999999843 1.152199999999997,0.31090000000000373 1.1404999999999994,0.3108000000000004 1.1126000000000005,0.31640000000000157 1.1128,0.3201000000000036 1.1182999999999979,0.31970000000000454 1.1266999999999996,0.31580000000000297 1.1315999999999988,0.3166000000000011 1.1243999999999978,0.32090000000000174 1.1224999999999987,0.3305000000000007 1.1178999999999988,0.33310000000000173 1.1057999999999986,0.33550000000000324 1.0886999999999993,0.3318000000000012 1.0852000000000004,0.3342000000000027 1.0873999999999988,0.33660000000000423 1.1032999999999973,0.34130000000000393 1.1085999999999991,0.3481000000000023 1.114799999999999,0.34969999999999857 1.114799999999999,0.35260000000000247 1.0970999999999975,0.3546000000000049 1.1007999999999996,0.3628 1.0999999999999979,0.36700000000000443 1.0926999999999971,0.36469999999999914 1.0860999999999983,0.3661999999999992 1.0704999999999991,0.36120000000000374 1.061,0.3661999999999992 1.0658999999999992,0.37340000000000373 1.0661999999999985,0.377200000000002 1.0614999999999988,0.38280000000000314 1.0704999999999991,0.3873999999999995 1.0701,0.39059999999999917 1.0662999999999982,0.39290000000000447 1.0620999999999974,0.4017000000000053 1.0657999999999994,0.40570000000000306 1.0558999999999976,0.4117999999999995 1.0499999999999972,0.4117999999999995 1.045099999999998,0.4141000000000048 1.0442999999999998,0.41850000000000165 1.0457999999999998,0.4234000000000009 1.0427,0.4256999999999991 1.0295999999999985,0.4269999999999996 1.0193999999999974,0.42490000000000094 1.0139999999999993,0.42610000000000525 1.0086999999999975,0.4327000000000041 0.9955999999999996,0.43250000000000455 0.9904999999999973,0.4352000000000018 0.9865999999999993,0.439700000000002 0.9693000000000005,0.44120000000000203 0.9639999999999986,0.44480000000000075 0.9545999999999992,0.44709999999999894 0.9499999999999993,0.45230000000000103 0.9414999999999978,0.4532999999999987 0.8987999999999978,0.47270000000000323 0.8886000000000003,0.47579999999999956 0.8805999999999976,0.4753000000000043 0.878499999999999,0.47690000000000055 0.8587999999999987,0.476700000000001 0.8567,0.4849000000000032 0.8581000000000003,0.4941999999999993 0.8491,0.49260000000000304 0.8348999999999975,0.49549999999999983 0.8217999999999996,0.5074000000000041 0.8025999999999982,0.514400000000002 0.7968999999999973,0.5177000000000049 0.7900999999999989,0.527000000000001 0.7776999999999994,0.5315000000000012 0.7739999999999974,0.5346000000000046 0.7725999999999971,0.5484000000000009 0.7626999999999988,0.563600000000001 0.7613999999999983,0.5801000000000016 0.767199999999999,0.5866000000000042 0.764599999999998,0.5889999999999986 0.7598999999999982,0.5894000000000048 0.7591000000000001,0.5914000000000001 0.7609999999999992,0.5945999999999998 0.7522999999999982,0.5971000000000046 0.7495999999999974,0.5994000000000028 0.7529000000000003,0.6044000000000054 0.7530999999999999,0.607600000000005 0.7424999999999997,0.6066000000000003 0.7385999999999981,0.6081000000000003 0.7361000000000004,0.615000000000002 0.7297999999999973,0.6174999999999997 0.7235999999999976,0.6169000000000011 0.7227999999999994,0.6191000000000031 0.7256,0.6219000000000037 0.7259999999999991,0.6253000000000029 0.7227999999999994,0.6281000000000034 0.7200999999999986,0.6266999999999996 0.7164999999999999,0.6208000000000027 0.7118000000000002,0.6263000000000005 0.7078999999999986,0.6265000000000001 0.7037999999999975,0.6246000000000009 0.7010000000000005,0.6257000000000019 0.6996000000000002,0.6323000000000008 0.6926999999999985,0.6311999999999998 0.6905999999999999,0.6330999999999989 0.6889000000000003,0.6392000000000024 0.6825999999999972,0.639800000000001 0.6746999999999979,0.639800000000001 0.6676000000000002,0.6328000000000031 0.6585999999999999,0.6385000000000005 0.6550999999999974,0.6372 0.6540999999999997,0.6345000000000027 0.6487999999999978,0.6326999999999998 0.6455999999999982,0.6354000000000042 0.6435999999999993,0.6403999999999996 0.6406999999999989,0.641600000000004 0.6340000000000003,0.6379000000000019 0.6261999999999972,0.6422000000000025 0.6246999999999971,0.6467000000000027 0.6264000000000003,0.6503000000000014 0.6251999999999995,0.653100000000002 0.6147999999999989,0.6533000000000015 0.6118999999999986,0.6488000000000014 0.6118999999999986,0.6454000000000022 0.6096000000000004,0.6433000000000035 0.6056999999999988,0.644200000000005 0.6026999999999987,0.6508000000000038 0.5932999999999993,0.6569000000000003 0.5833999999999975,0.6683000000000021 0.5746000000000002,0.6795000000000044 0.5673999999999992,0.6929000000000016 0.5616999999999983,0.6960000000000051 0.5596999999999994,0.7000999999999991 0.5540999999999983,0.6993000000000009 0.5495999999999981,0.6961000000000013 0.5456000000000003,0.6987999999999985 0.5455000000000005,0.7011000000000038 0.5523999999999987,0.706700000000005 0.5518000000000001,0.7101000000000042 0.5487000000000002,0.712299999999999 0.5273000000000003,0.7162000000000006 0.5204999999999984,0.7197000000000031 0.5131999999999977,0.7171000000000021 0.5077999999999996,0.7229000000000028 0.5060000000000002,0.7205000000000013 0.49769999999999825,0.7220000000000013 0.4911999999999992,0.7270000000000039 0.49129999999999896,0.7302999999999997 0.477999999999998,0.7302000000000035 0.46419999999999817,0.7332999999999998 0.4574999999999996,0.7361000000000004 0.44819999999999993,0.7430000000000021 0.4242999999999988,0.7507000000000019 0.41140000000000043,0.7574000000000041 0.41829999999999856,0.7638000000000034 0.41829999999999856,0.7675000000000054 0.4131999999999998,0.7691000000000017 0.41259999999999764,0.7732000000000028 0.41659999999999897,0.7799000000000049 0.41659999999999897,0.7850999999999999 0.4123999999999981,0.7875000000000014 0.40339999999999776,0.7886999999999986 0.40249999999999986,0.7914999999999992 0.4065999999999974,0.8049000000000035 0.3987999999999978,0.8152000000000044 0.39170000000000016,0.8165000000000049 0.38459999999999894,0.8143000000000029 0.3761999999999972,0.8150000000000048 0.3705999999999996,0.8175999999999988 0.36689999999999756,0.8312000000000026 0.36389999999999745,0.8342999999999989 0.35249999999999915,0.8399000000000001 0.345799999999997,0.8483000000000018 0.3380999999999972,0.8534000000000006 0.33039999999999736,0.8625000000000043 0.3180999999999976,0.8661999999999992 0.3116999999999983,0.866100000000003 0.2978999999999985,0.8789000000000016 0.2755999999999972,0.8873000000000033 0.2737999999999978,0.8937000000000026 0.2698999999999998,0.8969000000000023 0.26899999999999835,0.9007000000000005 0.27149999999999963,0.9049000000000049 0.27669999999999817,0.9072999999999993 0.2759999999999998,0.9099000000000004 0.2718999999999987,0.9110000000000014 0.27479999999999905,0.9145000000000039 0.28030000000000044,0.9164999999999992 0.28719999999999857,0.9117999999999995 0.29939999999999856,0.910499999999999 0.30279999999999774,0.9126000000000047 0.30299999999999727,0.9161000000000001 0.3069999999999986,0.9238 0.30409999999999826,0.9303999999999988 0.3048000000000002,0.9344999999999999 0.3094999999999999,0.9455999999999989 0.28800000000000026,0.948599999999999 0.2641999999999989,0.9495000000000005 0.2579999999999991,0.9528000000000034 0.25459999999999994,0.956700000000005 0.2623999999999995,0.9648000000000039 0.253899999999998,0.9721000000000046 0.23930000000000007,0.9665999999999997 0.23089999999999833,0.9853000000000023 0.2256999999999998,0.9888000000000048 0.21940000000000026,0.9969000000000037 0.21759999999999735,1.0020999999999987 0.21059999999999945,1.0038000000000054 0.20509999999999806,1.0086000000000013 0.2120999999999995,1.024000000000001 0.20420000000000016,1.0305000000000035 0.20110000000000028,1.0304000000000002 0.19639999999999702,1.0332000000000008 0.19609999999999772,1.0412999999999997 0.19819999999999993,1.0481000000000051 0.20589999999999975,1.0533000000000001 0.22369999999999735,1.0581000000000031 0.2251999999999974,1.0692000000000021 0.22850000000000037,1.0752999999999986 0.22949999999999804,1.0816000000000017 0.2364999999999995,1.0830000000000055 0.23160000000000025,1.0947999999999993 0.2251999999999974,1.0970000000000013 0.2234999999999978,1.1014000000000053 0.2160999999999973,1.099499999999999 0.2118000000000002,1.101300000000002 0.20289999999999964,1.1095000000000041 0.19629999999999725,1.1097000000000037 0.18799999999999883,1.1159999999999997 0.18009999999999948,1.1259000000000015 0.17339999999999733,1.1268999999999991 0.15579999999999927,1.1260000000000048 0.12719999999999843,1.1304000000000016 0.11849999999999739,1.1298999999999992 0.10660000000000025,1.1236000000000033 0.0680999999999976,1.1178000000000026 0.06469999999999843,1.1133000000000024 0.0586999999999982,1.1118999999999986 0.0481999999999978,1.1143 0.03889999999999816,1.1082999999999998 0.03509999999999991,1.110199999999999 0.012299999999999756,1.1118000000000023 0.008499999999997954,1.117200000000004 0.0,1.1218000000000004 0.02049999999999841,1.128300000000003 0.0259999999999998,1.1377000000000024 0.03249999999999886,1.1386000000000038 0.03569999999999851,1.142700000000005 0.03599999999999781,1.1456000000000017 0.04129999999999967,1.1462000000000003 0.04059999999999775,1.149000000000001 0.04579999999999984,1.149799999999999 0.046299999999998676,1.1529999999999987 0.049399999999998556,1.1548000000000016 0.05030000000000001,1.1574000000000026 0.058499999999998664,1.1559999999999988 0.061299999999999244,1.1585000000000036 0.06649999999999778,1.1591999999999985 0.06769999999999854,1.1649999999999991 0.07499999999999929,1.174900000000001 0.08070000000000022,1.1883000000000052 0.08719999999999928,1.1944000000000017 0.0931999999999995,1.1951000000000036 0.09499999999999886,1.1914000000000016 0.09779999999999944,1.193000000000005 0.09729999999999706,1.1951000000000036 0.09909999999999997,1.1928000000000054 0.10319999999999752,1.1917000000000044 0.1048999999999971,1.193400000000004 0.10469999999999757,1.1887000000000043 0.10929999999999751,1.188200000000002 0.11139999999999972,1.1928000000000054 0.11639999999999873,1.1938999999999993 0.11570000000000036,1.1957000000000022 0.11999999999999744,1.194500000000005 0.1211999999999982,1.1975000000000051 0.12490000000000023,1.1995000000000005 0.13289999999999935,1.199300000000001 0.1322999999999972,1.2015999999999991 0.13429999999999964,1.2015999999999991 0.13009999999999877,1.2086000000000041 0.1366999999999976,1.2139000000000024 0.14259999999999806,1.2167999999999992 0.15039999999999765,1.2162000000000006 0.1565999999999974,1.213799999999999 0.16369999999999862,1.215200000000003 0.1647999999999996,1.2214000000000027 0.16310000000000002,1.236699999999999 0.17079999999999984,1.2501000000000033 0.16920000000000002,1.2518999999999991 0.16999999999999815,1.2568000000000055 0.17739999999999867,1.2665000000000006 0.17989999999999995,1.2665000000000006 0.18590000000000018,1.2621000000000038 0.18590000000000018,1.2539000000000016 0.19069999999999965,1.2508000000000052 0.20979999999999777,1.2550999999999988 0.22909999999999897,1.2486999999999995 0.2306999999999988,1.2492000000000019 0.23139999999999716,1.2505999999999986 0.2301000000000002,1.2516000000000034 0.2326999999999977,1.2546999999999997 0.23119999999999763,1.2565000000000026 0.23719999999999786,1.2630000000000052 0.24690000000000012,1.2580999999999989 0.2514000000000003,1.2599000000000018 0.25459999999999994,1.2588000000000008 0.26019999999999754,1.2510000000000048 0.26370000000000005,1.2527000000000044 0.27039999999999864,1.2513000000000005 0.2807999999999993,1.255900000000004 0.2998999999999974,1.2573000000000008 0.30439999999999756,1.2539000000000016 0.30719999999999814,1.2488000000000028 0.31969999999999743,1.245200000000004 0.3327999999999989,1.2458000000000027 0.33429999999999893,1.2518999999999991 0.3333999999999975,1.2550999999999988 0.3387999999999991,1.2568000000000055 0.34369999999999834,1.2535999999999987 0.34729999999999706,1.2543000000000006 0.3509999999999991,1.249600000000001 0.35339999999999705,1.2509000000000015 0.3612000000000002,1.2499000000000038 0.3664999999999985,1.2464000000000013 0.37409999999999854,1.2483000000000004 0.3761999999999972,1.2499000000000038 0.37650000000000006,1.252900000000004 0.38429999999999964,1.2508000000000052 0.3887999999999998,1.2518999999999991 0.3913999999999973,1.2543000000000006 0.39299999999999713,1.252900000000004 0.3933,1.254100000000001 0.397199999999998,1.2530000000000001 0.3996999999999993,1.254100000000001 0.3996999999999993,1.2561000000000035 0.39599999999999724,1.2561999999999998 0.383899999999997,1.2627000000000024 0.37989999999999924,1.2627000000000024 0.37099999999999866,1.2706000000000017 0.3694999999999986,1.2752000000000052 0.36499999999999844,1.2739000000000047 0.3623999999999974,1.2798000000000016 0.35779999999999745,1.2805999999999997 0.3509999999999991,1.2848000000000042 0.33509999999999707,1.2752000000000052 0.32620000000000005,1.2822999999999993 0.3313999999999986,1.286999999999999 0.327499999999997,1.288499999999999 0.3319999999999972,1.2912000000000035 0.3435999999999986,1.2927999999999997 0.3485999999999976,1.2959000000000032 0.3559999999999981,1.2957999999999998 0.3631999999999991,1.2993999999999986 0.3850999999999978,1.301000000000002 0.3882999999999974,1.3033000000000001 0.39399999999999835,1.302100000000003 0.40789999999999793,1.308800000000005 0.40779999999999816,1.3141000000000034 0.39739999999999753,1.318800000000003 0.3830999999999989,1.3231000000000037 0.37439999999999785,1.3215000000000003 0.3700999999999972,1.3246000000000038 0.3697999999999979,1.3276000000000039 0.36019999999999897,1.3261000000000038 0.3582000000000001,1.3308000000000035 0.3593999999999973,1.3340000000000032 0.36129999999999995,1.334299999999999 0.3620999999999981,1.3379000000000048 0.35639999999999716,1.3402999999999992 0.35579999999999856,1.3423000000000016 0.3532999999999973,1.3419000000000025 0.35379999999999967,1.3437000000000054 0.3506999999999998,1.3475000000000037 0.3536999999999999,1.3483000000000018 0.351899999999997,1.3515000000000015 0.35999999999999943,1.3531000000000049 0.359099999999998,1.354600000000005 0.3620999999999981,1.3578000000000046 0.36499999999999844,1.3539999999999992 0.37209999999999965,1.3552000000000035 0.37020000000000053,1.3613 0.3880999999999979,1.3628 0.3872,1.3760000000000048 0.41669999999999874,1.379800000000003 0.41610000000000014,1.3899000000000044 0.41389999999999816,1.3895000000000053 0.41000000000000014,1.3926000000000016 0.4040999999999997,1.4019000000000048 0.377799999999997,1.4014000000000024 0.3565000000000005,1.3954000000000022 0.3415999999999997,1.3948999999999998 0.3399000000000001,1.3978000000000037 0.3371999999999993,1.3980999999999995 0.3363999999999976,1.4044999999999987 0.33929999999999794,1.4059999999999988 0.3404999999999987,1.4102999999999994 0.34559999999999746,1.4098000000000042 0.347999999999999,1.4117000000000033 0.3475999999999999,1.4136000000000024 0.34969999999999857,1.4140000000000015 0.347999999999999,1.419400000000003 0.35169999999999746,1.4207999999999998 0.34669999999999845,1.4291000000000054 0.34469999999999956,1.4294000000000011 0.3403999999999989,1.4388000000000005 0.34229999999999805,1.4399000000000015 0.3380999999999972,1.4408999999999992 0.328599999999998,1.4376999999999995 0.31659999999999755,1.4373000000000005 0.3067999999999991,1.4475000000000051 0.30859999999999843,1.4498999999999995 0.304199999999998,1.4579000000000022 0.30630000000000024,1.4632000000000005 0.30829999999999913,1.4633000000000038 0.30919999999999703,1.4605000000000032 0.3106999999999971,1.4603000000000037 0.3157999999999994,1.4627000000000052 0.3238999999999983,1.4624999999999986 0.32239999999999824,1.468200000000003 0.3266999999999989,1.4705000000000013 0.32399999999999807,1.475200000000001 0.3254999999999981,1.4825000000000017 0.328599999999998,1.483000000000004 0.32839999999999847,1.4856000000000051 0.33009999999999806,1.4863 0.3291000000000004,1.5012000000000043 0.3177999999999983,1.502900000000004 0.31909999999999883,1.505500000000005 0.3359999999999985,1.5031000000000034 0.33389999999999986,1.5060000000000002 0.3421999999999983,1.506300000000003 0.34839999999999804,1.5086000000000013 0.35449999999999804,1.505500000000005 0.3673000000000002,1.5152 0.36559999999999704,1.5157000000000025 0.36469999999999914,1.5249000000000024 0.3667999999999978,1.5305999999999997 0.37099999999999866,1.5305000000000035 0.37679999999999936,1.532900000000005 0.3692999999999991,1.544000000000004 0.36909999999999954,1.5503 0.3620999999999981,1.564700000000002 0.35660000000000025,1.5713000000000008 0.35589999999999833,1.5778000000000034 0.35050000000000026,1.5836000000000041 0.351899999999997,1.586500000000001 0.34479999999999933,1.5917999999999992 0.33559999999999945,1.5922000000000054 0.3318999999999974,1.5990000000000038 0.3210999999999977,1.605400000000003 0.3247,1.608000000000004 0.3338000000000001,1.6101000000000028 0.339699999999997,1.6097000000000037 0.3384999999999998,1.6137000000000015 0.34399999999999764,1.6189999999999998 0.3441999999999972,1.6236000000000033 0.3384999999999998,1.6303000000000054 0.3387999999999991,1.6323000000000008 0.3424999999999976,1.6362999999999985 0.34869999999999735,1.6358999999999995 0.34259999999999735,1.6396000000000015 0.34280000000000044,1.641300000000001 0.3368000000000002,1.6473000000000013 0.3333999999999975,1.653800000000004 0.3327999999999989,1.6598000000000042 0.3454999999999977,1.665700000000001 0.3517999999999972,1.6654000000000053 0.36189999999999856,1.6616 0.37269999999999825,1.6615000000000038 0.37509999999999977,1.6598000000000042 0.3744999999999976,1.6587999999999994 0.3780999999999999,1.658300000000004 0.37239999999999895,1.654900000000005 0.3711999999999982,1.650500000000001 0.3769999999999989,1.6523000000000039 0.375,1.6502000000000052 0.3761999999999972,1.6471000000000018 0.3803999999999981,1.6467000000000027 0.38129999999999953,1.6484999999999985 0.383899999999997,1.6489000000000047 0.383899999999997,1.641600000000004 0.39729999999999777,1.6491000000000042 0.39780000000000015,1.6529999999999987 0.3951999999999991,1.6576000000000022 0.40109999999999957,1.6578000000000017 0.4042999999999992,1.6632000000000033 0.4123999999999981,1.6630000000000038 0.4142999999999972,1.661200000000001 0.4176000000000002,1.6628000000000043 0.4228999999999985,1.6617000000000033 0.4272999999999989,1.662700000000001 0.4336999999999982,1.6582000000000008 0.4468999999999994,1.6596000000000046 0.4630999999999972,1.658999999999999 0.4648000000000003,1.6621000000000024 0.4624999999999986,1.6649999999999991 0.4695999999999998,1.6677000000000035 0.47009999999999863,1.669400000000003 0.4665999999999997,1.670500000000004 0.46839999999999904,1.6719000000000008 0.4762999999999984,1.6720000000000041 0.4758999999999993,1.6734000000000009 0.4786999999999999,1.6739999999999995 0.47499999999999787,1.6739999999999995 0.47529999999999717,1.6754000000000033 0.48419999999999774,1.6753 0.48389999999999844,1.676400000000001 0.4869999999999983,1.6768 0.4872999999999976,1.6781000000000006 0.49370000000000047,1.6796000000000006 0.4925999999999995,1.6803000000000026 0.4939999999999998,1.6821000000000055 0.4991999999999983,1.6842000000000041 0.49980000000000047,1.682700000000004 0.5026999999999973,1.6850000000000023 0.5077999999999996,1.683399999999999 0.5097999999999985,1.6889000000000038 0.5148999999999972,1.6947000000000045 0.5236999999999981,1.6983999999999995 0.5335999999999999,1.6992000000000047 0.5389999999999979,1.701500000000003 0.5365000000000002,1.7039000000000044 0.5493999999999986,1.7083000000000013 0.5472999999999999,1.7144000000000048 0.549199999999999,1.7154000000000025 0.5497999999999976,1.718900000000005 0.5579000000000001,1.7269000000000005 0.5555999999999983,1.731900000000003 0.5496999999999979,1.7359000000000009 0.5396999999999998,1.752900000000004 0.5452999999999975,1.7591000000000037 0.5498999999999974,1.7616000000000014 0.5563000000000002,1.7561999999999998 0.5771999999999977,1.7630000000000052 0.5822000000000003,1.7679000000000045 0.5829999999999984,1.7708000000000013 0.5929000000000002,1.775500000000001 0.5905999999999985,1.7858000000000018 0.601899999999997,1.792500000000004 0.5985999999999976,1.7957000000000036 0.5932999999999993,1.7950000000000017 0.5914999999999999,1.7984000000000009 0.5855999999999995,1.7983000000000047 0.5773999999999972,1.8081999999999994 0.5783999999999985,1.8105000000000047 0.5762999999999998,1.812100000000001 0.571399999999997,1.8139000000000038 0.5594999999999999,1.8124000000000038 0.5555999999999983,1.8171999999999997 0.5519999999999996,1.8188999999999993 0.5504999999999995,1.8213000000000008 0.5584999999999987,1.8239000000000019 0.5586999999999982,1.8278000000000034 0.5625,1.8314000000000021 0.5625,1.8351000000000042 0.553799999999999,1.8489000000000004 0.5604999999999976,1.857600000000005 0.5588999999999977,1.8588999999999984 0.5468999999999973,1.858699999999999 0.5395000000000003,1.8755000000000024 0.517199999999999,1.8807000000000045 0.4806999999999988,1.8704999999999998 0.45989999999999753,1.8725000000000023 0.4361999999999995,1.8862000000000023 0.4161999999999999,1.8941000000000017 0.410499999999999,1.8937999999999988 0.40179999999999794,1.8988000000000014 0.3938999999999986,1.8910000000000053 0.3897999999999975,1.892700000000005 0.38429999999999964,1.892000000000003 0.379999999999999,1.8948999999999998 0.37469999999999715,1.8944000000000045 0.36739999999999995,1.9025000000000034 0.34999999999999787,1.9039000000000001 0.3387999999999991,1.9084000000000003 0.3271999999999977,1.9093000000000018 0.3109000000000002,1.9158000000000044 0.30889999999999773,1.917900000000003 0.31240000000000023,1.9203000000000046 0.3307000000000002,1.9267000000000039 0.3298999999999985,1.9299999999999997 0.3349999999999973,1.9443000000000055 0.334699999999998,1.9489000000000019 0.34140000000000015,1.9495000000000005 0.34729999999999706,1.9368000000000052 0.3492999999999995,1.9353000000000051 0.3536999999999999,1.9335000000000022 0.35829999999999984,1.9350000000000023 0.3620999999999981,1.9339000000000013 0.3633999999999986,1.942700000000002 0.3719999999999999,1.9440999999999988 0.3734000000000002,1.9453999999999994 0.3719000000000001,1.9481000000000037 0.3744999999999976,1.9506000000000014 0.3811,1.9513000000000034 0.38729999999999976,1.9573999999999998 0.39170000000000016,1.9562000000000026 0.39839999999999876,1.9596000000000018 0.4042999999999992,1.9596000000000018 0.4079999999999977,1.9649 0.4148999999999994,1.963000000000001 0.42779999999999774,1.964500000000001 0.4319999999999986,1.9697000000000031 0.43959999999999866,1.975200000000001 0.4238999999999997,1.9893 0.4261999999999979,1.9909000000000034 0.42499999999999716,1.992600000000003 0.4361999999999995,1.9958000000000027 0.4339999999999975,1.9979000000000013 0.4356999999999971,1.9986000000000033 0.4333999999999989,2.0020000000000024 0.4349999999999987,2.001899999999999 0.4344000000000001,2.0035999999999987 0.4538999999999973,2.0042000000000044 0.4754000000000005,2.008099999999999 0.4798999999999971,2.0117000000000047 0.4862000000000002,2.008800000000001 0.4969000000000001,2.0130000000000052 0.5128999999999984,2.009599999999999 0.5216999999999992,2.0117000000000047 0.5258000000000003,2.0072000000000045 0.5270999999999972,2.0009000000000015 0.5433999999999983,1.9943000000000026 0.5456000000000003,1.995899999999999 0.5589999999999975,1.9931000000000054 0.6083999999999996,1.9879999999999995 0.6088999999999984,1.975200000000001 0.6363999999999983,1.9341000000000008 0.715799999999998,1.9354000000000013 0.7264999999999979,1.9572000000000003 0.7429999999999986,1.9637000000000029 0.7542999999999971,1.9742999999999995 0.7562999999999995,1.9740000000000038 0.7591000000000001,1.942700000000002 0.7625999999999991,1.9410000000000025 0.7999999999999972,1.9403000000000006 0.8638999999999974,1.947099999999999 0.9278999999999975,1.9570000000000007 0.9804999999999993,1.9609000000000023 0.9617000000000004,1.9757000000000033 0.9576999999999991,1.9808000000000021 0.9581999999999979,2.002600000000001 0.9572000000000003,2.009900000000002 0.9558999999999997,2.0097000000000023 0.9530999999999992,2.018900000000002 0.9544999999999995,2.0200999999999993 0.9512999999999998,2.0304 0.9482999999999997,2.030300000000004 0.9456999999999987,2.038800000000002 0.9383999999999979,2.046600000000005 0.940999999999999,2.050200000000004 0.9592999999999989,2.0608000000000004 0.9619,2.0609000000000037 0.9471999999999987,2.0727000000000046 0.9482999999999997,2.075400000000002 0.9344000000000001,2.081000000000003 0.9371999999999971,2.0839 0.9340999999999973,2.0855000000000032 0.9390000000000001,2.0904999999999987 0.8973999999999975,2.111000000000004 0.9051999999999971,2.121000000000002 0.9274999999999984,2.119500000000002 0.9370999999999974,2.122700000000002 0.9361999999999995,2.1245000000000047 0.9652999999999992,2.130200000000002 0.9679000000000002,2.1270999999999987 0.9726999999999997,2.1270999999999987 0.9915999999999983,2.151900000000005 0.9831000000000003,2.1569000000000003 0.990199999999998,2.1631 1.0001999999999995,2.1799999999999997 0.978399999999997,2.1870000000000047 0.9880999999999993,2.1947000000000045 0.9953000000000003,2.202200000000005 0.997399999999999,2.2070000000000007 1.0045000000000002,2.2135000000000034 0.9870999999999981,2.2197999999999993 0.9820999999999991,2.2235000000000014 1.0188999999999986,2.2435000000000045 1.0224999999999973,2.246000000000002 1.0216999999999992,2.246600000000001 1.0443999999999996,2.256700000000002 1.0486000000000004,2.261099999999999 1.0676999999999985,2.2672000000000025 1.0779999999999994,2.2694000000000045 1.0914000000000001,2.2697000000000003 1.0989000000000004,2.2730000000000032 1.1152999999999977,2.270700000000005 1.1325000000000003,2.272500000000001 1.1372999999999998,2.268500000000003 1.1371000000000002,2.2616000000000014 1.1446000000000005,2.2535999999999987 1.1724999999999994,2.249300000000005 1.1983999999999995,2.251899999999999 1.2206999999999972,2.2501000000000033 1.2341999999999977,2.2432000000000016 1.2539999999999978,2.224499999999999 1.2623999999999995,2.2135000000000034 1.2653999999999996,2.2119 1.2775999999999996,2.216000000000001 1.2888999999999982,2.2081000000000017 1.3216,2.1715000000000018 1.3369,2.1458000000000013 1.3485999999999976,2.137599999999999 1.3624999999999972,2.133800000000001 1.3861999999999988,2.122800000000005 1.3996999999999993,2.119500000000002 1.4107999999999983,2.1200000000000045 1.4212999999999987,2.1128 1.4323999999999977,2.0981000000000023 1.4395999999999987,2.0854 1.453199999999999,2.068800000000003 1.4605999999999995,2.0675999999999988 1.4818999999999996,2.0755000000000052 1.4952000000000005,2.0746000000000038 1.5351999999999997,2.048000000000002 1.5690999999999988,2.031100000000002 1.5954999999999977,2.012599999999999 1.6112000000000002,2.0065000000000026 1.6496999999999993,2.0016000000000034 1.6566999999999972,1.9968000000000004 1.6668999999999983,1.9939000000000036 1.6906999999999996,1.9966000000000008 1.7341999999999977,1.9946000000000055 1.7480999999999973,1.9971999999999994 1.7556999999999974,1.9969999999999999 1.7723999999999975,1.991500000000002 1.7851,1.990400000000001 1.796199999999999,1.9947000000000017 1.8304999999999971,1.9967000000000041 1.8487999999999971,2.009599999999999 1.8550000000000004,2.009900000000002 1.8894999999999982,1.9992000000000019 1.9157999999999973,2.0078999999999994 1.927299999999999,2.009300000000003 1.9691999999999972,2.0091000000000037 2.0279999999999987,2.0028000000000006 2.071999999999999,1.9916000000000054 2.1057999999999986,1.9949000000000012 2.135399999999997,1.9924000000000035 2.1648999999999994,1.9856000000000051 2.1813000000000002,1.9849000000000032 2.232499999999998,1.993000000000002 2.274099999999997,2.0031000000000034 2.302199999999999,2.0061999999999998 2.3242999999999974,2.0153000000000034 2.3344999999999985,2.0180000000000007 2.346799999999998,2.0165000000000006 2.3688000000000002,2.008500000000005 2.379999999999999,2.0061999999999998 2.3916000000000004,2.0069000000000017 2.4055999999999997,2.0106000000000037 2.424699999999998,2.0190000000000055 2.4385999999999974,2.021100000000004 2.5032999999999994,2.011400000000002 2.549199999999999,2.0135000000000005 2.5838,2.0283000000000015 2.6118999999999986,2.043600000000005 2.6205999999999996,2.0626999999999995 2.628499999999999,2.067700000000002 2.640599999999999,2.0705000000000027 2.668199999999999,2.071300000000001 2.7343999999999973,2.0693000000000055 2.735599999999998,2.074300000000001 2.7418999999999976,2.080300000000001 2.736799999999999,2.082900000000002 2.7221999999999973,2.082500000000003 2.716899999999999,2.0853000000000037 2.7083999999999975,2.1014000000000053 2.701599999999999,2.1068 2.6831999999999994,2.112100000000005 2.6784999999999997,2.1189999999999998 2.6693999999999996,2.119500000000002 2.665399999999998,2.122100000000003 2.6568000000000005,2.1218000000000004 2.654799999999998,2.1240999999999985 2.6494999999999997,2.1255000000000024 2.6495999999999995,2.135000000000005 2.6544999999999987,2.136099999999999 2.645199999999999,2.1509 2.648299999999999,2.1562000000000054 2.6454999999999984,2.159800000000004 2.648799999999998,2.164200000000001 2.6448,2.1693 2.644099999999998,2.174199999999999 2.654799999999998,2.182700000000004 2.6585,2.1884000000000015 2.6601999999999997,2.1929000000000016 2.6595999999999975,2.2006000000000014 2.6565999999999974,2.207100000000004 2.6616999999999997,2.206800000000001 2.6637999999999984,2.2102000000000004 2.657799999999998,2.218200000000003 2.6428999999999974,2.2231999999999985 2.639499999999998,2.2279000000000053 2.6485999999999983,2.235500000000002 2.6525999999999996,2.2353999999999985 2.652199999999997,2.238800000000005 2.658299999999997,2.241199999999999 2.662399999999998,2.2386000000000053 2.6740999999999993,2.241500000000002 2.6843000000000004,2.2405000000000044 2.698999999999998,2.2447000000000017 2.694799999999997,2.247800000000005 2.7003999999999984,2.250700000000002 2.703599999999998,2.2490000000000023 2.7053999999999974,2.2520000000000024 2.706999999999997,2.2595000000000027 2.7033999999999985,2.267800000000001 2.7052999999999976,2.275800000000004 2.7143999999999977,2.282499999999999 2.7135,2.2944999999999993 2.7224000000000004,2.2959999999999994 2.724999999999998,2.3012000000000015 2.7342999999999975,2.304700000000004 2.7537999999999982,2.2998000000000047 2.7616999999999976,2.2993999999999986 2.7722999999999978,2.308399999999999 2.7796999999999983,2.3100999999999985 2.7886999999999986,2.306600000000003 2.799199999999999,2.305500000000002 2.8085999999999984,2.3066999999999993 2.815299999999997,2.311 2.8256999999999977,2.3122000000000043 2.8538999999999994,2.309200000000004 2.8737999999999992,2.310600000000001 2.8810000000000002,2.322099999999999 2.8917,2.3231000000000037 2.8968999999999987,2.3262 2.898699999999998,2.3301000000000016 2.907,2.329500000000003 2.9221000000000004,2.3203999999999994 2.9330999999999996,2.3194000000000017 2.944099999999999,2.3130000000000024 2.9513,2.316900000000004 2.9625999999999983,2.3188999999999993 2.968,2.3248999999999995 2.9751999999999974,2.326599999999999 2.9853999999999985,2.3222999999999985 2.999299999999998,2.320700000000002 3.0060000000000002,2.3211000000000013 3.0109999999999992,2.3257000000000048 3.0204999999999984,2.3285000000000053 3.0397999999999996,2.3220000000000027 3.0733999999999995,2.314700000000002 3.084699999999998,2.3155 3.0919999999999987,2.318000000000005 3.1114999999999995,2.3156000000000034 3.1129999999999995,2.3115000000000023 3.1215999999999973,2.3093000000000004 3.1305999999999976,2.3100000000000023 3.134599999999999,2.316600000000001 3.1356,2.3216000000000037 3.1474999999999973,2.3257000000000048 3.1479999999999997,2.331000000000003 3.1525,2.3308999999999997 3.1561999999999983,2.3274000000000044 3.1636999999999986,2.326900000000002 3.1690000000000005,2.3331000000000017 3.179599999999997,2.3364000000000047 3.1845999999999997,2.3415000000000035 3.1957999999999984,2.3419999999999987 3.206999999999997,2.3404999999999987 3.2303999999999995,2.3456000000000046 3.2439,2.3452000000000055 3.2581999999999987,2.341300000000004 3.261599999999998,2.344700000000003 3.2735999999999983,2.345100000000002 3.2796999999999983,2.3404000000000025 3.2896,2.338799999999999 3.2956000000000003,2.3427000000000007 3.306899999999999,2.342800000000004 3.3146999999999984,2.3455000000000013 3.3241999999999976,2.354700000000001 3.347299999999997,2.357199999999999 3.348499999999998,2.354600000000005 3.341899999999999,2.3521 3.3401999999999994,2.3470000000000013 3.3429,2.3434000000000026 3.3475,2.340900000000005 3.3547999999999973,2.3400999999999996 3.358599999999999,2.3522999999999996 3.3713999999999977,2.357600000000005 3.379299999999997,2.3655000000000044 3.3828999999999994,2.386099999999999 3.3824000000000005,2.3929000000000045 3.3979999999999997,2.4055000000000035 3.398699999999998,2.4132000000000033 3.3947000000000003,2.4269000000000034 3.4038000000000004,2.4370000000000047 3.4106999999999985,2.4403000000000006 3.4141999999999975,2.4466000000000037 3.410899999999998,2.452200000000005 3.413999999999998,2.458600000000004 3.4239999999999995,2.463000000000001 3.4349999999999987,2.4632000000000005 3.4651999999999994,2.4691000000000045 3.4816000000000003,2.4827000000000012 3.499699999999997,2.4949000000000012 3.5147999999999975,2.5035999999999987 3.523299999999999,2.5048999999999992 3.5340999999999987,2.493000000000002 3.5427,2.4928000000000026 3.551199999999998,2.495200000000004 3.5590999999999973,2.490400000000001 3.5609,2.474499999999999 3.5656999999999996,2.4680999999999997 3.5818999999999974,2.4580000000000055 3.5932999999999993,2.455600000000004 3.604099999999999,2.4565000000000055 3.612099999999998,2.4614000000000047 3.6198999999999977,2.4688000000000017 3.6287999999999982,2.4706000000000046 3.6404999999999994,2.469300000000004 3.6568000000000005,2.4592000000000027 3.6657999999999973,2.455600000000004 3.6738999999999997,2.4477000000000046 3.6869999999999976,2.446400000000004 3.6895999999999987,2.4405 3.6876999999999995,2.436399999999999 3.674299999999999,2.425600000000003 3.6708999999999996,2.4207000000000036 3.6697999999999986,2.414900000000003 3.6754,2.4102000000000032 3.6850999999999985,2.4080000000000013 3.691499999999998,2.4095000000000013 3.6960999999999977,2.417500000000004 3.7028,2.4228000000000023 3.7119999999999997,2.421600000000005 3.7171999999999983,2.417200000000001 3.7255000000000003,2.4166999999999987 3.735199999999999,2.4283 3.7398999999999987,2.4298 3.7474999999999987,2.4222000000000037 3.7547999999999995,2.4239999999999995 3.7617999999999974,2.4232000000000014 3.7674999999999983,2.4181000000000026 3.780999999999999,2.4176 3.788899999999998,2.4051000000000045 3.7967999999999975,2.4010000000000034 3.7952999999999975,2.3950999999999993 3.783899999999999,2.3858000000000033 3.7845999999999975,2.3815000000000026 3.791599999999999,2.3795 3.796999999999997,2.3828999999999994 3.8130999999999986,2.3818000000000055 3.8202,2.386099999999999 3.8378999999999976,2.4044000000000025 3.8470999999999975,2.406100000000002 3.8537999999999997,2.4170000000000016 3.8597,2.418700000000001 3.8688000000000002,2.416499999999999 3.8733000000000004,2.4203000000000046 3.8841,2.424600000000005 3.8968999999999987,2.423400000000001 3.9071999999999996,2.428200000000004 3.918599999999998,2.428600000000003 3.9268,2.4269999999999996 3.928699999999999,2.4213000000000022 3.934899999999999,2.420100000000005 3.9446999999999974,2.4281000000000006 3.9643999999999977,2.4340000000000046 3.9633000000000003,2.4365000000000023 3.953999999999997,2.4380000000000024 3.9560999999999993,2.446400000000004 3.9730999999999987,2.4480000000000004 3.9852999999999987,2.458500000000001 4.0169,2.4754000000000005 4.0215,2.4950000000000045 4.020799999999998,2.5027000000000044 4.0228,2.5093999999999994 4.025499999999997,2.511800000000001 4.046199999999999,2.5075000000000003 4.0853,2.5057000000000045 4.0944,2.509300000000003 4.0946,2.518100000000004 4.1031999999999975,2.5157999999999987 4.110699999999998,2.5167 4.118299999999998,2.520299999999999 4.1221,2.5253000000000014 4.119399999999999,2.532900000000005 4.126199999999997,2.535800000000002 4.136899999999997,2.5331000000000046 4.145599999999998,2.5275999999999996 4.173299999999998,2.515900000000002 4.195699999999999,2.519200000000005 4.194799999999997,2.524799999999999 4.206499999999998,2.5264999999999986 4.212699999999998,2.5305000000000035 4.214599999999997,2.5427999999999997 4.220799999999997,2.5463999999999984 4.227999999999998,2.559899999999999 4.234999999999999,2.558800000000005 4.245099999999997,2.563600000000001 4.261599999999998,2.578700000000005 4.2577,2.583500000000001 4.259,2.5896000000000043 4.271799999999999,2.598300000000002 4.2734999999999985,2.605400000000003 4.285299999999999,2.6090000000000018 4.293499999999998,2.6159999999999997 4.296999999999997,2.6234000000000037 4.288999999999998,2.634900000000002 4.300999999999998,2.643500000000003 4.306699999999999,2.6587999999999994 4.299499999999998,2.663499999999999 4.302399999999999,2.670900000000003 4.3277,2.6888000000000005 4.331199999999999,2.6970000000000027 4.339599999999997,2.7025000000000006 4.354199999999999,2.706400000000002 4.351299999999998,2.7154000000000025 4.371399999999998,2.7236000000000047 4.381699999999999,2.7378 4.387999999999998,2.741800000000005 4.3918,2.757100000000001 4.3958999999999975,2.761099999999999 4.393599999999999,2.7665000000000006 4.388099999999998,2.7702000000000027 4.393699999999999,2.7852999999999994 4.404999999999998,2.7867999999999995 4.422599999999999,2.778100000000002 4.4331,2.798100000000005 4.450299999999999,2.7967000000000013 4.476499999999998,2.788499999999999 4.493099999999998,2.7978000000000023 4.5047999999999995,2.7967000000000013 4.509999999999998,2.8045000000000044 4.518799999999999,2.8056000000000054 4.5261,2.811300000000003 4.537399999999998,2.8125 4.5428,2.816600000000001 4.555,2.8167000000000044 4.564899999999998,2.8188999999999993 4.5702,2.8130999999999986 4.593299999999999,2.821800000000003 4.606299999999997,2.8233999999999995 4.629999999999999,2.8226000000000013 4.628599999999999,2.8257000000000048 4.630099999999999,2.8293000000000035 4.6845,2.8290000000000006 4.694199999999999,2.8263999999999996 4.716199999999997,2.8359000000000023 4.726499999999998,2.8385999999999996 4.735699999999998,2.8355999999999995 4.730599999999999,2.8185000000000002 4.7403999999999975,2.8188999999999993 4.7486,2.8123000000000005 4.753399999999999,2.805800000000005 4.762899999999998,2.8066999999999993 4.764499999999998,2.8034000000000034 4.8004,2.8135000000000048 4.806799999999999,2.8137000000000043 4.814999999999998,2.809100000000001 4.820899999999998,2.8004999999999995 4.824399999999997,2.791499999999999 4.828599999999998,2.7934000000000054 4.828499999999998,2.7881 4.8348999999999975,2.788499999999999 4.845399999999998,2.784400000000005 4.846,2.779200000000003 4.849699999999999,2.775500000000001 4.857699999999998,2.775100000000002 4.869999999999997,2.778400000000005 4.873199999999997,2.7727000000000004 4.881899999999998,2.782600000000002 4.898299999999999,2.782200000000003 4.904299999999999,2.7854000000000028 4.910599999999999,2.785499999999999 4.9146,2.7828000000000017 4.939499999999999,2.778800000000004 4.9426999999999985,2.776900000000005 4.9541,2.778800000000004 4.9619,2.774700000000003 4.970199999999998,2.7749000000000024 4.980599999999999,2.7723000000000013 4.987299999999998,2.764800000000001 4.987499999999997,2.7528000000000006 4.9925999999999995,2.7465000000000046 5.002199999999998,2.7447000000000017 5.012599999999999,2.7449000000000012 5.023999999999997,2.749200000000002 5.033899999999999,2.7563999999999993 5.042099999999998,2.771500000000003 5.046999999999997,2.7753000000000014 5.0671,2.7741000000000042 5.0794,2.780300000000004 5.089599999999997,2.7801000000000045 5.097299999999997,2.7849000000000004 5.103999999999999,2.7845000000000013 5.108799999999999,2.7904000000000053 5.1172,2.788499999999999 5.1206,2.793700000000001 5.1297,2.794400000000003 5.1372,2.788000000000004 5.148699999999998,2.782600000000002 5.174599999999998,2.779200000000003 5.192799999999998,2.7807999999999993 5.194499999999998,2.784700000000001 5.204799999999999,2.7882000000000033 5.202199999999998,2.7931000000000026 5.207699999999999,2.7958 5.208599999999997,2.802900000000001 5.2058,2.8061000000000007 5.211599999999997,2.805800000000005 5.215,2.8096999999999994 5.2089,2.8104000000000013 5.205499999999997,2.8130000000000024 5.209199999999999,2.815400000000004 5.2166,2.8173999999999992 5.218399999999999,2.810300000000005 5.2499,2.8133000000000052 5.268699999999999,2.8109000000000037 5.290499999999998,2.8175999999999988 5.297499999999999,2.8130000000000024 5.3048,2.8130000000000024 5.308599999999998,2.816200000000002 5.313299999999998,2.833200000000005 5.3172999999999995,2.8378000000000014 5.3276,2.8374999999999986 5.3355,2.828700000000005 5.3466999999999985,2.828099999999999 5.355799999999999,2.8222000000000023 5.369199999999999,2.8183000000000007 5.3797999999999995,2.8130000000000024 5.386899999999997,2.8120000000000047 5.389899999999997,2.8087000000000018 5.395599999999998,2.8095 5.406399999999998,2.802100000000003 5.405799999999999,2.791499999999999 5.424999999999997,2.768500000000003 5.4315999999999995,2.767400000000002 5.433899999999998,2.7637 5.446899999999999,2.7627000000000024 5.4527,2.7657999999999987 5.4588,2.7590000000000003 5.467399999999998,2.758800000000001 5.4842999999999975,2.7719999999999985 5.491999999999997,2.764700000000005 5.500799999999998,2.765100000000004 5.503899999999998,2.751800000000003 5.5086999999999975,2.7424999999999997 5.511699999999998,2.7221000000000046 5.52,2.700099999999999 5.532299999999999,2.6925000000000026 5.542399999999997,2.682700000000004 5.552999999999997,2.6685000000000016 5.5533,2.6595000000000013 5.5623000000000005,2.645700000000005 5.575699999999998,2.643500000000003 5.5894999999999975,2.639000000000003 5.596,2.628 5.5962,2.621700000000004 5.604899999999997,2.6189999999999998 5.606299999999997,2.6101000000000028 5.613099999999999,2.6056000000000026 5.6190999999999995,2.6021 5.631899999999998,2.6026000000000025 5.644099999999998,2.6000000000000014 5.6595999999999975,2.5930000000000035 5.691099999999999,2.5941000000000045 5.7011,2.5919000000000025 5.714699999999997,2.5864000000000047 5.726599999999998,2.587700000000005 5.725299999999997,2.6114999999999995 5.726199999999999,2.6171000000000006 5.7334,2.619399999999999 5.746399999999998,2.6203000000000003 5.7531,2.6066000000000003 5.7578,2.6126000000000005 5.7653,2.6099999999999994 5.7683,2.6159999999999997 5.773599999999998,2.620600000000003 5.780999999999999,2.6233000000000004 5.7795999999999985,2.6178000000000026 5.788899999999998,2.618000000000002 5.7925,2.6230000000000047 5.7957,2.6204000000000036 5.802299999999999,2.6215000000000046 5.808199999999999,2.6186000000000007 5.819299999999998,2.6166000000000054 5.8172999999999995,2.6270000000000024 5.8248,2.6247000000000043 5.8306000000000004,2.6288000000000054 5.836299999999998,2.6296999999999997 5.843799999999998,2.6351000000000013 5.850999999999999,2.632000000000005 5.8596,2.6355000000000004 5.864599999999999,2.6328999999999994 5.8836999999999975,2.6327 5.893899999999999,2.6352000000000046 5.9041,2.6403000000000034 5.9053,2.6440000000000055 5.911299999999997,2.6449 5.9209,2.6380000000000052 5.929499999999997,2.636800000000001 5.938299999999998,2.631300000000003 5.942,2.6319000000000017 5.9426999999999985,2.6347999999999985 5.9543,2.6357 5.956999999999997,2.639099999999999 5.962799999999998,2.6396000000000015 5.967699999999997,2.6352000000000046 5.9697,2.628399999999999 5.9742,2.630600000000001 5.9801,2.6366000000000014 5.987199999999998,2.631700000000002 5.998199999999997,2.6347000000000023 6.0062999999999995,2.6326000000000036 6.028399999999998,2.636400000000002 6.022199999999998,2.6456000000000017 6.042999999999999,2.6532000000000053 6.043499999999998,2.657600000000002 6.046999999999997,2.6581000000000046 6.046199999999999,2.662400000000005 6.0474,2.664100000000005 6.0809,2.6694999999999993 6.0885,2.676700000000004 6.105999999999998,2.6795000000000044 6.116999999999997,2.669400000000003 6.125699999999998,2.6708 6.1267,2.6651000000000025 6.1530999999999985,2.6693 6.154899999999998,2.6571 6.146099999999997,2.6555999999999997 6.146899999999999,2.6493000000000038 6.129299999999997,2.6463000000000036 6.130099999999999,2.6400000000000006 6.1389,2.6415000000000006 6.139699999999998,2.6351000000000013 6.1493,2.6303000000000054 6.150099999999998,2.623899999999999 6.1692,2.614200000000004 6.177799999999998,2.615300000000005 6.1785,2.6108000000000047 6.184199999999997,2.6099999999999994 6.188399999999998,2.613100000000003 6.1949000000000005,2.612400000000001 6.200799999999997,2.6163000000000025 6.2037999999999975,2.615400000000001 6.2029,2.6114999999999995 6.2041,2.611600000000003 6.206799999999998,2.593200000000003 6.199299999999997,2.5859999999999985 6.200899999999997,2.574300000000001 6.205399999999997,2.568100000000001 6.2104,2.5686999999999998 6.2109999999999985,2.5641999999999996 6.213899999999999,2.562800000000003 6.219799999999999,2.5635000000000048 6.220099999999999,2.561300000000003 6.2256,2.5576000000000008 6.226899999999997,2.5519000000000034 6.223099999999999,2.542500000000004 6.225999999999999,2.5366 6.2255,2.531500000000001 6.234199999999998,2.5208000000000013 6.241999999999997,2.5168000000000035 6.241899999999998,2.5046999999999997 6.2516,2.4997000000000043 6.259399999999999,2.491100000000003 6.269499999999997,2.4979000000000013 6.2780999999999985,2.499900000000004 6.282599999999999,2.5035999999999987 6.2926,2.5050000000000026 6.304199999999998,2.5050999999999988 6.3094,2.5016999999999996 6.3202,2.500399999999999 6.3124,2.5050000000000026 6.328999999999997,2.505500000000005 6.336599999999997,2.5023000000000053 6.3398,2.4990000000000023 6.349599999999999,2.498100000000001 6.3598,2.498800000000003 6.360099999999999,2.503399999999999 6.366799999999998,2.504000000000005 6.372,2.509300000000003 6.3775999999999975,2.510000000000005 6.3851999999999975,2.5057000000000045 6.390499999999999,2.498800000000003 6.3889,2.497700000000002 6.389599999999998,2.4939000000000036 6.4086,2.4894999999999996 6.4008,2.4828000000000046 6.401899999999998,2.477400000000003 6.410899999999998,2.4776000000000025 6.4131,2.468200000000003 6.416399999999999,2.4661000000000044 6.4222,2.4665999999999997 6.422699999999999,2.463799999999999 6.432199999999998,2.4614000000000047 6.4422,2.4532000000000025 6.448999999999998,2.450800000000001 6.462,2.4513999999999996 6.4635,2.440100000000001 6.454799999999999,2.439300000000003 6.4583999999999975,2.4222000000000037 6.467299999999998,2.422400000000003 6.469199999999997,2.4132999999999996 6.471499999999999,2.410800000000002 6.4785,2.4114000000000004 6.479799999999997,2.4055999999999997 6.489799999999999,2.4004000000000048 6.491099999999999,2.394600000000004 6.481099999999998,2.399700000000003 6.483799999999999,2.3760000000000048 6.485499999999998,2.3725000000000023 6.4847,2.3655000000000044 6.476399999999998,2.360600000000005 6.494699999999998,2.3603000000000023 6.494899999999998,2.3577000000000012 6.5045,2.3578000000000046 6.504299999999997,2.3608000000000047 6.5138,2.3613 6.514099999999999,2.356500000000004 6.525399999999998,2.350500000000004 6.5336,2.350900000000003 6.5381,2.3485000000000014 6.5623000000000005,2.3466999999999985 6.571099999999998,2.350500000000004 6.594199999999997,2.365400000000001 6.6113,2.371600000000001 6.620699999999999,2.369399999999999 6.6311,2.3755000000000024 6.651799999999998,2.3718000000000004 6.653199999999998,2.3644999999999996 6.655899999999999,2.3637000000000015 6.662599999999998,2.3655000000000044 6.660599999999999,2.3740000000000023 6.665899999999997,2.376400000000004 6.6739999999999995,2.373899999999999 6.6815999999999995,2.3740999999999985 6.6875,2.3762000000000043 6.694199999999999,2.3751999999999995 6.6952,2.3693000000000026 6.6987999999999985,2.3696000000000055 6.698999999999998,2.3719000000000037 6.703599999999998,2.373800000000003 6.712199999999999,2.372 6.717299999999998,2.3666000000000054 6.714599999999997,2.3560000000000016 6.715899999999998,2.3481000000000023 6.724399999999999,2.3477999999999994 6.721299999999999,2.345100000000002 6.7216999999999985,2.3426000000000045 6.726899999999997,2.339100000000002 6.723499999999998,2.337200000000003 6.726399999999998,2.3344999999999985 6.726399999999998,2.336100000000002 6.737099999999998,2.3367000000000004 6.7437000000000005,2.332100000000004 6.749499999999998,2.3248999999999995 6.7514,2.3126000000000033 6.753499999999999,2.3087000000000018 6.7608999999999995,2.3049000000000035 6.761099999999999,2.307700000000004 6.767799999999998,2.3061000000000007 6.7666,2.293300000000002 6.767699999999998,2.2856999999999985 6.7635000000000005,2.2854000000000028 6.759599999999999,2.278500000000001 6.752699999999997,2.2767000000000053 6.753299999999999,2.270299999999999 6.751199999999997,2.2657000000000025 6.747,2.2642999999999986 6.747899999999998,2.260400000000004 6.743199999999998,2.2601000000000013 6.7409,2.2578999999999994 6.741999999999997,2.254000000000005 6.7348,2.2535000000000025 6.737299999999998,2.247700000000002 6.7332,2.247399999999999 6.7317,2.244399999999999 6.732299999999999,2.2406000000000006 6.746199999999998,2.2363 6.746699999999997,2.234100000000005 6.7529,2.231500000000004 6.755499999999998,2.232300000000002 6.758099999999999,2.2287999999999997 6.762899999999998,2.2272000000000034 6.761899999999997,2.225999999999999 6.772599999999997,2.2227000000000032 6.7715,2.2209000000000003 6.7822,2.218200000000003 6.780899999999999,2.2158000000000015 6.7917999999999985,2.213700000000003 6.7906999999999975,2.209600000000002 6.788799999999998,2.2103000000000037 6.789399999999997,2.2072000000000003 6.7841999999999985,2.2065000000000055 6.782699999999998,2.2043999999999997 6.779499999999999,2.2058000000000035 6.774999999999999,2.204100000000004 6.773,2.1972000000000023 6.767799999999998,2.196000000000005 6.7605,2.188900000000004 6.760299999999997,2.184899999999999 6.754299999999997,2.1814999999999998 6.7540999999999976,2.177500000000002 6.745699999999999,2.172699999999999 6.744799999999998,2.1693 6.7348,2.1606000000000023 6.720299999999998,2.1617999999999995 6.7135,2.1602000000000032 6.702399999999997,2.1529999999999987 6.6937999999999995,2.1507000000000005 6.680799999999998,2.1433999999999997 6.670999999999999,2.1463000000000036 6.657499999999999,2.145299999999999 6.654,2.1473000000000013 6.6511,2.1452000000000027 6.648199999999999,2.1473000000000013 6.645999999999997,2.1459000000000046 6.6448,2.142800000000001 6.647599999999997,2.139800000000001 6.646099999999997,2.1385000000000005 6.656299999999998,2.1311000000000035 6.649899999999999,2.119500000000002 6.654,2.1166000000000054 6.660899999999998,2.1156000000000006 6.660399999999999,2.112000000000002 6.662699999999997,2.1113 6.662299999999998,2.1086000000000027 6.6652999999999984,2.104600000000005 6.6646,2.0959000000000003 6.6539,2.0944000000000003 6.643899999999999,2.087200000000003 6.639699999999998,2.0868000000000038 6.6190999999999995,2.0882000000000005 6.6114999999999995,2.0908000000000015 6.6036,2.089500000000001 6.598799999999997,2.0869 6.597199999999997,2.0763999999999996 6.593499999999999,2.076100000000004 6.5916999999999994,2.072900000000004 6.587499999999999,2.0708000000000055 6.589299999999998,2.0675000000000026 6.583099999999998,2.0609000000000037 6.572799999999997,2.0441000000000003 6.568099999999998,2.0401999999999987 6.558499999999999,2.040700000000001 6.5539999999999985,2.0394000000000005 6.551499999999997,2.0360000000000014 6.5478999999999985,2.034400000000005 6.534499999999998,2.031500000000001 6.5245999999999995,2.033200000000001 6.5147999999999975,2.0286000000000044 6.503299999999999,2.0298000000000016 6.499399999999998,2.0245000000000033 6.4374,2.025200000000005 6.427799999999998,2.0345000000000013 6.3763000000000005,2.058399999999999 6.369399999999999,2.0634000000000015 6.354899999999997,2.0576000000000008 6.335799999999999,2.0556000000000054 6.3287999999999975,2.0443 6.320399999999999,2.0145000000000053 6.314899999999998,2.007000000000005 6.313599999999997,2.002600000000001 6.315799999999999,2.0020999999999987 6.314999999999998,1.9994000000000014 6.3176999999999985,1.9977000000000018 6.317999999999998,1.9935000000000045 6.299299999999999,1.9949000000000012 6.298199999999998,1.9992000000000019 6.2841999999999985,2.0001999999999995 6.2745,1.9978000000000051 6.244899999999998,2.0015 6.234099999999998,2.0054000000000016 6.2332,2.0075000000000003 6.2181999999999995,2.0176000000000016 6.2120999999999995,2.019300000000001 6.205099999999998,2.0183999999999997 6.2087,2.0075000000000003 6.205299999999998,1.9958000000000027 6.193899999999999,1.9939000000000036 6.191099999999999,1.989600000000003 6.186699999999998,1.9896999999999991 6.173199999999998,1.9817999999999998 6.1524,1.9836000000000027 6.147099999999998,1.9699000000000026 6.150099999999998,1.9692000000000007 6.150099999999998,1.9662000000000006 6.146799999999999,1.9509000000000043 6.143999999999998,1.9506000000000014 6.1418,1.9476000000000013 6.1294,1.9477000000000046 6.1188,1.9458000000000055 6.113799999999998,1.9405000000000001 6.110599999999998,1.9350999999999985 6.1129999999999995,1.9331999999999994 6.110199999999999,1.9254999999999995 6.110999999999997,1.9209000000000032 6.107899999999997,1.9162000000000035 6.109999999999999,1.9146 6.099399999999999,1.906400000000005 6.091199999999997,1.9074000000000026 6.0869,1.8887 6.0823,1.8830999999999989 6.0777,1.8644000000000034 6.070799999999998,1.8588999999999984 6.0684000000000005,1.8518000000000043 6.066299999999998,1.8518000000000043 6.0642,1.846900000000005 6.058799999999998,1.8442000000000007 6.048299999999998,1.8449000000000026 6.033999999999999,1.8471000000000046 6.027199999999997,1.8506 6.015999999999998,1.8506 6.0173999999999985,1.8477000000000032 6.0169,1.8417999999999992 6.012899999999998,1.8400000000000034 6.008099999999999,1.8330000000000055 6.002099999999999,1.8277 5.992899999999999,1.8252999999999986 5.988599999999998,1.8171000000000035 5.9815000000000005,1.8106000000000009 5.9785,1.809899999999999 5.974499999999999,1.813600000000001 5.966999999999999,1.8149000000000015 5.962199999999999,1.8133000000000052 5.960099999999997,1.8100999999999985 5.950699999999998,1.8064000000000036 5.943099999999998,1.801000000000002 5.942499999999999,1.7993999999999986 5.959199999999999,1.7905000000000015 5.949299999999997,1.7815000000000012 5.933299999999999,1.7923000000000044 5.9237,1.7816000000000045 5.911899999999999,1.7724000000000046 5.9041,1.7576000000000036 5.900399999999998,1.7539000000000016 5.898699999999998,1.743300000000005 5.8949,1.7358000000000047 5.895299999999999,1.7284000000000006 5.900599999999997,1.7231999999999985 5.901799999999998,1.7180000000000035 5.9087,1.7070000000000007 5.9206,1.7035000000000053 5.913699999999999,1.694900000000004 5.923099999999998,1.6799000000000035 5.919799999999999,1.6786999999999992 5.921599999999998,1.6767000000000039 5.9175,1.6752000000000038 5.922799999999999,1.6689000000000007 5.923299999999998,1.6659000000000006 5.910399999999999,1.642700000000005 5.906299999999998,1.6390999999999991 5.899799999999999,1.628300000000003 5.8872,1.6296999999999997 5.884699999999999,1.6306000000000012 5.882999999999999,1.633500000000005 5.878299999999999,1.6340000000000003 5.866399999999999,1.6308000000000007 5.863199999999999,1.6308000000000007 5.8629,1.6326999999999998 5.849399999999999,1.6337000000000046 5.8466999999999985,1.6304000000000016 5.840799999999998,1.627200000000002 5.833099999999998,1.6277000000000044 5.8263,1.6255000000000024 5.827499999999997,1.620200000000004 5.822499999999998,1.6129000000000033 5.813099999999999,1.606100000000005 5.8093,1.5940000000000012 5.8013999999999974,1.5850000000000009 5.7959,1.5812999999999988 5.792299999999997,1.5747 5.7830999999999975,1.567300000000003 5.776499999999999,1.5472000000000037 5.772599999999997,1.543600000000005 5.773899999999998,1.5423000000000044 5.766499999999997,1.539900000000003 5.765999999999998,1.5380000000000038 5.767699999999998,1.5352000000000032 5.776,1.530300000000004 5.774099999999997,1.527700000000003 5.775599999999997,1.5245999999999995 5.767699999999998,1.517400000000002 5.759699999999999,1.5157999999999987 5.755099999999999,1.5120000000000005 5.7513000000000005,1.5045000000000002 5.745899999999999,1.4990999999999985 5.745999999999999,1.4969999999999999 5.739599999999999,1.4917000000000016 5.7347,1.4764000000000053 5.7363,1.474499999999999 5.746099999999998,1.4727000000000032 5.747399999999999,1.4565000000000055 5.7456,1.439700000000002 5.734999999999999,1.4370000000000047 5.726599999999998,1.4299000000000035 5.718699999999998,1.4314000000000036 5.716899999999999,1.4271999999999991 5.705299999999998,1.4253 5.6998999999999995,1.4181999999999988 5.695999999999998,1.408999999999999 5.688399999999998,1.389800000000001 5.690799999999999,1.3888999999999996 5.688299999999998,1.3832000000000022 5.686499999999999,1.3804000000000016 5.683599999999998,1.380200000000002 5.679499999999997,1.3766999999999996 5.6799,1.3723000000000027 5.677099999999999,1.3691999999999993 5.68,1.3682000000000016 5.677099999999999,1.3656000000000006 5.680699999999998,1.363900000000001 5.679199999999998,1.3618999999999986 5.680299999999999,1.3588999999999984 5.658799999999999,1.3614000000000033 5.639399999999998,1.3581000000000003 5.6138999999999974,1.3511000000000024 5.6114999999999995,1.346499999999999 5.6004000000000005,1.3354 5.603899999999999,1.3275000000000006 5.593,1.3241000000000014 5.593899999999998,1.3225000000000051 5.588999999999999,1.3209000000000017 5.592499999999998,1.3158999999999992 5.583499999999997,1.3130000000000024 5.5852,1.3105000000000047 5.5764,1.3079999999999998 5.577399999999997,1.3061000000000007 5.571299999999997,1.303600000000003 5.570499999999999,1.2982000000000014 5.555699999999998,1.2967000000000013 5.549599999999998,1.2939000000000007 5.5366,1.2929999999999993 5.5379000000000005,1.2863000000000042 5.5467999999999975,1.2745999999999995 5.549399999999999,1.2729 5.5657,1.2709000000000046 5.566099999999999,1.2652 5.568899999999999,1.2587000000000046 5.576799999999999,1.2543000000000006 5.575299999999999,1.2520000000000024 5.5671,1.2505000000000024 5.5638000000000005,1.2451000000000008 5.5654,1.2416000000000054 5.558199999999999,1.232600000000005 5.556099999999997,1.2242999999999995 5.555799999999998,1.2227000000000032 5.564399999999999,1.2216999999999985 5.569699999999997,1.2194000000000003 5.5665999999999976,1.2129000000000048 5.563599999999997,1.2116000000000042 5.5609,1.2062000000000026 5.5458,1.2085000000000008 5.543299999999999,1.204500000000003 5.543699999999998,1.2024000000000044 5.538999999999998,1.2002000000000024 5.5367999999999995,1.1955000000000027 5.528599999999997,1.1914000000000016 5.5261,1.1855000000000047 5.4938,1.1850000000000023 5.4864999999999995,1.1799999999999997 5.485099999999999,1.170500000000004 5.487199999999998,1.168600000000005 5.486799999999999,1.1617000000000033 5.488099999999999,1.1617000000000033 5.4879999999999995,1.1591000000000022 5.490499999999997,1.1565000000000012 5.494999999999997,1.1569000000000003 5.502099999999999,1.139000000000003 5.491299999999999,1.1375000000000028 5.4888999999999974,1.1313999999999993 5.491099999999999,1.1212000000000018 5.4893,1.1185000000000045 5.485599999999998,1.117200000000004 5.4846,1.113900000000001 5.472199999999997,1.112400000000001 5.468699999999998,1.1099999999999994 5.457799999999999,1.108000000000004 5.456899999999997,1.1064000000000007 5.4449000000000005,1.1062000000000012 5.436,1.101300000000002 5.425799999999999,1.1000000000000014 5.425699999999999,1.0966000000000022 5.4224,1.092100000000002 5.410899999999998,1.0915999999999997 5.407,1.0885000000000034 5.408299999999997,1.079900000000002 5.4068000000000005,1.0735000000000028 5.408999999999999,1.0724000000000018 5.410299999999999,1.0664000000000016 5.408799999999999,1.0643999999999991 5.41,1.061 5.4072,1.0579999999999998 5.406499999999998,1.0523999999999987 5.401699999999998,1.0480000000000018 5.4030999999999985,1.0463999999999984 5.3995,1.042500000000004 5.397199999999998,1.0358000000000018 5.3812999999999995,1.0275000000000034 5.378,1.0283000000000015 5.371299999999998,1.0168999999999997 5.372799999999998,1.0108999999999995 5.3811,1.0100000000000051 5.3995,0.9975999999999985 5.4145,0.9917000000000016 5.418199999999999,0.9798000000000044 5.417099999999998,0.9733000000000018 5.407299999999999,0.9663000000000039 5.398899999999998,0.9642000000000053 5.400199999999998,0.9603000000000037 5.395299999999999,0.9573999999999998 5.397099999999998,0.9537000000000049 5.395099999999999,0.9528000000000034 5.395299999999999,0.9506000000000014 5.387999999999998,0.9480000000000004 5.383299999999998,0.9402000000000044 5.379999999999999,0.9385000000000048 5.377499999999998,0.9385000000000048 5.372,0.9438999999999993 5.3664999999999985,0.9449000000000041 5.360799999999998,0.9481999999999999 5.338999999999999,0.9410999999999987 5.322199999999999,0.9481000000000037 5.3176999999999985,0.9463000000000008 5.3155,0.9416000000000011 5.319499999999998,0.9346000000000032 5.317999999999998,0.9325000000000045 5.319199999999999,0.9303000000000026 5.330299999999998,0.919000000000004 5.343499999999999,0.9196000000000026 5.3428,0.9136999999999986 5.3294,0.9040000000000035 5.3203,0.9006000000000043 5.3095,0.8990000000000009 5.304199999999998,0.8950000000000031 5.297799999999999,0.8744000000000014 5.269399999999997,0.8808000000000007 5.266199999999998,0.8856999999999999 5.253399999999999,0.8903999999999996 5.2409,0.8828000000000031 5.235599999999998,0.8839000000000041 5.2226,0.8815000000000026 5.217699999999997,0.8841000000000037 5.201899999999998,0.8701000000000008 5.194699999999997,0.8543000000000021 5.194699999999997,0.8515000000000015 5.189,0.8432999999999993 5.194799999999997,0.8389000000000024 5.1961999999999975,0.8400000000000034 5.201899999999998,0.8366000000000042 5.203899999999997,0.8381000000000043 5.208499999999997,0.8353000000000037 5.191299999999998,0.8168000000000006 5.192799999999998,0.8130999999999986 5.185299999999998,0.8059000000000012 5.1814,0.8048000000000002 5.177499999999998,0.7968000000000046 5.168199999999999,0.7974999999999994 5.161999999999999,0.7933000000000021 5.163899999999998,0.7875000000000014 5.148199999999999,0.7545000000000002 5.160599999999999,0.7359000000000009 5.162099999999999,0.7289999999999992 5.184099999999997,0.7286000000000001 5.205199999999998,0.7035000000000053 5.2011,0.7020000000000053 5.199399999999997,0.6925999999999988 5.184799999999999,0.6768000000000001 5.1813,0.6700000000000017 5.177599999999998,0.6677000000000035 5.177299999999999,0.6661000000000001 5.184099999999997,0.6591999999999985 5.171099999999999,0.6557000000000031 5.1632,0.6591999999999985 5.127399999999998,0.6629000000000005 5.113199999999999,0.6661000000000001 5.1068999999999996,0.6636000000000024 5.104099999999999,0.6544000000000025 5.094099999999997,0.6557999999999993 5.084299999999999,0.6234000000000037 5.087299999999999,0.6004000000000005 5.078199999999999,0.591700000000003 5.064,0.5881000000000043 5.066499999999998,0.5830000000000055 5.063599999999997,0.5821000000000041 5.065299999999997,0.5760000000000005 5.0609,0.5709000000000017 5.068299999999997,0.5566000000000031 5.063499999999998,0.5555000000000021 5.062199999999997,0.5528000000000048 5.055899999999998,0.5504000000000033 5.039299999999997,0.5501000000000005 5.035399999999999,0.5518000000000001 5.033199999999997,0.5572000000000017 5.010399999999997,0.5534000000000034 5.003299999999999,0.5542000000000016 4.9969,0.5305999999999997 4.991,0.5151000000000039 4.988099999999999,0.5165000000000006 4.982199999999999,0.5149000000000044 4.9787,0.5106999999999999 4.974799999999998,0.5117000000000047 4.974399999999999,0.5076000000000036 4.970399999999998,0.5089000000000041 4.967599999999997,0.5046000000000035 4.959,0.5063999999999993 4.9537999999999975,0.4953000000000003 4.924499999999998,0.5003999999999991 4.912799999999997,0.5190000000000055 4.903699999999997,0.5157999999999987 4.8781,0.5121000000000038 4.854099999999999,0.5140999999999991 4.840299999999999,0.5174000000000021 4.8344999999999985,0.5317000000000007 4.812899999999999,0.5287000000000006 4.809999999999999,0.5142999999999986 4.778299999999998,0.5239000000000047 4.761199999999999,0.5399999999999991 4.677,0.5256000000000043 4.663399999999999,0.5284000000000049 4.636599999999998,0.5031999999999996 4.6495999999999995,0.45700000000000074 4.615199999999998,0.46000000000000085 4.616299999999999,0.45759999999999934 4.613499999999998,0.4490000000000052 4.6219,0.4463000000000008 4.619199999999999,0.44300000000000495 4.6127,0.4398000000000053 4.610199999999999,0.44000000000000483 4.6016999999999975,0.41850000000000165 4.5966999999999985,0.41730000000000445 4.5929,0.41320000000000334 4.582699999999999,0.4112000000000009 4.579799999999999,0.4024000000000001 4.5745000000000005,0.3978999999999999 4.564499999999999,0.3984000000000023 4.559899999999999,0.40210000000000434 4.5513999999999974,0.4035000000000011 4.540899999999997,0.40100000000000335 4.537399999999998,0.3971000000000018 4.537099999999999,0.3873000000000033 4.528399999999998,0.3796999999999997 4.523799999999998,0.3790000000000049 4.515599999999999,0.3826000000000036 4.5120000000000005,0.3884000000000043 4.505599999999998,0.3926000000000016 4.502299999999998,0.39280000000000115 4.4975999999999985,0.39870000000000516 4.481399999999997,0.4025999999999996 4.477,0.40680000000000405 4.4655999999999985,0.4117999999999995 4.4498999999999995,0.4222000000000037 4.441699999999997,0.4246000000000052 4.4373000000000005,0.42970000000000397 4.4236,0.43319999999999936 4.411299999999997,0.4339000000000013 4.389399999999998,0.44250000000000256 4.387999999999998,0.44080000000000297 4.384499999999999,0.44140000000000157 4.383299999999998,0.438600000000001 4.3858999999999995,0.43710000000000093 4.3797,0.4335000000000022 4.3842,0.43080000000000496 4.381,0.4265000000000043 4.383099999999999,0.42370000000000374 4.346899999999998,0.3954000000000022 4.332999999999998,0.3944000000000045 4.3142,0.3978000000000037 4.2972,0.4037000000000006 4.2851,0.4100000000000037 4.2821,0.40520000000000067 4.268799999999999,0.410499999999999 4.2653,0.41029999999999944 4.2562999999999995,0.4055000000000035 4.243399999999998,0.42210000000000036 4.200399999999998,0.40279999999999916 4.197099999999999,0.4089999999999989 4.186999999999998,0.40440000000000254 4.184699999999999,0.4047000000000054 4.1709,0.3943000000000012 4.1633,0.386099999999999 4.159499999999998,0.38530000000000086 4.157999999999998,0.3796999999999997 4.152099999999997,0.37890000000000157 4.1530999999999985,0.37760000000000105 4.151699999999998,0.3768999999999991 4.1469999999999985,0.37890000000000157 4.1404,0.37120000000000175 4.136199999999999,0.3751000000000033 4.1373,0.38220000000000454 4.134999999999998,0.3850000000000051 4.1202000000000005,0.37830000000000297 4.1174,0.3841999999999999 4.096799999999998,0.38990000000000435 4.095099999999999,0.3982000000000028 4.067499999999999,0.4147000000000034 4.059999999999999,0.40870000000000317 4.027699999999999,0.3990000000000009 4.020599999999998,0.40210000000000434 4.0173999999999985,0.40630000000000166 4.0059000000000005,0.41040000000000276 3.9925999999999995,0.41960000000000264 3.992099999999997,0.4263000000000048 3.9939,0.42849999999999966 3.988699999999998,0.43250000000000455 3.9802999999999997,0.43030000000000257 3.9721999999999973,0.42370000000000374 3.9514999999999993,0.40050000000000097 3.9487999999999985,0.40279999999999916 3.9431999999999974,0.40340000000000487 3.9285999999999994,0.39920000000000044 3.9223,0.40030000000000143 3.915899999999997,0.4059999999999988 3.9129000000000005,0.4147999999999996 3.911299999999997,0.4276000000000053 3.9060999999999986,0.4310000000000045 3.820599999999999,0.42950000000000443 3.8034999999999997,0.41920000000000357 3.7524999999999977,0.40520000000000067 3.7372999999999976,0.404200000000003 3.7272,0.39620000000000033 3.7026000000000003,0.3825000000000003 3.684899999999999,0.38980000000000103 3.6793999999999976,0.3935999999999993 3.6642999999999972,0.3984000000000023 3.6434999999999995,0.4008000000000038 3.6255999999999986,0.42030000000000456 3.6184999999999974,0.4239000000000033 3.613299999999999,0.42210000000000036 3.605999999999998,0.4239000000000033 3.6008999999999993,0.4265000000000043 3.5976,0.432300000000005 3.5829999999999984,0.44060000000000343 3.5677999999999983,0.4321000000000055 3.543899999999997,0.4416000000000011 3.515599999999999,0.42310000000000514 3.4498999999999995,0.43299999999999983 3.4422999999999995,0.4288999999999987 3.4467,0.4236000000000004 3.412399999999998,0.4023000000000039 3.4018999999999977,0.40620000000000545 3.387999999999998,0.39630000000000365 3.389499999999998,0.38820000000000476 3.4075999999999986,0.3745000000000047 3.4009,0.3696000000000055 3.3796999999999997,0.3628 3.3481999999999985,0.3492999999999995 3.3496999999999986,0.335799999999999 3.334699999999998,0.3295999999999992 3.3120999999999974,0.31400000000000006 3.3043999999999976,0.3083000000000027 3.298099999999998,0.30000000000000426 3.264999999999997,0.28990000000000293 3.2526999999999973,0.3077000000000041 3.1691000000000003,0.2685999999999993 3.182599999999997,0.2535999999999987 3.1606999999999985,0.25019999999999953 3.1300999999999988,0.2533999999999992 3.0975,0.2546000000000035 3.0771999999999977,0.24990000000000379 3.0349000000000004,0.25019999999999953 3.0220999999999982,0.26010000000000133 3.020199999999999,0.2739000000000047 3.0137,0.2869000000000028 2.9960999999999984,0.29050000000000153 2.9804999999999993,0.28580000000000183 2.965399999999999,0.2721000000000018 2.9468999999999994,0.2518999999999991 2.9572000000000003,0.22340000000000515 2.8969999999999985,0.2202000000000055 2.887599999999999,0.2120000000000033 2.882999999999999,0.19770000000000465 2.8725999999999985,0.18830000000000524 2.856399999999997,0.18390000000000128 2.8354999999999997,0.1816000000000031 2.814,0.18700000000000472 2.785399999999999,0.19000000000000483 2.7673999999999985,0.17780000000000484 2.7490999999999985,0.17010000000000502 2.727499999999999,0.16550000000000153 2.697499999999998,0.1634999999999991 2.6904000000000003,0.1524000000000001 2.689799999999998,0.13920000000000243 2.6783,0.13289999999999935 2.6347999999999985,0.15409999999999968 2.6098999999999997,0.16080000000000183 2.5904999999999987,0.16280000000000427 2.544999999999998,0.1536000000000044 2.5391999999999975,0.14939999999999998 2.5218999999999987,0.1255000000000024 2.509499999999999,0.12950000000000017 2.502799999999997,0.12000000000000455 2.4983000000000004,0.10450000000000159 2.4902999999999977,0.09000000000000341 2.4807999999999986,0.07700000000000529 2.4422999999999995,0.05930000000000035 2.460799999999999,0.054400000000001114 2.4427999999999983,0.05239999999999867 2.4323999999999977,0.0438000000000045 2.4079999999999977,0.03480000000000416 2.3824000000000005,0.0472999999999999 2.371699999999997,0.04279999999999973 2.3491999999999997,0.011299999999998533 2.3078000000000003,0.0 2.288599999999999,0.0014000000000038426 2.282499999999999,0.010000000000005116 2.2683,0.020000000000003126 2.245899999999999,0.021999999999998465 2.2330000000000005,0.011500000000005173 2.218399999999999,0.006100000000003547 2.1967999999999996,0.010800000000003251 2.165499999999998,0.013600000000003831 "></polygon>
    </svg>
    