
    <svg width="2.3988999999999976" height="1.5046999999999997" xmlns="http://www.w3.org/2000/svg" xmlns:xlink="http://www.w3.org/1999/xlink" style="transform: scale(1, -1)">
        <polygon points="0.5852000000000004,0.00030000000000285354 0.5838999999999999,0.0 0.582499999999996,0.002200000000001978 0.5858000000000061,0.002500000000001279 0.5852000000000004,0.00030000000000285354 "></polygon><polygon points="0.6188999999999965,0.027000000000001023 0.6176999999999992,0.027000000000001023 0.6171999999999969,0.030300000000000438 0.618300000000005,0.030300000000000438 0.6188999999999965,0.027000000000001023 "></polygon><polygon points="0.9665999999999997,0.8403000000000027 0.9633000000000038,0.8428000000000004 0.9500000000000028,0.8450000000000024 0.9218999999999937,0.8436000000000021 0.9027999999999992,0.839500000000001 0.8585999999999956,0.8220000000000027 0.850200000000001,0.8225000000000016 0.8482999999999947,0.8259000000000007 0.843599999999995,0.8270000000000017 0.8396999999999935,0.8308 0.8354999999999961,0.8314000000000021 0.8332999999999942,0.8347000000000016 0.8297000000000025,0.835600000000003 0.8255000000000052,0.8403000000000027 0.8161000000000058,0.845600000000001 0.8050000000000068,0.8464000000000027 0.8015999999999934,0.8484000000000016 0.7891000000000048,0.847800000000003 0.7690999999999946,0.8428000000000004 0.7650000000000006,0.8414000000000001 0.7650000000000006,0.8378000000000014 0.7625000000000028,0.8425000000000011 0.7505000000000024,0.845600000000001 0.7441000000000031,0.8458000000000006 0.7396999999999991,0.8442000000000007 0.7339000000000055,0.8458000000000006 0.7246999999999986,0.8450000000000024 0.7061000000000064,0.8392000000000017 0.6841000000000008,0.8414000000000001 0.6749999999999972,0.8445 0.662700000000001,0.840600000000002 0.6486000000000018,0.8403000000000027 0.6432999999999964,0.8372000000000028 0.6274999999999977,0.8336000000000006 0.627200000000002,0.8411000000000008 0.6296999999999997,0.8425000000000011 0.6286000000000058,0.8453000000000017 0.6146999999999991,0.8503000000000007 0.6129999999999995,0.8536000000000001 0.6080000000000041,0.8550000000000004 0.6085999999999956,0.8567 0.6036000000000001,0.858900000000002 0.6026999999999987,0.8628 0.5978000000000065,0.8631000000000029 0.5910999999999973,0.8664000000000023 0.5888999999999953,0.8695000000000022 0.582800000000006,0.872200000000003 0.5805000000000007,0.8759000000000015 0.5760999999999967,0.8778000000000006 0.5699999999999932,0.8884000000000007 0.5711000000000013,0.898100000000003 0.5686000000000035,0.9047000000000018 0.5655000000000001,0.9053000000000004 0.5593999999999966,0.910300000000003 0.5489000000000033,0.9133000000000031 0.5404999999999944,0.9208999999999996 0.5364000000000004,0.921400000000002 0.5293999999999954,0.9253 0.5318999999999932,0.9272000000000027 0.5340999999999951,0.9358000000000004 0.5301999999999936,0.9439000000000028 0.5277999999999992,0.9547000000000025 0.5290999999999997,0.9619999999999997 0.5353000000000065,0.970600000000001 0.537700000000001,0.9797000000000011 0.5349999999999966,0.9884000000000022 0.5283000000000015,0.9969999999999999 0.515199999999993,1.0053000000000019 0.5005000000000024,1.0067000000000021 0.4993999999999943,1.0095000000000027 0.49219999999999686,1.0111000000000026 0.490799999999993,1.0139000000000031 0.4877999999999929,1.0147000000000013 0.48499999999999943,1.0134000000000007 0.484099999999998,1.0097000000000023 0.481899999999996,1.0095000000000027 0.479699999999994,1.0145000000000017 0.4736000000000047,1.0161000000000016 0.46580000000000155,1.0152999999999999 0.46049999999999613,1.0136000000000003 0.4586000000000041,1.008300000000002 0.45409999999999684,1.0097000000000023 0.4468999999999994,1.008300000000002 0.44190000000000396,1.0111000000000026 0.4368999999999943,1.0100000000000016 0.4328000000000003,1.0117000000000012 0.43139999999999645,1.0161000000000016 0.42969999999999686,1.0167000000000002 0.4257999999999953,1.0147000000000013 0.42329999999999757,1.0250000000000021 0.41689999999999827,1.0333000000000006 0.417500000000004,1.0427999999999997 0.41270000000000095,1.0486000000000004 0.4035999999999973,1.0545000000000009 0.40219999999999345,1.0580999999999996 0.40389999999999304,1.0580999999999996 0.40519999999999357,1.0645000000000024 0.3966000000000065,1.070800000000002 0.39639999999999986,1.0731000000000002 0.39409999999999457,1.0732999999999997 0.39220000000000255,1.0792000000000002 0.38639999999999475,1.0881000000000007 0.37829999999999586,1.0867000000000004 0.3713999999999942,1.0928000000000004 0.3649999999999949,1.0903000000000027 0.3644000000000034,1.0922000000000018 0.36719999999999686,1.0934000000000026 0.366100000000003,1.0964000000000027 0.3615999999999957,1.0989000000000004 0.35299999999999443,1.1006 0.3526999999999987,1.1021999999999998 0.34969999999999857,1.1021999999999998 0.34250000000000114,1.1072000000000024 0.3422000000000054,1.1092000000000013 0.34439999999999316,1.1109000000000009 0.3430000000000035,1.1134000000000022 0.3440999999999974,1.1205999999999996 0.3405000000000058,1.1270000000000024 0.33610000000000184,1.1311 0.33780000000000143,1.1361000000000026 0.34029999999999916,1.1370000000000005 0.34189999999999543,1.1397000000000013 0.34029999999999916,1.1486000000000018 0.3319000000000045,1.1611000000000011 0.33079999999999643,1.170300000000001 0.31799999999999784,1.1834000000000024 0.30110000000000525,1.1909000000000027 0.28830000000000666,1.1928000000000019 0.2827000000000055,1.1920000000000002 0.28300000000000125,1.1853000000000016 0.2815999999999974,1.184700000000003 0.2758000000000038,1.1883000000000017 0.27249999999999375,1.1925000000000026 0.2640999999999991,1.1939000000000028 0.25159999999999627,1.1911000000000023 0.2510999999999939,1.1891999999999996 0.2446999999999946,1.1900000000000013 0.23439999999999372,1.1864000000000026 0.22910000000000252,1.1903000000000006 0.21330000000000382,1.1889000000000003 0.2113999999999976,1.1942000000000021 0.20720000000000027,1.1961000000000013 0.198599999999999,1.1950000000000003 0.191599999999994,1.1914000000000016 0.1816000000000031,1.1921999999999997 0.16500000000000625,1.1881000000000022 0.1377999999999986,1.1745000000000019 0.12999999999999545,1.1742000000000026 0.12579999999999814,1.1753 0.12279999999999802,1.1803000000000026 0.11660000000000537,1.1814 0.1127999999999929,1.1842000000000006 0.11190000000000566,1.1872000000000007 0.10939999999999372,1.1891999999999996 0.10720000000000596,1.1992000000000012 0.09829999999999472,1.198400000000003 0.0893999999999977,1.2022000000000013 0.0799999999999983,1.2009000000000007 0.07890000000000441,1.1992000000000012 0.07219999999999516,1.1992000000000012 0.045199999999994134,1.2075000000000031 0.011899999999997135,1.2208000000000006 0.011399999999994748,1.2234000000000016 0.007199999999997431,1.2271999999999998 0.007499999999993179,1.2320000000000029 0.0024999999999977263,1.2367000000000026 0.0024999999999977263,1.241100000000003 0.0002000000000066393,1.2439 0.001599999999996271,1.246100000000002 0.0,1.2481000000000009 0.0,1.252200000000002 0.003299999999995862,1.2536000000000023 0.007699999999999818,1.2589000000000006 0.020799999999994156,1.2595000000000027 0.025000000000005684,1.2639000000000031 0.028599999999997294,1.2711000000000006 0.031899999999993156,1.308600000000002 0.030000000000001137,1.3150000000000013 0.025000000000005684,1.3167000000000009 0.02410000000000423,1.3184000000000005 0.024699999999995725,1.3222000000000023 0.02750000000000341,1.3206000000000024 0.031899999999993156,1.3222000000000023 0.033900000000002706,1.3250000000000028 0.034099999999995134,1.3306000000000004 0.03109999999999502,1.334500000000002 0.024699999999995725,1.3328000000000024 0.02360000000000184,1.3375000000000021 0.03359999999999275,1.3500000000000014 0.04080000000000439,1.3525000000000027 0.04970000000000141,1.3491999999999997 0.048900000000003274,1.3422000000000018 0.05329999999999302,1.3411000000000008 0.057800000000000296,1.3425000000000011 0.06109999999999616,1.346700000000002 0.05889999999999418,1.3520000000000003 0.0671999999999997,1.3575000000000017 0.06610000000000582,1.3636000000000017 0.06910000000000593,1.3659 0.07049999999999557,1.3697000000000017 0.06910000000000593,1.3719999999999999 0.07410000000000139,1.3759000000000015 0.0799999999999983,1.376100000000001 0.08159999999999457,1.3728000000000016 0.08780000000000143,1.3731000000000009 0.08889999999999532,1.3753000000000029 0.09250000000000114,1.3747000000000007 0.09720000000000084,1.3686000000000007 0.1016000000000048,1.3703000000000003 0.10269999999999868,1.3766999999999996 0.09609999999999275,1.3847000000000023 0.09940000000000282,1.3906000000000027 0.10139999999999816,1.392000000000003 0.10389999999999588,1.3897000000000013 0.10639999999999361,1.3925000000000018 0.10550000000000637,1.3947000000000003 0.113900000000001,1.3975000000000009 0.11639999999999873,1.3956000000000017 0.11719999999999686,1.3922000000000025 0.11939999999999884,1.3922000000000025 0.1203000000000003,1.3961000000000006 0.11660000000000537,1.3986000000000018 0.11639999999999873,1.4006000000000007 0.12300000000000466,1.4064000000000014 0.12640000000000384,1.407 0.12640000000000384,1.4131 0.1307999999999936,1.4197000000000024 0.13580000000000325,1.4222000000000001 0.1419000000000068,1.4220000000000006 0.14300000000000068,1.4236000000000004 0.14639999999999986,1.4228000000000023 0.14579999999999416,1.4278000000000013 0.14799999999999613,1.4272000000000027 0.14910000000000423,1.4320000000000022 0.15519999999999357,1.4322000000000017 0.15550000000000352,1.4360999999999997 0.1589000000000027,1.4344999999999999 0.16079999999999472,1.4358000000000004 0.16500000000000625,1.4344999999999999 0.17329999999999757,1.4350000000000023 0.17499999999999716,1.4317000000000029 0.17440000000000566,1.4350000000000023 0.17719999999999914,1.4364000000000026 0.1928000000000054,1.434700000000003 0.19440000000000168,1.4328000000000003 0.20220000000000482,1.4330999999999996 0.2032999999999987,1.4311000000000007 0.19830000000000325,1.4267000000000003 0.19830000000000325,1.422500000000003 0.2049999999999983,1.416400000000003 0.2102000000000004,1.4170000000000016 0.2143999999999977,1.421400000000002 0.2150000000000034,1.4250000000000007 0.2113999999999976,1.4295000000000009 0.21280000000000143,1.4334000000000024 0.2150000000000034,1.4342000000000006 0.21330000000000382,1.4384000000000015 0.21529999999999916,1.4378000000000029 0.22159999999999513,1.4411000000000023 0.22639999999999816,1.4403000000000006 0.2283000000000044,1.4425000000000026 0.2372000000000014,1.4400000000000013 0.24250000000000682,1.4405999999999999 0.24439999999999884,1.4372000000000007 0.2510999999999939,1.4353000000000016 0.2600000000000051,1.4356000000000009 0.2586000000000013,1.4311000000000007 0.25969999999999516,1.4281000000000006 0.25799999999999557,1.4253 0.26250000000000284,1.4261000000000017 0.26250000000000284,1.4295000000000009 0.26080000000000325,1.4306000000000019 0.26250000000000284,1.4360999999999997 0.2694000000000045,1.4334000000000024 0.2738999999999976,1.4284 0.27609999999999957,1.4295000000000009 0.2758000000000038,1.4317000000000029 0.27889999999999304,1.432500000000001 0.2886000000000024,1.4289000000000023 0.29049999999999443,1.4317000000000029 0.3019000000000034,1.4317000000000029 0.3066000000000031,1.4344999999999999 0.31799999999999784,1.4317000000000029 0.3218999999999994,1.4342000000000006 0.3272000000000048,1.4328000000000003 0.3369,1.4353000000000016 0.34659999999999513,1.4344999999999999 0.3552999999999997,1.4367000000000019 0.35660000000000025,1.4409000000000027 0.36190000000000566,1.4420000000000002 0.3649999999999949,1.438600000000001 0.37000000000000455,1.4384000000000015 0.37359999999999616,1.4353000000000016 0.37359999999999616,1.4314 0.37659999999999627,1.4292000000000016 0.3824999999999932,1.4292000000000016 0.386099999999999,1.4322000000000017 0.39000000000000057,1.4328000000000003 0.40160000000000196,1.4306000000000019 0.40859999999999275,1.4281000000000006 0.41030000000000655,1.4259000000000022 0.41910000000000025,1.426400000000001 0.4239000000000033,1.4250000000000007 0.4269000000000034,1.427500000000002 0.428600000000003,1.4245000000000019 0.4321999999999946,1.4228000000000023 0.4364000000000061,1.426400000000001 0.43439999999999657,1.4292000000000016 0.4385999999999939,1.4292000000000016 0.4341000000000008,1.4360999999999997 0.428600000000003,1.4370000000000012 0.4274999999999949,1.4353000000000016 0.426400000000001,1.4375 0.4257999999999953,1.4342000000000006 0.4222000000000037,1.4328000000000003 0.4247000000000014,1.4364000000000026 0.4235999999999933,1.4381000000000022 0.4183000000000021,1.4370000000000012 0.417199999999994,1.438600000000001 0.4252999999999929,1.4450000000000003 0.42549999999999955,1.4466999999999999 0.4294000000000011,1.4464000000000006 0.43019999999999925,1.444700000000001 0.4239000000000033,1.4389000000000003 0.4316000000000031,1.4395000000000024 0.43359999999999843,1.4439000000000028 0.43890000000000384,1.4421999999999997 0.44360000000000355,1.445800000000002 0.44410000000000593,1.4492000000000012 0.441599999999994,1.454500000000003 0.4428000000000054,1.4561000000000028 0.4385999999999939,1.4586000000000006 0.4375,1.4631000000000007 0.44360000000000355,1.4753000000000007 0.4444000000000017,1.4808000000000021 0.448599999999999,1.4820000000000029 0.45300000000000296,1.4856000000000016 0.46410000000000196,1.488900000000001 0.46639999999999304,1.4914000000000023 0.4761000000000024,1.4931000000000019 0.47860000000000014,1.4985999999999997 0.4843999999999937,1.4967000000000006 0.4894000000000034,1.5003000000000029 0.4983000000000004,1.4997000000000007 0.5121999999999929,1.5036000000000023 0.5160999999999945,1.502200000000002 0.520300000000006,1.5045000000000002 0.5254999999999939,1.5028000000000006 0.5327999999999946,1.5046999999999997 0.5566000000000031,1.503300000000003 0.5608000000000004,1.501100000000001 0.573599999999999,1.4989000000000026 0.5814000000000021,1.5 0.5863999999999976,1.4981000000000009 0.5866000000000042,1.4967000000000006 0.5999999999999943,1.496100000000002 0.6132999999999953,1.4920000000000009 0.6260999999999939,1.4928000000000026 0.6363999999999947,1.4897000000000027 0.6432999999999964,1.490000000000002 0.6535999999999973,1.4867000000000026 0.6636000000000024,1.4775000000000027 0.669700000000006,1.4756 0.6701999999999941,1.4736000000000011 0.6718999999999937,1.4739000000000004 0.6749999999999972,1.4708000000000006 0.6769000000000034,1.4714000000000027 0.6865999999999985,1.4664000000000001 0.691599999999994,1.4731000000000023 0.6828000000000003,1.4722000000000008 0.6761000000000053,1.475800000000003 0.7005000000000052,1.476700000000001 0.703000000000003,1.4739000000000004 0.7065999999999946,1.4770000000000003 0.7155000000000058,1.476700000000001 0.7214000000000027,1.4670000000000023 0.7326999999999941,1.4619999999999997 0.7436000000000007,1.4642000000000017 0.743300000000005,1.466700000000003 0.7394000000000034,1.4684000000000026 0.7382999999999953,1.470600000000001 0.7316000000000003,1.4686000000000021 0.7288999999999959,1.4710999999999999 0.7293999999999983,1.4722000000000008 0.7339000000000055,1.4710999999999999 0.7364000000000033,1.4733000000000018 0.740799999999993,1.4733000000000018 0.7463999999999942,1.4692000000000007 0.7514000000000038,1.4695 0.7616000000000014,1.4633000000000003 0.7686000000000064,1.4639000000000024 0.769999999999996,1.466700000000003 0.7733000000000061,1.4680999999999997 0.7797000000000054,1.4670000000000023 0.7861000000000047,1.4703000000000017 0.8066000000000031,1.4684000000000026 0.8144000000000062,1.471700000000002 0.8294000000000068,1.4697000000000031 0.8314000000000021,1.466700000000003 0.8440999999999974,1.4628000000000014 0.8575000000000017,1.4628000000000014 0.8649999999999949,1.465600000000002 0.868300000000005,1.4609000000000023 0.8735999999999962,1.4592000000000027 0.8816000000000059,1.4588999999999999 0.8843999999999994,1.4611000000000018 0.8880000000000052,1.460600000000003 0.8897000000000048,1.4633000000000003 0.9051999999999936,1.4603000000000002 0.9099999999999966,1.4567000000000014 0.9107999999999947,1.450800000000001 0.9136000000000024,1.4511000000000003 0.9136000000000024,1.4486000000000026 0.917199999999994,1.4497 0.9183000000000021,1.4556000000000004 0.9201999999999941,1.4578000000000024 0.930499999999995,1.4597000000000016 0.9364000000000061,1.4581000000000017 0.9438999999999993,1.4527999999999999 0.9525000000000006,1.4506000000000014 0.9544000000000068,1.4482999999999997 0.9549999999999983,1.4414000000000016 0.9594000000000023,1.4421999999999997 0.9599999999999937,1.4391999999999996 0.9690999999999974,1.4411000000000023 0.9697000000000031,1.4439000000000028 0.9658000000000015,1.4489000000000019 0.9675000000000011,1.4506000000000014 0.972999999999999,1.4506000000000014 0.979699999999994,1.4470000000000027 0.9855000000000018,1.4475000000000016 0.9872000000000014,1.4492000000000012 0.9938999999999965,1.4492000000000012 1.0069000000000017,1.4411000000000023 1.0139000000000067,1.4411000000000023 1.015500000000003,1.439700000000002 1.0160999999999945,1.4417000000000009 1.0219000000000023,1.4436 1.0464000000000055,1.4439000000000028 1.0521999999999991,1.4506000000000014 1.0575000000000045,1.4531000000000027 1.0635999999999939,1.4492000000000012 1.077699999999993,1.4481000000000002 1.0819000000000045,1.4464000000000006 1.0866000000000042,1.4470000000000027 1.0900000000000034,1.444700000000001 1.097999999999999,1.4442000000000021 1.100200000000001,1.445800000000002 1.1066000000000003,1.4414000000000016 1.110200000000006,1.4420000000000002 1.112799999999993,1.4395000000000024 1.118300000000005,1.4414000000000016 1.1203000000000003,1.4405999999999999 1.1204999999999927,1.4384000000000015 1.1326999999999998,1.4384000000000015 1.142799999999994,1.4334000000000024 1.1457999999999942,1.4344999999999999 1.1474999999999937,1.4330999999999996 1.1454999999999984,1.4322000000000017 1.145300000000006,1.4281000000000006 1.1477000000000004,1.4253 1.1614000000000004,1.4247000000000014 1.1661000000000001,1.4183000000000021 1.1691000000000003,1.4181000000000026 1.1744000000000057,1.4206000000000003 1.1801999999999992,1.420300000000001 1.1800000000000068,1.4228000000000023 1.1821999999999946,1.4242000000000026 1.1860999999999962,1.4220000000000006 1.1877000000000066,1.4231000000000016 1.191599999999994,1.4222000000000001 1.1954999999999956,1.4197000000000024 1.198599999999999,1.4197000000000024 1.2000000000000028,1.4146999999999998 1.2065999999999946,1.410300000000003 1.2104999999999961,1.4053000000000004 1.214100000000002,1.4061000000000021 1.2180000000000035,1.4024999999999999 1.2266000000000048,1.4017000000000017 1.2279999999999944,1.3986000000000018 1.2313999999999936,1.397000000000002 1.2357999999999976,1.398100000000003 1.2436000000000007,1.3950000000000031 1.2453000000000003,1.3925000000000018 1.2539000000000016,1.3914000000000009 1.2569000000000017,1.3870000000000005 1.2583000000000055,1.3872 1.2583000000000055,1.3892000000000024 1.2608000000000033,1.3878000000000021 1.2630000000000052,1.3895000000000017 1.2625000000000028,1.392000000000003 1.2640999999999991,1.3933999999999997 1.2783000000000015,1.3936000000000028 1.2883000000000067,1.392000000000003 1.2918999999999983,1.3950000000000031 1.2974999999999994,1.3953000000000024 1.296599999999998,1.398100000000003 1.297700000000006,1.3986000000000018 1.2997000000000014,1.397000000000002 1.3027000000000015,1.3989000000000011 1.3132999999999981,1.3984000000000023 1.3149999999999977,1.402000000000001 1.319100000000006,1.4014000000000024 1.3228000000000009,1.4039000000000001 1.3307999999999964,1.4000000000000021 1.3341000000000065,1.4006000000000007 1.3388999999999953,1.3984000000000023 1.341399999999993,1.3994999999999997 1.347999999999999,1.3986000000000018 1.3494000000000028,1.3945000000000007 1.3555000000000064,1.3895000000000017 1.3589000000000055,1.3895000000000017 1.3597000000000037,1.3928000000000011 1.3629999999999995,1.3933 1.3897000000000048,1.3853000000000009 1.4051999999999936,1.3867000000000012 1.4115999999999929,1.3814000000000028 1.4180000000000064,1.3831000000000024 1.419700000000006,1.3867000000000012 1.4218999999999937,1.3867000000000012 1.421599999999998,1.3881000000000014 1.419399999999996,1.3881000000000014 1.4207999999999998,1.3900000000000006 1.4271999999999991,1.392000000000003 1.4296999999999969,1.3945000000000007 1.441900000000004,1.3956000000000017 1.4544000000000068,1.3947000000000003 1.460800000000006,1.3922000000000025 1.4638999999999953,1.3936000000000028 1.4724999999999966,1.3928000000000011 1.4791000000000025,1.3895000000000017 1.481899999999996,1.3853000000000009 1.4825000000000017,1.3780999999999999 1.4744000000000028,1.3708000000000027 1.4739000000000004,1.3653000000000013 1.4769000000000005,1.3625000000000007 1.4754999999999967,1.360000000000003 1.479699999999994,1.3597000000000001 1.4763999999999982,1.3561000000000014 1.4766000000000048,1.353900000000003 1.4860999999999933,1.3481000000000023 1.491100000000003,1.3489000000000004 1.4904999999999973,1.351700000000001 1.4943999999999988,1.3536000000000001 1.494100000000003,1.3506 1.4980000000000047,1.3486000000000011 1.4993999999999943,1.3453000000000017 1.504099999999994,1.345600000000001 1.5061000000000035,1.3428000000000004 1.508899999999997,1.3422000000000018 1.5083000000000055,1.3397000000000006 1.5104999999999933,1.3399999999999999 1.5150000000000006,1.3350000000000009 1.5194000000000045,1.3342000000000027 1.5251999999999981,1.329500000000003 1.5250000000000057,1.3267000000000024 1.5271999999999935,1.3259000000000007 1.5280000000000058,1.3283000000000023 1.5301999999999936,1.3286000000000016 1.5327000000000055,1.3220000000000027 1.5353000000000065,1.3222000000000023 1.5438999999999936,1.315800000000003 1.5541000000000054,1.3120000000000012 1.5608000000000004,1.3128000000000029 1.5610999999999962,1.3103000000000016 1.5635999999999939,1.308600000000002 1.5614000000000061,1.3056000000000019 1.566900000000004,1.3028000000000013 1.5644000000000062,1.2981000000000016 1.5583000000000027,1.2936000000000014 1.5661000000000058,1.290300000000002 1.5696999999999974,1.2858000000000018 1.569100000000006,1.284200000000002 1.5729999999999933,1.282 1.5729999999999933,1.2797000000000018 1.5755000000000052,1.2772000000000006 1.5755000000000052,1.2681000000000004 1.5785999999999945,1.2617000000000012 1.5896999999999935,1.2506000000000022 1.5932999999999993,1.25 1.5960999999999927,1.2520000000000024 1.6025000000000063,1.2525000000000013 1.6055000000000064,1.2553000000000019 1.6115999999999957,1.2545000000000002 1.619100000000003,1.2595000000000027 1.631600000000006,1.2497000000000007 1.6371999999999929,1.2503000000000029 1.6430000000000007,1.2447000000000017 1.6474999999999937,1.2431000000000019 1.6513999999999953,1.2439 1.6543999999999954,1.2481000000000009 1.6599999999999966,1.2516999999999996 1.669399999999996,1.246100000000002 1.6833000000000027,1.2467000000000006 1.6880000000000024,1.2447000000000017 1.691599999999994,1.238900000000001 1.6979999999999933,1.235000000000003 1.702699999999993,1.2245000000000026 1.7065999999999946,1.2200000000000024 1.7138999999999953,1.2161000000000008 1.7197000000000031,1.209500000000002 1.7246999999999986,1.2070000000000007 1.738900000000001,1.2067000000000014 1.744100000000003,1.2088999999999999 1.7460999999999984,1.2078000000000024 1.7586000000000013,1.2083000000000013 1.7630000000000052,1.2114000000000011 1.7686000000000064,1.2117000000000004 1.7716000000000065,1.2149999999999999 1.7835999999999927,1.1995000000000005 1.7857999999999947,1.1986000000000026 1.7930000000000064,1.1875 1.7989000000000033,1.183600000000002 1.8110999999999962,1.183600000000002 1.8152999999999935,1.1808000000000014 1.821399999999997,1.1795000000000009 1.8260999999999967,1.1811000000000007 1.8272000000000048,1.1853000000000016 1.8311000000000064,1.1870000000000012 1.8336000000000041,1.1864000000000026 1.8415999999999997,1.1778000000000013 1.8499999999999943,1.1759000000000022 1.8555000000000064,1.1817000000000029 1.8605000000000018,1.1799999999999997 1.8605000000000018,1.182500000000001 1.8652000000000015,1.1828000000000003 1.8666000000000054,1.1864000000000026 1.8708000000000027,1.1864000000000026 1.8733000000000004,1.1881000000000022 1.8777999999999935,1.1864000000000026 1.888300000000001,1.1872000000000007 1.8910999999999945,1.1853000000000016 1.8930000000000007,1.1803000000000026 1.8969000000000023,1.1778000000000013 1.8986000000000018,1.1708999999999996 1.9021999999999935,1.1700000000000017 1.9035999999999973,1.164200000000001 1.9090999999999951,1.1646999999999998 1.9115999999999929,1.1609000000000016 1.9154999999999944,1.159200000000002 1.9154999999999944,1.1631 1.9201999999999941,1.1646999999999998 1.9183000000000021,1.1600000000000001 1.9214000000000055,1.1567000000000007 1.925299999999993,1.157 1.928299999999993,1.159200000000002 1.928600000000003,1.1634000000000029 1.925299999999993,1.1650000000000027 1.9249999999999972,1.1672000000000011 1.9261000000000053,1.1689000000000007 1.9279999999999973,1.1675000000000004 1.9300000000000068,1.1689000000000007 1.9288999999999987,1.1661000000000001 1.9325000000000045,1.1656000000000013 1.9333000000000027,1.1639000000000017 1.9458000000000055,1.1646999999999998 1.950800000000001,1.1597000000000008 1.9468999999999994,1.1561000000000021 1.9471999999999952,1.154200000000003 1.9493999999999971,1.1536000000000008 1.9522000000000048,1.1583000000000006 1.957499999999996,1.158100000000001 1.9594000000000023,1.1614000000000004 1.9611000000000018,1.1611000000000011 1.9602000000000004,1.1583000000000006 1.9652999999999992,1.153100000000002 1.966399999999993,1.1583000000000006 1.971900000000005,1.1558000000000028 1.9763999999999982,1.159200000000002 1.9758000000000067,1.1564000000000014 1.9739000000000004,1.1553000000000004 1.975200000000001,1.153100000000002 1.9805000000000064,1.1534000000000013 1.9847000000000037,1.1508000000000003 1.9857999999999976,1.1547000000000018 1.987799999999993,1.154200000000003 1.987799999999993,1.152000000000001 1.9919000000000011,1.1545000000000023 1.993300000000005,1.1500000000000021 1.9968999999999966,1.1524999999999999 2.0091000000000037,1.1486000000000018 2.0130000000000052,1.1450000000000031 2.0150000000000006,1.1387 2.017799999999994,1.1384000000000007 2.0160999999999945,1.1345000000000027 2.0186000000000064,1.1325000000000003 2.0244,1.1331000000000024 2.0271999999999935,1.135900000000003 2.0285999999999973,1.1345000000000027 2.031899999999993,1.1353000000000009 2.0349999999999966,1.1325000000000003 2.034099999999995,1.1300000000000026 2.0364000000000004,1.1295000000000002 2.037700000000001,1.1253000000000029 2.0361000000000047,1.1113999999999997 2.041399999999996,1.1070000000000029 2.049999999999997,1.1058000000000021 2.0519000000000034,1.101700000000001 2.0507999999999953,1.0899999999999999 2.052199999999999,1.0850000000000009 2.054699999999997,1.0820000000000007 2.0575000000000045,1.0814000000000021 2.0571999999999946,1.0781000000000027 2.0625,1.0759000000000007 2.066599999999994,1.0686 2.0688999999999993,1.0681000000000012 2.0718999999999994,1.0631000000000022 2.076899999999995,1.0592000000000006 2.076899999999995,1.0564 2.0805000000000007,1.0539000000000023 2.080299999999994,1.0509000000000022 2.0841000000000065,1.0495000000000019 2.0849999999999937,1.0467000000000013 2.083600000000004,1.0458999999999996 2.0869,1.0442 2.0863999999999976,1.0375000000000014 2.0893999999999977,1.0370000000000026 2.0896999999999935,1.0317000000000007 2.096900000000005,1.0278000000000027 2.0982999999999947,1.0156000000000027 2.096599999999995,1.0152999999999999 2.094700000000003,1.0197000000000003 2.0922000000000054,1.0206000000000017 2.0908000000000015,1.0197000000000003 2.0915999999999997,1.0142000000000024 2.090500000000006,1.0128000000000021 2.0940999999999974,1.0136000000000003 2.099400000000003,1.0103000000000009 2.100200000000001,1.0036000000000023 2.097999999999999,1.0028000000000006 2.099099999999993,0.9967000000000006 2.097200000000001,0.996100000000002 2.0974999999999966,0.9945000000000022 2.1033000000000044,0.9959000000000024 2.1019000000000005,0.990000000000002 2.1114000000000033,0.9831000000000003 2.1107999999999976,0.9784000000000006 2.1132999999999953,0.978900000000003 2.1203000000000003,0.9739000000000004 2.117999999999995,0.9710999999999999 2.121399999999994,0.9680999999999997 2.1255000000000024,0.9597000000000016 2.1303000000000054,0.9564000000000021 2.134699999999995,0.9570000000000007 2.1377999999999986,0.9553000000000011 2.1377999999999986,0.9536000000000016 2.1336000000000013,0.9500000000000028 2.1363999999999947,0.9434000000000005 2.1341000000000037,0.9409000000000027 2.1343999999999994,0.9367000000000019 2.1321999999999974,0.9322000000000017 2.1358000000000033,0.922500000000003 2.146100000000004,0.9146999999999998 2.1540999999999997,0.9139000000000017 2.1677999999999997,0.9159000000000006 2.1744000000000057,0.910300000000003 2.1747000000000014,0.9034000000000013 2.176400000000001,0.9003000000000014 2.1850000000000023,0.8994999999999997 2.1875,0.8925000000000018 2.1847000000000065,0.8867000000000012 2.181600000000003,0.8884000000000007 2.1779999999999973,0.8872 2.177499999999995,0.8839000000000006 2.1811000000000007,0.8820000000000014 2.1801999999999992,0.8800000000000026 2.175299999999993,0.8796999999999997 2.1611000000000047,0.8870000000000005 2.153000000000006,0.8836000000000013 2.143900000000002,0.883300000000002 2.139099999999999,0.8789000000000016 2.1354999999999933,0.8719999999999999 2.1299999999999955,0.870000000000001 2.125,0.871100000000002 2.1152000000000015,0.870000000000001 2.1129999999999995,0.8689 2.1085999999999956,0.8611000000000004 2.1041000000000025,0.8597000000000001 2.0996999999999986,0.8592000000000013 2.0978000000000065,0.8636000000000017 2.0875000000000057,0.8634000000000022 2.0829999999999984,0.8611000000000004 2.0805000000000007,0.857800000000001 2.074399999999997,0.8561000000000014 2.0688999999999993,0.8500000000000014 2.0615999999999985,0.8509000000000029 2.0605000000000047,0.8484000000000016 2.0538999999999987,0.8491999999999997 2.0511000000000053,0.8481000000000023 2.0490999999999957,0.8497000000000021 2.0504999999999995,0.8525000000000027 2.047700000000006,0.853900000000003 2.0494000000000057,0.8552999999999997 2.0529999999999973,0.8674999999999997 2.0527000000000015,0.870000000000001 2.0504999999999995,0.8714000000000013 2.0464000000000055,0.8681000000000019 2.0383000000000067,0.8658999999999999 2.034400000000005,0.8625000000000007 2.033299999999997,0.8575000000000017 2.0339000000000027,0.853900000000003 2.0364000000000004,0.8514000000000017 2.0361000000000047,0.8475000000000001 2.034700000000001,0.846700000000002 2.0364000000000004,0.8436000000000021 2.0297000000000054,0.8458000000000006 2.0301999999999936,0.8445 2.028899999999993,0.8445 2.0275000000000034,0.8414000000000001 2.0297000000000054,0.8414000000000001 2.031400000000005,0.8389000000000024 2.026600000000002,0.8392000000000017 2.025499999999994,0.8411000000000008 2.0227000000000004,0.840600000000002 2.0227000000000004,0.8383000000000003 2.020300000000006,0.8397000000000006 2.018900000000002,0.8389000000000024 2.0174999999999983,0.841700000000003 2.018900000000002,0.8414000000000001 2.019999999999996,0.8439000000000014 2.0182999999999964,0.8458000000000006 2.0019000000000062,0.8497000000000021 1.9950000000000045,0.8489000000000004 1.9938999999999965,0.8521999999999998 1.9899999999999949,0.8545000000000016 1.981899999999996,0.8552999999999997 1.9732999999999947,0.8603000000000023 1.9675000000000011,0.8609000000000009 1.9569000000000045,0.8583999999999996 1.9522000000000048,0.8547000000000011 1.9428000000000054,0.8542000000000023 1.9350000000000023,0.8509000000000029 1.9271999999999991,0.8506 1.9235999999999933,0.8534000000000006 1.9080000000000013,0.8506 1.8996999999999957,0.8520000000000003 1.8893999999999949,0.8460999999999999 1.8747000000000043,0.846700000000002 1.859099999999998,0.833400000000001 1.855000000000004,0.8342000000000027 1.8447000000000031,0.8300000000000018 1.839100000000002,0.829500000000003 1.8319000000000045,0.8314000000000021 1.8275000000000006,0.8361000000000018 1.8241000000000014,0.8361000000000018 1.825800000000001,0.8425000000000011 1.821399999999997,0.8470000000000013 1.8122000000000043,0.8491999999999997 1.8068999999999988,0.8481000000000023 1.803299999999993,0.852800000000002 1.7990999999999957,0.852800000000002 1.797700000000006,0.8509000000000029 1.7913999999999959,0.8514000000000017 1.7883000000000067,0.8497000000000021 1.7805000000000035,0.8503000000000007 1.7750000000000057,0.847800000000003 1.7627999999999986,0.8506 1.7557999999999936,0.8558000000000021 1.7530000000000001,0.8603000000000023 1.7507999999999981,0.870000000000001 1.740799999999993,0.8861000000000026 1.7349999999999994,0.8911000000000016 1.730000000000004,0.8933 1.7288999999999959,0.8925000000000018 1.7291000000000025,0.8939000000000021 1.7246999999999986,0.8975000000000009 1.7244000000000028,0.9006000000000007 1.7176999999999936,0.9055999999999997 1.714100000000002,0.9109000000000016 1.707800000000006,0.9122000000000021 1.7079999999999984,0.914200000000001 1.7055000000000007,0.9170000000000016 1.6996999999999929,0.9181000000000026 1.6983000000000033,0.9197000000000024 1.6885999999999939,0.9172000000000011 1.680800000000005,0.9181000000000026 1.6794000000000011,0.921400000000002 1.671599999999998,0.9220000000000006 1.667199999999994,0.927500000000002 1.662700000000001,0.9283000000000001 1.6565999999999974,0.9272000000000027 1.6550000000000011,0.9256000000000029 1.6354999999999933,0.9222000000000001 1.6321999999999974,0.920300000000001 1.6171999999999969,0.9238999999999997 1.6110999999999933,0.9234000000000009 1.6004999999999967,0.9159000000000006 1.5915999999999997,0.907 1.5883000000000038,0.9085999999999999 1.5854999999999961,0.907 1.5704999999999956,0.9146999999999998 1.5627000000000066,0.9136000000000024 1.5597000000000065,0.9170000000000016 1.5507999999999953,0.9159000000000006 1.5349999999999966,0.9183000000000021 1.5315999999999974,0.9172000000000011 1.5285999999999973,0.9120000000000026 1.5229999999999961,0.9122000000000021 1.522199999999998,0.9139000000000017 1.5250000000000057,0.9159000000000006 1.5254999999999939,0.9192 1.5322000000000031,0.922500000000003 1.5365999999999929,0.9211000000000027 1.5391000000000048,0.922500000000003 1.5330000000000013,0.9253 1.5330000000000013,0.927500000000002 1.5411000000000001,0.927500000000002 1.5441000000000003,0.9236000000000004 1.5438999999999936,0.9208999999999996 1.547700000000006,0.9183000000000021 1.5490999999999957,0.9192 1.544399999999996,0.9211000000000027 1.544399999999996,0.9228000000000023 1.5527000000000015,0.9208999999999996 1.5544000000000011,0.9192 1.5563999999999965,0.9197000000000024 1.5541000000000054,0.9208999999999996 1.5568999999999988,0.9208999999999996 1.5614000000000061,0.9170000000000016 1.5696999999999974,0.9170000000000016 1.5728000000000009,0.914200000000001 1.578000000000003,0.914200000000001 1.5844000000000023,0.9097000000000008 1.585800000000006,0.9116999999999997 1.569100000000006,0.9177999999999997 1.5694000000000017,0.9208999999999996 1.5716000000000037,0.9217000000000013 1.5863999999999976,0.9161000000000001 1.5883000000000038,0.9208999999999996 1.5866000000000042,0.9267000000000003 1.5905000000000058,0.9236000000000004 1.597999999999999,0.9269999999999996 1.605000000000004,0.9242000000000026 1.6166000000000054,0.9247000000000014 1.631600000000006,0.9217000000000013 1.6457999999999942,0.9267000000000003 1.6463999999999999,0.9295000000000009 1.6439000000000021,0.9309000000000012 1.6415999999999968,0.9375 1.6371999999999929,0.9400000000000013 1.6358000000000033,0.9431000000000012 1.6329999999999956,0.9421999999999997 1.6289000000000016,0.9475000000000016 1.625,0.9475000000000016 1.6239000000000061,0.9456000000000024 1.6240999999999985,0.9475000000000016 1.6222000000000065,0.9481000000000002 1.617999999999995,0.9466999999999999 1.6119000000000057,0.9478000000000009 1.6097000000000037,0.945800000000002 1.5952999999999946,0.945800000000002 1.5922000000000054,0.9434000000000005 1.5655000000000001,0.9439000000000028 1.5588999999999942,0.9478000000000009 1.5563999999999965,0.9522000000000013 1.5515999999999934,0.9511000000000003 1.547700000000006,0.9533000000000023 1.5490999999999957,0.9572000000000003 1.5438999999999936,0.9581000000000017 1.5386000000000024,0.9639000000000024 1.5324999999999989,0.9678000000000004 1.531400000000005,0.9633000000000003 1.537700000000001,0.9603000000000002 1.5408000000000044,0.9556000000000004 1.5388999999999982,0.9531000000000027 1.5357999999999947,0.9539000000000009 1.5330000000000013,0.9588999999999999 1.5277999999999992,0.9588999999999999 1.5285999999999973,0.9675000000000011 1.5339000000000027,0.9741999999999997 1.5335999999999927,0.9761000000000024 1.5238999999999976,0.9771999999999998 1.5244,0.9814000000000007 1.5229999999999961,0.982800000000001 1.5216000000000065,0.9739000000000004 1.519999999999996,0.9747000000000021 1.5197000000000003,0.9725000000000001 1.5160999999999945,0.9708000000000006 1.5135999999999967,0.9649999999999999 1.5086000000000013,0.9642000000000017 1.5116000000000014,0.9592000000000027 1.5091000000000037,0.9578000000000024 1.5071999999999974,0.9514000000000031 1.5100000000000051,0.9492000000000012 1.5164000000000044,0.9481000000000002 1.5260999999999996,0.9531000000000027 1.5271999999999935,0.9564000000000021 1.5293999999999954,0.9550000000000018 1.5290999999999997,0.9533000000000023 1.5169000000000068,0.9461000000000013 1.523300000000006,0.9470000000000027 1.5229999999999961,0.945800000000002 1.5118999999999971,0.9431000000000012 1.5027999999999935,0.9372000000000007 1.4950000000000045,0.9297000000000004 1.497799999999998,0.9208999999999996 1.490799999999993,0.908100000000001 1.492999999999995,0.8975000000000009 1.4921999999999969,0.8961000000000006 1.4894000000000034,0.897000000000002 1.4839000000000055,0.8884000000000007 1.4766000000000048,0.882200000000001 1.4766000000000048,0.8766999999999996 1.4728000000000065,0.8756000000000022 1.4732999999999947,0.8705999999999996 1.4680000000000035,0.8664000000000023 1.4690999999999974,0.8634000000000022 1.4660999999999973,0.8606000000000016 1.4658000000000015,0.8558000000000021 1.4613999999999976,0.8536000000000001 1.4616000000000042,0.8495000000000026 1.4594000000000023,0.8453000000000017 1.455299999999994,0.845600000000001 1.4535999999999945,0.8442000000000007 1.4502999999999986,0.8369999999999997 1.4436000000000035,0.8292000000000002 1.441599999999994,0.8289000000000009 1.4421999999999997,0.8277999999999999 1.4291000000000054,0.8250000000000028 1.4191000000000003,0.8184000000000005 1.4124999999999943,0.8170000000000002 1.4043999999999954,0.819700000000001 1.4003000000000014,0.8303000000000011 1.395300000000006,0.8322000000000003 1.3866000000000014,0.8275000000000006 1.3875000000000028,0.823400000000003 1.3893999999999949,0.8228000000000009 1.3880000000000052,0.8206000000000024 1.3821999999999974,0.8250000000000028 1.3755000000000024,0.8225000000000016 1.375,0.8202999999999996 1.3710999999999984,0.8206000000000024 1.3654999999999973,0.8277999999999999 1.3585999999999956,0.8328000000000024 1.3425000000000011,0.8320000000000007 1.3319000000000045,0.8247 1.3289000000000044,0.8247 1.3275000000000006,0.8281000000000027 1.3290999999999968,0.8314000000000021 1.3268999999999949,0.834500000000002 1.328000000000003,0.8369999999999997 1.3265999999999991,0.8375000000000021 1.3294000000000068,0.8386000000000031 1.3299999999999983,0.840600000000002 1.3265999999999991,0.8464000000000027 1.3315999999999946,0.845600000000001 1.3319000000000045,0.841700000000003 1.3332999999999942,0.841700000000003 1.3349999999999937,0.8430999999999997 1.3349999999999937,0.8511000000000024 1.3375000000000057,0.8511000000000024 1.3402999999999992,0.8453000000000017 1.3400000000000034,0.8484000000000016 1.3422000000000054,0.8511000000000024 1.3415999999999997,0.8558000000000021 1.335800000000006,0.8689 1.3315999999999946,0.8703000000000003 1.3268999999999949,0.8759000000000015 1.3246999999999929,0.875 1.3161000000000058,0.8853000000000009 1.3132999999999981,0.8850000000000016 1.3108000000000004,0.8875000000000028 1.3044000000000011,0.8856000000000002 1.3021999999999991,0.8811 1.2985999999999933,0.8806000000000012 1.2964000000000055,0.883300000000002 1.2957999999999998,0.8906000000000027 1.2913999999999959,0.8922000000000025 1.284400000000005,0.8857999999999997 1.2861000000000047,0.8786000000000023 1.2785999999999973,0.8786000000000023 1.2763999999999953,0.8803000000000019 1.2758000000000038,0.8841999999999999 1.2713999999999999,0.8836000000000013 1.263300000000001,0.8784000000000027 1.2625000000000028,0.8747000000000007 1.2608000000000033,0.8780999999999999 1.2468999999999966,0.8766999999999996 1.2390999999999934,0.8709000000000024 1.2396999999999991,0.8686000000000007 1.2357999999999976,0.8686000000000007 1.2347000000000037,0.8667000000000016 1.2357999999999976,0.8634000000000022 1.2326999999999941,0.8653000000000013 1.2199999999999989,0.8521999999999998 1.218599999999995,0.8495000000000026 1.218599999999995,0.8420000000000023 1.216399999999993,0.8420000000000023 1.2150000000000034,0.839500000000001 1.214100000000002,0.8283000000000023 1.2055000000000007,0.8175000000000026 1.2072000000000003,0.8128000000000029 1.2065999999999946,0.8094999999999999 1.2094000000000023,0.8072000000000017 1.2133000000000038,0.8078000000000003 1.2143999999999977,0.8058000000000014 1.2135999999999996,0.8047000000000004 1.207499999999996,0.8053000000000026 1.2069000000000045,0.803600000000003 1.2165999999999997,0.7992000000000026 1.218599999999995,0.8006000000000029 1.221900000000005,0.7992000000000026 1.2288999999999959,0.7997000000000014 1.2271999999999963,0.7961000000000027 1.2283000000000044,0.7927999999999997 1.2261000000000024,0.7917000000000023 1.2222000000000008,0.7931000000000026 1.222999999999999,0.7950000000000017 1.2210999999999927,0.7978000000000023 1.2165999999999997,0.797500000000003 1.210800000000006,0.8000000000000007 1.2061000000000064,0.7978000000000023 1.210800000000006,0.7984000000000009 1.2155000000000058,0.795300000000001 1.220799999999997,0.7956000000000003 1.2210999999999927,0.7939000000000007 1.2150000000000034,0.7939000000000007 1.2099999999999937,0.7970000000000006 1.2044000000000068,0.7967000000000013 1.2015999999999991,0.7981000000000016 1.1983000000000033,0.7970000000000006 1.1949999999999932,0.7896999999999998 1.1954999999999956,0.7822000000000031 1.2086000000000041,0.7717000000000027 1.1988999999999947,0.7652999999999999 1.1938999999999993,0.7656000000000027 1.1929999999999978,0.7611000000000026 1.1951999999999998,0.7625000000000028 1.1949999999999932,0.7650000000000006 1.1993999999999971,0.7639000000000031 1.2002999999999986,0.760900000000003 1.2055000000000007,0.7561 1.207499999999996,0.7564000000000028 1.209699999999998,0.7525000000000013 1.2119,0.7528000000000006 1.2133000000000038,0.7509000000000015 1.2197000000000031,0.7514000000000003 1.220799999999997,0.7497000000000007 1.230000000000004,0.7467000000000006 1.230000000000004,0.7439 1.225200000000001,0.7394999999999996 1.2240999999999929,0.7331000000000003 1.2355000000000018,0.7247000000000021 1.242999999999995,0.721700000000002 1.2436000000000007,0.7128000000000014 1.2413999999999987,0.7109000000000023 1.2416000000000054,0.7061000000000028 1.2402000000000015,0.7039000000000009 1.2308000000000021,0.694700000000001 1.2202999999999946,0.688600000000001 1.2047000000000025,0.6853000000000016 1.1905000000000001,0.6860999999999997 1.1833000000000027,0.6881000000000022 1.175299999999993,0.6928000000000019 1.167500000000004,0.6939000000000028 1.1633000000000067,0.6975000000000016 1.1551999999999936,0.7009000000000007 1.1547000000000054,0.7031000000000027 1.1500000000000057,0.704500000000003 1.1419000000000068,0.7153000000000027 1.133899999999997,0.720600000000001 1.1319000000000017,0.7203000000000017 1.1296999999999997,0.7234000000000016 1.1163999999999987,0.7234000000000016 1.1188999999999965,0.728900000000003 1.1166000000000054,0.7331000000000003 1.1140999999999934,0.7336000000000027 1.1093999999999937,0.7386000000000017 1.107200000000006,0.7422000000000004 1.108000000000004,0.7455999999999996 1.1063999999999936,0.7485999999999997 1.0996999999999986,0.7530999999999999 1.0829999999999984,0.7575000000000003 1.082499999999996,0.7675000000000018 1.0822000000000003,0.7591999999999999 1.0790999999999968,0.758300000000002 1.0768999999999949,0.7672000000000025 1.0639000000000038,0.7774999999999999 1.0561000000000007,0.7884000000000029 1.0497000000000014,0.7922000000000011 1.0438999999999936,0.7995000000000019 1.0127999999999986,0.8170000000000002 0.9936000000000007,0.8220000000000027 0.9896999999999991,0.8250000000000028 0.9886000000000053,0.8281000000000027 0.9769000000000005,0.8331000000000017 0.9724999999999966,0.8389000000000024 0.9665999999999997,0.8403000000000027 "></polygon><polygon points="1.2972000000000037,0.7778000000000027 1.2968999999999937,0.7739000000000011 1.2911000000000001,0.7758000000000003 1.294700000000006,0.7786000000000008 1.2972000000000037,0.7778000000000027 "></polygon><polygon points="1.2339000000000055,0.8122000000000007 1.2326999999999941,0.8070000000000022 1.2279999999999944,0.8080999999999996 1.229699999999994,0.8125 1.2339000000000055,0.8122000000000007 "></polygon><polygon points="1.2190999999999974,0.8253000000000021 1.2180000000000035,0.8253000000000021 1.218599999999995,0.8272000000000013 1.2244000000000028,0.829500000000003 1.2228000000000065,0.8261000000000003 1.2190999999999974,0.8253000000000021 "></polygon><polygon points="1.3061000000000007,0.870000000000001 1.3100000000000023,0.8620000000000019 1.3208000000000055,0.8572000000000024 1.325800000000001,0.8509000000000029 1.3252999999999986,0.8445 1.3201999999999998,0.8397000000000006 1.316900000000004,0.8414000000000001 1.3046999999999969,0.8550000000000004 1.3027000000000015,0.8547000000000011 1.2951999999999941,0.8609000000000009 1.2904999999999944,0.8606000000000016 1.2904999999999944,0.8636000000000017 1.2865999999999929,0.8653000000000013 1.2938999999999936,0.8684000000000012 1.2972000000000037,0.8672000000000004 1.3019000000000034,0.8686000000000007 1.3046999999999969,0.871100000000002 1.3061000000000007,0.870000000000001 "></polygon><polygon points="0.022199999999998,1.3181000000000012 0.022999999999996135,1.3170000000000002 0.01999999999999602,1.3167000000000009 0.021100000000004115,1.3192000000000021 0.022199999999998,1.3181000000000012 "></polygon><polygon points="1.2596999999999952,1.3914000000000009 1.2586000000000013,1.3897000000000013 1.2571999999999974,1.3897000000000013 1.2586000000000013,1.3922000000000025 1.2596999999999952,1.3914000000000009 "></polygon><polygon points="2.3877999999999986,0.3719999999999999 2.388300000000001,0.3689 2.386099999999999,0.3689 2.3843999999999994,0.371100000000002 2.385300000000001,0.3733000000000004 2.3877999999999986,0.3719999999999999 "></polygon><polygon points="2.398600000000002,0.39390000000000214 2.3964,0.39220000000000255 2.396100000000004,0.39610000000000056 2.3988999999999976,0.3967000000000027 2.398600000000002,0.39390000000000214 "></polygon><polygon points="1.5485999999999933,0.9261000000000017 1.5497000000000014,0.9231000000000016 1.544399999999996,0.9269999999999996 1.5468999999999937,0.9269999999999996 1.5485999999999933,0.9261000000000017 "></polygon><polygon points="2.3688999999999965,0.9797000000000011 2.369100000000003,0.9797000000000011 2.369100000000003,0.9795000000000016 2.3688999999999965,0.9795000000000016 2.3688999999999965,0.9797000000000011 "></polygon><polygon points="1.3229999999999933,0.8733000000000004 1.3216000000000037,0.8745000000000012 1.3265999999999991,0.875 1.3265999999999991,0.8742000000000019 1.3229999999999933,0.8733000000000004 "></polygon><polygon points="1.9188999999999936,1.1683000000000021 1.919700000000006,1.166400000000003 1.9185999999999979,1.1656000000000013 1.9114000000000004,1.165300000000002 1.9146999999999963,1.1686000000000014 1.9188999999999936,1.1683000000000021 "></polygon><polygon points="0.43250000000000455,1.4292000000000016 0.4316000000000031,1.4269999999999996 0.4277000000000015,1.427500000000002 0.4294000000000011,1.4297000000000004 0.43250000000000455,1.4292000000000016 "></polygon>
    </svg>
    