
    <svg width="351.3921" height="22.5515" xmlns="http://www.w3.org/2000/svg" xmlns:xlink="http://www.w3.org/1999/xlink" style="transform: scale(1, -1)">
        <polygon points="31.4529,0.002300000000001745 31.457599999999985,0.010699999999999932 31.466199999999986,0.017500000000001847 31.4709,0.01899999999999835 31.477000000000004,0.01559999999999917 31.475799999999992,0.01249999999999929 31.473399999999998,0.015799999999998704 31.4658,0.014099999999999113 31.457899999999995,0.006299999999999528 31.45599999999999,0.0 31.45429999999999,0.0 31.4529,0.002300000000001745 "></polygon><polygon points="22.73139999999998,6.414 22.734199999999987,6.406000000000001 22.73229999999998,6.404 22.727800000000002,6.4063 22.715599999999995,6.426 22.716199999999986,6.441800000000001 22.717299999999994,6.4429 22.726499999999987,6.429600000000001 22.73139999999998,6.414 "></polygon><polygon points="24.31479999999999,7.8552 24.3151,7.851000000000001 24.321399999999983,7.850099999999999 24.318600000000004,7.8416999999999994 24.308699999999988,7.849 24.310599999999994,7.8568 24.311700000000002,7.8576999999999995 24.31479999999999,7.8552 "></polygon><polygon points="24.32649999999998,7.8596 24.32389999999998,7.8553999999999995 24.321499999999986,7.857100000000001 24.323700000000002,7.861000000000001 24.32649999999998,7.8596 "></polygon><polygon points="24.311999999999983,7.8607 24.313699999999983,7.8665 24.31559999999999,7.8688 24.3176,7.866300000000001 24.31559999999999,7.860200000000001 24.313999999999993,7.859299999999999 24.311999999999983,7.8607 "></polygon><polygon points="24.328399999999988,7.860799999999999 24.325099999999992,7.862299999999999 24.327200000000005,7.866199999999999 24.329799999999977,7.866300000000001 24.330099999999987,7.871600000000001 24.33619999999999,7.879300000000001 24.33839999999998,7.8764 24.328399999999988,7.860799999999999 "></polygon><polygon points="24.34009999999998,7.8824000000000005 24.339,7.8832 24.343699999999984,7.891 24.345100000000002,7.888999999999999 24.344499999999982,7.885999999999999 24.342299999999994,7.881500000000001 24.34009999999998,7.8824000000000005 "></polygon><polygon points="24.33449999999999,7.9007000000000005 24.330600000000004,7.888999999999999 24.330899999999986,7.8857 24.326999999999998,7.8757 24.324799999999982,7.8751999999999995 24.323399999999992,7.8763000000000005 24.323700000000002,7.879300000000001 24.326699999999988,7.883800000000001 24.330099999999987,7.901 24.332300000000004,7.902699999999999 24.33449999999999,7.9007000000000005 "></polygon><polygon points="24.339200000000005,7.9457 24.342600000000004,7.9404 24.34529999999998,7.928800000000001 24.345100000000002,7.9117999999999995 24.348099999999988,7.899900000000001 24.345399999999984,7.8934999999999995 24.342600000000004,7.895200000000001 24.34529999999998,7.8965 24.3459,7.8995999999999995 24.342600000000004,7.908799999999999 24.341799999999978,7.916499999999999 24.343699999999984,7.919600000000001 24.341799999999978,7.9221 24.342600000000004,7.924900000000001 24.340900000000005,7.9300999999999995 24.339499999999987,7.929600000000001 24.339200000000005,7.9191 24.3365,7.9177 24.33529999999999,7.920400000000001 24.3373,7.929 24.3331,7.948 24.33529999999999,7.948499999999999 24.339200000000005,7.9457 "></polygon><polygon points="18.675899999999984,12.2287 18.682199999999995,12.228200000000001 18.685599999999994,12.229600000000001 18.693099999999987,12.2257 18.704799999999977,12.2143 18.705899999999986,12.211500000000001 18.700799999999987,12.205 18.68119999999999,12.1979 18.666200000000003,12.1863 18.6498,12.1949 18.64439999999999,12.2015 18.633700000000005,12.2091 18.613100000000003,12.2127 18.610299999999995,12.213799999999999 18.60759999999999,12.2177 18.6096,12.2218 18.636499999999984,12.2256 18.645899999999983,12.2288 18.64869999999999,12.2316 18.675899999999984,12.2287 "></polygon><polygon points="19.64919999999998,13.854 19.639199999999988,13.8305 19.640799999999984,13.813600000000001 19.639199999999988,13.8071 19.62699999999998,13.8027 19.6241,13.8 19.61669999999998,13.801400000000001 19.611400000000003,13.807 19.602800000000002,13.8112 19.585399999999993,13.8274 19.572299999999984,13.836400000000001 19.574099999999987,13.848600000000001 19.5762,13.8529 19.57849999999999,13.8538 19.61009999999999,13.8568 19.61869999999999,13.8557 19.625399999999985,13.8574 19.63669999999999,13.864 19.6507,13.865400000000001 19.652299999999997,13.8612 19.64919999999998,13.854 "></polygon><polygon points="344.09119999999996,17.0015 344.0929,16.9904 344.0861,16.9798 344.0787,16.9863 344.0707,16.9857 344.0643,16.9972 344.0653,17.0027 344.0729,17.0078 344.0822,17.0077 344.0861,17.0063 344.09119999999996,17.0015 "></polygon><polygon points="0.005599999999986949,13.1968 0.015799999999984493,13.1888 0.031999999999982265,13.1807 0.04229999999998313,13.172699999999999 0.04959999999999809,13.163599999999999 0.05009999999998627,13.154900000000001 0.046699999999987085,13.1554 0.037299999999987676,13.163 0.030599999999992633,13.166 0.022599999999982856,13.169 0.017599999999987403,13.168199999999999 0.010400000000004184,13.169599999999999 0.0072999999999865395,13.171800000000001 0.0014999999999929514,13.179300000000001 0.004499999999978854,13.1835 0.008099999999984675,13.1832 0.006499999999988404,13.1785 0.010599999999982401,13.1724 0.015099999999989677,13.1707 0.02339999999998099,13.173 0.030299999999982674,13.170200000000001 0.046999999999997044,13.1579 0.04919999999998481,13.159600000000001 0.04279999999999973,13.168800000000001 0.030399999999985994,13.1791 0.01839999999998554,13.1838 0.015899999999987813,13.1827 0.014799999999979718,13.1866 0.00919999999999277,13.1907 0.007800000000003138,13.1893 0.008099999999984675,13.186 0.004499999999978854,13.184899999999999 0.0,13.1906 0.0,13.1928 0.002299999999991087,13.197700000000001 0.005599999999986949,13.1968 "></polygon><polygon points="2.38839999999999,13.3665 2.4025999999999783,13.3588 2.410899999999998,13.357099999999999 2.4111999999999796,13.3544 2.4077999999999804,13.346499999999999 2.4072999999999922,13.3382 2.4014999999999986,13.334 2.3832999999999913,13.330200000000001 2.3747999999999934,13.3266 2.3558999999999912,13.310400000000001 2.3489999999999895,13.3096 2.332599999999985,13.3174 2.320300000000003,13.3279 2.3175999999999988,13.332699999999999 2.318399999999997,13.337399999999999 2.3245000000000005,13.3423 2.3382000000000005,13.3488 2.3507999999999925,13.3523 2.362499999999983,13.3585 2.3636999999999944,13.356 2.358099999999979,13.3521 2.3567999999999927,13.352599999999999 2.355400000000003,13.3504 2.3515999999999906,13.3507 2.3411999999999864,13.3457 2.3362999999999943,13.3453 2.3357000000000028,13.343499999999999 2.3272999999999797,13.3399 2.3238999999999805,13.3371 2.3230999999999824,13.3329 2.325400000000002,13.3279 2.3344999999999914,13.3202 2.3503000000000043,13.314 2.3566999999999894,13.3138 2.370599999999996,13.3271 2.3917999999999893,13.3344 2.393100000000004,13.3377 2.398699999999991,13.3354 2.4039999999999964,13.3402 2.4051000000000045,13.349599999999999 2.408699999999982,13.3515 2.4101,13.3551 2.408999999999992,13.356300000000001 2.404200000000003,13.357099999999999 2.4014999999999986,13.355699999999999 2.38839999999999,13.3643 2.383999999999986,13.363199999999999 2.376499999999993,13.3643 2.3722999999999956,13.3599 2.3703999999999894,13.361 2.3719999999999857,13.3646 2.379499999999979,13.3665 2.38839999999999,13.3665 "></polygon><polygon points="2.367199999999997,13.362 2.368499999999983,13.3598 2.3652999999999906,13.3574 2.3636999999999944,13.3595 2.367199999999997,13.362 "></polygon><polygon points="3.3035999999999888,13.4124 3.316999999999979,13.392299999999999 3.3178000000000054,13.388200000000001 3.313999999999993,13.3849 3.3109000000000037,13.3843 3.2930999999999813,13.384599999999999 3.2883999999999958,13.3863 3.2797999999999945,13.3971 3.281199999999984,13.4007 3.297799999999995,13.4129 3.3035999999999888,13.4124 "></polygon><polygon points="3.831499999999977,14.1349 3.836199999999991,14.132200000000001 3.8367999999999824,14.1284 3.8311999999999955,14.1248 3.8263999999999783,14.1332 3.8275999999999897,14.1365 3.831499999999977,14.1349 "></polygon><polygon points="0.41809999999998126,14.2543 0.4165999999999883,14.2577 0.41729999999998313,14.2603 0.4211999999999989,14.2613 0.42319999999998004,14.260200000000001 0.42439999999999145,14.2573 0.4223999999999819,14.2523 0.42029999999999745,14.2521 0.41809999999998126,14.2543 "></polygon><polygon points="3.029399999999981,14.2685 3.029899999999998,14.2652 3.0272999999999968,14.2619 3.0223000000000013,14.2691 3.022599999999983,14.2715 3.025299999999987,14.2725 3.029399999999981,14.2685 "></polygon><polygon points="3.453399999999988,14.7051 3.451599999999985,14.708400000000001 3.4512,14.743400000000001 3.456299999999999,14.7488 3.4599000000000046,14.748899999999999 3.4621999999999957,14.7459 3.462699999999984,14.728 3.468199999999996,14.7104 3.467399999999998,14.7072 3.4643999999999835,14.7059 3.453399999999988,14.7051 "></polygon><polygon points="2.830699999999979,15.0869 2.837799999999987,15.0843 2.8466999999999985,15.0835 2.860299999999995,15.0768 2.8845000000000027,15.0563 2.893999999999977,15.0515 2.9025999999999783,15.0493 2.906499999999994,15.046 2.9106999999999914,15.0333 2.916799999999995,15.0245 2.9188999999999794,15.0084 2.927199999999999,14.994299999999999 2.9281000000000006,14.9863 2.9258999999999844,14.9816 2.922799999999995,14.981300000000001 2.9101,14.9899 2.899499999999989,15.0024 2.8814999999999884,15.0135 2.8652999999999906,15.0185 2.852800000000002,15.0193 2.8392000000000053,15.0168 2.835899999999981,15.0199 2.8297999999999774,15.0302 2.829499999999996,15.0379 2.8333999999999833,15.0365 2.8333999999999833,15.0319 2.8414999999999964,15.0196 2.8545000000000016,15.0213 2.865899999999982,15.020199999999999 2.887599999999992,15.013 2.899799999999999,15.0049 2.918700000000001,14.9865 2.922799999999995,14.984 2.9238,14.9848 2.9222999999999786,14.9879 2.9236999999999966,14.9954 2.9162000000000035,15.006499999999999 2.9122999999999877,15.025500000000001 2.9084000000000003,15.0318 2.9059000000000026,15.0412 2.9022999999999968,15.0443 2.898699999999991,15.044599999999999 2.8961999999999932,15.049 2.8887,15.050699999999999 2.882000000000005,15.0543 2.872599999999977,15.0635 2.852800000000002,15.0782 2.8400999999999783,15.0796 2.8336999999999932,15.082699999999999 2.829499999999996,15.0829 2.826999999999998,15.0807 2.8267999999999915,15.0732 2.830600000000004,15.0699 2.830699999999979,15.0679 2.829499999999996,15.0654 2.8259999999999934,15.0663 2.8245000000000005,15.0635 2.8286999999999978,15.0521 2.826999999999998,15.0479 2.829499999999996,15.0443 2.8275999999999897,15.041 2.8264999999999816,15.0415 2.8238999999999805,15.0493 2.8264999999999816,15.0521 2.8262,15.0543 2.822800000000001,15.0565 2.8238999999999805,15.0579 2.819199999999995,15.062899999999999 2.822800000000001,15.0685 2.8222999999999843,15.0854 2.8262,15.0877 2.830699999999979,15.0869 "></polygon><polygon points="2.830799999999982,15.0393 2.8297000000000025,15.041 2.8308999999999855,15.0427 2.831400000000002,15.0402 2.83329999999998,15.0397 2.832599999999985,15.038499999999999 2.830799999999982,15.0393 "></polygon><polygon points="17.12529999999998,19.6979 17.1276,19.6982 17.127399999999994,19.700400000000002 17.128799999999984,19.7003 17.127399999999994,19.697400000000002 17.12529999999998,19.6979 "></polygon><polygon points="17.082599999999985,19.7177 17.082300000000004,19.7149 17.080899999999986,19.7124 17.079199999999986,19.7138 17.080299999999994,19.7166 17.079499999999996,19.7213 17.082599999999985,19.7177 "></polygon><polygon points="17.096499999999992,19.8995 17.11839999999998,19.8923 17.129699999999985,19.875700000000002 17.141099999999994,19.866500000000002 17.157299999999992,19.8568 17.162999999999982,19.8514 17.1892,19.8432 17.219799999999992,19.8413 17.227800000000002,19.8385 17.228999999999985,19.8393 17.235299999999995,19.8332 17.23479999999998,19.8321 17.242199999999997,19.8213 17.2423,19.8135 17.239800000000002,19.8057 17.236400000000003,19.8018 17.23059999999998,19.7999 17.227299999999985,19.7968 17.217799999999983,19.7941 17.212799999999987,19.7896 17.198099999999982,19.7568 17.20089999999999,19.7435 17.199799999999982,19.7268 17.202799999999996,19.7118 17.2012,19.7104 17.202799999999996,19.6971 17.214499999999987,19.6821 17.226199999999977,19.6785 17.23339999999999,19.6688 17.244799999999998,19.6624 17.257000000000005,19.6579 17.2671,19.6576 17.278099999999995,19.649 17.29479999999998,19.6435 17.300600000000003,19.6377 17.311499999999995,19.6313 17.326699999999988,19.6288 17.338099999999997,19.6229 17.343999999999994,19.6224 17.351699999999994,19.619 17.35899999999998,19.6194 17.36929999999998,19.614 17.3759,19.6043 17.379699999999985,19.5835 17.380300000000005,19.5613 17.3767,19.5529 17.372500000000002,19.5502 17.36779999999999,19.5496 17.353099999999984,19.5502 17.3373,19.5448 17.328699999999998,19.546 17.321499999999986,19.5493 17.30509999999998,19.5532 17.301699999999983,19.5552 17.288699999999977,19.571 17.2731,19.5804 17.267899999999997,19.5816 17.24259999999998,19.5985 17.228700000000003,19.6104 17.21119999999999,19.616 17.194199999999995,19.625 17.17259999999999,19.6294 17.153400000000005,19.6279 17.13899999999998,19.6324 17.130899999999997,19.6324 17.116500000000002,19.6357 17.1045,19.641 17.07559999999998,19.665399999999998 17.06449999999998,19.6932 17.059200000000004,19.7002 17.04729999999998,19.706 17.041799999999995,19.7107 17.02029999999999,19.7052 17.008999999999986,19.6985 17.005599999999987,19.698 16.996399999999994,19.7043 16.985899999999987,19.7163 16.98059999999998,19.7249 16.98089999999999,19.7282 17.00369999999998,19.7446 17.009500000000003,19.7529 17.010099999999994,19.7579 17.012,19.7602 17.018100000000004,19.7649 17.025299999999987,19.7677 17.051999999999992,19.7872 17.052899999999994,19.7814 17.04679999999999,19.7774 17.042100000000005,19.7767 17.036699999999996,19.7649 17.019199999999984,19.7554 17.0163,19.7559 17.009799999999984,19.7504 17.00479999999999,19.7368 17.00619999999998,19.7265 17.00369999999998,19.7224 17.005599999999987,19.721 17.0009,19.7182 17.00399999999999,19.7157 17.009500000000003,19.7188 17.0103,19.7179 17.01169999999999,19.7202 17.01509999999999,19.7196 17.016699999999986,19.7229 17.015599999999978,19.7243 17.0128,19.724 17.0231,19.7304 17.02759999999998,19.729 17.030100000000004,19.7243 17.03219999999999,19.728 17.030900000000003,19.7294 17.0342,19.7304 17.040599999999984,19.7277 17.052300000000002,19.7266 17.05619999999999,19.7215 17.058699999999988,19.7246 17.056699999999978,19.7288 17.05419999999998,19.731 17.046999999999997,19.7318 17.049499999999995,19.7335 17.0548,19.7327 17.058899999999994,19.7293 17.060099999999977,19.726 17.069199999999995,19.7212 17.071200000000005,19.7213 17.070599999999985,19.7238 17.073099999999982,19.7224 17.076099999999997,19.718 17.074799999999982,19.7154 17.079499999999996,19.709 17.0831,19.6993 17.0907,19.6919 17.093099999999993,19.6921 17.100300000000004,19.7013 17.101499999999987,19.7046 17.099499999999978,19.706 17.102299999999985,19.7088 17.101499999999987,19.7121 17.10389999999998,19.7113 17.103099999999984,19.7043 17.105099999999993,19.7054 17.10809999999998,19.7043 17.10729999999998,19.7063 17.10979999999998,19.7077 17.110600000000005,19.7109 17.114499999999992,19.7085 17.10589999999999,19.7022 17.10639999999998,19.7002 17.107799999999997,19.701 17.109999999999985,19.6988 17.122799999999984,19.7038 17.123699999999985,19.7018 17.11869999999999,19.7002 17.11759999999998,19.6963 17.114800000000002,19.6982 17.113199999999978,19.6966 17.11529999999999,19.6943 17.121700000000004,19.6943 17.123999999999995,19.6927 17.1267,19.6938 17.12899999999999,19.6896 17.12699999999998,19.6863 17.12779999999998,19.6849 17.130599999999987,19.684 17.1319,19.6857 17.134799999999984,19.684 17.13639999999998,19.685200000000002 17.13639999999998,19.6865 17.133700000000005,19.6857 17.130899999999997,19.688200000000002 17.132800000000003,19.6932 17.13119999999998,19.6954 17.133099999999985,19.6988 17.129199999999997,19.7015 17.12729999999999,19.7057 17.122599999999977,19.7054 17.123099999999994,19.7104 17.1173,19.7079 17.1164,19.7102 17.119199999999978,19.7099 17.120599999999996,19.7118 17.11699999999999,19.716 17.11529999999999,19.7149 17.112799999999993,19.7177 17.110299999999995,19.7154 17.10589999999999,19.7163 17.1045,19.7152 17.10419999999999,19.717 17.11009999999999,19.7182 17.111699999999985,19.7207 17.1062,19.727899999999998 17.109499999999997,19.727899999999998 17.113399999999984,19.7327 17.114000000000004,19.7349 17.111999999999995,19.7388 17.112799999999993,19.7427 17.11579999999998,19.7381 17.115899999999982,19.7343 17.111199999999997,19.7244 17.121099999999984,19.7153 17.123699999999985,19.7196 17.12559999999999,19.7196 17.124799999999993,19.7229 17.131699999999995,19.7288 17.12899999999999,19.7302 17.126499999999993,19.7288 17.122299999999996,19.7296 17.123400000000004,19.734 17.122299999999996,19.7354 17.126199999999983,19.7457 17.12869999999998,19.7443 17.124200000000002,19.7365 17.12559999999999,19.7335 17.124799999999993,19.7315 17.126199999999983,19.7304 17.1284,19.7321 17.134500000000003,19.7282 17.127099999999984,19.723 17.12779999999998,19.7188 17.1241,19.7166 17.123699999999985,19.7143 17.129199999999997,19.7146 17.130599999999987,19.7158 17.12809999999999,19.7171 17.12949999999998,19.7182 17.131699999999995,19.716 17.133700000000005,19.7176 17.133099999999985,19.7216 17.1361,19.7277 17.135400000000004,19.7337 17.1387,19.736 17.139199999999988,19.7399 17.142599999999987,19.7354 17.143100000000004,19.7296 17.14149999999998,19.7277 17.143699999999995,19.7221 17.144800000000004,19.7252 17.150599999999997,19.7285 17.15259999999998,19.7321 17.151700000000005,19.7338 17.14669999999998,19.7304 17.144499999999994,19.7307 17.1473,19.7329 17.150599999999997,19.7407 17.1515,19.7479 17.146500000000003,19.7504 17.14149999999998,19.7446 17.1387,19.7485 17.141199999999998,19.754 17.142899999999997,19.753 17.141199999999998,19.7491 17.142599999999987,19.747700000000002 17.145899999999983,19.7543 17.140299999999996,19.7558 17.14009999999999,19.7593 17.143699999999995,19.7602 17.143999999999977,19.7563 17.14949999999999,19.7568 17.15179999999998,19.7635 17.152500000000003,19.7581 17.14839999999998,19.7554 17.14699999999999,19.7524 17.153099999999995,19.7521 17.153999999999996,19.7538 17.151999999999987,19.7546 17.15299999999999,19.7563 17.155100000000004,19.756 17.153099999999995,19.7585 17.15289999999999,19.7694 17.14919999999998,19.771 17.145399999999995,19.7676 17.147599999999983,19.7613 17.14669999999998,19.7593 17.141599999999983,19.765 17.141599999999983,19.7624 17.14009999999999,19.7619 17.139999999999986,19.7645 17.137599999999992,19.759900000000002 17.13119999999998,19.7601 17.129400000000004,19.7615 17.13639999999998,19.7632 17.13839999999999,19.7679 17.13639999999998,19.768 17.135899999999992,19.7748 17.139499999999998,19.7701 17.13839999999999,19.7688 17.139199999999988,19.7663 17.14179999999999,19.7712 17.143100000000004,19.7699 17.144800000000004,19.7715 17.144800000000004,19.7685 17.146500000000003,19.7702 17.145899999999983,19.7717 17.153400000000005,19.7765 17.1532,19.7846 17.150599999999997,19.7877 17.15259999999998,19.7899 17.15009999999998,19.7973 17.1532,19.801000000000002 17.154799999999994,19.799 17.154499999999985,19.7938 17.157899999999984,19.7938 17.156199999999984,19.7907 17.15779999999998,19.7899 17.160899999999998,19.7924 17.15809999999999,19.7954 17.159400000000005,19.7968 17.158699999999982,19.7986 17.155699999999996,19.7978 17.157299999999992,19.8007 17.153699999999986,19.8038 17.154599999999988,19.8061 17.157899999999984,19.806 17.155999999999977,19.8032 17.160899999999998,19.8004 17.165899999999993,19.8007 17.166799999999995,19.8029 17.158699999999982,19.8065 17.154799999999994,19.8116 17.15119999999999,19.8071 17.14949999999999,19.8096 17.14669999999998,19.8065 17.143699999999995,19.8068 17.144499999999994,19.809 17.143100000000004,19.8129 17.13979999999998,19.8096 17.137299999999982,19.8116 17.13669999999999,19.809 17.132599999999996,19.8104 17.132599999999996,19.8122 17.135099999999994,19.8124 17.134199999999993,19.8158 17.12949999999998,19.8177 17.132299999999987,19.8191 17.130300000000005,19.8218 17.132000000000005,19.8244 17.132599999999996,19.822400000000002 17.133399999999995,19.8232 17.136200000000002,19.8207 17.13899999999998,19.8213 17.140599999999978,19.8199 17.142799999999994,19.821 17.134500000000003,19.8276 17.129199999999997,19.8238 17.12559999999999,19.8238 17.125100000000003,19.8249 17.12869999999998,19.8271 17.123400000000004,19.8293 17.124499999999983,19.834600000000002 17.123400000000004,19.8374 17.12529999999998,19.8388 17.1301,19.8357 17.12979999999999,19.8304 17.131699999999995,19.8277 17.133399999999995,19.829 17.132599999999996,19.8332 17.133700000000005,19.8348 17.13809999999998,19.836 17.139199999999988,19.8385 17.135599999999982,19.8369 17.132000000000005,19.8393 17.1301,19.8374 17.123400000000004,19.848 17.120599999999996,19.8476 17.11669999999998,19.8521 17.10839999999999,19.852899999999998 17.1062,19.8549 17.106799999999993,19.8597 17.103099999999984,19.8613 17.103700000000003,19.8669 17.101799999999997,19.8664 17.10239999999999,19.8622 17.100099999999998,19.8587 17.101499999999987,19.8575 17.100599999999986,19.8524 17.095100000000002,19.856 17.093099999999993,19.8527 17.0967,19.8502 17.095100000000002,19.8485 17.090599999999995,19.8499 17.088899999999995,19.8538 17.09129999999999,19.8526 17.091499999999996,19.8538 17.08839999999998,19.8604 17.090900000000005,19.8643 17.094899999999996,19.8619 17.09699999999998,19.8632 17.092099999999988,19.8718 17.08669999999998,19.875700000000002 17.083399999999983,19.8699 17.078699999999998,19.8713 17.082300000000004,19.8724 17.0762,19.8771 17.080099999999987,19.8799 17.080899999999986,19.8793 17.078699999999998,19.8777 17.082599999999985,19.876 17.083699999999993,19.8796 17.08589999999998,19.8811 17.085099999999983,19.8821 17.078099999999978,19.8824 17.074799999999982,19.8788 17.06279999999998,19.8746 17.059200000000004,19.8702 17.058699999999988,19.866 17.062899999999985,19.8591 17.0659,19.8496 17.06449999999998,19.846 17.06699999999998,19.8382 17.070099999999996,19.8404 17.069199999999995,19.8424 17.070399999999978,19.8435 17.073399999999992,19.8418 17.071699999999993,19.8379 17.073099999999982,19.834600000000002 17.072299999999984,19.8324 17.071499999999986,19.8315 17.067800000000005,19.8343 17.06479999999999,19.8326 17.060299999999984,19.8538 17.04729999999998,19.8802 17.04729999999998,19.8893 17.051199999999994,19.8974 17.064399999999978,19.900100000000002 17.08619999999999,19.9012 17.096499999999992,19.8995 "></polygon><polygon points="347.3384,19.7415 347.3463,19.7391 347.3599,19.738500000000002 347.37969999999996,19.735 347.33709999999996,19.7378 347.33119999999997,19.7399 347.33259999999996,19.7425 347.3295,19.7402 347.3328,19.7437 347.3384,19.7415 "></polygon><polygon points="347.32809999999995,19.7482 347.3262,19.7465 347.3287,19.744 347.33230000000003,19.7444 347.32899999999995,19.741 347.32309999999995,19.7479 347.3243,19.7496 347.32809999999995,19.7482 "></polygon><polygon points="347.3273,19.7518 347.3292,19.7499 347.3233,19.7528 347.3243,19.7534 347.3273,19.7518 "></polygon><polygon points="17.138499999999993,19.7539 17.135899999999992,19.751 17.136200000000002,19.7557 17.132000000000005,19.7566 17.135999999999996,19.7586 17.138499999999993,19.7539 "></polygon><polygon points="17.124499999999983,19.7585 17.126000000000005,19.7601 17.126599999999996,19.7568 17.124499999999983,19.7563 17.124499999999983,19.7585 "></polygon><polygon points="17.123999999999995,19.7711 17.12639999999999,19.7729 17.12779999999998,19.7724 17.126199999999983,19.7698 17.123999999999995,19.7711 "></polygon><polygon points="17.127199999999988,19.7805 17.12899999999999,19.7793 17.12809999999999,19.7738 17.126800000000003,19.7768 17.12379999999999,19.7741 17.122799999999984,19.7772 17.117999999999995,19.7779 17.11609999999999,19.7796 17.123899999999992,19.7828 17.127199999999988,19.7805 "></polygon><polygon points="347.5456,18.8827 347.5601,18.8766 347.5809,18.8585 347.5952,18.8506 347.6014,18.8447 347.60450000000003,18.839 347.6151,18.8306 347.61609999999996,18.8226 347.6133,18.8109 347.6077,18.8035 347.5901,18.7944 347.58209999999997,18.7872 347.5757,18.7785 347.5546,18.7222 347.54449999999997,18.7022 347.5362,18.694 347.5351,18.6946 347.52729999999997,18.6896 347.51599999999996,18.7002 347.5154,18.702 347.5185,18.7059 347.5146,18.703500000000002 347.5135,18.7053 347.5188,18.7091 347.527,18.7033 347.52689999999996,18.7022 347.52329999999995,18.7049 347.5223,18.704 347.5261,18.7022 347.5259,18.7005 347.524,18.7025 347.51959999999997,18.7023 347.5253,18.6996 347.52279999999996,18.696 347.5245,18.6938 347.52729999999997,18.6963 347.5276,18.694 347.5309,18.6938 347.5345,18.6963 347.5345,18.698 347.5401,18.7007 347.5406,18.7024 347.534,18.7057 347.5292,18.7032 347.5215,18.711 347.5226,18.7158 347.5243,18.7145 347.5249,18.7158 347.5281,18.711 347.5295,18.714 347.5353,18.7179 347.537,18.7141 347.5377,18.7174 347.5404,18.7144 347.5401,18.7182 347.547,18.7246 347.5551,18.7374 347.5637,18.7646 347.5712,18.7807 347.5906,18.7979 347.5976,18.8016 347.6059,18.8113 347.6065,18.8196 347.60069999999996,18.831 347.5893,18.8438 347.5692,18.8554 347.56669999999997,18.8585 347.567,18.8596 347.56989999999996,18.8592 347.56759999999997,18.867 347.56399999999996,18.8694 347.5606,18.8677 347.5573,18.8682 347.5562,18.8699 347.5589,18.874 347.5565,18.8754 347.5517,18.8743 347.5516,18.8769 347.54729999999995,18.8808 347.5431,18.881 347.5406,18.8771 347.54229999999995,18.8713 347.547,18.8707 347.5474,18.8682 347.5456,18.866 347.54229999999995,18.8665 347.53729999999996,18.871 347.5378,18.8738 347.5351,18.878 347.539,18.8796 347.54139999999995,18.8827 347.5456,18.8827 "></polygon><polygon points="347.5653,18.8562 347.55920000000003,18.8549 347.556,18.8574 347.55949999999996,18.8566 347.56309999999996,18.8613 347.5653,18.8562 "></polygon><polygon points="347.5507,18.8616 347.5492,18.8593 347.5448,18.8554 347.5457,18.861 347.5439,18.8624 347.54949999999997,18.8654 347.5507,18.8616 "></polygon><polygon points="347.5253,19.1824 347.5315,19.1813 347.5217,19.1802 347.5206,19.1782 347.51559999999995,19.1796 347.5181,19.1849 347.5253,19.1824 "></polygon><polygon points="347.5199,18.7127 347.5153,18.7076 347.512,18.7073 347.51189999999997,18.709 347.517,18.7131 347.5152,18.712 347.5139,18.713 347.5176,18.7165 347.52009999999996,18.7155 347.5199,18.7127 "></polygon><polygon points="347.5221,18.7154 347.5215,18.7143 347.5195,18.7171 347.5171,18.7166 347.5181,18.7204 347.5221,18.7154 "></polygon><polygon points="347.4768,19.2142 347.4756,19.2124 347.4767,19.2113 347.4948,19.1993 347.47839999999997,19.206 347.4637,19.2052 347.4615,19.2063 347.46349999999995,19.2118 347.4684,19.2099 347.4776,19.2166 347.4768,19.2142 "></polygon><polygon points="347.4673,19.6476 347.4699,19.6466 347.4652,19.646 347.4613,19.6478 347.4631,19.6497 347.4673,19.6476 "></polygon><polygon points="347.5458,19.1833 347.537,19.1802 347.53589999999997,19.1813 347.5481,19.1846 347.5458,19.1833 "></polygon><polygon points="347.5866,19.2073 347.5881,19.2052 347.5926,19.2079 347.594,19.2065 347.58619999999996,19.2029 347.5721,19.1908 347.5553,19.1832 347.5534,19.1849 347.5528,19.1827 347.5498,19.1821 347.5501,19.1854 347.5642,19.1904 347.57899999999995,19.1988 347.5829,19.2046 347.582,19.2063 347.5901,19.2104 347.5866,19.2073 "></polygon><polygon points="347.6703,19.2515 347.6726,19.2493 347.6779,19.2493 347.6767,19.247700000000002 347.6785,19.2458 347.6778,19.2427 347.6815,19.2479 347.6851,19.2452 347.6865,19.2413 347.6876,19.2421 347.7056,19.229 347.7081,19.2254 347.7086,19.2177 347.70619999999997,19.2135 347.7023,19.2107 347.697,19.2104 347.6803,19.2135 347.6793,19.2152 347.6728,19.2171 347.6667,19.2166 347.6629,19.2146 347.6598,19.2152 347.6576,19.2129 347.6565,19.2143 347.6331,19.2157 347.6148,19.209 347.5956,19.2077 347.5967,19.209600000000002 347.60979999999995,19.2104 347.6209,19.2138 347.6259,19.2171 347.632,19.2182 347.63419999999996,19.2171 347.64009999999996,19.2182 347.6481,19.2166 347.6542,19.2179 347.6606,19.2168 347.66729999999995,19.2218 347.6815,19.2168 347.6835,19.2188 347.6867,19.2171 347.6884,19.2193 347.69169999999997,19.219 347.69309999999996,19.221 347.6903,19.2232 347.6906,19.2268 347.6959,19.2274 347.6959,19.2302 347.6887,19.2296 347.6862,19.2318 347.6837,19.2307 347.67949999999996,19.2346 347.68039999999996,19.2415 347.677,19.238500000000002 347.6773,19.2418 347.6748,19.2374 347.67089999999996,19.244 347.66229999999996,19.2465 347.6699,19.2544 347.6715,19.2532 347.6703,19.2515 "></polygon><polygon points="347.6337,19.290399999999998 347.63620000000003,19.2871 347.6395,19.2863 347.63509999999997,19.2824 347.6434,19.2871 347.6453,19.2824 347.642,19.2779 347.64509999999996,19.2788 347.6484,19.2765 347.6551,19.2682 347.6601,19.2646 347.65779999999995,19.2624 347.65840000000003,19.2613 347.66700000000003,19.2577 347.66700000000003,19.2543 347.662,19.2493 347.6592,19.2557 347.6531,19.2615 347.6453,19.273 347.6345,19.278 347.6331,19.281 347.6281,19.2838 347.6231,19.2852 347.6309,19.2924 347.6337,19.290399999999998 "></polygon><polygon points="347.62699999999995,19.2922 347.6223,19.2871 347.6142,19.2877 347.6151,19.2902 347.6167,19.288800000000002 347.6212,19.2943 347.6187,19.289 347.62059999999997,19.289 347.624,19.2957 347.6281,19.2944 347.62699999999995,19.2922 "></polygon><polygon points="347.6181,19.2957 347.6162,19.2924 347.6142,19.294 347.6178,19.2999 347.6196,19.2982 347.6181,19.2957 "></polygon><polygon points="347.5884,19.3043 347.58979999999997,19.3013 347.5848,19.304 347.5837,19.3066 347.5884,19.3043 "></polygon><polygon points="347.6023,19.3113 347.6086,19.3121 347.60979999999995,19.3093 347.6073,19.3071 347.609,19.3057 347.6112,19.3065 347.6092,19.3038 347.6106,19.3029 347.6128,19.3049 347.6126,19.3018 347.6154,19.3035 347.61699999999996,19.301000000000002 347.6112,19.2988 347.60699999999997,19.3015 347.6056,19.3054 347.5995,19.3049 347.59839999999997,19.3063 347.5956,19.3046 347.5937,19.3065 347.59389999999996,19.3083 347.6009,19.313200000000002 347.6023,19.3113 "></polygon><polygon points="347.5918,19.3085 347.5901,19.3096 347.5951,19.3135 347.597,19.3173 347.5981,19.3149 347.5918,19.3085 "></polygon><polygon points="347.577,19.3146 347.5773,19.3182 347.5784,19.319 347.5809,19.3166 347.5784,19.3113 347.577,19.3146 "></polygon><polygon points="347.4984,19.4893 347.5028,19.4893 347.51009999999997,19.4813 347.5098,19.4677 347.5081,19.4663 347.5117,19.4632 347.5117,19.4546 347.5145,19.4538 347.5129,19.4488 347.5148,19.4449 347.5159,19.446 347.517,19.4446 347.51509999999996,19.4421 347.5162,19.439 347.51919999999996,19.4379 347.5184,19.429 347.5148,19.4263 347.5179,19.4246 347.5223,19.4165 347.5217,19.4146 347.52369999999996,19.4157 347.5267,19.411 347.52869999999996,19.4121 347.5306,19.4091 347.5326,19.4101 347.53869999999995,19.4074 347.5376,19.4032 347.5398,19.401 347.5421,19.4015 347.5412,19.3952 347.5431,19.3896 347.54949999999997,19.3788 347.5539,19.374 347.5562,19.374 347.55809999999997,19.3707 347.5565,19.3632 347.55920000000003,19.3554 347.5573,19.353 347.56039999999996,19.3544 347.5629,19.3518 347.56449999999995,19.354 347.56600000000003,19.3535 347.5687,19.3496 347.5652,19.3462 347.567,19.3454 347.5709,19.3474 347.57259999999997,19.3418 347.57759999999996,19.3343 347.577,19.331 347.5745,19.3285 347.5787,19.3299 347.5815,19.333 347.58230000000003,19.3307 347.5809,19.3293 347.58209999999997,19.3282 347.5856,19.3299 347.58669999999995,19.326 347.5937,19.3188 347.5917,19.3146 347.58669999999995,19.3188 347.5873,19.3218 347.58529999999996,19.3207 347.5845,19.3227 347.58230000000003,19.3202 347.57309999999995,19.3268 347.5712,19.331 347.5729,19.3324 347.5703,19.3354 347.5701,19.3388 347.557,19.3499 347.5523,19.3646 347.5453,19.3721 347.547,19.374 347.5381,19.3902 347.5353,19.4002 347.52840000000003,19.4024 347.5276,19.4054 347.5223,19.408 347.5162,19.4152 347.5123,19.4238 347.5131,19.4393 347.5084,19.4529 347.5021,19.4602 347.49559999999997,19.4599 347.49670000000003,19.4638 347.50559999999996,19.4762 347.5031,19.4827 347.4954,19.4888 347.4964,19.4913 347.4984,19.4893 "></polygon><polygon points="347.4596,19.8042 347.4812,19.7849 347.4806,19.7838 347.49699999999996,19.7652 347.51030000000003,19.7571 347.5215,19.7474 347.53229999999996,19.7302 347.5312,19.7243 347.5348,19.716 347.54729999999995,19.7018 347.5475,19.699 347.56399999999996,19.6752 347.5834,19.6576 347.5904,19.6485 347.589,19.6465 347.5906,19.6446 347.5923,19.6318 347.59119999999996,19.6191 347.5845,19.596 347.57169999999996,19.5818 347.5653,19.5713 347.5573,19.5649 347.547,19.5638 347.5362,19.5663 347.5292,19.5702 347.5279,19.5735 347.5331,19.5794 347.5365,19.5738 347.5406,19.5704 347.55060000000003,19.5679 347.55809999999997,19.5693 347.5648,19.5743 347.57669999999996,19.5899 347.58669999999995,19.613 347.5887,19.625700000000002 347.5857,19.6418 347.5784,19.6541 347.54949999999997,19.6896 347.5451,19.6988 347.5345,19.7104 347.5298,19.7196 347.5276,19.7304 347.52070000000003,19.7404 347.51509999999996,19.7463 347.50919999999996,19.749 347.5021,19.758 347.494,19.7588 347.4909,19.7615 347.48839999999996,19.7643 347.4887,19.7713 347.4873,19.774 347.4812,19.7782 347.4759,19.785800000000002 347.47090000000003,19.789 347.46079999999995,19.8004 347.452,19.8015 347.45169999999996,19.8052 347.4537,19.8066 347.4596,19.8042 "></polygon><polygon points="347.4301,19.7088 347.4319,19.7099 347.4332,19.708 347.432,19.7075 347.4301,19.7088 "></polygon><polygon points="347.4301,19.7098 347.42949999999996,19.709 347.42859999999996,19.709 347.4297,19.7106 347.4301,19.7098 "></polygon><polygon points="347.42539999999997,19.713 347.4269,19.7144 347.4279,19.7139 347.4246,19.7106 347.42539999999997,19.713 "></polygon><polygon points="347.4189,19.7163 347.4203,19.7132 347.4187,19.7135 347.4183,19.7154 347.4175,19.714 347.4145,19.7152 347.4126,19.7176 347.4151,19.7204 347.4189,19.7163 "></polygon><polygon points="347.4006,19.7296 347.40229999999997,19.7306 347.40139999999997,19.7277 347.3995,19.7285 347.4006,19.7296 "></polygon><polygon points="347.39509999999996,19.7328 347.39549999999997,19.7322 347.3943,19.731 347.3944,19.7333 347.39509999999996,19.7328 "></polygon><polygon points="347.39059999999995,19.7321 347.3866,19.733 347.3876,19.7357 347.39239999999995,19.7333 347.39059999999995,19.7321 "></polygon><polygon points="347.3837,19.7344 347.3828,19.7338 347.38149999999996,19.7343 347.3817,19.7352 347.3837,19.7344 "></polygon><polygon points="347.4462,19.8057 347.447,19.8074 347.4473,19.8046 347.4456,19.8027 347.4462,19.8057 "></polygon><polygon points="347.4441,19.8065 347.4452,19.806 347.4437,19.8035 347.43899999999996,19.8043 347.44010000000003,19.8085 347.4441,19.8065 "></polygon><polygon points="347.43309999999997,19.8113 347.4312,19.8082 347.4303,19.8079 347.4326,19.813200000000002 347.43309999999997,19.8113 "></polygon><polygon points="347.42229999999995,19.8127 347.4198,19.8121 347.4189,19.8129 347.4237,19.8154 347.4237,19.8124 347.42229999999995,19.8127 "></polygon><polygon points="351.3372,15.2385 351.3529,15.2349 351.3651,15.2261 351.3742,15.211500000000001 351.3876,15.1952 351.3921,15.1832 351.3898,15.179 351.37199999999996,15.1979 351.3678,15.2068 351.35979999999995,15.218 351.3478,15.229 351.3331,15.2388 351.3343,15.2398 351.3372,15.2385 "></polygon><polygon points="350.5262,15.361 350.5426,15.3438 350.5421,15.3363 350.5317,15.338799999999999 350.5276,15.3466 350.5181,15.3555 350.5093,15.3607 350.5082,15.3651 350.5099,15.3686 350.514,15.3689 350.52189999999996,15.3651 350.5262,15.361 "></polygon><polygon points="350.1225,15.9114 350.1237,15.912700000000001 350.1267,15.9077 350.1245,15.906 350.12170000000003,15.9077 350.1198,15.9057 350.1223,15.904 350.1259,15.9043 350.1284,15.9008 350.1227,15.898 350.11699999999996,15.9003 350.11249999999995,15.8998 350.1115,15.9016 350.11249999999995,15.9073 350.1157,15.9083 350.1195,15.9143 350.1212,15.9134 350.119,15.911 350.1225,15.9114 "></polygon><polygon points="350.1316,15.9091 350.1331,15.9065 350.1359,15.907399999999999 350.1364,15.9062 350.13009999999997,15.9027 350.1284,15.9049 350.129,15.9093 350.1267,15.909 350.12649999999996,15.9104 350.1302,15.9107 350.1316,15.9091 "></polygon><polygon points="350.1187,15.9924 350.1273,15.9854 350.1363,15.9824 350.1405,15.9826 350.1495,15.9784 350.1615,15.963799999999999 350.16319999999996,15.955 350.1583,15.9367 350.15369999999996,15.9274 350.14009999999996,15.9099 350.1363,15.912700000000001 350.14149999999995,15.913499999999999 350.1453,15.9178 350.1473,15.9242 350.1531,15.9304 350.1559,15.937100000000001 350.1581,15.9454 350.15840000000003,15.956 350.157,15.9618 350.1515,15.9707 350.14570000000003,15.9753 350.124,15.9824 350.1148,15.9882 350.1113,15.9921 350.1117,15.9961 350.1124,15.997 350.1159,15.995000000000001 350.11429999999996,15.9912 350.1169,15.9944 350.1187,15.9924 "></polygon><polygon points="350.0659,16.0624 350.0734,16.0593 350.08169999999996,16.0518 350.09529999999995,16.0482 350.097,16.0499 350.1006,16.046 350.1031,16.038800000000002 350.099,16.0271 350.0981,16.0157 350.0965,16.013 350.0987,16.0113 350.0965,16.0102 350.0931,16.0163 350.0945,16.0262 350.0973,16.0316 350.09619999999995,16.0368 350.0929,16.0402 350.082,16.0415 350.0754,16.0463 350.0701,16.0532 350.0656,16.0571 350.0665,16.0591 350.0715,16.0568 350.07169999999996,16.0585 350.0648,16.0613 350.06510000000003,16.0549 350.07,16.0518 350.06449999999995,16.0501 350.063,16.052599999999998 350.0612,16.0527 350.0615,16.0593 350.0601,16.0609 350.0628,16.063200000000002 350.0659,16.0624 "></polygon><polygon points="349.6213,16.3164 349.619,16.3154 349.61699999999996,16.3165 349.6209,16.3182 349.6209,16.3219 349.6177,16.3215 349.6213,16.3258 349.6213,16.3164 "></polygon><polygon points="349.61199999999997,16.316 349.6149,16.3152 349.6162,16.3124 349.6106,16.3121 349.6076,16.3163 349.60749999999996,16.322400000000002 349.60479999999995,16.3279 349.6105,16.334600000000002 349.61249999999995,16.335 349.6097,16.3311 349.6103,16.319 349.61199999999997,16.316 "></polygon><polygon points="349.6031,16.3843 349.61339999999996,16.3859 349.6137,16.3827 349.61199999999997,16.3804 349.61839999999995,16.3735 349.6223,16.3763 349.62469999999996,16.3754 349.6242,16.3721 349.62170000000003,16.3702 349.619,16.3568 349.6135,16.3574 349.61199999999997,16.356 349.61339999999996,16.3535 349.6181,16.3543 349.61699999999996,16.3465 349.62080000000003,16.3261 349.6149,16.329 349.6183,16.3333 349.6103,16.3552 349.6173,16.3707 349.61400000000003,16.3721 349.6145,16.369 349.61310000000003,16.3685 349.6104,16.3702 349.6062,16.3688 349.6023,16.3702 349.5931,16.3796 349.5987,16.3865 349.6031,16.3843 "></polygon><polygon points="349.5926,16.3915 349.589,16.3874 349.5895,16.384900000000002 349.5929,16.3903 349.59389999999996,16.3895 349.5923,16.3871 349.594,16.389 349.5956,16.3882 349.5904,16.3824 349.5843,16.3891 349.5901,16.3941 349.5926,16.3915 "></polygon><polygon points="349.58029999999997,16.4004 349.5815,16.3988 349.5848,16.4002 349.587,16.397100000000002 349.5792,16.3896 349.5762,16.3955 349.5657,16.4041 349.5756,16.4007 349.5795,16.4046 349.58230000000003,16.4021 349.58029999999997,16.4004 "></polygon><polygon points="349.5751,16.4024 349.5759,16.4049 349.5709,16.4063 349.5754,16.4105 349.5779,16.4065 349.5751,16.4024 "></polygon><polygon points="349.5579,16.4163 349.5607,16.4188 349.5628,16.4152 349.56449999999995,16.4166 349.5707,16.4143 349.5712,16.4093 349.56759999999997,16.4057 349.5567,16.4088 349.5567,16.4027 349.5548,16.406 349.5551,16.4093 349.55089999999996,16.4085 349.5501,16.4096 349.55269999999996,16.4117 349.5542,16.4199 349.5579,16.4163 "></polygon><polygon points="349.5451,16.4109 349.5425,16.41 349.5426,16.4124 349.5412,16.4115 349.5472,16.4185 349.5474,16.4225 349.5501,16.4229 349.55089999999996,16.4202 349.548,16.4113 349.5451,16.4109 "></polygon><polygon points="349.5331,16.4274 349.5303,16.4213 349.5335,16.4229 349.53589999999997,16.4267 349.5353,16.4232 349.5376,16.4256 349.5417,16.4221 349.53959999999995,16.4179 349.536,16.4223 349.5349,16.4204 349.5295,16.4207 349.52819999999997,16.4252 349.52509999999995,16.4216 349.52369999999996,16.4221 349.52869999999996,16.4285 349.5317,16.4296 349.5331,16.4274 "></polygon><polygon points="349.5221,16.4294 349.52459999999996,16.4327 349.5234,16.4235 349.5173,16.4182 349.51649999999995,16.4191 349.5221,16.4294 "></polygon><polygon points="349.517,16.4305 349.5173,16.4257 349.5143,16.4196 349.5145,16.4265 349.5126,16.4299 349.5159,16.4335 349.5179,16.4324 349.517,16.4305 "></polygon><polygon points="349.51059999999995,16.4327 349.5117,16.4318 349.51120000000003,16.4231 349.5098,16.4284 349.51059999999995,16.4327 "></polygon><polygon points="349.50789999999995,16.4318 349.50559999999996,16.4288 349.5001,16.4288 349.5045,16.4338 349.50789999999995,16.4318 "></polygon><polygon points="349.50260000000003,16.4332 349.5007,16.4304 349.499,16.4318 349.49670000000003,16.4307 349.5017,16.4354 349.50260000000003,16.4332 "></polygon><polygon points="349.4792,16.4413 349.4781,16.4421 349.47889999999995,16.4443 349.48199999999997,16.4479 349.4831,16.4468 349.4792,16.4413 "></polygon><polygon points="349.48900000000003,16.4463 349.4856,16.4413 349.4831,16.4427 349.4867,16.4488 349.48900000000003,16.4463 "></polygon><polygon points="349.47619999999995,16.4429 349.47479999999996,16.4454 349.4773,16.4513 349.47950000000003,16.4521 349.47950000000003,16.4479 349.4773,16.4426 349.47619999999995,16.4429 "></polygon><polygon points="349.4706,16.4502 349.47159999999997,16.4544 349.47339999999997,16.4552 349.47479999999996,16.4532 349.47339999999997,16.4501 349.4719,16.4485 349.4706,16.4502 "></polygon><polygon points="349.4682,16.4548 349.4667,16.4515 349.4645,16.4507 349.4676,16.4574 349.46889999999996,16.4563 349.4682,16.4548 "></polygon><polygon points="349.4598,16.459 349.46259999999995,16.4571 349.4609,16.4549 349.4551,16.4532 349.45399999999995,16.4588 349.45669999999996,16.4605 349.4598,16.459 "></polygon><polygon points="349.44309999999996,16.4674 349.4409,16.4643 349.44169999999997,16.4632 349.4489,16.4682 349.45259999999996,16.4649 349.4509,16.4613 349.4528,16.4604 349.4509,16.4577 349.4453,16.4632 349.442,16.4615 349.4376,16.4627 349.4387,16.4649 349.4367,16.4674 349.44010000000003,16.4704 349.4442,16.4713 349.44309999999996,16.4674 "></polygon><polygon points="349.4378,16.4824 349.4398,16.4808 349.4423,16.4815 349.4409,16.4791 349.442,16.4771 349.4387,16.4752 349.4392,16.473 349.4365,16.4713 349.4351,16.4729 349.4384,16.4765 349.4353,16.4813 349.4329,16.4813 349.437,16.4852 349.4387,16.4835 349.4378,16.4824 "></polygon><polygon points="349.43089999999995,16.4832 349.43489999999997,16.4865 349.4356,16.4866 349.4312,16.4815 349.42949999999996,16.4814 349.43089999999995,16.4832 "></polygon><polygon points="349.4329,16.4893 349.4337,16.4877 349.4291,16.4839 349.4299,16.4858 349.4276,16.4865 349.4296,16.4896 349.4312,16.4907 349.4329,16.4893 "></polygon><polygon points="349.42650000000003,16.4921 349.4248,16.4896 349.4267,16.488500000000002 349.42589999999996,16.4868 349.42229999999995,16.484 349.4206,16.4846 349.42089999999996,16.4871 349.4189,16.4884 349.42539999999997,16.494 349.42650000000003,16.4921 "></polygon><polygon points="349.41679999999997,16.5038 349.4151,16.5004 349.4187,16.500700000000002 349.4234,16.496 349.4187,16.4913 349.41679999999997,16.4949 349.41369999999995,16.496 349.4151,16.497700000000002 349.4126,16.501 349.4076,16.5018 349.414,16.5065 349.41679999999997,16.5038 "></polygon><polygon points="349.4948,16.4436 349.4954,16.4407 349.4926,16.4368 349.4954,16.4385 349.4971,16.4371 349.4948,16.4338 349.4962,16.4323 349.49199999999996,16.4313 349.4887,16.435200000000002 349.4903,16.4379 349.4876,16.4393 349.49199999999996,16.4449 349.4948,16.4436 "></polygon><polygon points="350.98130000000003,16.538 350.993,16.5284 351.004,16.4949 351.01030000000003,16.4851 351.0176,16.4782 351.02689999999996,16.4725 351.0326,16.466 351.0369,16.4559 351.0367,16.4524 351.039,16.4507 351.0383,16.4488 351.03549999999996,16.4472 351.03189999999995,16.448 351.02509999999995,16.4544 351.022,16.4552 351.0181,16.461 351.0167,16.4721 351.012,16.4799 350.9987,16.4902 350.9898,16.4993 350.98040000000003,16.5057 350.97749999999996,16.5101 350.962,16.5243 350.948,16.5352 350.947,16.538 350.9507,16.5402 350.95489999999995,16.540399999999998 350.98130000000003,16.538 "></polygon><polygon points="350.5084,16.5734 350.52570000000003,16.5569 350.5399,16.5344 350.547,16.5174 350.5698,16.4905 350.57169999999996,16.4846 350.5748,16.4849 350.56759999999997,16.4769 350.56449999999995,16.4769 350.5606,16.4796 350.5492,16.4907 350.5389,16.494 350.5377,16.497 350.5362,16.4954 350.536,16.4985 350.53459999999995,16.4952 350.53459999999995,16.5011 350.53189999999995,16.497700000000002 350.533,16.5044 350.5276,16.509900000000002 350.5279,16.5149 350.537,16.5152 350.5374,16.5068 350.54290000000003,16.4991 350.5415,16.5092 350.5394,16.5116 350.536,16.5279 350.5281,16.5438 350.5229,16.5499 350.5203,16.5525 350.5116,16.5553 350.50440000000003,16.5541 350.5022,16.5552 350.50199999999995,16.5628 350.5037,16.5662 350.506,16.5668 350.5041,16.5682 350.50199999999995,16.5671 350.5001,16.5685 350.4969,16.5646 350.4972,16.5587 350.4998,16.557 350.499,16.5555 350.4915,16.5579 350.4891,16.557 350.48810000000003,16.5656 350.495,16.573 350.4957,16.5756 350.4937,16.5752 350.4926,16.5788 350.4955,16.5822 350.5,16.5819 350.5084,16.5734 "></polygon><polygon points="349.399,16.516 349.3953,16.5077 349.4015,16.5082 349.407,16.5146 349.4081,16.511 349.41139999999996,16.5094 349.4115,16.5074 349.4094,16.505 349.40819999999997,16.5084 349.4072,16.5071 349.3927,16.5066 349.3908,16.5086 349.39369999999997,16.5163 349.399,16.516 "></polygon><polygon points="349.3887,16.5104 349.3867,16.5121 349.39009999999996,16.5188 349.392,16.5193 349.3887,16.5104 "></polygon><polygon points="349.3863,16.5167 349.38829999999996,16.5192 349.3855,16.5122 349.3821,16.5102 349.3863,16.5167 "></polygon><polygon points="349.3821,16.5148 349.3836,16.5183 349.38649999999996,16.5202 349.38469999999995,16.5151 349.3816,16.512 349.3805,16.5138 349.3821,16.5148 "></polygon><polygon points="349.3817,16.5188 349.38030000000003,16.516 349.3762,16.5118 349.3753,16.512900000000002 349.38009999999997,16.5216 349.38289999999995,16.5204 349.3817,16.5188 "></polygon><polygon points="349.3751,16.5209 349.374,16.5188 349.3698,16.514 349.369,16.5149 349.37559999999996,16.5243 349.3751,16.5209 "></polygon><polygon points="349.3726,16.5249 349.3687,16.5165 349.3651,16.5154 349.3696,16.5249 349.3709,16.526 349.3726,16.5249 "></polygon><polygon points="349.3648,16.5276 349.3659,16.5294 349.3673,16.5279 349.3628,16.5224 349.359,16.5229 349.3573,16.5249 349.35540000000003,16.5224 349.35450000000003,16.5232 349.3628,16.5346 349.3645,16.5302 349.3623,16.526 349.3648,16.5276 "></polygon><polygon points="349.3559,16.5335 349.34979999999996,16.5265 349.34839999999997,16.5277 349.35479999999995,16.536 349.3559,16.5335 "></polygon><polygon points="349.33669999999995,16.5907 349.3415,16.5837 349.34479999999996,16.5627 349.347,16.5624 349.347,16.5599 349.3438,16.5588 349.3469,16.5586 349.3461,16.5475 349.3503,16.5402 349.34529999999995,16.5357 349.3434,16.5393 349.347,16.5432 349.34590000000003,16.5441 349.34090000000003,16.5424 349.34479999999996,16.5449 349.3417,16.5457 349.345,16.5496 349.33889999999997,16.5499 349.34090000000003,16.5607 349.34090000000003,16.5777 349.3384,16.5844 349.3318,16.5902 349.33669999999995,16.5907 "></polygon><polygon points="349.2109,16.7479 349.2242,16.7299 349.2237,16.727899999999998 349.2267,16.7271 349.22950000000003,16.7238 349.2323,16.7243 349.2342,16.7207 349.2363,16.7213 349.2401,16.7182 349.2353,16.7132 349.2359,16.7116 349.23699999999997,16.711 349.2401,16.7152 349.2426,16.7132 349.2454,16.7155 349.2464,16.711 349.2504,16.7102 349.2495,16.7085 349.2523,16.7055 349.2561,16.7066 349.2584,16.7043 349.262,16.7038 349.2673,16.6954 349.2717,16.6927 349.2776,16.6815 349.2759,16.6799 349.2842,16.6699 349.2881,16.6693 349.2907,16.6641 349.2884,16.661 349.2913,16.6588 349.2931,16.6615 349.2956,16.6591 349.29229999999995,16.6563 349.2926,16.654 349.30089999999996,16.653 349.304,16.646 349.3115,16.6385 349.3089,16.6352 349.3134,16.6374 349.3155,16.6356 349.3242,16.626 349.3206,16.6218 349.3219,16.6207 349.3265,16.6235 349.3359,16.6099 349.3381,16.6093 349.3381,16.6063 349.33529999999996,16.6049 349.3356,16.5993 349.33759999999995,16.5982 349.339,16.5993 349.3381,16.5938 349.3319,16.5959 349.33119999999997,16.6071 349.3209,16.6198 349.3166,16.6283 349.3017,16.6368 349.27419999999995,16.6652 349.2706,16.6721 349.2693,16.6804 349.2653,16.6846 349.2495,16.6963 349.2412,16.699 349.2223,16.713 349.21590000000003,16.7163 349.2106,16.716 349.20730000000003,16.7179 349.202,16.7271 349.2042,16.7306 349.20399999999995,16.7393 349.20669999999996,16.747700000000002 349.2109,16.7479 "></polygon><polygon points="348.8767,17.2749 348.8766,17.2722 348.8807,17.2757 348.8802,17.2727 348.8819,17.2747 348.8817,17.2722 348.8855,17.276 348.89959999999996,17.275100000000002 348.9074,17.271 348.9063,17.2678 348.9094,17.2672 348.9057,17.2652 348.9062,17.2665 348.9039,17.2679 348.90279999999996,17.2643 348.90779999999995,17.2643 348.91049999999996,17.2664 348.90909999999997,17.2701 348.9185,17.261 348.9279,17.2563 348.94010000000003,17.2457 348.9575,17.2252 348.9735,17.2141 348.9815,17.2108 348.9854,17.2072 348.98810000000003,17.2015 348.9923,17.1995 348.9954,17.1941 348.99559999999997,17.186700000000002 348.9972,17.1843 348.99580000000003,17.1816 348.9984,17.1754 349.0003,17.1629 348.9972,17.1506 348.9964,17.1357 348.99739999999997,17.1313 348.9992,17.1304 348.9983,17.1276 349.0098,17.1063 349.014,17.0943 349.01599999999996,17.0929 349.0143,17.0923 349.01509999999996,17.0863 349.0213,17.0636 349.0191,17.0448 349.0157,17.0424 349.0129,17.0424 349.0085,17.0374 349.0019,17.043 348.9987,17.0407 349.00019999999995,17.0438 348.9978,17.0458 348.9951,17.0443 348.9957,17.0478 348.993,17.0487 348.99789999999996,17.0545 348.998,17.0593 349.00109999999995,17.06 349.004,17.0632 349.00379999999996,17.0596 348.9977,17.0531 349.00149999999996,17.0493 349.0032,17.0504 349.0046,17.049 349.0082,17.0391 349.0078,17.0406 349.0113,17.0446 349.01559999999995,17.0432 349.0179,17.0452 349.0164,17.0485 349.0186,17.0497 349.01919999999996,17.0524 349.014,17.0552 349.01959999999997,17.0535 349.02,17.0556 349.0145,17.0566 349.0179,17.0564 349.01890000000003,17.0613 349.0107,17.0916 348.9989,17.1087 348.9939,17.1188 348.9924,17.1363 348.9954,17.1647 348.9941,17.1721 348.9896,17.1823 348.9892,17.1988 348.9914,17.1987 348.9873,17.200400000000002 348.9841,17.1986 348.979,17.2009 348.97860000000003,17.2044 348.9805,17.2072 348.97929999999997,17.2097 348.9672,17.2119 348.9537,17.2218 348.9394,17.2428 348.9359,17.2455 348.9282,17.2469 348.91880000000003,17.2536 348.9138,17.26 348.9085,17.2627 348.9009,17.264 348.8956,17.2696 348.8909,17.2713 348.8887,17.269 348.8849,17.2706 348.8755,17.271 348.875,17.2743 348.8716,17.2764 348.8663,17.2763 348.8651,17.2755 348.8658,17.2733 348.86289999999997,17.2731 348.8667,17.2799 348.8763,17.2767 348.8767,17.2749 "></polygon><polygon points="348.7576,17.2588 348.7598,17.2601 348.7584,17.2555 348.7573,17.2565 348.7576,17.2588 "></polygon><polygon points="348.85630000000003,17.2807 348.8578,17.2844 348.86310000000003,17.2814 348.8619,17.2778 348.8628,17.2748 348.85889999999995,17.2798 348.85630000000003,17.2807 "></polygon><polygon points="348.8336,17.2988 348.8327,17.297 348.8374,17.3011 348.8392,17.2996 348.8384,17.2975 348.84069999999997,17.2987 348.8473,17.2944 348.856,17.2848 348.8542,17.282 348.8547,17.28 348.85339999999997,17.2803 348.8503,17.2884 348.8458,17.2901 348.846,17.2925 348.8431,17.2959 348.8366,17.2969 348.83619999999996,17.2953 348.83529999999996,17.2973 348.8322,17.2952 348.8311,17.2955 348.8322,17.2999 348.82759999999996,17.2969 348.8268,17.2991 348.8327,17.3033 348.8336,17.2988 "></polygon><polygon points="348.81219999999996,17.2967 348.8124,17.3002 348.8139,17.3015 348.8135,17.2943 348.81219999999996,17.2967 "></polygon><polygon points="348.8215,17.2969 348.8174,17.2958 348.8173,17.3019 348.82259999999997,17.3029 348.8233,17.3002 348.8215,17.2969 "></polygon><polygon points="348.80150000000003,17.3005 348.7983,17.2993 348.80060000000003,17.3036 348.8064,17.3021 348.80589999999995,17.3001 348.80150000000003,17.3005 "></polygon><polygon points="348.7617,17.3008 348.76509999999996,17.306 348.7662,17.3066 348.7626,17.2975 348.7617,17.3008 "></polygon><polygon points="348.7917,17.3079 348.7953,17.3065 348.7948,17.3038 348.7858,17.3067 348.7848,17.312 348.7866,17.313 348.7879,17.312 348.7865,17.3076 348.7917,17.3079 "></polygon><polygon points="348.7748,17.3146 348.7771,17.3172 348.77840000000003,17.3162 348.7748,17.3119 348.7748,17.3146 "></polygon><polygon points="348.76,17.3176 348.75919999999996,17.3165 348.7593,17.3184 348.7618,17.3199 348.7614,17.317 348.76,17.3176 "></polygon><polygon points="348.7786,17.3213 348.78189999999995,17.3177 348.7824,17.3149 348.77840000000003,17.31 348.7785,17.312 348.7817,17.3148 348.7811,17.3173 348.7761,17.3211 348.775,17.3188 348.77369999999996,17.3264 348.7725,17.3187 348.7704,17.3209 348.7662,17.3177 348.76689999999996,17.3161 348.7693,17.3165 348.7715,17.3134 348.7676,17.3126 348.7647,17.317 348.7672,17.3209 348.77099999999996,17.3229 348.7741,17.3281 348.7786,17.3213 "></polygon><polygon points="348.1798,18.0502 348.1879,18.0292 348.1883,18.0243 348.1859,18.0152 348.17499999999995,17.984 348.169,17.9768 348.1654,17.9763 348.16589999999997,17.9738 348.1626,17.9743 348.1576,17.9699 348.1553,17.9699 348.1548,17.9718 348.1526,17.9724 348.1603,17.9807 348.1612,17.986 348.1653,17.9849 348.17229999999995,17.9932 348.18039999999996,18.0135 348.1806,18.0265 348.1784,18.0307 348.1731,18.0354 348.174,18.0407 348.1764,18.0424 348.1787,18.0399 348.18039999999996,18.0452 348.1784,18.0484 348.1737,18.0479 348.1731,18.0507 348.1762,18.0516 348.17470000000003,18.0547 348.1726,18.0515 348.1698,18.0527 348.172,18.0568 348.1737,18.0571 348.1798,18.0502 "></polygon><polygon points="348.1379,18.0394 348.137,18.0451 348.1376,18.0461 348.1388,18.0378 348.1379,18.0394 "></polygon><polygon points="348.13919999999996,18.0446 348.1399,18.0462 348.14059999999995,18.038 348.14,18.038 348.13919999999996,18.0446 "></polygon><polygon points="348.1443,18.0426 348.1426,18.047 348.1427,18.0477 348.14509999999996,18.0444 348.14509999999996,18.0385 348.1443,18.0426 "></polygon><polygon points="348.1871,18.038 348.1821,18.0504 348.17139999999995,18.0633 348.1755,18.0607 348.1821,18.0522 348.1869,18.0414 348.1893,18.032 348.1871,18.038 "></polygon><polygon points="348.1551,18.0509 348.1538,18.0498 348.1522,18.053 348.15319999999997,18.054 348.1551,18.0509 "></polygon><polygon points="348.1706,18.060200000000002 348.1715,18.0585 348.1687,18.0558 348.1692,18.054 348.1628,18.0452 348.1617,18.0485 348.1648,18.0523 348.1676,18.0604 348.1689,18.0618 348.1706,18.060200000000002 "></polygon><polygon points="348.3929,18.1952 348.3953,18.1921 348.3926,18.1915 348.3837,18.1951 348.3907,18.1994 348.3929,18.1952 "></polygon><polygon points="348.4701,18.2491 348.4724,18.2479 348.4742,18.2427 348.4715,18.2396 348.4751,18.2388 348.4759,18.234 348.4859,18.2143 348.4868,18.1984 348.48130000000003,18.1971 348.4841,18.1956 348.4869,18.1971 348.4912,18.1752 348.4887,18.1746 348.48810000000003,18.1813 348.48699999999997,18.1813 348.4865,18.1643 348.48040000000003,18.1585 348.47429999999997,18.1568 348.467,18.1577 348.46590000000003,18.159 348.4616,18.1581 348.4601,18.1638 348.4598,18.1602 348.4581,18.1588 348.4492,18.159 348.4477,18.1611 348.4492,18.1674 348.45399999999995,18.1652 348.46209999999996,18.1675 348.46590000000003,18.1658 348.4731,18.1668 348.477,18.1699 348.4773,18.1741 348.4792,18.1763 348.48040000000003,18.1849 348.4781,18.1868 348.47889999999995,18.2077 348.4776,18.2163 348.4681,18.2352 348.46439999999996,18.2506 348.4624,18.2506 348.46259999999995,18.2523 348.4692,18.2557 348.4719,18.251 348.4701,18.2491 "></polygon><polygon points="348.3162,18.2454 348.3215,18.2402 348.32849999999996,18.2388 348.3288,18.2366 348.3372,18.2312 348.31399999999996,18.233 348.30859999999996,18.2352 348.30449999999996,18.239 348.3042,18.2415 348.307,18.2449 348.31269999999995,18.2463 348.3162,18.2454 "></polygon><polygon points="348.38059999999996,18.3468 348.3849,18.346 348.4004,18.3357 348.4134,18.3232 348.4271,18.3136 348.4587,18.2863 348.4664,18.2671 348.4637,18.2643 348.469,18.2619 348.4688,18.257 348.4637,18.2554 348.459,18.2607 348.45529999999997,18.273 348.4479,18.283 348.399,18.3281 348.3962,18.3327 348.38620000000003,18.3391 348.37760000000003,18.3396 348.3692,18.3349 348.3572,18.3158 348.3535,18.313 348.3481,18.3043 348.34619999999995,18.304 348.344,18.3079 348.3476,18.3099 348.34659999999997,18.3147 348.3551,18.3248 348.3523,18.3296 348.3592,18.3385 348.369,18.3452 348.38059999999996,18.3468 "></polygon><polygon points="348.1399,18.021 348.13800000000003,18.0191 348.1322,18.0209 348.1337,18.0228 348.1346,18.021 348.1399,18.021 "></polygon><polygon points="348.0942,18.0402 348.1095,18.0382 348.1109,18.0374 348.1106,18.0349 348.1178,18.0306 348.1194,18.0278 348.1176,18.0275 348.11379999999997,18.031 348.1151,18.028200000000002 348.1181,18.0265 348.12149999999997,18.0274 348.1273,18.026 348.1291,18.0242 348.1278,18.023 348.1123,18.024 348.1062,18.0218 348.0901,18.0274 348.0798,18.0343 348.08169999999996,18.0379 348.0865,18.041 348.0942,18.0402 "></polygon><polygon points="347.9353,18.1199 347.94759999999997,18.1115 347.9459,18.109 347.9509,18.1018 347.9548,18.0838 347.9615,18.0838 347.96619999999996,18.0813 347.9701,18.0843 347.972,18.0838 347.977,18.0788 347.9945,18.0693 347.9968,18.0661 347.9823,18.0599 347.9717,18.051 347.9692,18.0457 347.96479999999997,18.046 347.96259999999995,18.0485 347.9637,18.0529 347.95759999999996,18.059 347.9542,18.0821 347.94899999999996,18.0921 347.93179999999995,18.1071 347.922,18.1127 347.9301,18.1235 347.9315,18.1238 347.9353,18.1199 "></polygon><polygon points="347.52009999999996,18.7094 347.522,18.7104 347.5236,18.708 347.522,18.7084 347.52009999999996,18.7094 "></polygon><polygon points="347.81510000000003,19.9125 347.8209,19.9092 347.8256,19.901600000000002 347.8369,19.8609 347.84000000000003,19.8532 347.8438,19.851300000000002 347.8458,19.8457 347.8442,19.846 347.8423,19.8502 347.8399,19.8488 347.842,19.8479 347.8476,19.8374 347.8509,19.836 347.852,19.8335 347.8515,19.8266 347.8451,19.822400000000002 347.83619999999996,19.8221 347.8023,19.8263 347.79729999999995,19.8296 347.7953,19.8338 347.7939,19.841 347.79449999999997,19.8496 347.8026,19.8655 347.7999,19.8778 347.8021,19.898 347.8085,19.9102 347.8119,19.9132 347.81510000000003,19.9125 "></polygon><polygon points="347.5292,21.1982 347.5265,21.1952 347.52509999999995,21.1921 347.5256,21.200400000000002 347.5292,21.1982 "></polygon><polygon points="347.5542,21.2429 347.5528,21.2424 347.55179999999996,21.2441 347.5503,21.2427 347.5505,21.2394 347.5528,21.2372 347.5499,21.2307 347.5435,21.2324 347.5392,21.2299 347.539,21.226 347.5353,21.224 347.5295,21.2148 347.5259,21.203 347.5259,21.2161 347.5195,21.2254 347.5204,21.2284 347.53729999999996,21.2446 347.5425,21.2458 347.5467,21.2449 347.5493,21.2479 347.5542,21.2429 "></polygon><polygon points="347.4165,19.8154 347.41819999999996,19.8181 347.4206,19.8159 347.4174,19.8135 347.4154,19.8138 347.4165,19.8154 "></polygon><polygon points="347.41110000000003,19.816 347.4067,19.8144 347.40139999999997,19.808 347.4015,19.8129 347.399,19.8177 347.4003,19.821 347.402,19.8141 347.405,19.8227 347.4057,19.8183 347.40869999999995,19.823 347.4112,19.8238 347.41229999999996,19.8199 347.41110000000003,19.816 "></polygon><polygon points="347.5076,21.0329 347.5067,21.0302 347.5126,21.029 347.5134,21.0268 347.5114,21.0263 347.5126,21.025100000000002 347.5107,21.0238 347.5081,21.0246 347.4878,21.0063 347.47090000000003,20.9972 347.4687,20.9946 347.4631,20.9921 347.46169999999995,20.9932 347.46169999999995,20.9913 347.4556,20.9879 347.4504,20.9827 347.44280000000003,20.9668 347.4398,20.9679 347.44010000000003,20.9696 347.4437,20.971 347.44010000000003,20.9724 347.4513,20.9883 347.4862,21.0083 347.494,21.0149 347.5023,21.0254 347.5059,21.0327 347.5076,21.0329 "></polygon><polygon points="347.5031,21.0716 347.5059,21.0702 347.5019,21.0682 347.4987,21.071 347.5017,21.0738 347.5031,21.0716 "></polygon><polygon points="347.24339999999995,21.0668 347.2487,21.063 347.249,21.0615 347.2445,21.0635 347.23929999999996,21.0697 347.24339999999995,21.0668 "></polygon><polygon points="347.2392,21.1171 347.2387,21.1185 347.2412,21.1204 347.24199999999996,21.1179 347.2387,21.1157 347.2392,21.1171 "></polygon><polygon points="347.23389999999995,21.1146 347.2345,21.1129 347.23040000000003,21.1085 347.224,21.122700000000002 347.2237,21.1277 347.22950000000003,21.1182 347.23389999999995,21.1146 "></polygon><polygon points="347.4981,21.079 347.4964,21.0799 347.4995,21.0816 347.4995,21.0785 347.4981,21.079 "></polygon><polygon points="347.51009999999997,21.1429 347.5076,21.1449 347.5147,21.1574 347.514,21.1463 347.51009999999997,21.1429 "></polygon><polygon points="347.5137,21.1657 347.5173,21.1771 347.52189999999996,21.1838 347.5217,21.1727 347.5181,21.1685 347.5159,21.1626 347.5131,21.1632 347.5137,21.1657 "></polygon><polygon points="17.054000000000002,19.7837 17.0557,19.7861 17.05589999999998,19.7892 17.056600000000003,19.7865 17.054000000000002,19.7825 17.054000000000002,19.7837 "></polygon><polygon points="17.0634,19.809 17.062600000000003,19.8057 17.05789999999999,19.8043 17.058399999999978,19.808 17.062299999999993,19.8093 17.06219999999999,19.8113 17.060900000000004,19.811 17.059499999999986,19.8135 17.060900000000004,19.816 17.0634,19.809 "></polygon><polygon points="17.1173,19.8227 17.12039999999999,19.8174 17.119,19.8154 17.116500000000002,19.8158 17.114199999999983,19.8207 17.112300000000005,19.8213 17.10979999999998,19.8188 17.10839999999999,19.821 17.112300000000005,19.8249 17.115499999999997,19.825 17.1173,19.8227 "></polygon><polygon points="17.11779999999999,19.8485 17.124799999999993,19.8412 17.121999999999986,19.838 17.12039999999999,19.8413 17.114499999999992,19.8407 17.112799999999993,19.8421 17.111999999999995,19.8496 17.11779999999999,19.8485 "></polygon><polygon points="347.3309,19.7522 347.3297,19.7518 347.3252,19.7558 347.3304,19.7528 347.3309,19.7522 "></polygon><polygon points="17.149999999999977,19.788800000000002 17.146500000000003,19.7871 17.1473,19.784 17.146199999999993,19.7829 17.143399999999986,19.7835 17.14009999999999,19.7874 17.143699999999995,19.7857 17.147599999999983,19.7902 17.149999999999977,19.788800000000002 "></polygon><polygon points="347.4387,20.9549 347.44010000000003,20.9543 347.4403,20.9496 347.44309999999996,20.946 347.4448,20.946 347.4451,20.9427 347.4131,20.950400000000002 347.4076,20.950400000000002 347.407,20.949 347.4029,20.951 347.4009,20.9494 347.38620000000003,20.9485 347.369,20.9438 347.3662,20.946 347.3648,20.9418 347.3456,20.9321 347.3351,20.9204 347.3153,20.9121 347.312,20.9068 347.3079,20.9043 347.3071,20.8994 347.30949999999996,20.8969 347.3087,20.8946 347.3071,20.8924 347.3028,20.8913 347.3012,20.8935 347.3034,20.9049 347.3001,20.9096 347.29589999999996,20.9207 347.2856,20.9318 347.28869999999995,20.9329 347.289,20.9346 347.29229999999995,20.934 347.2934,20.9323 347.29200000000003,20.9304 347.29589999999996,20.9252 347.29949999999997,20.924 347.2987,20.9218 347.30150000000003,20.9185 347.3053,20.9196 347.3098,20.9174 347.31669999999997,20.9202 347.3329,20.923000000000002 347.3445,20.936 347.3587,20.9422 347.3653,20.9502 347.3665,20.949 347.37170000000003,20.9516 347.38030000000003,20.9518 347.3859,20.9552 347.3898,20.9532 347.4006,20.954 347.4031,20.9566 347.4065,20.9549 347.4134,20.9566 347.4192,20.9535 347.4248,20.9552 347.4303,20.951 347.4317,20.9524 347.4334,20.9513 347.4362,20.9521 347.4337,20.9563 347.4351,20.9577 347.4387,20.9549 "></polygon><polygon points="347.2598,20.9852 347.2548,20.9888 347.2534,20.9921 347.2571,21.0002 347.25530000000003,20.9913 347.26059999999995,20.9862 347.2598,20.9852 "></polygon><polygon points="15.205899999999986,21.7921 15.215399999999988,21.7893 15.2226,21.7829 15.22539999999998,21.7746 15.227399999999989,21.7532 15.235600000000005,21.7427 15.251199999999983,21.7343 15.280900000000003,21.7321 15.287999999999982,21.7301 15.295799999999986,21.7234 15.301199999999994,21.7151 15.303399999999982,21.6978 15.299499999999995,21.6868 15.292299999999983,21.679000000000002 15.26479999999998,21.6618 15.256799999999998,21.6596 15.228999999999985,21.6568 15.213699999999989,21.6599 15.20399999999998,21.666800000000002 15.184799999999996,21.6924 15.17949999999999,21.7068 15.1815,21.711 15.185299999999984,21.7088 15.187299999999993,21.7046 15.191699999999997,21.7021 15.191999999999979,21.697400000000002 15.195899999999995,21.6877 15.1995,21.681 15.203399999999988,21.6774 15.208699999999993,21.6763 15.212799999999987,21.6729 15.220100000000002,21.6724 15.236499999999978,21.666800000000002 15.245899999999978,21.6677 15.250299999999982,21.6708 15.255099999999999,21.6702 15.257899999999978,21.6688 15.258099999999985,21.6632 15.260099999999994,21.662399999999998 15.260099999999994,21.6699 15.258399999999995,21.671 15.260599999999982,21.6715 15.265299999999996,21.6646 15.265599999999978,21.6688 15.26309999999998,21.6707 15.26509999999999,21.6757 15.272699999999986,21.6779 15.2731,21.6802 15.277899999999988,21.6768 15.279799999999994,21.6774 15.27509999999998,21.6818 15.276199999999989,21.6835 15.287499999999994,21.686 15.29389999999998,21.6932 15.294600000000003,21.6964 15.297499999999985,21.6982 15.2954,21.7074 15.290099999999995,21.711 15.292900000000003,21.7146 15.295599999999979,21.714 15.298100000000005,21.7165 15.293399999999991,21.717100000000002 15.295899999999989,21.719 15.292000000000002,21.723 15.292299999999983,21.7182 15.288399999999996,21.7152 15.278999999999996,21.7229 15.271999999999991,21.7204 15.252299999999991,21.7243 15.246399999999994,21.7285 15.248199999999997,21.7316 15.241500000000002,21.7377 15.239199999999983,21.7349 15.244799999999998,21.7332 15.246199999999988,21.7313 15.24509999999998,21.7299 15.240399999999994,21.731 15.226699999999994,21.739 15.221499999999992,21.7457 15.216199999999986,21.7577 15.216999999999985,21.7596 15.218999999999994,21.758 15.217600000000004,21.7688 15.219899999999996,21.7724 15.219599999999986,21.7746 15.221599999999995,21.7755 15.219399999999979,21.7776 15.221399999999988,21.7773 15.221800000000002,21.7788 15.219799999999992,21.7799 15.221199999999982,21.7813 15.216999999999985,21.7854 15.211199999999991,21.7865 15.210099999999983,21.789 15.206499999999977,21.789 15.20259999999999,21.7927 15.205899999999986,21.7921 "></polygon><polygon points="15.197299999999984,21.791 15.20259999999999,21.7899 15.208399999999983,21.7849 15.209800000000001,21.786 15.21029999999999,21.7804 15.206199999999995,21.7785 15.204799999999977,21.7804 15.206499999999977,21.7843 15.203900000000004,21.7846 15.200400000000002,21.7885 15.195399999999978,21.7896 15.200099999999992,21.7832 15.19919999999999,21.781 15.194299999999998,21.7821 15.186499999999995,21.7774 15.173699999999997,21.7777 15.163099999999986,21.7715 15.15809999999999,21.7638 15.15809999999999,21.7535 15.15949999999998,21.7499 15.158699999999982,21.7424 15.161999999999978,21.737099999999998 15.17949999999999,21.7268 15.1798,21.7213 15.177599999999984,21.714 15.180599999999998,21.7135 15.178399999999982,21.711 15.173399999999987,21.7182 15.155299999999983,21.7343 15.149000000000001,21.7454 15.148399999999981,21.7538 15.156199999999984,21.7696 15.164799999999985,21.779 15.182500000000005,21.7894 15.19149999999999,21.7916 15.194799999999987,21.794 15.195300000000003,21.7915 15.197299999999984,21.791 "></polygon><polygon points="14.152899999999988,22.551000000000002 14.165300000000002,22.5479 14.174199999999985,22.5427 14.19029999999998,22.539 14.194199999999995,22.529600000000002 14.193399999999997,22.5263 14.184799999999996,22.521 14.179000000000002,22.5202 14.167000000000002,22.5215 14.148399999999981,22.5293 14.134699999999981,22.5382 14.133099999999985,22.5454 14.137,22.5488 14.143399999999986,22.5515 14.152899999999988,22.551000000000002 "></polygon>
    </svg>
    