
    <svg width="10.948699999999988" height="4.065399999999997" xmlns="http://www.w3.org/2000/svg" xmlns:xlink="http://www.w3.org/1999/xlink" style="transform: scale(1, -1)">
        <polygon points="2.7467999999999932,1.1186000000000007 2.730399999999989,1.1241999999999948 2.714999999999989,1.1318999999999946 2.7005999999999943,1.1440999999999946 2.683899999999994,1.1465999999999994 2.6916999999999973,1.1510999999999996 2.717399999999998,1.1595999999999975 2.7346999999999895,1.1783999999999963 2.7456999999999994,1.1846999999999994 2.7582999999999913,1.1955999999999989 2.764199999999988,1.2042000000000002 2.768199999999993,1.2068000000000012 2.7911,1.2106999999999957 2.797799999999995,1.2135999999999996 2.804099999999991,1.2201999999999984 2.8057000000000016,1.2295999999999978 2.819499999999991,1.2413999999999987 2.822499999999991,1.2469999999999999 2.818799999999996,1.2626999999999953 2.8127999999999957,1.2752999999999943 2.8146999999999878,1.2787000000000006 2.820999999999998,1.2759 2.8348000000000013,1.2765999999999948 2.847200000000001,1.2813999999999979 2.8547999999999973,1.2793999999999954 2.862799999999993,1.2805999999999997 2.872799999999998,1.2844999999999942 2.8863999999999947,1.2944999999999993 2.8930000000000007,1.3025999999999982 2.901699999999991,1.3210999999999942 2.9210999999999956,1.3175999999999988 2.951299999999989,1.315100000000001 2.956099999999992,1.3112999999999957 2.954899999999995,1.3033999999999963 2.9480999999999966,1.292899999999996 2.961199999999991,1.284399999999998 2.968199999999996,1.2819999999999965 2.9776999999999987,1.2689999999999984 2.983399999999989,1.2646999999999977 3.0071999999999974,1.2682000000000002 3.0334999999999894,1.2637999999999963 3.0645999999999987,1.2457999999999956 3.0737999999999914,1.2365999999999957 3.0955999999999904,1.2286999999999964 3.1055999999999955,1.2289999999999992 3.1141999999999967,1.2316999999999965 3.1307999999999936,1.2284000000000006 3.137299999999996,1.2294999999999945 3.1410999999999945,1.2320999999999955 3.1424999999999983,1.2426999999999992 3.136499999999998,1.2564999999999955 3.146499999999989,1.2775999999999996 3.161199999999994,1.3004999999999995 3.1558999999999884,1.3129999999999953 3.1484999999999985,1.3173999999999992 3.1452999999999918,1.3215999999999966 3.1422999999999917,1.3299999999999983 3.1403999999999996,1.3459999999999965 3.1347999999999985,1.3519999999999968 3.1114999999999924,1.3502999999999972 3.108399999999989,1.3577000000000012 3.1100999999999885,1.361699999999999 3.1225999999999914,1.3691999999999993 3.134299999999996,1.369099999999996 3.140199999999993,1.370899999999999 3.1477000000000004,1.3774999999999977 3.1494,1.3813999999999993 3.1485999999999876,1.3865999999999943 3.1443999999999903,1.3924999999999983 3.139799999999994,1.3958000000000013 3.1169999999999902,1.4011999999999958 3.113599999999991,1.4042999999999992 3.1069999999999993,1.4180999999999955 3.100200000000001,1.4231999999999942 3.0803999999999974,1.4281999999999968 3.0870999999999924,1.4294000000000011 3.0918999999999954,1.442299999999996 3.1049999999999898,1.4431999999999974 3.116799999999998,1.4478000000000009 3.122099999999989,1.447099999999999 3.1332999999999913,1.4393999999999991 3.1618999999999886,1.393899999999995 3.1714999999999947,1.3814999999999955 3.1766999999999967,1.3778999999999968 3.1872999999999934,1.3803999999999945 3.1979999999999933,1.3902 3.2064999999999912,1.3836999999999975 3.2109999999999985,1.383199999999995 3.2257999999999925,1.3878999999999948 3.236799999999988,1.3848999999999947 3.2564999999999884,1.3704999999999998 3.271499999999989,1.3643 3.2908999999999935,1.3648999999999987 3.2997999999999905,1.3619999999999948 3.317399999999992,1.3489999999999966 3.324299999999994,1.3412999999999968 3.3348999999999904,1.334699999999998 3.349099999999993,1.3307999999999964 3.366599999999991,1.3341999999999956 3.374299999999991,1.3466999999999985 3.382099999999994,1.3523999999999958 3.3848999999999876,1.3587999999999951 3.384999999999991,1.3718000000000004 3.379899999999992,1.3928999999999974 3.3958999999999975,1.4016999999999982 3.396899999999988,1.4142999999999972 3.4037999999999897,1.4204000000000008 3.436399999999992,1.4146999999999963 3.445599999999999,1.409399999999998 3.457099999999997,1.398699999999998 3.4683999999999884,1.3936999999999955 3.4773999999999887,1.394599999999997 3.4823999999999984,1.397199999999998 3.483799999999988,1.4147999999999996 3.4801999999999964,1.4577999999999989 3.48599999999999,1.469299999999997 3.4983000000000004,1.4769000000000005 3.497499999999988,1.482599999999998 3.489399999999989,1.4901999999999944 3.486399999999989,1.497399999999999 3.4869999999999948,1.5005999999999986 3.4930999999999983,1.5013999999999967 3.50269999999999,1.506699999999995 3.515899999999988,1.5090999999999966 3.535599999999988,1.5078999999999994 3.5507999999999953,1.5105000000000004 3.5688999999999993,1.5160999999999945 3.585899999999995,1.5272000000000006 3.5904999999999916,1.5319000000000003 3.6085999999999956,1.5383999999999958 3.6195999999999913,1.5441000000000003 3.63839999999999,1.5474999999999994 3.639399999999995,1.5511999999999944 3.6571,1.553999999999995 3.6872999999999934,1.5668000000000006 3.712399999999988,1.5800999999999945 3.724099999999993,1.5922999999999945 3.7361999999999966,1.590599999999995 3.7638999999999925,1.5914999999999964 3.777699999999996,1.5944000000000003 3.791799999999995,1.6002999999999972 3.803699999999992,1.6030999999999977 3.824399999999997,1.6122999999999976 3.8433999999999884,1.6246999999999971 3.853200000000001,1.6396999999999977 3.8549000000000007,1.6499999999999986 3.8521999999999963,1.6601 3.851399999999998,1.6706999999999965 3.8476,1.6777999999999977 3.8382999999999896,1.6839999999999975 3.8297999999999917,1.685699999999997 3.8057999999999907,1.6851999999999947 3.789999999999992,1.6777999999999977 3.7852999999999923,1.6766000000000005 3.779199999999989,1.6783000000000001 3.760799999999989,1.6891999999999996 3.7483999999999895,1.690100000000001 3.7413999999999987,1.6923999999999992 3.7216999999999985,1.7123999999999953 3.7194999999999965,1.7164999999999964 3.710099999999997,1.7164999999999964 3.7051000000000016,1.7127999999999943 3.695999999999998,1.6894999999999953 3.703499999999991,1.6813999999999965 3.7160999999999973,1.6747999999999976 3.7182999999999993,1.6725999999999956 3.71929999999999,1.6659999999999968 3.71159999999999,1.6625999999999976 3.6991999999999905,1.6622999999999948 3.6905,1.6543999999999954 3.6765999999999934,1.6488999999999976 3.6725999999999885,1.6439999999999984 3.659099999999995,1.6413999999999973 3.6585999999999927,1.639800000000001 3.6474999999999937,1.6390999999999991 3.633199999999988,1.6417999999999964 3.629499999999993,1.6443000000000012 3.621399999999994,1.6614999999999966 3.602499999999992,1.6754999999999995 3.5884999999999962,1.6888999999999967 3.5707999999999913,1.6963000000000008 3.555099999999996,1.6966999999999999 3.5071999999999974,1.6873999999999967 3.4926999999999992,1.6909999999999954 3.4726,1.6877999999999957 3.4523999999999972,1.681199999999997 3.4277999999999906,1.6854999999999976 3.4129999999999967,1.6860999999999962 3.4010999999999996,1.6828000000000003 3.3669999999999902,1.692299999999996 3.3419999999999987,1.7003999999999948 3.3382999999999896,1.7028999999999996 3.3123999999999967,1.7087000000000003 3.3019999999999925,1.713000000000001 3.2958,1.7175999999999974 3.306899999999999,1.7302999999999997 3.306599999999989,1.7346000000000004 3.301099999999991,1.7453999999999965 3.2883999999999958,1.7612999999999985 3.270699999999991,1.7792999999999992 3.2586000000000013,1.7864999999999966 3.2501999999999924,1.7988999999999962 3.241199999999992,1.8052999999999955 3.231099999999998,1.809199999999997 3.2209000000000003,1.8078999999999965 3.2106999999999886,1.7960999999999956 3.2112999999999943,1.8034999999999997 3.213799999999992,1.8053999999999988 3.2135999999999996,1.8173999999999992 3.221199999999996,1.8279999999999959 3.2235000000000014,1.8384999999999962 3.2210999999999927,1.8526999999999987 3.2179,1.8577999999999975 3.203499999999991,1.8629999999999995 3.1866999999999877,1.8658000000000001 3.1680999999999955,1.8643999999999963 3.1535999999999973,1.8684999999999974 3.150899999999993,1.8707999999999956 3.1317999999999984,1.871699999999997 3.1271999999999878,1.8729999999999976 3.1107999999999976,1.8828999999999994 3.0869,1.8887 3.082099999999997,1.8885999999999967 3.0789999999999935,1.8915000000000006 3.0638999999999896,1.8903999999999996 3.0553999999999917,1.8846999999999952 3.0394000000000005,1.8701000000000008 3.0131999999999977,1.8549999999999969 2.9967999999999932,1.8521 2.9529999999999887,1.8373999999999953 2.943399999999997,1.8322999999999965 2.9350999999999914,1.829899999999995 2.920599999999993,1.8297999999999988 2.9063000000000017,1.8363999999999976 2.9018999999999977,1.8397000000000006 2.9129999999999967,1.8536999999999964 2.9324000000000012,1.858399999999996 2.938599999999994,1.8628999999999962 2.945999999999998,1.8719999999999999 2.948699999999988,1.8795999999999964 2.938999999999993,1.893099999999997 2.932699999999997,1.9164999999999992 2.931999999999988,1.931999999999995 2.927199999999999,1.944199999999995 2.9239999999999924,1.9683999999999955 2.919399999999996,1.9760999999999953 2.9129999999999967,1.9820999999999955 2.903099999999995,1.9867999999999952 2.8933999999999997,1.9878999999999962 2.8858999999999924,1.9848999999999961 2.8793999999999897,1.9917999999999978 2.864599999999996,1.988900000000001 2.8444999999999965,1.9902999999999977 2.8232,1.9802999999999997 2.8037999999999954,1.9680999999999997 2.796299999999988,1.966699999999996 2.7815999999999974,1.9715999999999951 2.7439999999999998,1.9899999999999949 2.71929999999999,1.9949999999999974 2.692799999999991,1.9971999999999994 2.673400000000001,1.9859000000000009 2.6676999999999964,1.9842999999999975 2.657899999999998,1.9878999999999962 2.645699999999991,1.9886999999999944 2.6106999999999942,1.9993999999999943 2.6036999999999892,2.0060000000000002 2.605499999999992,2.017800000000001 2.6040999999999883,2.0204999999999984 2.5918999999999954,2.021499999999996 2.5839,2.0246999999999957 2.5822999999999894,2.0279999999999987 2.5892999999999944,2.0478999999999985 2.5962999999999994,2.060699999999997 2.6083,2.0738999999999947 2.6160999999999888,2.0869 2.6329999999999956,2.0999999999999943 2.6432999999999964,2.1133999999999986 2.6554999999999893,2.1355000000000004 2.654299999999992,2.1395999999999944 2.6529999999999916,2.141300000000001 2.6473000000000013,2.1413999999999973 2.6310999999999893,2.1488999999999976 2.6126000000000005,2.1657999999999973 2.6093999999999937,2.1713999999999984 2.6083,2.180099999999996 2.6058999999999912,2.1835999999999984 2.6093999999999937,2.197499999999998 2.6063999999999936,2.2035999999999945 2.5982999999999947,2.208199999999998 2.5892999999999944,2.2042 2.5818999999999903,2.1950999999999965 2.5644999999999953,2.192299999999996 2.55919999999999,2.1950999999999965 2.5578000000000003,2.1982 2.563299999999998,2.2194999999999965 2.549999999999997,2.236699999999999 2.5368999999999886,2.2479999999999976 2.519599999999997,2.2586999999999975 2.497,2.2945999999999955 2.48899999999999,2.296199999999999 2.48599999999999,2.2943 2.4835999999999956,2.2667 2.4799000000000007,2.2624999999999957 2.4731999999999914,2.2613999999999947 2.468599999999995,2.268099999999997 2.4664999999999964,2.279199999999996 2.4598999999999904,2.2836 2.451599999999999,2.283999999999999 2.4435999999999893,2.280999999999999 2.437999999999988,2.276699999999998 2.435299999999998,2.270299999999999 2.4440999999999917,2.2594999999999956 2.442799999999991,2.2502999999999957 2.4368999999999943,2.247 2.427899999999994,2.2513000000000005 2.4184999999999945,2.2645999999999944 2.4236999999999966,2.2749999999999986 2.4283999999999963,2.280699999999996 2.4461000000000013,2.296299999999995 2.450499999999991,2.306899999999999 2.4448000000000008,2.3245999999999967 2.443100000000001,2.3393999999999977 2.4458999999999946,2.344299999999997 2.444599999999994,2.3564000000000007 2.45389999999999,2.3710999999999984 2.4510999999999967,2.3773999999999944 2.4462999999999937,2.380899999999997 2.421599999999998,2.3817999999999984 2.4136999999999915,2.3800999999999988 2.3969999999999914,2.368400000000001 2.380600000000001,2.3463999999999956 2.370999999999995,2.3382999999999967 2.3436999999999983,2.3311999999999955 2.3384999999999962,2.3255999999999943 2.339500000000001,2.3186999999999998 2.346499999999992,2.314799999999998 2.3711999999999875,2.3130999999999986 2.3836000000000013,2.3093999999999966 2.3902999999999963,2.303599999999996 2.394300000000001,2.296699999999994 2.3970999999999947,2.285499999999999 2.3896999999999906,2.265599999999999 2.3800999999999988,2.2524999999999977 2.3791999999999973,2.2457999999999956 2.396499999999989,2.2257999999999996 2.3900999999999897,2.2150999999999996 2.375799999999998,2.203399999999995 2.367999999999995,2.191899999999997 2.3622000000000014,2.1758999999999986 2.357299999999995,2.1757999999999953 2.349499999999992,2.1798999999999964 2.343999999999994,2.1757999999999953 2.336999999999989,2.164200000000001 2.3241000000000014,2.1561999999999983 2.3204999999999956,2.1507999999999967 2.3203999999999922,2.1466999999999956 2.3168000000000006,2.146099999999997 2.3112999999999886,2.130600000000001 2.3031000000000006,2.1252999999999957 2.2901999999999987,2.127899999999997 2.27709999999999,2.139099999999999 2.2683999999999997,2.142699999999998 2.2561999999999927,2.143899999999995 2.249299999999991,2.1430000000000007 2.2402000000000015,2.1372 2.2257999999999925,2.1348999999999947 2.2079999999999984,2.1432 2.2010999999999967,2.1420999999999992 2.1921999999999997,2.1325999999999965 2.1772999999999882,2.122499999999995 2.1700000000000017,2.113999999999997 2.1687999999999903,2.1073999999999984 2.1740999999999957,2.094699999999996 2.168599999999998,2.0807999999999964 2.1684999999999945,2.072099999999999 2.1724999999999994,2.0660999999999987 2.1909999999999883,2.059999999999995 2.1965999999999894,2.052900000000001 2.197499999999991,2.048400000000001 2.1781999999999897,2.0156999999999954 2.171299999999988,1.9831999999999965 2.1558999999999884,1.9568000000000012 2.1554,1.950800000000001 2.1477000000000004,1.9429999999999978 2.133199999999988,1.9324000000000012 2.12169999999999,1.9317999999999955 2.1160999999999888,1.934599999999996 2.112799999999993,1.9392999999999958 2.107699999999994,1.968199999999996 2.102099999999993,1.9809999999999945 2.0912000000000006,1.9889999999999972 2.0738999999999947,1.9943999999999988 2.062599999999989,1.9951000000000008 2.0497000000000014,1.990400000000001 2.0411,1.9795999999999978 2.0378999999999934,1.9707000000000008 2.0323999999999955,1.9625999999999948 2.025099999999995,1.9557999999999964 2.0078999999999922,1.9512999999999963 1.9987999999999886,1.958199999999998 1.9967999999999932,1.9635999999999996 1.9984999999999928,1.9771999999999963 1.9927999999999884,2.0005999999999986 1.9872000000000014,2.0075000000000003 1.9777999999999878,2.0135999999999967 1.9665999999999997,2.017699999999998 1.9602000000000004,2.0183999999999997 1.9521000000000015,2.0165000000000006 1.9468999999999994,2.0135999999999967 1.9440999999999917,2.0075000000000003 1.9227999999999952,2.0200999999999993 1.914199999999994,2.0208000000000013 1.8973000000000013,2.0168999999999997 1.884999999999991,2.0013999999999967 1.8703999999999894,2.0019999999999953 1.8665999999999912,1.9998000000000005 1.8640999999999934,1.9956999999999994 1.8652999999999906,1.9838999999999984 1.8593999999999937,1.978200000000001 1.8532999999999902,1.9749999999999943 1.8445999999999998,1.9743999999999957 1.8281999999999954,1.9787999999999997 1.8064999999999998,1.9974999999999952 1.8007999999999953,1.9972999999999956 1.796299999999988,2.0041999999999973 1.7789999999999964,2.0073000000000008 1.7667000000000002,2.0120000000000005 1.7523999999999944,2.020399999999995 1.7395999999999958,2.0199 1.6907999999999959,1.994799999999998 1.6807000000000016,1.9986999999999995 1.6718999999999937,2.0049999999999955 1.6700999999999908,2.008199999999995 1.650899999999993,2.0235999999999947 1.6199999999999903,2.0383999999999958 1.6069999999999993,2.0504999999999995 1.5956999999999937,2.0585999999999984 1.5916999999999888,2.059100000000001 1.578099999999992,2.071099999999994 1.5666999999999973,2.075399999999995 1.5574999999999903,2.0749999999999957 1.5472999999999928,2.071399999999997 1.5370999999999952,2.0653000000000006 1.5237999999999943,2.054400000000001 1.5170999999999992,2.0397999999999996 1.5157999999999987,2.032599999999995 1.512599999999992,2.0267999999999944 1.5057999999999936,2.0214 1.5030999999999892,2.023399999999995 1.4998999999999967,2.0486000000000004 1.5152999999999963,2.0634999999999977 1.5190999999999946,2.073299999999996 1.5168999999999926,2.0788999999999973 1.5033999999999992,2.0936999999999983 1.4979999999999905,2.1058999999999983 1.4975999999999914,2.1152999999999977 1.504099999999994,2.1329999999999956 1.5049999999999955,2.149099999999997 1.5108999999999924,2.1691000000000003 1.5034999999999883,2.192699999999995 1.5032999999999959,2.203099999999999 1.5009999999999906,2.209799999999994 1.4887999999999977,2.225200000000001 1.460099999999997,2.2519999999999953 1.448699999999988,2.265599999999999 1.4334999999999951,2.2918999999999983 1.4057999999999993,2.296299999999995 1.3991999999999933,2.2958 1.374600000000001,2.2819999999999965 1.3645999999999958,2.281099999999995 1.3592999999999904,2.2827999999999946 1.3569999999999993,2.2817000000000007 1.347999999999999,2.2830000000000013 1.315100000000001,2.275199999999998 1.3039999999999878,2.2697000000000003 1.2938999999999936,2.261499999999998 1.2851,2.2494999999999976 1.2680000000000007,2.2372999999999976 1.2486999999999995,2.2269000000000005 1.2121999999999957,2.2265999999999977 1.2025000000000006,2.2327000000000012 1.191599999999994,2.2449000000000012 1.1859999999999928,2.254399999999997 1.173099999999991,2.265499999999996 1.1507999999999896,2.2789999999999964 1.128699999999995,2.296199999999999 1.1019999999999897,2.2956999999999965 1.0992999999999995,2.2981999999999942 1.0904999999999916,2.3141999999999996 1.0845999999999947,2.3178999999999945 1.0775999999999897,2.328099999999999 1.0689999999999884,2.3325999999999993 1.0405999999999977,2.3415999999999997 1.021499999999989,2.3451999999999984 0.9966000000000008,2.343599999999995 0.9872999999999905,2.3408999999999978 0.9852999999999952,2.3389999999999986 0.9769000000000005,2.337699999999998 0.9675000000000011,2.337299999999999 0.9470999999999918,2.3412000000000006 0.9200999999999908,2.3397000000000006 0.9064999999999941,2.345700000000001 0.9040999999999997,2.349799999999995 0.914999999999992,2.3621999999999943 0.9157999999999902,2.3674999999999997 0.9150999999999954,2.3707999999999956 0.9057999999999993,2.3848999999999947 0.9068999999999932,2.3887999999999963 0.9277000000000015,2.3987999999999943 0.936799999999991,2.4087999999999994 0.9410999999999916,2.416799999999995 0.9403999999999968,2.4306999999999945 0.941599999999994,2.4336999999999946 0.9582999999999942,2.4361999999999995 0.9860999999999933,2.4343000000000004 1.0120999999999896,2.4506999999999977 1.0229999999999961,2.4553999999999974 1.0348999999999933,2.4587000000000003 1.0501000000000005,2.4583999999999975 1.0815999999999946,2.4690999999999974 1.0955999999999904,2.4779999999999944 1.1098999999999961,2.4985 1.1154999999999973,2.504100000000001 1.164999999999992,2.525099999999995 1.1766999999999967,2.527699999999996 1.1961000000000013,2.536299999999997 1.2126999999999981,2.5460999999999956 1.2143999999999977,2.5486999999999966 1.2245999999999952,2.5519999999999996 1.2279999999999944,2.554400000000001 1.229699999999994,2.559100000000001 1.2291999999999916,2.590299999999999 1.2382999999999953,2.6143 1.2468999999999966,2.6203999999999965 1.26339999999999,2.6273999999999944 1.2745999999999924,2.630199999999995 1.2898999999999887,2.6381999999999977 1.3158999999999992,2.6485999999999947 1.3215000000000003,2.6547999999999945 1.3285999999999945,2.6742999999999952 1.3370999999999924,2.6801999999999992 1.3527999999999878,2.687199999999997 1.3609000000000009,2.6939999999999955 1.3857,2.7254000000000005 1.399499999999989,2.7361000000000004 1.4251999999999896,2.7453000000000003 1.4392999999999887,2.7460999999999984 1.4583999999999975,2.7408999999999963 1.470799999999997,2.740099999999998 1.4793999999999983,2.7430999999999983 1.4808999999999912,2.7597999999999985 1.4939999999999998,2.7530999999999963 1.5164999999999935,2.747399999999999 1.535499999999999,2.7471999999999994 1.544799999999995,2.749600000000001 1.5640999999999963,2.764099999999999 1.5705999999999989,2.7723999999999975 1.573999999999998,2.8018 1.5726999999999975,2.814299999999996 1.5611999999999995,2.826599999999999 1.5608999999999895,2.831299999999999 1.5638000000000005,2.8382000000000005 1.5756999999999977,2.852499999999999 1.5810999999999922,2.861399999999996 1.5822999999999894,2.869099999999996 1.5947999999999922,2.873599999999996 1.6119999999999948,2.873599999999996 1.6182999999999907,2.872 1.6389999999999958,2.8611000000000004 1.6698999999999984,2.8536 1.6864999999999952,2.853499999999997 1.6944000000000017,2.857199999999999 1.7066999999999979,2.8577000000000012 1.7162999999999897,2.860999999999997 1.7302999999999997,2.869399999999999 1.7343999999999937,2.8725999999999985 1.733799999999988,2.8778000000000006 1.7519999999999953,2.884599999999999 1.7815999999999974,2.907199999999996 1.8116999999999877,2.918599999999998 1.8182999999999936,2.922699999999999 1.8200999999999965,2.927599999999998 1.8362999999999943,2.9391999999999996 1.848399999999998,2.9416999999999973 1.8662999999999954,2.9558999999999997 1.880899999999997,2.9606999999999957 1.8917000000000002,2.9665999999999997 1.906499999999994,2.9668999999999954 1.9338999999999942,2.9619 1.946799999999996,2.972999999999999 1.9672999999999945,2.9834999999999994 1.9739999999999895,2.9893999999999963 1.9747999999999877,2.999299999999998 1.9728999999999957,3.0082999999999984 1.9743999999999886,3.0124999999999957 1.9915999999999912,3.0272999999999968 1.9867999999999881,3.027000000000001 1.9773999999999887,3.036299999999997 1.968199999999996,3.042200000000001 1.9646999999999935,3.0549999999999997 1.9625999999999948,3.0574999999999974 1.9598000000000013,3.0578999999999965 1.948599999999999,3.0504999999999995 1.9401999999999902,3.0481999999999942 1.9320999999999913,3.0537999999999954 1.9289999999999878,3.066600000000001 1.9251000000000005,3.067699999999995 1.9210999999999956,3.0656999999999996 1.9144999999999897,3.067999999999998 1.8984999999999985,3.0797999999999988 1.8900000000000006,3.081800000000001 1.875099999999989,3.091799999999999 1.8622000000000014,3.097200000000001 1.8579999999999899,3.1025999999999954 1.8496999999999986,3.106200000000001 1.834399999999988,3.1010999999999953 1.8290999999999968,3.1019000000000005 1.8168000000000006,3.108699999999999 1.8061999999999898,3.108699999999999 1.7905999999999977,3.114999999999995 1.780699999999996,3.115400000000001 1.7620999999999896,3.1118999999999986 1.7549999999999955,3.1081999999999965 1.7373999999999938,3.103899999999996 1.7102000000000004,3.0852999999999966 1.6954999999999956,3.084699999999998 1.6751000000000005,3.090199999999996 1.665700000000001,3.089500000000001 1.6533999999999907,3.093499999999999 1.6433999999999997,3.0937999999999946 1.6391999999999882,3.0907999999999944 1.632099999999994,3.088799999999999 1.6211999999999875,3.0892999999999944 1.6160999999999888,3.0899 1.6136999999999944,3.092099999999995 1.6089999999999947,3.1052999999999997 1.60029999999999,3.114999999999995 1.5919999999999987,3.1196999999999946 1.591399999999993,3.122499999999995 1.5920999999999879,3.145699999999998 1.5959000000000003,3.1514999999999986 1.6030999999999977,3.156500000000001 1.6041999999999916,3.1646999999999963 1.61399999999999,3.1843000000000004 1.6203000000000003,3.1918000000000006 1.6348999999999876,3.1980999999999966 1.646899999999988,3.2087000000000003 1.6552999999999969,3.2209000000000003 1.671299999999988,3.253999999999998 1.6781999999999897,3.285899999999998 1.6850999999999914,3.3003 1.698599999999999,3.311799999999998 1.7149,3.322099999999999 1.7227999999999923,3.3198000000000008 1.7363,3.3129999999999953 1.7485999999999962,3.3044999999999973 1.7569000000000017,3.295899999999996 1.7791999999999888,3.2907999999999973 1.7886999999999915,3.2915999999999954 1.798899999999989,3.296699999999994 1.803699999999992,3.304299999999998 1.8057999999999907,3.313699999999997 1.8130999999999915,3.3202 1.8160999999999916,3.3273999999999972 1.8149999999999977,3.334399999999995 1.8118999999999943,3.339099999999995 1.7975999999999885,3.3484999999999943 1.795899999999989,3.3511999999999986 1.7456999999999994,3.375 1.738199999999992,3.381299999999996 1.7271999999999963,3.3962999999999965 1.7299999999999898,3.405299999999997 1.751499999999993,3.4221999999999966 1.761199999999988,3.425699999999999 1.77409999999999,3.4279999999999973 1.8049999999999926,3.4290999999999983 1.8247999999999962,3.4209999999999994 1.8752999999999957,3.4257999999999953 1.8789000000000016,3.421199999999999 1.8789000000000016,3.410499999999999 1.8854999999999933,3.4092999999999947 1.8913999999999902,3.416799999999995 1.8970999999999947,3.4283 1.8956999999999908,3.4484999999999957 1.8992999999999967,3.456299999999999 1.897599999999997,3.472999999999999 1.8933999999999997,3.4886999999999944 1.894999999999996,3.4991999999999948 1.9118999999999886,3.508099999999999 1.9272999999999882,3.5107 1.9476999999999975,3.5200999999999993 1.950099999999992,3.5229 1.9580999999999875,3.525500000000001 1.9813999999999936,3.547399999999996 1.988599999999991,3.5593999999999966 1.9915999999999912,3.573999999999998 1.9898999999999916,3.600299999999997 2.0211999999999932,3.591699999999996 2.054299999999998,3.585899999999995 2.0874999999999915,3.5927000000000007 2.0959999999999894,3.6030999999999977 2.1019000000000005,3.6171000000000006 2.105099999999993,3.6196999999999946 2.1200999999999937,3.6240999999999985 2.1307999999999936,3.6241999999999948 2.193100000000001,3.613900000000001 2.223099999999988,3.6174999999999997 2.2380999999999887,3.6211999999999946 2.255199999999988,3.628999999999998 2.277499999999989,3.616499999999995 2.2908999999999935,3.6021 2.3035999999999888,3.5984999999999943 2.3215000000000003,3.599199999999996 2.3412000000000006,3.5921999999999983 2.347699999999989,3.5919999999999987 2.3575000000000017,3.594299999999997 2.3851999999999975,3.609400000000001 2.395699999999991,3.6169999999999973 2.4255999999999887,3.621399999999994 2.4355999999999938,3.6255999999999986 2.4495000000000005,3.626899999999999 2.480799999999988,3.634699999999995 2.4938999999999965,3.640599999999999 2.5186999999999955,3.647299999999994 2.526699999999991,3.6537000000000006 2.5382999999999925,3.6584000000000003 2.548899999999989,3.6584999999999965 2.5548999999999893,3.6569000000000003 2.5839,3.6599999999999966 2.625099999999989,3.6469999999999985 2.6465999999999923,3.6449 2.6592999999999876,3.641300000000001 2.668299999999988,3.6300999999999988 2.6743999999999915,3.6259999999999977 2.7049999999999983,3.6113 2.7412999999999954,3.6006 2.7579999999999956,3.6010999999999953 2.7771999999999935,3.5961 2.808899999999994,3.5715000000000003 2.8406999999999982,3.563699999999997 2.8485999999999905,3.5656999999999996 2.8643,3.5653000000000006 2.8721999999999923,3.568100000000001 2.884599999999992,3.5775000000000006 2.8954999999999984,3.5814999999999984 2.9024,3.5781999999999954 2.9114000000000004,3.5777 2.9172999999999973,3.579499999999996 2.9214999999999947,3.5788999999999973 2.934100000000001,3.584299999999999 2.9458999999999946,3.585000000000001 2.951499999999996,3.5871999999999957 2.9817999999999927,3.588000000000001 3.002299999999991,3.586500000000001 3.0043000000000006,3.583999999999996 3.0212999999999965,3.5800999999999945 3.049999999999997,3.569600000000001 3.1003999999999934,3.5549999999999997 3.122099999999989,3.5471000000000004 3.1247999999999934,3.543700000000001 3.1358999999999924,3.537399999999998 3.2192000000000007,3.512299999999996 3.2423,3.5093999999999994 3.2476999999999947,3.506599999999999 3.2600999999999942,3.5063999999999993 3.2697999999999894,3.504399999999997 3.2797999999999945,3.504100000000001 3.3082999999999885,3.511199999999995 3.326999999999998,3.508599999999994 3.346499999999992,3.5026999999999973 3.387599999999992,3.484099999999998 3.428999999999988,3.4728999999999957 3.452299999999994,3.471599999999995 3.46459999999999,3.4660999999999973 3.4932000000000016,3.4405999999999963 3.5093999999999994,3.4209999999999994 3.511199999999988,3.415399999999998 3.5176000000000016,3.4076999999999984 3.5263999999999953,3.4010999999999996 3.5313999999999908,3.3915000000000006 3.5382999999999925,3.3862999999999985 3.5670999999999964,3.380199999999995 3.583299999999994,3.381599999999999 3.5997999999999877,3.3795999999999964 3.6099999999999994,3.3711999999999946 3.621399999999994,3.3644999999999996 3.6310999999999893,3.3621999999999943 3.671999999999997,3.3611999999999966 3.6811000000000007,3.3555999999999955 3.695699999999988,3.3547999999999973 3.7320999999999884,3.362400000000001 3.755600000000001,3.357299999999995 3.7926999999999964,3.360199999999999 3.811399999999992,3.363599999999998 3.8271999999999906,3.3626999999999967 3.8359999999999985,3.3589999999999947 3.8549000000000007,3.3585999999999956 3.9088999999999885,3.3448999999999955 3.9284999999999997,3.3414 3.9420999999999964,3.3406999999999982 3.960799999999992,3.335499999999996 4.0184,3.3333000000000013 4.0271999999999935,3.329499999999996 4.0304,3.323599999999999 4.032599999999988,3.3119999999999976 4.027999999999992,3.2807999999999993 4.030000000000001,3.2764999999999986 4.040399999999991,3.2683999999999997 4.066499999999991,3.254399999999997 4.096799999999988,3.2528000000000006 4.114399999999989,3.2535999999999987 4.128,3.2513000000000005 4.1410999999999945,3.2456999999999994 4.160199999999989,3.246299999999998 4.170400000000001,3.240099999999998 4.186799999999991,3.2342999999999975 4.211500000000001,3.2363 4.216399999999993,3.2393 4.231399999999994,3.243400000000001 4.2346,3.2491999999999948 4.234200000000001,3.2656999999999954 4.229399999999998,3.2727000000000004 4.2239999999999895,3.2753999999999976 4.2150999999999925,3.2857999999999947 4.189999999999998,3.3038999999999987 4.179699999999997,3.3168000000000006 4.166399999999996,3.326999999999998 4.158799999999999,3.3371999999999957 4.152899999999988,3.3573999999999984 4.144899999999993,3.3741999999999948 4.141899999999993,3.397599999999997 4.146899999999988,3.4223 4.1434,3.4369999999999976 4.144300000000001,3.4534999999999982 4.148199999999989,3.467799999999997 4.160199999999989,3.484400000000001 4.171899999999994,3.5289999999999964 4.182199999999995,3.5516000000000005 4.207799999999992,3.584399999999995 4.2239999999999895,3.6103999999999985 4.22699999999999,3.6295999999999964 4.223099999999988,3.672399999999996 4.218499999999992,3.6918000000000006 4.220500000000001,3.734099999999998 4.2346999999999895,3.761099999999999 4.2616999999999905,3.786699999999996 4.28179999999999,3.8183000000000007 4.284399999999991,3.8305000000000007 4.28179999999999,3.830599999999997 4.274599999999992,3.843599999999995 4.278499999999994,3.8500999999999976 4.291599999999988,3.861399999999996 4.358499999999992,3.8817999999999984 4.363399999999999,3.8847999999999985 4.406399999999991,3.9009999999999962 4.412299999999988,3.9018999999999977 4.42179999999999,3.9071 4.498599999999996,3.936 4.540099999999995,3.939399999999999 4.590999999999994,3.9253999999999962 4.6113,3.9243999999999986 4.617399999999989,3.9288999999999987 4.625799999999998,3.9574 4.642399999999995,3.9712999999999994 4.6610999999999905,3.9983000000000004 4.665099999999995,4.008299999999998 4.674700000000001,4.019199999999998 4.7035999999999945,4.013099999999994 4.716200000000001,4.0047 4.7235999999999905,3.996299999999998 4.743600000000001,3.994499999999995 4.762199999999993,3.9865999999999957 4.772199999999998,3.9853999999999985 4.819599999999994,3.9946999999999946 4.831999999999994,3.9993999999999943 4.838499999999996,4.003799999999998 4.844399999999993,4.004799999999996 4.861499999999992,4.011800000000001 4.878399999999999,4.0122 4.894199999999998,4.018299999999996 4.896799999999999,4.024299999999997 4.916399999999996,4.0230999999999995 4.9268,4.0261 4.930799999999991,4.0321 4.9315,4.038399999999996 4.925899999999999,4.052799999999998 4.920199999999994,4.060600000000001 5.0146000000000015,4.065399999999997 5.0234999999999985,4.048499999999997 5.028700000000001,4.0434999999999945 5.041599999999988,4.039999999999999 5.0541999999999945,4.039899999999996 5.062599999999989,4.0323999999999955 5.069299999999998,4.0336 5.089399999999998,4.026399999999995 5.1113,4.025799999999997 5.126599999999996,4.007399999999997 5.131199999999993,4.004100000000001 5.135999999999996,3.995999999999995 5.15209999999999,3.9850999999999956 5.163599999999988,3.9865999999999957 5.2124999999999915,3.9809999999999945 5.2442999999999955,3.9732999999999947 5.287599999999998,3.9590999999999994 5.305899999999994,3.943799999999996 5.317999999999998,3.925699999999999 5.341200000000001,3.9055999999999997 5.448999999999998,3.8329999999999984 5.453199999999995,3.8260999999999967 5.460799999999992,3.8215999999999966 5.4876000000000005,3.8186999999999998 5.496399999999994,3.818799999999996 5.5101999999999975,3.822899999999997 5.523599999999988,3.8208999999999946 5.5382999999999925,3.8218999999999994 5.544499999999999,3.822899999999997 5.55149999999999,3.8329999999999984 5.564499999999995,3.8315999999999946 5.592999999999989,3.819499999999998 5.594399999999993,3.817699999999995 5.614999999999995,3.8115999999999985 5.6404,3.796900000000001 5.639499999999998,3.7927999999999997 5.640799999999999,3.7879999999999967 5.645399999999995,3.783699999999996 5.654499999999999,3.7870999999999952 5.6601,3.7856999999999985 5.665399999999991,3.7787000000000006 5.684299999999993,3.7705999999999946 5.694699999999997,3.7695000000000007 5.7087999999999965,3.7712999999999965 5.725200000000001,3.766999999999996 5.731200000000001,3.758800000000001 5.744699999999995,3.756699999999995 5.75439999999999,3.745899999999999 5.76039999999999,3.7441999999999993 5.76939999999999,3.7387999999999977 5.777499999999989,3.7382999999999953 5.799199999999999,3.729700000000001 5.800699999999992,3.7226 5.80449999999999,3.7198999999999955 5.815599999999989,3.717799999999997 5.849199999999996,3.7058999999999997 5.855199999999996,3.697800000000001 5.877600000000001,3.677099999999996 5.890299999999996,3.6754999999999995 5.9132999999999925,3.6755999999999958 5.9221999999999895,3.668599999999998 5.952699999999993,3.664899999999996 5.973500000000001,3.6699999999999946 5.994900000000001,3.678599999999996 6.042299999999997,3.6836999999999946 6.061999999999998,3.6783999999999963 6.0741999999999905,3.6714999999999947 6.093800000000002,3.6646 6.1480999999999995,3.6492000000000004 6.171700000000001,3.646799999999999 6.2109999999999985,3.6524 6.2697,3.648699999999998 6.275599999999997,3.6513999999999953 6.301199999999994,3.647299999999994 6.334299999999999,3.647999999999996 6.379899999999992,3.6402 6.401299999999992,3.6342 6.419499999999999,3.6258999999999943 6.430999999999997,3.6236999999999995 6.4365999999999985,3.6243999999999943 6.454699999999988,3.6317999999999984 6.479099999999988,3.647999999999996 6.491399999999999,3.663899999999998 6.492199999999997,3.670099999999998 6.496600000000001,3.6751999999999967 6.503299999999996,3.6905999999999963 6.507199999999997,3.712699999999998 6.515899999999988,3.736699999999999 6.519499999999994,3.7421000000000006 6.5519999999999925,3.764800000000001 6.572599999999994,3.766999999999996 6.5916,3.7753999999999976 6.616099999999989,3.7701999999999956 6.63839999999999,3.7812999999999946 6.64739999999999,3.7815999999999974 6.6533000000000015,3.7797999999999945 6.662899999999993,3.771499999999996 6.681100000000001,3.7609999999999957 6.704399999999993,3.7560999999999964 6.718999999999994,3.758499999999998 6.727399999999989,3.7571999999999974 6.743099999999998,3.741099999999996 6.75569999999999,3.737099999999998 6.772899999999993,3.7369999999999948 6.803100000000001,3.740400000000001 6.8330999999999875,3.7478999999999942 6.854699999999994,3.750699999999995 6.902799999999999,3.7460999999999984 6.988799999999998,3.746399999999994 6.998999999999995,3.7436000000000007 7.019899999999993,3.7327999999999975 7.0257000000000005,3.725200000000001 7.030599999999993,3.706399999999995 7.035799999999995,3.6980999999999966 7.043399999999991,3.6931999999999974 7.055799999999991,3.692999999999998 7.0608999999999895,3.691199999999995 7.0985999999999905,3.6965000000000003 7.124499999999998,3.702999999999996 7.1392999999999915,3.702599999999997 7.167599999999993,3.712299999999999 7.199999999999989,3.713000000000001 7.222200000000001,3.729599999999998 7.227899999999991,3.7415999999999983 7.234399999999994,3.745899999999999 7.251799999999989,3.7449999999999974 7.2867999999999995,3.7367999999999952 7.299499999999995,3.736399999999996 7.32759999999999,3.7398999999999987 7.356799999999993,3.7376999999999967 7.3767,3.734499999999997 7.395399999999995,3.735599999999998 7.406199999999998,3.7327000000000012 7.4251000000000005,3.7312999999999974 7.4435,3.7323999999999984 7.4491999999999905,3.734400000000001 7.459399999999988,3.7419999999999973 7.468800000000002,3.757399999999997 7.471899999999991,3.769300000000001 7.4757999999999925,3.7730999999999995 7.482699999999994,3.776199999999996 7.497399999999999,3.7782999999999944 7.517299999999992,3.7781999999999982 7.525999999999996,3.7720999999999947 7.5471999999999895,3.7841999999999985 7.559999999999988,3.793999999999997 7.565399999999997,3.809100000000001 7.579999999999998,3.8123000000000005 7.619799999999998,3.809599999999996 7.6494,3.8104999999999976 7.667099999999991,3.8085999999999984 7.680799999999991,3.806599999999996 7.693100000000001,3.8019999999999996 7.710799999999992,3.798099999999998 7.727599999999995,3.7971000000000004 7.763099999999994,3.7881999999999962 7.78309999999999,3.7892999999999972 7.807199999999995,3.793700000000001 7.89609999999999,3.786999999999999 7.90809999999999,3.782899999999998 7.91449999999999,3.7789 7.921700000000001,3.769199999999998 7.943699999999993,3.7490999999999985 7.951099999999997,3.7468000000000004 7.953299999999999,3.7426999999999992 7.969200000000001,3.7413999999999987 7.996600000000001,3.7397999999999954 8.064299999999989,3.742599999999996 8.082099999999997,3.744799999999998 8.102899999999991,3.7516999999999996 8.121399999999994,3.754100000000001 8.142499999999998,3.7600999999999942 8.170599999999993,3.762899999999995 8.201499999999996,3.7546999999999997 8.229500000000002,3.7549999999999955 8.249899999999997,3.7586999999999975 8.28049999999999,3.753699999999995 8.302599999999998,3.7442999999999955 8.36229999999999,3.743699999999997 8.401699999999991,3.738599999999998 8.423599999999993,3.733799999999995 8.447499999999991,3.7320999999999955 8.456299999999999,3.7339999999999947 8.473699999999994,3.734199999999994 8.489499999999992,3.7379999999999995 8.505600000000001,3.7378 8.513300000000001,3.735599999999998 8.521499999999989,3.724199999999996 8.535699999999991,3.712599999999995 8.5535,3.7072000000000003 8.588099999999997,3.7083999999999975 8.625099999999989,3.695299999999996 8.634199999999993,3.6957999999999984 8.64909999999999,3.701599999999999 8.656300000000002,3.702300000000001 8.665199999999999,3.6990999999999943 8.6695,3.6923999999999992 8.6832,3.679699999999997 8.688400000000001,3.6769999999999996 8.697499999999991,3.6790999999999983 8.717199999999991,3.6879999999999953 8.717299999999994,3.689299999999996 8.725899999999996,3.6938999999999993 8.741799999999998,3.6946999999999974 8.750399999999999,3.691899999999997 8.759799999999998,3.686399999999999 8.779299999999992,3.6654999999999944 8.7851,3.6687999999999974 8.799299999999988,3.6817999999999955 8.822499999999991,3.6828999999999965 8.836799999999997,3.6891999999999996 8.864799999999988,3.6835999999999984 8.877600000000001,3.684899999999999 8.883199999999988,3.687899999999999 8.907699999999991,3.692299999999996 8.909499999999994,3.707499999999996 8.92479999999999,3.7012 8.94789999999999,3.701999999999998 8.969799999999992,3.6990999999999943 9.0381,3.6835999999999984 9.05149999999999,3.6828000000000003 9.0869,3.6894999999999953 9.093499999999992,3.6935000000000002 9.099899999999991,3.7123999999999953 9.1156,3.7057 9.125099999999989,3.7042 9.146499999999989,3.7068999999999974 9.16319999999999,3.7109999999999985 9.189099999999996,3.721599999999995 9.220799999999997,3.7275999999999954 9.234499999999997,3.7224999999999966 9.244799999999998,3.723799999999997 9.250599999999991,3.720399999999998 9.256699999999995,3.7123999999999953 9.261399999999995,3.7017999999999986 9.273399999999995,3.693799999999996 9.299099999999996,3.6925999999999988 9.332099999999997,3.681899999999999 9.354299999999995,3.677599999999998 9.371099999999998,3.6776999999999944 9.3763,3.676400000000001 9.383799999999994,3.6706999999999965 9.394099999999995,3.655299999999997 9.404199999999989,3.648299999999999 9.412599999999998,3.6477999999999966 9.434999999999988,3.6580999999999975 9.44149999999999,3.6580999999999975 9.455999999999989,3.650099999999995 9.47399999999999,3.648399999999995 9.486499999999992,3.651199999999996 9.5043,3.6420999999999992 9.516499999999994,3.632100000000001 9.542699999999996,3.6342 9.56819999999999,3.6236999999999995 9.585699999999989,3.624299999999998 9.593699999999998,3.623100000000001 9.607699999999994,3.6180999999999983 9.620899999999992,3.616499999999995 9.625199999999992,3.614699999999999 9.635499999999993,3.605699999999999 9.648399999999995,3.602499999999999 9.657299999999992,3.6019000000000005 9.665299999999988,3.6047999999999973 9.674599999999998,3.6032999999999973 9.690699999999993,3.6062999999999974 9.705399999999997,3.6007999999999996 9.725899999999996,3.6052999999999997 9.744499999999988,3.603999999999999 9.7624,3.596499999999999 9.777899999999988,3.5777999999999963 9.788899999999998,3.5689999999999955 9.793099999999995,3.5674999999999955 9.7984,3.567699999999995 9.8031,3.5723999999999947 9.813999999999993,3.592799999999997 9.819299999999998,3.597699999999996 9.87299999999999,3.610599999999998 9.897300000000001,3.6111000000000004 9.903599999999997,3.6068 9.891300000000001,3.5948999999999955 9.886799999999994,3.582099999999997 9.886600000000001,3.5760000000000005 9.897199999999998,3.534700000000001 9.907199999999989,3.5152999999999963 9.91409999999999,3.5077 9.923699999999997,3.502899999999997 9.925799999999995,3.4955 9.93849999999999,3.4814000000000007 9.953099999999992,3.4772999999999996 9.960399999999993,3.467799999999997 9.971799999999988,3.459399999999995 9.9863,3.4534999999999982 9.998499999999993,3.4512999999999963 10.010899999999992,3.4527 10.01939999999999,3.4497 10.021599999999992,3.4450000000000003 10.0582,3.428599999999996 10.077799999999996,3.416399999999996 10.090499999999992,3.407599999999995 10.099799999999988,3.385300000000001 10.11439999999999,3.3681999999999945 10.128299999999996,3.3630999999999958 10.1918,3.3193999999999946 10.204499999999996,3.314799999999998 10.2132,3.306899999999999 10.224199999999996,3.2879000000000005 10.229799999999997,3.2836 10.292899999999989,3.284499999999994 10.324299999999994,3.2783999999999978 10.335799999999992,3.2789 10.3489,3.284099999999995 10.363799999999998,3.2842999999999947 10.3686,3.2868999999999957 10.374199999999988,3.295099999999998 10.384899999999988,3.3040999999999983 10.450800000000001,3.297799999999995 10.464500000000001,3.294699999999999 10.473399999999998,3.2812999999999946 10.478099999999998,3.278799999999997 10.483699999999999,3.278500000000001 10.495099999999994,3.2817000000000007 10.502499999999998,3.281399999999998 10.5103,3.275099999999995 10.518,3.273699999999998 10.530199999999994,3.2753999999999976 10.543099999999995,3.2708000000000013 10.562599999999989,3.271099999999997 10.56989999999999,3.268899999999995 10.5698,3.2553999999999945 10.5719,3.251199999999997 10.5775,3.2479999999999976 10.583399999999997,3.2479999999999976 10.590699999999998,3.2505999999999986 10.593099999999993,3.2612999999999985 10.60029999999999,3.2657999999999987 10.628799999999998,3.263399999999997 10.651799999999994,3.2646999999999977 10.6597,3.2627999999999986 10.671899999999994,3.2567999999999984 10.6862,3.2378 10.69319999999999,3.2205000000000013 10.692799999999991,3.2157999999999944 10.7029,3.2025000000000006 10.742899999999992,3.1740999999999957 10.7534,3.170499999999997 10.781899999999993,3.1668999999999983 10.790599999999998,3.164200000000001 10.805099999999996,3.1555999999999997 10.821699999999993,3.120899999999999 10.838399999999993,3.106200000000001 10.8403,3.0996999999999986 10.831999999999994,3.0497999999999976 10.8386,3.0327999999999946 10.846599999999995,3.029199999999996 10.853799999999993,3.0307999999999993 10.8733,3.042899999999996 10.8844,3.0394999999999968 10.899499999999989,3.0471000000000004 10.853200000000001,2.9897999999999954 10.885799999999989,2.9281000000000006 10.90639999999999,2.910499999999999 10.946799999999996,2.8907999999999987 10.948699999999988,2.882799999999996 10.9375,2.8802999999999983 10.917699999999996,2.868299999999998 10.894300000000001,2.867999999999995 10.866,2.8633999999999986 10.846799999999988,2.8618999999999986 10.805399999999992,2.8706999999999994 10.751999999999995,2.8787999999999982 10.735699999999994,2.8755999999999986 10.714399999999998,2.868299999999998 10.706299999999999,2.8674999999999997 10.6841,2.8699000000000012 10.672399999999996,2.8681999999999945 10.638999999999996,2.8695999999999984 10.601799999999997,2.8651999999999944 10.582799999999992,2.8581999999999965 10.564899999999994,2.8446 10.56049999999999,2.8348999999999975 10.554599999999994,2.8278999999999996 10.560199999999995,2.8188999999999993 10.560099999999991,2.8096999999999994 10.5565,2.799599999999998 10.549099999999996,2.7909000000000006 10.517199999999988,2.7624999999999957 10.51039999999999,2.75 10.506,2.736399999999996 10.358099999999993,2.720700000000001 10.337499999999991,2.702999999999996 10.334399999999988,2.6877999999999957 10.226399999999998,2.6644000000000005 10.215199999999996,2.6704000000000008 10.172299999999993,2.676400000000001 10.131799999999998,2.6684999999999945 10.118499999999997,2.6629999999999967 10.1096,2.6573999999999955 10.082899999999995,2.6295999999999964 10.0728,2.6263000000000005 10.068299999999994,2.6263999999999967 10.061999999999998,2.631599999999999 10.056599999999989,2.6321999999999974 10.053299999999993,2.630499999999998 10.044299999999993,2.633599999999994 10.033899999999988,2.633800000000001 10.028199999999998,2.6318999999999946 10.010099999999994,2.6162999999999954 9.989099999999993,2.613499999999995 9.983999999999995,2.6111000000000004 9.979,2.605399999999996 9.973799999999997,2.5914 9.96589999999999,2.582499999999996 9.945799999999991,2.5648999999999944 9.939899999999994,2.563600000000001 9.937899999999999,2.5615999999999985 9.921399999999991,2.5574000000000012 9.880799999999994,2.5574999999999974 9.867499999999993,2.555499999999995 9.856799999999993,2.5512999999999977 9.837499999999991,2.5352999999999994 9.825399999999988,2.527699999999996 9.802899999999994,2.519999999999996 9.760599999999997,2.513300000000001 9.75309999999999,2.5098999999999947 9.749199999999988,2.507100000000001 9.74029999999999,2.491099999999996 9.730399999999989,2.4848 9.7209,2.4842999999999975 9.7076,2.4861000000000004 9.697199999999995,2.4816999999999965 9.657299999999992,2.472699999999996 9.64909999999999,2.4679999999999964 9.6391,2.454099999999997 9.618399999999994,2.445699999999995 9.612399999999994,2.4412999999999982 9.601199999999992,2.427499999999995 9.591699999999989,2.421900000000001 9.587399999999988,2.4210999999999956 9.556699999999992,2.402699999999996 9.542000000000002,2.397500000000001 9.537199999999999,2.3980999999999995 9.531599999999997,2.3958000000000013 9.518699999999995,2.393899999999995 9.463899999999995,2.3795 9.428699999999992,2.377899999999997 9.422799999999995,2.3748999999999967 9.411599999999993,2.3607999999999976 9.40039999999999,2.341000000000001 9.375099999999989,2.3138999999999967 9.3643,2.2993999999999986 9.360099999999989,2.2967999999999975 9.34729999999999,2.301099999999998 9.3369,2.300999999999995 9.32289999999999,2.2952000000000012 9.29719999999999,2.2964999999999947 9.252299999999991,2.283299999999997 9.244199999999992,2.274099999999997 9.219799999999992,2.256599999999999 9.1965,2.2478999999999942 9.157899999999998,2.241799999999998 9.141999999999996,2.240400000000001 9.1357,2.2412999999999954 9.128299999999996,2.2394999999999996 9.125299999999996,2.240699999999997 9.11269999999999,2.2376000000000005 9.107,2.2334999999999994 9.104099999999988,2.220099999999995 9.04119999999999,2.2080999999999946 8.944400000000002,2.226299999999995 8.90679999999999,2.220399999999998 8.875900000000001,2.208199999999998 8.84259999999999,2.0518999999999963 8.75399999999999,2.0150000000000006 8.73769999999999,2.012899999999995 8.682999999999993,2.0150000000000006 8.63969999999999,2.0093999999999994 8.625199999999992,2.0157999999999987 8.56089999999999,1.9820999999999955 8.5261,1.9527999999999963 8.522099999999995,1.9242999999999952 8.54719999999999,1.882799999999996 8.531199999999998,1.8763999999999967 8.517799999999994,1.8733999999999966 8.49499999999999,1.8628999999999962 8.488599999999991,1.8538999999999959 8.47959999999999,1.8502999999999972 8.471499999999992,1.8495999999999952 8.447599999999994,1.855799999999995 8.442099999999996,1.8552999999999997 8.427099999999996,1.8514999999999944 8.418499999999995,1.8466999999999985 8.406899999999993,1.8352999999999966 8.39009999999999,1.8282999999999987 8.376599999999996,1.8326999999999956 8.369900000000001,1.8323999999999998 8.34559999999999,1.8399999999999963 8.336999999999989,1.839500000000001 8.317899999999995,1.8311999999999955 8.290499999999994,1.8230999999999966 8.269499999999994,1.819899999999997 8.252399999999994,1.8192999999999984 8.242999999999995,1.820699999999995 8.22569999999999,1.8270999999999944 8.190100000000001,1.8282999999999987 8.18719999999999,1.8301999999999978 8.181299999999993,1.8423999999999978 8.16879999999999,1.8481999999999985 8.160399999999996,1.849499999999999 8.143499999999989,1.8484999999999943 8.079899999999995,1.8598999999999961 8.068999999999988,1.8598999999999961 8.052299999999988,1.857299999999995 8.035799999999995,1.850999999999999 8.027199999999993,1.8459000000000003 7.994799999999998,1.8345999999999947 7.981499999999997,1.8337000000000003 7.970799999999997,1.8393999999999977 7.971499999999992,1.8430999999999997 7.9666,1.8491 7.9498999999999995,1.8549000000000007 7.923599999999993,1.8551999999999964 7.90809999999999,1.852799999999995 7.885999999999996,1.8421999999999983 7.873099999999994,1.843599999999995 7.83489999999999,1.8632999999999953 7.83359999999999,1.867999999999995 7.81519999999999,1.879799999999996 7.799199999999999,1.879799999999996 7.767600000000002,1.8868999999999971 7.747599999999991,1.884299999999996 7.73599999999999,1.8800999999999988 7.7076999999999884,1.875399999999999 7.690100000000001,1.870199999999997 7.667599999999993,1.8659999999999997 7.631799999999998,1.8502999999999972 7.607699999999994,1.8534999999999968 7.584299999999999,1.8480999999999952 7.5741999999999905,1.8397999999999968 7.569099999999992,1.8335000000000008 7.557099999999991,1.8119999999999976 7.552899999999994,1.811399999999999 7.550899999999999,1.8049999999999997 7.544699999999992,1.8018999999999963 7.526299999999992,1.798499999999997 7.513999999999996,1.7931999999999988 7.506399999999999,1.7879000000000005 7.495499999999993,1.7516999999999996 7.495599999999996,1.7449999999999974 7.5090999999999894,1.6871999999999971 7.50739999999999,1.6784999999999997 7.501799999999989,1.6724999999999994 7.467099999999988,1.6584000000000003 7.396000000000001,1.6177999999999955 7.371799999999993,1.6011999999999986 7.365299999999991,1.5921999999999983 7.354299999999995,1.5844999999999985 7.349499999999992,1.567699999999995 7.35329999999999,1.5552999999999955 7.365099999999998,1.5338999999999956 7.367499999999993,1.5237999999999943 7.367399999999989,1.5159999999999982 7.359200000000001,1.5020999999999987 7.3596,1.4911999999999992 7.3670999999999935,1.4697999999999993 7.365799999999993,1.466000000000001 7.366900000000001,1.4576999999999956 7.360699999999994,1.4499999999999957 7.334299999999999,1.4371999999999971 7.319599999999994,1.4270999999999958 7.308899999999994,1.4159999999999968 7.295599999999993,1.3980999999999995 7.258499999999998,1.362099999999998 7.253699999999995,1.3497999999999948 7.2490999999999985,1.328399999999995 7.247799999999998,1.300699999999999 7.241599999999991,1.2897999999999996 7.216999999999999,1.270699999999998 7.196100000000001,1.2583999999999946 7.182599999999994,1.2449000000000012 7.1791999999999945,1.2393999999999963 7.1728999999999985,1.2353999999999985 7.160199999999989,1.2295999999999978 7.135499999999993,1.2224000000000004 7.131099999999989,1.2230999999999952 7.097999999999999,1.2142999999999944 7.084699999999998,1.2091999999999956 7.0604999999999905,1.1895999999999987 7.052099999999996,1.186799999999998 7.045099999999991,1.1978000000000009 7.046099999999996,1.2045999999999992 7.044299999999993,1.2068000000000012 7.042400000000001,1.2286999999999964 7.034399999999991,1.249299999999998 7.032799999999995,1.2744999999999962 7.030000000000001,1.2824999999999989 7.023199999999989,1.2875999999999976 7.013300000000001,1.2886999999999986 7.009399999999999,1.2879999999999967 6.995199999999997,1.2772000000000006 6.978999999999999,1.2594999999999956 6.9406999999999925,1.2237999999999971 6.9208,1.2139999999999986 6.907899999999998,1.2100000000000009 6.893000000000001,1.2104 6.878099999999989,1.213000000000001 6.845999999999989,1.2254000000000005 6.840899999999991,1.2254999999999967 6.826999999999998,1.2319999999999993 6.8111999999999995,1.2346999999999966 6.789299999999997,1.2309999999999945 6.7438999999999965,1.2098999999999975 6.730399999999989,1.2070000000000007 6.6950999999999965,1.2072999999999965 6.686999999999998,1.2040000000000006 6.680399999999992,1.1980999999999966 6.6684999999999945,1.1809999999999974 6.6503999999999905,1.1648999999999958 6.642600000000002,1.1543999999999954 6.641899999999993,1.144999999999996 6.645699999999991,1.1257999999999981 6.642899999999997,1.1184000000000012 6.636799999999994,1.1143 6.631099999999989,1.1146999999999991 6.620699999999999,1.1283999999999992 6.615299999999991,1.1325000000000003 6.605499999999992,1.1350999999999942 6.577999999999989,1.133899999999997 6.564599999999999,1.1348999999999947 6.558099999999996,1.1381999999999977 6.549999999999997,1.1584999999999965 6.549099999999996,1.1657999999999973 6.54549999999999,1.1666999999999987 6.537999999999997,1.1632999999999996 6.525099999999995,1.1468999999999951 6.512999999999991,1.134999999999998 6.499499999999998,1.1261999999999972 6.4786,1.1258999999999943 6.460699999999989,1.122099999999996 6.442699999999988,1.1159999999999997 6.420199999999994,1.1044999999999945 6.415199999999999,1.1103999999999985 6.413799999999995,1.1154999999999973 6.419799999999995,1.1268999999999991 6.418599999999998,1.1310999999999964 6.407599999999988,1.1435999999999993 6.410199999999989,1.1631 6.403099999999995,1.1684999999999945 6.390199999999993,1.174599999999998 6.383199999999988,1.1836999999999946 6.3896000000000015,1.1907999999999959 6.385599999999997,1.1955999999999989 6.390199999999993,1.221199999999996 6.398599999999988,1.2399999999999949 6.419799999999995,1.257399999999997 6.42949999999999,1.2594999999999956 6.435599999999994,1.2645999999999944 6.436699999999988,1.2840999999999951 6.439999999999998,1.2920999999999978 6.4392,1.2945999999999955 6.4422,1.305499999999995 6.439799999999991,1.3123000000000005 6.397499999999994,1.3240999999999943 6.3688999999999965,1.3290999999999968 6.361399999999989,1.333999999999996 6.3581999999999965,1.353200000000001 6.346599999999995,1.3746999999999971 6.341799999999992,1.3900000000000006 6.339999999999989,1.431999999999995 6.3466999999999985,1.4405999999999963 6.3463999999999885,1.4453999999999994 6.333999999999989,1.4523999999999972 6.3311999999999955,1.4594999999999985 6.3262,1.4638999999999953 6.316999999999993,1.4835999999999956 6.3134000000000015,1.4859000000000009 6.280799999999999,1.4797000000000011 6.2757000000000005,1.475999999999999 6.254099999999994,1.469299999999997 6.238099999999989,1.4564999999999984 6.229099999999988,1.4528999999999996 6.206800000000001,1.449300000000001 6.190599999999989,1.438600000000001 6.180700000000002,1.4361999999999995 6.175899999999999,1.430499999999995 6.173400000000001,1.4176999999999964 6.169199999999989,1.4114999999999966 6.138799999999989,1.3861999999999952 6.1303999999999945,1.3804999999999978 6.110299999999995,1.3828999999999994 6.104900000000001,1.3798999999999992 6.093800000000002,1.370599999999996 6.078099999999992,1.3536999999999964 6.0685,1.3463999999999956 6.04849999999999,1.3445999999999998 6.037700000000001,1.3400999999999996 6.021499999999989,1.3281999999999954 6.015699999999995,1.3160999999999987 6.009699999999995,1.3085999999999984 5.985199999999992,1.3067999999999955 5.979799999999997,1.3049999999999997 5.9713999999999885,1.2898999999999958 5.958199999999991,1.2815000000000012 5.9491999999999905,1.2722999999999942 5.939399999999992,1.2686999999999955 5.914199999999994,1.2659999999999982 5.905899999999988,1.2680000000000007 5.889699999999991,1.2768999999999977 5.858899999999991,1.2826999999999984 5.8400999999999925,1.2757999999999967 5.8289999999999935,1.2686999999999955 5.817299999999989,1.2678000000000011 5.806299999999993,1.2680000000000007 5.796999999999997,1.2708000000000013 5.7864999999999895,1.2766999999999982 5.767399999999995,1.2782999999999944 5.756299999999996,1.282899999999998 5.74499999999999,1.2819000000000003 5.738399999999999,1.2857999999999947 5.731200000000001,1.2851 5.718699999999998,1.2775999999999996 5.708199999999991,1.2777999999999992 5.654599999999988,1.3023999999999987 5.6458999999999975,1.3112999999999957 5.646799999999999,1.3132999999999981 5.644599999999997,1.3178999999999945 5.62469999999999,1.3213000000000008 5.607199999999992,1.3315999999999946 5.585499999999996,1.3378999999999976 5.560699999999997,1.3474000000000004 5.554999999999993,1.350999999999999 5.548400000000001,1.3519000000000005 5.543599999999998,1.3484999999999943 5.5382999999999925,1.3320000000000007 5.541299999999993,1.328399999999995 5.545599999999993,1.3164999999999978 5.541799999999995,1.2933999999999983 5.532299999999992,1.281099999999995 5.512299999999996,1.2800999999999974 5.509599999999992,1.2772999999999968 5.509599999999992,1.273699999999998 5.525199999999998,1.2567999999999984 5.5702,1.2224000000000004 5.579599999999999,1.2061999999999955 5.590699999999998,1.1957999999999984 5.622399999999999,1.1788999999999987 5.628399999999999,1.1729999999999947 5.619799999999998,1.1642999999999972 5.5985999999999905,1.157199999999996 5.5922999999999945,1.154199999999996 5.5833999999999975,1.1447999999999965 5.5785999999999945,1.1447999999999965 5.561899999999994,1.1529999999999987 5.55619999999999,1.1588999999999956 5.539099999999991,1.170499999999997 5.52239999999999,1.1777999999999977 5.496600000000001,1.177900000000001 5.469999999999999,1.1754999999999995 5.461199999999991,1.1766000000000005 5.444499999999991,1.1738 5.403499999999994,1.1723 5.405299999999997,1.1650999999999954 5.411000000000001,1.1540999999999997 5.409099999999995,1.144599999999997 5.390899999999988,1.1152999999999977 5.381599999999992,1.1062000000000012 5.376099999999994,1.1021 5.363900000000001,1.0972000000000008 5.355099999999993,1.1055999999999955 5.34559999999999,1.1062999999999974 5.30619999999999,1.101700000000001 5.2975999999999885,1.0966999999999985 5.289899999999989,1.0897999999999968 5.279899999999998,1.0766999999999953 5.276399999999995,1.0674999999999955 5.262799999999999,1.0534999999999997 5.251899999999992,1.0381 5.244,1.0315000000000012 5.23299999999999,1.0277999999999992 5.218399999999988,1.0255999999999972 5.2136,1.0230999999999995 5.209499999999991,1.019599999999997 5.203099999999992,1.0075000000000003 5.1906999999999925,0.9998999999999967 5.179699999999997,0.9899999999999949 5.172399999999996,0.9777999999999949 5.160599999999988,0.9697999999999993 5.14309999999999,0.9613999999999976 5.132199999999997,0.9581999999999979 5.116499999999988,0.9481999999999999 5.103499999999997,0.9371999999999971 5.083999999999989,0.9281000000000006 5.060699999999997,0.9110999999999976 5.053899999999999,0.914200000000001 5.035199999999989,0.9311999999999969 5.019300000000001,0.9395999999999987 5.0123999999999995,0.9403999999999968 4.994900000000001,0.9326000000000008 4.988900000000001,0.9454999999999956 4.9831999999999965,0.9519999999999982 4.974899999999991,0.9545999999999992 4.971899999999991,0.9603999999999999 4.968199999999996,0.9602000000000004 4.945899999999995,0.9504999999999981 4.927599999999998,0.9505999999999943 4.918199999999999,0.9521999999999977 4.905599999999993,0.9504999999999981 4.8870000000000005,0.9443999999999946 4.88239999999999,0.9412999999999982 4.870199999999997,0.9388999999999967 4.8533999999999935,0.9399999999999977 4.8339,0.9384999999999977 4.811899999999994,0.9191000000000003 4.798400000000001,0.9131999999999962 4.782299999999992,0.9089999999999989 4.7705999999999875,0.9159999999999968 4.744199999999992,0.9254999999999995 4.729599999999991,0.9183999999999983 4.726799999999997,0.9153999999999982 4.7239999999999895,0.9100999999999999 4.722499999999997,0.9013999999999953 4.709699999999998,0.8844999999999956 4.704799999999992,0.8806999999999974 4.6791999999999945,0.8699999999999974 4.662999999999997,0.8660999999999959 4.642199999999988,0.8584999999999994 4.640699999999995,0.8553999999999959 4.64139999999999,0.8524999999999991 4.6480999999999995,0.8482999999999947 4.683599999999998,0.8360999999999947 4.6865999999999985,0.832499999999996 4.686099999999996,0.8260000000000005 4.672699999999992,0.8064999999999998 4.661299999999997,0.7989999999999995 4.614999999999995,0.7498000000000005 4.629599999999996,0.7237999999999971 4.6277999999999935,0.7087000000000003 4.6214999999999975,0.6995999999999967 4.617899999999992,0.6950000000000003 4.597399999999993,0.6831999999999994 4.578299999999999,0.6786999999999992 4.571100000000001,0.674199999999999 4.562599999999989,0.6659999999999968 4.555199999999999,0.6470999999999947 4.552999999999997,0.6375999999999991 4.5504999999999995,0.6073999999999984 4.555399999999992,0.5867000000000004 4.566099999999992,0.5758999999999972 4.5732,0.5720999999999989 4.611699999999999,0.5653999999999968 4.621799999999993,0.5608999999999966 4.6303999999999945,0.5536999999999992 4.63539999999999,0.541799999999995 4.642600000000002,0.5148999999999972 4.658999999999992,0.44659999999999656 4.661699999999996,0.43009999999999593 4.658199999999994,0.4211999999999989 4.647599999999997,0.4088999999999956 4.610299999999995,0.3726999999999947 4.604399999999998,0.3634999999999948 4.6006,0.3569999999999993 4.584099999999992,0.3061000000000007 4.5745000000000005,0.29710000000000036 4.562699999999992,0.29110000000000014 4.541699999999992,0.2860999999999976 4.441099999999992,0.2850999999999999 4.367499999999993,0.2939000000000007 4.355099999999993,0.2937000000000012 4.333299999999994,0.2867999999999995 4.307099999999991,0.2850999999999999 4.298099999999991,0.28179999999999694 4.283499999999989,0.2792999999999992 4.229299999999995,0.2949999999999946 4.211999999999989,0.2959999999999994 4.181899999999999,0.29299999999999926 4.1601,0.27939999999999543 4.1477,0.2733999999999952 4.137599999999992,0.271099999999997 4.123199999999997,0.2761999999999958 4.1103999999999985,0.27839999999999776 4.103799999999993,0.2740000000000009 4.098099999999988,0.26670000000000016 4.084699999999998,0.2371999999999943 4.075399999999988,0.22469999999999857 4.059999999999988,0.21889999999999787 4.0334,0.2132000000000005 4.0049999999999955,0.21389999999999532 3.9865999999999957,0.21640000000000015 3.9653999999999883,0.23440000000000083 3.9590999999999923,0.23290000000000077 3.947199999999995,0.21189999999999998 3.9388000000000005,0.18769999999999953 3.928299999999993,0.1868999999999943 3.9228999999999985,0.18439999999999657 3.8991999999999933,0.18240000000000123 3.8643,0.18679999999999808 3.842199999999991,0.1997 3.825099999999992,0.20279999999999632 3.802499999999995,0.20319999999999538 3.781899999999993,0.19489999999999696 3.7746999999999957,0.18909999999999627 3.750399999999999,0.18599999999999994 3.7271999999999963,0.19079999999999586 3.7162999999999897,0.19109999999999872 3.6954999999999956,0.1850999999999985 3.6899999999999977,0.1869999999999976 3.670099999999991,0.17969999999999686 3.6654999999999944,0.18059999999999832 3.652699999999996,0.18949999999999534 3.6436999999999955,0.19289999999999452 3.6273999999999944,0.1903999999999968 3.6017999999999972,0.18119999999999692 3.5878999999999905,0.17859999999999587 3.567799999999991,0.18019999999999925 3.554400000000001,0.18469999999999942 3.536599999999993,0.19429999999999836 3.514499999999998,0.18589999999999662 3.496399999999994,0.17539999999999623 3.4919999999999902,0.1875 3.4835999999999956,0.1944999999999979 3.474899999999991,0.19769999999999754 3.4602000000000004,0.1997 3.4177999999999997,0.21759999999999735 3.391599999999997,0.22269999999999612 3.371399999999994,0.2190000000000012 3.3599999999999994,0.21989999999999554 3.3348000000000013,0.2259999999999991 3.3303999999999974,0.2254999999999967 3.322800000000001,0.2213999999999956 3.3027000000000015,0.18909999999999627 3.29079999999999,0.18209999999999837 3.2772999999999968,0.18029999999999546 3.2702999999999918,0.18419999999999703 3.263799999999989,0.1967999999999961 3.2616000000000014,0.1980000000000004 3.258199999999988,0.20830000000000126 3.212599999999995,0.21009999999999707 3.199399999999997,0.20929999999999893 3.1906999999999925,0.2044999999999959 3.183399999999992,0.19439999999999458 3.1888999999999896,0.1850999999999985 3.190399999999997,0.17909999999999826 3.183799999999991,0.17490000000000094 3.1581999999999937,0.17099999999999937 3.1079000000000008,0.15379999999999683 3.097999999999999,0.15339999999999776 3.0698000000000008,0.157199999999996 3.0627999999999957,0.15469999999999828 3.0424999999999898,0.1407999999999987 3.0281999999999982,0.12519999999999953 3.0065999999999917,0.07339999999999947 2.9919999999999902,0.05399999999999494 2.9833,0.03810000000000002 2.9816999999999894,0.010799999999996146 2.9772999999999996,0.0022999999999981924 2.9653999999999883,0.0 2.9531999999999954,0.002600000000001046 2.9402999999999935,0.010899999999999466 2.9362999999999886,0.02169999999999561 2.937100000000001,0.03170000000000073 2.934999999999988,0.0437999999999974 2.9288999999999987,0.05279999999999774 2.910599999999988,0.06279999999999575 2.9017999999999944,0.0694999999999979 2.89139999999999,0.08489999999999753 2.891999999999996,0.09429999999999694 2.8870000000000005,0.10099999999999909 2.8787999999999982,0.10429999999999495 2.8648999999999916,0.10589999999999833 2.8215999999999894,0.1010999999999953 2.81219999999999,0.10449999999999449 2.8057999999999907,0.11249999999999716 2.798099999999991,0.13210000000000122 2.7857999999999947,0.1494999999999962 2.778899999999993,0.17909999999999826 2.7708999999999975,0.18719999999999715 2.7631999999999977,0.19189999999999685 2.755899999999997,0.19369999999999976 2.7323999999999984,0.17799999999999727 2.7154999999999916,0.17499999999999716 2.6914999999999907,0.16169999999999618 2.678299999999993,0.15849999999999653 2.6648999999999887,0.14519999999999555 2.6517999999999944,0.1284999999999954 2.639099999999999,0.1074999999999946 2.6313999999999993,0.10449999999999449 2.6200999999999937,0.10259999999999536 2.5995999999999952,0.10839999999999606 2.5662999999999982,0.1103999999999985 2.556299999999993,0.10889999999999844 2.538499999999999,0.10210000000000008 2.5223000000000013,0.10089999999999577 2.5108999999999924,0.10529999999999973 2.500399999999999,0.11339999999999861 2.481200000000001,0.1377999999999986 2.472999999999999,0.15119999999999578 2.477499999999992,0.17779999999999774 2.4934999999999974,0.1938999999999993 2.5164999999999935,0.20250000000000057 2.5205999999999875,0.2079999999999984 2.52409999999999,0.22999999999999687 2.5180000000000007,0.2556999999999974 2.5067999999999984,0.2705999999999946 2.481099999999998,0.2837999999999994 2.469399999999993,0.28429999999999467 2.4505999999999943,0.28179999999999694 2.427199999999999,0.283299999999997 2.3951999999999884,0.2780999999999949 2.360900000000001,0.2670999999999992 2.3466999999999985,0.26729999999999876 2.3333999999999975,0.272199999999998 2.2971999999999895,0.2761999999999958 2.2826999999999913,0.2820999999999998 2.272899999999993,0.2997999999999976 2.264099999999999,0.3322999999999965 2.263799999999989,0.3452999999999946 2.2680000000000007,0.35999999999999943 2.2781999999999982,0.37249999999999517 2.2815999999999974,0.3847999999999985 2.280299999999997,0.40169999999999817 2.2712999999999965,0.4146000000000001 2.246299999999991,0.42960000000000065 2.2192000000000007,0.44079999999999586 2.2079999999999984,0.4398999999999944 2.1988999999999947,0.43499999999999517 2.1803999999999917,0.41849999999999454 2.1557999999999993,0.4046999999999983 2.1348999999999876,0.3983999999999952 2.1126000000000005,0.39929999999999666 2.081299999999999,0.4035000000000011 2.0749999999999886,0.40279999999999916 2.055899999999994,0.3958999999999975 2.0548,0.3791999999999973 2.049199999999999,0.3707999999999956 2.0278999999999883,0.3506 2.0157999999999987,0.3452999999999946 2.007099999999994,0.3451999999999984 1.998199999999997,0.3504000000000005 1.9788999999999959,0.376100000000001 1.9735000000000014,0.3791999999999973 1.9643999999999977,0.37239999999999895 1.9599999999999937,0.36299999999999955 1.9257999999999953,0.34379999999999455 1.9136999999999915,0.33849999999999625 1.8898999999999972,0.334699999999998 1.8478999999999957,0.3377999999999943 1.8329999999999984,0.33739999999999526 1.8198000000000008,0.33370000000000033 1.809999999999988,0.3263999999999996 1.8011999999999944,0.30809999999999604 1.798099999999991,0.29759999999999565 1.8011999999999944,0.2594999999999956 1.7928999999999888,0.24689999999999657 1.7864000000000004,0.24139999999999873 1.771799999999999,0.23619999999999663 1.7515999999999963,0.2312999999999974 1.713799999999992,0.23039999999999594 1.6948000000000008,0.24219999999999686 1.6796999999999969,0.2575999999999965 1.671299999999988,0.2618000000000009 1.6612999999999971,0.26069999999999993 1.6558999999999884,0.25369999999999493 1.6552999999999969,0.23409999999999798 1.642399999999995,0.2172999999999945 1.6326999999999998,0.21049999999999613 1.6122000000000014,0.20889999999999986 1.60029999999999,0.2160999999999973 1.5882000000000005,0.22039999999999793 1.535899999999998,0.2155999999999949 1.5086999999999904,0.2166999999999959 1.4936000000000007,0.22159999999999513 1.4882999999999953,0.2265999999999977 1.486399999999989,0.24579999999999558 1.4831999999999965,0.2535999999999987 1.4816999999999894,0.2896999999999963 1.4745999999999952,0.3048000000000002 1.4658999999999907,0.3141999999999996 1.4231999999999942,0.33449999999999847 1.3977000000000004,0.36999999999999744 1.3941999999999979,0.38279999999999603 1.3766999999999996,0.4076999999999984 1.3597999999999928,0.42020000000000124 1.3442999999999898,0.42439999999999856 1.3055999999999983,0.4251999999999967 1.2904999999999944,0.43090000000000117 1.2791999999999888,0.4322999999999979 1.265199999999993,0.44549999999999557 1.2561999999999927,0.4493000000000009 1.2442999999999955,0.4597999999999942 1.2277999999999878,0.44709999999999894 1.2128000000000014,0.44719999999999516 1.2021999999999906,0.443799999999996 1.193799999999996,0.43789999999999907 1.1864999999999952,0.42960000000000065 1.1732999999999976,0.42439999999999856 1.156099999999995,0.43839999999999435 1.144999999999996,0.4311000000000007 1.141999999999996,0.4216999999999942 1.1374999999999886,0.4176000000000002 1.118399999999994,0.4216999999999942 1.1096999999999895,0.42149999999999466 1.0952999999999946,0.4181999999999988 1.0841999999999956,0.4099000000000004 1.0499999999999972,0.37419999999999476 1.037700000000001,0.3649999999999949 1.024799999999999,0.35729999999999507 1.004099999999994,0.3526999999999987 0.9930999999999983,0.3544999999999945 0.9829999999999899,0.36249999999999716 0.9612999999999943,0.38530000000000086 0.9517999999999915,0.38939999999999486 0.94789999999999,0.3960000000000008 0.9379999999999882,0.4025999999999996 0.9317999999999955,0.424199999999999 0.9262999999999977,0.42429999999999524 0.9183999999999912,0.41689999999999827 0.9161000000000001,0.4048999999999978 0.8897999999999939,0.3966999999999956 0.879099999999994,0.39759999999999707 0.8650999999999982,0.4024999999999963 0.8412000000000006,0.42269999999999897 0.8245000000000005,0.4294000000000011 0.8097999999999956,0.41799999999999926 0.7805999999999926,0.40050000000000097 0.7716999999999956,0.40629999999999455 0.7563999999999993,0.4095999999999975 0.7532999999999959,0.4058999999999955 0.7481999999999971,0.39170000000000016 0.7350999999999885,0.3813999999999993 0.7275999999999954,0.37879999999999825 0.7190999999999974,0.3780000000000001 0.7078999999999951,0.37930000000000064 0.7017999999999915,0.38879999999999626 0.6854999999999905,0.3988999999999976 0.6522999999999968,0.4042999999999992 0.6304999999999978,0.40109999999999957 0.6239999999999952,0.3964999999999961 0.6193999999999988,0.37889999999999446 0.6082999999999998,0.3673000000000002 0.5875999999999948,0.3506 0.5826999999999884,0.35079999999999956 0.5792000000000002,0.3547000000000011 0.5747999999999962,0.3663999999999987 0.5314999999999941,0.3925999999999945 0.5131999999999977,0.39989999999999526 0.47879999999999256,0.40569999999999595 0.47050000000000125,0.41259999999999764 0.4508999999999901,0.41799999999999926 0.43240000000000123,0.420499999999997 0.41619999999998925,0.41799999999999926 0.3943999999999903,0.40329999999999444 0.37819999999999254,0.40279999999999916 0.3464999999999918,0.4123999999999981 0.3148999999999944,0.4007999999999967 0.2989999999999924,0.3791999999999973 0.28419999999999845,0.3795999999999964 0.2663999999999902,0.37049999999999983 0.2577999999999889,0.37169999999999703 0.2412999999999954,0.3644999999999996 0.22509999999999764,0.36199999999999477 0.20359999999999445,0.3521000000000001 0.19999999999998863,0.3551000000000002 0.18540000000000134,0.36119999999999663 0.16910000000000025,0.35589999999999833 0.14829999999999188,0.36129999999999995 0.13489999999998759,0.36829999999999785 0.13049999999999784,0.3789999999999978 0.12299999999999045,0.3791999999999973 0.1191999999999922,0.37639999999999674 0.10439999999999827,0.35089999999999577 0.09420000000000073,0.3434999999999988 0.08549999999999613,0.34369999999999834 0.06049999999999045,0.3663999999999987 0.07880000000000109,0.41679999999999495 0.06299999999998818,0.4229999999999947 0.06099999999999284,0.43359999999999843 0.061399999999991905,0.44310000000000116 0.05919999999998993,0.4498999999999995 0.0531999999999897,0.454899999999995 0.05159999999999343,0.4759999999999991 0.044399999999996,0.481899999999996 0.041100000000000136,0.48969999999999914 0.04719999999998947,0.5172999999999988 0.04059999999999775,0.5366999999999962 0.02169999999999561,0.5582999999999956 0.009999999999990905,0.575800000000001 0.0,0.6081999999999965 0.002899999999996794,0.6256999999999948 0.00019999999999242846,0.630199999999995 0.017099999999999227,0.6532999999999944 0.022700000000000387,0.6684999999999945 0.023499999999998522,0.6856999999999971 0.028300000000001546,0.7104999999999961 0.04889999999998906,0.7262999999999948 0.0642999999999887,0.7652000000000001 0.0759999999999934,0.8050999999999959 0.07379999999999143,0.8271999999999977 0.1021999999999963,0.8271999999999977 0.1132999999999953,0.8031999999999968 0.13579999999998904,0.7776999999999958 0.1407999999999987,0.7506999999999948 0.14629999999999654,0.7332999999999998 0.17079999999999984,0.7239999999999966 0.1868999999999943,0.7235999999999976 0.19839999999999236,0.7280999999999977 0.22539999999999338,0.7474999999999952 0.2533999999999992,0.7600999999999942 0.25509999999999877,0.7705999999999946 0.24639999999999418,0.7966999999999942 0.2511999999999972,0.8215000000000003 0.22879999999999256,0.8553999999999959 0.22739999999998872,0.8609999999999971 0.23099999999999454,0.8731000000000009 0.2354999999999876,0.8797999999999959 0.2336999999999989,0.8840000000000003 0.2377999999999929,0.904599999999995 0.24039999999999395,0.9120999999999952 0.24619999999998754,0.9172000000000011 0.2827999999999946,0.9309999999999974 0.3024999999999949,0.9317999999999955 0.33509999999999707,0.9368999999999943 0.3678999999999917,0.9442999999999984 0.3973000000000013,0.9421999999999997 0.4136999999999915,0.9420999999999964 0.421599999999998,0.9435999999999964 0.46809999999999263,0.9649999999999963 0.48639999999998906,0.9701999999999984 0.4919999999999902,0.9741999999999962 0.5223999999999904,0.9859999999999971 0.5492999999999881,0.9916999999999945 0.5683999999999969,0.9987999999999957 0.6222999999999956,1.0146999999999977 0.6261999999999972,1.0178999999999974 0.6483999999999952,1.0244 0.6620999999999952,1.0309999999999988 0.6790999999999912,1.0351 0.6974999999999909,1.0449999999999946 0.716399999999993,1.049199999999999 0.7306999999999988,1.0442999999999998 0.7472999999999956,1.0439000000000007 0.7617999999999938,1.0390999999999977 0.7792999999999921,1.0394999999999968 0.783299999999997,1.0382999999999996 0.7986999999999966,1.0308999999999955 0.863900000000001,0.9889999999999972 0.8757999999999981,0.984099999999998 0.8881999999999977,0.9814999999999969 0.9161000000000001,0.9671999999999983 0.9218999999999937,0.9605999999999995 0.9354999999999905,0.9555000000000007 0.9667999999999921,0.9553999999999974 0.9891999999999967,0.9588999999999999 1.0197999999999894,0.9519999999999982 1.046199999999999,0.9421999999999997 1.0557999999999907,0.9369999999999976 1.070299999999989,0.9231999999999942 1.0848999999999904,0.9189999999999969 1.1093999999999937,0.9168999999999983 1.1222999999999956,0.8998999999999953 1.1371999999999929,0.8926999999999978 1.1501999999999981,0.8900999999999968 1.221199999999996,0.8833999999999946 1.2257999999999925,0.881299999999996 1.2438999999999965,0.8785999999999987 1.2640999999999991,0.867999999999995 1.2667000000000002,0.8639999999999972 1.2620999999999896,0.8579000000000008 1.2635999999999967,0.856899999999996 1.2672999999999917,0.8588999999999984 1.2737999999999943,0.8573999999999984 1.2742999999999967,0.8522999999999996 1.2847000000000008,0.8519000000000005 1.2853999999999957,0.8478999999999957 1.269999999999996,0.8343999999999951 1.264799999999994,0.8271999999999977 1.2332999999999998,0.8071999999999946 1.2012,0.7969000000000008 1.1872999999999934,0.785899999999998 1.1766999999999967,0.774799999999999 1.1828000000000003,0.7656999999999954 1.2018999999999949,0.7522999999999982 1.2136999999999887,0.7531999999999996 1.249600000000001,0.7228999999999957 1.253699999999995,0.7245999999999952 1.2533999999999992,0.7291999999999987 1.2378999999999962,0.7423000000000002 1.2331999999999965,0.7496999999999971 1.236699999999999,0.7590000000000003 1.2449000000000012,0.7639999999999958 1.244799999999998,0.7663000000000011 1.2685999999999922,0.7680999999999969 1.2727999999999895,0.7624999999999957 1.2791999999999888,0.7643999999999949 1.287700000000001,0.769999999999996 1.2957999999999998,0.7705999999999946 1.3449999999999989,0.798099999999998 1.358699999999999,0.7997999999999976 1.3647999999999882,0.8049999999999997 1.3644999999999925,0.8117999999999981 1.3803999999999945,0.8403999999999954 1.384999999999991,0.8453999999999979 1.3799999999999955,0.8572999999999951 1.382799999999989,0.8650999999999982 1.3807999999999936,0.8874999999999957 1.375099999999989,0.8873999999999995 1.37469999999999,0.8932999999999964 1.3795999999999964,0.9035999999999973 1.3871999999999929,0.9102999999999994 1.402000000000001,0.9152999999999949 1.4405999999999892,0.9135999999999953 1.479299999999995,0.9170999999999978 1.4975999999999914,0.9249000000000009 1.511099999999999,0.9354999999999976 1.528899999999993,0.945999999999998 1.5353999999999957,0.9549999999999983 1.5445999999999884,0.9868999999999986 1.5527999999999906,0.9924999999999997 1.5622999999999934,0.9936000000000007 1.5809999999999889,0.9908999999999963 1.6306000000000012,0.9713999999999956 1.6400999999999897,0.9719999999999942 1.6503999999999905,0.9773999999999958 1.6695999999999884,0.9808999999999983 1.674599999999998,0.9821999999999989 1.6758999999999986,0.984099999999998 1.6829999999999927,0.9852999999999952 1.6914999999999907,0.9917999999999978 1.698299999999989,1.0120000000000005 1.7013999999999925,1.0140999999999991 1.7016999999999882,1.0272000000000006 1.7045999999999992,1.037399999999998 1.7039999999999935,1.0427999999999997 1.6999999999999886,1.0492999999999952 1.6888000000000005,1.0551999999999992 1.6923999999999921,1.0621999999999971 1.6921999999999997,1.067299999999996 1.6886999999999972,1.078800000000001 1.6836999999999875,1.0874999999999986 1.686399999999992,1.0915999999999997 1.6962999999999937,1.0962999999999994 1.7409999999999997,1.1113 1.7524999999999977,1.1139999999999972 1.783299999999997,1.1169999999999973 1.8007999999999953,1.125 1.8384999999999962,1.146499999999996 1.851699999999994,1.1499999999999986 1.8729999999999905,1.1495999999999995 1.9029999999999916,1.1573999999999955 1.9207999999999998,1.1591999999999985 1.9423999999999921,1.1576999999999984 1.9642999999999944,1.152000000000001 1.9746999999999986,1.152000000000001 1.9915999999999912,1.1548999999999978 1.9975999999999914,1.1539000000000001 1.9979999999999905,1.1372 2.0013000000000005,1.132799999999996 2.007099999999994,1.1311999999999998 2.023399999999995,1.1328999999999994 2.0488,1.1421999999999954 2.0564999999999998,1.1433999999999997 2.063299999999998,1.1392999999999986 2.0612999999999886,1.1328999999999994 2.0648999999999944,1.1276999999999973 2.0782999999999987,1.1285999999999987 2.089199999999991,1.1321999999999974 2.0996999999999986,1.1298999999999992 2.108699999999999,1.125399999999999 2.1323000000000008,1.1049000000000007 2.1458999999999975,1.0966999999999985 2.158999999999992,1.0927999999999969 2.179099999999991,1.0899999999999963 2.2072000000000003,1.0895999999999972 2.2109999999999985,1.0855999999999995 2.2124999999999915,1.0808999999999997 2.2083999999999975,1.0585999999999984 2.213099999999997,1.049599999999998 2.2513999999999896,1.0364999999999966 2.2652999999999963,1.0281999999999982 2.2714,1.0267999999999944 2.2830999999999904,1.0300000000000011 2.3048999999999893,1.0300000000000011 2.322499999999991,1.0140999999999991 2.3286999999999978,1.0135999999999967 2.3311999999999955,1.0168999999999997 2.329499999999996,1.0261999999999958 2.333999999999989,1.0418999999999983 2.332899999999995,1.046999999999997 2.3363999999999976,1.0503999999999962 2.336999999999989,1.0555999999999983 2.3333999999999975,1.061799999999998 2.331299999999999,1.0795999999999992 2.3577999999999975,1.0815999999999946 2.374600000000001,1.0803000000000011 2.3855999999999966,1.0741999999999976 2.400499999999994,1.059199999999997 2.4044999999999987,1.0457999999999998 2.4007999999999896,1.0143999999999949 2.404199999999989,1.0082999999999984 2.411999999999992,1.0016999999999996 2.4170999999999907,1.0004999999999953 2.42649999999999,0.9921000000000006 2.4364999999999952,0.9779999999999944 2.4416999999999973,0.9756999999999962 2.449399999999997,0.9765999999999977 2.469399999999993,0.9874999999999972 2.4979000000000013,0.9945999999999984 2.538599999999988,1.0129999999999981 2.5515999999999934,1.0208999999999975 2.563299999999998,1.020399999999995 2.572099999999992,1.0233999999999952 2.5795999999999992,1.0285999999999973 2.5807999999999964,1.0330000000000013 2.579099999999997,1.0374999999999943 2.5718999999999994,1.0459999999999994 2.576999999999998,1.0499999999999972 2.5760999999999967,1.055099999999996 2.5634000000000015,1.0642999999999958 2.5649999999999977,1.0686999999999998 2.5700999999999965,1.0726999999999975 2.5753999999999877,1.075099999999999 2.5827999999999918,1.0748999999999995 2.5929,1.0713000000000008 2.6114999999999924,1.069199999999995 2.6189999999999998,1.067299999999996 2.6387,1.0548999999999964 2.6462999999999965,1.0520999999999958 2.65979999999999,1.0518 2.6740999999999957,1.057299999999998 2.6803999999999917,1.0625 2.6902999999999935,1.0803999999999974 2.714500000000001,1.0976 2.714999999999989,1.1007999999999996 2.7342000000000013,1.0981999999999985 2.7453000000000003,1.0989000000000004 2.74969999999999,1.1012999999999948 2.7539000000000016,1.1102999999999952 2.7537999999999982,1.1162999999999954 2.7467999999999932,1.1186000000000007 "></polygon><polygon points="1.7586000000000013,1.0796999999999954 1.7545999999999964,1.0614999999999952 1.7653999999999996,1.0540999999999983 1.769599999999997,1.079899999999995 1.7586000000000013,1.082099999999997 1.7586000000000013,1.0796999999999954 "></polygon><polygon points="1.7402000000000015,1.0043000000000006 1.7243999999999886,1.0080999999999989 1.7301999999999964,0.9604999999999961 1.730799999999988,0.8726999999999947 1.772199999999998,0.8482999999999947 1.8223999999999876,0.8466999999999985 1.8325999999999993,0.8438999999999979 1.8363999999999976,0.8234999999999957 1.8211999999999904,0.8164999999999978 1.809999999999988,0.815100000000001 1.8251999999999953,0.7950999999999979 1.8423999999999978,0.7900999999999954 1.8179999999999978,0.7720999999999947 1.7731999999999886,0.724499999999999 1.7955999999999932,0.7250999999999976 1.812599999999989,0.722299999999997 1.8189999999999884,0.7085000000000008 1.8243999999999971,0.7312999999999974 1.8379999999999939,0.7424999999999997 1.8485999999999905,0.7320999999999955 1.8515999999999906,0.7128999999999976 1.8781999999999925,0.7126999999999981 1.9135999999999882,0.7286999999999964 1.9201999999999941,0.7374999999999972 1.936799999999991,0.7434999999999974 1.939399999999992,0.7515000000000001 1.930499999999995,0.7552999999999983 1.9315999999999889,0.7594999999999956 1.9243999999999915,0.7635000000000005 1.9289999999999878,0.7704999999999984 1.9253999999999962,0.7770999999999972 1.8666999999999945,0.7780999999999949 1.8624999999999972,0.7812999999999946 1.8755999999999915,0.7890999999999977 1.873899999999992,0.7890999999999977 1.8900999999999897,0.8014999999999972 1.8900999999999897,0.8109999999999999 1.8714999999999975,0.8185000000000002 1.8711999999999875,0.8210999999999942 1.8684999999999974,0.8237999999999985 1.897599999999997,0.8237999999999985 1.9144000000000005,0.8375999999999948 1.9174000000000007,0.8370999999999995 1.9240999999999957,0.8472000000000008 1.9358000000000004,0.8598999999999961 1.8624999999999972,0.8492999999999995 1.8596999999999895,0.8378999999999976 1.8464999999999918,0.8397000000000006 1.843599999999995,0.8493999999999957 1.8389999999999986,0.8491999999999962 1.8337999999999965,0.8641999999999967 1.8241999999999905,0.8823000000000008 1.8241999999999905,0.9109999999999943 1.8182999999999936,0.914200000000001 1.8173999999999921,0.920899999999996 1.8135999999999939,0.9238999999999962 1.8138999999999896,0.9262999999999977 1.8039999999999878,0.9428999999999945 1.805099999999996,0.9672999999999945 1.790700000000001,0.9865999999999957 1.77409999999999,1.004799999999996 1.7650999999999897,1.0052999999999983 1.76039999999999,1.0116999999999976 1.7402000000000015,1.0043000000000006 "></polygon><polygon points="1.3318999999999903,0.6149999999999949 1.3337999999999965,0.6111000000000004 1.3571999999999917,0.5950999999999951 1.375,0.6028999999999982 1.3841999999999928,0.6218999999999966 1.3871999999999929,0.6454999999999984 1.4239999999999924,0.6428999999999974 1.459399999999988,0.6618999999999957 1.4506999999999977,0.6843000000000004 1.4405999999999892,0.6894999999999953 1.4221999999999895,0.6886999999999972 1.3999999999999915,0.6832999999999956 1.2466000000000008,0.7060999999999993 1.2372000000000014,0.695299999999996 1.236399999999989,0.6768999999999963 1.2656999999999954,0.6677999999999997 1.3174999999999955,0.6445000000000007 1.3318999999999903,0.6149999999999949 "></polygon><polygon points="2.531499999999994,0.8312999999999988 2.5227999999999895,0.8328999999999951 2.5061999999999927,0.8442999999999969 2.4979000000000013,0.8460999999999999 2.509599999999992,0.832499999999996 2.5087999999999937,0.8226999999999975 2.498599999999996,0.8106999999999971 2.4395999999999987,0.787700000000001 2.4535999999999945,0.7826999999999984 2.466399999999993,0.775500000000001 2.464999999999989,0.7637 2.4787999999999926,0.7682999999999964 2.5079999999999956,0.7904999999999944 2.5593999999999966,0.7789000000000001 2.5845999999999947,0.8126999999999995 2.5553999999999917,0.807699999999997 2.5394000000000005,0.829899999999995 2.531499999999994,0.8312999999999988 "></polygon>
    </svg>
    