
    <svg width="0.7863999999999995" height="0.7338000000000022" xmlns="http://www.w3.org/2000/svg" xmlns:xlink="http://www.w3.org/1999/xlink" style="transform: scale(1, -1)">
        <polygon points="0.5533999999999999,0.03359999999999985 0.5514999999999999,0.0338999999999956 0.5550999999999995,0.040399999999998215 0.5453999999999999,0.03920000000000101 0.5364999999999993,0.04639999999999844 0.5320999999999998,0.05570000000000164 0.4985999999999997,0.06439999999999912 0.4914999999999994,0.06029999999999802 0.4728999999999992,0.062199999999997146 0.4725999999999999,0.0589999999999975 0.43549999999999933,0.05930000000000035 0.4310999999999998,0.060899999999996624 0.4126999999999992,0.054999999999999716 0.4133999999999993,0.04540000000000077 0.4004999999999992,0.03989999999999583 0.3854999999999995,0.043300000000002115 0.3780999999999999,0.02669999999999817 0.3633999999999995,0.023699999999998056 0.3558999999999992,0.01899999999999835 0.35669999999999913,0.005099999999998772 0.34219999999999917,0.008000000000002672 0.32779999999999987,0.017200000000002547 0.3121999999999998,0.017600000000001614 0.2980999999999998,0.0 0.28309999999999924,0.0024999999999977263 0.2815999999999992,0.005699999999997374 0.2568999999999999,0.007799999999996032 0.23799999999999955,0.003299999999995862 0.23519999999999985,0.006199999999999761 0.24159999999999915,0.011699999999997601 0.2300999999999993,0.018599999999999284 0.22609999999999975,0.04240000000000066 0.21119999999999983,0.04549999999999699 0.2012999999999998,0.05180000000000007 0.18229999999999968,0.05100000000000193 0.16769999999999996,0.05380000000000251 0.14929999999999932,0.0490999999999957 0.11989999999999945,0.05349999999999966 0.09189999999999987,0.07220000000000226 0.09119999999999973,0.07869999999999777 0.10009999999999941,0.08189999999999742 0.0920999999999994,0.0940000000000012 0.07309999999999928,0.08919999999999817 0.06639999999999979,0.09570000000000078 0.08399999999999963,0.10499999999999687 0.0895999999999999,0.1034000000000006 0.10639999999999983,0.11240000000000094 0.13039999999999985,0.12899999999999778 0.13009999999999966,0.13940000000000197 0.12429999999999986,0.1385000000000005 0.10799999999999965,0.14300000000000068 0.10989999999999966,0.14979999999999905 0.12699999999999978,0.15809999999999746 0.1263999999999994,0.16570000000000107 0.1307999999999998,0.1723999999999961 0.1374999999999993,0.1786999999999992 0.13649999999999984,0.18479999999999563 0.14019999999999921,0.19089999999999918 0.16299999999999937,0.19169999999999732 0.16279999999999983,0.2068000000000012 0.16839999999999922,0.2184000000000026 0.13489999999999913,0.22999999999999687 0.12819999999999965,0.2364999999999995 0.1274999999999995,0.24309999999999832 0.1299999999999999,0.25150000000000006 0.1454999999999993,0.2622999999999962 0.13279999999999959,0.2744 0.125,0.27940000000000254 0.11639999999999961,0.28020000000000067 0.10439999999999916,0.2774000000000001 0.08779999999999966,0.2779999999999987 0.08319999999999972,0.2973999999999961 0.050199999999999356,0.34140000000000015 0.038399999999999324,0.34850000000000136 0.01359999999999939,0.3485999999999976 0.0129999999999999,0.3567999999999998 0.010299999999999976,0.36529999999999774 0.0036999999999993705,0.37059999999999604 0.007399999999999629,0.3763000000000005 0.0019999999999997797,0.39099999999999824 0.006099999999999994,0.39289999999999736 0.00649999999999995,0.39799999999999613 0.009199999999999875,0.3978999999999999 0.009199999999999875,0.4057999999999993 0.005999999999999339,0.407199999999996 0.01359999999999939,0.40789999999999793 0.015499999999999403,0.41089999999999804 0.013999999999999346,0.4217000000000013 0.030899999999999928,0.4211999999999989 0.038599999999999746,0.4285999999999959 0.0378999999999996,0.4298999999999964 0.04439999999999955,0.4281999999999968 0.041999999999999815,0.4350999999999985 0.0009999999999994458,0.45060000000000144 0.0,0.45479999999999876 0.009599999999999831,0.46349999999999625 0.015799999999999592,0.4643999999999977 0.022499999999999964,0.4720999999999975 0.028399999999999537,0.48449999999999704 0.03399999999999981,0.4906000000000006 0.035199999999999676,0.4966000000000008 0.0343,0.5026999999999973 0.03689999999999927,0.5118999999999971 0.047399999999999665,0.5125999999999991 0.05119999999999969,0.5163999999999973 0.06679999999999975,0.5131000000000014 0.07149999999999945,0.5169999999999959 0.07259999999999955,0.524799999999999 0.09279999999999955,0.5276999999999958 0.0992999999999995,0.5320999999999998 0.09919999999999973,0.5392999999999972 0.08359999999999967,0.5516999999999967 0.08209999999999962,0.5589000000000013 0.08389999999999986,0.5653000000000006 0.10169999999999924,0.5726000000000013 0.11129999999999995,0.5825999999999993 0.11759999999999948,0.5985000000000014 0.11499999999999932,0.613900000000001 0.11979999999999968,0.6197000000000017 0.1307999999999998,0.626100000000001 0.14569999999999972,0.6304999999999978 0.15009999999999923,0.6465999999999994 0.15529999999999955,0.6524999999999963 0.1581999999999999,0.661999999999999 0.20999999999999996,0.6869000000000014 0.2234999999999996,0.722999999999999 0.2807999999999993,0.7338000000000022 0.2872999999999992,0.7177999999999969 0.31629999999999914,0.709699999999998 0.32669999999999977,0.708599999999997 0.33339999999999925,0.7102999999999966 0.33669999999999956,0.7246000000000024 0.35749999999999993,0.722999999999999 0.37629999999999963,0.7154000000000025 0.38129999999999953,0.7032000000000025 0.3722999999999992,0.6897999999999982 0.3857999999999997,0.6859999999999999 0.39429999999999943,0.6862999999999957 0.39449999999999985,0.6841000000000008 0.3926999999999996,0.6768000000000001 0.3854999999999995,0.6738 0.38399999999999945,0.6683999999999983 0.3853,0.6664999999999992 0.39089999999999936,0.6655000000000015 0.38679999999999914,0.6597000000000008 0.39139999999999997,0.6555999999999997 0.3837999999999999,0.6546000000000021 0.3813999999999993,0.6526999999999958 0.3841999999999999,0.6477000000000004 0.3884999999999996,0.6469999999999985 0.3888999999999996,0.6454000000000022 0.38649999999999984,0.6445000000000007 0.37879999999999914,0.6458999999999975 0.3763999999999994,0.6443999999999974 0.3755999999999995,0.6387 0.37789999999999946,0.633499999999998 0.3719999999999999,0.6265000000000001 0.3769,0.6246999999999971 0.3807999999999998,0.6291000000000011 0.3849999999999998,0.6251999999999995 0.37729999999999997,0.6210999999999984 0.37649999999999917,0.6171000000000006 0.36959999999999926,0.6175999999999959 0.3682999999999996,0.6120000000000019 0.3696999999999999,0.6099999999999994 0.37399999999999967,0.6085999999999956 0.3763999999999994,0.6094000000000008 0.3763999999999994,0.6122999999999976 0.37979999999999947,0.6120000000000019 0.37739999999999974,0.6051000000000002 0.38099999999999934,0.6032000000000011 0.3901999999999992,0.5923000000000016 0.3855999999999993,0.5822000000000003 0.4017999999999997,0.5748999999999995 0.3933,0.5679999999999978 0.3882999999999992,0.5713000000000008 0.38569999999999993,0.570999999999998 0.3940999999999999,0.5634000000000015 0.4039999999999999,0.5623999999999967 0.40549999999999997,0.5610999999999962 0.40119999999999933,0.5505999999999958 0.39559999999999995,0.5523000000000025 0.3938999999999995,0.5503999999999962 0.39779999999999927,0.5471000000000004 0.4065999999999992,0.5463999999999984 0.40939999999999976,0.5416000000000025 0.4131999999999998,0.5394000000000005 0.42829999999999924,0.536999999999999 0.4249999999999998,0.5358000000000018 0.4206999999999992,0.5259 0.42079999999999984,0.5227000000000004 0.42579999999999973,0.5157000000000025 0.4314999999999998,0.5139999999999958 0.43459999999999965,0.5054999999999978 0.43789999999999996,0.5052999999999983 0.4440999999999997,0.5086000000000013 0.44039999999999946,0.5101999999999975 0.43769999999999953,0.5159999999999982 0.4413999999999998,0.519999999999996 0.4468999999999994,0.5210000000000008 0.4485999999999999,0.5193000000000012 0.44979999999999976,0.5131999999999977 0.4490999999999996,0.508899999999997 0.45289999999999964,0.5041999999999973 0.4535,0.5005999999999986 0.45699999999999985,0.5052999999999983 0.4610999999999992,0.507399999999997 0.4642999999999997,0.5067000000000021 0.46749999999999936,0.5024000000000015 0.4798,0.5020999999999987 0.47249999999999925,0.4966000000000008 0.47579999999999956,0.49549999999999983 0.4831999999999992,0.4887999999999977 0.47939999999999916,0.48629999999999995 0.48109999999999964,0.48559999999999803 0.47989999999999977,0.484099999999998 0.4821,0.48160000000000025 0.47499999999999964,0.477800000000002 0.47389999999999954,0.47569999999999624 0.4853999999999994,0.4731000000000023 0.48769999999999936,0.4707000000000008 0.48989999999999956,0.4649999999999963 0.4828999999999999,0.46300000000000097 0.4878,0.4589999999999961 0.4894999999999996,0.4525999999999968 0.4958999999999998,0.44839999999999947 0.5025999999999993,0.447499999999998 0.5179999999999998,0.43309999999999604 0.5293999999999999,0.4292000000000016 0.5378999999999996,0.4309999999999974 0.5424999999999995,0.42730000000000246 0.5473999999999997,0.42680000000000007 0.5482999999999993,0.4223999999999961 0.5523999999999996,0.4187000000000012 0.5668999999999995,0.42210000000000036 0.5701999999999998,0.4181999999999988 0.5703999999999994,0.4118999999999957 0.5785999999999998,0.4035999999999973 0.5756999999999994,0.39520000000000266 0.5774999999999997,0.390900000000002 0.5833999999999993,0.388300000000001 0.5875999999999992,0.3889999999999958 0.5934999999999997,0.3924000000000021 0.5964999999999998,0.4007000000000005 0.6048999999999998,0.40269999999999584 0.6200999999999999,0.4029999999999987 0.6532999999999998,0.3744999999999976 0.6661999999999999,0.3697999999999979 0.6814,0.3680999999999983 0.6822999999999997,0.36489999999999867 0.6849999999999996,0.36309999999999576 0.6879,0.3628 0.6965999999999992,0.3663999999999987 0.6993999999999998,0.3637999999999977 0.7103999999999999,0.36370000000000147 0.7192999999999996,0.37129999999999797 0.7267999999999999,0.37480000000000047 0.7359,0.37120000000000175 0.7435999999999998,0.3643999999999963 0.7517999999999994,0.3644999999999996 0.7616999999999994,0.36139999999999617 0.7672999999999996,0.3539999999999992 0.7722999999999995,0.3575000000000017 0.7753999999999994,0.3650999999999982 0.7812999999999999,0.36410000000000053 0.7851999999999997,0.3615999999999957 0.7863999999999995,0.35719999999999885 0.7768999999999995,0.3491999999999962 0.7618999999999998,0.3423000000000016 0.7629999999999999,0.33970000000000056 0.7726999999999995,0.3353999999999999 0.7656999999999998,0.3263999999999996 0.7733999999999996,0.32090000000000174 0.7744999999999997,0.314700000000002 0.7715999999999994,0.3112999999999957 0.7601999999999993,0.30740000000000123 0.7563999999999993,0.3042999999999978 0.7565,0.3008000000000024 0.7585999999999995,0.2978000000000023 0.7580999999999998,0.28479999999999706 0.7730999999999995,0.2757999999999967 0.7674999999999992,0.273299999999999 0.7584999999999997,0.27890000000000015 0.7519,0.2781999999999982 0.7520999999999995,0.27530000000000143 0.7623999999999995,0.2685999999999993 0.7628999999999992,0.26480000000000103 0.7584,0.26489999999999725 0.7520999999999995,0.26189999999999714 0.7363,0.24900000000000233 0.7161,0.2436000000000007 0.7031999999999998,0.23039999999999594 0.6858999999999993,0.22109999999999985 0.6819999999999995,0.21600000000000108 0.6824999999999992,0.21340000000000003 0.6936999999999998,0.2120999999999995 0.6966999999999999,0.20810000000000173 0.6833999999999998,0.1862999999999957 0.6772999999999998,0.17219999999999658 0.6668999999999992,0.16599999999999682 0.6556999999999995,0.15489999999999782 0.6416999999999993,0.15209999999999724 0.6307999999999998,0.14410000000000167 0.6300999999999997,0.14000000000000057 0.6377999999999995,0.13300000000000267 0.6368999999999998,0.12939999999999685 0.6327999999999996,0.12870000000000203 0.6235999999999997,0.1308000000000007 0.6137999999999995,0.12599999999999767 0.6148999999999996,0.12250000000000227 0.6359999999999992,0.11169999999999902 0.6380999999999997,0.10889999999999844 0.6341999999999999,0.10089999999999577 0.6171999999999995,0.0887999999999991 0.6128999999999998,0.0835000000000008 0.6233999999999993,0.054899999999996396 0.6229999999999993,0.0478999999999985 0.6246999999999998,0.04070000000000107 0.6229999999999993,0.02169999999999561 0.6273,0.020800000000001262 0.6281999999999996,0.018799999999998818 0.6234999999999999,0.018700000000002603 0.6247999999999996,0.012000000000000455 0.6202999999999994,0.011699999999997601 0.6071,0.019199999999997885 0.6029999999999998,0.018200000000000216 0.5992999999999995,0.020600000000001728 0.5896999999999997,0.01910000000000167 0.5757999999999992,0.029299999999999216 0.5533999999999999,0.03359999999999985 "></polygon>
    </svg>
    