
    <svg width="12.236500000000001" height="12.582500000000001" xmlns="http://www.w3.org/2000/svg" xmlns:xlink="http://www.w3.org/1999/xlink" style="transform: scale(1, -1)">
        <polygon points="1.5664000000000016,1.8584000000000014 1.556000000000001,1.8531999999999993 1.5474000000000014,1.8425999999999991 1.5457000000000019,1.8367999999999984 1.546100000000001,1.8302999999999994 1.5572000000000017,1.8146000000000004 1.5550000000000015,1.8104999999999993 1.5483000000000011,1.806499999999998 1.5218000000000007,1.7984999999999989 1.5051000000000005,1.7969999999999988 1.4914000000000005,1.7998999999999992 1.475200000000001,1.8111000000000015 1.467900000000002,1.8138999999999985 1.4559000000000015,1.8117 1.4532000000000007,1.8134999999999994 1.4430000000000014,1.8133999999999997 1.435900000000002,1.8069000000000006 1.4343000000000021,1.8027999999999995 1.4338000000000015,1.7984999999999989 1.438600000000001,1.7842000000000002 1.4372000000000007,1.7783999999999995 1.4334000000000007,1.7753999999999994 1.4265000000000008,1.7715000000000014 1.4166000000000007,1.768600000000001 1.3777000000000008,1.7650999999999986 1.3728000000000016,1.7632999999999992 1.3687000000000005,1.757299999999999 1.366500000000002,1.7565000000000008 1.352500000000001,1.7624000000000013 1.3361000000000018,1.7736 1.2847000000000008,1.7803999999999984 1.2556000000000012,1.7932000000000006 1.2457000000000011,1.7935999999999996 1.232800000000001,1.7899000000000012 1.2127000000000017,1.7777000000000012 1.2079000000000022,1.7764000000000006 1.2067000000000014,1.7914000000000012 1.2037000000000013,1.7959000000000014 1.1980000000000022,1.7987999999999982 1.174100000000001,1.801899999999998 1.153100000000002,1.7987999999999982 1.142100000000001,1.7937999999999992 1.1540000000000017,1.815599999999998 1.159600000000001,1.8373000000000008 1.158400000000002,1.8465000000000007 1.124900000000002,1.8255 1.1057000000000006,1.7922999999999991 1.0995000000000008,1.7692999999999994 1.095200000000002,1.7702000000000009 1.091800000000001,1.775999999999998 1.0803000000000011,1.783599999999998 1.0701000000000018,1.7873 1.0641999999999996,1.7875999999999994 1.0585000000000022,1.7865999999999982 1.052100000000003,1.7830999999999992 1.0361000000000011,1.7690000000000001 1.0295000000000023,1.765299999999998 1.0212000000000003,1.7629000000000001 1.0120000000000005,1.763399999999999 1.009800000000002,1.764899999999999 1.0044000000000004,1.7753999999999994 0.9905000000000008,1.7921999999999993 0.9668000000000028,1.8072 0.9657000000000018,1.8100000000000005 0.9683000000000028,1.823500000000001 0.9664000000000001,1.8302999999999994 0.9626000000000019,1.8358000000000008 0.9532000000000025,1.8406000000000002 0.9451,1.8406000000000002 0.9329999999999998,1.8376000000000001 0.9297000000000004,1.8393999999999995 0.9147999999999996,1.8348999999999993 0.9047000000000018,1.828100000000001 0.8906000000000027,1.812199999999999 0.8830000000000027,1.8099000000000007 0.8759000000000015,1.804499999999999 0.8527000000000022,1.802999999999999 0.8369,1.8109999999999982 0.8226000000000013,1.814400000000001 0.7994000000000021,1.8081000000000014 0.7863000000000007,1.7997999999999994 0.7799000000000014,1.7919999999999998 0.7778000000000027,1.7834999999999983 0.7789999999999999,1.7706999999999997 0.7780000000000022,1.7606999999999982 0.7653999999999996,1.754900000000001 0.7576999999999998,1.7443000000000008 0.7545999999999999,1.7301999999999982 0.7534000000000027,1.6944999999999997 0.7519000000000027,1.6918999999999986 0.745000000000001,1.6920999999999982 0.738900000000001,1.6898999999999997 0.7315000000000005,1.6808999999999994 0.7298000000000009,1.6734999999999989 0.7299000000000007,1.6533999999999995 0.732800000000001,1.6393000000000004 0.7307000000000023,1.6323999999999987 0.7225000000000001,1.6214999999999993 0.7133000000000003,1.6195000000000004 0.706900000000001,1.6146000000000011 0.7015000000000029,1.6079999999999988 0.6972000000000023,1.5983 0.6950000000000003,1.5881999999999987 0.6954000000000029,1.5821999999999985 0.6985000000000028,1.5753000000000004 0.7061000000000028,1.5688000000000013 0.7092000000000027,1.562800000000001 0.7100000000000009,1.5551000000000013 0.708400000000001,1.5521000000000011 0.6993000000000009,1.5446000000000009 0.6944000000000017,1.5353000000000012 0.690100000000001,1.5184000000000015 0.6759000000000022,1.501900000000001 0.6651000000000025,1.4986000000000015 0.6537000000000006,1.5050000000000008 0.6477000000000004,1.5056999999999992 0.6300000000000026,1.4989000000000008 0.6193000000000026,1.487899999999998 0.6075000000000017,1.4681000000000015 0.6072000000000024,1.4557999999999982 0.6096000000000004,1.4408000000000012 0.6071000000000026,1.4364000000000008 0.6101000000000028,1.4185999999999996 0.6052,1.4072000000000013 0.6067,1.4014000000000006 0.6189,1.3912999999999993 0.6182000000000016,1.3848000000000003 0.6045000000000016,1.3774999999999995 0.6009000000000029,1.3668999999999993 0.5944000000000003,1.3637999999999995 0.5872000000000028,1.3528000000000002 0.583400000000001,1.3500999999999994 0.5831000000000017,1.3466000000000005 0.5569000000000024,1.346099999999998 0.5608000000000004,1.3466000000000005 0.5569000000000024,1.3469999999999995 0.5569000000000024,1.3622999999999994 0.5553000000000026,1.3683999999999994 0.5564,1.3794999999999984 0.5527000000000015,1.4501000000000008 0.5547000000000004,1.4511999999999983 0.5555000000000021,1.5008999999999997 0.5466000000000015,1.545399999999999 0.5457999999999998,1.5615000000000006 0.5500000000000007,1.5826000000000011 0.5589000000000013,1.6132000000000009 0.5964000000000027,1.7123000000000008 0.6016000000000012,1.7311999999999994 0.6058000000000021,1.7556999999999992 0.6122000000000014,1.7753999999999994 0.6152000000000015,1.7959000000000014 0.6155000000000008,1.8345000000000002 0.6230000000000011,1.8937000000000008 0.6294000000000004,1.9186999999999994 0.6608000000000018,1.9964999999999993 0.682500000000001,2.0455999999999985 0.6914000000000016,2.0718000000000014 0.7078000000000024,2.1111999999999984 0.713000000000001,2.1318 0.7431000000000019,2.1987000000000005 0.7428000000000026,2.201500000000001 0.7469000000000001,2.2072999999999983 0.7515999999999998,2.2243000000000013 0.7622,2.2453999999999983 0.7622,2.2493 0.7830000000000013,2.296999999999999 0.7850000000000001,2.297299999999998 0.8000000000000007,2.3329000000000004 0.8155000000000001,2.3642999999999983 0.8150000000000013,2.3665000000000003 0.8200000000000003,2.3733999999999984 0.8338999999999999,2.410099999999998 0.8378000000000014,2.4156999999999993 0.838000000000001,2.4198000000000004 0.8446999999999996,2.432599999999999 0.8450000000000024,2.4365000000000006 0.8521999999999998,2.4494999999999987 0.8519000000000005,2.451500000000001 0.8558000000000021,2.456200000000001 0.8564000000000007,2.461499999999999 0.8669000000000011,2.481799999999998 0.8786000000000023,2.512600000000001 0.8853000000000009,2.5245000000000015 0.8861000000000026,2.5295000000000005 0.9141000000000012,2.593400000000001 0.9200000000000017,2.6134000000000004 0.9222000000000001,2.6151 0.9305000000000021,2.6369999999999987 0.9311000000000007,2.6420000000000012 0.934700000000003,2.647899999999998 0.9383000000000017,2.6614999999999984 0.945800000000002,2.6792999999999996 0.9665999999999997,2.740899999999998 0.9722000000000008,2.7650999999999986 0.9753000000000007,2.7706 0.9758000000000031,2.775599999999999 0.9775000000000027,2.7767999999999997 0.9766000000000012,2.7781000000000002 0.9844000000000008,2.803399999999998 0.9897000000000027,2.831200000000001 0.9924999999999997,2.8367999999999984 0.9989000000000026,2.8642999999999983 1.0089000000000006,2.916500000000001 1.0116000000000014,2.9419999999999984 1.0197000000000003,2.985100000000001 1.0208000000000013,3.0023 1.0239000000000011,3.0020000000000007 1.0244,3.0006000000000004 1.0247000000000028,3.0037000000000003 1.026600000000002,3.0044999999999984 1.0247000000000028,3.0068 1.0236000000000018,3.006500000000001 1.0247000000000028,3.0051000000000005 1.0227000000000004,3.0044999999999984 1.0211000000000006,3.009500000000001 1.0222000000000016,3.0100999999999996 1.0227000000000004,3.007900000000001 1.0244,3.0089999999999986 1.0211000000000006,3.013399999999999 1.0233000000000025,3.0157000000000007 1.0233000000000025,3.0170000000000012 1.021600000000003,3.0159000000000002 1.0213999999999999,3.0234000000000005 1.0227000000000004,3.023999999999999 1.0253000000000014,3.0215000000000014 1.025500000000001,3.0242999999999984 1.0222000000000016,3.0251 1.0219000000000023,3.033199999999999 1.0219000000000023,3.0389999999999997 1.0233000000000025,3.040899999999999 1.0227000000000004,3.042 1.0219000000000023,3.0398000000000014 1.0219000000000023,3.0450999999999997 1.0236000000000018,3.0455999999999985 1.021600000000003,3.0490000000000013 1.0236000000000018,3.0589999999999993 1.0222000000000016,3.0748000000000015 1.0244,3.0969999999999995 1.0233000000000025,3.1061999999999994 1.0250000000000021,3.1084000000000014 1.025500000000001,3.1289999999999996 1.0269000000000013,3.1289999999999996 1.0269000000000013,3.1397999999999993 1.0283000000000015,3.1426 1.0308000000000028,3.197899999999999 1.0325000000000024,3.2018000000000004 1.0330000000000013,3.2117999999999984 1.0350000000000001,3.2151000000000014 1.0378000000000007,3.2365000000000013 1.0461000000000027,3.2659000000000002 1.0396999999999998,3.2758999999999983 1.0321999999999996,3.275599999999999 1.0286000000000008,3.272599999999999 1.0290999999999997,3.2751 1.0380000000000003,3.2781000000000002 1.0394000000000005,3.2828999999999997 1.0422000000000011,3.2843 1.0427,3.2904 1.0422000000000011,3.366999999999999 1.0386000000000024,3.3897999999999993 1.0366,3.4273000000000007 1.0378000000000007,3.4555999999999987 1.0358000000000018,3.472900000000001 1.0297000000000018,3.4964999999999993 1.0289000000000001,3.514000000000001 1.0303000000000004,3.5184000000000015 1.0280000000000022,3.5312 1.0278000000000027,3.5662000000000003 1.0225000000000009,3.5795000000000012 1.0219000000000023,3.5931000000000015 1.0161000000000016,3.6243 1.0161000000000016,3.634500000000001 1.0180000000000007,3.6423000000000005 1.0166000000000004,3.6470000000000002 1.0178000000000011,3.657300000000001 1.0141000000000027,3.7194999999999983 1.0111000000000026,3.7307000000000006 1.0100000000000016,3.745700000000001 1.0039000000000016,3.7673000000000005 0.9930000000000021,3.7932000000000006 0.9832999999999998,3.829299999999998 0.9797000000000011,3.8343000000000007 0.972800000000003,3.8645000000000014 0.969100000000001,3.8712 0.9658000000000015,3.871999999999998 0.9614000000000011,3.8758999999999997 0.9509000000000007,3.902099999999999 0.9416000000000011,3.9151000000000007 0.9350000000000023,3.9311999999999987 0.9272000000000027,3.969800000000001 0.9244000000000021,3.9983999999999984 0.9207999999999998,4.0173000000000005 0.9169000000000018,4.0283999999999995 0.9155000000000015,4.0404 0.9119000000000028,4.050099999999999 0.9085999999999999,4.051799999999998 0.9069000000000003,4.0631 0.901600000000002,4.069799999999999 0.9022000000000006,4.0809000000000015 0.9002000000000017,4.0908999999999995 0.902700000000003,4.105099999999998 0.8991000000000007,4.111800000000001 0.8977000000000004,4.1229 0.8961000000000006,4.125099999999998 0.895500000000002,4.135599999999998 0.8916000000000004,4.1515 0.8911000000000016,4.162599999999999 0.888300000000001,4.170900000000001 0.8855000000000004,4.195400000000001 0.8725000000000023,4.231199999999999 0.8627000000000002,4.252599999999999 0.860000000000003,4.2554 0.8569000000000031,4.2643 0.8455000000000013,4.284000000000001 0.8394000000000013,4.304499999999999 0.8322000000000003,4.312299999999999 0.8314000000000021,4.318399999999999 0.828000000000003,4.320099999999998 0.8277000000000001,4.3254 0.8201999999999998,4.339499999999999 0.814700000000002,4.356199999999999 0.7847000000000008,4.3954 0.7689000000000021,4.412599999999999 0.7580000000000027,4.429799999999998 0.7416000000000018,4.445099999999998 0.7405000000000008,4.448099999999998 0.7372000000000014,4.4487000000000005 0.7369000000000021,4.450899999999999 0.7210999999999999,4.4670000000000005 0.7047000000000025,4.480099999999998 0.6919000000000004,4.486199999999998 0.6866000000000021,4.490399999999999 0.684700000000003,4.488999999999999 0.6827000000000005,4.489800000000001 0.6772000000000027,4.495399999999998 0.6730000000000018,4.495399999999998 0.6675000000000004,4.4993 0.6600000000000001,4.501800000000001 0.6514000000000024,4.509300000000001 0.6308000000000007,4.5204 0.6186000000000007,4.5245000000000015 0.6130000000000031,4.5298 0.6061000000000014,4.531999999999998 0.5944000000000003,4.540899999999999 0.5955000000000013,4.542900000000001 0.5905000000000022,4.559499999999998 0.5883000000000003,4.564500000000001 0.5854999999999997,4.565900000000001 0.5861000000000018,4.5709 0.5822000000000003,4.5723 0.5793999999999997,4.577 0.5750000000000028,4.5801 0.5728000000000009,4.5951 0.5661000000000023,4.608400000000001 0.5650000000000013,4.614800000000001 0.5625,4.616200000000001 0.5569000000000024,4.632599999999998 0.5416000000000025,4.648999999999999 0.5400000000000027,4.648999999999999 0.5400000000000027,4.6522999999999985 0.5278000000000027,4.6579 0.5229999999999997,4.661800000000001 0.521600000000003,4.668699999999999 0.5280000000000022,4.672299999999998 0.547500000000003,4.675700000000001 0.5614000000000026,4.6745 0.5683000000000007,4.6762 0.5700000000000003,4.6729 0.5736000000000026,4.671799999999999 0.5786000000000016,4.665699999999999 0.5766000000000027,4.664800000000001 0.5725000000000016,4.670399999999999 0.5714000000000006,4.669500000000001 0.5680000000000014,4.672299999999998 0.5630000000000024,4.6732 0.5630000000000024,4.6705999999999985 0.5675000000000026,4.6705999999999985 0.5683000000000007,4.667900000000001 0.571900000000003,4.665899999999999 0.5664000000000016,4.666199999999998 0.565800000000003,4.664299999999999 0.569700000000001,4.661499999999998 0.5800000000000018,4.663400000000001 0.5877000000000017,4.662000000000001 0.5911000000000008,4.660400000000001 0.5908000000000015,4.658199999999999 0.5866000000000007,4.6579 0.5822000000000003,4.659799999999999 0.5814000000000021,4.658700000000001 0.5866000000000007,4.655700000000001 0.5946999999999996,4.6548 0.5944000000000003,4.658700000000001 0.6041000000000025,4.6576 0.6219000000000001,4.6609 0.6347000000000023,4.669600000000001 0.6477000000000004,4.6732 0.6619000000000028,4.679499999999999 0.6866000000000021,4.699299999999999 0.7033000000000023,4.7097999999999995 0.7127000000000017,4.718999999999999 0.7222000000000008,4.736800000000001 0.741100000000003,4.752000000000001 0.7408000000000001,4.754800000000001 0.7441000000000031,4.7612000000000005 0.7503000000000029,4.766799999999998 0.75,4.772899999999998 0.7530000000000001,4.781499999999999 0.7569000000000017,4.7856000000000005 0.7597000000000023,4.7918 0.7641000000000027,4.7948 0.7686000000000028,4.802300000000001 0.7747000000000028,4.807599999999999 0.7786000000000008,4.8134 0.7797000000000018,4.818399999999999 0.775500000000001,4.827599999999999 0.7636000000000003,4.822899999999999 0.7636000000000003,4.820600000000001 0.7616000000000014,4.8193 0.7544000000000004,4.8195 0.7393999999999998,4.8165 0.7347000000000001,4.806199999999999 0.7294000000000018,4.806800000000001 0.7266000000000012,4.805100000000001 0.7271999999999998,4.802300000000001 0.7164000000000001,4.7995 0.7061000000000028,4.792 0.7018000000000022,4.786199999999999 0.6964000000000006,4.7722999999999995 0.6925000000000026,4.769299999999999 0.6900000000000013,4.7704 0.6858000000000004,4.7676 0.6833000000000027,4.7623000000000015 0.6750000000000007,4.754499999999998 0.6722000000000001,4.746999999999998 0.6650000000000027,4.742900000000001 0.670300000000001,4.759300000000001 0.6791000000000018,4.764799999999999 0.6816000000000031,4.7734000000000005 0.6883000000000017,4.783199999999999 0.6964000000000006,4.802000000000001 0.7108000000000025,4.8195 0.7066000000000017,4.8195 0.700800000000001,4.8148 0.6936,4.813699999999999 0.6853000000000016,4.801499999999999 0.6805000000000021,4.799000000000001 0.6694000000000031,4.778999999999998 0.6644000000000005,4.7772999999999985 0.6611000000000011,4.772 0.6608000000000018,4.7584 0.6585999999999999,4.753400000000001 0.6519000000000013,4.746499999999999 0.6514000000000024,4.740599999999999 0.6544000000000025,4.733199999999998 0.6575000000000024,4.733199999999998 0.6608000000000018,4.7384 0.6636000000000024,4.737 0.6636000000000024,4.7326 0.6580000000000013,4.729000000000001 0.6544000000000025,4.719800000000001 0.646600000000003,4.714 0.6414000000000009,4.714499999999999 0.6386000000000003,4.709300000000001 0.6286000000000023,4.7097999999999995 0.6269000000000027,4.706200000000001 0.6253000000000029,4.706200000000001 0.6244000000000014,4.695600000000001 0.620000000000001,4.6912 0.6011000000000024,4.6998000000000015 0.5972000000000008,4.703999999999999 0.595200000000002,4.7109000000000005 0.5986000000000011,4.722900000000001 0.6086000000000027,4.736199999999998 0.6183000000000014,4.759500000000001 0.6294000000000004,4.773999999999999 0.6319000000000017,4.780900000000001 0.642000000000003,4.797299999999998 0.6414000000000009,4.807599999999999 0.6433,4.816999999999998 0.6564000000000014,4.826199999999998 0.6583000000000006,4.8370000000000015 0.6675000000000004,4.8458999999999985 0.6755000000000031,4.8576 0.6778000000000013,4.868399999999999 0.6791000000000018,4.8695 0.678600000000003,4.873399999999998 0.6816000000000031,4.878400000000001 0.6797000000000004,4.8801000000000005 0.6816000000000031,4.8812000000000015 0.6855000000000011,4.889799999999999 0.6894000000000027,4.891499999999999 0.6975000000000016,4.899299999999998 0.6982999999999997,4.9045000000000005 0.7119,4.914299999999999 0.7149999999999999,4.9215 0.714100000000002,4.928099999999999 0.7169000000000025,4.933400000000001 0.7149999999999999,4.931199999999999 0.7144000000000013,4.932599999999999 0.713000000000001,4.931499999999998 0.7104999999999997,4.924799999999999 0.7104999999999997,4.9198 0.7083000000000013,4.916500000000001 0.7041000000000004,4.9144999999999985 0.703000000000003,4.911199999999999 0.6905000000000001,4.904300000000001 0.6872000000000007,4.899800000000001 0.6814,4.897 0.678600000000003,4.9001 0.6839000000000013,4.9033999999999995 0.6822000000000017,4.905700000000001 0.6780000000000008,4.901200000000001 0.6755000000000031,4.9015 0.672500000000003,4.899299999999998 0.6672000000000011,4.8756 0.6639000000000017,4.874499999999999 0.6608000000000018,4.876199999999999 0.6628000000000007,4.883100000000001 0.6661000000000001,4.888199999999999 0.6655000000000015,4.8893 0.6644000000000005,4.888199999999999 0.6644000000000005,4.889799999999999 0.6675000000000004,4.894499999999999 0.6675000000000004,4.897599999999999 0.6730000000000018,4.903999999999998 0.6728000000000023,4.906499999999999 0.6780000000000008,4.9168 0.6875,4.926499999999999 0.6936,4.941999999999998 0.7005000000000017,4.9504 0.7149999999999999,4.976799999999999 0.7311000000000014,4.992900000000001 0.7393999999999998,5.010900000000001 0.7483000000000004,5.019499999999999 0.7733000000000025,5.0251 0.7789000000000001,5.0245000000000015 0.7847000000000008,5.0204 0.7861000000000011,5.0161999999999995 0.7844000000000015,5.013199999999999 0.7747000000000028,5.007 0.7622,4.9948 0.7619000000000007,4.993399999999999 0.7652999999999999,4.992299999999998 0.7708000000000013,4.9979 0.7835999999999999,5.005699999999999 0.7927999999999997,5.0143 0.7944000000000031,5.018099999999999 0.7939000000000007,5.019799999999998 0.7905000000000015,5.0207 0.7894000000000005,5.025899999999998 0.7855000000000025,5.0312 0.7952000000000012,5.046799999999999 0.7972000000000001,5.054 0.8064,5.060899999999998 0.8105000000000011,5.068399999999999 0.8100000000000023,5.073199999999998 0.8053000000000026,5.079500000000001 0.8072000000000017,5.089 0.8072000000000017,5.091199999999999 0.8053000000000026,5.0908999999999995 0.8053000000000026,5.0920000000000005 0.808600000000002,5.103199999999999 0.8133000000000017,5.109299999999999 0.8119000000000014,5.118399999999999 0.815800000000003,5.129299999999999 0.8139000000000003,5.132599999999998 0.8077000000000005,5.129 0.8039000000000023,5.129800000000001 0.8016000000000005,5.131500000000001 0.8000000000000007,5.1393 0.801400000000001,5.144799999999998 0.8116000000000021,5.1623 0.8122000000000007,5.168699999999999 0.8103000000000016,5.169500000000001 0.8116000000000021,5.1715 0.8072000000000017,5.174000000000001 0.8047000000000004,5.180400000000001 0.8011000000000017,5.181199999999999 0.8002000000000002,5.178399999999998 0.7961000000000027,5.178399999999998 0.7941000000000003,5.181199999999999 0.7955000000000005,5.184499999999998 0.7933000000000021,5.189500000000001 0.7883000000000031,5.195400000000001 0.7819000000000003,5.1926000000000005 0.7808000000000028,5.188999999999998 0.782700000000002,5.1854 0.7803000000000004,5.180899999999999 0.7789000000000001,5.180100000000001 0.7786000000000008,5.181499999999998 0.7764000000000024,5.178099999999999 0.775500000000001,5.175700000000001 0.7778000000000027,5.177899999999999 0.7786000000000008,5.176799999999998 0.7725000000000009,5.164800000000001 0.7677000000000014,5.161499999999998 0.7600000000000016,5.1623 0.7536000000000023,5.1715 0.758300000000002,5.1854 0.7575000000000003,5.186999999999999 0.7558000000000007,5.185899999999998 0.7552000000000021,5.187599999999998 0.7744,5.209000000000001 0.7905000000000015,5.2170000000000005 0.7916000000000025,5.219800000000001 0.7969000000000008,5.222599999999998 0.8030000000000008,5.229000000000001 0.813600000000001,5.2356 0.8316000000000017,5.2506 0.8361000000000018,5.259300000000001 0.8383000000000003,5.268099999999999 0.8428000000000004,5.2751 0.8428000000000004,5.2795000000000005 0.8366000000000007,5.285099999999998 0.8350000000000009,5.290699999999999 0.8344000000000023,5.298699999999998 0.8364000000000011,5.304499999999999 0.8344000000000023,5.317300000000001 0.844100000000001,5.336799999999998 0.8414000000000001,5.338700000000001 0.8338999999999999,5.338700000000001 0.8275000000000006,5.343999999999999 0.8261000000000003,5.357000000000001 0.8303000000000011,5.3607 0.8303000000000011,5.368999999999998 0.8189000000000028,5.370399999999998 0.8164000000000016,5.379299999999999 0.8164000000000016,5.385900000000001 0.8140999999999998,5.389799999999999 0.8105000000000011,5.391499999999999 0.8105000000000011,5.3957 0.8061000000000007,5.4033999999999995 0.8016000000000005,5.403999999999998 0.8016000000000005,5.4094999999999995 0.8053000000000026,5.414800000000001 0.8110999999999997,5.4106000000000005 0.8216000000000001,5.416500000000001 0.8403000000000027,5.4351 0.8419000000000025,5.442300000000001 0.8383000000000003,5.4429 0.8411000000000008,5.4487000000000005 0.8397000000000006,5.452 0.8439000000000014,5.452599999999999 0.8486000000000011,5.456999999999999 0.8536000000000001,5.457299999999998 0.8586000000000027,5.464499999999999 0.8641000000000005,5.477300000000001 0.8655000000000008,5.4887 0.8627000000000002,5.502599999999999 0.8552999999999997,5.5129 0.8378000000000014,5.5509 0.826900000000002,5.5679 0.8232999999999997,5.570099999999998 0.8139000000000003,5.570600000000001 0.8033000000000001,5.566999999999998 0.8018999999999998,5.563699999999999 0.7978000000000023,5.563999999999998 0.7847000000000008,5.599300000000001 0.7808000000000028,5.606199999999999 0.7774999999999999,5.6106 0.7683,5.612899999999998 0.7611000000000026,5.617299999999998 0.7589000000000006,5.622300000000001 0.7558000000000007,5.6240000000000006 0.7536000000000023,5.6334 0.7508000000000017,5.6350999999999996 0.745000000000001,5.6454 0.7433000000000014,5.645899999999999 0.7422000000000004,5.654300000000001 0.7391000000000005,5.659000000000001 0.740000000000002,5.6684 0.7358000000000011,5.684800000000001 0.7344000000000008,5.686200000000001 0.7316000000000003,5.685699999999999 0.7305000000000028,5.689300000000001 0.7286000000000001,5.687599999999998 0.7283000000000008,5.682899999999998 0.7266000000000012,5.682599999999999 0.7239000000000004,5.6881 0.719100000000001,5.6915 0.7247000000000021,5.693399999999999 0.7196999999999996,5.6929 0.7164000000000001,5.696800000000001 0.7178000000000004,5.7004 0.7144000000000013,5.6988 0.7125000000000021,5.702599999999999 0.7097000000000016,5.703200000000001 0.7043999999999997,5.7079 0.7055000000000007,5.710099999999999 0.7116000000000007,5.713499999999998 0.713000000000001,5.7201 0.7025000000000006,5.737899999999998 0.6955000000000027,5.754800000000001 0.690800000000003,5.770899999999999 0.6905000000000001,5.780099999999999 0.6872000000000007,5.7887 0.6877000000000031,5.802899999999999 0.682500000000001,5.810699999999999 0.6766000000000005,5.828999999999999 0.6669000000000018,5.8498 0.6611000000000011,5.8515 0.6569000000000003,5.8576 0.6500000000000021,5.861500000000001 0.6483000000000025,5.8651 0.6449999999999996,5.865399999999999 0.6414000000000009,5.877899999999999 0.6372,5.883699999999999 0.638300000000001,5.888199999999999 0.6364000000000019,5.891799999999998 0.6366000000000014,5.8961999999999986 0.6347000000000023,5.897599999999999 0.6357999999999997,5.925700000000001 0.6319000000000017,5.9232 0.6316000000000024,5.921200000000001 0.6300000000000026,5.923699999999998 0.6280000000000001,5.9232 0.6258000000000017,5.9154 0.625,5.917599999999998 0.6202000000000005,5.920399999999999 0.6166000000000018,5.928399999999998 0.6125000000000007,5.932899999999998 0.6041000000000025,5.934499999999998 0.5905000000000022,5.9475999999999996 0.588000000000001,5.952599999999999 0.5850000000000009,5.9536999999999995 0.5838999999999999,5.957299999999998 0.5791000000000004,5.959300000000001 0.5753000000000021,5.9718 0.5772000000000013,5.9976 0.5805000000000007,6.002599999999999 0.5791000000000004,6.007599999999998 0.5714000000000006,6.0098 0.569700000000001,6.007599999999998 0.5640999999999998,6.007 0.5620000000000012,6.011799999999999 0.5518999999999998,6.007599999999998 0.5436000000000014,6.011999999999999 0.5441000000000003,6.014000000000001 0.541400000000003,6.020100000000001 0.5380000000000003,6.015400000000001 0.5366,6.005899999999999 0.5380000000000003,5.9976 0.5319000000000003,5.966199999999999 0.5319000000000003,5.960600000000001 0.5372000000000021,5.956799999999999 0.5386000000000024,5.946499999999999 0.5386000000000024,5.940700000000001 0.5372000000000021,5.943399999999999 0.535300000000003,5.943199999999999 0.5364000000000004,5.917599999999998 0.5335999999999999,5.9048 0.5358000000000018,5.897599999999999 0.535300000000003,5.894 0.5369000000000028,5.8923000000000005 0.535300000000003,5.888699999999998 0.5400000000000027,5.8698 0.5395000000000003,5.862 0.5347000000000008,5.8469999999999995 0.5350000000000001,5.842899999999998 0.5366,5.8420000000000005 0.5358000000000018,5.8397999999999985 0.531600000000001,5.8420000000000005 0.5286000000000008,5.8468 0.5264000000000024,5.846500000000001 0.5211000000000006,5.851799999999999 0.5052000000000021,5.859499999999999 0.5005000000000024,5.865399999999999 0.4978000000000016,5.865599999999999 0.4939,5.870700000000001 0.490000000000002,5.871799999999999 0.47300000000000253,5.886999999999999 0.46940000000000026,5.895100000000001 0.45470000000000255,5.9018 0.45330000000000226,5.9033999999999995 0.45390000000000086,5.9093 0.450800000000001,5.9123 0.4450000000000003,5.914299999999999 0.439700000000002,5.921799999999999 0.4400000000000013,5.9276 0.4353000000000016,5.930400000000001 0.4236000000000004,5.945400000000001 0.40830000000000055,5.950100000000001 0.40690000000000026,5.9551 0.40390000000000015,5.956799999999999 0.40390000000000015,5.959300000000001 0.39360000000000284,5.9597999999999995 0.39050000000000296,5.9579 0.3888999999999996,5.968200000000001 0.3855000000000004,5.975099999999999 0.39080000000000226,5.978399999999999 0.39660000000000295,5.987899999999998 0.3918999999999997,5.991999999999999 0.3953000000000024,5.995399999999998 0.39830000000000254,6.0023 0.39690000000000225,6.0098 0.39860000000000184,6.019499999999999 0.3933,6.025599999999999 0.3780000000000001,6.0283999999999995 0.37530000000000285,6.0312 0.36780000000000257,6.0343 0.35940000000000083,6.049300000000001 0.35300000000000153,6.050399999999998 0.3511000000000024,6.0648 0.34660000000000224,6.0695 0.34440000000000026,6.076199999999998 0.34660000000000224,6.0847999999999995 0.34909999999999997,6.0859000000000005 0.34830000000000183,6.088399999999998 0.34469999999999956,6.087899999999999 0.34299999999999997,6.0893 0.34190000000000254,6.0876 0.33000000000000185,6.103199999999999 0.3241000000000014,6.107000000000001 0.3171999999999997,6.108700000000001 0.308600000000002,6.115899999999998 0.3066000000000031,6.1240000000000006 0.3089000000000013,6.1287 0.3089000000000013,6.1423000000000005 0.3049999999999997,6.1548 0.3022000000000027,6.155700000000001 0.2991000000000028,6.1593 0.291400000000003,6.1759 0.291400000000003,6.1912 0.2886000000000024,6.2126 0.28270000000000195,6.2158999999999995 0.2764000000000024,6.2147999999999985 0.27550000000000097,6.210099999999999 0.28219999999999956,6.206999999999999 0.27720000000000056,6.2065 0.2729999999999997,6.206999999999999 0.27080000000000126,6.210099999999999 0.26640000000000086,6.2086999999999986 0.26550000000000296,6.210700000000001 0.2622,6.211499999999999 0.2541000000000011,6.228699999999998 0.2480000000000011,6.234799999999998 0.251100000000001,6.254499999999998 0.24780000000000157,6.269299999999999 0.23610000000000042,6.2812 0.22940000000000182,6.280900000000001 0.2275000000000027,6.284000000000001 0.2261000000000024,6.2965 0.22050000000000125,6.304 0.21250000000000213,6.309499999999998 0.2041000000000004,6.311200000000001 0.20190000000000197,6.320600000000001 0.2043999999999997,6.3268 0.20250000000000057,6.328200000000001 0.20080000000000098,6.341499999999998 0.19750000000000156,6.346500000000001 0.18780000000000285,6.3498 0.18530000000000157,6.371999999999998 0.1860999999999997,6.377899999999999 0.1816000000000031,6.4048 0.17860000000000298,6.4083999999999985 0.17689999999999984,6.4076 0.1761000000000017,6.4109 0.17389999999999972,6.412000000000001 0.17160000000000153,6.422600000000001 0.16520000000000223,6.425700000000001 0.16250000000000142,6.4307 0.15549999999999997,6.4337 0.15690000000000026,6.440900000000001 0.15610000000000213,6.445600000000001 0.15500000000000114,6.446800000000001 0.15530000000000044,6.4443 0.1528000000000027,6.4437000000000015 0.15050000000000097,6.446800000000001 0.15190000000000126,6.450699999999999 0.14720000000000155,6.446800000000001 0.14550000000000196,6.450100000000001 0.14250000000000185,6.445600000000001 0.14110000000000156,6.446800000000001 0.1372,6.4459 0.1372,6.4429 0.13250000000000028,6.436200000000001 0.1311,6.4262 0.1296999999999997,6.424799999999999 0.13000000000000256,6.419299999999998 0.12830000000000297,6.415699999999999 0.1247000000000007,6.413099999999998 0.12280000000000157,6.4076 0.12140000000000128,6.3961999999999986 0.125,6.392899999999999 0.11720000000000041,6.3881 0.1069000000000031,6.385900000000001 0.10190000000000055,6.382 0.09860000000000113,6.3695 0.09830000000000183,6.359 0.09360000000000213,6.342899999999998 0.09280000000000044,6.341199999999999 0.08800000000000097,6.3407 0.08520000000000039,6.338399999999998 0.07970000000000255,6.323400000000001 0.07050000000000267,6.320600000000001 0.0669000000000004,6.309800000000001 0.06500000000000128,6.309800000000001 0.06360000000000099,6.310699999999999 0.0625,6.3237000000000005 0.04940000000000211,6.3309000000000015 0.040200000000002234,6.327599999999999 0.0400000000000027,6.324499999999999 0.04140000000000299,6.3237000000000005 0.039400000000000546,6.3225999999999996 0.0400000000000027,6.315399999999999 0.044400000000003104,6.308400000000001 0.043900000000000716,6.306800000000001 0.05390000000000228,6.306199999999999 0.04970000000000141,6.304799999999998 0.04910000000000281,6.3026 0.046100000000002694,6.300700000000001 0.046400000000001995,6.295900000000001 0.046400000000001995,6.299000000000001 0.04889999999999972,6.301499999999999 0.06050000000000111,6.304 0.06360000000000099,6.3026 0.06300000000000239,6.2982 0.06440000000000268,6.294500000000001 0.06360000000000099,6.290699999999999 0.06109999999999971,6.2894999999999985 0.05940000000000012,6.2856000000000005 0.05970000000000297,6.2722999999999995 0.05660000000000309,6.265400000000001 0.05830000000000268,6.2568 0.0616000000000021,6.252599999999999 0.05940000000000012,6.251499999999998 0.05940000000000012,6.248399999999998 0.05690000000000239,6.2476 0.057200000000001694,6.240899999999998 0.05250000000000199,6.235100000000001 0.05360000000000298,6.215400000000001 0.05220000000000269,6.2097999999999995 0.04970000000000141,6.207299999999998 0.04940000000000211,6.199299999999999 0.045300000000001006,6.194799999999999 0.042200000000001125,6.1945 0.042500000000000426,6.196499999999999 0.03270000000000195,6.195099999999998 0.02330000000000254,6.190399999999999 0.021399999999999864,6.193199999999999 0.026099999999999568,6.1937000000000015 0.026600000000001955,6.195600000000001 0.02909999999999968,6.196499999999999 0.028900000000000148,6.197899999999999 0.02050000000000196,6.1943 0.015800000000002257,6.188699999999999 0.015000000000000568,6.183999999999999 0.016100000000001558,6.181499999999998 0.011400000000001853,6.180899999999999 0.008600000000001273,6.174000000000001 0.010300000000000864,6.165699999999999 0.012199999999999989,6.1644999999999985 0.010300000000000864,6.162899999999999 0.012800000000002143,6.1576 0.014100000000002666,6.1579 0.01529999999999987,6.1548 0.022700000000000387,6.149299999999998 0.03410000000000224,6.143700000000001 0.03860000000000241,6.138199999999999 0.03219999999999956,6.1318 0.03359999999999985,6.127000000000001 0.03140000000000143,6.119300000000001 0.03190000000000026,6.116200000000001 0.03550000000000253,6.114500000000001 0.03640000000000043,6.112899999999998 0.035199999999999676,6.111800000000001 0.03550000000000253,6.1134 0.03190000000000026,6.115599999999999 0.028900000000000148,6.112899999999998 0.027499999999999858,6.108199999999998 0.028900000000000148,6.1019999999999985 0.02470000000000283,6.096500000000001 0.021399999999999864,6.084300000000001 0.021399999999999864,6.072899999999999 0.019999999999999574,6.069000000000001 0.02160000000000295,6.057 0.02050000000000196,6.056199999999999 0.014700000000001268,6.0586 0.0,6.1242 9.999999999976694e-05,6.207399999999998 0.01770000000000138,6.2646 0.026700000000001722,6.324699999999998 0.04040000000000177,6.354100000000001 0.057200000000001694,6.3771 0.06340000000000146,6.389000000000001 0.07920000000000016,6.453899999999999 0.09630000000000294,6.5051000000000005 0.1268000000000029,6.610999999999999 0.14720000000000155,6.614800000000001 1.0271000000000008,6.6242 1.9708000000000006,6.627999999999998 2.2383000000000006,6.627999999999998 2.3298000000000005,6.6263999999999985 2.343700000000002,6.627699999999999 2.4148000000000014,6.626299999999999 2.422200000000002,6.627699999999999 2.4700000000000006,6.627999999999998 2.484700000000002,6.626199999999999 2.518600000000001,6.6274999999999995 3.0488000000000017,6.6256 3.6369000000000007,6.6211 3.8649000000000022,6.6182 3.916400000000001,6.616100000000001 3.9238000000000017,6.617399999999998 3.957300000000002,6.617299999999998 4.064700000000002,6.6152 4.052200000000001,6.734900000000001 4.043600000000001,6.8012 4.0417000000000005,6.8057 4.042000000000002,6.826400000000001 4.035000000000002,6.8772 4.0245000000000015,6.987 4.021500000000001,6.993999999999998 4.022100000000002,7.014200000000001 4.0135000000000005,7.098899999999999 4.011000000000001,7.1045 4.011700000000001,7.1244 4.010000000000002,7.138299999999999 4.0074000000000005,7.144499999999999 4.008200000000002,7.158199999999999 4.003000000000002,7.213499999999998 3.9863000000000017,7.375200000000001 3.9825000000000017,7.399399999999998 3.974400000000001,7.4937999999999985 3.960300000000002,7.620099999999999 3.9380000000000006,7.8420000000000005 3.9324000000000012,7.9122 3.9285000000000014,7.932899999999998 3.9208000000000016,8.0158 3.921800000000001,8.036499999999998 3.928200000000002,8.0707 3.981300000000001,8.278899999999998 4.007600000000002,8.342899999999998 4.020900000000001,8.367600000000001 4.047900000000002,8.411399999999999 4.109400000000001,8.4975 4.167700000000002,8.566899999999999 4.174500000000002,8.570500000000001 4.216100000000001,8.6133 4.241600000000002,8.633999999999999 4.259400000000001,8.646099999999999 4.290900000000001,8.6638 4.292700000000002,8.662 4.298700000000002,8.668000000000001 4.306700000000001,8.671999999999999 4.326100000000002,8.6757 4.597800000000001,8.6992 4.696100000000001,8.705900000000002 4.756800000000002,8.7124 4.864800000000001,8.719 4.942000000000002,8.728499999999999 4.990400000000001,8.728699999999998 5.028600000000001,8.7321 5.066500000000001,8.7389 5.066500000000001,9.2844 5.0626000000000015,9.3896 5.063500000000001,9.5238 5.061600000000002,9.662999999999998 5.063500000000001,9.7977 5.060200000000002,10.071 5.063100000000002,11.013599999999999 5.0615000000000006,11.147499999999999 5.0626000000000015,11.283 6.225200000000001,11.2829 6.380300000000002,11.2844 6.692400000000001,11.2831 6.848600000000001,11.2841 7.178400000000002,11.282099999999998 7.369500000000002,11.283399999999999 7.380500000000001,11.281899999999998 7.5036000000000005,11.2844 7.5794000000000015,11.282300000000001 7.782700000000002,11.283700000000001 8.087500000000002,11.2813 8.3923,11.281999999999998 8.3945,11.5888 8.393500000000001,12.3301 8.395400000000002,12.4109 8.3931,12.492399999999998 8.394000000000002,12.5727 8.392600000000002,12.582500000000001 8.4029,12.5783 9.171700000000001,12.1382 9.3262,12.053299999999998 9.556500000000002,11.9212 9.934900000000003,11.699399999999999 10.051200000000001,11.628400000000001 10.066500000000001,11.6258 10.125500000000002,11.588600000000001 10.136500000000002,11.583799999999998 10.151900000000001,11.5727 10.16,11.5696 10.3716,11.440299999999999 10.390900000000002,11.431 10.395500000000002,11.4257 10.438400000000001,11.399399999999998 10.4419,11.3957 10.5257,11.3465 10.643600000000001,11.2734 10.650100000000002,11.2706 10.656000000000002,11.265099999999999 10.668800000000001,11.2583 10.681500000000002,11.248 10.717200000000002,11.229899999999999 10.724400000000001,11.2237 10.9128,11.109699999999998 10.9281,11.098799999999999 10.942700000000002,11.091099999999999 10.950100000000003,11.0847 10.963800000000003,11.0786 10.982400000000002,11.0666 10.9951,11.060699999999999 11.000400000000003,11.0558 11.086900000000002,11.002999999999998 11.1324,10.977099999999998 11.206600000000002,10.9293 11.2253,10.9198 11.314200000000001,10.8635 11.497000000000002,10.751299999999999 11.528300000000002,10.730099999999998 11.658000000000001,10.650799999999998 11.660600000000002,10.6474 11.720000000000002,10.610100000000001 11.730900000000002,10.6047 11.904200000000001,10.4933 11.930500000000002,10.478299999999999 12.0319,10.411800000000001 12.0655,10.3923 12.229600000000001,10.2872 12.236500000000001,10.281 12.162000000000003,10.280399999999998 12.158800000000001,10.278899999999998 12.1295,10.280600000000002 12.125300000000001,10.278899999999998 12.066500000000001,10.280299999999999 12.066500000000001,10.2844 10.502100000000002,10.2844 10.511200000000002,10.2052 10.513800000000002,10.1687 10.569300000000002,9.696599999999998 10.573900000000002,9.644899999999998 10.579700000000003,9.6031 10.5973,9.435799999999999 10.611700000000003,9.3161 10.614700000000001,9.2844 10.611800000000002,9.266799999999998 10.615900000000002,9.236099999999999 10.614400000000002,9.2278 10.618200000000002,9.216399999999998 10.628800000000002,9.113999999999999 10.6339,9.086899999999998 10.6339,9.074 10.644400000000001,9.0056 10.6432,8.998700000000001 10.644000000000002,8.9918 10.646600000000001,8.9781 10.649500000000002,8.9716 10.648300000000003,8.9578 10.653500000000001,8.931299999999998 10.652700000000001,8.9246 10.660300000000001,8.862799999999998 10.663900000000002,8.855099999999998 10.663500000000003,8.841299999999999 10.668500000000002,8.815399999999999 10.668100000000003,8.802000000000001 10.670200000000001,8.781 10.673200000000001,8.775599999999999 10.672800000000002,8.762300000000002 10.6795,8.707199999999998 10.682400000000001,8.6946 10.682100000000002,8.681299999999998 10.683700000000002,8.667499999999999 10.685400000000001,8.663300000000001 10.6829,8.649500000000002 10.686300000000001,8.6442 10.687100000000001,8.637300000000002 10.6904,8.631200000000002 10.6888,8.618999999999998 10.696800000000001,8.5571 10.699700000000002,8.544099999999998 10.698700000000002,8.5358 10.7073,8.4764 10.710600000000001,8.464599999999999 10.709800000000001,8.455 10.711900000000002,8.4413 10.7148,8.4401 10.7148,8.4294 10.7132,8.424100000000001 10.715700000000002,8.4034 10.7133,8.387400000000001 10.717400000000001,8.387400000000001 10.725800000000001,8.320099999999998 10.727900000000002,8.313999999999998 10.732800000000001,8.255799999999999 10.748000000000001,8.130899999999999 10.747600000000002,8.123600000000001 10.752600000000001,8.082299999999998 10.755100000000002,8.077 10.754700000000001,8.065499999999998 10.759500000000001,8.0157 10.7635,7.9990000000000006 10.761500000000002,7.993399999999999 10.773100000000001,7.900699999999999 10.773600000000002,7.8835 10.7756,7.8758 10.7786,7.8422 10.791,7.750400000000001 10.796400000000002,7.6960999999999995 10.7985,7.689200000000001 10.805500000000002,7.615599999999999 10.8094,7.6012 10.8079,7.597199999999999 10.811000000000002,7.572899999999999 10.8139,7.562199999999999 10.816000000000003,7.526200000000001 10.818100000000001,7.519299999999999 10.823700000000002,7.4656 10.826800000000002,7.458899999999998 10.826800000000002,7.440499999999998 10.8413,7.319599999999999 10.842200000000002,7.299300000000001 10.845100000000002,7.286 10.844100000000001,7.286800000000001 10.864900000000002,7.100699999999998 10.8719,7.052899999999999 10.8963,6.832099999999999 10.900400000000001,6.797600000000001 10.9024,6.791099999999998 10.924200000000003,6.605099999999998 10.9312,6.543100000000001 10.930800000000001,6.5297 10.938600000000001,6.4749 10.9402,6.4473 10.9494,6.376099999999999 10.948800000000002,6.3711 10.968900000000001,6.213399999999998 10.975000000000001,6.148300000000001 10.9815,6.107000000000001 10.990900000000002,6.0207999999999995 10.994200000000001,6.0036000000000005 10.994600000000002,5.989800000000001 11.003100000000002,5.9277999999999995 11.0027,5.914 11.006,5.9002 11.0076,5.8726 11.0105,5.864299999999998 11.011700000000001,5.845000000000001 11.040500000000002,5.603 11.040100000000002,5.5969 11.063200000000002,5.423399999999999 11.0668,5.414599999999998 11.062900000000003,5.407200000000001 11.065100000000001,5.388799999999998 11.062000000000001,5.383899999999999 11.065600000000002,5.379800000000001 11.067300000000001,5.3504999999999985 11.07,5.332600000000001 11.0684,5.319599999999999 11.071700000000002,5.3088999999999995 11.079300000000002,5.252899999999999 11.083000000000002,5.207700000000001 11.090200000000001,5.1434000000000015 11.093800000000002,5.123499999999998 11.091800000000001,5.1166 11.0975,5.0905000000000005 11.117500000000001,4.914900000000001 11.116800000000001,4.905099999999999 11.128800000000002,4.826199999999998 11.127600000000001,4.824299999999999 11.1292,4.810499999999999 11.128,4.797099999999999 11.131600000000002,4.7841000000000005 11.1537,4.599500000000001 11.156100000000002,4.5649999999999995 11.1705,4.440900000000001 11.1705,4.430200000000001 11.188100000000002,4.296100000000001 11.187600000000002,4.285400000000001 11.189700000000002,4.282300000000001 11.201800000000002,4.155199999999999 11.204,4.146299999999998 11.216700000000001,4.0295000000000005 11.216700000000001,4.016499999999999 11.222700000000001,3.975900000000001 11.238900000000001,3.8241999999999994 11.258400000000002,3.666500000000001 11.2651,3.5937 11.271800000000002,3.545799999999998 11.297400000000001,3.2996 11.301000000000002,3.287000000000001 11.3002,3.2797 11.302100000000001,3.2436999999999987 11.3045,3.2395000000000014 11.306800000000003,3.205399999999999 11.308400000000002,3.201600000000001 11.317500000000003,3.1242 11.319400000000002,3.0881999999999987 11.323,3.0691000000000006 11.322500000000002,3.0538000000000007 11.3305,2.9898000000000007 11.332800000000002,2.983299999999998 11.3367,2.9336 11.3414,2.9067999999999987 11.349300000000001,2.8336999999999986 11.349200000000002,2.8225 11.351300000000002,2.8165999999999993 11.356000000000002,2.780099999999999 11.4082,2.288199999999998 11.407,2.2813 11.414000000000001,2.2415000000000003 11.4206,2.1849000000000007 11.463700000000001,1.7838000000000012 11.739400000000002,1.6175000000000015 11.669,1.2843999999999998 11.560100000000002,0.7923999999999989 11.5516,0.7862999999999989 11.4694,0.7837999999999994 11.378200000000001,0.7839999999999989 11.293600000000001,0.7828999999999997 11.2576,0.7806999999999995 11.067900000000002,0.7798999999999996 11.060000000000002,0.7787000000000006 10.989700000000001,0.7799999999999994 10.912500000000001,0.7784999999999993 10.693000000000001,0.7810000000000006 10.686400000000003,0.7792999999999992 10.6736,0.7806999999999995 10.617900000000002,0.7810000000000006 10.614700000000001,0.7828999999999997 10.610800000000001,0.780899999999999 10.497000000000002,0.7819000000000003 10.494300000000003,0.7803000000000004 10.488400000000002,0.7818000000000005 10.398000000000001,0.7819000000000003 10.348300000000002,0.7836999999999996 10.336400000000001,0.7825000000000006 10.314200000000001,0.7835000000000001 10.163,0.7813999999999997 9.927400000000002,0.7821999999999996 9.9234,0.7797999999999998 9.9144,0.7791999999999994 9.904200000000001,0.7822999999999993 9.427100000000001,0.7838999999999992 9.418500000000002,0.7828999999999997 9.3991,0.7841000000000005 9.390600000000001,0.7827999999999999 9.281400000000001,0.7833000000000006 9.162100000000002,0.7815999999999992 9.094100000000001,0.7826000000000004 9.082,0.7805 9.074200000000001,0.7821999999999996 9.007700000000002,0.7822999999999993 8.999400000000001,0.7810000000000006 8.97,0.782 8.958700000000002,0.7803000000000004 8.955800000000002,0.7821999999999996 8.821600000000002,0.7815999999999992 8.810200000000002,0.7833000000000006 8.799500000000002,0.7818000000000005 8.707900000000002,0.7820999999999998 8.680200000000001,0.779399999999999 8.679000000000002,0.7814999999999994 8.665300000000002,0.7819000000000003 8.651500000000002,0.780899999999999 8.635200000000001,0.7821999999999996 8.546400000000002,0.7823999999999991 8.5348,0.7806999999999995 8.472800000000001,0.782 8.464300000000001,0.7835000000000001 8.458800000000002,0.7819000000000003 8.204300000000002,0.7827000000000002 8.167800000000002,0.7806999999999995 7.9426000000000005,0.7826000000000004 7.932200000000002,0.7812999999999999 7.865900000000002,0.7804000000000002 7.738000000000001,0.7806999999999995 7.732500000000002,0.7990999999999993 7.731800000000002,0.8087 7.734000000000002,0.8529999999999998 7.746600000000001,0.9161999999999999 7.755400000000002,0.9505999999999997 7.753800000000002,0.9590999999999994 7.734500000000001,0.9766999999999992 7.701800000000002,0.9489000000000001 7.6469000000000005,0.8956 7.6236000000000015,0.8819999999999997 7.629100000000001,0.8671000000000006 7.628100000000002,0.8614999999999995 7.657800000000002,0.7256999999999998 7.6583000000000006,0.7187999999999999 7.602400000000001,0.7172999999999998 7.591000000000001,0.7182999999999993 7.524200000000002,0.7152999999999992 7.5169000000000015,0.7170000000000005 7.5074000000000005,0.7151999999999994 7.368900000000002,0.7119 7.362500000000001,0.7094000000000005 7.359800000000002,0.6944999999999997 7.354100000000001,0.6891999999999996 7.3504000000000005,0.6873000000000005 7.335300000000002,0.6881000000000004 7.314800000000002,0.6928999999999998 7.309800000000001,0.6852 7.299400000000002,0.6753 7.2730000000000015,0.6570999999999998 7.265200000000002,0.6548999999999996 7.255200000000002,0.6494 7.235500000000002,0.6454000000000004 7.203600000000002,0.6441999999999997 7.182500000000001,0.6474999999999991 7.144000000000002,0.6583000000000006 7.138800000000002,0.654399999999999 7.132200000000001,0.6541999999999994 7.100900000000001,0.6464999999999996 7.068200000000001,0.641 7.027000000000001,0.6429999999999989 6.978300000000001,0.6425000000000001 6.9350000000000005,0.6514000000000006 6.884400000000001,0.6691000000000003 6.842400000000001,0.6859999999999999 6.833600000000001,0.6871999999999989 6.8138000000000005,0.6942000000000004 6.8100000000000005,0.6975999999999996 6.798600000000002,0.6979000000000006 6.745900000000001,0.7156000000000002 6.730100000000002,0.7179000000000002 6.718500000000001,0.7157 6.695800000000002,0.7162000000000006 6.684200000000001,0.7189999999999994 6.682800000000002,0.7216000000000005 6.672400000000001,0.7236999999999991 6.659900000000002,0.7210000000000001 6.647900000000002,0.722999999999999 6.608400000000001,0.7218 6.5966000000000005,0.7248000000000001 6.571700000000002,0.7248999999999999 6.566500000000001,0.7234999999999996 6.558900000000001,0.724499999999999 6.536400000000002,0.7203999999999997 6.504000000000001,0.7170000000000005 6.497100000000001,0.7141000000000002 6.4788000000000014,0.7117000000000004 6.475900000000001,0.7086000000000006 6.469800000000001,0.7058 6.440700000000001,0.7065999999999999 6.433300000000001,0.7045999999999992 6.423600000000002,0.6973000000000003 6.421500000000002,0.6974999999999998 6.410700000000002,0.6903000000000006 6.402200000000001,0.6890000000000001 6.386400000000002,0.7119 6.378800000000002,0.718 6.372700000000002,0.718 6.353300000000001,0.7227999999999994 6.342300000000002,0.7210000000000001 6.338400000000002,0.7167999999999992 6.3370000000000015,0.7088000000000001 6.340000000000002,0.6904000000000003 6.342900000000002,0.6851000000000003 6.345900000000002,0.6724999999999994 6.346100000000002,0.658199999999999 6.347800000000001,0.6575000000000006 6.348700000000001,0.6519999999999992 6.342500000000001,0.6456 6.339600000000001,0.6335999999999995 6.3233000000000015,0.6165000000000003 6.319000000000001,0.6153999999999993 6.316600000000001,0.6169999999999991 6.304800000000002,0.6144999999999996 6.290600000000001,0.6043000000000003 6.288400000000001,0.5907 6.286000000000001,0.5876999999999999 6.278900000000002,0.5871999999999993 6.271600000000001,0.5901999999999994 6.268300000000002,0.589599999999999 6.243600000000001,0.5588999999999995 6.237200000000001,0.5533999999999999 6.241700000000002,0.5282999999999998 6.231400000000001,0.5022000000000002 6.223600000000001,0.4941999999999993 6.209900000000001,0.49049999999999905 6.1926000000000005,0.4734999999999996 6.192900000000002,0.4624000000000006 6.1899000000000015,0.43409999999999904 6.187000000000001,0.42489999999999917 6.186900000000001,0.4147999999999996 6.181300000000002,0.4100999999999999 6.171000000000001,0.3904999999999994 6.163600000000001,0.3879999999999999 6.161200000000001,0.3933 6.1541000000000015,0.4001999999999999 6.150800000000002,0.4079999999999995 6.145600000000002,0.41279999999999895 6.138300000000001,0.4272999999999989 6.121800000000002,0.4385999999999992 6.120900000000001,0.4542999999999999 6.111700000000001,0.4599999999999991 6.098200000000002,0.47359999999999935 6.068000000000001,0.5226000000000006 6.056100000000001,0.5314999999999994 6.051700000000002,0.5321999999999996 6.033900000000001,0.5434999999999999 6.0219000000000005,0.5531000000000006 6.006000000000002,0.5754000000000001 5.991900000000001,0.5883000000000003 5.9277000000000015,0.6328999999999994 5.924000000000001,0.633799999999999 5.889400000000002,0.6572999999999993 5.866200000000001,0.6785999999999994 5.856100000000001,0.6847999999999992 5.8260000000000005,0.6951999999999998 5.812800000000001,0.7045999999999992 5.775300000000001,0.7391000000000005 5.747900000000001,0.781699999999999 5.738200000000001,0.7911999999999999 5.703800000000001,0.8102 5.698100000000002,0.8266999999999989 5.697900000000001,0.8534000000000006 5.695500000000001,0.8589000000000002 5.680300000000001,0.8742999999999999 5.668000000000001,0.8911999999999995 5.655000000000001,0.9148999999999994 5.644300000000001,0.9253999999999998 5.637700000000001,0.9298000000000002 5.5676000000000005,0.9271999999999991 5.555500000000002,0.9222000000000001 5.564200000000001,0.9032 5.549000000000001,0.8925999999999998 5.540700000000001,0.8908000000000005 5.506800000000002,0.8628 5.4990000000000006,0.8607999999999993 5.496700000000001,0.8552 5.494300000000001,0.8406000000000002 5.497400000000001,0.8340999999999994 5.495300000000002,0.827 5.489300000000002,0.8219999999999992 5.478700000000002,0.8169000000000004 5.465700000000002,0.8134999999999994 5.447000000000001,0.8148 5.438000000000001,0.8065999999999995 5.420200000000001,0.8051999999999992 5.4129000000000005,0.8067999999999991 5.3972000000000016,0.8205999999999989 5.3873000000000015,0.8165999999999993 5.362700000000002,0.8169000000000004 5.361500000000001,0.8204999999999991 5.354600000000001,0.8218999999999994 5.351800000000001,0.8109000000000002 5.351600000000001,0.7719000000000005 5.344700000000001,0.763399999999999 5.330300000000001,0.7577999999999996 5.324200000000001,0.7521000000000004 5.319200000000002,0.7406000000000006 5.313500000000001,0.6959 5.309300000000002,0.6893999999999991 5.3100000000000005,0.6783999999999999 5.295400000000001,0.6214999999999993 5.280300000000002,0.6058000000000003 5.269200000000001,0.5891000000000002 5.2612000000000005,0.5619999999999994 5.259500000000001,0.5448000000000004 5.261700000000001,0.5264000000000006 5.259800000000002,0.5169999999999995 5.253200000000001,0.5001999999999995 5.2440000000000015,0.48499999999999943 5.234300000000001,0.4734999999999996 5.229800000000001,0.4642999999999997 5.228400000000001,0.4563000000000006 5.2303000000000015,0.4477999999999991 5.234300000000001,0.44019999999999904 5.246700000000001,0.4317999999999991 5.250200000000001,0.41999999999999993 5.246900000000002,0.41199999999999903 5.2280000000000015,0.39639999999999986 5.2193000000000005,0.3758999999999997 5.223800000000001,0.36790000000000056 5.2288000000000014,0.3653999999999993 5.231600000000002,0.3600999999999992 5.231800000000002,0.35549999999999926 5.219600000000002,0.33280000000000065 5.2231000000000005,0.32589999999999897 5.228600000000002,0.3216999999999999 5.234300000000001,0.32150000000000034 5.244900000000001,0.3301999999999996 5.252000000000001,0.33119999999999905 5.265000000000001,0.32819999999999894 5.274200000000002,0.30959999999999965 5.265000000000001,0.2788000000000004 5.259600000000001,0.2502999999999993 5.251200000000001,0.2234999999999996 5.249500000000001,0.21340000000000003 5.260400000000001,0.18599999999999994 5.258800000000001,0.18120000000000047 5.253800000000002,0.1772999999999989 5.239600000000001,0.17290000000000028 5.234700000000002,0.16970000000000063 5.219100000000001,0.15039999999999942 5.1972000000000005,0.12880000000000003 5.159700000000001,0.10599999999999987 5.146700000000001,0.10229999999999961 5.136100000000001,0.10110000000000063 5.1297000000000015,0.09810000000000052 5.126200000000001,0.0929000000000002 5.122200000000001,0.07450000000000045 5.118400000000001,0.06760000000000055 5.110400000000002,0.0600000000000005 5.087600000000002,0.045999999999999375 5.075300000000002,0.044299999999999784 5.066300000000002,0.0472999999999999 5.059000000000001,0.0472999999999999 5.043600000000001,0.04309999999999903 5.026600000000002,0.04400000000000048 5.019300000000001,0.04260000000000019 5.016700000000002,0.03619999999999912 5.022000000000002,0.023999999999999133 5.016800000000002,0.007699999999999818 5.009500000000001,0.0 4.954700000000001,0.02970000000000006 4.938300000000002,0.05339999999999989 4.930400000000001,0.05719999999999992 4.920800000000002,0.05829999999999913 4.913400000000001,0.056699999999999307 4.886300000000002,0.04239999999999888 4.860800000000001,0.04299999999999926 4.845500000000001,0.04129999999999967 4.830300000000001,0.042500000000000426 4.827600000000002,0.043699999999999406 4.825300000000002,0.048799999999999955 4.819300000000002,0.05090000000000039 4.790700000000001,0.054999999999999716 4.786000000000001,0.05739999999999945 4.782500000000001,0.05969999999999942 4.7730000000000015,0.07380000000000031 4.762900000000002,0.08300000000000018 4.749500000000001,0.1012000000000004 4.740600000000001,0.10929999999999929 4.728500000000002,0.1122999999999994 4.712600000000002,0.11249999999999893 4.689500000000001,0.12020000000000053 4.683200000000001,0.12439999999999962 4.670300000000001,0.12880000000000003 4.653100000000002,0.14090000000000025 4.6274000000000015,0.16680000000000028 4.613300000000001,0.1772999999999989 4.612400000000001,0.18219999999999992 4.617200000000002,0.19340000000000046 4.6175000000000015,0.19849999999999923 4.613300000000001,0.20679999999999943 4.605000000000002,0.2663999999999991 4.588300000000002,0.28659999999999997 4.574200000000001,0.2980999999999998 4.565200000000001,0.30160000000000053 4.557800000000002,0.30209999999999937 4.537500000000001,0.3072999999999997 4.515600000000001,0.3149999999999995 4.477300000000001,0.34559999999999924 4.464700000000001,0.36249999999999893 4.458800000000002,0.3672000000000004 4.429200000000002,0.3796999999999997 4.406600000000001,0.3915000000000006 4.395300000000001,0.39289999999999914 4.384900000000002,0.3890999999999991 4.380500000000001,0.3826999999999998 4.3797000000000015,0.37129999999999974 4.377200000000002,0.36870000000000047 4.375000000000002,0.36870000000000047 4.371000000000002,0.3735999999999997 4.3713000000000015,0.3766999999999996 4.367700000000001,0.3830999999999989 4.352600000000001,0.3877000000000006 4.3405000000000005,0.3938000000000006 4.331600000000002,0.40119999999999933 4.320500000000001,0.414299999999999 4.311200000000001,0.42109999999999914 4.287700000000001,0.4283999999999999 4.276600000000002,0.4352999999999998 4.273100000000001,0.44229999999999947 4.272600000000001,0.45009999999999906 4.280100000000001,0.476799999999999 4.273600000000002,0.49129999999999896 4.265500000000001,0.49739999999999895 4.258800000000001,0.4996999999999989 4.244300000000001,0.49820000000000064 4.238000000000001,0.4949999999999992 4.228100000000001,0.4845000000000006 4.224300000000001,0.4833999999999996 4.217400000000001,0.4842999999999993 4.214000000000002,0.4864999999999995 4.209100000000001,0.5016999999999996 4.2033000000000005,0.5102999999999991 4.196400000000001,0.5159000000000002 4.179400000000001,0.5236000000000001 4.170600000000002,0.5319000000000003 4.167600000000002,0.5391999999999992 4.167900000000001,0.5457999999999998 4.171000000000001,0.551499999999999 4.174800000000001,0.5533000000000001 4.1873000000000005,0.5536999999999992 4.190400000000002,0.5528999999999993 4.202300000000001,0.5427 4.210400000000002,0.5388999999999999 4.217100000000002,0.5384999999999991 4.231100000000001,0.5565999999999995 4.232900000000001,0.5632000000000001 4.231400000000001,0.5725999999999996 4.219500000000002,0.5962999999999994 4.212800000000001,0.6023999999999994 4.177000000000001,0.6211000000000002 4.158000000000001,0.6207999999999991 4.142900000000001,0.6241000000000003 4.135100000000001,0.6288 4.123100000000001,0.641 4.118100000000002,0.6518999999999995 4.119500000000002,0.7020999999999997 4.121900000000002,0.7063000000000006 4.137700000000001,0.7175999999999991 4.141200000000001,0.7232000000000003 4.141200000000001,0.7263999999999999 4.139500000000002,0.7294 4.133100000000001,0.730599999999999 4.124600000000001,0.7274999999999991 4.114500000000001,0.7263000000000002 4.1091000000000015,0.7271999999999998 4.105200000000002,0.7308000000000003 4.103500000000002,0.7393000000000001 4.106000000000002,0.7464999999999993 4.106300000000001,0.7600999999999996 4.103300000000001,0.7717999999999989 4.102200000000002,0.7849000000000004 4.0977000000000015,0.7857000000000003 4.084500000000002,0.7797999999999998 4.066300000000002,0.779399999999999 4.046400000000002,0.764899999999999 4.018900000000002,0.7621000000000002 4.013900000000001,0.7621000000000002 4.000800000000002,0.7659000000000002 3.9887000000000015,0.7730999999999995 3.9666000000000015,0.7797000000000001 3.963000000000001,0.7823999999999991 3.961700000000002,0.7900999999999989 3.9670000000000005,0.8102999999999998 3.9803000000000015,0.8356999999999992 3.9792000000000005,0.8474000000000004 3.972100000000001,0.8568999999999996 3.9735000000000014,0.859399999999999 3.9787000000000017,0.8621999999999996 3.9791000000000007,0.8657000000000004 3.9235000000000007,0.8875999999999991 3.8851000000000013,0.9083000000000006 3.880000000000001,0.9096999999999991 3.8714000000000013,0.9102999999999994 3.865700000000002,0.9078999999999997 3.8522000000000016,0.893699999999999 3.844000000000001,0.8933999999999997 3.838300000000002,0.8965999999999994 3.827700000000002,0.9207000000000001 3.814700000000002,0.9396000000000004 3.8141000000000016,0.9557000000000002 3.815800000000001,0.9588999999999999 3.820700000000002,0.9621999999999993 3.837500000000002,0.9571000000000005 3.8473000000000006,0.9587000000000003 3.8549000000000007,0.9687999999999999 3.858500000000001,0.9796999999999993 3.8206000000000007,1.0141999999999989 3.803300000000002,1.0258000000000003 3.7745000000000015,1.0509000000000004 3.774300000000002,1.062899999999999 3.776600000000002,1.0691000000000006 3.780900000000001,1.0739999999999998 3.786400000000002,1.0741999999999994 3.791400000000001,1.0696999999999992 3.7959000000000014,1.0678999999999998 3.7993000000000006,1.0681999999999992 3.8012000000000015,1.0724 3.798700000000002,1.0783000000000005 3.778900000000002,1.0925999999999991 3.769000000000002,1.1029999999999998 3.7646000000000015,1.1219000000000001 3.768200000000002,1.1439000000000004 3.766700000000002,1.154399999999999 3.759900000000002,1.1612999999999989 3.7429000000000006,1.1694999999999993 3.7375000000000007,1.1755999999999993 3.737300000000001,1.1822 3.742200000000002,1.1905999999999999 3.752900000000002,1.2004000000000001 3.754400000000002,1.2057000000000002 3.753400000000001,1.2094000000000005 3.748300000000002,1.2129999999999992 3.738200000000001,1.2139000000000006 3.7246000000000006,1.2216000000000005 3.7173000000000016,1.2280999999999995 3.7081000000000017,1.2415000000000003 3.7005000000000017,1.2617999999999991 3.7021000000000015,1.2822999999999993 3.6891000000000016,1.2977000000000007 3.6915000000000013,1.3377 3.6876000000000015,1.3419000000000008 3.621900000000002,1.3680000000000003 3.6115000000000013,1.3797000000000015 3.6091000000000015,1.3917999999999981 3.6065000000000005,1.3930999999999987 3.5984000000000016,1.390600000000001 3.591100000000001,1.3831000000000007 3.581900000000001,1.3666999999999998 3.5760000000000005,1.364399999999998 3.5676000000000005,1.3650000000000002 3.5546000000000006,1.3773999999999997 3.5519000000000016,1.3871999999999982 3.5528000000000013,1.3924000000000003 3.557900000000002,1.4002999999999997 3.567500000000001,1.4077000000000002 3.5905000000000005,1.4154 3.5916000000000015,1.4186999999999994 3.585700000000001,1.4292999999999996 3.578800000000001,1.4316000000000013 3.5511000000000017,1.4108999999999998 3.544500000000001,1.4088000000000012 3.533500000000002,1.4110999999999994 3.527100000000001,1.4144999999999985 3.5116000000000014,1.4187999999999992 3.5059000000000005,1.419500000000001 3.490700000000002,1.4173999999999989 3.435800000000002,1.3915999999999986 3.4227000000000007,1.3907000000000007 3.405300000000002,1.3930999999999987 3.4017000000000017,1.3915999999999986 3.392800000000001,1.381400000000001 3.388300000000001,1.3788 3.3819000000000017,1.380799999999999 3.364200000000002,1.3957999999999995 3.3511000000000006,1.4139 3.3466000000000005,1.4283999999999981 3.347900000000001,1.431700000000001 3.362400000000001,1.4461999999999993 3.3645000000000014,1.4534000000000002 3.3622000000000014,1.4627 3.3587000000000007,1.465300000000001 3.348700000000001,1.4657999999999998 3.339900000000002,1.4586999999999986 3.3306000000000004,1.4453000000000014 3.319200000000002,1.4343999999999983 3.306300000000002,1.4290000000000003 3.293300000000002,1.425600000000001 3.274800000000001,1.4278999999999993 3.2683000000000018,1.4266999999999985 3.2459000000000007,1.4154 3.240000000000002,1.4111999999999991 3.222900000000001,1.3911999999999995 3.2185000000000006,1.3908000000000005 3.216000000000001,1.3928999999999991 3.210700000000001,1.4117000000000015 3.1999000000000013,1.414699999999998 3.1987000000000005,1.4245 3.1885000000000012,1.4377000000000013 3.1877000000000013,1.443299999999999 3.1895000000000007,1.4535 3.198900000000002,1.4667000000000012 3.197400000000002,1.4727000000000015 3.190100000000001,1.4800999999999984 3.181800000000001,1.4830999999999985 3.171000000000001,1.4764999999999997 3.1648000000000014,1.4748999999999999 3.1564000000000014,1.4785999999999984 3.1496000000000013,1.4860999999999986 3.145900000000001,1.5144000000000002 3.1358000000000015,1.5115999999999996 3.131700000000002,1.5134999999999987 3.1273000000000017,1.518600000000001 3.124100000000002,1.5191999999999997 3.1136000000000017,1.5151999999999983 3.100500000000002,1.5075999999999983 3.096700000000002,1.5066000000000006 3.0924000000000014,1.508000000000001 3.0980000000000008,1.5358999999999998 3.114600000000001,1.553700000000001 3.111600000000001,1.5573999999999995 3.106200000000001,1.5596000000000014 3.0950000000000006,1.5606999999999989 3.0793000000000017,1.5597000000000012 3.077600000000002,1.5633 3.077400000000001,1.579600000000001 3.0756000000000014,1.5886000000000013 3.0794000000000015,1.5931000000000015 3.090300000000001,1.5953 3.1054000000000013,1.5907999999999998 3.108600000000001,1.592699999999999 3.1092000000000013,1.5997000000000003 3.098200000000002,1.615499999999999 3.0942000000000007,1.6184999999999992 3.0778000000000016,1.623800000000001 3.0717000000000017,1.6300000000000008 3.0665000000000013,1.6318000000000001 3.0562000000000005,1.6338999999999988 3.0443000000000016,1.6338999999999988 3.035400000000001,1.6364999999999998 3.025500000000001,1.6562999999999999 3.000300000000001,1.6804000000000006 2.997700000000002,1.6867999999999999 2.991900000000001,1.693299999999999 2.9799000000000007,1.702 2.9636000000000013,1.7085999999999988 2.959900000000001,1.7117999999999984 2.9552000000000014,1.725900000000001 2.947300000000002,1.7324000000000002 2.9281000000000006,1.738100000000001 2.925700000000001,1.7429000000000006 2.925600000000001,1.7478999999999996 2.9334000000000007,1.7612000000000005 2.9285000000000014,1.7619999999999987 2.9220000000000006,1.7554999999999996 2.9148000000000014,1.756400000000001 2.910300000000001,1.7604999999999986 2.9034000000000013,1.7734000000000005 2.8994000000000018,1.777499999999998 2.865800000000002,1.7939999999999987 2.863200000000001,1.7977000000000007 2.8621000000000016,1.804499999999999 2.867200000000002,1.8130000000000006 2.866500000000002,1.8158000000000012 2.857100000000001,1.8194 2.8461000000000016,1.8283000000000005 2.8287000000000013,1.8310000000000013 2.8195000000000014,1.8300999999999998 2.8133000000000017,1.825000000000001 2.810600000000001,1.820199999999998 2.8087000000000018,1.8099000000000007 2.8099000000000007,1.8066000000000013 2.805600000000002,1.806099999999999 2.793800000000001,1.8275999999999986 2.790700000000001,1.837200000000001 2.7928000000000015,1.8473999999999986 2.7967000000000013,1.8558000000000003 2.7966000000000015,1.8605999999999998 2.787200000000002,1.868999999999998 2.783900000000001,1.870099999999999 2.7772000000000006,1.8676000000000013 2.7681000000000004,1.8548999999999989 2.753300000000001,1.8544999999999998 2.742700000000001,1.8490999999999982 2.736600000000001,1.8500999999999994 2.732800000000001,1.8554000000000013 2.732000000000001,1.8618000000000006 2.738500000000002,1.885299999999999 2.7394000000000016,1.9144999999999985 2.736700000000001,1.9222999999999981 2.7340000000000018,1.9245999999999999 2.7250000000000014,1.9258000000000006 2.714900000000002,1.9236999999999984 2.700400000000002,1.9176999999999982 2.6839000000000013,1.9216999999999995 2.677100000000001,1.9209000000000014 2.666900000000002,1.9166000000000007 2.660400000000001,1.9167000000000005 2.6556000000000015,1.9205999999999985 2.652300000000002,1.9332000000000011 2.650100000000002,1.9356999999999989 2.6458000000000013,1.9366000000000003 2.629200000000001,1.9239000000000015 2.6240000000000006,1.9126999999999992 2.618900000000002,1.9076000000000004 2.5905000000000005,1.910400000000001 2.5855000000000015,1.9076000000000004 2.579200000000002,1.9011000000000013 2.569000000000001,1.898200000000001 2.5650000000000013,1.8985000000000003 2.5539000000000005,1.907300000000001 2.5371000000000006,1.913400000000001 2.5222000000000016,1.9278999999999993 2.5185000000000013,1.9263999999999992 2.5146000000000015,1.9082999999999988 2.510300000000001,1.9014000000000006 2.5066000000000006,1.9013000000000009 2.5002000000000013,1.9062000000000001 2.494300000000001,1.9080999999999992 2.481700000000002,1.9042000000000012 2.4716000000000005,1.9078 2.463400000000002,1.9016000000000002 2.460700000000001,1.902800000000001 2.4567000000000014,1.9105000000000008 2.4494000000000007,1.9130999999999982 2.4375000000000018,1.9120000000000008 2.430900000000001,1.902499999999998 2.4277000000000015,1.9011000000000013 2.417200000000001,1.9092000000000002 2.4147000000000016,1.913199999999998 2.4155000000000015,1.9173999999999989 2.4243000000000006,1.9186999999999994 2.4258000000000006,1.9202999999999992 2.426400000000001,1.9290000000000003 2.4246000000000016,1.9318000000000008 2.420600000000002,1.9337999999999997 2.4159000000000006,1.934099999999999 2.400900000000002,1.9306999999999999 2.3767000000000014,1.9296999999999986 2.3526000000000007,1.9227000000000007 2.3462000000000014,1.925399999999998 2.340700000000002,1.9309999999999992 2.3386000000000013,1.9293999999999993 2.3393000000000015,1.9174999999999986 2.3287000000000013,1.9154 2.328500000000002,1.9133000000000013 2.3331000000000017,1.9053999999999984 2.3310000000000013,1.9029000000000007 2.325100000000001,1.9044000000000008 2.314000000000002,1.9112999999999989 2.3126000000000015,1.9149000000000012 2.314400000000001,1.9232999999999993 2.313200000000002,1.9303000000000008 2.3087000000000018,1.9354999999999993 2.301400000000001,1.9397000000000002 2.2974000000000014,1.939400000000001 2.294800000000002,1.9374999999999982 2.2897000000000016,1.9318000000000008 2.2814000000000014,1.9154 2.2768000000000015,1.913400000000001 2.271700000000001,1.9169999999999998 2.2585000000000015,1.9337 2.253400000000001,1.9380000000000006 2.2463000000000015,1.9352 2.243900000000002,1.9301000000000013 2.2441000000000013,1.9240000000000013 2.241200000000001,1.9197000000000006 2.238200000000001,1.9184999999999999 2.2279000000000018,1.924100000000001 2.2246000000000006,1.9242000000000008 2.2060000000000013,1.9201999999999995 2.203900000000001,1.9215999999999998 2.2020000000000017,1.927999999999999 2.1930000000000014,1.9417999999999989 2.189000000000002,1.9443000000000001 2.1854000000000013,1.9442000000000004 2.1807000000000016,1.9407000000000014 2.1758000000000006,1.9224000000000014 2.172900000000002,1.9169 2.1690000000000005,1.914699999999998 2.1632000000000016,1.914699999999998 2.1564000000000014,1.9189999999999987 2.1549000000000014,1.9217999999999993 2.1542000000000012,1.9324999999999992 2.1495000000000015,1.9306 2.1388000000000016,1.9199000000000002 2.130700000000001,1.9149000000000012 2.1221000000000014,1.9179000000000013 2.1129000000000016,1.9322 2.111900000000002,1.939099999999998 2.1153000000000013,1.9522999999999993 2.113900000000001,1.9611999999999998 2.087500000000002,1.9748999999999999 2.0810000000000013,1.9764999999999997 2.0772000000000013,1.975299999999999 2.0706000000000007,1.9673999999999996 2.0687000000000015,1.9365000000000006 2.064400000000001,1.9276 2.060500000000001,1.9247999999999994 2.033400000000002,1.9149000000000012 2.0252000000000017,1.9149000000000012 2.019800000000002,1.9169 2.015200000000002,1.9120000000000008 2.0123000000000015,1.9124999999999996 2.0023000000000017,1.9275000000000002 1.9947000000000017,1.948500000000001 1.988900000000001,1.9568999999999992 1.9802000000000017,1.9610000000000003 1.9690000000000012,1.9616999999999987 1.9483000000000015,1.9385999999999992 1.946200000000001,1.9289000000000005 1.9475000000000016,1.9219999999999988 1.950000000000001,1.9191999999999982 1.9570000000000007,1.9169999999999998 1.9720000000000013,1.9155999999999995 1.9807000000000006,1.9044000000000008 1.9827000000000012,1.9004999999999992 1.9830000000000005,1.8920000000000012 1.9769000000000005,1.8836999999999993 1.9551000000000016,1.8655999999999988 1.9452000000000016,1.8618000000000006 1.9289000000000005,1.8635000000000002 1.9055000000000017,1.872300000000001 1.894700000000002,1.8725000000000005 1.8914000000000009,1.870800000000001 1.8900000000000006,1.8651999999999997 1.8853000000000009,1.8610999999999986 1.8646000000000011,1.8528000000000002 1.840600000000002,1.8370000000000015 1.8320000000000007,1.836599999999999 1.8251000000000008,1.8383999999999983 1.8099000000000007,1.8518999999999988 1.8032000000000021,1.8527000000000005 1.795300000000001,1.8513000000000002 1.7760000000000016,1.856399999999999 1.7574000000000005,1.8584000000000014 1.7510000000000012,1.8572000000000006 1.7273000000000014,1.8450000000000006 1.7212000000000014,1.844199999999999 1.710300000000002,1.846099999999998 1.7058000000000018,1.844800000000001 1.691200000000002,1.8327000000000009 1.675600000000001,1.8239999999999998 1.6672000000000011,1.821699999999998 1.6533000000000015,1.8237000000000005 1.6395000000000017,1.8306999999999984 1.636800000000001,1.8379999999999992 1.6351000000000013,1.8514999999999997 1.631400000000001,1.8595999999999986 1.6217000000000006,1.8697999999999997 1.6085000000000012,1.8770000000000007 1.600500000000002,1.8774999999999995 1.5930000000000017,1.8757000000000001 1.5885000000000016,1.8722000000000012 1.584500000000002,1.866200000000001 1.5664000000000016,1.8584000000000014 "></polygon><polygon points="0.7316000000000003,5.037899999999999 0.7347000000000001,5.031799999999999 0.7266000000000012,5.027900000000001 0.7283000000000008,5.0245000000000015 0.7283000000000008,5.019299999999999 0.7261000000000024,5.010699999999998 0.714100000000002,4.981199999999999 0.706900000000001,4.977600000000001 0.703000000000003,4.978399999999999 0.7025000000000006,4.981199999999999 0.7111000000000018,4.995900000000001 0.7153000000000027,5.013199999999999 0.7147000000000006,5.0204 0.7183000000000028,5.0272999999999985 0.7186000000000021,5.0312 0.7222000000000008,5.036199999999999 0.7277000000000022,5.0387 0.7316000000000003,5.037899999999999 "></polygon><polygon points="0.5800000000000018,4.931199999999999 0.581900000000001,4.928099999999999 0.5805000000000007,4.9245 0.5838999999999999,4.9201 0.5828000000000024,4.918999999999999 0.5838999999999999,4.912000000000001 0.5822000000000003,4.909799999999999 0.5816000000000017,4.913199999999998 0.5786000000000016,4.912899999999999 0.5808,4.911499999999998 0.5786000000000016,4.9079 0.5744000000000007,4.914800000000001 0.5716000000000001,4.916199999999998 0.570800000000002,4.920399999999999 0.5763999999999996,4.9276 0.5761000000000003,4.931499999999998 0.5789000000000009,4.932599999999999 0.5800000000000018,4.931199999999999 "></polygon><polygon points="0.5805000000000007,4.945099999999998 0.5791000000000004,4.945400000000001 0.5763999999999996,4.9415 0.5732999999999997,4.943199999999999 0.5750000000000028,4.947000000000001 0.5802000000000014,4.946499999999999 0.5805000000000007,4.945099999999998 "></polygon><polygon points="0.7161000000000008,5.1487 0.7200000000000024,5.147 0.7230000000000025,5.1426 0.7294000000000018,5.140700000000001 0.7322000000000024,5.1348 0.7311000000000014,5.1304 0.7297000000000011,5.130699999999999 0.7291000000000025,5.1195 0.7255000000000003,5.114500000000001 0.7219000000000015,5.112599999999999 0.7214000000000027,5.109499999999999 0.7233000000000018,5.105099999999998 0.7178000000000004,5.096500000000001 0.719100000000001,5.088099999999999 0.7247000000000021,5.088700000000001 0.7291000000000025,5.086499999999999 0.7271999999999998,5.084300000000001 0.722800000000003,5.0876 0.7208000000000006,5.0870000000000015 0.7210999999999999,5.074299999999999 0.7277000000000022,5.079500000000001 0.7377000000000002,5.081799999999999 0.7375000000000007,5.0786999999999995 0.7332999999999998,5.077 0.7308000000000021,5.071800000000001 0.7255000000000003,5.068199999999999 0.7275000000000027,5.064500000000001 0.7271999999999998,5.061200000000001 0.7311000000000014,5.0648 0.7308000000000021,5.0693 0.7369000000000021,5.075100000000001 0.738900000000001,5.075100000000001 0.7377000000000002,5.073199999999998 0.7414000000000023,5.0709 0.7428000000000026,5.0709 0.7405000000000008,5.073199999999998 0.7416000000000018,5.074299999999999 0.7454999999999998,5.071199999999999 0.746100000000002,5.076199999999998 0.7480000000000011,5.075100000000001 0.7478000000000016,5.073400000000001 0.7439,5.068399999999999 0.7361000000000004,5.071499999999999 0.7336000000000027,5.0687000000000015 0.7316000000000003,5.0618 0.7236000000000011,5.057 0.7214000000000027,5.051499999999999 0.7172000000000018,5.049300000000001 0.7164000000000001,5.043699999999999 0.7111000000000018,5.033199999999999 0.708000000000002,5.011999999999999 0.700800000000001,4.986500000000001 0.695800000000002,4.982000000000001 0.6925000000000026,4.974300000000001 0.6805000000000021,4.962300000000001 0.6768999999999998,4.9475999999999996 0.6707999999999998,4.939300000000001 0.6639000000000017,4.936200000000001 0.6491000000000007,4.909799999999999 0.6489000000000011,4.902600000000001 0.6414000000000009,4.8954 0.6336000000000013,4.882599999999998 0.6278000000000006,4.890099999999999 0.6300000000000026,4.896800000000001 0.627200000000002,4.901200000000001 0.6153000000000013,4.905399999999998 0.6143999999999998,4.910400000000001 0.6169000000000011,4.9106000000000005 0.615000000000002,4.913400000000001 0.6158000000000001,4.921999999999999 0.6097000000000001,4.934800000000001 0.6086000000000027,4.944799999999999 0.6066000000000003,4.945600000000001 0.6052999999999997,4.952599999999999 0.6019000000000005,4.959000000000001 0.6005000000000003,4.968999999999999 0.6014000000000017,4.981799999999998 0.5994000000000028,4.986800000000001 0.6016000000000012,4.997300000000001 0.6047000000000011,5.003400000000001 0.5986000000000011,4.999799999999999 0.5950000000000024,5.0054 0.5955000000000013,4.998199999999999 0.593,4.9945 0.5939000000000014,4.991200000000001 0.5915999999999997,4.989800000000001 0.5911000000000008,4.9823 0.5869,4.978699999999998 0.5844000000000023,4.968999999999999 0.581900000000001,4.9687 0.581900000000001,4.9626 0.5777999999999999,4.963099999999999 0.5775000000000006,4.957600000000001 0.5728000000000009,4.9565 0.5666000000000011,4.9609000000000005 0.5675000000000026,4.971500000000001 0.5653000000000006,4.972299999999999 0.5655000000000001,4.9765 0.5644000000000027,4.975900000000001 0.5625,4.982000000000001 0.565800000000003,4.999799999999999 0.5640999999999998,5.005699999999999 0.5739000000000019,5.022599999999999 0.5766000000000027,5.025599999999999 0.5814000000000021,5.0272999999999985 0.5869,5.0268 0.5980000000000025,5.0222999999999995 0.6033000000000008,5.0184000000000015 0.6058000000000021,5.012600000000001 0.6080000000000005,5.011799999999999 0.6186000000000007,5.0184000000000015 0.6255000000000024,5.025399999999999 0.6296999999999997,5.026999999999999 0.6319000000000017,5.029300000000001 0.6314000000000028,5.0329 0.6355000000000004,5.034799999999999 0.6355000000000004,5.040100000000001 0.6372,5.041199999999998 0.6400000000000006,5.040100000000001 0.6428000000000011,5.0512 0.6441000000000017,5.060899999999998 0.6428000000000011,5.069799999999999 0.6469000000000023,5.076500000000001 0.6436000000000028,5.089 0.6463999999999999,5.106499999999999 0.6540999999999997,5.114800000000001 0.6661000000000001,5.1198 0.6719000000000008,5.120099999999999 0.6819000000000024,5.112899999999998 0.6864000000000026,5.129 0.6905000000000001,5.130699999999999 0.6944000000000017,5.137600000000001 0.6989000000000019,5.1373000000000015 0.6952999999999996,5.132299999999999 0.700800000000001,5.136999999999999 0.7025000000000006,5.140400000000001 0.7025000000000006,5.146500000000001 0.7086000000000006,5.149800000000001 0.7161000000000008,5.1487 "></polygon><polygon points="0.6258000000000017,5.0557 0.6244000000000014,5.052000000000001 0.6258000000000017,5.0495 0.6204999999999998,5.048399999999999 0.6214000000000013,5.052899999999999 0.626100000000001,5.058200000000001 0.6258000000000017,5.0557 "></polygon><polygon points="0.7478000000000016,5.079299999999998 0.7480000000000011,5.077299999999999 0.7444000000000024,5.077900000000001 0.7441000000000031,5.079500000000001 0.7458000000000027,5.0801 0.7424999999999997,5.081999999999999 0.7469000000000001,5.081999999999999 0.7478000000000016,5.079299999999998 "></polygon><polygon points="0.7386000000000017,5.081799999999999 0.741100000000003,5.081999999999999 0.741100000000003,5.0809000000000015 0.7391000000000005,5.0801 0.7386000000000017,5.081799999999999 "></polygon><polygon points="0.7422000000000004,5.118699999999999 0.7433000000000014,5.1182 0.7424999999999997,5.116999999999999 0.7375000000000007,5.1168 0.7397000000000027,5.1198 0.7422000000000004,5.118699999999999 "></polygon><polygon points="0.6799999999999997,5.1318 0.6780000000000008,5.130699999999999 0.6789000000000023,5.127599999999999 0.6778000000000013,5.1259 0.6752000000000002,5.1259 0.6744000000000021,5.1273 0.6761000000000017,5.127899999999999 0.6738999999999997,5.1312000000000015 0.676400000000001,5.129499999999998 0.6761000000000017,5.132299999999999 0.678600000000003,5.135399999999999 0.6799999999999997,5.1318 "></polygon><polygon points="0.6869000000000014,5.1373000000000015 0.6855000000000011,5.1365 0.6866000000000021,5.1393 0.6875,5.139000000000001 0.6869000000000014,5.1373000000000015 "></polygon><polygon points="0.6980000000000004,5.147899999999998 0.6994000000000007,5.1522999999999985 0.7033000000000023,5.154300000000001 0.6994000000000007,5.1472999999999995 0.6980000000000004,5.147899999999998 "></polygon><polygon points="0.682500000000001,5.159000000000001 0.6819000000000024,5.1522999999999985 0.6797000000000004,5.151200000000001 0.6822000000000017,5.1461999999999986 0.6758000000000024,5.140700000000001 0.6711000000000027,5.150899999999998 0.6716000000000015,5.156799999999999 0.6736000000000004,5.1594999999999995 0.6789000000000023,5.161499999999998 0.6822000000000017,5.161800000000001 0.682500000000001,5.159000000000001 "></polygon><polygon points="0.7727000000000004,5.155700000000001 0.7699999999999996,5.155399999999998 0.7713999999999999,5.152900000000001 0.7703000000000024,5.151200000000001 0.7680000000000007,5.1562 0.7727000000000004,5.155700000000001 "></polygon><polygon points="0.7764000000000024,5.292 0.7758000000000003,5.288400000000001 0.7797000000000018,5.287000000000001 0.7786000000000008,5.285400000000001 0.7814000000000014,5.276200000000001 0.7719000000000023,5.287599999999999 0.769400000000001,5.287899999999999 0.7703000000000024,5.289 0.7741000000000007,5.287899999999999 0.7747000000000028,5.292900000000001 0.7780000000000022,5.293200000000001 0.7764000000000024,5.292 "></polygon><polygon points="0.765500000000003,5.296999999999999 0.7675000000000018,5.291199999999998 0.763300000000001,5.291199999999998 0.7619000000000007,5.295900000000001 0.7638999999999996,5.3009 0.7658000000000023,5.3009 0.765500000000003,5.296999999999999 "></polygon><polygon points="0.6589000000000027,5.1461999999999986 0.6594000000000015,5.144499999999999 0.6558000000000028,5.142000000000001 0.6540999999999997,5.1457 0.6514000000000024,5.147 0.6580000000000013,5.149800000000001 0.6589000000000027,5.1461999999999986 "></polygon><polygon points="0.5561000000000007,5.174799999999999 0.5566000000000031,5.177899999999999 0.5577000000000005,5.178099999999999 0.5569000000000024,5.1745 0.5561000000000007,5.174799999999999 "></polygon><polygon points="0.5650000000000013,5.186200000000001 0.564700000000002,5.1837 0.5608000000000004,5.183200000000001 0.5614000000000026,5.186200000000001 0.5650000000000013,5.186200000000001 "></polygon><polygon points="0.6166000000000018,5.904200000000001 0.620000000000001,5.8957 0.6169000000000011,5.890700000000001 0.6186000000000007,5.8756 0.6153000000000013,5.867299999999998 0.6153000000000013,5.862299999999999 0.6164000000000023,5.861199999999998 0.6174999999999997,5.8634 0.6186000000000007,5.8740000000000006 0.6174999999999997,5.860100000000001 0.6194000000000024,5.8515 0.6125000000000007,5.852300000000001 0.6169000000000011,5.853399999999999 0.6169000000000011,5.857000000000001 0.6143999999999998,5.855099999999998 0.6116000000000028,5.8559 0.610000000000003,5.852300000000001 0.6014000000000017,5.857000000000001 0.6014000000000017,5.861800000000001 0.6058000000000021,5.858700000000001 0.6072000000000024,5.8604 0.5983000000000018,5.868399999999999 0.5972000000000008,5.862899999999998 0.5994000000000028,5.859799999999998 0.5958000000000006,5.861800000000001 0.5914000000000001,5.8682 0.5911000000000008,5.873199999999999 0.5889000000000024,5.875400000000001 0.5894000000000013,5.884500000000001 0.5925000000000011,5.892899999999999 0.5922000000000018,5.9001 0.5960999999999999,5.902600000000001 0.6080000000000005,5.9032 0.6108000000000011,5.905099999999999 0.6166000000000018,5.904200000000001 "></polygon><polygon points="0.5864000000000011,5.908199999999999 0.5878000000000014,5.900599999999999 0.5847000000000016,5.897599999999999 0.5854999999999997,5.896500000000001 0.5869,5.899299999999998 0.5833000000000013,5.876199999999999 0.5816000000000017,5.875099999999998 0.5828000000000024,5.8804 0.5793999999999997,5.892899999999999 0.5777999999999999,5.889799999999999 0.5802000000000014,5.883999999999999 0.5800000000000018,5.879299999999999 0.575800000000001,5.887600000000001 0.5772000000000013,5.893700000000001 0.5797000000000025,5.8961999999999986 0.5802000000000014,5.902600000000001 0.5844000000000023,5.910099999999998 0.5864000000000011,5.908199999999999 "></polygon><polygon points="0.5761000000000003,5.900899999999998 0.5725000000000016,5.892000000000001 0.570800000000002,5.8909 0.5671999999999997,5.9022999999999985 0.565800000000003,5.901999999999999 0.5661000000000023,5.9045000000000005 0.5716000000000001,5.8961999999999986 0.5739000000000019,5.8972999999999995 0.5732999999999997,5.900599999999999 0.5755000000000017,5.9022999999999985 0.5761000000000003,5.900899999999998 "></polygon><polygon points="0.5766000000000027,5.905900000000001 0.5772000000000013,5.905099999999999 0.575800000000001,5.9022999999999985 0.575800000000001,5.904300000000001 0.5766000000000027,5.905900000000001 "></polygon><polygon points="0.6069000000000031,5.917 0.6091000000000015,5.915899999999999 0.6155000000000008,5.905900000000001 0.608900000000002,5.908199999999999 0.6064000000000007,5.914299999999999 0.6016000000000012,5.9155999999999995 0.6027000000000022,5.918200000000001 0.6069000000000031,5.917 "></polygon><polygon points="0.5730000000000004,5.926499999999999 0.5750000000000028,5.924799999999999 0.5775000000000006,5.9154 0.5761000000000003,5.915100000000001 0.5753000000000021,5.918200000000001 0.5732999999999997,5.913199999999998 0.5702999999999996,5.911499999999998 0.5691000000000024,5.9137 0.5675000000000026,5.912899999999999 0.5655000000000001,5.9144999999999985 0.5644000000000027,5.9245 0.5711000000000013,5.927300000000001 0.5730000000000004,5.926499999999999 "></polygon><polygon points="0.03190000000000026,6.100699999999998 0.03140000000000143,6.097299999999999 0.029700000000001836,6.096500000000001 0.029400000000002535,6.102300000000001 0.03190000000000026,6.100699999999998 "></polygon>
    </svg>
    