
    <svg width="0.2822000000000031" height="0.370099999999999" xmlns="http://www.w3.org/2000/svg" xmlns:xlink="http://www.w3.org/1999/xlink" style="transform: scale(1, -1)">
        <polygon points="0.12110000000000554,0.0022999999999999687 0.1203000000000003,0.0 0.11810000000000542,0.0016999999999995907 0.1203000000000003,0.006700000000000372 0.12140000000000128,0.006700000000000372 0.12110000000000554,0.0022999999999999687 "></polygon><polygon points="0.10890000000000555,0.07390000000000008 0.11640000000000583,0.07089999999999996 0.1266999999999996,0.07279999999999909 0.1303000000000054,0.07699999999999996 0.12920000000000442,0.08309999999999995 0.13060000000000116,0.08419999999999916 0.13060000000000116,0.09009999999999962 0.12860000000000582,0.09089999999999954 0.12810000000000343,0.09670000000000023 0.12360000000000326,0.1012000000000004 0.12390000000000612,0.10389999999999944 0.12000000000000455,0.10529999999999973 0.11840000000000117,0.11619999999999919 0.113900000000001,0.11730000000000018 0.11280000000000001,0.1203000000000003 0.10890000000000555,0.12369999999999948 0.10560000000000258,0.12340000000000018 0.10030000000000427,0.12839999999999918 0.09390000000000498,0.14199999999999946 0.0858000000000061,0.14250000000000007 0.08500000000000085,0.14480000000000004 0.08200000000000074,0.14529999999999887 0.07830000000000581,0.15119999999999933 0.07390000000000185,0.15390000000000015 0.07560000000000144,0.15620000000000012 0.07970000000000255,0.15589999999999904 0.08450000000000557,0.16339999999999932 0.08720000000000283,0.16199999999999903 0.09560000000000457,0.16279999999999895 0.09860000000000468,0.16530000000000022 0.09470000000000312,0.16920000000000002 0.08250000000000313,0.17169999999999952 0.08559999999999945,0.1828000000000003 0.08450000000000557,0.18510000000000026 0.08720000000000283,0.1875 0.08780000000000143,0.19059999999999988 0.0858000000000061,0.19510000000000005 0.08360000000000412,0.19510000000000005 0.08140000000000214,0.19869999999999877 0.08170000000000499,0.20809999999999995 0.08450000000000557,0.21030000000000015 0.08780000000000143,0.20999999999999908 0.08970000000000056,0.21260000000000012 0.07920000000000016,0.21369999999999933 0.07830000000000581,0.21839999999999904 0.07500000000000284,0.22279999999999944 0.08250000000000313,0.22589999999999932 0.08280000000000598,0.2331000000000003 0.0847000000000051,0.23390000000000022 0.08220000000000027,0.2372999999999994 0.08280000000000598,0.2397999999999989 0.08030000000000115,0.24009999999999998 0.07750000000000057,0.2355999999999998 0.0736000000000061,0.2347999999999999 0.07280000000000086,0.2378 0.06500000000000483,0.24139999999999873 0.06110000000000326,0.2392000000000003 0.05560000000000542,0.24029999999999951 0.05470000000000397,0.2436999999999987 0.0508000000000024,0.2472999999999992 0.04700000000000415,0.24840000000000018 0.04560000000000031,0.25259999999999927 0.04250000000000398,0.25479999999999947 0.04140000000000299,0.2533999999999992 0.03750000000000142,0.2538999999999998 0.03340000000000032,0.2492000000000001 0.031100000000002126,0.25479999999999947 0.029200000000003,0.2541999999999991 0.025000000000005684,0.2569999999999997 0.024200000000000443,0.26229999999999976 0.028300000000001546,0.26750000000000007 0.03310000000000457,0.26839999999999975 0.03580000000000183,0.27139999999999986 0.038400000000002876,0.27529999999999966 0.038900000000005264,0.28029999999999866 0.03700000000000614,0.28229999999999933 0.03140000000000498,0.2834000000000003 0.021399999999999864,0.28309999999999924 0.021399999999999864,0.28479999999999883 0.02470000000000283,0.2850999999999999 0.029200000000003,0.2897999999999996 0.030000000000001137,0.2934000000000001 0.03200000000000358,0.2942 0.03340000000000032,0.2983999999999991 0.030900000000002592,0.3027999999999995 0.03340000000000032,0.3048000000000002 0.03310000000000457,0.3066999999999993 0.045000000000001705,0.305299999999999 0.05030000000000001,0.3088999999999995 0.04920000000000613,0.3127999999999993 0.052199999999999136,0.3119999999999994 0.053400000000003445,0.3131000000000004 0.054999999999999716,0.3194999999999997 0.052199999999999136,0.32230000000000025 0.04970000000000141,0.3219999999999992 0.047800000000002285,0.32479999999999976 0.061700000000001864,0.3241999999999994 0.06470000000000198,0.32760000000000034 0.06419999999999959,0.33509999999999884 0.0671999999999997,0.33669999999999867 0.06780000000000541,0.34029999999999916 0.07500000000000284,0.34309999999999974 0.07450000000000045,0.34949999999999903 0.08030000000000115,0.34809999999999874 0.08670000000000044,0.35639999999999894 0.08950000000000102,0.3528000000000002 0.0853000000000037,0.3506 0.08500000000000085,0.34639999999999915 0.08920000000000528,0.34529999999999994 0.08840000000000003,0.34339999999999904 0.07780000000000342,0.34119999999999884 0.07200000000000273,0.33809999999999896 0.07110000000000127,0.33589999999999876 0.07250000000000512,0.33450000000000024 0.07920000000000016,0.33419999999999916 0.08030000000000115,0.33140000000000036 0.08450000000000557,0.32979999999999876 0.08780000000000143,0.33029999999999937 0.0847000000000051,0.3266999999999989 0.0847000000000051,0.3244999999999987 0.09080000000000155,0.32369999999999877 0.091700000000003,0.32089999999999996 0.09470000000000312,0.3202999999999996 0.09590000000000032,0.3178000000000001 0.09390000000000498,0.3155999999999999 0.0964000000000027,0.3111999999999995 0.1092000000000013,0.3056000000000001 0.11310000000000286,0.3061999999999987 0.11310000000000286,0.3017000000000003 0.1075000000000017,0.3019999999999996 0.10640000000000072,0.2969999999999988 0.11250000000000426,0.2908999999999988 0.113900000000001,0.2836999999999996 0.11749999999999972,0.28169999999999895 0.11700000000000443,0.27949999999999875 0.126100000000001,0.27869999999999884 0.12839999999999918,0.28059999999999974 0.12890000000000157,0.27890000000000015 0.133100000000006,0.27749999999999986 0.13330000000000553,0.27309999999999945 0.13889999999999958,0.27229999999999954 0.143100000000004,0.27869999999999884 0.14750000000000085,0.28139999999999965 0.14500000000000313,0.28669999999999973 0.14809999999999945,0.2887000000000004 0.1525000000000034,0.28200000000000003 0.15780000000000172,0.27810000000000024 0.16610000000000014,0.2800999999999991 0.17719999999999914,0.27559999999999896 0.17970000000000397,0.27669999999999995 0.1822000000000017,0.27559999999999896 0.1844999999999999,0.2773000000000003 0.19110000000000582,0.27229999999999954 0.1938999999999993,0.27229999999999954 0.19470000000000454,0.27449999999999974 0.19669999999999987,0.27449999999999974 0.19669999999999987,0.27120000000000033 0.194500000000005,0.26779999999999937 0.19700000000000273,0.26529999999999987 0.20170000000000243,0.26479999999999926 0.20309999999999917,0.26259999999999906 0.20860000000000412,0.26280000000000037 0.2108000000000061,0.25869999999999926 0.21950000000000358,0.2533999999999992 0.22060000000000457,0.2469999999999999 0.2225000000000037,0.24479999999999968 0.21890000000000498,0.2416999999999998 0.21700000000000585,0.23279999999999923 0.21390000000000242,0.2323000000000004 0.215600000000002,0.22780000000000022 0.22060000000000457,0.22529999999999895 0.22060000000000457,0.22059999999999924 0.2172000000000054,0.21979999999999933 0.21470000000000056,0.22139999999999915 0.20750000000000313,0.21809999999999974 0.204500000000003,0.21449999999999925 0.2009000000000043,0.21369999999999933 0.1992000000000047,0.20389999999999908 0.19500000000000028,0.20199999999999996 0.1928000000000054,0.19810000000000016 0.19000000000000483,0.19669999999999987 0.18640000000000612,0.1889000000000003 0.18670000000000186,0.18619999999999948 0.17950000000000443,0.1833999999999989 0.176400000000001,0.1783999999999999 0.17719999999999914,0.17639999999999922 0.1811000000000007,0.1761999999999997 0.1747000000000014,0.16639999999999944 0.17860000000000298,0.16199999999999903 0.1769999999999996,0.15869999999999962 0.17970000000000397,0.15169999999999995 0.1828000000000003,0.15279999999999916 0.18530000000000513,0.14669999999999916 0.19030000000000058,0.14369999999999905 0.19500000000000028,0.14339999999999975 0.19310000000000116,0.13669999999999938 0.19640000000000413,0.13369999999999926 0.20110000000000383,0.13589999999999947 0.204500000000003,0.1352999999999991 0.2039000000000044,0.13030000000000008 0.20139999999999958,0.13059999999999938 0.1986000000000061,0.1252999999999993 0.1986000000000061,0.12340000000000018 0.20110000000000383,0.12260000000000026 0.1997,0.11950000000000038 0.19669999999999987,0.1191999999999993 0.19140000000000157,0.11340000000000039 0.18200000000000216,0.11059999999999981 0.17950000000000443,0.1051000000000002 0.17970000000000397,0.09949999999999903 0.18200000000000216,0.09670000000000023 0.18090000000000117,0.09229999999999983 0.18670000000000186,0.08669999999999867 0.19000000000000483,0.08639999999999937 0.19110000000000582,0.08479999999999954 0.1822000000000017,0.08559999999999945 0.1753,0.08889999999999887 0.16779999999999973,0.08809999999999896 0.16670000000000584,0.08559999999999945 0.16750000000000398,0.08089999999999975 0.16250000000000142,0.08029999999999937 0.15840000000000032,0.07339999999999947 0.16220000000000567,0.06759999999999877 0.16310000000000002,0.06139999999999901 0.15559999999999974,0.06369999999999898 0.153100000000002,0.0627999999999993 0.15140000000000242,0.05979999999999919 0.153100000000002,0.054199999999999804 0.15920000000000556,0.04809999999999981 0.1600000000000037,0.04139999999999944 0.1670000000000016,0.036399999999998656 0.17249999999999943,0.036399999999998656 0.17670000000000385,0.031200000000000117 0.1822000000000017,0.03279999999999994 0.18700000000000472,0.03229999999999933 0.18330000000000268,0.027300000000000324 0.18360000000000554,0.025299999999999656 0.177500000000002,0.021699999999999164 0.17610000000000525,0.017799999999999372 0.1670000000000016,0.02200000000000024 0.16280000000000427,0.020899999999999253 0.1606000000000023,0.01559999999999917 0.16220000000000567,0.011400000000000077 0.15750000000000597,0.010299999999999088 0.15610000000000213,0.021399999999999864 0.15330000000000155,0.025100000000000122 0.15330000000000155,0.027599999999999625 0.1478000000000037,0.03089999999999904 0.13920000000000243,0.025100000000000122 0.14059999999999917,0.01670000000000016 0.13280000000000314,0.005899999999998684 0.12530000000000285,0.006399999999999295 0.12420000000000186,0.005300000000000082 0.11950000000000216,0.014799999999999258 0.11590000000000344,0.015100000000000335 0.113900000000001,0.011999999999998678 0.10840000000000316,0.009800000000000253 0.10640000000000072,0.01529999999999987 0.10720000000000596,0.021699999999999164 0.09950000000000614,0.024499999999999744 0.09670000000000556,0.023899999999999366 0.09390000000000498,0.020299999999998875 0.09200000000000585,0.011999999999998678 0.09029999999999916,0.011999999999998678 0.0870000000000033,0.019499999999998963 0.08970000000000056,0.024199999999998667 0.08780000000000143,0.03200000000000003 0.09200000000000585,0.038399999999999324 0.09080000000000155,0.044800000000000395 0.08610000000000184,0.04669999999999952 0.08310000000000173,0.04139999999999944 0.0753000000000057,0.0387000000000004 0.07220000000000226,0.039199999999999235 0.06750000000000256,0.04389999999999894 0.06030000000000513,0.04309999999999903 0.060600000000000875,0.045099999999999696 0.06700000000000017,0.0495000000000001 0.07560000000000144,0.0522999999999989 0.08200000000000074,0.059499999999999886 0.08310000000000173,0.06949999999999967 0.08500000000000085,0.07059999999999889 0.0853000000000037,0.07479999999999976 0.08310000000000173,0.07889999999999908 0.07830000000000581,0.08000000000000007 0.07250000000000512,0.07639999999999958 0.06840000000000401,0.07620000000000005 0.07080000000000553,0.08119999999999905 0.06780000000000541,0.08370000000000033 0.06500000000000483,0.08370000000000033 0.06030000000000513,0.09419999999999895 0.05920000000000414,0.10139999999999993 0.05250000000000199,0.10389999999999944 0.05250000000000199,0.10699999999999932 0.06640000000000157,0.10919999999999952 0.08200000000000074,0.10890000000000022 0.0858000000000061,0.10139999999999993 0.08450000000000557,0.09029999999999916 0.0858000000000061,0.08669999999999867 0.08859999999999957,0.08499999999999908 0.08840000000000003,0.08309999999999995 0.09500000000000597,0.08279999999999887 0.09530000000000172,0.08089999999999975 0.09779999999999944,0.08140000000000036 0.10140000000000526,0.07840000000000025 0.10670000000000357,0.07779999999999987 0.10890000000000555,0.07390000000000008 "></polygon><polygon points="0.125,0.08869999999999933 0.1266999999999996,0.08589999999999876 0.12110000000000554,0.08370000000000033 0.12280000000000513,0.08869999999999933 0.125,0.08869999999999933 "></polygon><polygon points="0.18330000000000268,0.07390000000000008 0.18530000000000513,0.07369999999999877 0.18469999999999942,0.07029999999999959 0.17920000000000158,0.07339999999999947 0.17970000000000397,0.07479999999999976 0.18330000000000268,0.07390000000000008 "></polygon><polygon points="0.215600000000002,0.11089999999999911 0.216700000000003,0.10670000000000002 0.215600000000002,0.10419999999999874 0.21340000000000003,0.10389999999999944 0.2108000000000061,0.10670000000000002 0.21170000000000044,0.11059999999999981 0.21220000000000283,0.11169999999999902 0.215600000000002,0.11089999999999911 "></polygon><polygon points="0.23170000000000357,0.1661999999999999 0.22749999999999915,0.16589999999999883 0.22450000000000614,0.16779999999999973 0.23110000000000497,0.16809999999999903 0.23170000000000357,0.1661999999999999 "></polygon><polygon points="0.21700000000000585,0.16949999999999932 0.21970000000000312,0.16809999999999903 0.21970000000000312,0.16669999999999874 0.21450000000000102,0.1684000000000001 0.215600000000002,0.1706000000000003 0.21700000000000585,0.16949999999999932 "></polygon><polygon points="0.23470000000000368,0.1794999999999991 0.23640000000000327,0.1786999999999992 0.23670000000000613,0.17809999999999881 0.23470000000000368,0.17779999999999951 0.2336000000000027,0.1794999999999991 0.23470000000000368,0.1794999999999991 "></polygon><polygon points="0.2184000000000026,0.20089999999999897 0.2225000000000037,0.1963999999999988 0.2231000000000023,0.19369999999999976 0.21920000000000073,0.1889000000000003 0.21470000000000056,0.18869999999999898 0.21390000000000242,0.1916999999999991 0.2120000000000033,0.19200000000000017 0.21390000000000242,0.19510000000000005 0.21250000000000568,0.19890000000000008 0.216700000000003,0.20229999999999926 0.2184000000000026,0.20089999999999897 "></polygon><polygon points="0.2786000000000044,0.21999999999999886 0.27779999999999916,0.21560000000000024 0.279200000000003,0.20999999999999908 0.27590000000000003,0.20669999999999966 0.27200000000000557,0.20640000000000036 0.26780000000000115,0.20199999999999996 0.26720000000000255,0.19479999999999897 0.270300000000006,0.18979999999999997 0.270300000000006,0.18839999999999968 0.26780000000000115,0.1877999999999993 0.2658000000000058,0.1916999999999991 0.26030000000000086,0.19449999999999967 0.25970000000000226,0.20179999999999865 0.2576000000000036,0.20529999999999937 0.25500000000000256,0.20640000000000036 0.25310000000000343,0.21279999999999966 0.24719999999999942,0.21699999999999875 0.24340000000000117,0.21699999999999875 0.24110000000000298,0.22119999999999962 0.23560000000000514,0.2225999999999999 0.23530000000000229,0.22419999999999973 0.23750000000000426,0.22639999999999993 0.24220000000000397,0.2248000000000001 0.2447000000000017,0.2309000000000001 0.24670000000000414,0.23029999999999973 0.24640000000000128,0.22780000000000022 0.24890000000000612,0.22809999999999953 0.2606000000000037,0.2392000000000003 0.26559999999999917,0.2477999999999998 0.26780000000000115,0.2480999999999991 0.27590000000000003,0.2384000000000004 0.27609999999999957,0.2309000000000001 0.28000000000000114,0.22919999999999874 0.2822000000000031,0.22170000000000023 0.279200000000003,0.22189999999999976 0.2786000000000044,0.21999999999999886 "></polygon><polygon points="0.23499999999999943,0.23639999999999972 0.23530000000000229,0.2350999999999992 0.23220000000000596,0.2333999999999996 0.23340000000000316,0.2372999999999994 0.23499999999999943,0.23639999999999972 "></polygon><polygon points="0.23390000000000555,0.2472999999999992 0.23220000000000596,0.2469999999999999 0.23060000000000258,0.24869999999999948 0.23390000000000555,0.24840000000000018 0.23390000000000555,0.2472999999999992 "></polygon><polygon points="0.25250000000000483,0.25619999999999976 0.2506000000000057,0.2555999999999994 0.2506000000000057,0.2567000000000004 0.25250000000000483,0.2577999999999996 0.25250000000000483,0.25619999999999976 "></polygon><polygon points="0.11060000000000514,0.31620000000000026 0.10999999999999943,0.3178000000000001 0.11280000000000001,0.31759999999999877 0.11250000000000426,0.31620000000000026 0.11060000000000514,0.31620000000000026 "></polygon><polygon points="0.04200000000000159,0.33009999999999984 0.039500000000003865,0.32809999999999917 0.036700000000003286,0.32920000000000016 0.04250000000000398,0.33169999999999966 0.04200000000000159,0.33009999999999984 "></polygon><polygon points="0.0964000000000027,0.33309999999999995 0.10060000000000002,0.33199999999999896 0.10090000000000288,0.3288999999999991 0.09309999999999974,0.32949999999999946 0.09280000000000399,0.33169999999999966 0.0964000000000027,0.33309999999999995 "></polygon><polygon points="0.03200000000000358,0.33419999999999916 0.03420000000000556,0.33140000000000036 0.033900000000002706,0.33009999999999984 0.02779999999999916,0.33509999999999884 0.03059999999999974,0.33559999999999945 0.03200000000000358,0.33419999999999916 "></polygon><polygon points="0.010000000000005116,0.370099999999999 0.01559999999999917,0.3673000000000002 0.01640000000000441,0.3647999999999989 0.01920000000000499,0.3636999999999997 0.021100000000004115,0.3605999999999998 0.025000000000005684,0.3600999999999992 0.025000000000005684,0.3586999999999989 0.018599999999999284,0.3552999999999997 0.015300000000003422,0.34949999999999903 0.011100000000006105,0.3506 0.010300000000000864,0.34809999999999874 0.008300000000005525,0.3475999999999999 0.008100000000005991,0.3498000000000001 0.011700000000004707,0.3530999999999995 0.011700000000004707,0.35559999999999903 0.006700000000002149,0.3591999999999995 0.00030000000000285354,0.3586999999999989 0.0,0.3622999999999994 0.006100000000003547,0.3661999999999992 0.007500000000000284,0.3697999999999997 0.010000000000005116,0.370099999999999 "></polygon>
    </svg>
    