
    <svg width="25.609999999999985" height="9.0653" xmlns="http://www.w3.org/2000/svg" xmlns:xlink="http://www.w3.org/1999/xlink" style="transform: scale(1, -1)">
        <polygon points="17.355500000000006,0.0024999999999999467 17.35409999999999,0.0 17.35300000000001,0.0010999999999998789 17.353800000000007,0.0024999999999999467 17.355500000000006,0.0024999999999999467 "></polygon><polygon points="17.370499999999993,0.00749999999999984 17.366600000000005,0.006599999999999939 17.375799999999998,0.012799999999999923 17.378299999999996,0.016100000000000003 17.382199999999983,0.02859999999999996 17.382499999999993,0.03749999999999987 17.38470000000001,0.039999999999999813 17.38300000000001,0.023299999999999876 17.380499999999984,0.01639999999999997 17.375799999999998,0.010000000000000009 17.370499999999993,0.00749999999999984 "></polygon><polygon points="17.3827,0.04359999999999986 17.382499999999993,0.045299999999999896 17.38409999999999,0.04579999999999984 17.38409999999999,0.04049999999999998 17.382499999999993,0.04049999999999998 17.3827,0.04359999999999986 "></polygon><polygon points="17.3836,0.04999999999999982 17.38470000000001,0.04779999999999984 17.382499999999993,0.04719999999999991 17.382199999999983,0.04909999999999992 17.3836,0.04999999999999982 "></polygon><polygon points="17.38329999999999,0.05799999999999983 17.38329999999999,0.05279999999999996 17.3819,0.05139999999999989 17.378600000000006,0.05889999999999995 17.381100000000004,0.05999999999999983 17.38329999999999,0.05799999999999983 "></polygon><polygon points="17.377999999999986,0.06329999999999991 17.378799999999984,0.06439999999999979 17.379400000000004,0.06299999999999994 17.376299999999986,0.0605 17.377999999999986,0.06329999999999991 "></polygon><polygon points="17.37469999999999,0.06659999999999999 17.37299999999999,0.06409999999999982 17.3716,0.06529999999999991 17.376299999999986,0.06909999999999994 17.37469999999999,0.06659999999999999 "></polygon><polygon points="17.363,0.07359999999999989 17.360799999999983,0.07079999999999997 17.358599999999996,0.07359999999999989 17.356099999999998,0.07329999999999992 17.360199999999992,0.07739999999999991 17.359999999999985,0.0743999999999998 17.363,0.07359999999999989 "></polygon><polygon points="17.35329999999999,0.0763999999999998 17.355799999999988,0.07719999999999994 17.35470000000001,0.07389999999999985 17.35300000000001,0.07469999999999999 17.35329999999999,0.0763999999999998 "></polygon><polygon points="17.503299999999996,2.7963999999999998 17.502499999999998,2.7955 17.500499999999988,2.7975 17.50829999999999,2.7978 17.5069,2.7961 17.503299999999996,2.7963999999999998 "></polygon><polygon points="17.50800000000001,2.8444 17.500499999999988,2.8407999999999998 17.49879999999999,2.8425 17.502199999999988,2.8461 17.50999999999999,2.8474999999999997 17.510500000000008,2.8453 17.50800000000001,2.8444 "></polygon><polygon points="16.3116,4.3119 16.314400000000006,4.3086 16.31219999999999,4.3027999999999995 16.306099999999986,4.296899999999999 16.296099999999996,4.2943999999999996 16.295500000000004,4.2966 16.299999999999983,4.2964 16.304699999999997,4.3004999999999995 16.30770000000001,4.309099999999999 16.307500000000005,4.313599999999999 16.3116,4.3119 "></polygon><polygon points="17.5205,2.798 17.51910000000001,2.7978 17.51830000000001,2.7990999999999997 17.5197,2.7997 17.5205,2.798 "></polygon><polygon points="17.535799999999995,2.8011 17.530200000000008,2.7994 17.52879999999999,2.8003 17.534400000000005,2.8049999999999997 17.536100000000005,2.8036 17.535799999999995,2.8011 "></polygon><polygon points="17.533799999999985,2.8436 17.543900000000008,2.8344 17.5497,2.8197 17.54910000000001,2.8116 17.54079999999999,2.8028 17.53800000000001,2.8024999999999998 17.536900000000003,2.8044 17.544399999999996,2.81 17.546099999999996,2.815 17.545500000000004,2.8211 17.54050000000001,2.8327999999999998 17.534999999999997,2.8386 17.526600000000002,2.843 17.5283,2.8455 17.533799999999985,2.8436 "></polygon><polygon points="17.525800000000004,2.8468999999999998 17.525800000000004,2.8432999999999997 17.51910000000001,2.8449999999999998 17.51939999999999,2.848 17.525800000000004,2.8468999999999998 "></polygon><polygon points="17.51660000000001,2.8453 17.512699999999995,2.8449999999999998 17.51140000000001,2.8474999999999997 17.516899999999993,2.848 17.518,2.8461 17.51660000000001,2.8453 "></polygon><polygon points="19.872500000000002,4.751099999999999 19.87299999999999,4.753299999999999 19.875200000000007,4.7491 19.87270000000001,4.747999999999999 19.872500000000002,4.751099999999999 "></polygon><polygon points="19.90299999999999,4.7545 19.9024,4.752800000000001 19.900800000000004,4.7539 19.901700000000005,4.7547 19.90299999999999,4.7545 "></polygon><polygon points="19.732699999999994,4.765499999999999 19.7397,4.7597000000000005 19.743799999999993,4.7585999999999995 19.7363,4.757199999999999 19.727499999999992,4.7591 19.724699999999984,4.7614 19.72550000000001,4.7658000000000005 19.732699999999994,4.765499999999999 "></polygon><polygon points="25.605199999999996,4.2745 25.60390000000001,4.265499999999999 25.601,4.2622 25.59530000000001,4.2486999999999995 25.590900000000005,4.2468 25.584399999999988,4.238199999999999 25.574099999999987,4.2330000000000005 25.56219999999999,4.234999999999999 25.552699999999987,4.243 25.548299999999983,4.244999999999999 25.549900000000008,4.2509 25.545500000000004,4.251899999999999 25.543299999999988,4.2553 25.5394,4.256399999999999 25.535899999999998,4.2506 25.534400000000005,4.252800000000001 25.5325,4.251099999999999 25.534099999999995,4.247199999999999 25.53880000000001,4.250500000000001 25.538600000000002,4.2463999999999995 25.517499999999984,4.2402999999999995 25.48660000000001,4.25 25.478800000000007,4.260299999999999 25.477499999999992,4.2666 25.47380000000001,4.27 25.471599999999995,4.275 25.472700000000003,4.2758 25.4752,4.273899999999999 25.478800000000007,4.279400000000001 25.49770000000001,4.2864 25.517499999999984,4.2989 25.51939999999999,4.3039000000000005 25.524399999999986,4.3078 25.525000000000006,4.3111 25.5308,4.3155 25.5283,4.316000000000001 25.53649999999999,4.320499999999999 25.535799999999995,4.330500000000001 25.537499999999994,4.331899999999999 25.548599999999993,4.3383 25.5616,4.343299999999999 25.57220000000001,4.3447 25.5788,4.343 25.587699999999984,4.3444 25.59360000000001,4.343 25.596000000000004,4.34 25.597700000000003,4.3225 25.595,4.319100000000001 25.594400000000007,4.314399999999999 25.591099999999983,4.3124 25.589699999999993,4.3047 25.591499999999996,4.3016000000000005 25.59020000000001,4.2989 25.597399999999993,4.293200000000001 25.6045,4.2966999999999995 25.609999999999985,4.291399999999999 25.609199999999987,4.283799999999999 25.605199999999996,4.2745 "></polygon><polygon points="25.602599999999995,4.308400000000001 25.605099999999993,4.308199999999999 25.608000000000004,4.305 25.60650000000001,4.302300000000001 25.603800000000007,4.3016000000000005 25.5942,4.3073999999999995 25.596599999999995,4.3096 25.602599999999995,4.308400000000001 "></polygon><polygon points="25.52969999999999,4.3264 25.52799999999999,4.3271999999999995 25.526099999999985,4.325799999999999 25.525000000000006,4.327500000000001 25.538999999999987,4.3375 25.54050000000001,4.335800000000001 25.531599999999997,4.3291 25.53219999999999,4.324999999999999 25.530200000000008,4.3247 25.52969999999999,4.3264 "></polygon><polygon points="23.2902,5.193 23.287499999999994,5.1844 23.2825,5.1797 23.281599999999997,5.172499999999999 23.27770000000001,5.172499999999999 23.276299999999992,5.1754999999999995 23.2774,5.185499999999999 23.283299999999997,5.1850000000000005 23.285799999999995,5.1889 23.284400000000005,5.1928 23.280200000000008,5.1944 23.283299999999997,5.196 23.28909999999999,5.1953 23.2902,5.193 "></polygon><polygon points="23.265799999999984,5.1958 23.2663,5.1960999999999995 23.27000000000001,5.1960999999999995 23.267200000000003,5.193300000000001 23.265799999999984,5.1958 "></polygon><polygon points="19.91470000000001,4.761100000000001 19.917699999999996,4.7659 19.920299999999997,4.7666 19.919700000000006,4.760299999999999 19.913600000000002,4.7575 19.911599999999993,4.76 19.91470000000001,4.761100000000001 "></polygon><polygon points="19.918000000000006,4.770300000000001 19.917599999999993,4.7697 19.915899999999993,4.7696000000000005 19.916300000000007,4.7712 19.918000000000006,4.770300000000001 "></polygon><polygon points="19.913600000000002,4.775499999999999 19.91380000000001,4.7768999999999995 19.91550000000001,4.776400000000001 19.91579999999999,4.772600000000001 19.913600000000002,4.775499999999999 "></polygon><polygon points="19.909999999999997,4.7864 19.908799999999985,4.7894000000000005 19.911100000000005,4.789999999999999 19.913600000000002,4.7836 19.912499999999994,4.782500000000001 19.909999999999997,4.7864 "></polygon><polygon points="19.899,4.805199999999999 19.9015,4.805999999999999 19.901099999999985,4.8026 19.899399999999986,4.8033 19.899,4.805199999999999 "></polygon><polygon points="19.863,4.826599999999999 19.864000000000004,4.829000000000001 19.866299999999995,4.8294 19.869399999999985,4.8271 19.869499999999988,4.8241 19.863799999999998,4.824400000000001 19.863,4.826599999999999 "></polygon><polygon points="20.512699999999995,5.698 20.505799999999994,5.697799999999999 20.502700000000004,5.6997 20.502999999999986,5.7021999999999995 20.504099999999994,5.7033000000000005 20.512200000000007,5.7014 20.518599999999992,5.714700000000001 20.522899999999993,5.718 20.512699999999995,5.698 "></polygon><polygon points="20.52799999999999,5.7189 20.524699999999996,5.7173 20.5231,5.7186 20.530200000000008,5.721500000000001 20.52799999999999,5.7189 "></polygon><polygon points="23.273599999999988,5.204700000000001 23.2774,5.2021999999999995 23.27770000000001,5.1972000000000005 23.275199999999984,5.1997 23.271899999999988,5.2003 23.2697,5.199400000000001 23.2705,5.1972000000000005 23.2688,5.196899999999999 23.26660000000001,5.2005 23.267499999999984,5.2044 23.26910000000001,5.205500000000001 23.273599999999988,5.204700000000001 "></polygon><polygon points="22.329700000000003,5.637499999999999 22.325500000000005,5.6372 22.322599999999994,5.6388 22.327499999999986,5.643699999999999 22.330299999999994,5.642899999999999 22.33160000000001,5.6457999999999995 22.333499999999987,5.640700000000001 22.329700000000003,5.637499999999999 "></polygon><polygon points="22.3425,5.666399999999999 22.337500000000006,5.6555 22.333,5.652200000000001 22.33250000000001,5.653599999999999 22.337699999999984,5.660299999999999 22.339100000000002,5.6647 22.337999999999994,5.6669 22.33330000000001,5.666600000000001 22.341099999999983,5.669700000000001 22.34299999999999,5.6686 22.3425,5.666399999999999 "></polygon><polygon points="22.326599999999985,5.662800000000001 22.325799999999987,5.6686 22.3288,5.6708 22.329700000000003,5.6686 22.328299999999984,5.664999999999999 22.329700000000003,5.6614 22.328299999999984,5.660299999999999 22.326599999999985,5.662800000000001 "></polygon><polygon points="20.535200000000003,5.7208000000000006 20.532700000000006,5.7197 20.531299999999987,5.721399999999999 20.5402,5.722799999999999 20.535200000000003,5.7208000000000006 "></polygon><polygon points="20.558300000000003,5.7258 20.55109999999999,5.7216000000000005 20.54220000000001,5.723000000000001 20.542699999999996,5.7241 20.5497,5.7233 20.557199999999995,5.7278 20.567800000000005,5.731 20.565499999999986,5.7278 20.558300000000003,5.7258 "></polygon><polygon points="20.597499999999997,5.759399999999999 20.595799999999997,5.7486 20.59219999999999,5.743600000000001 20.577200000000005,5.728299999999999 20.57159999999999,5.728299999999999 20.569699999999983,5.734399999999999 20.5719,5.7311 20.577499999999986,5.7316 20.5916,5.746599999999999 20.5933,5.7514 20.5916,5.760299999999999 20.594400000000007,5.761100000000001 20.597499999999997,5.759399999999999 "></polygon><polygon points="20.730199999999996,5.7621 20.730500000000006,5.7569 20.728800000000007,5.7555 20.7269,5.7569 20.72829999999999,5.7637 20.73150000000001,5.7628 20.730199999999996,5.7621 "></polygon><polygon points="20.587699999999984,5.7789 20.58959999999999,5.773199999999999 20.588300000000004,5.771100000000001 20.583799999999997,5.7803 20.587699999999984,5.7789 "></polygon><polygon points="20.7252,5.7897 20.7269,5.7911 20.7286,5.7890999999999995 20.7269,5.7875 20.7252,5.7897 "></polygon><polygon points="20.490700000000004,5.7925 20.491799999999984,5.793900000000001 20.493599999999986,5.7934 20.492199999999997,5.789199999999999 20.490700000000004,5.7925 "></polygon><polygon points="20.85050000000001,5.769399999999999 20.846100000000007,5.7707999999999995 20.8425,5.7646999999999995 20.841099999999983,5.766399999999999 20.8416,5.7714 20.838300000000004,5.7766 20.8305,5.7791 20.82910000000001,5.7736 20.83269999999999,5.7728 20.835199999999986,5.769399999999999 20.83330000000001,5.7658000000000005 20.824399999999997,5.7622 20.818600000000004,5.761900000000001 20.81190000000001,5.7669 20.81020000000001,5.7653 20.81110000000001,5.762499999999999 20.810000000000002,5.7614 20.806899999999985,5.765000000000001 20.80940000000001,5.7689 20.807500000000005,5.771100000000001 20.804399999999987,5.766399999999999 20.805800000000005,5.763 20.804699999999997,5.7597000000000005 20.797699999999992,5.761100000000001 20.794399999999996,5.758900000000001 20.785499999999985,5.7597000000000005 20.7808,5.7636 20.7783,5.779999999999999 20.775800000000004,5.777799999999999 20.776899999999983,5.774100000000001 20.774699999999996,5.7722 20.774699999999996,5.7691 20.76830000000001,5.7736 20.765199999999993,5.7705 20.75999999999999,5.7744 20.75970000000001,5.776400000000001 20.7569,5.773999999999999 20.74860000000001,5.775499999999999 20.744699999999995,5.777799999999999 20.742999999999995,5.7833000000000006 20.7372,5.7783 20.735799999999983,5.7803 20.7397,5.785500000000001 20.73939999999999,5.787800000000001 20.72970000000001,5.7964 20.726100000000002,5.805299999999999 20.723600000000005,5.8078 20.731400000000008,5.8225 20.730199999999996,5.824400000000001 20.7277,5.8247 20.72380000000001,5.833 20.71969999999999,5.8325 20.71719999999999,5.8339 20.716099999999983,5.8369 20.718799999999987,5.84 20.72800000000001,5.8369 20.731400000000008,5.8405000000000005 20.731099999999998,5.843 20.7252,5.8444 20.723600000000005,5.846399999999999 20.724400000000003,5.8505 20.723299999999995,5.852499999999999 20.7252,5.8558 20.72380000000001,5.8652999999999995 20.71719999999999,5.8666 20.712699999999984,5.8641000000000005 20.708799999999997,5.860799999999999 20.709399999999988,5.8561 20.7055,5.854100000000001 20.702499999999986,5.855499999999999 20.704999999999984,5.862500000000001 20.701300000000003,5.8652999999999995 20.706500000000005,5.8727 20.700199999999995,5.8733 20.701099999999997,5.870799999999999 20.6986,5.868600000000001 20.692199999999985,5.865499999999999 20.690200000000004,5.8664000000000005 20.689999999999998,5.871599999999999 20.69149999999999,5.874700000000001 20.68690000000001,5.8741 20.6858,5.875500000000001 20.68719999999999,5.8797 20.690799999999996,5.8817 20.68629999999999,5.8889 20.68520000000001,5.899100000000001 20.68719999999999,5.9039 20.68629999999999,5.906599999999999 20.69749999999999,5.910299999999999 20.711899999999986,5.921099999999999 20.7166,5.9214 20.71969999999999,5.917999999999999 20.722499999999997,5.921099999999999 20.714399999999983,5.9266000000000005 20.7192,5.9306 20.722199999999987,5.9305 20.722499999999997,5.9275 20.731899999999996,5.9314 20.735500000000002,5.922499999999999 20.73939999999999,5.9178 20.746499999999997,5.914300000000001 20.7509,5.9145 20.752700000000004,5.917199999999999 20.751900000000006,5.919700000000001 20.753600000000006,5.924099999999999 20.7491,5.9247 20.754999999999995,5.9291 20.757199999999983,5.9338999999999995 20.750200000000007,5.9411000000000005 20.7483,5.9460999999999995 20.752700000000004,5.9605 20.755200000000002,5.9605 20.760199999999998,5.955500000000001 20.764700000000005,5.956899999999999 20.772199999999998,5.949400000000001 20.77080000000001,5.933299999999999 20.771899999999988,5.931900000000001 20.77449999999999,5.9338 20.77799999999999,5.9336 20.776600000000002,5.9389 20.7774,5.944100000000001 20.783799999999985,5.947799999999999 20.7919,5.938599999999999 20.793299999999988,5.9338999999999995 20.8005,5.9289000000000005 20.80080000000001,5.931100000000001 20.794099999999986,5.9369 20.793000000000006,5.9399999999999995 20.797200000000004,5.944100000000001 20.796099999999996,5.950799999999999 20.80080000000001,5.955 20.80189999999999,5.9544 20.7988,5.9511 20.81219999999999,5.938000000000001 20.814099999999996,5.9305 20.817199999999985,5.932499999999999 20.82159999999999,5.9322 20.8236,5.938599999999999 20.822699999999998,5.9414 20.828299999999984,5.9453 20.829700000000003,5.944699999999999 20.83250000000001,5.948 20.834699999999998,5.9460999999999995 20.8399,5.9460999999999995 20.84190000000001,5.944100000000001 20.837500000000006,5.9397 20.837999999999994,5.938000000000001 20.8425,5.936400000000001 20.851100000000002,5.9366 20.853800000000007,5.9336 20.85130000000001,5.9236 20.856099999999998,5.9144000000000005 20.853800000000007,5.9094 20.856599999999986,5.905799999999999 20.856599999999986,5.9018999999999995 20.858599999999996,5.900499999999999 20.863,5.9016 20.87020000000001,5.9008 20.87360000000001,5.896599999999999 20.872199999999992,5.8941 20.87360000000001,5.8919 20.880799999999994,5.8955 20.882499999999993,5.904400000000001 20.8844,5.9064 20.893599999999992,5.9094 20.896299999999997,5.9079999999999995 20.893,5.9 20.900499999999994,5.8947 20.901099999999985,5.8916 20.899100000000004,5.886100000000001 20.9033,5.8774999999999995 20.900499999999994,5.873200000000001 20.9033,5.8728 20.906900000000007,5.8644 20.90469999999999,5.858599999999999 20.90610000000001,5.855 20.9075,5.8528 20.911100000000005,5.853 20.91300000000001,5.8469 20.897699999999986,5.8355 20.892499999999984,5.848000000000001 20.885400000000004,5.844899999999999 20.8819,5.8491 20.875,5.8436 20.8733,5.8386 20.868300000000005,5.841900000000001 20.866299999999995,5.84 20.869100000000003,5.836399999999999 20.868599999999986,5.831899999999999 20.875,5.824999999999999 20.877199999999988,5.824400000000001 20.880200000000002,5.8269 20.881100000000004,5.825799999999999 20.879400000000004,5.8239 20.882499999999993,5.823600000000001 20.8819,5.820499999999999 20.88409999999999,5.8186 20.887399999999985,5.82 20.889399999999995,5.8241 20.896299999999997,5.830500000000001 20.897999999999996,5.8283000000000005 20.906499999999994,5.827999999999999 20.911900000000003,5.817500000000001 20.90299999999999,5.8116 20.899100000000004,5.8155 20.8955,5.8164 20.891899999999993,5.812799999999999 20.89330000000001,5.8072 20.888000000000005,5.7889 20.87270000000001,5.7791 20.875499999999988,5.7753 20.875,5.7728 20.880200000000002,5.7683 20.870800000000003,5.76 20.8647,5.758900000000001 20.86160000000001,5.7622 20.855799999999988,5.7636 20.85050000000001,5.769399999999999 "></polygon><polygon points="16.356599999999986,4.513 16.355799999999988,4.514099999999999 16.359399999999994,4.5139 16.360199999999992,4.5122 16.358800000000002,4.511100000000001 16.356599999999986,4.513 "></polygon><polygon points="16.358299999999986,4.518599999999999 16.360600000000005,4.5166 16.359700000000004,4.515000000000001 16.357499999999987,4.516399999999999 16.358299999999986,4.518599999999999 "></polygon><polygon points="16.296899999999994,4.5236 16.293900000000008,4.52 16.292399999999986,4.520300000000001 16.296599999999984,4.5258 16.29939999999999,4.5268999999999995 16.296899999999994,4.5236 "></polygon><polygon points="16.30420000000001,4.5326 16.306299999999993,4.5334 16.30709999999999,4.5327 16.302999999999997,4.530899999999999 16.30420000000001,4.5326 "></polygon><polygon points="16.15469999999999,4.571400000000001 16.15549999999999,4.5725 16.1575,4.5694 16.15610000000001,4.568899999999999 16.15469999999999,4.571400000000001 "></polygon><polygon points="16.154899999999998,4.5755 16.155399999999986,4.5741 16.154899999999998,4.5732 16.153400000000005,4.574999999999999 16.154899999999998,4.5755 "></polygon><polygon points="16.115499999999997,4.5786 16.117500000000007,4.577999999999999 16.116299999999995,4.574999999999999 16.113799999999998,4.5769 16.115499999999997,4.5786 "></polygon><polygon points="16.151700000000005,4.581799999999999 16.15299999999999,4.5799 16.152299999999997,4.578799999999999 16.151099999999985,4.5807 16.151700000000005,4.581799999999999 "></polygon><polygon points="16.150499999999994,4.5875 16.151600000000002,4.5853 16.151600000000002,4.5825 16.150199999999984,4.582800000000001 16.147500000000008,4.59 16.150499999999994,4.5875 "></polygon><polygon points="16.14609999999999,4.5961 16.148599999999988,4.594099999999999 16.148599999999988,4.591099999999999 16.14330000000001,4.5944 16.138599999999997,4.5947 16.141899999999993,4.5991 16.14609999999999,4.5961 "></polygon><polygon points="16.1336,4.5975 16.1361,4.6015999999999995 16.138599999999997,4.6014 16.136599999999987,4.599399999999999 16.1336,4.5975 "></polygon><polygon points="16.14519999999999,4.602499999999999 16.14439999999999,4.6015999999999995 16.138299999999987,4.602499999999999 16.142200000000003,4.605 16.14519999999999,4.602499999999999 "></polygon><polygon points="16.319699999999983,4.5358 16.325199999999995,4.534699999999999 16.33269999999999,4.5314 16.33080000000001,4.5305 16.32220000000001,4.5341000000000005 16.31110000000001,4.535500000000001 16.314099999999996,4.5372 16.319699999999983,4.5358 "></polygon><polygon points="16.868300000000005,7.1172 16.87469999999999,7.1066 16.882499999999993,7.1019000000000005 16.888000000000005,7.0944 16.887200000000007,7.0878 16.883800000000008,7.0808 16.8836,7.068 16.889999999999986,7.054400000000001 16.88499999999999,7.0419 16.877999999999986,7.034700000000001 16.87790000000001,7.0367 16.88130000000001,7.0397 16.887200000000007,7.052200000000001 16.88159999999999,7.070500000000001 16.88300000000001,7.075000000000001 16.882499999999993,7.081100000000001 16.886599999999987,7.0937 16.879999999999995,7.101100000000001 16.87379999999999,7.1044 16.86439999999999,7.1213999999999995 16.866899999999987,7.120800000000001 16.868300000000005,7.1172 "></polygon><polygon points="16.816599999999994,7.078000000000001 16.818600000000004,7.0822 16.827699999999993,7.0939 16.824899999999985,7.087200000000001 16.81880000000001,7.080300000000001 16.816100000000006,7.071900000000001 16.816599999999994,7.078000000000001 "></polygon><polygon points="16.214699999999993,4.263 16.213300000000004,4.2616 16.209100000000007,4.2646999999999995 16.210499999999996,4.2658000000000005 16.214699999999993,4.263 "></polygon><polygon points="16.268,4.2783 16.254699999999985,4.266399999999999 16.23939999999999,4.263 16.22659999999999,4.2575 16.221900000000005,4.2578 16.219400000000007,4.2608 16.22909999999999,4.2605 16.233599999999996,4.263 16.254099999999994,4.2683 16.2808,4.2911 16.29079999999999,4.294700000000001 16.28110000000001,4.2894000000000005 16.268,4.2783 "></polygon><polygon points="16.0805,4.359399999999999 16.08189999999999,4.358599999999999 16.0788,4.357200000000001 16.0736,4.3603000000000005 16.075799999999987,4.3611 16.0805,4.359399999999999 "></polygon><polygon points="16.2577,4.375500000000001 16.25630000000001,4.3742 16.25540000000001,4.375 16.25710000000001,4.3764 16.2577,4.375500000000001 "></polygon><polygon points="16.304699999999997,4.3271 16.3074,4.323499999999999 16.3074,4.3225 16.30359999999999,4.328099999999999 16.304699999999997,4.3271 "></polygon><polygon points="16.282299999999992,4.345000000000001 16.283799999999985,4.347799999999999 16.28630000000001,4.3444 16.285200000000003,4.343299999999999 16.282299999999992,4.345000000000001 "></polygon><polygon points="16.27000000000001,4.3614 16.26830000000001,4.359399999999999 16.267200000000003,4.3603000000000005 16.26830000000001,4.3619 16.27000000000001,4.3614 "></polygon><polygon points="16.263000000000005,4.3675 16.264999999999986,4.366899999999999 16.263299999999987,4.3652999999999995 16.262200000000007,4.3658 16.263000000000005,4.3675 "></polygon><polygon points="16.254999999999995,4.3772 16.253799999999984,4.3772 16.252700000000004,4.3794 16.254699999999985,4.3803 16.25659999999999,4.378299999999999 16.254999999999995,4.3772 "></polygon><polygon points="16.2483,4.3886 16.25,4.388299999999999 16.25,4.3855 16.24799999999999,4.3866 16.2483,4.3886 "></polygon><polygon points="16.24600000000001,4.3979 16.244799999999998,4.398300000000001 16.24430000000001,4.4002 16.24520000000001,4.399699999999999 16.24600000000001,4.3979 "></polygon><polygon points="16.221299999999985,4.4283 16.222999999999985,4.429399999999999 16.224699999999984,4.4269 16.222999999999985,4.4254999999999995 16.221299999999985,4.4283 "></polygon><polygon points="16.258800000000008,4.373900000000001 16.2594,4.3728 16.2569,4.3725000000000005 16.2577,4.373900000000001 16.258800000000008,4.373900000000001 "></polygon><polygon points="16.327699999999993,4.4679 16.325099999999992,4.4678 16.322399999999988,4.469099999999999 16.32929999999999,4.4686 16.327699999999993,4.4679 "></polygon><polygon points="16.31729999999999,4.469799999999999 16.317000000000007,4.4686 16.315300000000008,4.4702 16.315699999999993,4.4704999999999995 16.31729999999999,4.469799999999999 "></polygon><polygon points="16.366899999999987,4.4711 16.359099999999984,4.4697 16.335700000000003,4.468299999999999 16.36500000000001,4.473000000000001 16.366899999999987,4.4711 "></polygon><polygon points="16.091999999999985,4.469899999999999 16.092700000000008,4.471399999999999 16.09219999999999,4.467499999999999 16.091099999999983,4.468 16.091999999999985,4.469899999999999 "></polygon><polygon points="16.129400000000004,4.469099999999999 16.127199999999988,4.4697 16.125200000000007,4.4678 16.12360000000001,4.4697 16.125,4.4716000000000005 16.1336,4.472199999999999 16.1327,4.4694 16.129400000000004,4.469099999999999 "></polygon><polygon points="16.15549999999999,4.4711 16.157700000000006,4.4719 16.158799999999985,4.4694 16.156299999999987,4.4689 16.15549999999999,4.4711 "></polygon><polygon points="16.15469999999999,4.4703 16.15299999999999,4.4703 16.15379999999999,4.472199999999999 16.15469999999999,4.4716000000000005 16.15469999999999,4.4703 "></polygon><polygon points="16.30709999999999,4.4708000000000006 16.307299999999998,4.4719 16.310000000000002,4.4702 16.309300000000007,4.4701 16.30709999999999,4.4708000000000006 "></polygon><polygon points="16.396299999999997,4.4861 16.39609999999999,4.4769000000000005 16.389399999999995,4.4704999999999995 16.37299999999999,4.4708000000000006 16.370800000000003,4.4725 16.3716,4.4741 16.377700000000004,4.4719 16.388000000000005,4.473000000000001 16.3913,4.4794 16.3913,4.4833 16.388299999999987,4.4869 16.3913,4.4886 16.396299999999997,4.4861 "></polygon><polygon points="16.28800000000001,4.4769000000000005 16.28219999999999,4.4825 16.283600000000007,4.489699999999999 16.29050000000001,4.4772 16.28800000000001,4.4769000000000005 "></polygon><polygon points="16.28049999999999,4.4869 16.2791,4.4855 16.27969999999999,4.491099999999999 16.2808,4.4902999999999995 16.28049999999999,4.4869 "></polygon><polygon points="16.396600000000007,4.491099999999999 16.397500000000008,4.488899999999999 16.396299999999997,4.488300000000001 16.390500000000003,4.491899999999999 16.39269999999999,4.493 16.396600000000007,4.491099999999999 "></polygon><polygon points="16.2825,4.4961 16.281900000000007,4.493 16.28049999999999,4.4922 16.28,4.4961 16.281900000000007,4.5 16.283299999999997,4.498900000000001 16.2825,4.4961 "></polygon><polygon points="16.378299999999996,4.4994 16.377499999999998,4.495799999999999 16.372199999999992,4.500299999999999 16.37469999999999,4.5016 16.378299999999996,4.4994 "></polygon><polygon points="16.368599999999986,4.508900000000001 16.370000000000005,4.507999999999999 16.368799999999993,4.506600000000001 16.3622,4.5114 16.36330000000001,4.5122 16.368599999999986,4.508900000000001 "></polygon><polygon points="16.143,4.4703 16.141099999999994,4.4711 16.141899999999993,4.4725 16.146600000000007,4.4708000000000006 16.143,4.4703 "></polygon><polygon points="16.063299999999998,4.475 16.05770000000001,4.470000000000001 16.054100000000005,4.4658 16.053300000000007,4.4678 16.0608,4.4786 16.063799999999986,4.478299999999999 16.063299999999998,4.475 "></polygon><polygon points="16.0702,4.4811 16.069999999999993,4.479699999999999 16.064099999999996,4.4841 16.067499999999995,4.4839 16.0702,4.4811 "></polygon><polygon points="16.152199999999993,4.538600000000001 16.14609999999999,4.5433 16.1541,4.540799999999999 16.159400000000005,4.5455000000000005 16.160499999999985,4.556100000000001 16.156599999999997,4.5672 16.157700000000006,4.568 16.161599999999993,4.559699999999999 16.162199999999984,4.5489 16.158299999999997,4.5411 16.155200000000008,4.538 16.152199999999993,4.538600000000001 "></polygon><polygon points="16.03219999999999,4.425800000000001 16.02940000000001,4.4289000000000005 16.034400000000005,4.4344 16.035200000000003,4.426399999999999 16.03219999999999,4.425800000000001 "></polygon><polygon points="16.032399999999996,4.4368 16.030200000000008,4.434699999999999 16.029200000000003,4.435700000000001 16.0308,4.439 16.032399999999996,4.4368 "></polygon><polygon points="16.034099999999995,4.443 16.035799999999995,4.4436 16.036599999999993,4.441599999999999 16.033799999999985,4.4389 16.0325,4.4411000000000005 16.034099999999995,4.443 "></polygon><polygon points="16.03909999999999,4.446299999999999 16.0377,4.4453 16.03739999999999,4.447699999999999 16.039500000000004,4.4481 16.03909999999999,4.446299999999999 "></polygon><polygon points="16.048299999999983,4.457800000000001 16.046899999999994,4.4558 16.045199999999994,4.456099999999999 16.044399999999996,4.4521999999999995 16.043299999999988,4.452999999999999 16.0411,4.4505 16.04079999999999,4.4528 16.046599999999984,4.4597 16.048299999999983,4.457800000000001 "></polygon><polygon points="16.04939999999999,4.4636 16.05189999999999,4.466900000000001 16.052699999999987,4.466099999999999 16.052999999999997,4.4636 16.048299999999983,4.4597 16.047699999999992,4.461399999999999 16.04939999999999,4.4636 "></polygon><polygon points="16.107499999999987,4.4625 16.10220000000001,4.4664 16.103800000000007,4.4694 16.106799999999993,4.4657 16.107499999999987,4.4625 "></polygon><polygon points="16.119100000000003,4.468299999999999 16.118300000000005,4.4672 16.12190000000001,4.465299999999999 16.119699999999995,4.4633 16.114100000000008,4.4641 16.11189999999999,4.4672 16.112499999999983,4.4689 16.116299999999995,4.4672 16.117699999999985,4.469099999999999 16.122500000000002,4.4694 16.119100000000003,4.468299999999999 "></polygon><polygon points="15.71799999999999,4.8736 15.724099999999993,4.870799999999999 15.727499999999992,4.8736 15.729399999999998,4.868 15.725799999999992,4.866899999999999 15.714499999999987,4.874499999999999 15.71799999999999,4.8736 "></polygon><polygon points="15.728000000000009,4.900499999999999 15.728800000000007,4.888299999999999 15.72659999999999,4.8878 15.725500000000011,4.898300000000001 15.717700000000008,4.902200000000001 15.717700000000008,4.9039 15.724699999999984,4.9033 15.728000000000009,4.900499999999999 "></polygon><polygon points="15.692199999999985,4.899699999999999 15.696300000000008,4.8957999999999995 15.6952,4.8941 15.692499999999995,4.8947 15.686299999999989,4.9 15.688799999999986,4.9016 15.692199999999985,4.899699999999999 "></polygon><polygon points="15.264399999999995,5.8094 15.269100000000009,5.8100000000000005 15.27000000000001,5.808199999999999 15.261599999999987,5.8065999999999995 15.258900000000011,5.808299999999999 15.260199999999998,5.8108 15.264399999999995,5.8094 "></polygon><polygon points="15.277199999999993,5.808299999999999 15.273899999999998,5.807600000000001 15.270099999999985,5.809900000000001 15.27879999999999,5.813599999999999 15.280200000000008,5.8108 15.277199999999993,5.808299999999999 "></polygon><polygon points="15.316900000000004,5.8719 15.319699999999983,5.8689 15.317900000000009,5.865499999999999 15.3082,5.864800000000001 15.303899999999999,5.8665 15.305000000000007,5.8690999999999995 15.309799999999996,5.8675999999999995 15.311700000000002,5.8736 15.316900000000004,5.8719 "></polygon><polygon points="15.303699999999992,5.871499999999999 15.304399999999987,5.869400000000001 15.3031,5.869199999999999 15.3022,5.8718 15.303699999999992,5.871499999999999 "></polygon><polygon points="15.30850000000001,5.8748000000000005 15.310599999999994,5.8735 15.308300000000003,5.8698 15.307099999999991,5.870699999999999 15.30850000000001,5.8748000000000005 "></polygon><polygon points="14.549399999999991,5.963900000000001 14.549700000000001,5.9628 14.546300000000002,5.961399999999999 14.542200000000008,5.9636 14.543000000000006,5.964700000000001 14.549399999999991,5.963900000000001 "></polygon><polygon points="15.145499999999998,5.9758 15.147199999999998,5.9755 15.154699999999991,5.966200000000001 15.15549999999999,5.9619 15.148699999999991,5.9619 15.144100000000009,5.9704 15.145499999999998,5.9758 "></polygon><polygon points="14.493799999999993,6.1219 14.480799999999988,6.118 14.471900000000005,6.1228 14.475200000000001,6.1241 14.4863,6.120799999999999 14.4897,6.121599999999999 14.494399999999985,6.1258 14.496099999999984,6.1233 14.493799999999993,6.1219 "></polygon><polygon points="14.517499999999984,6.141399999999999 14.504099999999994,6.131399999999999 14.503299999999996,6.1319 14.505200000000002,6.135299999999999 14.52000000000001,6.1457999999999995 14.52109999999999,6.1439 14.517499999999984,6.141399999999999 "></polygon><polygon points="14.523799999999994,6.148300000000001 14.525000000000006,6.1494 14.52879999999999,6.149699999999999 14.524100000000004,6.1455 14.523799999999994,6.148300000000001 "></polygon><polygon points="14.5608,6.1691 14.555499999999995,6.1633 14.54910000000001,6.159699999999999 14.543299999999988,6.158799999999999 14.551299999999998,6.1639 14.558599999999984,6.171099999999999 14.5608,6.1691 "></polygon><polygon points="14.563799999999986,6.1791 14.5625,6.176399999999999 14.55940000000001,6.1769 14.562999999999988,6.183 14.563799999999986,6.1791 "></polygon><polygon points="14.563600000000008,6.1966 14.564400000000006,6.198 14.566299999999984,6.1944 14.564400000000006,6.193899999999999 14.563600000000008,6.1966 "></polygon><polygon points="14.568600000000004,6.198600000000001 14.57050000000001,6.199999999999999 14.572699999999998,6.197799999999999 14.569999999999993,6.1960999999999995 14.568600000000004,6.198600000000001 "></polygon><polygon points="14.581600000000009,6.2102 14.5805,6.206099999999999 14.57759999999999,6.205 14.579100000000011,6.212199999999999 14.581099999999992,6.2128 14.581600000000009,6.2102 "></polygon><polygon points="14.595699999999994,6.2905999999999995 14.594899999999996,6.2883 14.591099999999983,6.2887 14.594899999999996,6.290900000000001 14.595699999999994,6.2905999999999995 "></polygon><polygon points="14.475200000000001,6.238899999999999 14.473800000000011,6.238899999999999 14.472999999999985,6.240499999999999 14.475500000000011,6.241099999999999 14.475200000000001,6.238899999999999 "></polygon><polygon points="14.397999999999996,6.267799999999999 14.397199999999998,6.2744 14.39500000000001,6.277799999999999 14.397199999999998,6.2811 14.4024,6.27 14.402199999999993,6.2666 14.400000000000006,6.2646999999999995 14.397999999999996,6.267799999999999 "></polygon><polygon points="14.454999999999984,6.2864 14.462199999999996,6.2819 14.464100000000002,6.275 14.463300000000004,6.268599999999999 14.453599999999994,6.2608 14.44659999999999,6.273300000000001 14.447900000000004,6.2844999999999995 14.4469,6.2911 14.449899999999985,6.290799999999999 14.454999999999984,6.2864 "></polygon><polygon points="14.349099999999993,6.3103 14.347999999999985,6.312200000000001 14.359099999999984,6.3216 14.360799999999983,6.318899999999999 14.360199999999992,6.316599999999999 14.354700000000008,6.312200000000001 14.349099999999993,6.3103 "></polygon><polygon points="20.84299999999999,5.7425 20.844899999999996,5.7425 20.84389999999999,5.7377 20.84299999999999,5.738300000000001 20.84299999999999,5.7425 "></polygon><polygon points="20.89580000000001,5.805 20.89760000000001,5.8047 20.896299999999997,5.8019 20.89529999999999,5.803800000000001 20.89580000000001,5.805 "></polygon><polygon points="20.938299999999998,5.8239 20.939699999999988,5.821899999999999 20.931299999999993,5.820499999999999 20.92609999999999,5.8208 20.921099999999996,5.8233 20.92609999999999,5.823 20.928799999999995,5.8283000000000005 20.932199999999995,5.8283000000000005 20.938299999999998,5.8239 "></polygon><polygon points="20.92840000000001,5.8369 20.931099999999986,5.8378 20.931600000000003,5.836399999999999 20.92609999999999,5.8314 20.92519999999999,5.8322 20.928300000000007,5.8347999999999995 20.92840000000001,5.8369 "></polygon><polygon points="20.910799999999995,5.8568999999999996 20.910499999999985,5.8589 20.912499999999994,5.8597 20.911900000000003,5.8568999999999996 20.910799999999995,5.8568999999999996 "></polygon><polygon points="20.87190000000001,5.9140999999999995 20.8733,5.9094 20.871099999999984,5.9064 20.866600000000005,5.904400000000001 20.8613,5.9063 20.859399999999994,5.9108 20.866899999999987,5.919700000000001 20.866600000000005,5.9254999999999995 20.87360000000001,5.9350000000000005 20.877700000000004,5.9375 20.879400000000004,5.9358 20.877999999999986,5.930299999999999 20.879699999999985,5.9254999999999995 20.876299999999986,5.923 20.877199999999988,5.9183 20.876100000000008,5.916399999999999 20.87440000000001,5.9147 20.871099999999984,5.914999999999999 20.87190000000001,5.9140999999999995 "></polygon><polygon points="20.787199999999984,5.9611 20.7894,5.962999999999999 20.79159999999999,5.9619 20.7919,5.9564 20.788299999999992,5.9533000000000005 20.781599999999997,5.952999999999999 20.78049999999999,5.9519 20.781299999999987,5.9489 20.7783,5.946899999999999 20.77770000000001,5.9514 20.774399999999986,5.9544 20.775000000000006,5.9603 20.77770000000001,5.9633 20.781599999999997,5.964700000000001 20.787199999999984,5.9611 "></polygon><polygon points="20.8622,5.9575 20.863,5.954700000000001 20.860500000000002,5.9511 20.856400000000008,5.9521999999999995 20.85300000000001,5.955299999999999 20.854899999999986,5.9603 20.859099999999984,5.961399999999999 20.859099999999984,5.9597 20.8622,5.9575 "></polygon><polygon points="20.87440000000001,5.9625 20.865800000000007,5.9582999999999995 20.8613,5.959999999999999 20.863,5.9643999999999995 20.8716,5.9666 20.875499999999988,5.965 20.87440000000001,5.9625 "></polygon><polygon points="20.40610000000001,6.009 20.40379999999999,6.0083 20.397099999999995,6.0138 20.401600000000002,6.013299999999999 20.406299999999987,6.015499999999999 20.40610000000001,6.009 "></polygon><polygon points="20.403400000000005,6.0198 20.405200000000008,6.018599999999999 20.403599999999983,6.017200000000001 20.40270000000001,6.017799999999999 20.403400000000005,6.0198 "></polygon><polygon points="20.40299999999999,6.0341000000000005 20.401399999999995,6.035500000000001 20.400199999999984,6.034699999999999 20.4041,6.0305 20.40469999999999,6.0280000000000005 20.40299999999999,6.0258 20.397999999999996,6.035500000000001 20.400800000000004,6.038 20.4041,6.034699999999999 20.40299999999999,6.0341000000000005 "></polygon><polygon points="20.807999999999993,5.973599999999999 20.807500000000005,5.9711 20.809699999999992,5.968299999999999 20.806600000000003,5.966099999999999 20.8022,5.9694 20.803300000000007,5.9741 20.807999999999993,5.973599999999999 "></polygon><polygon points="20.829999999999984,5.9708000000000006 20.824700000000007,5.9703 20.82249999999999,5.9636 20.81880000000001,5.9664 20.8211,5.977499999999999 20.8194,5.977499999999999 20.819699999999983,5.98 20.82910000000001,5.9864 20.83359999999999,5.978 20.83359999999999,5.974399999999999 20.829999999999984,5.9708000000000006 "></polygon><polygon points="20.801600000000008,5.98 20.801299999999998,5.978 20.797699999999992,5.977499999999999 20.797699999999992,5.9817 20.801600000000008,5.98 "></polygon><polygon points="20.398599999999988,6.0389 20.398300000000006,6.0375 20.3955,6.036899999999999 20.391500000000008,6.0402000000000005 20.3913,6.0436 20.393599999999992,6.0441 20.398599999999988,6.0389 "></polygon><polygon points="20.346900000000005,6.059699999999999 20.34880000000001,6.058 20.347199999999987,6.0565999999999995 20.351399999999984,6.053100000000001 20.351499999999987,6.048299999999999 20.3502,6.0473 20.344099999999997,6.052999999999999 20.34219999999999,6.058 20.34299999999999,6.060499999999999 20.346900000000005,6.059699999999999 "></polygon><polygon points="20.367199999999997,6.0547 20.368300000000005,6.053599999999999 20.366600000000005,6.0527999999999995 20.358800000000002,6.056900000000001 20.36269999999999,6.0578 20.367199999999997,6.0547 "></polygon><polygon points="17.968999999999994,6.416399999999999 17.96459999999999,6.396699999999999 17.96199999999999,6.391299999999999 17.956999999999994,6.3881 17.947599999999994,6.3873999999999995 17.94810000000001,6.3885000000000005 17.955299999999994,6.3888 17.961299999999994,6.393800000000001 17.966499999999996,6.414899999999999 17.9718,6.424899999999999 17.970499999999987,6.4267 17.971900000000005,6.427099999999999 17.972999999999985,6.4253 17.968999999999994,6.416399999999999 "></polygon><polygon points="17.954999999999984,6.5969 17.959399999999988,6.5969 17.960499999999996,6.5947 17.963300000000004,6.5954999999999995 17.96969999999999,6.5916 17.973600000000005,6.582800000000001 17.983299999999986,6.5741 17.9872,6.568300000000001 17.985500000000002,6.5588999999999995 17.96969999999999,6.5222 17.96690000000001,6.5091 17.9658,6.4847 17.97200000000001,6.473800000000001 17.981099999999998,6.4658 17.98859999999999,6.4453 17.985199999999992,6.4366 17.974400000000003,6.427300000000001 17.974099999999993,6.4299 17.981599999999986,6.4353 17.985799999999983,6.4405 17.98689999999999,6.446999999999999 17.9794,6.4658 17.96860000000001,6.4747 17.962999999999994,6.488300000000001 17.964399999999983,6.4916 17.964100000000002,6.503299999999999 17.966099999999983,6.5166 17.97720000000001,6.542199999999999 17.9786,6.5486 17.984099999999984,6.558299999999999 17.984399999999994,6.569100000000001 17.971599999999995,6.5816 17.96690000000001,6.590299999999999 17.964100000000002,6.5922 17.95410000000001,6.5944 17.939400000000006,6.591900000000001 17.934699999999992,6.5878 17.932500000000005,6.581899999999999 17.92519999999999,6.5722000000000005 17.92410000000001,6.5664 17.919999999999987,6.5594 17.921899999999994,6.553599999999999 17.919700000000006,6.5497 17.921599999999984,6.548 17.918599999999998,6.5472 17.921099999999996,6.5443999999999996 17.9161,6.5455000000000005 17.919399999999996,6.5516000000000005 17.918000000000006,6.558299999999999 17.922699999999992,6.570499999999999 17.9366,6.593299999999999 17.937999999999988,6.595000000000001 17.944999999999993,6.595000000000001 17.952499999999986,6.598000000000001 17.954999999999984,6.5969 "></polygon><polygon points="17.735799999999983,6.6005 17.746099999999984,6.5891 17.755200000000002,6.5853 17.7611,6.5853 17.76769999999999,6.5822 17.773300000000006,6.577500000000001 17.7791,6.5778 17.786100000000005,6.5761 17.79220000000001,6.5725 17.795799999999986,6.5725 17.801299999999998,6.573 17.81219999999999,6.579700000000001 17.82220000000001,6.578899999999999 17.83019999999999,6.573600000000001 17.83269999999999,6.5739 17.835199999999986,6.571400000000001 17.84190000000001,6.57 17.845200000000006,6.5669 17.858299999999986,6.5611 17.864299999999986,6.5625 17.87469999999999,6.5516000000000005 17.8827,6.552999999999999 17.885199999999998,6.551399999999999 17.890500000000003,6.5511 17.893599999999992,6.5525 17.897999999999996,6.558 17.900800000000004,6.5555 17.912199999999984,6.556900000000001 17.9144,6.555299999999999 17.914999999999992,6.5516000000000005 17.91380000000001,6.550800000000001 17.911900000000003,6.554399999999999 17.898599999999988,6.5541 17.895099999999985,6.5503 17.889999999999986,6.5481 17.881399999999985,6.549199999999999 17.8759,6.5473 17.86500000000001,6.556900000000001 17.858800000000002,6.558 17.838300000000004,6.568899999999999 17.827499999999986,6.571899999999999 17.8211,6.577500000000001 17.814999999999998,6.5783000000000005 17.805499999999995,6.5715 17.794700000000006,6.57 17.789999999999992,6.5708 17.783799999999985,6.574999999999999 17.770999999999987,6.575799999999999 17.763800000000003,6.5816 17.75800000000001,6.581899999999999 17.745000000000005,6.5886 17.732699999999994,6.6015999999999995 17.72909999999999,6.597799999999999 17.72800000000001,6.5936 17.72550000000001,6.593 17.7252,6.5975 17.730500000000006,6.602499999999999 17.733599999999996,6.603 17.735799999999983,6.6005 "></polygon><polygon points="17.735799999999983,6.5954999999999995 17.732699999999994,6.5928 17.730799999999988,6.5937 17.730999999999995,6.5966000000000005 17.733000000000004,6.598599999999999 17.735799999999983,6.5954999999999995 "></polygon><polygon points="11.882199999999983,5.675000000000001 11.882499999999993,5.664999999999999 11.876900000000006,5.652200000000001 11.877700000000004,5.6503 11.872199999999992,5.6472 11.869699999999995,5.6494 11.87190000000001,5.6594 11.871800000000007,5.674899999999999 11.876800000000003,5.677099999999999 11.880200000000002,5.6769 11.882199999999983,5.675000000000001 "></polygon><polygon points="14.097999999999985,6.2697 14.099999999999994,6.2705 14.100500000000011,6.27 14.097700000000003,6.2675 14.097999999999985,6.2697 "></polygon><polygon points="14.182999999999993,6.322799999999999 14.180199999999985,6.318899999999999 14.180499999999995,6.3164 14.173599999999993,6.3118 14.172499999999985,6.3072 14.16409999999999,6.2989 14.162199999999984,6.2943999999999996 14.161300000000011,6.300000000000001 14.159099999999995,6.3025 14.156299999999987,6.3025 14.150499999999994,6.299099999999999 14.148799999999994,6.303599999999999 14.138800000000003,6.3094 14.135199999999998,6.309699999999999 14.132499999999993,6.3065999999999995 14.131599999999992,6.3078 14.131100000000004,6.311400000000001 14.13300000000001,6.3147 14.140799999999984,6.3161000000000005 14.145499999999998,6.3194 14.152999999999992,6.319100000000001 14.161599999999993,6.323 14.163600000000002,6.321899999999999 14.170799999999986,6.327500000000001 14.177500000000009,6.327500000000001 14.186599999999999,6.335800000000001 14.18719999999999,6.3383 14.18440000000001,6.344099999999999 14.185200000000009,6.3461 14.181600000000003,6.3447 14.179100000000005,6.3491 14.167399999999986,6.347199999999999 14.162700000000001,6.339700000000001 14.15379999999999,6.3378 14.151600000000002,6.34 14.152999999999992,6.341900000000001 14.151899999999983,6.3439 14.149699999999996,6.3416 14.144100000000009,6.3466000000000005 14.146299999999997,6.351100000000001 14.152199999999993,6.3553 14.153599999999983,6.3591 14.1558,6.3605 14.166599999999988,6.356400000000001 14.169099999999986,6.3536 14.172300000000007,6.3537 14.172200000000004,6.3561 14.166300000000007,6.3605 14.166899999999998,6.3675 14.169700000000006,6.3697 14.181899999999985,6.368 14.183899999999994,6.365499999999999 14.183599999999984,6.361599999999999 14.1875,6.357799999999999 14.188600000000008,6.3519000000000005 14.196100000000001,6.353899999999999 14.212999999999994,6.3436 14.211299999999994,6.338900000000001 14.212199999999996,6.3369 14.210000000000008,6.333 14.213599999999985,6.3247 14.212199999999996,6.3222000000000005 14.203599999999994,6.3269 14.201599999999985,6.329700000000001 14.194999999999993,6.331899999999999 14.197699999999998,6.3264 14.204100000000011,6.3247 14.20580000000001,6.3194 14.209100000000007,6.318300000000001 14.20750000000001,6.3169 14.20750000000001,6.3139 14.213599999999985,6.3064 14.213899999999995,6.303599999999999 14.211299999999994,6.3019 14.206099999999992,6.3027999999999995 14.202499999999986,6.2997 14.200799999999987,6.3003 14.1952,6.2966 14.189099999999996,6.2958 14.183599999999984,6.292999999999999 14.179399999999987,6.2966 14.177500000000009,6.3011 14.178599999999989,6.3064 14.182999999999993,6.3111 14.183599999999984,6.319100000000001 14.187700000000007,6.321899999999999 14.186599999999999,6.3278 14.183599999999984,6.3269 14.182999999999993,6.322799999999999 "></polygon><polygon points="14.094099999999997,6.3194 14.09190000000001,6.3194 14.09129999999999,6.321400000000001 14.094099999999997,6.321899999999999 14.094099999999997,6.3194 "></polygon><polygon points="14.448599999999999,6.0869 14.450199999999995,6.0886 14.451899999999995,6.0922 14.453599999999994,6.086600000000001 14.448299999999989,6.084099999999999 14.448599999999999,6.0869 "></polygon><polygon points="14.461899999999986,6.1233 14.460499999999996,6.125 14.462699999999984,6.1274999999999995 14.465499999999992,6.1272 14.467700000000008,6.124700000000001 14.46520000000001,6.1228 14.461899999999986,6.1233 "></polygon><polygon points="14.211299999999994,6.2003 14.214699999999993,6.1997 14.2149,6.1983 14.209699999999998,6.1966 14.20580000000001,6.1997 14.207699999999988,6.2014 14.211299999999994,6.2003 "></polygon><polygon points="14.220200000000006,6.2011 14.220200000000006,6.199999999999999 14.217500000000001,6.199400000000001 14.217700000000008,6.2005 14.220200000000006,6.2011 "></polygon><polygon points="7.030900000000003,6.230499999999999 7.031900000000007,6.2225 7.038800000000009,6.2166 7.038800000000009,6.2143999999999995 7.036599999999993,6.2128 7.028599999999983,6.219099999999999 7.027999999999992,6.228 7.0212999999999965,6.2339 7.022500000000008,6.2353000000000005 7.026600000000002,6.2353000000000005 7.030900000000003,6.230499999999999 "></polygon><polygon points="6.419499999999999,6.2996 6.413899999999984,6.2981 6.410200000000003,6.3012 6.41040000000001,6.302999999999999 6.416699999999992,6.3027999999999995 6.419499999999999,6.2996 "></polygon><polygon points="6.399499999999989,6.3217 6.397500000000008,6.321400000000001 6.396500000000003,6.3239 6.401299999999992,6.322799999999999 6.399499999999989,6.3217 "></polygon><polygon points="6.484999999999985,6.3208 6.487200000000001,6.328899999999999 6.4846,6.337899999999999 6.48660000000001,6.3385 6.488900000000001,6.3362 6.488200000000006,6.3317 6.489599999999996,6.3309 6.4868999999999915,6.32 6.483699999999999,6.318 6.484999999999985,6.3208 "></polygon><polygon points="14.407499999999999,6.344099999999999 14.410799999999995,6.341900000000001 14.410200000000003,6.339700000000001 14.411599999999993,6.3386 14.422499999999985,6.3355 14.428599999999989,6.3308 14.42410000000001,6.3210999999999995 14.427699999999987,6.316599999999999 14.42519999999999,6.3108 14.42689999999999,6.308 14.4255,6.298 14.427999999999997,6.2943999999999996 14.427699999999987,6.2919 14.422699999999992,6.287800000000001 14.416300000000007,6.2866 14.412700000000001,6.2897 14.411900000000003,6.291399999999999 14.41409999999999,6.2978000000000005 14.412199999999984,6.305299999999999 14.413800000000009,6.309099999999999 14.412700000000001,6.3149999999999995 14.407499999999999,6.3194 14.404699999999991,6.3186 14.403599999999983,6.319699999999999 14.396899999999988,6.3271999999999995 14.39609999999999,6.3322 14.392499999999984,6.336399999999999 14.392200000000003,6.341099999999999 14.395199999999988,6.343299999999999 14.401399999999995,6.3453 14.407499999999999,6.344099999999999 "></polygon><polygon points="14.242500000000007,6.3355 14.246399999999994,6.3322 14.247399999999999,6.325799999999999 14.244100000000003,6.3194 14.240199999999987,6.321899999999999 14.239100000000008,6.3255 14.231400000000008,6.334999999999999 14.237200000000001,6.336600000000001 14.242500000000007,6.3355 "></polygon><polygon points="14.464100000000002,6.3316 14.460000000000008,6.3264 14.454700000000003,6.3283000000000005 14.462699999999984,6.335800000000001 14.464699999999993,6.3344000000000005 14.464100000000002,6.3316 "></polygon><polygon points="11.762200000000007,6.324400000000001 11.764099999999985,6.3216 11.763000000000005,6.319699999999999 11.761400000000009,6.3216 11.762200000000007,6.324400000000001 "></polygon><polygon points="11.774399999999986,6.3264 11.768399999999986,6.3222000000000005 11.766300000000001,6.3225 11.767499999999984,6.3325 11.771299999999997,6.330500000000001 11.772199999999998,6.3316 11.771600000000007,6.3344000000000005 11.768,6.336399999999999 11.771600000000007,6.341099999999999 11.777299999999997,6.3375 11.776800000000009,6.329000000000001 11.774399999999986,6.3264 "></polygon><polygon points="11.753299999999996,6.3466000000000005 11.759299999999996,6.344099999999999 11.7594,6.3408 11.766099999999994,6.3368 11.7654,6.335800000000001 11.762200000000007,6.336399999999999 11.757199999999983,6.3332999999999995 11.746099999999984,6.34 11.742699999999985,6.345000000000001 11.743799999999993,6.347199999999999 11.746999999999986,6.347799999999999 11.753299999999996,6.3466000000000005 "></polygon><polygon points="11.766099999999994,6.337999999999999 11.761599999999987,6.340299999999999 11.760400000000004,6.3431 11.767200000000003,6.3422 11.76769999999999,6.340299999999999 11.766099999999994,6.337999999999999 "></polygon><polygon points="6.437299999999993,6.34 6.438299999999998,6.3392 6.4384000000000015,6.337299999999999 6.435599999999994,6.3392 6.437299999999993,6.34 "></polygon><polygon points="6.431299999999993,6.343999999999999 6.432799999999986,6.3439 6.433099999999996,6.340400000000001 6.430900000000008,6.3428 6.431299999999993,6.343999999999999 "></polygon><polygon points="6.463599999999985,6.341900000000001 6.461099999999988,6.3414 6.461999999999989,6.3454999999999995 6.467399999999998,6.345599999999999 6.463599999999985,6.341900000000001 "></polygon><polygon points="6.4062999999999874,6.3482 6.412700000000001,6.350199999999999 6.417200000000008,6.347199999999999 6.404300000000006,6.341200000000001 6.403599999999983,6.3453 6.4062999999999874,6.3482 "></polygon><polygon points="9.610799999999983,6.3597 9.615000000000009,6.357200000000001 9.606099999999998,6.352499999999999 9.60159999999999,6.3483 9.598800000000011,6.3489 9.599400000000003,6.3544 9.603000000000009,6.359999999999999 9.610799999999983,6.3597 "></polygon><polygon points="8.73660000000001,6.3789 8.740000000000009,6.3809000000000005 8.740499999999997,6.3804 8.738599999999991,6.377000000000001 8.7363,6.3772 8.73660000000001,6.3789 "></polygon><polygon points="14.317700000000002,6.3636 14.315799999999996,6.3583 14.311599999999999,6.356400000000001 14.311299999999989,6.3628 14.316599999999994,6.366099999999999 14.317700000000002,6.3636 "></polygon><polygon points="14.246099999999984,6.389099999999999 14.250799999999998,6.3864 14.24969999999999,6.3825 14.247399999999999,6.381399999999999 14.236899999999991,6.383900000000001 14.240000000000009,6.390499999999999 14.246099999999984,6.389099999999999 "></polygon><polygon points="14.426600000000008,6.440799999999999 14.427999999999997,6.441599999999999 14.435100000000006,6.434900000000001 14.429399999999987,6.4285 14.430499999999995,6.4262999999999995 14.437299999999993,6.433199999999999 14.454399999999993,6.435499999999999 14.45519999999999,6.433299999999999 14.448599999999999,6.4289000000000005 14.456600000000009,6.427999999999999 14.460499999999996,6.425000000000001 14.474400000000003,6.427999999999999 14.476300000000009,6.4236 14.475500000000011,6.421099999999999 14.470799999999997,6.4178 14.4666,6.4193999999999996 14.456099999999992,6.4186 14.449700000000007,6.411899999999999 14.442499999999995,6.410500000000001 14.440200000000004,6.4061 14.4375,6.4047 14.440799999999996,6.4 14.439999999999998,6.3986 14.417399999999986,6.3864 14.417200000000008,6.3896999999999995 14.4144,6.393599999999999 14.414999999999992,6.4030000000000005 14.411100000000005,6.413600000000001 14.41579999999999,6.4247 14.415199999999999,6.4289000000000005 14.410200000000003,6.4314 14.423299999999983,6.4436 14.426600000000008,6.440799999999999 "></polygon><polygon points="14.474099999999993,6.4536 14.474400000000003,6.455500000000001 14.476300000000009,6.4544 14.475799999999992,6.4533000000000005 14.474099999999993,6.4536 "></polygon><polygon points="5.655000000000001,5.6569 5.651099999999985,5.6564 5.648300000000006,5.6579999999999995 5.65270000000001,5.658899999999999 5.655000000000001,5.6569 "></polygon><polygon points="5.604399999999998,5.673 5.604099999999988,5.6747 5.606099999999998,5.675800000000001 5.607200000000006,5.673299999999999 5.604399999999998,5.673 "></polygon><polygon points="7.0197,6.216099999999999 7.015500000000003,6.2143999999999995 7.012399999999985,6.2155000000000005 7.024100000000004,6.2194 7.0197,6.216099999999999 "></polygon><polygon points="7.008600000000001,6.2219 7.009399999999999,6.2233 7.011400000000009,6.2219 7.009999999999991,6.2204999999999995 7.008600000000001,6.2219 "></polygon><polygon points="6.4506999999999834,6.331099999999999 6.4480000000000075,6.331300000000001 6.447299999999984,6.332800000000001 6.45750000000001,6.3347 6.454900000000009,6.331300000000001 6.4506999999999834,6.331099999999999 "></polygon><polygon points="6.39500000000001,6.3332999999999995 6.39609999999999,6.3347 6.397699999999986,6.333600000000001 6.3966000000000065,6.3316 6.39500000000001,6.3332999999999995 "></polygon><polygon points="6.441599999999994,6.3355 6.44380000000001,6.337299999999999 6.4436000000000035,6.333 6.442999999999984,6.3332999999999995 6.441599999999994,6.3355 "></polygon><polygon points="6.398300000000006,6.3375 6.400199999999984,6.3378 6.398300000000006,6.334099999999999 6.397500000000008,6.3355 6.398300000000006,6.3375 "></polygon><polygon points="6.430399999999992,6.3477 6.431299999999993,6.344899999999999 6.430000000000007,6.3437 6.4202999999999975,6.348800000000001 6.423599999999993,6.350300000000001 6.430399999999992,6.3477 "></polygon><polygon points="6.484199999999987,6.3393999999999995 6.479099999999988,6.344099999999999 6.473299999999995,6.344799999999999 6.47829999999999,6.350099999999999 6.480400000000003,6.355499999999999 6.483599999999996,6.3568 6.485600000000005,6.355700000000001 6.4863,6.352399999999999 6.4863,6.341900000000001 6.484199999999987,6.3393999999999995 "></polygon><polygon points="2.990399999999994,7.0893 2.9879999999999995,7.09 2.9909000000000106,7.090200000000001 2.9928999999999917,7.087200000000001 2.990399999999994,7.0893 "></polygon><polygon points="2.980799999999988,7.103300000000001 2.9868999999999915,7.092500000000001 2.9860999999999933,7.0905000000000005 2.9798999999999864,7.095000000000001 2.9757999999999925,7.105 2.9798999999999864,7.105500000000001 2.980799999999988,7.103300000000001 "></polygon><polygon points="2.9724999999999966,7.1112 2.974899999999991,7.110100000000001 2.975699999999989,7.106300000000001 2.9724999999999966,7.1106 2.9724999999999966,7.1112 "></polygon><polygon points="2.9354999999999905,7.1241 2.933899999999994,7.125500000000001 2.9350000000000023,7.1264 2.9369000000000085,7.125 2.9354999999999905,7.1241 "></polygon><polygon points="2.911900000000003,7.1303 2.914999999999992,7.1311 2.9173999999999864,7.1303 2.9132999999999925,7.1286000000000005 2.911900000000003,7.1303 "></polygon><polygon points="7.0878999999999905,7.5512999999999995 7.0878999999999905,7.552900000000001 7.093500000000006,7.556100000000001 7.091700000000003,7.5518 7.0878999999999905,7.5512999999999995 "></polygon><polygon points="9.302400000000006,7.0578 9.303899999999999,7.059700000000001 9.305999999999983,7.0603 9.304399999999987,7.0571 9.302400000000006,7.0578 "></polygon><polygon points="10.223600000000005,7.0808 10.222999999999985,7.0764 10.220499999999987,7.0753 10.21860000000001,7.0814 10.2192,7.0855 10.223600000000005,7.0808 "></polygon><polygon points="13.91409999999999,7.521600000000001 13.913299999999992,7.5268 13.914199999999994,7.528600000000001 13.916799999999995,7.5258 13.915699999999987,7.5184999999999995 13.91409999999999,7.521600000000001 "></polygon><polygon points="12.994,7.5413 12.990800000000007,7.5427 12.988499999999988,7.546800000000001 12.991199999999992,7.5479 12.997500000000002,7.5451999999999995 12.998199999999997,7.5417000000000005 12.994,7.5413 "></polygon><polygon points="14.387,7.4572 14.388199999999983,7.4596 14.390500000000003,7.458600000000001 14.389499999999998,7.4571000000000005 14.387,7.4572 "></polygon><polygon points="14.262499999999989,7.5219000000000005 14.262100000000004,7.5207999999999995 14.2603,7.521000000000001 14.260899999999992,7.5222 14.262499999999989,7.5219000000000005 "></polygon><polygon points="14.262399999999985,7.5311 14.26230000000001,7.5299 14.260400000000004,7.5297 14.26060000000001,7.5311 14.262399999999985,7.5311 "></polygon><polygon points="12.26830000000001,7.5678 12.261599999999987,7.5586 12.262399999999985,7.553000000000001 12.266600000000011,7.546100000000001 12.265500000000003,7.5436 12.261899999999997,7.5425 12.256100000000004,7.5472 12.256900000000002,7.5516000000000005 12.255499999999984,7.5594 12.276399999999995,7.579700000000001 12.276399999999995,7.5769 12.26830000000001,7.5678 "></polygon><polygon points="7.094599999999986,7.5617 7.094500000000011,7.5649999999999995 7.101100000000002,7.565100000000001 7.099799999999988,7.5611999999999995 7.094599999999986,7.5617 "></polygon><polygon points="12.912700000000001,7.7264 12.9118,7.7295 12.909999999999997,7.7324 12.914799999999985,7.729000000000001 12.915999999999997,7.723800000000001 12.913600000000002,7.723600000000001 12.912700000000001,7.7264 "></polygon><polygon points="12.86269999999999,7.772400000000001 12.862799999999993,7.774100000000001 12.865099999999984,7.774700000000001 12.870100000000008,7.7729 12.868200000000002,7.7706 12.86269999999999,7.772400000000001 "></polygon><polygon points="12.642799999999994,7.9214 12.639800000000008,7.9185 12.6387,7.9186 12.63839999999999,7.9201 12.641300000000001,7.923500000000001 12.643100000000004,7.923400000000001 12.642799999999994,7.9214 "></polygon><polygon points="12.697000000000003,7.957600000000001 12.700500000000005,7.9605 12.707699999999988,7.960000000000001 12.706600000000009,7.9574 12.701799999999992,7.955300000000001 12.697000000000003,7.957600000000001 "></polygon><polygon points="7.960199999999986,8.2011 7.95750000000001,8.1999 7.95750000000001,8.2037 7.955500000000001,8.205300000000001 7.957999999999998,8.205300000000001 7.960199999999986,8.2011 "></polygon><polygon points="14.59360000000001,6.2951999999999995 14.593799999999987,6.292999999999999 14.590499999999992,6.292999999999999 14.59190000000001,6.295299999999999 14.59360000000001,6.2951999999999995 "></polygon><polygon points="14.525199999999984,6.3033 14.523300000000006,6.3033 14.525499999999994,6.306100000000001 14.526899999999983,6.305299999999999 14.525199999999984,6.3033 "></polygon><polygon points="14.507199999999983,6.3896999999999995 14.507199999999983,6.3919 14.50970000000001,6.3903 14.508800000000008,6.3889 14.507199999999983,6.3896999999999995 "></polygon><polygon points="14.573299999999989,6.3986 14.573000000000008,6.397499999999999 14.569400000000002,6.4 14.572699999999998,6.4 14.573299999999989,6.3986 "></polygon><polygon points="14.368599999999986,6.34 14.372700000000009,6.334999999999999 14.358299999999986,6.327999999999999 14.357499999999987,6.3291 14.360199999999992,6.3339 14.358800000000002,6.3386 14.36330000000001,6.3422 14.368599999999986,6.34 "></polygon><polygon points="14.329100000000011,6.3383 14.3305,6.34 14.331600000000009,6.34 14.331099999999992,6.3361 14.329700000000003,6.335800000000001 14.329100000000011,6.3383 "></polygon><polygon points="14.447699999999998,6.3652999999999995 14.452699999999993,6.3644 14.4555,6.3619 14.464399999999983,6.3644 14.469400000000007,6.3641000000000005 14.470499999999987,6.362500000000001 14.467500000000001,6.358599999999999 14.45580000000001,6.3544 14.46799999999999,6.354100000000001 14.472999999999985,6.3558 14.476499999999987,6.3513 14.473299999999995,6.347199999999999 14.4683,6.3454999999999995 14.46629999999999,6.346399999999999 14.462500000000006,6.3447 14.460199999999986,6.3475 14.45859999999999,6.3414 14.454399999999993,6.337199999999999 14.441100000000006,6.3391 14.438299999999998,6.336399999999999 14.43549999999999,6.340299999999999 14.43610000000001,6.347799999999999 14.433599999999984,6.351100000000001 14.439699999999988,6.3636 14.442199999999985,6.366099999999999 14.447699999999998,6.3652999999999995 "></polygon><polygon points="14.286100000000005,6.3705 14.291300000000007,6.3614 14.297200000000004,6.3558 14.3005,6.353899999999999 14.305199999999985,6.3553 14.309499999999986,6.353899999999999 14.3108,6.350999999999999 14.314099999999996,6.3489 14.313799999999986,6.3466000000000005 14.308599999999984,6.347199999999999 14.304100000000005,6.343299999999999 14.299399999999991,6.346399999999999 14.293599999999998,6.3461 14.288800000000009,6.352499999999999 14.282499999999999,6.351100000000001 14.27770000000001,6.3466000000000005 14.275000000000006,6.3475 14.274699999999996,6.3497 14.27879999999999,6.3536 14.2791,6.363300000000001 14.284099999999995,6.369400000000001 14.282199999999989,6.3719 14.286100000000005,6.3705 "></polygon><polygon points="14.460800000000006,6.4589 14.45689999999999,6.4582999999999995 14.454100000000011,6.4558 14.452200000000005,6.4572 14.452499999999986,6.461399999999999 14.454999999999984,6.4625 14.45859999999999,6.461600000000001 14.460800000000006,6.4589 "></polygon><polygon points="14.328299999999984,6.5097000000000005 14.331299999999999,6.5078 14.3322,6.506399999999999 14.328299999999984,6.507199999999999 14.323900000000009,6.511100000000001 14.328299999999984,6.5097000000000005 "></polygon><polygon points="14.461099999999988,6.535299999999999 14.460199999999986,6.5329999999999995 14.458799999999997,6.5341000000000005 14.460199999999986,6.535500000000001 14.461099999999988,6.535299999999999 "></polygon><polygon points="14.427999999999997,6.5594 14.429699999999997,6.556900000000001 14.428799999999995,6.555299999999999 14.4272,6.558299999999999 14.427999999999997,6.5594 "></polygon><polygon points="14.542200000000008,6.4872 14.5411,6.4864 14.53970000000001,6.4879999999999995 14.5411,6.491099999999999 14.543299999999988,6.489699999999999 14.542200000000008,6.4872 "></polygon><polygon points="14.54910000000001,6.5024999999999995 14.548299999999983,6.5016 14.545199999999994,6.504099999999999 14.545799999999986,6.506600000000001 14.549399999999991,6.507199999999999 14.54910000000001,6.5024999999999995 "></polygon><polygon points="14.516300000000001,6.572799999999999 14.516099999999994,6.5747 14.519100000000009,6.5764 14.521199999999993,6.574400000000001 14.51830000000001,6.571400000000001 14.516300000000001,6.572799999999999 "></polygon><polygon points="14.512200000000007,6.5786 14.514099999999985,6.5808 14.516300000000001,6.577999999999999 14.514700000000005,6.5764 14.512200000000007,6.5786 "></polygon><polygon points="8.743599999999986,6.387499999999999 8.744399999999985,6.3896999999999995 8.745499999999993,6.3850999999999996 8.742400000000004,6.383699999999999 8.743599999999986,6.387499999999999 "></polygon><polygon points="8.719099999999997,6.4282 8.720399999999984,6.427199999999999 8.717500000000001,6.4269 8.717700000000008,6.4277 8.719099999999997,6.4282 "></polygon><polygon points="8.953800000000001,6.4254999999999995 8.950500000000005,6.43 8.954100000000011,6.4375 8.957999999999998,6.432499999999999 8.957999999999998,6.4289000000000005 8.956299999999999,6.425800000000001 8.953800000000001,6.4254999999999995 "></polygon><polygon points="8.720799999999997,6.458600000000001 8.722999999999985,6.459999999999999 8.720799999999997,6.4557 8.719999999999999,6.4564 8.720799999999997,6.458600000000001 "></polygon><polygon points="8.838899999999995,6.481400000000001 8.840100000000007,6.479699999999999 8.838899999999995,6.477499999999999 8.837199999999996,6.479100000000001 8.838899999999995,6.481400000000001 "></polygon><polygon points="8.746399999999994,6.481199999999999 8.742699999999985,6.486599999999999 8.745200000000011,6.490499999999999 8.746999999999986,6.4907 8.74969999999999,6.485799999999999 8.749300000000005,6.4832 8.746399999999994,6.481199999999999 "></polygon><polygon points="8.907099999999986,6.4933 8.90549999999999,6.4914000000000005 8.901099999999985,6.494400000000001 8.90379999999999,6.4963999999999995 8.907099999999986,6.4933 "></polygon><polygon points="12.006799999999998,6.510400000000001 12.004199999999997,6.510400000000001 12.002299999999991,6.511100000000001 12.006,6.512599999999999 12.007599999999996,6.5115 12.006799999999998,6.510400000000001 "></polygon><polygon points="11.987099999999998,6.511900000000001 11.98320000000001,6.512700000000001 11.98599999999999,6.5161 11.995299999999986,6.5116 11.987099999999998,6.511900000000001 "></polygon><polygon points="11.96860000000001,6.5611999999999995 11.969099999999997,6.559799999999999 11.967700000000008,6.558999999999999 11.967099999999988,6.5616 11.9683,6.5626 11.96860000000001,6.5611999999999995 "></polygon><polygon points="12.00800000000001,6.6158 12.008299999999991,6.611599999999999 12.000200000000007,6.6066 11.999400000000009,6.6111 12.001900000000006,6.6164000000000005 12.007499999999993,6.6183 12.00800000000001,6.6158 "></polygon><polygon points="8.452499999999986,6.6784 8.456500000000005,6.680899999999999 8.457799999999992,6.6806 8.457099999999997,6.675800000000001 8.452499999999986,6.6784 "></polygon><polygon points="14.3716,6.6541 14.370800000000003,6.6533 14.369399999999985,6.6547 14.371399999999994,6.6555 14.3716,6.6541 "></polygon><polygon points="14.317499999999995,7.4045000000000005 14.317800000000005,7.407400000000001 14.3202,7.4087 14.3245,7.4069 14.324399999999997,7.4047 14.322100000000006,7.4031 14.317499999999995,7.4045000000000005 "></polygon><polygon points="14.305599999999998,7.4085 14.306299999999993,7.4108 14.311199999999985,7.409700000000001 14.310100000000006,7.4087 14.305599999999998,7.4085 "></polygon><polygon points="14.358599999999996,7.4291 14.363499999999988,7.4331 14.366099999999989,7.4313 14.363399999999984,7.4282 14.357699999999994,7.427900000000001 14.358599999999996,7.4291 "></polygon><polygon points="14.448399999999992,6.632300000000001 14.448599999999999,6.6303 14.44720000000001,6.629099999999999 14.445799999999991,6.630800000000001 14.448399999999992,6.632300000000001 "></polygon><polygon points="14.437700000000007,6.6372 14.439799999999991,6.636799999999999 14.438799999999986,6.6341 14.43719999999999,6.6355 14.437700000000007,6.6372 "></polygon><polygon points="14.403599999999983,6.6469000000000005 14.4024,6.648899999999999 14.406299999999987,6.647499999999999 14.40549999999999,6.646599999999999 14.403599999999983,6.6469000000000005 "></polygon><polygon points="14.3416,6.651400000000001 14.337699999999984,6.649100000000001 14.334100000000007,6.6503 14.338599999999985,6.654400000000001 14.34299999999999,6.6539 14.3416,6.651400000000001 "></polygon><polygon points="14.4863,7.5356000000000005 14.486899999999991,7.5326 14.479399999999998,7.5311 14.476499999999987,7.5322 14.47569999999999,7.5357 14.4863,7.5356000000000005 "></polygon><polygon points="14.488699999999994,7.537800000000001 14.495599999999996,7.5419 14.498500000000007,7.5405 14.497899999999987,7.5389 14.489200000000011,7.5343 14.48769999999999,7.5351 14.488699999999994,7.537800000000001 "></polygon><polygon points="14.674299999999988,7.5678 14.673599999999993,7.565900000000001 14.672200000000004,7.566600000000001 14.672699999999992,7.568300000000001 14.674299999999988,7.5678 "></polygon><polygon points="14.612499999999983,7.5647 14.610199999999992,7.5641 14.60820000000001,7.565800000000001 14.607200000000006,7.568300000000001 14.609399999999994,7.57 14.607699999999994,7.573600000000001 14.612899999999996,7.5687 14.612499999999983,7.5647 "></polygon><polygon points="14.603800000000007,7.5710999999999995 14.605899999999991,7.5693 14.603000000000009,7.568300000000001 14.6019,7.569700000000001 14.603800000000007,7.5710999999999995 "></polygon><polygon points="14.819400000000002,7.5861 14.823299999999989,7.5847 14.814699999999988,7.5825 14.808300000000003,7.5853 14.808300000000003,7.587200000000001 14.8125,7.5855 14.819400000000002,7.5861 "></polygon><polygon points="14.917399999999986,7.6716 14.916300000000007,7.6705000000000005 14.918399999999991,7.6683 14.917200000000008,7.665000000000001 14.913000000000011,7.6633 14.9118,7.665000000000001 14.91409999999999,7.668900000000001 14.913299999999992,7.6736 14.91579999999999,7.6744 14.917399999999986,7.6716 "></polygon><polygon points="14.74860000000001,7.688000000000001 14.74690000000001,7.6866 14.745800000000003,7.6866 14.746399999999994,7.688000000000001 14.74860000000001,7.688000000000001 "></polygon><polygon points="14.749099999999999,7.693900000000001 14.751100000000008,7.6966 14.751900000000006,7.6960999999999995 14.751100000000008,7.693300000000001 14.749099999999999,7.693900000000001 "></polygon><polygon points="14.753799999999984,7.703900000000001 14.754400000000004,7.703000000000001 14.752999999999986,7.701600000000001 14.752700000000004,7.7033000000000005 14.753799999999984,7.703900000000001 "></polygon><polygon points="14.752199999999988,7.7141 14.752999999999986,7.7158 14.756100000000004,7.7143999999999995 14.755499999999984,7.7136 14.752199999999988,7.7141 "></polygon><polygon points="0.06379999999998631,7.271600000000001 0.06110000000001037,7.2714 0.060000000000002274,7.274100000000001 0.0636000000000081,7.274700000000001 0.06379999999998631,7.271600000000001 "></polygon><polygon points="0.08689999999998577,7.2905 0.0876999999999839,7.291400000000001 0.08830000000000382,7.2894000000000005 0.08629999999999427,7.2875 0.08689999999998577,7.2905 "></polygon><polygon points="0.0,7.362500000000001 0.0004999999999881766,7.3636 0.0024999999999977263,7.362500000000001 0.001599999999996271,7.361600000000001 0.0,7.362500000000001 "></polygon><polygon points="0.12299999999999045,7.518000000000001 0.12250000000000227,7.52 0.1244000000000085,7.521100000000001 0.12549999999998818,7.5197 0.12299999999999045,7.518000000000001 "></polygon><polygon points="0.1418999999999926,7.531600000000001 0.140199999999993,7.532500000000001 0.1413000000000011,7.533900000000001 0.14330000000001064,7.5329999999999995 0.1418999999999926,7.531600000000001 "></polygon><polygon points="0.6437999999999988,8.4239 0.6441000000000088,8.4205 0.6407999999999845,8.418000000000001 0.6365999999999872,8.4161 0.6302000000000021,8.4166 0.629099999999994,8.428 0.6307999999999936,8.4414 0.6340999999999894,8.4466 0.6332999999999913,8.4489 0.6349999999999909,8.4503 0.6349999999999909,8.4539 0.6388000000000034,8.4558 0.6385999999999967,8.4589 0.640199999999993,8.4611 0.6355000000000075,8.4664 0.6365999999999872,8.4705 0.6443999999999903,8.4791 0.6508000000000038,8.483600000000001 0.6537999999999897,8.4922 0.6504999999999939,8.4978 0.657999999999987,8.5005 0.6574999999999989,8.507200000000001 0.6602000000000032,8.5097 0.6604999999999848,8.5136 0.6644000000000005,8.5172 0.6676999999999964,8.5244 0.6715999999999838,8.5253 0.6783000000000072,8.5336 0.6768999999999892,8.5372 0.68719999999999,8.5539 0.6976999999999975,8.563 0.7083000000000084,8.5653 0.7125000000000057,8.5611 0.7125000000000057,8.5555 0.7068999999999903,8.5547 0.7091000000000065,8.5494 0.7038000000000011,8.547500000000001 0.7043999999999926,8.5444 0.7083000000000084,8.5469 0.7104999999999961,8.5419 0.7058000000000106,8.5397 0.7035999999999945,8.5364 0.7087999999999965,8.5378 0.7169000000000096,8.5444 0.7219000000000051,8.5383 0.7272000000000105,8.543000000000001 0.7221999999999866,8.545 0.7202000000000055,8.548300000000001 0.7224999999999966,8.5525 0.7202000000000055,8.557500000000001 0.720799999999997,8.5603 0.7282999999999902,8.5678 0.7305000000000064,8.5753 0.7349999999999852,8.5794 0.7349999999999852,8.5825 0.738599999999991,8.5875 0.7435999999999865,8.5905 0.7487999999999886,8.59 0.754099999999994,8.5783 0.7524999999999977,8.5647 0.7466000000000008,8.5572 0.7450000000000045,8.551400000000001 0.7410999999999888,8.557500000000001 0.7416000000000054,8.560500000000001 0.7391000000000076,8.558300000000001 0.7393999999999892,8.5553 0.7368999999999915,8.5541 0.7421999999999969,8.552200000000001 0.7471999999999923,8.5419 0.7466000000000008,8.5383 0.7443999999999846,8.5372 0.7483000000000004,8.535300000000001 0.7471999999999923,8.5297 0.7441000000000031,8.528 0.7454999999999927,8.5253 0.7490999999999985,8.5303 0.7580000000000098,8.5336 0.7635999999999967,8.5405 0.7680000000000007,8.541400000000001 0.7712999999999965,8.5391 0.772199999999998,8.533 0.7635999999999967,8.5191 0.7640999999999849,8.51 0.7576999999999998,8.5036 0.7483000000000004,8.4978 0.7466000000000008,8.5008 0.7466000000000008,8.5075 0.7487999999999886,8.5108 0.7466000000000008,8.5111 0.7446999999999946,8.5083 0.7454999999999927,8.503 0.7425000000000068,8.5008 0.743300000000005,8.497200000000001 0.737499999999983,8.49 0.7340999999999838,8.4905 0.725200000000001,8.4883 0.7187999999999874,8.489700000000001 0.7171999999999912,8.4916 0.7162999999999897,8.4978 0.7196999999999889,8.5028 0.7182999999999993,8.505 0.7196999999999889,8.509400000000001 0.7171999999999912,8.5089 0.7160999999999831,8.5044 0.7135999999999854,8.5025 0.7116000000000042,8.5083 0.7135999999999854,8.5111 0.7104999999999961,8.5139 0.7158000000000015,8.5275 0.7146999999999935,8.5286 0.714100000000002,8.5258 0.709699999999998,8.5297 0.7125000000000057,8.5244 0.7108000000000061,8.5211 0.7043999999999926,8.5205 0.7072000000000003,8.5172 0.704100000000011,8.515500000000001 0.7047000000000025,8.5108 0.702699999999993,8.5111 0.6993999999999971,8.5164 0.698299999999989,8.515 0.7005000000000052,8.5111 0.6990999999999872,8.5091 0.6929999999999836,8.5097 0.691900000000004,8.5086 0.698900000000009,8.5053 0.6980000000000075,8.5014 0.7015999999999849,8.495800000000001 0.6957999999999913,8.4939 0.7013000000000034,8.4886 0.7005000000000052,8.4875 0.6968999999999994,8.49 0.6961000000000013,8.4891 0.6976999999999975,8.4839 0.6968999999999994,8.4766 0.6899999999999977,8.4725 0.6841000000000008,8.4761 0.6838999999999942,8.4814 0.6829999999999927,8.478 0.6779999999999973,8.4769 0.6812999999999931,8.4764 0.6812999999999931,8.473 0.6743999999999915,8.4689 0.6771999999999991,8.4647 0.6707999999999856,8.4633 0.6665999999999883,8.4558 0.662700000000001,8.458 0.662700000000001,8.4539 0.6596999999999866,8.4519 0.6552000000000078,8.4514 0.65270000000001,8.4533 0.6496999999999957,8.450800000000001 0.647199999999998,8.4464 0.6496999999999957,8.443900000000001 0.6504999999999939,8.4389 0.6451999999999884,8.4364 0.646899999999988,8.4344 0.6433000000000106,8.4311 0.6437999999999988,8.4239 "></polygon><polygon points="7.081999999999994,7.5718 7.079900000000009,7.5741 7.082400000000007,7.575700000000001 7.0822,7.578200000000001 7.08359999999999,7.5784 7.085399999999993,7.575700000000001 7.084900000000005,7.5716 7.081999999999994,7.5718 "></polygon><polygon points="3.1055000000000064,8.741900000000001 3.0999999999999943,8.7394 3.092500000000001,8.7303 3.0875000000000057,8.7283 3.0825000000000102,8.7301 3.0831000000000017,8.7357 3.0860999999999876,8.7375 3.089100000000002,8.742700000000001 3.094699999999989,8.7461 3.0986000000000047,8.745800000000001 3.101300000000009,8.7475 3.1055000000000064,8.741900000000001 "></polygon><polygon points="2.4235999999999933,8.892800000000001 2.427500000000009,8.8908 2.4279999999999973,8.8889 2.4199999999999875,8.890500000000001 2.4173999999999864,8.8925 2.418599999999998,8.8939 2.4235999999999933,8.892800000000001 "></polygon><polygon points="2.396899999999988,8.9039 2.3987999999999943,8.9022 2.3959999999999866,8.9011 2.395700000000005,8.9029 2.396899999999988,8.9039 "></polygon><polygon points="0.7326999999999941,8.607800000000001 0.7360999999999933,8.6022 0.7340999999999838,8.595 0.7372000000000014,8.5886 0.7340999999999838,8.5836 0.7286000000000001,8.587200000000001 0.7289000000000101,8.59 0.7255000000000109,8.5897 0.7238000000000113,8.5939 0.7171999999999912,8.5991 0.7194000000000074,8.6066 0.726300000000009,8.6125 0.7288000000000068,8.613 0.7326999999999941,8.607800000000001 "></polygon><polygon points="2.2479999999999905,8.7569 2.24969999999999,8.755 2.2490999999999985,8.754100000000001 2.246600000000001,8.755 2.2479999999999905,8.7569 "></polygon><polygon points="2.272699999999986,8.8386 2.271899999999988,8.8347 2.2697000000000003,8.8419 2.271899999999988,8.8405 2.272699999999986,8.8386 "></polygon><polygon points="2.185200000000009,8.84 2.1844999999999857,8.8382 2.1831999999999994,8.8382 2.1831999999999994,8.8399 2.185200000000009,8.84 "></polygon><polygon points="2.2561000000000035,8.857800000000001 2.2510000000000048,8.8638 2.2510000000000048,8.8641 2.253799999999984,8.865 2.2549999999999955,8.863900000000001 2.258800000000008,8.8545 2.2561000000000035,8.857800000000001 "></polygon><polygon points="2.2391000000000076,8.8894 2.233000000000004,8.8825 2.2319999999999993,8.874500000000001 2.2301999999999964,8.876100000000001 2.2298999999999864,8.8805 2.2387999999999977,8.892800000000001 2.2401999999999873,8.8916 2.2391000000000076,8.8894 "></polygon><polygon points="2.3918999999999926,8.905000000000001 2.3941000000000088,8.9039 2.3941000000000088,8.9014 2.386599999999987,8.9055 2.3918999999999926,8.905000000000001 "></polygon><polygon points="2.4761000000000024,8.905000000000001 2.4769000000000005,8.9069 2.4793999999999983,8.9055 2.477499999999992,8.902800000000001 2.4757999999999925,8.9033 2.4761000000000024,8.905000000000001 "></polygon><polygon points="2.386099999999999,8.9085 2.386799999999994,8.907 2.3855000000000075,8.9059 2.3843999999999994,8.908100000000001 2.386099999999999,8.9085 "></polygon><polygon points="2.4832999999999856,8.9219 2.484999999999985,8.921100000000001 2.481500000000011,8.918800000000001 2.481899999999996,8.9208 2.4832999999999856,8.9219 "></polygon><polygon points="2.2409000000000106,8.8977 2.2413999999999987,8.9003 2.2435999999999865,8.9008 2.24369999999999,8.8992 2.2409000000000106,8.8977 "></polygon><polygon points="2.2590999999999894,8.9197 2.2605000000000075,8.9228 2.2630000000000052,8.9222 2.261899999999997,8.9189 2.2590999999999894,8.9197 "></polygon><polygon points="2.18719999999999,8.9486 2.187999999999988,8.9482 2.1862999999999886,8.9461 2.185200000000009,8.9478 2.18719999999999,8.9486 "></polygon><polygon points="2.199700000000007,8.9558 2.198299999999989,8.9566 2.199099999999987,8.9578 2.2013000000000034,8.9572 2.199700000000007,8.9558 "></polygon><polygon points="2.198900000000009,8.9636 2.197800000000001,8.9669 2.1983999999999924,8.9682 2.2012,8.9619 2.199700000000007,8.9611 2.198900000000009,8.9636 "></polygon><polygon points="2.191900000000004,8.9822 2.194999999999993,8.9814 2.1940999999999917,8.9786 2.190899999999999,8.9808 2.191900000000004,8.9822 "></polygon><polygon points="2.1533000000000015,9.0153 2.151600000000002,9.0139 2.148300000000006,9.0147 2.1500000000000057,9.0169 2.1533000000000015,9.0153 "></polygon><polygon points="2.1774000000000058,9.023200000000001 2.1794999999999902,9.0211 2.1787999999999954,9.019400000000001 2.176899999999989,9.0208 2.1774000000000058,9.023200000000001 "></polygon><polygon points="2.3692000000000064,8.9953 2.368799999999993,8.989700000000001 2.3662999999999954,8.9861 2.3622000000000014,8.988900000000001 2.3588000000000022,8.9947 2.3626999999999896,8.997200000000001 2.3692000000000064,8.9953 "></polygon><polygon points="2.342500000000001,9.005 2.3474999999999966,9.001900000000001 2.346299999999985,8.9997 2.339100000000002,9.0025 2.336999999999989,9.008000000000001 2.34020000000001,9.0075 2.342500000000001,9.005 "></polygon><polygon points="2.3222000000000094,9.0489 2.3274999999999864,9.0441 2.3277999999999963,9.042300000000001 2.3171999999999855,9.0513 2.3222000000000094,9.0489 "></polygon><polygon points="2.1647000000000105,9.0207 2.161699999999996,9.0196 2.1613000000000113,9.02 2.163899999999984,9.0238 2.1665999999999883,9.0225 2.1647000000000105,9.0207 "></polygon><polygon points="2.181299999999993,9.0236 2.1817000000000064,9.0227 2.181600000000003,9.0208 2.180199999999985,9.0222 2.181299999999993,9.0236 "></polygon><polygon points="2.2110999999999876,9.0383 2.2110999999999876,9.0375 2.209399999999988,9.0364 2.2087999999999965,9.0378 2.2110999999999876,9.0383 "></polygon><polygon points="2.2541999999999973,9.051 2.254400000000004,9.049100000000001 2.2521999999999878,9.0497 2.2521999999999878,9.0508 2.2541999999999973,9.051 "></polygon><polygon points="2.251100000000008,9.0489 2.242999999999995,9.0487 2.2417999999999836,9.05 2.2479999999999905,9.0525 2.251100000000008,9.0489 "></polygon><polygon points="2.308899999999994,9.0547 2.307700000000011,9.0564 2.3108000000000004,9.0566 2.3149999999999977,9.052 2.308899999999994,9.0547 "></polygon><polygon points="2.2790999999999997,9.0619 2.2804999999999893,9.0647 2.282999999999987,9.0653 2.286900000000003,9.0622 2.2819000000000074,9.060500000000001 2.2787999999999897,9.060500000000001 2.2790999999999997,9.0619 "></polygon>
    </svg>
    