
    <svg width="1.346199999999996" height="1.3279999999999994" xmlns="http://www.w3.org/2000/svg" xmlns:xlink="http://www.w3.org/1999/xlink" style="transform: scale(1, -1)">
        <polygon points="0.0,0.1106999999999978 0.02949999999999875,0.13509999999999778 0.0677999999999983,0.17009999999999792 0.09609999999999985,0.19289999999999807 0.12829999999999586,0.2237999999999971 0.14859999999999474,0.24599999999999866 0.17830000000000013,0.2745999999999995 0.22059999999999746,0.32069999999999865 0.25969999999999516,0.37079999999999913 0.3031999999999968,0.33619999999999806 0.31680000000000064,0.31899999999999906 0.31700000000000017,0.2997999999999976 0.30809999999999604,0.2862999999999971 0.27890000000000015,0.28030000000000044 0.17859999999999587,0.19699999999999918 0.14529999999999887,0.16019999999999968 0.13649999999999807,0.13519999999999754 0.1389999999999958,0.1062999999999974 0.13929999999999865,0.07939999999999969 0.12819999999999965,0.06199999999999761 0.08370000000000033,0.028999999999999915 0.038699999999998624,0.0 0.0,0.1106999999999978 "></polygon><polygon points="0.8952999999999989,0.49629999999999797 0.9378999999999991,0.511099999999999 0.9882999999999953,0.5122999999999998 1.0000999999999962,0.5280999999999985 1.0030999999999963,0.5641999999999996 0.9848999999999961,0.5804999999999971 0.9384999999999977,0.5802999999999976 0.8952999999999989,0.5951999999999984 0.8751999999999995,0.6034000000000006 0.8532000000000011,0.6207999999999991 0.8341999999999956,0.6112000000000002 0.8153999999999968,0.5936999999999983 0.7898999999999958,0.5858999999999988 0.7622999999999962,0.5892999999999979 0.7428999999999988,0.5963999999999992 0.7346000000000004,0.6232000000000006 0.7468999999999966,0.6387999999999998 0.7967999999999975,0.6463999999999999 0.8056999999999945,0.6696999999999989 0.8007999999999953,0.6858000000000004 0.7779999999999987,0.7012999999999998 0.7626999999999953,0.7188999999999979 0.7603000000000009,0.7415999999999983 0.7738999999999976,0.7665000000000006 0.769599999999997,0.7763999999999989 0.7740000000000009,0.7795000000000023 0.7717999999999989,0.791599999999999 0.7798999999999978,0.8064999999999962 0.782199999999996,0.821200000000001 0.7789000000000001,0.8326999999999991 0.767399999999995,0.8514000000000017 0.7568999999999946,0.8608999999999973 0.7537999999999982,0.8674999999999962 0.7548999999999992,0.8754999999999988 0.7631000000000014,0.8886000000000003 0.7661999999999978,0.8989999999999974 0.7650000000000006,0.911799999999996 0.7575000000000003,0.9404000000000003 0.7519999999999953,0.9499999999999993 0.7383999999999986,0.9674000000000014 0.7379999999999995,0.9789999999999957 0.7396999999999991,0.990599999999997 0.757799999999996,1.0254000000000012 0.7714999999999961,1.042300000000001 0.7800000000000011,1.0473999999999997 0.783299999999997,1.0549 0.7785999999999973,1.0834999999999972 0.7796999999999983,1.110400000000002 0.7902999999999949,1.127399999999998 0.796999999999997,1.1344999999999992 0.8228999999999971,1.144400000000001 0.829899999999995,1.1500999999999983 0.8340999999999994,1.175499999999996 0.8427999999999969,1.1960000000000015 0.8474000000000004,1.2215999999999987 0.8519000000000005,1.2354999999999983 0.8611000000000004,1.2502999999999993 0.8686999999999969,1.2551999999999985 0.9088999999999956,1.2681000000000004 0.9339000000000013,1.2788000000000004 0.9535999999999945,1.2910000000000004 0.9654999999999987,1.3007999999999988 0.9690000000000012,1.3069000000000024 0.9874000000000009,1.324499999999997 0.9926999999999992,1.3266999999999989 1.0023999999999944,1.3279999999999994 1.0161999999999978,1.3216 1.033999999999999,1.3058999999999976 1.0493999999999986,1.296400000000002 1.0730999999999966,1.2880000000000003 1.084699999999998,1.287899999999997 1.1336000000000013,1.2955999999999968 1.1527999999999992,1.295300000000001 1.1612999999999971,1.293499999999998 1.1774999999999949,1.2833000000000006 1.1936999999999998,1.2600000000000016 1.1968999999999994,1.2386000000000017 1.1955999999999989,1.2185999999999986 1.2013999999999996,1.2041000000000004 1.2085000000000008,1.1962999999999973 1.208199999999998,1.1913000000000018 1.2149999999999963,1.186199999999996 1.2274999999999991,1.1845999999999997 1.2423999999999964,1.1883000000000017 1.2652,1.1874000000000002 1.2777999999999992,1.1842000000000006 1.3071999999999946,1.1724999999999959 1.3303999999999974,1.1667999999999985 1.3284999999999982,1.1489000000000011 1.3358999999999952,1.141099999999998 1.3382999999999967,1.135200000000001 1.3354999999999961,1.1202999999999967 1.3322999999999965,1.1132999999999988 1.3314999999999984,1.1052 1.3393999999999977,1.0873999999999988 1.3344999999999985,1.0757999999999974 1.3341999999999956,1.0686999999999962 1.3410999999999973,1.054199999999998 1.3374999999999986,1.0320999999999962 1.3414000000000001,1.0177999999999976 1.3422999999999945,1.0017999999999994 1.345099999999995,0.9939 1.346199999999996,0.9824000000000019 1.3433999999999955,0.9726999999999997 1.3350000000000009,0.9593999999999987 1.3285999999999945,0.9344999999999963 1.3256999999999977,0.9077999999999982 1.3218999999999994,0.8966999999999992 1.3078000000000003,0.8803999999999981 1.3046000000000006,0.8627000000000002 1.2962999999999951,0.8486000000000011 1.298499999999997,0.8056000000000019 1.3094999999999999,0.7947999999999986 1.3110999999999962,0.7880000000000003 1.3018,0.7763999999999989 1.3185000000000002,0.7449999999999974 1.3121999999999971,0.7093999999999987 1.2941000000000003,0.6944999999999979 1.3038999999999987,0.6524000000000001 1.3213000000000008,0.6428999999999974 1.3114999999999952,0.6265000000000001 1.3219999999999956,0.6122999999999976 1.3140999999999963,0.5932999999999993 1.3263999999999996,0.5349000000000004 1.3009999999999948,0.49599999999999866 1.2701999999999956,0.41279999999999717 1.2489999999999952,0.3506999999999998 1.246299999999998,0.26459999999999795 1.1801999999999992,0.2654999999999994 1.1644000000000005,0.26069999999999993 1.129100000000001,0.23389999999999844 1.0959000000000003,0.21309999999999718 1.0634999999999977,0.20079999999999742 1.0093999999999994,0.15109999999999957 0.9946999999999946,0.14359999999999928 0.9303999999999988,0.13509999999999778 0.9164999999999992,0.13789999999999836 0.8953999999999951,0.12849999999999895 0.7967999999999975,0.13459999999999894 0.7548999999999992,0.1255999999999986 0.7094999999999985,0.12049999999999983 0.6845999999999961,0.1261999999999972 0.6685999999999979,0.13759999999999906 0.6573999999999955,0.15319999999999823 0.654599999999995,0.17309999999999803 0.6740999999999957,0.20659999999999812 0.6961999999999975,0.23109999999999786 0.7162999999999968,0.26370000000000005 0.7199999999999989,0.2810999999999986 0.7155999999999949,0.32179999999999964 0.7243999999999957,0.3593999999999973 0.7489999999999952,0.392199999999999 0.7794999999999987,0.4203999999999972 0.7960999999999956,0.4328000000000003 0.8429999999999964,0.4519999999999982 0.8952999999999989,0.49629999999999797 "></polygon>
    </svg>
    