
    <svg width="2.0374000000000017" height="1.7923999999999998" xmlns="http://www.w3.org/2000/svg" xmlns:xlink="http://www.w3.org/1999/xlink" style="transform: scale(1, -1)">
        <polygon points="0.8516000000000012,0.022399999999999753 0.8465000000000025,0.020299999999999763 0.8427000000000007,0.0248999999999997 0.8438000000000017,0.027499999999999858 0.8427000000000007,0.028899999999999704 0.8343000000000025,0.033199999999999896 0.8327000000000027,0.03299999999999992 0.8325999999999993,0.031199999999999672 0.8278999999999996,0.03349999999999964 0.826900000000002,0.03669999999999973 0.8233999999999995,0.0400999999999998 0.8171999999999997,0.04029999999999978 0.8074000000000012,0.04859999999999998 0.8038000000000025,0.04820000000000002 0.7985000000000007,0.05229999999999979 0.7905000000000015,0.05139999999999967 0.7868999999999993,0.052999999999999936 0.7773000000000003,0.050799999999999734 0.7681000000000004,0.0360999999999998 0.7623999999999995,0.03359999999999985 0.7591999999999999,0.03469999999999995 0.7545000000000002,0.029799999999999827 0.7480000000000011,0.02970000000000006 0.7441999999999993,0.03349999999999964 0.7393999999999998,0.03229999999999977 0.7365999999999993,0.03379999999999983 0.7332000000000001,0.032099999999999795 0.7319999999999993,0.033399999999999874 0.7294000000000018,0.03200000000000003 0.7279000000000018,0.033199999999999896 0.7282000000000011,0.03639999999999999 0.7263000000000019,0.03709999999999969 0.7208000000000006,0.035199999999999676 0.7119,0.028099999999999792 0.7038000000000011,0.028200000000000003 0.6890999999999998,0.02179999999999982 0.683600000000002,0.022999999999999687 0.6805000000000021,0.02190000000000003 0.682500000000001,0.013900000000000023 0.6807000000000016,0.009999999999999787 0.676400000000001,0.012499999999999734 0.6737000000000002,0.011299999999999866 0.6707000000000001,0.012699999999999712 0.6599000000000004,0.009999999999999787 0.6548000000000016,0.011400000000000077 0.6509,0.017199999999999882 0.6457000000000015,0.017900000000000027 0.6448,0.021099999999999675 0.6387999999999998,0.027399999999999647 0.6303000000000019,0.031099999999999905 0.6244000000000014,0.037900000000000045 0.6218000000000004,0.037900000000000045 0.6174,0.03349999999999964 0.6160999999999994,0.0349999999999997 0.6136000000000017,0.03269999999999973 0.6035000000000004,0.036499999999999755 0.6014000000000017,0.03909999999999991 0.5890000000000022,0.03949999999999987 0.5859000000000023,0.04179999999999984 0.5792999999999999,0.040699999999999736 0.5762,0.04239999999999977 0.5702999999999996,0.03869999999999996 0.5692000000000021,0.035499999999999865 0.5579000000000001,0.031299999999999883 0.5511000000000017,0.025599999999999845 0.5455000000000005,0.024699999999999722 0.5388000000000019,0.018199999999999772 0.5347000000000008,0.019899999999999807 0.5336999999999996,0.02289999999999992 0.5275999999999996,0.021299999999999653 0.5228000000000002,0.017799999999999816 0.5189000000000021,0.008799999999999919 0.5160000000000018,0.008599999999999941 0.5154999999999994,0.0019999999999997797 0.5111000000000026,0.0019000000000000128 0.5091999999999999,0.0 0.5060000000000002,0.008000000000000007 0.5005000000000024,0.008000000000000007 0.5032999999999994,0.011299999999999866 0.4994000000000014,0.016499999999999737 0.5007000000000019,0.02069999999999972 0.49490000000000123,0.03299999999999992 0.4903000000000013,0.035499999999999865 0.4913000000000025,0.037900000000000045 0.490000000000002,0.04149999999999965 0.49290000000000234,0.04269999999999996 0.49540000000000006,0.04820000000000002 0.4908000000000001,0.05899999999999972 0.4863999999999997,0.06329999999999991 0.4883000000000024,0.06610000000000005 0.48900000000000077,0.07179999999999964 0.4853000000000023,0.07119999999999971 0.48270000000000124,0.07529999999999992 0.47630000000000194,0.07609999999999983 0.47930000000000206,0.08729999999999993 0.4714000000000027,0.09389999999999965 0.47409999999999997,0.09649999999999981 0.4845000000000006,0.10009999999999986 0.4925999999999995,0.10619999999999985 0.49350000000000094,0.10829999999999984 0.4869000000000021,0.11929999999999996 0.4869000000000021,0.12659999999999982 0.4829000000000008,0.13260000000000005 0.4831000000000003,0.1372 0.4775000000000027,0.1412 0.47579999999999956,0.1469999999999998 0.47350000000000136,0.14900000000000002 0.47020000000000195,0.14690000000000003 0.46640000000000015,0.15039999999999987 0.46740000000000137,0.15759999999999996 0.4703000000000017,0.1600999999999999 0.4704000000000015,0.16379999999999972 0.47320000000000206,0.16569999999999974 0.4734000000000016,0.17049999999999965 0.4701000000000022,0.17359999999999998 0.4710000000000001,0.17680000000000007 0.4643000000000015,0.18659999999999988 0.4612000000000016,0.18649999999999967 0.4598000000000013,0.18379999999999974 0.45770000000000266,0.18359999999999976 0.4540000000000006,0.18859999999999966 0.45330000000000226,0.19349999999999978 0.4477000000000011,0.1961999999999997 0.43200000000000216,0.1993999999999998 0.4251000000000005,0.20809999999999995 0.42260000000000275,0.20869999999999989 0.420300000000001,0.21389999999999976 0.41130000000000067,0.2163999999999997 0.40559999999999974,0.21550000000000002 0.40330000000000155,0.2218 0.3927000000000014,0.2174999999999998 0.3888999999999996,0.21309999999999985 0.38569999999999993,0.21799999999999997 0.38450000000000273,0.21479999999999988 0.38289999999999935,0.21729999999999983 0.37840000000000273,0.21550000000000002 0.3777000000000008,0.21279999999999966 0.3741000000000021,0.21550000000000002 0.37400000000000233,0.21219999999999972 0.3716000000000008,0.2113999999999998 0.3686000000000007,0.21110000000000007 0.36459999999999937,0.2145999999999999 0.363900000000001,0.21229999999999993 0.3619000000000021,0.21179999999999977 0.3614999999999995,0.2084999999999999 0.3582000000000001,0.20799999999999974 0.3567,0.21009999999999973 0.3581000000000003,0.2115999999999998 0.35740000000000194,0.21369999999999978 0.35379999999999967,0.2144999999999997 0.3515000000000015,0.2185999999999999 0.3470000000000013,0.2178 0.34190000000000254,0.2245999999999997 0.33869999999999933,0.2224999999999997 0.3299000000000021,0.2224999999999997 0.32670000000000243,0.2246999999999999 0.3237000000000023,0.2246999999999999 0.3271000000000015,0.22689999999999966 0.3251000000000026,0.2298 0.32250000000000156,0.22929999999999984 0.32090000000000174,0.22589999999999977 0.31259999999999977,0.2245999999999997 0.3110999999999997,0.23150000000000004 0.30770000000000053,0.23289999999999988 0.30740000000000123,0.23609999999999998 0.3048000000000002,0.23859999999999992 0.30090000000000217,0.2395999999999998 0.3011000000000017,0.2448999999999999 0.2942999999999998,0.24339999999999984 0.2914999999999992,0.24540000000000006 0.2895000000000003,0.24439999999999973 0.2895000000000003,0.2477999999999998 0.28800000000000026,0.2487999999999997 0.2870000000000026,0.24540000000000006 0.28270000000000195,0.24509999999999987 0.28270000000000195,0.24359999999999982 0.2795000000000023,0.24370000000000003 0.2775999999999996,0.24160000000000004 0.27960000000000207,0.2357999999999998 0.2782000000000018,0.23609999999999998 0.2773000000000003,0.23429999999999973 0.27360000000000184,0.2355999999999998 0.26610000000000156,0.2296999999999998 0.26500000000000057,0.2319 0.2622,0.2326999999999999 0.26280000000000214,0.23599999999999977 0.25980000000000203,0.23629999999999995 0.25560000000000116,0.24160000000000004 0.25360000000000227,0.24109999999999987 0.25459999999999994,0.24289999999999967 0.24790000000000134,0.24330000000000007 0.24670000000000059,0.24529999999999985 0.24080000000000013,0.24330000000000007 0.23740000000000094,0.24449999999999994 0.23440000000000083,0.24309999999999965 0.23070000000000235,0.24819999999999975 0.22960000000000136,0.2469999999999999 0.22680000000000078,0.24819999999999975 0.22000000000000242,0.24509999999999987 0.2109000000000023,0.23639999999999972 0.20050000000000168,0.23829999999999973 0.19870000000000232,0.2315999999999998 0.1966000000000001,0.22989999999999977 0.1977000000000011,0.22710000000000008 0.19679999999999964,0.22299999999999986 0.19239999999999924,0.22120000000000006 0.1921999999999997,0.2185999999999999 0.18950000000000244,0.21629999999999994 0.19120000000000203,0.21609999999999996 0.1927000000000021,0.21279999999999966 0.19229999999999947,0.1995 0.19430000000000192,0.1993999999999998 0.19440000000000168,0.19709999999999983 0.19760000000000133,0.19499999999999984 0.19780000000000086,0.1915 0.19979999999999976,0.18979999999999997 0.19470000000000098,0.1862999999999997 0.19310000000000116,0.18759999999999977 0.19290000000000163,0.18330000000000002 0.1905000000000001,0.18310000000000004 0.1860999999999997,0.17459999999999987 0.18769999999999953,0.17149999999999999 0.1860999999999997,0.16999999999999993 0.188600000000001,0.1654 0.1916000000000011,0.16279999999999983 0.19529999999999959,0.16379999999999972 0.19590000000000174,0.1618999999999997 0.19430000000000192,0.15569999999999995 0.18629999999999924,0.15379999999999994 0.18670000000000186,0.1519999999999997 0.19310000000000116,0.15070000000000006 0.19350000000000023,0.1473 0.18980000000000175,0.14739999999999975 0.18850000000000122,0.14559999999999995 0.19079999999999941,0.14129999999999976 0.1877999999999993,0.1389999999999998 0.18940000000000268,0.13539999999999974 0.19379999999999953,0.1339999999999999 0.1927000000000021,0.1328999999999998 0.19529999999999959,0.12989999999999968 0.1938999999999993,0.12989999999999968 0.18700000000000117,0.12009999999999987 0.18530000000000157,0.11979999999999968 0.18330000000000268,0.11430000000000007 0.1808000000000014,0.11509999999999998 0.17940000000000111,0.11280000000000001 0.18090000000000117,0.11280000000000001 0.17940000000000111,0.10919999999999996 0.18120000000000047,0.10449999999999982 0.1791000000000018,0.10409999999999986 0.17870000000000275,0.10210000000000008 0.18009999999999948,0.10129999999999972 0.17849999999999966,0.09939999999999971 0.17920000000000158,0.09599999999999964 0.17450000000000188,0.10119999999999996 0.17300000000000182,0.10639999999999983 0.17010000000000147,0.10719999999999974 0.15910000000000224,0.12080000000000002 0.15429999999999922,0.12329999999999997 0.14220000000000255,0.1357999999999997 0.13710000000000022,0.13629999999999987 0.13330000000000197,0.14100000000000001 0.1296999999999997,0.14179999999999993 0.12630000000000052,0.14060000000000006 0.12150000000000105,0.14609999999999967 0.11370000000000147,0.14509999999999978 0.10960000000000036,0.1418999999999997 0.10730000000000217,0.13680000000000003 0.10500000000000043,0.13649999999999984 0.09740000000000038,0.14639999999999986 0.08580000000000254,0.1492 0.08130000000000237,0.14739999999999975 0.07920000000000016,0.15009999999999968 0.07880000000000109,0.15549999999999997 0.07580000000000098,0.15809999999999969 0.07339999999999947,0.15910000000000002 0.07230000000000203,0.15680000000000005 0.06970000000000098,0.15859999999999985 0.0619000000000014,0.1578999999999997 0.056100000000000705,0.15959999999999974 0.04830000000000112,0.17159999999999975 0.04830000000000112,0.17499999999999982 0.04540000000000077,0.1761999999999997 0.043900000000000716,0.17510000000000003 0.04129999999999967,0.17789999999999973 0.03669999999999973,0.17859999999999987 0.03450000000000131,0.1814 0.03369999999999962,0.1871999999999998 0.04230000000000089,0.1902999999999997 0.04410000000000025,0.19490000000000007 0.04210000000000136,0.21289999999999987 0.0409000000000006,0.21609999999999996 0.03870000000000218,0.21699999999999964 0.040300000000002,0.2325999999999997 0.03580000000000183,0.24289999999999967 0.03829999999999956,0.25509999999999966 0.033500000000000085,0.26449999999999996 0.031500000000001194,0.27939999999999987 0.02909999999999968,0.2822 0.01529999999999987,0.2900999999999998 0.008100000000002439,0.3010999999999999 0.00140000000000029,0.3064 0.0,0.31069999999999975 0.001200000000000756,0.31869999999999976 0.01249999999999929,0.3302999999999998 0.026700000000001722,0.3342999999999998 0.031200000000001893,0.34909999999999997 0.028600000000000847,0.36119999999999974 0.0251000000000019,0.3675999999999999 0.012399999999999523,0.38019999999999987 0.006000000000000227,0.39639999999999986 0.0057000000000009265,0.41270000000000007 0.010500000000000398,0.4283999999999999 0.013300000000000978,0.4312999999999998 0.013500000000000512,0.4343999999999997 0.017900000000000915,0.44159999999999977 0.02500000000000213,0.4503999999999997 0.035199999999999676,0.45999999999999996 0.04680000000000106,0.4672999999999998 0.051600000000000534,0.4686999999999997 0.06869999999999976,0.46819999999999995 0.07570000000000121,0.4653999999999998 0.0879000000000012,0.4636 0.10040000000000049,0.46689999999999987 0.10330000000000084,0.4697999999999998 0.10430000000000206,0.476 0.09880000000000067,0.48619999999999974 0.10270000000000223,0.4901 0.11540000000000106,0.4946999999999999 0.1191999999999993,0.4975999999999998 0.13250000000000028,0.5257999999999998 0.1369000000000007,0.5425 0.14819999999999922,0.5499 0.22080000000000055,0.5608 0.23160000000000025,0.5635999999999997 0.23789999999999978,0.5661999999999998 0.24680000000000035,0.5735999999999999 0.2555000000000014,0.5867 0.30460000000000065,0.6894999999999998 0.3108000000000004,0.7064999999999997 0.31310000000000215,0.7209999999999996 0.31140000000000256,0.7601 0.30020000000000024,0.8022999999999998 0.27970000000000184,0.8504999999999998 0.26780000000000115,0.9087999999999998 0.26420000000000243,0.9503999999999999 0.28030000000000044,0.9961999999999998 0.3332000000000015,1.0675999999999999 0.3288000000000011,1.0675999999999999 0.38260000000000005,1.1411999999999998 0.38310000000000244,1.1564999999999999 0.3849000000000018,1.1558 0.38589999999999947,1.1579 0.3827999999999996,1.1583999999999999 0.3818000000000019,1.1711999999999998 0.38899999999999935,1.1703999999999999 0.3907000000000025,1.1776999999999997 0.3943000000000012,1.1809999999999998 0.3987000000000016,1.1893999999999998 0.40660000000000096,1.2109999999999999 0.4201000000000015,1.2187999999999999 0.42409999999999926,1.2153999999999998 0.4300999999999995,1.214 0.43040000000000234,1.2109999999999999 0.4375,1.2234999999999998 0.43480000000000274,1.2255999999999998 0.43540000000000134,1.2274999999999998 0.4369000000000014,1.2282 0.4394000000000027,1.2257999999999998 0.44730000000000203,1.2268999999999999 0.4505000000000017,1.2255999999999998 0.4491000000000014,1.2380999999999998 0.45260000000000034,1.2397999999999998 0.4518000000000022,1.2438999999999998 0.45759999999999934,1.2539999999999998 0.4565000000000019,1.2542999999999997 0.4585000000000008,1.2598999999999998 0.4601000000000006,1.2615999999999998 0.4632000000000005,1.2590999999999999 0.4643000000000015,1.2600999999999998 0.46669999999999945,1.2656999999999998 0.4634999999999998,1.2671 0.46470000000000056,1.2719999999999998 0.46940000000000026,1.2745 0.4753000000000007,1.2837999999999998 0.47330000000000183,1.2852 0.4750000000000014,1.2928 0.4919000000000011,1.3033 0.49350000000000094,1.3089 0.5001999999999995,1.3089 0.4985999999999997,1.315 0.49540000000000006,1.3155 0.49900000000000233,1.3281999999999998 0.5009000000000015,1.3276999999999999 0.5057000000000009,1.3313 0.5143000000000022,1.3314 0.5147000000000013,1.3152 0.5183999999999997,1.3153 0.5179000000000009,1.3315 0.5214999999999996,1.3316 0.5219000000000023,1.3153 0.525500000000001,1.3154 0.5256000000000007,1.3115999999999999 0.5364000000000004,1.3111 0.5362000000000009,1.3172 0.532700000000002,1.3172 0.5321999999999996,1.3319999999999999 0.5883000000000003,1.3338999999999999 0.6050000000000004,1.3269 0.6125000000000007,1.3412 0.5951000000000022,1.3434 0.6113999999999997,1.3653 0.6242000000000019,1.3634 0.6400000000000006,1.3810999999999998 0.6242000000000019,1.3826999999999998 0.6321000000000012,1.3938 0.6336000000000013,1.394 0.6343999999999994,1.3975 0.6427000000000014,1.3998 0.6438000000000024,1.4056 0.6584000000000003,1.4107999999999998 0.6597000000000008,1.4133999999999998 0.6567000000000007,1.4148999999999998 0.6631,1.426 0.664200000000001,1.4305999999999999 0.6672000000000011,1.4291999999999998 0.6687000000000012,1.4316999999999998 0.6722999999999999,1.4319 0.6792000000000016,1.4190999999999998 0.6899000000000015,1.4183999999999999 0.6867000000000019,1.4265999999999999 0.679000000000002,1.4358 0.6829000000000001,1.4381 0.6936,1.4209999999999998 0.7134,1.4423 0.7280000000000015,1.4448999999999999 0.7272999999999996,1.4484 0.7303999999999995,1.4528999999999999 0.7347000000000001,1.4525 0.7378999999999998,1.4477999999999998 0.7399000000000022,1.4526999999999999 0.746100000000002,1.4542 0.7674000000000021,1.4525 0.7857000000000021,1.4534999999999998 0.7951000000000015,1.4502 0.7986000000000004,1.4465999999999999 0.8068000000000026,1.454 0.8170000000000002,1.4574999999999998 0.8302000000000014,1.4765 0.8356999999999992,1.4793999999999998 0.839100000000002,1.4854999999999998 0.845600000000001,1.4879999999999998 0.850200000000001,1.4941999999999998 0.8525000000000027,1.4939999999999998 0.8567,1.4968 0.8594000000000008,1.4964 0.8688000000000002,1.4997999999999998 0.8729000000000013,1.4978999999999998 0.8803000000000019,1.4988 0.8859999999999992,1.4972999999999999 0.889800000000001,1.4938999999999998 0.8913000000000011,1.4950999999999999 0.9060000000000024,1.4873999999999998 0.9101999999999997,1.4830999999999999 0.9140000000000015,1.4738999999999998 0.9209999999999994,1.4727999999999999 0.9217000000000013,1.4741 0.9224999999999994,1.4715999999999998 0.9268999999999998,1.4708999999999999 0.9296000000000006,1.4748999999999999 0.935100000000002,1.4670999999999998 0.933600000000002,1.4754999999999998 0.9348000000000027,1.4894999999999998 0.9437999999999995,1.501 0.9443000000000019,1.5047 0.9477000000000011,1.5097999999999998 0.9572000000000003,1.5124 0.9596000000000018,1.5223999999999998 0.9573,1.5252 0.9575999999999993,1.5286 0.9623000000000026,1.5312 0.9686000000000021,1.5243999999999998 0.9719000000000015,1.5252 0.9757999999999996,1.521 0.9807000000000023,1.5194999999999999 0.9794000000000018,1.5065 0.9877000000000002,1.5012999999999999 0.9901000000000018,1.4938999999999998 0.9939999999999998,1.4923 0.9969999999999999,1.4880999999999998 0.9969000000000001,1.4835999999999998 1.002200000000002,1.4824 1.0100000000000016,1.4848 1.0200999999999993,1.4838999999999998 1.0191000000000017,1.4649999999999999 1.0213999999999999,1.4525 1.0218000000000025,1.4343 1.0259999999999998,1.4270999999999998 1.0241000000000007,1.4241 1.0238000000000014,1.4168999999999998 1.0289000000000001,1.4110999999999998 1.0279000000000025,1.4078 1.0318000000000005,1.3970999999999998 1.031600000000001,1.3885999999999998 1.0373000000000019,1.3821999999999999 1.041800000000002,1.3807999999999998 1.0413999999999994,1.3774 1.0520999999999994,1.3578999999999999 1.0642999999999994,1.3609999999999998 1.072700000000001,1.3679 1.0929000000000002,1.3759 1.0955000000000013,1.3746999999999998 1.0961999999999996,1.3768999999999998 1.0999000000000017,1.3782999999999999 1.1159,1.3820999999999999 1.1264000000000003,1.3901999999999999 1.1343999999999994,1.3922999999999999 1.1388999999999996,1.4054999999999997 1.1478000000000002,1.412 1.1517000000000017,1.4202 1.1621000000000024,1.4248999999999998 1.1643000000000008,1.422 1.1652000000000022,1.4227999999999998 1.1755999999999993,1.4186999999999999 1.1806000000000019,1.4125999999999999 1.1900000000000013,1.4084999999999999 1.1925000000000026,1.4101 1.1937999999999995,1.4091999999999998 1.1951,1.4106999999999998 1.1936,1.4118 1.1933000000000007,1.4153999999999998 1.1959000000000017,1.4187999999999998 1.1922999999999995,1.4227999999999998 1.1904000000000003,1.4411999999999998 1.197700000000001,1.4453999999999998 1.2088,1.448 1.2085000000000008,1.4586999999999999 1.2121999999999993,1.4623 1.2212999999999994,1.4671999999999998 1.2243999999999993,1.4670999999999998 1.2265000000000015,1.4643 1.2336000000000027,1.4647 1.2365999999999993,1.4629999999999999 1.2416000000000018,1.4677999999999998 1.2508000000000017,1.4630999999999998 1.2563999999999993,1.4556999999999998 1.2611000000000026,1.4555999999999998 1.2628000000000021,1.4585 1.2632000000000012,1.4682 1.2676000000000016,1.4772999999999998 1.2713,1.4767 1.2757000000000005,1.4782 1.2771000000000008,1.4837999999999998 1.2835,1.4892999999999998 1.2910000000000004,1.4885 1.3050999999999995,1.4934999999999998 1.307100000000002,1.4910999999999999 1.3091000000000008,1.4923 1.3008000000000024,1.505 1.3031000000000006,1.5128 1.3002000000000002,1.5212999999999999 1.3039000000000023,1.5267 1.305500000000002,1.5332 1.3129000000000026,1.5380999999999998 1.3114000000000026,1.5403999999999998 1.3129000000000026,1.5440999999999998 1.3098000000000027,1.5542999999999998 1.3096999999999994,1.5662999999999998 1.3138000000000005,1.5689 1.3260000000000005,1.5687999999999998 1.3271000000000015,1.5635 1.3298000000000023,1.5617999999999999 1.3293999999999997,1.5582999999999998 1.3364000000000011,1.5589 1.336500000000001,1.5661999999999998 1.3432999999999993,1.567 1.3491,1.5636999999999999 1.3512000000000022,1.5699999999999998 1.3575000000000017,1.5737999999999999 1.3602000000000025,1.5797999999999999 1.3689,1.5855 1.3733000000000004,1.5932 1.3813999999999993,1.5988999999999998 1.3850000000000016,1.6085999999999998 1.391300000000001,1.6148999999999998 1.3919999999999995,1.6193 1.403500000000001,1.6270999999999998 1.4140000000000015,1.6299 1.416800000000002,1.6417 1.4220000000000006,1.6435 1.4309000000000012,1.6503999999999999 1.4299,1.6545999999999998 1.4315999999999995,1.6633999999999998 1.436,1.672 1.436,1.6812999999999998 1.4455000000000027,1.6949999999999998 1.4665,1.7035999999999998 1.4728999999999992,1.7084 1.4792000000000023,1.7095999999999998 1.482800000000001,1.7078999999999998 1.4827000000000012,1.7130999999999998 1.4804999999999993,1.7154999999999998 1.4803999999999995,1.7221 1.4783000000000008,1.7259999999999998 1.4785000000000004,1.7315999999999998 1.4768000000000008,1.7322 1.4762000000000022,1.7348 1.4784000000000006,1.7387 1.478200000000001,1.7399999999999998 1.4769000000000005,1.7394999999999998 1.4789999999999992,1.7476999999999998 1.4819999999999993,1.7489999999999999 1.4821000000000026,1.7511999999999999 1.4872000000000014,1.7524 1.4871000000000016,1.7589 1.4895999999999994,1.7609 1.4891000000000005,1.7661999999999998 1.4871000000000016,1.7661999999999998 1.4867000000000026,1.7681999999999998 1.4876000000000005,1.7702999999999998 1.4909,1.7711999999999999 1.4895999999999994,1.7736999999999998 1.4920000000000009,1.7740999999999998 1.4902000000000015,1.7773999999999999 1.493000000000002,1.7752999999999999 1.4939999999999998,1.7779999999999998 1.4971999999999994,1.7793999999999999 1.4975000000000023,1.7763999999999998 1.4997000000000007,1.7763999999999998 1.4997000000000007,1.7748 1.5021000000000022,1.7749 1.5040000000000013,1.7727 1.5045000000000002,1.7749 1.5076,1.7751 1.5082000000000022,1.7721999999999998 1.5122,1.7699999999999998 1.5135000000000005,1.7717999999999998 1.5106000000000002,1.7742999999999998 1.5138999999999996,1.7760999999999998 1.5152999999999999,1.7788 1.5245999999999995,1.7718999999999998 1.5254000000000012,1.7738999999999998 1.5290999999999997,1.773 1.5298000000000016,1.771 1.5364000000000004,1.7776999999999998 1.5370000000000026,1.7755999999999998 1.5406000000000013,1.7762999999999998 1.5406000000000013,1.779 1.5433000000000021,1.7761999999999998 1.5440000000000005,1.7784999999999997 1.5462000000000025,1.777 1.549400000000002,1.7779999999999998 1.5508000000000024,1.7756999999999998 1.5534999999999997,1.7772999999999999 1.5547000000000004,1.7761999999999998 1.5599000000000025,1.7769 1.5634000000000015,1.775 1.5672999999999995,1.7756999999999998 1.5691000000000024,1.7774999999999999 1.5686999999999998,1.7816999999999998 1.5733999999999995,1.7829 1.5707000000000022,1.7835999999999999 1.573800000000002,1.7876999999999998 1.5734999999999992,1.7856999999999998 1.5753000000000021,1.7852999999999999 1.5760000000000005,1.7902999999999998 1.5776000000000003,1.7916999999999998 1.5787000000000013,1.7907 1.5820000000000007,1.7918999999999998 1.5831000000000017,1.7893999999999999 1.5831000000000017,1.7913999999999999 1.5861000000000018,1.7898999999999998 1.5858000000000025,1.7923999999999998 1.5870999999999995,1.7923999999999998 1.5879000000000012,1.7903999999999998 1.5886999999999993,1.7913999999999999 1.5950000000000024,1.7897999999999998 1.5996000000000024,1.7863999999999998 1.6057000000000023,1.7875999999999999 1.6049000000000007,1.7847 1.6071000000000026,1.7847 1.6081000000000003,1.7872 1.6113,1.7828 1.6059000000000019,1.7792 1.6049000000000007,1.7739999999999998 1.6021,1.7728 1.5975000000000001,1.7635999999999998 1.5909000000000013,1.7585 1.5917999999999992,1.7554999999999998 1.589500000000001,1.7509 1.5912000000000006,1.7457999999999998 1.5914000000000001,1.7368999999999999 1.597100000000001,1.7228999999999999 1.5993999999999993,1.7213999999999998 1.6106000000000016,1.7208999999999999 1.6149000000000022,1.7174999999999998 1.6133000000000024,1.7146 1.6083999999999996,1.712 1.6075000000000017,1.7087999999999999 1.6077000000000012,1.7030999999999998 1.6058000000000021,1.7 1.6086000000000027,1.6930999999999998 1.6083999999999996,1.6843 1.6147000000000027,1.6792999999999998 1.6292000000000009,1.6802 1.6393000000000022,1.6762 1.6477000000000004,1.6681 1.6475000000000009,1.6637 1.6530000000000022,1.6473999999999998 1.6603999999999992,1.6394 1.659600000000001,1.6346999999999998 1.6623000000000019,1.6276 1.6707999999999998,1.6185999999999998 1.671400000000002,1.6149999999999998 1.6785999999999994,1.6068999999999998 1.6844999999999999,1.5937999999999999 1.6898000000000017,1.5886999999999998 1.6900000000000013,1.5692 1.6949000000000005,1.5657999999999999 1.6978000000000009,1.5531 1.7005000000000017,1.5493999999999999 1.6971000000000025,1.5484999999999998 1.6978000000000009,1.5433999999999999 1.6929000000000016,1.5337999999999998 1.6967999999999996,1.529 1.7020000000000017,1.5153999999999999 1.7048000000000023,1.5144 1.7073,1.5025 1.7113000000000014,1.5008 1.7159000000000013,1.5023 1.7216000000000022,1.4947 1.726700000000001,1.4950999999999999 1.7312000000000012,1.4905 1.7384000000000022,1.4903 1.7437000000000005,1.4935999999999998 1.7527000000000008,1.4918999999999998 1.7531999999999996,1.4895999999999998 1.7506000000000022,1.4877999999999998 1.75,1.4849999999999999 1.7532999999999994,1.4811999999999999 1.7574000000000005,1.4794999999999998 1.7607999999999997,1.4729999999999999 1.7607999999999997,1.4710999999999999 1.7562999999999995,1.4667999999999999 1.7592999999999996,1.4624 1.7638999999999996,1.4625 1.7662000000000013,1.4572999999999998 1.7721000000000018,1.4565 1.7790999999999997,1.4592999999999998 1.7902000000000022,1.4571999999999998 1.7992000000000026,1.4574999999999998 1.8051999999999992,1.4506999999999999 1.8115000000000023,1.4525 1.811600000000002,1.4459 1.8171,1.4405999999999999 1.8239000000000019,1.4394999999999998 1.8259000000000007,1.4428999999999998 1.8327000000000027,1.4434999999999998 1.8384,1.4345999999999999 1.8447999999999993,1.4324 1.8511000000000024,1.4341 1.8605000000000018,1.4329999999999998 1.8744000000000014,1.4218 1.8793000000000006,1.4046999999999998 1.8765999999999998,1.3969999999999998 1.8790000000000013,1.3904999999999998 1.8812999999999995,1.3888999999999998 1.8797999999999995,1.3810999999999998 1.8774000000000015,1.3818 1.8825000000000003,1.3236999999999999 1.8843999999999994,1.3177999999999999 1.9775000000000027,1.1891999999999998 1.9751000000000012,1.1898 1.9748000000000019,1.1884 1.976700000000001,1.1833999999999998 1.9766000000000012,1.1730999999999998 1.9741,1.1726999999999999 1.9711999999999996,1.1748999999999998 1.9695999999999998,1.1691999999999998 1.9649,1.1633999999999998 1.9644000000000013,1.1586999999999998 1.961000000000002,1.1554999999999997 1.963000000000001,1.1533999999999998 1.9644000000000013,1.1456 1.964100000000002,1.1332999999999998 1.9606999999999992,1.1246999999999998 1.9655000000000022,1.1213 1.966000000000001,1.1176 1.9617000000000004,1.1150999999999998 1.9551000000000016,1.1151999999999997 1.9510000000000005,1.1062999999999998 1.9606999999999992,1.1005999999999998 1.965600000000002,1.0935 1.9692000000000007,1.0841999999999998 1.966000000000001,1.0673 1.9628000000000014,1.0635999999999999 1.9614000000000011,1.0588 1.966000000000001,1.0389 1.9646000000000008,1.0372999999999999 1.967600000000001,1.0246 1.9651999999999994,1.0167 1.9674000000000014,1.0133999999999999 1.9636999999999993,1.0068 1.9564000000000021,1.0038999999999998 1.9570000000000007,0.9987999999999999 1.9629000000000012,0.9964 1.9659000000000013,0.9974999999999998 1.9664000000000001,0.9940999999999998 1.9703000000000017,0.9952999999999999 1.9711999999999996,0.9935999999999998 1.9694000000000003,0.9897999999999998 1.9714000000000027,0.9890999999999999 1.976300000000002,0.9802 1.9686000000000021,0.9786999999999999 1.9688000000000017,0.9719999999999998 1.9649999999999999,0.9715999999999998 1.9596000000000018,0.9629999999999999 1.9553000000000011,0.9601 1.9564000000000021,0.9537999999999998 1.9548000000000023,0.9494999999999998 1.9562000000000026,0.9450999999999998 1.950400000000002,0.9393999999999998 1.9501000000000026,0.9344999999999999 1.9464000000000006,0.9299 1.9442000000000021,0.9217 1.9376999999999995,0.9211999999999998 1.9344999999999999,0.9112999999999998 1.9308000000000014,0.9076 1.9272000000000027,0.9071999999999998 1.9252000000000002,0.9027999999999998 1.9255999999999993,0.8975 1.9223,0.8941999999999999 1.9306000000000019,0.8937999999999999 1.9314,0.9017 1.9373000000000005,0.9019999999999999 1.9428000000000019,0.9051999999999998 1.9499999999999993,0.9002999999999999 1.9539000000000009,0.8993999999999998 1.9567000000000014,0.8923999999999999 1.9552000000000014,0.8876999999999999 1.9602000000000004,0.8824999999999998 1.9592000000000027,0.8789999999999998 1.9628000000000014,0.8771999999999998 1.9665,0.8693 1.9650999999999996,0.8679999999999999 1.9649999999999999,0.8674 1.9661000000000008,0.8682999999999998 1.9771,0.8505999999999998 2.0016999999999996,0.8079000000000001 2.007200000000001,0.8045 2.0139999999999993,0.8026999999999997 2.0158000000000023,0.7973999999999997 2.0156000000000027,0.7896000000000001 2.0197000000000003,0.7890999999999999 2.0227000000000004,0.7864999999999998 2.028200000000002,0.7763999999999998 2.0310000000000024,0.7749999999999999 2.031200000000002,0.7725 2.0364000000000004,0.7687999999999997 2.0374000000000017,0.7618999999999998 2.0325000000000024,0.7496 2.0298000000000016,0.7460999999999998 2.0244999999999997,0.7462 2.0244,0.7369999999999997 2.0121,0.7195999999999998 2.0147000000000013,0.7142 2.0142000000000024,0.7056999999999998 2.0061,0.7001999999999997 2.0035000000000025,0.6960999999999999 2.0040000000000013,0.6923999999999997 1.999100000000002,0.6845999999999997 2.000600000000002,0.6785999999999999 1.9969000000000001,0.6720999999999999 1.9979000000000013,0.6602999999999999 1.9902000000000015,0.6536 1.9878999999999998,0.6416 1.9817999999999998,0.6349 1.9817,0.6297999999999999 1.9832999999999998,0.6275999999999997 1.9814000000000007,0.6240999999999999 1.9841000000000015,0.6208999999999998 1.984300000000001,0.6158999999999999 1.9807000000000023,0.6128 1.9819999999999993,0.6082000000000001 1.9800000000000004,0.6000999999999999 1.9844000000000008,0.5893999999999999 1.9837000000000025,0.5812999999999997 1.988900000000001,0.5720999999999998 1.9912000000000027,0.5642999999999998 1.9913000000000025,0.5474999999999999 1.9878,0.5394999999999999 1.9899000000000022,0.5337999999999998 1.9891000000000005,0.5271999999999997 1.9899000000000022,0.5259999999999998 1.9944000000000024,0.528 1.9948000000000015,0.5253999999999999 1.9905000000000008,0.5188999999999999 1.9816000000000003,0.5156000000000001 1.976700000000001,0.5109999999999997 1.9733000000000018,0.5017 1.9745000000000026,0.49709999999999965 1.9647000000000006,0.4834999999999998 1.9540000000000006,0.4746999999999999 1.9494000000000007,0.4737999999999998 1.9445000000000014,0.47609999999999975 1.9348000000000027,0.47350000000000003 1.9337000000000018,0.4686999999999997 1.9298000000000002,0.4636999999999998 1.9259000000000022,0.46209999999999996 1.9242000000000026,0.46309999999999985 1.9215000000000018,0.46069999999999967 1.9215000000000018,0.45719999999999983 1.9183000000000021,0.4554 1.9190000000000005,0.45009999999999994 1.913800000000002,0.45109999999999983 1.9053000000000004,0.44819999999999993 1.904,0.4493999999999998 1.9041999999999994,0.4541999999999997 1.9017000000000017,0.45730000000000004 1.8897000000000013,0.4585999999999997 1.8845000000000027,0.4607999999999999 1.877200000000002,0.4659 1.8710000000000022,0.47619999999999996 1.8607000000000014,0.48 1.8553999999999995,0.4845999999999999 1.8474000000000004,0.4821 1.8405000000000022,0.47699999999999987 1.8340999999999994,0.4765999999999999 1.8289000000000009,0.46999999999999975 1.8274000000000008,0.45730000000000004 1.8186,0.4463999999999997 1.8103000000000016,0.4419999999999997 1.8070000000000022,0.4365999999999999 1.8023000000000025,0.43469999999999986 1.8013000000000012,0.43089999999999984 1.7956000000000003,0.4264999999999999 1.7894000000000005,0.42669999999999986 1.7822999999999993,0.4300999999999999 1.7784000000000013,0.4360999999999997 1.7683,0.43649999999999967 1.7622999999999998,0.4400999999999997 1.7530999999999999,0.43699999999999983 1.747600000000002,0.44069999999999965 1.7440999999999995,0.44049999999999967 1.7403000000000013,0.4371999999999998 1.7353000000000023,0.43759999999999977 1.7308000000000021,0.43569999999999975 1.7226,0.4262999999999999 1.713000000000001,0.4215 1.7079000000000022,0.42059999999999986 1.7018000000000022,0.4253999999999998 1.689,0.42879999999999985 1.682100000000002,0.42680000000000007 1.6772000000000027,0.4295 1.6736000000000004,0.43469999999999986 1.6670000000000016,0.4361999999999999 1.6570999999999998,0.43569999999999975 1.6541999999999994,0.43869999999999987 1.6494999999999997,0.43869999999999987 1.6479,0.44069999999999965 1.648500000000002,0.44679999999999964 1.6465999999999994,0.45059999999999967 1.638300000000001,0.45509999999999984 1.6327999999999996,0.46289999999999987 1.6280000000000001,0.46279999999999966 1.624600000000001,0.47330000000000005 1.6214000000000013,0.47419999999999973 1.6158000000000001,0.47129999999999983 1.6094000000000008,0.47350000000000003 1.6073000000000022,0.47639999999999993 1.608900000000002,0.48039999999999994 1.6082,0.4887999999999999 1.5990000000000002,0.49219999999999997 1.5968000000000018,0.49560000000000004 1.5993999999999993,0.5004 1.5977999999999994,0.5082 1.6014000000000017,0.5146999999999999 1.6010000000000026,0.5183 1.5989000000000004,0.5206 1.5888000000000027,0.5215999999999998 1.5820000000000007,0.5185 1.5762,0.5103 1.5687999999999995,0.5111999999999997 1.5644000000000027,0.5150999999999999 1.5600000000000023,0.5135999999999998 1.5594999999999999,0.5169999999999999 1.5557000000000016,0.5194999999999999 1.5524000000000022,0.5255999999999998 1.5469000000000008,0.5301999999999998 1.5427,0.5276999999999998 1.5305999999999997,0.5265999999999997 1.5263000000000027,0.5225999999999997 1.5234000000000023,0.5168999999999997 1.5189000000000021,0.5141 1.5150000000000006,0.4985999999999997 1.5117000000000012,0.4941 1.5122999999999998,0.484 1.4387000000000008,0.46679999999999966 1.4183000000000021,0.46409999999999973 1.391300000000001,0.46699999999999964 1.3885000000000005,0.46889999999999965 1.3888999999999996,0.4714999999999998 1.3864000000000019,0.4764999999999997 1.3823000000000008,0.4804999999999997 1.380200000000002,0.4806999999999997 1.3638000000000012,0.4703999999999997 1.3535000000000004,0.46889999999999965 1.3521999999999998,0.45779999999999976 1.342100000000002,0.4523999999999999 1.3375000000000021,0.4516 1.3363000000000014,0.4472999999999998 1.3374000000000024,0.4413 1.3347000000000016,0.4300999999999999 1.3217999999999996,0.41080000000000005 1.3179000000000016,0.40969999999999995 1.3091000000000008,0.4131999999999998 1.3022000000000027,0.4131999999999998 1.2955000000000005,0.4089999999999998 1.2850000000000001,0.4072 1.2743000000000002,0.4020999999999999 1.2615000000000016,0.4040999999999997 1.2441999999999993,0.41469999999999985 1.2353000000000023,0.41670000000000007 1.2291000000000025,0.42169999999999996 1.2113000000000014,0.4394 1.2007000000000012,0.4466999999999999 1.1952999999999996,0.46130000000000004 1.1852000000000018,0.4771000000000001 1.1717000000000013,0.48909999999999965 1.157700000000002,0.4958 1.1411000000000016,0.4946999999999999 1.1356000000000002,0.49629999999999974 1.0975000000000001,0.5130999999999997 1.0939000000000014,0.5091999999999999 1.0936000000000021,0.5002 1.0955000000000013,0.49099999999999966 1.0823999999999998,0.4756 1.0818000000000012,0.46999999999999975 1.0827000000000027,0.4665999999999997 1.0884999999999998,0.4607999999999999 1.093,0.4502999999999999 1.0930999999999997,0.44259999999999966 1.1003000000000007,0.4255 1.0992999999999995,0.4146000000000001 1.1008999999999993,0.4040999999999997 1.1059000000000019,0.39419999999999966 1.1039999999999992,0.3899999999999997 1.1066000000000003,0.38729999999999976 1.1065000000000005,0.38219999999999965 1.1088000000000022,0.379 1.1050000000000004,0.3687999999999998 1.1071000000000026,0.3635999999999999 1.1054999999999993,0.3535999999999997 1.1021999999999998,0.3506999999999998 1.094100000000001,0.35040000000000004 1.0889000000000024,0.3436999999999997 1.0809999999999995,0.3415999999999997 1.081500000000002,0.3392999999999997 1.0762999999999998,0.32810000000000006 1.0771000000000015,0.3247 1.0747,0.32030000000000003 1.0724000000000018,0.31969999999999965 1.0739000000000019,0.3155999999999999 1.0726000000000013,0.30589999999999984 1.0673999999999992,0.29869999999999974 1.067700000000002,0.29369999999999985 1.0648000000000017,0.29170000000000007 1.0630000000000024,0.28659999999999997 1.0591000000000008,0.2824 1.0592000000000006,0.27879999999999994 1.0607000000000006,0.27760000000000007 1.0600000000000023,0.2744 1.0624000000000002,0.2719999999999998 1.0650000000000013,0.2641 1.064,0.2622 1.0679000000000016,0.2589999999999999 1.0699000000000005,0.2507999999999999 1.0684000000000005,0.23150000000000004 1.069300000000002,0.21649999999999991 1.0664000000000016,0.20730000000000004 1.0683000000000007,0.20409999999999995 1.0729000000000006,0.20209999999999972 1.0746000000000002,0.19869999999999965 1.0722000000000023,0.18920000000000003 1.0671999999999997,0.18259999999999987 1.0671999999999997,0.17849999999999966 1.0690000000000026,0.17649999999999988 1.0620000000000012,0.1520999999999999 1.0577000000000005,0.14619999999999989 1.0566999999999993,0.13729999999999976 1.0509000000000022,0.1317999999999997 1.047900000000002,0.12449999999999983 1.0405000000000015,0.11850000000000005 1.0389000000000017,0.11169999999999991 1.034600000000001,0.10849999999999982 1.034600000000001,0.10619999999999985 1.0309000000000026,0.10270000000000001 1.0320999999999998,0.09909999999999997 1.0294000000000025,0.09539999999999971 1.0317000000000007,0.09299999999999997 1.028100000000002,0.08889999999999976 1.0260999999999996,0.08999999999999986 1.0206000000000017,0.08749999999999991 1.0176000000000016,0.08789999999999987 1.0170999999999992,0.08589999999999964 1.019400000000001,0.08369999999999989 1.0156000000000027,0.07799999999999985 1.0101000000000013,0.07789999999999964 1.0053000000000019,0.08000000000000007 1.0006000000000022,0.07899999999999974 0.9969000000000001,0.0754999999999999 0.9932000000000016,0.0772999999999997 0.9914000000000023,0.0732999999999997 0.9814000000000007,0.07159999999999966 0.9753000000000007,0.0642999999999998 0.9720000000000013,0.06569999999999965 0.9695,0.06219999999999981 0.9659000000000013,0.06089999999999973 0.963000000000001,0.06309999999999993 0.9583000000000013,0.06309999999999993 0.9553000000000011,0.06559999999999988 0.9529999999999994,0.06529999999999969 0.9531000000000027,0.06699999999999973 0.9495000000000005,0.06840000000000002 0.9475000000000016,0.07600000000000007 0.9482999999999997,0.07799999999999985 0.9465000000000003,0.0804999999999998 0.9392999999999994,0.08509999999999973 0.9330999999999996,0.08389999999999986 0.9253999999999998,0.07379999999999987 0.9230000000000018,0.07539999999999969 0.9162999999999997,0.07369999999999965 0.9130000000000003,0.07600000000000007 0.9071999999999996,0.07309999999999972 0.9059000000000026,0.06759999999999966 0.9069000000000003,0.06269999999999998 0.9046000000000021,0.06099999999999994 0.901600000000002,0.054199999999999804 0.9014000000000024,0.04559999999999986 0.8915000000000006,0.028999999999999915 0.8834000000000017,0.03269999999999973 0.8764000000000003,0.028699999999999726 0.8705999999999996,0.028999999999999915 0.8617000000000026,0.02159999999999984 0.8597000000000001,0.024399999999999977 0.8572000000000024,0.02159999999999984 0.8537999999999997,0.02400000000000002 0.8516000000000012,0.022399999999999753 "></polygon><polygon points="0.3882000000000012,1.1670999999999998 0.38670000000000115,1.1671999999999998 0.3862000000000023,1.1649999999999998 0.38780000000000214,1.1647999999999998 0.3882000000000012,1.1670999999999998 "></polygon>
    </svg>
    