
    <svg width="0.2102000000000004" height="0.40329999999999977" xmlns="http://www.w3.org/2000/svg" xmlns:xlink="http://www.w3.org/1999/xlink" style="transform: scale(1, -1)">
        <polygon points="0.15080000000000382,0.017999999999998906 0.14910000000000423,0.01440000000000019 0.14610000000000412,0.01609999999999978 0.1465999999999994,0.017999999999998906 0.15080000000000382,0.017999999999998906 "></polygon><polygon points="0.15800000000000125,0.05719999999999992 0.15630000000000166,0.05659999999999954 0.15500000000000114,0.05829999999999913 0.15800000000000125,0.05940000000000012 0.15800000000000125,0.05719999999999992 "></polygon><polygon points="0.18500000000000227,0.16300000000000026 0.19940000000000424,0.16499999999999915 0.20000000000000284,0.16300000000000026 0.19610000000000127,0.16300000000000026 0.19579999999999842,0.16080000000000005 0.1938999999999993,0.15969999999999906 0.19579999999999842,0.15920000000000023 0.19500000000000028,0.15529999999999866 0.20410000000000394,0.15829999999999878 0.20110000000000383,0.15219999999999878 0.1963000000000008,0.15080000000000027 0.19300000000000495,0.15189999999999948 0.19500000000000028,0.15000000000000036 0.19470000000000454,0.1479999999999997 0.20000000000000284,0.14860000000000007 0.1997,0.14669999999999916 0.19519999999999982,0.14529999999999887 0.19660000000000366,0.1418999999999997 0.19470000000000454,0.1407999999999987 0.19470000000000454,0.1382999999999992 0.1980000000000004,0.1374999999999993 0.1980000000000004,0.13549999999999862 0.19770000000000465,0.13419999999999987 0.19470000000000454,0.1343999999999994 0.19409999999999883,0.13279999999999959 0.19830000000000325,0.12859999999999872 0.1927000000000021,0.1291999999999991 0.19440000000000168,0.12689999999999912 0.1880000000000024,0.1280000000000001 0.18659999999999854,0.125 0.19140000000000157,0.12420000000000009 0.19470000000000454,0.12169999999999881 0.19409999999999883,0.11999999999999922 0.1921999999999997,0.11859999999999893 0.18500000000000227,0.12049999999999983 0.18080000000000496,0.11999999999999922 0.18359999999999843,0.11969999999999992 0.18610000000000326,0.11719999999999864 0.18359999999999843,0.1166999999999998 0.1858000000000004,0.11529999999999951 0.18610000000000326,0.11190000000000033 0.18910000000000338,0.11389999999999922 0.19500000000000028,0.11249999999999893 0.19579999999999842,0.11029999999999873 0.18610000000000326,0.10909999999999975 0.18769999999999953,0.10749999999999993 0.1858000000000004,0.10689999999999955 0.18500000000000227,0.10440000000000005 0.18610000000000326,0.10219999999999985 0.17970000000000397,0.08279999999999887 0.1811000000000007,0.08079999999999998 0.18659999999999854,0.08249999999999957 0.186399999999999,0.07659999999999911 0.1816000000000031,0.07749999999999879 0.18500000000000227,0.0732999999999997 0.18140000000000356,0.07219999999999871 0.1769000000000034,0.07390000000000008 0.18140000000000356,0.06920000000000037 0.17860000000000298,0.0688999999999993 0.17860000000000298,0.0666999999999991 0.18080000000000496,0.0647000000000002 0.1747000000000014,0.06639999999999979 0.1752000000000038,0.06329999999999991 0.17719999999999914,0.06219999999999892 0.1763000000000048,0.05829999999999913 0.17330000000000467,0.05749999999999922 0.17079999999999984,0.0602999999999998 0.16969999999999885,0.05889999999999951 0.1711000000000027,0.05410000000000004 0.16660000000000252,0.05250000000000021 0.1647000000000034,0.05889999999999951 0.15910000000000224,0.05799999999999983 0.15859999999999985,0.06139999999999901 0.15550000000000352,0.06189999999999962 0.15409999999999968,0.06109999999999971 0.15550000000000352,0.05919999999999881 0.1525000000000034,0.05889999999999951 0.1519000000000048,0.05609999999999893 0.148299999999999,0.05579999999999963 0.14970000000000283,0.053300000000000125 0.15500000000000114,0.052799999999999514 0.15520000000000067,0.050499999999999545 0.1529999999999987,0.050499999999999545 0.15220000000000056,0.04800000000000004 0.1501999999999981,0.04749999999999943 0.1477000000000004,0.04049999999999976 0.14390000000000214,0.03829999999999956 0.1402000000000001,0.03169999999999895 0.1424999999999983,0.024699999999999278 0.13799999999999812,0.023299999999998988 0.1355000000000004,0.019199999999999662 0.1338000000000008,0.01890000000000036 0.1338000000000008,0.01419999999999888 0.1366000000000014,0.00969999999999871 0.1413000000000011,0.007500000000000284 0.14220000000000255,0.0030000000000001137 0.14110000000000156,0.00140000000000029 0.13269999999999982,0.0 0.1280000000000001,0.004199999999999093 0.1255000000000024,0.0010999999999992127 0.12109999999999843,0.0030000000000001137 0.12130000000000507,0.006899999999999906 0.1255000000000024,0.007199999999999207 0.12750000000000483,0.010499999999998622 0.12770000000000437,0.013299999999999201 0.12470000000000425,0.012800000000000367 0.12630000000000052,0.01419999999999888 0.12579999999999814,0.015799999999998704 0.12360000000000326,0.015799999999998704 0.12049999999999983,0.021399999999999864 0.11380000000000479,0.022800000000000153 0.10520000000000351,0.021399999999999864 0.1022000000000034,0.022800000000000153 0.09909999999999997,0.02859999999999907 0.0951999999999984,0.02719999999999878 0.09049999999999869,0.02829999999999977 0.08970000000000056,0.03169999999999895 0.08630000000000138,0.032999999999999474 0.08660000000000423,0.037799999999998946 0.08330000000000126,0.039699999999999847 0.0840999999999994,0.04279999999999973 0.08270000000000266,0.04420000000000002 0.07500000000000284,0.04469999999999885 0.07390000000000185,0.04190000000000005 0.07019999999999982,0.04439999999999955 0.06380000000000052,0.04299999999999926 0.06300000000000239,0.045499999999998764 0.05519999999999925,0.04529999999999923 0.04749999999999943,0.04829999999999934 0.04579999999999984,0.050799999999998846 0.04299999999999926,0.049999999999998934 0.0397000000000034,0.056400000000000006 0.03249999999999886,0.0602999999999998 0.025500000000000966,0.07279999999999909 0.02300000000000324,0.07249999999999979 0.020000000000003126,0.07749999999999879 0.01190000000000424,0.08220000000000027 0.010500000000000398,0.0840999999999994 0.012500000000002842,0.09140000000000015 0.011400000000001853,0.09360000000000035 0.0016000000000033765,0.09939999999999927 0.0016000000000033765,0.10249999999999915 0.009399999999999409,0.10999999999999943 0.014099999999999113,0.11219999999999963 0.01630000000000109,0.11639999999999873 0.016100000000001558,0.12079999999999913 0.012199999999999989,0.12249999999999872 0.011400000000001853,0.1296999999999997 0.016100000000001558,0.1333000000000002 0.017700000000004934,0.14279999999999937 0.02020000000000266,0.14529999999999887 0.019700000000000273,0.14749999999999908 0.017200000000002547,0.14860000000000007 0.017200000000002547,0.15080000000000027 0.011400000000001853,0.14939999999999998 0.008600000000001273,0.15390000000000015 0.0,0.15579999999999927 0.0016000000000033765,0.15829999999999878 0.0007999999999981355,0.17549999999999955 0.008800000000000807,0.18939999999999912 0.010500000000000398,0.198599999999999 0.014400000000001967,0.2015999999999991 0.01190000000000424,0.20529999999999937 0.012500000000002842,0.20779999999999887 0.018900000000002137,0.210799999999999 0.02049999999999841,0.21529999999999916 0.019700000000000273,0.21779999999999866 0.02300000000000324,0.21999999999999886 0.02020000000000266,0.22279999999999944 0.022200000000005105,0.22799999999999976 0.029699999999998283,0.22719999999999985 0.032200000000003115,0.23109999999999964 0.036100000000004684,0.23219999999999885 0.03630000000000422,0.23419999999999952 0.033900000000002706,0.23550000000000004 0.04019999999999868,0.24300000000000033 0.041100000000000136,0.2492000000000001 0.04830000000000467,0.2538999999999998 0.04749999999999943,0.2561 0.04970000000000141,0.2596999999999987 0.054400000000001114,0.2583000000000002 0.05000000000000426,0.26280000000000037 0.053300000000000125,0.27389999999999937 0.05270000000000152,0.279399999999999 0.05799999999999983,0.27779999999999916 0.06380000000000052,0.279399999999999 0.06380000000000052,0.27529999999999966 0.06800000000000495,0.27639999999999887 0.06800000000000495,0.28049999999999997 0.06470000000000198,0.28049999999999997 0.06360000000000099,0.28420000000000023 0.06410000000000338,0.28720000000000034 0.06580000000000297,0.28800000000000026 0.06360000000000099,0.29689999999999905 0.06550000000000011,0.29800000000000004 0.06439999999999912,0.3003 0.06640000000000157,0.3033000000000001 0.0683000000000007,0.30189999999999984 0.07130000000000081,0.3025000000000002 0.07270000000000465,0.3099999999999987 0.07440000000000424,0.30829999999999913 0.07750000000000057,0.30829999999999913 0.07880000000000109,0.30469999999999864 0.08270000000000266,0.3033000000000001 0.08890000000000242,0.3057999999999996 0.08689999999999998,0.3071999999999999 0.08360000000000412,0.3064 0.08190000000000452,0.3094000000000001 0.0777000000000001,0.3096999999999994 0.07720000000000482,0.3135999999999992 0.07390000000000185,0.3147000000000002 0.07469999999999999,0.3171999999999997 0.07880000000000109,0.3182999999999989 0.08190000000000452,0.317499999999999 0.0840999999999994,0.3141999999999996 0.09020000000000294,0.3149999999999995 0.09830000000000183,0.3193999999999999 0.10000000000000142,0.3243999999999989 0.10269999999999868,0.3243999999999989 0.10660000000000025,0.3282999999999987 0.10770000000000124,0.3335999999999988 0.10719999999999885,0.34140000000000015 0.10470000000000113,0.3457999999999988 0.10580000000000211,0.35029999999999895 0.10300000000000153,0.35139999999999993 0.10300000000000153,0.35440000000000005 0.10520000000000351,0.35469999999999935 0.10439999999999827,0.36109999999999864 0.10660000000000025,0.3613999999999997 0.10719999999999885,0.35939999999999905 0.10910000000000508,0.3613999999999997 0.1127000000000038,0.36109999999999864 0.11690000000000111,0.3652999999999995 0.12250000000000227,0.36409999999999876 0.126100000000001,0.37049999999999983 0.12470000000000425,0.3804999999999996 0.1186000000000007,0.3849999999999998 0.11299999999999955,0.3829999999999991 0.1133000000000024,0.3879999999999999 0.1255000000000024,0.3854999999999986 0.12579999999999814,0.3894000000000002 0.12940000000000396,0.3896999999999995 0.12890000000000157,0.39250000000000007 0.13250000000000028,0.3955000000000002 0.13220000000000454,0.4004999999999992 0.13470000000000226,0.40139999999999887 0.13500000000000512,0.40329999999999977 0.1390999999999991,0.40029999999999966 0.14630000000000365,0.40139999999999887 0.14999999999999858,0.4004999999999992 0.15109999999999957,0.3974999999999991 0.15520000000000067,0.3996999999999993 0.15800000000000125,0.39669999999999916 0.16159999999999997,0.39639999999999986 0.16270000000000095,0.39390000000000036 0.16130000000000422,0.392199999999999 0.16159999999999997,0.3879999999999999 0.1630000000000038,0.38780000000000037 0.16329999999999956,0.3852999999999991 0.1529999999999987,0.3841999999999999 0.1519000000000048,0.3807999999999989 0.15270000000000294,0.3788999999999998 0.1576999999999984,0.3788999999999998 0.15970000000000084,0.375 0.15859999999999985,0.37329999999999863 0.16219999999999857,0.3699999999999992 0.1647000000000034,0.37049999999999983 0.16720000000000113,0.3735999999999997 0.16969999999999885,0.37299999999999933 0.16720000000000113,0.36939999999999884 0.1711000000000027,0.3691999999999993 0.17220000000000368,0.3666999999999998 0.16799999999999926,0.3663999999999987 0.16969999999999885,0.36109999999999864 0.16720000000000113,0.3589000000000002 0.16860000000000497,0.35749999999999993 0.1677000000000035,0.35389999999999944 0.17360000000000042,0.35859999999999914 0.17609999999999815,0.35779999999999923 0.17940000000000111,0.35999999999999943 0.18380000000000507,0.35829999999999984 0.18410000000000082,0.35639999999999894 0.18829999999999814,0.35440000000000005 0.19109999999999872,0.34970000000000034 0.1968999999999994,0.34469999999999956 0.1938999999999993,0.34140000000000015 0.1921999999999997,0.3318999999999992 0.18359999999999843,0.3324999999999996 0.18939999999999912,0.3285999999999998 0.18910000000000338,0.3263999999999996 0.18380000000000507,0.323599999999999 0.18939999999999912,0.323599999999999 0.19300000000000495,0.3216999999999999 0.19300000000000495,0.3155000000000001 0.19080000000000297,0.311399999999999 0.19519999999999982,0.31079999999999863 0.1963000000000008,0.3071999999999999 0.19300000000000495,0.2988999999999997 0.19660000000000366,0.28939999999999877 0.19830000000000325,0.28859999999999886 0.19830000000000325,0.28529999999999944 0.20470000000000255,0.28169999999999895 0.20550000000000068,0.2746999999999993 0.20410000000000394,0.2724999999999991 0.20690000000000452,0.26890000000000036 0.20690000000000452,0.2665999999999986 0.2049999999999983,0.2657999999999987 0.20690000000000452,0.26280000000000037 0.20300000000000296,0.2593999999999994 0.20250000000000057,0.2553000000000001 0.20410000000000394,0.2538999999999998 0.20660000000000167,0.2553000000000001 0.20770000000000266,0.2530000000000001 0.20609999999999928,0.2530000000000001 0.20609999999999928,0.2507999999999999 0.20300000000000296,0.25 0.20250000000000057,0.2477999999999998 0.20860000000000412,0.2485999999999997 0.2102000000000004,0.2461000000000002 0.20580000000000354,0.2453000000000003 0.2049999999999983,0.24249999999999972 0.20720000000000027,0.23969999999999914 0.20609999999999928,0.23799999999999955 0.20250000000000057,0.23749999999999893 0.20190000000000197,0.23579999999999934 0.20580000000000354,0.23470000000000013 0.2049999999999983,0.22669999999999924 0.20220000000000482,0.22139999999999915 0.19770000000000465,0.21969999999999956 0.1927000000000021,0.22049999999999947 0.19250000000000256,0.21889999999999965 0.1905000000000001,0.21889999999999965 0.19109999999999872,0.21330000000000027 0.19500000000000028,0.2093999999999987 0.19720000000000226,0.2093999999999987 0.198599999999999,0.20640000000000036 0.1921999999999997,0.20359999999999978 0.19020000000000437,0.19919999999999938 0.1963000000000008,0.1960999999999995 0.1963000000000008,0.19299999999999962 0.20080000000000098,0.192499999999999 0.20190000000000197,0.18549999999999933 0.198599999999999,0.1838999999999995 0.20020000000000238,0.18050000000000033 0.19610000000000127,0.17939999999999934 0.19770000000000465,0.17499999999999893 0.19440000000000168,0.17499999999999893 0.19470000000000454,0.17359999999999864 0.19770000000000465,0.17300000000000004 0.19750000000000512,0.17109999999999914 0.19250000000000256,0.17249999999999943 0.19250000000000256,0.17419999999999902 0.18550000000000466,0.17279999999999873 0.1852000000000018,0.17049999999999876 0.18829999999999814,0.17029999999999923 0.18829999999999814,0.16859999999999964 0.18270000000000408,0.16659999999999897 0.18330000000000268,0.16359999999999886 0.18500000000000227,0.16300000000000026 "></polygon>
    </svg>
    