
    <svg width="6.2003" height="4.3842" xmlns="http://www.w3.org/2000/svg" xmlns:xlink="http://www.w3.org/1999/xlink" style="transform: scale(1, -1)">
        <polygon points="1.5894999999999992,0.13470000000000049 1.5050999999999988,0.16360000000000063 1.4749999999999979,0.1625999999999994 1.3823000000000008,0.13979999999999926 1.3415999999999997,0.1526999999999994 1.2743000000000002,0.12369999999999948 1.2030999999999992,0.08329999999999949 1.1707,0.0683000000000007 1.1687000000000012,0.06680000000000064 1.1637999999999984,0.05400000000000027 1.123899999999999,0.05749999999999922 1.0574000000000012,0.049099999999999255 1.032899999999998,0.04209999999999958 0.9995000000000012,0.05209999999999937 0.9388000000000005,0.03819999999999979 0.9040999999999997,0.04860000000000042 0.8859999999999992,0.05090000000000039 0.854499999999998,0.05080000000000062 0.8261000000000003,0.030699999999999505 0.8247999999999998,0.031599999999999184 0.8200000000000003,0.03960000000000008 0.8133999999999979,0.04609999999999914 0.8115999999999985,0.061299999999999244 0.8070999999999984,0.07039999999999935 0.8021999999999991,0.07419999999999938 0.7986000000000004,0.07339999999999947 0.7920999999999978,0.0818999999999992 0.7882999999999996,0.08230000000000004 0.7832000000000008,0.0882000000000005 0.7789000000000001,0.08890000000000065 0.7765999999999984,0.09420000000000073 0.7712000000000003,0.09619999999999962 0.7619000000000007,0.12040000000000006 0.7603000000000009,0.13180000000000014 0.7535999999999987,0.14939999999999998 0.7536999999999985,0.1639999999999997 0.7512000000000008,0.17220000000000013 0.7515999999999998,0.1769999999999996 0.7566999999999986,0.1852999999999998 0.7679000000000009,0.21669999999999945 0.7765999999999984,0.26789999999999914 0.7748999999999988,0.2735000000000003 0.7780999999999985,0.29160000000000075 0.7754000000000012,0.31269999999999953 0.7711000000000006,0.3236000000000008 0.7651000000000003,0.3315999999999999 0.764599999999998,0.3369 0.7682000000000002,0.3407 0.764800000000001,0.34389999999999965 0.7582999999999984,0.3592999999999993 0.7546999999999997,0.3874999999999993 0.7656999999999989,0.41660000000000075 0.7666000000000004,0.43239999999999945 0.7629999999999981,0.4390999999999998 0.7554999999999978,0.44149999999999956 0.7547999999999995,0.4382999999999999 0.7524999999999977,0.4397000000000002 0.7557000000000009,0.4430999999999994 0.7554999999999978,0.4486000000000008 0.752600000000001,0.45260000000000034 0.7517999999999994,0.45759999999999934 0.7530000000000001,0.46499999999999986 0.7650000000000006,0.4961000000000002 0.7664000000000009,0.5135000000000005 0.773299999999999,0.5452999999999992 0.7803000000000004,0.5631000000000004 0.7879000000000005,0.6006 0.7899999999999991,0.6199999999999992 0.7969000000000008,0.6386000000000003 0.802699999999998,0.6765000000000008 0.8068999999999988,0.7109000000000005 0.8054999999999986,0.7367000000000008 0.8023999999999987,0.7387999999999995 0.7947999999999986,0.7566000000000006 0.7995999999999981,0.7655999999999992 0.8092000000000006,0.7673000000000005 0.8138000000000005,0.7742000000000004 0.8091000000000008,0.7845999999999993 0.8161999999999985,0.7891999999999992 0.8059000000000012,0.7972999999999999 0.8077000000000005,0.8061000000000007 0.8142999999999994,0.8071999999999999 0.8164999999999978,0.8024000000000004 0.8200000000000003,0.8013999999999992 0.821200000000001,0.8058999999999994 0.8172999999999995,0.8095999999999997 0.8172999999999995,0.8138000000000005 0.8228000000000009,0.8124000000000002 0.8298999999999985,0.8142999999999994 0.8326999999999991,0.8170000000000002 0.8337000000000003,0.8262999999999998 0.8366000000000007,0.8265999999999991 0.8391999999999982,0.8245000000000005 0.8415999999999997,0.8256999999999994 0.8389999999999986,0.8297000000000008 0.8396000000000008,0.8353000000000002 0.833400000000001,0.8419000000000008 0.8349000000000011,0.8463999999999992 0.8370999999999995,0.8482000000000003 0.8406999999999982,0.8471999999999991 0.8419999999999987,0.8448999999999991 0.8435999999999986,0.8457000000000008 0.8408999999999978,0.8542000000000005 0.8445999999999998,0.8547999999999991 0.8486000000000011,0.8520000000000003 0.8508999999999993,0.8521000000000001 0.8532000000000011,0.8529 0.8520000000000003,0.8581000000000003 0.8541999999999987,0.8599999999999994 0.871299999999998,0.8598999999999997 0.883700000000001,0.8663000000000007 0.9050000000000011,0.8633000000000006 0.9122999999999983,0.8613 0.9170999999999978,0.8579000000000008 0.9267000000000003,0.8577999999999992 0.940100000000001,0.8619000000000003 0.9478000000000009,0.8623999999999992 0.9564999999999984,0.8602000000000007 0.9593999999999987,0.8574000000000002 0.9782000000000011,0.8567999999999998 1.172699999999999,0.8576999999999995 1.3274000000000008,0.8550000000000004 1.4515999999999991,0.8567999999999998 1.5187999999999988,0.8558000000000003 1.5434,0.8567 1.591899999999999,0.8615999999999993 1.6502999999999997,0.8596000000000004 1.6494,0.8733000000000004 1.7403999999999993,0.8732000000000006 1.7408000000000001,1.0401000000000007 1.7820999999999998,1.0410000000000004 1.8158999999999992,1.0437999999999992 1.8400999999999996,1.050699999999999 1.862499999999999,1.0626999999999995 1.8878000000000004,1.0536999999999992 1.9519000000000002,1.0413999999999994 1.9641000000000002,1.0428999999999995 1.985899999999999,1.0516000000000005 2.0048999999999992,1.0671 2.0038,1.0706000000000007 2.022599999999999,1.0843000000000007 2.0267999999999997,1.0859000000000005 2.0269999999999992,1.0839999999999996 2.0511999999999997,1.0871999999999993 2.0729999999999986,1.0784000000000002 2.0937,1.0677000000000003 2.105699999999999,1.0676000000000005 2.1552999999999987,1.0517000000000003 2.1633999999999993,1.0473999999999997 2.174199999999999,1.0495 2.1875,1.0489999999999995 2.2477,1.0589999999999993 2.2639999999999993,1.0686999999999998 2.302299999999999,1.0985999999999994 2.3155,1.1104000000000003 2.3208,1.1188000000000002 2.3361,1.1691000000000003 2.347299999999999,1.2205999999999992 2.3576999999999995,1.2251999999999992 2.4002,1.2635000000000005 2.4031000000000002,1.2735000000000003 2.453999999999999,1.2906999999999993 2.4677999999999987,1.2576999999999998 2.4833,1.2375000000000007 2.5205,1.2011000000000003 2.5481,1.1822 2.569099999999999,1.1708999999999996 2.6163999999999987,1.1493000000000002 2.644399999999999,1.1397999999999993 2.6807,1.1372 2.6913,1.1382999999999992 2.7121999999999993,1.1202000000000005 2.7200999999999986,1.1157000000000004 2.739799999999999,1.1082999999999998 2.7584,1.1069999999999993 2.7835,1.1098 2.7950999999999997,1.0869 2.813699999999999,1.0664999999999996 2.837399999999999,1.0526999999999997 2.8841,1.0330999999999992 2.895999999999999,1.0330999999999992 2.8991999999999987,1.0353999999999992 2.925799999999999,1.0312999999999999 2.9543999999999997,1.0401000000000007 2.982199999999999,1.0549999999999997 3.0062999999999995,1.0198999999999998 3.020299999999999,1.0061999999999998 3.0366,0.9986999999999995 3.083,0.9930000000000003 3.105599999999999,0.9631000000000007 3.1297999999999995,0.9456000000000007 3.1538000000000004,0.9323999999999995 3.1776,0.9255999999999993 3.1852,0.9220000000000006 3.1944,0.9215999999999998 3.1951,0.9198000000000004 3.2112999999999996,0.9248999999999992 3.2356999999999996,0.9299 3.2695999999999987,0.9294999999999991 3.2802999999999987,0.9321999999999999 3.2881,0.9186999999999994 3.3084999999999987,0.9076000000000004 3.3325999999999993,0.9096999999999991 3.3421000000000003,0.9154 3.354799999999999,0.9187999999999992 3.360999999999999,0.9185999999999996 3.3886000000000003,0.9087999999999994 3.3949,0.9100000000000001 3.403699999999999,0.9154999999999998 3.4109,0.9149999999999991 3.4240999999999993,0.9301999999999992 3.428699999999999,0.9405000000000001 3.4288999999999987,0.9594000000000005 3.4215999999999998,0.9678000000000004 3.429499999999999,0.9733999999999998 3.440299999999999,0.9769000000000005 3.4461999999999993,0.9703999999999997 3.4608999999999988,0.9732000000000003 3.4688,0.9839000000000002 3.478399999999999,0.9842999999999993 3.4776999999999987,0.9776000000000007 3.4839,0.9776000000000007 3.496699999999999,0.9738000000000007 3.4987999999999992,0.9753000000000007 3.5007,0.9735999999999994 3.503399999999999,0.9741999999999997 3.5037000000000003,0.9809999999999999 3.5389,0.9835999999999991 3.5921000000000003,1.0137 3.625499999999999,1.0090000000000003 3.6486,1.0079999999999991 3.6708,1.0112000000000005 3.683299999999999,1.0145999999999997 3.7045999999999992,1.0258000000000003 3.7188,1.0389 3.7401,1.0702999999999996 3.7432999999999996,1.077 3.7508999999999997,1.1059 3.7512999999999987,1.1305999999999994 3.7478,1.1363000000000003 3.7270000000000003,1.1516000000000002 3.7070999999999987,1.1882000000000001 3.6875999999999998,1.1996000000000002 3.6784,1.2082999999999995 3.6628999999999987,1.234 3.6564999999999994,1.2414000000000005 3.6388999999999996,1.2514000000000003 3.608599999999999,1.2592999999999996 3.5854,1.2705000000000002 3.577,1.2720000000000002 3.5602,1.2698 3.548399999999999,1.2652 3.5161,1.2457999999999991 3.489799999999999,1.2447 3.4749999999999996,1.2471999999999994 3.4540999999999986,1.2470999999999997 3.4232999999999993,1.2368000000000006 3.4072999999999993,1.2291000000000007 3.3920999999999992,1.2289999999999992 3.3789,1.2248 3.3516999999999992,1.2098999999999993 3.3295999999999992,1.1935000000000002 3.3038999999999987,1.1662 3.2886999999999986,1.1669999999999998 3.2697000000000003,1.1638000000000002 3.236799999999999,1.1539000000000001 3.2227999999999994,1.1471999999999998 3.1952999999999996,1.1583000000000006 3.1750999999999987,1.1608999999999998 3.1723999999999997,1.1623 3.1670999999999996,1.1692999999999998 3.1483999999999988,1.1808999999999994 3.1389999999999993,1.1839999999999993 3.1304999999999996,1.1890999999999998 3.115599999999999,1.1937999999999995 3.109,1.2058 3.0992999999999995,1.2156000000000002 3.074299999999999,1.2326999999999995 3.0708,1.2636000000000003 3.066699999999999,1.2767 3.055299999999999,1.2974999999999994 3.0466999999999995,1.3084000000000007 3.0367999999999995,1.3172999999999995 3.009599999999999,1.3338999999999999 2.9852999999999987,1.3438999999999997 2.9392999999999994,1.3485999999999994 2.9166999999999987,1.3476999999999997 2.9024,1.3437999999999999 2.8842,1.3355999999999995 2.8538999999999994,1.3170000000000002 2.8431999999999995,1.3073999999999995 2.830399999999999,1.3072999999999997 2.7607999999999997,1.3459000000000003 2.7583,1.3592999999999993 2.750499999999999,1.3602000000000007 2.7493,1.3661999999999992 2.7561999999999998,1.3719999999999999 2.7547999999999995,1.3865999999999996 2.7486999999999995,1.4092000000000002 2.7401999999999997,1.4132999999999996 2.738299999999999,1.4162 2.7415000000000003,1.4253999999999998 2.740599999999999,1.4276999999999997 2.735999999999999,1.4338999999999995 2.7288999999999994,1.4347999999999992 2.725999999999999,1.4388000000000005 2.7241,1.4481000000000002 2.7037999999999993,1.4629999999999992 2.6708,1.4792000000000005 2.6389999999999993,1.4891000000000005 2.5965999999999987,1.4930000000000003 2.5755999999999997,1.4876000000000005 2.5664,1.4883000000000006 2.4808000000000003,1.5190000000000001 2.4212999999999987,1.4986999999999995 2.3277,1.4418000000000006 2.3035999999999994,1.4415999999999993 2.2889,1.4565000000000001 2.2745999999999995,1.4669000000000008 2.2607999999999997,1.4726999999999997 2.24,1.4771999999999998 2.2226999999999997,1.4779 2.2042,1.4753000000000007 2.184899999999999,1.4690999999999992 2.1610999999999994,1.4585000000000008 2.1479999999999997,1.4494000000000007 2.1449,1.4458000000000002 2.1449999999999996,1.4421999999999997 2.1388,1.4395000000000007 2.1388999999999996,1.4322 2.1282999999999994,1.4336000000000002 2.1236999999999995,1.4291 2.1097,1.4115000000000002 2.1014,1.3976000000000006 2.0952,1.3851999999999993 2.0861,1.3603000000000005 2.076599999999999,1.3213000000000008 2.069799999999999,1.2829999999999995 1.5152,1.2834000000000003 1.3477999999999994,1.2850000000000001 1.0536999999999992,1.2843999999999998 1.0456000000000003,1.2821999999999996 1.0286000000000008,1.2844999999999995 0.9976999999999983,1.2844999999999995 0.9968000000000004,1.2918000000000003 0.9924999999999997,1.2934999999999999 0.9870999999999981,1.2889 0.9832000000000001,1.2881999999999998 0.9755000000000003,1.3035999999999994 0.958400000000001,1.3165999999999993 0.9577999999999989,1.3188999999999993 0.9601000000000006,1.3226999999999993 0.9574999999999996,1.3237000000000005 0.950800000000001,1.3340999999999994 0.9497999999999998,1.3330000000000002 0.9393999999999991,1.3367000000000004 0.9311000000000007,1.341099999999999 0.9129000000000005,1.363199999999999 0.9074999999999989,1.3757000000000001 0.9041999999999994,1.3758 0.9055999999999997,1.3920999999999992 0.9041999999999994,1.403599999999999 0.9091999999999985,1.4189000000000007 0.8933,1.4442000000000004 0.8871000000000002,1.4465000000000003 0.8611000000000004,1.4727999999999994 0.8588999999999984,1.4703 0.8493999999999993,1.4717000000000002 0.8414000000000001,1.4861000000000004 0.8257000000000012,1.4941999999999993 0.8025999999999982,1.5012000000000008 0.7970000000000006,1.5015 0.7925000000000004,1.5081000000000007 0.7888999999999982,1.5016999999999996 0.789200000000001,1.4977999999999998 0.7857999999999983,1.4963999999999995 0.7840999999999987,1.5016999999999996 0.7838999999999992,1.5386000000000006 0.7817000000000007,1.5578000000000003 0.7819000000000003,1.5641999999999996 0.7838999999999992,1.5661000000000005 0.7827999999999982,1.5692000000000004 0.785499999999999,1.5846999999999998 0.7882999999999996,1.5688999999999993 0.7866999999999997,1.5617 0.7880000000000003,1.5558999999999994 0.7861000000000011,1.5531000000000006 0.7857999999999983,1.5435999999999996 0.7885999999999989,1.5344999999999995 0.7878000000000007,1.5264000000000006 0.7910000000000004,1.5230999999999995 0.7895000000000003,1.6187000000000005 0.7866,1.6205999999999996 0.780899999999999,1.6210000000000004 0.779399999999999,1.6242 0.7690999999999981,1.7451000000000008 0.7636000000000003,1.7622 0.7589000000000006,1.7859999999999996 0.7510000000000012,1.804499999999999 0.7411999999999992,1.8201 0.7410999999999994,1.8249999999999993 0.7379999999999995,1.8257999999999992 0.7359000000000009,1.8291000000000004 0.7287999999999997,1.8265999999999991 0.7219999999999978,1.8287999999999993 0.7211999999999996,1.8316 0.7241,1.8344000000000005 0.7226999999999997,1.8360000000000003 0.7186999999999983,1.8364999999999991 0.7176000000000009,1.838799999999999 0.716899999999999,1.8352000000000004 0.6946000000000012,1.8579000000000008 0.6858000000000004,1.8719999999999999 0.6763000000000012,1.8765999999999998 0.6709999999999994,1.9126999999999992 0.6646000000000001,1.9297000000000004 0.6539000000000001,1.943999999999999 0.6458000000000013,1.9519000000000002 0.6365999999999978,1.9657 0.6281999999999996,1.9750999999999994 0.6218000000000004,1.9776000000000007 0.6135999999999981,1.9778000000000002 0.611699999999999,1.9833999999999996 0.6099999999999994,2.0002999999999993 0.6121999999999979,2.025499999999999 0.6097000000000001,2.0424000000000007 0.6058999999999983,2.0511 0.5989000000000004,2.0578000000000003 0.5972000000000008,2.066699999999999 0.5934999999999988,2.0730000000000004 0.5870999999999995,2.0779999999999994 0.5820000000000007,2.0885 0.5768999999999984,2.094899999999999 0.5725999999999978,2.0989000000000004 0.5667000000000009,2.1011000000000006 0.5611999999999995,2.1068999999999996 0.5568999999999988,2.1079000000000008 0.5464999999999982,2.1164000000000005 0.540499999999998,2.1247000000000007 0.5349000000000004,2.129199999999999 0.5323999999999991,2.1302000000000003 0.5296999999999983,2.1289 0.5256000000000007,2.1318 0.5225000000000009,2.1319999999999997 0.5128999999999984,2.1401000000000003 0.5068999999999981,2.1392000000000007 0.4939999999999998,2.1415000000000006 0.48470000000000013,2.147499999999999 0.4786999999999999,2.1616999999999997 0.47609999999999886,2.1639 0.471899999999998,2.1633999999999993 0.470600000000001,2.1646 0.46499999999999986,2.1720000000000006 0.4623999999999988,2.1784999999999997 0.4565999999999981,2.1822 0.45589999999999975,2.1854999999999993 0.45349999999999824,2.1868 0.4480000000000004,2.2098999999999993 0.44269999999999854,2.2235999999999994 0.4375,2.2314000000000007 0.43570000000000064,2.2383000000000006 0.4300999999999995,2.2445000000000004 0.41169999999999973,2.257199999999999 0.40589999999999904,2.2644 0.39920000000000044,2.2772000000000006 0.39890000000000114,2.2805999999999997 0.39610000000000056,2.2828 0.3952999999999989,2.2872000000000003 0.3933,2.2889 0.3937999999999988,2.2918000000000003 0.3918999999999997,2.2966999999999995 0.39000000000000057,2.2970000000000006 0.3891999999999989,2.3017000000000003 0.37739999999999796,2.319699999999999 0.3691999999999993,2.327 0.3642000000000003,2.334999999999999 0.35889999999999844,2.3385999999999996 0.35389999999999944,2.3462999999999994 0.3421999999999983,2.3581000000000003 0.2903999999999982,2.3950999999999993 0.26470000000000127,2.4049999999999994 0.2619000000000007,2.4041999999999994 0.26129999999999853,2.4023000000000003 0.2491999999999983,2.4083000000000006 0.24329999999999785,2.41 0.24139999999999873,2.408899999999999 0.24159999999999826,2.4106000000000005 0.23639999999999972,2.4116999999999997 0.21000000000000085,2.4238999999999997 0.18909999999999982,2.4297000000000004 0.16079999999999828,2.4319000000000006 0.13700000000000045,2.4281000000000006 0.12739999999999796,2.424899999999999 0.11969999999999814,2.4202999999999992 0.11250000000000071,2.4102999999999994 0.11199999999999832,2.4067000000000007 0.113900000000001,2.4008000000000003 0.11969999999999814,2.3980999999999995 0.1252999999999993,2.3992000000000004 0.12600000000000122,2.3935999999999993 0.12180000000000035,2.3922000000000008 0.11840000000000117,2.3872 0.12099999999999866,2.3826 0.12069999999999936,2.3801000000000005 0.12330000000000041,2.3778000000000006 0.12239999999999895,2.3709000000000007 0.12219999999999942,2.3744999999999994 0.11710000000000065,2.3756000000000004 0.1142000000000003,2.3813999999999993 0.10909999999999798,2.379199999999999 0.10889999999999844,2.3766999999999996 0.11080000000000112,2.3789 0.11299999999999955,2.3774999999999995 0.11329999999999885,2.3744999999999994 0.11049999999999827,2.3733000000000004 0.11690000000000111,2.3697 0.11639999999999873,2.3664000000000005 0.11829999999999785,2.3682999999999996 0.12249999999999872,2.366999999999999 0.12160000000000082,2.3613999999999997 0.11359999999999815,2.3591999999999995 0.11159999999999926,2.3568999999999996 0.10930000000000106,2.349500000000001 0.10999999999999943,2.3475 0.11250000000000071,2.347199999999999 0.11329999999999885,2.3428000000000004 0.11110000000000042,2.3385999999999996 0.10940000000000083,2.3383000000000003 0.107800000000001,2.3389000000000006 0.10609999999999786,2.3467000000000002 0.09860000000000113,2.3520000000000003 0.09969999999999857,2.3575999999999997 0.09499999999999886,2.3636999999999997 0.09049999999999869,2.3658 0.08419999999999916,2.3656000000000006 0.0840999999999994,2.3697 0.08279999999999887,2.3705999999999996 0.08050000000000068,2.3703000000000003 0.07979999999999876,2.3666 0.07669999999999888,2.3682999999999996 0.07249999999999801,2.3660999999999994 0.07349999999999923,2.3765 0.06499999999999773,2.384499999999999 0.06739999999999924,2.3856 0.0688999999999993,2.3895 0.05829999999999913,2.3957999999999995 0.057500000000000995,2.3983000000000008 0.054700000000000415,2.3986 0.051899999999999835,2.407 0.045300000000001006,2.4067000000000007 0.04469999999999885,2.4094999999999995 0.039400000000000546,2.4106000000000005 0.03780000000000072,2.4139 0.03859999999999886,2.418100000000001 0.027200000000000557,2.4297000000000004 0.021699999999999164,2.432499999999999 0.012199999999999989,2.432499999999999 0.012199999999999989,2.4358000000000004 0.01419999999999888,2.4372000000000007 0.013300000000000978,2.4391999999999996 0.016099999999998005,2.4442000000000004 0.022999999999999687,2.4406 0.02529999999999788,2.4436 0.0326999999999984,2.4429 0.03389999999999915,2.447799999999999 0.03920000000000101,2.4464000000000006 0.04329999999999856,2.4489 0.0470000000000006,2.4473000000000003 0.051400000000001,2.450799999999999 0.05389999999999873,2.4499999999999993 0.06139999999999901,2.459199999999999 0.07189999999999941,2.4547000000000008 0.09999999999999787,2.459999999999999 0.1418999999999997,2.4757999999999996 0.16859999999999786,2.4884000000000004 0.17299999999999827,2.4884000000000004 0.17689999999999984,2.4906000000000006 0.17689999999999984,2.491999999999999 0.17940000000000111,2.4906000000000006 0.18049999999999855,2.4939 0.1999999999999993,2.498099999999999 0.20279999999999987,2.5020000000000007 0.20720000000000027,2.5020000000000007 0.21189999999999998,2.505000000000001 0.2154999999999987,2.5053 0.27749999999999986,2.5325000000000006 0.41469999999999985,2.602499999999999 0.42210000000000036,2.6144999999999996 0.42520000000000024,2.6264000000000003 0.4355000000000011,2.6453000000000007 0.513300000000001,2.7295999999999996 0.5641999999999996,2.7878000000000007 0.6192999999999991,2.856299999999999 0.6618999999999993,2.9118999999999993 0.6790999999999983,2.937899999999999 0.6812000000000005,2.9388000000000005 0.7715999999999994,3.083 0.8185000000000002,3.1518999999999995 0.823599999999999,3.1616999999999997 0.8754999999999988,3.2345000000000006 0.9205000000000005,3.3047000000000004 0.9527999999999999,3.3611000000000004 0.9739000000000004,3.402799999999999 0.9847000000000001,3.4289000000000005 0.9936000000000007,3.4430999999999994 0.9939,3.4495000000000005 0.9990999999999985,3.4566999999999997 0.9963999999999977,3.4619999999999997 1.0032999999999994,3.4802999999999997 1.0042000000000009,3.4842999999999993 1.0030000000000001,3.4856999999999996 1.0091,3.5016999999999996 1.019400000000001,3.5421999999999993 1.0210000000000008,3.5686999999999998 1.0235999999999983,3.583 1.026799999999998,3.644399999999999 1.0290999999999997,3.6546000000000003 1.0291999999999994,3.6837 1.031600000000001,3.7014999999999993 1.0330000000000013,3.7537999999999982 1.0594999999999999,3.7543000000000006 1.0597999999999992,3.7577999999999996 1.063600000000001,3.7605000000000004 1.0707999999999984,3.7714999999999996 1.077300000000001,3.7745999999999995 1.0808999999999997,3.7851999999999997 1.0945999999999998,3.7925000000000004 1.0952999999999982,3.7989999999999995 1.0830999999999982,3.809100000000001 1.0815999999999981,3.8149000000000015 1.086500000000001,3.8263 1.0835000000000008,3.844100000000001 1.0859999999999985,3.8485000000000014 1.0836000000000006,3.8634999999999984 1.0838999999999999,3.8758000000000017 1.0957000000000008,3.895599999999998 1.1064000000000007,3.906600000000001 1.1240999999999985,3.9133999999999993 1.1300999999999988,3.912700000000001 1.1415000000000006,3.9063000000000017 1.1523000000000003,3.909600000000001 1.1664999999999992,3.9261000000000017 1.1707999999999998,3.9430000000000014 1.175699999999999,3.952300000000001 1.1832999999999991,3.9579999999999984 1.186399999999999,3.9628000000000014 1.1856000000000009,3.9705000000000013 1.1831999999999994,3.9753000000000007 1.1755999999999993,3.9819999999999993 1.171800000000001,3.9898999999999987 1.1713999999999984,3.995899999999999 1.1736000000000004,4.006 1.177900000000001,4.015699999999999 1.1832999999999991,4.022300000000001 1.1896999999999984,4.027200000000001 1.1995000000000005,4.029699999999998 1.2087000000000003,4.043600000000001 1.2060999999999993,4.0701 1.2078999999999986,4.0886 1.2152999999999992,4.0976 1.2213999999999992,4.099799999999998 1.2283000000000008,4.099599999999999 1.229800000000001,4.1022 1.230999999999998,4.137899999999998 1.2331000000000003,4.1494 1.2417999999999978,4.162600000000001 1.2544000000000004,4.168399999999998 1.254999999999999,4.195599999999999 1.2562999999999995,4.1997 1.2626999999999988,4.2075 1.2758000000000003,4.2158000000000015 1.2964999999999982,4.222000000000001 1.3132999999999981,4.218699999999998 1.3291000000000004,4.210699999999999 1.3522999999999996,4.212199999999999 1.3594000000000008,4.217600000000001 1.3670000000000009,4.219899999999999 1.3811,4.235800000000001 1.3911999999999978,4.2425999999999995 1.4060999999999986,4.2471 1.409399999999998,4.2453 1.4214999999999982,4.2483 1.4296000000000006,4.2483 1.439,4.243500000000001 1.4427999999999983,4.2379999999999995 1.444700000000001,4.231200000000001 1.4421,4.217700000000001 1.443200000000001,4.2149 1.466899999999999,4.1998999999999995 1.4807999999999986,4.1831 1.4862000000000002,4.172599999999999 1.4883999999999986,4.171099999999999 1.4975999999999985,4.1706 1.5059000000000005,4.172999999999998 1.5124999999999993,4.1767 1.528500000000001,4.190799999999999 1.5349000000000004,4.194299999999998 1.5405999999999977,4.1953 1.5465,4.195 1.5566999999999993,4.191299999999998 1.5681999999999992,4.183699999999998 1.5716,4.177900000000001 1.575899999999999,4.177 1.5820999999999987,4.199999999999999 1.6013000000000002,4.2332 1.6348000000000003,4.254200000000001 1.6359999999999992,4.245000000000001 1.6303999999999998,4.223299999999998 1.6184999999999992,4.201499999999999 1.6295000000000002,4.206499999999998 1.6504999999999992,4.209599999999998 1.6744000000000003,4.206499999999998 1.6800999999999995,4.203600000000002 1.6830999999999996,4.199100000000001 1.6843000000000004,4.184100000000001 1.6890999999999998,4.185400000000001 1.7091999999999992,4.197600000000001 1.7220999999999993,4.2013 1.7319999999999993,4.200900000000001 1.761099999999999,4.188099999999999 1.8125,4.1813 1.828899999999999,4.1701000000000015 1.8429000000000002,4.164200000000001 1.8450999999999986,4.164999999999999 1.8491999999999997,4.170999999999999 1.854099999999999,4.172799999999999 1.892999999999999,4.176300000000001 1.902899999999999,4.179200000000002 1.9097999999999988,4.1831 1.9135999999999989,4.1861 1.9149999999999991,4.1919 1.9101999999999997,4.206199999999999 1.9107000000000003,4.2105 1.9123,4.214600000000001 1.9193999999999996,4.2211 1.9295999999999989,4.2212 1.9322999999999997,4.2194 1.9443000000000001,4.221599999999999 1.9515999999999991,4.218800000000002 1.9677999999999987,4.207599999999999 1.9814999999999987,4.204699999999999 1.9981999999999989,4.206199999999999 2.0246999999999993,4.214199999999998 2.0313999999999997,4.2181999999999995 2.0336,4.221499999999999 2.0321999999999996,4.2254000000000005 2.022499999999999,4.2379999999999995 2.0230999999999995,4.248200000000001 2.0268999999999995,4.2551999999999985 2.032399999999999,4.2608999999999995 2.0382999999999996,4.264299999999999 2.0609,4.273900000000001 2.0648999999999997,4.279900000000001 2.0733999999999995,4.284800000000001 2.0848999999999993,4.284700000000001 2.0915,4.282 2.1044,4.271699999999999 2.1114999999999995,4.2592 2.1145999999999994,4.241 2.1190999999999995,4.235800000000001 2.1296999999999997,4.231400000000001 2.1435999999999993,4.229399999999998 2.1519999999999992,4.2317 2.1676,4.240400000000001 2.1822,4.252500000000001 2.1867,4.253799999999998 2.1975999999999996,4.251899999999999 2.2036999999999995,4.252700000000001 2.2273999999999994,4.264900000000001 2.2337999999999987,4.266100000000002 2.2523999999999997,4.264099999999999 2.271699999999999,4.259 2.2796000000000003,4.260400000000001 2.286299999999999,4.259599999999999 2.301499999999999,4.246099999999998 2.308399999999999,4.244299999999999 2.317,4.244700000000002 2.3409999999999993,4.2605 2.361699999999999,4.268799999999999 2.3663999999999987,4.2729 2.367799999999999,4.278500000000001 2.3711,4.280200000000001 2.3819,4.280000000000001 2.4052999999999987,4.2712 2.4143999999999988,4.269400000000001 2.4276999999999997,4.2713 2.4532999999999987,4.291399999999999 2.4593999999999987,4.299700000000001 2.4590999999999994,4.308199999999999 2.4483999999999995,4.3233 2.4296999999999986,4.325600000000001 2.4238999999999997,4.329699999999999 2.422599999999999,4.336600000000001 2.4246999999999996,4.346299999999999 2.443199999999999,4.367899999999999 2.4488000000000003,4.369700000000002 2.4566,4.3687000000000005 2.465299999999999,4.364599999999999 2.4711,4.356200000000001 2.4787,4.3352 2.4886999999999997,4.3202 2.4916,4.319700000000001 2.4962,4.3246 2.5016,4.322600000000001 2.5098000000000003,4.322600000000001 2.5368999999999993,4.3325 2.540799999999999,4.3353 2.5450999999999997,4.344200000000001 2.546999999999999,4.3751 2.5535999999999994,4.382999999999999 2.5573999999999995,4.3842 2.5639000000000003,4.3826 2.590299999999999,4.3689 2.5916999999999994,4.359999999999999 2.5883000000000003,4.346799999999998 2.5892999999999997,4.3399 2.5984999999999996,4.325600000000001 2.607099999999999,4.322600000000001 2.6151999999999997,4.3276 2.6258999999999997,4.3383 2.6305999999999994,4.340199999999999 2.6312999999999995,4.3294999999999995 2.6327999999999996,4.326699999999999 2.6395999999999997,4.322399999999998 2.6453999999999986,4.322399999999998 2.6493,4.3246 2.652199999999999,4.330100000000002 2.6571,4.348400000000002 2.6617999999999995,4.3519000000000005 2.6654,4.352 2.6693999999999996,4.349499999999999 2.6784,4.335699999999999 2.680299999999999,4.3293 2.6823999999999995,4.3279 2.7009999999999987,4.331900000000001 2.7043,4.331800000000001 2.714599999999999,4.3262 2.717599999999999,4.327400000000001 2.7204999999999995,4.331700000000001 2.7203,4.337800000000001 2.7226999999999997,4.3429 2.729799999999999,4.345700000000001 2.7348999999999997,4.3414 2.748099999999999,4.3247 2.7531999999999996,4.321100000000001 2.7577999999999996,4.3231 2.7661,4.339500000000001 2.7712000000000003,4.345199999999998 2.7737999999999996,4.347100000000001 2.777799999999999,4.3474 2.7851,4.3431999999999995 2.7896,4.338000000000001 2.790799999999999,4.3309999999999995 2.7889999999999997,4.322600000000001 2.7904,4.318999999999999 2.801499999999999,4.312100000000001 2.8073999999999995,4.310600000000001 2.8095,4.313099999999999 2.8049,4.3210000000000015 2.8050999999999995,4.3231 2.8156999999999996,4.325199999999999 2.8149999999999995,4.3370999999999995 2.8171,4.338699999999999 2.8225999999999996,4.333099999999998 2.828999999999999,4.330400000000001 2.8530999999999995,4.337399999999999 2.8773,4.3384 2.8922999999999988,4.341799999999999 2.8970000000000002,4.3415 2.901,4.339500000000001 2.902799999999999,4.3367 2.902199999999999,4.327999999999999 2.9006999999999987,4.3264 2.8918999999999997,4.325099999999999 2.8911,4.320899999999998 2.8935999999999993,4.3169 2.9040999999999997,4.3088000000000015 2.9072999999999993,4.310199999999998 2.9139,4.319700000000001 2.925799999999999,4.320799999999998 2.9330999999999996,4.318200000000001 2.937099999999999,4.310500000000001 2.9398,4.3093 2.9479999999999986,4.3155 2.9581,4.311900000000001 2.970699999999999,4.315799999999999 2.9765999999999995,4.3139 2.9829999999999988,4.309000000000001 2.986699999999999,4.309100000000001 2.9909999999999997,4.315999999999999 2.9948999999999995,4.334099999999999 2.9985999999999997,4.3355999999999995 3.0134999999999987,4.321100000000001 3.0302999999999987,4.315000000000001 3.0413999999999994,4.3062000000000005 3.045399999999999,4.305900000000001 3.0556,4.3088000000000015 3.0618999999999996,4.315300000000001 3.0668999999999986,4.318100000000001 3.0953,4.315300000000001 3.1003999999999987,4.320399999999999 3.105599999999999,4.331600000000002 3.1221999999999994,4.3443000000000005 3.1265,4.343399999999999 3.1287000000000003,4.340900000000001 3.1319999999999997,4.328299999999999 3.136799999999999,4.324400000000001 3.1433,4.324300000000001 3.1534999999999993,4.328600000000002 3.1602999999999994,4.3294 3.1768,4.325399999999998 3.1913,4.331399999999999 3.2013999999999996,4.333500000000001 3.2104,4.3323 3.213099999999999,4.329999999999998 3.2157999999999998,4.322199999999999 3.2149,4.292999999999999 3.2083999999999993,4.269500000000001 3.209199999999999,4.263100000000001 3.212999999999999,4.2578 3.219099999999999,4.256799999999998 3.2296999999999993,4.2622 3.2444999999999986,4.262599999999999 3.2535999999999987,4.275300000000001 3.260299999999999,4.277799999999999 3.2636000000000003,4.276699999999998 3.2729999999999997,4.2683 3.2730999999999995,4.2635000000000005 3.2691999999999997,4.255099999999999 3.2670999999999992,4.244900000000001 3.270199999999999,4.235299999999999 3.282,4.213799999999999 3.286299999999999,4.2143000000000015 3.2851,4.217600000000001 3.286999999999999,4.227899999999998 3.2897,4.232700000000001 3.2958999999999996,4.2378 3.3050999999999995,4.2387000000000015 3.3225,4.236000000000001 3.333499999999999,4.2271 3.3429,4.223500000000001 3.3436000000000003,4.220700000000001 3.3385,4.212199999999999 3.339599999999999,4.205400000000001 3.3422,4.201699999999999 3.3758,4.185199999999998 3.3797999999999995,4.181100000000001 3.3866999999999994,4.168199999999999 3.3911999999999995,4.164100000000001 3.3983999999999988,4.1632 3.4048999999999996,4.169699999999999 3.409799999999999,4.168900000000001 3.4019999999999992,4.1556 3.402099999999999,4.150600000000001 3.4044999999999987,4.145800000000001 3.4237,4.1401 3.4315999999999995,4.133600000000001 3.4362999999999992,4.119499999999999 3.4399999999999995,4.116299999999999 3.456299999999999,4.1097 3.4682999999999993,4.100999999999999 3.4741,4.0945 3.4766999999999992,4.088100000000001 3.501899999999999,4.064 3.511799999999999,4.0442 3.5206999999999997,4.041599999999999 3.5325999999999986,4.041599999999999 3.5428999999999995,4.0395 3.5481,4.037700000000001 3.5542,4.031500000000001 3.570599999999999,4.026199999999999 3.5746,4.023199999999999 3.5855999999999995,4.0074000000000005 3.584999999999999,4.000399999999999 3.5817999999999994,3.9985 3.566699999999999,4.003 3.5557999999999996,4.000800000000002 3.5519999999999996,3.9963000000000015 3.553799999999999,3.987300000000001 3.5540000000000003,3.971 3.5557,3.9674000000000014 3.571399999999999,3.968399999999999 3.5825999999999993,3.9673000000000016 3.587999999999999,3.9650999999999996 3.5909999999999993,3.961400000000001 3.574399999999999,3.9436 3.5687999999999995,3.915700000000001 3.5731,3.914300000000001 3.5769,3.9152999999999984 3.59,3.9228999999999985 3.6005000000000003,3.9269 3.6037,3.9263000000000012 3.6081000000000003,3.921199999999999 3.6121999999999996,3.9193 3.622299999999999,3.9221000000000004 3.6259999999999994,3.893799999999999 3.6327999999999996,3.8862999999999985 3.6411999999999995,3.8826 3.6473999999999993,3.8842 3.658199999999999,3.8907999999999987 3.666499999999999,3.8877999999999986 3.6738,3.8804000000000016 3.6753,3.8744000000000014 3.665899999999999,3.8612 3.6640999999999995,3.850999999999999 3.6648999999999994,3.8454000000000015 3.6750999999999987,3.8322000000000003 3.6762999999999995,3.8223999999999982 3.687099999999999,3.8194000000000017 3.6923999999999992,3.8005999999999993 3.6948999999999987,3.7985000000000007 3.699299999999999,3.7988999999999997 3.7164,3.8188999999999993 3.722299999999999,3.8231 3.7447,3.8343999999999987 3.751199999999999,3.8355999999999995 3.7697000000000003,3.8333000000000013 3.7827,3.8367000000000004 3.7956000000000003,3.8420999999999985 3.8069999999999986,3.8530000000000015 3.8124000000000002,3.861799999999999 3.8211999999999993,3.8710999999999984 3.825099999999999,3.8735 3.830499999999999,3.873899999999999 3.8385999999999996,3.8704 3.8408999999999995,3.8611000000000004 3.838799999999999,3.8538999999999994 3.824299999999999,3.8394000000000013 3.8229999999999986,3.8360999999999983 3.827499999999999,3.8216 3.8406000000000002,3.8034999999999997 3.8612,3.787099999999999 3.864699999999999,3.7865 3.8691999999999993,3.7891000000000012 3.8781,3.799299999999999 3.8817000000000004,3.800799999999999 3.899099999999999,3.798400000000001 3.9122000000000003,3.799299999999999 3.9671000000000003,3.825099999999999 3.9822999999999986,3.8272000000000013 3.9879999999999995,3.8264999999999993 4.003499999999999,3.8221999999999987 4.0099,3.8187999999999995 4.020899999999999,3.8165000000000013 4.0275,3.8186 4.055199999999999,3.8393000000000015 4.062099999999999,3.8369999999999997 4.068,3.8263999999999996 4.066899999999999,3.8231 4.043899999999999,3.8154000000000003 4.0343,3.808 4.0291999999999994,3.8001000000000005 4.028599999999999,3.790399999999998 4.030999999999999,3.7851 4.043999999999999,3.7727000000000004 4.052399999999999,3.7720999999999982 4.058299999999999,3.7744 4.067499999999999,3.790800000000001 4.0748,3.798300000000001 4.082899999999999,3.800799999999999 4.0855,3.7994999999999983 4.087899999999999,3.7874000000000017 4.0983,3.7757000000000005 4.164,3.749600000000001 4.1678999999999995,3.7454 4.1655,3.705400000000001 4.1785,3.6899999999999995 4.1791,3.6849000000000007 4.176499999999999,3.6731999999999996 4.181899999999999,3.654299999999999 4.191099999999999,3.6388999999999996 4.200999999999999,3.6293000000000006 4.214599999999999,3.621600000000001 4.2247,3.6206999999999994 4.229799999999999,3.6171000000000006 4.2308,3.6134000000000004 4.2293,3.6081000000000003 4.2186,3.5983 4.213699999999999,3.5899 4.213899999999999,3.5832999999999995 4.219299999999999,3.5771999999999995 4.2363,3.568999999999999 4.2431,3.562099999999999 4.2446,3.5516000000000005 4.241,3.5296000000000003 4.2454,3.5107 4.2553,3.5002999999999993 4.2751,3.4860000000000007 4.276999999999999,3.4830000000000005 4.2776,3.4785000000000004 4.273999999999999,3.4756 4.267799999999999,3.4773999999999994 4.2628,3.4818999999999996 4.2599,3.4824 4.2552,3.4800000000000004 4.2507,3.4705999999999992 4.2509,3.4586000000000006 4.2797,3.4335000000000004 4.296999999999999,3.421899999999999 4.334899999999999,3.3873999999999995 4.331299999999999,3.3765 4.323699999999999,3.3664000000000005 4.3139,3.3648000000000007 4.2971,3.3698999999999995 4.292199999999999,3.3666 4.2905,3.3634000000000004 4.2911,3.3473000000000006 4.3041,3.3284000000000002 4.3147,3.3042999999999996 4.320399999999999,3.3011 4.3286,3.3013999999999992 4.3421,3.3156 4.347799999999999,3.3179999999999996 4.356399999999999,3.3173999999999992 4.3614999999999995,3.3160000000000007 4.399899999999999,3.2952999999999992 4.455499999999999,3.2734000000000005 4.4551,3.2699 4.4498999999999995,3.2670999999999992 4.448499999999999,3.2645999999999997 4.455599999999999,3.2551000000000005 4.4567,3.2433999999999994 4.443399999999999,3.218 4.4381,3.197799999999999 4.439399999999999,3.1900999999999993 4.443,3.1874000000000002 4.4651,3.1807999999999996 4.4772,3.1736000000000004 4.4902999999999995,3.1698000000000004 4.4953,3.1698000000000004 4.5228,3.172599999999999 4.5427,3.187099999999999 4.5609,3.1875 4.5741,3.1934000000000005 4.5786,3.1926000000000005 4.579699999999999,3.179499999999999 4.582699999999999,3.1677999999999997 4.5824,3.1541999999999994 4.5799,3.1470000000000002 4.5816,3.1385000000000005 4.5855,3.1349 4.5908999999999995,3.1340000000000003 4.600999999999999,3.1351999999999993 4.609499999999999,3.138299999999999 4.6159,3.1371 4.6175999999999995,3.1341 4.6175999999999995,3.1309000000000005 4.614099999999999,3.1252999999999993 4.5983,3.1140000000000008 4.5959,3.1098 4.5945,3.0595999999999997 4.599499999999999,3.0487 4.6114999999999995,3.0365 4.619299999999999,3.0318000000000005 4.634399999999999,3.0284999999999993 4.6533999999999995,3.0288000000000004 4.6892,3.0100999999999996 4.6959,3.0039999999999996 4.707799999999999,2.9802999999999997 4.709299999999999,2.9709000000000003 4.7075,2.9642999999999997 4.6935,2.9461999999999993 4.6868,2.9466 4.678699999999999,2.9504 4.6668,2.9605999999999995 4.663699999999999,2.9613999999999994 4.651199999999999,2.9610000000000003 4.647399999999999,2.959199999999999 4.644299999999999,2.9535 4.644,2.9468999999999994 4.647,2.9396000000000004 4.655799999999999,2.9313000000000002 4.672799999999999,2.9236000000000004 4.679699999999999,2.9179999999999993 4.685499999999999,2.9093999999999998 4.6904,2.8941999999999997 4.6937999999999995,2.8919999999999995 4.700699999999999,2.8911 4.7044999999999995,2.8922000000000008 4.7143999999999995,2.9026999999999994 4.720699999999999,2.905900000000001 4.735199999999999,2.907399999999999 4.741899999999999,2.905099999999999 4.75,2.898999999999999 4.756499999999999,2.884499999999999 4.748999999999999,2.8577999999999992 4.749499999999999,2.8499999999999996 4.753,2.843 4.764099999999999,2.8361 4.787599999999999,2.8287999999999993 4.796899999999999,2.821999999999999 4.808,2.8088999999999995 4.816899999999999,2.8015000000000008 4.828999999999999,2.7954000000000008 4.844099999999999,2.790799999999999 4.8477,2.7843999999999998 4.8474,2.7813 4.8514,2.7764000000000006 4.8536,2.7764000000000006 4.8561,2.779 4.8568999999999996,2.7904 4.8613,2.7967999999999993 4.871699999999999,2.8005999999999993 4.882999999999999,2.799200000000001 4.9056,2.7874 4.9352,2.7749000000000006 4.941099999999999,2.770199999999999 4.9536999999999995,2.7532999999999994 4.991999999999999,2.7226999999999997 5.0139,2.715 5.0342,2.7097999999999995 5.041599999999999,2.7093000000000007 5.050599999999999,2.7058 5.0647,2.6943 5.0814,2.6740999999999993 5.089699999999999,2.6144999999999996 5.0939,2.6061999999999994 5.0936,2.6011000000000006 5.088799999999999,2.5899 5.089699999999999,2.584999999999999 5.1038,2.5745000000000005 5.1295,2.5486000000000004 5.146699999999999,2.5365 5.159599999999999,2.5321 5.165899999999999,2.5279000000000007 5.189,2.520199999999999 5.2049,2.5199999999999996 5.216999999999999,2.5169999999999995 5.225899999999999,2.5089000000000006 5.2393,2.4907000000000004 5.2494,2.4815000000000005 5.258899999999999,2.4673999999999996 5.2623999999999995,2.4650999999999996 5.267099999999999,2.4627 5.283899999999999,2.4610000000000003 5.3017,2.4565 5.3088999999999995,2.4301999999999992 5.3132,2.4282000000000004 5.322699999999999,2.4285999999999994 5.3309999999999995,2.4235000000000007 5.334199999999999,2.4113000000000007 5.3284,2.3979 5.3346,2.3911 5.3385,2.3886000000000003 5.3437,2.3877000000000006 5.3607,2.3878000000000004 5.370899999999999,2.3790999999999993 5.380799999999999,2.3816000000000006 5.3834,2.3794000000000004 5.384,2.3747000000000007 5.3825,2.3726000000000003 5.376799999999999,2.367800000000001 5.367199999999999,2.364699999999999 5.365399999999999,2.3615999999999993 5.365499999999999,2.3573000000000004 5.367899999999999,2.3545999999999996 5.391299999999999,2.3492999999999995 5.396599999999999,2.3453 5.3980999999999995,2.3415 5.3985,2.3290000000000006 5.3942,2.3161000000000005 5.3888,2.3101000000000003 5.371699999999999,2.3072999999999997 5.3698999999999995,2.3034999999999997 5.370999999999999,2.279 5.362599999999999,2.2695000000000007 5.3568999999999996,2.26 5.3574,2.2492 5.3561,2.2477 5.334399999999999,2.248900000000001 5.325899999999999,2.2408 5.329599999999999,2.2182999999999993 5.3225,2.2005 5.321899999999999,2.1844 5.327,2.1792999999999996 5.34,2.174200000000001 5.343399999999999,2.1714 5.343499999999999,2.1684 5.336399999999999,2.1540999999999997 5.3363,2.1496999999999993 5.3530999999999995,2.133800000000001 5.3529,2.1304 5.3407,2.1157000000000004 5.341199999999999,2.0983 5.350899999999999,2.094899999999999 5.354999999999999,2.0907999999999998 5.3606,2.0885999999999996 5.362599999999999,2.0884 5.3658,2.093 5.3688,2.0915999999999997 5.372399999999999,2.0924999999999994 5.373799999999999,2.0876 5.378,2.0846 5.3788,2.0806000000000004 5.387499999999999,2.0763999999999996 5.3994,2.0761000000000003 5.4018999999999995,2.0770999999999997 5.403599999999999,2.0802999999999994 5.411999999999999,2.0782000000000007 5.4148,2.0793 5.4125,2.084199999999999 5.416699999999999,2.0859000000000005 5.4183,2.0806000000000004 5.412799999999999,2.0729000000000006 5.414199999999999,2.0677000000000003 5.417999999999999,2.0625999999999998 5.4222,2.062099999999999 5.4253,2.0588999999999995 5.427899999999999,2.0637000000000008 5.4392,2.0678 5.447999999999999,2.0594 5.4483999999999995,2.0527999999999995 5.4459,2.0512999999999995 5.447999999999999,2.0504 5.4482,2.046899999999999 5.4436,2.0479000000000003 5.438599999999999,2.0405999999999995 5.4414,2.0364000000000004 5.4481,2.033200000000001 5.447899999999999,2.0303000000000004 5.452399999999999,2.0282 5.447799999999999,2.0230999999999995 5.447199999999999,2.026299999999999 5.449999999999999,2.0279000000000007 5.444699999999999,2.0291999999999994 5.4459,2.0250000000000004 5.443199999999999,2.0261999999999993 5.443399999999999,2.0237999999999996 5.441699999999999,2.0234000000000005 5.4407,2.0252999999999997 5.441899999999999,2.0288000000000004 5.439599999999999,2.0304 5.440099999999999,2.0268999999999995 5.4367,2.027799999999999 5.435499999999999,2.0252 5.4367,2.0235000000000003 5.434199999999999,2.023999999999999 5.4366,2.0221999999999998 5.436499999999999,2.0199999999999996 5.438699999999999,2.0200999999999993 5.4376999999999995,2.0188000000000006 5.4468,2.0188000000000006 5.451699999999999,2.0167 5.449399999999999,2.0138999999999996 5.446399999999999,2.0135000000000005 5.4496,2.011799999999999 5.447099999999999,2.0068 5.442399999999999,2.0045 5.4414,2.005699999999999 5.438799999999999,2.0047999999999995 5.4398,2.0023 5.442599999999999,2.0029000000000003 5.440799999999999,1.9979999999999993 5.4429,1.9974000000000007 5.4442,2.0000999999999998 5.4505,1.9971999999999994 5.4612,1.9978999999999996 5.4681999999999995,1.9896999999999991 5.4817,1.9916999999999998 5.492099999999999,1.9867000000000008 5.4947,1.9832 5.498199999999999,1.9833999999999996 5.5001,1.9812999999999992 5.507199999999999,1.9831000000000003 5.5108,1.9823000000000004 5.509,1.9807000000000006 5.511999999999999,1.9787 5.510299999999999,1.9777000000000005 5.5131,1.975999999999999 5.5168,1.9794999999999998 5.517799999999999,1.9761000000000006 5.5197,1.9777000000000005 5.5229,1.9731000000000005 5.5466999999999995,1.9071999999999996 5.5564,1.8987999999999996 5.5565999999999995,1.885299999999999 5.5685,1.8803999999999998 5.5708,1.8760999999999992 5.568399999999999,1.8557000000000006 5.568299999999999,1.8390000000000004 5.561299999999999,1.8293 5.5572,1.8156999999999996 5.5611999999999995,1.8070000000000004 5.562899999999999,1.7799999999999994 5.561,1.7784999999999993 5.554,1.7792999999999992 5.5487,1.7764000000000006 5.5479,1.7685999999999993 5.5512999999999995,1.7555999999999994 5.543799999999999,1.7436000000000007 5.5372,1.7416999999999998 5.5383,1.7243999999999993 5.5306999999999995,1.7193000000000005 5.5366,1.7108000000000008 5.541,1.6987000000000005 5.541699999999999,1.6915999999999993 5.5381,1.6869999999999994 5.6045,1.6898 5.6129,1.6166999999999998 5.6051,1.5756999999999994 5.602599999999999,1.5538000000000007 5.5982,1.5480999999999998 5.599,1.5372000000000003 5.5962,1.5298999999999996 5.5952,1.5165000000000006 5.5929,1.5121000000000002 5.595099999999999,1.5048999999999992 5.5945,1.5005000000000006 5.591899999999999,1.4984000000000002 5.5832,1.4969000000000001 5.579099999999999,1.4878999999999998 5.5695,1.4854000000000003 5.5626,1.4709000000000003 5.5557,1.4632000000000005 5.5421,1.4543999999999997 5.540799999999999,1.4472000000000005 5.5343,1.4420000000000002 5.527099999999999,1.4419000000000004 5.5261,1.4395000000000007 5.5198,1.4349000000000007 5.514099999999999,1.4312000000000005 5.5085,1.4300999999999995 5.5046,1.425699999999999 5.4834,1.4177999999999997 5.4773,1.4099000000000004 5.4694,1.4124999999999996 5.475199999999999,1.3995999999999995 5.4847,1.3890999999999991 5.485999999999999,1.3828999999999994 5.5032,1.3546999999999993 5.5067,1.3396000000000008 5.504399999999999,1.3232999999999997 5.5052,1.3155000000000001 5.5136,1.306799999999999 5.5237,1.3009000000000004 5.542399999999999,1.2840000000000007 5.546299999999999,1.2775999999999996 5.543999999999999,1.2636000000000003 5.5451,1.2598000000000003 5.559699999999999,1.2529000000000003 5.571199999999999,1.2360000000000007 5.5716,1.2296999999999993 5.573599999999999,1.2271999999999998 5.5831,1.222199999999999 5.5908,1.2143999999999995 5.594999999999999,1.2142999999999997 5.5954999999999995,1.2125000000000004 5.599599999999999,1.2110000000000003 5.6067,1.2106999999999992 5.614899999999999,1.2065000000000001 5.6228,1.1930999999999994 5.6378,1.1865000000000006 5.6471,1.1801999999999992 5.649799999999999,1.1713000000000005 5.652999999999999,1.1681000000000008 5.667999999999999,1.1608999999999998 5.674199999999999,1.1541999999999994 5.678699999999999,1.1423000000000005 5.6784,1.1311999999999998 5.6767,1.1251999999999995 5.671199999999999,1.1219999999999999 5.665099999999999,1.1144999999999996 5.6638,1.1035000000000004 5.6561,1.0877 5.6548,1.0794999999999995 5.656799999999999,1.0762999999999998 5.6599,1.0776000000000003 5.6729,1.0734999999999992 5.679,1.0610999999999997 5.6846,1.0546000000000006 5.700099999999999,1.0449000000000002 5.707899999999999,1.0264000000000006 5.7127,1.0261999999999993 5.717499999999999,1.0216999999999992 5.7186,1.012599999999999 5.713699999999999,1.0053 5.713799999999999,1.0030000000000001 5.7431,1.0032999999999994 5.7462,1.0058000000000007 5.748299999999999,1.0206 5.7532,1.0277999999999992 5.7608,1.032 5.774699999999999,1.032399999999999 5.7768999999999995,1.0352999999999994 5.780099999999999,1.0518 5.7834,1.0607000000000006 5.7919,1.0694 5.795399999999999,1.0783000000000005 5.7995,1.0808999999999997 5.796299999999999,1.091099999999999 5.7981,1.1016999999999992 5.8004999999999995,1.1045999999999996 5.809099999999999,1.109 5.821399999999999,1.1098 5.8392,1.1084999999999994 5.8431999999999995,1.1065000000000005 5.848899999999999,1.1018000000000008 5.853,1.0953999999999997 5.8535,1.0830000000000002 5.8643,1.0843000000000007 5.875,1.0821000000000005 5.9002,1.0892999999999997 5.9171,1.0889000000000006 5.9221,1.0836000000000006 5.921199999999999,1.0717999999999996 5.918099999999999,1.0664999999999996 5.9107,1.0600000000000005 5.9092,1.0578000000000003 5.9102,1.056799999999999 5.929499999999999,1.0543999999999993 5.9444,1.0604999999999993 5.9498,1.0595999999999997 5.9526,1.054499999999999 5.9521,1.0282 5.953799999999999,1.0230999999999995 5.9589,1.0178999999999991 5.960199999999999,1.0143000000000004 5.957599999999999,1.0030999999999999 5.9681,1.000399999999999 5.9717,0.9974000000000007 5.9765999999999995,0.9888999999999992 5.982299999999999,0.984399999999999 5.991199999999999,0.9854000000000003 5.999799999999999,0.9829000000000008 6.0047999999999995,0.9781999999999993 6.006499999999999,0.9742999999999995 6.004299999999999,0.9664999999999999 6.012499999999999,0.9572000000000003 6.0222999999999995,0.9533000000000005 6.024199999999999,0.9511000000000003 6.023999999999999,0.9450000000000003 6.005899999999999,0.9217999999999993 6.004399999999999,0.9038000000000004 6.0068,0.8961000000000006 6.0114,0.8919999999999995 6.0205,0.8930000000000007 6.0390999999999995,0.8908000000000005 6.0449,0.8887999999999998 6.0473,0.8847000000000005 6.047699999999999,0.8727 6.0441,0.8643999999999998 6.038599999999999,0.8582000000000001 6.0352,0.8573000000000004 6.0334,0.8539999999999992 6.0288,0.8507999999999996 6.0283999999999995,0.8470999999999993 6.030799999999999,0.8410999999999991 6.042,0.8392 6.044799999999999,0.8369 6.050099999999999,0.8226999999999993 6.050799999999999,0.8132999999999999 6.059699999999999,0.8100000000000005 6.065099999999999,0.8057999999999996 6.070599999999999,0.7925000000000004 6.078299999999999,0.7912999999999997 6.0992,0.7922999999999991 6.1036,0.7911000000000001 6.1098,0.7860999999999994 6.110999999999999,0.7833000000000006 6.117799999999999,0.7797000000000001 6.121599999999999,0.7737999999999996 6.120899999999999,0.7652000000000001 6.1113,0.7536000000000005 6.1113,0.7492999999999999 6.118,0.7451000000000008 6.1273,0.7323000000000004 6.1334,0.7312999999999992 6.1350999999999996,0.7294 6.135499999999999,0.7212999999999994 6.1312999999999995,0.7128999999999994 6.140599999999999,0.7114999999999991 6.146099999999999,0.7088999999999999 6.150499999999999,0.7034000000000002 6.1501,0.6952999999999996 6.138299999999999,0.6905999999999999 6.1328,0.6928000000000001 6.131,0.6913 6.1302,0.6878999999999991 6.131499999999999,0.6849000000000007 6.1401,0.6755999999999993 6.139999999999999,0.6716999999999995 6.1363,0.6674000000000007 6.135499999999999,0.6634999999999991 6.1381,0.6679999999999993 6.1418,0.6684999999999999 6.147599999999999,0.6667000000000005 6.1548,0.6596999999999991 6.1592,0.6611999999999991 6.1617,0.6666000000000007 6.1617,0.6728000000000005 6.1587,0.6822999999999997 6.159699999999999,0.6864000000000008 6.1639,0.6880000000000006 6.179599999999999,0.6852 6.1876,0.6774000000000004 6.1914,0.6699999999999999 6.190999999999999,0.6526999999999994 6.2003,0.6362000000000005 6.198499999999999,0.6286000000000005 6.195599999999999,0.6247000000000007 6.183399999999999,0.6210000000000004 6.164,0.6182999999999996 6.157399999999999,0.6148000000000007 6.1533,0.6158000000000001 6.151999999999999,0.6218000000000004 6.147599999999999,0.6189 6.145399999999999,0.609399999999999 6.1463,0.6058000000000003 6.158899999999999,0.6021000000000001 6.159099999999999,0.5942000000000007 6.146099999999999,0.5821000000000005 6.1432,0.5704999999999991 6.1433,0.5663999999999998 6.147699999999999,0.5632000000000001 6.1511,0.5574999999999992 6.152199999999999,0.5516000000000005 6.1488,0.5457999999999998 6.1372,0.5388000000000002 6.1432,0.5346999999999991 6.145099999999999,0.5312999999999999 6.144299999999999,0.5198 6.1531,0.5206999999999997 6.1579999999999995,0.5251000000000001 6.1648,0.5231999999999992 6.164199999999999,0.5183 6.158899999999999,0.5060000000000002 6.164899999999999,0.4977999999999998 6.165799999999999,0.49319999999999986 6.1640999999999995,0.48659999999999926 6.164999999999999,0.47630000000000017 6.164,0.4720999999999993 6.1572,0.4665999999999997 6.1493,0.4659999999999993 6.1503,0.46419999999999995 6.1586,0.46139999999999937 6.168999999999999,0.44619999999999926 6.168799999999999,0.4427000000000003 6.1631,0.43599999999999994 6.1676,0.4328000000000003 6.1775,0.43299999999999983 6.180299999999999,0.42989999999999995 6.183,0.4216999999999995 6.1793,0.41970000000000063 6.1706,0.41970000000000063 6.1599,0.41740000000000066 6.1494,0.4192999999999998 6.135299999999999,0.41830000000000034 6.1266,0.41939999999999955 6.122199999999999,0.41820000000000057 6.1221,0.4032 6.1236,0.39589999999999925 6.1227,0.3888999999999996 6.119199999999999,0.38599999999999923 6.1142,0.38540000000000063 6.1096,0.3934999999999995 6.108699999999999,0.3930000000000007 6.110199999999999,0.3824000000000005 6.108799999999999,0.3734000000000002 6.100099999999999,0.3686000000000007 6.0982,0.36469999999999914 6.1023,0.35609999999999964 6.1122,0.3544999999999998 6.1198999999999995,0.35749999999999993 6.1234,0.35689999999999955 6.133099999999999,0.3432999999999993 6.134399999999999,0.3307000000000002 6.1395,0.32760000000000034 6.139199999999999,0.3175000000000008 6.134499999999999,0.31099999999999994 6.1244,0.3066999999999993 6.123799999999999,0.30100000000000016 6.1249,0.2970000000000006 6.130899999999999,0.29470000000000063 6.139999999999999,0.2878000000000007 6.1432,0.2817000000000007 6.137699999999999,0.2652000000000001 6.1264,0.2554999999999996 6.120199999999999,0.2552000000000003 6.109399999999999,0.2583000000000002 6.1052,0.2569999999999997 6.104999999999999,0.2507999999999999 6.0999,0.24029999999999951 6.102599999999999,0.23719999999999963 6.107999999999999,0.24300000000000033 6.1157,0.24259999999999948 6.1198999999999995,0.23690000000000033 6.120199999999999,0.22080000000000055 6.1297,0.2179000000000002 6.132099999999999,0.21889999999999965 6.1318,0.22889999999999944 6.135199999999999,0.2350999999999992 6.140799999999999,0.23629999999999995 6.146099999999999,0.23170000000000002 6.155299999999999,0.2331000000000003 6.159099999999999,0.23170000000000002 6.159799999999999,0.2259999999999991 6.1577,0.21969999999999956 6.155299999999999,0.21770000000000067 6.1653,0.21579999999999977 6.1678,0.21160000000000068 6.1676,0.1980000000000004 6.1645,0.1855999999999991 6.1706,0.17830000000000013 6.1699,0.18599999999999994 6.168099999999999,0.18810000000000038 6.176,0.20369999999999955 6.181899999999999,0.20389999999999908 6.187799999999999,0.20030000000000037 6.190799999999999,0.19229999999999947 6.192599999999999,0.1844999999999999 6.1922,0.1781000000000006 6.1884999999999994,0.18040000000000056 6.184999999999999,0.17379999999999995 6.1912,0.17149999999999999 6.193299999999999,0.16820000000000057 6.194799999999999,0.15719999999999956 6.190999999999999,0.15520000000000067 6.1866,0.15620000000000012 6.186,0.15160000000000018 6.1815999999999995,0.14579999999999949 6.1716999999999995,0.14530000000000065 6.173599999999999,0.1426999999999996 6.173399999999999,0.13589999999999947 6.1754999999999995,0.1316000000000006 6.180199999999999,0.1277000000000008 6.1784,0.11400000000000077 6.1768,0.11149999999999949 6.171799999999999,0.11159999999999926 6.170299999999999,0.10919999999999952 6.1655999999999995,0.10829999999999984 6.1655,0.1100999999999992 6.1615,0.11079999999999934 6.145099999999999,0.11059999999999981 6.140699999999999,0.11260000000000048 6.1371,0.11739999999999995 6.137599999999999,0.11880000000000024 6.130899999999999,0.12299999999999933 6.128599999999999,0.1272000000000002 6.1243,0.1294000000000004 6.1137,0.13119999999999976 6.1097,0.1335999999999995 6.098799999999999,0.1321999999999992 6.088899999999999,0.13569999999999993 6.078799999999999,0.1352999999999991 6.0695,0.14209999999999923 6.045299999999999,0.1407000000000007 6.0084,0.13560000000000016 6.0023,0.13620000000000054 5.953899999999999,0.1313999999999993 5.9429,0.12359999999999971 5.9343,0.1247000000000007 5.926599999999999,0.12069999999999936 5.9221,0.12129999999999974 5.916699999999999,0.12689999999999912 5.912899999999999,0.12739999999999974 5.895899999999999,0.12190000000000012 5.893599999999999,0.1227999999999998 5.8857,0.12119999999999997 5.874799999999999,0.11749999999999972 5.870699999999999,0.11289999999999978 5.863199999999999,0.1095000000000006 5.8538,0.09880000000000067 5.8467,0.09440000000000026 5.841799999999999,0.0931999999999995 5.83,0.0948999999999991 5.8261,0.09329999999999927 5.816099999999999,0.08309999999999995 5.7972,0.08179999999999943 5.793099999999999,0.08309999999999995 5.783999999999999,0.07840000000000025 5.7768999999999995,0.0779999999999994 5.7689,0.08760000000000012 5.754399999999999,0.08980000000000032 5.7494,0.08900000000000041 5.748099999999999,0.09350000000000058 5.742099999999999,0.09800000000000075 5.738099999999999,0.09689999999999976 5.7331,0.09169999999999945 5.730499999999999,0.09469999999999956 5.7166,0.0945999999999998 5.712899999999999,0.09629999999999939 5.709399999999999,0.09309999999999974 5.706099999999999,0.09329999999999927 5.699399999999999,0.08859999999999957 5.696199999999999,0.08910000000000018 5.694599999999999,0.09370000000000012 5.689,0.09670000000000023 5.6815,0.10449999999999982 5.6799,0.11089999999999911 5.6692,0.11190000000000033 5.652999999999999,0.1191999999999993 5.649199999999999,0.12630000000000052 5.6448,0.14150000000000063 5.5814,0.10260000000000069 5.570599999999999,0.09890000000000043 5.564399999999999,0.10130000000000017 5.5527,0.09740000000000038 5.5428,0.09750000000000014 5.5329999999999995,0.09520000000000017 5.5281,0.09699999999999953 5.5244,0.10319999999999929 5.5128,0.10800000000000054 5.503,0.11989999999999945 5.4893,0.12040000000000006 5.4818,0.12599999999999945 5.475199999999999,0.1205999999999996 5.466899999999999,0.12110000000000021 5.4605,0.11720000000000041 5.4542,0.11739999999999995 5.443,0.11089999999999911 5.4307,0.10839999999999961 5.4262999999999995,0.10529999999999973 5.419599999999999,0.08999999999999986 5.414,0.08489999999999931 5.4115,0.08029999999999937 5.3942,0.07620000000000005 5.3901,0.0691000000000006 5.3681,0.05860000000000021 5.3651,0.05230000000000068 5.359299999999999,0.051600000000000534 5.353899999999999,0.053000000000000824 5.3522,0.05109999999999992 5.346599999999999,0.05119999999999969 5.3347999999999995,0.0475999999999992 5.3284,0.05030000000000001 5.3194,0.05000000000000071 5.3132,0.04379999999999917 5.304399999999999,0.04129999999999967 5.295999999999999,0.04519999999999946 5.2867,0.040300000000000225 5.282399999999999,0.04049999999999976 5.2806,0.03810000000000002 5.277699999999999,0.038399999999999324 5.2692,0.03480000000000061 5.263299999999999,0.02829999999999977 5.2501999999999995,0.028900000000000148 5.218999999999999,0.013199999999999434 5.187199999999999,0.0 5.1822,0.010899999999999466 5.178099999999999,0.02829999999999977 5.169699999999999,0.033799999999999386 5.158999999999999,0.05760000000000076 5.152999999999999,0.0627999999999993 5.1525,0.06789999999999985 5.1387,0.0777000000000001 5.126099999999999,0.07620000000000005 5.1137999999999995,0.07879999999999932 5.0945,0.09220000000000006 5.0716,0.09529999999999994 5.051,0.10030000000000072 5.041,0.09689999999999976 5.0306999999999995,0.09740000000000038 5.0276,0.09619999999999962 5.020299999999999,0.08709999999999951 5.0108999999999995,0.07939999999999969 5.003299999999999,0.06949999999999967 4.9986999999999995,0.06620000000000026 4.979699999999999,0.05959999999999965 4.9695,0.07639999999999958 4.9626,0.08029999999999937 4.959999999999999,0.09140000000000015 4.962399999999999,0.10009999999999941 4.9466,0.09590000000000032 4.9345,0.10500000000000043 4.930999999999999,0.11800000000000033 4.9192,0.1264000000000003 4.900599999999999,0.12979999999999947 4.8774999999999995,0.1247000000000007 4.856299999999999,0.13059999999999938 4.7852,0.12519999999999953 4.7796,0.12700000000000067 4.780099999999999,0.1316000000000006 4.786199999999999,0.14109999999999978 4.7890999999999995,0.14899999999999913 4.7912,0.1568000000000005 4.7890999999999995,0.15889999999999915 4.7783,0.16579999999999906 4.774099999999999,0.1647999999999996 4.772,0.16239999999999988 4.7524,0.17510000000000048 4.742799999999999,0.1698000000000004 4.730599999999999,0.16830000000000034 4.7227,0.17249999999999943 4.7171,0.17970000000000041 4.7006,0.18549999999999933 4.699399999999999,0.18939999999999912 4.710699999999999,0.20330000000000048 4.7087,0.20790000000000042 4.6997,0.20809999999999995 4.6973,0.21080000000000076 4.6775,0.21649999999999991 4.667299999999999,0.2220999999999993 4.660499999999999,0.23290000000000077 4.6646,0.24130000000000074 4.6532,0.24520000000000053 4.643599999999999,0.2408999999999999 4.6373,0.2414000000000005 4.629,0.2375000000000007 4.6181,0.23659999999999926 4.6107,0.23150000000000048 4.6005,0.22809999999999953 4.596599999999999,0.22029999999999994 4.6029,0.2146000000000008 4.602,0.20579999999999998 4.604999999999999,0.19979999999999976 4.5998,0.16900000000000048 4.5983,0.16799999999999926 4.581099999999999,0.16699999999999982 4.573499999999999,0.15879999999999939 4.5518,0.16380000000000017 4.5481,0.16999999999999993 4.543899999999999,0.17239999999999966 4.5275,0.17249999999999943 4.5229,0.17459999999999987 4.519599999999999,0.1733999999999991 4.513199999999999,0.17549999999999955 4.506,0.17159999999999975 4.5024,0.17389999999999972 4.492899999999999,0.17329999999999934 4.4841999999999995,0.17569999999999908 4.480699999999999,0.17759999999999998 4.477499999999999,0.18399999999999928 4.479899999999999,0.2085000000000008 4.4755,0.22589999999999932 4.4793,0.23170000000000002 4.489599999999999,0.23830000000000062 4.4902999999999995,0.25459999999999994 4.4984,0.26280000000000037 4.501299999999999,0.2705000000000002 4.5008,0.27779999999999916 4.498299999999999,0.2834000000000003 4.499699999999999,0.2928999999999995 4.4925999999999995,0.30380000000000074 4.495199999999999,0.30770000000000053 4.4956,0.3152000000000008 4.493499999999999,0.3177000000000003 4.488399999999999,0.31840000000000046 4.480499999999999,0.3247 4.484299999999999,0.3329000000000004 4.483699999999999,0.3346999999999998 4.4697,0.33530000000000015 4.466899999999999,0.3277000000000001 4.455599999999999,0.3241999999999994 4.453199999999999,0.31869999999999976 4.4514,0.31789999999999985 4.448699999999999,0.32099999999999973 4.4436,0.31879999999999953 4.4422,0.31959999999999944 4.4398,0.32509999999999906 4.436399999999999,0.32760000000000034 4.427099999999999,0.32729999999999926 4.427199999999999,0.3331999999999997 4.4163,0.32980000000000054 4.408299999999999,0.33610000000000007 4.4063,0.3353999999999999 4.4048,0.33150000000000013 4.405299999999999,0.3269000000000002 4.3993,0.3323999999999998 4.3879,0.3349999999999991 4.3848,0.3324999999999996 4.3849,0.3282000000000007 4.3817,0.32949999999999946 4.3789,0.32869999999999955 4.373999999999999,0.33150000000000013 4.3659,0.32119999999999926 4.363899999999999,0.32540000000000013 4.353999999999999,0.33179999999999943 4.3467,0.3352000000000004 4.3414,0.3349999999999991 4.3422,0.34169999999999945 4.340999999999999,0.34450000000000003 4.337399999999999,0.3459000000000003 4.331999999999999,0.3417999999999992 4.326499999999999,0.3434000000000008 4.3231,0.3366000000000007 4.3164,0.33309999999999995 4.307499999999999,0.3423999999999996 4.298599999999999,0.3382000000000005 4.2896,0.3442000000000007 4.2835,0.34479999999999933 4.276199999999999,0.34309999999999974 4.2715,0.3465000000000007 4.2622,0.3484999999999996 4.2529,0.3437000000000001 4.2546,0.33810000000000073 4.240499999999999,0.33859999999999957 4.2364999999999995,0.33649999999999913 4.232899999999999,0.33869999999999933 4.222799999999999,0.33419999999999916 4.2174,0.33639999999999937 4.2112,0.33649999999999913 4.2105999999999995,0.34089999999999954 4.213899999999999,0.34670000000000023 4.2112,0.3506999999999998 4.207699999999999,0.3498000000000001 4.2051,0.3445999999999998 4.203099999999999,0.3437999999999999 4.197899999999999,0.3503000000000007 4.197099999999999,0.35960000000000036 4.199199999999999,0.3756000000000004 4.196899999999999,0.38230000000000075 4.193899999999999,0.3835999999999995 4.190299999999999,0.38339999999999996 4.1869,0.3755000000000006 4.182599999999999,0.3518000000000008 4.042399999999999,0.3672000000000004 3.5441000000000003,0.3664000000000005 3.3139000000000003,0.3711000000000002 3.310699999999999,0.3673000000000002 3.216799999999999,0.3686000000000007 3.216799999999999,0.3725000000000005 2.9486999999999988,0.37270000000000003 2.9299,0.37049999999999983 2.917399999999999,0.37260000000000026 2.8095999999999997,0.37020000000000053 2.6302000000000003,0.37180000000000035 2.5048999999999992,0.37729999999999997 2.458,0.3774999999999995 2.4223,0.37739999999999974 2.421999999999999,0.37509999999999977 2.4185,0.37270000000000003 2.4108,0.3725000000000005 2.3983999999999988,0.37400000000000055 2.3907999999999987,0.3768999999999991 2.369299999999999,0.3764000000000003 2.307599999999999,0.35130000000000017 2.2737,0.33039999999999914 2.207699999999999,0.30540000000000056 2.175799999999999,0.2701999999999991 2.1356,0.24050000000000082 2.1097,0.22530000000000072 2.0398999999999994,0.19740000000000002 1.9529999999999994,0.15969999999999906 1.9536999999999995,0.15610000000000035 1.9184999999999999,0.13889999999999958 1.9177,0.14139999999999908 1.8620999999999999,0.11660000000000004 1.8059999999999992,0.12589999999999968 1.6550999999999991,0.14259999999999984 1.5894999999999992,0.13470000000000049 "></polygon><polygon points="0.816399999999998,1.4644999999999992 0.816399999999998,1.4652999999999992 0.819700000000001,1.4649999999999999 0.8188999999999993,1.4642 0.816399999999998,1.4644999999999992 "></polygon><polygon points="0.8897000000000013,1.3377999999999997 0.8947000000000003,1.3314000000000004 0.898299999999999,1.3306000000000004 0.8985999999999983,1.3267000000000007 0.9039000000000001,1.3267000000000007 0.9080000000000013,1.3183000000000007 0.9107999999999983,1.3194999999999997 0.9132999999999996,1.3180999999999994 0.9146999999999998,1.3194999999999997 0.914200000000001,1.3180999999999994 0.909399999999998,1.3153000000000006 0.9008000000000003,1.3183000000000007 0.8867000000000012,1.341099999999999 0.8893999999999984,1.3414000000000001 0.8897000000000013,1.3377999999999997 "></polygon><polygon points="0.9010999999999996,1.3459000000000003 0.904399999999999,1.3489000000000004 0.9055,1.3485999999999994 0.9046999999999983,1.3460999999999999 0.8989000000000011,1.3424999999999994 0.8999999999999986,1.3495000000000008 0.9010999999999996,1.3459000000000003 "></polygon><polygon points="0.9067000000000007,1.3707999999999991 0.9063999999999979,1.3686000000000007 0.9100000000000001,1.3656000000000006 0.909399999999998,1.3611000000000004 0.9041999999999994,1.3542000000000005 0.8985999999999983,1.3511000000000006 0.8996999999999993,1.3581000000000003 0.9015999999999984,1.3603000000000005 0.9027999999999992,1.3725000000000005 0.9067000000000007,1.3707999999999991 "></polygon><polygon points="0.9050000000000011,1.373099999999999 0.9060999999999986,1.3735999999999997 0.9069000000000003,1.3721999999999994 0.9050000000000011,1.3721999999999994 0.9050000000000011,1.373099999999999 "></polygon><polygon points="0.07499999999999929,2.3414 0.07440000000000069,2.3414 0.07440000000000069,2.3432999999999993 0.07610000000000028,2.3422 0.07610000000000028,2.3407999999999998 0.07499999999999929,2.3414 "></polygon><polygon points="0.073599999999999,2.3481000000000005 0.073599999999999,2.3442000000000007 0.06939999999999813,2.3424999999999994 0.0691999999999986,2.3469999999999995 0.0671999999999997,2.3477999999999994 0.06939999999999813,2.349500000000001 0.073599999999999,2.3481000000000005 "></polygon><polygon points="0.14580000000000126,2.3603000000000005 0.147199999999998,2.3564000000000007 0.14470000000000027,2.3546999999999993 0.1416000000000004,2.3607999999999993 0.14300000000000068,2.3638999999999992 0.14580000000000126,2.3603000000000005 "></polygon><polygon points="0.0035999999999987153,2.4372000000000007 0.0018999999999991246,2.4342000000000006 0.0,2.433299999999999 0.0004999999999988347,2.4369999999999994 0.005299999999998306,2.4391999999999996 0.0058000000000006935,2.4377999999999993 0.0035999999999987153,2.4372000000000007 "></polygon><polygon points="0.03219999999999956,2.4487000000000005 0.030000000000001137,2.4464000000000006 0.025500000000000966,2.4464000000000006 0.027499999999999858,2.4499999999999993 0.03049999999999997,2.4503000000000004 0.03219999999999956,2.4487000000000005 "></polygon><polygon points="0.0671999999999997,2.4608000000000008 0.06469999999999843,2.4595000000000002 0.0625,2.459999999999999 0.06499999999999773,2.4625000000000004 0.0671999999999997,2.4608000000000008 "></polygon>
    </svg>
    