
    <svg width="14.242899999999992" height="7.665799999999997" xmlns="http://www.w3.org/2000/svg" xmlns:xlink="http://www.w3.org/1999/xlink" style="transform: scale(1, -1)">
        <polygon points="10.491399999999999,0.24799999999999756 10.490699999999997,0.2453000000000003 10.488199999999999,0.24349999999999739 10.4805,0.2394999999999996 10.4754,0.23939999999999628 10.472299999999997,0.23279999999999745 10.468499999999999,0.22979999999999734 10.4632,0.23199999999999932 10.453600000000002,0.22819999999999396 10.453699999999998,0.2201999999999984 10.444899999999997,0.2119999999999962 10.439099999999996,0.21529999999999916 10.427799999999998,0.2078999999999951 10.418999999999997,0.19200000000000017 10.4133,0.18609999999999616 10.399899999999995,0.1821999999999946 10.398699999999998,0.17980000000000018 10.383600000000001,0.17099999999999937 10.362899999999996,0.17249999999999943 10.345199999999998,0.1699999999999946 10.337299999999999,0.16169999999999618 10.323699999999995,0.15729999999999933 10.311399999999999,0.14739999999999753 10.309399999999997,0.13169999999999504 10.304200000000002,0.12389999999999901 10.295699999999997,0.12059999999999604 10.2853,0.12139999999999418 10.2761,0.1115999999999957 10.2635,0.10660000000000025 10.250299999999996,0.10919999999999419 10.236699999999999,0.10149999999999437 10.222899999999996,0.1021999999999963 10.211399999999998,0.09849999999999426 10.203699999999998,0.09379999999999455 10.195599999999999,0.08389999999999986 10.188499999999998,0.07899999999999352 10.183799999999998,0.07979999999999876 10.180599999999998,0.08389999999999986 10.170200000000001,0.10439999999999827 10.165299999999995,0.10639999999999361 10.159999999999997,0.09849999999999426 10.145199999999996,0.09609999999999985 10.138599999999997,0.09129999999999683 10.133199999999995,0.10189999999999344 10.110599999999998,0.1051000000000002 10.102399999999996,0.11819999999999453 10.1021,0.12829999999999586 10.091499999999996,0.13109999999999644 10.0807,0.14419999999999789 10.072400000000002,0.1372 10.0638,0.13879999999999626 10.056799999999996,0.1453999999999951 10.049299999999995,0.14439999999999742 10.040700000000001,0.14849999999999852 10.025300000000001,0.13819999999999766 9.866099999999996,0.0 9.860500000000002,0.007699999999999818 9.862299999999998,0.03909999999999769 9.854500000000002,0.05889999999999418 9.853200000000001,0.07169999999999987 9.854500000000002,0.08099999999999596 9.850699999999996,0.08859999999999957 9.853299999999997,0.09359999999999502 9.851199999999999,0.09879999999999711 9.8525,0.10009999999999764 9.851700000000001,0.10639999999999361 9.848599999999998,0.11409999999999343 9.850200000000001,0.1173999999999964 9.849399999999996,0.12409999999999854 9.836500000000001,0.13749999999999574 9.832799999999999,0.14809999999999945 9.833300000000001,0.15390000000000015 9.827799999999996,0.15699999999999648 9.823499999999996,0.16559999999999775 9.711199999999998,0.21299999999999386 9.676200000000001,0.24489999999999412 9.6248,0.30180000000000007 9.5272,0.3216999999999999 9.341099999999997,0.2797999999999945 9.1481,0.3053999999999988 9.011099999999999,0.38999999999999346 9.0064,0.3983999999999952 8.991900000000001,0.4065999999999974 8.986199999999997,0.4069999999999965 8.969000000000001,0.4218999999999937 8.961999999999996,0.42259999999999565 8.9546,0.4286999999999992 8.947199999999995,0.4368999999999943 8.9484,0.4416999999999973 8.959899999999998,0.4472999999999985 8.960499999999996,0.45249999999999346 8.953899999999997,0.45289999999999964 8.950800000000001,0.45949999999999847 8.9418,0.4591999999999956 8.935299999999998,0.46359999999999957 8.928999999999995,0.4759999999999991 8.9296,0.4846999999999966 8.934599999999996,0.4901999999999944 8.928799999999995,0.49389999999999645 8.912300000000002,0.4923000000000002 8.907699999999998,0.49389999999999645 8.868099999999998,0.4899999999999949 8.844699999999996,0.4847999999999999 8.8412,0.4788999999999959 8.8108,0.5027999999999935 8.799900000000001,0.5200999999999993 8.800799999999995,0.5208999999999975 8.790500000000002,0.528499999999994 8.785800000000002,0.5242999999999967 8.781500000000001,0.5305999999999997 8.781300000000002,0.5505999999999958 8.7776,0.5616999999999948 8.778399999999998,0.5649999999999977 8.7879,0.5717999999999961 8.7924,0.5775999999999968 8.800399999999996,0.5762999999999963 8.808900000000001,0.598399999999998 8.808599999999998,0.6191999999999993 8.811099999999996,0.6281999999999996 8.8138,0.6322999999999936 8.813499999999998,0.6362999999999985 8.805399999999999,0.6399999999999935 8.815399999999997,0.6700999999999979 8.823900000000002,0.6760999999999981 8.818599999999996,0.683099999999996 8.815599999999996,0.6998999999999995 8.818199999999997,0.7055999999999969 8.8108,0.7132999999999967 8.813400000000001,0.7190999999999974 8.812100000000001,0.7245999999999952 8.802999999999997,0.7282999999999973 8.8005,0.7369999999999948 8.802099999999996,0.7434999999999974 8.796599999999998,0.7528999999999968 8.806799999999996,0.7629999999999981 8.800699999999999,0.7658999999999949 8.79,0.7630999999999943 8.7879,0.7653999999999996 8.790599999999998,0.7703999999999951 8.7926,0.7856999999999985 8.785499999999999,0.7885999999999953 8.769599999999997,0.8064999999999998 8.738099999999996,0.8204999999999956 8.687199999999997,0.828799999999994 8.682899999999997,0.8334999999999937 8.681599999999996,0.8382000000000005 8.7179,0.8597999999999999 8.7269,0.8729999999999976 8.731899999999996,0.8892999999999986 8.7851,0.9902999999999977 8.791399999999996,1.0161999999999978 8.787799999999997,1.0426000000000002 8.767699999999998,1.1124999999999972 8.764600000000002,1.1299999999999955 8.758099999999999,1.1385999999999967 8.7288,1.2104999999999961 8.722299999999997,1.2511999999999972 8.7226,1.2632999999999939 8.734099999999998,1.318399999999997 8.736799999999995,1.3385999999999996 8.731000000000002,1.3688999999999965 8.738,1.3843999999999994 8.747900000000001,1.4000999999999948 8.751799999999996,1.418699999999994 8.749600000000001,1.437899999999999 8.706699999999998,1.518899999999995 8.7085,1.5205999999999946 8.706199999999995,1.5260999999999996 8.698799999999999,1.5322999999999993 8.279599999999995,1.505599999999994 8.193399999999997,1.497799999999998 8.041799999999995,1.4972999999999956 7.929299999999998,1.4943999999999988 7.911000000000001,1.5120999999999967 7.898600000000002,1.5178999999999974 7.890000000000001,1.5263999999999953 7.829099999999997,1.6214999999999975 7.807299999999998,1.6469999999999985 7.772799999999997,1.6806999999999945 7.7353999999999985,1.7125999999999948 7.661200000000001,1.806199999999997 7.647500000000001,1.8408999999999978 7.642899999999997,1.8486999999999938 7.6092999999999975,1.882399999999997 7.579599999999999,1.903499999999994 7.562999999999995,1.9099000000000004 7.558599999999998,1.9096999999999937 7.558599999999998,1.9015999999999948 7.537500000000001,1.9043999999999954 7.502800000000001,1.898299999999999 7.4861,1.8999999999999986 7.4576999999999956,1.9137999999999948 7.4482,1.9227999999999952 7.434699999999999,1.9262999999999977 7.403700000000001,1.9551999999999978 7.3917,1.962299999999999 7.356899999999996,1.9719999999999942 7.336599999999997,1.9820999999999955 7.328600000000002,1.9834999999999994 7.321100000000001,1.9824999999999946 7.318899999999999,1.9801000000000002 7.317099999999996,1.9728999999999957 7.302199999999999,1.9724999999999966 7.296900000000001,1.9743999999999957 7.2808999999999955,1.9885999999999981 7.2699,1.9949999999999974 7.258099999999999,1.9983999999999966 7.240499999999997,2.0 7.223999999999997,1.998899999999999 7.218699999999998,1.9965999999999937 7.2164,1.9938000000000002 7.209800000000001,1.9793999999999983 7.2010000000000005,1.9775999999999954 7.189099999999996,1.9795999999999978 7.183299999999996,1.9782999999999973 7.164499999999997,1.9878999999999962 7.157800000000002,1.9893999999999963 7.112400000000001,1.9926999999999992 7.109400000000001,1.9972999999999956 7.107199999999999,2.0094999999999956 7.112899999999996,2.0296999999999983 7.110599999999998,2.0364999999999966 7.089799999999997,2.042199999999994 7.079000000000001,2.0503 7.0563,2.059999999999995 7.0336,2.0745000000000005 7.038599999999995,2.0825999999999993 7.048699999999997,2.0904999999999987 7.049299999999995,2.0936999999999983 7.006900000000002,2.1381999999999977 6.992399999999996,2.1496999999999957 6.985299999999995,2.162299999999995 6.980499999999999,2.1661999999999964 6.965199999999996,2.172799999999995 6.957000000000001,2.1816999999999993 6.9510000000000005,2.1968999999999994 6.945,2.2249999999999943 6.932099999999998,2.2685999999999993 6.935600000000001,2.279899999999998 6.945499999999996,2.2879000000000005 6.961199999999998,2.293299999999995 6.9617,2.296199999999999 6.942900000000002,2.313299999999998 6.943599999999996,2.3315999999999946 6.945799999999998,2.3382000000000005 6.942599999999999,2.3451999999999984 6.936700000000002,2.3530999999999977 6.915900000000001,2.371399999999994 6.913899999999998,2.377899999999997 6.906399999999998,2.3855999999999966 6.894199999999998,2.3880999999999943 6.878499999999995,2.386899999999997 6.868499999999997,2.3836999999999975 6.8491,2.372799999999998 6.8348999999999975,2.3674999999999997 6.8052999999999955,2.368299999999998 6.790399999999998,2.3736999999999995 6.7712,2.375799999999998 6.764199999999995,2.381699999999995 6.758800000000001,2.3892999999999986 6.747499999999995,2.3962999999999965 6.744999999999997,2.401699999999998 6.726999999999997,2.4103999999999957 6.7134,2.420899999999996 6.697899999999997,2.426499999999997 6.6646,2.4462999999999937 6.628099999999996,2.4711 6.606200000000001,2.482999999999997 6.554400000000001,2.495999999999995 6.509599999999999,2.514499999999998 6.491,2.517699999999998 6.451999999999998,2.5204999999999984 6.445499999999996,2.5235999999999947 6.4161,2.546999999999997 6.380499999999998,2.562199999999997 6.376399999999997,2.5612999999999957 6.374699999999997,2.556999999999995 6.3825,2.5458 6.381900000000002,2.5418999999999983 6.373799999999996,2.5334000000000003 6.368099999999998,2.519199999999998 6.3628,2.5137 6.351700000000001,2.5116999999999976 6.320900000000002,2.521899999999995 6.312199999999997,2.520699999999998 6.306899999999999,2.5152 6.300799999999995,2.500099999999996 6.2967999999999975,2.499599999999994 6.230399999999996,2.5078999999999994 6.209399999999995,2.513299999999994 6.179099999999998,2.5257000000000005 6.164200000000001,2.5434999999999945 6.148899999999998,2.5563999999999965 6.135799999999996,2.5629999999999953 6.111899999999999,2.563299999999998 6.0961,2.5566999999999993 6.080500000000001,2.5408999999999935 6.0711999999999975,2.5185999999999993 6.050899999999999,2.505499999999998 6.0319,2.4980999999999938 6.0184,2.495199999999997 5.980399999999996,2.4961999999999946 5.971599999999995,2.4942999999999955 5.9602,2.4876999999999967 5.9514,2.485599999999998 5.945699999999995,2.4871999999999943 5.930099999999996,2.4993999999999943 5.927399999999999,2.5141999999999953 5.924099999999996,2.5167999999999964 5.8962,2.5274 5.858499999999999,2.525199999999998 5.850000000000001,2.526699999999998 5.795899999999996,2.543699999999994 5.788699999999999,2.548099999999998 5.784999999999997,2.5530999999999935 5.784700000000001,2.557699999999997 5.791799999999995,2.5763999999999996 5.791899999999998,2.586499999999994 5.790700000000001,2.5914 5.785800000000002,2.5947999999999993 5.784300000000002,2.598799999999997 5.774699999999996,2.6059999999999945 5.772599999999997,2.6092999999999975 5.770499999999998,2.6302999999999983 5.757799999999996,2.6395999999999944 5.7393,2.6444999999999936 5.7256,2.6507999999999967 5.7183999999999955,2.6558999999999955 5.712299999999999,2.656099999999995 5.699999999999996,2.6492999999999967 5.693300000000001,2.647999999999996 5.677599999999998,2.6607999999999947 5.665599999999998,2.6539 5.6616,2.654299999999999 5.655999999999999,2.6577999999999946 5.6524,2.6636999999999986 5.647500000000001,2.663899999999998 5.633899999999997,2.668999999999997 5.607999999999997,2.6654999999999944 5.6008,2.6661999999999964 5.592300000000002,2.669799999999995 5.588000000000001,2.6694999999999993 5.5809,2.677099999999996 5.573999999999998,2.681599999999996 5.5604999999999976,2.6877999999999957 5.537700000000001,2.702299999999994 5.521899999999995,2.708199999999998 5.5146000000000015,2.712599999999995 5.491099999999996,2.7201999999999984 5.477599999999995,2.7227999999999994 5.469999999999999,2.7264999999999944 5.439299999999996,2.734199999999994 5.4208,2.7350999999999956 5.393000000000001,2.730699999999999 5.381,2.7333 5.375700000000002,2.736699999999999 5.352599999999995,2.7602999999999938 5.345799999999997,2.763299999999994 5.3211999999999975,2.7641999999999953 5.308700000000002,2.7674999999999983 5.291199999999996,2.7797999999999945 5.284099999999995,2.7816999999999936 5.264400000000002,2.7819999999999965 5.254399999999997,2.779199999999996 5.2453999999999965,2.7789999999999964 5.213799999999999,2.7834000000000003 5.194699999999997,2.784399999999998 5.147799999999997,2.794799999999995 5.122299999999996,2.793699999999994 5.076599999999999,2.7845999999999975 5.070599999999999,2.7859999999999943 5.059399999999997,2.7929999999999993 5.045999999999999,2.797699999999999 4.9953999999999965,2.808399999999999 4.9879999999999995,2.8111999999999995 4.966000000000001,2.826899999999995 4.948499999999996,2.835799999999999 4.917699999999996,2.8446 4.912199999999999,2.8489999999999966 4.910899999999998,2.8521999999999963 4.911699999999996,2.8568 4.921399999999998,2.8685999999999936 4.926400000000001,2.8798999999999992 4.927099999999996,2.8921999999999954 4.924799999999998,2.9032999999999944 4.925899999999999,2.9084999999999965 4.935699999999997,2.9280999999999935 4.9392,2.943099999999994 4.937999999999995,2.9480000000000004 4.933900000000001,2.9531999999999954 4.914099999999998,2.9668999999999954 4.906199999999998,2.9771 4.900599999999997,2.9902999999999977 4.892600000000002,2.998599999999996 4.8523,3.020399999999995 4.850999999999999,3.0330999999999975 4.8515000000000015,3.0437999999999974 4.8551,3.0551999999999992 4.854099999999995,3.0689999999999955 4.843800000000002,3.0784999999999982 4.816800000000001,3.0896999999999935 4.814700000000002,3.0929999999999964 4.8123000000000005,3.107299999999995 4.809599999999996,3.1114999999999995 4.811099999999996,3.1169999999999973 4.807600000000001,3.127599999999994 4.803699999999999,3.1318999999999946 4.798299999999998,3.134599999999999 4.784300000000002,3.138999999999996 4.761400000000002,3.1399999999999935 4.737400000000001,3.1317999999999984 4.723599999999998,3.129799999999996 4.719099999999997,3.1266999999999996 4.703600000000002,3.103899999999996 4.6924999999999955,3.0915999999999997 4.653099999999995,3.0548999999999964 4.638999999999996,3.0468999999999937 4.6205,3.0423999999999936 4.610599999999998,3.042099999999998 4.580999999999996,3.0438999999999936 4.560299999999998,3.0475999999999956 4.5563999999999965,3.0504999999999995 4.555999999999997,3.053699999999999 4.549199999999999,3.064 4.544799999999995,3.067999999999998 4.5394000000000005,3.069599999999994 4.514499999999998,3.066899999999997 4.470500000000001,3.070599999999999 4.447400000000002,3.0740999999999943 4.414699999999996,3.081699999999998 4.399299999999997,3.0882000000000005 4.384900000000002,3.096599999999995 4.356499999999997,3.1047999999999973 4.325800000000001,3.1311999999999998 4.321799999999996,3.1327 4.315300000000001,3.142699999999998 4.309100000000001,3.1396999999999977 4.295400000000001,3.1276999999999973 4.286200000000001,3.124599999999994 4.275399999999998,3.1235 4.255499999999998,3.127299999999998 4.231899999999996,3.1248000000000005 4.218299999999999,3.1218000000000004 4.206699999999998,3.114599999999996 4.204000000000001,3.107999999999997 4.201599999999999,3.1059999999999945 4.179899999999996,3.1006999999999962 4.162700000000001,3.093599999999995 4.157599999999995,3.098099999999995 4.1526,3.1073999999999984 4.145099999999999,3.115399999999994 4.133800000000001,3.1225999999999985 4.1263000000000005,3.1241999999999948 4.094999999999999,3.1265 4.070699999999995,3.122799999999998 4.021899999999995,3.1241999999999948 4.007199999999997,3.1199999999999974 3.9913999999999987,3.1176999999999992 3.9831000000000003,3.1151999999999944 3.9756,3.110599999999998 3.950400000000002,3.0908999999999978 3.912700000000001,3.065099999999994 3.8988000000000014,3.053999999999995 3.8877999999999986,3.040299999999995 3.885799999999996,3.0351 3.8870000000000005,3.0281999999999982 3.8928999999999974,3.017699999999998 3.893099999999997,3.008499999999998 3.905299999999997,3.002299999999998 3.910499999999999,2.992999999999995 3.915700000000001,2.9872999999999976 3.9172999999999973,2.982199999999999 3.914899999999996,2.9739999999999966 3.906500000000001,2.9680999999999997 3.8996999999999957,2.959299999999999 3.8977999999999966,2.940799999999996 3.895699999999998,2.9401999999999973 3.846199999999996,2.940799999999996 3.805499999999995,2.932299999999998 3.777000000000001,2.930499999999995 3.7700999999999993,2.931599999999996 3.7318,2.9527 3.7250999999999976,2.9532999999999987 3.7010000000000005,2.951899999999995 3.638300000000001,2.9435999999999964 3.598300000000002,2.9365999999999985 3.560299999999998,2.935699999999997 3.5512999999999977,2.936799999999998 3.5394000000000005,2.9351999999999947 3.5212000000000003,2.9454999999999956 3.5186999999999955,2.948599999999999 3.508099999999999,2.9524999999999935 3.4909999999999997,2.953099999999999 3.476700000000001,2.9490999999999943 3.4572000000000003,2.947199999999995 3.430799999999998,2.9553999999999974 3.395699999999998,2.972299999999997 3.372,2.9816999999999965 3.3447999999999993,2.977499999999999 3.321799999999996,2.981499999999997 3.3066999999999993,2.981099999999998 3.3004999999999995,2.9801 3.285800000000002,2.973099999999995 3.237099999999998,2.9672999999999945 3.2070000000000007,2.9694999999999965 3.180900000000001,2.9679999999999964 3.1469999999999985,2.960499999999996 3.0992999999999995,2.9568999999999974 3.0811999999999955,2.9521999999999977 3.067299999999996,2.944899999999997 3.055900000000001,2.9425999999999988 3.0429999999999993,2.9557 3.0328000000000017,2.954499999999996 3.011499999999998,2.9409999999999954 3.005499999999998,2.9313999999999965 3.0002999999999957,2.927199999999999 2.9878,2.9232999999999976 2.9649999999999963,2.910499999999999 2.9406999999999996,2.9022999999999968 2.893799999999999,2.8825000000000003 2.8618999999999986,2.8729999999999976 2.8421999999999983,2.863499999999995 2.8241000000000014,2.8522999999999996 2.803599999999996,2.851399999999998 2.7637999999999963,2.834799999999994 2.750799999999998,2.822499999999998 2.7447000000000017,2.8288999999999973 2.710099999999997,2.8281999999999954 2.687899999999999,2.8211999999999975 2.626899999999999,2.7723999999999975 2.601399999999998,2.760399999999997 2.5899,2.7431999999999945 2.586500000000001,2.7333 2.5704999999999956,2.7198999999999955 2.516300000000001,2.6883999999999943 2.5079999999999956,2.6710999999999956 2.4506000000000014,2.6358999999999995 2.4435999999999964,2.6388999999999996 2.434599999999996,2.639499999999998 2.428599999999996,2.6322999999999936 2.423499999999997,2.634699999999995 2.415299999999995,2.6306999999999974 2.410499999999999,2.6255999999999986 2.4106999999999985,2.6206999999999994 2.398399999999995,2.614999999999995 2.401699999999998,2.6103999999999985 2.3932999999999964,2.600199999999994 2.382399999999997,2.595399999999998 2.3810999999999964,2.589499999999994 2.3821999999999974,2.5867000000000004 2.373199999999997,2.576599999999999 2.3795,2.575099999999999 2.3802999999999983,2.5722999999999985 2.3754999999999953,2.5686999999999998 2.3699000000000012,2.5548999999999964 2.361699999999999,2.550699999999999 2.358399999999996,2.5473 2.3588999999999984,2.5433999999999983 2.3566999999999965,2.5392999999999972 2.360900000000001,2.534399999999998 2.3596000000000004,2.5307999999999993 2.348300000000002,2.518799999999999 2.3425999999999974,2.502899999999997 2.347699999999996,2.4908999999999963 2.350999999999999,2.4876000000000005 2.3566999999999965,2.485899999999994 2.365699999999997,2.4872999999999976 2.3744000000000014,2.480699999999999 2.3776999999999973,2.4756 2.3751999999999995,2.458199999999998 2.3677999999999955,2.4443999999999946 2.3652000000000015,2.4354999999999976 2.3622000000000014,2.4328000000000003 2.365400000000001,2.4313999999999965 2.3648999999999987,2.4258999999999986 2.358699999999999,2.421599999999998 2.356499999999997,2.415299999999995 2.3564000000000007,2.3932999999999964 2.3444000000000003,2.386799999999994 2.3337000000000003,2.383899999999997 2.331299999999999,2.380899999999997 2.334299999999999,2.3765 2.316499999999998,2.358799999999995 2.308099999999996,2.3540999999999954 2.276699999999998,2.3429 2.2342999999999975,2.3105999999999938 2.2117999999999967,2.3008999999999986 2.207799999999999,2.3011999999999944 2.2002999999999986,2.308499999999995 2.184199999999997,2.3078999999999965 2.1747000000000014,2.314699999999995 2.161699999999996,2.316499999999998 2.158999999999999,2.3218999999999994 2.1529999999999987,2.3215000000000003 2.1509999999999962,2.3238999999999947 2.146099999999997,2.323299999999996 2.141599999999997,2.3255999999999943 2.135300000000001,2.3252999999999986 2.1252999999999957,2.3162999999999982 2.1154999999999973,2.3173999999999992 2.1107999999999976,2.3138000000000005 2.1000999999999976,2.312199999999997 2.094000000000001,2.3095 2.0893000000000015,2.3048 2.083199999999998,2.302599999999998 2.0655999999999963,2.3008999999999986 2.0343000000000018,2.276299999999999 2.0257000000000005,2.267699999999998 2.0082999999999984,2.2600999999999942 1.9934000000000012,2.2480999999999938 1.9530999999999992,2.2265999999999977 1.9176000000000002,2.2143999999999977 1.9048999999999978,2.211999999999996 1.844299999999997,2.213099999999997 1.8021999999999991,2.179399999999994 1.7023999999999972,2.1880999999999986 1.5403999999999982,2.2050999999999945 1.456399999999995,2.2109999999999985 1.4576999999999956,2.221199999999996 1.4421999999999997,2.3034999999999997 1.443799999999996,2.373199999999997 1.434199999999997,2.392799999999994 1.4224999999999994,2.4295999999999935 1.3896999999999977,2.575799999999994 1.3887999999999963,2.590299999999999 1.372799999999998,2.684899999999999 1.3744000000000014,2.6946999999999974 1.3707999999999956,2.7948999999999984 1.3735,2.8140999999999963 1.3727000000000018,2.833599999999997 1.3785999999999987,2.869099999999996 1.3770999999999987,2.880599999999994 1.3808000000000007,2.9043999999999954 1.410899999999998,3.011199999999995 1.4164999999999992,3.043199999999999 1.4212999999999951,3.0786999999999978 1.420899999999996,3.0910999999999973 1.4251999999999967,3.1159999999999997 1.4239999999999995,3.142399999999995 1.4266999999999967,3.1640999999999977 1.4238999999999962,3.1824999999999974 1.4240999999999957,3.192999999999998 1.4283999999999963,3.202999999999996 1.4281999999999968,3.221599999999995 1.4307999999999979,3.2346000000000004 1.4283999999999963,3.245899999999999 1.4116,3.2774999999999963 1.4048000000000016,3.3003999999999962 1.4009999999999962,3.3311999999999955 1.3922999999999988,3.3630999999999958 1.3890999999999991,3.394999999999996 1.3918999999999997,3.4328000000000003 1.4063000000000017,3.479299999999995 1.4116999999999962,3.5037999999999982 1.418999999999997,3.5197000000000003 1.4444000000000017,3.5603999999999942 1.454899999999995,3.5897999999999968 1.4669999999999987,3.5985999999999976 1.4769000000000005,3.609199999999994 1.4835999999999956,3.6237999999999957 1.4902999999999977,3.646799999999999 1.4900999999999982,3.651199999999996 1.4802999999999997,3.659799999999997 1.481899999999996,3.6646 1.483399999999996,3.6684999999999945 1.495599999999996,3.6769999999999996 1.4917999999999978,3.680499999999995 1.4983999999999966,3.6888999999999967 1.520699999999998,3.7290999999999954 1.5229999999999961,3.7408 1.5317000000000007,3.7534999999999954 1.533699999999996,3.763299999999994 1.5364000000000004,3.765099999999997 1.5337999999999994,3.768099999999997 1.5328000000000017,3.7763999999999953 1.5435999999999979,3.7892999999999972 1.5521999999999991,3.8051999999999992 1.551400000000001,3.809599999999996 1.5445999999999955,3.808 1.5400999999999954,3.8034999999999997 1.5304000000000002,3.785599999999995 1.526600000000002,3.7879000000000005 1.5246999999999957,3.7963999999999984 1.5257999999999967,3.807399999999994 1.5202999999999989,3.8093000000000004 1.508899999999997,3.809199999999997 1.5049999999999955,3.8041999999999945 1.4977000000000018,3.8049999999999997 1.4859000000000009,3.8149999999999977 1.4810999999999979,3.8225999999999942 1.4621999999999957,3.831299999999999 1.4523999999999972,3.8399 1.4450999999999965,3.8532999999999973 1.443399999999997,3.869799999999998 1.4408999999999992,3.8773999999999944 1.4469999999999956,3.887599999999999 1.4459000000000017,3.893799999999999 1.436799999999998,3.8943999999999974 1.3928000000000011,3.9054 1.3862999999999985,3.9047999999999945 1.3782999999999959,3.898999999999994 1.367599999999996,3.9101 1.362099999999998,3.9129000000000005 1.359099999999998,3.9103999999999957 1.3474000000000004,3.907999999999994 1.3389999999999986,3.913899999999998 1.332899999999995,3.915999999999997 1.329899999999995,3.915299999999995 1.3185999999999964,3.9054 1.3156999999999996,3.8909999999999982 1.3070999999999984,3.9022999999999968 1.299900000000001,3.921599999999998 1.2892999999999972,3.9421999999999997 1.2855999999999952,3.941499999999998 1.2927999999999997,3.928699999999999 1.2935999999999979,3.9173999999999936 1.2997999999999976,3.9054 1.2988,3.9018999999999977 1.2926000000000002,3.9096999999999937 1.2901999999999987,3.9239999999999995 1.2798000000000016,3.936 1.2667999999999964,3.9425999999999988 1.259999999999998,3.9557 1.2657999999999987,3.9842999999999975 1.2533999999999992,4.015299999999996 1.2567999999999984,4.021899999999995 1.2605999999999966,4.025299999999994 1.282899999999998,4.023899999999998 1.2924000000000007,4.027499999999996 1.2845000000000013,4.0341999999999985 1.2710000000000008,4.0308999999999955 1.2676000000000016,4.036699999999996 1.261099999999999,4.0367999999999995 1.2582999999999984,4.041799999999995 1.261099999999999,4.048699999999997 1.269999999999996,4.054699999999997 1.2626999999999953,4.059199999999997 1.2656999999999954,4.062799999999996 1.262900000000002,4.069499999999998 1.2641999999999953,4.076999999999998 1.2612999999999985,4.077999999999996 1.2515999999999963,4.075799999999994 1.2438000000000002,4.0672 1.2393999999999963,4.051899999999996 1.2404999999999973,4.0503 1.2438000000000002,4.051599999999993 1.2496999999999971,4.056999999999995 1.2530999999999963,4.049699999999994 1.2481000000000009,4.0334999999999965 1.2451000000000008,4.013299999999994 1.241499999999995,4.0045 1.2372999999999976,4.0042999999999935 1.2376999999999967,3.9908 1.2406999999999968,3.9780999999999977 1.2516999999999996,3.9534999999999982 1.2504999999999953,3.951499999999996 1.2464000000000013,3.9523999999999972 1.232599999999998,3.966299999999997 1.2180999999999997,3.976299999999995 1.2117000000000004,3.9838999999999984 1.2010000000000005,4.0053999999999945 1.1953999999999994,4.0234999999999985 1.1882999999999981,4.037999999999997 1.176000000000002,4.056199999999997 1.1650999999999954,4.058399999999999 1.1593000000000018,4.062999999999995 1.1674000000000007,4.072499999999998 1.1736000000000004,4.0869 1.1727999999999952,4.0931 1.1695999999999955,4.0981999999999985 1.1625000000000014,4.095499999999994 1.1526999999999958,4.0870999999999995 1.152000000000001,4.0837 1.1403999999999996,4.072799999999994 1.1364000000000019,4.058699999999995 1.1304999999999978,4.058299999999996 1.1248999999999967,4.075699999999998 1.1248000000000005,4.0859999999999985 1.1293000000000006,4.110299999999995 1.1265999999999963,4.111699999999999 1.1193999999999988,4.0989 1.1161999999999992,4.101699999999994 1.1188999999999965,4.107599999999998 1.1173000000000002,4.115199999999994 1.1282999999999959,4.141599999999997 1.1379999999999981,4.155699999999996 1.1432999999999964,4.1586 1.1344999999999956,4.158199999999994 1.127600000000001,4.151899999999998 1.1115999999999957,4.1277999999999935 1.107999999999997,4.125099999999996 1.1015000000000015,4.1235 1.0991999999999962,4.124499999999998 1.0980999999999952,4.127499999999998 1.1040999999999954,4.1389 1.1060999999999979,4.1536999999999935 1.1126999999999967,4.160999999999994 1.1098999999999961,4.166699999999999 1.1006999999999962,4.162699999999994 1.0989000000000004,4.163599999999995 1.0960999999999999,4.168199999999999 1.0976999999999961,4.1783 1.079499999999996,4.160399999999996 1.0758999999999972,4.160199999999996 1.0730999999999966,4.166199999999996 1.0825999999999993,4.189 1.091000000000001,4.202999999999996 1.0863999999999976,4.2044 1.0781999999999954,4.202299999999994 1.077300000000001,4.187899999999999 1.0655999999999963,4.178599999999996 1.060299999999998,4.178899999999999 1.0527999999999977,4.185599999999994 1.0486999999999966,4.186499999999995 1.033299999999997,4.181599999999996 1.0279999999999987,4.181699999999999 1.0319999999999965,4.1902999999999935 1.0261999999999958,4.1976999999999975 1.025100000000002,4.204099999999997 1.0233999999999952,4.205999999999996 1.0137,4.205399999999997 1.0118999999999971,4.2087999999999965 1.0140999999999991,4.214299999999994 1.0195000000000007,4.220699999999994 1.0156999999999954,4.227999999999994 1.0137999999999963,4.2273 1.005199999999995,4.212299999999999 0.9887999999999977,4.214499999999994 0.980799999999995,4.214399999999998 0.9634,4.2102 0.9581000000000017,4.211999999999996 0.9613999999999976,4.215699999999998 0.9725999999999999,4.2187999999999946 0.9782999999999973,4.223099999999995 0.9782999999999973,4.226699999999994 0.9756999999999962,4.2283999999999935 0.9662000000000006,4.2242999999999995 0.9527000000000001,4.2226 0.948599999999999,4.2256 0.9587999999999965,4.236799999999995 0.964500000000001,4.228699999999996 0.9671999999999983,4.2327999999999975 0.964100000000002,4.2416999999999945 0.9600000000000009,4.2425 0.9493000000000009,4.234999999999999 0.9307000000000016,4.230799999999995 0.9260000000000019,4.231299999999997 0.9183999999999983,4.236899999999999 0.9140000000000015,4.2378 0.8905999999999992,4.226799999999997 0.8838000000000008,4.227499999999999 0.8664999999999949,4.234499999999997 0.8622000000000014,4.2379999999999995 0.8628,4.241 0.8598999999999961,4.243099999999998 0.8457000000000008,4.2425 0.8331000000000017,4.2438999999999965 0.8363999999999976,4.249899999999997 0.8352000000000004,4.2517 0.8140999999999963,4.260299999999994 0.8119999999999976,4.256699999999995 0.7888000000000019,4.263299999999994 0.785499999999999,4.259399999999999 0.7775999999999996,4.259899999999995 0.7622,4.251099999999994 0.752200000000002,4.2501999999999995 0.7402999999999977,4.245699999999999 0.7314999999999969,4.249899999999997 0.7308999999999983,4.246699999999997 0.7344000000000008,4.244399999999999 0.7484999999999999,4.243399999999994 0.7616999999999976,4.231399999999994 0.7744,4.229999999999997 0.7820999999999998,4.217999999999996 0.7805999999999997,4.211599999999997 0.7740000000000009,4.207999999999998 0.7686999999999955,4.2072999999999965 0.7633999999999972,4.202999999999996 0.7513999999999967,4.18 0.75,4.168599999999998 0.744099999999996,4.162699999999994 0.7432000000000016,4.157899999999998 0.7402000000000015,4.1556 0.7363,4.146699999999996 0.7361999999999966,4.140499999999996 0.7483000000000004,4.118499999999997 0.7468000000000004,4.114099999999993 0.7541999999999973,4.095499999999994 0.7511999999999972,4.092099999999995 0.7502999999999957,4.087799999999994 0.7469999999999999,4.085499999999996 0.7432000000000016,4.085799999999999 0.7357000000000014,4.0944999999999965 0.735199999999999,4.101599999999998 0.7273999999999958,4.1192999999999955 0.7286999999999964,4.1312 0.722999999999999,4.146499999999996 0.7220000000000013,4.188699999999997 0.7175000000000011,4.209699999999998 0.6986999999999952,4.234999999999999 0.6882999999999981,4.2575 0.6786999999999992,4.266999999999996 0.6722999999999999,4.276899999999998 0.6623999999999981,4.287699999999994 0.6548999999999978,4.3033 0.6595000000000013,4.319499999999998 0.6642999999999972,4.326099999999997 0.6766999999999967,4.334699999999998 0.7004000000000019,4.363399999999999 0.710799999999999,4.372699999999995 0.7522999999999982,4.4195999999999955 0.7698999999999998,4.4345 0.7723999999999975,4.442799999999998 0.8027000000000015,4.485799999999998 0.8115999999999985,4.513199999999998 0.8305000000000007,4.559199999999997 0.8438999999999979,4.567099999999996 0.8637999999999977,4.57 0.8734999999999999,4.568299999999994 0.8838000000000008,4.564099999999996 0.8917000000000002,4.558499999999995 0.8922999999999988,4.555999999999997 0.8898999999999972,4.552599999999998 0.883899999999997,4.550399999999996 0.867999999999995,4.549799999999998 0.8556999999999988,4.5423999999999936 0.8493999999999957,4.5349 0.8374999999999986,4.5047 0.8337000000000003,4.502899999999997 0.8307999999999964,4.5062 0.8275000000000006,4.504399999999997 0.8174999999999955,4.490299999999998 0.8138999999999967,4.482999999999997 0.8155999999999963,4.478099999999998 0.809199999999997,4.462199999999996 0.8025999999999982,4.451899999999995 0.796999999999997,4.4495000000000005 0.7942999999999998,4.444899999999997 0.7988999999999962,4.4375 0.7920999999999978,4.436399999999999 0.7902999999999949,4.433699999999995 0.7957999999999998,4.427299999999995 0.7937000000000012,4.421599999999998 0.7947999999999951,4.415399999999998 0.8325999999999993,4.4180999999999955 0.8429000000000002,4.417099999999998 0.8615999999999957,4.422199999999997 0.9055999999999997,4.426699999999997 0.9367999999999981,4.4350999999999985 0.968599999999995,4.434399999999997 0.9727999999999994,4.436899999999994 0.9777999999999949,4.4375 1.0060999999999964,4.4343 1.0129999999999981,4.437399999999997 1.0422000000000011,4.439699999999995 1.0467000000000013,4.438899999999997 1.049900000000001,4.435699999999997 1.0529999999999973,4.410999999999994 1.058099999999996,4.413199999999996 1.0579999999999998,4.429699999999997 1.0520999999999958,4.445299999999996 1.0488999999999962,4.4467 1.0347000000000008,4.465399999999995 1.0379000000000005,4.483599999999996 1.0465000000000018,4.488399999999999 1.0596999999999994,4.499199999999995 1.0656999999999996,4.501199999999997 1.070999999999998,4.500899999999994 1.0747999999999962,4.497899999999994 1.073999999999998,4.485999999999997 1.0771999999999977,4.481899999999996 1.0822000000000003,4.4803 1.0852999999999966,4.490499999999997 1.0811999999999955,4.494 1.091699999999996,4.502599999999994 1.0974999999999966,4.496599999999994 1.1028999999999982,4.484899999999996 1.1022999999999996,4.481399999999994 1.0867999999999967,4.455999999999996 1.093199999999996,4.451299999999996 1.1077000000000012,4.450899999999997 1.120599999999996,4.4461999999999975 1.1236999999999995,4.4365999999999985 1.1207999999999956,4.424499999999995 1.1133999999999986,4.4193 1.1049000000000007,4.406599999999997 1.1004000000000005,4.4039 1.0900999999999996,4.402799999999999 1.0867000000000004,4.395299999999999 1.0884,4.387499999999996 1.0780999999999992,4.374399999999994 1.0792000000000002,4.366999999999997 1.0874999999999986,4.369499999999995 1.1158999999999963,4.390899999999995 1.1336000000000013,4.394599999999997 1.1300999999999988,4.3977 1.1267999999999958,4.406599999999997 1.1415999999999968,4.427499999999995 1.160899999999998,4.4339999999999975 1.1655999999999977,4.433 1.1674999999999969,4.419899999999998 1.1717999999999975,4.415099999999995 1.1852000000000018,4.414999999999999 1.194499999999998,4.3973999999999975 1.2087999999999965,4.402999999999999 1.2126999999999981,4.408199999999994 1.2109999999999985,4.411499999999997 1.1966999999999999,4.4208 1.1954999999999956,4.424199999999999 1.1968999999999994,4.432199999999995 1.2013999999999996,4.436499999999995 1.2075999999999993,4.439399999999999 1.2132000000000005,4.438899999999997 1.2162999999999968,4.430899999999994 1.2147999999999968,4.425399999999996 1.217099999999995,4.422399999999996 1.2252999999999972,4.4223 1.2287999999999997,4.425199999999997 1.2498000000000005,4.432199999999995 1.2530999999999963,4.430899999999994 1.2546999999999997,4.422399999999996 1.2580999999999989,4.422399999999996 1.264800000000001,4.425599999999996 1.276600000000002,4.435899999999997 1.2783000000000015,4.444299999999998 1.2716999999999956,4.445599999999999 1.261499999999998,4.435299999999998 1.2605999999999966,4.444099999999999 1.2543000000000006,4.455199999999998 1.248899999999999,4.454499999999996 1.2348,4.439099999999996 1.2302999999999997,4.4361999999999995 1.218199999999996,4.437899999999999 1.2121999999999957,4.4465 1.2117000000000004,4.454499999999996 1.209699999999998,4.4587999999999965 1.2032999999999987,4.4651 1.198599999999999,4.4786 1.1946999999999974,4.476199999999999 1.1912999999999982,4.467999999999996 1.1753999999999962,4.4574 1.1732000000000014,4.445 1.1683999999999983,4.4405 1.1629999999999967,4.439699999999995 1.1585999999999999,4.4422 1.1552999999999969,4.438499999999998 1.1451999999999956,4.436 1.1357,4.43 1.1344999999999956,4.430599999999998 1.131699999999995,4.436099999999996 1.131299999999996,4.446799999999996 1.1293000000000006,4.451699999999995 1.1177999999999955,4.455199999999998 1.1111000000000004,4.460299999999997 1.1081999999999965,4.4651 1.1107999999999976,4.480699999999999 1.1204999999999998,4.4925 1.1343999999999994,4.484199999999994 1.132399999999997,4.481099999999998 1.1340999999999966,4.477699999999999 1.146799999999999,4.478199999999994 1.149799999999999,4.475899999999996 1.150500000000001,4.464399999999998 1.1387,4.458599999999997 1.1402999999999963,4.452799999999996 1.1445000000000007,4.448899999999995 1.1597000000000008,4.4698999999999955 1.153099999999995,4.480199999999996 1.154599999999995,4.485499999999995 1.1572999999999993,4.4879999999999995 1.1680999999999955,4.491999999999997 1.1813000000000002,4.491199999999999 1.1860999999999962,4.4938999999999965 1.191600000000001,4.502499999999998 1.174199999999999,4.5223999999999975 1.1655000000000015,4.525199999999998 1.1649999999999991,4.522199999999998 1.1599000000000004,4.517199999999995 1.1674999999999969,4.5123999999999995 1.1672000000000011,4.496299999999998 1.1646,4.495199999999997 1.1612999999999971,4.496399999999994 1.1543999999999954,4.5042999999999935 1.1518000000000015,4.511399999999995 1.1452999999999989,4.507999999999996 1.141300000000001,4.503 1.1359999999999957,4.503499999999995 1.1326999999999998,4.492899999999999 1.119799999999998,4.502499999999998 1.1189999999999998,4.507299999999994 1.123199999999997,4.514399999999995 1.137599999999999,4.527499999999996 1.1326999999999998,4.5323999999999955 1.1313999999999993,4.547499999999999 1.1291999999999973,4.553899999999999 1.1182999999999979,4.557399999999994 1.1171999999999969,4.565199999999997 1.1118999999999986,4.5642 1.1163999999999987,4.5518 1.1115999999999957,4.5486 1.1107000000000014,4.5443 1.1141000000000005,4.533199999999994 1.1085999999999956,4.5286999999999935 1.1051999999999964,4.531499999999994 1.0968000000000018,4.5441999999999965 1.0908999999999978,4.545099999999998 1.0829999999999984,4.559699999999999 1.0784999999999982,4.5655 1.0726000000000013,4.569599999999994 1.0636999999999972,4.581099999999999 1.0638000000000005,4.5869 1.0582999999999956,4.5922999999999945 1.056999999999995,4.588699999999996 1.0614999999999952,4.581099999999999 1.0599999999999952,4.5794 1.063600000000001,4.570799999999998 1.070999999999998,4.560299999999998 1.0784999999999982,4.5563 1.083199999999998,4.543399999999998 1.0807000000000002,4.538799999999995 1.0808999999999997,4.5336 1.0863000000000014,4.5201999999999956 1.083599999999997,4.516199999999998 1.0747999999999962,4.520099999999999 1.062100000000001,4.539499999999997 1.057699999999997,4.542699999999996 1.0462999999999951,4.546899999999994 1.0355999999999952,4.548199999999994 1.0266999999999982,4.545999999999999 1.0187999999999988,4.546699999999994 1.0108999999999995,4.553899999999999 1.0060000000000002,4.565399999999997 0.9971999999999994,4.571799999999996 0.9891999999999967,4.5916 0.9956999999999994,4.626799999999996 0.9949000000000012,4.633199999999995 1.008899999999997,4.660999999999994 1.006699999999995,4.662699999999994 1.0028999999999968,4.662699999999994 0.9917999999999978,4.6419 0.9868999999999986,4.6373999999999995 0.981899999999996,4.638099999999994 0.9795000000000016,4.636499999999998 0.9660000000000011,4.639399999999995 0.963000000000001,4.6425999999999945 0.9630999999999972,4.646699999999996 0.9669999999999987,4.6494 0.9643999999999977,4.6521999999999935 0.9677000000000007,4.656499999999994 0.9653999999999954,4.6658999999999935 0.9684999999999988,4.670899999999996 0.9716999999999985,4.669699999999999 0.9803999999999959,4.674199999999999 0.9964000000000013,4.676399999999994 1.0032999999999959,4.683399999999999 1.005899999999997,4.698699999999995 1.0182000000000002,4.710299999999997 1.037700000000001,4.740099999999998 1.045499999999997,4.746199999999995 1.045899999999996,4.752099999999999 1.0426000000000002,4.753999999999998 1.041799999999995,4.757199999999997 1.0429999999999993,4.760799999999996 1.0409999999999968,4.766799999999996 1.0437999999999974,4.771099999999997 1.0431999999999988,4.774499999999996 1.049900000000001,4.7808999999999955 1.0632999999999981,4.785299999999999 1.0686999999999998,4.790999999999997 1.0559999999999974,4.794499999999999 1.0536999999999992,4.798199999999994 1.0570999999999984,4.809199999999997 1.0544999999999973,4.812599999999996 1.0473999999999961,4.815899999999999 1.0352999999999994,4.8155 1.0185999999999993,4.811999999999998 1.0093999999999994,4.8123000000000005 0.9987999999999957,4.815199999999997 0.9945999999999984,4.817999999999998 0.9914999999999949,4.828299999999999 0.9934000000000012,4.8355999999999995 1.0073000000000008,4.849399999999996 1.0073000000000008,4.852799999999995 0.9989999999999952,4.854699999999994 0.9942999999999955,4.853199999999994 0.9832999999999998,4.856499999999997 0.9782999999999973,4.8544999999999945 0.9700999999999951,4.845199999999998 0.9587000000000003,4.837499999999999 0.9544999999999959,4.836099999999995 0.9470999999999989,4.8367 0.945999999999998,4.841499999999996 0.9581000000000017,4.855499999999999 0.9491000000000014,4.859499999999997 0.932699999999997,4.847799999999999 0.9247000000000014,4.844199999999994 0.9133999999999958,4.843999999999994 0.9046999999999983,4.841799999999999 0.8718999999999966,4.828799999999994 0.8632999999999953,4.826799999999999 0.857999999999997,4.828699999999998 0.8477999999999994,4.825799999999994 0.8380999999999972,4.828799999999994 0.8283999999999949,4.835299999999997 0.8089000000000013,4.843699999999998 0.7946999999999989,4.852699999999999 0.7772000000000006,4.856499999999997 0.7503999999999991,4.870199999999997 0.7331000000000003,4.875799999999998 0.7152999999999992,4.871299999999998 0.7098000000000013,4.872499999999995 0.7042999999999964,4.871199999999995 0.6920000000000002,4.8736999999999995 0.6895999999999987,4.870199999999997 0.6914000000000016,4.8566 0.6800999999999959,4.854599999999998 0.6743999999999986,4.849599999999995 0.649799999999999,4.853699999999996 0.627200000000002,4.848999999999997 0.6173999999999964,4.849499999999999 0.6147999999999954,4.851999999999997 0.6222999999999956,4.857899999999994 0.6270999999999987,4.870199999999997 0.4621999999999957,4.870199999999997 0.4667999999999992,4.879099999999994 0.4790999999999954,4.8803999999999945 0.4812000000000012,4.883499999999998 0.48639999999999617,4.8857 0.4876000000000005,4.893099999999997 0.4941999999999993,4.898399999999995 0.4917000000000016,4.9021999999999935 0.48519999999999897,4.902499999999996 0.4724000000000004,4.8994 0.46069999999999567,4.901299999999999 0.4508999999999972,4.897099999999995 0.44249999999999545,4.897299999999994 0.43730000000000047,4.895399999999995 0.4339000000000013,4.8917 0.4317999999999955,4.8814999999999955 0.43909999999999627,4.874299999999998 0.4778999999999982,4.808599999999998 0.48449999999999704,4.787999999999997 0.4852999999999952,4.7771999999999935 0.49629999999999797,4.7438 0.5058000000000007,4.737399999999994 0.5075000000000003,4.733699999999999 0.5060000000000002,4.7283999999999935 0.4983000000000004,4.7309999999999945 0.48859999999999815,4.738799999999998 0.4725999999999999,4.745999999999995 0.4690999999999974,4.750099999999996 0.4703000000000017,4.757399999999997 0.46280000000000143,4.775299999999994 0.45309999999999917,4.787699999999994 0.4446000000000012,4.803699999999999 0.43009999999999593,4.814499999999995 0.4075999999999951,4.8215 0.4040999999999997,4.8247 0.3936999999999955,4.828199999999995 0.35600000000000165,4.870199999999997 0.34969999999999857,4.8733 0.3305999999999969,4.870199999999997 0.3260000000000005,4.878299999999996 0.31739999999999924,4.884899999999995 0.3160999999999987,4.8899999999999935 0.3218999999999994,4.906499999999994 0.3222999999999985,4.914199999999994 0.3181999999999974,4.921399999999998 0.30570000000000164,4.930199999999999 0.2995000000000019,4.9428999999999945 0.2948999999999984,4.9461999999999975 0.294399999999996,4.951499999999996 0.31170000000000186,4.981299999999997 0.321399999999997,5.006299999999996 0.3271000000000015,5.029899999999998 0.32569999999999766,5.039699999999996 0.31759999999999877,5.0593 0.31269999999999953,5.066499999999998 0.306599999999996,5.071099999999994 0.30239999999999867,5.070699999999995 0.3003,5.056999999999995 0.29699999999999704,5.055799999999998 0.2954000000000008,5.058599999999998 0.29650000000000176,5.070799999999998 0.3001000000000005,5.078399999999995 0.2962999999999951,5.081499999999998 0.30579999999999785,5.099899999999998 0.30519999999999925,5.1033999999999935 0.29990000000000094,5.111399999999996 0.28649999999999665,5.120199999999997 0.2802999999999969,5.126899999999999 0.2646000000000015,5.158299999999997 0.2685999999999993,5.1873000000000005 0.26829999999999643,5.208999999999996 0.28819999999999624,5.2776 0.29070000000000107,5.303699999999999 0.2898999999999958,5.316699999999997 0.29529999999999745,5.3658 0.3006999999999991,5.384299999999996 0.32439999999999714,5.422599999999996 0.35669999999999646,5.459199999999996 0.375,5.485099999999996 0.42139999999999844,5.543699999999994 0.42369999999999663,5.554099999999998 0.42369999999999663,5.570399999999999 0.421599999999998,5.5794 0.4148999999999958,5.584799999999994 0.4087999999999994,5.586799999999997 0.4011999999999958,5.586599999999997 0.3943000000000012,5.581799999999994 0.39229999999999876,5.582499999999996 0.38989999999999725,5.5976 0.3913999999999973,5.603099999999998 0.39569999999999794,5.603299999999997 0.4018999999999977,5.600299999999997 0.40330000000000155,5.6066 0.3964999999999961,5.615499999999997 0.39869999999999806,5.619099999999996 0.40399999999999636,5.6173 0.408299999999997,5.617699999999999 0.4116999999999962,5.628 0.42020000000000124,5.636499999999998 0.426400000000001,5.649099999999997 0.43479999999999563,5.659299999999995 0.4345999999999961,5.674299999999995 0.43909999999999627,5.679699999999997 0.4345999999999961,5.686899999999994 0.4421999999999997,5.712999999999994 0.44999999999999574,5.720199999999998 0.4542999999999964,5.726799999999997 0.4673999999999978,5.758399999999995 0.4724000000000004,5.776399999999995 0.4795999999999978,5.7836 0.4987999999999957,5.8174999999999955 0.5065999999999988,5.8603999999999985 0.5030999999999963,5.872399999999999 0.4953000000000003,5.888999999999996 0.48509999999999565,5.899299999999997 0.48229999999999507,5.905799999999999 0.48270000000000124,5.910999999999994 0.4801999999999964,5.914399999999993 0.4750000000000014,5.9086 0.46229999999999905,5.9071 0.46280000000000143,5.911899999999996 0.46059999999999945,5.915299999999995 0.4379999999999953,5.936499999999995 0.4305999999999983,5.940399999999997 0.43130000000000024,5.925799999999995 0.4281999999999968,5.921099999999996 0.4247000000000014,5.923199999999994 0.4200999999999979,5.920499999999997 0.4163999999999959,5.9253 0.41669999999999874,5.931699999999999 0.42020000000000124,5.935399999999994 0.4176999999999964,5.941699999999997 0.4100999999999999,5.9512 0.4059999999999988,5.951599999999999 0.4048999999999978,5.9539999999999935 0.4052999999999969,5.971599999999995 0.4028999999999954,5.981199999999994 0.4057999999999993,5.9846 0.40800000000000125,6.004099999999994 0.41570000000000107,6.0223999999999975 0.4151999999999987,6.037699999999994 0.4054000000000002,6.0715 0.39860000000000184,6.0811999999999955 0.3859999999999957,6.0944 0.3791999999999973,6.113099999999996 0.377200000000002,6.126399999999997 0.37769999999999726,6.145599999999995 0.3731999999999971,6.168899999999994 0.3689999999999998,6.179399999999994 0.356899999999996,6.201799999999999 0.3463999999999956,6.215699999999998 0.3258999999999972,6.259499999999996 0.318799999999996,6.2682 0.31040000000000134,6.273699999999998 0.301400000000001,6.2734999999999985 0.2971999999999966,6.276999999999994 0.2884999999999991,6.275999999999996 0.2862000000000009,6.277699999999996 0.2815999999999974,6.292999999999999 0.2704999999999984,6.312999999999995 0.2611999999999952,6.318599999999996 0.25439999999999685,6.327099999999994 0.2459999999999951,6.331999999999994 0.23850000000000193,6.329799999999999 0.22800000000000153,6.3337999999999965 0.22419999999999618,6.339999999999996 0.2166999999999959,6.3437999999999946 0.20870000000000033,6.356399999999994 0.1787999999999954,6.374699999999997 0.1635999999999953,6.375999999999998 0.15579999999999927,6.380499999999998 0.14799999999999613,6.381399999999999 0.14219999999999544,6.3851999999999975 0.1361999999999952,6.3962 0.1274000000000015,6.4026 0.11909999999999599,6.403599999999997 0.11520000000000152,6.4071 0.11370000000000147,6.410799999999995 0.11889999999999645,6.4238 0.15050000000000097,6.487199999999994 0.15609999999999502,6.507099999999994 0.14819999999999567,6.5212999999999965 0.14499999999999602,6.543899999999994 0.13969999999999771,6.557199999999995 0.13599999999999568,6.5615999999999985 0.12689999999999912,6.567299999999996 0.1004999999999967,6.576299999999996 0.07339999999999947,6.598599999999998 0.053300000000000125,6.6070999999999955 0.037700000000000955,6.609199999999994 0.026099999999999568,6.618499999999997 0.010899999999999466,6.6240999999999985 0.0,6.635599999999997 0.011699999999997601,6.640899999999995 0.18710000000000093,6.751899999999999 0.2342999999999975,6.7864 0.3399000000000001,6.853099999999998 0.40789999999999793,6.902899999999995 0.5180000000000007,6.973499999999994 0.5686999999999998,7.0001999999999995 0.5912999999999968,7.009 0.6899999999999977,7.034299999999995 0.8001999999999967,7.0733999999999995 0.826900000000002,7.081799999999994 0.8562999999999974,7.087899999999998 0.8787999999999982,7.0944999999999965 0.9240999999999957,7.1126000000000005 0.9787999999999997,7.128999999999998 1.1447000000000003,7.1629000000000005 1.4296000000000006,7.1976999999999975 1.4497,7.1982 1.4810999999999979,7.203699999999998 1.5120000000000005,7.206399999999995 1.5566999999999993,7.2076999999999956 1.588000000000001,7.211099999999995 1.6344999999999956,7.212199999999996 1.6651999999999987,7.2109999999999985 1.724899999999998,7.213699999999996 1.7477000000000018,7.2117 1.7642999999999986,7.2087 1.796599999999998,7.197399999999995 1.845799999999997,7.175599999999996 1.908699999999996,7.142799999999994 1.9299999999999997,7.1340999999999966 1.972999999999999,7.111999999999995 2.0122,7.093999999999994 2.042200000000001,7.078899999999997 2.0715999999999966,7.060599999999994 2.1391999999999953,7.026499999999999 2.1503000000000014,7.0230999999999995 2.2567999999999984,6.9634 2.3325999999999993,6.928799999999995 2.394599999999997,6.8925999999999945 2.4369999999999976,6.8544999999999945 2.471199999999996,6.8285999999999945 2.497700000000002,6.802099999999996 2.516300000000001,6.7797999999999945 2.515899999999995,6.747099999999996 2.5071999999999974,6.710799999999999 2.508199999999995,6.700099999999999 2.5116000000000014,6.6902999999999935 2.5270999999999972,6.671599999999998 2.5585999999999984,6.649899999999995 2.582899999999995,6.630699999999997 2.604700000000001,6.6092999999999975 2.629799999999996,6.5789999999999935 2.6537000000000006,6.533299999999997 2.6680999999999955,6.511099999999999 2.674199999999999,6.496599999999994 2.6946999999999974,6.470299999999995 2.7045999999999992,6.446799999999996 2.7967000000000013,6.3324 2.825400000000002,6.299899999999994 2.8419999999999987,6.285999999999994 2.8992999999999967,6.250999999999998 2.9346999999999994,6.221599999999995 2.952300000000001,6.199999999999996 2.9660999999999973,6.186399999999999 2.9786,6.180199999999999 3.024799999999999,6.1458999999999975 3.075400000000002,6.123399999999997 3.084399999999995,6.1205 3.096199999999996,6.119699999999995 3.1084999999999994,6.1235 3.115400000000001,6.129599999999996 3.116099999999996,6.150499999999994 3.1195999999999984,6.153799999999997 3.1265999999999963,6.153999999999996 3.134699999999995,6.149899999999995 3.1447999999999965,6.136899999999997 3.152699999999996,6.1188 3.160899999999998,6.112199999999994 3.167099999999998,6.110299999999995 3.1736000000000004,6.112099999999998 3.1787999999999954,6.1177999999999955 3.183399999999999,6.129599999999996 3.1891999999999996,6.139099999999999 3.2087000000000003,6.149799999999999 3.2269999999999968,6.153499999999994 3.290399999999998,6.160999999999994 3.299500000000002,6.166599999999995 3.323999999999998,6.167299999999997 3.3384,6.164899999999996 3.3564000000000007,6.150299999999994 3.3673999999999964,6.1480999999999995 3.3748999999999967,6.150799999999997 3.403799999999997,6.180199999999999 3.4146999999999963,6.187599999999996 3.426000000000002,6.192299999999996 3.4502999999999986,6.1928999999999945 3.553699999999999,6.187799999999996 3.5681999999999974,6.188899999999997 3.6931999999999974,6.183099999999996 3.7631000000000014,6.1817999999999955 3.875099999999996,6.174099999999996 3.915700000000001,6.174399999999999 3.991099999999996,6.170099999999998 4.118299999999998,6.159099999999995 4.199999999999996,6.157799999999995 4.3461,6.1509 4.4358,6.141399999999997 4.521499999999996,6.135799999999996 4.5604999999999976,6.128599999999999 4.588999999999999,6.128599999999999 4.600999999999999,6.133399999999995 4.611699999999999,6.142299999999999 4.618600000000001,6.153099999999995 4.619399999999999,6.177599999999998 4.629399999999997,6.192 4.647500000000001,6.204899999999995 4.690300000000001,6.216099999999997 4.701699999999995,6.221499999999999 4.710299999999997,6.227999999999994 4.717300000000002,6.239599999999996 4.7164,6.2479999999999976 4.707099999999997,6.2545 4.664899999999996,6.244699999999995 4.645099999999999,6.245099999999994 4.6402,6.248199999999997 4.626599999999996,6.266299999999994 4.604999999999997,6.288199999999996 4.596800000000002,6.299899999999994 4.590199999999996,6.316099999999999 4.581099999999999,6.367199999999997 4.5811999999999955,6.405199999999994 4.585499999999996,6.424899999999994 4.583599999999997,6.437899999999999 4.578499999999998,6.456599999999995 4.567,6.473399999999998 4.5593,6.475999999999999 4.559799999999996,6.4798999999999936 4.551699999999997,6.4879999999999995 4.542899999999996,6.504099999999994 4.534999999999997,6.524299999999997 4.530799999999999,6.5426 4.533699999999996,6.586799999999997 4.530000000000001,6.6188 4.527200000000001,6.630199999999995 4.526199999999996,6.674799999999998 4.5291,6.688099999999999 4.536000000000001,6.704499999999996 4.5426,6.737499999999997 4.546599999999998,6.746699999999997 4.5625,6.768499999999996 4.581099999999999,6.781199999999998 4.596899999999998,6.7883 4.643499999999996,6.798699999999997 4.673099999999998,6.806899999999999 4.688600000000001,6.8138000000000005 4.713000000000001,6.831499999999998 4.726099999999995,6.845199999999998 4.7327999999999975,6.857899999999994 4.738500000000002,6.875 4.7442999999999955,6.8873999999999995 4.7455,6.8873999999999995 4.749200000000002,6.898899999999998 4.7639,6.924499999999995 4.7727,6.938599999999994 4.796900000000001,6.964599999999997 4.824100000000001,6.982199999999999 4.838999999999999,6.988999999999997 4.841099999999997,6.991999999999997 4.871400000000001,7.007999999999996 4.926000000000002,7.027899999999995 4.9683999999999955,7.039699999999996 5.0268000000000015,7.043399999999998 5.080300000000001,7.0443 5.129899999999999,7.041399999999996 5.1702999999999975,7.035399999999996 5.205399999999997,7.019599999999997 5.218299999999999,7.019299999999994 5.234200000000001,7.022199999999998 5.271799999999999,7.037199999999999 5.327799999999996,7.051499999999997 5.394100000000002,7.0430999999999955 5.402699999999996,7.042999999999999 5.412799999999997,7.045099999999998 5.417000000000002,7.0518 5.407499999999999,7.069599999999994 5.392399999999995,7.088899999999995 5.399799999999999,7.1081999999999965 5.405799999999999,7.116499999999995 5.408200000000001,7.118099999999998 5.415299999999995,7.1181999999999945 5.4512,7.106999999999999 5.469699999999996,7.106499999999997 5.479799999999997,7.109099999999998 5.487099999999998,7.115299999999998 5.491,7.125 5.495199999999997,7.1509 5.492699999999999,7.175799999999995 5.4979999999999976,7.1937 5.497299999999996,7.2164 5.505400000000002,7.2331 5.505899999999997,7.241799999999998 5.498899999999999,7.2592 5.489399999999996,7.270799999999994 5.470099999999995,7.283899999999996 5.462800000000001,7.296399999999998 5.468899999999998,7.3211999999999975 5.473700000000001,7.327399999999997 5.488500000000002,7.3307 5.498100000000001,7.3289999999999935 5.514099999999999,7.315099999999994 5.5208999999999975,7.313099999999999 5.527200000000001,7.325099999999999 5.535800000000002,7.354399999999998 5.541599999999995,7.359099999999998 5.552999999999997,7.358899999999998 5.5745000000000005,7.369799999999998 5.605399999999996,7.374899999999997 5.626100000000001,7.372 5.644500000000001,7.359999999999999 5.650300000000001,7.340799999999994 5.656599999999997,7.3348999999999975 5.6706,7.328799999999994 5.676499999999997,7.3245000000000005 5.680700000000002,7.312899999999999 5.684699999999999,7.311299999999996 5.693300000000001,7.3126999999999995 5.712699999999998,7.319499999999998 5.7597999999999985,7.337599999999995 5.777099999999997,7.3384 5.802199999999999,7.334599999999995 5.881999999999998,7.318299999999994 5.908999999999999,7.304899999999996 5.9283,7.288999999999994 5.9358,7.280499999999996 5.943599999999996,7.267499999999998 5.955500000000001,7.241199999999999 5.961199999999998,7.221599999999995 5.963499999999996,7.204599999999999 5.9609999999999985,7.1721 5.964999999999996,7.1614 6.005400000000002,7.167499999999997 6.018000000000001,7.166599999999995 6.051000000000002,7.159399999999998 6.060299999999998,7.1595999999999975 6.068300000000001,7.163799999999995 6.072600000000001,7.167699999999996 6.079299999999996,7.180499999999995 6.0764,7.192 6.055700000000002,7.204699999999995 6.040900000000001,7.2102 5.9876000000000005,7.2364999999999995 5.976199999999999,7.234399999999994 5.9666,7.2408 5.967399999999998,7.260299999999994 5.963299999999997,7.275399999999998 5.950899999999997,7.286299999999997 5.922799999999995,7.319099999999999 5.905200000000001,7.351299999999995 5.892399999999995,7.368699999999997 5.883299999999998,7.389499999999998 5.865099999999998,7.4184999999999945 5.855399999999996,7.427099999999996 5.826299999999996,7.431099999999994 5.804899999999996,7.437199999999997 5.753599999999999,7.4583999999999975 5.740499999999997,7.4666 5.7134,7.4798999999999936 5.706399999999995,7.491999999999997 5.710299999999997,7.503 5.719200000000001,7.508599999999994 5.732599999999998,7.509599999999999 5.754399999999997,7.5245999999999995 5.7830999999999975,7.540499999999994 5.805599999999998,7.549999999999997 5.836199999999998,7.559099999999994 5.855799999999995,7.559599999999996 5.918500000000002,7.5501000000000005 5.950800000000001,7.543599999999998 5.976599999999998,7.534499999999994 6.002699999999997,7.530699999999996 6.017299999999999,7.524299999999997 6.031300000000002,7.520499999999998 6.054499999999997,7.521499999999996 6.111799999999995,7.529399999999995 6.136600000000001,7.5234999999999985 6.147199999999998,7.528299999999994 6.153999999999996,7.536099999999998 6.1631,7.570999999999998 6.157499999999999,7.577599999999997 6.142600000000002,7.5867 6.142600000000002,7.589499999999994 6.1480999999999995,7.596599999999995 6.153700000000001,7.599499999999999 6.167400000000001,7.599599999999995 6.179200000000002,7.5946 6.188200000000002,7.594299999999997 6.195599999999999,7.597799999999999 6.199300000000001,7.6059999999999945 6.1983999999999995,7.610599999999998 6.179099999999998,7.6248000000000005 6.176899999999996,7.633499999999998 6.183599999999998,7.6521999999999935 6.184199999999997,7.665799999999997 6.194499999999998,7.658899999999996 6.261099999999999,7.5966999999999985 6.349599999999995,7.524499999999996 6.356099999999998,7.520599999999995 6.365099999999998,7.511399999999995 6.4559,7.437899999999999 6.493299999999998,7.413799999999995 6.507799999999996,7.408799999999999 6.526699999999998,7.405799999999999 6.556999999999995,7.398199999999996 6.5600999999999985,7.395399999999995 6.591299999999997,7.384399999999999 6.606400000000001,7.380899999999997 6.662700000000001,7.378299999999996 6.6751000000000005,7.382099999999994 6.695900000000002,7.394399999999997 6.7194,7.3992 6.728099999999998,7.398199999999996 6.752200000000002,7.387599999999999 6.762299999999996,7.380299999999998 6.781099999999995,7.360299999999995 6.8155,7.329699999999995 6.8359999999999985,7.3089999999999975 6.838099999999997,7.301499999999997 6.8384,7.289299999999997 6.828299999999999,7.269499999999994 6.8292,7.263099999999994 6.916699999999999,7.198299999999996 6.935600000000001,7.1813 6.949799999999996,7.176399999999994 6.957999999999998,7.166499999999999 6.965599999999995,7.1539 6.977799999999995,7.146799999999999 7.0009000000000015,7.145699999999998 7.024099999999997,7.1473999999999975 7.055799999999998,7.146799999999999 7.101099999999995,7.1492 7.138100000000001,7.148299999999999 7.1402,7.149699999999996 7.147300000000001,7.148899999999998 7.167099999999998,7.150799999999997 7.1997,7.150799999999997 7.217599999999997,7.152799999999999 7.233699999999999,7.156699999999994 7.276199999999996,7.156199999999998 7.2879000000000005,7.152899999999995 7.2928,7.154199999999996 7.297699999999999,7.153299999999994 7.3125,7.147599999999997 7.3515000000000015,7.138799999999996 7.362200000000001,7.138999999999996 7.369999999999997,7.144599999999997 7.3799999999999955,7.167699999999996 7.386600000000001,7.176499999999997 7.4091999999999985,7.162999999999997 7.451799999999999,7.152799999999999 7.465499999999999,7.1436999999999955 7.480199999999996,7.1218 7.498100000000001,7.1038 7.515699999999995,7.092399999999998 7.5283000000000015,7.0886 7.566099999999999,7.084799999999994 7.587399999999995,7.075199999999995 7.597699999999996,7.066099999999999 7.604299999999995,7.056899999999999 7.608399999999996,7.046999999999997 7.607900000000001,7.036699999999996 7.602599999999995,7.0304 7.5929,7.023399999999995 7.582999999999998,7.021699999999996 7.564599999999999,7.023199999999996 7.555399999999999,7.026299999999999 7.5319,7.0169 7.528099999999995,7.0092 7.528799999999997,6.998399999999997 7.5381,6.9879999999999995 7.5512000000000015,6.978499999999997 7.555999999999997,6.9720999999999975 7.559399999999997,6.935399999999994 7.5642,6.920199999999994 7.573099999999997,6.904599999999995 7.584199999999996,6.892799999999994 7.5886,6.879899999999999 7.581099999999999,6.872699999999995 7.519999999999996,6.869399999999999 7.507899999999999,6.862199999999994 7.503799999999998,6.8568 7.507899999999999,6.843699999999998 7.5351,6.823699999999995 7.554200000000002,6.826999999999998 7.561399999999999,6.821399999999997 7.565100000000001,6.821999999999996 7.6036,6.7866 7.621200000000002,6.778399999999998 7.673699999999997,6.7649999999999935 7.6854999999999976,6.7586999999999975 7.696300000000001,6.748899999999999 7.707799999999999,6.7286 7.7242999999999995,6.7149 7.7427999999999955,6.704899999999995 7.754300000000001,6.700799999999994 7.789999999999999,6.694899999999997 7.817,6.685599999999994 7.842199999999998,6.664199999999994 7.866599999999998,6.649899999999995 7.877899999999997,6.638599999999997 7.877200000000002,6.6314999999999955 7.871600000000001,6.628799999999998 7.855699999999999,6.628999999999998 7.850099999999998,6.622499999999995 7.8324,6.626799999999996 7.815599999999996,6.637099999999997 7.789899999999996,6.636499999999998 7.762099999999997,6.653599999999997 7.738199999999999,6.662099999999995 7.7102,6.668399999999998 7.695299999999996,6.673899999999996 7.6736,6.673399999999994 7.654199999999996,6.6813999999999965 7.647500000000001,6.6817999999999955 7.642199999999995,6.679499999999997 7.630199999999995,6.642999999999994 7.6188,6.6229999999999976 7.624600000000001,6.609699999999997 7.627200000000002,6.598699999999994 7.667099999999998,6.5518 7.671599999999998,6.548699999999997 7.691899999999997,6.526999999999994 7.7014,6.512699999999995 7.7166,6.494199999999999 7.7224,6.479699999999994 7.722299999999997,6.460699999999996 7.716899999999995,6.450899999999997 7.670499999999997,6.418299999999995 7.662300000000002,6.405199999999994 7.656199999999998,6.375 7.654399999999995,6.343499999999999 7.655499999999996,6.326299999999996 7.651899999999998,6.313499999999998 7.652299999999997,6.302299999999995 7.664699999999996,6.2819999999999965 7.689799999999998,6.2649999999999935 7.7181,6.251599999999996 7.762699999999995,6.233699999999999 7.864699999999999,6.1817999999999955 7.8949,6.165599999999998 7.957899999999995,6.1233 8.027999999999999,6.0916 8.043599999999998,6.087699999999998 8.0642,6.0867 8.120399999999997,6.093599999999995 8.139499999999998,6.092799999999997 8.2423,6.097699999999996 8.3275,6.097799999999999 8.363700000000001,6.102899999999998 8.419699999999999,6.100999999999999 8.4668,6.106199999999994 8.489199999999997,6.1051 8.498399999999997,6.108499999999999 8.5302,6.1066 8.558099999999996,6.107599999999998 8.583100000000002,6.104399999999998 8.604599999999998,6.1048999999999936 8.620399999999997,6.088799999999999 8.633099999999999,6.0794 8.647100000000002,6.079299999999996 8.660899999999998,6.0822 8.6766,6.0822999999999965 8.683999999999997,6.079899999999995 8.7299,6.043399999999998 8.743899999999996,6.037199999999999 8.763999999999996,6.032199999999996 8.7971,6.019299999999994 8.812199999999997,6.0167 8.8183,6.0184 8.822699999999998,6.016199999999998 8.845999999999997,6.015499999999996 8.851199999999999,6.016999999999996 8.858399999999996,6.0154 8.8945,6.018499999999996 8.8977,6.020699999999998 8.903399999999998,6.020299999999999 8.920499999999997,6.023399999999995 8.930999999999997,6.028799999999997 8.938499999999998,6.0351 8.947899999999997,6.0501000000000005 8.951699999999995,6.060899999999997 8.954,6.075599999999994 8.963699999999996,6.088799999999999 8.964399999999998,6.098499999999994 8.9617,6.120799999999996 8.962499999999999,6.131999999999998 8.9696,6.1436999999999955 8.9801,6.156099999999995 8.990400000000001,6.161099999999998 9.001599999999996,6.161699999999996 9.0396,6.1569 9.0745,6.142299999999999 9.090399999999995,6.1387 9.128799999999998,6.136399999999995 9.156799999999997,6.145799999999994 9.167099999999998,6.145499999999998 9.178999999999995,6.1404 9.185499999999998,6.1351999999999975 9.1937,6.1233 9.1997,6.1077999999999975 9.2085,6.101599999999998 9.2192,6.0961 9.233599999999996,6.0922999999999945 9.260999999999996,6.090199999999996 9.2714,6.085299999999997 9.3153,6.045899999999996 9.3476,6.029499999999999 9.3718,6.023799999999994 9.412700000000001,5.991499999999995 9.439,5.979599999999998 9.449199999999998,5.965299999999999 9.457099999999997,5.9482 9.4561,5.939699999999995 9.4531,5.932699999999997 9.459600000000002,5.9236 9.469299999999997,5.9191999999999965 9.4816,5.917499999999997 9.513300000000001,5.904699999999998 9.522300000000001,5.897599999999997 9.529499999999999,5.889299999999999 9.535800000000002,5.876099999999994 9.535199999999996,5.8655999999999935 9.539200000000001,5.8538 9.550199999999997,5.850299999999997 9.555,5.843699999999998 9.549999999999997,5.817099999999996 9.551299999999998,5.801499999999997 9.554200000000002,5.793199999999999 9.555499999999995,5.770499999999998 9.558700000000002,5.762599999999999 9.560099999999998,5.7301 9.5567,5.710699999999996 9.5595,5.694799999999994 9.558700000000002,5.6905 9.585,5.6569999999999965 9.590800000000002,5.640099999999997 9.600699999999996,5.627899999999997 9.604099999999995,5.5822999999999965 9.610599999999998,5.569099999999999 9.625399999999999,5.5589999999999975 9.636800000000001,5.546499999999995 9.6496,5.5271999999999935 9.664099999999998,5.499499999999998 9.6659,5.482299999999995 9.668999999999997,5.471899999999998 9.686700000000002,5.444599999999994 9.7029,5.426699999999997 9.747099999999996,5.401299999999999 9.766300000000001,5.378699999999995 9.794899999999998,5.3643 9.822299999999998,5.354999999999997 9.850899999999996,5.330999999999996 9.879399999999997,5.317099999999996 9.8872,5.315999999999995 9.908099999999997,5.308499999999995 9.908999999999999,5.303399999999996 9.902499999999996,5.279199999999996 9.891799999999996,5.253699999999995 9.8932,5.245099999999994 9.908699999999996,5.227699999999999 9.924299999999995,5.217999999999996 9.933700000000002,5.2102 9.950099999999999,5.188099999999999 9.951799999999999,5.180999999999997 9.950600000000001,5.171399999999998 9.942900000000002,5.1562999999999946 9.942099999999996,5.1462999999999965 9.946999999999996,5.133599999999994 9.948299999999996,5.114699999999999 9.961100000000002,5.0809 9.964100000000002,5.0604999999999976 9.9724,5.043699999999994 9.972999999999999,5.022199999999998 9.970500000000001,5.000099999999996 9.9557,4.980199999999996 9.955100000000002,4.9694999999999965 9.959199999999996,4.9632000000000005 9.985599999999998,4.9350999999999985 9.988399999999999,4.9058999999999955 9.994900000000001,4.894299999999994 9.993499999999997,4.8851999999999975 10.0013,4.8613 10.020899999999997,4.8399 10.046500000000002,4.8215999999999966 10.3566,4.645999999999994 10.507199999999997,4.566299999999998 10.729,4.444299999999998 10.820699999999995,4.3977 10.917099999999998,4.344999999999999 11.011800000000001,4.300899999999999 11.097699999999996,4.253799999999998 11.141399999999997,4.217699999999994 11.218699999999998,4.159499999999994 11.235500000000002,4.138799999999996 11.244499999999995,4.1327 11.250700000000002,4.122 11.275500000000001,4.098599999999998 11.303999999999995,4.076899999999995 11.405099999999997,4.018999999999998 11.444400000000002,3.999299999999998 11.591399999999993,3.911299999999997 11.615099999999998,3.8996999999999957 11.653599999999997,3.877599999999994 11.717299999999994,3.836499999999994 11.735699999999994,3.8293999999999997 11.765699999999995,3.8263999999999996 11.788299999999992,3.8267999999999986 11.810000000000002,3.8310999999999993 11.855499999999992,3.8515999999999977 11.880899999999997,3.856499999999997 11.889700000000005,3.8559999999999945 11.961699999999993,3.795099999999998 12.081400000000002,3.7083999999999975 12.140299999999996,3.6761999999999944 12.211399999999998,3.642799999999994 12.233499999999992,3.629399999999997 12.334599999999995,3.5822000000000003 12.347899999999996,3.5708999999999946 12.385199999999998,3.5496999999999943 12.448799999999991,3.5263999999999953 12.524599999999992,3.5037999999999982 12.583600000000004,3.482699999999994 12.596099999999993,3.4758999999999958 12.647300000000001,3.4376999999999995 12.7607,3.346899999999998 12.819099999999992,3.303999999999995 12.859099999999998,3.2786999999999935 12.997900000000001,3.208299999999994 13.039999999999992,3.1891999999999996 13.123999999999995,3.161699999999996 13.254899999999992,3.1222999999999956 13.314899999999994,3.1115999999999957 13.355999999999995,3.106099999999998 13.367599999999996,3.106099999999998 13.375500000000002,3.1088999999999984 13.379099999999994,3.119799999999998 13.382000000000005,3.1214999999999975 13.394300000000001,3.1203999999999965 13.4007,3.1328999999999994 13.4101,3.144299999999994 13.430999999999997,3.1488999999999976 13.454099999999997,3.1488999999999976 13.473600000000005,3.1449 13.4953,3.128999999999998 13.514799999999994,3.111399999999996 13.534400000000005,3.1011999999999986 13.552399999999992,3.096599999999995 13.581999999999994,3.0977999999999994 13.592100000000002,3.0948999999999955 13.6036,3.0840999999999994 13.608699999999999,3.081299999999999 13.627499999999998,3.0789999999999935 13.652699999999996,3.072199999999995 13.663499999999999,3.0556999999999945 13.6772,3.0488 13.752899999999997,3.031099999999995 13.793999999999997,3.0293999999999954 13.804100000000005,3.0242000000000004 13.832099999999997,2.9843999999999937 13.8716,2.948999999999998 13.883899999999997,2.942699999999995 13.905500000000004,2.9346999999999994 13.932100000000005,2.9209999999999994 13.958600000000004,2.902699999999996 13.9859,2.896899999999995 13.998199999999997,2.897999999999996 14.055099999999996,2.9120999999999952 14.109799999999993,2.9084000000000003 14.124200000000002,2.906099999999995 14.152999999999992,2.896899999999995 14.178799999999995,2.8842 14.235199999999992,2.8322000000000003 14.2423,2.8185000000000002 14.242899999999992,2.8030999999999935 14.237799999999993,2.788899999999998 14.228399999999993,2.7821 14.182900000000004,2.7623999999999995 14.179100000000005,2.7592 14.166899999999998,2.7468000000000004 14.1554,2.7249999999999943 14.1387,2.7119 14.122799999999998,2.6925999999999988 14.106799999999993,2.661999999999999 14.097999999999999,2.619899999999994 14.0972,2.6084999999999994 14.097099999999998,2.5982999999999947 14.103399999999993,2.5719999999999956 14.097399999999993,2.532199999999996 14.091300000000004,2.475299999999997 14.096900000000005,2.4497 14.195700000000002,2.3540999999999954 14.204799999999992,2.3352999999999966 14.204700000000003,2.322199999999995 14.1982,2.3096999999999994 14.173100000000005,2.3023999999999987 14.132400000000004,2.2941000000000003 14.108000000000004,2.2838999999999956 14.089399999999998,2.2731999999999957 14.079999999999998,2.2623999999999995 14.076399999999992,2.2509999999999977 14.084999999999994,2.216299999999997 14.040499999999994,2.2045999999999992 13.991100000000003,2.2127999999999943 13.975200000000001,2.212699999999998 13.968800000000002,2.2113999999999976 13.943600000000004,2.1995000000000005 13.930499999999995,2.1957999999999984 13.921499999999995,2.197099999999999 13.915400000000005,2.2020999999999944 13.905900000000003,2.2013999999999996 13.8904,2.1946999999999974 13.867099999999994,2.189799999999998 13.855499999999992,2.1905 13.837099999999992,2.197899999999997 13.813500000000005,2.221499999999999 13.802700000000002,2.2282999999999973 13.7667,2.238499999999995 13.740700000000004,2.234099999999998 13.718499999999992,2.2378999999999962 13.706699999999998,2.241899999999994 13.678699999999992,2.2727999999999966 13.668999999999997,2.296599999999998 13.663799999999995,2.302899999999994 13.658100000000005,2.3064999999999998 13.6447,2.3111999999999995 13.632599999999996,2.320599999999999 13.623000000000005,2.3230000000000004 13.616,2.322899999999997 13.603499999999997,2.3175999999999988 13.596900000000005,2.3162999999999982 13.586600000000004,2.3171999999999997 13.576499999999996,2.3211999999999975 13.560900000000004,2.331299999999999 13.555399999999992,2.332499999999996 13.528499999999994,2.3249999999999957 13.513400000000004,2.325899999999997 13.476799999999997,2.3406999999999982 13.436700000000002,2.349499999999999 13.414000000000001,2.3589999999999947 13.407200000000003,2.367999999999995 13.395700000000005,2.372399999999999 13.3549,2.395699999999998 13.351699999999994,2.4054 13.352199999999996,2.415999999999997 13.337900000000005,2.420499999999997 13.322400000000002,2.421599999999998 13.3189,2.418599999999998 13.317899999999995,2.409099999999995 13.2941,2.4109999999999943 13.286599999999993,2.4129000000000005 13.278099999999995,2.409399999999998 13.263099999999994,2.408299999999997 13.2046,2.3123000000000005 13.203000000000003,2.2134 13.088799999999992,2.1099999999999994 12.827100000000002,2.1037999999999997 12.785699999999991,2.1215999999999937 12.747,2.1066999999999965 12.689599999999999,2.1173999999999964 12.548999999999992,2.0889999999999986 12.312299999999993,1.9817999999999998 12.351699999999994,1.8078000000000003 12.354699999999994,1.7862999999999971 12.269800000000004,1.6683999999999983 12.234700000000004,1.6084999999999994 12.1755,1.5010999999999939 12.179400000000001,1.4664999999999964 12.175200000000004,1.4502999999999986 12.1939,1.3084999999999951 12.149100000000004,1.2485 12.138199999999998,1.219299999999997 12.108499999999992,1.1920000000000002 12.0796,1.1699999999999946 12.066500000000005,1.1574999999999989 12.004400000000004,1.1111999999999966 11.996499999999997,1.108699999999999 11.986999999999995,1.109499999999997 11.975700000000003,1.1036999999999964 11.967600000000004,1.1030999999999977 11.962699999999998,1.0997999999999948 11.922200000000004,1.096899999999998 11.912599999999998,1.0923999999999978 11.909199999999998,1.0856999999999957 11.898200000000003,1.0799999999999983 11.884299999999996,1.0747 11.873099999999994,1.0747 11.8647,1.056999999999995 11.857600000000005,1.046999999999997 11.856399999999994,1.0371999999999986 11.850899999999996,1.032899999999998 11.841799999999992,1.020699999999998 11.837499999999991,1.0178999999999974 11.834999999999994,1.017799999999994 11.831999999999994,1.0215999999999994 11.826799999999992,1.0218999999999951 11.822599999999994,1.0293999999999954 11.807900000000004,1.0261999999999958 11.798199999999994,1.0198999999999998 11.794699999999992,1.0197999999999965 11.772199999999998,1.0323999999999955 11.765500000000003,1.0334999999999965 11.755799999999994,1.0322999999999993 11.743300000000005,1.0278999999999954 11.724499999999992,1.0297999999999945 11.717699999999994,1.0252999999999943 11.7153,1.0164999999999935 11.702100000000002,1.0129999999999981 11.692800000000005,1.0068999999999946 11.6892,1.0060999999999964 11.6738,0.9923999999999964 11.665300000000002,0.9899999999999949 11.658699999999996,0.9963999999999942 11.653400000000005,0.9970999999999961 11.639600000000002,0.9774999999999991 11.623999999999995,0.9717999999999947 11.615799999999993,0.9664999999999964 11.616,0.9507999999999939 11.618300000000005,0.9454999999999956 11.615700000000004,0.9405000000000001 11.615700000000004,0.9249999999999972 11.618700000000004,0.9099999999999966 11.618399999999994,0.9040999999999997 11.6233,0.8932000000000002 11.628699999999995,0.893499999999996 11.629599999999996,0.8911999999999978 11.627200000000002,0.8800999999999988 11.628,0.8730999999999938 11.620499999999993,0.8720999999999961 11.561099999999996,0.9022999999999968 11.561099999999996,0.8720999999999961 11.418500000000002,0.8688000000000002 11.267399999999995,0.8376999999999981 11.131099999999996,0.8211999999999975 11.094899999999996,0.7727000000000004 10.8658,0.7272999999999996 10.679099999999998,0.7319999999999993 10.6798,0.7256 10.682699999999997,0.7190999999999974 10.6811,0.7173999999999978 10.671999999999997,0.718599999999995 10.671799999999998,0.7089999999999961 10.6734,0.7055999999999969 10.6706,0.7049999999999983 10.6693,0.7065999999999946 10.666599999999995,0.7054999999999936 10.667200000000001,0.7035999999999945 10.665299999999995,0.7045999999999992 10.661099999999998,0.7000999999999991 10.6676,0.6993999999999971 10.668199999999999,0.6966999999999999 10.665099999999995,0.6903999999999968 10.660199999999996,0.6888000000000005 10.665999999999997,0.684199999999997 10.674199999999999,0.684899999999999 10.678999999999995,0.6823999999999941 10.678599999999996,0.6748999999999938 10.6918,0.672699999999999 10.691699999999997,0.6689999999999969 10.697400000000002,0.6684999999999945 10.693999999999996,0.6661999999999964 10.694099999999999,0.6600999999999999 10.6892,0.6567999999999969 10.6937,0.6512999999999991 10.695099999999996,0.6521999999999935 10.695699999999995,0.6490999999999971 10.703600000000002,0.6414999999999935 10.6952,0.6402999999999963 10.689799999999998,0.636099999999999 10.698299999999996,0.6344999999999956 10.6978,0.630199999999995 10.704099999999997,0.629099999999994 10.708100000000002,0.6248000000000005 10.714399999999998,0.6286999999999949 10.717300000000002,0.6270999999999987 10.719299999999997,0.6248999999999967 10.717300000000002,0.6167999999999978 10.724199999999996,0.6195999999999984 10.728299999999997,0.6185999999999936 10.727199999999996,0.6160999999999959 10.736399999999996,0.6089999999999947 10.734699999999997,0.6069999999999993 10.735599999999998,0.6040999999999954 10.746299999999998,0.6022999999999996 10.749200000000002,0.5991999999999962 10.7498,0.5916999999999959 10.754199999999997,0.5831999999999979 10.771799999999999,0.5792999999999964 10.774099999999997,0.5814999999999984 10.781799999999997,0.5793999999999997 10.786000000000001,0.5777999999999963 10.790399999999998,0.5728999999999971 10.797199999999997,0.5722999999999985 10.801400000000001,0.5700000000000003 10.803999999999995,0.5636999999999972 10.804499999999997,0.5522999999999954 10.7975,0.5486000000000004 10.7712,0.5401999999999987 10.699399999999997,0.5122999999999962 10.670699999999997,0.5027999999999935 10.6706,0.49669999999999703 10.6674,0.4945999999999984 10.665999999999997,0.49049999999999727 10.657800000000002,0.49089999999999634 10.654499999999999,0.48699999999999477 10.6597,0.46999999999999886 10.6597,0.4632999999999967 10.662799999999997,0.4583999999999975 10.667899999999996,0.45519999999999783 10.668199999999999,0.4507999999999939 10.663199999999996,0.4438999999999993 10.662999999999997,0.4333999999999989 10.663699999999999,0.42839999999999634 10.665299999999995,0.42779999999999774 10.665500000000002,0.42029999999999745 10.669599999999996,0.4209999999999994 10.671599999999998,0.4199999999999946 10.672399999999996,0.4151999999999987 10.6772,0.4158999999999935 10.683399999999999,0.4140999999999977 10.686399999999999,0.41319999999999624 10.6877,0.4106999999999985 10.685699999999997,0.40269999999999584 10.686900000000001,0.39799999999999613 10.6813,0.38459999999999894 10.669899999999998,0.3808999999999969 10.6766,0.3719999999999999 10.677399999999999,0.3626999999999967 10.671999999999997,0.3561999999999941 10.675899999999999,0.35019999999999385 10.667200000000001,0.3305999999999969 10.666699999999999,0.32499999999999574 10.6689,0.31700000000000017 10.659599999999998,0.30809999999999604 10.661000000000001,0.30239999999999867 10.6567,0.2885999999999953 10.653199999999998,0.2907999999999973 10.648499999999999,0.28769999999999385 10.6477,0.2891999999999939 10.6344,0.2849000000000004 10.6186,0.28409999999999513 10.613700000000001,0.28129999999999455 10.607099999999996,0.28129999999999455 10.595099999999995,0.28589999999999804 10.590399999999995,0.2819999999999965 10.583799999999997,0.2825999999999951 10.573599999999999,0.28819999999999624 10.580999999999996,0.2767999999999944 10.581899999999997,0.2744 10.580199999999998,0.27199999999999847 10.565799999999996,0.27959999999999496 10.560699999999997,0.2757000000000005 10.520800000000001,0.2582999999999984 10.518,0.2591999999999999 10.5013,0.2546999999999997 10.491399999999999,0.24799999999999756 "></polygon><polygon points="0.6306000000000012,3.6557999999999993 0.6289000000000016,3.666399999999996 0.6144999999999996,3.6858999999999966 0.6124999999999972,3.6962999999999937 0.6130999999999958,3.726699999999994 0.610599999999998,3.737499999999997 0.6021999999999963,3.7516999999999996 0.5949999999999989,3.7583999999999946 0.5876000000000019,3.7849999999999966 0.5876999999999981,3.7941999999999965 0.5938999999999979,3.8263999999999996 0.5910000000000011,3.8378999999999976 0.5947999999999993,3.8652999999999977 0.5998999999999981,3.8792999999999935 0.5947999999999993,3.894599999999997 0.5940999999999974,3.9179999999999993 0.598399999999998,3.9394999999999953 0.6141999999999967,3.9679999999999964 0.6454999999999984,3.9828999999999937 0.657199999999996,3.982199999999999 0.6606999999999985,3.976699999999994 0.6585999999999999,3.968899999999998 0.651600000000002,3.9650999999999996 0.6477000000000004,3.9661999999999935 0.6453999999999951,3.9702999999999946 0.6501999999999981,3.971499999999999 0.6507000000000005,3.9742999999999995 0.6467999999999989,3.9761999999999986 0.6220999999999961,3.961999999999996 0.6178999999999988,3.954899999999995 0.6195999999999984,3.944199999999995 0.6164999999999949,3.9239999999999995 0.6169999999999973,3.9136999999999986 0.6132999999999953,3.9031999999999982 0.6128999999999962,3.8935999999999993 0.6158000000000001,3.8891999999999953 0.6126999999999967,3.837299999999999 0.6152000000000015,3.8271999999999977 0.6184999999999974,3.7708999999999975 0.6263999999999967,3.738499999999995 0.6283999999999992,3.706699999999998 0.631299999999996,3.696799999999996 0.6302999999999983,3.692299999999996 0.632799999999996,3.678699999999999 0.6359999999999957,3.6743999999999986 0.6347999999999985,3.670499999999997 0.6383999999999972,3.6492000000000004 0.6396000000000015,3.6195999999999984 0.6373999999999995,3.6078999999999937 0.6347999999999985,3.6069999999999993 0.6319000000000017,3.610299999999995 0.6311999999999998,3.626099999999994 0.627200000000002,3.6432999999999964 0.6306000000000012,3.6557999999999993 "></polygon><polygon points="1.0914999999999964,4.153499999999994 1.0914000000000001,4.145099999999999 1.0878000000000014,4.1402 1.0859999999999985,4.142299999999999 1.088799999999999,4.153599999999997 1.0914999999999964,4.153499999999994 "></polygon><polygon points="1.0629999999999953,4.524999999999999 1.064700000000002,4.521799999999999 1.0570999999999984,4.513999999999996 1.0553999999999988,4.506299999999996 1.0512000000000015,4.514699999999998 1.0512999999999977,4.518599999999999 1.0596999999999994,4.526899999999998 1.0629999999999953,4.524999999999999 "></polygon><polygon points="0.6494,4.5711999999999975 0.646099999999997,4.581499999999998 0.6494999999999962,4.5844999999999985 0.6548000000000016,4.5732 0.6614000000000004,4.566099999999999 0.6766999999999967,4.560899999999997 0.681999999999995,4.5552999999999955 0.7012,4.546999999999997 0.6978999999999971,4.543899999999994 0.6832999999999956,4.549599999999998 0.6700000000000017,4.558299999999996 0.6580999999999975,4.560399999999994 0.6494,4.5711999999999975 "></polygon><polygon points="0.6323000000000008,4.643599999999999 0.6308999999999969,4.632799999999996 0.6289000000000016,4.631799999999998 0.6235999999999962,4.640499999999996 0.6082999999999998,4.645699999999998 0.5936999999999983,4.652899999999995 0.5936999999999983,4.654899999999998 0.5976999999999961,4.657499999999999 0.6036999999999964,4.657499999999999 0.6049999999999969,4.654399999999995 0.6135999999999981,4.6539 0.6229000000000013,4.647199999999998 0.6323000000000008,4.643599999999999 "></polygon><polygon points="0.6263999999999967,4.623799999999996 0.6328999999999994,4.622 0.6368999999999971,4.6240999999999985 0.6374999999999957,4.619999999999997 0.643499999999996,4.617899999999999 0.6428999999999974,4.614799999999995 0.6467999999999989,4.6070999999999955 0.6462000000000003,4.6051 0.6428000000000011,4.6051 0.6341999999999999,4.615399999999994 0.630199999999995,4.613299999999995 0.6219999999999999,4.621199999999995 0.6015999999999977,4.625899999999994 0.5906999999999982,4.630799999999994 0.5550999999999959,4.6558999999999955 0.5484000000000009,4.663999999999994 0.5373999999999981,4.688899999999997 0.5193999999999974,4.708499999999994 0.5094999999999956,4.723799999999997 0.5133999999999972,4.726599999999998 0.5317000000000007,4.715499999999999 0.5426000000000002,4.711999999999996 0.5587000000000018,4.693599999999996 0.5524999999999949,4.691599999999994 0.5518999999999963,4.686999999999998 0.5670999999999964,4.677499999999995 0.5716999999999999,4.677 0.5617000000000019,4.687199999999997 0.5656999999999996,4.689299999999996 0.5716999999999999,4.6861999999999995 0.5869999999999962,4.670399999999994 0.5945999999999998,4.666199999999996 0.5916999999999959,4.661099999999998 0.583599999999997,4.659699999999994 0.5769999999999982,4.661099999999998 0.5777000000000001,4.664099999999998 0.5696999999999974,4.664699999999996 0.5728999999999971,4.6521999999999935 0.575800000000001,4.648699999999998 0.5878999999999976,4.639299999999999 0.6075999999999979,4.633199999999995 0.6128999999999962,4.628399999999999 0.6191999999999993,4.631299999999996 0.6263999999999967,4.623799999999996 "></polygon><polygon points="1.0218999999999951,4.770799999999994 1.0304999999999964,4.773699999999998 1.0324999999999989,4.770499999999998 1.0300000000000011,4.7639 1.033999999999999,4.7547 1.0319000000000003,4.7515 1.0155999999999992,4.7486999999999995 1.0142999999999986,4.7652 1.0197999999999965,4.771099999999997 1.0218999999999951,4.770799999999994 "></polygon><polygon points="0.11690000000000111,6.387299999999996 0.11339999999999861,6.384699999999995 0.10649999999999693,6.375699999999995 0.10499999999999687,6.377699999999997 0.10819999999999652,6.3872 0.12010000000000076,6.389599999999994 0.11690000000000111,6.387299999999996 "></polygon>
    </svg>
    