
    <svg width="3.812000000000012" height="5.149" xmlns="http://www.w3.org/2000/svg" xmlns:xlink="http://www.w3.org/1999/xlink" style="transform: scale(1, -1)">
        <polygon points="3.4170000000000016,0.005300000000000082 3.418900000000008,0.0045999999999999375 3.419200000000018,0.002600000000001046 3.414999999999992,0.0 3.408999999999992,0.0035000000000007248 3.412000000000006,0.005300000000000082 3.4170000000000016,0.005300000000000082 "></polygon><polygon points="3.7530000000000143,1.4138000000000002 3.7528000000000077,1.4099000000000004 3.75,1.4111000000000011 3.7483000000000004,1.4221000000000004 3.751499999999993,1.4242000000000008 3.750699999999995,1.4168000000000003 3.7530000000000143,1.4138000000000002 "></polygon><polygon points="3.7430999999999983,1.4186999999999994 3.7439999999999998,1.4191000000000003 3.7456999999999994,1.4258000000000006 3.7449000000000012,1.4178999999999995 3.7430999999999983,1.4186999999999994 "></polygon><polygon points="3.044200000000018,2.1578999999999997 3.036699999999996,2.1555999999999997 3.0227000000000146,2.1462000000000003 3.0201000000000136,2.1465999999999994 3.018599999999992,2.1495999999999995 3.0194999999999936,2.151 3.0226000000000113,2.1502999999999997 3.022999999999996,2.1485000000000003 3.0422000000000082,2.159600000000001 3.036699999999996,2.174900000000001 3.0374999999999943,2.1796000000000006 3.0408999999999935,2.1849000000000007 3.0408999999999935,2.1937999999999995 3.0464000000000055,2.2018000000000004 3.042100000000005,2.1928 3.0427999999999997,2.1843000000000004 3.038000000000011,2.1747999999999994 3.045000000000016,2.163500000000001 3.045800000000014,2.159600000000001 3.044200000000018,2.1578999999999997 "></polygon><polygon points="3.8018000000000143,1.3585000000000012 3.8004999999999995,1.356300000000001 3.7938000000000045,1.3597000000000001 3.800700000000006,1.362 3.8018000000000143,1.3585000000000012 "></polygon><polygon points="3.792599999999993,1.3597000000000001 3.790600000000012,1.3619000000000003 3.792599999999993,1.3659 3.7952999999999975,1.3643 3.792599999999993,1.3597000000000001 "></polygon><polygon points="3.78570000000002,1.3633000000000006 3.7882999999999925,1.3664000000000005 3.7900999999999954,1.3671000000000006 3.787700000000001,1.3620999999999999 3.78570000000002,1.3633000000000006 "></polygon><polygon points="3.7841999999999985,1.3658000000000001 3.7881000000000142,1.369200000000001 3.788499999999999,1.369200000000001 3.7835000000000036,1.3643999999999998 3.7841999999999985,1.3658000000000001 "></polygon><polygon points="3.784700000000015,1.370000000000001 3.787000000000006,1.3694000000000006 3.782600000000002,1.3660999999999994 3.7797000000000196,1.3707000000000011 3.784700000000015,1.370000000000001 "></polygon><polygon points="3.8070000000000164,1.360100000000001 3.8052000000000135,1.3612000000000002 3.805499999999995,1.3595000000000006 3.803600000000017,1.3598 3.8024000000000058,1.3621999999999996 3.8078000000000145,1.3659 3.810200000000009,1.3742 3.8104000000000156,1.3838000000000008 3.8037999999999954,1.3998000000000008 3.7989000000000033,1.4059000000000008 3.796500000000009,1.4064999999999994 3.798400000000015,1.4078 3.8059000000000083,1.4002 3.8114999999999952,1.3870000000000005 3.812000000000012,1.3754000000000008 3.8070000000000164,1.360100000000001 "></polygon><polygon points="3.7960999999999956,1.4086999999999996 3.7946000000000026,1.4093999999999998 3.795000000000016,1.4108999999999998 3.792900000000003,1.4107000000000003 3.7923000000000116,1.4131 3.796999999999997,1.4102999999999994 3.7960999999999956,1.4086999999999996 "></polygon><polygon points="3.7668999999999926,1.4443000000000001 3.774799999999999,1.4437999999999995 3.7811000000000092,1.439 3.7827000000000055,1.4254999999999995 3.787000000000006,1.4159000000000006 3.7805999999999926,1.4252000000000002 3.7801000000000045,1.4382000000000001 3.776200000000017,1.4414999999999996 3.771800000000013,1.4427000000000003 3.765000000000015,1.4428999999999998 3.7624000000000137,1.4412000000000003 3.761400000000009,1.442400000000001 3.7634999999999934,1.4450000000000003 3.7668999999999926,1.4443000000000001 "></polygon><polygon points="3.7535000000000025,1.4338999999999995 3.7501000000000033,1.4353999999999996 3.7497999999999934,1.4368999999999996 3.7528000000000077,1.435500000000001 3.7535000000000025,1.4338999999999995 "></polygon><polygon points="3.7546000000000106,1.4381000000000004 3.7546000000000106,1.440100000000001 3.7557999999999936,1.436300000000001 3.7553000000000054,1.4360999999999997 3.7546000000000106,1.4381000000000004 "></polygon><polygon points="3.758499999999998,1.4388000000000005 3.757000000000005,1.4383999999999997 3.7557000000000187,1.4413 3.759900000000016,1.443200000000001 3.7608000000000175,1.4396000000000004 3.758499999999998,1.4388000000000005 "></polygon><polygon points="3.0608000000000004,2.2142999999999997 3.0579999999999927,2.208500000000001 3.0542000000000087,2.2081999999999997 3.0579999999999927,2.2118 3.0600000000000023,2.2162000000000006 3.0608000000000004,2.2142999999999997 "></polygon><polygon points="3.074700000000007,2.226000000000001 3.0708999999999946,2.2249 3.0704000000000065,2.2254000000000005 3.077500000000015,2.2280999999999995 3.074700000000007,2.226000000000001 "></polygon><polygon points="3.092000000000013,2.2356999999999996 3.088700000000017,2.2333999999999996 3.0800000000000125,2.2293000000000003 3.0833000000000084,2.2332 3.0911000000000115,2.2376000000000005 3.0929000000000144,2.2368000000000006 3.092000000000013,2.2356999999999996 "></polygon><polygon points="3.098000000000013,2.2413000000000007 3.106099999999998,2.2470999999999997 3.106899999999996,2.246500000000001 3.1007999999999925,2.2414000000000005 3.096900000000005,2.240400000000001 3.098000000000013,2.2413000000000007 "></polygon><polygon points="3.139399999999995,2.266 3.1226000000000056,2.2528000000000006 3.110299999999995,2.249600000000001 3.1225000000000023,2.2546 3.129099999999994,2.2600999999999996 3.132300000000015,2.2630999999999997 3.139700000000005,2.2772000000000006 3.1333000000000197,2.299900000000001 3.131699999999995,2.3164999999999996 3.127200000000016,2.3237000000000005 3.118799999999993,2.344800000000001 3.123500000000007,2.3383000000000003 3.1340000000000146,2.3139000000000003 3.1351999999999975,2.2987 3.1444999999999936,2.2722999999999995 3.143900000000002,2.2692999999999994 3.139399999999995,2.266 "></polygon><polygon points="3.1099000000000103,2.3590999999999998 3.1100000000000136,2.3557000000000006 3.1133000000000095,2.3545 3.1156000000000006,2.3481000000000005 3.1085999999999956,2.3545999999999996 3.106400000000008,2.3613999999999997 3.1099000000000103,2.3590999999999998 "></polygon><polygon points="3.066500000000019,2.366900000000001 3.0649999999999977,2.363100000000001 3.056100000000015,2.364600000000001 3.063600000000008,2.368500000000001 3.066500000000019,2.366900000000001 "></polygon><polygon points="3.0139000000000067,2.1515000000000004 3.0142000000000166,2.158200000000001 3.017600000000016,2.1622000000000003 3.0165000000000077,2.1548999999999996 3.0183000000000106,2.1515000000000004 3.0156000000000063,2.1500000000000004 3.0139000000000067,2.1515000000000004 "></polygon><polygon points="3.0208000000000084,2.1690000000000005 3.0202999999999918,2.1639999999999997 3.018900000000002,2.1632 3.017799999999994,2.164300000000001 3.018900000000002,2.1707 3.0211999999999932,2.1705000000000005 3.0208000000000084,2.1690000000000005 "></polygon><polygon points="3.011700000000019,2.1928 3.0100999999999942,2.193200000000001 3.0100000000000193,2.1948000000000008 3.0123000000000104,2.1943 3.011700000000019,2.1928 "></polygon><polygon points="2.9776999999999987,2.2812 2.979299999999995,2.282400000000001 2.980099999999993,2.2821999999999996 2.978499999999997,2.279300000000001 2.977000000000004,2.2797 2.9776999999999987,2.2812 "></polygon><polygon points="3.00060000000002,2.3016000000000005 3.0027000000000044,2.3018 3.003299999999996,2.300700000000001 3.001499999999993,2.300600000000001 3.00060000000002,2.3016000000000005 "></polygon><polygon points="3.022500000000008,2.329600000000001 3.022800000000018,2.3285 3.0208000000000084,2.326500000000001 3.0191000000000088,2.330400000000001 3.0204999999999984,2.331200000000001 3.022500000000008,2.329600000000001 "></polygon><polygon points="2.369400000000013,2.8349 2.375799999999998,2.8263000000000007 2.3785000000000025,2.8183000000000007 2.341700000000003,2.7782 2.3363999999999976,2.7645999999999997 2.3274000000000115,2.7522 2.327500000000015,2.743500000000001 2.323200000000014,2.7390000000000008 2.321600000000018,2.7346000000000004 2.3218999999999994,2.7196 2.3181000000000154,2.7172 2.313900000000018,2.7215000000000007 2.3156000000000176,2.7227999999999994 2.315100000000001,2.7255000000000003 2.3111000000000104,2.7257999999999996 2.319500000000005,2.7318999999999996 2.321300000000008,2.7409 2.3237000000000023,2.7421000000000006 2.3259000000000185,2.746600000000001 2.32680000000002,2.7544000000000004 2.335399999999993,2.7665000000000006 2.3403000000000134,2.778500000000001 2.3704999999999927,2.8137 2.373000000000019,2.8201 2.3725000000000023,2.8243 2.3667000000000087,2.8337000000000003 2.3670000000000186,2.8359000000000005 2.365000000000009,2.8357 2.364699999999999,2.8378000000000005 2.362400000000008,2.8391 2.3636999999999944,2.8397000000000006 2.369400000000013,2.8349 "></polygon><polygon points="2.3610999999999933,2.8401000000000005 2.360100000000017,2.8392 2.3600000000000136,2.8417000000000003 2.36160000000001,2.8413000000000004 2.3610999999999933,2.8401000000000005 "></polygon><polygon points="2.3083000000000027,2.728200000000001 2.3063999999999965,2.7301 2.3100000000000023,2.7311999999999994 2.3096999999999923,2.7293000000000003 2.3083000000000027,2.728200000000001 "></polygon><polygon points="2.2735000000000127,2.751900000000001 2.2672000000000025,2.7493999999999996 2.2657000000000096,2.7509999999999994 2.2680000000000007,2.7539 2.2735000000000127,2.751900000000001 "></polygon><polygon points="2.2597000000000094,2.7612000000000005 2.2577,2.757200000000001 2.261400000000009,2.7592999999999996 2.2630000000000052,2.756500000000001 2.261400000000009,2.7535000000000007 2.248000000000019,2.7584 2.246700000000004,2.761000000000001 2.248800000000017,2.765600000000001 2.255500000000012,2.767100000000001 2.2597000000000094,2.7612000000000005 "></polygon><polygon points="2.254099999999994,2.7699 2.2549999999999955,2.7682 2.2531000000000176,2.7674000000000003 2.252200000000016,2.7696000000000005 2.254099999999994,2.7699 "></polygon><polygon points="2.325800000000015,2.8581000000000003 2.3267000000000166,2.8582 2.328000000000003,2.8565000000000005 2.3259999999999934,2.8563 2.325800000000015,2.8581000000000003 "></polygon><polygon points="2.323599999999999,2.8612 2.324399999999997,2.8576000000000006 2.3205000000000098,2.8587000000000007 2.317200000000014,2.8629000000000007 2.3211000000000013,2.8643 2.323599999999999,2.8612 "></polygon><polygon points="2.61190000000002,3.3333000000000004 2.613100000000003,3.3321000000000005 2.6122000000000014,3.3296 2.6225000000000023,3.3210000000000006 2.621600000000001,3.3176000000000005 2.6230999999999938,3.3162000000000003 2.618600000000015,3.311 2.6229000000000156,3.3021000000000003 2.626400000000018,3.3021000000000003 2.628299999999996,3.3049 2.6266999999999996,3.3087 2.621700000000004,3.3119000000000005 2.623899999999992,3.3160000000000007 2.62530000000001,3.3146000000000004 2.627200000000016,3.3177000000000003 2.627200000000016,3.3133 2.6295000000000073,3.3144 2.6332000000000164,3.3111000000000006 2.635600000000011,3.3130000000000006 2.637200000000007,3.3112000000000004 2.635300000000001,3.3095 2.6388000000000034,3.3034 2.6296000000000106,3.2932000000000006 2.62560000000002,3.2921000000000005 2.6208000000000027,3.2944000000000004 2.621700000000004,3.2957 2.61190000000002,3.3149000000000006 2.6037000000000035,3.3273 2.603499999999997,3.3307 2.6052999999999997,3.3335 2.61190000000002,3.3333000000000004 "></polygon><polygon points="2.2905000000000086,2.8015 2.288000000000011,2.801 2.287200000000013,2.8032000000000004 2.2882999999999925,2.8037 2.2905000000000086,2.8015 "></polygon><polygon points="2.280300000000011,2.8039000000000005 2.281499999999994,2.8043000000000005 2.2796000000000163,2.8027000000000006 2.2796000000000163,2.8035000000000005 2.280300000000011,2.8039000000000005 "></polygon><polygon points="1.0911000000000115,3.6018 1.0936000000000092,3.5985000000000005 1.092800000000011,3.5954000000000006 1.0978000000000065,3.5924000000000005 1.1007999999999925,3.5882000000000005 1.1007999999999925,3.5851000000000006 1.1047000000000082,3.5818000000000003 1.1055000000000064,3.5762 1.107500000000016,3.5476 1.1055000000000064,3.5418000000000003 1.0997000000000128,3.5382000000000007 1.09050000000002,3.5401000000000007 1.0825000000000102,3.5457 1.0896999999999935,3.5529 1.0925000000000011,3.5490000000000004 1.0922000000000196,3.5457 1.0955000000000155,3.5451000000000006 1.0981000000000165,3.5426 1.101699999999994,3.5426 1.1043999999999983,3.5485000000000007 1.1022000000000105,3.5524000000000004 1.102499999999992,3.5582000000000003 1.1052999999999997,3.5612000000000004 1.1022000000000105,3.5618 1.1011000000000024,3.5815 1.0989000000000146,3.5826000000000002 1.0982999999999947,3.5804 1.097200000000015,3.5812 1.097200000000015,3.5874000000000006 1.0955000000000155,3.5874000000000006 1.0911000000000115,3.5921000000000003 1.0900000000000034,3.5871000000000004 1.0922000000000196,3.5849 1.0883000000000038,3.5860000000000003 1.0844000000000165,3.5954000000000006 1.0888999999999953,3.604 1.091700000000003,3.6037 1.0911000000000115,3.6018 "></polygon><polygon points="0.25890000000001123,4.4924 0.2536000000000058,4.500500000000001 0.2569000000000017,4.511 0.25970000000000937,4.515700000000001 0.26269999999999527,4.5176 0.2656000000000063,4.514600000000001 0.268100000000004,4.5079 0.26830000000001064,4.498 0.26400000000001,4.4899000000000004 0.259900000000016,4.4904 0.25890000000001123,4.4924 "></polygon><polygon points="1.2882000000000176,4.6878 1.2935999999999979,4.6883 1.2957000000000107,4.6817 1.2916000000000167,4.6778 1.288000000000011,4.6768 1.2784000000000049,4.6770000000000005 1.2716000000000065,4.6843 1.2730999999999995,4.6877 1.2758000000000038,4.6889 1.2882000000000176,4.6878 "></polygon><polygon points="0.06080000000000041,5.1299 0.06780000000000541,5.1196 0.07779999999999632,5.090400000000001 0.05110000000001946,5.1218 0.052500000000009095,5.123200000000001 0.05530000000001678,5.1212 0.06530000000000769,5.1104 0.066599999999994,5.112900000000001 0.061700000000001864,5.1207 0.06050000000001887,5.1265 0.04980000000000473,5.1329 0.05299999999999727,5.1344 0.06080000000000041,5.1299 "></polygon><polygon points="0.004400000000003956,5.149 0.01859999999999218,5.1425 0.019100000000008777,5.1383 0.0028000000000076852,5.1437 0.0,5.1482 0.004400000000003956,5.149 "></polygon>
    </svg>
    