
    <svg width="17.136500000000005" height="8.393900000000002" xmlns="http://www.w3.org/2000/svg" xmlns:xlink="http://www.w3.org/1999/xlink" style="transform: scale(1, -1)">
        <polygon points="11.7558,0.043900000000000716 11.743999999999993,0.048900000000003274 11.729400000000005,0.051700000000003854 11.702999999999996,0.04919999999999902 11.694300000000005,0.049799999999997624 11.683500000000002,0.05530000000000257 11.675199999999997,0.062300000000000466 11.650799999999997,0.073599999999999 11.638299999999994,0.07169999999999987 11.6094,0.0625 11.583400000000005,0.043199999999998795 11.575600000000001,0.042099999999997806 11.570199999999993,0.04370000000000118 11.565999999999995,0.0478999999999985 11.561600000000006,0.05590000000000117 11.556199999999997,0.07370000000000232 11.551499999999997,0.07910000000000394 11.537500000000001,0.09000000000000341 11.524399999999993,0.09620000000000317 11.519299999999994,0.09709999999999752 11.506800000000005,0.09530000000000172 11.4925,0.08830000000000382 11.478100000000005,0.07910000000000394 11.467400000000005,0.0683000000000007 11.450899999999997,0.05799999999999983 11.415600000000005,0.0478999999999985 11.396800000000006,0.03860000000000241 11.3748,0.0373999999999981 11.332,0.029000000000003467 11.3213,0.022399999999997533 11.3127,0.012700000000002376 11.2793,0.0 11.266100000000002,0.0033999999999991815 11.256099999999996,0.009199999999999875 11.246699999999997,0.018300000000003536 11.244700000000002,0.02499999999999858 11.244899999999994,0.04070000000000107 11.238499999999995,0.050600000000002865 11.2224,0.057200000000001694 11.211999999999996,0.07410000000000139 11.2057,0.07860000000000156 11.184999999999995,0.08489999999999753 11.175499999999992,0.09040000000000248 11.159799999999997,0.08789999999999765 11.1526,0.0893999999999977 11.131999999999998,0.09720000000000084 11.118500000000004,0.10450000000000159 11.110899999999994,0.11240000000000094 11.108700000000006,0.11870000000000402 11.1098,0.12650000000000006 11.115500000000004,0.1366999999999976 11.116400000000006,0.143100000000004 11.112699999999997,0.15429999999999922 11.107700000000001,0.15879999999999939 11.070900000000002,0.17329999999999757 11.055699999999995,0.1846000000000032 11.042499999999997,0.1968999999999994 11.031399999999998,0.2021000000000015 10.998399999999997,0.2126999999999981 10.9865,0.2137000000000029 10.952499999999993,0.21170000000000044 10.874900000000004,0.18440000000000367 10.857400000000005,0.1846000000000032 10.840799999999994,0.18720000000000425 10.821400000000004,0.1863000000000028 10.7776,0.17360000000000042 10.771700000000003,0.17320000000000135 10.732400000000005,0.18140000000000356 10.709399999999995,0.18120000000000402 10.694600000000001,0.17560000000000286 10.684800000000003,0.17500000000000426 10.653100000000002,0.18140000000000356 10.620699999999992,0.17730000000000246 10.595400000000005,0.17949999999999733 10.556599999999996,0.1782000000000039 10.528299999999994,0.16890000000000072 10.519699999999993,0.20360000000000156 10.523299999999999,0.2150000000000034 10.532699999999998,0.22579999999999956 10.551300000000005,0.2364999999999995 10.575700000000005,0.24670000000000414 10.616400000000006,0.25500000000000256 10.6415,0.2623000000000033 10.648000000000003,0.27479999999999905 10.648099999999992,0.2879000000000005 10.639000000000003,0.3066999999999993 10.540200000000006,0.4023000000000039 10.534600000000005,0.42790000000000106 10.540699999999994,0.4847999999999999 10.546699999999994,0.5245999999999995 10.540399999999998,0.5508999999999986 10.5413,0.572499999999998 10.550099999999993,0.6146000000000029 10.566099999999999,0.6452000000000027 10.582,0.6645000000000039 10.598700000000001,0.6775999999999982 10.610199999999999,0.6994000000000042 10.618000000000002,0.7075000000000031 10.626200000000004,0.7150000000000034 10.671699999999994,0.7347000000000037 10.681099999999994,0.741500000000002 10.686199999999992,0.7556999999999974 10.6856,0.7711000000000041 10.678499999999993,0.7848000000000042 10.622099999999996,0.8368000000000038 10.596299999999992,0.849499999999999 10.567500000000003,0.8586999999999989 10.553099999999993,0.8610000000000042 10.498399999999997,0.8646999999999991 10.441499999999998,0.8506 10.429200000000002,0.849499999999999 10.401900000000005,0.8552999999999997 10.375400000000006,0.8736000000000033 10.348800000000004,0.8873000000000033 10.327199999999998,0.8952999999999989 10.314900000000002,0.901600000000002 10.275399999999998,0.9369999999999976 10.247400000000006,0.9768000000000043 10.237299999999998,0.9819999999999993 10.196199999999997,0.9836999999999989 10.1205,1.0014000000000038 10.1068,1.0082999999999984 10.095999999999997,1.024799999999999 10.070799999999998,1.0315999999999974 10.052,1.0339000000000027 10.0469,1.0367000000000033 10.035400000000003,1.0474999999999994 10.025299999999994,1.0504000000000033 9.995699999999992,1.049199999999999 9.977700000000006,1.0538000000000025 9.958099999999995,1.064 9.938600000000001,1.0816000000000017 9.916900000000005,1.0975000000000037 9.897399999999998,1.1015000000000015 9.874299999999998,1.1015000000000015 9.8534,1.096899999999998 9.844000000000001,1.0855000000000032 9.837600000000002,1.0730000000000004 9.825300000000006,1.0741000000000014 9.822399999999995,1.0724000000000018 9.818800000000003,1.0615000000000023 9.810899999999997,1.0587000000000018 9.799299999999995,1.0587000000000018 9.758199999999995,1.0641999999999996 9.698199999999993,1.0748999999999995 9.567299999999996,1.1143 9.483299999999993,1.1418000000000035 9.441200000000002,1.160899999999998 9.302399999999999,1.2312999999999974 9.262399999999992,1.2565999999999988 9.204,1.2995000000000019 9.090600000000002,1.3903000000000034 9.039399999999993,1.4284999999999997 9.026900000000005,1.435299999999998 8.967899999999993,1.4564000000000021 8.892099999999992,1.4789999999999992 8.828499999999998,1.5022999999999982 8.791199999999996,1.5234999999999985 8.777899999999995,1.5348000000000042 8.676799999999993,1.5820000000000007 8.654699999999998,1.595399999999998 8.583599999999997,1.6287999999999982 8.524700000000003,1.6610000000000014 8.404999999999994,1.7477000000000018 8.333000000000006,1.8085999999999984 8.324199999999998,1.8091000000000008 8.298799999999993,1.8042000000000016 8.253300000000003,1.7837000000000032 8.231599999999993,1.7794000000000025 8.208999999999996,1.7790000000000035 8.178999999999995,1.7820000000000036 8.160599999999995,1.7890999999999977 8.096899999999998,1.8301999999999978 8.058399999999999,1.8522999999999996 8.034699999999994,1.863900000000001 7.887700000000002,1.951900000000002 7.848399999999998,1.9716000000000022 7.747299999999996,2.0294999999999987 7.718800000000002,2.0512000000000015 7.694000000000003,2.0746000000000038 7.687799999999996,2.0853000000000037 7.6788000000000025,2.0914 7.661999999999999,2.112099999999998 7.584699999999998,2.1702999999999975 7.540999999999997,2.206400000000002 7.455100000000002,2.2535000000000025 7.3603999999999985,2.2976000000000028 7.263999999999996,2.3503000000000043 7.1723,2.3969000000000023 6.950499999999998,2.518900000000002 6.799900000000001,2.5985999999999976 6.4898000000000025,2.7742000000000004 6.464199999999998,2.792500000000004 6.444600000000001,2.813900000000004 6.436799999999998,2.8378000000000014 6.438200000000002,2.846899999999998 6.431699999999999,2.8584999999999994 6.428899999999999,2.8877000000000024 6.402499999999996,2.9158000000000044 6.398400000000002,2.9221000000000004 6.399000000000001,2.9328000000000003 6.413800000000002,2.9527 6.4163,2.974800000000002 6.415700000000001,2.996299999999998 6.407400000000003,3.0131000000000014 6.4044000000000025,3.0335000000000036 6.391599999999997,3.067300000000003 6.390299999999996,3.086199999999998 6.385399999999997,3.0989000000000004 6.386200000000002,3.1088999999999984 6.393900000000002,3.1240000000000023 6.395099999999999,3.1336000000000013 6.3934,3.1407000000000025 6.3770000000000024,3.1628000000000043 6.367599999999996,3.1706000000000003 6.351999999999997,3.1803000000000026 6.336500000000001,3.1976999999999975 6.335099999999997,3.206299999999999 6.345799999999997,3.2318 6.3523,3.2560000000000002 6.351399999999998,3.261099999999999 6.330500000000001,3.2685999999999993 6.3226999999999975,3.2697000000000003 6.2941999999999965,3.2836 6.265599999999999,3.3076000000000008 6.238199999999999,3.316900000000004 6.209600000000002,3.331299999999999 6.190399999999997,3.353900000000003 6.1462,3.3793000000000006 6.130000000000003,3.397199999999998 6.112299999999998,3.424500000000002 6.109200000000001,3.434899999999999 6.107399999999998,3.4521000000000015 6.0929,3.4797999999999973 6.080100000000002,3.4990999999999985 6.0687,3.5116000000000014 6.053899999999999,3.5217000000000027 6.047399999999996,3.5349000000000004 6.043999999999997,3.5805000000000007 6.034100000000002,3.5927000000000007 6.0283000000000015,3.6096000000000004 6.0020000000000024,3.643100000000004 6.002800000000001,3.6473999999999975 6.0,3.6632999999999996 6.003399999999999,3.682700000000004 6.0020000000000024,3.715200000000003 5.998799999999996,3.7231000000000023 5.997500000000002,3.7458000000000027 5.994599999999998,3.754100000000001 5.993299999999998,3.7697000000000003 5.9983,3.7963000000000022 5.993499999999997,3.802900000000001 5.982500000000002,3.8064000000000036 5.978499999999997,3.8181999999999974 5.9791000000000025,3.8286999999999978 5.972799999999999,3.8419000000000025 5.965600000000002,3.850200000000001 5.956600000000002,3.857300000000002 5.924900000000001,3.8701000000000008 5.912599999999998,3.8718000000000004 5.9029000000000025,3.8762000000000043 5.8964,3.885300000000001 5.8994,3.8922999999999988 5.900399999999998,3.900800000000004 5.892499999999998,3.917900000000003 5.882300000000001,3.9322000000000017 5.856000000000002,3.944099999999999 5.815100000000001,3.976399999999998 5.790900000000001,3.9821000000000026 5.758600000000001,3.9985 5.714700000000001,4.0379000000000005 5.704299999999996,4.0428 5.676899999999996,4.044899999999998 5.662500000000001,4.048700000000004 5.6518000000000015,4.054200000000002 5.643000000000001,4.060400000000001 5.6370000000000005,4.075900000000004 5.628799999999998,4.087800000000001 5.622299999999996,4.0930000000000035 5.6103999999999985,4.098100000000002 5.600099999999998,4.098399999999998 5.572099999999999,4.088999999999999 5.533699999999996,4.091300000000004 5.517800000000001,4.094900000000003 5.482900000000001,4.109500000000004 5.444899999999997,4.1143 5.433700000000002,4.1137000000000015 5.423400000000001,4.108699999999999 5.4129000000000005,4.096299999999999 5.405799999999999,4.084600000000002 5.405000000000001,4.0733999999999995 5.407699999999998,4.051099999999998 5.4069999999999965,4.041400000000003 5.397300000000001,4.028199999999998 5.394999999999996,4.0135000000000005 5.391199999999998,4.002700000000004 5.381799999999998,3.987700000000004 5.374299999999998,3.9814000000000007 5.363799999999998,3.975999999999999 5.3466999999999985,3.9729000000000028 5.341000000000001,3.973300000000002 5.337800000000001,3.9711 5.301699999999997,3.9680000000000035 5.294499999999999,3.9696 5.289299999999997,3.9680999999999997 5.265999999999998,3.9688000000000017 5.261600000000001,3.9710000000000036 5.255499999999998,3.969300000000004 5.240400000000001,3.971899999999998 5.2072999999999965,3.9848 5.187199999999997,3.9898000000000025 5.173200000000001,3.996000000000002 5.127299999999998,4.032499999999999 5.119900000000001,4.0349 5.104199999999999,4.034800000000004 5.0904000000000025,4.0319 5.0764,4.032000000000004 5.063699999999997,4.041400000000003 5.0478999999999985,4.057499999999997 5.026400000000002,4.057000000000002 5.001399999999997,4.060200000000002 4.973500000000001,4.059200000000004 4.941699999999997,4.061100000000003 4.932499999999997,4.057700000000004 4.9101,4.058799999999998 4.8629999999999995,4.053600000000003 4.807000000000002,4.055500000000002 4.770800000000001,4.050400000000003 4.685600000000001,4.0503 4.582799999999999,4.045400000000001 4.563699999999997,4.046199999999999 4.5075,4.039300000000004 4.486899999999999,4.040300000000002 4.471299999999999,4.044200000000004 4.401199999999996,4.075900000000004 4.3382000000000005,4.118200000000002 4.308,4.134399999999999 4.205999999999996,4.186300000000003 4.1614,4.2042 4.133099999999999,4.217599999999997 4.107999999999997,4.2346 4.0955999999999975,4.254899999999999 4.095199999999998,4.266100000000002 4.098799999999997,4.2789 4.097699999999996,4.296100000000003 4.099499999999999,4.327600000000004 4.105600000000003,4.3577999999999975 4.113799999999998,4.370899999999999 4.160199999999996,4.403500000000001 4.165599999999998,4.4133 4.165700000000001,4.432299999999998 4.1599,4.446800000000003 4.1447,4.465299999999999 4.1351999999999975,4.479599999999998 4.114899999999999,4.5013000000000005 4.1103999999999985,4.504400000000004 4.070500000000003,4.551299999999998 4.067900000000002,4.5623000000000005 4.062100000000001,4.575600000000001 4.073499999999996,4.5955999999999975 4.085499999999996,4.632100000000001 4.0908000000000015,4.634399999999999 4.097499999999997,4.634 4.116900000000001,4.625999999999998 4.138599999999997,4.6265 4.153500000000001,4.621000000000002 4.1815,4.614699999999999 4.205399999999997,4.606200000000001 4.2331999999999965,4.589100000000002 4.258899999999997,4.589700000000001 4.2757000000000005,4.5794 4.293399999999998,4.575099999999999 4.2989999999999995,4.581600000000002 4.3149000000000015,4.581400000000002 4.320500000000003,4.584099999999999 4.3211999999999975,4.591200000000001 4.309899999999999,4.602499999999999 4.285499999999999,4.616799999999998 4.260300000000001,4.638199999999998 4.2333,4.647500000000001 4.197600000000001,4.653399999999998 4.186099999999996,4.657499999999999 4.1676,4.667500000000004 4.1511,4.681200000000004 4.1396000000000015,4.701500000000003 4.128799999999998,4.711300000000001 4.116999999999997,4.717599999999997 4.0645000000000024,4.731000000000002 4.046900000000001,4.739200000000004 4.008400000000002,4.7745999999999995 4.0047,4.774000000000001 3.9975000000000023,4.779600000000002 3.9784000000000006,4.776299999999999 3.9512,4.796300000000002 3.947099999999999,4.809400000000004 3.9512,4.814799999999998 3.9632999999999967,4.822000000000003 4.0244,4.825299999999999 4.0319,4.832500000000003 4.027499999999996,4.845399999999998 4.016399999999997,4.857199999999999 4.0075,4.872799999999998 4.002699999999997,4.887999999999998 3.999299999999998,4.924700000000001 3.994500000000002,4.931100000000001 3.9814000000000007,4.940600000000003 3.9720999999999975,4.9510000000000005 3.9713999999999956,4.961800000000004 3.975200000000001,4.969500000000004 3.9986999999999995,4.978900000000003 4.007899999999999,4.9758 4.026299999999999,4.9742999999999995 4.036200000000001,4.975999999999999 4.045899999999996,4.983000000000004 4.0512000000000015,4.9893 4.051699999999997,4.999600000000001 4.047599999999996,5.009500000000003 4.040999999999997,5.018700000000003 4.030699999999996,5.027799999999999 4.009399999999999,5.037399999999998 3.9716000000000022,5.0412000000000035 3.958999999999996,5.045000000000002 3.9414000000000016,5.056400000000004 3.923499999999997,5.074400000000004 3.9087999999999994,5.096299999999999 3.8950999999999993,5.105400000000003 3.852499999999999,5.115600000000001 3.829900000000002,5.129100000000001 3.823299999999996,5.1203 3.813299999999998,5.097200000000001 3.805500000000002,5.0916 3.794800000000002,5.0914 3.7558000000000007,5.100200000000001 3.7409999999999997,5.105899999999998 3.7361000000000004,5.1068 3.731200000000001,5.105499999999999 3.7194999999999965,5.108800000000002 3.6769999999999996,5.1092999999999975 3.660899999999998,5.105400000000003 3.6430000000000007,5.103400000000001 3.6103999999999985,5.103400000000001 3.590600000000002,5.1015000000000015 3.583500000000001,5.1023 3.581400000000002,5.100900000000003 3.544399999999996,5.101800000000004 3.4990999999999985,5.099400000000003 3.467399999999998,5.100000000000001 3.444200000000002,5.098300000000002 3.4210999999999956,5.099400000000003 3.4088999999999956,5.106500000000004 3.401299999999999,5.119100000000003 3.393099999999997,5.128999999999998 3.3789000000000016,5.133900000000004 3.3599999999999994,5.1509 3.272500000000001,5.215699999999998 3.2715999999999994,5.2220999999999975 3.2817000000000007,5.241900000000001 3.281399999999998,5.254100000000001 3.279299999999999,5.261600000000001 3.258800000000001,5.282299999999999 3.2243999999999957,5.312899999999999 3.205599999999997,5.332900000000002 3.1955000000000027,5.340200000000003 3.1713999999999984,5.3508 3.162700000000001,5.351800000000004 3.1392000000000024,5.347000000000001 3.118400000000001,5.334699999999998 3.1060000000000016,5.3309 3.0497000000000014,5.333500000000001 3.0345999999999975,5.337000000000003 3.003399999999999,5.347999999999999 3.0002999999999957,5.3508 2.969999999999999,5.358400000000003 2.9510999999999967,5.361400000000003 2.9365999999999985,5.366399999999999 2.8992000000000004,5.390500000000003 2.808399999999999,5.463999999999999 2.7993999999999986,5.4731999999999985 2.792899999999996,5.4771 2.7043999999999997,5.549300000000002 2.6377999999999986,5.6114999999999995 2.6274999999999977,5.618400000000001 2.626899999999999,5.604799999999997 2.620199999999997,5.586100000000002 2.622399999999999,5.577400000000004 2.6417,5.563200000000002 2.6426000000000016,5.558599999999998 2.6388999999999996,5.550400000000003 2.6315000000000026,5.546900000000001 2.6225000000000023,5.547200000000004 2.6107000000000014,5.552199999999999 2.5970000000000013,5.552100000000003 2.5914,5.549199999999999 2.5859000000000023,5.542099999999998 2.5859000000000023,5.539300000000004 2.6007999999999996,5.530200000000001 2.6064000000000007,5.523600000000002 2.597299999999997,5.4887000000000015 2.5904999999999987,5.480899999999998 2.579900000000002,5.476100000000002 2.555099999999996,5.481999999999999 2.497799999999998,5.4741 2.4746000000000024,5.473100000000002 2.4605999999999995,5.4769000000000005 2.445999999999998,5.4833 2.4198999999999984,5.487099999999998 2.3941000000000017,5.496200000000002 2.3618000000000023,5.502700000000004 2.2990999999999957,5.5122 2.2794999999999987,5.511699999999998 2.248899999999999,5.502600000000001 2.226399999999998,5.493099999999998 2.1976999999999975,5.477200000000003 2.1758999999999986,5.462200000000003 2.1625000000000014,5.461199999999998 2.1535999999999973,5.455600000000004 2.1496999999999957,5.444600000000001 2.1567000000000007,5.432499999999997 2.183799999999998,5.419200000000004 2.1968999999999994,5.411000000000001 2.248199999999997,5.389800000000001 2.269599999999997,5.3836999999999975 2.2986999999999966,5.3797 2.308399999999999,5.371099999999998 2.326599999999999,5.342100000000002 2.3356999999999957,5.321300000000001 2.3485000000000014,5.303899999999999 2.366099999999996,5.271700000000003 2.394199999999998,5.238900000000001 2.4065999999999974,5.2280000000000015 2.4106999999999985,5.212899999999998 2.4099000000000004,5.193400000000004 2.4194999999999993,5.186999999999998 2.430900000000001,5.189100000000003 2.4842000000000013,5.162800000000004 2.4990000000000023,5.157299999999999 2.5197000000000003,5.144600000000004 2.522599999999997,5.133099999999999 2.515900000000002,5.1203 2.5116000000000014,5.116399999999999 2.5035999999999987,5.112200000000001 2.4943000000000026,5.112000000000002 2.4613000000000014,5.119199999999999 2.4487000000000023,5.120100000000001 2.408299999999997,5.114000000000004 2.404299999999999,5.124700000000004 2.406799999999997,5.157200000000003 2.4044999999999987,5.174199999999999 2.3988000000000014,5.193800000000003 2.386899999999997,5.220100000000002 2.379100000000001,5.2331 2.371600000000001,5.241599999999998 2.3522999999999996,5.2575 2.3252999999999986,5.2708999999999975 2.2455,5.287199999999999 2.220399999999998,5.291000000000004 2.203099999999999,5.290199999999999 2.155999999999999,5.272100000000002 2.1366000000000014,5.265300000000003 2.128,5.2639 2.1240000000000023,5.265500000000003 2.119799999999998,5.277100000000004 2.113900000000001,5.281399999999998 2.099899999999998,5.287500000000001 2.093600000000002,5.293399999999998 2.0878000000000014,5.312600000000003 2.0694000000000017,5.324600000000004 2.0486999999999966,5.327500000000001 2.017800000000001,5.322400000000002 1.996299999999998,5.311500000000002 1.9848999999999961,5.311700000000002 1.9791000000000025,5.307000000000002 1.9705000000000013,5.277700000000003 1.9641999999999982,5.2657000000000025 1.9573999999999998,5.267699999999998 1.9414000000000016,5.281599999999997 1.9318000000000026,5.283300000000004 1.9170000000000016,5.280000000000001 1.9121999999999986,5.273800000000001 1.9061000000000021,5.249000000000002 1.9133999999999958,5.2364999999999995 1.932699999999997,5.223399999999998 1.9421999999999997,5.211800000000004 1.9491999999999976,5.194400000000002 1.9487000000000023,5.185700000000004 1.9405999999999963,5.169000000000004 1.9412999999999982,5.146300000000004 1.936,5.128399999999999 1.9384999999999977,5.103500000000004 1.9343000000000004,5.077600000000004 1.9303999999999988,5.067900000000002 1.923099999999998,5.061700000000002 1.9129999999999967,5.059100000000001 1.8945000000000007,5.059600000000003 1.8585999999999956,5.070799999999998 1.8515000000000015,5.070700000000002 1.8491,5.069099999999999 1.8430999999999997,5.0608 1.8356999999999957,5.041499999999999 1.8507999999999996,5.022199999999998 1.8603000000000023,5.004400000000004 1.8560999999999979,4.997700000000002 1.8459999999999965,4.995600000000003 1.8374000000000024,4.995699999999999 1.771099999999997,5.004100000000001 1.7150999999999996,4.9898000000000025 1.677500000000002,4.974800000000002 1.6616,4.971899999999998 1.648699999999998,4.972200000000001 1.6135999999999981,4.9879999999999995 1.5732,4.994 1.5236000000000018,4.996900000000004 1.4701000000000022,4.996000000000002 1.4116999999999962,4.9923 1.3693000000000026,4.980499999999999 1.314700000000002,4.9605999999999995 1.284399999999998,4.944600000000001 1.2822999999999993,4.941600000000001 1.267400000000002,4.934800000000003 1.2402000000000015,4.917200000000001 1.216000000000001,4.891199999999998 1.2072000000000003,4.877099999999999 1.1925000000000026,4.8515000000000015 1.1888000000000005,4.840000000000003 1.1875999999999962,4.840000000000003 1.1818000000000026,4.827600000000004 1.1760999999999981,4.8104999999999976 1.169399999999996,4.797800000000002 1.1563000000000017,4.784100000000002 1.1319000000000017,4.766400000000004 1.1163999999999987,4.759500000000003 1.0867999999999967,4.7513000000000005 1.0401999999999987,4.7409000000000034 1.0244,4.733800000000002 1.0058000000000007,4.7211 0.9898999999999987,4.699300000000001 0.9859000000000009,4.690100000000001 0.9793000000000021,4.6571 0.9724000000000004,4.6407000000000025 0.9694999999999965,4.6274000000000015 0.9705000000000013,4.582799999999999 0.9733000000000018,4.571400000000004 0.9769999999999968,4.5394000000000005 0.9741,4.495200000000004 0.9782999999999973,4.4769000000000005 0.9861999999999966,4.456699999999998 0.9949999999999974,4.440600000000003 1.0030999999999963,4.432499999999997 1.002600000000001,4.428600000000003 1.0103000000000009,4.426000000000002 1.021799999999999,4.4091999999999985 1.0268999999999977,4.390500000000003 1.0287999999999968,4.377499999999998 1.0244999999999962,4.3577999999999975 1.0244,4.319800000000001 1.0334999999999965,4.268700000000003 1.0401000000000025,4.252499999999998 1.0482999999999976,4.2408 1.069899999999997,4.218899999999998 1.0835000000000008,4.200800000000001 1.0884,4.1976999999999975 1.1081999999999965,4.1972999999999985 1.1503999999999976,4.207100000000004 1.1597000000000008,4.200600000000001 1.1606000000000023,4.1922 1.1535999999999973,4.180599999999998 1.144999999999996,4.174100000000003 1.1336000000000013,4.168700000000001 1.0908000000000015,4.157499999999999 1.0726999999999975,4.144600000000004 1.0626999999999995,4.130200000000002 1.0619000000000014,4.105699999999999 1.0549999999999997,4.094900000000003 1.0442999999999998,4.0859999999999985 1.0322999999999993,4.081200000000003 1.0037999999999982,4.081200000000003 0.9647999999999968,4.0884 0.8791000000000011,4.094000000000001 0.7894000000000005,4.103500000000004 0.6432999999999964,4.1103999999999985 0.5615999999999985,4.111699999999999 0.43439999999999657,4.122700000000002 0.35900000000000176,4.1270000000000024 0.3183999999999969,4.1267 0.20640000000000214,4.134399999999999 0.0024999999999977263,4.140799999999999 0.0,7.822800000000001 0.03280000000000172,7.828699999999998 0.0636999999999972,7.8384 0.715600000000002,7.989400000000003 0.7160999999999973,7.991399999999999 0.7520999999999987,7.995800000000003 0.7593999999999994,8.001100000000001 0.7813000000000017,8.0064 1.0655000000000001,8.070599999999999 1.5915999999999997,8.186399999999999 2.0105999999999966,8.276600000000002 2.134599999999999,8.304299999999998 2.154600000000002,8.310299999999998 2.2025000000000006,8.317300000000003 2.5715999999999966,8.393900000000002 2.9690999999999974,8.1856 3.2047000000000025,8.065600000000003 3.3042000000000016,8.012300000000003 3.4103999999999957,7.958100000000002 3.411699999999996,7.960700000000003 3.4594999999999985,7.936399999999999 3.6417999999999964,7.834699999999998 3.7946000000000026,7.745800000000003 3.929699999999997,7.660200000000003 4.110199999999999,7.538699999999999 4.344299999999997,7.392699999999998 4.842599999999997,7.086199999999998 4.9221,7.032200000000003 5.037999999999997,6.9598999999999975 5.162700000000001,6.9498999999999995 5.246699999999997,6.957000000000001 5.264200000000002,6.942700000000002 5.2547,6.957599999999999 5.277299999999997,6.959600000000002 5.4155000000000015,6.8393000000000015 5.421700000000001,6.8293000000000035 5.435600000000001,6.82 5.475899999999996,6.785200000000003 5.480399999999996,6.779600000000002 5.490299999999998,6.7729 5.5901,6.682400000000001 5.613500000000002,6.6633 5.977499999999999,6.335100000000004 6.001399999999997,6.316800000000001 6.012700000000002,6.3104999999999976 6.0306,6.3093 6.940799999999996,6.4395000000000024 7.210000000000001,6.475300000000004 7.383299999999998,6.496200000000002 7.458500000000001,6.485599999999998 7.523800000000001,6.479900000000001 7.733599999999996,6.4634 7.861899999999999,6.457300000000004 7.913800000000002,6.450900000000004 8.2207,6.433700000000002 8.515700000000002,6.423099999999998 8.520099999999992,6.425400000000003 8.538400000000003,6.426099999999998 8.765899999999995,6.507300000000001 8.917499999999997,6.555300000000003 8.949000000000005,6.566499999999998 8.952099999999994,6.569000000000003 9.0122,6.589700000000001 9.0567,6.597799999999999 9.080000000000005,6.599499999999999 9.116300000000003,6.598399999999998 9.134099999999997,6.593299999999999 9.150600000000004,6.584299999999999 9.172099999999993,6.566299999999998 9.186500000000002,6.546300000000002 9.1907,6.5356999999999985 9.2014,6.517400000000002 9.252900000000004,6.4399000000000015 9.296,6.368099999999998 9.339800000000004,6.338000000000001 9.417499999999997,6.2791 9.448,6.261000000000003 9.652999999999999,6.1263000000000005 9.685399999999994,6.0304 9.765300000000003,5.8431 9.771099999999997,5.825499999999998 9.816300000000005,5.718400000000003 9.829100000000004,5.690899999999999 10.101099999999995,5.785000000000004 10.108600000000003,5.285600000000002 10.109199999999994,5.188600000000001 10.107599999999998,5.170099999999998 10.094900000000003,5.173000000000002 10.081399999999995,5.179200000000002 10.042499999999997,5.192799999999998 10.037200000000006,5.192700000000002 10.035000000000004,5.0867 10.015300000000003,5.069099999999999 10.012999999999998,4.915800000000004 10.010299999999994,4.8111999999999995 10.0088,4.801000000000002 10.010399999999997,4.766300000000001 10.532699999999998,4.719099999999997 10.559099999999994,4.508499999999998 10.595000000000006,4.177599999999998 10.601499999999994,4.132100000000001 10.6034,4.100999999999999 10.607999999999997,4.074199999999998 10.933299999999996,4.056899999999999 11.0019,4.050600000000003 11.153699999999994,4.043300000000002 11.254100000000001,4.034700000000001 11.313099999999999,4.0345999999999975 11.331399999999995,4.025500000000001 11.350199999999994,4.023400000000002 11.377299999999998,4.030099999999997 11.404699999999998,4.0334 11.738199999999999,4.025600000000004 11.7686,4.0047 11.787500000000001,4.000799999999998 11.831700000000005,3.9602000000000004 11.903500000000001,3.9095999999999975 11.935399999999994,3.9309999999999974 11.953700000000005,3.9115000000000038 12.0195,3.943800000000003 12.049500000000002,3.9228999999999985 12.062099999999994,3.927100000000003 12.079299999999996,3.919400000000003 12.073,3.9172999999999973 12.025799999999997,3.9106000000000023 11.995399999999997,3.886499999999998 12.025399999999998,3.829900000000002 11.993299999999998,3.805799999999998 11.994999999999997,3.7201999999999984 11.907000000000004,3.7177000000000007 11.891299999999994,3.6803000000000026 11.9223,3.647500000000001 11.975100000000005,3.6362999999999985 12.100100000000005,3.580300000000001 12.177600000000005,3.514099999999999 12.259700000000002,3.4919999999999973 12.348300000000002,3.4344000000000037 12.389100000000006,3.4427999999999983 12.430299999999995,3.416800000000002 12.418699999999994,3.3980000000000032 12.523999999999994,3.3744999999999976 12.541599999999995,3.3930000000000007 12.593499999999999,3.3900000000000006 12.686799999999998,3.4185000000000016 12.668600000000005,3.4528999999999996 12.616400000000006,3.4741 12.592000000000006,3.5283999999999978 12.520999999999994,3.6030000000000015 12.539799999999993,3.7253000000000043 12.518300000000004,3.7667 12.536799999999992,3.7817000000000007 12.517699999999998,3.804299999999998 12.439600000000006,3.8081999999999994 12.439199999999992,3.8293999999999997 12.545700000000004,3.824300000000001 12.552600000000005,3.8145000000000024 12.590799999999994,3.8339 12.603599999999993,3.8385999999999996 12.603299999999997,3.8348000000000013 12.609900000000003,3.8333000000000013 12.611600000000003,3.8186999999999998 12.614399999999996,3.813600000000001 12.628700000000002,3.8095 12.646099999999997,3.8155 12.666499999999992,3.812100000000001 12.674399999999999,3.805900000000001 12.671399999999998,3.8004999999999995 12.6402,3.791499999999999 12.636100000000006,3.785800000000002 12.6355,3.7764999999999986 12.647200000000005,3.7591000000000037 12.6783,3.7787000000000006 12.689799999999998,3.780999999999999 12.712200000000003,3.7897000000000034 12.717899999999993,3.790399999999998 12.746699999999997,3.810299999999998 12.750400000000006,3.8160000000000025 12.753599999999999,3.8406999999999982 12.769299999999994,3.868000000000002 12.800900000000006,3.8995999999999995 12.805199999999992,3.9022000000000006 12.821800000000003,3.9288000000000025 12.829699999999995,3.935200000000002 12.831399999999995,3.939 12.8645,3.9720999999999975 12.884099999999997,3.9879999999999995 12.895000000000003,3.994500000000002 12.898999999999994,4.0001999999999995 12.909100000000002,4.008600000000001 12.923799999999993,4.016100000000002 12.942199999999993,4.0137 12.946899999999992,4.015999999999998 12.949199999999998,4.019399999999997 12.950600000000001,4.0394000000000005 12.953300000000006,4.045500000000004 12.959799999999994,4.050899999999999 12.983299999999993,4.064599999999999 12.988199999999999,4.070599999999999 12.990100000000005,4.0760000000000005 12.989600000000003,4.099400000000003 12.992299999999993,4.114899999999999 13.002599999999994,4.124600000000001 13.005599999999994,4.1312 13.035099999999993,4.164999999999999 13.038599999999995,4.167000000000002 13.046100000000003,4.1676 13.052399999999999,4.165700000000001 13.065199999999997,4.156300000000002 13.076199999999993,4.155300000000004 13.090399999999995,4.162800000000004 13.090899999999998,4.166699999999999 13.1055,4.188600000000001 13.106699999999996,4.195300000000003 13.115100000000005,4.209099999999999 13.1509,4.222999999999999 13.163400000000003,4.229599999999998 13.172999999999995,4.237700000000004 13.177699999999994,4.2515 13.186699999999995,4.268700000000003 13.197399999999995,4.274799999999999 13.211599999999997,4.279899999999998 13.233399999999996,4.284500000000001 13.243999999999993,4.2851 13.251799999999996,4.283200000000001 13.275600000000004,4.285400000000003 13.287699999999994,4.2830999999999975 13.3093,4.273699999999998 13.319399999999995,4.273299999999999 13.324099999999994,4.275399999999998 13.343200000000003,4.2768000000000015 13.3478,4.2789 13.3658,4.279600000000002 13.377299999999998,4.283500000000004 13.425000000000004,4.277700000000003 13.433900000000001,4.281100000000002 13.4407,4.293399999999998 13.441200000000002,4.297600000000003 13.434099999999994,4.302199999999999 13.4159,4.310000000000002 13.408799999999992,4.318800000000003 13.407000000000004,4.324400000000004 13.408300000000004,4.327300000000001 13.422800000000002,4.345199999999998 13.4591,4.368400000000001 13.466199999999994,4.370400000000004 13.474499999999999,4.369399999999999 13.500899999999994,4.375100000000003 13.516799999999996,4.3812 13.521899999999995,4.385800000000003 13.532699999999998,4.411200000000001 13.541400000000003,4.419800000000002 13.560300000000005,4.433599999999998 13.569600000000001,4.442399999999999 13.590200000000003,4.454000000000001 13.596499999999999,4.462299999999999 13.622999999999998,4.480800000000002 13.6342,4.4846 13.661099999999998,4.488199999999999 13.693499999999993,4.495100000000001 13.708400000000005,4.500399999999999 13.7198,4.509 13.7241,4.516100000000002 13.730799999999995,4.519399999999997 13.749000000000002,4.5214 13.754399999999997,4.519399999999997 13.7986,4.524799999999999 13.816899999999997,4.5351 13.834700000000005,4.541899999999998 13.845400000000005,4.541899999999998 13.8615,4.536500000000004 13.871400000000001,4.531300000000002 13.883299999999998,4.520600000000002 13.887399999999992,4.519600000000004 13.892400000000002,4.5199 13.950700000000005,4.5390000000000015 13.954,4.5416000000000025 13.9865,4.6036 13.9921,4.608699999999999 14.006899999999995,4.611899999999999 14.015300000000003,4.610700000000001 14.023500000000006,4.599800000000002 14.022399999999998,4.5908000000000015 14.0259,4.586199999999998 14.033700000000003,4.584299999999999 14.040799999999997,4.586199999999998 14.047800000000002,4.591100000000004 14.055299999999995,4.611200000000004 14.063600000000001,4.625700000000002 14.0927,4.641300000000001 14.148900000000005,4.661000000000001 14.1616,4.667099999999998 14.174399999999999,4.683500000000002 14.183,4.698100000000004 14.190499999999993,4.716100000000004 14.199899999999992,4.728400000000001 14.208300000000001,4.734999999999999 14.223000000000006,4.742899999999999 14.242200000000004,4.764000000000003 14.267299999999999,4.7729 14.279000000000003,4.772500000000001 14.2896,4.781399999999998 14.310399999999994,4.7864 14.323799999999999,4.792299999999997 14.332799999999999,4.798400000000001 14.334600000000002,4.802799999999998 14.334499999999998,4.815899999999999 14.3324,4.827500000000001 14.327199999999998,4.838300000000004 14.326900000000002,4.849899999999998 14.324499999999993,4.857199999999999 14.331300000000006,4.8652000000000015 14.365400000000001,4.880699999999997 14.371900000000004,4.8918000000000035 14.383500000000005,4.901000000000003 14.392999999999994,4.905700000000003 14.397799999999997,4.9116 14.401500000000006,4.9384000000000015 14.404400000000003,4.945799999999998 14.412399999999998,4.953299999999999 14.419000000000004,4.955399999999997 14.427299999999995,4.955500000000001 14.435200000000002,4.9529 14.493500000000004,4.9148 14.511699999999998,4.906100000000002 14.521999999999998,4.9041 14.524399999999993,4.9007000000000005 14.548399999999994,4.892299999999999 14.555,4.886200000000002 14.560200000000002,4.877700000000004 14.557799999999993,4.851700000000001 14.558299999999996,4.845500000000001 14.561100000000003,4.8415000000000035 14.577300000000001,4.838100000000004 14.6038,4.819900000000004 14.6128,4.819499999999998 14.625300000000003,4.822000000000003 14.628899999999994,4.823599999999999 14.633699999999997,4.831400000000002 14.6325,4.834600000000002 14.656399999999998,4.882800000000003 14.676099999999998,4.911700000000003 14.675999999999995,4.9217999999999975 14.679200000000002,4.932000000000002 14.695500000000003,4.949600000000004 14.705899999999993,4.9544 14.716699999999996,4.962200000000003 14.728599999999993,4.976599999999998 14.746299999999998,4.987200000000001 14.764500000000005,5.009399999999999 14.779000000000003,5.0212 14.787100000000002,5.025199999999998 14.791599999999995,5.030200000000001 14.797599999999996,5.032699999999998 14.802900000000001,5.032699999999998 14.809900000000006,5.029499999999999 14.817199999999993,5.021500000000003 14.825899999999997,5.016400000000004 14.840899999999998,5.0167 14.866400000000006,5.030999999999999 14.877199999999995,5.036000000000001 14.8872,5.038000000000004 14.909200000000006,5.049100000000003 14.942100000000003,5.082000000000001 14.947499999999998,5.0852 14.956700000000005,5.085799999999999 14.9771,5.080300000000001 14.991800000000005,5.0809 15.018999999999998,5.099499999999999 15.0366,5.1038 15.043699999999994,5.107500000000002 15.0623,5.111000000000004 15.072200000000002,5.110599999999998 15.087799999999994,5.104300000000002 15.098400000000005,5.104300000000002 15.110700000000001,5.097500000000004 15.115999999999993,5.0966999999999985 15.131300000000003,5.101800000000004 15.139599999999994,5.0981999999999985 15.143800000000006,5.092800000000004 15.156699999999994,5.087400000000002 15.171600000000005,5.077400000000004 15.180100000000003,5.075400000000002 15.196099999999994,5.063600000000001 15.2027,5.061300000000003 15.206700000000005,5.063299999999998 15.210599999999992,5.062200000000004 15.213699999999996,5.049399999999999 15.221799999999995,5.043799999999997 15.230200000000004,5.046100000000003 15.241400000000006,5.0535 15.2442,5.053100000000001 15.246299999999998,5.050600000000003 15.2498,5.037800000000004 15.258999999999993,5.0319 15.268399999999993,5.022600000000004 15.273199999999996,5.0229 15.255999999999993,5.008099999999999 15.2545,5.003900000000002 15.256399999999992,4.994900000000001 15.255599999999994,4.984999999999999 15.248899999999999,4.9791000000000025 15.2284,4.968600000000002 15.215499999999999,4.957500000000003 15.188099999999999,4.962499999999999 15.173300000000005,4.962200000000003 15.162500000000001,4.956299999999999 15.1479,4.951500000000003 15.130000000000003,4.9373000000000005 15.117899999999999,4.934800000000003 15.101700000000001,4.923200000000001 15.099899999999998,4.918300000000002 15.093299999999992,4.914200000000001 15.063200000000002,4.902799999999999 15.0336,4.880200000000002 15.015399999999993,4.873400000000004 15.015999999999998,4.868200000000002 15.011900000000004,4.865000000000002 14.997899999999994,4.8566 14.988300000000002,4.853300000000004 14.976000000000006,4.852800000000002 14.9681,4.8491 14.951500000000003,4.849200000000003 14.9206,4.856700000000004 14.899899999999995,4.867600000000003 14.8936,4.869199999999999 14.876399999999997,4.869199999999999 14.863899999999994,4.864699999999999 14.862699999999997,4.856999999999999 14.857300000000002,4.848100000000002 14.845400000000005,4.833800000000004 14.842499999999994,4.826900000000002 14.842800000000004,4.822200000000002 14.854300000000002,4.809899999999999 14.855600000000003,4.797400000000003 14.852200000000003,4.768000000000001 14.8457,4.759700000000002 14.8264,4.745200000000004 14.817100000000003,4.742800000000003 14.798099999999998,4.743000000000002 14.775600000000004,4.7486999999999995 14.762499999999996,4.755400000000002 14.761000000000003,4.7387000000000015 14.752400000000002,4.735700000000001 14.740000000000002,4.7364999999999995 14.720899999999993,4.741700000000002 14.706799999999994,4.7409000000000034 14.681099999999994,4.731700000000004 14.667300000000004,4.721000000000004 14.642500000000005,4.689599999999999 14.634399999999992,4.6828 14.618699999999997,4.675800000000002 14.610199999999999,4.669899999999998 14.603100000000005,4.650399999999998 14.597500000000004,4.644199999999998 14.571499999999993,4.633800000000001 14.556199999999997,4.625799999999998 14.544999999999995,4.6229999999999976 14.528500000000001,4.616 14.5199,4.609900000000003 14.510799999999996,4.585900000000002 14.511299999999999,4.554700000000004 14.509599999999999,4.550000000000004 14.5062,4.547600000000003 14.496000000000002,4.5443 14.494300000000003,4.541699999999999 14.477700000000006,4.5319 14.458300000000001,4.523299999999999 14.446599999999997,4.520699999999998 14.397100000000002,4.499700000000004 14.3915,4.494100000000003 14.377199999999995,4.473599999999998 14.363199999999999,4.464700000000001 14.331700000000005,4.454000000000001 14.316499999999998,4.4543000000000035 14.3046,4.4510000000000005 14.293699999999994,4.446300000000001 14.267699999999998,4.4299000000000035 14.239899999999999,4.431800000000003 14.223199999999999,4.429299999999998 14.222000000000001,4.426299999999998 14.222699999999996,4.412399999999998 14.218399999999995,4.4044000000000025 14.209300000000006,4.394399999999997 14.188499999999998,4.384399999999999 14.187400000000004,4.380499999999998 14.1967,4.366399999999999 14.197399999999995,4.363100000000003 14.196599999999997,4.3577999999999975 14.185700000000004,4.345399999999998 14.188099999999999,4.341300000000004 14.201699999999995,4.335300000000004 14.228699999999996,4.336800000000004 14.249100000000006,4.332900000000002 14.2669,4.334600000000002 14.268899999999995,4.336500000000001 14.278200000000005,4.339199999999998 14.303099999999993,4.3408000000000015 14.322200000000002,4.337200000000003 14.350599999999993,4.3282000000000025 14.359199999999994,4.323700000000002 14.3662,4.313499999999998 14.372099999999996,4.309800000000003 14.380900000000004,4.293799999999997 14.383599999999994,4.2913 14.4103,4.291800000000002 14.432399999999994,4.2745999999999995 14.454699999999995,4.261099999999999 14.467599999999997,4.25 14.473199999999999,4.240500000000004 14.484100000000005,4.228300000000004 14.4938,4.222200000000001 14.530300000000004,4.222500000000004 14.549600000000005,4.232900000000001 14.566700000000004,4.245100000000001 14.575499999999998,4.257100000000001 14.585599999999992,4.265300000000003 14.596700000000006,4.270800000000001 14.629600000000003,4.278600000000004 14.638600000000004,4.277300000000004 14.640899999999995,4.278399999999998 14.6462,4.276699999999998 14.656200000000005,4.2776 14.680799999999998,4.291400000000003 14.687400000000004,4.291899999999998 14.7151,4.287500000000001 14.730299999999993,4.261200000000002 14.741700000000002,4.2475999999999985 14.770400000000002,4.220800000000004 14.782599999999995,4.205399999999997 14.7849,4.198700000000002 14.785099999999993,4.188299999999998 14.792499999999997,4.164700000000003 14.7866,4.1447 14.785699999999999,4.128599999999999 14.779199999999996,4.110900000000001 14.779599999999995,4.1015000000000015 14.785000000000004,4.0893000000000015 14.798499999999997,4.0745000000000005 14.800699999999999,4.068899999999999 14.7969,4.059100000000001 14.781500000000001,4.044200000000004 14.784699999999994,4.018999999999998 14.787399999999998,4.017000000000003 14.794199999999996,4.0223999999999975 14.797400000000003,4.028199999999998 14.798700000000004,4.035400000000003 14.805399999999999,4.050000000000004 14.8187,4.060900000000004 14.828899999999997,4.067 14.839099999999995,4.070599999999999 14.848300000000002,4.070999999999998 14.859699999999997,4.066699999999997 14.873299999999993,4.054700000000004 14.877299999999998,4.054200000000002 14.888600000000004,4.046100000000003 14.901599999999995,4.033999999999999 14.932499999999997,4.019199999999998 14.951699999999995,4.003799999999998 14.953499999999998,4.000599999999999 14.962300000000006,3.9943000000000026 14.9724,3.990400000000001 15.0212,4.015500000000003 15.033999999999999,4.015999999999998 15.048300000000005,4.007600000000004 15.0606,4.002900000000004 15.077899999999993,3.9998000000000005 15.0824,3.992899999999999 15.088100000000004,3.9930999999999983 15.1098,3.974400000000003 15.126200000000004,3.969999999999999 15.134899999999995,3.9705999999999975 15.140999999999998,3.973800000000004 15.146899999999995,3.9795000000000016 15.145699999999998,3.9913000000000025 15.148199999999996,3.9954000000000036 15.151999999999994,3.9975999999999985 15.166599999999995,3.997 15.178900000000006,4.012500000000003 15.195799999999998,4.016400000000004 15.2044,4.0157000000000025 15.225699999999996,4.003100000000003 15.228500000000004,4.0092 15.233700000000006,4.012100000000004 15.241800000000005,4.014000000000003 15.248200000000004,4.013300000000001 15.259399999999992,4.0092 15.268800000000006,4.003100000000003 15.274399999999993,3.9962000000000018 15.280099999999997,3.9727999999999994 15.278399999999998,3.9592000000000027 15.280399999999993,3.953800000000001 15.289499999999997,3.9468999999999994 15.3067,3.9513999999999996 15.314,3.958199999999998 15.319499999999998,3.966300000000004 15.322700000000005,3.975200000000001 15.331300000000006,3.986000000000004 15.344199999999994,3.990700000000004 15.3555,3.990000000000002 15.372800000000005,3.9846000000000004 15.383699999999997,3.9765999999999977 15.389299999999999,3.963799999999999 15.394399999999997,3.934899999999999 15.397699999999993,3.9301999999999992 15.403299999999994,3.9273999999999987 15.414799999999993,3.9280000000000044 15.429300000000005,3.938600000000001 15.437000000000005,3.946400000000004 15.437499999999993,3.9524000000000044 15.452899999999993,3.9787999999999997 15.459799999999994,4.0112999999999985 15.479099999999995,4.044000000000004 15.478199999999994,4.048500000000004 15.472599999999993,4.055599999999998 15.454100000000004,4.061700000000002 15.450099999999999,4.067700000000002 15.450200000000002,4.0764 15.4557,4.090299999999999 15.450399999999995,4.1030000000000015 15.451600000000006,4.1096 15.458899999999993,4.118099999999998 15.473800000000004,4.1282 15.482700000000001,4.137700000000002 15.489600000000003,4.138800000000003 15.507399999999997,4.130499999999998 15.521800000000006,4.132800000000003 15.530899999999995,4.138600000000004 15.537799999999997,4.139499999999998 15.550000000000004,4.138300000000001 15.558699999999995,4.134700000000002 15.571800000000003,4.1235 15.584700000000005,4.120899999999999 15.592899999999993,4.126200000000004 15.598400000000005,4.1417 15.601999999999997,4.142299999999999 15.6021,4.1464 15.605700000000006,4.1518000000000015 15.618599999999994,4.159800000000004 15.625599999999999,4.171399999999998 15.631099999999996,4.1754999999999995 15.6389,4.171399999999998 15.643800000000006,4.171500000000002 15.6496,4.1875 15.657400000000003,4.198999999999998 15.671699999999994,4.210700000000003 15.678099999999993,4.221400000000003 15.660800000000002,4.241399999999999 15.661700000000003,4.248100000000001 15.671299999999995,4.261200000000002 15.6787,4.281100000000002 15.675900000000006,4.292299999999997 15.6719,4.299199999999999 15.665200000000006,4.305 15.652799999999992,4.308700000000002 15.628099999999996,4.310400000000001 15.621100000000006,4.314300000000003 15.6201,4.3211999999999975 15.625300000000003,4.326799999999999 15.6526,4.3339 15.662200000000006,4.341999999999999 15.678599999999996,4.364000000000004 15.695299999999996,4.375700000000002 15.703200000000002,4.3774000000000015 15.727899999999998,4.3765 15.732700000000001,4.3729999999999976 15.735499999999995,4.366700000000002 15.726199999999999,4.352000000000004 15.7275,4.3399 15.724700000000006,4.335000000000001 15.726400000000005,4.3202 15.732099999999996,4.302500000000002 15.727700000000006,4.291899999999998 15.71,4.276299999999999 15.705300000000001,4.270600000000002 15.700099999999999,4.2601999999999975 15.709499999999998,4.246900000000004 15.718499999999999,4.242600000000003 15.724399999999996,4.245899999999999 15.725699999999996,4.255099999999999 15.716900000000003,4.265900000000002 15.719599999999993,4.272300000000001 15.725199999999994,4.276600000000002 15.733200000000004,4.279600000000002 15.741499999999995,4.279200000000003 15.7481,4.274799999999999 15.7502,4.2637 15.754799999999996,4.256999999999998 15.761500000000005,4.258099999999999 15.7652,4.262300000000003 15.767599999999995,4.289900000000003 15.770599999999995,4.291800000000002 15.778600000000004,4.290199999999999 15.801200000000001,4.254300000000001 15.818499999999993,4.243600000000001 15.831600000000002,4.232300000000002 15.844900000000003,4.2151 15.839400000000005,4.193800000000003 15.840799999999994,4.1907 15.8461,4.187899999999999 15.863499999999995,4.1907 15.870899999999999,4.199800000000003 15.8799,4.203800000000001 15.887999999999998,4.199199999999998 15.890999999999998,4.193100000000001 15.887499999999996,4.179200000000002 15.889900000000004,4.175699999999999 15.890999999999998,4.167000000000002 15.894200000000005,4.1614 15.912699999999994,4.144500000000001 15.928900000000006,4.1370000000000005 15.934599999999996,4.136900000000004 15.935899999999997,4.1351999999999975 15.937099999999994,4.1311000000000035 15.924900000000001,4.109000000000002 15.9146,4.0955999999999975 15.897699999999993,4.082500000000003 15.889900000000004,4.069499999999998 15.877900000000004,4.0563 15.870899999999999,4.043500000000002 15.863899999999994,4.023600000000002 15.865500000000004,4.020299999999999 15.8735,4.017099999999999 15.885699999999993,4.016100000000002 15.887099999999997,4.013400000000004 15.885299999999994,4.001600000000003 15.892299999999999,3.9949999999999974 15.927299999999995,3.9842999999999975 15.939500000000002,3.9834999999999994 15.949300000000001,3.9799000000000007 15.955000000000005,3.981500000000004 15.974399999999996,3.9928000000000026 16.000899999999994,3.9906000000000006 16.025600000000004,3.985599999999998 16.063200000000002,3.9671999999999983 16.077899999999993,3.962299999999999 16.0854,3.963700000000003 16.104800000000004,3.975900000000003 16.1261,3.985900000000001 16.1462,3.984500000000004 16.160999999999994,3.987400000000001 16.167499999999997,3.9804999999999993 16.175000000000004,3.9834999999999994 16.1847,3.9823999999999984 16.1946,3.9776999999999987 16.201,3.9716999999999985 16.205599999999997,3.9639999999999986 16.208800000000004,3.939799999999998 16.213599999999992,3.927599999999998 16.2143,3.9121000000000024 16.220599999999997,3.8887 16.230299999999993,3.8751999999999995 16.227600000000002,3.867600000000003 16.2202,3.8584999999999994 16.214000000000006,3.853999999999999 16.1946,3.8492999999999995 16.183500000000002,3.8353000000000037 16.187900000000006,3.8320000000000007 16.202199999999998,3.825400000000002 16.216699999999996,3.825499999999998 16.225,3.8278999999999996 16.234599999999993,3.8329999999999984 16.278399999999998,3.8477000000000032 16.294800000000002,3.8506 16.321000000000005,3.865700000000004 16.336999999999996,3.8802999999999983 16.345499999999994,3.886000000000003 16.360599999999998,3.8871000000000038 16.3637,3.8842 16.368500000000004,3.884300000000003 16.392400000000002,3.8785000000000025 16.408799999999992,3.8686000000000007 16.413400000000003,3.8673 16.432499999999997,3.8663999999999987 16.435200000000002,3.8641000000000005 16.4497,3.8599999999999994 16.468299999999992,3.8614000000000033 16.485099999999996,3.8586000000000027 16.499500000000005,3.8534000000000006 16.502699999999997,3.848300000000002 16.505100000000006,3.8340999999999994 16.5028,3.823599999999999 16.495200000000004,3.8130000000000024 16.495399999999997,3.801000000000002 16.4929,3.799100000000003 16.492299999999993,3.7916999999999987 16.502500000000005,3.8034999999999997 16.507399999999997,3.804400000000001 16.512700000000002,3.8048 16.522799999999997,3.8008999999999986 16.531799999999997,3.7944999999999993 16.540200000000006,3.7821 16.552299999999995,3.7749000000000024 16.57,3.7569000000000017 16.586199999999998,3.7353000000000023 16.588500000000003,3.725900000000003 16.577400000000004,3.7132000000000005 16.583599999999997,3.708600000000004 16.594,3.7043000000000035 16.619899999999994,3.698500000000003 16.623600000000003,3.695999999999998 16.648599999999995,3.687899999999999 16.682700000000004,3.6784000000000034 16.6946,3.6816999999999993 16.709399999999995,3.6811000000000007 16.734,3.6768 16.754200000000004,3.683399999999999 16.774300000000004,3.6865999999999985 16.788800000000002,3.683 16.8367,3.692300000000003 16.852399999999996,3.691900000000004 16.8701,3.6845 16.884099999999997,3.6711000000000027 16.903,3.6571 16.911099999999998,3.6399000000000044 16.914799999999993,3.6373999999999995 16.9291,3.6347000000000023 16.940199999999997,3.635400000000004 16.9407,3.6370000000000005 16.954199999999993,3.6396000000000015 16.958199999999998,3.6445000000000007 16.972100000000005,3.6499999999999986 16.980799999999995,3.657899999999998 16.993199999999995,3.658200000000001 17.000899999999994,3.6616 16.999900000000004,3.668199999999999 16.997700000000002,3.6704000000000008 16.985099999999996,3.6769999999999996 16.977600000000002,3.6850999999999985 16.986700000000006,3.7083999999999975 16.9917,3.7120999999999995 17.0011,3.7120999999999995 17.003300000000003,3.7079999999999984 17.023000000000003,3.6880000000000024 17.029999999999994,3.685700000000004 17.042399999999994,3.6848000000000027 17.060799999999993,3.6739000000000033 17.066899999999997,3.6722000000000037 17.071599999999997,3.673400000000001 17.087399999999995,3.680799999999998 17.111399999999996,3.6813000000000002 17.119899999999994,3.6796000000000006 17.129200000000004,3.673400000000001 17.133000000000003,3.6662999999999997 17.1338,3.655700000000003 17.136500000000005,3.6456000000000017 17.134800000000006,3.635300000000001 17.124999999999993,3.6203000000000003 17.106,3.6079000000000008 17.085299999999997,3.598700000000001 17.0734,3.5959000000000003 17.0593,3.5900000000000034 17.045499999999997,3.5870999999999995 17.0178,3.586199999999998 17.005699999999997,3.5878999999999976 16.993999999999993,3.5756999999999977 16.968899999999998,3.562400000000004 16.938700000000004,3.549599999999998 16.921,3.5467999999999975 16.919999999999995,3.5431000000000026 16.901199999999996,3.5397000000000034 16.8902,3.533999999999999 16.872099999999996,3.5275000000000034 16.8675,3.5228000000000037 16.850500000000004,3.5116999999999976 16.8324,3.5061000000000035 16.817199999999993,3.5035000000000025 16.797499999999992,3.5046999999999997 16.784299999999995,3.502299999999998 16.774700000000003,3.497 16.7686,3.4962000000000018 16.767999999999994,3.493000000000002 16.770999999999994,3.4857999999999976 16.779099999999993,3.478200000000001 16.779900000000005,3.4725000000000037 16.767599999999995,3.4649 16.7618,3.453400000000002 16.765399999999993,3.4104000000000028 16.764000000000003,3.392800000000001 16.758999999999993,3.3902 16.749999999999993,3.3892999999999986 16.7387,3.394300000000001 16.727200000000003,3.405000000000001 16.717999999999996,3.4102999999999994 16.685399999999994,3.416000000000004 16.678499999999993,3.4099000000000004 16.677500000000002,3.3973000000000013 16.661499999999997,3.3885000000000005 16.666599999999995,3.3674000000000035 16.666499999999992,3.3543999999999983 16.6637,3.347999999999999 16.655899999999995,3.3423000000000016 16.648199999999996,3.3297999999999988 16.630699999999997,3.3263999999999996 16.616499999999995,3.330300000000001 16.6059,3.3369 16.598999999999997,3.3446 16.581399999999995,3.357599999999998 16.572499999999998,3.360500000000002 16.553099999999993,3.359900000000003 16.538099999999993,3.366100000000003 16.518399999999993,3.380499999999998 16.507399999999997,3.383499999999998 16.492600000000003,3.3787999999999982 16.488099999999996,3.3793000000000006 16.479599999999998,3.3858000000000033 16.468899999999998,3.3759999999999977 16.4583,3.3735 16.4531,3.3770999999999987 16.443499999999993,3.389499999999998 16.414899999999996,3.4350000000000023 16.403699999999994,3.442700000000002 16.398400000000002,3.443400000000004 16.386599999999994,3.4388000000000005 16.3735,3.437899999999999 16.368699999999997,3.4250000000000043 16.362000000000002,3.4238 16.381800000000005,3.4187999999999974 16.388600000000004,3.4136999999999986 16.395199999999996,3.3999000000000024 16.398599999999995,3.396799999999999 16.4214,3.3914000000000044 16.425999999999995,3.3881000000000014 16.430199999999992,3.3821999999999974 16.431000000000004,3.3770000000000024 16.429300000000005,3.373100000000001 16.421799999999998,3.366500000000002 16.4159,3.364699999999999 16.404199999999996,3.3648000000000025 16.391699999999993,3.357300000000002 16.389999999999993,3.3533000000000044 16.393099999999997,3.3459000000000003 16.416400000000003,3.3476 16.422000000000004,3.3415999999999997 16.423899999999996,3.3256000000000014 16.426899999999996,3.3171999999999997 16.430100000000003,3.3130000000000024 16.437499999999993,3.3085999999999984 16.4428,3.2961000000000027 16.428099999999993,3.2732000000000028 16.418100000000003,3.2520999999999987 16.424100000000003,3.2383000000000024 16.4227,3.2276999999999987 16.4189,3.2250999999999976 16.412399999999998,3.2240000000000038 16.3958,3.2272999999999996 16.3872,3.2246000000000024 16.377199999999995,3.2242999999999995 16.355399999999996,3.232199999999999 16.346200000000003,3.2413999999999987 16.315099999999994,3.2593999999999994 16.288800000000002,3.2638000000000034 16.264999999999993,3.260300000000001 16.259300000000003,3.2646000000000015 16.2498,3.2775999999999996 16.242799999999995,3.280000000000001 16.2297,3.288499999999999 16.2365,3.2989999999999995 16.237699999999997,3.306899999999999 16.232899999999994,3.310700000000004 16.2027,3.313200000000002 16.183299999999996,3.3166999999999973 16.174600000000005,3.2982000000000014 16.168,3.2901000000000025 16.154400000000003,3.2800999999999974 16.144399999999997,3.276200000000003 16.136400000000002,3.2749999999999986 16.128800000000005,3.277000000000001 16.116400000000006,3.272199999999998 16.102600000000002,3.271500000000003 16.096299999999992,3.2743000000000038 16.0944,3.2708999999999975 16.1004,3.2582999999999984 16.104099999999995,3.242600000000003 16.101099999999995,3.237000000000002 16.087300000000006,3.225200000000001 16.085699999999996,3.2158000000000015 16.0794,3.2092000000000027 16.072700000000005,3.206299999999999 16.049799999999998,3.2024000000000044 16.045799999999993,3.1998000000000033 16.039899999999996,3.191200000000002 16.027300000000004,3.1803000000000026 16.016299999999994,3.1739999999999995 15.999000000000002,3.1552000000000007 15.973300000000002,3.1467000000000027 15.965499999999999,3.1422000000000025 15.982199999999999,3.1396999999999977 15.996599999999994,3.1274999999999977 16.011999999999993,3.119799999999998 16.035400000000003,3.1118999999999986 16.035500000000006,3.1058999999999983 16.031299999999995,3.096899999999998 16.026900000000005,3.0945000000000036 16.015800000000006,3.0938000000000017 15.996599999999994,3.0964000000000027 15.996100000000006,3.093200000000003 15.971899999999998,3.0760000000000005 15.961999999999996,3.058100000000003 15.9557,3.052900000000001 15.941399999999994,3.047400000000003 15.927900000000001,3.047699999999999 15.920300000000005,3.0504999999999995 15.900600000000004,3.062899999999999 15.874500000000005,3.066900000000004 15.864399999999996,3.0705000000000027 15.856999999999992,3.070700000000002 15.846600000000002,3.064300000000003 15.845000000000006,3.059899999999999 15.857700000000001,3.050699999999999 15.858600000000003,3.0456000000000003 15.853500000000004,3.0416000000000025 15.860700000000001,3.0330999999999975 15.862400000000001,3.0286000000000044 15.861200000000004,3.0242000000000004 15.853699999999996,3.0189999999999984 15.844900000000003,3.0159999999999982 15.833199999999998,3.0165000000000006 15.820199999999993,3.0086000000000013 15.779500000000006,2.9902000000000015 15.750999999999998,2.9831000000000003 15.731000000000002,2.972200000000001 15.723300000000002,2.9712999999999994 15.7181,2.9735999999999976 15.708099999999995,2.987700000000004 15.698699999999995,2.9960999999999984 15.693599999999996,2.9973000000000027 15.685799999999993,3.0039000000000016 15.682399999999994,3.009999999999998 15.686100000000003,3.041400000000003 15.682099999999998,3.0548 15.667200000000001,3.0698000000000008 15.656200000000005,3.0759000000000043 15.639400000000002,3.0771999999999977 15.612900000000003,3.0752000000000024 15.615000000000002,3.0574000000000012 15.618599999999994,3.0512000000000015 15.618000000000002,3.0459999999999994 15.6145,3.0426 15.615599999999993,3.0375000000000014 15.6111,3.021799999999999 15.6128,3.012500000000003 15.610300000000002,3.0092 15.604099999999995,3.0097000000000023 15.586499999999994,3.0256000000000043 15.564699999999995,3.0256000000000043 15.553000000000004,3.0223999999999975 15.5469,3.0238000000000014 15.532999999999994,3.0321 15.494700000000002,3.0452000000000012 15.490000000000002,3.0542000000000016 15.494099999999996,3.076500000000003 15.492600000000003,3.0812000000000026 15.488800000000005,3.0852000000000004 15.460699999999996,3.0855999999999995 15.440599999999996,3.0884 15.427500000000002,3.0923000000000016 15.413900000000005,3.100500000000004 15.390300000000003,3.121000000000002 15.381300000000003,3.1255000000000024 15.370799999999996,3.1278000000000006 15.359900000000003,3.124200000000002 15.346499999999999,3.1233000000000004 15.342899999999993,3.1285000000000025 15.344900000000003,3.134900000000002 15.338100000000004,3.139000000000003 15.330400000000004,3.1377999999999986 15.305,3.1285000000000025 15.288699999999999,3.126800000000003 15.282900000000005,3.128399999999999 15.279599999999995,3.132800000000003 15.279199999999996,3.1495000000000033 15.273199999999996,3.150500000000001 15.256300000000003,3.147600000000004 15.245899999999999,3.147600000000004 15.223999999999997,3.1533000000000015 15.202400000000004,3.1548000000000016 15.184599999999996,3.1529999999999987 15.154599999999995,3.1452000000000027 15.133299999999998,3.1456000000000017 15.1201,3.1420999999999992 15.0824,3.120600000000003 15.064900000000002,3.1126000000000005 15.034100000000002,3.1096000000000004 15.022600000000004,3.106900000000003 14.977899999999998,3.0919000000000025 14.967999999999996,3.087200000000003 14.965299999999992,3.0831000000000017 14.970300000000002,3.0744000000000042 14.973800000000004,3.062899999999999 14.973999999999997,3.0578000000000003 14.970400000000005,3.0508000000000024 14.918,3.050200000000004 14.8996,3.0488 14.875700000000002,3.044400000000003 14.869899999999994,3.0458 14.833099999999995,3.0249000000000024 14.779800000000002,3.006700000000002 14.772299999999994,3.006700000000002 14.745600000000003,3.0012000000000043 14.715299999999992,2.999299999999998 14.711599999999997,2.9973000000000027 14.679899999999996,2.993700000000004 14.6475,2.9878 14.6385,2.9893 14.6295,2.9934999999999974 14.619999999999997,3.0056999999999974 14.611399999999996,3.021500000000003 14.603999999999992,3.0290000000000035 14.597000000000001,3.043599999999998 14.581600000000002,3.0500000000000043 14.570100000000004,3.0656000000000034 14.572899999999997,3.0675000000000026 14.574400000000004,3.0885999999999996 14.5824,3.105000000000004 14.578499999999998,3.1188000000000002 14.570500000000003,3.1340000000000003 14.573600000000006,3.1484999999999985 14.568499999999993,3.1576999999999984 14.552399999999999,3.168700000000001 14.4895,3.1903000000000006 14.454199999999993,3.195700000000002 14.448199999999993,3.1987999999999985 14.432700000000004,3.2024000000000044 14.425800000000002,3.2024000000000044 14.406299999999995,3.195300000000003 14.396999999999998,3.1959000000000017 14.387099999999997,3.199300000000001 14.379799999999996,3.2053999999999974 14.369999999999997,3.223700000000001 14.363599999999998,3.228900000000003 14.357499999999995,3.2304999999999993 14.354400000000005,3.2428000000000026 14.346700000000006,3.252299999999998 14.334600000000002,3.2719999999999985 14.333400000000005,3.2821 14.336099999999995,3.2854000000000028 14.353699999999996,3.2890000000000015 14.3752,3.3023000000000025 14.401199999999996,3.3059999999999974 14.424900000000001,3.3155 14.469199999999994,3.3274000000000044 14.4865,3.327300000000001 14.496699999999997,3.3342000000000027 14.499199999999995,3.3475000000000037 14.5088,3.3547999999999973 14.511699999999998,3.369500000000002 14.515999999999998,3.376100000000001 14.524700000000003,3.3796999999999997 14.537399999999998,3.3810000000000002 14.554099999999998,3.3798999999999992 14.5644,3.3858000000000033 14.579900000000002,3.386099999999999 14.589300000000001,3.3888000000000034 14.6081,3.4070000000000036 14.632200000000005,3.4436999999999998 14.639900000000004,3.4498999999999995 14.654099999999993,3.4528999999999996 14.668600000000005,3.4649 14.679799999999993,3.4677000000000007 14.683,3.4724000000000004 14.691899999999997,3.473700000000001 14.700799999999994,3.481900000000003 14.721700000000006,3.485500000000002 14.730399999999996,3.4808999999999983 14.737400000000001,3.480400000000003 14.738300000000002,3.4913999999999987 14.7344,3.5076000000000036 14.741099999999996,3.511400000000002 14.747300000000003,3.5071999999999974 14.761599999999994,3.5078999999999994 14.770999999999994,3.517400000000002 14.777499999999996,3.533999999999999 14.790100000000002,3.5426 14.791599999999995,3.5478999999999985 14.7866,3.555100000000003 14.780799999999992,3.559600000000003 14.764800000000001,3.569099999999999 14.755500000000005,3.572800000000001 14.7361,3.573500000000003 14.7421,3.5763999999999996 14.723599999999998,3.5838000000000036 14.696999999999996,3.5854 14.679200000000002,3.5814999999999984 14.6723,3.592100000000002 14.671500000000002,3.6037999999999997 14.679499999999997,3.624200000000002 14.689799999999998,3.6041999999999987 14.702099999999994,3.600200000000001 14.710199999999993,3.6019000000000005 14.714300000000001,3.6066000000000003 14.712700000000005,3.6118999999999986 14.719000000000001,3.6148999999999987 14.722699999999996,3.6133999999999986 14.7331,3.6195999999999984 14.723899999999993,3.6270999999999987 14.717300000000002,3.6358000000000033 14.705899999999993,3.6435999999999993 14.687900000000006,3.648699999999998 14.675699999999999,3.671199999999999 14.667399999999994,3.678200000000004 14.654800000000002,3.684899999999999 14.6522,3.690899999999999 14.646300000000004,3.6910000000000025 14.6432,3.6970000000000027 14.643499999999996,3.6996000000000038 14.641299999999994,3.7006999999999977 14.636400000000002,3.7103000000000037 14.612500000000004,3.7372999999999976 14.603999999999992,3.751899999999999 14.582199999999993,3.772500000000001 14.570199999999993,3.7950000000000017 14.555500000000002,3.7952999999999975 14.536499999999997,3.8149000000000015 14.529500000000006,3.818800000000003 14.527999999999999,3.8289000000000044 14.517999999999994,3.8338000000000036 14.504200000000004,3.843499999999999 14.500300000000003,3.848300000000002 14.498399999999997,3.854700000000001 14.482599999999998,3.8613 14.4758,3.8601000000000028 14.450499999999998,3.865000000000002 14.4424,3.8640000000000043 14.422400000000003,3.856500000000004 14.4146,3.8515999999999977 14.410500000000006,3.8466000000000022 14.406600000000005,3.8363000000000014 14.391600000000004,3.8237000000000023 14.391399999999997,3.819099999999999 14.397399999999998,3.798099999999998 14.390899999999995,3.7894000000000005 14.390399999999993,3.777000000000001 14.381499999999996,3.7668000000000035 14.375700000000002,3.763600000000004 14.372400000000006,3.7516999999999996 14.378700000000002,3.7364000000000033 14.378499999999995,3.7304999999999993 14.367399999999996,3.7139999999999986 14.3594,3.7081000000000017 14.344599999999993,3.7043000000000035 14.333099999999995,3.7051000000000016 14.3187,3.703800000000001 14.304200000000002,3.696300000000001 14.2986,3.6951000000000036 14.289399999999993,3.6891999999999996 14.2832,3.6876000000000033 14.273000000000003,3.6747999999999976 14.267599999999995,3.670900000000003 14.2485,3.664500000000004 14.2168,3.6491000000000042 14.192199999999993,3.6521000000000043 14.177500000000002,3.657899999999998 14.169900000000005,3.6589000000000027 14.157099999999993,3.6571 14.150500000000001,3.652700000000003 14.146399999999993,3.647500000000001 14.140300000000003,3.633200000000002 14.133599999999994,3.626100000000001 14.082199999999993,3.588000000000001 14.051300000000005,3.5786999999999978 14.028399999999998,3.563900000000004 14.016600000000004,3.561300000000003 14.0105,3.558 13.966699999999996,3.553200000000004 13.950200000000002,3.545099999999998 13.924600000000005,3.526699999999998 13.920099999999998,3.5268999999999977 13.885699999999993,3.5431000000000026 13.876299999999993,3.542900000000003 13.866599999999998,3.5401999999999987 13.852299999999993,3.5321 13.832,3.515599999999999 13.825399999999995,3.5150000000000006 13.794499999999992,3.5217000000000027 13.786099999999998,3.5208999999999975 13.779099999999993,3.5182 13.7695,3.5116000000000014 13.750700000000002,3.4776999999999987 13.7391,3.4617000000000004 13.718899999999998,3.451999999999998 13.683900000000001,3.4502999999999986 13.669599999999996,3.4527 13.663000000000004,3.4594999999999985 13.661200000000001,3.4658000000000015 13.652099999999997,3.4810000000000016 13.643399999999993,3.484400000000001 13.628499999999995,3.4862000000000037 13.620799999999996,3.4913000000000025 13.6128,3.500700000000002 13.585599999999992,3.515599999999999 13.573600000000006,3.528500000000001 13.568199999999997,3.548099999999998 13.549799999999998,3.5763000000000034 13.545399999999994,3.5808999999999997 13.5336,3.5885000000000034 13.5075,3.5911000000000044 13.452800000000003,3.6026000000000025 13.438399999999994,3.6081000000000003 13.4099,3.6068 13.402899999999995,3.6047999999999973 13.388799999999996,3.587600000000002 13.363099999999996,3.5622000000000043 13.358600000000003,3.5518 13.358799999999995,3.546599999999998 13.351599999999998,3.5401999999999987 13.350299999999997,3.5349000000000004 13.345599999999997,3.4771 13.353100000000005,3.458500000000001 13.365299999999998,3.438299999999998 13.359699999999997,3.4174000000000007 13.349299999999992,3.4136000000000024 13.340600000000002,3.401299999999999 13.341199999999994,3.398299999999999 13.335599999999992,3.393900000000002 13.329100000000004,3.3926000000000016 13.310200000000002,3.3954999999999984 13.270900000000005,3.391600000000004 13.2545,3.3842 13.237100000000005,3.3740999999999985 13.233299999999993,3.3703000000000003 13.231199999999994,3.363500000000002 13.232599999999998,3.3581000000000003 13.261599999999994,3.327600000000004 13.275799999999997,3.3181999999999974 13.274999999999999,3.305500000000002 13.267500000000005,3.2988 13.267199999999995,3.2851 13.276299999999999,3.2768999999999977 13.282500000000006,3.2635000000000005 13.285699999999999,3.2486999999999995 13.289499999999997,3.242600000000003 13.299699999999994,3.2394999999999996 13.294499999999992,3.2254000000000005 13.3033,3.219700000000003 13.309499999999993,3.206299999999999 13.3093,3.1925999999999988 13.3183,3.1844000000000037 13.340899999999998,3.1707000000000036 13.341299999999997,3.1507000000000005 13.333999999999996,3.1415000000000006 13.333899999999993,3.1265 13.309599999999996,3.1088999999999984 13.291699999999999,3.1077999999999975 13.271999999999998,3.109099999999998 13.261900000000004,3.1122999999999976 13.253800000000005,3.1118000000000023 13.249900000000004,3.1015999999999977 13.257399999999997,3.0919999999999987 13.252299999999998,3.078000000000003 13.261199999999995,3.070999999999998 13.291000000000004,3.066499999999998 13.299799999999998,3.059600000000003 13.310300000000005,3.0364000000000004 13.318000000000005,3.0244 13.3076,3.017699999999998 13.283399999999993,3.0279999999999987 13.240999999999993,3.0286000000000044 13.212700000000005,3.033700000000003 13.196000000000005,3.029600000000002 13.172499999999992,3.0281999999999982 13.149899999999995,3.0343000000000018 13.136100000000006,3.0335000000000036 13.110599999999998,3.0356999999999985 13.087799999999994,3.035499999999999 13.056900000000006,3.0429999999999993 13.001399999999997,3.043300000000002 12.928599999999996,3.0375000000000014 12.886199999999995,3.029899999999998 12.877900000000004,3.023699999999998 12.8568,3.0149000000000044 12.828899999999997,3.0093999999999994 12.813099999999999,3.011499999999998 12.7772,3.0204999999999984 12.756099999999996,3.0131000000000014 12.662200000000006,2.9898999999999987 12.623600000000003,2.9810000000000016 12.604700000000001,2.9797999999999973 12.602899999999998,2.977400000000003 12.540200000000006,2.9634 12.535099999999993,2.953400000000002 12.5537,2.9402000000000044 12.610300000000002,2.9146 12.637099999999997,2.9151000000000025 12.683500000000002,2.9224999999999994 12.711800000000004,2.9318000000000026 12.773900000000005,2.9452 12.800599999999996,2.9543999999999997 12.8748,2.9692000000000007 12.910999999999994,2.9727000000000032 12.979300000000002,2.974499999999999 12.997499999999995,2.963700000000003 13.006300000000003,2.9423999999999992 13.014999999999993,2.9136000000000024 13.016100000000002,2.9029999999999987 13.009099999999997,2.892000000000003 12.993000000000002,2.8909999999999982 12.959799999999994,2.8969999999999985 12.9403,2.8969999999999985 12.924,2.8965999999999994 12.891299999999994,2.8907999999999987 12.876600000000003,2.8836000000000013 12.865999999999993,2.876100000000001 12.865199999999994,2.8684999999999974 12.861299999999993,2.8588999999999984 12.8581,2.856900000000003 12.848099999999995,2.8612000000000037 12.841699999999996,2.8827 12.825799999999994,2.9010000000000034 12.811900000000001,2.9025999999999996 12.799200000000006,2.8993000000000038 12.794000000000004,2.894600000000004 12.793399999999998,2.8858000000000033 12.800900000000006,2.8763000000000005 12.814,2.8678000000000026 12.8213,2.8607999999999976 12.822399999999995,2.850200000000001 12.813499999999998,2.8278000000000034 12.814299999999996,2.822800000000001 12.846600000000002,2.799599999999998 12.903100000000002,2.745600000000003 12.914799999999993,2.7271 12.915600000000005,2.7147000000000006 12.911399999999993,2.7032999999999987 12.895999999999994,2.6910999999999987 12.878599999999999,2.6895999999999987 12.865100000000005,2.6946999999999974 12.851999999999997,2.7103000000000037 12.850599999999993,2.740099999999998 12.840200000000003,2.7623000000000033 12.821400000000004,2.7933999999999983 12.805799999999998,2.808100000000003 12.797099999999993,2.8093000000000004 12.786999999999999,2.8057000000000016 12.784200000000006,2.7989999999999995 12.786099999999998,2.7807999999999993 12.808500000000002,2.747700000000002 12.826,2.7156999999999982 12.826799999999999,2.7042 12.818899999999992,2.690899999999999 12.811199999999992,2.686300000000003 12.791199999999996,2.6829000000000036 12.784799999999997,2.6762999999999977 12.781600000000005,2.6591999999999985 12.7789,2.6525000000000034 12.773800000000001,2.6488000000000014 12.763799999999996,2.647100000000002 12.751600000000003,2.6540000000000035 12.744899999999994,2.6753 12.728000000000002,2.6899999999999977 12.7181,2.6921000000000035 12.701600000000006,2.6829000000000036 12.686299999999996,2.6717000000000013 12.6753,2.676700000000004 12.6629,2.6788999999999987 12.649300000000004,2.6792000000000016 12.647299999999994,2.6601 12.650500000000001,2.6418000000000035 12.653799999999997,2.632100000000001 12.646899999999995,2.610199999999999 12.636400000000002,2.5961 12.630999999999993,2.5808000000000035 12.624400000000001,2.571400000000004 12.610599999999998,2.566900000000004 12.596899999999998,2.566200000000002 12.587899999999998,2.5578000000000003 12.593799999999995,2.5471000000000004 12.634499999999996,2.502200000000002 12.628499999999995,2.4735000000000014 12.577400000000004,2.428600000000003 12.5597,2.4174000000000007 12.545799999999993,2.411900000000003 12.5413,2.386099999999999 12.534500000000001,2.3689999999999998 12.516799999999996,2.356900000000003 12.493400000000001,2.363100000000003 12.468499999999999,2.3588000000000022 12.404400000000003,2.3667000000000016 12.364299999999993,2.3530999999999977 12.355700000000006,2.3551 12.338699999999996,2.367899999999999 12.3277,2.3719000000000037 12.2969,2.377299999999998 12.258599999999994,2.3808000000000007 12.231299999999997,2.378399999999999 12.211300000000001,2.3740000000000023 12.195299999999996,2.3762000000000043 12.185499999999998,2.382100000000001 12.173200000000001,2.386099999999999 12.157099999999993,2.3845000000000027 12.108799999999995,2.3872 12.088000000000001,2.3952000000000027 12.071999999999996,2.398299999999999 12.048300000000005,2.3969000000000023 12.0353,2.3994 12.011599999999994,2.4136999999999986 11.991999999999997,2.419699999999999 11.962200000000003,2.4211000000000027 11.9424,2.4194999999999993 11.901800000000001,2.433500000000002 11.881099999999996,2.4482 11.851400000000005,2.4496000000000038 11.808500000000002,2.4731999999999985 11.798700000000004,2.4772000000000034 11.7836,2.470700000000001 11.762399999999992,2.465200000000003 11.7575,2.465299999999999 11.715600000000002,2.4791999999999987 11.706899999999997,2.4793999999999983 11.699400000000004,2.4746999999999986 11.687900000000006,2.4624000000000024 11.664200000000001,2.4558999999999997 11.650399999999998,2.448500000000003 11.630100000000006,2.4228000000000023 11.617600000000003,2.420099999999998 11.586599999999997,2.4194999999999993 11.500599999999999,2.3947000000000003 11.497899999999994,2.383200000000002 11.502400000000002,2.3562999999999974 11.493500000000004,2.3477999999999994 11.487299999999998,2.3479000000000028 11.4454,2.356900000000003 11.435499999999998,2.3551 11.427799999999998,2.341799999999999 11.427399999999999,2.3198000000000008 11.439500000000002,2.3053000000000026 11.482700000000001,2.2329000000000008 11.500499999999995,2.1942999999999984 11.520900000000005,2.1615000000000038 11.525600000000004,2.1480000000000032 11.521700000000003,2.1403999999999996 11.487199999999994,2.1456000000000017 11.466199999999994,2.142000000000003 11.394200000000005,2.1225999999999985 11.389199999999995,2.117899999999999 11.389000000000003,2.110199999999999 11.397299999999994,2.0881000000000043 11.427399999999999,2.0474999999999994 11.443199999999997,2.0349000000000004 11.464000000000006,2.0260000000000034 11.502100000000006,2.0198000000000036 11.515499999999996,2.012900000000002 11.533899999999996,2.0078999999999994 11.551200000000001,2.0077 11.5734,2.0112999999999985 11.596799999999995,2.008099999999999 11.6188,2.0001999999999995 11.633000000000003,1.9722000000000008 11.645299999999999,1.968200000000003 11.679799999999993,1.9667999999999992 11.685799999999993,1.9619 11.6856,1.952300000000001 11.678000000000004,1.943800000000003 11.673399999999994,1.9016999999999982 11.682799999999993,1.8804999999999978 11.685799999999993,1.8459000000000003 11.702599999999997,1.8274000000000044 11.717300000000002,1.822499999999998 11.737100000000005,1.8278999999999996 11.750499999999995,1.8239000000000019 11.7729,1.8361000000000018 11.817299999999996,1.8393000000000015 11.846499999999999,1.8254999999999981 11.878399999999992,1.8231000000000037 11.901099999999992,1.845800000000004 11.930600000000005,1.8453000000000017 11.9454,1.8470000000000013 11.967800000000004,1.8562999999999974 11.977600000000002,1.8560999999999979 11.989600000000003,1.8444000000000003 12.001699999999992,1.8366000000000042 12.023800000000001,1.8323999999999998 12.038699999999999,1.8398000000000039 12.063600000000001,1.8490000000000038 12.090600000000002,1.8466999999999985 12.117200000000004,1.8327999999999989 12.136100000000006,1.8018 12.142999999999994,1.784399999999998 12.201,1.748899999999999 12.2031,1.7353999999999985 12.199999999999996,1.7143999999999977 12.192500000000003,1.7107000000000028 12.198900000000002,1.6741000000000028 12.186500000000002,1.670500000000004 12.171600000000005,1.6631 12.158899999999996,1.6479 12.136599999999994,1.6426000000000016 12.082500000000003,1.6357 12.074899999999992,1.6263000000000005 12.082,1.6165999999999983 12.129600000000003,1.564 12.121900000000004,1.5525999999999982 12.087499999999999,1.5493000000000023 12.070100000000004,1.5381 12.059999999999995,1.5287000000000006 12.069200000000002,1.5035999999999987 12.087899999999998,1.4705999999999975 12.087700000000005,1.463000000000001 12.077599999999997,1.4534999999999982 12.077400000000004,1.4438999999999993 12.074599999999997,1.4324999999999974 12.0704,1.363500000000002 12.122700000000002,1.308799999999998 12.144299999999994,1.295099999999998 12.136500000000005,1.2760000000000034 12.128800000000005,1.2646000000000015 12.116300000000003,1.2514000000000038 12.110899999999994,1.2342000000000013 12.120699999999992,1.2340000000000018 12.152700000000003,1.2449999999999974 12.162500000000001,1.244799999999998 12.198600000000006,1.228900000000003 12.229199999999999,1.1880000000000024 12.233700000000006,1.1745000000000019 12.233299999999993,1.1610999999999976 12.235499999999995,1.1514000000000024 12.240299999999998,1.1475000000000009 12.269299999999994,1.1392999999999986 12.300599999999996,1.127200000000002 12.322200000000002,1.1152999999999977 12.364799999999995,1.0722999999999985 12.365199999999994,1.065800000000003 12.380999999999993,1.0431999999999988 12.404500000000006,1.0178000000000011 12.404099999999993,1.004400000000004 12.374900000000004,0.9222999999999999 12.3718,0.9012999999999991 12.364299999999993,0.8937000000000026 12.347000000000001,0.8825000000000003 12.321999999999996,0.8599999999999994 12.286499999999997,0.8068000000000026 12.288099999999993,0.7798999999999978 12.277799999999992,0.7608999999999995 12.279900000000005,0.747399999999999 12.272200000000005,0.7321999999999989 12.218299999999992,0.7120000000000033 12.130699999999997,0.7000999999999991 12.112999999999992,0.6754000000000033 12.044599999999996,0.5594000000000037 12.019699999999993,0.5309999999999988 11.990199999999994,0.5142000000000024 11.9407,0.4631000000000043 11.917899999999996,0.4211999999999989 11.890300000000003,0.37930000000000064 11.880500000000005,0.36990000000000123 11.855899999999998,0.3528999999999982 11.830300000000001,0.2860999999999976 11.829299999999996,0.24190000000000111 11.834899999999998,0.17269999999999897 11.828300000000006,0.0940000000000012 11.822700000000005,0.05760000000000076 11.807300000000005,0.01559999999999917 11.7926,0.008000000000002672 11.779900000000005,0.027100000000004343 11.7558,0.043900000000000716 "></polygon><polygon points="14.580499999999994,3.8359999999999985 14.581700000000005,3.837200000000003 14.565899999999992,3.828099999999999 14.559999999999995,3.8203999999999994 14.564199999999992,3.8093000000000004 14.586199999999998,3.808799999999998 14.612500000000004,3.7941000000000003 14.6813,3.723399999999998 14.685700000000004,3.7291000000000025 14.671799999999998,3.7550000000000026 14.634399999999992,3.793599999999998 14.601800000000004,3.8226000000000013 14.575799999999994,3.831000000000003 14.580499999999994,3.8359999999999985 "></polygon><polygon points="15.218899999999998,2.748100000000001 15.220999999999997,2.747100000000003 15.218399999999995,2.7391000000000005 15.201799999999999,2.7331000000000003 15.195199999999993,2.7242999999999995 15.159799999999997,2.7083000000000013 15.133199999999995,2.708500000000001 15.130199999999995,2.7276999999999987 15.119599999999998,2.738100000000003 15.106000000000002,2.7269000000000005 15.100599999999993,2.704100000000004 15.094199999999994,2.7179 15.077199999999998,2.720700000000001 15.054799999999993,2.720100000000002 15.099600000000002,2.767699999999998 15.124000000000002,2.7856999999999985 15.1068,2.790700000000001 15.091599999999993,2.810700000000004 15.102799999999995,2.812100000000001 15.118000000000002,2.819099999999999 15.114200000000004,2.839500000000001 15.103999999999992,2.8423000000000016 15.053800000000003,2.843899999999998 15.012399999999992,2.868299999999998 15.011800000000001,2.9560999999999993 15.005999999999993,3.003700000000002 15.021800000000006,2.999900000000004 15.041999999999994,3.0073000000000008 15.046699999999994,3.0009000000000015 15.055699999999995,3.000399999999999 15.072300000000006,2.982199999999999 15.0867,2.9628999999999976 15.085599999999992,2.9384999999999977 15.095499999999994,2.921900000000001 15.095199999999998,2.9194999999999993 15.098999999999997,2.916499999999999 15.099899999999998,2.909800000000004 15.105799999999995,2.9065999999999974 15.105799999999995,2.877900000000004 15.115400000000001,2.8598 15.120600000000003,2.8447999999999993 15.1252,2.844999999999999 15.128099999999996,2.8353000000000037 15.141299999999994,2.833500000000001 15.144100000000002,2.8449000000000026 15.217400000000005,2.8554999999999993 15.2057,2.842800000000004 15.199000000000005,2.8327000000000027 15.196000000000005,2.833199999999998 15.179200000000002,2.8194000000000017 15.150100000000002,2.8194000000000017 15.152799999999992,2.8166999999999973 15.153100000000002,2.8141000000000034 15.171699999999994,2.806600000000003 15.171699999999994,2.7971000000000004 15.155499999999996,2.784700000000001 15.157199999999996,2.784700000000001 15.144100000000002,2.7768999999999977 15.148299999999999,2.773699999999998 15.207,2.7727000000000004 15.210599999999992,2.7661000000000016 15.205999999999996,2.7591000000000037 15.213199999999993,2.7550999999999988 15.2121,2.7509000000000015 15.218899999999998,2.748100000000001 "></polygon><polygon points="15.040200000000006,3.0777 15.051200000000001,3.075499999999998 15.047000000000004,3.0497000000000014 15.036200000000001,3.0570999999999984 15.040200000000006,3.0777 "></polygon><polygon points="15.788999999999994,2.785499999999999 15.760399999999997,2.7638999999999996 15.746599999999994,2.759300000000003 15.747999999999998,2.771100000000004 15.735199999999999,2.7783000000000015 15.721200000000003,2.783300000000004 15.7802,2.8063000000000002 15.790399999999998,2.8183000000000007 15.791199999999996,2.828099999999999 15.779500000000006,2.841700000000003 15.787799999999997,2.8399 15.804399999999994,2.8284999999999982 15.821000000000005,2.825499999999998 15.836999999999996,2.8033 15.8662,2.8083000000000027 15.841000000000001,2.7745000000000033 15.788999999999994,2.785499999999999 "></polygon>
    </svg>
    