
    <svg width="0.5216000000000065" height="0.7428000000000026" xmlns="http://www.w3.org/2000/svg" xmlns:xlink="http://www.w3.org/1999/xlink" style="transform: scale(1, -1)">
        <polygon points="0.4222000000000037,0.04200000000000159 0.4200000000000017,0.039699999999999847 0.41549999999999443,0.0409000000000006 0.406099999999995,0.03720000000000212 0.40330000000000155,0.038400000000002876 0.4013999999999953,0.037000000000002586 0.4008000000000038,0.033900000000002706 0.39520000000000266,0.03330000000000055 0.3944000000000045,0.03200000000000003 0.3889000000000067,0.03330000000000055 0.38299999999999557,0.030000000000001137 0.3813999999999993,0.03280000000000172 0.3778000000000077,0.032200000000003115 0.3703000000000003,0.02780000000000271 0.36939999999999884,0.02500000000000213 0.3585999999999956,0.030900000000002592 0.34910000000000707,0.03059999999999974 0.34659999999999513,0.028100000000002012 0.34610000000000696,0.023100000000003007 0.3440999999999974,0.021700000000002717 0.3464000000000027,0.014200000000002433 0.3427000000000078,0.020600000000001728 0.3415999999999997,0.02640000000000242 0.3388999999999953,0.027000000000001023 0.3422000000000054,0.020300000000002427 0.3400000000000034,0.017800000000001148 0.3352000000000004,0.026700000000001722 0.332499999999996,0.025900000000000034 0.33549999999999613,0.021700000000002717 0.334699999999998,0.019200000000001438 0.33140000000000214,0.021399999999999864 0.3299999999999983,0.025600000000000733 0.32550000000000523,0.023900000000001143 0.32550000000000523,0.020000000000003126 0.3241000000000014,0.019200000000001438 0.3161000000000058,0.032500000000002416 0.31409999999999627,0.029700000000001836 0.3201999999999998,0.02470000000000283 0.32219999999999516,0.019700000000000273 0.321399999999997,0.015600000000002723 0.31220000000000425,0.021100000000000563 0.3071999999999946,0.022200000000001552 0.30530000000000257,0.020600000000001728 0.30219999999999914,0.023400000000002308 0.2960999999999956,0.022500000000000853 0.292500000000004,0.019700000000000273 0.2839000000000027,0.021100000000000563 0.2733000000000061,0.015600000000002723 0.26030000000000086,0.013400000000000745 0.24800000000000466,0.006099999999999994 0.24500000000000455,0.013600000000000279 0.23529999999999518,0.014200000000002433 0.22639999999999816,0.012000000000000455 0.21750000000000114,0.013400000000000745 0.21580000000000155,0.011700000000001154 0.21299999999999386,0.012500000000002842 0.20829999999999416,0.010600000000000165 0.2027000000000072,0.012800000000002143 0.18829999999999814,0.003600000000002268 0.18659999999999854,0.0 0.18300000000000693,0.00560000000000116 0.18330000000000268,0.008300000000001972 0.1933000000000078,0.01810000000000045 0.20250000000000057,0.03200000000000003 0.2027000000000072,0.0406000000000013 0.20019999999999527,0.04140000000000299 0.2027000000000072,0.043900000000000716 0.19639999999999702,0.06280000000000285 0.1927000000000021,0.06890000000000285 0.19190000000000396,0.07450000000000045 0.19469999999999743,0.07700000000000173 0.19719999999999516,0.08780000000000143 0.20189999999999486,0.09140000000000015 0.2044000000000068,0.09140000000000015 0.20470000000000255,0.09470000000000312 0.2079999999999984,0.09700000000000131 0.21280000000000143,0.0981000000000023 0.2190999999999974,0.09720000000000084 0.2224999999999966,0.09420000000000073 0.22520000000000095,0.09450000000000003 0.23050000000000637,0.091700000000003 0.2394000000000034,0.0920000000000023 0.24909999999999854,0.08890000000000242 0.26439999999999486,0.09360000000000213 0.27530000000000143,0.09950000000000259 0.27830000000000155,0.10560000000000258 0.2815999999999974,0.10670000000000002 0.2896999999999963,0.10580000000000211 0.29470000000000596,0.1072000000000024 0.2955000000000041,0.1092000000000013 0.3061000000000007,0.11170000000000258 0.31690000000000396,0.1075000000000017 0.32519999999999527,0.10810000000000031 0.32859999999999445,0.10670000000000002 0.32689999999999486,0.10000000000000142 0.32750000000000057,0.097800000000003 0.32970000000000255,0.10200000000000031 0.3341000000000065,0.10060000000000002 0.3341000000000065,0.10700000000000287 0.332499999999996,0.107800000000001 0.3388999999999953,0.11090000000000089 0.34440000000000737,0.10200000000000031 0.3482999999999947,0.10170000000000101 0.35020000000000095,0.09450000000000003 0.35360000000000014,0.09220000000000184 0.3541000000000025,0.08970000000000056 0.3628000000000071,0.08640000000000114 0.36299999999999955,0.08389999999999986 0.366100000000003,0.08280000000000243 0.36830000000000496,0.07970000000000255 0.37300000000000466,0.07950000000000301 0.3733000000000004,0.07670000000000243 0.37690000000000623,0.07420000000000115 0.3819000000000017,0.07530000000000214 0.38769999999999527,0.07280000000000086 0.388300000000001,0.07590000000000074 0.39279999999999404,0.07970000000000255 0.3924999999999983,0.08220000000000027 0.4013999999999953,0.08140000000000214 0.4052000000000078,0.08670000000000044 0.40749999999999886,0.08780000000000143 0.41270000000000095,0.08560000000000301 0.4141000000000048,0.08890000000000242 0.42719999999999914,0.08610000000000184 0.4288999999999987,0.08750000000000213 0.42799999999999727,0.08950000000000102 0.43030000000000257,0.09060000000000201 0.4475000000000051,0.08590000000000231 0.44939999999999714,0.08699999999999974 0.4544000000000068,0.08590000000000231 0.4561000000000064,0.08780000000000143 0.45940000000000225,0.08610000000000184 0.4660999999999973,0.08590000000000231 0.46940000000000737,0.08810000000000073 0.472999999999999,0.08720000000000283 0.47469999999999857,0.08840000000000003 0.47690000000000055,0.08310000000000173 0.4814000000000078,0.08140000000000214 0.4864000000000033,0.08170000000000144 0.4872000000000014,0.08389999999999986 0.4936000000000007,0.08310000000000173 0.49550000000000693,0.08500000000000085 0.5007999999999981,0.08530000000000015 0.5032999999999959,0.08860000000000312 0.5063999999999993,0.08610000000000184 0.5126999999999953,0.08720000000000283 0.5150000000000006,0.08470000000000155 0.5202000000000027,0.08450000000000202 0.5216000000000065,0.08280000000000243 0.5190999999999946,0.07860000000000156 0.5150000000000006,0.07810000000000272 0.5093999999999994,0.07200000000000273 0.5076999999999998,0.07450000000000045 0.5014000000000038,0.07140000000000057 0.49800000000000466,0.07390000000000185 0.4913999999999987,0.07390000000000185 0.48799999999999955,0.07169999999999987 0.48390000000000555,0.07220000000000226 0.47799999999999443,0.06450000000000244 0.47690000000000055,0.059200000000000585 0.47390000000000043,0.061700000000001864 0.4697000000000031,0.061700000000001864 0.4660999999999973,0.05810000000000315 0.46280000000000143,0.057200000000001694 0.4608000000000061,0.05840000000000245 0.4591000000000065,0.055800000000001404 0.457499999999996,0.056400000000000006 0.45250000000000057,0.05360000000000298 0.4514000000000067,0.050600000000002865 0.44780000000000086,0.04840000000000089 0.4350000000000023,0.05030000000000001 0.4253000000000071,0.0470000000000006 0.4222000000000037,0.04200000000000159 "></polygon><polygon points="0.32439999999999714,0.012500000000002842 0.3264000000000067,0.012000000000000455 0.32750000000000057,0.009700000000002262 0.32500000000000284,0.009199999999999875 0.32219999999999516,0.011700000000001154 0.3225000000000051,0.013400000000000745 0.32439999999999714,0.012500000000002842 "></polygon><polygon points="0.2727000000000004,0.6231000000000009 0.2738999999999976,0.6217000000000006 0.27079999999999416,0.6219999999999999 0.27079999999999416,0.6206000000000031 0.2686000000000064,0.6217000000000006 0.2686000000000064,0.6242000000000019 0.2727000000000004,0.6231000000000009 "></polygon><polygon points="0.4189000000000078,0.09220000000000184 0.42079999999999984,0.09530000000000172 0.42190000000000794,0.09560000000000102 0.42019999999999413,0.091700000000003 0.4189000000000078,0.09220000000000184 "></polygon><polygon points="0.46640000000000725,0.11670000000000158 0.4732999999999947,0.11560000000000059 0.4749999999999943,0.113900000000001 0.4655000000000058,0.11060000000000159 0.45889999999999986,0.1136000000000017 0.46110000000000184,0.11750000000000327 0.46640000000000725,0.11670000000000158 "></polygon><polygon points="0.3988999999999976,0.6439000000000021 0.40049999999999386,0.6428000000000011 0.3994,0.6414000000000009 0.3954999999999984,0.6431000000000004 0.397199999999998,0.6447000000000003 0.3988999999999976,0.6439000000000021 "></polygon><polygon points="0.43720000000000425,0.653100000000002 0.4351999999999947,0.6511000000000031 0.43439999999999657,0.6534000000000013 0.43659999999999854,0.6559000000000026 0.43720000000000425,0.653100000000002 "></polygon><polygon points="0.26300000000000523,0.6280999999999999 0.2664000000000044,0.625 0.26609999999999445,0.6236000000000033 0.2635999999999967,0.6233000000000004 0.26139999999999475,0.6256000000000022 0.2593999999999994,0.6239000000000026 0.2569000000000017,0.6245000000000012 0.2575000000000074,0.6286000000000023 0.26080000000000325,0.6284000000000027 0.26269999999999527,0.6306000000000012 0.26300000000000523,0.6280999999999999 "></polygon><polygon points="0.25910000000000366,0.6411000000000016 0.258899999999997,0.6397000000000013 0.2640999999999991,0.6402999999999999 0.2635999999999967,0.6375000000000028 0.2616000000000014,0.6381000000000014 0.2583000000000055,0.6350000000000016 0.25969999999999516,0.6325000000000003 0.2510999999999939,0.6311 0.2510999999999939,0.6328000000000031 0.2530000000000001,0.6328000000000031 0.2558000000000078,0.6370000000000005 0.2536000000000058,0.6417000000000002 0.261099999999999,0.6439000000000021 0.25910000000000366,0.6411000000000016 "></polygon><polygon points="0.323599999999999,0.6486000000000018 0.3208000000000055,0.6497000000000028 0.3201999999999998,0.6456000000000017 0.3218999999999994,0.6428000000000011 0.3208000000000055,0.6375000000000028 0.31860000000000355,0.6389000000000031 0.3200000000000074,0.6439000000000021 0.3177000000000021,0.647000000000002 0.3161000000000058,0.645900000000001 0.314700000000002,0.6475000000000009 0.31220000000000425,0.6472000000000016 0.31159999999999854,0.6436000000000028 0.30639999999999645,0.6431000000000004 0.305499999999995,0.6411000000000016 0.3071999999999946,0.6392000000000024 0.3061000000000007,0.6375000000000028 0.30160000000000764,0.6408000000000023 0.3027000000000015,0.6445000000000007 0.29940000000000566,0.6414000000000009 0.2955000000000041,0.6406000000000027 0.294399999999996,0.6442000000000014 0.2990999999999957,0.6472000000000016 0.29940000000000566,0.6494999999999997 0.2977999999999952,0.6503000000000014 0.2933000000000021,0.6463999999999999 0.2916000000000025,0.6467000000000027 0.29000000000000625,0.6534000000000013 0.28640000000000043,0.6536000000000008 0.28830000000000666,0.6550000000000011 0.2874999999999943,0.6578000000000017 0.2916000000000025,0.6600000000000001 0.2913999999999959,0.6614000000000004 0.2886000000000024,0.6606000000000023 0.2874999999999943,0.6636000000000024 0.2990999999999957,0.6689000000000007 0.2990999999999957,0.6711000000000027 0.2972000000000037,0.6717000000000013 0.2997000000000014,0.6753 0.2977999999999952,0.6772000000000027 0.2986000000000075,0.6800000000000033 0.3024999999999949,0.6809000000000012 0.3024999999999949,0.6747000000000014 0.3071999999999946,0.6734000000000009 0.30939999999999657,0.6747000000000014 0.30750000000000455,0.678600000000003 0.30939999999999657,0.6817000000000029 0.3108000000000004,0.6797000000000004 0.3130000000000024,0.6809000000000012 0.31329999999999814,0.6789000000000023 0.3161000000000058,0.6789000000000023 0.3177000000000021,0.6795000000000009 0.31749999999999545,0.6828000000000003 0.31910000000000593,0.6820000000000022 0.3201999999999998,0.6834000000000024 0.3265999999999991,0.6795000000000009 0.32970000000000255,0.6800000000000033 0.33610000000000184,0.6853000000000016 0.34029999999999916,0.6828000000000003 0.34250000000000114,0.6858000000000004 0.3405000000000058,0.6875 0.34250000000000114,0.6931000000000012 0.33970000000000766,0.694700000000001 0.33500000000000796,0.6945000000000014 0.3341000000000065,0.6989000000000019 0.3358000000000061,0.7000000000000028 0.3422000000000054,0.7003000000000021 0.35250000000000625,0.6978000000000009 0.3538999999999959,0.6945000000000014 0.3521999999999963,0.6931000000000012 0.347999999999999,0.6933000000000007 0.347999999999999,0.6920000000000002 0.3541000000000025,0.6900000000000013 0.36079999999999757,0.6917000000000009 0.363900000000001,0.689700000000002 0.366100000000003,0.6950000000000003 0.36889999999999645,0.6931000000000012 0.37529999999999575,0.6942000000000021 0.379099999999994,0.6920000000000002 0.3813999999999993,0.6884000000000015 0.3936000000000064,0.6892000000000031 0.3994,0.6861000000000033 0.40279999999999916,0.6803000000000026 0.406400000000005,0.6795000000000009 0.4077999999999946,0.6756000000000029 0.4111000000000047,0.6747000000000014 0.4129999999999967,0.6778000000000013 0.41549999999999443,0.6756000000000029 0.4177999999999997,0.6758000000000024 0.417199999999994,0.6717000000000013 0.42190000000000794,0.6711000000000027 0.42140000000000555,0.672500000000003 0.42190000000000794,0.6728000000000023 0.42610000000000525,0.6709000000000032 0.42660000000000764,0.6661000000000001 0.42329999999999757,0.666400000000003 0.4247000000000014,0.660300000000003 0.4200000000000017,0.664200000000001 0.41859999999999786,0.6575000000000024 0.41330000000000666,0.6564000000000014 0.4111000000000047,0.659200000000002 0.40800000000000125,0.658100000000001 0.41160000000000707,0.6639000000000017 0.4124999999999943,0.6695000000000029 0.4077999999999946,0.6700000000000017 0.4057999999999993,0.671400000000002 0.406400000000005,0.6731000000000016 0.4035999999999973,0.6717000000000013 0.4030000000000058,0.6739000000000033 0.40030000000000143,0.6739000000000033 0.3961000000000041,0.6667000000000023 0.39390000000000214,0.666400000000003 0.394999999999996,0.6697000000000024 0.3924999999999983,0.671400000000002 0.3954999999999984,0.6750000000000007 0.3930000000000007,0.6745000000000019 0.39279999999999404,0.6758000000000024 0.39579999999999416,0.6781000000000006 0.39279999999999404,0.6797000000000004 0.3947000000000003,0.6831000000000031 0.3885999999999967,0.6806000000000019 0.38769999999999527,0.6778000000000013 0.386099999999999,0.6820000000000022 0.3833000000000055,0.6811000000000007 0.38219999999999743,0.6739000000000033 0.38469999999999516,0.671400000000002 0.3825000000000074,0.6675000000000004 0.37829999999999586,0.6672000000000011 0.37690000000000623,0.6720000000000006 0.37470000000000425,0.6736000000000004 0.3713999999999942,0.6722000000000001 0.3755000000000024,0.6620000000000026 0.37890000000000157,0.6620000000000026 0.38219999999999743,0.657 0.38689999999999714,0.6578000000000017 0.38639999999999475,0.6509 0.38939999999999486,0.6492000000000004 0.38939999999999486,0.6475000000000009 0.38410000000000366,0.6447000000000003 0.3872000000000071,0.6402999999999999 0.3843999999999994,0.6386000000000003 0.38689999999999714,0.6297000000000033 0.38410000000000366,0.625 0.38299999999999557,0.6256000000000022 0.3833000000000055,0.6306000000000012 0.37940000000000396,0.632200000000001 0.3808000000000078,0.6358000000000033 0.3743999999999943,0.6328000000000031 0.37409999999999854,0.6361000000000026 0.37109999999999843,0.6347000000000023 0.36889999999999645,0.6386000000000003 0.36719999999999686,0.6350000000000016 0.3644000000000034,0.6350000000000016 0.3652000000000015,0.6372 0.363900000000001,0.6392000000000024 0.366100000000003,0.6411000000000016 0.3649999999999949,0.6433999999999997 0.3663999999999987,0.6445000000000007 0.3644000000000034,0.6463999999999999 0.3622000000000014,0.645900000000001 0.36249999999999716,0.6428000000000011 0.36079999999999757,0.6422000000000025 0.36079999999999757,0.6472000000000016 0.35829999999999984,0.6467000000000027 0.35890000000000555,0.6439000000000021 0.3552999999999997,0.6450000000000031 0.3541000000000025,0.6408000000000023 0.34610000000000696,0.6447000000000003 0.3393999999999977,0.6514000000000024 0.33780000000000143,0.6514000000000024 0.32970000000000255,0.6425000000000018 0.32389999999999475,0.6439000000000021 0.32500000000000284,0.647000000000002 0.323599999999999,0.6486000000000018 "></polygon><polygon points="0.2950000000000017,0.6809000000000012 0.29579999999999984,0.678600000000003 0.29470000000000596,0.6781000000000006 0.2916000000000025,0.6797000000000004 0.2927999999999997,0.6817000000000029 0.2950000000000017,0.6809000000000012 "></polygon><polygon points="0.23610000000000753,0.558600000000002 0.2365999999999957,0.5572000000000017 0.23440000000000794,0.5572000000000017 0.2330000000000041,0.5594999999999999 0.23610000000000753,0.558600000000002 "></polygon><polygon points="0.19519999999999982,0.6056000000000026 0.20140000000000668,0.6025000000000027 0.198599999999999,0.6006 0.19580000000000553,0.6034000000000006 0.19360000000000355,0.6034000000000006 0.19249999999999545,0.6009000000000029 0.18940000000000623,0.6003000000000007 0.1905000000000001,0.6036000000000001 0.1875,0.603900000000003 0.18999999999999773,0.6056000000000026 0.1927000000000021,0.6050000000000004 0.19299999999999784,0.6064000000000007 0.19519999999999982,0.6056000000000026 "></polygon><polygon points="0.19830000000000325,0.6820000000000022 0.1997000000000071,0.683600000000002 0.20300000000000296,0.6834000000000024 0.20690000000000452,0.6820000000000022 0.20640000000000214,0.6795000000000009 0.20940000000000225,0.6800000000000033 0.2091000000000065,0.6783999999999999 0.21529999999999916,0.6789000000000023 0.2190999999999974,0.676400000000001 0.22390000000000043,0.6767000000000003 0.22440000000000282,0.6750000000000007 0.21890000000000498,0.6734000000000009 0.22580000000000666,0.6722000000000001 0.22639999999999816,0.6686000000000014 0.2283000000000044,0.6686000000000014 0.23140000000000782,0.665300000000002 0.23610000000000753,0.6672000000000011 0.23579999999999757,0.6625000000000014 0.24190000000000111,0.6578000000000017 0.24110000000000298,0.6547000000000018 0.23780000000000712,0.6536000000000008 0.24049999999999727,0.6503000000000014 0.24750000000000227,0.6536000000000008 0.2528000000000077,0.654200000000003 0.25499999999999545,0.6524999999999999 0.25440000000000396,0.6503000000000014 0.24750000000000227,0.6514000000000024 0.24330000000000496,0.6500000000000021 0.24500000000000455,0.6467000000000027 0.24859999999999616,0.6461000000000006 0.24890000000000612,0.6439000000000021 0.2510999999999939,0.6425000000000018 0.24720000000000653,0.642000000000003 0.24580000000000268,0.6447000000000003 0.24250000000000682,0.6447000000000003 0.24110000000000298,0.6417000000000002 0.2436000000000007,0.6397000000000013 0.24049999999999727,0.6381000000000014 0.23910000000000764,0.6408000000000023 0.2335999999999956,0.6425000000000018 0.23160000000000025,0.645900000000001 0.22299999999999898,0.6442000000000014 0.2219000000000051,0.6425000000000018 0.21970000000000312,0.6428000000000011 0.21800000000000352,0.6456000000000017 0.21470000000000766,0.6411000000000016 0.21529999999999916,0.6358000000000033 0.21940000000000737,0.6341999999999999 0.22469999999999857,0.6347000000000023 0.22469999999999857,0.6328000000000031 0.21829999999999927,0.6325000000000003 0.21689999999999543,0.6350000000000016 0.2160999999999973,0.6328000000000031 0.21770000000000778,0.6308000000000007 0.209699999999998,0.6303000000000019 0.21000000000000796,0.6286000000000023 0.2079999999999984,0.6286000000000023 0.2061000000000064,0.6345000000000027 0.20019999999999527,0.6356000000000002 0.19639999999999702,0.6402999999999999 0.19249999999999545,0.6384000000000007 0.18940000000000623,0.6392000000000024 0.18829999999999814,0.6364000000000019 0.18470000000000653,0.6370000000000005 0.18410000000000082,0.6386000000000003 0.180499999999995,0.6372 0.18000000000000682,0.6411000000000016 0.176400000000001,0.6414000000000009 0.16830000000000211,0.6467000000000027 0.16389999999999816,0.6461000000000006 0.1629999999999967,0.6497000000000028 0.16440000000000055,0.6524999999999999 0.16190000000000282,0.654200000000003 0.16160000000000707,0.6564000000000014 0.1594000000000051,0.6567000000000007 0.1629999999999967,0.660300000000003 0.16079999999999472,0.6620000000000026 0.1599999999999966,0.6670000000000016 0.1565999999999974,0.6656000000000013 0.15409999999999968,0.6672000000000011 0.14860000000000184,0.665300000000002 0.14440000000000452,0.6606000000000023 0.14000000000000057,0.6625000000000014 0.13689999999999714,0.6616999999999997 0.13469999999999516,0.6583000000000006 0.13219999999999743,0.6578000000000017 0.1302000000000021,0.6536000000000008 0.1255000000000024,0.6539000000000001 0.12390000000000612,0.6506000000000007 0.12080000000000268,0.6545000000000023 0.12250000000000227,0.6575000000000024 0.12189999999999657,0.6625000000000014 0.11750000000000682,0.6620000000000026 0.11780000000000257,0.6585999999999999 0.11520000000000152,0.6555999999999997 0.11360000000000525,0.6561000000000021 0.11110000000000753,0.6622000000000021 0.102800000000002,0.6616999999999997 0.10250000000000625,0.6650000000000027 0.10769999999999413,0.6650000000000027 0.10999999999999943,0.6675000000000004 0.10999999999999943,0.6700000000000017 0.10720000000000596,0.6722000000000001 0.1004999999999967,0.6728000000000023 0.09860000000000468,0.6770000000000032 0.09000000000000341,0.6781000000000006 0.08520000000000039,0.672500000000003 0.0794000000000068,0.6720000000000006 0.07609999999999673,0.6689000000000007 0.07110000000000127,0.672500000000003 0.07019999999999982,0.670300000000001 0.06579999999999586,0.6711000000000027 0.06220000000000425,0.6675000000000004 0.05830000000000268,0.6686000000000014 0.05689999999999884,0.6720000000000006 0.052199999999999136,0.6734000000000009 0.044399999999996,0.6795000000000009 0.045000000000001705,0.6828000000000003 0.046900000000007935,0.6803000000000026 0.05110000000000525,0.6795000000000009 0.05389999999999873,0.6839000000000013 0.05270000000000152,0.6875 0.058000000000006935,0.6875 0.05910000000000082,0.6900000000000013 0.061400000000006116,0.6889000000000003 0.06300000000000239,0.6900000000000013 0.06390000000000384,0.688600000000001 0.07909999999999684,0.6900000000000013 0.08079999999999643,0.6925000000000026 0.07970000000000255,0.6956000000000024 0.0858000000000061,0.6933000000000007 0.08719999999999573,0.6903000000000006 0.09189999999999543,0.6881000000000022 0.09189999999999543,0.6920000000000002 0.09440000000000737,0.6933000000000007 0.09529999999999461,0.6995000000000005 0.10250000000000625,0.698400000000003 0.10550000000000637,0.7000000000000028 0.10999999999999943,0.6986000000000026 0.11299999999999955,0.7000000000000028 0.11969999999999459,0.6956000000000024 0.1226999999999947,0.6992000000000012 0.12470000000000425,0.6964000000000006 0.12690000000000623,0.6992000000000012 0.1280000000000001,0.6966999999999999 0.13389999999999702,0.6961000000000013 0.13469999999999516,0.7006000000000014 0.13299999999999557,0.7047000000000025 0.14470000000000027,0.6970000000000027 0.14639999999999986,0.6914000000000016 0.1594000000000051,0.6858000000000004 0.1629999999999967,0.6889000000000003 0.16440000000000055,0.6928000000000019 0.1636000000000024,0.694700000000001 0.15080000000000382,0.7036000000000016 0.14499999999999602,0.7103000000000002 0.16079999999999472,0.7025000000000006 0.16549999999999443,0.6975000000000016 0.17220000000000368,0.6942000000000021 0.18389999999999418,0.6928000000000019 0.18890000000000384,0.6905999999999999 0.18999999999999773,0.6878000000000029 0.19140000000000157,0.690800000000003 0.19580000000000553,0.689700000000002 0.19750000000000512,0.6861000000000033 0.1968999999999994,0.6817000000000029 0.19830000000000325,0.6820000000000022 "></polygon><polygon points="0.15139999999999532,0.6622000000000021 0.15640000000000498,0.654200000000003 0.15390000000000725,0.6494999999999997 0.15000000000000568,0.6539000000000001 0.14939999999999998,0.659200000000002 0.14690000000000225,0.660300000000003 0.1488999999999976,0.6631 0.15139999999999532,0.6622000000000021 "></polygon><polygon points="0.08689999999999998,0.6350000000000016 0.08859999999999957,0.6317000000000021 0.0841000000000065,0.6303000000000019 0.08329999999999416,0.632200000000001 0.08520000000000039,0.6367000000000012 0.08689999999999998,0.6350000000000016 "></polygon><polygon points="0.14220000000000255,0.6555999999999997 0.14440000000000452,0.6545000000000023 0.14390000000000214,0.6497000000000028 0.1454999999999984,0.6489000000000011 0.1466000000000065,0.6445000000000007 0.1436000000000064,0.6447000000000003 0.14390000000000214,0.6472000000000016 0.1419000000000068,0.6489000000000011 0.14050000000000296,0.6456000000000017 0.1390999999999991,0.648100000000003 0.13769999999999527,0.6478000000000002 0.13500000000000512,0.6461000000000006 0.13360000000000127,0.6350000000000016 0.13110000000000355,0.633300000000002 0.12659999999999627,0.6345000000000027 0.12749999999999773,0.6381000000000014 0.13160000000000593,0.6389000000000031 0.1255000000000024,0.6406000000000027 0.1302000000000021,0.6433999999999997 0.12890000000000157,0.6472000000000016 0.13410000000000366,0.6494999999999997 0.13970000000000482,0.6564000000000014 0.14220000000000255,0.6555999999999997 "></polygon><polygon points="0.012200000000007094,0.672500000000003 0.012500000000002842,0.6656000000000013 0.010300000000000864,0.666400000000003 0.008600000000001273,0.6628000000000007 0.0066000000000059345,0.664200000000001 0.0,0.6608000000000018 0.001599999999996271,0.666400000000003 0.003900000000001569,0.6661000000000001 0.003900000000001569,0.6695000000000029 0.010500000000007503,0.6742000000000026 0.012200000000007094,0.672500000000003 "></polygon><polygon points="0.04080000000000439,0.6875 0.043300000000002115,0.6872000000000007 0.04250000000000398,0.6828000000000003 0.040300000000002,0.6839000000000013 0.04000000000000625,0.6867000000000019 0.03719999999999857,0.6872000000000007 0.03889999999999816,0.688600000000001 0.04080000000000439,0.6875 "></polygon><polygon points="0.034099999999995134,0.6903000000000006 0.037499999999994316,0.689700000000002 0.035799999999994725,0.6861000000000033 0.02970000000000539,0.6905999999999999 0.03249999999999886,0.6914000000000016 0.034099999999995134,0.6903000000000006 "></polygon><polygon points="0.26909999999999457,0.6878000000000029 0.27139999999999986,0.6872000000000007 0.27079999999999416,0.6844999999999999 0.2605000000000075,0.6867000000000019 0.254099999999994,0.6850000000000023 0.2536000000000058,0.6834000000000024 0.2510999999999939,0.6844999999999999 0.24660000000000082,0.683600000000002 0.2536000000000058,0.6870000000000012 0.26909999999999457,0.6878000000000029 "></polygon><polygon points="0.28770000000000095,0.6914000000000016 0.2886000000000024,0.6903000000000006 0.28530000000000655,0.6878000000000029 0.2790999999999997,0.6878000000000029 0.27720000000000766,0.6856000000000009 0.27360000000000184,0.688600000000001 0.28300000000000125,0.6903000000000006 0.2844000000000051,0.6922000000000033 0.28770000000000095,0.6914000000000016 "></polygon><polygon points="0.28719999999999857,0.6953000000000031 0.28249999999999886,0.6933000000000007 0.2780000000000058,0.6939000000000028 0.2857999999999947,0.6961000000000013 0.28719999999999857,0.6953000000000031 "></polygon><polygon points="0.33079999999999643,0.6978000000000009 0.3311000000000064,0.6956000000000024 0.325800000000001,0.6964000000000006 0.3282999999999987,0.6986000000000026 0.33079999999999643,0.6978000000000009 "></polygon><polygon points="0.21800000000000352,0.6895000000000024 0.2261000000000024,0.6870000000000012 0.23140000000000782,0.6878000000000029 0.2335999999999956,0.6900000000000013 0.2372000000000014,0.6884000000000015 0.23910000000000764,0.6842000000000006 0.23470000000000368,0.6814 0.2335999999999956,0.683600000000002 0.22220000000000084,0.6842000000000006 0.2190999999999974,0.6864000000000026 0.21470000000000766,0.6856000000000009 0.2102000000000004,0.6875 0.21049999999999613,0.688600000000001 0.2155000000000058,0.6878000000000029 0.2160999999999973,0.6905999999999999 0.21800000000000352,0.6895000000000024 "></polygon><polygon points="0.1747000000000014,0.7325000000000017 0.18250000000000455,0.7295000000000016 0.18779999999999575,0.7225000000000001 0.1880000000000024,0.7197000000000031 0.18300000000000693,0.7189000000000014 0.180499999999995,0.7136000000000031 0.17799999999999727,0.7149999999999999 0.17300000000000182,0.7225000000000001 0.17390000000000327,0.7270000000000003 0.1705000000000041,0.7281000000000013 0.16890000000000782,0.7311000000000014 0.17140000000000555,0.7334000000000032 0.1747000000000014,0.7325000000000017 "></polygon><polygon points="0.17940000000000111,0.740000000000002 0.1816000000000031,0.7403000000000013 0.18389999999999418,0.7375000000000007 0.18389999999999418,0.7336000000000027 0.18030000000000257,0.732800000000001 0.17749999999999488,0.7347000000000001 0.1757999999999953,0.7375000000000007 0.17799999999999727,0.7406000000000006 0.17660000000000764,0.7422000000000004 0.17910000000000537,0.7428000000000026 0.17940000000000111,0.740000000000002 "></polygon><polygon points="0.027200000000007662,0.7075000000000031 0.02580000000000382,0.7050000000000018 0.022700000000000387,0.7050000000000018 0.022199999999998,0.7078000000000024 0.027200000000007662,0.709500000000002 0.027200000000007662,0.7075000000000031 "></polygon><polygon points="0.113900000000001,0.7134 0.11939999999999884,0.7119999999999997 0.11889999999999645,0.708400000000001 0.12160000000000082,0.7042000000000002 0.12080000000000268,0.7031000000000027 0.11280000000000712,0.7081000000000017 0.11079999999999757,0.7134 0.113900000000001,0.7134 "></polygon><polygon points="0.1132999999999953,0.7281000000000013 0.11969999999999459,0.7208000000000006 0.11939999999999884,0.7195 0.11410000000000764,0.7183000000000028 0.11140000000000327,0.720600000000001 0.11079999999999757,0.728900000000003 0.11249999999999716,0.7297000000000011 0.1132999999999953,0.7281000000000013 "></polygon><polygon points="0.028599999999997294,0.7314000000000007 0.02939999999999543,0.7302999999999997 0.026399999999995316,0.7295000000000016 0.02389999999999759,0.7306000000000026 0.02549999999999386,0.732800000000001 0.028000000000005798,0.7331000000000003 0.028599999999997294,0.7314000000000007 "></polygon>
    </svg>
    