
    <svg width="2.0578000000000145" height="1.1862999999999992" xmlns="http://www.w3.org/2000/svg" xmlns:xlink="http://www.w3.org/1999/xlink" style="transform: scale(1, -1)">
        <polygon points="0.13249999999999318,0.04829999999999934 0.1536000000000115,0.04579999999999984 0.15559999999999263,0.04129999999999967 0.16030000000000655,0.03769999999999918 0.17670000000001096,0.03769999999999918 0.17969999999999686,0.035199999999999676 0.18250000000000455,0.035199999999999676 0.18389999999999418,0.032999999999999474 0.1599999999999966,0.021300000000000097 0.14060000000000628,0.006899999999999906 0.13470000000000937,0.00849999999999973 0.12049999999999272,0.0 0.11730000000000018,0.0034999999999989484 0.13220000000001164,0.01440000000000019 0.12640000000001805,0.018499999999999517 0.1150000000000091,0.017699999999999605 0.10939999999999372,0.021300000000000097 0.1092000000000155,0.024699999999999278 0.11189999999999145,0.028499999999999304 0.11220000000000141,0.033299999999998775 0.11580000000000723,0.037200000000000344 0.12470000000001846,0.04299999999999926 0.1331000000000131,0.04579999999999984 0.12829999999999586,0.04720000000000013 0.1255999999999915,0.045499999999998764 0.1255999999999915,0.04720000000000013 0.12829999999999586,0.048799999999999955 0.13249999999999318,0.04829999999999934 "></polygon><polygon points="0.04200000000000159,0.05879999999999974 0.03300000000001546,0.040899999999998826 0.023099999999999454,0.05039999999999978 0.03360000000000696,0.06189999999999962 0.02420000000000755,0.06550000000000011 0.021100000000018326,0.07189999999999941 0.022800000000017917,0.07599999999999874 0.018100000000004002,0.0732999999999997 0.011699999999990496,0.079699999999999 0.014399999999994861,0.0823999999999998 0.012200000000007094,0.08549999999999969 0.012200000000007094,0.08910000000000018 0.004199999999997317,0.10580000000000034 0.003299999999995862,0.11190000000000033 0.0,0.11409999999999876 0.0028000000000076852,0.12599999999999945 0.006699999999995043,0.13020000000000032 0.011099999999999,0.12909999999999933 0.019700000000000273,0.12239999999999895 0.026700000000005275,0.12349999999999994 0.03110000000000923,0.11599999999999966 0.033299999999997,0.11660000000000004 0.04060000000001196,0.11329999999999885 0.04200000000000159,0.11409999999999876 0.045000000000015916,0.11099999999999888 0.04810000000000514,0.11190000000000033 0.05170000000001096,0.11050000000000004 0.05500000000000682,0.10599999999999987 0.05889999999999418,0.10469999999999935 0.06720000000001392,0.09440000000000026 0.07779999999999632,0.0884999999999998 0.08330000000000837,0.0815999999999999 0.09420000000000073,0.0730000000000004 0.09860000000000468,0.07240000000000002 0.10060000000001423,0.07380000000000031 0.1039000000000101,0.0708000000000002 0.11109999999999332,0.07099999999999973 0.11560000000000059,0.06599999999999895 0.12080000000000268,0.06329999999999991 0.12420000000000186,0.06379999999999875 0.125,0.06240000000000023 0.1272000000000162,0.06349999999999945 0.12919999999999732,0.06219999999999892 0.12780000000000769,0.06020000000000003 0.11560000000000059,0.05550000000000033 0.10720000000000596,0.05689999999999884 0.09559999999999036,0.05630000000000024 0.08750000000000568,0.05969999999999942 0.08220000000000027,0.05769999999999875 0.0800000000000125,0.05879999999999974 0.07890000000000441,0.05630000000000024 0.07609999999999673,0.05519999999999925 0.0706000000000131,0.05519999999999925 0.06329999999999814,0.05769999999999875 0.046899999999993724,0.05659999999999954 0.04200000000000159,0.05879999999999974 "></polygon><polygon points="1.9661000000000115,0.9779999999999998 1.9658000000000015,0.9785000000000004 1.9694000000000074,0.9829999999999988 1.9699999999999989,0.9802 1.9661000000000115,0.9768999999999988 1.9661000000000115,0.9779999999999998 "></polygon><polygon points="1.9682999999999993,0.9983000000000004 1.9703000000000088,0.9934999999999992 1.9728000000000065,0.9932999999999996 1.9716999999999985,0.9890999999999988 1.970799999999997,0.9882999999999988 1.9658000000000015,0.990499999999999 1.9621999999999957,0.9893999999999998 1.9645000000000152,0.9959999999999987 1.9613999999999976,0.9979999999999993 1.961100000000016,1.0032999999999994 1.9628000000000156,1.0038 1.9682999999999993,0.9983000000000004 "></polygon><polygon points="1.9594000000000165,1.0038 1.9577999999999918,1.0038 1.9564000000000021,1.005799999999999 1.9583000000000084,1.0062999999999995 1.9594000000000165,1.0038 "></polygon><polygon points="1.9688999999999908,1.0115999999999996 1.9705999999999904,1.0123999999999995 1.9699999999999989,1.0096999999999987 1.9692000000000007,1.0105000000000004 1.9688999999999908,1.0115999999999996 "></polygon><polygon points="1.9961000000000126,1.0616000000000003 2.00030000000001,1.0576999999999988 1.9958000000000027,1.0543999999999993 1.9967000000000041,1.052999999999999 1.9938999999999965,1.0502000000000002 1.9938999999999965,1.0482999999999993 1.9969000000000108,1.0459999999999994 1.9942000000000064,1.0434999999999999 1.993300000000005,1.040799999999999 1.9946999999999946,1.0393999999999988 1.9925000000000068,1.0372000000000003 1.9975000000000023,1.0382999999999996 1.9980999999999938,1.0368999999999993 1.9950000000000045,1.0344999999999995 1.9958000000000027,1.0315999999999992 1.9978000000000122,1.0298999999999996 2.002200000000016,1.0315999999999992 2.0072000000000116,1.0276999999999994 2.0069000000000017,1.0244 1.9978000000000122,1.0187999999999988 1.9911000000000172,1.0237999999999996 1.9872000000000014,1.0237999999999996 1.9852999999999952,1.0258000000000003 1.9827999999999975,1.0246999999999993 1.97890000000001,1.020199999999999 1.9783000000000186,1.017199999999999 1.9757999999999925,1.016 1.9697000000000173,1.0205000000000002 1.9675000000000011,1.0187999999999988 1.9658000000000015,1.0218999999999987 1.9642000000000053,1.020199999999999 1.9629999999999939,1.020999999999999 1.965599999999995,1.0307999999999993 1.9625000000000057,1.0390999999999995 1.955600000000004,1.0423999999999989 1.9577999999999918,1.048 1.9569000000000187,1.0488 1.9543999999999926,1.0462999999999987 1.9525000000000148,1.0473999999999997 1.9506000000000085,1.0462999999999987 1.9470000000000027,1.0512999999999995 1.947499999999991,1.0542999999999996 1.9428000000000054,1.0533000000000001 1.9411000000000058,1.0547000000000004 1.9361000000000104,1.0547000000000004 1.9317000000000064,1.0624000000000002 1.9338999999999942,1.0694 1.9313999999999965,1.0791000000000004 1.9375,1.0822000000000003 1.942200000000014,1.0823999999999998 1.9464000000000112,1.0854999999999997 1.953300000000013,1.0860000000000003 1.9577999999999918,1.0915999999999997 1.9569000000000187,1.0974000000000004 1.9586000000000183,1.1035000000000004 1.955299999999994,1.1079999999999988 1.9569000000000187,1.1121999999999996 1.955600000000004,1.1146999999999991 1.9592000000000098,1.1198999999999995 1.9581000000000017,1.122399999999999 1.9619000000000142,1.1315999999999988 1.9613999999999976,1.1346999999999987 1.9682999999999993,1.142199999999999 1.9692000000000007,1.1457999999999995 1.9810999999999979,1.1504999999999992 1.9855000000000018,1.1496999999999993 1.9919000000000153,1.1447000000000003 1.9945000000000164,1.1448999999999998 1.9983000000000004,1.1387999999999998 1.9978000000000122,1.136899999999999 2.0019000000000062,1.1321999999999992 2.003600000000006,1.1241000000000003 2.006699999999995,1.121599999999999 2.0061000000000035,1.1197 2.0082999999999913,1.1174 2.0152999999999963,1.116299999999999 2.017799999999994,1.1062999999999992 2.0211000000000183,1.1029999999999998 2.0116999999999905,1.086599999999999 2.0069000000000017,1.0846999999999998 2.000799999999998,1.0759999999999987 1.9997000000000185,1.0718999999999994 2.0031000000000176,1.0679999999999996 2.002200000000016,1.0624000000000002 2.0,1.0618999999999996 1.9978000000000122,1.0634999999999994 1.9961000000000126,1.0616000000000003 "></polygon><polygon points="2.0131000000000085,0.9984999999999999 2.014700000000005,0.9848999999999997 2.011099999999999,0.9798999999999989 2.009999999999991,0.9824000000000002 2.0127999999999986,0.9879999999999995 2.0097000000000094,0.9896999999999991 2.0108000000000175,0.9943999999999988 2.008100000000013,0.9993999999999996 2.0116999999999905,1.0022000000000002 2.0131000000000085,0.9984999999999999 "></polygon><polygon points="2.0578000000000145,1.0812999999999988 2.0570000000000164,1.0787999999999993 2.0533000000000072,1.0801999999999996 2.055800000000005,1.0818999999999992 2.0578000000000145,1.0812999999999988 "></polygon><polygon points="2.0389000000000124,1.0873999999999988 2.037200000000013,1.085799999999999 2.0330999999999904,1.0869 2.036699999999996,1.0913000000000004 2.0386000000000024,1.0904999999999987 2.0389000000000124,1.0873999999999988 "></polygon><polygon points="2.0493999999999915,1.0934999999999988 2.050299999999993,1.096 2.0533000000000072,1.0976999999999997 2.053600000000017,1.0944000000000003 2.0493999999999915,1.0934999999999988 "></polygon><polygon points="2.036900000000003,1.0976999999999997 2.0374999999999943,1.0957999999999988 2.0349999999999966,1.0940999999999992 2.0305999999999926,1.0957999999999988 2.034700000000015,1.0987999999999989 2.036900000000003,1.0976999999999997 "></polygon><polygon points="2.015000000000015,1.1487999999999996 2.0127999999999986,1.149099999999999 2.013300000000015,1.1516000000000002 2.015000000000015,1.1504999999999992 2.015000000000015,1.1487999999999996 "></polygon><polygon points="1.9850000000000136,1.1823999999999995 1.9894000000000176,1.1818999999999988 2.010300000000001,1.1609999999999996 2.0061000000000035,1.1609999999999996 1.9950000000000045,1.1715999999999998 1.9930999999999983,1.1712999999999987 1.9928000000000168,1.1734999999999989 1.9902999999999906,1.173 1.983300000000014,1.1807999999999996 1.9802999999999997,1.1797000000000004 1.9827999999999975,1.1846999999999994 1.9850000000000136,1.1823999999999995 "></polygon><polygon points="1.9772000000000105,1.1823999999999995 1.9769000000000005,1.1852 1.9786000000000001,1.1862999999999992 1.97890000000001,1.1829999999999998 1.9772000000000105,1.1823999999999995 "></polygon>
    </svg>
    