
    <svg width="1.7849000000000004" height="3.0097000000000023" xmlns="http://www.w3.org/2000/svg" xmlns:xlink="http://www.w3.org/1999/xlink" style="transform: scale(1, -1)">
        <polygon points="0.7898999999999994,0.04099999999999682 0.7747000000000028,0.04520000000000124 0.7635000000000005,0.04639999999999844 0.7471999999999994,0.04480000000000217 0.7340000000000018,0.03730000000000189 0.7216000000000022,0.03750000000000142 0.7176000000000009,0.04359999999999786 0.7171000000000021,0.055999999999997385 0.7231000000000023,0.07059999999999889 0.7296000000000014,0.07580000000000098 0.7338000000000022,0.08899999999999864 0.7277000000000022,0.0887999999999991 0.7235000000000014,0.09120000000000061 0.7280000000000015,0.09550000000000125 0.7114000000000011,0.09629999999999939 0.7090999999999994,0.10190000000000055 0.7201000000000022,0.11869999999999692 0.7317,0.11849999999999739 0.7309000000000019,0.12449999999999761 0.7357000000000014,0.12349999999999994 0.7372000000000014,0.12839999999999918 0.7423000000000002,0.12989999999999924 0.7410999999999994,0.13479999999999848 0.7366000000000028,0.14090000000000202 0.7311000000000014,0.1437000000000026 0.7296000000000014,0.14789999999999992 0.7392000000000003,0.15160000000000196 0.7417000000000016,0.1606000000000023 0.7458000000000027,0.16429999999999723 0.7482000000000006,0.16929999999999978 0.7458000000000027,0.18489999999999895 0.7499000000000002,0.19149999999999778 0.7556000000000012,0.19460000000000122 0.7539000000000016,0.21009999999999707 0.7492000000000019,0.219699999999996 0.7451000000000008,0.22209999999999752 0.735400000000002,0.21799999999999642 0.7253000000000007,0.22059999999999746 0.7194000000000003,0.21979999999999933 0.7114000000000011,0.22639999999999816 0.7040000000000006,0.227800000000002 0.6934000000000005,0.2342000000000013 0.6876999999999995,0.2453000000000003 0.6776000000000018,0.24349999999999739 0.6720000000000006,0.24439999999999884 0.6707000000000001,0.24859999999999616 0.6534000000000013,0.2494999999999976 0.6486000000000018,0.2518999999999991 0.6463000000000001,0.25970000000000226 0.6524999999999999,0.26200000000000045 0.6564000000000014,0.26839999999999975 0.6643000000000008,0.2762000000000029 0.6722999999999999,0.27729999999999677 0.6707000000000001,0.2933000000000021 0.6495999999999995,0.3153000000000006 0.6491000000000007,0.32099999999999795 0.6464999999999996,0.3271000000000015 0.639800000000001,0.3323999999999998 0.6361000000000026,0.3393999999999977 0.6300000000000026,0.3451999999999984 0.6277000000000008,0.35249999999999915 0.6098999999999997,0.3748999999999967 0.5982000000000021,0.3872 0.5839999999999996,0.39560000000000173 0.563600000000001,0.4012000000000029 0.5534999999999997,0.40109999999999957 0.5484000000000009,0.39809999999999945 0.5357000000000021,0.3948999999999998 0.5311000000000021,0.3964999999999961 0.5286000000000008,0.4018999999999977 0.5378000000000007,0.4052999999999969 0.5335999999999999,0.4093000000000018 0.5274999999999999,0.41219999999999857 0.5252000000000017,0.41740000000000066 0.5149000000000008,0.420499999999997 0.513300000000001,0.4076999999999984 0.508700000000001,0.40809999999999746 0.502200000000002,0.4286999999999992 0.4876000000000005,0.43019999999999925 0.48629999999999995,0.43609999999999616 0.48930000000000007,0.4408999999999992 0.48840000000000217,0.4461000000000013 0.4826000000000015,0.4493000000000009 0.47579999999999956,0.448599999999999 0.46809999999999974,0.45009999999999906 0.4585000000000008,0.45810000000000173 0.4529999999999994,0.45770000000000266 0.4490000000000016,0.4607000000000028 0.4353000000000016,0.46220000000000283 0.43599999999999994,0.4679000000000002 0.4321000000000019,0.4701999999999984 0.40630000000000166,0.47509999999999764 0.39339999999999975,0.47520000000000095 0.3873999999999995,0.477800000000002 0.383300000000002,0.48339999999999606 0.3730000000000011,0.4913999999999987 0.35700000000000287,0.4964000000000013 0.3429000000000002,0.5058000000000007 0.32649999999999935,0.5107999999999961 0.3150000000000013,0.5210000000000008 0.2849000000000004,0.5290999999999997 0.2549000000000028,0.5420999999999978 0.24569999999999936,0.5441000000000003 0.21610000000000085,0.5621000000000009 0.20700000000000074,0.5643000000000029 0.1997,0.5716999999999999 0.17970000000000041,0.5842000000000027 0.165300000000002,0.6007999999999996 0.14809999999999945,0.6156000000000006 0.13739999999999952,0.6304999999999978 0.13160000000000238,0.6358999999999995 0.12570000000000192,0.6383999999999972 0.11459999999999937,0.6486999999999981 0.10810000000000031,0.6563000000000017 0.10740000000000194,0.6623999999999981 0.11120000000000019,0.6662999999999997 0.10330000000000084,0.6927999999999983 0.09110000000000085,0.7051000000000016 0.08430000000000248,0.7171000000000021 0.06750000000000256,0.736699999999999 0.04510000000000147,0.7558999999999969 0.041900000000001825,0.7603999999999971 0.024900000000002365,0.7691999999999979 0.025600000000000733,0.7736000000000018 0.03580000000000183,0.7757999999999967 0.04010000000000247,0.7785999999999973 0.04240000000000066,0.7824999999999989 0.05600000000000094,0.7875999999999976 0.06559999999999988,0.7809999999999988 0.07350000000000279,0.7824000000000026 0.08099999999999952,0.7804000000000002 0.10790000000000077,0.7580999999999989 0.1144999999999996,0.7556999999999974 0.120000000000001,0.7473000000000027 0.12519999999999953,0.7443999999999988 0.1341000000000001,0.7361999999999966 0.14110000000000156,0.724499999999999 0.14480000000000004,0.7124999999999986 0.1446000000000005,0.6905999999999963 0.1518000000000015,0.6846999999999994 0.1559000000000026,0.6730000000000018 0.16220000000000212,0.670499999999997 0.17770000000000152,0.6722999999999999 0.1921999999999997,0.6771000000000029 0.20050000000000168,0.6822000000000017 0.20780000000000243,0.6899999999999977 0.2190000000000012,0.6950999999999965 0.22060000000000102,0.7000999999999991 0.21610000000000085,0.7128000000000014 0.21710000000000207,0.7184999999999988 0.2146000000000008,0.7259999999999991 0.21880000000000166,0.735599999999998 0.21380000000000265,0.7471999999999994 0.21610000000000085,0.7629000000000019 0.2240000000000002,0.7719999999999985 0.22900000000000276,0.7809000000000026 0.23000000000000043,0.7924000000000007 0.2284000000000006,0.7967999999999975 0.19930000000000092,0.8094999999999999 0.18540000000000134,0.8218999999999994 0.18360000000000198,0.8258999999999972 0.1700000000000017,0.8359000000000023 0.16740000000000066,0.8412999999999968 0.15760000000000218,0.848399999999998 0.15020000000000167,0.8504999999999967 0.14260000000000161,0.8494000000000028 0.13700000000000045,0.8519999999999968 0.12369999999999948,0.8699000000000012 0.12420000000000186,0.8763000000000005 0.11380000000000123,0.882799999999996 0.11480000000000246,0.8892000000000024 0.11880000000000024,0.8943000000000012 0.11580000000000013,0.9069000000000003 0.11030000000000229,0.9179999999999993 0.1025000000000027,0.928600000000003 0.08500000000000085,0.9590999999999994 0.057500000000000995,0.9908999999999963 0.05620000000000047,0.9964000000000013 0.051600000000000534,0.9971999999999994 0.049200000000002575,0.9917000000000016 0.04260000000000019,1.0086999999999975 0.04400000000000048,1.0137999999999963 0.05590000000000117,1.0167000000000002 0.07540000000000191,1.0294000000000025 0.09309999999999974,1.0503 0.10190000000000055,1.0653999999999968 0.10500000000000043,1.0763999999999996 0.10410000000000252,1.1126999999999967 0.11260000000000048,1.1503999999999976 0.11180000000000234,1.1608000000000018 0.10689999999999955,1.1709999999999994 0.107800000000001,1.1751000000000005 0.12040000000000006,1.182699999999997 0.12690000000000268,1.1910999999999987 0.1305000000000014,1.1989000000000019 0.1346000000000025,1.2143000000000015 0.13770000000000238,1.238199999999999 0.14949999999999974,1.2682999999999964 0.15350000000000108,1.2730999999999995 0.2027000000000001,1.3053000000000026 0.20980000000000132,1.3130999999999986 0.21280000000000143,1.3194000000000017 0.21189999999999998,1.3307999999999964 0.20510000000000161,1.3393000000000015 0.1991000000000014,1.3438999999999979 0.18230000000000146,1.3477999999999994 0.18319999999999936,1.3427000000000007 0.17740000000000222,1.3440999999999974 0.17480000000000118,1.3509000000000029 0.17570000000000263,1.3637999999999977 0.17940000000000111,1.3804999999999978 0.17549999999999955,1.3909999999999982 0.18540000000000134,1.3994999999999962 0.1875,1.4052000000000007 0.19200000000000017,1.4243999999999986 0.19250000000000256,1.4403999999999968 0.19120000000000203,1.4600000000000009 0.18940000000000268,1.4662999999999968 0.18430000000000035,1.4737999999999971 0.18360000000000198,1.4791999999999987 0.17600000000000193,1.4887999999999977 0.17379999999999995,1.4953999999999965 0.17830000000000013,1.4979999999999976 0.19229999999999947,1.497799999999998 0.1971000000000025,1.499600000000001 0.20599999999999952,1.5088000000000008 0.2085000000000008,1.5131999999999977 0.21030000000000015,1.526299999999999 0.21710000000000207,1.538800000000002 0.22160000000000224,1.552100000000003 0.23770000000000024,1.5649000000000015 0.24719999999999942,1.5777 0.25319999999999965,1.591700000000003 0.2557000000000009,1.6052999999999997 0.25629999999999953,1.6122000000000014 0.24610000000000198,1.633499999999998 0.24040000000000106,1.6415999999999968 0.2264000000000017,1.654600000000002 0.21850000000000236,1.6599999999999966 0.2076000000000029,1.6640000000000015 0.19470000000000098,1.6591000000000022 0.18929999999999936,1.6612999999999971 0.18400000000000105,1.6567000000000007 0.16980000000000217,1.6614999999999966 0.16629999999999967,1.6691999999999965 0.15700000000000003,1.674900000000001 0.15419999999999945,1.6938999999999993 0.1559000000000026,1.721899999999998 0.15869999999999962,1.7272999999999996 0.15770000000000195,1.732999999999997 0.15320000000000178,1.7383000000000024 0.14110000000000156,1.7432000000000016 0.13899999999999935,1.7483000000000004 0.1302000000000021,1.756299999999996 0.12679999999999936,1.761499999999998 0.13180000000000192,1.7620000000000005 0.1413000000000011,1.7569000000000017 0.14530000000000243,1.7496999999999971 0.1518000000000015,1.7475000000000023 0.16850000000000165,1.7479999999999976 0.17920000000000158,1.7520000000000024 0.18240000000000123,1.7578999999999994 0.17730000000000246,1.7582000000000022 0.18070000000000164,1.7734000000000023 0.18560000000000088,1.7852999999999994 0.19950000000000045,1.7875000000000014 0.21950000000000003,1.8027000000000015 0.23670000000000258,1.8194000000000017 0.24750000000000227,1.8376999999999981 0.25150000000000006,1.8569999999999993 0.2515999999999998,1.8688000000000002 0.25,1.878700000000002 0.24680000000000035,1.8847999999999985 0.24320000000000164,1.8887999999999963 0.20800000000000196,1.898699999999998 0.1971000000000025,1.906799999999997 0.1960000000000015,1.9159000000000006 0.18400000000000105,1.9346999999999994 0.19320000000000093,1.9335000000000022 0.21280000000000143,1.9245000000000019 0.2372000000000014,1.9196000000000026 0.24820000000000064,1.9183999999999983 0.26920000000000144,1.9198999999999984 0.28580000000000183,1.9247999999999976 0.2961000000000027,1.9307000000000016 0.3047000000000004,1.9380000000000024 0.32319999999999993,1.9632000000000005 0.32750000000000057,1.9645999999999972 0.3290000000000006,1.971499999999999 0.334500000000002,1.961500000000001 0.339500000000001,1.9624000000000024 0.34410000000000096,1.9742999999999995 0.34350000000000236,1.9793999999999983 0.340600000000002,1.9848 0.3243000000000009,1.996699999999997 0.3190000000000026,1.995599999999996 0.3138000000000005,1.9853999999999985 0.3100000000000023,1.9893 0.3068000000000026,1.9968999999999966 0.3064999999999998,2.003700000000002 0.30980000000000274,2.013300000000001 0.3085000000000022,2.0187000000000026 0.31780000000000186,2.0411 0.319700000000001,2.0574000000000012 0.3182000000000009,2.070999999999998 0.313600000000001,2.0827000000000027 0.31310000000000215,2.0897000000000006 0.31750000000000256,2.0981999999999985 0.3122000000000007,2.100299999999997 0.31540000000000035,2.103200000000001 0.3321000000000005,2.1052999999999997 0.3429000000000002,2.110500000000002 0.3468000000000018,2.124200000000002 0.3439000000000014,2.1300999999999988 0.3492999999999995,2.1317999999999984 0.3512000000000022,2.128 0.35350000000000037,2.1342 0.3511000000000024,2.1387999999999963 0.3501000000000012,2.1465999999999994 0.33940000000000126,2.140599999999999 0.3338000000000001,2.158200000000001 0.3293999999999997,2.161299999999997 0.31610000000000227,2.1595999999999975 0.30430000000000135,2.1646 0.2837999999999994,2.1783 0.2710000000000008,2.1839999999999975 0.26780000000000115,2.187899999999999 0.26340000000000074,2.1899999999999977 0.21969999999999956,2.2006999999999977 0.20599999999999952,2.2060999999999993 0.18970000000000198,2.2092000000000027 0.1994000000000007,2.2154999999999987 0.19720000000000226,2.2201999999999984 0.18469999999999942,2.2286 0.17900000000000205,2.230800000000002 0.17389999999999972,2.2319999999999993 0.16850000000000165,2.2291000000000025 0.17010000000000147,2.2241 0.1753,2.2194999999999965 0.182500000000001,2.218499999999999 0.1866000000000021,2.216000000000001 0.18410000000000082,2.212299999999999 0.1788000000000025,2.209699999999998 0.14830000000000254,2.2124999999999986 0.14039999999999964,2.2109000000000023 0.13010000000000232,2.2021999999999977 0.11840000000000117,2.1972000000000023 0.11180000000000234,2.1995999999999967 0.11380000000000123,2.2312999999999974 0.10270000000000223,2.2363 0.0987000000000009,2.2443000000000026 0.07939999999999969,2.2509999999999977 0.07810000000000272,2.2565000000000026 0.0835000000000008,2.259900000000002 0.08750000000000213,2.260300000000001 0.09450000000000003,2.2661999999999978 0.10389999999999944,2.267800000000001 0.10500000000000043,2.2719000000000023 0.10190000000000055,2.2774 0.08920000000000172,2.2828000000000017 0.08580000000000254,2.2875999999999976 0.08840000000000003,2.302100000000003 0.09600000000000009,2.3046000000000006 0.11570000000000036,2.306899999999999 0.120000000000001,2.3111999999999995 0.11810000000000187,2.3145999999999987 0.11210000000000164,2.318100000000001 0.11139999999999972,2.323500000000003 0.11430000000000007,2.341799999999999 0.12010000000000076,2.3455999999999975 0.10500000000000043,2.368299999999998 0.1034000000000006,2.373199999999997 0.10490000000000066,2.3810000000000002 0.11240000000000094,2.394999999999996 0.11400000000000077,2.4132999999999996 0.11620000000000275,2.4209999999999994 0.12140000000000128,2.428699999999999 0.13010000000000232,2.4369999999999976 0.13620000000000232,2.449399999999997 0.13510000000000133,2.4540000000000006 0.05730000000000146,2.5020999999999987 0.021599999999999397,2.529299999999999 0.08389999999999986,2.587200000000003 0.08840000000000003,2.6036999999999964 0.10839999999999961,2.621600000000001 0.11620000000000275,2.6409999999999982 0.1487000000000016,2.665999999999997 0.1528000000000027,2.6739999999999995 0.1504000000000012,2.6955000000000027 0.15750000000000242,2.7132000000000005 0.16629999999999967,2.723799999999997 0.17239999999999966,2.730400000000003 0.20860000000000056,2.744099999999996 0.22080000000000055,2.7580000000000027 0.2261000000000024,2.7695000000000007 0.2375000000000007,2.7856999999999985 0.25400000000000134,2.7941999999999965 0.25420000000000087,2.800699999999999 0.26610000000000156,2.809199999999997 0.27520000000000167,2.819499999999998 0.2820999999999998,2.834600000000002 0.2887000000000022,2.8395999999999972 0.29439999999999955,2.847699999999996 0.2988999999999997,2.865400000000001 0.30570000000000164,2.8697000000000017 0.3193000000000019,2.8729000000000013 0.3398000000000003,2.883499999999998 0.3556000000000026,2.8984000000000023 0.3436000000000021,2.918999999999997 0.34860000000000113,2.9288000000000025 0.39199999999999946,2.9731999999999985 0.4017000000000017,2.9791000000000025 0.4150000000000027,2.9818 0.4230000000000018,2.991100000000003 0.43670000000000186,2.999600000000001 0.43740000000000023,3.0050999999999988 0.4427000000000021,3.008200000000002 0.45190000000000197,3.009599999999999 0.459500000000002,3.0097000000000023 0.4651999999999994,3.0077 0.47830000000000084,2.9926999999999992 0.48870000000000147,2.991100000000003 0.48870000000000147,2.9868000000000023 0.48410000000000153,2.9786 0.4856000000000016,2.9731999999999985 0.4971999999999994,2.955199999999998 0.5052000000000021,2.9472000000000023 0.5086000000000013,2.941499999999998 0.5068000000000019,2.937100000000001 0.4967000000000006,2.9365999999999985 0.4862000000000002,2.928600000000003 0.48710000000000164,2.9217000000000013 0.4899000000000022,2.9161999999999964 0.4831000000000003,2.907600000000002 0.4795000000000016,2.899700000000003 0.4902000000000015,2.8765 0.4963000000000015,2.8691999999999993 0.49890000000000256,2.8571000000000026 0.5031999999999996,2.8519000000000005 0.5152999999999999,2.8466000000000022 0.5274999999999999,2.8327000000000027 0.5558000000000014,2.818799999999996 0.5690000000000026,2.8166999999999973 0.570800000000002,2.823599999999999 0.5768000000000022,2.827599999999997 0.6038999999999994,2.8331000000000017 0.608900000000002,2.8434000000000026 0.6171000000000006,2.8430999999999997 0.6260000000000012,2.8352000000000004 0.6309000000000005,2.8378999999999976 0.6339000000000006,2.8515000000000015 0.6421000000000028,2.8566999999999965 0.6658000000000008,2.8671000000000006 0.672900000000002,2.868699999999997 0.6933000000000007,2.8596000000000004 0.714500000000001,2.8648000000000025 0.7337000000000025,2.860599999999998 0.7398000000000025,2.8663999999999987 0.7464000000000013,2.8845000000000027 0.7610000000000028,2.8945000000000007 0.7940000000000005,2.9091000000000022 0.8060000000000009,2.908299999999997 0.8189000000000028,2.9035999999999973 0.8387000000000029,2.8834000000000017 0.8702000000000005,2.868400000000001 0.8946000000000005,2.859899999999996 0.9025999999999996,2.8541999999999987 0.9035000000000011,2.8466000000000022 0.9125000000000014,2.838700000000003 0.9174000000000007,2.825899999999997 0.9215000000000018,2.8226999999999975 0.9284999999999997,2.8203999999999994 0.9322000000000017,2.8155999999999963 0.9274000000000022,2.8033999999999963 0.9306000000000019,2.7986000000000004 0.9548000000000023,2.7824000000000026 0.9604999999999997,2.7738999999999976 0.9586000000000006,2.7657000000000025 0.9488000000000021,2.758899999999997 0.9472000000000023,2.7548999999999992 0.9478000000000009,2.749600000000001 0.9715000000000025,2.7295000000000016 0.9772999999999996,2.7194999999999965 0.9784000000000006,2.7102999999999966 0.9756999999999998,2.7023999999999972 0.9755000000000003,2.695599999999999 0.9769000000000005,2.6839999999999975 0.9802999999999997,2.6768999999999963 0.9868000000000023,2.6704000000000008 0.9970999999999997,2.666400000000003 1.022400000000001,2.6713999999999984 1.0303000000000004,2.6711000000000027 1.0345000000000013,2.6687999999999974 1.0334000000000003,2.6621000000000024 1.0372000000000021,2.660800000000002 1.0477000000000025,2.667900000000003 1.0638000000000005,2.673899999999996 1.0705000000000027,2.674199999999999 1.0793999999999997,2.6706000000000003 1.0889000000000024,2.6572999999999993 1.1244000000000014,2.6464 1.1350000000000016,2.6355000000000004 1.1428000000000011,2.630899999999997 1.1484000000000023,2.631299999999996 1.1616999999999997,2.6281999999999996 1.1945000000000014,2.613599999999998 1.2281000000000013,2.5870999999999995 1.2538000000000018,2.561300000000003 1.2604000000000006,2.5508000000000024 1.2713999999999999,2.5153999999999996 1.2765000000000022,2.5071999999999974 1.2939000000000007,2.486399999999996 1.296800000000001,2.4784000000000006 1.2985000000000007,2.468199999999996 1.2958999999999996,2.4590999999999994 1.295300000000001,2.4506999999999977 1.2976000000000028,2.4438999999999993 1.2967000000000013,2.4339999999999975 1.293800000000001,2.4290999999999983 1.294900000000002,2.4213999999999984 1.3052000000000028,2.4084999999999965 1.3253000000000021,2.394300000000001 1.3290000000000006,2.3888999999999996 1.3297000000000025,2.378 1.3333000000000013,2.3678000000000026 1.3434000000000026,2.3522999999999996 1.3545000000000016,2.3271999999999977 1.3634000000000022,2.316899999999997 1.363900000000001,2.308399999999999 1.3591000000000015,2.2935000000000016 1.3531000000000013,2.283999999999999 1.3459000000000003,2.2789 1.3266000000000027,2.272100000000002 1.3180000000000014,2.2607 1.3186999999999998,2.2554000000000016 1.3259000000000007,2.2415999999999983 1.3287000000000013,2.232300000000002 1.326900000000002,2.227800000000002 1.3027000000000015,2.2186999999999983 1.2995000000000019,2.2147000000000006 1.2973999999999997,2.174199999999999 1.3006000000000029,2.1640000000000015 1.3099000000000025,2.1449 1.307100000000002,2.136099999999999 1.2881,2.133200000000002 1.2782000000000018,2.1295999999999964 1.2715999999999994,2.124200000000002 1.2703000000000024,2.1171000000000006 1.2656000000000027,2.1083 1.2592999999999996,2.1011000000000024 1.255200000000002,2.091700000000003 1.2540000000000013,2.0737999999999985 1.2636000000000003,2.053699999999999 1.2656000000000027,2.0444999999999993 1.2656000000000027,2.0360999999999976 1.2595000000000027,2.012299999999996 1.2646000000000015,2.003399999999999 1.2657000000000025,1.9979999999999976 1.2647000000000013,1.9855000000000018 1.2698999999999998,1.983699999999999 1.2881999999999998,1.9604999999999961 1.2946000000000026,1.9414999999999978 1.2945000000000029,1.9328999999999965 1.2684999999999995,1.9181000000000026 1.2390000000000008,1.9108000000000018 1.2256,1.9059999999999988 1.211500000000001,1.9067000000000007 1.2068000000000012,1.9009 1.199300000000001,1.8817999999999984 1.191600000000001,1.8740999999999985 1.1967999999999996,1.8654999999999973 1.208000000000002,1.8613999999999962 1.2088,1.8541999999999987 1.217100000000002,1.8474000000000004 1.231300000000001,1.8449999999999989 1.2377000000000002,1.846199999999996 1.2423000000000002,1.843199999999996 1.2429000000000023,1.837600000000002 1.2358000000000011,1.833999999999996 1.2414000000000023,1.8222000000000023 1.2513000000000005,1.791400000000003 1.265900000000002,1.7849999999999966 1.2703000000000024,1.7813000000000017 1.2774999999999999,1.7796999999999983 1.2847000000000008,1.7708000000000013 1.2951000000000015,1.763300000000001 1.2981000000000016,1.7571999999999974 1.2931000000000026,1.7526999999999973 1.2880000000000003,1.7314000000000007 1.2828000000000017,1.7199000000000026 1.2789000000000001,1.7171999999999983 1.2758000000000003,1.7087000000000003 1.2676000000000016,1.7027999999999963 1.261300000000002,1.6910999999999987 1.2564000000000028,1.6884000000000015 1.2488000000000028,1.6888000000000005 1.238500000000002,1.6953999999999994 1.2353000000000023,1.6951999999999998 1.2307000000000023,1.6884999999999977 1.2309000000000019,1.6771999999999991 1.2358000000000011,1.6719000000000008 1.2363999999999997,1.6640999999999977 1.249100000000002,1.6340999999999966 1.2510000000000012,1.6261999999999972 1.2485,1.615400000000001 1.2516999999999996,1.6058999999999983 1.2569000000000017,1.6011999999999986 1.2546,1.5932999999999993 1.2577999999999996,1.5878000000000014 1.260200000000001,1.5773999999999972 1.2752000000000017,1.5484000000000009 1.2789000000000001,1.5437999999999974 1.2856000000000023,1.5409999999999968 1.2921000000000014,1.541400000000003 1.3245000000000005,1.498199999999997 1.332600000000003,1.4825000000000017 1.3338,1.4756999999999962 1.3264999999999993,1.4701000000000022 1.3239000000000019,1.4650999999999996 1.3248999999999995,1.4553999999999974 1.3324999999999996,1.4450000000000003 1.3361000000000018,1.441200000000002 1.3481000000000023,1.4382999999999981 1.4056999999999995,1.4288000000000025 1.4095000000000013,1.4232999999999976 1.4208999999999996,1.4009999999999962 1.4430000000000014,1.3393999999999977 1.4738000000000007,1.2614000000000019 1.4780000000000015,1.2569000000000017 1.4875000000000007,1.252600000000001 1.5064000000000028,1.2492000000000019 1.5547000000000004,1.2524000000000015 1.5648000000000017,1.2554999999999978 1.5835000000000008,1.2689000000000021 1.6026000000000025,1.2738999999999976 1.6083999999999996,1.273299999999999 1.6280999999999999,1.2661000000000016 1.6472000000000016,1.2631999999999977 1.6692999999999998,1.2700999999999993 1.6930000000000014,1.2657000000000025 1.7031000000000027,1.256999999999998 1.7150999999999996,1.2513999999999967 1.721700000000002,1.2447000000000017 1.7257999999999996,1.2239999999999966 1.7271999999999998,1.1955999999999989 1.7108000000000025,1.1959000000000017 1.7104999999999997,1.1946000000000012 1.7105999999999995,1.1321999999999974 1.703400000000002,1.122799999999998 1.6829,1.1118999999999986 1.6891999999999996,1.1111999999999966 1.6992000000000012,1.1039999999999992 1.7074999999999996,1.1034000000000006 1.711500000000001,1.0962999999999994 1.7107000000000028,1.078800000000001 1.7157000000000018,1.0730999999999966 1.7309000000000019,1.0670000000000002 1.7516999999999996,1.0499999999999972 1.7636000000000003,1.0356999999999985 1.7713999999999999,1.0230999999999995 1.7849000000000004,1.0078999999999994 1.7799000000000014,0.9761000000000024 1.7834000000000003,0.9669999999999987 1.7841000000000022,0.9575999999999993 1.7736000000000018,0.9551999999999978 1.7747000000000028,0.9391999999999996 1.7737000000000016,0.9350000000000023 1.7680000000000007,0.9326000000000008 1.7743000000000002,0.9172000000000011 1.7745999999999995,0.9116999999999962 1.770900000000001,0.9067999999999969 1.770500000000002,0.9027999999999992 1.7666000000000004,0.9014000000000024 1.7547999999999995,0.9029000000000025 1.748000000000001,0.9014999999999986 1.743500000000001,0.8980999999999995 1.740400000000001,0.8988999999999976 1.7397000000000027,0.8960000000000008 1.7340000000000018,0.8932999999999964 1.7322000000000024,0.8890000000000029 1.726300000000002,0.883499999999998 1.7254000000000005,0.8821000000000012 1.7269000000000005,0.8783999999999992 1.7111000000000018,0.8691999999999993 1.7055000000000007,0.8665999999999983 1.7035000000000018,0.8671999999999969 1.7012,0.8635000000000019 1.6961000000000013,0.8607999999999976 1.6936,0.8534999999999968 1.6915000000000013,0.8521999999999963 1.6920000000000002,0.8466000000000022 1.6968999999999994,0.839500000000001 1.6939000000000028,0.8299000000000021 1.6872000000000007,0.8241000000000014 1.6800999999999995,0.8132000000000019 1.663800000000002,0.8093000000000004 1.6578000000000017,0.8109999999999999 1.6529000000000025,0.8140999999999963 1.6500000000000021,0.8179999999999978 1.640900000000002,0.822499999999998 1.633300000000002,0.8211999999999975 1.6228000000000016,0.8220000000000027 1.6036000000000001,0.8181999999999974 1.5977999999999994,0.8196999999999974 1.5899999999999999,0.8248999999999995 1.5789000000000009,0.8262 1.5679000000000016,0.8181000000000012 1.5606000000000009,0.8079999999999998 1.5581999999999994,0.7959999999999994 1.5547000000000004,0.7901999999999987 1.5500000000000007,0.7873000000000019 1.5504999999999995,0.7817999999999969 1.544900000000002,0.7802000000000007 1.5404000000000018,0.7824000000000026 1.5319000000000003,0.7779000000000025 1.5254000000000012,0.7764999999999986 1.5151000000000003,0.7695000000000007 1.5136000000000003,0.7657000000000025 1.5204000000000022,0.7545000000000002 1.5153999999999996,0.7411999999999992 1.5172000000000025,0.7331000000000003 1.5208000000000013,0.7259000000000029 1.517400000000002,0.7038000000000011 1.5117000000000012,0.6997999999999962 1.5047999999999995,0.698599999999999 1.5038000000000018,0.6910000000000025 1.4933000000000014,0.6852000000000018 1.4907000000000004,0.681599999999996 1.4863,0.6728999999999985 1.4913000000000025,0.6659000000000006 1.4822000000000024,0.6612999999999971 1.4726999999999997,0.6591000000000022 1.4619,0.6514000000000024 1.4578000000000024,0.6387999999999963 1.4417000000000009,0.6263999999999967 1.4359000000000002,0.6094000000000008 1.4411000000000023,0.6009000000000029 1.4483999999999995,0.596899999999998 1.4506000000000014,0.5831000000000017 1.4481000000000002,0.5799000000000021 1.4489000000000019,0.5722000000000023 1.4517000000000024,0.5653000000000006 1.4475000000000016,0.5574999999999974 1.4410000000000025,0.5531999999999968 1.4364000000000026,0.5439999999999969 1.4304000000000023,0.5396000000000001 1.418800000000001,0.5373999999999981 1.4063000000000017,0.5311999999999983 1.4083000000000006,0.5268999999999977 1.4039000000000001,0.5165999999999968 1.4023000000000003,0.5076999999999998 1.4213000000000022,0.494099999999996 1.4191000000000003,0.4893999999999963 1.4115000000000002,0.4836000000000027 1.403500000000001,0.4679000000000002 1.407,0.45009999999999906 1.4038000000000004,0.4450999999999965 1.3872,0.4380999999999986 1.357800000000001,0.43659999999999854 1.3501000000000012,0.43189999999999884 1.3473000000000006,0.4269999999999996 1.3364000000000011,0.41980000000000217 1.3064999999999998,0.41279999999999717 1.2915000000000028,0.4125000000000014 1.2784000000000013,0.40679999999999694 1.2405000000000008,0.42600000000000193 1.2363,0.4223999999999961 1.2363,0.4200999999999979 1.2315000000000005,0.41629999999999967 1.226700000000001,0.41510000000000247 1.2229000000000028,0.41140000000000043 1.2158000000000015,0.41140000000000043 1.208400000000001,0.4134999999999991 1.1976000000000013,0.421599999999998 1.1881000000000022,0.42130000000000223 1.1885000000000012,0.4200000000000017 1.1477000000000004,0.40509999999999735 1.1433,0.3984000000000023 1.1380000000000017,0.39399999999999835 1.138300000000001,0.3872999999999962 1.1421000000000028,0.38289999999999935 1.1386000000000003,0.3791999999999973 1.1377000000000024,0.3725000000000023 1.1354000000000006,0.36829999999999785 1.1260000000000012,0.36019999999999897 1.1235999999999997,0.3415999999999997 1.118500000000001,0.33849999999999625 1.1073000000000022,0.33619999999999806 1.1034000000000006,0.33259999999999934 1.057500000000001,0.33489999999999753 1.0409000000000006,0.33370000000000033 1.0481000000000016,0.31759999999999877 1.0537000000000027,0.31559999999999633 1.0573000000000015,0.3083000000000027 1.0635000000000012,0.3044000000000011 1.0701,0.29630000000000223 1.0736000000000026,0.28759999999999764 1.0701999999999998,0.2820999999999998 1.066200000000002,0.267000000000003 1.0729000000000006,0.26140000000000185 1.0909000000000013,0.25319999999999965 1.0931999999999995,0.2470999999999961 1.0999000000000017,0.23919999999999675 1.1010000000000026,0.23559999999999803 1.1127000000000002,0.23270000000000124 1.1109000000000009,0.22469999999999857 1.1147000000000027,0.2195999999999998 1.1167000000000016,0.2132000000000005 1.136800000000001,0.1899000000000015 1.1446000000000005,0.1845999999999961 1.1402,0.17779999999999774 1.1431000000000004,0.17029999999999745 1.1415000000000006,0.16380000000000194 1.1419999999999995,0.15899999999999892 1.1339000000000006,0.1484000000000023 1.1297999999999995,0.14639999999999986 1.1224000000000025,0.13920000000000243 1.1199000000000012,0.13459999999999894 1.1116000000000028,0.13049999999999784 1.1037,0.12950000000000017 1.0972000000000008,0.13269999999999982 1.0839999999999996,0.14390000000000214 1.0771000000000015,0.1477000000000004 1.0531000000000006,0.154200000000003 1.0430000000000028,0.15509999999999735 1.0329000000000015,0.16049999999999898 1.028100000000002,0.15449999999999875 1.0186000000000028,0.14920000000000044 1.0198999999999998,0.14410000000000167 1.0334000000000003,0.1302999999999983 1.0355000000000025,0.12449999999999761 1.032700000000002,0.1197000000000017 1.0211000000000006,0.11129999999999995 1.0215999999999994,0.10620000000000118 1.0273000000000003,0.09919999999999618 1.0335999999999999,0.09510000000000218 1.0352999999999994,0.0876000000000019 1.0498000000000012,0.07860000000000156 1.0483000000000011,0.07249999999999801 1.0405000000000015,0.0694999999999979 1.0321999999999996,0.060899999999996624 1.0204000000000022,0.05859999999999843 1.0122999999999998,0.054899999999996396 1.0059000000000005,0.04359999999999786 0.9954999999999998,0.03860000000000241 0.9927000000000028,0.027599999999999625 0.9927000000000028,0.01659999999999684 0.983900000000002,0.018900000000002137 0.9788999999999994,0.02449999999999619 0.9625000000000021,0.028799999999996828 0.9598000000000013,0.028599999999997294 0.9577000000000027,0.0257000000000005 0.9585000000000008,0.02389999999999759 0.9549000000000021,0.01670000000000016 0.9498999999999995,0.014099999999999113 0.9416000000000011,0.01630000000000109 0.9300999999999995,0.02389999999999759 0.9247000000000014,0.00280000000000058 0.9181000000000026,0.00030000000000285354 0.9065000000000012,0.0 0.8863000000000021,0.004399999999996851 0.8621000000000016,0.006599999999998829 0.8511000000000024,0.011600000000001387 0.8255000000000017,0.028199999999998226 0.8139000000000003,0.030999999999998806 0.7898999999999994,0.04099999999999682 "></polygon><polygon points="0.007799999999999585,0.8624999999999972 0.01180000000000092,0.8594000000000008 0.013799999999999812,0.8545000000000016 0.026300000000002655,0.8489000000000004 0.028600000000000847,0.8444000000000003 0.02790000000000248,0.8367999999999967 0.024499999999999744,0.8307000000000002 0.023800000000001376,0.8243000000000009 0.01670000000000016,0.8237000000000023 0.008500000000001506,0.8397999999999968 0.002700000000000813,0.8449999999999989 0.0,0.8515000000000015 0.002200000000001978,0.8620999999999981 0.007799999999999585,0.8624999999999972 "></polygon><polygon points="0.3106000000000009,2.1143999999999963 0.3176000000000023,2.116500000000002 0.32360000000000255,2.116199999999999 0.32649999999999935,2.112000000000002 0.32220000000000226,2.109400000000001 0.3153000000000006,2.1096999999999966 0.3106000000000009,2.1143999999999963 "></polygon><polygon points="0.3415999999999997,2.1259999999999977 0.3389000000000024,2.1225000000000023 0.3392000000000017,2.131999999999998 0.3439000000000014,2.1300999999999988 0.3415999999999997,2.1259999999999977 "></polygon>
    </svg>
    