
    <svg width="1.6707999999999856" height="3.325100000000001" xmlns="http://www.w3.org/2000/svg" xmlns:xlink="http://www.w3.org/1999/xlink" style="transform: scale(1, -1)">
        <polygon points="0.4088999999999885,0.0907 0.41270000000000095,0.08680000000000021 0.40869999999998186,0.08230000000000004 0.41099999999997294,0.07680000000000042 0.4088999999999885,0.0730000000000004 0.402499999999975,0.07310000000000016 0.3891999999999882,0.057000000000000384 0.38469999999998095,0.059800000000000963 0.37479999999999336,0.054400000000001114 0.37699999999998113,0.04970000000000141 0.3873999999999853,0.04640000000000022 0.3760999999999797,0.03710000000000058 0.37019999999998277,0.03500000000000014 0.36839999999997985,0.029100000000001458 0.3527999999999736,0.013900000000001356 0.3505999999999858,0.009700000000000486 0.34669999999999845,0.007699999999999818 0.338799999999992,0.01320000000000121 0.33579999999997767,0.009700000000000486 0.33439999999998804,0.004000000000001336 0.33029999999999404,0.0 0.327699999999993,0.0035000000000007248 0.3266999999999882,0.009500000000000952 0.3190999999999917,0.009300000000001418 0.3038999999999987,0.01720000000000077 0.3020999999999958,0.03390000000000093 0.29939999999999145,0.037700000000000955 0.28489999999999327,0.04130000000000145 0.2814999999999941,0.045900000000001384 0.27139999999999986,0.041100000000000136 0.26030000000000086,0.04400000000000048 0.2570999999999799,0.04750000000000121 0.2517999999999745,0.04750000000000121 0.24549999999999272,0.05050000000000132 0.2512999999999863,0.053000000000000824 0.25549999999998363,0.05740000000000123 0.25629999999998176,0.06210000000000093 0.2687999999999988,0.07310000000000016 0.27319999999997435,0.07169999999999987 0.2775999999999783,0.07420000000000115 0.2807999999999993,0.07950000000000124 0.2908999999999935,0.08360000000000056 0.2973999999999819,0.07920000000000016 0.299699999999973,0.08280000000000065 0.3049999999999784,0.08500000000000085 0.309599999999989,0.08000000000000007 0.32509999999999195,0.08490000000000109 0.3363999999999976,0.07950000000000124 0.3491999999999962,0.08300000000000018 0.3523999999999887,0.08780000000000143 0.3573999999999842,0.09050000000000047 0.36709999999999354,0.08800000000000097 0.36599999999998545,0.09280000000000044 0.3673000000000002,0.09920000000000151 0.3791999999999973,0.11250000000000071 0.38479999999998427,0.11280000000000001 0.3877999999999986,0.11800000000000033 0.3937999999999988,0.12150000000000105 0.3990999999999758,0.12119999999999997 0.40689999999997895,0.1288999999999998 0.4170999999999765,0.13220000000000098 0.4159999999999968,0.12300000000000111 0.42729999999997403,0.12650000000000006 0.4306999999999732,0.1227999999999998 0.4359999999999786,0.12300000000000111 0.4373999999999967,0.11760000000000126 0.4514999999999816,0.12450000000000117 0.4573999999999785,0.12429999999999986 0.46479999999999677,0.12330000000000041 0.46009999999998286,0.11819999999999986 0.46479999999999677,0.11570000000000036 0.4777999999999736,0.11960000000000015 0.48469999999997526,0.11739999999999995 0.49029999999999063,0.11770000000000103 0.5027999999999793,0.1120000000000001 0.5032999999999959,0.11780000000000079 0.5061999999999784,0.12240000000000073 0.510799999999989,0.12540000000000084 0.5212999999999965,0.12540000000000084 0.5264999999999986,0.1272000000000002 0.5252999999999872,0.12310000000000088 0.5267999999999802,0.11050000000000004 0.5219999999999914,0.10390000000000121 0.5120000000000005,0.09890000000000043 0.5034999999999741,0.09780000000000122 0.4994999999999834,0.09440000000000026 0.48749999999998295,0.08910000000000018 0.4838999999999771,0.09370000000000012 0.4836999999999989,0.10020000000000095 0.47989999999998645,0.10299999999999976 0.4741999999999962,0.10350000000000037 0.4697999999999922,0.10320000000000107 0.45899999999997476,0.09360000000000035 0.45359999999999445,0.0940000000000012 0.4462999999999795,0.085700000000001 0.4258999999999844,0.08340000000000103 0.4235999999999933,0.10060000000000002 0.41449999999997544,0.10440000000000005 0.40979999999998995,0.10470000000000113 0.3990999999999758,0.09930000000000128 0.40559999999999263,0.09520000000000017 0.4088999999999885,0.0907 "></polygon><polygon points="0.5364999999999895,0.0945999999999998 0.5427999999999997,0.09170000000000122 0.5422999999999831,0.08550000000000146 0.5354999999999848,0.0840000000000014 0.5293999999999812,0.08580000000000076 0.5280999999999949,0.08990000000000009 0.5308999999999742,0.09360000000000035 0.5364999999999895,0.0945999999999998 "></polygon><polygon points="1.6692999999999927,0.1391000000000009 1.6683999999999912,0.12560000000000038 1.6656999999999869,0.11739999999999995 1.6593999999999767,0.11630000000000074 1.652499999999975,0.11800000000000033 1.6397999999999797,0.12170000000000059 1.6329999999999814,0.12600000000000122 1.617999999999995,0.11739999999999995 1.6044999999999732,0.10139999999999993 1.5979999999999848,0.10150000000000148 1.5921999999999912,0.10910000000000153 1.5907999999999731,0.11550000000000082 1.5848999999999762,0.1264000000000003 1.575099999999992,0.1377000000000006 1.5728999999999758,0.14320000000000022 1.573599999999999,0.15050000000000097 1.5833999999999833,0.1593 1.5880999999999972,0.15629999999999988 1.5923999999999978,0.15620000000000012 1.623599999999982,0.15850000000000009 1.6311999999999784,0.160400000000001 1.6503999999999905,0.1595000000000013 1.660899999999998,0.16130000000000067 1.6661000000000001,0.15840000000000032 1.6707999999999856,0.15310000000000024 1.6692999999999927,0.1391000000000009 "></polygon><polygon points="1.4690999999999974,0.19030000000000058 1.4609999999999843,0.20370000000000132 1.4692999999999756,0.21000000000000085 1.4726,0.21499999999999986 1.4779999999999802,0.21649999999999991 1.4794999999999732,0.2029000000000014 1.4829999999999757,0.19350000000000023 1.477199999999982,0.18190000000000062 1.473399999999998,0.18430000000000035 1.4690999999999974,0.19030000000000058 "></polygon><polygon points="1.4281000000000006,0.18979999999999997 1.4197999999999809,0.18700000000000117 1.4158999999999935,0.18900000000000006 1.4124999999999943,0.1930000000000014 1.4088999999999885,0.21080000000000076 1.4159999999999968,0.2129000000000012 1.4358000000000004,0.20700000000000074 1.4516999999999882,0.2065999999999999 1.4560999999999922,0.20530000000000115 1.4513999999999783,0.20230000000000103 1.440499999999986,0.1991000000000014 1.4281000000000006,0.18979999999999997 "></polygon><polygon points="0.0,3.3169000000000004 0.0008999999999730335,3.3223000000000003 0.011899999999997135,3.325100000000001 0.018699999999995498,3.3245000000000005 0.022899999999992815,3.320500000000001 0.022499999999979536,3.315900000000001 0.012000000000000455,3.308200000000001 0.007399999999989859,3.3081000000000014 0.0,3.3169000000000004 "></polygon>
    </svg>
    