
    <svg width="5.8352" height="3.510300000000001" xmlns="http://www.w3.org/2000/svg" xmlns:xlink="http://www.w3.org/1999/xlink" style="transform: scale(1, -1)">
        <polygon points="4.105600000000003,0.073599999999999 4.1068,0.03979999999999961 4.097799999999999,0.04019999999999868 4.066200000000002,0.04830000000000467 4.046300000000002,0.046100000000002694 4.018500000000003,0.04740000000000322 4.0,0.03860000000000241 3.994500000000002,0.037800000000004275 3.9799000000000007,0.02130000000000365 3.9695000000000036,0.01300000000000523 3.960100000000004,0.009500000000002728 3.9421000000000035,0.008099999999998886 3.9243000000000023,0.0030000000000001137 3.9055000000000035,0.0 3.8748000000000005,0.0012000000000043087 3.859400000000001,0.005200000000002092 3.838800000000006,0.014500000000005286 3.8342000000000027,0.018200000000000216 3.829800000000006,0.023200000000002774 3.812900000000006,0.059000000000004604 3.8074000000000012,0.06680000000000064 3.797700000000006,0.07789999999999964 3.780000000000001,0.09199999999999875 3.762600000000006,0.11010000000000275 3.7475000000000023,0.11830000000000496 3.7438000000000002,0.12180000000000035 3.7362000000000037,0.1355000000000004 3.7361000000000004,0.14240000000000208 3.7310000000000016,0.15040000000000475 3.7209000000000003,0.15350000000000108 3.7021000000000015,0.155300000000004 3.6962000000000046,0.15990000000000038 3.6887000000000043,0.17390000000000327 3.6888000000000005,0.20000000000000284 3.6884000000000015,0.20250000000000057 3.6846999999999994,0.20600000000000307 3.6708,0.21280000000000143 3.6599000000000004,0.2143000000000015 3.6504000000000048,0.21229999999999905 3.631300000000003,0.20400000000000063 3.617600000000003,0.20400000000000063 3.6011000000000024,0.20080000000000098 3.5868000000000038,0.1962000000000046 3.5804000000000045,0.19590000000000174 3.5431000000000026,0.20420000000000016 3.535900000000005,0.210799999999999 3.530700000000003,0.21930000000000405 3.528100000000002,0.23290000000000077 3.5215999999999994,0.24340000000000117 3.5137,0.24790000000000134 3.490700000000004,0.25619999999999976 3.482600000000005,0.26420000000000243 3.478900000000003,0.29010000000000247 3.4802999999999997,0.2957000000000036 3.485900000000001,0.30460000000000065 3.4806000000000026,0.31340000000000146 3.478900000000003,0.32220000000000226 3.477000000000004,0.32440000000000424 3.441900000000004,0.3382000000000005 3.4247000000000014,0.3504000000000005 3.4147999999999996,0.3546000000000049 3.3867000000000047,0.3586999999999989 3.3575000000000017,0.3697000000000017 3.3434000000000026,0.37060000000000315 3.339500000000001,0.3721999999999994 3.3393000000000015,0.3757000000000019 3.331400000000002,0.38520000000000465 3.318400000000004,0.39000000000000057 3.2774,0.4117000000000033 3.2730999999999995,0.4154000000000053 3.264000000000003,0.428600000000003 3.2451000000000008,0.4480000000000004 3.2409000000000034,0.4590000000000032 3.2364999999999995,0.48150000000000404 3.2409000000000034,0.5074000000000041 3.2439000000000036,0.5104000000000042 3.2476000000000056,0.5117000000000047 3.2549000000000063,0.5082000000000022 3.2638999999999996,0.5061999999999998 3.2972000000000037,0.5080000000000027 3.3063000000000002,0.5132000000000048 3.310200000000002,0.5341999999999985 3.314,0.5389000000000053 3.3324,0.5446999999999989 3.3686000000000007,0.5471000000000004 3.389800000000001,0.5548000000000002 3.428200000000004,0.555800000000005 3.4741,0.5641999999999996 3.5031000000000034,0.5653000000000006 3.5191000000000017,0.5678000000000054 3.551300000000005,0.5838999999999999 3.5808000000000035,0.5960000000000036 3.5911000000000044,0.6041999999999987 3.5961,0.6135000000000019 3.596500000000006,0.6176999999999992 3.594700000000003,0.6277000000000044 3.592000000000006,0.6333000000000055 3.5852000000000004,0.6433000000000035 3.5675000000000026,0.6628000000000043 3.5464000000000055,0.6828000000000003 3.5336,0.691900000000004 3.528800000000004,0.7117000000000004 3.5254000000000048,0.7143000000000015 3.5138999999999996,0.7160000000000011 3.505100000000006,0.7212999999999994 3.4835000000000065,0.7242000000000033 3.4735000000000014,0.728900000000003 3.4658000000000015,0.7302999999999997 3.456300000000006,0.7375000000000043 3.4525000000000006,0.7418000000000049 3.4509000000000043,0.7495000000000047 3.4452,0.7587000000000046 3.4458000000000055,0.7635000000000005 3.4299000000000035,0.7734999999999985 3.4195000000000064,0.776600000000002 3.3911000000000016,0.7904000000000053 3.3678000000000026,0.8068000000000026 3.367600000000003,0.8102000000000018 3.363900000000001,0.8133000000000052 3.367600000000003,0.8220999999999989 3.3629000000000033,0.8267999999999986 3.3570000000000064,0.8430999999999997 3.3603000000000023,0.8569000000000031 3.3592000000000013,0.867600000000003 3.3622000000000014,0.8714000000000013 3.3701000000000008,0.8728000000000051 3.3715000000000046,0.8783999999999992 3.3770000000000024,0.8828000000000031 3.3803000000000054,0.8899000000000044 3.392700000000005,0.9004000000000048 3.3991000000000042,0.9008000000000038 3.4073000000000064,0.9070000000000036 3.4193,0.9100000000000037 3.4210000000000065,0.9151000000000025 3.424100000000003,0.917900000000003 3.435300000000005,0.9245000000000019 3.4405,0.9258000000000024 3.4459000000000017,0.9241000000000028 3.4605999999999995,0.9296000000000006 3.4716000000000022,0.9284000000000034 3.4861000000000004,0.9325000000000045 3.4924000000000035,0.936399999999999 3.4924000000000035,0.9414000000000016 3.497700000000002,0.9405000000000001 3.5183999999999997,0.9502999999999986 3.5350000000000037,0.9552000000000049 3.5423000000000044,0.9605000000000032 3.5530000000000044,0.9601000000000042 3.564700000000002,0.9664000000000001 3.602000000000004,0.9736000000000047 3.5804000000000045,0.9853000000000023 3.5465000000000018,1.0117000000000047 3.5254000000000048,1.0234999999999985 3.5119000000000042,1.0361000000000047 3.4943000000000026,1.0474999999999994 3.4858000000000047,1.0561000000000007 3.461100000000002,1.0731000000000037 3.420900000000003,1.1047000000000011 3.405300000000004,1.1211000000000055 3.375700000000002,1.166400000000003 3.3522999999999996,1.180100000000003 3.3277,1.1991000000000014 3.3116000000000057,1.2142000000000053 3.3034000000000034,1.225999999999999 3.2861000000000047,1.2451000000000008 3.2329000000000008,1.2835000000000036 3.218200000000003,1.2991000000000028 3.2124000000000024,1.2973 3.2032000000000025,1.289200000000001 3.1744000000000057,1.2728000000000037 3.156400000000005,1.265500000000003 3.1396000000000015,1.262599999999999 3.1271000000000058,1.2576999999999998 3.0630000000000024,1.2617000000000047 3.0352000000000032,1.252900000000004 2.969300000000004,1.200800000000001 2.8482000000000056,1.1484999999999985 2.8263999999999996,1.1366000000000014 2.7953000000000046,1.1156000000000006 2.769300000000001,1.102400000000003 2.7333,1.0909000000000049 2.7055000000000007,1.0842000000000027 2.6529000000000025,1.066600000000001 2.6318000000000055,1.0656000000000034 2.6123000000000047,1.0604000000000013 2.6007999999999996,1.0434000000000054 2.5653000000000006,1.0067000000000021 2.5527000000000015,0.9864000000000033 2.538000000000004,0.9746999999999986 2.454900000000002,0.9336000000000055 2.4380000000000024,0.914200000000001 2.3711000000000055,0.9012000000000029 2.326600000000006,0.873899999999999 2.310600000000001,0.8622000000000014 2.292100000000005,0.8459000000000003 2.2878000000000043,0.8282000000000025 2.274700000000003,0.7968000000000046 2.2606000000000037,0.7786000000000044 2.248900000000006,0.7700000000000031 2.2405000000000044,0.7655999999999992 2.2250000000000014,0.764800000000001 2.223000000000006,0.754800000000003 2.1822000000000017,0.7353000000000023 2.1643000000000043,0.7475999999999985 2.1521000000000043,0.7591000000000037 2.135300000000001,0.7583000000000055 2.1158,0.7550999999999988 2.0979000000000028,0.7499000000000038 2.0801000000000016,0.7424000000000035 2.067700000000002,0.7220000000000013 2.0265000000000057,0.6904000000000039 1.9912000000000063,0.656800000000004 1.9872000000000014,0.6368000000000009 1.9824000000000055,0.6266999999999996 1.9569000000000045,0.6111000000000004 1.9303000000000026,0.6097999999999999 1.921200000000006,0.6006 1.9051000000000045,0.5910000000000011 1.9002000000000052,0.5819000000000045 1.886100000000006,0.564700000000002 1.8731000000000009,0.5519999999999996 1.8544000000000054,0.5401000000000025 1.8366000000000042,0.5183000000000035 1.7979000000000056,0.49320000000000164 1.7745999999999995,0.4755000000000038 1.7708000000000013,0.49090000000000344 1.7687000000000026,0.5089000000000041 1.7481000000000009,0.5358000000000018 1.7409999999999997,0.5502000000000038 1.7439000000000036,0.5606000000000009 1.7550000000000026,0.5722000000000023 1.755500000000005,0.5771000000000015 1.7513000000000005,0.5844000000000023 1.7523000000000053,0.5927000000000007 1.7709000000000046,0.6362999999999985 1.778500000000001,0.6443000000000012 1.7801000000000045,0.6495999999999995 1.7793000000000063,0.6521000000000043 1.7734000000000023,0.6550000000000011 1.757400000000004,0.6569000000000003 1.7510000000000048,0.6630000000000038 1.7505000000000024,0.6655000000000015 1.7543000000000006,0.6719000000000008 1.7636000000000038,0.6768000000000001 1.7656000000000063,0.680800000000005 1.764800000000001,0.6837000000000018 1.7556000000000012,0.694500000000005 1.7397000000000062,0.7013999999999996 1.7356000000000051,0.7083000000000013 1.7367000000000061,0.7152999999999992 1.7355000000000018,0.719300000000004 1.7191000000000045,0.7281000000000049 1.7177000000000007,0.7308000000000021 1.7188000000000017,0.7356000000000051 1.726700000000001,0.7466000000000008 1.7180000000000035,0.7507000000000019 1.7026000000000039,0.7456000000000031 1.689,0.752200000000002 1.6796000000000006,0.7524000000000015 1.6756000000000029,0.7542000000000044 1.6719000000000008,0.7593000000000032 1.666800000000002,0.7737000000000052 1.665700000000001,0.7826000000000022 1.6669000000000054,0.792500000000004 1.6726000000000028,0.7986000000000004 1.681900000000006,0.8000000000000043 1.6950000000000003,0.7986000000000004 1.7191000000000045,0.7893000000000043 1.7223000000000042,0.7899000000000029 1.7405000000000044,0.8081000000000031 1.7516999999999996,0.8115999999999985 1.7556000000000012,0.8105000000000047 1.7606000000000037,0.8043000000000049 1.7635000000000005,0.7740000000000009 1.7682000000000002,0.7670999999999992 1.7771000000000043,0.7772000000000006 1.787700000000001,0.7839000000000027 1.7974999999999994,0.7971000000000004 1.8059000000000012,0.805100000000003 1.8223000000000056,0.8139000000000038 1.8490000000000038,0.8183000000000007 1.8574000000000055,0.8233000000000033 1.8551000000000002,0.8271000000000015 1.8505000000000038,0.828000000000003 1.8242000000000047,0.8287000000000049 1.8197000000000045,0.8301000000000016 1.8150000000000048,0.8327999999999989 1.8120000000000047,0.8370000000000033 1.805800000000005,0.8511000000000024 1.7780000000000058,0.8586000000000027 1.766600000000004,0.8716000000000008 1.7587000000000046,0.8941000000000017 1.758100000000006,0.8969999999999985 1.764800000000001,0.9052000000000007 1.7653999999999996,0.9091000000000022 1.7630000000000052,0.9162999999999997 1.7331000000000003,0.9468000000000032 1.729300000000002,0.9470999999999989 1.7157000000000053,0.9365000000000023 1.704900000000002,0.9321000000000055 1.694500000000005,0.9361000000000033 1.6578000000000017,0.9575999999999993 1.6514000000000024,0.963000000000001 1.6358999999999995,0.9812000000000012 1.628700000000002,0.9986999999999995 1.6158000000000001,1.0209000000000046 1.6140000000000043,1.0279000000000025 1.6186000000000007,1.0332000000000008 1.6255000000000024,1.0379000000000005 1.6286000000000058,1.0500000000000043 1.6356000000000037,1.057700000000004 1.6397000000000048,1.058800000000005 1.654200000000003,1.0581999999999994 1.6772000000000062,1.0528000000000048 1.6885000000000048,1.0518 1.694500000000005,1.0546000000000006 1.7125000000000057,1.0789000000000044 1.7217000000000056,1.0854 1.7260000000000062,1.086500000000001 1.7302000000000035,1.0863000000000014 1.7351000000000028,1.0836000000000041 1.741500000000002,1.0756000000000014 1.7595000000000027,1.0722000000000023 1.7675000000000054,1.0685000000000002 1.776600000000002,1.0694000000000017 1.7744,1.0744000000000042 1.7695000000000007,1.0793999999999997 1.7376000000000005,1.1034000000000006 1.732600000000005,1.1167000000000016 1.733700000000006,1.1204000000000036 1.7381000000000029,1.1238000000000028 1.7525000000000048,1.128700000000002 1.7641000000000062,1.1350000000000051 1.7721000000000018,1.1452999999999989 1.7819000000000003,1.148299999999999 1.7981000000000051,1.1469000000000023 1.8009000000000057,1.1484000000000023 1.8002000000000038,1.1532000000000053 1.7904000000000053,1.170100000000005 1.7737000000000052,1.1781000000000006 1.7652,1.187100000000001 1.7567000000000021,1.190100000000001 1.7061000000000064,1.1852000000000018 1.6944000000000017,1.177500000000002 1.6798000000000002,1.1813000000000002 1.6761000000000053,1.179300000000005 1.674900000000001,1.176400000000001 1.6711000000000027,1.1753 1.6639000000000053,1.1765000000000043 1.6552000000000007,1.1846000000000032 1.6533000000000015,1.1932000000000045 1.6570999999999998,1.2172000000000054 1.6565000000000012,1.2231000000000023 1.6518000000000015,1.2259000000000029 1.6421000000000063,1.2256 1.6337000000000046,1.216000000000001 1.6263000000000005,1.2133000000000038 1.6174999999999997,1.2225000000000037 1.6086000000000027,1.225200000000001 1.6012000000000057,1.2388000000000048 1.5956000000000046,1.241500000000002 1.577300000000001,1.2398000000000025 1.5544000000000011,1.2345000000000041 1.5142000000000024,1.216000000000001 1.4884000000000057,1.2066000000000017 1.4749000000000052,1.2054000000000045 1.4465000000000003,1.210799999999999 1.4346000000000032,1.2085000000000008 1.4277000000000015,1.205200000000005 1.4170000000000016,1.1863000000000028 1.4115000000000038,1.1850000000000023 1.4069000000000003,1.1868000000000052 1.4033000000000015,1.190800000000003 1.4065000000000012,1.2036000000000016 1.4000000000000057,1.2133000000000038 1.3997000000000028,1.2172000000000054 1.4029000000000025,1.2233000000000018 1.4029000000000025,1.2272000000000034 1.395300000000006,1.2424000000000035 1.3873000000000033,1.2483000000000004 1.358700000000006,1.2623999999999995 1.333200000000005,1.281400000000005 1.3289000000000044,1.2830000000000013 1.3178000000000054,1.280700000000003 1.307700000000004,1.2809000000000026 1.2957999999999998,1.2880000000000038 1.2917000000000058,1.2937000000000012 1.3031000000000006,1.3015000000000043 1.3002000000000038,1.307700000000004 1.2679000000000045,1.3229000000000042 1.2616000000000014,1.3331000000000017 1.2602000000000046,1.3385000000000034 1.2498000000000005,1.3477999999999994 1.2363,1.3556999999999988 1.230400000000003,1.3644000000000034 1.227400000000003,1.377200000000002 1.2234000000000052,1.3811999999999998 1.1692000000000036,1.3963000000000036 1.1142000000000039,1.4159000000000006 1.0722000000000023,1.425699999999999 1.0593000000000004,1.4339000000000013 1.0564000000000036,1.438600000000001 1.0533000000000001,1.457100000000004 1.0391000000000048,1.5083000000000055 1.0386000000000024,1.526600000000002 1.0335999999999999,1.5337999999999994 1.018100000000004,1.5401000000000025 1.0014000000000038,1.5429999999999993 0.9793000000000021,1.5427000000000035 0.9729000000000028,1.5442000000000036 0.9450000000000003,1.562100000000001 0.8913000000000011,1.5748999999999995 0.8611000000000004,1.576900000000002 0.8483000000000018,1.5874000000000024 0.8445999999999998,1.5936000000000021 0.8442000000000007,1.602800000000002 0.8060000000000045,1.602800000000002 0.8161000000000058,1.616100000000003 0.8263999999999996,1.6264000000000038 0.8613,1.642400000000002 0.8807000000000045,1.6437000000000026 0.9727999999999994,1.6362999999999985 0.9878,1.6311000000000035 1.016300000000001,1.6107000000000014 1.0359000000000052,1.6037999999999997 1.041800000000002,1.6036000000000001 1.0461000000000027,1.6052999999999997 1.0838999999999999,1.627200000000002 1.090600000000002,1.6288000000000054 1.1030000000000015,1.6273000000000053 1.108700000000006,1.6298999999999992 1.1122000000000014,1.6332000000000022 1.1243000000000052,1.675699999999999 1.1223000000000027,1.7020000000000053 1.1251999999999995,1.7079000000000022 1.1341999999999999,1.714500000000001 1.1615000000000038,1.7254000000000005 1.1695000000000064,1.731100000000005 1.1743000000000023,1.736699999999999 1.1826000000000008,1.7484000000000037 1.1929000000000016,1.8018 1.2001000000000062,1.8083000000000027 1.2046000000000063,1.8156999999999996 1.2028000000000034,1.821000000000005 1.1863000000000028,1.8382000000000005 1.1759000000000057,1.8451000000000022 1.1441000000000017,1.8531000000000049 1.1377000000000024,1.8567000000000036 1.1343999999999994,1.8625000000000043 1.136800000000001,1.8700000000000045 1.1418999999999997,1.8708000000000027 1.1720000000000041,1.862400000000001 1.1802000000000064,1.8651000000000053 1.182700000000004,1.868000000000002 1.1796000000000006,1.8721999999999994 1.1491000000000042,1.8960000000000008 1.1401000000000039,1.9006000000000043 1.1329000000000065,1.9017000000000053 1.084700000000005,1.8989000000000047 1.075800000000001,1.8999999999999986 1.0689000000000064,1.9042999999999992 1.0598000000000027,1.914200000000001 1.0378000000000043,1.9292000000000016 0.9802000000000035,1.9515999999999991 0.9194000000000031,1.9680000000000035 0.9010000000000034,1.9712000000000032 0.8726000000000056,1.9726 0.8552999999999997,1.9875000000000043 0.8434000000000026,2.002900000000004 0.8267000000000024,2.0175000000000054 0.7921000000000049,2.041400000000003 0.7819000000000003,2.062100000000001 0.7734000000000023,2.0718999999999994 0.752200000000002,2.081299999999999 0.7116000000000042,2.0857000000000028 0.6710000000000065,2.1098 0.6632000000000033,2.116800000000005 0.6609000000000052,2.1263000000000005 0.6624000000000052,2.1351000000000013 0.6729000000000056,2.1499999999999986 0.6656000000000049,2.1617999999999995 0.666400000000003,2.1677999999999997 0.678600000000003,2.1861999999999995 0.6652000000000058,2.203700000000005 0.6584000000000003,2.205200000000005 0.6399000000000044,2.215299999999999 0.613900000000001,2.212700000000005 0.6036000000000001,2.2173000000000016 0.5990000000000038,2.2224000000000004 0.5980000000000061,2.234500000000004 0.6001000000000047,2.2413999999999987 0.5992999999999995,2.2453000000000003 0.5953000000000017,2.2497000000000043 0.5847000000000051,2.2545 0.5825000000000031,2.2597999999999985 0.5840999999999994,2.2712000000000003 0.6022000000000034,2.2958 0.6256000000000057,2.315800000000003 0.6358000000000033,2.3392000000000053 0.6408000000000058,2.343200000000003 0.6688000000000045,2.3522999999999996 0.7309000000000054,2.390500000000003 0.7974000000000032,2.4273000000000025 0.8081000000000031,2.4369000000000014 0.8135000000000048,2.444500000000005 0.8212000000000046,2.460799999999999 0.8231000000000037,2.470400000000005 0.8215000000000003,2.4894000000000034 0.8196000000000012,2.4954000000000036 0.8156000000000034,2.499200000000002 0.8076000000000008,2.502600000000001 0.7956000000000003,2.4983000000000004 0.7911000000000001,2.5046000000000035 0.776600000000002,2.511400000000002 0.7531999999999996,2.514700000000005 0.7497000000000043,2.516600000000004 0.7418000000000049,2.5289 0.7382000000000062,2.5305999999999997 0.7191000000000045,2.5290000000000035 0.7225000000000037,2.5444999999999993 0.7202000000000055,2.5468000000000046 0.7115000000000009,2.548400000000001 0.7039000000000044,2.5534000000000034 0.6990000000000052,2.560600000000001 0.6983999999999995,2.5752000000000024 0.6920000000000002,2.581299999999999 0.6859999999999999,2.5825999999999993 0.6514000000000024,2.570599999999999 0.6410000000000053,2.572500000000005 0.6371000000000038,2.575099999999999 0.6362000000000023,2.5808000000000035 0.6393000000000058,2.605699999999999 0.6585999999999999,2.627900000000004 0.6582000000000008,2.6318000000000055 0.6534000000000049,2.6333000000000055 0.6296999999999997,2.6311000000000035 0.5698000000000008,2.606100000000005 0.5616000000000057,2.6049000000000007 0.5457000000000036,2.6060000000000016 0.5405000000000015,2.6118000000000023 0.5240000000000009,2.639400000000002 0.5190000000000055,2.642700000000005 0.5136000000000038,2.643500000000003 0.494800000000005,2.634900000000002 0.47570000000000334,2.6418999999999997 0.42090000000000316,2.674500000000002 0.39230000000000587,2.6828000000000003 0.35880000000000223,2.686800000000005 0.3516000000000048,2.6854000000000013 0.3159000000000063,2.6865000000000023 0.29640000000000555,2.6958000000000055 0.29520000000000124,2.7045999999999992 0.3068000000000026,2.716000000000001 0.3614000000000033,2.7220000000000013 0.3925000000000054,2.7294000000000054 0.40570000000000306,2.734400000000001 0.41800000000000637,2.7475999999999985 0.4317000000000064,2.7501000000000033 0.43430000000000035,2.7535000000000025 0.4305000000000021,2.7572000000000045 0.4204000000000008,2.7623999999999995 0.395300000000006,2.764800000000001 0.38569999999999993,2.7744 0.3580000000000041,2.811800000000005 0.3487000000000009,2.814 0.3383000000000038,2.812400000000004 0.3083000000000027,2.7956000000000003 0.301400000000001,2.795100000000005 0.26790000000000447,2.7989000000000033 0.244800000000005,2.796900000000001 0.2383000000000024,2.8027000000000015 0.23860000000000525,2.8115999999999985 0.26490000000000435,2.8263999999999996 0.2744,2.839800000000004 0.27410000000000423,2.8492000000000033 0.2722000000000051,2.8541999999999987 0.2488000000000028,2.8778000000000006 0.2442000000000064,2.8948000000000036 0.2407000000000039,2.8995000000000033 0.23150000000000404,2.904200000000003 0.2739000000000047,2.9176 0.29650000000000176,2.9301999999999992 0.31860000000000355,2.9355000000000047 0.330600000000004,2.9410000000000025 0.3400000000000034,2.9491000000000014 0.3719999999999999,2.986000000000004 0.38510000000000133,2.994399999999999 0.3995999999999995,3.007800000000003 0.4061000000000021,3.0107 0.4339000000000013,3.0149000000000044 0.450800000000001,3.027799999999999 0.4731000000000023,3.0381 0.4814000000000007,3.0563000000000002 0.48799999999999955,3.061800000000005 0.5163000000000011,3.0633000000000052 0.5269000000000048,3.069200000000002 0.5343000000000018,3.0709000000000017 0.5446000000000026,3.069500000000005 0.5579999999999998,3.064 0.5725000000000051,3.052199999999999 0.6193000000000026,3.028500000000001 0.6345000000000027,3.0289 0.6403999999999996,3.0317000000000007 0.6643000000000043,3.0519999999999996 0.6846999999999994,3.0504000000000033 0.6918000000000006,3.0474999999999994 0.7142000000000053,3.028400000000005 0.7231000000000023,3.0243000000000038 0.7756000000000043,3.0131000000000014 0.7890000000000015,3.008500000000005 0.7938000000000045,3.0001999999999995 0.7972000000000037,2.9853000000000023 0.8081000000000031,2.9772999999999996 0.8165000000000049,2.974499999999999 0.8248000000000033,2.9724000000000004 0.8429000000000002,2.976300000000002 0.8606000000000051,2.977499999999999 0.8718000000000004,2.9754000000000005 0.8986000000000018,2.963300000000004 0.9159000000000006,2.960100000000004 0.9369000000000014,2.9699000000000026 0.9426000000000059,2.9696 0.9640000000000057,2.9528999999999996 0.9654000000000025,2.9498000000000033 0.9631000000000043,2.9472000000000023 0.9579000000000022,2.9459000000000017 0.9425000000000026,2.9455000000000027 0.9329000000000036,2.9432000000000045 0.9224999999999994,2.935200000000002 0.9124000000000052,2.9213000000000022 0.9070000000000036,2.9204000000000008 0.9040999999999997,2.9161 0.9039000000000001,2.912700000000001 0.9446000000000012,2.867600000000003 0.9727999999999994,2.853100000000005 0.9945000000000022,2.844999999999999 1.0149000000000044,2.8330000000000055 1.0334000000000003,2.8277 1.0482000000000014,2.8255000000000052 1.0722000000000023,2.8262 1.0842000000000027,2.8237999999999985 1.1244000000000014,2.808500000000002 1.1455000000000055,2.7942000000000036 1.1713000000000022,2.783200000000001 1.2037000000000049,2.7816000000000045 1.2327000000000012,2.7861000000000047 1.2550000000000026,2.7843000000000018 1.2808000000000064,2.7854000000000028 1.3093000000000004,2.7790999999999997 1.3229000000000042,2.7849000000000004 1.3300000000000054,2.804300000000005 1.3486000000000047,2.808100000000003 1.367200000000004,2.792900000000003 1.3799000000000063,2.785900000000005 1.4161000000000001,2.7878000000000043 1.452300000000001,2.779900000000005 1.4646000000000043,2.7779000000000025 1.4727999999999994,2.7786000000000044 1.4894000000000034,2.7597000000000023 1.5009000000000015,2.7426999999999992 1.541000000000004,2.7287999999999997 1.5456000000000003,2.7241 1.5678000000000054,2.7147000000000006 1.5733000000000033,2.706299999999999 1.5904000000000025,2.702300000000001 1.5956000000000046,2.699000000000005 1.6006,2.690100000000001 1.6047000000000011,2.6888000000000005 1.6158000000000001,2.691200000000002 1.6299000000000063,2.6891999999999996 1.6343999999999994,2.693800000000003 1.6414000000000044,2.694099999999999 1.6476000000000042,2.6870000000000047 1.6495999999999995,2.6792000000000016 1.6577000000000055,2.6681000000000026 1.6940000000000026,2.641300000000001 1.7608999999999995,2.653100000000002 1.7957999999999998,2.664500000000004 1.8392000000000053,2.667900000000003 1.851300000000002,2.6595000000000013 1.854600000000005,2.6647000000000034 1.853500000000004,2.6685000000000016 1.8663000000000025,2.681600000000003 1.8735,2.6972999999999985 1.8656000000000006,2.7103000000000037 1.870200000000004,2.7149 1.870900000000006,2.7221000000000046 1.8780000000000001,2.7304999999999993 1.876100000000001,2.7605000000000004 1.8793000000000006,2.7683000000000035 1.8858999999999995,2.771000000000001 1.8858999999999995,2.7827000000000055 1.8896000000000015,2.7852000000000032 1.880900000000004,2.797699999999999 1.8788000000000054,2.8076000000000008 1.8963000000000036,2.8256000000000014 1.900100000000002,2.8330000000000055 1.9176000000000002,2.8462999999999994 1.9185000000000016,2.8667000000000016 1.9343000000000004,2.882000000000005 1.9440000000000026,2.8858000000000033 1.9488000000000056,2.889700000000005 1.9483999999999995,2.8941000000000017 1.943000000000005,2.8995000000000033 1.916800000000002,2.9018000000000015 1.919000000000004,2.9059000000000026 1.9177000000000035,2.908999999999999 1.9111000000000047,2.913800000000002 1.9070999999999998,2.9191000000000003 1.909400000000005,2.925200000000004 1.9055000000000035,2.933100000000003 1.909000000000006,2.935600000000001 1.9078000000000017,2.938200000000002 1.9030000000000058,2.939300000000003 1.8926000000000016,2.9369000000000014 1.8858000000000033,2.9380999999999986 1.8862000000000023,2.9495000000000005 1.883500000000005,2.951100000000004 1.8780000000000001,2.950099999999999 1.8753000000000029,2.9512 1.8788000000000054,2.955300000000001 1.879100000000001,2.9646000000000043 1.8766000000000034,2.9703000000000017 1.8718000000000004,2.971499999999999 1.8695000000000022,2.9643000000000015 1.8701000000000008,2.960100000000004 1.8651000000000053,2.954500000000003 1.8597000000000037,2.9588000000000036 1.8474000000000004,2.960000000000001 1.8510000000000062,2.965600000000002 1.8607000000000014,2.967500000000001 1.8658000000000001,2.9757000000000033 1.8625000000000043,2.980400000000003 1.8571000000000026,2.982600000000005 1.8534000000000006,2.9754000000000005 1.848700000000001,2.9765000000000015 1.8440000000000012,2.9828000000000046 1.8398000000000039,2.9802999999999997 1.8344000000000023,2.980400000000003 1.8338000000000036,2.9846000000000004 1.8368000000000038,2.9923 1.8335000000000008,2.9955 1.8300000000000054,2.9955 1.8263999999999996,2.988900000000001 1.8223000000000056,2.9909999999999997 1.8211000000000013,2.9936000000000007 1.7911000000000001,3.0009000000000015 1.7886000000000024,3.005600000000001 1.7162000000000006,3.026299999999999 1.6894000000000062,3.0409000000000006 1.681200000000004,3.0523999999999987 1.6722000000000037,3.0593000000000004 1.666000000000004,3.061800000000005 1.643500000000003,3.0626999999999995 1.6408000000000058,3.0641999999999996 1.6388999999999996,3.0775000000000006 1.5793000000000035,3.095400000000005 1.5696000000000012,3.101700000000001 1.5653000000000006,3.107600000000005 1.568000000000005,3.1219000000000037 1.5656999999999996,3.1307000000000045 1.5382999999999996,3.1589000000000027 1.5313000000000017,3.170100000000005 1.5289000000000001,3.180900000000001 1.533300000000004,3.189399999999999 1.525500000000001,3.201100000000004 1.4960000000000022,3.2107000000000028 1.501800000000003,3.2256 1.4858000000000047,3.236000000000004 1.4784000000000006,3.2471999999999994 1.475200000000001,3.2576000000000036 1.4783000000000044,3.270400000000002 1.500700000000002,3.313200000000002 1.4990000000000023,3.321300000000001 1.5157000000000025,3.3474000000000004 1.518100000000004,3.3593000000000046 1.515500000000003,3.3759000000000015 1.517700000000005,3.383200000000002 1.523300000000006,3.389000000000003 1.5668000000000006,3.418300000000002 1.5885999999999996,3.429400000000001 1.6042000000000058,3.435300000000005 1.6206000000000031,3.447800000000001 1.6264000000000038,3.453800000000001 1.6372,3.4702000000000055 1.6421000000000063,3.4824000000000055 1.6456000000000017,3.510300000000001 1.658300000000004,3.4975000000000023 1.6700000000000017,3.4921000000000006 1.7000000000000028,3.488800000000005 1.7357000000000014,3.489699999999999 1.7608000000000033,3.4825000000000017 1.7671000000000063,3.476600000000005 1.7683000000000035,3.4284000000000034 1.7719000000000023,3.4223 1.7794000000000025,3.4155000000000015 1.7882999999999996,3.4106000000000023 1.8042000000000016,3.409400000000005 1.8120000000000047,3.4116 1.8245000000000005,3.4158000000000044 1.8403000000000063,3.424199999999999 1.8747000000000043,3.4359000000000037 1.8888999999999996,3.4375 1.9203000000000046,3.4299999999999997 1.9278000000000048,3.432700000000004 1.930500000000002,3.4372000000000043 1.931200000000004,3.4440000000000026 1.9337000000000018,3.4487999999999985 1.9543000000000035,3.4605999999999995 1.9761000000000024,3.465900000000005 1.9820000000000064,3.4629000000000048 1.9886000000000053,3.4558000000000035 1.991500000000002,3.4470000000000027 1.9916000000000054,3.4387000000000043 2.0010000000000048,3.4185000000000016 2.0013000000000005,3.4036000000000044 2.0086000000000013,3.3882000000000048 2.0346000000000046,3.3699000000000012 2.058500000000002,3.3507000000000033 2.0645000000000024,3.3445000000000036 2.0671000000000035,3.337299999999999 2.0733000000000033,3.3340999999999994 2.0826000000000064,3.3308000000000035 2.123200000000004,3.3344000000000023 2.1304000000000016,3.332799999999999 2.1377000000000024,3.3270000000000053 2.144200000000005,3.3183000000000007 2.1478000000000037,3.299100000000003 2.1456000000000017,3.2926 2.1462000000000003,3.2882000000000033 2.167900000000003,3.259900000000002 2.1869000000000014,3.2423 2.213000000000001,3.2398999999999987 2.2210000000000036,3.237100000000005 2.225900000000003,3.233000000000004 2.231200000000001,3.2209000000000003 2.2284000000000006,3.2154999999999987 2.220800000000004,3.211200000000005 2.215200000000003,3.2043000000000035 2.2150999999999996,3.1983999999999995 2.2162000000000006,3.1923999999999992 2.2372000000000014,3.1587999999999994 2.2605000000000004,3.1614000000000004 2.2798000000000016,3.157200000000003 2.286300000000004,3.1587999999999994 2.2908000000000044,3.1628000000000043 2.293300000000002,3.1732000000000014 2.303600000000003,3.180399999999999 2.328300000000006,3.190000000000005 2.337200000000003,3.189700000000002 2.3442000000000007,3.1855000000000047 2.3479000000000028,3.181200000000004 2.3476,3.168600000000005 2.3514000000000053,3.1566000000000045 2.3628,3.145400000000002 2.3926000000000016,3.126100000000001 2.390900000000002,3.1193000000000026 2.3929000000000045,3.109400000000001 2.3907000000000025,3.098700000000001 2.3941000000000017,3.095100000000002 2.4073000000000064,3.0884 2.4147999999999996,3.082100000000004 2.4207000000000036,3.070700000000002 2.422700000000006,3.0600999999999985 2.4272000000000062,3.054700000000004 2.454900000000002,3.045100000000005 2.4551000000000016,3.0397999999999996 2.443400000000004,3.0249000000000024 2.441500000000005,3.0145000000000053 2.443100000000001,3.0068000000000055 2.4512,3.0010000000000048 2.468900000000005,3.002600000000001 2.475200000000001,3.0012000000000043 2.478900000000003,2.996700000000004 2.4805000000000064,2.988800000000005 2.4805000000000064,2.966799999999999 2.484400000000001,2.9602000000000004 2.487000000000002,2.9391000000000034 2.4898000000000025,2.927500000000002 2.4973000000000027,2.9213000000000022 2.552500000000002,2.894300000000001 2.6323000000000008,2.869100000000003 2.640800000000006,2.8685000000000045 2.6593000000000018,2.873200000000004 2.669400000000003,2.8740000000000023 2.6766000000000005,2.8725000000000023 2.6859000000000037,2.8673 2.705600000000004,2.870899999999999 2.7119,2.8691999999999993 2.724500000000006,2.859100000000005 2.724400000000003,2.8460000000000036 2.7227999999999994,2.8400999999999996 2.727800000000002,2.8344000000000023 2.763300000000001,2.8100000000000023 2.769300000000001,2.809100000000001 2.7881,2.8130999999999986 2.799100000000003,2.8173999999999992 2.8116000000000057,2.8190000000000026 2.8248000000000033,2.825000000000003 2.8331000000000017,2.8338000000000036 2.8411000000000044,2.8392000000000053 2.8518000000000043,2.8408000000000015 2.858400000000003,2.839400000000005 2.871600000000001,2.8290000000000006 2.8781000000000034,2.826599999999999 2.8895000000000053,2.8255000000000052 2.910900000000005,2.828000000000003 2.9184000000000054,2.8263000000000034 2.929400000000001,2.8200000000000003 2.9473000000000056,2.800200000000004 2.9584000000000046,2.7943 2.9806000000000026,2.7916999999999987 2.9947000000000017,2.7926 3.0012000000000043,2.7956000000000003 3.0175000000000054,2.8134000000000015 3.025800000000004,2.818800000000003 3.048500000000004,2.8218999999999994 3.076900000000002,2.819500000000005 3.0927000000000007,2.8201000000000036 3.106200000000001,2.8220000000000027 3.1185000000000045,2.828099999999999 3.1265,2.8408000000000015 3.126800000000003,2.850900000000003 3.1230000000000047,2.8689000000000036 3.1251000000000033,2.875300000000003 3.130500000000005,2.882800000000003 3.1574000000000026,2.903100000000002 3.164500000000004,2.9151999999999987 3.168300000000002,2.962700000000005 3.1773000000000025,2.9751000000000047 3.185300000000005,2.9802000000000035 3.2134,2.9893 3.2394999999999996,3.0172000000000025 3.252500000000005,3.0351 3.2657000000000025,3.0620000000000047 3.267000000000003,3.0844000000000023 3.2724000000000046,3.091300000000004 3.278500000000001,3.094000000000001 3.319900000000004,3.1007999999999996 3.338800000000006,3.1011999999999986 3.3644000000000034,3.107600000000005 3.3851000000000013,3.107300000000002 3.4037000000000006,3.104300000000002 3.4210000000000065,3.1060000000000016 3.440400000000004,3.115700000000004 3.462300000000006,3.1191999999999993 3.479300000000002,3.1245000000000047 3.487100000000005,3.1407000000000025 3.4954000000000036,3.1514999999999986 3.5087000000000046,3.1614000000000004 3.527000000000001,3.167900000000003 3.5487000000000037,3.1721000000000004 3.5833000000000013,3.1869000000000014 3.6289000000000016,3.2149 3.6418000000000035,3.2294000000000054 3.646800000000006,3.2413000000000025 3.6514000000000024,3.2580000000000027 3.656100000000002,3.2867000000000033 3.662700000000001,3.3051999999999992 3.667200000000001,3.3242000000000047 3.6733000000000047,3.331000000000003 3.701500000000003,3.3895000000000053 3.7139000000000024,3.4209999999999994 3.7271,3.4318000000000026 3.728100000000005,3.4452 3.7254000000000005,3.4594000000000023 3.735900000000001,3.4705000000000013 3.742200000000004,3.4851000000000028 3.7612000000000023,3.4878 3.776300000000006,3.4783000000000044 3.783200000000001,3.4662000000000006 3.801700000000004,3.4513000000000034 3.8159000000000063,3.445700000000002 3.826100000000004,3.4358000000000004 3.8442000000000007,3.4266000000000005 3.8880000000000052,3.3963000000000036 3.9332000000000065,3.3590000000000018 3.9525000000000006,3.3359999999999985 3.9653000000000063,3.326100000000004 3.993000000000002,3.2881 4.008800000000001,3.261400000000002 4.0137,3.258099999999999 4.019500000000001,3.2587000000000046 4.024500000000003,3.2561000000000035 4.067800000000005,3.2104 4.085100000000004,3.195700000000002 4.122,3.157900000000005 4.163800000000002,3.1225000000000023 4.175200000000004,3.105400000000003 4.207300000000004,3.074000000000005 4.239900000000006,3.031100000000002 4.295700000000004,2.9692000000000007 4.302600000000005,2.9536000000000016 4.322600000000001,2.934100000000001 4.350700000000003,2.8800000000000026 4.3526000000000025,2.865400000000001 4.3611,2.8442000000000007 4.3711000000000055,2.783300000000004 4.3855,2.7423 4.386200000000002,2.7191000000000045 4.406500000000001,2.6799999999999997 4.412100000000002,2.6540000000000035 4.417000000000002,2.645700000000005 4.410700000000006,2.6426000000000016 4.410700000000006,2.6400000000000006 4.420500000000004,2.635300000000001 4.432400000000001,2.618400000000001 4.456100000000006,2.5977000000000032 4.4802000000000035,2.581400000000002 4.4946000000000055,2.568400000000004 4.516400000000004,2.557000000000002 4.522200000000005,2.551400000000001 4.543300000000002,2.5214 4.549700000000001,2.5157999999999987 4.578600000000002,2.503300000000003 4.5961,2.484500000000004 4.612300000000005,2.4726 4.620400000000004,2.4599000000000046 4.630000000000003,2.4506000000000014 4.639500000000005,2.4459000000000017 4.663200000000003,2.441900000000004 4.675700000000006,2.436800000000005 4.6895000000000024,2.439 4.700700000000005,2.4388000000000005 4.713900000000002,2.4354000000000013 4.725900000000003,2.429000000000002 4.736600000000003,2.4184000000000054 4.743200000000002,2.4044999999999987 4.751400000000004,2.3962000000000003 4.753,2.3915000000000006 4.749700000000004,2.3885000000000005 4.743300000000005,2.387500000000003 4.741400000000006,2.3843999999999994 4.746900000000004,2.3733000000000004 4.735400000000006,2.358400000000003 4.7331,2.348400000000005 4.734300000000005,2.3164000000000016 4.741800000000005,2.276200000000003 4.754400000000004,2.261000000000003 4.759900000000002,2.2475999999999985 4.770800000000001,2.2343000000000046 4.7864,2.2306000000000026 4.8012000000000015,2.2231999999999985 4.816400000000002,2.218200000000003 4.8324,2.216300000000004 4.886800000000001,2.2158000000000015 4.890000000000001,2.2147000000000006 4.913400000000003,2.188200000000002 4.922900000000006,2.1821000000000055 4.941300000000005,2.177100000000003 4.9605999999999995,2.1747000000000014 4.990100000000005,2.177900000000001 5.000300000000003,2.1769999999999996 5.0172000000000025,2.169000000000004 5.035200000000003,2.1661 5.097700000000003,2.1733000000000047 5.152800000000006,2.1826000000000008 5.180300000000003,2.191600000000001 5.194800000000001,2.1943000000000055 5.207700000000003,2.194200000000002 5.222200000000001,2.1865000000000023 5.233800000000002,2.1855000000000047 5.271599999999999,2.1921999999999997 5.280900000000003,2.1921000000000035 5.2901000000000025,2.195700000000002 5.292500000000004,2.190400000000004 5.285299999999999,2.180800000000005 5.287800000000004,2.1758000000000024 5.3095,2.1580000000000013 5.313700000000004,2.1449 5.3186000000000035,2.139700000000005 5.3297000000000025,2.1342 5.335500000000003,2.126899999999999 5.3426000000000045,2.123899999999999 5.370600000000003,2.121300000000005 5.375800000000005,2.1173 5.388600000000004,2.1158 5.403000000000006,2.1081000000000003 5.409700000000001,2.1111000000000004 5.414200000000001,2.111000000000004 5.4208,2.1078000000000046 5.430400000000006,2.1081000000000003 5.435600000000001,2.1064000000000007 5.440000000000005,2.1026000000000025 5.447000000000003,2.1037999999999997 5.458800000000004,2.088300000000004 5.459200000000003,2.0820000000000007 5.468900000000005,2.0747 5.4711,2.068100000000001 5.480800000000002,2.0633000000000052 5.483600000000003,2.0534999999999997 5.489600000000003,2.0515000000000043 5.495200000000004,2.0551999999999992 5.502800000000001,2.038000000000004 5.510400000000004,2.030999999999999 5.548000000000002,2.0142000000000024 5.559200000000004,2.0072000000000045 5.562200000000004,1.994800000000005 5.5702,1.9804999999999993 5.5824,1.9647000000000006 5.584600000000002,1.9583000000000013 5.583600000000004,1.9365999999999985 5.585300000000004,1.9228999999999985 5.579500000000003,1.8999000000000024 5.586400000000005,1.8792000000000044 5.584800000000001,1.8708000000000027 5.590500000000006,1.863500000000002 5.591800000000006,1.8515000000000015 5.597500000000004,1.8488000000000042 5.595700000000001,1.8335000000000008 5.596700000000006,1.8094000000000037 5.590900000000005,1.7985000000000042 5.587500000000006,1.8278999999999996 5.584099999999999,1.8392000000000053 5.577200000000005,1.849499999999999 5.575500000000005,1.8581000000000003 5.5779,1.8678999999999988 5.5717,1.889000000000003 5.566400000000002,1.8955000000000055 5.544200000000004,1.9154000000000053 5.535700000000006,1.9172000000000011 5.523500000000006,1.9256000000000029 5.5062,1.9284000000000034 5.502800000000001,1.9301999999999992 5.502100000000006,1.9326000000000008 5.4529,1.9525000000000006 5.436900000000001,1.9565000000000055 5.4223,1.9580000000000055 5.408300000000004,1.9558999999999997 5.4009,1.956700000000005 5.3829000000000065,1.9650000000000034 5.353900000000003,1.9710999999999999 5.334600000000002,1.9724000000000004 5.320700000000002,1.9690000000000012 5.3123000000000005,1.9635000000000034 5.305500000000002,1.9513999999999996 5.2958,1.9527 5.2926,1.951500000000003 5.286100000000005,1.9547000000000025 5.278400000000005,1.9558999999999997 5.266100000000002,1.9551000000000016 5.2498000000000005,1.951900000000002 5.243700000000004,1.9481000000000037 5.237300000000005,1.9395999999999987 5.2303,1.9355000000000047 5.222700000000003,1.9350000000000023 5.2042,1.9406000000000034 5.197000000000003,1.9408999999999992 5.177400000000006,1.937100000000001 5.173900000000003,1.9490000000000052 5.167000000000002,1.9573000000000036 5.158100000000005,1.9634 5.148600000000002,1.9665000000000035 5.140500000000003,1.971900000000005 5.121600000000001,1.974499999999999 5.0931,1.9750000000000014 5.084200000000003,1.9727999999999994 5.080200000000005,1.9749000000000052 5.070500000000003,1.9709000000000003 5.0638000000000005,1.9699999999999989 5.058,1.9662000000000006 5.055,1.9611000000000018 5.055500000000002,1.954900000000002 5.058900000000001,1.9498999999999995 5.060900000000004,1.948599999999999 5.0671000000000035,1.9505000000000052 5.071400000000004,1.9487999999999985 5.072000000000003,1.9465000000000003 5.069000000000003,1.9436999999999998 5.064700000000002,1.9428000000000054 5.0645000000000024,1.929700000000004 5.057000000000002,1.9106999999999985 5.052,1.9062000000000054 5.045700000000004,1.9036000000000044 5.033799999999999,1.9039000000000001 5.025400000000005,1.9065000000000012 5.0035000000000025,1.9034000000000049 4.981200000000001,1.8969999999999985 4.969800000000006,1.8915000000000006 4.954000000000001,1.8810000000000002 4.944500000000005,1.8783999999999992 4.928600000000003,1.8810000000000002 4.918700000000001,1.8807000000000045 4.907600000000002,1.8781999999999996 4.899500000000003,1.8725000000000023 4.889800000000001,1.8601000000000028 4.8700000000000045,1.8537000000000035 4.860400000000006,1.8477000000000032 4.858200000000004,1.8412000000000006 4.865000000000002,1.841000000000001 4.863900000000001,1.8387000000000029 4.857600000000005,1.8362000000000052 4.852200000000003,1.8359999999999985 4.850700000000003,1.8445000000000036 4.847700000000003,1.8451000000000022 4.838900000000002,1.837600000000002 4.806100000000001,1.8272000000000048 4.789300000000004,1.8149000000000015 4.773200000000003,1.8100000000000023 4.753400000000006,1.8064000000000036 4.746200000000002,1.802900000000001 4.722900000000003,1.7832000000000008 4.7043000000000035,1.7798000000000016 4.698500000000003,1.7760000000000034 4.696400000000004,1.7729 4.693000000000005,1.7543000000000006 4.696300000000001,1.7348 4.7119,1.717800000000004 4.712200000000003,1.7150999999999996 4.699800000000003,1.7135000000000034 4.693400000000004,1.7088999999999999 4.681600000000003,1.7109999999999985 4.671900000000001,1.7037000000000049 4.662800000000004,1.7022000000000048 4.6555000000000035,1.694900000000004 4.643600000000006,1.6891999999999996 4.640000000000001,1.6807000000000016 4.642100000000006,1.6694999999999993 4.648500000000006,1.6533000000000015 4.659300000000002,1.636099999999999 4.6676,1.6266999999999996 4.690300000000001,1.6074000000000055 4.7058000000000035,1.5884 4.703000000000003,1.5827999999999989 4.6810000000000045,1.5690999999999988 4.6736,1.567300000000003 4.6629000000000005,1.5609000000000037 4.6540000000000035,1.5586000000000055 4.647400000000005,1.5530000000000044 4.642800000000001,1.542100000000005 4.640900000000002,1.5297000000000054 4.6507000000000005,1.4909999999999997 4.659100000000002,1.4750000000000014 4.664700000000003,1.4697000000000031 4.669700000000006,1.4613000000000014 4.660299999999999,1.4517000000000024 4.648800000000001,1.4498000000000033 4.6402,1.4425000000000026 4.6358999999999995,1.4214000000000055 4.629800000000003,1.410499999999999 4.618700000000004,1.4002000000000052 4.615700000000004,1.3937000000000026 4.6148000000000025,1.3795000000000002 4.617800000000003,1.3618999999999986 4.629800000000003,1.3272000000000048 4.6370000000000005,1.318400000000004 4.647200000000005,1.2993999999999986 4.634700000000002,1.2939000000000007 4.622900000000001,1.291800000000002 4.605800000000002,1.2841000000000022 4.592200000000005,1.2741000000000042 4.584300000000006,1.2653000000000034 4.5660000000000025,1.2501999999999995 4.560200000000002,1.2475000000000023 4.547000000000004,1.2210999999999999 4.545200000000001,1.2075999999999993 4.5396,1.1932000000000045 4.535299999999999,1.1880999999999986 4.529300000000006,1.1692000000000036 4.529800000000002,1.165300000000002 4.514400000000002,1.1350000000000051 4.507800000000003,1.1174000000000035 4.505300000000005,1.0988000000000042 4.506,1.0874000000000024 4.511600000000001,1.0747 4.529700000000005,1.0497000000000014 4.567300000000003,1.0225000000000009 4.5839,1.0071000000000012 4.6048000000000044,0.991500000000002 4.612700000000004,0.986699999999999 4.6207000000000065,0.9849999999999994 4.628300000000003,0.9870000000000019 4.631300000000003,0.9853000000000023 4.628600000000006,0.9824000000000055 4.630100000000006,0.9802999999999997 4.633500000000005,0.9821000000000026 4.6385000000000005,0.9813000000000045 4.639900000000004,0.9765000000000015 4.638300000000001,0.9712000000000032 4.626100000000001,0.9520000000000053 4.624000000000002,0.9384000000000015 4.6311000000000035,0.9067000000000007 4.637600000000006,0.8989000000000047 4.657900000000005,0.8902000000000001 4.6631,0.8860000000000028 4.6631,0.8843000000000032 4.657300000000006,0.8856999999999999 4.657300000000006,0.8803000000000054 4.663000000000004,0.8803000000000054 4.666700000000006,0.8766999999999996 4.6631,0.8711000000000055 4.657000000000004,0.868700000000004 4.655300000000004,0.873899999999999 4.649700000000003,0.8753999999999991 4.640900000000002,0.8738000000000028 4.630200000000002,0.8753999999999991 4.622600000000006,0.8813999999999993 4.616200000000006,0.8817000000000021 4.608800000000002,0.8770999999999987 4.6063000000000045,0.8775000000000048 4.609200000000001,0.8817000000000021 4.607100000000003,0.8843000000000032 4.603200000000001,0.8815999999999988 4.6021,0.8882000000000048 4.598800000000004,0.8902000000000001 4.594300000000004,0.8988000000000014 4.578000000000003,0.9087000000000032 4.568400000000004,0.9207999999999998 4.547400000000003,0.9306000000000054 4.520200000000003,0.9346000000000032 4.505300000000005,0.9316999999999993 4.4925,0.9266000000000005 4.484200000000001,0.9202000000000012 4.476400000000005,0.9108000000000018 4.472900000000003,0.8956000000000017 4.4669000000000025,0.7968000000000046 4.467800000000004,0.767000000000003 4.447600000000001,0.7000999999999991 4.445600000000006,0.6854000000000013 4.441700000000004,0.6734000000000009 4.4336000000000055,0.6617999999999995 4.423400000000001,0.6255000000000024 4.405900000000003,0.5945999999999998 4.3934,0.5771000000000015 4.386600000000001,0.5712000000000046 4.327800000000003,0.5416000000000025 4.320700000000002,0.5441000000000003 4.323500000000003,0.5472000000000037 4.3337,0.5489999999999995 4.334400000000002,0.5516000000000005 4.296900000000001,0.5511000000000053 4.285900000000005,0.554700000000004 4.281400000000005,0.5583999999999989 4.282800000000002,0.5608000000000004 4.293200000000006,0.5624000000000038 4.305300000000003,0.5748999999999995 4.322400000000002,0.5855999999999995 4.337900000000005,0.5936000000000021 4.353200000000001,0.5992999999999995 4.409700000000001,0.6437999999999988 4.417100000000005,0.6510000000000034 4.4343,0.6824000000000012 4.435600000000001,0.6918000000000006 4.433700000000002,0.6970000000000027 4.4283,0.6996000000000038 4.421500000000002,0.7004000000000019 4.400300000000001,0.693400000000004 4.408799999999999,0.7024000000000044 4.397500000000001,0.7117000000000004 4.398500000000006,0.7225000000000037 4.395300000000006,0.7229000000000028 4.3907000000000025,0.7205000000000013 4.386900000000004,0.7210000000000036 4.383200000000002,0.7239000000000004 4.376200000000004,0.7240000000000038 4.363300000000002,0.7159000000000049 4.3574000000000055,0.7150000000000034 4.3506,0.7103000000000037 4.3491,0.7028999999999996 4.340700000000005,0.7004000000000019 4.324800000000003,0.702300000000001 4.322400000000002,0.7043000000000035 4.323100000000004,0.7077000000000027 4.3260000000000005,0.7088999999999999 4.330100000000002,0.7223000000000042 4.3202,0.7264000000000053 4.323,0.731500000000004 4.327200000000005,0.7344000000000008 4.324300000000001,0.7416000000000054 4.317700000000002,0.7441999999999993 4.305200000000006,0.7411999999999992 4.298400000000001,0.7419000000000011 4.294500000000006,0.7454999999999998 4.292500000000004,0.7498000000000005 4.294000000000004,0.7567000000000021 4.296200000000006,0.7602000000000046 4.3038000000000025,0.7604000000000042 4.3048,0.7647000000000048 4.3023000000000025,0.7683000000000035 4.3033,0.7719999999999985 4.302100000000003,0.7738000000000014 4.2941,0.7754000000000048 4.287100000000002,0.780300000000004 4.281100000000002,0.7822000000000031 4.2745999999999995,0.7897999999999996 4.276500000000006,0.8006000000000029 4.2729,0.8023999999999987 4.267400000000002,0.8011000000000053 4.254900000000006,0.8081000000000031 4.2546000000000035,0.813600000000001 4.2468,0.8185000000000002 4.241400000000006,0.8194000000000017 4.238900000000001,0.816200000000002 4.240400000000001,0.8118000000000052 4.2455,0.8098000000000027 4.248100000000001,0.8038000000000025 4.245200000000004,0.7972999999999999 4.176700000000004,0.7638999999999996 4.172800000000002,0.7601000000000013 4.180300000000003,0.7501999999999995 4.1691,0.7359000000000009 4.156000000000006,0.7088000000000036 4.156500000000001,0.7030999999999992 4.164100000000005,0.6906999999999996 4.160200000000003,0.6865000000000023 4.1584,0.6736000000000004 4.155300000000004,0.6649999999999991 4.145700000000005,0.6567000000000007 4.147200000000005,0.6547000000000054 4.159500000000001,0.650500000000001 4.165000000000006,0.6448999999999998 4.1688000000000045,0.6377000000000024 4.174200000000006,0.6170000000000044 4.172499999999999,0.5959000000000003 4.175200000000004,0.5812999999999988 4.174100000000003,0.5776000000000039 4.1661,0.5677000000000021 4.1629000000000005,0.559899999999999 4.165600000000005,0.5517000000000039 4.163700000000006,0.5418000000000021 4.155700000000003,0.5244 4.128600000000006,0.490000000000002 4.103900000000003,0.4654999999999987 4.094200000000001,0.4592000000000027 4.077200000000005,0.4601000000000042 4.071400000000004,0.45810000000000173 4.062100000000001,0.4586000000000041 4.054500000000004,0.46410000000000196 4.048900000000003,0.47060000000000457 4.048300000000005,0.4639000000000024 4.055300000000003,0.45289999999999964 4.0533,0.4464000000000041 4.054700000000004,0.4344999999999999 4.0527000000000015,0.4276000000000053 4.079900000000002,0.3686000000000007 4.098200000000006,0.3521000000000001 4.095500000000001,0.3353000000000037 4.1026000000000025,0.25619999999999976 4.1052000000000035,0.24210000000000065 4.102800000000002,0.1992000000000047 4.103200000000001,0.165300000000002 4.106000000000002,0.15340000000000487 4.107500000000002,0.1343999999999994 4.104700000000001,0.0981000000000023 4.105600000000003,0.073599999999999 "></polygon><polygon points="0.7420000000000044,2.2498000000000005 0.7429000000000059,2.254000000000005 0.7381000000000029,2.272200000000005 0.7198000000000064,2.2866 0.7062000000000026,2.2871000000000024 0.6848000000000027,2.272200000000005 0.6848000000000027,2.2587000000000046 0.6998999999999995,2.2428000000000026 0.7190000000000012,2.238100000000003 0.7397000000000062,2.238800000000005 0.7420000000000044,2.2498000000000005 "></polygon><polygon points="4.251400000000004,0.7935000000000016 4.25,0.799199999999999 4.256300000000003,0.7987000000000037 4.261000000000003,0.7911000000000001 4.2577,0.7876000000000047 4.254400000000004,0.7884000000000029 4.251400000000004,0.7935000000000016 "></polygon><polygon points="4.672400000000003,1.4151999999999987 4.677500000000002,1.4074000000000026 4.672900000000006,1.4059000000000026 4.665800000000004,1.4164999999999992 4.6677000000000035,1.4173000000000044 4.672400000000003,1.4151999999999987 "></polygon><polygon points="4.656400000000005,1.4357000000000042 4.659500000000001,1.4307000000000016 4.665300000000002,1.4273000000000025 4.667500000000004,1.4209000000000032 4.6551000000000045,1.4256000000000029 4.653700000000001,1.4356000000000009 4.656400000000005,1.4357000000000042 "></polygon><polygon points="4.702800000000003,1.546199999999999 4.7047000000000025,1.5459999999999994 4.708300000000001,1.5497000000000014 4.712900000000005,1.5513000000000048 4.718600000000002,1.5500000000000043 4.720700000000001,1.5464000000000055 4.719900000000003,1.542100000000005 4.693800000000003,1.539900000000003 4.678000000000004,1.5366 4.6788000000000025,1.538800000000002 4.6843,1.542500000000004 4.691700000000004,1.5435000000000016 4.699100000000001,1.546600000000005 4.702800000000003,1.546199999999999 "></polygon><polygon points="4.879400000000004,1.5885000000000034 4.882100000000001,1.5842000000000027 4.880500000000005,1.5793999999999997 4.877300000000005,1.577300000000001 4.867800000000003,1.5767999999999986 4.852500000000006,1.5726000000000013 4.849700000000006,1.5760000000000005 4.8548000000000044,1.5825000000000031 4.8521,1.602800000000002 4.874600000000001,1.602800000000002 4.874900000000004,1.595800000000004 4.879400000000004,1.5885000000000034 "></polygon><polygon points="4.804400000000001,1.6375000000000028 4.807400000000001,1.6463000000000036 4.810200000000002,1.6480000000000032 4.814300000000003,1.638300000000001 4.804400000000001,1.6375000000000028 "></polygon><polygon points="5.2072,1.8929000000000045 5.210800000000006,1.8873999999999995 5.2076000000000064,1.8860000000000028 5.197600000000001,1.8926000000000016 5.2074,1.8975000000000009 5.2087,1.8952999999999989 5.2072,1.8929000000000045 "></polygon><polygon points="5.146800000000006,1.8928000000000011 5.134700000000002,1.8926000000000016 5.125300000000003,1.8976000000000042 5.129000000000005,1.900500000000001 5.149300000000004,1.8978000000000037 5.157300000000006,1.8994 5.157900000000005,1.8971000000000018 5.146800000000006,1.8928000000000011 "></polygon><polygon points="5.266300000000001,1.9091999999999985 5.267400000000002,1.9116 5.273500000000006,1.9121999999999986 5.2834,1.9099000000000004 5.279500000000006,1.9074000000000026 5.269100000000002,1.9076000000000022 5.266300000000001,1.9091999999999985 "></polygon><polygon points="5.216100000000004,1.916000000000004 5.244300000000003,1.9134000000000029 5.245600000000003,1.9117000000000033 5.244500000000002,1.9100000000000037 5.241600000000005,1.9113000000000042 5.219700000000003,1.9111000000000047 5.2143000000000015,1.9132999999999996 5.214200000000005,1.9156000000000049 5.216100000000004,1.916000000000004 "></polygon><polygon points="5.794200000000004,1.952300000000001 5.800900000000006,1.9502999999999986 5.809200000000004,1.9446000000000012 5.8125,1.9451000000000036 5.811300000000003,1.9474000000000018 5.813500000000005,1.9502999999999986 5.834200000000003,1.9329000000000036 5.8352,1.9194999999999993 5.832800000000006,1.9147000000000034 5.825300000000006,1.9173000000000044 5.817300000000003,1.9174000000000007 5.801000000000002,1.9140000000000015 5.794000000000004,1.9110000000000014 5.781300000000002,1.8954000000000022 5.775400000000005,1.8910000000000053 5.768000000000001,1.889000000000003 5.764300000000006,1.891300000000001 5.775600000000004,1.9004000000000048 5.783900000000003,1.9097000000000008 5.781700000000001,1.9130000000000038 5.782000000000004,1.9261000000000053 5.778700000000001,1.930500000000002 5.7654,1.9350999999999985 5.764400000000002,1.9365000000000023 5.770600000000002,1.9405000000000001 5.7654,1.9468000000000032 5.758700000000005,1.9464000000000041 5.752600000000001,1.9532000000000025 5.754900000000006,1.9547000000000025 5.7657000000000025,1.9517999999999986 5.7779000000000025,1.939 5.788900000000005,1.9331999999999994 5.790800000000004,1.9269000000000034 5.793600000000005,1.9248000000000047 5.797400000000003,1.9294000000000011 5.792200000000001,1.9528999999999996 5.794200000000004,1.952300000000001 "></polygon><polygon points="5.683300000000003,2.0031999999999996 5.680300000000003,2.008200000000002 5.684000000000005,2.0086000000000013 5.6899000000000015,2.000399999999999 5.681100000000001,2.0001000000000033 5.683300000000003,2.0031999999999996 "></polygon><polygon points="5.573,2.0656999999999996 5.568100000000001,2.0571000000000055 5.571300000000001,2.053699999999999 5.573600000000006,2.0427000000000035 5.578500000000005,2.038000000000004 5.5839,2.0381 5.588100000000004,2.0279000000000025 5.5882000000000005,2.024000000000001 5.583600000000004,2.020700000000005 5.5782000000000025,2.0102000000000046 5.5797000000000025,1.9902000000000015 5.576500000000003,1.9906000000000006 5.572900000000004,2.008800000000001 5.567600000000006,2.022500000000001 5.561100000000003,2.0229 5.560100000000006,2.0249999999999986 5.568800000000003,2.0279000000000025 5.560100000000006,2.0379000000000005 5.5518,2.0408000000000044 5.5516000000000005,2.0474999999999994 5.5460000000000065,2.053600000000003 5.5401000000000025,2.066900000000004 5.527000000000001,2.0730000000000004 5.522800000000004,2.078400000000002 5.524000000000001,2.0808000000000035 5.5305000000000035,2.0797000000000025 5.541400000000003,2.0852000000000004 5.543600000000005,2.0889000000000024 5.548300000000005,2.091300000000004 5.554700000000004,2.086100000000002 5.561,2.086100000000002 5.5657,2.082799999999999 5.573,2.0656999999999996 "></polygon><polygon points="1.223700000000001,0.8280999999999992 1.2241,0.8175000000000026 1.227400000000003,0.8063000000000002 1.227400000000003,0.7888000000000019 1.2413000000000025,0.7777999999999992 1.2417000000000016,0.7737000000000052 1.2383000000000024,0.7687000000000026 1.2360000000000042,0.7587000000000046 1.237400000000001,0.7528000000000006 1.2539000000000016,0.7375000000000043 1.2567000000000021,0.732600000000005 1.2568000000000055,0.7287000000000035 1.253700000000002,0.7207000000000008 1.2531999999999996,0.7103999999999999 1.2571000000000012,0.6996000000000038 1.2623999999999995,0.6906999999999996 1.2652,0.688600000000001 1.285500000000006,0.6798000000000002 1.2992000000000061,0.6711999999999989 1.3118000000000052,0.6400000000000006 1.328400000000002,0.6255999999999986 1.3305000000000007,0.6156000000000006 1.329500000000003,0.5983000000000018 1.3415000000000035,0.5634000000000015 1.378300000000003,0.4883999999999986 1.3753000000000029,0.4731000000000023 1.3643,0.4376000000000033 1.3507999999999996,0.4433000000000007 1.3387000000000029,0.4557000000000002 1.3316000000000017,0.46000000000000085 1.3126999999999995,0.46520000000000294 1.302900000000001,0.47040000000000504 1.290300000000002,0.48400000000000176 1.2842000000000056,0.4834999999999994 1.2820999999999998,0.4738000000000042 1.2772000000000006,0.4692000000000007 1.2638000000000034,0.467800000000004 1.2469000000000037,0.46990000000000265 1.2475000000000023,0.4626000000000019 1.2401000000000053,0.44940000000000424 1.2386000000000053,0.4399000000000015 1.2403000000000048,0.4292000000000016 1.2383000000000024,0.42500000000000426 1.227400000000003,0.4230000000000018 1.227400000000003,0.4718000000000018 1.1737000000000037,0.48930000000000007 1.1673000000000044,0.48730000000000473 1.1484000000000023,0.4725999999999999 1.142700000000005,0.4708000000000041 1.132000000000005,0.4731999999999985 1.1060000000000016,0.4836999999999989 1.095000000000006,0.4859000000000009 1.0893000000000015,0.4901000000000053 1.0840000000000032,0.5003000000000029 1.078400000000002,0.5033999999999992 1.0686000000000035,0.504400000000004 1.0487000000000037,0.4993000000000052 1.0195000000000007,0.5168000000000035 0.9949000000000012,0.5243000000000038 0.9642000000000053,0.525500000000001 0.9475000000000051,0.529200000000003 0.9443000000000055,0.5356000000000023 0.9380000000000024,0.5401000000000025 0.9035000000000011,0.5459000000000032 0.8903999999999996,0.5503 0.8766999999999996,0.5512000000000015 0.8445999999999998,0.5412000000000035 0.8360000000000056,0.5416999999999987 0.8333000000000013,0.5444000000000031 0.8349000000000046,0.5461999999999989 0.8348000000000013,0.5521000000000029 0.8321000000000041,0.5548000000000002 0.8166000000000011,0.5581999999999994 0.804700000000004,0.5682000000000045 0.7961000000000027,0.5694000000000017 0.7778000000000063,0.5611999999999995 0.7640000000000029,0.561399999999999 0.7386000000000053,0.5733999999999995 0.7214000000000027,0.5786000000000016 0.693400000000004,0.5842000000000027 0.6807000000000016,0.5893000000000015 0.6638000000000019,0.6011999999999986 0.6610000000000014,0.6096000000000004 0.6753,0.6325000000000003 0.6753,0.6435000000000031 0.6774000000000058,0.650500000000001 0.6741000000000028,0.6532000000000053 0.6580000000000013,0.6536000000000044 0.6351000000000013,0.6647000000000034 0.6291000000000011,0.6700000000000017 0.6265000000000001,0.6807000000000016 0.6291000000000011,0.691200000000002 0.6230000000000047,0.7028999999999996 0.5918000000000063,0.7353000000000023 0.5907000000000053,0.7477000000000018 0.5862000000000052,0.7606000000000037 0.5757000000000048,0.7655999999999992 0.555100000000003,0.7627999999999986 0.5456000000000003,0.7734999999999985 0.5534999999999997,0.7790999999999997 0.5625,0.7920000000000016 0.5589000000000013,0.7983000000000047 0.5502000000000038,0.7996000000000052 0.5378000000000043,0.7954000000000008 0.5228000000000037,0.7861000000000047 0.45580000000000354,0.8041000000000054 0.4361999999999995,0.804000000000002 0.43020000000000636,0.8093000000000004 0.42790000000000106,0.8153000000000006 0.41740000000000066,0.8240000000000052 0.4105000000000061,0.8215000000000003 0.409000000000006,0.8118000000000052 0.3925000000000054,0.8102000000000018 0.38870000000000005,0.8397000000000006 0.3299000000000021,0.9314999999999998 0.3166000000000011,0.9340000000000046 0.3138000000000005,0.936399999999999 0.3124000000000038,0.9406000000000034 0.31560000000000343,0.9470999999999989 0.3154000000000039,0.9522000000000048 0.3106000000000009,0.9581000000000017 0.28890000000000526,0.9718000000000018 0.2879000000000005,0.9808000000000021 0.27590000000000003,0.9853000000000023 0.26490000000000435,0.9954999999999998 0.24990000000000379,1.0042000000000044 0.20470000000000255,1.0249999999999986 0.1986000000000061,1.0304000000000002 0.1962000000000046,1.0378000000000043 0.19940000000000424,1.0439000000000007 0.20860000000000412,1.0478000000000023 0.20589999999999975,1.0513000000000048 0.1863000000000028,1.053200000000004 0.17840000000000344,1.0579000000000036 0.17379999999999995,1.0634000000000015 0.18010000000000304,1.0686000000000035 0.17570000000000618,1.0765999999999991 0.18070000000000164,1.0837000000000003 0.18060000000000542,1.0859999999999985 0.17540000000000333,1.091300000000004 0.18090000000000117,1.0970000000000013 0.17790000000000106,1.1041000000000025 0.17280000000000229,1.1099999999999994 0.15810000000000457,1.1186000000000007 0.15000000000000568,1.125399999999999 0.1478000000000037,1.1303000000000054 0.15320000000000533,1.1387 0.14410000000000167,1.1437999999999988 0.14220000000000255,1.1465999999999994 0.14750000000000085,1.1570999999999998 0.14750000000000085,1.171600000000005 0.14560000000000173,1.1737000000000037 0.1332000000000022,1.178200000000004 0.12650000000000006,1.1831000000000031 0.12630000000000052,1.1875 0.13180000000000547,1.1975000000000051 0.13040000000000163,1.2024000000000044 0.12349999999999994,1.2009000000000043 0.11790000000000589,1.1978000000000009 0.11280000000000001,1.1975000000000051 0.10990000000000322,1.2011000000000038 0.11120000000000374,1.2068000000000012 0.10930000000000462,1.2122000000000028 0.10520000000000351,1.2135000000000034 0.08300000000000551,1.2060999999999993 0.04760000000000275,1.2280000000000015 0.04910000000000281,1.2481000000000009 0.04260000000000019,1.2635000000000005 0.04010000000000247,1.2798000000000016 0.031200000000005446,1.2879000000000005 0.02470000000000283,1.2897000000000034 0.016000000000005343,1.2998000000000047 0.003400000000006287,1.3053999999999988 0.0015000000000000568,1.3076000000000008 0.0036000000000058208,1.3118000000000052 0.0016000000000033765,1.3163000000000054 0.0,1.3164000000000016 0.028300000000001546,1.3233999999999995 0.0625,1.3270000000000053 0.12230000000000274,1.3320000000000007 0.18080000000000496,1.3327999999999989 0.19590000000000174,1.3355999999999995 0.21880000000000166,1.342800000000004 0.24630000000000507,1.3559000000000054 0.2862000000000009,1.3850000000000051 0.2939000000000007,1.388300000000001 0.30930000000000035,1.388300000000001 0.3178000000000054,1.3858999999999995 0.32789999999999964,1.382400000000004 0.35540000000000305,1.3658000000000001 0.37460000000000093,1.3422000000000054 0.38450000000000273,1.3211000000000013 0.40320000000000533,1.3102000000000018 0.4134000000000029,1.2969000000000008 0.42020000000000124,1.280700000000003 0.4211000000000027,1.2560000000000002 0.4128000000000043,1.2405000000000044 0.4172000000000011,1.225200000000001 0.4134000000000029,1.2109999999999985 0.4189000000000007,1.1977000000000046 0.42600000000000193,1.1900000000000048 0.4416000000000011,1.1856000000000009 0.45350000000000534,1.1865999999999985 0.456700000000005,1.1891999999999996 0.46230000000000615,1.1997 0.47640000000000526,1.213000000000001 0.4853000000000023,1.216700000000003 0.49570000000000647,1.2169000000000025 0.5135000000000005,1.213799999999999 0.5311000000000021,1.203800000000001 0.5564000000000036,1.1698000000000022 0.5588000000000051,1.1628000000000043 0.567300000000003,1.1572999999999993 0.6097999999999999,1.1484000000000023 0.6387,1.1362000000000023 0.6606000000000023,1.1367000000000047 0.6696000000000026,1.1300999999999988 0.6806000000000054,1.1101000000000028 0.6842000000000041,1.1071999999999989 0.6910000000000025,1.106100000000005 0.7134,1.105000000000004 0.7276000000000025,1.108699999999999 0.7368000000000023,1.113500000000002 0.7650000000000006,1.1388999999999996 0.7738000000000014,1.144200000000005 0.806900000000006,1.1540000000000035 0.8377000000000052,1.1677999999999997 0.863900000000001,1.170100000000005 0.8803000000000054,1.1750000000000043 0.8971000000000018,1.1840000000000046 0.9140000000000015,1.201500000000003 0.927500000000002,1.2100000000000009 0.9363000000000028,1.209299999999999 0.9724000000000004,1.1943000000000055 1.0016999999999996,1.191200000000002 1.0113000000000056,1.1857000000000042 1.018800000000006,1.1791000000000054 1.026600000000002,1.166800000000002 1.0449000000000055,1.1494 1.0507000000000062,1.1410000000000053 1.0534000000000034,1.131300000000003 1.0502000000000038,1.0991 1.0534000000000034,1.0915999999999997 1.0639000000000038,1.0830000000000055 1.0679000000000016,1.0739000000000019 1.0650000000000048,1.0645999999999987 1.0517000000000039,1.041000000000004 1.0358000000000018,1.0224000000000046 1.0232000000000028,1.0031000000000034 1.0219000000000023,0.9885000000000019 1.0257000000000005,0.9806999999999988 1.0397000000000034,0.9690000000000012 1.0927000000000007,0.9628000000000014 1.1136000000000053,0.9553000000000011 1.131600000000006,0.9449000000000041 1.1495999999999995,0.9384000000000015 1.1947000000000045,0.914200000000001 1.227400000000003,0.8997000000000028 1.227400000000003,0.860199999999999 1.223000000000006,0.8515000000000015 1.223700000000001,0.8280999999999992 "></polygon><polygon points="0.44590000000000174,2.622700000000002 0.46460000000000434,2.6205 0.4797000000000011,2.604600000000005 0.4765000000000015,2.5919000000000025 0.46460000000000434,2.589500000000001 0.44069999999999965,2.5934000000000026 0.42320000000000135,2.604600000000005 0.4216000000000051,2.6133000000000024 0.43769999999999953,2.6236000000000033 0.44590000000000174,2.622700000000002 "></polygon><polygon points="0.25310000000000343,2.6674000000000007 0.2412000000000063,2.6674000000000007 0.2347999999999999,2.6722000000000037 0.23000000000000398,2.6873000000000005 0.23080000000000211,2.6952 0.2412000000000063,2.7055000000000007 0.25790000000000646,2.7055000000000007 0.27300000000000324,2.7010000000000005 0.27300000000000324,2.6833000000000027 0.26900000000000546,2.6761000000000053 0.26500000000000057,2.6722000000000037 0.2563000000000031,2.6674000000000007 0.25310000000000343,2.6674000000000007 "></polygon>
    </svg>
    