
    <svg width="0.23140000000000072" height="0.29049999999999976" xmlns="http://www.w3.org/2000/svg" xmlns:xlink="http://www.w3.org/1999/xlink" style="transform: scale(1, -1)">
        <polygon points="0.176400000000001,0.031899999999998485 0.16170000000000329,0.021399999999999864 0.155300000000004,0.0218999999999987 0.14699999999999847,0.007499999999998508 0.14500000000000313,0.008599999999999497 0.13170000000000215,0.0007999999999999119 0.12890000000000157,0.0018999999999991246 0.12250000000000227,0.0 0.11670000000000158,0.0024999999999995026 0.11249999999999716,0.014399999999998414 0.10810000000000031,0.018299999999999983 0.10640000000000072,0.017499999999998295 0.09720000000000084,0.021099999999998786 0.08559999999999945,0.019099999999999895 0.08220000000000027,0.0218999999999987 0.07809999999999917,0.021599999999999397 0.06139999999999901,0.02889999999999837 0.05279999999999774,0.02859999999999907 0.03810000000000002,0.033299999999998775 0.03750000000000142,0.034699999999999065 0.041100000000000136,0.03829999999999956 0.04059999999999775,0.04609999999999914 0.035000000000003695,0.050499999999999545 0.028900000000000148,0.050799999999998846 0.027000000000001023,0.05329999999999835 0.017499999999998295,0.05749999999999922 0.017800000000001148,0.06079999999999863 0.019199999999997885,0.05749999999999922 0.020800000000001262,0.05749999999999922 0.020000000000003126,0.06189999999999962 0.022500000000000853,0.06329999999999991 0.02470000000000283,0.0625 0.024399999999999977,0.06579999999999941 0.020000000000003126,0.0652999999999988 0.020000000000003126,0.067499999999999 0.022500000000000853,0.06829999999999892 0.023299999999998988,0.07049999999999912 0.016399999999997306,0.08109999999999928 0.012000000000000455,0.09909999999999997 0.013600000000003831,0.12249999999999872 0.012000000000000455,0.12439999999999962 0.013100000000001444,0.1302999999999983 0.011099999999999,0.1324999999999985 0.01279999999999859,0.14389999999999858 0.009399999999999409,0.14639999999999986 0.008099999999998886,0.15329999999999977 0.010300000000000864,0.15829999999999878 0.010600000000003718,0.16549999999999976 0.00829999999999842,0.17359999999999864 0.009199999999999875,0.17689999999999984 0.007199999999997431,0.18079999999999963 0.00829999999999842,0.18939999999999912 0.0058000000000006935,0.19529999999999959 0.006700000000002149,0.20529999999999937 0.00560000000000116,0.20889999999999986 0.007500000000000284,0.21499999999999986 0.005299999999998306,0.21969999999999956 0.007199999999997431,0.22109999999999985 0.0058000000000006935,0.22169999999999845 0.00280000000000058,0.23499999999999943 0.00030000000000285354,0.23969999999999914 0.0016999999999995907,0.24689999999999834 0.0,0.2618999999999989 0.012000000000000455,0.2771999999999988 0.013300000000000978,0.28219999999999956 0.019700000000000273,0.2840999999999987 0.02109999999999701,0.28609999999999935 0.02750000000000341,0.28689999999999927 0.03059999999999974,0.28999999999999915 0.033099999999997465,0.28889999999999993 0.03609999999999758,0.29049999999999976 0.04359999999999786,0.2879999999999985 0.04919999999999902,0.28219999999999956 0.051700000000003854,0.2832999999999988 0.051700000000003854,0.2810999999999986 0.05700000000000216,0.27829999999999977 0.06390000000000384,0.2702999999999989 0.06860000000000355,0.2696999999999985 0.07450000000000045,0.2627999999999986 0.07310000000000372,0.2596999999999987 0.07580000000000098,0.2582999999999984 0.07719999999999771,0.2552999999999983 0.073599999999999,0.2530999999999999 0.0782999999999987,0.2491999999999983 0.07920000000000016,0.24529999999999852 0.08330000000000126,0.23999999999999844 0.08359999999999701,0.23719999999999963 0.08220000000000027,0.23669999999999902 0.08310000000000173,0.23079999999999856 0.08720000000000283,0.22189999999999976 0.09000000000000341,0.22139999999999915 0.09080000000000155,0.21219999999999928 0.09360000000000213,0.2110999999999983 0.09530000000000172,0.2079999999999984 0.09309999999999974,0.20529999999999937 0.09700000000000131,0.20529999999999937 0.10249999999999915,0.2002999999999986 0.11140000000000327,0.18499999999999872 0.11829999999999785,0.17999999999999972 0.11699999999999733,0.17889999999999873 0.12080000000000268,0.17439999999999856 0.12810000000000343,0.16939999999999955 0.14280000000000115,0.16529999999999845 0.14920000000000044,0.15779999999999994 0.15639999999999787,0.15279999999999916 0.16279999999999717,0.15329999999999977 0.16499999999999915,0.1465999999999994 0.17280000000000229,0.14499999999999957 0.17329999999999757,0.1429999999999989 0.18310000000000315,0.1352999999999991 0.18719999999999715,0.13549999999999862 0.188600000000001,0.1377999999999986 0.1927999999999983,0.13889999999999958 0.1997,0.1296999999999997 0.20199999999999818,0.13079999999999892 0.20080000000000098,0.12799999999999834 0.20309999999999917,0.12389999999999901 0.20580000000000354,0.12359999999999971 0.20720000000000027,0.12139999999999951 0.210799999999999,0.12139999999999951 0.2103000000000037,0.11999999999999922 0.21220000000000283,0.11939999999999884 0.21940000000000026,0.12139999999999951 0.21999999999999886,0.11779999999999902 0.2231000000000023,0.11859999999999893 0.22529999999999717,0.11189999999999856 0.23140000000000072,0.11139999999999972 0.22860000000000014,0.10829999999999984 0.22860000000000014,0.10670000000000002 0.23080000000000211,0.10549999999999926 0.22860000000000014,0.09579999999999878 0.22059999999999746,0.07889999999999908 0.210799999999999,0.0686 0.20470000000000255,0.05719999999999992 0.2002999999999986,0.05609999999999893 0.19720000000000226,0.046899999999999054 0.1875,0.03859999999999886 0.1822000000000017,0.03669999999999973 0.176400000000001,0.031899999999998485 "></polygon>
    </svg>
    