
    <svg width="3.0774" height="6.1835" xmlns="http://www.w3.org/2000/svg" xmlns:xlink="http://www.w3.org/1999/xlink" style="transform: scale(1, -1)">
        <polygon points="1.012145079552151,0.09792916912198013 1.0084,0.10420000000000051 1.0135,0.10899999999999999 1.0151000000000001,0.11500000000000021 1.0076,0.1391 0.9981,0.14540000000000042 0.9964999999999999,0.1568000000000005 1.0,0.1593 0.9949000000000001,0.16430000000000078 0.9952000000000001,0.17660000000000053 1.0010000000000001,0.17790000000000017 1.0013,0.18270000000000053 1.0032,0.18270000000000053 1.0063,0.1863999999999999 1.0065,0.1919000000000004 1.0021,0.19450000000000056 0.9984999999999999,0.1911000000000005 0.9984,0.19100000000000072 0.9904999999999999,0.19230000000000036 0.9834,0.19870000000000054 0.9796,0.21030000000000015 0.9788000000000001,0.21560000000000024 0.9801,0.22020000000000017 0.9786999999999999,0.2248000000000001 0.9764999999999999,0.22920000000000051 0.9663999999999999,0.23990000000000045 0.962,0.2395000000000005 0.9596,0.24150000000000027 0.9633,0.2461000000000002 0.9609000000000001,0.2511000000000001 0.956,0.2526999999999999 0.9547000000000001,0.26120000000000054 0.9516,0.2669000000000006 0.9482999999999999,0.26670000000000016 0.9452,0.2605000000000004 0.9381999999999999,0.2654000000000005 0.9316,0.2627000000000006 0.9213,0.2655000000000003 0.9198999999999999,0.27479999999999993 0.9226000000000001,0.27810000000000024 0.9280999999999999,0.27810000000000024 0.9276,0.3014000000000001 0.9214,0.30790000000000006 0.9241999999999999,0.31320000000000014 0.9219999999999999,0.3185000000000002 0.9134,0.31870000000000065 0.9097,0.3257000000000003 0.8965000000000001,0.3211000000000004 0.8941000000000001,0.3230000000000004 0.8921000000000001,0.3285 0.8998999999999999,0.33810000000000073 0.9014,0.34470000000000045 0.8998999999999999,0.3482000000000003 0.8958999999999999,0.3506 0.8884000000000001,0.3493000000000004 0.8818999999999999,0.3429000000000002 0.8693,0.3459000000000003 0.8667,0.3482000000000003 0.8623000000000001,0.3656000000000006 0.8588,0.3677999999999999 0.8527,0.3683000000000005 0.8474999999999999,0.3664000000000005 0.8381000000000001,0.37600000000000033 0.8387,0.3817000000000004 0.8359000000000001,0.39000000000000057 0.8287,0.3954000000000004 0.8287,0.40200000000000014 0.8339000000000001,0.4039999999999999 0.8371999999999999,0.4067000000000007 0.8363,0.40969999999999995 0.8294999999999999,0.4314 0.8192999999999999,0.4405000000000001 0.8159000000000001,0.44930000000000003 0.8034000000000001,0.4508000000000001 0.7995000000000001,0.4540000000000006 0.8022,0.45890000000000075 0.8069,0.45840000000000014 0.8104,0.46660000000000057 0.8153999999999999,0.46799999999999997 0.8179000000000001,0.4713000000000003 0.8167,0.4823000000000004 0.8186,0.4911000000000003 0.8258000000000001,0.4911000000000003 0.8452,0.5066000000000006 0.8466,0.5106999999999999 0.8438000000000001,0.5159000000000002 0.8463,0.5206 0.8515999999999999,0.5249000000000006 0.8478000000000001,0.5297000000000001 0.8340000000000001,0.5355000000000008 0.8343,0.5427 0.8382000000000001,0.5545 0.8391,0.5565000000000007 0.837,0.5632999999999999 0.8346,0.5651000000000002 0.8243,0.5657000000000005 0.8226,0.5715000000000003 0.8246,0.5777000000000001 0.8407,0.5905000000000005 0.839,0.5939000000000005 0.8293999999999999,0.5922000000000001 0.828998601398601,0.5926699300699303 0.8289,0.5975999999999999 0.8281000000000001,0.6064000000000007 0.828995177956372,0.5926739380022967 0.8252999999999999,0.5970000000000004 0.8276000000000001,0.6179000000000006 0.8203,0.6327000000000007 0.8220000000000001,0.6385000000000005 0.8323,0.6485000000000003 0.8296000000000001,0.6557000000000004 0.8312999999999999,0.6622000000000003 0.8309,0.6711 0.8185,0.6752000000000002 0.8082,0.681 0.8024,0.6872000000000007 0.8014000000000001,0.7116000000000007 0.7934000000000001,0.7257000000000007 0.7847999999999999,0.7362000000000002 0.7853000000000001,0.7498000000000005 0.7833000000000001,0.7631000000000006 0.8130999999999999,0.7627000000000006 0.8130999999999999,0.7599 0.8167,0.7591000000000001 0.8331,0.7606999999999999 0.8673,0.7591000000000001 0.8632,0.8906000000000001 0.8633,0.9709000000000003 0.8618000000000001,0.9711000000000007 0.8633,0.9710000000000001 0.8613999999999999,1.1817000000000002 0.8696999999999999,1.2508 0.8739000000000001,1.2575000000000003 0.8800000000000001,1.2595 0.9012,1.2595 0.9031,1.2627000000000006 0.9012,1.2717 0.8961000000000001,1.2781000000000002 0.8945000000000001,1.2832 0.885,1.2864000000000004 0.8752,1.3133 0.8765000000000001,1.3785000000000007 0.8626,1.4065000000000003 0.8572,1.4264000000000001 0.8566,1.4417 0.8615999999999999,1.5616000000000003 0.861,1.5754000000000001 0.8553,1.5917000000000003 0.8579000000000001,1.6513 0.8596999999999999,1.662 0.8584,1.6824000000000003 0.8596999999999999,1.6861000000000006 0.8616999999999999,1.7566000000000006 0.867,2.0655 0.8626,2.104800000000001 0.8561000000000001,2.1088000000000005 0.851,2.1167 0.8525,2.1449999999999996 0.8589,2.1691000000000003 0.863,2.1754999999999995 0.8694,2.1783 0.8717999999999999,2.1822999999999997 0.871,2.1891999999999996 0.8654,2.1975999999999996 0.8721000000000001,2.2348999999999997 0.8762000000000001,2.243400000000001 0.8749,2.2559000000000005 0.8632,2.274000000000001 0.8584,2.3574 0.8543000000000001,2.415800000000001 0.8573999999999999,2.444600000000001 0.8593,2.5611999999999995 0.8571,2.5860000000000003 0.8547,2.595600000000001 0.8584,2.625400000000001 0.8478000000000001,2.7203 0.8515999999999999,2.737400000000001 0.8494999999999999,2.7398000000000007 0.8556999999999999,2.764100000000001 0.8502000000000001,2.8072 0.8412999999999999,2.8278 0.8433999999999999,2.8367000000000004 0.8303,2.8644 0.8238000000000001,2.876100000000001 0.8047,2.8970000000000002 0.7850999999999999,2.9350000000000005 0.7766,2.9418000000000006 0.752,2.9555000000000007 0.7217,2.9860000000000007 0.7109000000000001,2.9993999999999996 0.7011000000000001,3.0059000000000005 0.6877,3.0198 0.6856,3.0272000000000006 0.6759,3.0440000000000005 0.6701999999999999,3.0493000000000006 0.6627000000000001,3.0580999999999996 0.6568,3.0616000000000003 0.6471,3.072000000000001 0.6335999999999999,3.100100000000001 0.6288,3.1201000000000008 0.6284000000000001,3.146600000000001 0.6255999999999999,3.1601999999999997 0.6275999999999999,3.1706000000000003 0.6255999999999999,3.1874000000000002 0.6260000000000001,3.2094000000000005 0.6240000000000001,3.215 0.6205,3.2451000000000008 0.6154999999999999,3.2622999999999998 0.5911,3.2507 0.5899000000000001,3.2508999999999997 0.5864,3.2521000000000004 0.5842,3.2553 0.585,3.2729 0.5733999999999999,3.3017000000000003 0.5682,3.3109 0.5923,3.3766 0.5923,3.415000000000001 0.5954999999999999,3.4267000000000003 0.5906,3.4536999999999995 0.589,3.462300000000001 0.5925,3.5159000000000002 0.5921000000000001,3.5883000000000003 0.5895999999999999,3.6509 0.5926,3.7392000000000003 0.5918000000000001,3.7674000000000003 0.5898000000000001,3.7772000000000006 0.2257,3.985100000000001 0.22250000000000003,3.9802999999999997 0.17869999999999997,4.017100000000001 0.08540000000000003,4.086 0.04920000000000002,4.116100000000001 0.0,4.1502 0.0015000000000000568,4.163500000000001 0.00040000000000006697,4.177100000000001 0.008099999999999996,4.2486999999999995 0.008099999999999996,4.2677 0.009199999999999986,4.277700000000001 0.0131,4.284600000000001 0.01739999999999997,4.300700000000001 0.027100000000000013,4.324 0.032200000000000006,4.346300000000001 0.03390000000000004,4.3804 0.03839999999999999,4.4565 0.04069999999999996,4.4697 0.045399999999999996,4.475900000000001 0.04920000000000002,4.484400000000001 0.051100000000000034,4.4925 0.0625,4.5199 0.0937,4.5601 0.09940000000000004,4.5715 0.11070000000000002,4.6266 0.12650000000000006,4.652000000000001 0.11680000000000001,4.678100000000001 0.1159,4.6853 0.12529999999999997,4.709900000000001 0.1259,4.719200000000001 0.13219999999999998,4.7379999999999995 0.13790000000000002,4.7616 0.1473,4.7826 0.17459999999999998,4.8009 0.18500000000000005,4.8101 0.1835,4.8096 0.18869999999999998,4.8146 0.1884,4.8169 0.19079999999999997,4.8171 0.1956,4.8231 0.19700000000000006,4.8294999999999995 0.19579999999999997,4.839600000000001 0.1976,4.847300000000001 0.20430000000000004,4.855600000000001 0.20740000000000003,4.8558 0.20989999999999998,4.854000000000001 0.21489999999999998,4.8454999999999995 0.2249,4.8508 0.2349000000000001,4.8508 0.2387999999999999,4.8485 0.24209999999999998,4.8444 0.24780000000000002,4.8283000000000005 0.25550000000000006,4.8178 0.2607999999999999,4.8146 0.26879999999999993,4.8142 0.29059999999999997,4.8239 0.2953000000000001,4.8241 0.3002,4.818900000000001 0.3104,4.816800000000001 0.3167,4.8138000000000005 0.3258000000000001,4.806700000000001 0.3359000000000001,4.7955000000000005 0.338612230215827,4.799287769784174 0.3417000000000001,4.803600000000001 0.34099999999999997,4.8063 0.3252999999999999,4.8217 0.3255000000000001,4.8277 0.31919999999999993,4.834100000000001 0.32220000000000004,4.843500000000001 0.3187,4.850900000000001 0.31220000000000003,4.855 0.31590000000000007,4.8649000000000004 0.3103,4.8702000000000005 0.3123,4.878400000000001 0.30879999999999996,4.8828 0.30390000000000006,4.883900000000001 0.2995000000000001,4.891 0.29289999999999994,4.894 0.29390000000000005,4.8885000000000005 0.2904,4.883900000000001 0.28570000000000007,4.8848 0.27659999999999996,4.892800000000001 0.2803,4.897 0.27849999999999997,4.9045000000000005 0.2812000000000001,4.908200000000001 0.2861,4.9108 0.31709999999999994,4.910400000000001 0.3227,4.9125 0.3374999999999999,4.9314 0.3440000000000001,4.9367 0.3669,4.9388000000000005 0.37270000000000003,4.929 0.3762000000000001,4.926500000000001 0.38159999999999994,4.9262 0.3857999999999999,4.929500000000001 0.3762000000000001,4.9407 0.3782000000000001,4.9465 0.37539999999999996,4.954000000000001 0.3782000000000001,4.9635 0.3742000000000001,4.968300000000001 0.3772,4.9727 0.3751,4.975900000000001 0.38139999999999996,4.9841999999999995 0.3821000000000001,4.989000000000001 0.37929999999999997,4.992700000000001 0.369,4.9963 0.3620000000000001,5.0021 0.3547,5.0168 0.3549,5.021600000000001 0.3621000000000001,5.031000000000001 0.3676999999999999,5.035400000000001 0.37349999999999994,5.0359 0.3852,5.026300000000001 0.3943000000000001,5.0258 0.4025000000000001,5.0275 0.40690000000000004,5.0268 0.41090000000000004,5.0238 0.41670000000000007,5.0236 0.43179999999999996,5.0259 0.4377,5.0234000000000005 0.4486000000000001,5.0253 0.4537,5.0244 0.474,5.0107 0.4778,5.010400000000001 0.4861,5.019400000000001 0.49960000000000004,5.025 0.502,5.029300000000001 0.4991000000000001,5.0388 0.4998,5.048400000000001 0.49649999999999994,5.054600000000001 0.49160000000000004,5.0550999999999995 0.48930000000000007,5.0535 0.48950000000000005,5.0509 0.4952000000000001,5.0451999999999995 0.49239999999999995,5.041500000000001 0.48750000000000004,5.042200000000001 0.484,5.046100000000001 0.4804999999999999,5.055 0.47829999999999995,5.0771 0.48130000000000006,5.0832999999999995 0.4848000000000001,5.0861 0.49150000000000005,5.0863 0.5004,5.0822 0.5085999999999999,5.0753 0.5161,5.058300000000001 0.5273000000000001,5.057 0.5294000000000001,5.0655 0.5338,5.0662 0.5373000000000001,5.064400000000001 0.5403,5.0577000000000005 0.5508,5.055 0.5570999999999999,5.0663 0.5666,5.0732 0.5666,5.0764 0.5575000000000001,5.0886 0.5577000000000001,5.0966000000000005 0.5521,5.0998 0.5462,5.1141000000000005 0.5474000000000001,5.1182 0.5437000000000001,5.1242 0.5457000000000001,5.1279 0.5489999999999999,5.1288 0.5609,5.1274 0.5663,5.129100000000001 0.5700000000000001,5.132100000000001 0.5692999999999999,5.136900000000001 0.5776000000000001,5.1465 0.5767,5.1523 0.5794999999999999,5.1555 0.5825,5.1553 0.5851,5.1502 0.5877000000000001,5.149800000000001 0.5984,5.1553 0.6009,5.1625 0.6140000000000001,5.1646 0.6163000000000001,5.1678 0.6155999999999999,5.1716999999999995 0.6093,5.1747 0.6054999999999999,5.188500000000001 0.6101000000000001,5.2073 0.6334,5.2193000000000005 0.6399999999999999,5.2166 0.6449,5.217500000000001 0.6478999999999999,5.221 0.6514,5.231300000000001 0.6567000000000001,5.231300000000001 0.6602000000000001,5.237300000000001 0.6658,5.238900000000001 0.6688000000000001,5.237300000000001 0.6718999999999999,5.23 0.6772,5.2277000000000005 0.6859,5.2286 0.6936,5.2316 0.7015,5.219200000000001 0.7059,5.2197 0.7203999999999999,5.231 0.7269000000000001,5.231400000000001 0.7351000000000001,5.2216000000000005 0.7442,5.2195 0.7496,5.2149 0.7575000000000001,5.212400000000001 0.7628999999999999,5.212900000000001 0.7669999999999999,5.2157 0.7763,5.2357 0.7801,5.236600000000001 0.7824,5.235000000000001 0.7857000000000001,5.227400000000001 0.7936000000000001,5.222300000000001 0.7941,5.212 0.7981,5.2095 0.8046,5.208600000000001 0.806,5.2044 0.8002,5.195 0.8088,5.1929 0.8156000000000001,5.186300000000001 0.8153999999999999,5.1683 0.8187,5.1633 0.8253999999999999,5.159800000000001 0.8393999999999999,5.1592 0.8462000000000001,5.1555 0.8508,5.156000000000001 0.8632,5.166600000000001 0.8685,5.1675 0.8746,5.1617 0.8888,5.1615 0.8959999999999999,5.165700000000001 0.9091,5.1793 0.9133,5.179500000000001 0.9187000000000001,5.1744 0.9254,5.1731 0.9331,5.180400000000001 0.9398,5.1942 0.9431,5.1949000000000005 0.9478,5.1883 0.9550000000000001,5.189 0.9594,5.1869 0.9621999999999999,5.182500000000001 0.9655,5.1815999999999995 0.9737,5.1853 0.9781,5.181800000000001 0.9814,5.1823 0.9842,5.1874 0.9895,5.1876 0.9993000000000001,5.1844 1.0030000000000001,5.187200000000001 1.0089,5.1869 1.0131000000000001,5.1899 1.021,5.1915 1.0235,5.1968 1.0282,5.2010000000000005 1.0329,5.201600000000001 1.0473000000000001,5.198 1.0539,5.199400000000001 1.0613,5.2033000000000005 1.0674,5.2095 1.0713,5.2097 1.0734,5.2035 1.093,5.2104 1.0984,5.2109000000000005 1.1099,5.203100000000001 1.1181,5.204700000000001 1.1382,5.1958 1.182,5.1853 1.1846,5.1867 1.2077,5.1851 1.2361000000000002,5.1884 1.2449000000000001,5.1928 1.2989,5.248800000000001 1.3164,5.264000000000001 1.3703999999999998,5.3193 1.3830000000000002,5.3347 1.3920000000000001,5.3421 1.4111,5.362300000000001 1.4187999999999998,5.3658 1.4319,5.366100000000001 1.4445,5.3748000000000005 1.4831999999999999,5.413 1.5313999999999999,5.439500000000001 1.5353,5.4459 1.5305000000000002,5.448 1.5294999999999999,5.4510000000000005 1.5324000000000002,5.462 1.5265000000000002,5.4735 1.5249,5.485900000000001 1.5282000000000002,5.490500000000001 1.5294,5.500400000000001 1.5397,5.5112000000000005 1.5448000000000002,5.5213 1.5546,5.526300000000001 1.5639999999999998,5.535300000000001 1.5660999999999998,5.5504999999999995 1.5757,5.554400000000001 1.5980999999999999,5.558200000000001 1.5978,5.5631 1.5938999999999999,5.5672 1.5957999999999999,5.572000000000001 1.5934000000000001,5.5785 1.5957999999999999,5.5832999999999995 1.6068,5.588800000000001 1.6089,5.592700000000001 1.6081999999999999,5.595000000000001 1.6037000000000001,5.5959 1.6012000000000002,5.5985 1.5999999999999999,5.6022 1.6049,5.619200000000001 1.6148,5.6279 1.6260000000000001,5.632200000000001 1.6283,5.6357 1.6281,5.6396 1.6201999999999999,5.654300000000001 1.6228,5.6606000000000005 1.6281,5.661200000000001 1.6304999999999998,5.6631 1.6311000000000002,5.6667000000000005 1.6371,5.6714 1.6254000000000002,5.6785 1.628,5.684800000000001 1.6175,5.6959 1.6283999999999998,5.705300000000001 1.6323999999999999,5.7156 1.6382,5.714500000000001 1.6457,5.7203 1.6569,5.7204999999999995 1.6593000000000002,5.7239 1.6567,5.735200000000001 1.6584,5.7402999999999995 1.6628,5.7416 1.6683999999999999,5.747400000000001 1.6722,5.7471 1.6807999999999998,5.7409 1.6845,5.7414000000000005 1.6914,5.749700000000001 1.6941,5.7597000000000005 1.6893999999999998,5.7889 1.6857,5.7972 1.6706999999999999,5.816700000000001 1.663,5.831900000000001 1.6485,5.854700000000001 1.6377,5.8763000000000005 1.6255,5.9078 1.6182,5.947800000000001 1.6112,6.0006 1.6130000000000002,6.007300000000001 1.6294000000000002,6.0145 1.6512,6.016500000000001 1.6563,6.0205 1.6603,6.0283 1.664,6.027900000000001 1.6723999999999999,6.0215 1.6782000000000001,6.0192 1.6828,6.0207999999999995 1.6854000000000002,6.0181000000000004 1.6897,6.0184 1.6956,6.0375 1.6999000000000002,6.038500000000001 1.7203000000000002,6.034000000000001 1.7253,6.040900000000001 1.7314,6.0425 1.7337,6.053800000000001 1.7368,6.0588 1.74,6.0595 1.7482,6.0504999999999995 1.7558999999999998,6.046800000000001 1.7617999999999998,6.0397 1.7674,6.042300000000001 1.7672999999999999,6.0394000000000005 1.7721000000000002,6.039200000000001 1.7768,6.040900000000001 1.7796999999999998,6.0448 1.784,6.0434 1.7909,6.0442 1.7929000000000002,6.046200000000001 1.8014,6.0466 1.8052,6.0426 1.8183,6.0634 1.8217,6.0623000000000005 1.8275,6.0649999999999995 1.8288,6.063500000000001 1.8400999999999998,6.065900000000001 1.8551,6.0602 1.8587,6.0624 1.8661999999999999,6.062100000000001 1.8891000000000002,6.071200000000001 1.8983999999999999,6.069700000000001 1.9038000000000002,6.0656 1.9053000000000002,6.0625 1.9107999999999998,6.0595 1.9117,6.0494 1.9098,6.0451999999999995 1.9119,6.0458 1.9309999999999998,6.0832 1.9416,6.1144 1.9490999999999998,6.1202000000000005 1.9545000000000001,6.127700000000001 1.9586,6.1273 2.0008999999999997,6.1761 2.0202999999999998,6.1835 2.0315000000000003,6.182500000000001 2.0449,6.178800000000001 2.0582000000000003,6.172600000000001 2.0646000000000004,6.171800000000001 2.0721999999999996,6.1655 2.0982000000000003,6.152900000000001 2.1068,6.1432 2.1101,6.1423000000000005 2.1125999999999996,6.1358 2.1326,6.1145 2.1475999999999997,6.101800000000001 2.1529,6.100100000000001 2.1670999999999996,6.083400000000001 2.1700999999999997,6.081800000000001 2.1841999999999997,6.0596 2.2070999999999996,6.051 2.2192999999999996,6.0417000000000005 2.2393,6.031500000000001 2.2451,6.0222999999999995 2.2510000000000003,6.0059000000000005 2.2554,5.9986999999999995 2.2849000000000004,5.973700000000001 2.2857000000000003,5.9712 2.2838000000000003,5.966800000000001 2.2854,5.9612 2.2976,5.9487000000000005 2.3079,5.941800000000001 2.3265000000000002,5.9376 2.3396,5.927900000000001 2.3507,5.922600000000001 2.3535000000000004,5.919500000000001 2.3529,5.9054 2.3943000000000003,5.8787 2.4021,5.870900000000001 2.4146,5.848700000000001 2.4318,5.834300000000001 2.4459999999999997,5.825900000000001 2.4560000000000004,5.8154 2.4581999999999997,5.8126 2.4604,5.8034 2.4642999999999997,5.7986 2.4875,5.7813 2.4863,5.7767 2.4743000000000004,5.7593 2.4882,5.7475000000000005 2.4945000000000004,5.7379999999999995 2.4981999999999998,5.7277000000000005 2.5014000000000003,5.7058 2.5088,5.699300000000001 2.5092,5.699200000000001 2.5092999999999996,5.699200000000001 2.5113000000000003,5.699200000000001 2.5167,5.6965 2.5278,5.6592 2.5332999999999997,5.652800000000001 2.5476,5.6508 2.5511,5.652900000000001 2.5651,5.6503 2.5965999999999996,5.6561 2.6052999999999997,5.6518 2.6193,5.648200000000001 2.6287000000000003,5.6426 2.6379,5.6419999999999995 2.644,5.643700000000001 2.6517999999999997,5.639800000000001 2.6668000000000003,5.6419999999999995 2.6729000000000003,5.6401 2.6871,5.6304 2.6978999999999997,5.6297999999999995 2.7070999999999996,5.6265 2.7123999999999997,5.622 2.7196,5.6084 2.7283999999999997,5.5975 2.7404,5.587900000000001 2.7468000000000004,5.5798000000000005 2.7451,5.5654 2.7460000000000004,5.5579 2.7485,5.552900000000001 2.7607,5.544500000000001 2.7676,5.543200000000001 2.7788000000000004,5.544500000000001 2.7843,5.5417000000000005 2.7862999999999998,5.535300000000001 2.7851999999999997,5.530200000000001 2.776,5.516400000000001 2.7741,5.508900000000001 2.7755,5.5031 2.7808,5.4955 2.7939999999999996,5.4841 2.7968,5.4848 2.814,5.475900000000001 2.8308,5.4620999999999995 2.8259,5.4571000000000005 2.8173000000000004,5.4397 2.8121,5.421800000000001 2.8040000000000003,5.408800000000001 2.7916999999999996,5.382100000000001 2.787,5.3667 2.7613000000000003,5.2415 2.7264999999999997,5.085800000000001 2.7217000000000002,5.0572 2.7767,5.0123 2.9176,4.8933 2.9432,4.892900000000001 2.9516,4.889200000000001 2.9532,4.8828 2.9448999999999996,4.851800000000001 2.9495000000000005,4.8207 2.9471999999999996,4.807600000000001 2.9429999999999996,4.8003 2.9425999999999997,4.7894000000000005 2.9599,4.7849 2.9772,4.7765 2.9852,4.7623 2.9969,4.6959 2.9947999999999997,4.6632 2.9749,4.602600000000001 2.9752,4.5898 2.9779,4.5809999999999995 2.9979000000000005,4.5503 3.0109000000000004,4.518600000000001 3.0232,4.500300000000001 3.0384,4.488300000000001 3.0587999999999997,4.477400000000001 3.0667,4.470000000000001 3.0697,4.458 3.0716,4.4361999999999995 3.0736999999999997,4.4328 3.0774,4.370900000000001 3.0740999999999996,4.353900000000001 3.0575,4.3337 3.0319000000000003,4.2681000000000004 3.0267,4.250400000000001 3.0279,4.2203 3.0117000000000003,4.1705000000000005 3.0012999999999996,4.175800000000001 2.995,4.180900000000001 2.9863999999999997,4.1837 2.9208,4.2189 2.9134,4.221500000000001 2.8911,4.207600000000001 2.8718000000000004,4.200200000000001 2.8634000000000004,4.1927 2.8573000000000004,4.181900000000001 2.8604000000000003,4.16 2.8596000000000004,4.155000000000001 2.8520000000000003,4.1387 2.8400999999999996,4.120800000000001 2.8099,4.0435 2.8103,4.0402000000000005 2.8234000000000004,4.0069 2.8381999999999996,3.9868000000000006 2.8489000000000004,3.9792000000000005 2.872,3.9544999999999995 2.8810000000000002,3.949200000000001 2.8982,3.9489 2.9038000000000004,3.9434000000000005 2.9047,3.9349000000000007 2.9016,3.921100000000001 2.9017999999999997,3.9144000000000005 2.8884999999999996,3.872 2.8840000000000003,3.8682999999999996 2.8722000000000003,3.8667999999999996 2.8548999999999998,3.8583 2.8493000000000004,3.8529999999999998 2.8413000000000004,3.8407 2.8373,3.8275000000000006 2.8371000000000004,3.7611000000000008 2.8280000000000003,3.7225 2.8215000000000003,3.7108000000000008 2.7968,3.6905 2.7899000000000003,3.6811000000000007 2.7899000000000003,3.6647 2.7880000000000003,3.6601999999999997 2.7767,3.6471 2.7737,3.645900000000001 2.7644,3.6339000000000006 2.7553,3.6272 2.7367999999999997,3.6224000000000007 2.7245,3.6234 2.7005,3.628300000000001 2.6821,3.6263000000000005 2.5823,3.5907999999999998 2.5726000000000004,3.582600000000001 2.5552,3.5635000000000012 2.5491,3.542 2.55,3.5264000000000006 2.5542999999999996,3.511000000000001 2.5658000000000003,3.4860000000000007 2.5761000000000003,3.4701000000000004 2.5778,3.4625000000000004 2.5743,3.4505 2.5406000000000004,3.4228000000000005 2.5353000000000003,3.422600000000001 2.518,3.427200000000001 2.5061,3.4268 2.4973,3.424100000000001 2.4893,3.4174000000000007 2.4816000000000003,3.4048 2.4813,3.3994999999999997 2.4791,3.375 2.4755000000000003,3.3675999999999995 2.458,3.341000000000001 2.4523,3.3359000000000005 2.4417999999999997,3.318900000000001 2.4336,3.3095999999999997 2.4204999999999997,3.2802000000000007 2.4118000000000004,3.2720000000000002 2.3804999999999996,3.2582000000000004 2.3619000000000003,3.2279999999999998 2.3558000000000003,3.197700000000001 2.3574,3.2012 2.3590999999999998,3.1912000000000003 2.3775000000000004,3.1408000000000005 2.3792999999999997,3.1297999999999995 2.3772,3.1045 2.3772,3.1043000000000003 2.377325984251968,3.0987251968503955 2.3772,3.1003000000000007 2.3772,3.100200000000001 2.3773271317829456,3.098674418604652 2.3776,3.0866000000000007 2.3776,3.086500000000001 2.38,3.0603 2.3825000000000003,3.046900000000001 2.3757,3.037700000000001 2.3574,3.0242000000000004 2.3521,3.0173000000000005 2.3479,3.0035000000000007 2.3494,2.9573 2.327,2.917300000000001 2.3178,2.8949 2.3139000000000003,2.8667 2.3091999999999997,2.8629999999999995 2.2819000000000003,2.854800000000001 2.2683,2.848600000000001 2.2607999999999997,2.847900000000001 2.2338000000000005,2.8390000000000004 2.2098000000000004,2.8374000000000006 2.1898,2.8446 2.1821,2.8575 2.1791,2.8576999999999995 2.1383,2.852500000000001 2.1218000000000004,2.8488000000000007 2.1075999999999997,2.8381000000000007 2.1048999999999998,2.8298000000000005 2.0933,2.8271999999999995 2.0801,2.829600000000001 2.0065999999999997,2.8301999999999996 2.0040000000000004,2.8191000000000006 2.0119,2.8100000000000005 2.0084999999999997,2.8024000000000004 2.0080999999999998,2.796800000000001 2.0,2.7912999999999997 2.0012,2.7889 2.0088999999999997,2.787000000000001 2.0096999999999996,2.7844999999999995 2.0083,2.7811000000000003 1.9976,2.7758000000000003 1.9978,2.772500000000001 2.0068,2.7705 2.0080999999999998,2.7682 2.0035,2.76 2.0054999999999996,2.7567000000000004 2.0125,2.755700000000001 2.0143000000000004,2.7528000000000006 2.0130999999999997,2.7505000000000006 2.0077999999999996,2.7477 2.0087,2.743400000000001 2.013,2.7393 2.0145,2.7354000000000003 2.0115,2.7292000000000005 1.9968000000000001,2.718 1.9969,2.7179 2.0019423728813557,2.716315254237289 2.0039,2.7157 2.0075000000000003,2.7103 1.9963,2.6838999999999995 1.9880000000000002,2.6797000000000004 1.9838000000000002,2.673 1.9840000000000002,2.6690000000000005 1.9873999999999998,2.6678999999999995 1.9961,2.6698000000000004 1.9993,2.6598000000000006 1.9939000000000002,2.6323000000000008 1.9837,2.630000000000001 1.9827000000000001,2.6286000000000005 1.9826,2.6247000000000007 1.9868,2.6166 1.9838000000000002,2.5952 1.9845,2.5847999999999995 1.9890999999999999,2.5748999999999995 1.9868,2.570500000000001 1.9814,2.5676000000000005 1.9706,2.5649999999999995 1.966,2.5603 1.9633,2.552200000000001 1.9584,2.5463000000000005 1.9547999999999999,2.539900000000001 1.9553,2.548400000000001 1.9542,2.5464 1.9541000000000002,2.5378000000000007 1.9596000000000002,2.5226000000000006 1.9698,2.5091 1.9718000000000002,2.500300000000001 1.9719,2.4749 1.9761,2.4654000000000007 1.9671,2.443100000000001 1.9719,2.431700000000001 1.9650999999999998,2.4259000000000004 1.9633,2.42 1.9647,2.415700000000001 1.9722000000000002,2.411200000000001 1.9747999999999999,2.4055 1.9755999999999998,2.3702000000000005 1.9757,2.343 1.9844000000000002,2.3267000000000007 1.9800000000000002,2.312000000000001 1.9753999999999998,2.3031000000000006 1.9751999999999998,2.2981999999999996 1.9875999999999998,2.287600000000001 1.9875,2.2704000000000004 1.9764000000000002,2.2584999999999997 1.9757,2.2547999999999995 1.9826,2.2477 1.9747999999999999,2.2379 1.9699000000000002,2.2271 1.9664,2.2101000000000006 1.9602000000000002,2.2017000000000007 1.9602000000000002,2.2012 1.9518000000000002,2.1971000000000007 1.950614285714286,2.1970484472049705 1.9403,2.1966 1.9326,2.1853999999999996 1.937,2.1706000000000003 1.9397,2.1523000000000003 1.9344,2.1347000000000005 1.9227999999999998,2.1224000000000007 1.9214,2.0898000000000003 1.9239,2.0723000000000003 1.9368999999999998,2.0412999999999997 1.9403,2.0256000000000007 1.9442000000000002,2.018700000000001 1.9525,2.0115999999999996 1.959495039224733,2.0003043070296904 1.9465999999999999,2.0115 1.954,2.0046 1.959495553759093,2.0003034761519825 1.966,1.9898000000000007 1.9798000000000002,1.9764 1.977,1.9726999999999997 1.9759,1.9658999999999995 1.9767,1.9550999999999998 1.9739000000000002,1.9298000000000002 1.9697000000000002,1.921100000000001 1.9623000000000002,1.912700000000001 1.9579000000000002,1.904 1.9556000000000002,1.8933999999999997 1.9582,1.8819 1.9562000000000002,1.870000000000001 1.9507999999999999,1.8576999999999995 1.9497000000000002,1.8501000000000012 1.9547999999999999,1.8355999999999995 1.9545000000000001,1.831900000000001 1.949,1.8262 1.933,1.7651000000000003 1.9302,1.7332 1.9252,1.7178000000000004 1.9212,1.6959 1.9163,1.6902 1.9135000000000002,1.6785000000000005 1.9015000000000002,1.6583000000000006 1.8941000000000001,1.6549000000000005 1.9215000000000002,1.6199000000000003 1.9320000000000002,1.5978000000000003 1.9349999999999998,1.5822000000000003 1.937,1.5783000000000005 1.946,1.5760000000000005 1.9504,1.5727000000000002 1.9551999999999998,1.5573000000000006 1.9581000000000002,1.5373 1.9537000000000002,1.5100000000000007 1.9558000000000002,1.4699 1.9561,1.4643000000000006 1.9511,1.4131 1.9547,1.388 1.9538,1.3751000000000007 1.9560000000000002,1.3453 1.9619000000000002,1.3303000000000003 1.9718000000000002,1.3209 1.9734,1.3121 1.9718000000000002,1.3054000000000006 1.9753,1.2924000000000007 1.9805,1.2864000000000004 1.9878000000000002,1.2840000000000007 2.0008999999999997,1.2758000000000003 2.0117000000000003,1.2638000000000007 2.0186,1.2596000000000007 2.0239000000000003,1.2477 2.0248999999999997,1.1916000000000002 2.0214,1.1884000000000006 2.0115,1.1838000000000006 1.9885,1.1843000000000004 1.9827000000000001,1.1823000000000006 1.9732999999999998,1.1825 1.9730999999999999,1.1311 1.9758000000000002,1.0761000000000003 1.9751999999999998,1.0263 1.9763,1.0226000000000006 1.9823000000000002,1.0161000000000007 1.9878000000000002,1.0133 2.0,0.9995000000000003 2.0092999999999996,0.9475000000000007 2.0106,0.9243000000000006 2.0010000000000003,0.8933 1.993,0.8821000000000003 1.9764000000000002,0.8709000000000007 1.9707999999999999,0.8642000000000003 1.9707999999999999,0.8578000000000001 1.9786,0.8424000000000005 1.9887,0.8317000000000005 1.9928000000000001,0.8304 2.0075000000000003,0.8188000000000004 2.0183,0.8064 2.0111999999999997,0.8016000000000005 2.0008,0.7986000000000004 1.9923,0.7915000000000001 1.969,0.7776000000000005 1.9492999999999998,0.7556000000000003 1.9463000000000001,0.7516000000000007 1.9440000000000002,0.7061999999999999 1.9457000000000002,0.6999000000000004 1.9526000000000001,0.6955 1.9582,0.6950000000000003 1.9736,0.6934000000000005 1.9772,0.6775000000000002 1.9762000000000002,0.6502000000000008 1.9694999999999998,0.6217000000000006 1.9704,0.6122000000000005 1.9749,0.6044 1.9555,0.5736000000000008 1.9537000000000002,0.5668000000000006 1.9549999999999998,0.5552999999999999 1.9583000000000002,0.5443000000000007 1.9648999999999999,0.5304000000000002 1.9774999999999998,0.5242000000000004 1.9886000000000001,0.5228000000000002 2.0044000000000004,0.5243000000000002 2.0120000000000005,0.5197000000000003 2.0152,0.5132000000000003 2.0153999999999996,0.5040000000000004 2.0117000000000003,0.4884000000000004 2.0122999999999998,0.4599000000000002 1.9957,0.4450000000000003 1.9865000000000002,0.43930000000000025 1.9782,0.4308000000000005 1.9570999999999998,0.39590000000000014 1.9617000000000002,0.37380000000000013 1.9703000000000002,0.34890000000000043 1.9788,0.33560000000000034 1.9763,0.3225000000000007 1.9686000000000001,0.3105000000000002 1.9549999999999998,0.2995000000000001 1.9504,0.2915000000000001 1.946,0.2728999999999999 1.9431,0.23580000000000023 1.9364000000000001,0.21770000000000067 1.9320000000000002,0.19070000000000054 1.934,0.1745000000000001 1.9349999999999998,0.1405000000000003 1.8792000000000002,0.133 1.8745,0.13360000000000039 1.8438999999999999,0.1280000000000001 1.8336,0.1275000000000004 1.8324999999999998,0.12880000000000003 1.8295000000000001,0.1272000000000002 1.7933000000000001,0.12440000000000051 1.7783,0.12440000000000051 1.7728,0.12630000000000052 1.765,0.12380000000000013 1.7620000000000002,0.125 1.7356,0.12300000000000022 1.7264000000000002,0.12330000000000041 1.7242,0.1247000000000007 1.7186000000000001,0.1236000000000006 1.7167000000000001,0.1255000000000006 1.7164,0.12440000000000051 1.6994,0.1255000000000006 1.6906,0.12410000000000032 1.6897,0.1214000000000004 1.6866999999999999,0.11940000000000062 1.6830999999999998,0.12050000000000072 1.6717000000000002,0.11969999999999992 1.6697,0.11830000000000052 1.6697,0.11500000000000021 1.6605999999999999,0.1164000000000005 1.6575,0.11330000000000062 1.6483,0.11330000000000062 1.6453,0.11190000000000033 1.6483,0.11020000000000074 1.6522,0.11110000000000042 1.6539,0.10860000000000003 1.6489,0.11000000000000032 1.6386,0.10830000000000073 1.6297,0.11080000000000023 1.6231000000000002,0.11020000000000074 1.6192,0.11300000000000043 1.6156,0.11250000000000071 1.6142,0.11500000000000021 1.6133,0.11270000000000024 1.5894000000000001,0.11470000000000002 1.5597,0.11500000000000021 1.5542,0.11330000000000062 1.5010999999999999,0.10970000000000013 1.4717,0.10860000000000003 1.465,0.10660000000000025 1.4383000000000001,0.10380000000000056 1.4372,0.10500000000000043 1.4194000000000002,0.10130000000000017 1.3743999999999998,0.09750000000000014 1.3566999999999998,0.09410000000000007 1.3545,0.09500000000000064 1.2752999999999999,0.08079999999999998 1.2699999999999998,0.07860000000000067 1.2596999999999998,0.07800000000000029 1.2003,0.0674999999999999 1.1839,0.06660000000000021 1.1872,0.06770000000000032 1.19,0.07250000000000068 1.2164,0.07220000000000049 1.2192,0.07469999999999999 1.2264000000000002,0.07610000000000028 1.2286,0.07469999999999999 1.2289,0.07690000000000019 1.2189,0.07580000000000009 1.2178,0.07440000000000069 1.2089,0.0741000000000005 1.207,0.07580000000000009 1.2122,0.0754999999999999 1.2192,0.07970000000000077 1.2203,0.08190000000000008 1.2239,0.08250000000000046 1.2236,0.08360000000000056 1.2167000000000001,0.08110000000000017 1.2175,0.07970000000000077 1.2133,0.07830000000000048 1.2128,0.0766 1.2069,0.07780000000000076 1.2039,0.07330000000000059 1.2033,0.07580000000000009 1.1997,0.07500000000000018 1.1978,0.07690000000000019 1.1942,0.07360000000000078 1.19,0.07610000000000028 1.1864000000000001,0.07610000000000028 1.1828,0.07469999999999999 1.1789,0.0754999999999999 1.1736,0.07270000000000021 1.1658,0.07800000000000029 1.1603,0.0777000000000001 1.1545,0.0763000000000007 1.1514,0.0691000000000006 1.1436,0.0702000000000007 1.1414,0.06770000000000032 1.1414,0.06500000000000039 1.1308,0.0613999999999999 1.1278,0.06300000000000061 1.1214,0.05940000000000012 1.1136,0.06020000000000003 1.1061,0.05750000000000011 1.0983,0.05770000000000053 1.092,0.05520000000000014 1.0814,0.056100000000000705 1.075,0.053600000000000314 1.0756000000000001,0.05109999999999992 1.0695000000000001,0.048799999999999955 1.065,0.05000000000000071 1.0608,0.053300000000000125 1.0556,0.052700000000000635 1.0611,0.051300000000000345 1.0656,0.04750000000000032 1.0783,0.04860000000000042 1.0764,0.04720000000000013 1.06,0.04520000000000035 0.998,0.029300000000000104 0.9777,0.026699999999999946 0.8591,0.000600000000000378 0.8560000000000001,0.0 0.8551,0.0015000000000000568 0.8654,0.0045000000000001705 0.8824000000000001,0.015100000000000335 0.8932,0.013400000000000745 0.8982000000000001,0.015400000000000524 0.9046000000000001,0.02260000000000062 0.9100999999999999,0.02400000000000002 0.9196,0.02090000000000014 0.9288000000000001,0.0257000000000005 0.9339999999999999,0.02400000000000002 0.9403999999999999,0.024500000000000632 0.9481999999999999,0.030400000000000205 0.9651000000000001,0.029300000000000104 0.9729000000000001,0.0354000000000001 0.9910000000000001,0.03620000000000001 1.0043,0.04400000000000048 1.0229,0.04400000000000048 1.0282,0.04540000000000077 1.0332000000000001,0.04760000000000009 1.0332000000000001,0.05150000000000077 1.0312000000000001,0.056100000000000705 1.0213,0.058699999999999974 1.0154,0.06790000000000074 1.0236,0.0719000000000003 1.0241,0.07860000000000067 1.0181,0.09390000000000054 1.0127,0.09700000000000042 1.012157586837294,0.09790822669104227 1.0128,0.09800000000000075 1.0138,0.0990000000000002 1.012145079552151,0.09792916912198013 "></polygon><polygon points="0.8584,2.3574 0.8725,2.3552 0.8829,2.354700000000001 0.8584,2.3574 "></polygon><polygon points="0.8829,2.354700000000001 0.8943000000000001,2.3602000000000007 0.8991,2.3629999999999995 0.8829,2.354700000000001 "></polygon><polygon points="0.8991,2.3629999999999995 0.909,2.3657000000000004 0.9008,2.3640000000000008 0.8991,2.3629999999999995 "></polygon><polygon points="0.909,2.3657000000000004 0.9232,2.3695000000000004 0.9286000000000001,2.3712 0.909,2.3657000000000004 "></polygon><polygon points="0.9286000000000001,2.3712 0.9340999999999999,2.3701000000000008 0.9516,2.3696 0.9286000000000001,2.3712 "></polygon><polygon points="2.3772,3.1003000000000007 2.2786999999999997,3.106 2.2561999999999998,3.1073000000000004 2.3772,3.1003000000000007 "></polygon><polygon points="1.9584,2.5463000000000005 1.9570999999999998,2.5466999999999995 1.9583000000000002,2.5463000000000005 1.9584,2.5463000000000005 "></polygon><polygon points="1.9465999999999999,2.0115 1.9377000000000002,2.0219000000000005 1.9408999999999998,2.0168999999999997 1.9465999999999999,2.0115 "></polygon><polygon points="1.9558000000000002,1.4699 1.9538,1.4629000000000003 1.9521,1.4553000000000003 1.9558000000000002,1.4699 "></polygon><polygon points="0.9191,0.39010000000000034 0.9181999999999999,0.3905000000000003 0.913,0.3921000000000001 0.9191,0.39010000000000034 "></polygon><polygon points="0.9191,0.39010000000000034 0.9426000000000001,0.3803000000000001 0.9318,0.3853 0.9191,0.39010000000000034 "></polygon><polygon points="0.9821,0.31650000000000045 0.9851000000000001,0.31340000000000057 0.9816,0.3174999999999999 0.9821,0.31650000000000045 "></polygon><polygon points="0.9851000000000001,0.31340000000000057 0.9861,0.3033999999999999 0.986,0.3069000000000006 0.9855,0.31120000000000037 0.9851000000000001,0.31340000000000057 "></polygon><polygon points="1.8518000000000001,0.6036000000000001 1.8535000000000001,0.5965000000000007 1.8518000000000001,0.6102000000000007 1.8518000000000001,0.6036000000000001 "></polygon><polygon points="1.8535000000000001,0.5965000000000007 1.8551,0.5938000000000008 1.86,0.5862000000000007 1.8535000000000001,0.5965000000000007 "></polygon><polygon points="1.5675000000000001,2.4686000000000003 1.5675000000000001,2.474400000000001 1.5671000000000002,2.4642 1.5675000000000001,2.4686000000000003 "></polygon><polygon points="1.5671000000000002,2.4642 1.5656,2.4543999999999997 1.5641999999999998,2.4388000000000005 1.5671000000000002,2.4642 "></polygon><polygon points="1.8381999999999998,1.3025000000000002 1.8294,1.2977000000000007 1.8463,1.3066000000000004 1.8381999999999998,1.3025000000000002 "></polygon><polygon points="1.8294,1.2977000000000007 1.8286,1.2865000000000002 1.8286,1.2712000000000003 1.8294,1.2977000000000007 "></polygon><polygon points="1.9027,1.2453000000000003 1.8962,1.2493000000000007 1.8941999999999999,1.2505000000000006 1.9027,1.2453000000000003 "></polygon><polygon points="1.9027,1.2453000000000003 1.9075,1.2421000000000006 1.9050999999999998,1.2445000000000004 1.9027,1.2453000000000003 "></polygon><polygon points="2.012185714285759,3.388014285714174 2.0145,3.382100000000001 2.0151000000000003,3.380600000000001 2.012185714285759,3.388014285714174 "></polygon><polygon points="2.012185714285759,3.388014285714174 2.0091,3.395900000000001 2.0083,3.3979 2.012185714285759,3.388014285714174 "></polygon><polygon points="1.8968999999999998,3.0386000000000006 1.8865,3.0333000000000006 1.8802999999999999,3.030100000000001 1.8968999999999998,3.0386000000000006 "></polygon><polygon points="1.8968999999999998,3.0386000000000006 1.917,3.0488999999999997 1.9143999999999999,3.047600000000001 1.9019000000000001,3.0412 1.8968999999999998,3.0386000000000006 "></polygon><polygon points="0.7707999999999999,3.364700000000001 0.7741,3.3637999999999995 0.7867999999999999,3.360800000000001 0.7707999999999999,3.364700000000001 "></polygon><polygon points="0.7707999999999999,3.364700000000001 0.7692000000000001,3.3618000000000006 0.7674000000000001,3.3550000000000004 0.7707999999999999,3.364700000000001 "></polygon><polygon points="0.7577,4.4853000000000005 0.7525999999999999,4.481400000000001 0.7252000000000001,4.4603 0.7662,4.4918 0.7577,4.4853000000000005 "></polygon><polygon points="0.7252000000000001,4.4603 0.685,4.4269 0.6749,4.4185 0.7252000000000001,4.4603 "></polygon><polygon points="0.9232,4.7112 0.9282999999999999,4.7264 0.9316,4.7401 0.9232,4.7112 "></polygon><polygon points="0.9316,4.7401 0.9421999999999999,4.7547 0.9513,4.7683 0.9316,4.7401 "></polygon><polygon points="0.9513,4.7683 0.951758117647058,4.769612235294115 0.9516,4.7692 0.9513,4.7683 "></polygon><polygon points="0.951758117647058,4.769612235294115 0.9543999999999999,4.7765 0.9572,4.7852 0.951758117647058,4.769612235294115 "></polygon><polygon points="0.9828000000000001,4.819000000000001 0.9917,4.8359000000000005 0.9761,4.809200000000001 0.9828000000000001,4.819000000000001 "></polygon><polygon points="0.9917,4.8359000000000005 0.9934000000000001,4.8462 0.9951000000000001,4.8576999999999995 0.9952000000000001,4.8664000000000005 0.9917,4.8359000000000005 "></polygon><polygon points="0.9803,4.8736 0.9902,4.8719 0.9775,4.8741 0.9803,4.8736 "></polygon><polygon points="0.9775,4.8741 0.9786999999999999,4.890500000000001 0.9781,4.884500000000001 0.9775,4.8741 "></polygon><polygon points="1.1093,5.0487 1.1104,5.052 1.1127,5.0672999999999995 1.1127,5.072700000000001 1.1093,5.0487 "></polygon><polygon points="1.1127,5.072700000000001 1.1161,5.085800000000001 1.1138,5.0798000000000005 1.1127,5.072700000000001 "></polygon><polygon points="1.1234,5.1038 1.1217,5.097200000000001 1.1261,5.108700000000001 1.1234,5.1038 "></polygon><polygon points="1.1261,5.108700000000001 1.1345,5.118500000000001 1.1412,5.127700000000001 1.1261,5.108700000000001 "></polygon><polygon points="1.2345,5.1807 1.2441000000000002,5.187100000000001 1.2504000000000002,5.1928 1.2345,5.1807 "></polygon><polygon points="1.2504000000000002,5.1928 1.2659999999999998,5.206800000000001 1.2726,5.2142 1.2504000000000002,5.1928 "></polygon><polygon points="0.18769999999999998,4.812200000000001 0.18730000000000002,4.8118 0.18630000000000002,4.811 0.1884,4.8126 0.18769999999999998,4.812200000000001 "></polygon><polygon points="0.1884,4.8126 0.18889999999999996,4.812800000000001 0.18910000000000005,4.812900000000001 0.1884,4.8126 "></polygon><polygon points="0.19110000000000005,4.815100000000001 0.19089999999999996,4.8149999999999995 0.19079999999999997,4.8149 0.19069999999999998,4.8148 0.19110000000000005,4.815100000000001 "></polygon><polygon points="0.19110000000000005,4.815100000000001 0.19120000000000004,4.815300000000001 0.19120000000000004,4.8154 0.19110000000000005,4.815100000000001 "></polygon><polygon points="0.3025,4.616200000000001 0.3104,4.616300000000001 0.2954000000000001,4.616200000000001 0.3025,4.616200000000001 "></polygon><polygon points="0.3104,4.616300000000001 0.3318000000000001,4.620900000000001 0.3213999999999999,4.6196 0.3104,4.616300000000001 "></polygon><polygon points="2.8598,3.863200000000001 2.8545999999999996,3.8602000000000007 2.8526,3.8581000000000003 2.8598,3.863200000000001 "></polygon><polygon points="2.8598,3.863200000000001 2.8742,3.8694000000000006 2.8707000000000003,3.8682 2.8651999999999997,3.8658 2.8598,3.863200000000001 "></polygon><polygon points="2.6350166666666777,5.641816666666662 2.6437999999999997,5.6370000000000005 2.6395999999999997,5.639800000000001 2.6350166666666777,5.641816666666662 "></polygon><polygon points="2.6350166666666777,5.641816666666662 2.6345,5.642100000000001 2.6346,5.6419999999999995 2.6350166666666777,5.641816666666662 "></polygon><polygon points="0.8184,0.47270000000000056 0.8177000000000001,0.4732000000000003 0.8187,0.47219999999999995 0.8184,0.47270000000000056 "></polygon><polygon points="2.9995000000000003,4.1829 2.9976000000000003,4.178800000000001 3.0038,4.191700000000001 2.9995000000000003,4.1829 "></polygon><polygon points="2.9029,3.9334000000000007 2.9039,3.9368999999999996 2.9019000000000004,3.9300999999999995 2.9029,3.9334000000000007 "></polygon><polygon points="1.9241,2.1883999999999997 1.9194000000000002,2.1883999999999997 1.9305999999999999,2.187100000000001 1.9241,2.1883999999999997 "></polygon><polygon points="1.9231,2.0724 1.918,2.0791000000000004 1.9250999999999998,2.0694 1.9231,2.0724 "></polygon><polygon points="1.9412999999999998,0.7128000000000005 1.9429999999999998,0.7107000000000001 1.9441,0.7094000000000005 1.9412999999999998,0.7128000000000005 "></polygon><polygon points="1.6847,2.8926 1.6855,2.8999000000000006 1.6795000000000002,2.847100000000001 1.6847,2.8926 "></polygon><polygon points="1.6997000000000002,3.2492 1.6981,3.2429000000000006 1.7020000000000002,3.2561 1.6997000000000002,3.2492 "></polygon><polygon points="1.4781000000000002,5.1091 1.4577000000000002,5.116 1.4376,5.122300000000001 1.4781000000000002,5.1091 "></polygon><polygon points="1.3955,5.1518999999999995 1.3680999999999999,5.172500000000001 1.3305,5.199400000000001 1.3955,5.1518999999999995 "></polygon><polygon points="1.5765,5.0785 1.5872,5.0654 1.59,5.062000000000001 1.5765,5.0785 "></polygon><polygon points="1.0139,0.2835000000000001 1.0094,0.28940000000000055 1.0188,0.2766000000000002 1.0139,0.2835000000000001 "></polygon><polygon points="1.0564,0.16270000000000007 1.0569,0.15950000000000042 1.0549,0.1734 1.0564,0.16270000000000007 "></polygon><polygon points="1.0142,0.10360000000000014 1.0154,0.10790000000000077 1.015,0.10650000000000048 1.0142,0.10360000000000014 "></polygon><polygon points="1.0347,0.12410000000000032 1.0331,0.12210000000000054 1.0374,0.1272000000000002 1.0347,0.12410000000000032 "></polygon><polygon points="1.039,0.13610000000000078 1.0393000000000001,0.13949999999999996 1.0393000000000001,0.14120000000000044 1.039,0.13610000000000078 "></polygon><polygon points="0.9421999999999999,0.3582000000000001 0.942,0.35190000000000055 0.9437,0.3694000000000006 0.9421999999999999,0.3582000000000001 "></polygon><polygon points="0.9935,0.2954000000000008 0.9895,0.2954000000000008 0.9875,0.2970000000000006 0.9895,0.2953000000000001 0.9935,0.2954000000000008 "></polygon><polygon points="0.9627000000000001,0.33370000000000033 0.9649000000000001,0.3334999999999999 0.9547000000000001,0.33470000000000066 0.9627000000000001,0.33370000000000033 "></polygon><polygon points="0.9749000000000001,0.32590000000000074 0.9707000000000001,0.3304 0.9756,0.3250000000000002 0.9749000000000001,0.32590000000000074 "></polygon><polygon points="0.9074,0.42550000000000043 0.9064000000000001,0.4260999999999999 0.9074,0.42270000000000074 0.9074,0.42550000000000043 "></polygon><polygon points="0.887,0.7487000000000004 0.8874,0.7445000000000004 0.8894,0.7383000000000006 0.8875,0.7445000000000004 0.887,0.7487000000000004 "></polygon><polygon points="0.8500000000000001,0.6386000000000003 0.8595999999999999,0.6459000000000001 0.8371,0.6303000000000001 0.8500000000000001,0.6386000000000003 "></polygon><polygon points="0.8869,0.6696 0.9060999999999999,0.6878000000000002 0.8959999999999999,0.6790000000000003 0.8869,0.6696 "></polygon><polygon points="1.9238000000000002,0.5002000000000004 1.9319,0.49990000000000023 1.9189,0.5013000000000005 1.9238000000000002,0.5002000000000004 "></polygon><polygon points="1.9076000000000002,0.25180000000000025 1.9082000000000001,0.25010000000000066 1.9071,0.2536000000000005 1.9076000000000002,0.25180000000000025 "></polygon><polygon points="1.5700999999999998,2.4086 1.5725,2.406600000000001 1.5669000000000002,2.4113000000000007 1.5700999999999998,2.4086 "></polygon><polygon points="1.5843999999999998,2.3833 1.5898,2.372 1.5780999999999998,2.3979999999999997 1.5843999999999998,2.3833 "></polygon><polygon points="1.8619999999999999,1.9421999999999997 1.8821,1.9327000000000005 1.8768,1.9359000000000002 1.8619999999999999,1.9421999999999997 "></polygon><polygon points="1.9328,1.887500000000001 1.9147999999999998,1.8842999999999996 1.9201,1.8844000000000012 1.9328,1.887500000000001 "></polygon><polygon points="1.9523,0.7677000000000005 1.9528,0.7709000000000001 1.9513,0.7654000000000005 1.9523,0.7677000000000005 "></polygon><polygon points="1.9421000000000002,0.7754000000000003 1.9473,0.7746000000000004 1.9544,0.7736000000000001 1.9421000000000002,0.7754000000000003 "></polygon><polygon points="1.9709999999999999,0.8673000000000002 1.9719,0.8754 1.9718000000000002,0.8749000000000002 1.9709999999999999,0.8673000000000002 "></polygon><polygon points="1.8397,1.3933 1.8446,1.3877000000000006 1.8381,1.3965000000000005 1.8397,1.3933 "></polygon><polygon points="2.0186,1.2296000000000005 2.0187,1.2292000000000005 2.0186,1.2299000000000007 2.0185000000000004,1.2303000000000006 2.0186,1.2296000000000005 "></polygon><polygon points="2.0202,1.2457000000000003 2.0205,1.2460000000000004 2.0199999999999996,1.2456000000000005 2.0202,1.2457000000000003 "></polygon><polygon points="2.0179,1.2482000000000006 2.0181000000000004,1.2478000000000007 2.0176999999999996,1.2490000000000006 2.0179,1.2482000000000006 "></polygon><polygon points="1.8566999999999998,1.0460000000000003 1.8593,1.0565000000000007 1.8615000000000002,1.0658000000000003 1.8566999999999998,1.0460000000000003 "></polygon><polygon points="1.7060000000000002,1.5343 1.7093999999999998,1.5372000000000003 1.7114999999999998,1.5414000000000003 1.7060000000000002,1.5343 "></polygon><polygon points="1.7648,1.6666000000000007 1.7714999999999999,1.6645000000000003 1.7672999999999999,1.6666000000000007 1.7648,1.6666000000000007 "></polygon><polygon points="1.8398999999999999,1.8246000000000002 1.8312000000000002,1.8031000000000006 1.8391,1.8224999999999998 1.8398999999999999,1.8246000000000002 "></polygon><polygon points="1.9019000000000001,1.2132000000000005 1.9019000000000001,1.2051000000000007 1.9042999999999999,1.2244000000000002 1.9019000000000001,1.2132000000000005 "></polygon><polygon points="1.9253000000000002,1.1578 1.9204,1.1626000000000003 1.9372999999999998,1.1457000000000006 1.9253000000000002,1.1578 "></polygon><polygon points="2.2195,3.110900000000001 2.2085,3.112 2.2337,3.1075 2.2195,3.110900000000001 "></polygon><polygon points="1.9685,3.1792999999999996 1.9673,3.1708 1.9685,3.1792 1.9685,3.1792999999999996 "></polygon><polygon points="2.0101000000000004,3.2308000000000003 2.0140000000000002,3.2448999999999995 2.0050999999999997,3.2172 2.0101000000000004,3.2308000000000003 "></polygon><polygon points="1.9835,3.1933000000000007 1.9669,3.1842000000000006 1.9707999999999999,3.186300000000001 1.9835,3.1933000000000007 "></polygon><polygon points="2.1121999999999996,3.386800000000001 2.1154,3.3850999999999996 2.1048,3.3908000000000005 2.1121999999999996,3.386800000000001 "></polygon><polygon points="1.7701,3.0635000000000012 1.7615,3.0723000000000003 1.777,3.0546000000000006 1.7701,3.0635000000000012 "></polygon><polygon points="1.6403,2.5341000000000005 1.6295,2.5340000000000007 1.6319000000000001,2.5340000000000007 1.6403,2.5341000000000005 "></polygon><polygon points="1.9088999999999998,2.5321 1.9355,2.5305999999999997 1.8759,2.5341000000000005 1.8973000000000002,2.532400000000001 1.9088999999999998,2.5321 "></polygon><polygon points="1.9126999999999998,2.192500000000001 1.9096,2.1944999999999997 1.9081,2.195400000000001 1.9000000000000001,2.1982999999999997 1.9126999999999998,2.192500000000001 "></polygon><polygon points="1.8085000000000002,3.020100000000001 1.8101999999999998,3.0181000000000004 1.8200999999999998,3.010300000000001 1.8085000000000002,3.020100000000001 "></polygon><polygon points="0.8122,3.1632 0.8172999999999999,3.167 0.8088,3.1607000000000003 0.8122,3.1632 "></polygon><polygon points="0.7676000000000001,3.221300000000001 0.7653000000000001,3.2265999999999995 0.7617,3.2348999999999997 0.7705,3.2142 0.7676000000000001,3.221300000000001 "></polygon><polygon points="0.7546999999999999,3.3733000000000004 0.7414000000000001,3.3801000000000005 0.7658,3.3659 0.7546999999999999,3.3733000000000004 "></polygon><polygon points="0.6671,3.4025999999999996 0.6744000000000001,3.3991000000000007 0.6672,3.4025999999999996 0.669,3.4085 0.669,3.4152000000000005 0.6671,3.4025999999999996 "></polygon><polygon points="0.6286,3.1844 0.6262000000000001,3.2264999999999997 0.6283000000000001,3.1887000000000008 0.6286,3.1844 "></polygon><polygon points="0.653,3.347800000000001 0.6588,3.3458000000000006 0.6453,3.3505000000000003 0.653,3.347800000000001 "></polygon><polygon points="0.7903,4.5922 0.7929999999999999,4.587200000000001 0.798,4.581800000000001 0.7903,4.5922 "></polygon><polygon points="0.8064,4.6167 0.8125,4.627600000000001 0.8152999999999999,4.6335 0.8064,4.6167 "></polygon><polygon points="0.8379000000000001,4.6373 0.8583000000000001,4.6388 0.8258000000000001,4.636800000000001 0.8379000000000001,4.6373 "></polygon><polygon points="0.8766,4.649700000000001 0.8849,4.656700000000001 0.8968,4.6690000000000005 0.8611,4.6356 0.8766,4.649700000000001 "></polygon><polygon points="0.9916,4.930300000000001 0.9911000000000001,4.941700000000001 0.9904,4.9254 0.9916,4.930300000000001 "></polygon><polygon points="1.0143,4.950900000000001 1.0254,4.9514 1.0076,4.9519 1.0143,4.950900000000001 "></polygon><polygon points="1.0627,5.0146 1.0599,5.0091 1.0582,5.0047 1.0627,5.0146 "></polygon><polygon points="1.0849,5.0319 1.0971,5.0367999999999995 1.0799,5.030800000000001 1.0849,5.0319 "></polygon><polygon points="1.0862,5.205 1.091,5.204600000000001 1.0836000000000001,5.205300000000001 1.0862,5.205 "></polygon><polygon points="0.6148,4.4358 0.605,4.445400000000001 0.6234,4.4259 0.6148,4.4358 "></polygon><polygon points="0.1906,4.814300000000001 0.19069999999999998,4.814500000000001 0.19069999999999998,4.8146 0.19069999999999998,4.8147 0.1906,4.814300000000001 "></polygon><polygon points="0.19130000000000003,4.8156 0.19130000000000003,4.8157 0.19120000000000004,4.815800000000001 0.19110000000000005,4.815800000000001 0.19130000000000003,4.8156 "></polygon><polygon points="0.19340000000000002,4.8186 0.1926,4.818200000000001 0.19479999999999997,4.819000000000001 0.19410000000000005,4.818900000000001 0.19340000000000002,4.8186 "></polygon><polygon points="0.19710000000000005,4.818900000000001 0.19820000000000004,4.819700000000001 0.19820000000000004,4.819800000000001 0.19679999999999997,4.8187999999999995 0.19710000000000005,4.818900000000001 "></polygon><polygon points="0.24049999999999994,4.5548 0.258,4.5626 0.24629999999999996,4.5573999999999995 0.24049999999999994,4.5548 "></polygon><polygon points="0.3858999999999999,4.658800000000001 0.3808,4.6624 0.3918999999999999,4.652800000000001 0.3858999999999999,4.658800000000001 "></polygon><polygon points="0.1502,4.4726 0.13139999999999996,4.4830000000000005 0.14280000000000004,4.4765999999999995 0.1502,4.4726 "></polygon><polygon points="0.33899999999999997,4.799100000000001 0.3389,4.799100000000001 0.33919999999999995,4.7989999999999995 0.33899999999999997,4.799100000000001 "></polygon><polygon points="0.34309999999999996,4.789900000000001 0.34529999999999994,4.786 0.3426,4.7912 0.34309999999999996,4.789900000000001 "></polygon><polygon points="0.3507,4.75 0.3508,4.7490000000000006 0.3506,4.751000000000001 0.3507,4.75 "></polygon><polygon points="0.3380000000000001,4.724400000000001 0.33709999999999996,4.7171 0.33899999999999997,4.726800000000001 0.3380000000000001,4.724400000000001 "></polygon><polygon points="1.607,5.4384 1.6013,5.432 1.6127,5.4427 1.607,5.4384 "></polygon><polygon points="1.9854,5.753 2.0054,5.768000000000001 1.9572,5.734400000000001 1.9854,5.753 "></polygon><polygon points="2.1900000000000004,5.8886 2.1844,5.886700000000001 2.2205000000000004,5.896700000000001 2.1900000000000004,5.8886 "></polygon><polygon points="2.4012000000000002,5.851100000000001 2.3933999999999997,5.8614999999999995 2.399,5.854000000000001 2.4012000000000002,5.851100000000001 "></polygon><polygon points="2.9086999999999996,4.851000000000001 2.9005,4.8466000000000005 2.8941,4.843 2.9086999999999996,4.851000000000001 "></polygon><polygon points="2.58,3.8961000000000006 2.5856000000000003,3.9053000000000004 2.5940000000000003,3.9117999999999995 2.5856000000000003,3.9054 2.58,3.8961000000000006 "></polygon><polygon points="2.8982,3.9177999999999997 2.8966000000000003,3.9109999999999996 2.8924000000000003,3.8908000000000005 2.9004000000000003,3.9252000000000002 2.8982,3.9177999999999997 "></polygon><polygon points="2.5698999999999996,3.793100000000001 2.5719000000000003,3.8034999999999997 2.5758,3.824200000000001 2.5698999999999996,3.793100000000001 "></polygon><polygon points="2.4894,3.6792999999999996 2.4862,3.6654 2.4848,3.6592000000000002 2.4894,3.6792999999999996 "></polygon><polygon points="2.7889999999999997,4.636100000000001 2.8061999999999996,4.6518999999999995 2.787,4.6350999999999996 2.7889999999999997,4.636100000000001 "></polygon><polygon points="2.5205,5.546100000000001 2.4877000000000002,5.5478000000000005 2.4877000000000002,5.547700000000001 2.5205,5.546100000000001 "></polygon><polygon points="2.6102999999999996,5.6426 2.6208,5.639100000000001 2.6249000000000002,5.638 2.6102999999999996,5.6426 "></polygon><polygon points="2.6201,5.1568000000000005 2.6144999999999996,5.151200000000001 2.6222000000000003,5.157400000000001 2.6201,5.1568000000000005 "></polygon><polygon points="2.8178,5.4643999999999995 2.814,5.4673 2.8129,5.4681 2.8178,5.4643999999999995 "></polygon><polygon points="2.8174,5.4693000000000005 2.8104000000000005,5.4762 2.8137999999999996,5.4726 2.8174,5.4693000000000005 "></polygon><polygon points="2.5845000000000002,5.489700000000001 2.5885999999999996,5.492100000000001 2.5919999999999996,5.494400000000001 2.5845000000000002,5.489700000000001 "></polygon><polygon points="2.6212999999999997,5.5222 2.6295,5.5312 2.6112,5.5123 2.6212999999999997,5.5222 "></polygon><polygon points="2.2401,5.598800000000001 2.2401,5.6042000000000005 2.24,5.6021 2.2401,5.598800000000001 "></polygon><polygon points="2.2457000000000003,5.7026 2.2447999999999997,5.697800000000001 2.2441000000000004,5.689500000000001 2.2457000000000003,5.7026 "></polygon><polygon points="2.2454,5.6836 2.2403000000000004,5.672600000000001 2.2388000000000003,5.667 2.2454,5.6836 "></polygon><polygon points="2.2362,5.6538 2.2385,5.649000000000001 2.2415000000000003,5.6434 2.2362,5.6538 "></polygon><polygon points="1.9606000000000001,2.2013999999999996 1.9602000000000002,2.2017000000000007 1.9614,2.2026000000000003 1.9606000000000001,2.2013999999999996 "></polygon><polygon points="2.3829000000000002,3.047500000000001 2.38,3.0603 2.3787000000000003,3.0793999999999997 2.3840000000000003,3.0561000000000007 2.3829000000000002,3.047500000000001 "></polygon><polygon points="1.012157586837294,0.09790822669104227 1.0121,0.0979000000000001 1.012145079552151,0.09792916912198013 1.012157586837294,0.09790822669104227 "></polygon><polygon points="0.828998601398601,0.5926699300699303 0.829,0.5926 0.828995177956372,0.5926739380022967 0.828998601398601,0.5926699300699303 "></polygon><polygon points="2.377325984251968,3.0987251968503955 2.3773999999999997,3.097800000000001 2.3773271317829456,3.098674418604652 2.377325984251968,3.0987251968503955 "></polygon><polygon points="1.959495039224733,2.0003043070296904 1.9595,2.000300000000001 1.959495553759093,2.0003034761519825 1.959495039224733,2.0003043070296904 "></polygon><polygon points="1.1022,0.056100000000000705 1.0986,0.055800000000000516 1.0986,0.05660000000000043 1.1039,0.05690000000000062 1.1022,0.056100000000000705 "></polygon><polygon points="1.0839,0.0539000000000005 1.0803,0.051600000000000534 1.0767,0.051300000000000345 1.0806,0.05520000000000014 1.0867,0.05520000000000014 1.0839,0.0539000000000005 "></polygon><polygon points="1.0989,0.054700000000000415 1.0961,0.052999999999999936 1.0947,0.053300000000000125 1.095,0.054400000000000226 1.0989,0.054700000000000415 "></polygon><polygon points="1.0839,0.050200000000000244 1.0825,0.04970000000000052 1.0842,0.052200000000000024 1.0983,0.05250000000000021 1.1014,0.054700000000000415 1.1153,0.05830000000000002 1.1183,0.05690000000000062 1.1247,0.05800000000000072 1.1278,0.05630000000000024 1.1306,0.05800000000000072 1.1342,0.05750000000000011 1.1297,0.055000000000000604 1.1167,0.052700000000000635 1.0839,0.050200000000000244 "></polygon><polygon points="1.1294,0.05909999999999993 1.1281,0.06080000000000041 1.1314,0.06020000000000003 1.1308,0.05909999999999993 1.1294,0.05909999999999993 "></polygon><polygon points="1.1553,0.05909999999999993 1.1547,0.0600000000000005 1.1583,0.05940000000000012 1.1581,0.058900000000000396 1.1553,0.05909999999999993 "></polygon><polygon points="1.152,0.0674999999999999 1.1536,0.06500000000000039 1.1497,0.06390000000000029 1.1431,0.0658000000000003 1.1442,0.0691000000000006 1.152,0.0674999999999999 "></polygon><polygon points="1.1675,0.06410000000000071 1.1672,0.06550000000000011 1.1714,0.06500000000000039 1.1714,0.06390000000000029 1.1675,0.06410000000000071 "></polygon><polygon points="1.1736,0.06519999999999992 1.1745,0.0647000000000002 1.172,0.0647000000000002 1.1722,0.06519999999999992 1.1736,0.06519999999999992 "></polygon><polygon points="1.1772,0.06640000000000068 1.1803,0.06660000000000021 1.1803,0.0658000000000003 1.1745,0.06500000000000039 1.1772,0.06640000000000068 "></polygon><polygon points="1.1606,0.06160000000000032 1.1583,0.0625 1.1589,0.0636000000000001 1.1622000000000001,0.06300000000000061 1.1606,0.06160000000000032 "></polygon><polygon points="1.1592,0.05970000000000031 1.1583,0.06020000000000003 1.1656,0.0622000000000007 1.1656,0.06050000000000022 1.1636,0.05970000000000031 1.1592,0.05970000000000031 "></polygon><polygon points="1.1403,0.06190000000000051 1.1381000000000001,0.06270000000000042 1.1428,0.0636000000000001 1.1425,0.0625 1.1403,0.06190000000000051 "></polygon><polygon points="1.1675,0.07610000000000028 1.1714,0.07220000000000049 1.1733,0.0719000000000003 1.1756,0.0719000000000003 1.1789,0.07469999999999999 1.1858,0.07380000000000031 1.1842,0.07360000000000078 1.185,0.07050000000000001 1.1836,0.0680000000000005 1.1639,0.06660000000000021 1.1631,0.06519999999999992 1.1531,0.06660000000000021 1.1542000000000001,0.07380000000000031 1.1564,0.07610000000000028 1.1639,0.07750000000000057 1.1675,0.07610000000000028 "></polygon>
    </svg>
    