
    <svg width="3.8872999999999998" height="2.7094000000000023" xmlns="http://www.w3.org/2000/svg" xmlns:xlink="http://www.w3.org/1999/xlink" style="transform: scale(1, -1)">
        <polygon points="2.5867000000000004,0.05760000000000076 2.570700000000002,0.05339999999999634 2.5497000000000014,0.04339999999999833 2.5427,0.055399999999998784 2.525500000000001,0.06700000000000017 2.5009000000000015,0.0818000000000012 2.457900000000002,0.10199999999999676 2.4441000000000024,0.11139999999999617 2.4403000000000006,0.12359999999999616 2.4313000000000002,0.12819999999999965 2.387900000000002,0.14260000000000161 2.3917,0.157199999999996 2.350100000000001,0.17419999999999902 2.3353,0.19319999999999737 2.3096999999999994,0.19579999999999842 2.2963000000000022,0.2004000000000019 2.2928999999999995,0.2119999999999962 2.235900000000001,0.24399999999999977 2.2090999999999994,0.2535999999999987 2.182500000000001,0.2597999999999985 2.175699999999999,0.27599999999999625 2.1395000000000017,0.29460000000000264 2.140900000000002,0.328400000000002 2.104099999999999,0.35479999999999734 2.0961,0.3521999999999963 2.074300000000001,0.3271999999999977 2.0533,0.34199999999999875 2.032499999999999,0.34960000000000235 1.9917000000000016,0.3500000000000014 1.9703000000000017,0.35479999999999734 1.9511000000000003,0.3399999999999963 1.9281000000000006,0.3293999999999997 1.9210999999999991,0.3230000000000004 1.912700000000001,0.3290000000000006 1.9071999999999996,0.3357000000000028 1.8975000000000009,0.33679999999999666 1.8952999999999989,0.33959999999999724 1.8716000000000008,0.3464999999999989 1.8561000000000014,0.3545999999999978 1.8415999999999997,0.3584999999999994 1.8265999999999991,0.3656999999999968 1.8241000000000014,0.36880000000000024 1.8265999999999991,0.3689999999999998 1.8293999999999997,0.3667999999999978 1.8352000000000004,0.36710000000000065 1.838799999999999,0.3646000000000029 1.8405000000000022,0.3646000000000029 1.8399,0.3678999999999988 1.851700000000001,0.3637999999999977 1.8611000000000004,0.35730000000000217 1.8747000000000007,0.3521000000000001 1.8969000000000023,0.34839999999999804 1.8938000000000024,0.35069999999999624 1.8949999999999996,0.3521000000000001 1.8874999999999993,0.35430000000000206 1.8843999999999994,0.3597999999999999 1.8811,0.36070000000000135 1.880200000000002,0.3628999999999962 1.8704999999999998,0.36370000000000147 1.8636000000000017,0.36820000000000164 1.8561000000000014,0.3695999999999984 1.8489000000000004,0.3761999999999972 1.8491,0.37939999999999685 1.8567,0.37939999999999685 1.9855000000000018,0.3977999999999966 2.0029000000000003,0.40440000000000254 2.0015,0.4151999999999987 1.9963000000000015,0.4247999999999976 1.983900000000002,0.44120000000000203 1.9636999999999993,0.4649999999999963 1.9461000000000013,0.49280000000000257 1.9390999999999998,0.5118000000000009 1.9213000000000022,0.5262000000000029 1.8961000000000006,0.544399999999996 1.8607000000000014,0.5595999999999961 1.831900000000001,0.5765999999999991 1.8049,0.5831999999999979 1.7615000000000016,0.6096000000000004 1.753499999999999,0.6191999999999993 1.7405000000000008,0.6231999999999971 1.7248000000000019,0.6248000000000005 1.7096000000000018,0.6328999999999994 1.7165999999999997,0.653100000000002 1.704900000000002,0.6632999999999996 1.6621000000000024,0.685299999999998 1.6389999999999993,0.6925000000000026 1.6190999999999995,0.7019999999999982 1.6061000000000014,0.7203000000000017 1.5433000000000021,0.8331999999999979 1.5411000000000001,0.8511999999999986 1.545300000000001,0.8699999999999974 1.5564999999999998,0.8918999999999997 1.578800000000001,0.907199999999996 1.5184999999999995,0.9345999999999961 1.4914000000000023,0.9442000000000021 1.4533000000000023,0.9467999999999961 1.4040999999999997,0.9579999999999984 1.390900000000002,0.9637999999999991 1.3841,0.9756 1.3706999999999994,0.9846000000000004 1.3289000000000009,0.9966000000000008 1.3094000000000001,1.0060000000000002 1.295300000000001,1.0213999999999999 1.2645000000000017,1.0433999999999983 1.2350999999999992,1.0715999999999966 1.2113000000000014,1.0908000000000015 1.1717000000000013,1.1372 1.1445000000000007,1.1463999999999999 1.133300000000002,1.170899999999996 1.1201000000000008,1.183799999999998 1.0922000000000018,1.203800000000001 1.0793,1.2053999999999974 1.0351,1.2165999999999997 1.0274,1.2378999999999962 1.0117000000000012,1.2419000000000011 1.0018999999999991,1.2498999999999967 0.9999000000000002,1.275100000000002 1.0005000000000024,1.287700000000001 0.9964000000000013,1.299900000000001 0.9864999999999995,1.3089999999999975 0.970600000000001,1.3162999999999982 0.9516999999999989,1.3218999999999994 0.9367000000000019,1.3301999999999978 0.9097000000000008,1.3513999999999982 0.883700000000001,1.3660999999999959 0.8644999999999996,1.3913999999999973 0.8475000000000001,1.3928000000000011 0.8353000000000002,1.397599999999997 0.8264999999999993,1.4059999999999988 0.8107000000000006,1.4358000000000004 0.797699999999999,1.4448000000000008 0.7776999999999994,1.4512 0.7369000000000021,1.4579999999999984 0.6473000000000013,1.5193999999999974 0.6204000000000001,1.5309000000000026 0.6137000000000015,1.5564999999999998 0.5922000000000018,1.5608999999999966 0.5870999999999995,1.5703999999999994 0.5825999999999993,1.583999999999996 0.581199999999999,1.5951000000000022 0.5726000000000013,1.6019999999999968 0.5173000000000023,1.6326999999999998 0.5080999999999989,1.6873000000000005 0.4870000000000019,1.7013999999999996 0.4771000000000001,1.7113999999999976 0.471700000000002,1.723399999999998 0.46950000000000003,1.737400000000001 0.4714999999999989,1.7496999999999971 0.48680000000000234,1.7937000000000012 0.44140000000000157,1.819499999999998 0.4291000000000018,1.8215999999999966 0.4161999999999999,1.8200999999999965 0.4064000000000014,1.8305000000000007 0.4126000000000012,1.8359000000000023 0.42109999999999914,1.8361000000000018 0.4283999999999999,1.8408999999999978 0.43329999999999913,1.851300000000002 0.42689999999999984,1.8579000000000008 0.4126000000000012,1.8646999999999991 0.39720000000000155,1.8661999999999992 0.4076000000000022,1.883499999999998 0.41029999999999944,1.8956000000000017 0.408100000000001,1.9065999999999974 0.40390000000000015,1.9159999999999968 0.408100000000001,1.926000000000002 0.4056999999999995,1.9346999999999994 0.38569999999999993,1.9551999999999978 0.3692999999999991,1.9748000000000019 0.3492999999999995,1.977400000000003 0.2937000000000012,1.9936000000000007 0.2823999999999991,1.999299999999998 0.28100000000000236,2.006299999999996 0.2818000000000005,2.0159999999999982 0.28659999999999997,2.0229 0.3072000000000017,2.026699999999998 0.3298000000000023,2.0461000000000027 0.3356999999999992,2.0595 0.33429999999999893,2.0726000000000013 0.3216999999999999,2.0867999999999967 0.28610000000000113,2.109400000000001 0.2662000000000013,2.1180999999999983 0.24870000000000125,2.1289000000000016 0.24050000000000082,2.140599999999999 0.23770000000000024,2.1533999999999978 0.21610000000000085,2.1555999999999997 0.2029000000000014,2.1895999999999987 0.16790000000000127,2.186799999999998 0.15370000000000061,2.2032999999999987 0.14029999999999987,2.190100000000001 0.1257999999999999,2.188600000000001 0.11289999999999978,2.1854000000000013 0.09180000000000099,2.1732000000000014 0.08000000000000007,2.1738 0.06430000000000113,2.1865999999999985 0.032900000000001484,2.198999999999998 0.02210000000000001,2.2235999999999976 0.012500000000001066,2.2357999999999976 0.009700000000000486,2.246000000000002 0.01550000000000118,2.2563999999999993 0.028700000000000614,2.263399999999997 0.043100000000000804,2.2676000000000016 0.057000000000000384,2.2757000000000005 0.0625,2.284399999999998 0.0602999999999998,2.294399999999996 0.030300000000000438,2.320999999999998 0.022500000000000853,2.3322000000000003 0.016500000000000625,2.3444000000000003 0.013400000000000745,2.356499999999997 0.01630000000000109,2.371299999999998 0.014000000000001123,2.3776999999999973 0.002000000000000668,2.385300000000001 0.0,2.392800000000001 0.0005000000000006111,2.398299999999999 0.00420000000000087,2.404899999999998 0.014800000000001035,2.4140999999999977 0.032900000000001484,2.416499999999999 0.04690000000000083,2.4427999999999983 0.03160000000000096,2.459699999999998 0.02620000000000111,2.4720000000000013 0.023600000000000065,2.484400000000001 0.018500000000001293,2.497799999999998 0.0065000000000008384,2.508499999999998 0.0259999999999998,2.5264999999999986 0.03390000000000093,2.536900000000003 0.03950000000000031,2.5551999999999992 0.03790000000000049,2.569600000000001 0.03330000000000055,2.585099999999997 0.03059999999999974,2.6019999999999968 0.0343,2.6098 0.07319999999999993,2.641999999999996 0.08699999999999974,2.644300000000001 0.09570000000000078,2.6503999999999976 0.10100000000000087,2.6580000000000013 0.11660000000000004,2.6518000000000015 0.14510000000000112,2.658699999999996 0.18310000000000137,2.6587999999999994 0.20450000000000124,2.6606000000000023 0.23390000000000022,2.6747000000000014 0.2561,2.6557999999999993 0.2693000000000012,2.6539 0.28249999999999886,2.6561999999999983 0.29739999999999966,2.6544999999999987 0.30430000000000135,2.649499999999996 0.30160000000000053,2.643099999999997 0.2956000000000003,2.635799999999996 0.29550000000000054,2.6278000000000006 0.29990000000000094,2.6188999999999965 0.3141999999999996,2.6158999999999963 0.3155000000000001,2.6083 0.3266999999999989,2.5985999999999976 0.34250000000000114,2.590299999999999 0.3470000000000013,2.5837000000000003 0.3462999999999994,2.575800000000001 0.35770000000000124,2.5420000000000016 0.3717000000000006,2.529899999999998 0.38459999999999894,2.5234999999999985 0.4281000000000006,2.5159999999999982 0.43700000000000117,2.5112999999999985 0.4426000000000023,2.5035999999999987 0.46410000000000196,2.495599999999996 0.47020000000000195,2.490400000000001 0.47550000000000026,2.4769999999999968 0.5006000000000022,2.4675999999999974 0.5027000000000008,2.4617000000000004 0.5074000000000005,2.455999999999996 0.5225000000000009,2.4510000000000005 0.5567999999999991,2.451500000000003 0.581900000000001,2.4480000000000004 0.600200000000001,2.4480000000000004 0.6084999999999994,2.452599999999997 0.6125000000000007,2.4598999999999975 0.6134000000000022,2.4699000000000026 0.6094000000000008,2.4799000000000007 0.6158999999999999,2.4864999999999995 0.6277000000000008,2.493000000000002 0.6450999999999993,2.492199999999997 0.6571999999999996,2.503 0.6674000000000007,2.548000000000002 0.6740999999999993,2.555399999999999 0.6829999999999998,2.562100000000001 0.7345000000000006,2.588000000000001 0.7434000000000012,2.5949000000000026 0.7588000000000008,2.6340999999999966 0.7658000000000023,2.645699999999998 0.7744,2.6529999999999987 0.7863000000000007,2.6580999999999975 0.8017000000000003,2.6614999999999966 0.8315000000000019,2.658699999999996 0.866500000000002,2.6644999999999968 0.8779000000000003,2.661999999999999 0.907700000000002,2.646499999999996 0.9259000000000022,2.6417999999999964 0.951900000000002,2.6387 0.9708000000000006,2.638399999999997 0.997399999999999,2.6433999999999997 1.0569000000000024,2.627200000000002 1.0737000000000023,2.623599999999996 1.0878000000000014,2.6235 1.1008999999999993,2.625700000000002 1.110400000000002,2.6332999999999984 1.1140000000000008,2.6510999999999996 1.1188000000000002,2.6616 1.1342999999999996,2.662300000000002 1.1395000000000017,2.667099999999998 1.1574999999999989,2.672699999999999 1.1662,2.677199999999999 1.1831999999999994,2.6906999999999996 1.199300000000001,2.7094000000000023 1.209500000000002,2.7045999999999992 1.2117000000000004,2.6997 1.2039000000000009,2.6921999999999997 1.1998999999999995,2.6826000000000008 1.1975000000000016,2.673899999999996 1.2010000000000005,2.665999999999997 1.2201000000000022,2.6662999999999997 1.245000000000001,2.6616 1.2493000000000016,2.6683999999999983 1.2424999999999997,2.686099999999996 1.2502999999999993,2.6824000000000012 1.2591,2.6621000000000024 1.2673000000000023,2.6599000000000004 1.2728000000000002,2.663400000000003 1.2765000000000022,2.6702999999999975 1.2817000000000007,2.6711000000000027 1.2769000000000013,2.659399999999998 1.276600000000002,2.6540999999999997 1.284200000000002,2.6522000000000006 1.2993000000000023,2.6584000000000003 1.3117000000000019,2.6458000000000013 1.3344000000000023,2.630600000000001 1.3481000000000023,2.623800000000003 1.3935999999999993,2.609099999999998 1.4296000000000006,2.591299999999997 1.4509000000000007,2.5867999999999967 1.5197000000000003,2.5829999999999984 1.526600000000002,2.588000000000001 1.543099999999999,2.6199999999999974 1.5579,2.6122999999999976 1.5740000000000016,2.6111999999999966 1.5761000000000003,2.6006999999999962 1.584299999999999,2.6000999999999976 1.591899999999999,2.5955999999999975 1.598200000000002,2.591799999999999 1.600200000000001,2.587600000000002 1.6071999999999989,2.5820000000000007 1.6219999999999999,2.575899999999997 1.6377000000000024,2.5730000000000004 1.677900000000001,2.569899999999997 1.6902000000000008,2.5709000000000017 1.7074999999999996,2.5919999999999987 1.7112000000000016,2.5870999999999995 1.7094000000000023,2.5771999999999977 1.711000000000002,2.571399999999997 1.7151999999999994,2.565399999999997 1.7258999999999993,2.5615000000000023 1.7361000000000004,2.562100000000001 1.7536000000000023,2.569499999999998 1.7454,2.558099999999996 1.744600000000002,2.550699999999999 1.7509000000000015,2.5454000000000008 1.7881,2.5405000000000015 1.8003,2.5441000000000003 1.8211000000000013,2.563299999999998 1.8230000000000004,2.550600000000003 1.8327999999999989,2.5461000000000027 1.8443000000000005,2.5493000000000023 1.8553999999999995,2.5497999999999976 1.8643999999999998,2.5467999999999975 1.8823000000000008,2.5463999999999984 1.892400000000002,2.5508999999999986 1.9018000000000015,2.5589000000000013 1.9155000000000015,2.567 1.9316999999999993,2.5700999999999965 1.9405000000000001,2.569200000000002 1.9536000000000016,2.559100000000001 2.0173000000000023,2.523699999999998 2.037200000000002,2.5244 2.0558000000000014,2.5148999999999972 2.0729000000000006,2.5026999999999973 2.0908000000000015,2.493299999999998 2.1106000000000016,2.488999999999997 2.1281999999999996,2.490000000000002 2.172900000000002,2.5112000000000023 2.1899000000000015,2.5223000000000013 2.1972000000000023,2.5366 2.197700000000001,2.5473 2.2010000000000005,2.5559999999999974 2.218700000000002,2.5604000000000013 2.229700000000001,2.5681999999999974 2.234300000000001,2.5801000000000016 2.243400000000001,2.5893999999999977 2.2546,2.5955000000000013 2.2638,2.598300000000002 2.2759,2.594999999999999 2.286100000000001,2.584600000000002 2.299800000000001,2.574300000000001 2.3156999999999996,2.5882999999999967 2.3260000000000005,2.588099999999997 2.340299999999999,2.5700999999999965 2.3359000000000023,2.563200000000002 2.3369999999999997,2.5568000000000026 2.3522,2.5508000000000024 2.361900000000002,2.542899999999996 2.369500000000002,2.532600000000002 2.3897000000000013,2.529899999999998 2.415800000000001,2.5321 2.4415000000000013,2.5230999999999995 2.4616000000000007,2.5264999999999986 2.4777000000000022,2.5354000000000028 2.4856000000000016,2.5471999999999966 2.4856000000000016,2.557000000000002 2.4796000000000014,2.565800000000003 2.4802,2.5745999999999967 2.4948000000000015,2.5848999999999975 2.5084000000000017,2.5867999999999967 2.5273000000000003,2.587299999999999 2.5356000000000023,2.5737999999999985 2.5443,2.5638999999999967 2.560200000000002,2.564399999999999 2.5755000000000017,2.5619000000000014 2.581400000000002,2.552900000000001 2.612000000000002,2.5523000000000025 2.677500000000002,2.558399999999999 2.696300000000001,2.5486999999999966 2.700300000000002,2.5379999999999967 2.7401000000000018,2.509599999999999 2.7563999999999993,2.5060000000000002 2.781100000000002,2.506999999999998 2.7932000000000023,2.492899999999999 2.7981000000000016,2.4949000000000012 2.799800000000001,2.5035000000000025 2.8032000000000004,2.5101000000000013 2.8130000000000024,2.519199999999998 2.811600000000002,2.523299999999999 2.7956000000000003,2.533299999999997 2.7942,2.5382999999999996 2.8004999999999995,2.540399999999998 2.813200000000002,2.5390000000000015 2.8249999999999993,2.5287000000000006 2.8306000000000004,2.518499999999996 2.839100000000002,2.5137999999999963 2.8447999999999993,2.518099999999997 2.8429,2.527000000000001 2.8292,2.537799999999997 2.8337000000000003,2.5416000000000025 2.8462999999999994,2.5411999999999964 2.854400000000002,2.5315999999999974 2.866600000000002,2.5279000000000025 2.8735,2.529600000000002 2.8843999999999994,2.538800000000002 2.8949999999999996,2.5394999999999968 2.896000000000001,2.5341000000000022 2.868400000000001,2.5153999999999996 2.8705999999999996,2.5105000000000004 2.8766999999999996,2.506700000000002 2.9006000000000007,2.5067999999999984 2.9125000000000014,2.5052999999999983 2.9193,2.5056999999999974 2.9217000000000013,2.510300000000001 2.9132999999999996,2.5272000000000006 2.9160000000000004,2.5339000000000027 2.930900000000001,2.540700000000001 2.944700000000001,2.539900000000003 2.948900000000002,2.5274999999999963 2.9451,2.5219000000000023 2.9319000000000024,2.5116999999999976 2.936399999999999,2.5037999999999982 2.953800000000001,2.489699999999999 2.961500000000001,2.4864999999999995 2.9734000000000016,2.4851000000000028 2.9993000000000016,2.4662000000000006 2.9983000000000004,2.458999999999996 2.991600000000002,2.4470000000000027 2.9951000000000008,2.4420999999999964 2.999100000000002,2.4410000000000025 3.0153,2.4446999999999974 3.041900000000002,2.440100000000001 3.054400000000001,2.441600000000001 3.0650000000000013,2.4369999999999976 3.0526000000000018,2.4273000000000025 3.0473999999999997,2.4191000000000003 3.0493000000000023,2.4114000000000004 3.0626999999999995,2.3956000000000017 3.0685000000000002,2.3855000000000004 3.0595,2.381299999999996 3.047699999999999,2.382100000000001 3.0226000000000006,2.389099999999999 3.0176000000000016,2.380899999999997 3.027899999999999,2.3774999999999977 3.0321999999999996,2.3699000000000012 3.0283000000000015,2.3607000000000014 3.0343000000000018,2.3511000000000024 3.063200000000002,2.334600000000002 3.073599999999999,2.331699999999998 3.088000000000001,2.324300000000001 3.1167000000000016,2.3051999999999992 3.1347000000000023,2.299999999999997 3.1842000000000006,2.296999999999997 3.2622999999999998,2.2961000000000027 3.282600000000002,2.299100000000003 3.3320000000000007,2.3115999999999985 3.357400000000002,2.3263999999999996 3.3813999999999993,2.3363999999999976 3.391400000000001,2.345700000000001 3.4071999999999996,2.348300000000002 3.4192,2.353200000000001 3.4419000000000004,2.366500000000002 3.4545999999999992,2.366500000000002 3.4658000000000015,2.362000000000002 3.472999999999999,2.3477999999999994 3.485500000000002,2.344299999999997 3.5055000000000014,2.353499999999997 3.5170999999999992,2.3562999999999974 3.5729000000000006,2.347699999999996 3.6099999999999994,2.3344000000000023 3.6206999999999994,2.3333000000000013 3.6217000000000006,2.328099999999999 3.628800000000002,2.331699999999998 3.6386000000000003,2.331699999999998 3.6430000000000007,2.326900000000002 3.636700000000001,2.320999999999998 3.6401000000000003,2.312800000000003 3.6533000000000015,2.3083000000000027 3.653500000000001,2.3018 3.630200000000002,2.2886000000000024 3.6264000000000003,2.2830999999999975 3.6325000000000003,2.2783999999999978 3.6320000000000014,2.273699999999998 3.625600000000002,2.2683999999999997 3.6153000000000013,2.2653999999999996 3.6140000000000008,2.2593999999999994 3.6153000000000013,2.247 3.613400000000002,2.2379999999999995 3.608599999999999,2.2295000000000016 3.6030000000000015,2.1935999999999964 3.5975,2.1850000000000023 3.5961999999999996,2.1758999999999986 3.5920000000000023,2.1651999999999987 3.5787000000000013,2.145699999999998 3.5619000000000014,2.132799999999996 3.548000000000002,2.124699999999997 3.5381,2.1118000000000023 3.524799999999999,2.0899999999999963 3.523299999999999,2.081400000000002 3.5183,2.072899999999997 3.509900000000002,2.064300000000003 3.5005000000000024,2.0405999999999977 3.492799999999999,2.030000000000001 3.4878,2.0249000000000024 3.4795000000000016,2.0227000000000004 3.4633000000000003,2.0229 3.4555000000000007,2.0120000000000005 3.4602000000000004,2.002899999999997 3.4574,1.9943000000000026 3.448599999999999,1.9855000000000018 3.4403000000000006,1.971899999999998 3.4308000000000014,1.9679999999999964 3.4033000000000015,1.968199999999996 3.3948,1.9613000000000014 3.396799999999999,1.9313000000000002 3.4010999999999996,1.9146 3.4116,1.8862999999999985 3.411999999999999,1.8669000000000011 3.406100000000002,1.852400000000003 3.3793000000000006,1.8399999999999963 3.3743000000000016,1.828400000000002 3.3763000000000005,1.8181000000000012 3.382200000000001,1.8096999999999994 3.3797999999999995,1.7937999999999974 3.387599999999999,1.786999999999999 3.3915000000000006,1.7787000000000006 3.3918999999999997,1.7693000000000012 3.398600000000002,1.7582000000000022 3.409700000000001,1.7485999999999962 3.426400000000001,1.729300000000002 3.4421999999999997,1.7280000000000015 3.468399999999999,1.7297000000000011 3.479800000000001,1.7257999999999996 3.483599999999999,1.7192000000000007 3.4925999999999995,1.7124000000000024 3.5031,1.7098999999999975 3.5153999999999996,1.7104 3.5426,1.7175999999999974 3.5562000000000005,1.7169000000000025 3.5650000000000013,1.7134999999999962 3.5859000000000023,1.7137000000000029 3.595600000000001,1.7027 3.603300000000001,1.690800000000003 3.6113,1.6828000000000003 3.6125000000000007,1.6713000000000022 3.610099999999999,1.6616999999999962 3.618500000000001,1.6529000000000025 3.6244000000000014,1.6325000000000003 3.6377000000000024,1.6244999999999976 3.664300000000001,1.6128999999999962 3.6743000000000023,1.6051999999999964 3.6921,1.5876999999999981 3.7012,1.5822999999999965 3.7133000000000003,1.5808999999999997 3.7284000000000006,1.5827999999999989 3.738199999999999,1.5863000000000014 3.7410999999999994,1.5790999999999968 3.741299999999999,1.5707000000000022 3.7447000000000017,1.5626999999999995 3.755200000000002,1.5544999999999973 3.7708000000000013,1.5345000000000013 3.782600000000002,1.5242999999999967 3.8103000000000016,1.5112999999999985 3.8340999999999994,1.4932000000000016 3.841899999999999,1.4889999999999972 3.8484000000000016,1.4906999999999968 3.8475,1.5030999999999963 3.8515000000000015,1.507399999999997 3.8627000000000002,1.5082999999999984 3.871600000000001,1.5001999999999995 3.875399999999999,1.4936000000000007 3.8872999999999998,1.4898000000000025 3.884499999999999,1.4771999999999963 3.8865000000000016,1.4671999999999983 3.8850000000000016,1.4587000000000003 3.8675999999999995,1.4504999999999981 3.836100000000002,1.4399000000000015 3.8286000000000016,1.4307000000000016 3.8180000000000014,1.4224999999999994 3.8019,1.4162999999999997 3.789999999999999,1.4040999999999997 3.7829000000000015,1.3992999999999967 3.733699999999999,1.3997000000000028 3.6525999999999996,1.4069999999999965 3.6247000000000007,1.4129999999999967 3.6118000000000023,1.4209999999999994 3.5935000000000024,1.426400000000001 3.578500000000002,1.434899999999999 3.5543000000000013,1.4384000000000015 3.535,1.444899999999997 3.5130000000000017,1.4482 3.5031,1.4378000000000029 3.5107999999999997,1.425699999999999 3.5214,1.4146 3.5299000000000014,1.390900000000002 3.540800000000001,1.3806999999999974 3.549400000000002,1.3676999999999992 3.5515000000000008,1.3566000000000003 3.5625,1.3429999999999964 3.5802000000000014,1.328400000000002 3.6145999999999994,1.3098000000000027 3.6464,1.2638999999999996 3.6553000000000004,1.2486999999999995 3.6694999999999993,1.2391000000000005 3.6929000000000016,1.2310999999999979 3.7042,1.2152999999999992 3.7235000000000014,1.2083000000000013 3.7514000000000003,1.168999999999997 3.783100000000001,1.154600000000002 3.7798000000000016,1.131299999999996 3.7882999999999996,1.1058999999999983 3.773600000000002,1.0827999999999989 3.7544000000000004,1.0735000000000028 3.7630000000000017,1.0619999999999976 3.761400000000002,1.0536999999999992 3.7546999999999997,1.0420000000000016 3.752700000000001,1.0287000000000006 3.7729,1.011499999999998 3.7555000000000014,1.0039000000000016 3.7368000000000023,1.0157999999999987 3.7073,1.015500000000003 3.707799999999999,1.0028000000000006 3.7042,0.9943999999999988 3.703400000000002,0.9840000000000018 3.6738999999999997,0.9832999999999998 3.6660000000000004,1.0015999999999963 3.6648999999999994,1.014400000000002 3.6479999999999997,0.9990000000000023 3.630200000000002,1.0045999999999964 3.6327,1.039200000000001 3.624200000000002,1.0441999999999965 3.6144999999999996,1.037399999999998 3.5962999999999994,1.0315000000000012 3.572300000000002,1.0317000000000007 3.546900000000001,1.0349000000000004 3.5289,1.0315999999999974 3.5212000000000003,1.0187000000000026 3.521799999999999,0.9876000000000005 3.5197000000000003,0.9726999999999961 3.505300000000002,0.9549000000000021 3.485800000000001,0.9602000000000004 3.464600000000001,0.9737000000000009 3.4494000000000007,0.964500000000001 3.4299,0.9761999999999986 3.3978,0.9632000000000005 3.3712000000000018,0.9654000000000025 3.351099999999999,0.9562999999999988 3.3336000000000006,0.9656999999999982 3.3308999999999997,0.9769000000000005 3.314499999999999,0.9859000000000009 3.2894000000000005,0.9836000000000027 3.2829000000000015,0.9973000000000027 3.2590000000000003,0.9949999999999974 3.2585000000000015,0.9784999999999968 3.2523000000000017,0.9680999999999997 3.2329000000000008,0.9684999999999988 3.2155000000000022,0.9626999999999981 3.2021000000000015,0.9540999999999968 3.195499999999999,0.9433000000000007 3.1987000000000023,0.934899999999999 3.2173000000000016,0.948599999999999 3.2311000000000014,0.9502999999999986 3.2302,0.9369000000000014 3.2372000000000014,0.9320999999999984 3.2329000000000008,0.9202000000000012 3.236900000000002,0.9089999999999989 3.246600000000001,0.8973999999999975 3.289999999999999,0.8781999999999996 3.2925000000000004,0.8611000000000004 3.2990999999999993,0.850200000000001 3.316700000000001,0.833599999999997 3.3234999999999992,0.8128999999999991 3.3215000000000003,0.7948999999999984 3.331199999999999,0.7749000000000024 3.3508999999999993,0.7518999999999991 3.3476999999999997,0.7167999999999992 3.3076000000000008,0.7190000000000012 3.3028000000000013,0.6993000000000009 3.289200000000001,0.6901999999999973 3.276,0.6997 3.2667,0.7090999999999994 3.2591,0.7224000000000004 3.2463000000000015,0.7302999999999997 3.2319999999999993,0.7351000000000028 3.2302,0.7430999999999983 3.237000000000002,0.7606999999999999 3.2329000000000008,0.7674000000000021 3.2209000000000003,0.7747000000000028 3.1884000000000015,0.8029000000000011 3.165300000000002,0.7984999999999971 3.134800000000002,0.7963000000000022 3.102499999999999,0.7871000000000024 3.116600000000002,0.7663999999999973 3.1020000000000003,0.7601000000000013 3.023199999999999,0.7332999999999998 2.9932000000000016,0.7145999999999972 2.9780000000000015,0.7092000000000027 2.9680999999999997,0.7012999999999963 2.9694000000000003,0.6925000000000026 2.9804999999999993,0.6899000000000015 2.9895999999999994,0.6707999999999998 2.9566000000000017,0.6535999999999973 2.9452,0.640500000000003 2.9358000000000004,0.6266999999999996 2.9344,0.6103000000000023 2.929100000000002,0.5916999999999959 2.928799999999999,0.5716999999999999 2.935500000000001,0.5319000000000003 2.9514999999999993,0.471899999999998 2.9216000000000015,0.4701000000000022 2.825099999999999,0.47339999999999804 2.802500000000002,0.4613000000000014 2.793700000000001,0.45250000000000057 2.7898999999999994,0.4397999999999982 2.7769000000000013,0.42730000000000246 2.764900000000001,0.4099000000000004 2.758300000000002,0.3727000000000018 2.760300000000001,0.36430000000000007 2.771699999999999,0.3485999999999976 2.7746999999999993,0.33509999999999707 2.7646000000000015,0.33039999999999736 2.7673000000000023,0.3190000000000026 2.7746999999999993,0.3048999999999964 2.7670999999999992,0.27940000000000254 2.7784000000000013,0.2505999999999986 2.772400000000001,0.24020000000000152 2.7573000000000008,0.23380000000000223 2.7624999999999993,0.19729999999999848 2.7759,0.19189999999999685 2.786100000000001,0.18430000000000035 2.793800000000001,0.17560000000000286 2.805500000000002,0.16980000000000217 2.8552,0.16259999999999764 2.8429,0.14809999999999945 2.8377000000000017,0.13519999999999754 2.8354999999999997,0.12230000000000274 2.8381000000000007,0.11160000000000281 2.866900000000001,0.08720000000000283 2.8576000000000015,0.08169999999999789 2.8249999999999993,0.07659999999999911 2.8149000000000015,0.06929999999999836 2.8095999999999997,0.052599999999998204 2.8435000000000024,0.038699999999998624 2.8423000000000016,0.029199999999995896 2.8245000000000005,0.02360000000000184 2.809100000000001,0.02499999999999858 2.7860000000000014,0.030000000000001137 2.758800000000001,0.0009999999999976694 2.7315000000000005,0.0 2.703099999999999,0.01740000000000208 2.683600000000002,0.03240000000000265 2.666900000000002,0.051400000000001 2.6433,0.056800000000002626 2.601300000000002,0.058799999999997965 2.5867000000000004,0.05760000000000076 "></polygon>
    </svg>
    