
    <svg width="1.247799999999998" height="1.0238000000000005" xmlns="http://www.w3.org/2000/svg" xmlns:xlink="http://www.w3.org/1999/xlink" style="transform: scale(1, -1)">
        <polygon points="0.6991000000000014,0.2395000000000005 0.7075999999999993,0.2403000000000004 0.7180999999999926,0.24870000000000037 0.7246999999999986,0.258 0.7312999999999903,0.2632000000000003 0.7342999999999904,0.2613000000000003 0.7330999999999932,0.2541000000000002 0.7236999999999938,0.22990000000000066 0.7015999999999991,0.19530000000000047 0.6863999999999919,0.1748000000000003 0.6736999999999966,0.16330000000000044 0.6704999999999899,0.1501999999999999 0.6721999999999895,0.14650000000000052 0.6794000000000011,0.14610000000000056 0.6940999999999917,0.1490999999999998 0.6920999999999964,0.1424000000000003 0.6863999999999919,0.13370000000000015 0.6537999999999897,0.11059999999999981 0.6373999999999995,0.08349999999999991 0.620199999999997,0.061799999999999855 0.5970999999999975,0.0398000000000005 0.5512999999999977,0.0127000000000006 0.5106999999999999,0.0 0.501899999999992,0.000700000000000145 0.4942999999999955,0.004000000000000448 0.49559999999999604,0.01100000000000012 0.512599999999992,0.029600000000000293 0.5093999999999994,0.03990000000000027 0.5052000000000021,0.04180000000000028 0.4765999999999906,0.045399999999999885 0.46129999999999427,0.052999999999999936 0.45250000000000057,0.06050000000000022 0.4303999999999917,0.09580000000000055 0.42329999999999757,0.11540000000000017 0.41749999999998977,0.12380000000000013 0.4076000000000022,0.13149999999999995 0.3721999999999923,0.1355000000000004 0.3481999999999914,0.17540000000000067 0.33979999999999677,0.19740000000000002 0.3316999999999979,0.21119999999999983 0.32729999999999393,0.23030000000000062 0.325800000000001,0.25539999999999985 0.3195999999999941,0.26310000000000056 0.3113999999999919,0.2656999999999998 0.30349999999999966,0.2632000000000003 0.292199999999994,0.2472000000000003 0.2843999999999909,0.24429999999999996 0.24979999999999336,0.2552000000000003 0.242999999999995,0.2536000000000005 0.231899999999996,0.24460000000000015 0.22189999999999088,0.242 0.1968999999999994,0.24820000000000064 0.18970000000000198,0.25370000000000026 0.1880000000000024,0.26840000000000064 0.18840000000000146,0.28630000000000067 0.19089999999999918,0.2980999999999998 0.19819999999999993,0.3169000000000004 0.20069999999999766,0.3302000000000005 0.19769999999999754,0.3353999999999999 0.17969999999999686,0.3494999999999999 0.17730000000000246,0.3550000000000004 0.17739999999999156,0.3664000000000005 0.180499999999995,0.39510000000000023 0.16929999999999268,0.4168000000000003 0.14860000000000184,0.4474999999999998 0.136099999999999,0.47219999999999995 0.12399999999999523,0.49040000000000017 0.10909999999999798,0.5072999999999999 0.0981000000000023,0.5151000000000003 0.08919999999999106,0.5202 0.07970000000000255,0.5228999999999999 0.06789999999999452,0.5189000000000004 0.06449999999999534,0.5211000000000006 0.05509999999999593,0.5373999999999999 0.044399999999996,0.5494000000000003 0.028799999999989723,0.5578000000000003 0.0,0.5647000000000002 0.02379999999999427,0.5667 0.023299999999991883,0.5647000000000002 0.025199999999998113,0.5613999999999999 0.026600000000001955,0.5667 0.04939999999999145,0.5695000000000006 0.05459999999999354,0.5662000000000003 0.05719999999999459,0.5674999999999999 0.07160000000000366,0.5678000000000001 0.1273999999999944,0.5767000000000007 0.18189999999999884,0.5925000000000002 0.18549999999999045,0.5909000000000004 0.1851999999999947,0.5928000000000004 0.1875,0.5945 0.22220000000000084,0.6072000000000006 0.22409999999999286,0.6067 0.2574999999999932,0.6208999999999998 0.3044000000000011,0.6375000000000002 0.30629999999999313,0.6364000000000001 0.3125,0.6420000000000003 0.3218999999999994,0.6450000000000005 0.33379999999999654,0.6517 0.31799999999999784,0.6817000000000002 0.3149999999999977,0.6847000000000003 0.31519999999999015,0.6875 0.31689999999998975,0.6867000000000001 0.33549999999999613,0.6524999999999999 0.3819000000000017,0.6791999999999998 0.4240999999999957,0.7111000000000001 0.4521999999999906,0.7350000000000003 0.4607999999999919,0.7442000000000002 0.46580000000000155,0.7445000000000004 0.4682999999999993,0.7472000000000003 0.47109999999999275,0.7458999999999998 0.4744000000000028,0.7481 0.47879999999999256,0.7481 0.484099999999998,0.7538999999999998 0.4843999999999937,0.7589000000000006 0.48160000000000025,0.7586000000000004 0.4732999999999947,0.7509000000000006 0.47050000000000125,0.7496999999999998 0.4701999999999913,0.7514000000000003 0.4835999999999956,0.7645 0.5101999999999975,0.7857000000000003 0.546599999999998,0.8203000000000005 0.6349999999999909,0.8772000000000002 0.6607999999999947,0.8956 0.6646999999999963,0.8989000000000003 0.6651999999999987,0.9020000000000001 0.6685999999999979,0.9017 0.669399999999996,0.9050000000000002 0.6705999999999932,0.9038000000000004 0.6724999999999994,0.9047000000000001 0.6732999999999976,0.9085999999999999 0.676099999999991,0.9075000000000006 0.6765999999999934,0.9111000000000002 0.6787999999999954,0.9112 0.6790999999999912,0.9145000000000003 0.6812999999999931,0.9136000000000006 0.6858000000000004,0.9169999999999998 0.6821999999999946,0.9203000000000001 0.6790999999999912,0.9275000000000002 0.678600000000003,0.9309000000000003 0.6801999999999992,0.9342000000000006 0.6812999999999931,0.9333999999999998 0.6799999999999926,0.9321999999999999 0.6799999999999926,0.9286000000000003 0.6829999999999927,0.9214000000000002 0.6868999999999943,0.9225000000000003 0.689399999999992,0.9253 0.6910999999999916,0.9247000000000005 0.6901999999999902,0.9220000000000006 0.691599999999994,0.9214000000000002 0.6957999999999913,0.9249999999999998 0.691599999999994,0.9320000000000004 0.6865999999999985,0.9350000000000005 0.6821999999999946,0.9344999999999999 0.6821999999999946,0.9361000000000006 0.6850000000000023,0.9367000000000001 0.689700000000002,0.9347000000000003 0.6971999999999952,0.9260999999999999 0.700499999999991,0.9267000000000003 0.7043999999999926,0.9302999999999999 0.7025000000000006,0.9317000000000002 0.703000000000003,0.9333999999999998 0.7057999999999964,0.9344999999999999 0.7055000000000007,0.9325000000000001 0.7079999999999984,0.9320000000000004 0.707499999999996,0.9344999999999999 0.7102000000000004,0.9350000000000005 0.7151999999999958,0.9409000000000001 0.7168999999999954,0.9397000000000002 0.7188000000000017,0.9417 0.7176999999999936,0.9439000000000002 0.7227000000000032,0.9466999999999999 0.7240999999999929,0.9500000000000002 0.729699999999994,0.9456000000000007 0.7308000000000021,0.9503000000000004 0.7335999999999956,0.9517000000000007 0.7349999999999994,0.9506000000000006 0.7326999999999941,0.9492000000000003 0.7325000000000017,0.9456000000000007 0.7376999999999896,0.9470000000000001 0.7394000000000034,0.9542000000000002 0.741100000000003,0.9542000000000002 0.7426999999999992,0.9506000000000006 0.7475000000000023,0.952 0.7479999999999905,0.9556000000000004 0.7460999999999984,0.9564000000000004 0.7462999999999909,0.9578000000000007 0.7501999999999924,0.9572000000000003 0.7493999999999943,0.9527999999999999 0.752600000000001,0.9538000000000002 0.8177000000000021,0.9836 0.8417999999999921,0.9916999999999998 0.8843999999999994,1.0089000000000006 0.9266999999999967,1.0229 0.9311999999999898,1.0238000000000005 0.9335999999999984,1.0164 0.9356999999999971,1.0156 0.9641999999999911,1.0175999999999998 0.9649000000000001,1.0162000000000004 0.9602999999999895,1.0114999999999998 0.9564999999999912,1.0095 0.9535999999999945,1.0104000000000006 0.9528999999999996,1.0076 0.9497999999999962,1.0069 0.938999999999993,0.9990000000000006 0.9376999999999924,0.9830000000000005 0.9356999999999971,0.9794999999999998 0.9408999999999992,0.9663000000000004 0.9398999999999944,0.9653 0.9346000000000032,0.9785000000000004 0.9316999999999922,0.9769000000000005 0.9238,0.9792000000000005 0.9123000000000019,0.9793000000000003 0.9061999999999983,0.9714 0.9102999999999923,0.9693000000000005 0.9123000000000019,0.9639000000000006 0.917199999999994,0.9606000000000003 0.9150999999999954,0.9598000000000004 0.9100999999999999,0.9617000000000004 0.9076000000000022,0.9602000000000004 0.9107999999999947,0.9607000000000001 0.9136999999999915,0.9584999999999999 0.9116999999999962,0.9584999999999999 0.9102000000000032,0.9564000000000004 0.9116999999999962,0.952 0.9107999999999947,0.9512 0.9205999999999932,0.9514000000000005 0.9211999999999989,0.9493999999999998 0.9170999999999907,0.9470999999999998 0.9162000000000035,0.9427000000000003 0.9012000000000029,0.9306000000000001 0.8977999999999895,0.9220000000000006 0.8819000000000017,0.8980000000000006 0.8763999999999896,0.8837000000000002 0.8641999999999967,0.8795000000000002 0.8272999999999939,0.8500000000000005 0.8212999999999937,0.8566000000000003 0.8194999999999908,0.8557000000000006 0.8185000000000002,0.8445999999999998 0.8288999999999902,0.8323999999999998 0.8292000000000002,0.8379000000000003 0.8318999999999903,0.8436000000000003 0.8370000000000033,0.8494999999999999 0.8507000000000033,0.8578000000000001 0.8563999999999936,0.8696000000000002 0.8649999999999949,0.8744000000000005 0.8721999999999923,0.8734999999999999 0.8799999999999955,0.8816000000000006 0.8855999999999966,0.8933 0.8914999999999935,0.9012000000000002 0.8969999999999914,0.8807999999999998 0.8832000000000022,0.8719000000000001 0.8725999999999914,0.8624 0.8579999999999899,0.8315000000000001 0.8481000000000023,0.8146000000000004 0.8348999999999904,0.8075999999999999 0.7802999999999969,0.7999 0.7621999999999929,0.7966000000000006 0.7488999999999919,0.7917000000000005 0.7359000000000009,0.7831999999999999 0.7259999999999991,0.7545999999999999 0.720799999999997,0.7450000000000001 0.7098000000000013,0.7357000000000005 0.6813999999999965,0.7330000000000005 0.6726999999999919,0.7303000000000006 0.6666999999999916,0.7242000000000006 0.662399999999991,0.7050000000000001 0.6631,0.6867000000000001 0.6847999999999956,0.6504000000000003 0.6886999999999972,0.6253000000000002 0.6988999999999947,0.5326000000000004 0.6971999999999952,0.4961000000000002 0.6992999999999938,0.4533000000000005 0.7027999999999963,0.4319000000000006 0.7098000000000013,0.41889999999999983 0.7205999999999904,0.4123999999999999 0.7536999999999949,0.4049000000000005 0.7599000000000018,0.4009999999999998 0.7612000000000023,0.38540000000000063 0.758499999999998,0.35190000000000055 0.7438999999999965,0.31930000000000014 0.7323999999999984,0.29959999999999987 0.6987999999999914,0.2613000000000003 0.6967999999999961,0.24580000000000002 0.6991000000000014,0.2395000000000005 "></polygon><polygon points="0.47860000000000014,0.75 0.4744000000000028,0.7503000000000002 0.4812999999999903,0.7553000000000001 0.4812999999999903,0.7522000000000002 0.47860000000000014,0.75 "></polygon><polygon points="1.153099999999995,0.5166000000000004 1.1531999999999982,0.4996999999999998 1.1597000000000008,0.4942000000000002 1.1606000000000023,0.48990000000000045 1.1590999999999951,0.4836999999999998 1.160899999999998,0.4793000000000003 1.1595999999999975,0.4712000000000005 1.1651999999999987,0.45670000000000055 1.1602000000000032,0.43950000000000067 1.1670000000000016,0.41970000000000063 1.1868999999999943,0.39610000000000056 1.1958999999999946,0.38810000000000056 1.2172999999999945,0.37490000000000023 1.2231000000000023,0.36880000000000024 1.234499999999997,0.34660000000000046 1.2428999999999917,0.3393000000000006 1.247799999999998,0.33140000000000036 1.2467999999999932,0.31350000000000033 1.2323999999999984,0.2997000000000005 1.2177999999999969,0.29110000000000014 1.2112999999999943,0.2892999999999999 1.1996999999999929,0.29240000000000066 1.1936000000000035,0.2978000000000005 1.1876999999999924,0.30710000000000015 1.1851999999999947,0.3158000000000003 1.1740999999999957,0.32450000000000045 1.1650999999999954,0.32810000000000006 1.1385999999999967,0.32310000000000016 1.1340000000000003,0.32420000000000027 1.131699999999995,0.33030000000000026 1.1289000000000016,0.35080000000000044 1.1212000000000018,0.3567 1.0985999999999905,0.35380000000000056 1.0823999999999927,0.35380000000000056 1.0304000000000002,0.37260000000000026 1.0168999999999926,0.3711000000000002 1.0125000000000028,0.36870000000000047 1.004499999999993,0.36770000000000014 0.9975999999999914,0.3685999999999998 0.98599999999999,0.3767000000000005 0.9825000000000017,0.38320000000000043 0.9864000000000033,0.3971 0.9868000000000023,0.4060000000000006 0.9787000000000035,0.4378000000000002 0.9827999999999975,0.46060000000000034 0.9825999999999908,0.4702000000000002 0.9710000000000036,0.5102000000000002 0.9525999999999897,0.5617999999999999 0.9498999999999995,0.5762 0.9369999999999976,0.5973000000000006 0.9325999999999937,0.6120000000000001 0.9318999999999988,0.6334 0.9281999999999897,0.6423000000000005 0.926099999999991,0.6655000000000006 0.9184999999999945,0.6814 0.9223999999999961,0.7090000000000005 0.9133999999999958,0.7328000000000001 0.9138999999999982,0.7465999999999999 0.9107999999999947,0.7559000000000005 0.9098999999999933,0.7709999999999999 0.9185999999999979,0.7683 0.9230000000000018,0.7709999999999999 0.9256000000000029,0.7666000000000004 0.927899999999994,0.7686999999999999 0.9314999999999998,0.7682000000000002 0.9333999999999918,0.7703000000000007 0.928600000000003,0.7723000000000004 0.9305999999999983,0.7793000000000001 0.930499999999995,0.7963000000000005 0.9333000000000027,0.7982000000000005 0.930499999999995,0.7995000000000001 0.930499999999995,0.8013000000000003 0.9325999999999937,0.8052000000000001 0.9360999999999962,0.8070000000000004 0.9367000000000019,0.8093000000000004 0.9428999999999945,0.8151999999999999 0.9594999999999914,0.8243 0.9692000000000007,0.8257000000000003 0.9722000000000008,0.8199000000000005 0.9736999999999938,0.8261000000000003 0.9756,0.8276000000000003 0.9838000000000022,0.8239999999999998 0.9868000000000023,0.827 0.9876000000000005,0.8296999999999999 0.9860999999999933,0.8331 0.9894999999999925,0.8334999999999999 0.9868000000000023,0.8398000000000003 0.9938999999999965,0.8378000000000005 0.9938999999999965,0.8395999999999999 0.9863,0.8474000000000004 0.9791999999999916,0.8493000000000004 0.9765999999999906,0.8542000000000005 0.9778999999999911,0.8584000000000005 0.9736999999999938,0.8615000000000004 0.9759999999999991,0.8626000000000005 0.9723999999999933,0.8632 0.9698999999999955,0.8666 0.9706999999999937,0.8693 0.9853999999999985,0.8818999999999999 0.9950999999999937,0.8864999999999998 1.0056000000000012,0.8856000000000002 1.0236000000000018,0.8895 1.0322999999999922,0.8883999999999999 1.0364999999999895,0.8719999999999999 1.050299999999993,0.8531000000000004 1.0634999999999906,0.8494000000000002 1.064700000000002,0.8456999999999999 1.0617000000000019,0.8412000000000006 1.0615999999999985,0.8382000000000005 1.0764999999999958,0.8251 1.0948999999999955,0.8143000000000002 1.1081999999999965,0.8040000000000003 1.1152999999999906,0.7968000000000002 1.1199999999999903,0.7888000000000002 1.116100000000003,0.7731000000000003 1.1137999999999977,0.7544000000000004 1.116500000000002,0.7463000000000006 1.1324999999999932,0.7322000000000006 1.137900000000002,0.7229999999999999 1.1396000000000015,0.7073999999999998 1.1362999999999914,0.6993999999999998 1.1349000000000018,0.6871999999999998 1.1384999999999934,0.6766000000000005 1.1466999999999956,0.6711 1.149000000000001,0.6668000000000003 1.1499999999999915,0.6595000000000004 1.1474999999999937,0.6516000000000002 1.1409999999999911,0.6420000000000003 1.141999999999996,0.6389000000000005 1.1480999999999995,0.6337000000000002 1.1677999999999997,0.6199000000000003 1.1722999999999928,0.5912000000000006 1.1685999999999979,0.5795000000000003 1.1700999999999908,0.5729000000000006 1.1677999999999997,0.5601000000000003 1.1603999999999957,0.5524000000000004 1.1520999999999901,0.5376000000000003 1.1522999999999968,0.5315000000000003 1.1554000000000002,0.5255999999999998 1.153099999999995,0.5166000000000004 "></polygon><polygon points="0.9142999999999972,0.7937000000000003 0.9210999999999956,0.7930999999999999 0.9249999999999972,0.7910000000000004 0.9260000000000019,0.7732000000000001 0.9123000000000019,0.774 0.9089000000000027,0.7919999999999998 0.9106000000000023,0.7983000000000002 0.9142999999999972,0.7937000000000003 "></polygon><polygon points="0.9699999999999989,0.8539000000000003 0.9693999999999932,0.8559000000000001 0.9715999999999951,0.8547000000000002 0.9718999999999909,0.8525 0.9699999999999989,0.8539000000000003 "></polygon><polygon points="0.9146999999999963,0.8902000000000001 0.9170000000000016,0.8977000000000004 0.9196000000000026,0.8989000000000003 0.9201999999999941,0.8955000000000002 0.9170999999999907,0.8887 0.9155999999999977,0.8883000000000001 0.9146999999999963,0.8902000000000001 "></polygon><polygon points="0.9188999999999936,0.8672000000000004 0.9128999999999934,0.8630000000000004 0.9055999999999926,0.8610000000000007 0.9086999999999961,0.8681999999999999 0.9103999999999957,0.8676000000000004 0.9189999999999969,0.8742999999999999 0.9239999999999924,0.8734999999999999 0.92349999999999,0.8692000000000002 0.9188999999999936,0.8672000000000004 "></polygon><polygon points="0.9080000000000013,0.8759000000000006 0.9077999999999946,0.8803000000000001 0.9117999999999995,0.8837000000000002 0.9131,0.8876 0.915300000000002,0.8879999999999999 0.9164999999999992,0.8805000000000005 0.9106000000000023,0.8757000000000001 0.9080000000000013,0.8759000000000006 "></polygon><polygon points="0.8962999999999965,0.9077999999999999 0.8977000000000004,0.9092000000000002 0.8960999999999899,0.9051999999999998 0.8960000000000008,0.9061000000000003 0.8962999999999965,0.9077999999999999 "></polygon><polygon points="0.9129999999999967,0.9732000000000003 0.9132999999999925,0.9756999999999998 0.9154999999999944,0.9752999999999998 0.9144999999999897,0.9725999999999999 0.9129999999999967,0.9732000000000003 "></polygon><polygon points="0.9311000000000007,0.9535999999999998 0.9325999999999937,0.9594000000000005 0.9354999999999905,0.9603999999999999 0.9365999999999985,0.9584000000000001 0.935299999999998,0.9550999999999998 0.9325999999999937,0.9527000000000001 0.9311000000000007,0.9535999999999998 "></polygon><polygon points="0.9154999999999944,0.9581 0.9162999999999926,0.9588999999999999 0.917900000000003,0.9592999999999998 0.917199999999994,0.9561000000000002 0.9154999999999944,0.9581 "></polygon><polygon points="0.9879999999999995,0.9908000000000001 0.9916999999999945,0.9903000000000004 0.9983000000000004,0.9756 1.0015999999999963,0.9736000000000002 1.0006999999999948,0.9718 0.9979999999999905,0.9708000000000006 0.9809999999999945,0.9735000000000005 0.972999999999999,0.9716000000000005 0.962299999999999,0.9733999999999998 0.9587999999999965,0.9763000000000002 0.9577999999999918,0.9805000000000001 0.9480999999999966,0.9887000000000006 0.9474999999999909,0.9931000000000001 0.9488999999999947,0.9984999999999999 0.9662000000000006,0.9897999999999998 0.9732999999999947,0.9881000000000002 0.9859000000000009,0.9889000000000001 0.9879999999999995,0.9908000000000001 "></polygon>
    </svg>
    