
    <svg width="10.529000000000002" height="16.0093" xmlns="http://www.w3.org/2000/svg" xmlns:xlink="http://www.w3.org/1999/xlink" style="transform: scale(1, -1)">
        <polygon points="3.3271999999999995,0.11460000000000026 3.322899999999999,0.12060000000000048 3.3240999999999996,0.13620000000000054 3.320400000000001,0.14430000000000032 3.3011999999999997,0.16550000000000065 3.288400000000001,0.1761000000000008 3.2780000000000005,0.18120000000000047 3.2746000000000013,0.18740000000000023 3.265200000000002,0.19210000000000083 3.2622000000000018,0.1955 3.2601999999999993,0.20150000000000023 3.253300000000001,0.20910000000000029 3.2167000000000012,0.20980000000000043 3.211599999999999,0.2121000000000004 3.205700000000002,0.22219999999999995 3.199,0.22390000000000043 3.1937000000000015,0.2276000000000007 3.1922000000000015,0.2345000000000006 3.193199999999999,0.2528000000000006 3.191900000000002,0.2682000000000002 3.1968000000000014,0.28860000000000063 3.1944999999999997,0.29710000000000036 3.1761999999999997,0.30710000000000015 3.164900000000001,0.31700000000000017 3.1578,0.32120000000000015 3.153599999999999,0.32170000000000076 3.1441999999999997,0.31760000000000055 3.1389000000000014,0.3171000000000008 3.1210000000000004,0.32780000000000076 3.123300000000002,0.33370000000000033 3.121800000000002,0.35190000000000055 3.124599999999999,0.3571 3.1243999999999996,0.36380000000000035 3.1179000000000006,0.3709000000000007 3.117800000000001,0.38400000000000034 3.1102000000000007,0.39280000000000026 3.1121,0.39670000000000005 3.1133000000000006,0.4104000000000001 3.1209000000000007,0.42100000000000026 3.124699999999999,0.4292000000000007 3.1244999999999994,0.4350000000000005 3.1224000000000007,0.4391000000000007 3.121900000000002,0.43730000000000047 3.103900000000001,0.4289000000000005 3.0901000000000014,0.4273000000000007 3.087300000000001,0.4237000000000002 3.089599999999999,0.4184000000000001 3.0871000000000013,0.41360000000000063 3.079200000000002,0.4131 3.073000000000002,0.4157000000000002 3.0686000000000018,0.4148000000000005 3.0615000000000006,0.4073000000000002 3.056800000000001,0.40520000000000067 3.0452999999999992,0.4046000000000003 3.042600000000002,0.4018000000000006 3.0405999999999995,0.38620000000000054 3.035300000000001,0.3780000000000001 3.0221,0.3675000000000006 3.0205,0.3620000000000001 3.021200000000002,0.35600000000000076 3.0191,0.351 3.015600000000001,0.3492000000000006 2.9863000000000017,0.34380000000000077 2.9826999999999995,0.3468 2.980600000000001,0.3514000000000008 2.9839,0.3576000000000006 2.9818000000000016,0.36129999999999995 2.974000000000002,0.3620000000000001 2.9687,0.3648000000000007 2.9655000000000005,0.36410000000000053 2.9504,0.3382000000000005 2.9411000000000005,0.3330000000000002 2.939000000000002,0.3268000000000004 2.940400000000002,0.32310000000000016 2.9468000000000014,0.31870000000000065 2.9528000000000016,0.3056000000000001 2.9506999999999994,0.3022 2.945100000000002,0.30130000000000035 2.943299999999999,0.2995000000000001 2.9421000000000017,0.2931000000000008 2.943900000000001,0.28659999999999997 2.9517000000000007,0.2799000000000005 2.9543000000000017,0.2801 2.956999999999999,0.2776000000000005 2.952399999999999,0.2680000000000007 2.945400000000001,0.2627000000000006 2.9368999999999996,0.25310000000000077 2.933200000000001,0.2447000000000008 2.921100000000001,0.23710000000000075 2.9193000000000016,0.23000000000000043 2.911199999999999,0.2301000000000002 2.9019999999999992,0.2248000000000001 2.8987999999999996,0.22580000000000044 2.887500000000001,0.22330000000000005 2.8835999999999995,0.22630000000000017 2.8805999999999994,0.2259000000000002 2.8741000000000003,0.21989999999999998 2.8679000000000006,0.22090000000000032 2.838400000000002,0.20999999999999996 2.828000000000001,0.2107000000000001 2.8232000000000017,0.20680000000000032 2.8187000000000015,0.1958000000000002 2.8130000000000006,0.19150000000000045 2.8042,0.1867000000000001 2.7883000000000013,0.18240000000000034 2.7776000000000014,0.17210000000000036 2.7619999999999987,0.1656000000000004 2.7597000000000005,0.16720000000000024 2.7375999999999987,0.17030000000000012 2.7307000000000006,0.17400000000000038 2.7120000000000015,0.1734 2.707200000000002,0.17080000000000073 2.699299999999999,0.1612 2.6900999999999993,0.1535000000000002 2.6758000000000006,0.15470000000000006 2.666100000000002,0.15380000000000038 2.6578,0.14970000000000017 2.6311000000000018,0.15050000000000008 2.614300000000002,0.14810000000000034 2.592599999999999,0.14080000000000048 2.5831999999999997,0.13650000000000073 2.575799999999999,0.12960000000000083 2.569699999999999,0.1189 2.565500000000002,0.10240000000000027 2.565500000000002,0.09270000000000067 2.5622999999999987,0.08970000000000056 2.5535000000000014,0.08879999999999999 2.5496,0.08180000000000032 2.5439999999999987,0.0788000000000002 2.5368000000000013,0.06460000000000043 2.5244,0.05750000000000011 2.5165000000000006,0.049300000000000566 2.5075000000000003,0.048200000000000465 2.5013000000000005,0.04220000000000024 2.4776000000000007,0.04260000000000019 2.4574999999999996,0.0376000000000003 2.4451,0.029600000000000293 2.4359,0.02600000000000069 2.4101,0.01920000000000055 2.390500000000001,0.011900000000000688 2.372300000000001,0.011100000000000776 2.3667,0.009500000000000064 2.3605,0.0045000000000001705 2.3432000000000013,0.004300000000000637 2.339500000000001,0.000600000000000378 2.3361,0.0 2.326500000000001,0.0138000000000007 2.3118,0.020800000000000374 2.3000000000000007,0.021700000000000053 2.2956000000000003,0.01690000000000058 2.2929000000000013,0.01670000000000016 2.2855000000000008,0.022700000000000387 2.284600000000001,0.029800000000000715 2.2819000000000003,0.033500000000000085 2.2727000000000004,0.0351000000000008 2.2695000000000007,0.037400000000000766 2.258000000000001,0.059500000000000774 2.254100000000001,0.06390000000000029 2.256400000000001,0.07510000000000083 2.2545,0.07800000000000029 2.1865000000000006,0.07650000000000023 2.1746,0.07440000000000069 2.1661,0.07560000000000056 2.1486,0.07210000000000072 2.0869,0.0694000000000008 2.0730000000000004,0.07010000000000005 2.0340000000000007,0.08640000000000025 2.0434,0.09109999999999996 2.0494000000000003,0.10370000000000079 2.0542,0.10530000000000062 2.0671999999999997,0.11580000000000013 2.0763999999999996,0.12790000000000035 2.081100000000001,0.1311 2.0845000000000002,0.13860000000000028 2.0899,0.14170000000000016 2.0967000000000002,0.1518000000000006 2.0969999999999995,0.15359999999999996 2.0912000000000006,0.16110000000000024 2.0913000000000004,0.16860000000000053 2.0968999999999998,0.1731000000000007 2.105500000000001,0.18490000000000073 2.106200000000001,0.19430000000000014 2.1098,0.19870000000000054 2.1087000000000007,0.2099000000000002 2.1034000000000006,0.2146000000000008 2.1081000000000003,0.21660000000000057 2.1095000000000006,0.22130000000000027 2.114700000000001,0.22560000000000002 2.1156000000000006,0.23170000000000002 2.1187000000000005,0.23650000000000038 2.1201000000000008,0.24650000000000016 2.116900000000001,0.2536000000000005 2.116200000000001,0.26610000000000067 2.1166,0.2746000000000004 2.119200000000001,0.27910000000000057 2.1151,0.28520000000000056 2.1174,0.29710000000000036 2.113100000000001,0.3014000000000001 2.1189,0.3161000000000005 2.1156000000000006,0.32430000000000003 2.1151,0.33140000000000036 2.0312,0.35250000000000004 1.9789000000000012,0.4400000000000004 1.9222000000000001,0.6033 1.9214000000000002,0.6145000000000005 1.9231999999999996,0.6502000000000008 1.726700000000001,1.0679000000000007 1.7241,1.0713 1.7185000000000006,1.072400000000001 1.7089999999999996,1.0782999999999996 1.7043,1.0839000000000008 1.691600000000001,1.114300000000001 1.682500000000001,1.1269 1.6801000000000013,1.134900000000001 1.6780000000000008,1.1611000000000002 1.6670999999999996,1.1679000000000004 1.6502999999999997,1.1818 1.637500000000001,1.1960000000000006 1.6359000000000012,1.2107999999999999 1.6348000000000003,1.214900000000001 1.6325000000000003,1.2167000000000003 1.6056000000000008,1.2291999999999996 1.5930999999999997,1.2321999999999997 1.5856000000000012,1.2387000000000006 1.5734000000000012,1.2377000000000011 1.5633999999999997,1.2346000000000013 1.5587,1.2365000000000004 1.5501000000000005,1.2440000000000007 1.5396,1.245 1.5319000000000003,1.2487000000000004 1.5084999999999997,1.248400000000001 1.5113000000000003,1.2567000000000013 1.5105000000000004,1.2588 1.5144000000000002,1.2619999999999996 1.5129000000000001,1.2664999999999997 1.5176999999999996,1.2746000000000004 1.517100000000001,1.2860000000000005 1.5138999999999996,1.2912000000000008 1.5008999999999997,1.3012000000000006 1.490400000000001,1.302500000000001 1.485100000000001,1.3052000000000001 1.4779999999999998,1.3136999999999999 1.4733999999999998,1.3166000000000002 1.4670000000000005,1.3172000000000006 1.4626000000000001,1.3137999999999996 1.4484000000000012,1.3143000000000002 1.4390999999999998,1.3238000000000012 1.439400000000001,1.3258 1.446200000000001,1.3297999999999996 1.4522000000000013,1.3375000000000012 1.4385000000000012,1.349800000000001 1.4381000000000004,1.3528000000000011 1.4343000000000004,1.3546000000000005 1.4344999999999999,1.3571 1.4312000000000005,1.360500000000001 1.427900000000001,1.3723999999999998 1.4152000000000005,1.3774000000000006 1.4088000000000012,1.3821000000000003 1.4055,1.3784 1.4040999999999997,1.3819000000000008 1.3994999999999997,1.3837000000000002 1.3910999999999998,1.3762999999999996 1.3844000000000012,1.3807 1.3806000000000012,1.3785999999999996 1.3802000000000003,1.3721000000000005 1.3773999999999997,1.374200000000001 1.3625000000000007,1.3741000000000012 1.1448,1.5337000000000005 1.1167999999999996,1.5558000000000005 1.1126000000000005,1.560900000000001 1.0456000000000003,1.6015000000000006 1.0236,1.6125999999999996 1.0195000000000007,1.616600000000001 1.0149000000000008,1.6350000000000007 0.9977,1.661500000000001 0.997300000000001,1.671400000000001 0.9943000000000008,1.6757999999999997 0.9787999999999997,1.6796999999999995 0.9726999999999997,1.6841 0.9602000000000004,1.6884000000000006 0.9527000000000001,1.697 0.9303000000000008,1.7099000000000002 0.9238999999999997,1.7211000000000007 0.918800000000001,1.724000000000001 0.9159000000000006,1.7295000000000007 0.9082000000000008,1.7333000000000007 0.8998000000000008,1.7409000000000008 0.8949999999999996,1.7402000000000006 0.8907000000000007,1.7418000000000005 0.8842999999999996,1.7541000000000002 0.886000000000001,1.759100000000001 0.8846000000000007,1.761400000000001 0.8780000000000001,1.7622000000000009 0.875,1.7656999999999998 0.8749000000000002,1.7717999999999998 0.8773,1.7763999999999998 0.8821000000000012,1.7771 0.8841999999999999,1.7801 0.8834,1.7882000000000007 0.8946000000000005,1.8000999999999996 0.8972999999999995,1.8050000000000006 0.9042000000000012,1.8093000000000012 0.9078999999999997,1.8159 0.9114000000000004,1.8258999999999999 0.9067000000000007,1.851 0.8740000000000006,1.8637000000000006 0.8666999999999998,1.874200000000001 0.8419000000000008,1.923700000000001 0.8379000000000012,1.9276000000000009 0.8107000000000006,1.9156000000000004 0.8056999999999999,1.9148000000000005 0.8009000000000004,1.9173 0.7839000000000009,1.9374000000000011 0.7769000000000013,1.9498000000000006 0.7695000000000007,1.9575000000000005 0.7645,1.9659000000000004 0.7655000000000012,1.978600000000001 0.7422000000000004,1.9971000000000005 0.7384000000000004,2.0043999999999995 0.7278000000000002,2.000700000000001 0.7234999999999996,2.003000000000001 0.7202999999999999,2.014400000000001 0.7156000000000002,2.0187 0.7096999999999998,2.032700000000001 0.7035999999999998,2.039500000000001 0.6895000000000007,2.049400000000001 0.6829000000000001,2.0611000000000006 0.6795000000000009,2.0606999999999998 0.6748000000000012,2.0631000000000013 0.6675000000000004,2.0614999999999997 0.6615000000000002,2.0631000000000013 0.650500000000001,2.0681000000000003 0.6374000000000013,2.0766999999999998 0.6340000000000003,2.0957999999999997 0.6262000000000008,2.1087999999999996 0.6187000000000005,2.1138000000000003 0.6103000000000005,2.1153000000000004 0.6054000000000013,2.1224999999999996 0.6007999999999996,2.1253 0.5731999999999999,2.1597 0.5724,2.1708000000000007 0.5702999999999996,2.172900000000001 0.5614000000000008,2.174400000000001 0.5498000000000012,2.179100000000001 0.5343999999999998,2.1816000000000004 0.5090000000000003,2.2008 0.5088000000000008,2.2032 0.5528000000000013,2.2905000000000006 0.6104000000000003,2.3416000000000006 0.6616,2.3828000000000005 0.6997999999999998,2.4600999999999997 0.7347000000000001,2.5605 0.7345000000000006,2.5650000000000004 0.7590000000000003,2.561600000000001 0.767100000000001,2.5629999999999997 0.9926000000000013,2.565500000000001 1.2182000000000013,2.5195999999999996 1.3289000000000009,2.494600000000001 1.4879999999999995,2.5438 1.5272000000000006,2.5286 1.562800000000001,2.5278 1.5884,2.507600000000001 1.6327999999999996,2.5256 1.636000000000001,2.5325999999999995 1.6364,2.5398000000000005 1.6393000000000004,2.545600000000001 1.6790000000000003,2.5559000000000003 1.7065000000000001,2.5474000000000006 1.7358000000000011,2.5528000000000004 1.7413000000000007,2.5469 1.7749000000000006,2.5504000000000007 1.890600000000001,2.5209 1.9398,2.493800000000001 2.0542999999999996,2.513600000000001 2.1791,2.544100000000001 2.1824000000000012,2.5462 2.213800000000001,2.5537 2.216000000000001,2.5553 2.2043999999999997,2.5628 2.1975,2.5725000000000007 2.1883,2.5767999999999995 2.183,2.5825000000000005 2.1449999999999996,2.6056999999999997 2.138,2.607400000000001 2.1278000000000006,2.6049999999999995 2.124600000000001,2.6063 2.1214000000000013,2.6129000000000007 2.1205999999999996,2.618900000000001 2.1125000000000007,2.6256000000000013 2.103900000000001,2.6282000000000005 2.098700000000001,2.6262 2.0905000000000005,2.6268000000000002 2.083500000000001,2.6399999999999997 2.0752000000000006,2.6442000000000005 2.0632,2.657700000000001 2.0523000000000007,2.660100000000001 2.0435,2.6534000000000004 2.0389999999999997,2.6525000000000007 2.0373,2.6544999999999996 2.0356000000000005,2.6672000000000002 2.0282999999999998,2.673800000000001 2.0228,2.6823000000000006 2.0136000000000003,2.6826 2.0106,2.6884000000000006 2.0107,2.6965000000000012 2.007100000000001,2.7024999999999997 1.9940999999999995,2.7108999999999996 1.9877000000000002,2.7184 1.9791000000000007,2.7443999999999997 1.9717000000000002,2.755200000000001 1.9594000000000005,2.7626999999999997 1.9540000000000006,2.7642999999999995 1.9501000000000008,2.772800000000001 1.941600000000001,2.7763999999999998 1.9360999999999997,2.7811000000000012 1.9359000000000002,2.7883000000000004 1.9297000000000004,2.8021000000000003 1.9253,2.8057000000000007 1.9131999999999998,2.8107999999999995 1.9107000000000003,2.8150000000000004 1.8956,2.8281 1.8933999999999997,2.8364000000000003 1.8855000000000004,2.842100000000001 1.8846000000000007,2.8495999999999997 1.8826999999999998,2.8516000000000004 1.8709000000000007,2.8549999999999995 1.8666999999999998,2.8573000000000013 1.8659,2.8599000000000006 1.8537999999999997,2.8647 1.8407,2.8644000000000007 1.8387000000000011,2.865900000000001 1.8376000000000001,2.8838999999999997 1.8224999999999998,2.8944 1.821200000000001,2.9028 1.8245000000000005,2.9082999999999997 1.8231000000000002,2.912300000000001 1.8171999999999997,2.920600000000001 1.8095999999999997,2.9259000000000013 1.8108000000000004,2.9433 1.8097000000000012,2.948800000000001 1.812100000000001,2.9545000000000003 1.8094999999999999,2.967900000000001 1.7980999999999998,2.9768999999999997 1.7794000000000008,2.9959 1.7741000000000007,3.0111 1.7729999999999997,3.023500000000001 1.7678000000000011,3.0313000000000008 1.7492,3.0477 1.732800000000001,3.0591 1.7139000000000006,3.0637 1.703800000000001,3.070000000000001 1.6766000000000005,3.0902000000000003 1.6730999999999998,3.095300000000001 1.6707,3.1329000000000002 1.6740000000000013,3.1511000000000005 1.6837,3.171500000000001 1.6844999999999999,3.1991000000000005 1.6832000000000011,3.204900000000001 1.6722000000000001,3.2176 1.6677999999999997,3.2267 1.6643000000000008,3.2473 1.6649000000000012,3.2617000000000003 1.662700000000001,3.2651000000000012 1.6524,3.2710999999999997 1.629100000000001,3.299500000000001 1.6243999999999996,3.3156000000000008 1.6173000000000002,3.3297 1.607000000000001,3.3454000000000006 1.6004000000000005,3.3667000000000007 1.5963000000000012,3.3723 1.5958000000000006,3.375000000000001 1.5989000000000004,3.3791 1.6014,3.3965000000000005 1.6073000000000004,3.4086000000000007 1.6181,3.4172000000000002 1.6225000000000005,3.423000000000001 1.6237000000000013,3.435900000000001 1.6163000000000007,3.460400000000001 1.6103000000000005,3.5088999999999997 1.5922,3.5241 1.5907999999999998,3.5279 1.5914000000000001,3.5390000000000006 1.5862999999999996,3.5462999999999996 1.577,3.5532000000000012 1.5742000000000012,3.5581000000000005 1.5818000000000012,3.5642000000000005 1.5812000000000008,3.5672000000000006 1.5738000000000003,3.5725000000000007 1.5751000000000008,3.578400000000001 1.5843000000000007,3.5832000000000006 1.6006999999999998,3.5827 1.6105,3.5902000000000003 1.609300000000001,3.600600000000001 1.6217000000000006,3.6023000000000005 1.624600000000001,3.604300000000001 1.6228999999999996,3.6198000000000006 1.6289999999999996,3.624200000000001 1.6303999999999998,3.6275000000000004 1.6296999999999997,3.6338999999999997 1.6353000000000009,3.638600000000001 1.6362000000000005,3.6428000000000003 1.6385000000000005,3.6435000000000004 1.6357999999999997,3.651700000000001 1.6270000000000007,3.6573 1.6251999999999995,3.6648000000000005 1.6247000000000007,3.6688 1.6265,3.6704 1.6251999999999995,3.6909 1.6272000000000002,3.7083000000000004 1.6234000000000002,3.7166000000000006 1.6234000000000002,3.7249000000000008 1.621500000000001,3.7275 1.6128,3.7306 1.6043000000000003,3.7413 1.5967000000000002,3.7570000000000006 1.5864000000000011,3.789500000000001 1.5935000000000006,3.7969 1.5937000000000001,3.8076999999999996 1.5898000000000003,3.8152999999999997 1.5888000000000009,3.8242000000000003 1.5768000000000004,3.8364000000000003 1.576600000000001,3.8386000000000005 1.5815000000000001,3.8419999999999996 1.5846,3.8555 1.5889000000000006,3.859800000000001 1.5905000000000005,3.866600000000001 1.6005000000000003,3.8756000000000013 1.6024000000000012,3.8814 1.5907,3.8939000000000012 1.5770999999999997,3.9019000000000004 1.5818000000000012,3.9110000000000005 1.5972000000000008,3.9240000000000004 1.5932000000000013,3.9399000000000006 1.584900000000001,3.954200000000001 1.589500000000001,3.959500000000001 1.5877,3.966500000000001 1.5884999999999998,3.9720000000000004 1.5955000000000013,3.976400000000001 1.5980000000000008,3.983100000000001 1.5981000000000005,3.990800000000001 1.6035000000000004,3.9913999999999996 1.6045999999999996,3.9935 1.6036000000000001,3.997700000000001 1.6006999999999998,4.0005 1.6011000000000006,4.0025 1.609,4.0059 1.6184000000000012,4.0241 1.6281999999999996,4.0316 1.6243999999999996,4.0406 1.6273999999999997,4.0437 1.6319,4.0424 1.6353000000000009,4.0437 1.636000000000001,4.0553 1.6599000000000004,4.0653 1.6614000000000004,4.068500000000001 1.6592000000000002,4.076200000000001 1.667300000000001,4.086200000000001 1.6697000000000006,4.0981 1.6696000000000009,4.106800000000001 1.6733000000000011,4.1132 1.673,4.1160000000000005 1.6687000000000012,4.120500000000001 1.6588000000000012,4.127300000000001 1.6333000000000002,4.136 1.6293000000000006,4.1392999999999995 1.6294000000000004,4.165500000000001 1.6266999999999996,4.1697 1.6153000000000013,4.1766 1.6141000000000005,4.1787 1.615400000000001,4.1895999999999995 1.606300000000001,4.1987 1.6081000000000003,4.203600000000001 1.6150000000000002,4.2077 1.611600000000001,4.2174000000000005 1.6035000000000004,4.222700000000001 1.6050000000000004,4.233300000000001 1.6088000000000005,4.2412 1.6065000000000005,4.245400000000001 1.6019000000000005,4.247700000000001 1.5984999999999996,4.256700000000001 1.5929000000000002,4.262800000000001 1.591000000000001,4.268400000000001 1.5928000000000004,4.2732 1.6050000000000004,4.2891 1.6128999999999998,4.2886 1.6270000000000007,4.283500000000001 1.633000000000001,4.2832 1.624600000000001,4.3029 1.6119000000000003,4.3112 1.6082,4.3188 1.6125000000000007,4.324700000000001 1.6222000000000012,4.3305 1.6361000000000008,4.332 1.6479,4.3387 1.6512000000000011,4.345300000000001 1.6479,4.351500000000001 1.6397000000000013,4.354400000000001 1.633000000000001,4.363400000000001 1.6258999999999997,4.3693 1.6243999999999996,4.384200000000001 1.6255000000000006,4.393300000000001 1.6235,4.397200000000001 1.6242,4.4011000000000005 1.6219999999999999,4.4049000000000005 1.6132000000000009,4.4089 1.6071000000000009,4.4159 1.6051000000000002,4.4105 1.5976999999999997,4.402400000000001 1.5925000000000011,4.3982 1.5904000000000007,4.398700000000001 1.5807000000000002,4.4066 1.5751000000000008,4.4172 1.5746000000000002,4.4224000000000006 1.5769000000000002,4.428200000000001 1.568900000000001,4.4485 1.5663999999999998,4.4639999999999995 1.5717999999999996,4.471100000000001 1.5847999999999995,4.4754 1.5887000000000011,4.4814 1.5912000000000006,4.4913 1.5911000000000008,4.494600000000001 1.585700000000001,4.5041 1.5753000000000004,4.516900000000001 1.5754000000000001,4.5211 1.5785999999999998,4.5286 1.5843000000000007,4.5353 1.592600000000001,4.5356 1.5991999999999997,4.5307 1.6019000000000005,4.530500000000001 1.6089000000000002,4.5356 1.6128999999999998,4.5399 1.6158000000000001,4.552500000000001 1.612,4.5576 1.5859000000000005,4.558600000000001 1.5696000000000012,4.580100000000001 1.5658000000000012,4.5828999999999995 1.5653000000000006,4.585500000000001 1.5667000000000009,4.587500000000001 1.571200000000001,4.5897 1.5800999999999998,4.5871 1.5823,4.589800000000001 1.585700000000001,4.6057 1.5847999999999995,4.6125 1.578800000000001,4.6232999999999995 1.5677000000000003,4.628800000000001 1.5633,4.633 1.562100000000001,4.639600000000001 1.5639000000000003,4.6557 1.5614000000000008,4.661600000000001 1.5457999999999998,4.6717 1.533900000000001,4.6757 1.5286000000000008,4.6757 1.5211000000000006,4.671500000000001 1.5182000000000002,4.666000000000001 1.5182000000000002,4.647700000000001 1.5151000000000003,4.6427000000000005 1.5083000000000002,4.6436 1.4863,4.651800000000001 1.4821000000000009,4.6544 1.4768000000000008,4.6621 1.4669000000000008,4.667600000000001 1.452300000000001,4.6804 1.431700000000001,4.704900000000001 1.4152000000000005,4.7136000000000005 1.4115000000000002,4.719600000000001 1.4118000000000013,4.723 1.4155999999999995,4.728700000000001 1.4326000000000008,4.733300000000001 1.4383,4.7410000000000005 1.4375,4.7442 1.424100000000001,4.749900000000001 1.4196000000000009,4.7593000000000005 1.4220000000000006,4.7654000000000005 1.4288000000000007,4.7741999999999996 1.430200000000001,4.7792 1.4296000000000006,4.7868 1.4233000000000011,4.7985999999999995 1.423,4.8020000000000005 1.4245,4.810200000000001 1.4265000000000008,4.815600000000001 1.4319000000000006,4.8222 1.4330999999999996,4.8282 1.4314999999999998,4.8403 1.422600000000001,4.8533 1.4197000000000006,4.861300000000001 1.4202000000000012,4.8648 1.4286000000000012,4.8724 1.4368999999999996,4.8838 1.4370000000000012,4.888600000000001 1.4304000000000006,4.894000000000001 1.4274000000000004,4.8998 1.4278000000000013,4.9088 1.4332000000000011,4.9209000000000005 1.4360999999999997,4.935100000000001 1.4265000000000008,4.957300000000001 1.4071999999999996,4.985500000000001 1.4047999999999998,4.997600000000001 1.4063999999999997,5.012800000000001 1.403500000000001,5.0193 1.399000000000001,5.0215000000000005 1.3924000000000003,5.0195 1.3910999999999998,5.0101 1.3876000000000008,5.006200000000001 1.3817000000000004,5.0049 1.3766999999999996,5.0079 1.3726000000000003,5.0156 1.370800000000001,5.0225 1.371500000000001,5.0286 1.3741000000000003,5.0324 1.3847000000000005,5.038900000000001 1.3855000000000004,5.0554 1.3834999999999997,5.062400000000001 1.3777000000000008,5.072300000000001 1.3804999999999996,5.104 1.3792000000000009,5.1185 1.3674,5.144900000000001 1.3633000000000006,5.160100000000001 1.3642000000000003,5.1664 1.362400000000001,5.1766 1.3575,5.188400000000001 1.3504000000000005,5.1924 1.3169000000000004,5.1872 1.3034,5.1885 1.2992000000000008,5.1908 1.290000000000001,5.200500000000001 1.2885000000000009,5.218700000000001 1.283900000000001,5.2344 1.2807000000000013,5.2403 1.2737999999999996,5.2443 1.2687000000000008,5.244000000000001 1.2614999999999998,5.2391 1.2596000000000007,5.224100000000001 1.257200000000001,5.2183 1.2492999999999999,5.2128000000000005 1.2447999999999997,5.2123 1.2411000000000012,5.2138 1.2335000000000012,5.2198 1.2316000000000003,5.230300000000001 1.232800000000001,5.237000000000001 1.2365000000000013,5.2428 1.245800000000001,5.250800000000001 1.2523999999999997,5.262100000000001 1.2523999999999997,5.2662 1.2505000000000006,5.269900000000001 1.2439999999999998,5.2779 1.2301000000000002,5.282800000000001 1.2025000000000006,5.276700000000001 1.1895000000000007,5.277500000000001 1.1797000000000004,5.281300000000001 1.173,5.289700000000001 1.1639,5.296600000000001 1.1608,5.2976 1.1481000000000012,5.2954 1.1441,5.2963 1.143600000000001,5.3024 1.147400000000001,5.3058000000000005 1.1521000000000008,5.319500000000001 1.1512000000000011,5.3273 1.1483000000000008,5.329300000000001 1.141300000000001,5.3266 1.1326,5.312 1.1278000000000006,5.3067 1.1217000000000006,5.3028 1.1150000000000002,5.3036 1.1058000000000003,5.311700000000001 1.1044999999999998,5.315 1.105500000000001,5.329100000000001 1.1044999999999998,5.333900000000001 1.100900000000001,5.3373 1.0991,5.338500000000001 1.0929000000000002,5.337000000000001 1.0861999999999998,5.3298 1.083400000000001,5.331600000000001 1.0747999999999998,5.346100000000001 1.0739,5.3549 1.0793999999999997,5.3662 1.0877,5.3770999999999995 1.0913000000000004,5.385600000000001 1.0920000000000005,5.3991 1.0829000000000004,5.4182 1.0824999999999996,5.422 1.084200000000001,5.437600000000001 1.086500000000001,5.4395 1.0966000000000005,5.439000000000001 1.0980000000000008,5.4411 1.0981000000000005,5.442700000000001 1.0907,5.448800000000001 1.0898000000000003,5.469600000000001 1.0792000000000002,5.4851 1.078100000000001,5.493200000000001 1.0662000000000003,5.4959 1.0556999999999999,5.519900000000001 1.0594000000000001,5.5254 1.0599000000000007,5.5294 1.033900000000001,5.5680000000000005 1.0142000000000007,5.5927999999999995 0.9863,5.632700000000001 0.6153000000000013,5.636 0.6094000000000008,5.6383 0.5986000000000011,5.6526000000000005 0.5942000000000007,5.656300000000001 0.5925000000000011,5.6606 0.5784000000000002,5.680600000000001 0.5749000000000013,5.6827 0.5515000000000008,5.718800000000001 0.5062999999999995,5.7802999999999995 0.5035000000000007,5.786500000000001 0.5008999999999997,5.7879 0.49340000000000117,5.798000000000001 0.41580000000000084,5.905 0.41080000000000005,5.9156 0.39670000000000094,5.932300000000001 0.3924000000000003,5.9418 0.3877000000000006,5.945200000000001 0.37620000000000076,5.9616999999999996 0.3299000000000003,6.0292 0.32590000000000074,6.038000000000001 0.31099999999999994,6.0554 0.307500000000001,6.064800000000001 0.3009000000000004,6.0706 0.28910000000000124,6.0873 0.2876000000000012,6.092100000000001 0.28200000000000003,6.096700000000001 0.27839999999999954,6.1039 0.24200000000000088,6.155 0.2386999999999997,6.164500000000001 0.2345000000000006,6.1674 0.2195999999999998,6.185300000000001 0.20969999999999978,6.200300000000001 0.188600000000001,6.225500000000001 0.188600000000001,6.2282 0.16430000000000078,6.2604 0.14949999999999974,6.314800000000001 0.14729999999999954,6.3302000000000005 0.12100000000000044,6.438400000000001 0.11720000000000041,6.461000000000001 0.09009999999999962,6.573100000000001 0.08360000000000056,6.607300000000001 0.027499999999999858,6.851500000000001 0.025800000000000267,6.863700000000001 0.02030000000000065,6.880400000000001 0.006099999999999994,6.9385 0.0,7.0017000000000005 0.0015999999999998238,7.0109 0.005300000000000082,7.019000000000001 0.019899999999999807,7.033500000000001 0.02620000000000111,7.036700000000001 0.09860000000000113,7.0645999999999995 0.12739999999999974,7.0612 0.15970000000000084,7.069400000000001 0.16740000000000066,7.0726 0.18560000000000088,7.0842 0.18930000000000113,7.088300000000001 0.19240000000000101,7.0888 0.22250000000000014,7.11 0.2179000000000002,7.1415 0.2190000000000012,7.1718 0.20550000000000068,7.1854000000000005 0.20340000000000025,7.190600000000001 0.2038000000000011,7.1955 0.22879999999999967,7.215800000000001 0.23300000000000054,7.2222 0.2721,7.2572 0.29520000000000124,7.250900000000001 0.29690000000000083,7.254600000000001 0.30799999999999983,7.2612 0.3150000000000013,7.262900000000001 0.3152000000000008,7.2654000000000005 0.3216000000000001,7.2677000000000005 0.32370000000000054,7.2716 0.3365000000000009,7.280600000000001 0.33810000000000073,7.2861 0.33590000000000053,7.304800000000001 0.31869999999999976,7.361200000000001 0.31620000000000026,7.422100000000001 0.3230000000000004,7.436600000000001 0.32319999999999993,7.4433 0.3565000000000005,7.5155 0.37040000000000006,7.5507 0.3742000000000001,7.554800000000001 0.37790000000000035,7.5682 0.38870000000000005,7.5873 0.38870000000000005,7.5902 0.3960000000000008,7.6017 0.4450000000000003,7.6551 0.4596999999999998,7.675200000000001 0.47050000000000125,7.6846000000000005 0.4967000000000006,7.7154 0.5547000000000004,7.799400000000001 0.5622000000000007,7.8074 0.5640999999999998,7.8127 0.5736000000000008,7.826 0.5739999999999998,7.829 0.5776000000000003,7.8311 0.6228999999999996,7.8953 0.629900000000001,7.902400000000001 0.6321000000000012,7.908600000000001 0.6462000000000003,7.9274 0.6494999999999997,7.934300000000001 0.6521000000000008,7.935900000000001 0.7421000000000006,8.062999999999999 0.7622,8.0943 0.7679000000000009,8.100000000000001 0.8261000000000003,8.177500000000002 0.8329000000000004,8.1814 0.8327000000000009,8.183399999999999 0.8353000000000002,8.184999999999999 0.8381000000000007,8.193100000000001 0.8450000000000006,8.203 0.9113000000000007,8.290500000000002 0.9191000000000003,8.296700000000001 1.0412999999999997,8.4211 1.0513000000000012,8.429400000000001 1.081900000000001,8.462600000000002 1.120800000000001,8.5012 1.1369000000000007,8.5149 1.1478000000000002,8.528200000000002 1.1487999999999996,8.531500000000001 1.1611000000000011,8.543400000000002 1.1649000000000012,8.5503 1.2203999999999997,8.603100000000001 1.3255999999999997,8.715400000000002 1.3371000000000013,8.725000000000001 1.3437000000000001,8.7347 1.440100000000001,8.8355 1.4831000000000003,8.8842 1.7455999999999996,9.157 1.7849000000000004,9.1982 1.7865000000000002,9.201600000000003 1.8552999999999997,9.2699 1.8568999999999996,9.273900000000001 2.032,9.456800000000001 2.0358,9.5256 2.0348000000000006,9.532600000000002 2.0372000000000003,9.5458 2.0364000000000004,9.5684 2.0394000000000005,9.602 2.0405999999999995,9.660600000000002 2.0449,9.720100000000002 2.0471000000000004,9.729100000000003 2.0449,9.732500000000002 2.0481,9.7927 2.0467000000000013,9.8002 2.0515000000000008,9.851000000000003 2.0511999999999997,9.8689 2.065800000000001,10.158800000000003 2.0648999999999997,10.1689 2.0716,10.2665 2.0709,10.278000000000002 2.0769,10.385900000000003 2.079600000000001,10.401400000000002 2.0777,10.415100000000002 2.0799000000000003,10.442700000000002 2.0799000000000003,10.473500000000001 2.0859000000000005,10.565100000000001 2.0915,10.705300000000001 2.0961999999999996,10.773300000000003 2.100100000000001,10.8778 2.1104000000000003,11.0718 2.1142000000000003,11.1552 2.1142000000000003,11.171000000000003 2.112400000000001,11.175600000000003 2.116200000000001,11.197700000000001 2.1203000000000003,11.2908 2.1248000000000005,11.325000000000003 2.1273999999999997,11.333100000000002 2.1289999999999996,11.3566 2.1385000000000005,11.427700000000002 2.138300000000001,11.4375 2.1418,11.450200000000002 2.1578,11.590500000000002 2.1608,11.599700000000002 2.1652000000000005,11.6294 2.1668000000000003,11.652900000000002 2.1768,11.721500000000002 2.1824000000000012,11.7406 2.1801000000000013,11.7498 2.181000000000001,11.770400000000002 2.1849000000000007,11.7833 2.2027,11.917900000000003 2.2028,11.930100000000003 2.2057,11.943900000000003 2.2165,12.038 2.2239000000000004,12.076700000000002 2.2246000000000006,12.0976 2.2271,12.107300000000002 2.2346000000000004,12.1765 2.239700000000001,12.208300000000001 2.2375000000000007,12.210800000000003 2.2423,12.226500000000001 2.243400000000001,12.2361 2.2417999999999996,12.243400000000001 2.2455999999999996,12.2515 2.254100000000001,12.3171 2.251100000000001,12.322600000000001 2.2551000000000005,12.3309 2.257900000000001,12.343300000000003 2.2734000000000005,12.460700000000003 2.2722999999999995,12.4696 2.276300000000001,12.4818 2.280100000000001,12.506700000000002 2.3638000000000012,12.640900000000002 2.5221,12.907400000000003 2.450100000000001,12.9725 2.4144000000000005,13.000700000000002 2.3917,13.0214 2.2721999999999998,13.188500000000001 2.2233,13.239 2.167,13.2817 2.1445000000000007,13.3016 2.1166,13.333400000000001 2.083,13.406200000000002 2.0753000000000004,13.425800000000002 2.072700000000001,13.439300000000003 2.0785,13.455000000000002 2.0876,13.468900000000001 2.102500000000001,13.484000000000002 2.1464999999999996,13.5166 2.152100000000001,13.522100000000002 2.026,13.6951 2.0107,13.718400000000003 2.0001999999999995,13.729200000000002 1.9993999999999996,13.732700000000001 1.9816000000000003,13.7577 1.8277,13.9708 1.815100000000001,13.991200000000003 1.7248999999999999,14.0502 1.7240000000000002,14.073400000000003 1.7213000000000012,14.0869 1.723700000000001,14.0911 1.7209000000000003,14.328300000000002 1.7195,14.3396 1.7205000000000013,14.4041 1.7171000000000003,14.537600000000001 1.7184000000000008,14.5486 1.6768,14.7726 1.6744000000000003,14.7972 1.6702000000000012,14.807400000000001 1.6646,14.847000000000001 1.6502,14.917000000000002 1.6486999999999998,14.930700000000002 1.6409000000000002,14.963700000000003 1.5769000000000002,15.2879 1.5555000000000003,15.399900000000002 1.5561000000000007,15.4038 1.5318000000000005,15.5195 1.5330000000000013,15.5245 1.5244,15.5581 1.522400000000001,15.5608 1.5277000000000012,15.565000000000001 1.5351999999999997,15.5668 1.613100000000001,15.6019 1.6165000000000003,15.605 1.642100000000001,15.615000000000002 1.6462000000000003,15.618500000000001 1.6685999999999996,15.628700000000002 1.6775000000000002,15.631400000000003 1.7706999999999997,15.675 1.7786000000000008,15.677200000000003 1.8874000000000013,15.727900000000002 1.9000000000000004,15.732400000000002 1.9273000000000007,15.746100000000002 1.9647000000000006,15.761800000000001 1.9679000000000002,15.765 2.021600000000001,15.788500000000003 2.0325000000000006,15.791600000000003 2.0692000000000004,15.809800000000003 2.171800000000001,15.854500000000002 2.180200000000001,15.860100000000003 2.1913,15.862300000000001 2.2155000000000005,15.874000000000002 2.2226,15.875500000000002 2.2546999999999997,15.889200000000002 2.3831000000000007,15.946900000000003 2.3877000000000006,15.952200000000001 2.407300000000001,15.9575 2.4762000000000004,15.988800000000001 2.4938000000000002,15.996100000000002 2.498000000000001,15.996400000000001 2.5074000000000005,16.0027 2.5122999999999998,16.003400000000003 2.524700000000001,16.0093 2.6986000000000008,15.929300000000001 2.752900000000002,15.9053 2.7596000000000007,15.904 2.7898000000000014,15.8869 2.8253000000000004,15.873000000000001 2.840200000000001,15.864900000000002 2.9048999999999996,15.8371 2.920600000000002,15.828300000000002 2.976000000000001,15.803800000000003 2.983200000000002,15.799000000000003 3.073500000000001,15.7576 3.086499999999999,15.750400000000003 3.0932000000000013,15.749000000000002 3.1054000000000013,15.742900000000002 3.106700000000002,15.740200000000002 3.1290999999999993,15.732100000000003 3.243900000000002,15.6782 3.248400000000002,15.677300000000002 3.265100000000002,15.668300000000002 3.3420000000000005,15.6342 3.3537000000000017,15.626900000000003 3.356700000000002,15.626900000000003 3.3736000000000015,15.6174 3.464900000000002,15.5744 3.4979999999999993,15.5592 3.5084,15.5561 3.5360999999999994,15.5393 3.5599000000000007,15.5302 3.621800000000002,15.499600000000001 3.754900000000001,15.4392 3.7630999999999997,15.433500000000002 3.795399999999999,15.4176 3.892899999999999,15.373000000000001 3.896600000000001,15.369600000000002 3.9261,15.357100000000003 4.083800000000002,15.281400000000001 4.262100000000002,15.1983 4.265600000000001,15.1951 4.5161,15.076500000000003 4.614200000000002,15.027900000000002 4.643300000000002,15.016100000000002 4.745500000000002,14.967000000000002 4.752900000000002,14.965600000000002 4.7704,14.954800000000002 4.921100000000001,14.883400000000002 4.928500000000001,14.881800000000002 4.949499999999999,14.8703 5.034000000000001,14.830100000000002 5.039900000000001,14.828500000000002 5.112499999999999,14.792000000000002 5.1972000000000005,14.753 5.213700000000001,14.743000000000002 5.252599999999999,14.726600000000001 6.8772,13.932400000000001 7.012100000000002,13.8612 7.195300000000001,13.769000000000002 7.608600000000001,13.566300000000002 7.628200000000001,13.5547 7.742300000000002,13.497800000000002 7.7479,13.493300000000001 7.789800000000001,13.474300000000003 7.8873000000000015,13.4239 8.0068,13.3656 8.0252,13.353200000000001 8.0314,13.352400000000003 8.0752,13.328800000000001 8.080800000000002,13.327200000000001 8.1652,13.285 8.178600000000001,13.2758 8.207400000000002,13.264000000000003 8.266499999999999,13.232600000000001 8.280500000000002,13.2268 8.2933,13.218300000000003 8.309300000000002,13.212900000000001 8.328000000000001,13.200800000000001 8.351,13.192 8.356399999999999,13.186400000000003 8.4045,13.162200000000002 8.4166,13.157800000000002 8.434600000000001,13.1464 8.440199999999999,13.143700000000003 8.445500000000001,13.1434 8.4657,13.130500000000001 8.4853,13.1218 8.6148,13.052700000000002 8.687299999999999,13.015900000000002 8.6942,13.014800000000001 8.7206,12.9986 8.7266,12.9968 8.827600000000002,12.943900000000003 8.8317,12.943100000000001 8.844400000000002,12.9343 8.8685,12.924500000000002 8.879700000000001,12.916600000000003 8.965300000000001,12.872700000000002 8.9752,12.869300000000003 8.998700000000001,12.8553 9.0026,12.8552 9.044400000000001,12.830400000000001 9.1102,12.7974 9.1164,12.796300000000002 9.149500000000002,12.777000000000001 9.175400000000002,12.766000000000002 9.187600000000002,12.758000000000003 9.248099999999999,12.727800000000002 9.292399999999999,12.703400000000002 9.321800000000001,12.691000000000003 9.329400000000001,12.684800000000003 9.573400000000001,12.558900000000001 9.584000000000001,12.552 9.617600000000001,12.536200000000001 9.653800000000002,12.517000000000003 9.6592,12.512600000000003 9.672400000000001,12.506 9.677999999999999,12.505000000000003 9.813,12.436400000000003 9.8298,12.4254 9.8394,12.421800000000001 9.9292,12.375 9.9324,12.372 10.284,12.191600000000001 10.304800000000002,12.179200000000002 10.461599999999999,12.096600000000002 10.5266,12.067 10.5266,8.559000000000001 10.529000000000002,8.4438 10.5282,8.2638 10.515600000000001,8.2622 10.4904,8.262800000000002 10.469,8.269000000000002 10.429800000000002,8.2756 10.382800000000001,8.290600000000001 10.332300000000002,8.3016 10.317200000000001,8.301400000000001 10.303200000000002,8.304000000000002 10.2676,8.302800000000001 10.251800000000001,8.304200000000002 10.239200000000002,8.3083 10.1885,8.316600000000001 10.1046,8.3127 10.041300000000001,8.2961 10.018099999999999,8.287300000000002 9.9704,8.261300000000002 9.943,8.251999999999999 9.904200000000001,8.248999999999999 9.8791,8.2452 9.860000000000001,8.2452 9.800200000000002,8.252200000000002 9.7678,8.260200000000001 9.753200000000001,8.259800000000002 9.741200000000001,8.267600000000002 9.725,8.263000000000002 9.696600000000002,8.264 9.680000000000001,8.2711 9.6488,8.268799999999999 9.641700000000002,8.2637 9.632500000000002,8.249500000000001 9.6119,8.2274 9.603800000000001,8.222100000000001 9.584200000000001,8.216000000000001 9.580900000000002,8.212299999999999 9.5692,8.1861 9.562400000000002,8.1767 9.5524,8.1707 9.5513,8.1677 9.549100000000001,8.1677 9.5312,8.148299999999999 9.523200000000001,8.142600000000002 9.5159,8.139600000000002 9.501500000000002,8.1388 9.4884,8.1401 9.4809,8.137599999999999 9.473799999999999,8.1309 9.457099999999999,8.1097 9.452600000000002,8.0994 9.4508,8.0838 9.4547,8.0732 9.4486,8.0475 9.451500000000001,8.036000000000001 9.4568,8.0241 9.4761,8.005600000000001 9.4903,7.997000000000001 9.516700000000002,7.974800000000001 9.5234,7.957300000000001 9.522900000000002,7.95 9.516900000000001,7.9295 9.5176,7.899500000000001 9.519800000000002,7.8892 9.526000000000002,7.881200000000001 9.530400000000002,7.867500000000001 9.525699999999999,7.8549999999999995 9.5177,7.8449 9.5133,7.822300000000001 9.5133,7.8184 9.516700000000002,7.814800000000001 9.526200000000001,7.7961 9.5234,7.790400000000001 9.518500000000001,7.7869 9.5133,7.7802 9.5054,7.760000000000001 9.501800000000001,7.755200000000001 9.495700000000001,7.7505 9.4915,7.7498 9.4733,7.7399 9.4625,7.730900000000001 9.4582,7.724700000000001 9.457099999999999,7.716400000000001 9.466199999999999,7.6841 9.4654,7.670100000000001 9.466600000000001,7.6664 9.4475,7.652300000000001 9.442300000000001,7.6521 9.4338,7.6543 9.419400000000001,7.653300000000001 9.3972,7.642 9.3787,7.613700000000001 9.364500000000001,7.6041 9.361099999999999,7.6033 9.3407,7.588400000000001 9.318900000000001,7.565 9.303500000000001,7.553300000000001 9.2936,7.543400000000001 9.283400000000002,7.531100000000001 9.2796,7.524 9.276100000000001,7.5093000000000005 9.2765,7.4959 9.2794,7.494800000000001 9.2859,7.4761999999999995 9.286399999999999,7.4689000000000005 9.283600000000002,7.4616999999999996 9.278900000000002,7.458000000000001 9.2709,7.4562 9.2673,7.453600000000001 9.2522,7.4561 9.230500000000001,7.4495 9.2115,7.433600000000001 9.201200000000002,7.417700000000001 9.1976,7.4075999999999995 9.211,7.3739 9.228,7.3203000000000005 9.237800000000002,7.2974000000000006 9.247200000000001,7.2502 9.243699999999999,7.245300000000001 9.1438,7.2092 9.0496,7.1934 9.0296,7.1893 9.017999999999999,7.184400000000001 9.0085,7.1827 8.9931,7.1749 8.9824,7.1657 8.978500000000002,7.1558 8.9737,7.164000000000001 8.969400000000002,7.164000000000001 8.9579,7.156100000000001 8.9521,7.1544 8.941900000000002,7.1559 8.937700000000001,7.154800000000001 8.929,7.1214 8.923900000000001,7.1115 8.9107,7.065600000000001 8.9138,7.063400000000001 8.927200000000001,7.067200000000001 8.9366,7.0643 8.9445,7.059500000000001 8.9551,7.055700000000001 8.974100000000002,7.0414 8.9761,7.031300000000001 8.969400000000002,6.9897 8.97,6.9849000000000006 8.967699999999999,6.9782 8.9701,6.9243 8.9765,6.918300000000001 8.981900000000001,6.9156 8.9883,6.887900000000001 8.985999999999999,6.8828000000000005 8.972400000000002,6.8790000000000004 8.961900000000002,6.8714 8.955599999999999,6.861400000000001 8.9548,6.8511 8.9581,6.843100000000001 8.9641,6.834600000000001 9.0057,6.7909 9.035100000000002,6.8029 9.0433,6.802700000000001 9.0847,6.7886 9.0799,6.7679 9.1056,6.7433000000000005 9.1028,6.735 9.0629,6.677500000000001 9.030199999999999,6.668500000000001 8.9794,6.6245 8.957500000000001,6.61 8.952600000000002,6.6087 8.919200000000002,6.608900000000001 8.893400000000002,6.5818 8.8849,6.5764000000000005 8.878400000000001,6.576100000000001 8.8546,6.5699 8.8465,6.563400000000001 8.8182,6.5337000000000005 8.790000000000001,6.5224 8.7584,6.5063 8.736099999999999,6.474900000000001 8.6758,6.4152 8.658900000000001,6.3936 8.6529,6.3831999999999995 8.6487,6.3813 8.618699999999999,6.3351 8.617300000000002,6.3245 8.626600000000002,6.3115 8.6361,6.3022 8.640500000000001,6.3014 8.6504,6.2915 8.6505,6.2814000000000005 8.6559,6.2748 8.6516,6.2586 8.6458,6.2519 8.6428,6.2441 8.6469,6.2269 8.661800000000001,6.2121 8.6727,6.180700000000001 8.678099999999999,6.175200000000001 8.6835,6.174500000000001 8.687299999999999,6.175900000000001 8.6944,6.161700000000001 8.693800000000001,6.1581 8.696600000000002,6.1551 8.705499999999999,6.1506 8.707400000000002,6.147000000000001 8.722700000000001,6.1406 8.7402,6.1254 8.7415,6.119600000000001 8.748400000000002,6.108 8.748700000000001,6.0972 8.7432,6.067200000000001 8.748300000000002,6.0469 8.743,6.0299000000000005 8.7475,6.010700000000001 8.7506,6.006100000000001 8.7581,6.003900000000001 8.760700000000002,6.001600000000001 8.7648,5.995400000000001 8.767000000000001,5.9761 8.774600000000001,5.967200000000001 8.7861,5.965700000000001 8.805000000000001,5.9495 8.809300000000002,5.9408 8.810699999999999,5.908600000000001 8.8014,5.9012 8.7876,5.8868 8.7809,5.875800000000001 8.7705,5.864200000000001 8.7702,5.8618 8.762300000000002,5.8579 8.7569,5.8523000000000005 8.748,5.8340000000000005 8.737,5.830000000000001 8.721200000000001,5.8107999999999995 8.710700000000001,5.804000000000001 8.6989,5.774 8.6804,5.7549 8.673,5.751600000000001 8.664600000000002,5.730800000000001 8.6611,5.7267 8.6544,5.723200000000001 8.635600000000002,5.719400000000001 8.6197,5.718100000000001 8.614700000000001,5.7197000000000005 8.6091,5.7189000000000005 8.605100000000002,5.7159 8.601,5.705100000000001 8.5982,5.702100000000001 8.591,5.7016 8.577600000000002,5.6971 8.546899999999999,5.6979999999999995 8.5401,5.695200000000001 8.536399999999999,5.689700000000001 8.534,5.667800000000001 8.5298,5.661600000000001 8.5207,5.6583 8.5086,5.6504 8.4914,5.6316 8.473799999999999,5.6269 8.4655,5.614200000000001 8.4522,5.605800000000001 8.4534,5.600500000000001 8.4595,5.5947000000000005 8.457300000000002,5.5887 8.457300000000002,5.5773 8.4521,5.5680000000000005 8.437800000000001,5.5612 8.425200000000002,5.5406 8.417600000000002,5.5248 8.405199999999999,5.483200000000001 8.386899999999999,5.4494 8.379900000000001,5.440600000000001 8.3772,5.4304 8.376800000000001,5.4091 8.374799999999999,5.395500000000001 8.366100000000001,5.367400000000001 8.3654,5.3572 8.3698,5.3448 8.379800000000001,5.3305 8.3863,5.3138 8.384500000000001,5.293 8.3924,5.2784 8.406799999999999,5.268 8.411800000000001,5.2603 8.414299999999999,5.245300000000001 8.442000000000002,5.2236 8.460700000000001,5.198300000000001 8.4676,5.194400000000001 8.487,5.198300000000001 8.559300000000002,5.1961 8.6627,5.224800000000001 8.691,5.237700000000001 8.710400000000002,5.2519 8.7216,5.2658 8.724400000000001,5.3091 8.7809,5.2779 8.803600000000001,5.262300000000001 8.812299999999999,5.2587 8.813900000000002,5.2555000000000005 8.885900000000001,5.220300000000001 8.9431,5.1971 8.977500000000001,5.1901 8.984900000000001,5.183000000000001 8.9854,5.1787 8.967900000000002,5.124300000000001 8.946700000000002,5.0680000000000005 8.9395,5.054100000000001 8.9339,5.0506 8.921899999999999,5.036700000000001 8.8986,5.0004 8.8983,4.992400000000001 8.9016,4.9849000000000006 8.9046,4.982600000000001 8.914500000000002,4.9822 8.9203,4.9792 8.9352,4.960500000000001 8.948400000000001,4.946700000000001 8.9503,4.9378 8.945300000000001,4.9196 8.946299999999999,4.915 8.9522,4.9072000000000005 8.9522,4.8976 8.9691,4.847700000000001 8.9705,4.830900000000001 8.992099999999999,4.7875000000000005 9.002,4.7785 9.0037,4.7616000000000005 9.0096,4.750800000000001 9.0127,4.7411 9.019,4.707400000000001 9.017100000000001,4.6713 9.013,4.651000000000001 9.015200000000002,4.6392999999999995 9.0099,4.6292 9.0086,4.6179 8.998,4.5886000000000005 8.9838,4.585300000000001 8.9978,4.5783 9.018200000000002,4.579400000000001 9.039299999999999,4.590800000000001 9.044400000000001,4.596000000000001 9.0507,4.5981 9.057699999999999,4.6039 9.077900000000001,4.611900000000001 9.0847,4.6126 9.090300000000001,4.6099000000000006 9.103600000000002,4.610500000000001 9.112900000000002,4.6147 9.137500000000001,4.6094 9.161500000000002,4.616700000000001 9.164600000000002,4.6145000000000005 9.1656,4.606700000000001 9.161500000000002,4.5857 9.1241,4.4364 9.103900000000001,4.346100000000001 9.0888,4.2879 9.0828,4.2549 9.0812,4.253000000000001 9.080599999999999,4.246100000000001 9.0926,4.1796 9.126800000000001,4.140300000000001 9.1291,4.1346 9.162799999999999,4.0988 9.1687,4.095400000000001 9.188699999999999,4.0744 9.267999999999999,4.0383000000000004 9.280700000000001,4.034 9.3041,4.0103 9.314300000000001,3.9972000000000003 9.315500000000002,3.9621000000000004 9.397700000000002,3.9737 9.465000000000002,3.977000000000001 9.4718,3.9760999999999997 9.4779,3.8817000000000013 9.4798,3.8709 9.4901,3.8685 9.4917,3.865000000000001 9.5086,3.8549999999999995 9.5126,3.7585000000000006 9.504199999999999,3.7403000000000004 9.492300000000002,3.701100000000001 9.4715,3.6498999999999997 9.4645,3.6464000000000008 9.437,3.5687000000000006 9.4337,3.5645999999999995 9.4306,3.5515 9.4153,3.5141 9.414700000000002,3.506100000000001 9.4078,3.4898 9.3923,3.4911000000000003 9.379700000000001,3.490100000000001 9.3739,3.493000000000001 9.3439,3.4934000000000003 9.302200000000001,3.5042 9.2952,3.503000000000001 9.2877,3.5085000000000006 9.2825,3.5209 9.271099999999999,3.5300000000000002 9.260800000000001,3.533400000000001 9.2373,3.530500000000001 9.2296,3.531200000000001 9.2094,3.5391000000000004 9.1823,3.5384 9.158500000000002,3.5492999999999997 9.138800000000002,3.5559000000000003 9.130899999999999,3.555600000000001 9.103600000000002,3.5466000000000006 9.0995,3.5433000000000012 9.0952,3.5431 9.079200000000002,3.552600000000001 9.047200000000002,3.5665000000000004 9.0355,3.566200000000001 9.0237,3.5620000000000003 9.0205,3.5561999999999996 9.0035,3.5595000000000008 8.995099999999999,3.5581000000000005 8.983100000000002,3.5468 8.969299999999999,3.5474000000000006 8.9598,3.5401999999999996 8.957300000000002,3.5332999999999997 8.9508,3.529600000000001 8.9401,3.5306000000000006 8.9289,3.529700000000001 8.9108,3.5208000000000004 8.9031,3.5283000000000007 8.896700000000001,3.5172999999999996 8.882500000000002,3.5153000000000008 8.853399999999999,3.5147000000000004 8.8502,3.5133 8.8395,3.5031000000000008 8.824700000000002,3.494700000000001 8.8163,3.4903000000000004 8.8087,3.4895000000000005 8.7921,3.4819000000000004 8.777800000000001,3.4851 8.7718,3.4844 8.7628,3.4765000000000006 8.7489,3.471700000000001 8.722,3.4675000000000002 8.7093,3.4590000000000005 8.701200000000002,3.442700000000001 8.6852,3.4395999999999995 8.678300000000002,3.4349 8.643300000000002,3.442000000000001 8.638499999999999,3.4394 8.6315,3.4395999999999995 8.625200000000001,3.4417999999999997 8.608100000000002,3.4539 8.600700000000002,3.4547 8.5865,3.4475000000000007 8.5751,3.448100000000001 8.5682,3.4432 8.562600000000002,3.442000000000001 8.5558,3.4445000000000006 8.543000000000001,3.444 8.5283,3.4323000000000006 8.5159,3.4326999999999996 8.509000000000002,3.4225000000000003 8.504800000000001,3.4219999999999997 8.497300000000001,3.4273 8.4887,3.4302 8.49,3.419200000000001 8.4867,3.4171000000000005 8.4793,3.416100000000001 8.475500000000002,3.419100000000001 8.471000000000002,3.428 8.468000000000002,3.4282000000000012 8.469500000000002,3.414600000000001 8.466500000000002,3.4112 8.460500000000001,3.412300000000001 8.453899999999999,3.419100000000001 8.4475,3.4308000000000005 8.439100000000002,3.431400000000001 8.435,3.4249 8.4308,3.4221000000000013 8.4257,3.4216000000000006 8.4138,3.429100000000001 8.407300000000001,3.4288 8.391700000000002,3.405500000000001 8.3831,3.4036 8.3709,3.4064000000000005 8.3682,3.3966000000000003 8.3591,3.3983999999999996 8.345799999999999,3.383300000000001 8.3406,3.3692 8.3364,3.368000000000001 8.329100000000002,3.3609999999999998 8.3177,3.357 8.315,3.3535000000000013 8.3146,3.3464 8.317300000000001,3.3356000000000003 8.312400000000002,3.3218000000000005 8.310800000000002,3.310900000000001 8.3162,3.2908 8.312800000000001,3.2811000000000012 8.314400000000001,3.2722000000000007 8.3134,3.2671 8.3099,3.2649999999999997 8.309700000000001,3.2623000000000006 8.315299999999999,3.2535999999999996 8.3136,3.2366 8.3151,3.2283 8.3089,3.2234000000000007 8.3073,3.2181000000000006 8.296899999999999,3.2127000000000008 8.291100000000002,3.2055999999999996 8.285100000000002,3.201100000000001 8.2795,3.2015000000000002 8.2753,3.2045000000000003 8.267100000000001,3.214800000000001 8.2627,3.2150000000000007 8.2601,3.2129000000000003 8.2585,3.1879999999999997 8.2598,3.170600000000001 8.253400000000001,3.1559999999999997 8.2555,3.1353999999999997 8.2596,3.1201999999999996 8.259400000000001,3.1131 8.256300000000001,3.0980999999999996 8.2478,3.0877000000000008 8.244000000000002,3.0667999999999997 8.2462,3.060100000000001 8.259200000000002,3.0368000000000004 8.277400000000002,3.022800000000001 8.279100000000001,3.0172999999999996 8.2779,3.0115000000000007 8.285000000000002,3.0027999999999997 8.284900000000002,2.9978000000000007 8.280600000000002,2.9858000000000002 8.2846,2.9791999999999996 8.296999999999999,2.9768 8.297500000000001,2.9706 8.2931,2.9629000000000003 8.2694,2.9406000000000008 8.266900000000001,2.926100000000001 8.2673,2.9132000000000007 8.254500000000002,2.9156000000000004 8.2496,2.9059999999999997 8.250000000000002,2.901600000000001 8.256100000000002,2.8890000000000002 8.263900000000001,2.8791 8.260900000000001,2.8715 8.2568,2.867400000000001 8.254800000000001,2.8607000000000005 8.2511,2.856700000000001 8.246,2.8546000000000005 8.236200000000002,2.8378000000000005 8.232000000000001,2.8352000000000013 8.2204,2.8349 8.208800000000002,2.8377000000000008 8.203000000000001,2.8370000000000006 8.201200000000002,2.8333000000000004 8.2021,2.8301000000000007 8.209100000000001,2.8233000000000006 8.2018,2.8179000000000007 8.190199999999999,2.816 8.187199999999999,2.8120000000000003 8.1895,2.8084 8.195100000000002,2.807100000000001 8.2003,2.8009000000000013 8.2022,2.796500000000001 8.1992,2.792600000000001 8.194799999999999,2.7907 8.176,2.7929000000000004 8.167499999999999,2.7861000000000002 8.163300000000001,2.7855999999999996 8.1593,2.7862999999999998 8.1544,2.7899000000000003 8.1489,2.790300000000001 8.137400000000001,2.7771 8.1152,2.7702 8.111200000000002,2.7737000000000007 8.1056,2.7741 8.0878,2.7693000000000003 8.0803,2.7731000000000003 8.0742,2.7840999999999996 8.070400000000001,2.7868000000000004 8.0633,2.785800000000001 8.0494,2.774400000000001 8.036600000000002,2.7488 8.031,2.7459999999999996 8.0203,2.7459 8.0175,2.7298 8.014100000000001,2.7235000000000005 8.007700000000002,2.7222999999999997 7.9946,2.711100000000001 7.9976,2.7075000000000005 7.998199999999999,2.702700000000001 7.995500000000002,2.695000000000001 7.9886,2.687400000000001 7.981900000000001,2.685900000000001 7.9765999999999995,2.6826 7.9748,2.677500000000001 7.981299999999999,2.6657 7.979000000000001,2.6587000000000005 7.981499999999999,2.6459 7.979899999999999,2.6420000000000003 7.9716000000000005,2.6419000000000006 7.967900000000002,2.6397000000000004 7.9643,2.6321000000000003 7.964,2.6183000000000005 7.9596,2.6132 7.958499999999999,2.6076000000000006 7.956200000000001,2.6062000000000003 7.946900000000001,2.6091000000000006 7.942500000000001,2.6071999999999997 7.934300000000002,2.6000000000000005 7.930200000000001,2.5933 7.930999999999999,2.5802000000000005 7.928700000000001,2.5756000000000006 7.922500000000001,2.5719000000000003 7.920299999999999,2.560100000000001 7.903800000000002,2.544100000000001 7.899800000000001,2.542700000000001 7.8956,2.5433000000000012 7.888900000000001,2.547900000000001 7.885900000000001,2.5439 7.8812000000000015,2.5292000000000003 7.8740000000000006,2.5245000000000006 7.867099999999999,2.5225999999999997 7.8629000000000016,2.5241999999999996 7.856600000000002,2.5308 7.850800000000001,2.5298000000000007 7.847299999999999,2.5311000000000012 7.843500000000001,2.544200000000001 7.836,2.5489000000000006 7.831300000000001,2.5323 7.8283000000000005,2.528200000000001 7.824399999999999,2.527 7.8209,2.5302 7.8192,2.534300000000001 7.814300000000001,2.5361000000000002 7.809099999999999,2.5445 7.789299999999999,2.552600000000001 7.780500000000002,2.5492999999999997 7.777800000000001,2.5453 7.775900000000002,2.5338000000000003 7.769399999999999,2.5283000000000007 7.769,2.524300000000001 7.760500000000002,2.516700000000001 7.741300000000001,2.5103 7.738999999999999,2.5065999999999997 7.739800000000001,2.4997 7.738300000000001,2.494600000000001 7.7293,2.4897 7.727200000000002,2.4852999999999996 7.7309,2.4676 7.7296,2.460300000000001 7.725500000000002,2.454200000000001 7.7166000000000015,2.448900000000001 7.710300000000002,2.4507000000000003 7.7036999999999995,2.4430000000000005 7.678700000000001,2.425200000000001 7.659599999999999,2.4067999999999996 7.6488,2.391000000000001 7.6439,2.3776 7.642899999999999,2.3707000000000003 7.644599999999999,2.3602 7.641800000000002,2.3508000000000004 7.634200000000002,2.3441 7.6190000000000015,2.3357 7.611600000000001,2.335300000000001 7.605600000000001,2.3378000000000005 7.600700000000002,2.3375000000000012 7.589699999999999,2.3243 7.5846,2.325400000000001 7.575699999999999,2.3317000000000005 7.565700000000001,2.3355000000000006 7.557,2.3328999999999995 7.551900000000002,2.3282 7.550300000000002,2.323900000000001 7.551399999999999,2.3174 7.5648,2.2999 7.5649999999999995,2.296500000000001 7.562800000000001,2.2908999999999997 7.557,2.2874000000000008 7.547500000000001,2.2875000000000005 7.536800000000001,2.291100000000001 7.521500000000001,2.3059000000000003 7.517999999999999,2.2938 7.519499999999999,2.2861000000000002 7.527300000000002,2.2747 7.530900000000001,2.2646000000000006 7.5283999999999995,2.2609000000000004 7.507299999999999,2.2602 7.498700000000001,2.2649 7.495900000000001,2.2646000000000006 7.494300000000001,2.2611999999999997 7.4962,2.2565999999999997 7.5007,2.2543999999999995 7.514100000000001,2.2529000000000012 7.5204,2.2495000000000003 7.5251,2.243800000000001 7.521500000000001,2.237800000000001 7.508000000000001,2.2243000000000004 7.507600000000002,2.2199999999999998 7.512500000000001,2.2163000000000013 7.520100000000001,2.2137000000000002 7.522700000000002,2.2091000000000003 7.520200000000001,2.2045000000000003 7.515400000000001,2.2028000000000008 7.508899999999999,2.203400000000001 7.501700000000001,2.2068000000000003 7.496800000000002,2.2061 7.493599999999999,2.2014000000000005 7.495099999999999,2.1975000000000007 7.498400000000002,2.1946000000000003 7.513900000000001,2.1932 7.517200000000001,2.1856 7.5145,2.1795999999999998 7.504800000000001,2.176000000000001 7.487399999999999,2.1780999999999997 7.481,2.177600000000001 7.478,2.175300000000001 7.4765999999999995,2.1727 7.481800000000002,2.1457000000000006 7.4808,2.134900000000001 7.4780999999999995,2.1268000000000002 7.470699999999999,2.1224 7.463199999999999,2.129600000000001 7.457700000000001,2.1312000000000006 7.453999999999999,2.13 7.450799999999999,2.123 7.450899999999999,2.112700000000001 7.446,2.1039000000000003 7.445500000000001,2.0995 7.448400000000001,2.092200000000001 7.4459,2.0873999999999997 7.441799999999999,2.0843 7.433000000000002,2.0872 7.425800000000001,2.086900000000001 7.4214,2.085 7.403800000000002,2.0841000000000003 7.401100000000001,2.082200000000001 7.4002,2.0789999999999997 7.4030000000000005,2.0740000000000007 7.401000000000002,2.0703000000000005 7.395200000000001,2.0660999999999996 7.390500000000001,2.057800000000001 7.392899999999999,2.0462999999999996 7.389100000000001,2.043 7.3819,2.0413000000000006 7.376099999999999,2.0445 7.3712,2.0433000000000012 7.366000000000001,2.038900000000001 7.353399999999999,2.0217 7.3513,2.0100000000000007 7.3542000000000005,1.9994000000000005 7.3538000000000014,1.989300000000001 7.3439,1.9869000000000012 7.330499999999999,2.0019 7.324700000000002,2.002300000000001 7.319699999999999,2.0006000000000013 7.306900000000001,1.9882999999999997 7.294600000000001,1.987000000000001 7.2935,1.9835000000000003 7.2964,1.9735000000000005 7.294600000000001,1.9668 7.2873,1.96 7.274600000000001,1.9583000000000004 7.271600000000001,1.9607 7.2669000000000015,1.9612000000000007 7.26,1.9562 7.2554,1.9554999999999998 7.245700000000001,1.9608999999999996 7.239400000000002,1.9613000000000005 7.231900000000001,1.9543000000000008 7.218400000000001,1.958000000000001 7.193399999999999,1.9572000000000012 7.189300000000001,1.954200000000001 7.178500000000001,1.9263000000000003 7.176700000000002,1.9058000000000002 7.174200000000001,1.9012000000000002 7.1678000000000015,1.8988000000000005 7.156900000000002,1.8998 7.152700000000001,1.8979000000000008 7.15,1.8935000000000004 7.154999999999999,1.8874000000000004 7.164,1.8852000000000002 7.1671,1.8820000000000006 7.164399999999999,1.8767000000000005 7.130799999999999,1.8754 7.126199999999999,1.8787000000000011 7.120700000000001,1.8883 7.114700000000001,1.891700000000001 7.1106,1.8991999999999996 7.1074,1.9017000000000008 7.102300000000001,1.9003000000000005 7.098000000000001,1.8924000000000012 7.0939,1.8891 7.087200000000001,1.8886000000000012 7.075000000000001,1.8962000000000012 7.070000000000002,1.892500000000001 7.0672000000000015,1.8921999999999999 7.0611000000000015,1.896300000000001 7.055100000000001,1.896 7.0512999999999995,1.8909000000000011 7.054,1.878000000000001 7.053400000000002,1.8723 7.0504000000000016,1.8665000000000012 7.044700000000001,1.8634000000000013 7.034799999999999,1.8622000000000005 7.0222999999999995,1.8660000000000005 7.022700000000002,1.8638000000000003 7.0177,1.8556999999999997 7.017999999999999,1.8510999999999997 7.024199999999999,1.8373999999999997 7.024600000000001,1.8310000000000004 7.009200000000002,1.7999999999999998 6.996800000000002,1.7801 6.9824,1.732400000000001 6.9704,1.7184 6.960700000000001,1.7128000000000005 6.9369,1.7122000000000002 6.919400000000001,1.7095000000000011 6.914299999999999,1.707300000000001 6.9045000000000005,1.698900000000001 6.8797000000000015,1.6871 6.8728,1.6864999999999997 6.863200000000001,1.6922000000000006 6.858400000000001,1.6914000000000007 6.851100000000001,1.684400000000001 6.8299,1.6803999999999997 6.800099999999999,1.681 6.7889,1.6833999999999998 6.774199999999999,1.6912000000000011 6.765200000000002,1.7047999999999996 6.755899999999999,1.7060000000000004 6.7477,1.7107 6.7339,1.7095000000000011 6.717699999999999,1.6979999999999995 6.7064,1.6963999999999997 6.6793,1.6978999999999997 6.674000000000001,1.699600000000001 6.665699999999999,1.6969000000000003 6.657100000000002,1.697 6.6439,1.7014000000000005 6.6396999999999995,1.7046000000000001 6.635399999999999,1.7121000000000004 6.631400000000001,1.7153 6.628000000000002,1.7153999999999998 6.619999999999999,1.7087000000000012 6.614600000000001,1.6978 6.607999999999999,1.6922000000000006 6.597800000000001,1.691300000000001 6.584300000000001,1.7006000000000006 6.579200000000002,1.7014000000000005 6.573400000000001,1.6993 6.562299999999999,1.6871 6.556300000000002,1.685900000000001 6.544700000000001,1.686700000000001 6.5389,1.6849999999999996 6.537100000000001,1.6825999999999999 6.5367000000000015,1.678 6.537799999999999,1.6704999999999997 6.533600000000002,1.6618000000000004 6.524400000000002,1.675300000000001 6.513700000000002,1.655400000000001 6.5068,1.650900000000001 6.4658999999999995,1.646 6.461900000000002,1.6433000000000009 6.459200000000001,1.6382000000000003 6.457200000000002,1.6268000000000002 6.4536,1.6197000000000008 6.431400000000002,1.627200000000001 6.420900000000001,1.6209999999999996 6.412699999999999,1.6199000000000003 6.4094,1.6224999999999996 6.4045000000000005,1.6220000000000008 6.398200000000001,1.6246999999999998 6.391,1.623400000000001 6.383000000000001,1.6190000000000007 6.3759,1.6125999999999996 6.368499999999999,1.6029000000000009 6.362,1.6023000000000005 6.3591999999999995,1.6039000000000003 6.355200000000002,1.6084000000000005 6.349000000000002,1.6231999999999998 6.338900000000001,1.6176000000000004 6.330800000000002,1.6155999999999997 6.324600000000002,1.615000000000001 6.315800000000001,1.6174000000000008 6.3065000000000015,1.6175000000000006 6.2994,1.6162999999999998 6.289800000000001,1.6092000000000004 6.286099999999999,1.608200000000001 6.270200000000001,1.6078000000000001 6.2614,1.6032000000000002 6.247999999999999,1.6033999999999997 6.2463999999999995,1.5995 6.228399999999999,1.5864000000000003 6.210099999999999,1.5880999999999998 6.198500000000001,1.5796999999999999 6.193199999999999,1.5793000000000008 6.185499999999999,1.5827999999999998 6.173499999999999,1.5827999999999998 6.1579,1.5773000000000001 6.1409,1.5804 6.128500000000001,1.5782999999999996 6.112399999999999,1.5898000000000012 6.108300000000002,1.5959000000000012 6.104100000000001,1.5988999999999995 6.099300000000001,1.5980999999999996 6.0952,1.5953000000000008 6.085700000000001,1.5956000000000001 6.0809000000000015,1.5941 6.069000000000001,1.5819999999999999 6.0617,1.5774999999999997 6.0495,1.5751999999999997 6.043699999999999,1.5759999999999996 6.041100000000002,1.5787000000000004 6.038400000000001,1.5903999999999998 6.033299999999999,1.5931000000000006 6.027500000000002,1.5926999999999998 6.025399999999999,1.5909000000000004 6.0238,1.5801000000000007 6.0206,1.5772000000000004 6.0174,1.5770000000000008 6.014799999999999,1.5794000000000006 6.009100000000002,1.5741000000000005 6.005599999999999,1.5733000000000006 6.000300000000001,1.5771000000000006 5.9857,1.5766999999999998 5.984700000000002,1.5843999999999996 5.977300000000001,1.5839000000000008 5.9656,1.5901000000000005 5.9581,1.5847000000000007 5.9472000000000005,1.5866999999999996 5.940500000000002,1.583800000000001 5.9276,1.5849000000000002 5.922200000000002,1.5772000000000004 5.9153,1.5757000000000003 5.905500000000002,1.576900000000001 5.892200000000001,1.572 5.884400000000001,1.5723000000000011 5.881100000000002,1.5744999999999996 5.864400000000002,1.579200000000001 5.8481000000000005,1.5702000000000007 5.835700000000001,1.5667 5.828799999999999,1.5667999999999997 5.8162,1.5704000000000002 5.801499999999999,1.5706999999999995 5.796999999999999,1.5721999999999996 5.7902000000000005,1.5766999999999998 5.788300000000001,1.5796999999999999 5.779200000000001,1.5848000000000004 5.7674,1.5848000000000004 5.761999999999999,1.5877000000000008 5.751900000000001,1.5858999999999996 5.748900000000001,1.5865 5.7448999999999995,1.5903999999999998 5.7189,1.5804999999999998 5.7143,1.5804 5.706799999999999,1.5837000000000012 5.701500000000001,1.5834000000000001 5.696399999999999,1.5759999999999996 5.6835,1.5727000000000002 5.677300000000001,1.567800000000001 5.6617000000000015,1.5634000000000006 5.653800000000002,1.5658000000000003 5.651000000000002,1.5643000000000002 5.631100000000002,1.5674000000000001 5.627599999999999,1.5687000000000006 5.622100000000001,1.578500000000001 5.6182,1.5794000000000006 5.6042000000000005,1.5738000000000012 5.602500000000001,1.5628000000000002 5.596300000000001,1.5643000000000002 5.593000000000002,1.5635000000000003 5.585099999999999,1.5545999999999998 5.5771999999999995,1.5565000000000007 5.569699999999999,1.5532000000000012 5.554800000000002,1.5560999999999998 5.5451999999999995,1.5498000000000003 5.540100000000001,1.5407000000000002 5.536199999999999,1.537 5.530700000000001,1.5359000000000007 5.5253,1.5386999999999995 5.5192,1.538100000000001 5.514100000000001,1.5340999999999996 5.510299999999999,1.5273000000000012 5.507900000000001,1.5126 5.504,1.5072999999999999 5.5024,1.5004 5.494999999999999,1.499200000000001 5.492600000000001,1.4949000000000003 5.488899999999999,1.4927000000000001 5.4869,1.4865000000000004 5.483600000000001,1.4859 5.4747,1.4896000000000003 5.469600000000002,1.4898999999999996 5.4595,1.4852999999999996 5.4491,1.4849000000000006 5.445100000000002,1.4820000000000002 5.4382,1.4714999999999998 5.431800000000001,1.4567000000000005 5.422200000000002,1.4602000000000013 5.4155,1.4599000000000002 5.413100000000002,1.4569 5.418799999999999,1.4524 5.419200000000002,1.4485000000000001 5.408800000000001,1.4400000000000004 5.394800000000002,1.4346000000000005 5.392200000000001,1.4303 5.392000000000001,1.4248000000000003 5.393800000000001,1.4206000000000012 5.389000000000001,1.411500000000001 5.390100000000002,1.4094000000000007 5.395100000000001,1.4082 5.3980000000000015,1.4017000000000008 5.401000000000002,1.4000000000000012 5.4079,1.3994000000000009 5.407300000000001,1.4026000000000005 5.410400000000001,1.4071000000000007 5.415000000000001,1.4102000000000006 5.427300000000001,1.4095000000000004 5.432699999999999,1.4057000000000004 5.4336,1.3735000000000008 5.436200000000001,1.365800000000001 5.449499999999999,1.3593000000000002 5.462400000000001,1.368900000000001 5.469199999999999,1.3715000000000002 5.4731000000000005,1.3716999999999997 5.4788000000000014,1.368100000000001 5.483100000000002,1.3524000000000003 5.4869,1.3470000000000004 5.496900000000002,1.3403 5.5236,1.3281999999999998 5.5265,1.3293000000000008 5.541000000000002,1.324600000000001 5.546100000000001,1.3203000000000005 5.559800000000001,1.2944000000000004 5.568199999999999,1.2862999999999998 5.586,1.2747000000000002 5.608700000000001,1.2694 5.626299999999999,1.2584000000000009 5.631600000000001,1.257600000000001 5.631500000000001,1.2527999999999997 5.635500000000002,1.244600000000001 5.6424,1.2371000000000008 5.647900000000002,1.2343000000000002 5.6487,1.230100000000001 5.6471,1.2275999999999998 5.639799999999999,1.2236000000000002 5.627000000000001,1.2199 5.623099999999999,1.2166000000000006 5.620500000000002,1.2107999999999999 5.6175000000000015,1.2085 5.610100000000001,1.2081000000000008 5.6043,1.1997000000000009 5.5968,1.1990000000000007 5.5923,1.1963 5.589900000000002,1.1763000000000003 5.575899999999999,1.1618000000000004 5.5725999999999996,1.1559999999999997 5.573000000000002,1.1344000000000003 5.568600000000002,1.1208 5.568800000000001,1.1132 5.559600000000001,1.1079999999999997 5.558200000000001,1.0964999999999998 5.5556,1.091400000000001 5.549200000000001,1.0862000000000007 5.542499999999999,1.0865 5.5405,1.0820999999999996 5.534699999999999,1.0828999999999995 5.5265,1.0747000000000009 5.518200000000002,1.0736999999999997 5.5161,1.0719000000000003 5.515500000000001,1.0696000000000003 5.5238,1.0588000000000006 5.514999999999999,1.0482000000000005 5.507600000000002,1.0462999999999996 5.5036000000000005,1.0421000000000005 5.4994,1.0405000000000006 5.497400000000001,1.0354999999999999 5.4991,1.0268000000000006 5.496900000000002,1.0231000000000003 5.483700000000001,1.0187999999999997 5.458900000000002,0.9955000000000007 5.4582,0.9867999999999997 5.456799999999999,0.9848000000000008 5.450799999999999,0.9856000000000007 5.448200000000002,0.9831000000000012 5.4474,0.9797000000000002 5.449600000000002,0.9718000000000009 5.443900000000001,0.9653 5.446299999999999,0.9622999999999999 5.4535,0.960300000000001 5.453899999999999,0.9585999999999997 5.450100000000001,0.955000000000001 5.4504,0.9493 5.446,0.946600000000001 5.437199999999999,0.9459000000000009 5.434600000000001,0.9430000000000005 5.4367,0.9357999999999995 5.429800000000002,0.9332000000000003 5.426900000000002,0.9295999999999998 5.4261,0.9230000000000009 5.411600000000002,0.9250999999999996 5.410100000000002,0.9231000000000007 5.4140999999999995,0.9158999999999997 5.4125,0.9139000000000008 5.4063,0.9150999999999998 5.4032,0.9132000000000007 5.399900000000001,0.9072000000000005 5.402700000000001,0.900100000000001 5.394900000000002,0.9009000000000009 5.383699999999999,0.906200000000001 5.377000000000001,0.906200000000001 5.3803,0.9008000000000012 5.3835999999999995,0.8828000000000005 5.3774,0.864300000000001 5.3666,0.8552000000000008 5.3637,0.8479000000000001 5.350399999999999,0.8400000000000007 5.3309000000000015,0.8196000000000003 5.323500000000001,0.8186000000000009 5.312400000000002,0.8135000000000003 5.307,0.8083 5.274600000000001,0.7987000000000011 5.266700000000002,0.7988000000000008 5.2614,0.7961 5.2371,0.7905000000000006 5.216199999999999,0.781200000000001 5.207500000000001,0.772800000000001 5.200100000000001,0.7710999999999997 5.184199999999999,0.7539000000000007 5.184300000000002,0.7443999999999997 5.1793,0.7358000000000002 5.1678000000000015,0.7226000000000008 5.156499999999999,0.7053000000000003 5.1546,0.7001 5.155099999999999,0.6900000000000004 5.163600000000001,0.6498999999999997 5.161600000000002,0.6421000000000001 5.154400000000001,0.6372000000000009 5.150800000000002,0.6323999999999996 5.149800000000001,0.6230000000000002 5.151100000000001,0.6185999999999998 5.144499999999999,0.6114000000000006 5.128100000000002,0.6055999999999999 5.028499999999999,0.6000000000000005 5.0084,0.5972999999999997 4.983300000000002,0.5967000000000011 4.980500000000001,0.5950999999999995 4.950699999999999,0.5944000000000011 4.9397,0.5916000000000006 4.928099999999999,0.5924000000000005 4.856900000000001,0.5875000000000012 4.800800000000001,0.5828999999999995 4.796899999999999,0.580000000000001 4.780099999999999,0.5811999999999999 4.690600000000002,0.5735999999999999 4.573200000000002,0.5701000000000009 4.5585,0.5682 4.5265,0.5448000000000004 4.5221,0.5517000000000003 4.471400000000001,0.5217 4.448100000000002,0.5175000000000001 4.3740000000000006,0.5241000000000007 4.324,0.5311000000000003 4.2989000000000015,0.5324 4.2597000000000005,0.5373000000000001 4.242800000000001,0.5375000000000005 4.239600000000001,0.5364000000000004 4.2338000000000005,0.5291000000000006 4.229899999999999,0.5284000000000004 4.2242000000000015,0.5376000000000003 4.2204999999999995,0.5406000000000004 4.2097,0.5430000000000001 4.198200000000002,0.5417000000000005 4.184800000000001,0.5330000000000004 4.1836,0.5284000000000004 4.1854,0.5213000000000001 4.1754000000000016,0.5046000000000008 4.171899999999999,0.5024000000000006 4.159699999999999,0.5043000000000006 4.142999999999999,0.48580000000000023 4.1366,0.48490000000000055 4.127900000000002,0.49160000000000004 4.122999999999999,0.49160000000000004 4.111700000000001,0.4828000000000001 4.105200000000002,0.4713000000000003 4.101000000000001,0.4679000000000002 4.095900000000002,0.4670000000000005 4.0936,0.46770000000000067 4.091300000000002,0.47190000000000065 4.0905000000000005,0.47850000000000037 4.088199999999999,0.4815000000000005 4.077800000000002,0.4821 4.0737000000000005,0.48019999999999996 4.068800000000001,0.47360000000000024 4.0649999999999995,0.4629000000000003 4.065199999999999,0.4500000000000002 4.0633,0.4461000000000004 4.0573,0.44570000000000043 4.053400000000002,0.45030000000000037 4.049999999999999,0.4499000000000004 4.041600000000001,0.4276 4.037599999999999,0.42650000000000077 4.032100000000002,0.4325000000000001 4.011999999999999,0.44460000000000033 4.003200000000001,0.45170000000000066 3.9993,0.45360000000000067 3.994300000000001,0.4529000000000005 3.9860999999999986,0.4427000000000003 3.982000000000001,0.4411000000000005 3.975600000000002,0.44230000000000036 3.973699999999999,0.43650000000000055 3.9764,0.4308000000000005 3.975900000000001,0.4280000000000008 3.972199999999999,0.4251000000000005 3.967599999999999,0.42490000000000006 3.965300000000001,0.42650000000000077 3.9621000000000013,0.4345000000000008 3.9596,0.43620000000000037 3.9475999999999996,0.4344000000000001 3.9445999999999994,0.4303000000000008 3.9458,0.42710000000000026 3.950799999999999,0.4220000000000006 3.950100000000001,0.41740000000000066 3.941799999999999,0.42020000000000035 3.9383999999999997,0.42550000000000043 3.9353999999999996,0.4251000000000005 3.9308999999999994,0.4168000000000003 3.9300000000000015,0.41130000000000067 3.931400000000002,0.40630000000000077 3.929499999999999,0.40190000000000037 3.924899999999999,0.4026000000000005 3.9200999999999997,0.4098000000000006 3.902800000000001,0.40549999999999997 3.895200000000001,0.4085000000000001 3.891700000000002,0.4077000000000002 3.8857000000000017,0.39920000000000044 3.871900000000002,0.40000000000000036 3.867700000000001,0.3963000000000001 3.8622999999999994,0.38120000000000065 3.8592999999999993,0.3794000000000004 3.8545,0.3799000000000001 3.841199999999999,0.38730000000000064 3.835200000000002,0.3866000000000005 3.8310000000000013,0.3825000000000003 3.8299000000000003,0.3763000000000005 3.830700000000002,0.3683000000000005 3.827499999999999,0.3644000000000007 3.8103999999999996,0.36240000000000006 3.808300000000001,0.36020000000000074 3.8101000000000003,0.3528000000000002 3.8081000000000014,0.3503000000000007 3.800700000000001,0.34990000000000077 3.797200000000002,0.3442000000000007 3.7933000000000003,0.3446000000000007 3.7912000000000017,0.34299999999999997 3.7903000000000002,0.3387000000000002 3.7954999999999988,0.3258000000000001 3.7959000000000014,0.3205 3.7891999999999992,0.3059000000000003 3.7866000000000017,0.30410000000000004 3.7811000000000003,0.30520000000000014 3.7706,0.31840000000000046 3.7644,0.3228 3.759100000000002,0.32230000000000025 3.754900000000001,0.3178000000000001 3.751900000000001,0.30880000000000063 3.746599999999999,0.30540000000000056 3.743499999999999,0.3011000000000008 3.746699999999999,0.2887000000000004 3.745099999999999,0.28550000000000075 3.7401999999999997,0.2848000000000006 3.7356,0.2798000000000007 3.7248,0.2785000000000002 3.6957000000000004,0.2658000000000005 3.6922000000000015,0.26170000000000027 3.692400000000001,0.25839999999999996 3.7006999999999994,0.24740000000000073 3.689300000000001,0.24009999999999998 3.6881000000000004,0.2353000000000005 3.689000000000002,0.22910000000000075 3.6868999999999996,0.22560000000000002 3.6656999999999993,0.22070000000000078 3.6586000000000016,0.2221000000000002 3.652400000000002,0.22630000000000017 3.6422000000000008,0.24660000000000082 3.637100000000002,0.24820000000000064 3.6286000000000005,0.24730000000000008 3.623099999999999,0.2508000000000008 3.617800000000001,0.2511000000000001 3.6148000000000007,0.2492000000000001 3.6137999999999995,0.2453000000000003 3.6182999999999996,0.22720000000000073 3.617099999999999,0.21940000000000026 3.6121,0.21690000000000076 3.605600000000001,0.2165000000000008 3.5938,0.21030000000000015 3.5894999999999992,0.2099000000000002 3.5756999999999994,0.21410000000000018 3.5706000000000007,0.2093000000000007 3.568900000000001,0.19710000000000072 3.566799999999999,0.19390000000000018 3.5317999999999987,0.19370000000000065 3.520100000000001,0.19070000000000054 3.513600000000002,0.19450000000000056 3.5083,0.19310000000000027 3.5046000000000017,0.1872000000000007 3.5016000000000016,0.1867000000000001 3.4899000000000004,0.1944000000000008 3.483500000000001,0.19480000000000075 3.4639000000000006,0.1878000000000002 3.4549000000000003,0.1817000000000002 3.451100000000002,0.1767000000000003 3.4543000000000017,0.1665000000000001 3.4534000000000002,0.16490000000000027 3.449,0.1645000000000003 3.431800000000001,0.17520000000000024 3.4274000000000004,0.17540000000000067 3.4250999999999987,0.17290000000000028 3.4246,0.16920000000000002 3.4322,0.15610000000000035 3.430999999999999,0.15080000000000027 3.422200000000002,0.1380000000000008 3.422100000000002,0.13339999999999996 3.425600000000001,0.13020000000000032 3.4338999999999995,0.1283000000000003 3.4362000000000013,0.12510000000000066 3.4366000000000003,0.12050000000000072 3.428300000000002,0.11180000000000057 3.422500000000001,0.10910000000000064 3.4183000000000003,0.10980000000000079 3.4101000000000017,0.11650000000000027 3.400599999999999,0.11520000000000064 3.396200000000002,0.11040000000000028 3.3964000000000016,0.10030000000000072 3.3942999999999994,0.09750000000000014 3.389899999999999,0.09520000000000017 3.3773,0.09420000000000073 3.370300000000002,0.08870000000000022 3.3614000000000015,0.09170000000000034 3.349400000000001,0.09130000000000038 3.341400000000002,0.09460000000000068 3.3377,0.09960000000000058 3.3362,0.10910000000000064 3.3271999999999995,0.11460000000000026 "></polygon>
    </svg>
    