
    <svg width="1.3452999999999982" height="1.5986999999999973" xmlns="http://www.w3.org/2000/svg" xmlns:xlink="http://www.w3.org/1999/xlink" style="transform: scale(1, -1)">
        <polygon points="0.7863000000000007,0.0017999999999993577 0.702300000000001,0.0022999999999981924 0.3592000000000013,0.1153999999999975 0.2698999999999998,0.22119999999999962 0.2303999999999995,0.2497000000000007 0.19340000000000046,0.28049999999999997 0.16690000000000182,0.32539999999999836 0.18230000000000146,0.352999999999998 0.18510000000000204,0.36410000000000053 0.18540000000000134,0.3958999999999975 0.1822000000000017,0.4092999999999982 0.15160000000000196,0.4292999999999978 0.1493000000000002,0.43359999999999843 0.14580000000000126,0.4344000000000001 0.1338000000000008,0.44569999999999865 0.11599999999999966,0.45759999999999934 0.11550000000000082,0.46259999999999835 0.11090000000000089,0.4656999999999982 0.10160000000000124,0.5122 0.10050000000000026,0.5323999999999991 0.09860000000000113,0.5298999999999978 0.09629999999999939,0.5183 0.09740000000000038,0.5154999999999994 0.09590000000000032,0.5138999999999996 0.033500000000000085,0.4771000000000001 0.02179999999999893,0.472999999999999 0.011300000000002086,0.4934999999999974 0.0,0.5969999999999978 0.00039999999999906777,0.7484000000000002 0.013700000000000045,0.8507999999999996 0.03960000000000008,0.9062999999999981 0.06620000000000203,0.9336999999999982 0.10050000000000026,0.9967000000000006 0.1700000000000017,1.0557999999999979 0.27960000000000207,1.2501999999999995 0.29820000000000135,1.2912999999999997 0.3213000000000008,1.3348999999999975 0.3352000000000004,1.3963 0.47220000000000084,1.5078999999999994 0.5244999999999997,1.5745000000000005 0.6249000000000002,1.5986999999999973 1.0764999999999993,1.317899999999998 1.1899000000000015,1.3674999999999997 1.2127000000000017,1.3271999999999977 1.2371000000000016,1.319499999999998 1.2962999999999987,1.3065999999999995 1.3058000000000014,1.2451000000000008 1.3167000000000009,1.1515999999999984 1.3049,1.1065000000000005 1.3052000000000028,1.0993999999999993 1.3000000000000007,1.0730000000000004 1.2835,1.004999999999999 1.285300000000003,0.9533999999999985 1.2887999999999984,0.9084000000000003 1.2977999999999987,0.884999999999998 1.3452999999999982,0.7819000000000003 1.3416999999999994,0.4772999999999996 1.3323,0.4773999999999994 1.328199999999999,0.4792999999999985 1.3170000000000037,0.4964999999999975 1.313800000000004,0.5081999999999987 1.306799999999999,0.5128999999999984 1.279799999999998,0.5076999999999998 1.2741000000000007,0.5056999999999974 1.2688000000000024,0.5002999999999993 1.2626000000000026,0.49909999999999854 1.2540000000000013,0.5004999999999988 1.2472999999999992,0.5052999999999983 1.2438000000000038,0.5101999999999975 1.2386000000000017,0.5114999999999981 1.2262999999999984,0.5100999999999978 1.219899999999999,0.5073000000000008 1.2245000000000026,0.4975999999999985 1.2045999999999992,0.3933 1.209100000000003,0.3794000000000004 1.1930000000000014,0.31629999999999825 1.1952999999999996,0.31129999999999924 1.1935000000000002,0.27890000000000015 1.188200000000002,0.22649999999999793 1.1831999999999994,0.20110000000000028 1.1853000000000016,0.19559999999999889 1.1856000000000009,0.18689999999999785 1.1827000000000005,0.16910000000000025 1.1857000000000006,0.09469999999999956 1.1843000000000004,0.006699999999998596 1.186399999999999,0.0 0.7863000000000007,0.0017999999999993577 "></polygon>
    </svg>
    