
    <svg width="14.956699999999998" height="11.4467" xmlns="http://www.w3.org/2000/svg" xmlns:xlink="http://www.w3.org/1999/xlink" style="transform: scale(1, -1)">
        <polygon points="5.435699999999997,0.20250000000000012 5.340200000000003,0.2073999999999998 5.320900000000002,0.21039999999999992 5.2761,0.21309999999999985 5.251899999999999,0.21320000000000006 5.186999999999998,0.21919999999999984 5.142299999999999,0.21050000000000013 5.131500000000003,0.21039999999999992 5.124699999999997,0.20799999999999974 5.1188,0.20969999999999978 5.095300000000002,0.23260000000000014 5.049300000000002,0.26869999999999994 5.043399999999998,0.27070000000000016 5.0123999999999995,0.3033999999999999 5.011499999999998,0.3098000000000001 5.003799999999998,0.3165 5.000999999999998,0.3233999999999999 4.994399999999999,0.3275000000000001 4.983699999999999,0.3302999999999998 4.964700000000001,0.3397000000000001 4.927900000000001,0.36030000000000006 4.9151000000000025,0.3696999999999999 4.898699999999998,0.3788999999999998 4.8322,0.4245000000000001 4.781199999999998,0.4567999999999999 4.738500000000002,0.48809999999999976 4.7083999999999975,0.5061 4.668199999999999,0.5341999999999998 4.635599999999997,0.5543 4.6295,0.5636999999999999 4.595700000000001,0.5861999999999998 4.5839,0.5918000000000001 4.575499999999998,0.5998000000000001 4.552199999999999,0.6134999999999997 4.5290000000000035,0.6324999999999998 4.514499999999998,0.6405999999999996 4.508200000000002,0.6477999999999997 4.3995999999999995,0.7193999999999998 4.3521,0.7479999999999998 4.328000000000003,0.7654999999999998 4.246600000000001,0.8187000000000002 4.188899999999997,0.8553999999999999 4.1599,0.8714 4.122199999999999,0.8839999999999999 4.102699999999999,0.8999999999999999 4.083300000000001,0.9266999999999999 4.057000000000002,0.9441999999999999 4.0379000000000005,0.9628999999999999 3.9955,0.9800999999999997 3.9838999999999984,0.9864999999999999 3.9799000000000007,0.9903999999999997 3.968200000000003,0.9956999999999998 3.9545999999999992,0.9979 3.9482,1.0054000000000003 3.933500000000002,1.0101 3.912799999999997,1.0193999999999996 3.8939999999999984,1.0261 3.865000000000002,1.033 3.837299999999999,1.0452 3.711100000000002,1.0403999999999995 3.654899999999998,1.0412000000000003 3.6388000000000034,1.0511000000000004 3.615400000000001,1.0509999999999997 3.5412999999999997,1.0409000000000002 3.4523999999999972,1.0443000000000002 3.395699999999998,1.0403999999999995 3.3511999999999986,1.0439000000000003 3.2635999999999967,1.0448 3.242600000000003,1.0558999999999998 3.207900000000002,1.0459999999999998 3.1540000000000035,1.0474999999999999 3.1126999999999967,1.0512000000000001 3.0476000000000028,1.0505999999999998 3.0375999999999976,1.0553000000000003 2.9953999999999965,1.0925999999999996 2.9639000000000024,1.1126999999999998 2.9014000000000024,1.1907999999999999 2.871699999999997,1.2253000000000003 2.8444000000000003,1.2524000000000002 2.8245000000000005,1.2821000000000002 2.784799999999997,1.3326999999999996 2.784700000000001,1.3512 2.7918999999999983,1.4045 2.7971000000000004,1.4795000000000003 2.8031000000000006,1.5233000000000003 2.802900000000001,1.5467 2.8076000000000008,1.5950000000000002 2.808399999999999,1.6712000000000002 2.8063000000000002,1.6877 2.8126999999999995,1.7048999999999999 2.8310999999999993,1.7208 2.8442000000000007,1.7422999999999997 2.8530999999999977,1.7501000000000002 2.8564000000000007,1.7657000000000003 2.856900000000003,1.7761999999999998 2.8511999999999986,1.7902 2.8474000000000004,1.7963999999999998 2.834600000000002,1.8038000000000003 2.8260999999999967,1.8240000000000003 2.822400000000002,1.8290000000000002 2.8203999999999994,1.8375999999999997 2.820700000000002,1.8493 2.8222999999999985,1.8570999999999995 2.8256999999999977,1.8622 2.840299999999999,1.8751000000000002 2.8444000000000003,1.8820000000000001 2.851300000000002,1.8851 2.856099999999998,1.8956000000000004 2.8577999999999975,1.9034 2.856099999999998,1.9106999999999998 2.852800000000002,1.9158000000000004 2.845399999999998,1.9200000000000004 2.837299999999999,1.9217999999999997 2.833599999999997,1.9285999999999999 2.8271999999999977,1.9328999999999996 2.8175999999999988,1.9324999999999997 2.811700000000002,1.9383000000000004 2.8063999999999965,1.9411 2.783700000000003,1.9440000000000004 2.761000000000003,1.9530999999999996 2.738900000000001,1.9708999999999999 2.654200000000003,1.9822000000000002 2.5771999999999977,2.0155999999999996 2.5375999999999976,2.0155999999999996 2.531799999999997,2.0185999999999997 2.5142999999999986,2.0149000000000004 2.5086000000000013,2.0185 2.5035000000000025,2.0189 2.4909999999999997,2.0134000000000003 2.4853999999999985,2.0143 2.4780999999999977,2.0121999999999995 2.4671999999999983,2.007 2.4532000000000025,1.9924000000000004 2.4247999999999976,1.9736999999999996 2.4087999999999994,1.9652999999999996 2.405000000000001,1.9609 2.3725000000000023,1.9540000000000002 2.365400000000001,1.9501000000000004 2.3577999999999975,1.9484999999999997 2.333199999999998,1.9339 2.314300000000003,1.9301999999999997 2.306600000000003,1.9307000000000003 2.2986000000000004,1.9336999999999995 2.2841000000000022,1.9770999999999996 2.2836,1.9838999999999998 2.2856000000000023,1.9913000000000003 2.2856000000000023,2.0036 2.2890000000000015,2.0265 2.297699999999999,2.0387 2.2982999999999976,2.0466 2.3027999999999977,2.0589 2.302599999999998,2.0775 2.298000000000002,2.0917 2.2986999999999966,2.0974999999999997 2.281799999999997,2.1119 2.124699999999997,2.2163999999999997 2.119799999999998,2.2215000000000003 2.119100000000003,2.2292 2.1233999999999966,2.2748000000000004 2.1233999999999966,2.2838999999999996 2.1195999999999984,2.2920000000000003 2.0940999999999974,2.3314 2.044699999999999,2.4187 1.9894000000000034,2.4966000000000004 1.9894999999999996,2.5025 1.9958000000000027,2.5257 1.9853000000000023,2.5464999999999995 1.9861000000000004,2.5555 1.989600000000003,2.5714 1.996299999999998,2.5832 2.0005000000000024,2.6038 1.991100000000003,2.6197000000000004 1.9904999999999973,2.655 1.9857000000000014,2.6687 1.9705999999999975,2.6858999999999997 1.9639000000000024,2.6914000000000002 1.9564999999999984,2.7211000000000003 1.9558999999999997,2.7285 1.9583999999999975,2.7365 1.964100000000002,2.7457 1.9675000000000011,2.7556 1.9641999999999982,2.7852 1.964500000000001,2.8021 1.962600000000002,2.8134 1.950800000000001,2.8387999999999995 1.947499999999998,2.8531999999999997 1.9495999999999967,2.869 1.9834999999999994,2.9 1.9864000000000033,2.9469 1.9849999999999994,2.9876 1.9968000000000004,2.9963 2.0013999999999967,3.0036 2.0020999999999987,3.0158 2.0123000000000033,3.0462000000000002 2.0050999999999988,3.0654999999999997 1.9827000000000012,3.0904000000000003 1.9545999999999992,3.105 1.953000000000003,3.1197000000000004 1.9380000000000024,3.1477 1.9187000000000012,3.1579 1.9037999999999968,3.1725 1.8830999999999989,3.1782 1.8873000000000033,3.1975000000000002 1.8547000000000011,3.209 1.8429999999999964,3.2001000000000004 1.8046000000000006,3.2011999999999996 1.786999999999999,3.1847999999999996 1.7706000000000017,3.198 1.7453000000000003,3.2258 1.7287999999999997,3.2493000000000003 1.7139000000000024,3.2654 1.7062999999999988,3.2978 1.6796000000000006,3.3035 1.648299999999999,3.3343000000000003 1.6274999999999977,3.3503000000000003 1.6114000000000033,3.3339000000000003 1.5596000000000032,3.3408 1.534399999999998,3.3539 1.5324000000000026,3.4129 1.529200000000003,3.4438999999999997 1.5185999999999993,3.4644999999999997 1.4827999999999975,3.5055 1.4084999999999965,3.5535 1.3817999999999984,3.565 1.3581000000000003,3.5647999999999995 1.3211000000000013,3.5748 1.2854000000000028,3.5980000000000003 1.254100000000001,3.6228000000000002 1.2306000000000026,3.6167000000000002 1.2139999999999986,3.6474999999999995 1.1916999999999973,3.6561 1.1908999999999992,3.7388 1.1640999999999977,3.7577000000000003 1.1433999999999997,3.7574 1.1270000000000024,3.7764 1.0976,3.7806 1.0976,3.7868999999999997 1.0904999999999987,3.7977000000000003 1.0750000000000028,3.8112999999999997 1.0527999999999977,3.8217000000000003 1.0424000000000007,3.8223999999999996 1.0324999999999989,3.8364999999999996 1.0176000000000016,3.8505999999999996 1.0103000000000009,3.8608999999999996 1.0088000000000008,3.8709000000000002 1.0253999999999976,3.8672 1.0313000000000017,3.8764999999999996 1.0335999999999999,3.895 1.0298999999999978,3.9168 1.0290999999999997,3.9377 1.0317000000000007,3.9552 1.0272999999999968,3.9708 1.0110000000000028,3.9937 0.9966000000000008,4.0196000000000005 0.9906999999999968,4.0252 0.9831999999999965,4.0374 0.9562000000000026,4.048500000000001 0.9551000000000016,4.064399999999999 0.9436999999999998,4.0692 0.9414999999999978,4.0824 0.9420000000000002,4.0936 0.9461000000000013,4.1035 0.9249999999999972,4.113199999999999 0.9020999999999972,4.1190999999999995 0.8858999999999995,4.113199999999999 0.8697999999999979,4.1190999999999995 0.8545000000000016,4.142899999999999 0.8389000000000024,4.159700000000001 0.8323999999999998,4.1693 0.7916000000000025,4.2058 0.7762999999999991,4.205 0.7678000000000011,4.2126 0.7509999999999977,4.217700000000001 0.7353999999999985,4.2288 0.7314999999999969,4.241 0.7184000000000026,4.252599999999999 0.710799999999999,4.2577 0.6927999999999983,4.2612000000000005 0.6886999999999972,4.2704 0.6801999999999992,4.274699999999999 0.6822000000000017,4.283200000000001 0.6707999999999998,4.2934 0.6629000000000005,4.2918 0.6347999999999985,4.2928999999999995 0.628700000000002,4.3017 0.6212000000000018,4.308999999999999 0.6109999999999971,4.303000000000001 0.5977000000000032,4.306799999999999 0.5844000000000023,4.2982 0.5786999999999978,4.287800000000001 0.5608000000000004,4.2949 0.5484999999999971,4.302899999999999 0.5388999999999982,4.3049 0.5133999999999972,4.3329 0.5013000000000005,4.3285 0.4986999999999995,4.3361 0.48910000000000053,4.3317 0.471899999999998,4.3451 0.46280000000000143,4.3481000000000005 0.459699999999998,4.3423 0.4463000000000008,4.340999999999999 0.43010000000000304,4.352600000000001 0.42269999999999897,4.3492 0.41510000000000247,4.3416 0.4057999999999993,4.335800000000001 0.3890000000000029,4.328899999999999 0.372799999999998,4.331200000000001 0.3581999999999965,4.3208 0.3498999999999981,4.3246 0.3410000000000011,4.3125 0.31869999999999976,4.3073999999999995 0.3177999999999983,4.3133 0.3138000000000005,4.3225 0.3019000000000034,4.326499999999999 0.30219999999999914,4.3347999999999995 0.2980000000000018,4.340999999999999 0.2907999999999973,4.3359000000000005 0.29350000000000165,4.3468 0.2798000000000016,4.342700000000001 0.24609999999999843,4.364800000000001 0.23680000000000234,4.374599999999999 0.22290000000000276,4.3706 0.21540000000000248,4.372299999999999 0.1980000000000004,4.3804 0.18240000000000123,4.385 0.16389999999999816,4.396599999999999 0.15570000000000306,4.398300000000001 0.15460000000000207,4.393000000000001 0.1437000000000026,4.3911 0.136099999999999,4.385299999999999 0.1319999999999979,4.389099999999999 0.12160000000000082,4.384499999999999 0.11350000000000193,4.3856 0.10730000000000217,4.3802 0.10029999999999717,4.381500000000001 0.10349999999999682,4.3885000000000005 0.09380000000000166,4.3972 0.08689999999999998,4.401199999999999 0.08310000000000173,4.393599999999999 0.07159999999999656,4.3923000000000005 0.06069999999999709,4.3872 0.054999999999999716,4.3923000000000005 0.04860000000000042,4.3885000000000005 0.04370000000000118,4.4030000000000005 0.04279999999999973,4.4129000000000005 0.03529999999999944,4.4209 0.008699999999997488,4.459099999999999 0.0,4.480499999999999 0.002400000000001512,4.4863 0.012199999999999989,4.489800000000001 0.002899999999996794,4.507199999999999 0.0005999999999986017,4.5169999999999995 0.003500000000002501,4.5276 0.0005999999999986017,4.5413 0.0075999999999964984,4.5497 0.026899999999997704,4.562099999999999 0.034799999999997056,4.5755 0.029000000000003467,4.5916999999999994 0.034900000000000375,4.6061 0.04480000000000217,4.6158 0.05729999999999791,4.615400000000001 0.07169999999999987,4.6213 0.07600000000000051,4.6259 0.07930000000000348,4.649100000000001 0.07730000000000103,4.655000000000001 0.08520000000000039,4.6623 0.08189999999999742,4.671100000000001 0.08420000000000272,4.676300000000001 0.10300000000000153,4.6767 0.10990000000000322,4.672600000000001 0.11710000000000065,4.664 0.11489999999999867,4.6882 0.11529999999999774,4.701600000000001 0.11849999999999739,4.708 0.134999999999998,4.7135 0.15720000000000312,4.7118 0.1617999999999995,4.715300000000001 0.16490000000000293,4.7242 0.17130000000000223,4.728400000000001 0.18469999999999942,4.7248 0.18789999999999907,4.7357 0.18249999999999744,4.7461 0.18260000000000076,4.7614 0.17540000000000333,4.7675 0.1711999999999989,4.789300000000001 0.16559999999999775,4.7889 0.16429999999999723,4.7958 0.17369999999999663,4.8035 0.18910000000000338,4.8119 0.19519999999999982,4.8192 0.20109999999999673,4.835000000000001 0.19669999999999987,4.848800000000001 0.18780000000000285,4.850200000000001 0.1786999999999992,4.849300000000001 0.1741000000000028,4.855700000000001 0.17150000000000176,4.8644 0.17430000000000234,4.8850999999999996 0.16850000000000165,4.8972 0.19350000000000023,4.899100000000001 0.20020000000000238,4.9072 0.19950000000000045,4.9139 0.19169999999999732,4.9275 0.1905000000000001,4.934100000000001 0.20309999999999917,4.934200000000001 0.2090999999999994,4.9361 0.21329999999999671,4.943100000000001 0.2150000000000034,4.9565 0.19870000000000232,4.950800000000001 0.19189999999999685,4.952400000000001 0.18760000000000332,4.9811 0.18829999999999814,4.9877 0.19350000000000023,4.993 0.18829999999999814,5.003 0.19120000000000203,5.008100000000001 0.20649999999999835,5.006400000000001 0.2150000000000034,5.0092 0.21540000000000248,5.0159 0.21329999999999671,5.0282 0.21569999999999823,5.0336 0.23259999999999792,5.024000000000001 0.2453000000000003,5.0366 0.2471000000000032,5.045200000000001 0.27300000000000324,5.053800000000001 0.2873999999999981,5.037700000000001 0.29419999999999646,5.0379000000000005 0.29809999999999803,5.042900000000001 0.3036999999999992,5.0565999999999995 0.3123999999999967,5.060700000000001 0.3190000000000026,5.0502 0.33330000000000126,5.044500000000001 0.347999999999999,5.046200000000001 0.3592999999999975,5.0413 0.36540000000000106,5.042200000000001 0.3710000000000022,5.0321 0.3791000000000011,5.0329 0.38569999999999993,5.026300000000001 0.39390000000000214,5.024700000000001 0.4100999999999999,5.0403 0.4222999999999999,5.047600000000001 0.43599999999999994,5.040900000000001 0.446399999999997,5.0388 0.4590999999999994,5.0504999999999995 0.47330000000000183,5.053600000000001 0.4812000000000012,5.0579 0.4876000000000005,5.0702 0.4966000000000008,5.072100000000001 0.5095000000000027,5.0722000000000005 0.5180000000000007,5.0687999999999995 0.523299999999999,5.0686 0.5320999999999998,5.07 0.5401999999999987,5.0687999999999995 0.5548999999999964,5.070400000000001 0.5604000000000013,5.0694 0.5671999999999997,5.0549 0.5743999999999971,5.048500000000001 0.5959000000000003,5.047600000000001 0.6088000000000022,5.0626999999999995 0.6184999999999974,5.069800000000001 0.6475999999999971,5.059000000000001 0.678600000000003,5.0418 0.676400000000001,5.031000000000001 0.6814999999999998,5.007100000000001 0.6871999999999971,5.0006 0.6905000000000001,4.992800000000001 0.6927999999999983,4.980600000000001 0.6991000000000014,4.973600000000001 0.7081999999999979,4.9717 0.7150000000000034,4.966700000000001 0.7239999999999966,4.9651 0.7361999999999966,4.966700000000001 0.7479000000000013,4.976100000000001 0.7537999999999982,4.972800000000001 0.7710000000000008,4.9708000000000006 0.7978999999999985,4.9953 0.8061000000000007,4.995700000000001 0.8121999999999971,5.001000000000001 0.8192000000000021,5.0075 0.8256999999999977,5.0214 0.8359000000000023,5.027100000000001 0.8387999999999991,5.032 0.8506,5.0327 0.8637000000000015,5.0365 0.8757000000000019,5.037600000000001 0.8734999999999999,5.0466999999999995 0.8800000000000026,5.054500000000001 0.8800000000000026,5.061400000000001 0.8873999999999995,5.063500000000001 0.8915000000000006,5.074400000000001 0.8967999999999989,5.081800000000001 0.9238,5.088100000000001 0.9339999999999975,5.0961 0.9446000000000012,5.0989 0.9547999999999988,5.0936 0.9707000000000008,5.099600000000001 0.9838000000000022,5.0899 0.9898999999999987,5.0891 0.9990000000000023,5.094100000000001 1.0135000000000005,5.088100000000001 1.0189000000000021,5.0899 1.0259,5.0977 1.0315999999999974,5.111600000000001 1.0598000000000027,5.1324000000000005 1.0690000000000026,5.1433 1.0797999999999988,5.15 1.0949000000000026,5.151200000000001 1.1197000000000017,5.176300000000001 1.1405999999999992,5.212100000000001 1.1400999999999968,5.2532 1.1430000000000007,5.271000000000001 1.1396000000000015,5.303000000000001 1.1385999999999967,5.324200000000001 1.1400999999999968,5.337200000000001 1.1379999999999981,5.372300000000001 1.1400000000000006,5.411 1.1390999999999991,5.5122 1.1432000000000002,5.5634 1.1420999999999992,5.6008 1.1332000000000022,5.773 1.1206000000000031,5.8581 1.1154999999999973,5.9453 1.1069999999999993,6.0097000000000005 1.0992000000000033,6.1518 1.1156000000000006,6.207000000000001 1.1304000000000016,6.2414000000000005 1.1428999999999974,6.302200000000001 1.144599999999997,6.3193 1.1674999999999969,6.3826 1.201900000000002,6.4648 1.2154000000000025,6.5037 1.2167999999999992,6.562000000000001 1.224499999999999,6.6145 1.2316000000000003,6.6487 1.2580999999999989,6.671800000000001 1.2961000000000027,6.6876 1.332099999999997,6.714600000000001 1.3316999999999979,6.7431 1.3447000000000031,6.7698 1.3408999999999978,6.8027 1.349899999999998,6.822100000000001 1.3218000000000032,6.8947 1.3034000000000034,6.9741 1.2916000000000025,7.0075 1.3100000000000023,7.0482 1.3248999999999995,7.0769 1.3051999999999992,7.1088000000000005 1.2783000000000015,7.116 1.2779999999999987,7.133100000000001 1.2916000000000025,7.1615 1.2961000000000027,7.1869 1.3436000000000021,7.2308 1.381300000000003,7.2788 1.4052000000000007,7.3139 1.4290999999999983,7.363300000000001 1.450099999999999,7.3932 1.4635000000000034,7.4223 1.5035000000000025,7.4457 1.5302000000000007,7.4536 1.5433999999999983,7.469000000000001 1.5527999999999977,7.484300000000001 1.5814999999999984,7.4885 1.5966999999999985,7.502000000000001 1.6082999999999998,7.4984 1.6861000000000033,7.4254999999999995 1.7269000000000005,7.3957 1.7483000000000004,7.3713 1.7638999999999996,7.356300000000001 1.7888999999999982,7.3567 1.7890999999999977,7.3415 1.7760000000000034,7.311 1.7837000000000032,7.3111 1.7989000000000033,7.322700000000001 1.8560000000000016,7.3576 1.865400000000001,7.3767 1.8656999999999968,7.409600000000001 1.8881000000000014,7.4231 1.925699999999999,7.4572 1.9562000000000026,7.4785 1.9808000000000021,7.499700000000001 1.9551000000000016,7.558200000000001 1.9585000000000008,7.592500000000001 1.9692000000000007,7.649600000000001 1.9823000000000022,7.6996 1.9988000000000028,7.7818000000000005 1.9949999999999974,7.799800000000001 1.9831000000000003,7.8147 1.9598999999999975,7.837100000000001 1.9281999999999968,7.837 1.924199999999999,7.8445 1.9356000000000009,7.8522 1.9468000000000032,7.8771 1.9613999999999976,7.8865 1.9883000000000024,7.9384 2.0031999999999996,7.9627 2.0227000000000004,7.986600000000001 2.0371999999999986,8.0169 2.0649000000000015,8.1008 2.076500000000003,8.1227 2.078000000000003,8.1944 2.075000000000003,8.2467 2.0540999999999983,8.2931 2.045099999999998,8.336400000000001 2.0959000000000003,8.415700000000001 2.155700000000003,8.462 2.2006000000000014,8.491900000000001 2.255600000000001,8.535400000000001 2.2738000000000014,8.5412 2.3008999999999986,8.6167 2.306199999999997,8.6172 2.321800000000003,8.6143 2.3342000000000027,8.620000000000001 2.3382999999999967,8.624600000000001 2.342100000000002,8.6357 2.341700000000003,8.6484 2.338700000000003,8.658900000000001 2.3357000000000028,8.664 2.3303999999999974,8.667900000000001 2.3992000000000004,8.787 2.4080000000000013,8.7849 2.4221000000000004,8.7865 2.431899999999999,8.792300000000001 2.4361000000000033,8.7985 2.4399999999999977,8.8062 2.4410000000000025,8.8129 2.439700000000002,8.8217 2.436799999999998,8.829 2.4283,8.8376 2.646000000000001,9.2064 2.6591000000000022,9.201500000000001 2.6647999999999996,9.2021 2.6822000000000017,9.2109 2.689300000000003,9.225100000000001 2.6901999999999973,9.2324 2.6888000000000005,9.24 2.6837000000000018,9.2499 2.6972999999999985,9.2689 2.7194999999999965,9.2715 2.727499999999999,9.268 2.7346999999999966,9.2603 2.7462000000000018,9.2585 2.7601999999999975,9.270100000000001 2.768900000000002,9.2665 2.7708999999999975,9.261700000000001 3.0001000000000033,9.3094 3.0009999999999977,9.315000000000001 3.006700000000002,9.318900000000001 3.0135000000000005,9.320400000000001 3.0321,9.3188 3.049599999999998,9.3232 3.0576000000000008,9.323400000000001 3.071300000000001,9.3201 3.094999999999999,9.3094 3.100200000000001,9.3047 3.1041000000000025,9.2981 3.106499999999997,9.2871 3.150199999999998,9.2837 3.1557999999999993,9.2878 3.154200000000003,9.299800000000001 3.1548000000000016,9.3077 3.1676,9.341700000000001 3.174500000000002,9.3788 3.174199999999999,9.4093 3.1794999999999973,9.4746 3.177500000000002,9.4969 3.1595999999999975,9.5169 3.155700000000003,9.5228 3.1514999999999986,9.534600000000001 3.151299999999999,9.5416 3.1559000000000026,9.5565 3.155700000000003,9.5641 3.1662999999999997,9.5798 3.174599999999998,9.604700000000001 3.177900000000001,9.6092 3.1972999999999985,9.6709 3.2357999999999976,9.8162 3.255499999999998,9.8817 3.2652,9.9252 3.2802000000000007,9.9773 3.3628,10.1258 3.376199999999997,10.139000000000001 3.3798999999999992,10.1464 3.3823000000000008,10.1684 3.4009,10.2446 3.4376000000000033,10.3429 3.4440000000000026,10.3653 3.4497,10.369900000000001 3.4975999999999985,10.448 3.4613000000000014,10.5722 3.5390000000000015,10.7993 3.5416000000000025,10.8519 3.548000000000002,10.8514 3.560200000000002,10.8618 3.559600000000003,10.8673 3.555100000000003,10.871500000000001 3.5512000000000015,10.878 3.5623000000000005,10.884 3.576599999999999,10.888200000000001 3.5827000000000027,10.8843 3.5981000000000023,10.891 3.6167000000000016,10.8941 3.619799999999998,10.9074 3.627299999999998,10.908800000000001 3.649700000000003,10.905700000000001 3.6843000000000004,10.8971 3.689399999999999,10.8975 3.7102999999999966,10.9079 3.7269000000000005,10.911 3.7327999999999975,10.916400000000001 3.7449999999999974,10.9189 3.7638999999999996,10.9168 3.776699999999998,10.917900000000001 3.8066999999999993,10.9143 3.8233999999999995,10.914900000000001 3.825499999999998,10.9101 3.8307,10.908100000000001 3.839199999999998,10.9099 3.8470999999999975,10.9175 3.8618000000000023,10.919 3.8766999999999996,10.9121 3.893099999999997,10.912 3.8988000000000014,10.9059 3.9132999999999996,10.9007 3.9311000000000007,10.8969 3.9361999999999995,10.8924 3.9421999999999997,10.8903 3.9547000000000025,10.8916 3.961100000000002,10.8911 3.9677000000000007,10.888300000000001 3.9729000000000028,10.881400000000001 3.9799000000000007,10.8757 3.984900000000003,10.8643 3.9887999999999977,10.861 3.995600000000003,10.8591 4.006599999999999,10.8507 4.015999999999998,10.8518 4.031300000000002,10.8595 4.036499999999997,10.865400000000001 4.042099999999998,10.867600000000001 4.048299999999998,10.8673 4.055500000000002,10.8636 4.063600000000001,10.863100000000001 4.07,10.8678 4.087800000000001,10.869200000000001 4.092300000000002,10.8729 4.0944999999999965,10.883700000000001 4.099200000000003,10.8871 4.1019000000000005,10.892000000000001 4.101300000000002,10.9078 4.103200000000001,10.922 4.0989,10.9277 4.098100000000002,10.9345 4.106900000000003,10.9573 4.112000000000002,10.9624 4.112299999999998,10.9684 4.120600000000003,10.9807 4.127299999999998,11.0002 4.132300000000001,11.0066 4.140000000000001,11.0075 4.1554,11.017000000000001 4.162700000000001,11.0185 4.169600000000003,11.0146 4.178199999999997,11.0157 4.192,11.021600000000001 4.1983999999999995,11.026 4.210500000000003,11.0381 4.2254000000000005,11.0416 4.236800000000002,11.0334 4.246400000000001,11.030700000000001 4.251800000000003,11.0314 4.256599999999999,11.036 4.281500000000001,11.039900000000001 4.288400000000003,11.043800000000001 4.297800000000002,11.0458 4.3063999999999965,11.043800000000001 4.312800000000003,11.0299 4.3260000000000005,11.0238 4.3352,11.0123 4.342500000000001,11.010200000000001 4.343800000000002,11.017000000000001 4.357399999999998,11.0184 4.375599999999999,11.0297 4.4018000000000015,11.0726 4.428199999999997,11.0814 4.438600000000001,11.0787 4.441600000000001,11.0718 4.4696,11.0699 4.487499999999997,11.074300000000001 4.506,11.0625 4.523299999999999,11.061200000000001 4.5473,11.0473 4.557699999999997,11.0535 4.570999999999998,11.0566 4.575200000000002,11.0691 4.593899999999998,11.078800000000001 4.655700000000003,11.0959 4.6691999999999965,11.105400000000001 4.6708,11.1229 4.677399999999999,11.1286 4.6965,11.1638 4.699100000000001,11.180100000000001 4.7083999999999975,11.1898 4.722200000000001,11.225 4.740000000000002,11.2436 4.7515,11.2439 4.772100000000002,11.2316 4.781199999999998,11.254900000000001 4.773699999999998,11.2797 4.772100000000002,11.2994 4.7804,11.3361 4.8033,11.3701 4.831099999999999,11.4064 4.847999999999999,11.4137 4.874200000000002,11.4011 4.900599999999997,11.411200000000001 4.921300000000002,11.4273 4.9388000000000005,11.4467 4.9422,11.4426 4.944000000000003,11.4359 4.948900000000002,11.4334 4.957700000000003,11.4342 4.9694999999999965,11.4316 4.973399999999998,11.4192 4.972999999999999,11.402800000000001 4.986400000000003,11.4091 4.9908,11.3932 4.990499999999997,11.3804 4.992699999999999,11.3747 4.998100000000001,11.3766 5.002099999999999,11.3728 5.003300000000003,11.3675 5.014299999999999,11.3664 5.018999999999998,11.362 5.020000000000003,11.356200000000001 5.015900000000002,11.3438 5.0168000000000035,11.3378 5.028599999999997,11.3291 5.038899999999998,11.3178 5.052,11.312000000000001 5.063099999999999,11.3125 5.0764,11.3086 5.090000000000003,11.3078 5.093899999999998,11.3026 5.1041000000000025,11.2987 5.107700000000001,11.2913 5.118600000000001,11.285 5.126100000000001,11.283100000000001 5.130600000000001,11.2797 5.132899999999999,11.2737 5.137799999999999,11.2685 5.144599999999997,11.2698 5.148800000000001,11.276 5.154699999999998,11.277700000000001 5.160499999999999,11.2771 5.1723,11.281 5.1785,11.277800000000001 5.182099999999998,11.2805 5.185899999999997,11.2904 5.2012,11.2871 5.208500000000001,11.288 5.213500000000003,11.284 5.226700000000001,11.287 5.235599999999998,11.2843 5.241599999999998,11.2791 5.250100000000003,11.276200000000001 5.2547,11.271 5.259599999999999,11.2683 5.262999999999998,11.24 5.267600000000002,11.2356 5.264800000000001,11.229000000000001 5.262999999999998,11.215300000000001 5.269599999999997,11.2117 5.2845999999999975,11.2087 5.2905000000000015,11.2036 5.2916000000000025,11.196 5.3063999999999965,11.186300000000001 5.308900000000001,11.1799 5.3138000000000005,11.1747 5.311900000000001,11.1693 5.313699999999997,11.151900000000001 5.3282000000000025,11.1327 5.3348999999999975,11.1301 5.339399999999998,11.1232 5.338299999999997,11.115 5.341700000000003,11.1089 5.347799999999999,11.1107 5.354399999999998,11.1079 5.354599999999998,11.1005 5.360700000000001,11.088000000000001 5.367399999999996,11.085600000000001 5.371899999999997,11.0814 5.386899999999997,11.0808 5.393299999999996,11.0827 5.396599999999999,11.0777 5.3973999999999975,11.0713 5.399999999999999,11.0662 5.4193,11.0649 5.430700000000002,11.029200000000001 5.437199999999997,11.028 5.441200000000002,11.0234 5.441200000000002,11.0173 5.445900000000002,11.0116 5.4547000000000025,11.0106 5.470799999999997,11.0143 5.476100000000002,11.017800000000001 5.482199999999999,11.019400000000001 5.497100000000003,11.0131 5.5045,11.0145 5.514400000000002,11.0063 5.519500000000001,11.0121 5.535899999999998,11.0213 5.542099999999998,11.0237 5.547600000000003,11.0235 5.553199999999997,11.026900000000001 5.559600000000003,11.0272 5.570599999999999,11.0342 5.577500000000001,11.0348 5.5929,11.0398 5.6068,11.0398 5.6143,11.0347 5.629800000000003,11.0417 5.637599999999999,11.040700000000001 5.645299999999999,11.0424 5.652700000000003,11.0462 5.6601,11.0467 5.663400000000003,11.0516 5.6736,11.0542 5.685699999999997,11.0614 5.7014,11.0665 5.7143000000000015,11.0622 5.728999999999999,11.0601 5.7486999999999995,11.0663 5.757399999999997,11.065800000000001 5.773299999999999,11.068100000000001 5.792499999999997,11.064400000000001 5.813699999999997,11.0755 5.815199999999997,11.0831 5.823,11.0832 5.8337,11.086500000000001 5.846899999999998,11.0969 5.862699999999997,11.0952 5.903399999999998,11.102400000000001 5.919499999999999,11.1125 5.9358,11.1333 5.948099999999997,11.1323 5.952599999999997,11.1372 5.9658000000000015,11.139700000000001 5.9731999999999985,11.142800000000001 5.979399999999998,11.1539 5.992399999999996,11.1668 5.999699999999997,11.187000000000001 6.008499999999998,11.1915 6.011200000000002,11.204600000000001 6.006999999999998,11.2174 6.0219999999999985,11.233600000000001 6.027200000000001,11.2357 6.039900000000003,11.232800000000001 6.046900000000001,11.2367 6.053699999999999,11.237400000000001 6.0737999999999985,11.2346 6.0792,11.2377 6.085299999999997,11.2345 6.0961,11.2346 6.102899999999998,11.231200000000001 6.112499999999997,11.2188 6.123199999999997,11.2146 6.155999999999999,11.2215 6.1762000000000015,11.2197 6.1987999999999985,11.212200000000001 6.206600000000002,11.204500000000001 6.214399999999998,11.1927 6.2194999999999965,11.1808 6.219999999999999,11.1737 6.225000000000001,11.1694 6.2316999999999965,11.1694 6.237099999999998,11.1671 6.236699999999999,11.161900000000001 6.238599999999998,11.1569 6.237000000000002,11.1488 6.230800000000002,11.1415 6.229999999999997,11.1204 6.226399999999998,11.1128 6.215200000000003,11.0973 6.207000000000001,11.0943 6.213000000000001,11.084 6.217599999999997,11.0794 6.2194999999999965,11.055 6.222700000000003,11.044500000000001 6.2303,11.032 6.238300000000002,11.0128 6.2453,11.0065 6.248199999999997,10.993500000000001 6.2592,10.9943 6.274299999999997,11.003400000000001 6.288699999999999,11.0059 6.291400000000003,11.011800000000001 6.299300000000002,11.0126 6.299599999999998,11.019400000000001 6.296399999999998,11.025400000000001 6.296199999999999,11.0374 6.313299999999998,11.0388 6.318399999999997,11.0431 6.321800000000003,11.0512 6.316299999999998,11.054 6.320900000000002,11.0602 6.314799999999998,11.061 6.312800000000003,11.067 6.3123000000000005,11.0801 6.328499999999998,11.0816 6.322000000000003,11.0936 6.322499999999998,11.0995 6.338500000000003,11.1125 6.3519000000000005,11.106200000000001 6.363199999999999,11.0975 6.369599999999998,11.0958 6.367899999999999,11.101 6.363100000000003,11.107000000000001 6.363300000000002,11.113 6.367100000000001,11.119900000000001 6.366199999999999,11.1278 6.363100000000003,11.135200000000001 6.367199999999997,11.1395 6.382100000000001,11.137 6.3969999999999985,11.1394 6.4106999999999985,11.132200000000001 6.426699999999997,11.1319 6.427599999999998,11.1256 6.4339999999999975,11.1205 6.451799999999999,11.1281 6.450600000000001,11.1121 6.455599999999997,11.1084 6.4604,11.1142 6.467799999999997,11.1168 6.466299999999997,11.1096 6.4694999999999965,11.1056 6.4711,11.0995 6.483600000000003,11.1026 6.491599999999998,11.110100000000001 6.498899999999999,11.145 6.492899999999999,11.1656 6.4902000000000015,11.1837 6.476300000000002,11.1988 6.475999999999999,11.2048 6.488599999999998,11.2262 6.485100000000003,11.2414 6.486899999999999,11.246500000000001 6.495600000000003,11.2555 6.501199999999997,11.2782 6.508499999999998,11.273 6.514299999999999,11.2783 6.535899999999998,11.2707 6.573700000000002,11.2711 6.589700000000001,11.263300000000001 6.604300000000002,11.2483 6.621200000000002,11.2371 6.627299999999998,11.21 6.636200000000002,11.1996 6.655900000000003,11.191 6.664999999999999,11.1934 6.6723,11.189400000000001 6.6788000000000025,11.190000000000001 6.695300000000003,11.170200000000001 6.697499999999998,11.1632 6.707799999999999,11.1526 6.713700000000003,11.1529 6.7273,11.148 6.748800000000003,11.1464 6.765300000000003,11.142000000000001 6.767000000000003,11.134400000000001 6.773000000000003,11.128300000000001 6.783900000000003,11.112300000000001 6.789999999999999,11.1075 6.7911,11.1014 6.799500000000002,11.1004 6.805199999999999,11.0946 6.811700000000002,11.0836 6.8185,11.0802 6.824199999999998,11.0813 6.829799999999999,11.0861 6.8399,11.0806 6.845300000000002,11.075700000000001 6.8551,11.0732 6.8603999999999985,11.067 6.871099999999998,11.0631 6.878300000000003,11.0533 6.889000000000003,11.0448 6.893700000000003,11.0371 6.9099,11.0241 6.922199999999997,11.0162 6.936999999999998,11.0099 6.9483999999999995,11.011800000000001 6.956499999999998,11.0191 6.969900000000003,11.0275 6.969999999999999,11.0328 6.979399999999998,11.042 6.9827999999999975,11.0335 7.0086999999999975,11.0408 7.0538000000000025,11.0881 7.0737999999999985,11.0952 7.087600000000002,11.0915 7.138399999999997,11.099300000000001 7.2211,11.0798 7.267000000000003,11.0545 7.329500000000003,11.0252 7.383200000000002,10.9909 7.442999999999998,10.9647 7.5441,10.9026 7.649000000000001,10.8306 7.8352,10.6853 8.0141,10.5337 8.075800000000001,10.479700000000001 8.167099999999998,10.390600000000001 8.214399999999998,10.348700000000001 8.248899999999999,10.3139 8.289299999999997,10.2635 8.312199999999997,10.2315 8.377000000000002,10.171100000000001 8.438200000000002,10.120700000000001 8.4801,10.081900000000001 8.5766,9.9869 8.610199999999999,9.9487 8.735799999999998,9.8324 8.7849,9.7765 8.877200000000002,9.690800000000001 8.929000000000002,9.6304 8.9711,9.5844 8.996299999999998,9.536100000000001 9.008699999999997,9.5219 9.041200000000003,9.4565 9.048699999999997,9.4443 9.093899999999998,9.3947 9.094900000000003,9.3846 9.112000000000002,9.3652 9.1342,9.347100000000001 9.194499999999998,9.273100000000001 9.217500000000001,9.2416 9.240900000000003,9.216800000000001 9.278799999999997,9.1576 9.3082,9.1224 9.333799999999997,9.0807 9.339500000000001,9.0653 9.353299999999997,9.046100000000001 9.335500000000003,9.004 9.317799999999998,8.9885 9.310000000000002,8.9707 9.293399999999998,8.9468 9.279800000000002,8.9177 9.264699999999998,8.8904 9.242800000000003,8.8619 9.227800000000002,8.8362 9.209699999999998,8.8141 9.197600000000001,8.808300000000001 9.178899999999999,8.777800000000001 9.122599999999998,8.708300000000001 9.110100000000003,8.6958 9.0882,8.6656 9.0766,8.6414 9.039200000000001,8.5806 8.995399999999997,8.4968 8.978700000000003,8.471300000000001 8.962800000000001,8.4574 8.9407,8.4255 8.878599999999999,8.3994 8.873399999999997,8.370000000000001 8.864899999999999,8.363900000000001 8.858400000000003,8.3535 8.814300000000003,8.339400000000001 8.780000000000001,8.2386 8.780000000000001,8.2215 8.7639,8.1636 8.7639,8.1508 8.746699999999997,8.1079 8.746699999999997,8.0939 8.772599999999997,7.9689 8.771099999999997,7.9238 8.775399999999998,7.886800000000001 8.766100000000002,7.7079 8.762300000000003,7.686200000000001 8.759700000000002,7.6051 8.753300000000003,7.596400000000001 8.7502,7.5877 8.753599999999999,7.574 8.7725,7.569800000000001 8.778799999999997,7.5593 8.8061,7.5572 8.858600000000003,7.5456 8.903799999999997,7.5383 8.9028,7.5152 8.914299999999997,7.5099 8.924799999999998,7.5099 8.938499999999998,7.5257000000000005 8.965800000000002,7.5152 8.991,7.5215 9.033000000000001,7.522500000000001 9.043500000000002,7.555100000000001 9.064500000000002,7.5519 9.111800000000002,7.5708 9.159100000000002,7.5677 9.169600000000003,7.555100000000001 9.192700000000002,7.5593 9.241,7.563500000000001 9.268299999999996,7.580300000000001 9.297699999999999,7.580300000000001 9.318800000000003,7.5845 9.347099999999998,7.585600000000001 9.393299999999996,7.569800000000001 9.431199999999997,7.591900000000001 9.4728,7.633100000000001 9.579300000000003,7.6549 9.625300000000003,7.6745 9.649700000000003,7.6538 9.672800000000002,7.639100000000001 9.719999999999999,7.657 9.735799999999998,7.649600000000001 9.759999999999998,7.608700000000001 9.7558,7.571900000000001 9.818800000000003,7.558200000000001 9.934600000000003,7.567500000000001 9.9315,7.5595 9.895499999999998,7.525400000000001 9.795000000000002,7.3932 9.766199999999998,7.3354 9.7393,7.287100000000001 9.720100000000002,7.261700000000001 9.705399999999997,7.2202 9.703200000000002,7.175800000000001 9.714500000000001,7.1324000000000005 9.734900000000003,7.0998 9.748199999999997,7.050800000000001 9.774099999999997,7.0059000000000005 9.784199999999998,6.959900000000001 9.802999999999997,6.916 9.817900000000002,6.892100000000001 9.838299999999997,6.867700000000001 9.854500000000002,6.8268 9.882199999999997,6.787600000000001 9.965200000000003,6.700000000000001 9.968800000000002,6.691000000000001 9.992399999999996,6.681700000000001 10.003,6.6706 10.010599999999997,6.6585 10.019799999999996,6.649000000000001 10.024700000000003,6.6385000000000005 10.039200000000001,6.6228 10.0505,6.6045 10.061500000000002,6.5977 10.0642,6.578800000000001 10.0766,6.556100000000001 10.079500000000003,6.540000000000001 10.090699999999998,6.536100000000001 10.096800000000002,6.522600000000001 10.134900000000002,6.514800000000001 10.141300000000001,6.505600000000001 10.156799999999997,6.5013000000000005 10.165799999999997,6.488900000000001 10.1982,6.4816 10.2119,6.4732 10.220799999999997,6.4594000000000005 10.229999999999997,6.4498999999999995 10.236400000000003,6.4407 10.249899999999997,6.429400000000001 10.2481,6.392200000000001 10.254600000000003,6.384400000000001 10.262099999999997,6.370800000000001 10.2635,6.3535 10.272599999999997,6.342600000000001 10.2727,6.326700000000001 10.270600000000002,6.318300000000001 10.273499999999999,6.302200000000001 10.285699999999999,6.293900000000001 10.287399999999998,6.279400000000001 10.296500000000002,6.2684999999999995 10.299599999999998,6.2539 10.305500000000002,6.238900000000001 10.316299999999998,6.2308 10.334299999999999,6.206100000000001 10.343600000000002,6.1966 10.3549,6.1783 10.3538,6.1655 10.3662,6.1586 10.3778,6.1432 10.386499999999998,6.1266 10.4039,6.112 10.414000000000001,6.078100000000001 10.445799999999998,6.058300000000001 10.4542,6.048300000000001 10.4647,6.0417000000000005 10.481000000000002,6.0365 10.490900000000003,6.022600000000001 10.4953,6.0093 10.532800000000002,6.0067 10.544800000000002,6.0021 10.552599999999998,5.9908 10.568100000000001,5.985900000000001 10.579900000000002,5.9795 10.595999999999997,5.962100000000001 10.622999999999998,5.9473 10.627299999999998,5.936300000000001 10.6522,5.918200000000001 10.665300000000002,5.9064 10.680700000000002,5.8803 10.708100000000002,5.870700000000001 10.723100000000002,5.8605 10.734299999999998,5.847100000000001 10.759599999999999,5.8325 10.768999999999998,5.8193 10.802500000000002,5.798500000000001 10.8414,5.757900000000001 10.864800000000002,5.743400000000001 10.882599999999996,5.7242 10.910800000000002,5.703900000000001 10.957,5.6662 10.973999999999997,5.638200000000001 11.0013,5.6317 11.0169,5.6257 11.0338,5.6080000000000005 11.0516,5.599400000000001 11.0597,5.587100000000001 11.119999999999997,5.5631 11.154899999999998,5.539200000000001 12.619300000000003,5.0441 13.734299999999998,4.6715 13.997799999999998,4.5863 14.956699999999998,4.613800000000001 13.802100000000003,3.4045 13.175699999999999,2.7546000000000004 13.1203,2.6912 12.943800000000003,2.5109 12.896900000000002,2.4581000000000004 12.666699999999999,2.2235 12.078600000000002,1.6122999999999998 12.0002,1.5333999999999999 11.9606,1.5200999999999998 11.901699999999998,1.5139 11.825499999999998,1.5138000000000003 11.729799999999997,1.5196 11.676699999999997,1.5143 11.624899999999997,1.5234999999999999 11.545499999999997,1.5223999999999998 11.381799999999998,1.5375999999999999 11.305399999999999,1.5372999999999997 11.1997,1.5397000000000003 11.148600000000002,1.5469000000000004 11.121400000000001,1.5444999999999998 11.076300000000003,1.5363000000000002 11.027500000000003,1.5409000000000002 10.892200000000003,1.5139999999999998 10.862400000000001,1.5117999999999996 10.842300000000002,1.5063 10.8048,1.4999999999999996 10.7864,1.4868999999999999 10.754199999999997,1.4849999999999999 10.711399999999998,1.4742000000000002 10.6811,1.4647000000000001 10.620800000000003,1.4506000000000001 10.610599999999998,1.4465999999999997 10.598100000000002,1.4453 10.578000000000003,1.4397999999999995 10.567599999999999,1.4332999999999996 10.5503,1.4324999999999997 10.5244,1.4176999999999995 10.509099999999997,1.4117000000000002 10.486699999999999,1.4088999999999996 10.454099999999997,1.4019999999999997 10.425899999999999,1.3899000000000004 10.396,1.3852999999999995 10.3827,1.3741999999999996 10.372500000000002,1.3702 10.354999999999997,1.3668999999999998 10.351700000000001,1.3573999999999997 10.3232,1.3402999999999996 10.305700000000002,1.3370000000000002 10.2851,1.3265999999999996 10.268900000000002,1.3108999999999997 10.2485,1.3030000000000004 10.228000000000002,1.2925999999999997 10.199399999999997,1.2754999999999996 10.161099999999998,1.2593999999999999 10.150100000000002,1.2456999999999998 10.108199999999997,1.2174999999999998 10.081699999999998,1.1953999999999998 10.065600000000003,1.1797 10.031500000000001,1.1557999999999997 10.025199999999998,1.1390999999999996 10.011299999999999,1.1206999999999998 10.006099999999996,1.0892000000000004 9.989600000000003,1.0685999999999996 9.971800000000002,1.0333999999999999 9.9561,1.0224999999999995 9.9465,0.9964 9.9148,0.9722000000000004 9.901200000000003,0.9563000000000001 9.887900000000002,0.9452000000000003 9.872399999999999,0.9368000000000003 9.858899999999998,0.9232999999999998 9.8275,0.9015999999999997 9.8138,0.8855999999999997 9.800800000000002,0.8770000000000002 9.775500000000001,0.8694999999999999 9.7543,0.8518000000000003 9.729,0.8443 9.713299999999997,0.8333999999999997 9.6905,0.8256999999999999 9.650599999999997,0.8195999999999999 9.637300000000003,0.8085 9.610399999999998,0.8110000000000004 9.594700000000003,0.8001 9.572699999999998,0.8021999999999996 9.544400000000003,0.7875999999999999 9.517499999999998,0.7899999999999996 9.434399999999997,0.7681999999999998 9.3947,0.7644999999999995 9.3431,0.7668000000000004 9.303400000000003,0.7631000000000001 9.202399999999997,0.7626000000000004 9.156500000000001,0.7447000000000004 9.113700000000001,0.7338999999999998 9.076700000000002,0.7323999999999997 9.055900000000001,0.7196000000000002 9.040599999999998,0.7136 9.0122,0.6990000000000003 9.003900000000002,0.6874999999999996 8.993099999999998,0.6762000000000001 8.981000000000002,0.6503000000000001 8.970599999999997,0.6438999999999999 8.957299999999996,0.6328 8.936500000000002,0.6198999999999999 8.9253,0.6038000000000001 8.912399999999998,0.5975999999999999 8.8992,0.5865 8.882100000000001,0.5880999999999998 8.857399999999998,0.5878999999999999 8.842100000000002,0.5819000000000001 8.7973,0.5762 8.765799999999999,0.5815999999999999 8.750500000000002,0.5756999999999999 8.722999999999999,0.5707999999999998 8.696100000000001,0.5733000000000001 8.675899999999999,0.5678000000000001 8.651299999999999,0.5676000000000001 8.576900000000002,0.5621999999999998 8.554299999999998,0.5569000000000002 8.4957,0.5623 8.470599999999997,0.5573000000000001 8.4315,0.5609000000000002 8.377099999999999,0.5585 8.3305,0.5604 8.286499999999997,0.5644999999999998 8.2136,0.5760999999999998 8.190199999999997,0.5611000000000002 8.1706,0.5629 8.144799999999996,0.5775999999999999 8.111199999999997,0.5880999999999998 8.099800000000002,0.5989 8.055500000000002,0.6275999999999997 8.040300000000002,0.6511999999999998 8.024000000000001,0.6625000000000001 8.005699999999997,0.6789999999999998 7.979900000000001,0.6937000000000002 7.953099999999999,0.7257000000000002 7.935400000000001,0.7494999999999998 7.8795,0.7865999999999995 7.824800000000003,0.8383999999999996 7.804099999999998,0.8550999999999997 7.790700000000001,0.8710999999999998 7.773699999999998,0.8783999999999996 7.757100000000001,0.8698000000000001 7.742399999999996,0.8592 7.7196,0.8466 7.704500000000003,0.8442000000000003 7.685600000000001,0.8322999999999996 7.668900000000001,0.8306 7.647500000000001,0.8222999999999998 7.438099999999999,0.7353000000000001 7.398299999999999,0.7170999999999998 7.383099999999999,0.7021999999999999 7.371099999999998,0.7037 7.229399999999998,0.6474999999999995 7.189300000000003,0.6373000000000002 7.124899999999997,0.6035999999999997 7.1175,0.5975000000000001 7.1051,0.5907999999999998 7.016599999999997,0.5486 6.8603999999999985,0.46530000000000005 6.852800000000002,0.4474 6.835099999999997,0.41449999999999987 6.769500000000001,0.26960000000000006 6.704900000000002,0.20589999999999975 6.615000000000002,0.11370000000000013 6.607500000000002,0.10380000000000011 6.580399999999997,0.07929999999999993 6.5771000000000015,0.07379999999999987 6.563200000000002,0.02729999999999988 6.557400000000001,0.013599999999999834 6.542400000000001,0.0026999999999999247 6.5259,0.0 6.5146000000000015,0.005599999999999827 6.510100000000001,0.011600000000000055 6.496899999999997,0.05500000000000016 6.492199999999997,0.058699999999999974 6.484499999999997,0.060699999999999754 6.466000000000001,0.05779999999999985 6.422199999999997,0.05830000000000002 6.414099999999998,0.06349999999999989 6.4041,0.06579999999999986 6.331099999999999,0.06740000000000013 6.327599999999997,0.0737000000000001 6.326900000000002,0.07940000000000014 6.2973,0.07810000000000006 6.278399999999998,0.07410000000000005 6.198999999999998,0.08029999999999982 6.133400000000002,0.11180000000000012 6.104999999999997,0.12029999999999985 6.0914,0.13519999999999976 6.0793000000000035,0.13980000000000015 6.0642,0.12909999999999977 6.0452999999999975,0.12270000000000003 6.029899999999998,0.12570000000000014 6.0227,0.12309999999999999 6.013800000000003,0.11399999999999988 6.0001999999999995,0.1221000000000001 5.9816999999999965,0.12150000000000016 5.961199999999998,0.12939999999999996 5.945399999999999,0.11410000000000009 5.906100000000002,0.1109 5.894399999999997,0.1126999999999998 5.855400000000003,0.1271 5.834800000000001,0.133 5.827399999999997,0.13339999999999996 5.710900000000002,0.17030000000000012 5.7043000000000035,0.18369999999999997 5.689100000000003,0.2048000000000001 5.682000000000002,0.21850000000000014 5.676400000000001,0.22270000000000012 5.668900000000001,0.22100000000000009 5.667699999999996,0.21589999999999998 5.6691,0.21039999999999992 5.667099999999998,0.20500000000000007 5.660899999999998,0.19609999999999994 5.653700000000001,0.19519999999999982 5.608899999999998,0.20500000000000007 5.6081999999999965,0.21229999999999993 5.5946,0.20569999999999977 5.570900000000002,0.20460000000000012 5.566699999999997,0.20799999999999974 5.551699999999997,0.2138 5.549799999999998,0.21870000000000012 5.5504999999999995,0.2246999999999999 5.542400000000001,0.24019999999999975 5.531300000000002,0.2538999999999998 5.512099999999997,0.24819999999999975 5.5154,0.2410000000000001 5.515900000000002,0.22750000000000004 5.474699999999999,0.21209999999999996 5.4472999999999985,0.2277 5.435699999999997,0.20250000000000012 "></polygon>
    </svg>
    