
    <svg width="2.9359000000000037" height="3.6223000000000005" xmlns="http://www.w3.org/2000/svg" xmlns:xlink="http://www.w3.org/1999/xlink" style="transform: scale(1, -1)">
        <polygon points="1.2368000000000023,0.16500000000000004 1.1807000000000016,0.14650000000000007 1.1666000000000025,0.14430000000000032 1.1450999999999993,0.1452 1.1200000000000045,0.1575000000000002 1.0967000000000056,0.19090000000000007 1.0814000000000021,0.20290000000000008 1.0707000000000022,0.20500000000000007 1.0572000000000017,0.20340000000000025 1.0427999999999997,0.1979000000000002 1.0208000000000013,0.18440000000000012 0.9988000000000028,0.17759999999999998 0.9751000000000047,0.17440000000000033 0.9616000000000042,0.16880000000000006 0.9395999999999987,0.16300000000000026 0.9019000000000048,0.16310000000000002 0.8633000000000024,0.15739999999999998 0.8481999999999985,0.1597000000000004 0.839500000000001,0.16270000000000007 0.8216999999999999,0.1727000000000003 0.7950000000000017,0.19320000000000004 0.7893000000000043,0.20240000000000036 0.7809000000000026,0.2240000000000002 0.777700000000003,0.2280000000000002 0.7663000000000011,0.2360000000000002 0.7528000000000006,0.23650000000000038 0.744800000000005,0.23220000000000018 0.7324000000000055,0.2182000000000004 0.7291999999999987,0.20230000000000015 0.7291999999999987,0.19450000000000012 0.7239000000000004,0.18900000000000006 0.7124999999999986,0.1860000000000004 0.6831999999999994,0.1865000000000001 0.6658000000000044,0.18150000000000022 0.6324000000000041,0.15580000000000016 0.6281000000000034,0.15770000000000017 0.6201000000000008,0.16990000000000016 0.605400000000003,0.16690000000000005 0.5990000000000038,0.16000000000000014 0.5974000000000004,0.1543000000000001 0.5981000000000023,0.13170000000000037 0.5956000000000046,0.12300000000000022 0.5823000000000036,0.10830000000000028 0.5667000000000044,0.10070000000000023 0.5544000000000011,0.09800000000000031 0.5366,0.09020000000000028 0.5242000000000004,0.07760000000000034 0.5108000000000033,0.07110000000000039 0.5065999999999988,0.07030000000000003 0.5009000000000015,0.07210000000000027 0.4901000000000053,0.07860000000000023 0.4814000000000007,0.07860000000000023 0.472999999999999,0.07580000000000009 0.4643000000000015,0.0697000000000001 0.45700000000000074,0.0625 0.4498999999999995,0.04120000000000035 0.44660000000000366,0.026000000000000245 0.4405000000000001,0.011500000000000288 0.4316999999999993,0.00019999999999997797 0.42790000000000106,0.0 0.4169000000000054,0.008800000000000363 0.406400000000005,0.010900000000000354 0.38810000000000144,0.011600000000000055 0.3762000000000043,0.024700000000000166 0.36830000000000496,0.044500000000000206 0.36070000000000135,0.05049999999999999 0.35300000000000153,0.05190000000000028 0.3399000000000001,0.05030000000000001 0.26950000000000074,0.028300000000000214 0.25330000000000297,0.02770000000000028 0.22820000000000107,0.030700000000000394 0.2097000000000051,0.03510000000000035 0.2032999999999987,0.04059999999999997 0.19660000000000366,0.05510000000000037 0.1833999999999989,0.06230000000000002 0.18180000000000263,0.06620000000000026 0.1811000000000007,0.07740000000000036 0.16949999999999932,0.0878000000000001 0.13269999999999982,0.08580000000000032 0.11670000000000158,0.08990000000000009 0.08539999999999992,0.09410000000000007 0.07209999999999894,0.0990000000000002 0.048799999999999955,0.1282000000000001 0.04019999999999868,0.13400000000000034 0.029000000000003467,0.13610000000000033 0.026000000000003354,0.1384000000000003 0.008800000000000807,0.14110000000000023 0.001100000000000989,0.14780000000000015 0.0,0.15310000000000024 0.004300000000000637,0.16090000000000027 0.024200000000000443,0.16200000000000037 0.025400000000004752,0.16430000000000033 0.023800000000001376,0.16920000000000002 0.016100000000001558,0.1748000000000003 0.019000000000005457,0.17840000000000034 0.051400000000001,0.1806000000000001 0.06400000000000006,0.18800000000000017 0.06880000000000308,0.19350000000000023 0.073599999999999,0.1958000000000002 0.08500000000000085,0.1958000000000002 0.091700000000003,0.19779999999999998 0.10880000000000223,0.21160000000000023 0.11070000000000135,0.21690000000000031 0.10820000000000363,0.22470000000000034 0.09720000000000084,0.23950000000000005 0.09609999999999985,0.25950000000000006 0.09720000000000084,0.2942 0.10000000000000142,0.3062 0.10370000000000346,0.3098000000000001 0.11650000000000205,0.30710000000000015 0.12510000000000332,0.31140000000000034 0.14339999999999975,0.33850000000000025 0.154200000000003,0.34450000000000003 0.15500000000000114,0.3522000000000003 0.17900000000000205,0.37070000000000025 0.1844999999999999,0.3794000000000004 0.19790000000000418,0.4155000000000002 0.19600000000000506,0.4304000000000001 0.19730000000000558,0.4335 0.20750000000000313,0.4400000000000004 0.21160000000000423,0.4460000000000002 0.2184999999999988,0.4700000000000002 0.2225999999999999,0.4798 0.22820000000000107,0.4859 0.22420000000000329,0.4980000000000002 0.22520000000000095,0.5003000000000002 0.2430000000000021,0.5231000000000003 0.2617000000000047,0.5418000000000003 0.2687000000000026,0.5551000000000004 0.27600000000000335,0.5822000000000003 0.2799000000000049,0.5895000000000001 0.2856000000000023,0.5938000000000003 0.28950000000000387,0.6003000000000003 0.29749999999999943,0.6036000000000001 0.3066999999999993,0.6175000000000002 0.31289999999999907,0.6235000000000004 0.3211000000000013,0.6275000000000004 0.3200000000000003,0.6318000000000001 0.3213000000000008,0.6360000000000001 0.32500000000000284,0.6348000000000003 0.3277000000000001,0.6358000000000001 0.3348000000000013,0.6480000000000001 0.3352000000000004,0.6578000000000004 0.3376000000000019,0.6640000000000001 0.3436000000000021,0.6717 0.34029999999999916,0.6831 0.3423000000000016,0.6907000000000001 0.34080000000000155,0.6984000000000004 0.3422000000000054,0.7029000000000001 0.3453000000000017,0.7054 0.351700000000001,0.7059000000000002 0.35770000000000124,0.7086000000000001 0.36480000000000246,0.7274000000000003 0.36480000000000246,0.7303000000000002 0.3611000000000004,0.7353000000000001 0.35430000000000206,0.7361 0.35010000000000474,0.7390000000000003 0.3487000000000009,0.7464000000000004 0.34969999999999857,0.7537000000000003 0.3574000000000055,0.7753000000000001 0.35719999999999885,0.7833000000000001 0.35490000000000066,0.7895000000000003 0.3569999999999993,0.7924000000000002 0.3621000000000052,0.7937000000000003 0.36660000000000537,0.7989000000000002 0.36950000000000216,0.8066 0.3691999999999993,0.8136000000000001 0.37190000000000367,0.8196000000000003 0.3696000000000055,0.8256000000000001 0.37409999999999854,0.8312000000000004 0.38240000000000407,0.8312000000000004 0.3838000000000008,0.8344 0.37989999999999924,0.8399000000000001 0.373899999999999,0.8412000000000002 0.3633999999999986,0.8498000000000001 0.35880000000000223,0.8612000000000002 0.3610000000000042,0.8680000000000003 0.36950000000000216,0.8726000000000003 0.37230000000000274,0.8784000000000001 0.3669000000000011,0.8929 0.3627000000000038,0.9111000000000002 0.35300000000000153,0.9266000000000001 0.3544000000000054,0.9334000000000002 0.3689999999999998,0.9447000000000001 0.36880000000000024,0.9498000000000002 0.36530000000000484,0.9596 0.3708000000000027,0.9687000000000001 0.3663999999999987,0.9857 0.3614000000000033,0.9956 0.3544000000000054,1.0012000000000003 0.347999999999999,1.0003000000000002 0.3429000000000002,0.9943000000000004 0.3387999999999991,0.9930000000000003 0.3334000000000046,0.9963000000000002 0.33160000000000167,1.0003000000000002 0.3346000000000018,1.0046000000000004 0.342800000000004,1.0098000000000003 0.3383000000000038,1.0139 0.3329000000000022,1.0148000000000001 0.3312999999999988,1.0183 0.33370000000000033,1.0222000000000002 0.339500000000001,1.0255 0.34499999999999886,1.0481000000000003 0.3521000000000001,1.0622000000000003 0.3488000000000042,1.0693000000000001 0.3505000000000038,1.0718 0.35379999999999967,1.0734000000000004 0.3686000000000007,1.0737 0.37120000000000175,1.0758 0.3768000000000029,1.0872000000000002 0.380900000000004,1.0906000000000002 0.39160000000000394,1.1102000000000003 0.39639999999999986,1.1226000000000003 0.41219999999999857,1.1367000000000003 0.4239000000000033,1.1532 0.4410999999999987,1.1635 0.4562000000000026,1.1656 0.46529999999999916,1.1702000000000004 0.4749000000000052,1.1803000000000003 0.4795000000000016,1.1911 0.48969999999999914,1.2311 0.491100000000003,1.2497000000000003 0.4943000000000026,1.2562000000000002 0.5100000000000051,1.2711000000000001 0.5189000000000021,1.2821000000000002 0.5277999999999992,1.2965 0.5301000000000045,1.3064 0.5290999999999997,1.3242000000000003 0.5381,1.3573000000000004 0.5419000000000054,1.4205 0.5465000000000018,1.4437000000000002 0.5508999999999986,1.4514 0.5598000000000027,1.4602000000000004 0.5643000000000029,1.4724000000000004 0.5633000000000052,1.4802000000000004 0.5556000000000054,1.4924000000000004 0.5502000000000038,1.5102000000000002 0.5404000000000053,1.5202 0.5313000000000017,1.5224000000000002 0.5157000000000025,1.5053 0.5056000000000012,1.5063 0.4976000000000056,1.5122 0.4924000000000035,1.5288000000000004 0.4772999999999996,1.5394 0.4642000000000053,1.5597000000000003 0.4661000000000044,1.5862000000000003 0.4528000000000034,1.6087000000000002 0.44190000000000396,1.6336000000000004 0.4188000000000045,1.6702000000000004 0.414200000000001,1.6744000000000003 0.40460000000000207,1.6753 0.36019999999999897,1.6754000000000002 0.34900000000000375,1.6807000000000003 0.3464999999999989,1.6881000000000004 0.34790000000000276,1.6966 0.3547000000000011,1.7099000000000002 0.3541000000000025,1.7191 0.3447000000000031,1.7258 0.3141999999999996,1.7351 0.30000000000000426,1.7461000000000002 0.29180000000000206,1.7604000000000002 0.2886000000000024,1.7698 0.2820000000000036,1.7800000000000002 0.27009999999999934,1.7890000000000001 0.2593000000000032,1.8005 0.2518000000000029,1.8122000000000003 0.24450000000000216,1.8290000000000002 0.2406000000000006,1.8564000000000003 0.2248000000000019,1.8834000000000004 0.21480000000000388,1.8930000000000002 0.19170000000000442,1.9025000000000003 0.1793000000000049,1.9175 0.17910000000000537,1.9288000000000003 0.1928000000000054,1.9487999999999999 0.19810000000000372,1.9593000000000003 0.20300000000000296,1.9851000000000005 0.2172000000000054,2.0028 0.22060000000000457,2.0143 0.21829999999999927,2.0201 0.20830000000000126,2.0279000000000003 0.194500000000005,2.0325 0.17900000000000205,2.0443000000000002 0.15810000000000457,2.0533000000000006 0.15259999999999962,2.0611 0.153100000000002,2.0765 0.16049999999999898,2.0986 0.16159999999999997,2.1122 0.1600000000000037,2.134 0.1518000000000015,2.158 0.15279999999999916,2.1939000000000006 0.15100000000000335,2.2043000000000004 0.1384000000000043,2.2314000000000003 0.12839999999999918,2.2361999999999997 0.12300000000000466,2.2443000000000004 0.1226000000000056,2.259 0.11230000000000473,2.2825 0.10950000000000415,2.2956 0.10820000000000363,2.3175000000000003 0.11120000000000374,2.3258000000000005 0.11120000000000374,2.3391000000000006 0.09540000000000504,2.3931999999999998 0.10190000000000055,2.4031 0.12010000000000076,2.4179 0.12490000000000379,2.4280000000000004 0.13040000000000163,2.4489000000000005 0.12859999999999872,2.4819999999999998 0.12330000000000041,2.4908000000000006 0.10840000000000316,2.5082 0.11230000000000473,2.5271000000000003 0.11730000000000018,2.5372 0.11460000000000292,2.5473000000000003 0.11350000000000193,2.5722 0.11710000000000065,2.5818 0.11619999999999919,2.5855 0.10249999999999915,2.5982 0.09880000000000422,2.5998000000000006 0.08920000000000528,2.5982 0.08160000000000167,2.6003000000000003 0.07540000000000191,2.6104 0.08210000000000406,2.655 0.07639999999999958,2.6806000000000005 0.07460000000000377,2.7163 0.07529999999999859,2.7372 0.06690000000000396,2.7676000000000003 0.06759999999999877,2.7749 0.07469999999999999,2.7841 0.08200000000000074,2.7991000000000006 0.09370000000000545,2.8096 0.0981000000000023,2.8195 0.0999000000000052,2.8331000000000004 0.09880000000000422,2.8510000000000004 0.10090000000000288,2.8674000000000004 0.1056999999999988,2.8851 0.12640000000000384,2.9375000000000004 0.13880000000000337,2.9577000000000004 0.1559999999999988,2.9688000000000003 0.16750000000000398,2.9844000000000004 0.17300000000000182,3.0023000000000004 0.1788000000000025,3.0094 0.18820000000000192,3.0149000000000004 0.19350000000000023,3.0281 0.21620000000000061,3.0694000000000004 0.24099999999999966,3.1108 0.268100000000004,3.1372000000000004 0.30760000000000076,3.1645 0.32620000000000005,3.1739 0.3381000000000043,3.1829000000000005 0.36129999999999995,3.2093000000000003 0.3663999999999987,3.2130000000000005 0.3888999999999996,3.2197999999999998 0.40109999999999957,3.2286000000000006 0.40570000000000306,3.2368 0.40910000000000224,3.2649000000000004 0.41510000000000247,3.2766000000000006 0.4450000000000003,3.3129000000000004 0.4650000000000034,3.3412 0.5050000000000026,3.3807000000000005 0.5176000000000016,3.3967000000000005 0.5273000000000039,3.4151000000000002 0.5316000000000045,3.4432000000000005 0.5302000000000007,3.4927000000000006 0.5380000000000038,3.4963 0.5423000000000044,3.5207 0.5466000000000051,3.5344 0.5531000000000006,3.5462000000000002 0.5628000000000029,3.5583000000000005 0.5667000000000044,3.5599000000000003 0.568400000000004,3.5588 0.5705000000000027,3.5641000000000003 0.5688000000000031,3.5686000000000004 0.5694000000000017,3.5815000000000006 0.5716000000000037,3.5869000000000004 0.5825000000000031,3.5987000000000005 0.5883000000000038,3.6142 0.5907000000000053,3.6167000000000002 0.5955000000000013,3.6178000000000003 0.6067000000000036,3.6181000000000005 0.6236000000000033,3.6139000000000006 0.6469000000000023,3.6042 0.689700000000002,3.6028 0.7028000000000034,3.6059000000000005 0.741100000000003,3.5973 0.7667000000000002,3.5839000000000003 0.7725000000000009,3.5789000000000004 0.7842000000000056,3.5739000000000005 0.792500000000004,3.5675000000000003 0.8128000000000029,3.5566999999999998 0.8233000000000033,3.5486999999999997 0.842800000000004,3.5398 0.8597000000000037,3.5287 0.8828000000000031,3.5195000000000003 0.8905999999999992,3.5184 0.8961000000000041,3.5142 0.9055999999999997,3.5128 0.9447000000000045,3.4937 0.9502999999999986,3.4934 0.9694000000000003,3.4861999999999997 0.9814000000000007,3.4773 0.9868999999999986,3.4762 0.993300000000005,3.4703000000000004 0.9953000000000003,3.4703000000000004 1.0,3.4662 1.0039000000000016,3.4656 1.0053000000000054,3.4625 1.0078000000000031,3.4631000000000003 1.0208000000000013,3.4539000000000004 1.0342000000000056,3.4476 1.0397000000000034,3.4470000000000005 1.0605000000000047,3.4398000000000004 1.0728000000000009,3.4337000000000004 1.0908000000000015,3.4312 1.1319000000000017,3.4331 1.1336000000000013,3.4348000000000005 1.1417000000000002,3.4342 1.1585999999999999,3.4284000000000003 1.1614000000000004,3.4292000000000002 1.1696999999999989,3.4267 1.1730000000000018,3.4239 1.1828000000000003,3.4212000000000002 1.2080000000000055,3.4170000000000003 1.2222000000000008,3.4101000000000004 1.240000000000002,3.4070000000000005 1.2608000000000033,3.4133999999999998 1.2617000000000047,3.4187 1.2542000000000044,3.4228 1.2563999999999993,3.4278 1.2619000000000042,3.4298000000000006 1.2622,3.4312 1.2667000000000002,3.4314000000000004 1.2685999999999993,3.4342 1.2758000000000038,3.4331 1.2767000000000053,3.4353000000000002 1.3096999999999994,3.4189000000000003 1.315800000000003,3.4175999999999997 1.3327999999999989,3.4081000000000006 1.3455000000000013,3.4048000000000003 1.3603000000000023,3.3975000000000004 1.3742000000000019,3.3945000000000003 1.3744000000000014,3.3923 1.3789000000000016,3.3898000000000006 1.3825000000000003,3.3909 1.3875000000000028,3.3876000000000004 1.3939000000000021,3.3867 1.3952999999999989,3.3842000000000003 1.3975000000000009,3.3848 1.3997000000000028,3.3826000000000005 1.4027999999999992,3.3826000000000005 1.406400000000005,3.3795000000000006 1.4108000000000018,3.3795000000000006 1.4114000000000004,3.3770000000000002 1.4139000000000053,3.3767 1.4161000000000001,3.3689000000000004 1.4211000000000027,3.3667000000000002 1.4228000000000023,3.3626 1.4325000000000045,3.3603 1.4410999999999987,3.35 1.4558000000000035,3.3437000000000006 1.4652999999999992,3.3364 1.467800000000004,3.3367 1.4881000000000029,3.3273000000000006 1.5127999999999986,3.3303 1.523299999999999,3.3292000000000006 1.541400000000003,3.3189000000000006 1.561399999999999,3.3142 1.581700000000005,3.3053000000000003 1.5850000000000009,3.3014000000000006 1.6108000000000047,3.2881000000000005 1.6253000000000029,3.2770000000000006 1.628300000000003,3.2773 1.6336000000000013,3.2726 1.647200000000005,3.2667000000000006 1.6469000000000023,3.2645000000000004 1.6527999999999992,3.2623 1.6619000000000028,3.2542000000000004 1.6689000000000007,3.2556 1.6788999999999987,3.2437 1.6803000000000026,3.2445 1.677500000000002,3.2489000000000003 1.6792000000000016,3.2520000000000002 1.6831000000000031,3.2542000000000004 1.6842000000000041,3.2520000000000002 1.6903000000000006,3.2489000000000003 1.6966999999999999,3.2431000000000005 1.6992000000000047,3.2389000000000006 1.6972000000000023,3.2345 1.6992000000000047,3.2361999999999997 1.7030999999999992,3.2351000000000005 1.710799999999999,3.2292 1.718900000000005,3.2197999999999998 1.7197000000000031,3.2162 1.7180999999999997,3.2131000000000003 1.7152999999999992,3.2106 1.7103000000000037,3.2117 1.7119,3.2098 1.7180999999999997,3.2084000000000006 1.7194000000000003,3.2067 1.721900000000005,3.2084000000000006 1.7250000000000014,3.2081000000000004 1.7280000000000015,3.2045 1.7372000000000014,3.2028000000000003 1.752200000000002,3.1917000000000004 1.7528000000000006,3.1856000000000004 1.7542000000000044,3.1862 1.754400000000004,3.1939000000000006 1.7614000000000019,3.1920000000000006 1.7625000000000028,3.1875000000000004 1.7675000000000054,3.1826000000000003 1.7668999999999997,3.1792000000000002 1.768100000000004,3.1778 1.7713999999999999,3.1787000000000005 1.7772000000000006,3.1703000000000006 1.778100000000002,3.1633999999999998 1.7805999999999997,3.1587 1.783300000000004,3.1559000000000004 1.7867000000000033,3.1575 1.790300000000002,3.1520000000000006 1.793600000000005,3.1509000000000005 1.7972000000000037,3.1401 1.7969000000000008,3.1312 1.8017000000000039,3.1262000000000003 1.8072000000000017,3.1259 1.8105000000000047,3.1239000000000003 1.8203000000000031,3.1087000000000002 1.826900000000002,3.1056000000000004 1.8308000000000035,3.1006000000000005 1.8364000000000047,3.0981 1.846900000000005,3.0892000000000004 1.8567000000000036,3.0853000000000006 1.8628,3.0789000000000004 1.8678000000000026,3.0775 1.8717000000000041,3.0734 1.8789000000000016,3.0739000000000005 1.8853000000000009,3.0581 1.9036000000000044,3.0381000000000005 1.9080000000000013,3.0351000000000004 1.9111000000000047,3.0353 1.9155000000000015,3.0314 1.9149999999999991,3.0292 1.9125000000000014,3.0309000000000004 1.909400000000005,3.0301000000000005 1.9047000000000054,3.0242 1.9057999999999993,3.0225000000000004 1.9108000000000018,3.0206000000000004 1.9181000000000026,3.0141000000000004 1.9250000000000043,3.0117 1.9292000000000016,3.0084000000000004 1.9325000000000045,3.0081 1.9450000000000003,2.9987 1.963000000000001,2.9758999999999998 1.966700000000003,2.9742 1.9699999999999989,2.9689 1.9806000000000026,2.9617 1.9861000000000004,2.9550000000000005 1.9992000000000019,2.9498 2.0039000000000016,2.9495 2.013600000000004,2.9448000000000003 2.0175000000000054,2.9409000000000005 2.0185999999999993,2.937 2.025500000000001,2.93 2.0342000000000056,2.9273000000000002 2.0408000000000044,2.9209 2.0427999999999997,2.9213999999999998 2.0442000000000036,2.9184000000000005 2.055500000000002,2.9114 2.0578000000000003,2.9139000000000004 2.0656000000000034,2.9059000000000004 2.063600000000001,2.9048000000000003 2.0641999999999996,2.9031 2.0686000000000035,2.9028000000000005 2.072500000000005,2.9001000000000006 2.072500000000005,2.8967000000000005 2.0800000000000054,2.8931 2.083600000000004,2.8856000000000006 2.093600000000002,2.8789000000000002 2.0977999999999994,2.8734000000000006 2.1019000000000005,2.8717 2.1033000000000044,2.8737 2.1075000000000017,2.8701000000000003 2.1078000000000046,2.8659000000000003 2.116900000000001,2.8664 2.1158,2.86 2.121700000000004,2.8567000000000005 2.1266999999999996,2.8581 2.1303000000000054,2.8512 2.1289000000000016,2.8467 2.1372,2.8417 2.1380000000000052,2.8387 2.139400000000002,2.8395000000000006 2.1417,2.8375 2.159400000000005,2.807 2.1758000000000024,2.7928 2.1861000000000033,2.7881000000000005 2.2013999999999996,2.7878000000000003 2.205300000000001,2.7923000000000004 2.2072000000000003,2.7986999999999997 2.2069000000000045,2.8039 2.203099999999999,2.8098000000000005 2.205300000000001,2.8109000000000006 2.205600000000004,2.8145000000000002 2.2135999999999996,2.8145000000000002 2.215600000000002,2.8153 2.215299999999999,2.8176 2.216700000000003,2.8159000000000005 2.2205000000000013,2.8173 2.222200000000001,2.8156000000000003 2.232199999999999,2.8228000000000004 2.2408,2.8226 2.242200000000004,2.8170000000000006 2.2480000000000047,2.8123 2.252500000000005,2.8112 2.2553000000000054,2.8137000000000003 2.2569000000000017,2.8131 2.2592,2.81 2.2575000000000003,2.8064000000000004 2.2592,2.8026000000000004 2.268100000000004,2.7973000000000003 2.2767000000000053,2.7883999999999998 2.2842000000000056,2.7837 2.2842000000000056,2.78 2.280300000000004,2.7812000000000006 2.2789,2.7792 2.279200000000003,2.7706000000000004 2.2882999999999996,2.7626000000000004 2.2956000000000003,2.7589 2.298000000000002,2.7495 2.320599999999999,2.7281 2.335000000000001,2.7258999999999998 2.337200000000003,2.7226000000000004 2.343600000000002,2.7201 2.348300000000002,2.7114 2.352499999999999,2.7078 2.3533000000000044,2.6995 2.3564000000000007,2.6989000000000005 2.3597000000000037,2.6948000000000003 2.3636000000000053,2.6931 2.3636000000000053,2.6973 2.364699999999999,2.6973 2.3686000000000007,2.6914000000000002 2.375300000000003,2.6917000000000004 2.376899999999999,2.6934 2.3819000000000017,2.6876 2.3872,2.6856000000000004 2.3911000000000016,2.6774999999999998 2.3911000000000016,2.6712000000000002 2.393100000000004,2.6673000000000004 2.3964,2.6637 2.4055999999999997,2.6592 2.408300000000004,2.6506000000000003 2.4089000000000027,2.6545 2.406100000000002,2.6626 2.4022000000000006,2.6656 2.4010999999999996,2.6703000000000006 2.4114000000000004,2.6651000000000002 2.4155000000000015,2.6595 2.419699999999999,2.6584 2.4200000000000017,2.6537 2.4181000000000026,2.6520000000000006 2.4211000000000027,2.6487000000000003 2.4222000000000037,2.6514 2.4247000000000014,2.6526 2.425600000000003,2.6506000000000003 2.430800000000005,2.6481 2.4355000000000047,2.6425000000000005 2.4336000000000055,2.6425000000000005 2.435300000000005,2.6381 2.4391999999999996,2.6387000000000005 2.4403000000000006,2.6345000000000005 2.445300000000003,2.6289000000000002 2.447500000000005,2.6281000000000003 2.445300000000003,2.6331 2.4421999999999997,2.6353000000000004 2.4438999999999993,2.637 2.4756,2.6145 2.4831000000000003,2.6134 2.4839000000000055,2.6109000000000004 2.491100000000003,2.6062 2.4941999999999993,2.6062 2.5046999999999997,2.6006000000000005 2.5058000000000007,2.5978 2.507800000000003,2.5995000000000004 2.5119000000000042,2.5987000000000005 2.5122,2.5962 2.5138999999999996,2.5956000000000006 2.5119000000000042,2.5945000000000005 2.5150000000000006,2.5928 2.517800000000001,2.587 2.515599999999999,2.5853000000000006 2.5130000000000052,2.5873000000000004 2.515599999999999,2.5834000000000006 2.525500000000001,2.5803 2.5305999999999997,2.5739000000000005 2.5317000000000007,2.5762000000000005 2.5330000000000013,2.5753 2.533300000000004,2.5706 2.535800000000002,2.5695 2.5382999999999996,2.5645000000000002 2.5397000000000034,2.5548000000000006 2.542200000000001,2.5503000000000005 2.5464000000000055,2.5501 2.542200000000001,2.5480000000000005 2.5426,2.547 2.5538999999999987,2.539 2.5731000000000037,2.5265 2.6068,2.5245 2.630600000000001,2.5395 2.6356000000000037,2.5473000000000003 2.6464,2.5481000000000003 2.6469000000000023,2.5462000000000002 2.6510999999999996,2.5451 2.657499999999999,2.5453000000000006 2.6736000000000004,2.5383999999999998 2.674199999999999,2.5353 2.6816999999999993,2.5337 2.683100000000003,2.5301000000000005 2.6875,2.5292 2.6967,2.5226 2.7013999999999996,2.5214000000000003 2.7043999999999997,2.5173 2.7117000000000004,2.5125000000000006 2.7158000000000015,2.5062 2.7231000000000023,2.5023000000000004 2.7211,2.4987 2.727499999999999,2.4939000000000004 2.7347000000000037,2.4917000000000002 2.7342000000000013,2.4887 2.7424999999999997,2.4767000000000006 2.7464000000000013,2.4737000000000005 2.7441999999999993,2.4792 2.7447000000000017,2.4800999999999997 2.7480000000000047,2.4758999999999998 2.753300000000003,2.4623000000000004 2.752200000000002,2.4614 2.7494000000000014,2.4645000000000006 2.750300000000003,2.4603000000000006 2.7542000000000044,2.4570000000000003 2.7546999999999997,2.4517 2.7583000000000055,2.4506 2.760300000000001,2.4470000000000005 2.7575000000000003,2.4364000000000003 2.7622,2.4253000000000005 2.7650000000000006,2.4062000000000006 2.7664000000000044,2.4053 2.7664000000000044,2.4001000000000006 2.7705000000000055,2.387 2.769200000000005,2.3831 2.7708000000000013,2.3681000000000005 2.769200000000005,2.3606000000000003 2.7728000000000037,2.3542 2.7714,2.3498000000000006 2.773600000000002,2.3434000000000004 2.781400000000005,2.3320000000000003 2.7867000000000033,2.3275 2.7889000000000053,2.3228000000000004 2.7964000000000055,2.3187 2.7939000000000007,2.3148000000000004 2.794400000000003,2.3101 2.7897000000000034,2.3076000000000003 2.7911,2.302 2.7889000000000053,2.2984000000000004 2.789999999999999,2.2909 2.794699999999999,2.2917 2.7939000000000007,2.2889000000000004 2.7972000000000037,2.2881000000000005 2.8049999999999997,2.2770000000000006 2.8208000000000055,2.2656000000000005 2.8263999999999996,2.2645000000000004 2.830300000000001,2.2595000000000005 2.8389000000000024,2.2612 2.8419000000000025,2.2673 2.848300000000002,2.2667000000000006 2.8507999999999996,2.2645000000000004 2.8489000000000004,2.257 2.8496999999999986,2.2534000000000005 2.844700000000003,2.2548 2.8364000000000047,2.2495 2.833600000000004,2.2459000000000002 2.8308000000000035,2.2359000000000004 2.8286000000000016,2.2351000000000005 2.8300000000000054,2.2328000000000006 2.826100000000004,2.2326 2.822800000000001,2.2245000000000004 2.823599999999999,2.2095 2.8353000000000037,2.1755999999999998 2.8432999999999993,2.1609000000000003 2.846900000000005,2.1587 2.8541999999999987,2.1462 2.859400000000001,2.1403000000000003 2.8633000000000024,2.14 2.864200000000004,2.1378 2.8622000000000014,2.1367 2.8622000000000014,2.1323000000000003 2.8656000000000006,2.1259 2.8725000000000023,2.1198 2.8778000000000006,2.1187 2.8811000000000035,2.1151000000000004 2.8825000000000003,2.1081 2.8847000000000023,2.1053 2.9359000000000037,2.1078000000000006 2.929300000000005,2.0656000000000003 2.9273999999999987,2.0637000000000003 2.9284999999999997,2.0457000000000005 2.924100000000003,2.031 2.9084000000000003,2.0014 2.9025999999999996,1.9867000000000004 2.897500000000001,1.9545 2.8840000000000003,1.9221 2.876400000000004,1.9125 2.8686000000000007,1.9083999999999999 2.8466000000000022,1.9026999999999998 2.8293999999999997,1.8946999999999998 2.8126000000000033,1.8828 2.788800000000002,1.8689 2.7708000000000013,1.8428 2.760400000000004,1.8207 2.7601000000000013,1.8028000000000004 2.7545,1.7773000000000003 2.7464000000000013,1.7608000000000001 2.725200000000001,1.7418 2.716000000000001,1.7285000000000004 2.7050000000000054,1.7178 2.7013000000000034,1.7164000000000001 2.666800000000002,1.6786000000000003 2.6484999999999985,1.6699000000000002 2.6308000000000007,1.6560000000000001 2.622,1.6523000000000003 2.6206999999999994,1.6451000000000002 2.6266999999999996,1.6177000000000001 2.6255999999999986,1.6061 2.6235,1.6026000000000002 2.6086000000000027,1.596 2.5914,1.5940000000000003 2.5834000000000046,1.5894000000000004 2.5727000000000046,1.5788000000000002 2.5589000000000013,1.5426000000000002 2.5534999999999997,1.5126000000000004 2.548500000000004,1.4941 2.528800000000004,1.4715000000000003 2.514800000000001,1.4591000000000003 2.4858000000000047,1.3989000000000003 2.485600000000005,1.3942 2.482600000000005,1.3903000000000003 2.4757999999999996,1.3866 2.470400000000005,1.3771 2.4598000000000013,1.3452000000000002 2.454900000000002,1.3378 2.4380000000000024,1.3229000000000002 2.425600000000003,1.3055000000000003 2.384900000000002,1.2372 2.3777000000000044,1.2198000000000002 2.3589000000000055,1.1980000000000004 2.355000000000004,1.1884000000000001 2.3556000000000026,1.1785 2.3496999999999986,1.1670000000000003 2.343900000000005,1.1618000000000004 2.3138000000000005,1.1219000000000001 2.3066999999999993,1.1187 2.3030000000000044,1.1187 2.2916000000000025,1.1256000000000004 2.287700000000001,1.125 2.2623000000000033,1.1078000000000001 2.2447000000000017,1.0740000000000003 2.2458000000000027,1.0519000000000003 2.233699999999999,1.052 2.2264000000000053,1.0497 2.216300000000004,1.0430000000000001 2.209299999999999,1.0268000000000002 2.201599999999999,1.0171000000000001 2.2080000000000055,1.0116 2.205600000000004,1.0092000000000003 2.1983999999999995,1.0085000000000002 2.195300000000003,1.0067000000000004 2.194099999999999,0.9988000000000001 2.203099999999999,0.9965000000000002 2.2054000000000045,0.9918 2.200099999999999,0.9806000000000004 2.2007000000000048,0.9748000000000001 2.203400000000002,0.9696000000000002 2.2149,0.9601000000000002 2.214500000000001,0.9464000000000001 2.2116000000000042,0.9351000000000003 2.194900000000004,0.9090000000000003 2.1914000000000016,0.9011 2.184600000000003,0.8925000000000001 2.1829000000000036,0.8820000000000001 2.1743999999999986,0.8677000000000001 2.1647999999999996,0.8291000000000004 2.1488000000000014,0.8163 2.1469000000000023,0.8029000000000002 2.1488000000000014,0.7921 2.1510999999999996,0.7909000000000002 2.158300000000004,0.7919 2.1610000000000014,0.7851000000000004 2.156800000000004,0.7782 2.1464,0.7695000000000003 2.143100000000004,0.7683 2.132000000000005,0.7685000000000004 2.128700000000002,0.7641 2.1225000000000023,0.7633000000000001 2.1140000000000043,0.7559 2.095100000000002,0.7221000000000002 2.060700000000004,0.6531000000000002 2.064399999999999,0.6438000000000001 2.0630999999999986,0.6393 2.057000000000002,0.6309 2.0596999999999994,0.6247000000000003 2.0493999999999986,0.6069 2.039500000000004,0.5938000000000003 2.0322999999999993,0.5744000000000002 2.0209000000000046,0.5557000000000003 2.011400000000002,0.5282 2.0080000000000027,0.5247000000000002 1.9960000000000022,0.5255000000000001 1.9898000000000025,0.5226000000000002 1.9870000000000019,0.5184000000000002 1.9853000000000023,0.5116 1.9864000000000033,0.5077000000000003 1.9971000000000032,0.4998 1.9973000000000027,0.4950000000000001 1.9928000000000026,0.48960000000000026 1.992200000000004,0.4863000000000004 1.9954999999999998,0.4810000000000003 2.002500000000005,0.47740000000000027 2.009300000000003,0.47040000000000015 2.011500000000005,0.46110000000000007 2.008200000000002,0.45230000000000015 2.0012000000000043,0.4421000000000004 1.9990000000000023,0.4326000000000003 1.9896999999999991,0.4359000000000002 1.983699999999999,0.4265000000000003 1.982600000000005,0.4126000000000003 1.9840000000000018,0.40920000000000023 1.9879000000000033,0.40890000000000004 1.989600000000003,0.4025000000000003 1.9871000000000052,0.3947000000000003 1.9616000000000042,0.3719000000000001 1.952300000000001,0.36190000000000033 1.9480000000000004,0.3530000000000002 1.9408999999999992,0.3453000000000004 1.9299000000000035,0.3466 1.9199000000000055,0.3397000000000001 1.9192999999999998,0.3376000000000001 1.9232000000000014,0.33430000000000026 1.9269000000000034,0.33370000000000033 1.9276000000000053,0.32889999999999997 1.9252000000000038,0.3209000000000004 1.9117000000000033,0.3174000000000001 1.9092000000000056,0.3145000000000002 1.9042999999999992,0.3165 1.9018000000000015,0.31590000000000007 1.8935999999999993,0.30230000000000024 1.8950999999999993,0.29720000000000013 1.8855000000000004,0.2833000000000001 1.8830000000000027,0.27590000000000003 1.8836000000000013,0.2674000000000003 1.8800000000000026,0.25680000000000014 1.8697000000000017,0.24670000000000014 1.8536000000000001,0.24409999999999998 1.842100000000002,0.24040000000000017 1.8277,0.23250000000000037 1.823599999999999,0.2269000000000001 1.8216000000000037,0.22070000000000034 1.813200000000002,0.21700000000000008 1.8078000000000003,0.21240000000000014 1.804700000000004,0.21340000000000003 1.7775999999999996,0.20020000000000016 1.772200000000005,0.19910000000000005 1.7679000000000045,0.1948000000000003 1.7608999999999995,0.19250000000000034 1.751100000000001,0.18150000000000022 1.7443000000000026,0.1796000000000002 1.736699999999999,0.1746000000000003 1.7169999999999987,0.17070000000000007 1.7135000000000034,0.16800000000000015 1.7045999999999992,0.16690000000000005 1.702300000000001,0.1614 1.7026000000000039,0.15800000000000036 1.689,0.15800000000000036 1.6870000000000047,0.15549999999999997 1.6898000000000053,0.14539999999999997 1.6865999999999985,0.13790000000000013 1.6718000000000046,0.13060000000000027 1.666800000000002,0.11620000000000008 1.6636999999999986,0.11220000000000008 1.6572999999999993,0.10860000000000003 1.656400000000005,0.0979000000000001 1.6540000000000035,0.09210000000000029 1.6450999999999993,0.0799000000000003 1.6405999999999992,0.06500000000000039 1.6371000000000038,0.0625 1.6318000000000055,0.06269999999999998 1.6225000000000023,0.06640000000000024 1.6163999999999987,0.06430000000000025 1.6063000000000045,0.06780000000000008 1.6034000000000006,0.06330000000000036 1.6059000000000054,0.057700000000000085 1.5989000000000004,0.05250000000000021 1.592100000000002,0.05040000000000022 1.5814000000000021,0.050200000000000244 1.555100000000003,0.042700000000000404 1.5411000000000001,0.05110000000000037 1.532900000000005,0.0517000000000003 1.519600000000004,0.057000000000000384 1.498899999999999,0.06000000000000005 1.4941999999999993,0.062200000000000255 1.4839000000000055,0.07030000000000003 1.4684000000000026,0.09460000000000024 1.4590000000000032,0.0972000000000004 1.4468999999999994,0.09770000000000012 1.4395999999999987,0.10099999999999998 1.4194999999999993,0.09760000000000035 1.4128000000000043,0.09920000000000018 1.4025000000000034,0.09740000000000038 1.3959000000000046,0.0940000000000003 1.3865000000000052,0.09600000000000009 1.382000000000005,0.09310000000000018 1.3659999999999997,0.09310000000000018 1.3541000000000025,0.09590000000000032 1.3440000000000012,0.10099999999999998 1.3160000000000025,0.14480000000000004 1.3049000000000035,0.15100000000000025 1.2863000000000042,0.15520000000000023 1.2690000000000055,0.16510000000000025 1.254400000000004,0.16680000000000028 1.2368000000000023,0.16500000000000004 "></polygon><polygon points="2.8111000000000033,2.3259000000000003 2.8061000000000007,2.3231000000000006 2.8038999999999987,2.3187 2.7983000000000047,2.3189000000000006 2.800600000000003,2.3212000000000006 2.801700000000004,2.3259000000000003 2.8083000000000027,2.3281000000000005 2.811399999999999,2.3278000000000003 2.8111000000000033,2.3259000000000003 "></polygon><polygon points="2.727800000000002,2.5001 2.7336000000000027,2.4962000000000004 2.7336000000000027,2.4956 2.7317000000000036,2.4953 2.7269000000000005,2.5001 2.724400000000003,2.4992000000000005 2.7250000000000014,2.5009 2.727800000000002,2.5001 "></polygon><polygon points="2.6836000000000055,2.5392000000000006 2.686399999999999,2.5387 2.686700000000002,2.5367 2.6811000000000007,2.5370000000000004 2.679400000000001,2.5400000000000005 2.6836000000000055,2.5392000000000006 "></polygon><polygon points="2.6064000000000007,2.6953 2.605000000000004,2.6948000000000003 2.603900000000003,2.6976 2.6064000000000007,2.6970000000000005 2.6064000000000007,2.6953 "></polygon><polygon points="2.3736000000000033,2.7584000000000004 2.3714000000000013,2.7575 2.370600000000003,2.7592000000000003 2.3733000000000004,2.7601 2.3736000000000033,2.7584000000000004 "></polygon><polygon points="2.3755999999999986,2.7612 2.377200000000002,2.7626000000000004 2.378300000000003,2.7626000000000004 2.376400000000004,2.7592000000000003 2.375,2.7592000000000003 2.3755999999999986,2.7612 "></polygon><polygon points="2.3618999999999986,2.7623 2.3599999999999994,2.7598 2.3567000000000036,2.7606000000000006 2.3522000000000034,2.7634000000000003 2.3514000000000053,2.7656000000000005 2.356900000000003,2.7645000000000004 2.3583,2.7659 2.3608000000000047,2.7651 2.3625000000000043,2.767 2.3618999999999986,2.7623 "></polygon><polygon points="2.3367000000000004,2.8042000000000002 2.3408000000000015,2.8017 2.3408000000000015,2.7967 2.338300000000004,2.7963999999999998 2.3364000000000047,2.7986999999999997 2.3353000000000037,2.8053000000000003 2.3367000000000004,2.8042000000000002 "></polygon><polygon points="2.2881,2.8314 2.2889000000000053,2.8323000000000005 2.2911,2.8328 2.289999999999999,2.8303 2.2881,2.8314 "></polygon><polygon points="0.6580000000000013,3.6223000000000005 0.679700000000004,3.6159000000000003 0.6978000000000009,3.6087000000000002 0.7000000000000028,3.6064000000000003 0.6778000000000048,3.6134 0.648299999999999,3.6120000000000005 0.6386000000000038,3.6153 0.6380000000000052,3.6187 0.6407999999999987,3.6220000000000003 0.6580000000000013,3.6223000000000005 "></polygon><polygon points="1.9600000000000009,3.1545 1.9633000000000038,3.1539000000000006 1.9633000000000038,3.1523 1.9577999999999989,3.1501000000000006 1.9569000000000045,3.1537 1.9600000000000009,3.1545 "></polygon><polygon points="1.9532999999999987,3.1603 1.9560999999999993,3.1603 1.9564000000000021,3.1562000000000006 1.9481000000000037,3.1578000000000004 1.9492000000000047,3.1609000000000003 1.9532999999999987,3.1603 "></polygon><polygon points="1.9622000000000028,3.1681000000000004 1.9619,3.1659 1.9560999999999993,3.1612000000000005 1.9583000000000013,3.1675999999999997 1.9622000000000028,3.1681000000000004 "></polygon><polygon points="1.5297000000000054,3.3331000000000004 1.5297000000000054,3.3320000000000003 1.5311000000000021,3.3289000000000004 1.525500000000001,3.3325 1.5297000000000054,3.3331000000000004 "></polygon>
    </svg>
    