
    <svg width="6.710300000000004" height="2.5459999999999994" xmlns="http://www.w3.org/2000/svg" xmlns:xlink="http://www.w3.org/1999/xlink" style="transform: scale(1, -1)">
        <polygon points="3.8884000000000043,0.12630000000000052 3.8751000000000033,0.1255000000000024 3.842100000000002,0.12780000000000058 3.8333999999999975,0.12700000000000244 3.811799999999998,0.11979999999999791 3.7779000000000025,0.10229999999999961 3.7657999999999987,0.0987000000000009 3.758800000000001,0.09440000000000026 3.7394000000000034,0.07509999999999906 3.733699999999999,0.07310000000000372 3.718600000000002,0.07529999999999859 3.6951000000000036,0.08339999999999748 3.6810000000000045,0.09270000000000067 3.6644000000000005,0.09969999999999857 3.655999999999999,0.09900000000000375 3.6414000000000044,0.09159999999999968 3.6255999999999986,0.08689999999999998 3.6022999999999996,0.0870000000000033 3.5634999999999977,0.10900000000000176 3.5545000000000044,0.11090000000000089 3.5302000000000007,0.1103999999999985 3.4791999999999987,0.09100000000000108 3.460000000000001,0.09100000000000108 3.4517999999999986,0.102800000000002 3.4444000000000017,0.12250000000000227 3.4399000000000015,0.12870000000000203 3.426099999999998,0.14090000000000202 3.3941000000000017,0.14970000000000283 3.3729999999999976,0.16100000000000136 3.363599999999998,0.16340000000000288 3.344300000000004,0.16270000000000095 3.263300000000001,0.143100000000004 3.2368999999999986,0.13889999999999958 3.2154000000000025,0.13759999999999906 3.2225000000000037,0.14880000000000138 3.220700000000001,0.154200000000003 3.1869999999999976,0.20900000000000318 3.1810000000000045,0.21359999999999957 3.164900000000003,0.21620000000000061 3.1422000000000025,0.20710000000000406 3.1204000000000036,0.21119999999999806 3.1128,0.215600000000002 3.1171000000000006,0.2190000000000012 3.1295,0.22449999999999903 3.148299999999999,0.22970000000000113 3.163800000000002,0.2364999999999995 3.1769000000000034,0.24660000000000082 3.1854000000000013,0.25090000000000146 3.186,0.25390000000000157 3.1899999999999977,0.25610000000000355 3.1918000000000006,0.2589000000000041 3.191200000000002,0.26190000000000424 3.187899999999999,0.2651000000000039 3.1737000000000037,0.2698999999999998 3.1488000000000014,0.27199999999999847 3.1439999999999984,0.27710000000000434 3.1185000000000045,0.27940000000000254 3.0904000000000025,0.3160999999999987 3.0551999999999992,0.33030000000000115 3.0360999999999976,0.3312999999999988 3.025500000000001,0.3365000000000009 3.0137,0.3398000000000039 2.9985,0.35880000000000223 2.9823999999999984,0.3686000000000007 2.978500000000004,0.373899999999999 2.9787999999999997,0.379800000000003 2.9731000000000023,0.388300000000001 2.9624000000000024,0.39520000000000266 2.9624000000000024,0.4076999999999984 2.958500000000001,0.4130000000000038 2.9339000000000013,0.41969999999999885 2.9202000000000012,0.4341000000000008 2.8933999999999997,0.442300000000003 2.891300000000001,0.4461999999999975 2.8922000000000025,0.45349999999999824 2.8909999999999982,0.46059999999999945 2.884300000000003,0.46520000000000294 2.8648000000000025,0.4643000000000015 2.8551,0.46059999999999945 2.850200000000001,0.44550000000000267 2.845100000000002,0.4367999999999981 2.8408000000000015,0.43430000000000035 2.8359999999999985,0.4341000000000008 2.8247,0.4421000000000035 2.819499999999998,0.44480000000000075 2.8115999999999985,0.4461999999999975 2.798500000000004,0.45420000000000016 2.7988,0.45989999999999753 2.7961000000000027,0.46470000000000056 2.783300000000004,0.4738000000000042 2.7824000000000026,0.4778999999999982 2.7866,0.4866000000000028 2.8008999999999986,0.49210000000000065 2.8096999999999994,0.49739999999999895 2.807299999999998,0.5191999999999979 2.8094000000000037,0.5219000000000023 2.821300000000001,0.5264999999999986 2.8277,0.5322000000000031 2.8252000000000024,0.5442999999999998 2.8182000000000045,0.5493999999999986 2.782200000000003,0.5500000000000043 2.772500000000001,0.5397000000000034 2.761499999999998,0.5442999999999998 2.751800000000003,0.5459000000000032 2.728900000000003,0.5557000000000016 2.6972000000000023,0.5594999999999999 2.666800000000002,0.558799999999998 2.6103999999999985,0.5457999999999998 2.596200000000003,0.5474000000000032 2.5912000000000006,0.5452999999999975 2.585799999999999,0.5378000000000043 2.5730000000000004,0.5317000000000007 2.568800000000003,0.5275999999999996 2.567,0.523299999999999 2.5675999999999988,0.5118000000000009 2.5664000000000016,0.505900000000004 2.5540999999999983,0.48680000000000234 2.5570999999999984,0.4836000000000027 2.558399999999999,0.4724000000000004 2.551700000000004,0.4703000000000017 2.5452999999999975,0.4660000000000011 2.5378000000000043,0.4549999999999983 2.524700000000003,0.45580000000000354 2.5204999999999984,0.45309999999999917 2.519300000000001,0.44780000000000086 2.5050000000000026,0.44069999999999965 2.4990000000000023,0.43010000000000304 2.5097000000000023,0.416400000000003 2.5122,0.4084000000000003 2.5119000000000042,0.4048000000000016 2.5092,0.40149999999999864 2.5024999999999977,0.4012999999999991 2.493400000000001,0.4070000000000036 2.485500000000002,0.4067000000000007 2.4603000000000037,0.40090000000000003 2.436,0.4018999999999977 2.4284000000000034,0.40440000000000254 2.418599999999998,0.4117000000000033 2.4036000000000044,0.4187000000000012 2.3965999999999994,0.4281000000000006 2.3601000000000028,0.42609999999999815 2.3412000000000006,0.43440000000000367 2.322900000000004,0.43249999999999744 2.3141000000000034,0.4352000000000018 2.3066999999999993,0.44200000000000017 2.292099999999998,0.44720000000000226 2.277700000000003,0.455600000000004 2.270699999999998,0.4566999999999979 2.2531000000000034,0.4545999999999992 2.2387000000000015,0.4586000000000041 2.1983000000000033,0.4572000000000003 2.1927999999999983,0.4551000000000016 2.1872000000000043,0.4673999999999978 2.1788999999999987,0.47100000000000364 2.1728000000000023,0.4759999999999991 2.1602999999999994,0.47639999999999816 2.140900000000002,0.4708000000000041 2.1092999999999975,0.4673000000000016 2.1073999999999984,0.4744000000000028 2.1007000000000033,0.4753000000000043 2.091000000000001,0.4709000000000003 2.076100000000004,0.47330000000000183 2.0679000000000016,0.4709000000000003 2.042500000000004,0.45700000000000074 2.036999999999999,0.45600000000000307 2.007400000000004,0.46699999999999875 1.981500000000004,0.46820000000000306 1.9784000000000006,0.47230000000000416 1.9780000000000015,0.4776999999999987 1.966000000000001,0.48680000000000234 1.9440999999999988,0.4861000000000004 1.9363000000000028,0.47809999999999775 1.9117999999999995,0.46529999999999916 1.8963999999999999,0.4619 1.8922999999999988,0.4532000000000025 1.8853000000000009,0.4485000000000028 1.8849000000000018,0.44080000000000297 1.8744000000000014,0.4316000000000031 1.8674999999999997,0.42249999999999943 1.8408999999999978,0.41610000000000014 1.838799999999999,0.41080000000000183 1.8301999999999978,0.40160000000000196 1.816600000000001,0.3958999999999975 1.8119999999999976,0.3961000000000041 1.799900000000001,0.41020000000000323 1.7790999999999997,0.4159000000000006 1.776600000000002,0.4230000000000018 1.7700999999999993,0.4256999999999991 1.7428999999999988,0.4352000000000018 1.7173999999999978,0.4344999999999999 1.7045999999999992,0.43659999999999854 1.7024000000000044,0.4397999999999982 1.7047000000000025,0.44469999999999743 1.7094999999999985,0.447499999999998 1.7104,0.45130000000000337 1.7075000000000031,0.45589999999999975 1.6976999999999975,0.4592000000000027 1.6647999999999996,0.44830000000000325 1.6439000000000021,0.4451000000000036 1.634999999999998,0.4480000000000004 1.6098,0.46050000000000324 1.5968000000000018,0.4695000000000036 1.5716999999999999,0.4765000000000015 1.5675999999999988,0.48150000000000404 1.5600000000000023,0.4836999999999989 1.546599999999998,0.48450000000000415 1.5371000000000024,0.4878 1.5379000000000005,0.4952000000000041 1.541000000000004,0.4983000000000004 1.5412999999999997,0.5016000000000034 1.5488,0.5050000000000026 1.5515000000000043,0.5091000000000037 1.5546000000000006,0.5272000000000006 1.5546000000000006,0.5429999999999993 1.5574000000000012,0.554700000000004 1.5624000000000038,0.565800000000003 1.5726999999999975,0.5741000000000014 1.575400000000002,0.5799999999999983 1.5981999999999985,0.6015999999999977 1.6148999999999987,0.6144000000000034 1.6235,0.6186000000000007 1.6287999999999982,0.6191000000000031 1.632400000000004,0.6176999999999992 1.6321000000000012,0.6152999999999977 1.6354000000000042,0.6086000000000027 1.6448999999999998,0.6086000000000027 1.6443000000000012,0.6105000000000018 1.639000000000003,0.6116000000000028 1.6473999999999975,0.6141000000000005 1.6499000000000024,0.6116000000000028 1.655700000000003,0.6125000000000043 1.6617999999999995,0.6163999999999987 1.6707000000000036,0.6280000000000001 1.674900000000001,0.6296999999999997 1.6799000000000035,0.6343999999999994 1.6946000000000012,0.6563999999999979 1.7013000000000034,0.6589000000000027 1.706000000000003,0.6655000000000015 1.7235000000000014,0.700800000000001 1.730400000000003,0.7197000000000031 1.737099999999998,0.7239000000000004 1.7435000000000045,0.7327999999999975 1.7578999999999994,0.7638999999999996 1.7642999999999986,0.792500000000004 1.7670999999999992,0.823599999999999 1.7610000000000028,0.8466000000000022 1.7588000000000008,0.8697000000000017 1.7557000000000045,0.878300000000003 1.7546000000000035,0.8980000000000032 1.7479000000000013,0.9466000000000037 1.7468000000000004,0.9616000000000042 1.7485,0.9635999999999996 1.7428999999999988,0.977800000000002 1.7464999999999975,0.9905000000000044 1.7449000000000012,0.9902999999999977 1.7424000000000035,0.9825000000000017 1.740400000000001,0.9819000000000031 1.735199999999999,0.9879999999999995 1.7360000000000042,0.9894000000000034 1.7334999999999994,0.9924999999999997 1.7310000000000016,0.9915999999999983 1.7287999999999997,0.9936000000000007 1.7176000000000045,1.0103000000000009 1.7124000000000024,1.0227000000000004 1.692700000000002,1.0500000000000043 1.6940000000000026,1.053600000000003 1.6963000000000008,1.053600000000003 1.698999999999998,1.0519000000000034 1.7006999999999977,1.0482999999999976 1.6976999999999975,1.0561000000000007 1.7006999999999977,1.057700000000004 1.7043000000000035,1.044400000000003 1.7077000000000027,1.0397000000000034 1.7068000000000012,1.0371999999999986 1.7096000000000018,1.0375000000000014 1.7096000000000018,1.0347000000000008 1.7124000000000024,1.0352999999999994 1.7077000000000027,1.0341000000000022 1.7054000000000045,1.0375000000000014 1.7057000000000002,1.0341000000000022 1.7109999999999985,1.0313999999999979 1.716300000000004,1.0227000000000004 1.718200000000003,1.0219000000000023 1.7199000000000026,1.0238999999999976 1.717100000000002,1.0236000000000018 1.7173999999999978,1.025500000000001 1.7132000000000005,1.0289000000000001 1.7109999999999985,1.033300000000004 1.715200000000003,1.0330000000000013 1.715200000000003,1.0302000000000007 1.7188000000000017,1.0283000000000015 1.7176000000000045,1.0307999999999993 1.7207000000000008,1.0307999999999993 1.7218000000000018,1.0335999999999999 1.7184999999999988,1.0380000000000038 1.7238000000000042,1.0405000000000015 1.720399999999998,1.0429999999999993 1.725999999999999,1.0472000000000037 1.724899999999998,1.0486000000000004 1.719300000000004,1.0489000000000033 1.717100000000002,1.0544000000000011 1.711500000000001,1.0553000000000026 1.7104,1.0572000000000017 1.707100000000004,1.057700000000004 1.7062999999999988,1.0600000000000023 1.7026000000000039,1.0579999999999998 1.7010000000000005,1.0585999999999984 1.7032000000000025,1.0596999999999994 1.7045999999999992,1.063600000000001 1.7120999999999995,1.0632999999999981 1.7113000000000014,1.0625 1.7143000000000015,1.0608000000000004 1.7235000000000014,1.065800000000003 1.7338000000000022,1.0677999999999983 1.740700000000004,1.066900000000004 1.7464999999999975,1.073599999999999 1.7460000000000022,1.0844000000000023 1.7543000000000006,1.085799999999999 1.7567999999999984,1.0878000000000014 1.7451000000000008,1.0919000000000025 1.7424000000000035,1.0972000000000008 1.7445999999999984,1.0983000000000018 1.7439999999999998,1.0994000000000028 1.740700000000004,1.0975000000000037 1.726300000000002,1.1030000000000015 1.7207000000000008,1.1022000000000034 1.7150999999999996,1.1036000000000001 1.7126999999999981,1.1019000000000005 1.7034999999999982,1.1013999999999982 1.6929000000000016,1.1022000000000034 1.6906999999999996,1.1041000000000025 1.6899000000000015,1.1024999999999991 1.6829000000000036,1.102800000000002 1.6814999999999998,1.1019000000000005 1.6820999999999984,1.0983000000000018 1.690100000000001,1.0925000000000011 1.689,1.0883000000000038 1.6921000000000035,1.0825000000000031 1.6932000000000045,1.0730000000000004 1.7006999999999977,1.060299999999998 1.6951000000000036,1.055500000000002 1.6888000000000005,1.0540999999999983 1.6702000000000012,1.0716000000000037 1.667900000000003,1.0761000000000038 1.655700000000003,1.0897000000000006 1.6493000000000038,1.0936000000000021 1.6439999999999984,1.1099999999999994 1.6362999999999985,1.1107999999999976 1.636800000000001,1.1135999999999981 1.637900000000002,1.1114000000000033 1.6396000000000015,1.1141000000000005 1.6432000000000002,1.1152999999999977 1.6429000000000045,1.1165999999999983 1.6392999999999986,1.116100000000003 1.6399000000000044,1.1174999999999997 1.645699999999998,1.1199999999999974 1.6452000000000027,1.1216000000000008 1.6396000000000015,1.1214000000000013 1.6415000000000006,1.1225000000000023 1.6420999999999992,1.1274999999999977 1.6310000000000002,1.1418999999999997 1.6343000000000032,1.1495999999999995 1.632400000000004,1.1510999999999996 1.6285000000000025,1.148299999999999 1.625399999999999,1.1486000000000018 1.6240000000000023,1.1616 1.6206999999999994,1.1677000000000035 1.6218000000000004,1.1700000000000017 1.6270999999999987,1.167900000000003 1.6278000000000006,1.1700000000000017 1.6204000000000036,1.1743999999999986 1.6204000000000036,1.176400000000001 1.6263000000000005,1.1807999999999979 1.630200000000002,1.1893999999999991 1.6315000000000026,1.2053000000000011 1.627600000000001,1.2261000000000024 1.6206999999999994,1.243000000000002 1.6159999999999997,1.2622 1.6018000000000043,1.2908000000000044 1.593200000000003,1.3141000000000034 1.5876999999999981,1.3216000000000037 1.5878999999999976,1.3247 1.5857000000000028,1.3254999999999981 1.5868000000000038,1.326900000000002 1.5857000000000028,1.3289000000000044 1.5835000000000008,1.329100000000004 1.581000000000003,1.3355000000000032 1.5763000000000034,1.3369 1.5549000000000035,1.3496999999999986 1.5485000000000042,1.3511000000000024 1.551000000000002,1.3564000000000007 1.5493000000000023,1.3616000000000028 1.5467999999999975,1.3560999999999979 1.547699999999999,1.3530000000000015 1.5463000000000022,1.352800000000002 1.5442999999999998,1.3560999999999979 1.5379000000000005,1.375 1.5271000000000043,1.4311000000000007 1.5257000000000005,1.4527 1.5232000000000028,1.4586000000000041 1.520699999999998,1.4786000000000001 1.509599999999999,1.5258000000000038 1.5104000000000042,1.5275000000000034 1.5065000000000026,1.534399999999998 1.502600000000001,1.5533000000000001 1.4982000000000042,1.5596999999999994 1.4898999999999987,1.5814000000000021 1.4876000000000005,1.5938999999999979 1.4628999999999976,1.650500000000001 1.4414999999999978,1.6861000000000033 1.433799999999998,1.6957999999999984 1.4262999999999977,1.7021999999999977 1.413499999999999,1.7015999999999991 1.416000000000004,1.7055000000000007 1.4129000000000005,1.7055000000000007 1.412399999999998,1.7068999999999974 1.414900000000003,1.7068999999999974 1.4129000000000005,1.7079999999999984 1.4110000000000014,1.7066000000000017 1.4121000000000024,1.7043999999999997 1.4106999999999985,1.700800000000001 1.4082000000000008,1.7053000000000011 1.3952000000000027,1.7171999999999983 1.3832000000000022,1.7225000000000037 1.3678999999999988,1.7261000000000024 1.3610000000000042,1.725200000000001 1.3470999999999975,1.7272000000000034 1.3203999999999994,1.7347000000000037 1.3038000000000025,1.7349999999999994 1.2920999999999978,1.7396999999999991 1.2801000000000045,1.747799999999998 1.2679000000000045,1.751100000000001 1.246299999999998,1.7539000000000016 1.2226,1.7614000000000019 1.2085000000000008,1.7638999999999996 1.1974000000000018,1.7640999999999991 1.1876000000000033,1.7619000000000042 1.1685000000000016,1.7524999999999977 1.1392999999999986,1.7575000000000003 1.1340000000000003,1.7622 1.1304000000000016,1.7725000000000009 1.1195999999999984,1.7815999999999974 1.113199999999999,1.7850000000000037 1.1113,1.7899999999999991 1.0962999999999994,1.802500000000002 1.0926000000000045,1.8108000000000004 1.084299999999999,1.8524999999999991 1.0713000000000008,1.902700000000003 1.0692999999999984,1.9046999999999983 1.0673999999999992,1.912700000000001 1.0596000000000032,1.9230000000000018 1.0568000000000026,1.9307999999999979 1.0518,1.9341000000000008 1.0426000000000002,1.9491000000000014 1.030700000000003,1.9575000000000031 1.0226000000000042,1.9600000000000009 1.0142999999999986,1.9602000000000004 1.0112999999999985,1.9590999999999994 1.011499999999998,1.9577999999999989 1.005200000000002,1.9560999999999993 0.9829000000000008,1.9577999999999989 0.9832000000000036,1.9564000000000021 0.9801000000000002,1.9549999999999983 0.9813000000000045,1.9532999999999987 0.9665000000000035,1.9433000000000007 0.9609999999999985,1.9421999999999997 0.9562999999999988,1.9436000000000035 0.9526000000000039,1.9461000000000013 0.9496000000000038,1.9532999999999987 0.9438000000000031,1.9586000000000041 0.9376000000000033,1.9611000000000018 0.9346000000000032,1.9654999999999987 0.9256999999999991,1.9694000000000003 0.919000000000004,1.981900000000003 0.9095999999999975,1.9915999999999983 0.8963000000000036,1.9975000000000023 0.8929000000000045,2.002200000000002 0.8885000000000005,2.0035999999999987 0.8854000000000042,2.0097000000000023 0.8753999999999991,2.0214 0.8663000000000025,2.0294000000000025 0.8543000000000021,2.036900000000003 0.8342999999999989,2.038899999999998 0.8224000000000018,2.0429999999999993 0.7963000000000022,2.0461000000000027 0.7813000000000017,2.043300000000002 0.7685000000000031,2.046900000000001 0.7435000000000045,2.0493999999999986 0.7246000000000024,2.049100000000003 0.7115000000000009,2.0472000000000037 0.6918000000000006,2.049100000000003 0.6788000000000025,2.0482999999999976 0.6574000000000026,2.0538999999999987 0.6471000000000018,2.0600000000000023 0.6338000000000008,2.0626999999999995 0.5985000000000014,2.053600000000003 0.5701000000000036,2.052500000000002 0.5628999999999991,2.0551999999999992 0.555100000000003,2.064399999999999 0.5512999999999977,2.0655 0.5290000000000035,2.0914 0.5223999999999975,2.0940999999999974 0.5090000000000003,2.1033000000000044 0.502600000000001,2.1052000000000035 0.49320000000000164,2.1054999999999993 0.4789999999999992,2.102800000000002 0.4690000000000012,2.1052000000000035 0.4590000000000032,2.1011000000000024 0.4532000000000025,2.1075000000000017 0.4474000000000018,2.1107999999999976 0.4376000000000033,2.1144000000000034 0.4314999999999998,2.113599999999998 0.4245999999999981,2.115000000000002 0.41680000000000206,2.1210999999999984 0.41100000000000136,2.122799999999998 0.4082000000000008,2.1219000000000037 0.39399999999999835,2.1327 0.3843000000000032,2.1355000000000004 0.3768000000000029,2.1358000000000033 0.3646000000000029,2.1336000000000013 0.35540000000000305,2.1296999999999997 0.3353999999999999,2.1141000000000005 0.33680000000000376,2.1118999999999986 0.33489999999999753,2.108000000000004 0.3290000000000006,2.1083 0.32099999999999795,2.1155000000000044 0.3096000000000032,2.121600000000001 0.2995999999999981,2.1319000000000017 0.29630000000000223,2.133900000000004 0.2896000000000001,2.133900000000004 0.2826999999999984,2.1372 0.2668000000000035,2.150800000000004 0.26319999999999766,2.1647000000000034 0.2560000000000002,2.2261000000000024 0.24540000000000362,2.2591000000000037 0.2417999999999978,2.2668999999999997 0.23380000000000223,2.2775000000000034 0.22630000000000194,2.282200000000003 0.21289999999999765,2.2841000000000022 0.19490000000000407,2.2927000000000035 0.17849999999999966,2.294699999999999 0.15039999999999765,2.3019000000000034 0.13710000000000377,2.307700000000004 0.12129999999999797,2.3183000000000007 0.11520000000000152,2.3205000000000027 0.1051000000000002,2.3202 0.08850000000000335,2.330300000000001 0.06929999999999836,2.3385999999999996 0.062400000000003786,2.3400000000000034 0.04019999999999868,2.339100000000002 0.017099999999999227,2.344700000000003 0.0009000000000014552,2.3464000000000027 0.0,2.360199999999999 0.004800000000003024,2.3762000000000043 0.0035999999999987153,2.3840000000000003 0.0058000000000006935,2.389400000000002 0.02779999999999916,2.4179999999999993 0.035000000000003695,2.4431999999999974 0.05239999999999867,2.4592000000000027 0.053400000000003445,2.4650000000000034 0.05660000000000309,2.4701999999999984 0.08440000000000225,2.490400000000001 0.08780000000000143,2.4962000000000018 0.08740000000000236,2.5005999999999986 0.08220000000000027,2.511000000000003 0.0823999999999998,2.5183999999999997 0.08579999999999899,2.524799999999999 0.09080000000000155,2.529200000000003 0.09559999999999746,2.530000000000001 0.11350000000000193,2.527000000000001 0.12349999999999994,2.5281999999999982 0.15050000000000097,2.5366 0.16490000000000293,2.5390000000000015 0.17159999999999798,2.5390000000000015 0.18140000000000356,2.536200000000001 0.2010000000000005,2.5365000000000038 0.215600000000002,2.5427999999999997 0.22509999999999764,2.5452999999999975 0.23740000000000094,2.5459999999999994 0.25200000000000244,2.544400000000003 0.2710000000000008,2.536200000000001 0.2816000000000045,2.529200000000003 0.29520000000000124,2.5307999999999993 0.3021000000000029,2.5286000000000044 0.3241999999999976,2.5142000000000024 0.3445000000000036,2.517000000000003 0.36359999999999815,2.5105000000000004 0.4035000000000011,2.506999999999998 0.4129000000000005,2.5071999999999974 0.43200000000000216,2.5168999999999997 0.45130000000000337,2.5078999999999994 0.4714999999999989,2.5060000000000002 0.48109999999999786,2.5016000000000034 0.48969999999999914,2.4928000000000026 0.4999000000000038,2.489600000000003 0.5283999999999978,2.4846000000000004 0.5529000000000011,2.4780999999999977 0.5608000000000004,2.4776000000000025 0.5760000000000005,2.4838000000000022 0.6009000000000029,2.505499999999998 0.6088999999999984,2.5093999999999994 0.6244000000000014,2.5123999999999995 0.6411999999999978,2.521000000000001 0.6518000000000015,2.5208000000000013 0.6578000000000017,2.5198000000000036 0.666400000000003,2.5142000000000024 0.6769999999999996,2.5001000000000033 0.6826000000000008,2.496600000000001 0.7000000000000028,2.492600000000003 0.7171999999999983,2.4920000000000044 0.7289999999999992,2.4879999999999995 0.7539999999999978,2.4768000000000043 0.7629999999999981,2.4701999999999984 0.8076000000000008,2.4540000000000006 0.8207000000000022,2.4470000000000027 0.8680000000000021,2.4466000000000037 0.8862000000000023,2.4369999999999976 0.8873999999999995,2.432000000000002 0.8839000000000041,2.4226000000000028 0.8843999999999994,2.4196000000000026 0.8888000000000034,2.4158000000000044 0.9069000000000003,2.4091999999999985 0.9144000000000005,2.4040000000000035 0.9245999999999981,2.3870000000000005 0.9378999999999991,2.3836000000000013 0.9536000000000016,2.384599999999999 0.9626000000000019,2.386800000000001 0.9724000000000004,2.394600000000004 0.9786000000000001,2.395400000000002 0.9860000000000042,2.3932 1.0080000000000027,2.3813999999999993 1.0194000000000045,2.3774000000000015 1.0311000000000021,2.3644000000000034 1.0320999999999998,2.3522000000000034 1.0503,2.3438000000000017 1.0790000000000006,2.338799999999999 1.0902999999999992,2.339199999999998 1.0953000000000017,2.342399999999998 1.1028999999999982,2.3526999999999987 1.1086000000000027,2.356500000000004 1.1281000000000034,2.356099999999998 1.208199999999998,2.3348000000000013 1.2246000000000024,2.3286000000000016 1.2417999999999978,2.3194000000000017 1.2730000000000032,2.3149999999999977 1.2809000000000026,2.312400000000004 1.2901999999999987,2.306200000000004 1.3008000000000024,2.295500000000004 1.3205999999999989,2.2956000000000003 1.3203999999999994,2.2942000000000036 1.3226000000000013,2.297400000000003 1.3393999999999977,2.3068000000000026 1.3504000000000005,2.3198000000000008 1.3575000000000017,2.3231000000000037 1.367600000000003,2.3200000000000003 1.3817999999999984,2.3233999999999995 1.3903999999999996,2.3241999999999976 1.3967000000000027,2.322900000000004 1.4091999999999985,2.3145999999999987 1.4117999999999995,2.271000000000001 1.4144000000000005,2.2672999999999988 1.4266000000000005,2.264099999999999 1.4570000000000007,2.2616000000000014 1.4676000000000045,2.2584000000000017 1.4832000000000036,2.244799999999998 1.4926999999999992,2.239600000000003 1.5146000000000015,2.2317000000000036 1.5341999999999985,2.222300000000004 1.5396,2.217399999999998 1.5431999999999988,2.2103000000000037 1.5622000000000043,2.2049999999999983 1.5714000000000041,2.1968999999999994 1.588000000000001,2.1948000000000008 1.6195999999999984,2.1844000000000037 1.6296000000000035,2.1854000000000013 1.6388000000000034,2.1910000000000025 1.6463999999999999,2.191600000000001 1.6807999999999979,2.178200000000004 1.6961999999999975,2.1766000000000005 1.704500000000003,2.1798 1.7113000000000014,2.1854000000000013 1.716300000000004,2.1929000000000016 1.724899999999998,2.1942999999999984 1.7368999999999986,2.1884999999999977 1.751800000000003,2.177100000000003 1.7706000000000017,2.1732000000000014 1.7826000000000022,2.172400000000003 1.803600000000003,2.165300000000002 1.8089999999999975,2.165300000000002 1.8412000000000006,2.172400000000003 1.8522000000000034,2.177199999999999 1.8567999999999998,2.1844000000000037 1.850999999999999,2.193800000000003 1.8498000000000019,2.198599999999999 1.8552000000000035,2.2072000000000003 1.8607999999999976,2.2083999999999975 1.8671000000000006,2.2075999999999993 1.8795000000000002,2.1983000000000033 1.9059000000000026,2.189799999999998 1.931600000000003,2.186799999999998 1.9432000000000045,2.1739999999999995 1.9482,2.171199999999999 1.9558999999999997,2.1717000000000013 1.9688000000000017,2.176400000000001 1.9896999999999991,2.1773000000000025 2.006599999999999,2.176000000000002 2.0189999999999984,2.1677999999999997 2.0275999999999996,2.1584000000000003 2.046599999999998,2.1555999999999997 2.0700000000000003,2.166000000000004 2.092800000000004,2.1668999999999983 2.1018000000000043,2.169000000000004 2.125700000000002,2.1822000000000017 2.134300000000003,2.182700000000004 2.1439999999999984,2.180399999999999 2.1445000000000007,2.1814999999999998 2.1702000000000012,2.178600000000003 2.1765000000000043,2.1796000000000006 2.201999999999998,2.1914000000000016 2.2102000000000004,2.191499999999998 2.2299000000000007,2.1875 2.252900000000004,2.171599999999998 2.2774,2.1698999999999984 2.285800000000002,2.1728999999999985 2.306899999999999,2.187899999999999 2.329500000000003,2.1861999999999995 2.335100000000004,2.187400000000004 2.3441000000000045,2.200499999999998 2.3477999999999994,2.202300000000001 2.3828999999999994,2.2057 2.3941000000000017,2.2079999999999984 2.414999999999999,2.2154999999999987 2.4254000000000033,2.2156999999999982 2.4452,2.207100000000004 2.4536000000000016,2.2017000000000024 2.455199999999998,2.1968999999999994 2.4436999999999998,2.190400000000004 2.439700000000002,2.185299999999998 2.4384999999999977,2.181200000000004 2.4399999999999977,2.1769000000000034 2.4432000000000045,2.1743999999999986 2.464800000000004,2.1715000000000018 2.505200000000002,2.1606000000000023 2.5660999999999987,2.1366000000000014 2.5767000000000024,2.1295 2.586100000000002,2.1259000000000015 2.6140000000000043,2.1193000000000026 2.6247000000000043,2.1125000000000043 2.655000000000001,2.1018000000000043 2.671900000000001,2.0985999999999976 2.6750000000000043,2.100200000000001 2.6762999999999977,2.104300000000002 2.6750000000000043,2.1096000000000004 2.662700000000001,2.1295 2.6646,2.134300000000003 2.669000000000004,2.1355000000000004 2.690899999999999,2.133499999999998 2.703400000000002,2.1371000000000038 2.7131000000000043,2.137900000000002 2.7543000000000006,2.146799999999999 2.7689999999999984,2.147100000000002 2.780300000000004,2.1454999999999984 2.7988,2.1357 2.8075000000000045,2.1347999999999985 2.8297000000000025,2.1387 2.8519000000000005,2.1330000000000027 2.881599999999999,2.131599999999999 2.8845000000000027,2.1274999999999977 2.885400000000004,2.1193000000000026 2.8881999999999977,2.113500000000002 2.8922999999999988,2.110599999999998 2.912300000000002,2.103900000000003 2.919800000000002,2.099800000000002 2.9207000000000036,2.094999999999999 2.9140999999999977,2.076900000000002 2.9376000000000033,2.0760000000000005 2.974400000000003,2.071400000000004 3.0275000000000034,2.052100000000003 3.0283999999999978,2.048500000000004 3.0131000000000014,2.028500000000001 3.015500000000003,2.011400000000002 3.0249000000000024,1.9999000000000038 3.031399999999998,1.9932999999999979 3.0488,1.9810999999999979 3.1021,1.9542000000000002 3.156800000000004,1.9177000000000035 3.166400000000003,1.9104000000000028 3.174500000000002,1.900100000000002 3.1810000000000045,1.8958999999999975 3.250700000000002,1.8834000000000017 3.3094000000000037,1.8629999999999995 3.318400000000004,1.8560999999999979 3.3320000000000007,1.8515000000000015 3.348800000000004,1.850999999999999 3.3719000000000037,1.8566000000000003 3.3918999999999997,1.8575000000000017 3.454100000000004,1.852400000000003 3.4783000000000044,1.8447000000000031 3.4953000000000003,1.834299999999999 3.550600000000003,1.8276000000000039 3.5667000000000044,1.8209000000000017 3.593600000000002,1.804000000000002 3.6011999999999986,1.7881 3.6054999999999993,1.7835000000000036 3.6214999999999975,1.7730999999999995 3.633800000000001,1.7614000000000019 3.644300000000001,1.7588000000000008 3.6593000000000018,1.7619000000000042 3.677900000000001,1.7578999999999994 3.6884000000000015,1.7516000000000034 3.6972999999999985,1.7424000000000035 3.7113999999999976,1.7347000000000037 3.7631000000000014,1.719300000000004 3.7798000000000016,1.7116000000000042 3.788000000000004,1.7036999999999978 3.7926,1.6968000000000032 3.794000000000004,1.6899000000000015 3.7926,1.6799000000000035 3.7558000000000007,1.625700000000002 3.7443000000000026,1.6182000000000016 3.731200000000001,1.6133000000000024 3.7220000000000013,1.603900000000003 3.7192000000000007,1.5970999999999975 3.7203000000000017,1.589100000000002 3.7501999999999995,1.5561000000000007 3.7591000000000037,1.549199999999999 3.7699,1.5493000000000023 3.789200000000001,1.5549000000000035 3.8019000000000034,1.5548000000000002 3.816200000000002,1.5409000000000006 3.823999999999998,1.5390000000000015 3.831400000000002,1.5408000000000044 3.8396000000000043,1.5467000000000013 3.8466999999999985,1.5480000000000018 3.852899999999998,1.5463999999999984 3.8648000000000025,1.5371000000000024 3.8817999999999984,1.5363000000000042 3.920099999999998,1.526299999999999 3.9369999999999976,1.5200000000000031 3.9447000000000045,1.5198999999999998 3.960000000000001,1.5232000000000028 4.005200000000002,1.5570999999999984 4.014900000000004,1.5634000000000015 4.023600000000002,1.5664999999999978 4.0489999999999995,1.5641999999999996 4.0929,1.5754999999999981 4.102200000000003,1.576500000000003 4.108699999999999,1.5762 4.1235,1.5718999999999994 4.137799999999999,1.5729000000000042 4.1473999999999975,1.5752999999999986 4.164300000000004,1.5827000000000027 4.197900000000004,1.5883000000000038 4.2102,1.5951999999999984 4.218699999999998,1.617600000000003 4.237900000000003,1.6422999999999988 4.2455,1.6501999999999981 4.267800000000001,1.6616 4.311900000000001,1.6747999999999976 4.333100000000002,1.677500000000002 4.380800000000001,1.6739000000000033 4.393799999999999,1.6735000000000042 4.401899999999998,1.6753 4.424199999999999,1.6839000000000013 4.445300000000003,1.6966999999999999 4.462899999999998,1.7051000000000016 4.4802000000000035,1.710799999999999 4.495100000000001,1.7131000000000043 4.5915000000000035,1.7053000000000011 4.651000000000003,1.7118000000000038 4.676099999999998,1.7075000000000031 4.695700000000002,1.6996000000000038 4.716300000000004,1.6820999999999984 4.7353999999999985,1.6054999999999993 4.741900000000001,1.5949000000000026 4.756799999999998,1.5870999999999995 4.766400000000004,1.586199999999998 4.772300000000001,1.5868000000000038 4.787100000000002,1.593200000000003 4.806800000000003,1.6283999999999992 4.820999999999998,1.6632000000000033 4.840000000000003,1.686399999999999 4.858000000000004,1.7030999999999992 4.867200000000004,1.7083999999999975 4.880600000000001,1.7113999999999976 4.916400000000003,1.7141999999999982 4.960000000000001,1.7060999999999993 4.9846,1.6914000000000016 5.024000000000001,1.662700000000001 5.034399999999998,1.6600000000000037 5.071800000000003,1.6561000000000021 5.119399999999999,1.6649999999999991 5.145099999999999,1.6631 5.156100000000002,1.6593000000000018 5.165399999999998,1.6522000000000006 5.1754999999999995,1.6401000000000039 5.195799999999998,1.6251999999999995 5.244799999999998,1.5775000000000006 5.277999999999999,1.5564000000000036 5.2849,1.5487000000000037 5.2905000000000015,1.5257000000000005 5.300600000000003,1.5091999999999999 5.320500000000003,1.494100000000003 5.329000000000001,1.4913999999999987 5.338900000000002,1.4905000000000044 5.395200000000003,1.503700000000002 5.4202999999999975,1.5050000000000026 5.476599999999998,1.5020999999999987 5.5020000000000024,1.5031000000000034 5.528700000000001,1.5114000000000019 5.545700000000004,1.5116999999999976 5.558700000000002,1.509999999999998 5.566299999999998,1.5073000000000008 5.590899999999998,1.4893 5.6188,1.477400000000003 5.649000000000001,1.468200000000003 5.697600000000001,1.4466000000000037 5.740299999999998,1.4474000000000018 5.749700000000004,1.4425999999999988 5.756799999999998,1.4358000000000004 5.764000000000003,1.4177000000000035 5.761800000000001,1.3978000000000037 5.755099999999999,1.3881999999999977 5.720199999999998,1.3473000000000042 5.715200000000003,1.3337000000000003 5.719900000000003,1.3145999999999987 5.719500000000004,1.3057000000000016 5.713300000000004,1.292500000000004 5.732399999999998,1.2779000000000025 5.734000000000002,1.2668000000000035 5.723700000000001,1.2588000000000008 5.702500000000001,1.2520000000000024 5.684699999999999,1.2486000000000033 5.672400000000003,1.2486999999999995 5.661700000000003,1.244799999999998 5.654899999999998,1.2449999999999974 5.6432,1.2516999999999996 5.6355,1.2522999999999982 5.6296000000000035,1.2509000000000015 5.6263000000000005,1.2460999999999984 5.612500000000004,1.2133000000000038 5.594999999999999,1.180500000000002 5.597300000000004,1.1760999999999981 5.6015000000000015,1.1730000000000018 5.614000000000004,1.1698999999999984 5.6312,1.1561999999999983 5.6541,1.1509 5.716700000000003,1.1206999999999994 5.729300000000002,1.1126000000000005 5.733699999999999,1.102400000000003 5.746099999999998,1.0979000000000028 5.757600000000004,1.087299999999999 5.7727,1.0812000000000026 5.783700000000003,1.0797999999999988 5.797800000000002,1.0728000000000009 5.807299999999998,1.0718000000000032 5.8262,1.0752000000000024 5.839100000000002,1.0747 5.8613,1.068800000000003 5.8729999999999976,1.0639000000000038 5.895400000000002,1.049599999999998 5.897800000000004,1.0236000000000018 5.9018000000000015,1.016600000000004 5.9133,1.0065000000000026 5.915800000000004,0.9954000000000036 5.928899999999999,0.9879999999999995 5.935600000000001,0.9868999999999986 5.960900000000002,1.0020000000000024 5.967399999999998,1.0027000000000044 5.9863,0.9983000000000004 5.9938,1.001800000000003 6.003700000000002,1.0035000000000025 6.008000000000003,1.0022999999999982 6.010800000000003,0.9981000000000009 6.014499999999998,0.985599999999998 6.019300000000001,0.984099999999998 6.031100000000002,0.9870000000000019 6.0488,1.0022999999999982 6.056400000000004,1.0001999999999995 6.061700000000002,0.9964000000000013 6.064,0.9802999999999997 6.0711999999999975,0.9658999999999978 6.081200000000003,0.9575999999999993 6.092300000000002,0.9528999999999996 6.097900000000003,0.954100000000004 6.100200000000001,0.9575000000000031 6.1026000000000025,0.9737000000000009 6.107199999999999,0.9791000000000025 6.1113,0.9802999999999997 6.122100000000003,0.9763000000000019 6.154200000000003,0.9504000000000019 6.1655000000000015,0.9489999999999981 6.180500000000002,0.9494000000000042 6.192,0.9517999999999986 6.2151,0.9633000000000038 6.224699999999999,0.9648000000000039 6.2301,0.9637999999999991 6.234500000000004,0.9602000000000004 6.238100000000003,0.9528000000000034 6.2479999999999976,0.9427999999999983 6.278500000000001,0.9217999999999975 6.284399999999998,0.9132999999999996 6.293199999999999,0.9115000000000038 6.2971,0.9085999999999999 6.298700000000004,0.9055999999999997 6.298099999999998,0.8988999999999976 6.314,0.8980000000000032 6.318100000000001,0.9006000000000043 6.321300000000001,0.9138000000000019 6.3248999999999995,0.9177999999999997 6.3304000000000045,0.9181000000000026 6.3352,0.9162999999999997 6.3419000000000025,0.9089999999999989 6.3476,0.9065999999999974 6.3523,0.9089000000000027 6.362099999999998,0.9194000000000031 6.366500000000002,0.921599999999998 6.371099999999998,0.9213999999999984 6.373100000000001,0.9191000000000003 6.375100000000003,0.9095999999999975 6.373899999999999,0.8999999999999986 6.3774000000000015,0.8864000000000019 6.380200000000002,0.8813000000000031 6.4071,0.8689999999999998 6.403600000000004,0.8411000000000044 6.398699999999998,0.8289000000000044 6.387900000000002,0.8125 6.382100000000001,0.8064999999999998 6.365700000000004,0.794000000000004 6.350099999999998,0.7881 6.328299999999999,0.777000000000001 6.284800000000004,0.7477000000000018 6.279200000000003,0.7419000000000011 6.277000000000001,0.7346000000000004 6.279600000000002,0.7180000000000035 6.277200000000001,0.7060999999999993 6.2605,0.6799999999999997 6.2622,0.6719000000000008 6.2398000000000025,0.6291000000000011 6.236699999999999,0.6163000000000025 6.239899999999999,0.6058999999999983 6.247300000000003,0.5947000000000031 6.263300000000001,0.5842999999999989 6.2575,0.5694000000000017 6.286999999999999,0.5598000000000027 6.291499999999999,0.5533000000000001 6.294800000000002,0.548099999999998 6.290399999999998,0.5396000000000001 6.2928,0.5288000000000039 6.299799999999998,0.5176000000000016 6.327199999999998,0.4894000000000034 6.329500000000003,0.4806000000000026 6.326799999999999,0.46630000000000393 6.331099999999999,0.4603999999999999 6.3408000000000015,0.45410000000000394 6.400399999999998,0.4361999999999995 6.402300000000004,0.4228999999999985 6.405000000000001,0.42139999999999844 6.427500000000002,0.4205000000000041 6.433700000000002,0.41799999999999926 6.442700000000002,0.4110999999999976 6.450900000000004,0.3995999999999995 6.477699999999999,0.384999999999998 6.5501000000000005,0.36430000000000007 6.552599999999998,0.35960000000000036 6.582599999999999,0.3522999999999996 6.583800000000004,0.34969999999999857 6.587899999999998,0.3475999999999999 6.5915000000000035,0.35419999999999874 6.594999999999999,0.35419999999999874 6.598300000000002,0.3509999999999991 6.595300000000002,0.3432999999999993 6.5959,0.33910000000000196 6.601300000000002,0.33899999999999864 6.605499999999999,0.34150000000000347 6.610199999999999,0.3352000000000004 6.614899999999999,0.3340999999999994 6.618600000000001,0.34130000000000393 6.624000000000002,0.33910000000000196 6.627299999999998,0.33440000000000225 6.622199999999999,0.32620000000000005 6.612500000000004,0.3243000000000009 6.608899999999998,0.31869999999999976 6.621200000000002,0.31750000000000256 6.626600000000003,0.3132000000000019 6.631599999999999,0.3188000000000031 6.631,0.3230000000000004 6.633299999999998,0.33019999999999783 6.638100000000001,0.3290000000000006 6.640599999999999,0.32330000000000325 6.640300000000003,0.31400000000000006 6.636800000000001,0.30989999999999895 6.639499999999998,0.30879999999999797 6.645000000000003,0.30980000000000274 6.6477,0.30819999999999936 6.647300000000001,0.2967999999999975 6.6541,0.2956000000000003 6.664500000000004,0.2980000000000018 6.6693,0.29690000000000083 6.670500000000004,0.2942999999999998 6.667000000000002,0.29180000000000206 6.670900000000003,0.2839000000000027 6.668599999999998,0.27779999999999916 6.672600000000003,0.27250000000000085 6.679200000000002,0.26769999999999783 6.680500000000002,0.2646000000000015 6.6783,0.2605000000000004 6.704500000000003,0.2582000000000022 6.7098999999999975,0.2528000000000006 6.710300000000004,0.24840000000000373 6.705500000000001,0.24450000000000216 6.695799999999998,0.2407000000000039 6.68,0.2254000000000005 6.679099999999998,0.2049999999999983 6.6616,0.19170000000000442 6.657800000000002,0.18430000000000035 6.640300000000003,0.16629999999999967 6.642400000000002,0.15639999999999787 6.6511,0.14390000000000214 6.6473999999999975,0.1414000000000044 6.6473999999999975,0.1296999999999997 6.640799999999999,0.12700000000000244 6.637599999999999,0.1191999999999993 6.639499999999998,0.08919999999999817 6.632400000000004,0.08080000000000354 6.631700000000002,0.073599999999999 6.627099999999999,0.06900000000000261 6.634999999999998,0.055999999999997385 6.627800000000001,0.040300000000002 6.615000000000002,0.027200000000000557 6.616100000000003,0.023400000000002308 6.6128,0.018200000000000216 6.600700000000003,0.026600000000001955 6.557299999999998,0.023200000000002774 6.5223999999999975,0.01180000000000092 6.455500000000001,0.0 6.419200000000004,0.02680000000000149 6.411099999999998,0.03790000000000049 6.409100000000002,0.04570000000000363 6.4029000000000025,0.05279999999999774 6.3958999999999975,0.05250000000000199 6.391400000000004,0.0478999999999985 6.377299999999998,0.049900000000000944 6.366199999999999,0.04749999999999943 6.362099999999998,0.048799999999999955 6.357100000000003,0.05770000000000408 6.3519000000000005,0.06099999999999994 6.334800000000001,0.06499999999999773 6.3293000000000035,0.07339999999999947 6.307099999999998,0.08279999999999887 6.302500000000002,0.08749999999999858 6.2623999999999995,0.10139999999999816 6.2509000000000015,0.11840000000000117 6.2342999999999975,0.1373000000000033 6.226100000000002,0.1366000000000014 6.213799999999999,0.13860000000000383 6.177599999999998,0.14650000000000318 6.141400000000004,0.14460000000000406 6.128700000000002,0.15160000000000196 6.110100000000003,0.16680000000000206 6.0915000000000035,0.1630000000000038 6.084400000000002,0.14359999999999928 6.070799999999998,0.1377999999999986 6.0423000000000044,0.14410000000000167 6.016500000000001,0.14300000000000068 5.994199999999999,0.1448000000000036 5.965200000000003,0.14030000000000342 5.9328,0.1418999999999997 5.907000000000004,0.15290000000000248 5.8858999999999995,0.16720000000000113 5.845700000000001,0.18249999999999744 5.8337,0.18489999999999895 5.809699999999999,0.18420000000000414 5.794899999999998,0.186399999999999 5.776400000000002,0.19170000000000442 5.756,0.20369999999999777 5.7342999999999975,0.21180000000000376 5.706099999999999,0.22630000000000194 5.665399999999998,0.27139999999999986 5.665599999999998,0.27479999999999905 5.668500000000002,0.2790999999999997 5.673900000000003,0.28000000000000114 5.6839999999999975,0.2939000000000007 5.694400000000002,0.3019000000000034 5.704000000000001,0.3042000000000016 5.7194,0.30460000000000065 5.724600000000002,0.30590000000000117 5.7269000000000005,0.3085000000000022 5.725500000000004,0.31159999999999854 5.704100000000004,0.3282999999999987 5.6983999999999995,0.32860000000000156 5.677399999999999,0.3188000000000031 5.6601,0.32200000000000273 5.633299999999998,0.3340999999999994 5.622100000000003,0.33619999999999806 5.604399999999998,0.33500000000000085 5.586300000000001,0.3310999999999993 5.569600000000001,0.3359999999999985 5.558700000000002,0.3440000000000012 5.555300000000003,0.35889999999999844 5.5504999999999995,0.36720000000000397 5.537100000000002,0.37180000000000035 5.4846,0.38300000000000267 5.475700000000003,0.3871000000000038 5.453299999999999,0.40619999999999834 5.4461999999999975,0.40910000000000224 5.425800000000002,0.4106999999999985 5.401899999999998,0.39039999999999964 5.396000000000001,0.38759999999999906 5.380800000000001,0.3872 5.334000000000003,0.41089999999999804 5.319499999999998,0.42269999999999897 5.306100000000001,0.4282000000000039 5.2958,0.42960000000000065 5.288400000000003,0.42790000000000106 5.277799999999999,0.42200000000000415 5.249499999999998,0.4205000000000041 5.242899999999999,0.41499999999999915 5.2346,0.39679999999999893 5.212299999999999,0.38649999999999807 5.195399999999999,0.37360000000000326 5.1676,0.36939999999999884 5.161099999999998,0.36650000000000205 5.146599999999999,0.35309999999999775 5.133499999999998,0.3447000000000031 5.1015000000000015,0.3078000000000003 5.092100000000002,0.2997000000000014 5.080100000000002,0.29420000000000357 5.058,0.28889999999999816 5.035400000000003,0.2762999999999991 4.993000000000002,0.2629000000000019 4.9846,0.263300000000001 4.9769000000000005,0.2605000000000004 4.945900000000002,0.23980000000000246 4.942399999999999,0.2360000000000042 4.940600000000003,0.22749999999999915 4.934899999999999,0.22010000000000218 4.914900000000003,0.21979999999999933 4.892299999999999,0.2242999999999995 4.875300000000003,0.22230000000000416 4.8553,0.23460000000000036 4.838700000000003,0.2360000000000042 4.820999999999998,0.24210000000000065 4.808199999999999,0.26010000000000133 4.805,0.2627000000000024 4.7978999999999985,0.2610000000000028 4.790800000000004,0.24490000000000123 4.794899999999998,0.24090000000000344 4.795999999999999,0.23750000000000426 4.788200000000003,0.23230000000000217 4.786300000000004,0.2190999999999974 4.8038000000000025,0.19660000000000366 4.829999999999998,0.19020000000000437 4.8446,0.1839999999999975 4.855000000000004,0.17710000000000292 4.8537000000000035,0.17280000000000229 4.824300000000001,0.17240000000000322 4.800000000000004,0.18130000000000024 4.790700000000001,0.18310000000000315 4.7834,0.18249999999999744 4.7757000000000005,0.17940000000000111 4.767600000000002,0.18189999999999884 4.748100000000001,0.1769000000000034 4.726199999999999,0.1758999999999986 4.7169000000000025,0.16989999999999839 4.706000000000003,0.1676000000000002 4.700600000000001,0.16969999999999885 4.699600000000004,0.1782000000000039 4.6922,0.18200000000000216 4.666899999999998,0.17940000000000111 4.661200000000001,0.18059999999999832 4.6556,0.18599999999999994 4.652700000000003,0.19180000000000064 4.647600000000004,0.19369999999999976 4.6173,0.19319999999999737 4.599800000000002,0.19650000000000034 4.596800000000002,0.19490000000000407 4.589100000000002,0.18200000000000216 4.582599999999999,0.154200000000003 4.575499999999998,0.1490000000000009 4.5685,0.14710000000000178 4.5686000000000035,0.16100000000000136 4.565300000000001,0.16519999999999868 4.544899999999998,0.1612000000000009 4.522600000000004,0.15230000000000388 4.490000000000002,0.15720000000000312 4.4833,0.15680000000000405 4.470199999999998,0.15400000000000347 4.450400000000002,0.14650000000000318 4.436399999999999,0.14580000000000126 4.424399999999999,0.14920000000000044 4.394500000000001,0.16440000000000055 4.375700000000002,0.17770000000000152 4.335500000000003,0.19519999999999982 4.324800000000003,0.19239999999999924 4.3217,0.1880999999999986 4.320500000000003,0.1753 4.317999999999998,0.17070000000000363 4.314,0.16890000000000072 4.287800000000004,0.17660000000000053 4.268500000000003,0.17800000000000438 4.248100000000001,0.1758999999999986 4.237000000000002,0.17790000000000106 4.233699999999999,0.17999999999999972 4.2298000000000044,0.1963000000000008 4.224699999999999,0.20139999999999958 4.2151,0.20589999999999975 4.203699999999998,0.19660000000000366 4.1995000000000005,0.19599999999999795 4.1843,0.197499999999998 4.1721,0.20589999999999975 4.1663,0.20570000000000022 4.1606999999999985,0.1991999999999976 4.1616,0.19460000000000122 4.1691,0.18079999999999785 4.1580999999999975,0.16100000000000136 4.146500000000003,0.15400000000000347 4.124299999999998,0.15060000000000429 4.063600000000001,0.153100000000002 4.045700000000004,0.1512999999999991 4.029499999999999,0.1448000000000036 3.997,0.13830000000000098 3.9872000000000014,0.13289999999999935 3.9709000000000003,0.11840000000000117 3.9650999999999996,0.11780000000000257 3.9543000000000035,0.1191999999999993 3.9350000000000023,0.12700000000000244 3.8884000000000043,0.12630000000000052 "></polygon><polygon points="1.7188000000000017,1.034399999999998 1.719300000000004,1.0330000000000013 1.7154000000000025,1.0335999999999999 1.7179000000000002,1.035499999999999 1.7188000000000017,1.034399999999998 "></polygon><polygon points="1.7154000000000025,1.0350000000000037 1.7146000000000043,1.0352999999999994 1.7190000000000012,1.0364000000000004 1.7179000000000002,1.035499999999999 1.7154000000000025,1.0350000000000037 "></polygon><polygon points="1.7179000000000002,1.0408000000000044 1.7179000000000002,1.037700000000001 1.7146000000000043,1.0380000000000038 1.7149,1.0394000000000005 1.7132000000000005,1.0397000000000034 1.7156999999999982,1.0422000000000011 1.7179000000000002,1.0408000000000044 "></polygon><polygon points="1.7156999999999982,1.053600000000003 1.716300000000004,1.0521999999999991 1.7128999999999976,1.0502000000000038 1.7104,1.0510999999999981 1.7132000000000005,1.0521999999999991 1.7120999999999995,1.0544000000000011 1.7156999999999982,1.053600000000003 "></polygon>
    </svg>
    