
    <svg width="4.4623" height="6.435999999999999" xmlns="http://www.w3.org/2000/svg" xmlns:xlink="http://www.w3.org/1999/xlink" style="transform: scale(1, -1)">
        <polygon points="1.4890000000000003,0.1365999999999996 1.4776000000000002,0.1360999999999999 1.4677000000000002,0.133 1.4596000000000002,0.1349999999999998 1.4534000000000002,0.13419999999999987 1.4487000000000003,0.13159999999999972 1.4491000000000003,0.12819999999999965 1.4373000000000002,0.12589999999999968 1.4319000000000002,0.12319999999999975 1.4258000000000002,0.11529999999999951 1.4274000000000002,0.11169999999999991 1.4240000000000002,0.1097999999999999 1.4031000000000002,0.10849999999999937 1.3909000000000002,0.10459999999999958 1.3868000000000003,0.10049999999999937 1.3772000000000002,0.09640000000000004 1.3759000000000001,0.09159999999999968 1.3722000000000003,0.09059999999999935 1.3716000000000002,0.08759999999999923 1.3625000000000003,0.08889999999999976 1.3496000000000001,0.08699999999999974 1.3456000000000001,0.0829999999999993 1.3480000000000003,0.08069999999999933 1.3464000000000003,0.07620000000000005 1.3443000000000003,0.0743999999999998 1.3322000000000003,0.07200000000000006 1.3243000000000003,0.06699999999999928 1.3221000000000003,0.05649999999999977 1.3172000000000001,0.05339999999999989 1.3155000000000001,0.054999999999999716 1.3135000000000001,0.054199999999999804 1.3131000000000002,0.052499999999999325 1.3152000000000001,0.050799999999999734 1.3145000000000002,0.04889999999999972 1.3089000000000002,0.045099999999999696 1.3068000000000002,0.045399999999999885 1.3038000000000003,0.04079999999999995 1.2993000000000001,0.037499999999999645 1.2990000000000002,0.035499999999999865 1.2907000000000002,0.031299999999999883 1.2891000000000001,0.02889999999999926 1.2903000000000002,0.026699999999999946 1.2882000000000002,0.024399999999999977 1.2886000000000002,0.020799999999999486 1.2858000000000003,0.018899999999999473 1.2830000000000001,0.019999999999999574 1.2819000000000003,0.01699999999999946 1.2804000000000002,0.01839999999999975 1.2771000000000001,0.01809999999999956 1.2758000000000003,0.019899999999999807 1.2702000000000002,0.02059999999999995 1.2498,0.01809999999999956 1.2354000000000003,0.018599999999999284 1.2289000000000003,0.016599999999999504 1.2264000000000004,0.012699999999999712 1.2263000000000002,0.017199999999999882 1.2232000000000003,0.016499999999999737 1.2232000000000003,0.014299999999999535 1.2168,0.01389999999999958 1.2154000000000003,0.010099999999999554 1.2088,0.006099999999999994 1.2076000000000002,0.0009999999999994458 1.2059000000000002,0.0019000000000000128 1.2052,0.004999999999999893 1.2013000000000003,0.005199999999999427 1.1974,0.007799999999999585 1.1937000000000002,0.0041999999999999815 1.1939000000000002,0.006899999999999906 1.1911,0.007299999999999862 1.1902000000000004,0.009500000000000064 1.1857000000000002,0.009500000000000064 1.1849000000000003,0.007799999999999585 1.1825,0.009799999999999365 1.1761000000000004,0.007299999999999862 1.1765000000000003,0.005599999999999383 1.1737000000000002,0.004699999999999704 1.1700000000000004,0.0 1.1709,0.006299999999999528 1.1681000000000004,0.01019999999999932 1.1621000000000001,0.014199999999999768 1.1504000000000003,0.015799999999999592 1.1515000000000004,0.018899999999999473 1.1506000000000003,0.022499999999999964 1.1527000000000003,0.024699999999999278 1.1486,0.025399999999999423 1.1558000000000002,0.03329999999999966 1.157,0.0367999999999995 1.1535000000000002,0.04190000000000005 1.1398000000000001,0.0508999999999995 1.1316000000000002,0.05229999999999979 1.1273000000000004,0.05069999999999997 1.1251000000000002,0.05379999999999985 1.1137000000000001,0.05830000000000002 1.0993000000000004,0.05879999999999974 1.0948000000000002,0.05749999999999922 1.0936000000000003,0.052499999999999325 1.0925000000000002,0.052799999999999514 1.0914000000000001,0.05539999999999967 1.0939,0.05689999999999973 1.0937000000000001,0.06049999999999933 1.0898000000000003,0.06489999999999974 1.0925000000000002,0.0660999999999996 1.0926,0.06839999999999957 1.0884,0.07039999999999935 1.0876000000000001,0.07399999999999984 1.0762,0.07879999999999932 1.0586000000000002,0.08319999999999972 1.0580000000000003,0.09279999999999955 1.0512000000000001,0.09979999999999922 1.032,0.10969999999999924 1.0261,0.11079999999999934 1.0146000000000002,0.11649999999999938 1.0157000000000003,0.11989999999999945 1.0190000000000001,0.12049999999999983 1.0203000000000002,0.12369999999999948 1.0183000000000004,0.12429999999999986 1.0162000000000004,0.1346999999999996 1.0141,0.13559999999999928 1.0144000000000002,0.14149999999999974 1.0117000000000003,0.14539999999999953 1.008,0.14749999999999996 0.9927000000000001,0.1534999999999993 0.9937,0.16019999999999968 0.927,0.1871999999999998 0.8801000000000001,0.2023999999999999 0.8785000000000003,0.20469999999999988 0.8696000000000002,0.20509999999999984 0.8157000000000001,0.21839999999999993 0.7499000000000002,0.23199999999999932 0.7084000000000001,0.24350000000000005 0.7063000000000001,0.24689999999999923 0.7022000000000004,0.24819999999999975 0.6978000000000004,0.2369999999999992 0.6587000000000001,0.2394999999999996 0.6271000000000004,0.24350000000000005 0.5909000000000004,0.2604999999999995 0.5239000000000003,0.26949999999999985 0.49060000000000015,0.2801999999999998 0.3932000000000002,0.2992999999999997 0.3528000000000002,0.3096999999999994 0.29710000000000036,0.31989999999999963 0.24910000000000032,0.3304999999999998 0.22070000000000034,0.3390999999999993 0.1535000000000002,0.35139999999999993 0.15310000000000024,0.3771999999999993 0.1604000000000001,0.3735999999999997 0.16570000000000018,0.3744999999999994 0.16780000000000017,0.3765999999999998 0.17700000000000005,0.3731 0.1897000000000002,0.37429999999999986 0.1908000000000003,0.3752999999999993 0.19030000000000014,0.3805999999999994 0.1987000000000001,0.38319999999999954 0.2102000000000004,0.3771999999999993 0.21380000000000043,0.3815999999999997 0.2201000000000004,0.3777999999999997 0.2281000000000004,0.37929999999999975 0.23460000000000036,0.37819999999999965 0.24060000000000015,0.3805999999999994 0.2431000000000001,0.3771999999999993 0.25970000000000004,0.3721999999999994 0.274,0.3567 0.28590000000000027,0.34830000000000005 0.29700000000000015,0.34909999999999997 0.31300000000000017,0.34529999999999994 0.3205,0.35519999999999996 0.3325,0.3578999999999999 0.33270000000000044,0.3613999999999997 0.3278000000000003,0.36379999999999946 0.32930000000000037,0.36660000000000004 0.32630000000000026,0.37069999999999936 0.3275000000000001,0.3719999999999999 0.32550000000000034,0.3712 0.32040000000000024,0.37319999999999975 0.3190000000000004,0.3754999999999997 0.32220000000000004,0.3816999999999995 0.32220000000000004,0.3864000000000001 0.3267000000000002,0.38680000000000003 0.32810000000000006,0.38349999999999973 0.33110000000000017,0.38429999999999964 0.3339000000000003,0.3819999999999997 0.34030000000000005,0.38349999999999973 0.3517000000000001,0.3816999999999995 0.3560000000000003,0.3846999999999996 0.3600000000000003,0.38239999999999963 0.3661000000000003,0.38399999999999945 0.37040000000000006,0.38070000000000004 0.37150000000000016,0.3879999999999999 0.3781000000000003,0.3849999999999998 0.38050000000000006,0.3879999999999999 0.3853000000000004,0.38929999999999954 0.39280000000000026,0.38399999999999945 0.3987000000000003,0.38429999999999964 0.4036000000000004,0.37729999999999997 0.40790000000000015,0.37679999999999936 0.4097000000000004,0.3719999999999999 0.4177000000000004,0.36850000000000005 0.4240000000000004,0.3708 0.42120000000000024,0.3757999999999999 0.42550000000000043,0.3763999999999994 0.42700000000000005,0.3818999999999999 0.4299000000000004,0.38260000000000005 0.4348000000000001,0.3811 0.4379000000000004,0.37729999999999997 0.4386000000000001,0.3724999999999996 0.44330000000000025,0.37069999999999936 0.4445000000000001,0.36679999999999957 0.44760000000000044,0.36850000000000005 0.44540000000000024,0.3721999999999994 0.44860000000000033,0.37460000000000004 0.4507000000000003,0.37189999999999923 0.4498000000000002,0.3682999999999996 0.4519000000000002,0.3674999999999997 0.4554,0.3682999999999996 0.4549000000000003,0.3724999999999996 0.4560000000000004,0.3727999999999998 0.4607000000000001,0.3689 0.47150000000000025,0.36819999999999986 0.4764000000000004,0.3788 0.4778000000000002,0.37650000000000006 0.4759000000000002,0.3724999999999996 0.4767000000000001,0.37019999999999964 0.4788000000000001,0.3702999999999994 0.48130000000000006,0.37349999999999994 0.4839000000000002,0.37189999999999923 0.48960000000000026,0.37270000000000003 0.4930000000000003,0.36989999999999945 0.49590000000000023,0.37069999999999936 0.4972000000000003,0.3651 0.5019,0.3647 0.5024000000000002,0.36159999999999926 0.5048000000000004,0.36189999999999944 0.5076,0.3699999999999992 0.5061000000000004,0.37299999999999933 0.508,0.3777999999999997 0.5105000000000004,0.3760999999999992 0.516,0.3776999999999999 0.5199000000000003,0.3746999999999998 0.5248000000000004,0.3799999999999999 0.5221,0.3813999999999993 0.5220000000000002,0.3843999999999994 0.5247000000000002,0.3899999999999997 0.5300000000000002,0.3898999999999999 0.5294000000000003,0.3956999999999997 0.5311000000000003,0.39589999999999925 0.5344000000000002,0.39259999999999984 0.5344000000000002,0.3981999999999992 0.5373000000000001,0.39839999999999964 0.5383,0.4020999999999999 0.5349000000000004,0.4013 0.5354000000000001,0.4057999999999993 0.532,0.40939999999999976 0.5311000000000003,0.41299999999999937 0.5291000000000001,0.4125999999999994 0.5281000000000002,0.4097999999999997 0.5256000000000003,0.4098999999999995 0.5205000000000002,0.41690000000000005 0.5263000000000004,0.42349999999999977 0.5215000000000001,0.4222999999999999 0.5165000000000002,0.4280999999999997 0.5209000000000001,0.4368999999999996 0.52,0.44229999999999947 0.5162000000000004,0.44539999999999935 0.5163000000000002,0.44849999999999923 0.5126000000000004,0.45569999999999933 0.5145000000000004,0.4632999999999994 0.5050000000000003,0.46169999999999956 0.5020000000000002,0.46809999999999974 0.5018000000000002,0.4731999999999994 0.49870000000000037,0.4745999999999997 0.4973000000000001,0.4780999999999995 0.49860000000000015,0.47969999999999935 0.5051000000000001,0.4795999999999996 0.5030000000000001,0.48269999999999946 0.5043000000000002,0.4867999999999997 0.5033000000000003,0.48959999999999937 0.5012000000000003,0.4908999999999999 0.5023000000000004,0.49350000000000005 0.5054000000000003,0.49160000000000004 0.5067000000000004,0.4941999999999993 0.5032000000000001,0.4964999999999993 0.4972000000000003,0.49599999999999955 0.4963000000000002,0.4974999999999996 0.49970000000000026,0.5068999999999999 0.5025000000000004,0.5069999999999997 0.5032000000000001,0.5030999999999999 0.5074000000000001,0.5034000000000001 0.5072000000000001,0.5061999999999998 0.5013000000000001,0.5109999999999992 0.5058000000000002,0.5108999999999995 0.5072000000000001,0.5073999999999996 0.5088000000000004,0.5099999999999998 0.5075000000000003,0.5143999999999993 0.5047000000000001,0.5170999999999992 0.4982000000000002,0.5164 0.4966000000000004,0.5210999999999997 0.4934000000000003,0.5188999999999995 0.48930000000000007,0.5195999999999996 0.4862000000000002,0.5264999999999995 0.48480000000000034,0.5242999999999993 0.4832000000000001,0.5247999999999999 0.4828000000000001,0.5271999999999997 0.48800000000000043,0.5287999999999995 0.4921000000000002,0.5278 0.49280000000000035,0.5293999999999999 0.4890000000000003,0.5298999999999996 0.4873000000000003,0.5349999999999993 0.48140000000000027,0.5377000000000001 0.47680000000000033,0.5467999999999993 0.4777,0.5537000000000001 0.4809000000000001,0.5558999999999994 0.4900000000000002,0.5539999999999994 0.49260000000000037,0.5557999999999996 0.49570000000000025,0.5663999999999998 0.4941000000000004,0.5683999999999996 0.49600000000000044,0.5783999999999994 0.49140000000000006,0.5843999999999996 0.4903000000000004,0.5901999999999994 0.48470000000000013,0.5920999999999994 0.4879000000000002,0.5975999999999999 0.4908000000000001,0.5958999999999994 0.49150000000000027,0.5973999999999995 0.4860000000000002,0.6033 0.4854000000000003,0.6075999999999997 0.4924000000000004,0.6133999999999995 0.4937,0.6181999999999999 0.49770000000000003,0.6172999999999993 0.5064000000000002,0.6049999999999995 0.5199000000000003,0.6063000000000001 0.5237000000000003,0.6083999999999996 0.5272000000000001,0.6044999999999998 0.5355000000000003,0.6021000000000001 0.5415000000000001,0.6071 0.5379,0.6186999999999996 0.5379,0.649 0.5143000000000004,0.6990999999999996 0.49380000000000024,0.8155999999999999 0.5007000000000001,0.8605 0.4980000000000002,0.8615999999999993 0.49810000000000043,0.8634999999999993 0.4964000000000004,0.8644999999999996 0.4922000000000004,0.8633999999999995 0.49070000000000036,0.8653999999999993 0.4873000000000003,0.8643999999999998 0.4849000000000001,0.8675999999999995 0.4832000000000001,0.867 0.4868000000000001,0.8762999999999996 0.4854000000000003,0.8773999999999997 0.48240000000000016,0.8747999999999996 0.4771000000000001,0.8754 0.47750000000000004,0.8801999999999994 0.47470000000000034,0.8816999999999995 0.4758,0.8859999999999992 0.47180000000000044,0.8845999999999998 0.4729000000000001,0.8876 0.46940000000000026,0.8891 0.4688000000000003,0.8843999999999994 0.4601000000000002,0.8827999999999996 0.4580000000000002,0.8784000000000001 0.45730000000000004,0.8807 0.45500000000000007,0.8794999999999993 0.4570000000000003,0.8824999999999994 0.4541000000000004,0.8857999999999997 0.4516,0.8860999999999999 0.45340000000000025,0.8884999999999996 0.44830000000000014,0.8899999999999997 0.4466000000000001,0.8874999999999993 0.4399000000000002,0.8876 0.4387000000000003,0.891 0.4337000000000004,0.8931999999999993 0.4336000000000002,0.8956999999999997 0.4299000000000004,0.8952999999999998 0.42680000000000007,0.8975999999999997 0.4256000000000002,0.9009999999999998 0.4227000000000003,0.9005999999999998 0.4182000000000001,0.9045999999999994 0.41620000000000035,0.9038999999999993 0.4134000000000002,0.9097999999999997 0.41100000000000003,0.9089 0.40590000000000037,0.9104999999999999 0.4045000000000001,0.9133999999999993 0.40580000000000016,0.9165000000000001 0.40370000000000017,0.9182999999999995 0.40190000000000037,0.9144999999999994 0.3971,0.9127999999999998 0.3935000000000004,0.9062999999999999 0.39070000000000027,0.9066999999999998 0.3893000000000004,0.9042999999999992 0.38590000000000035,0.9045999999999994 0.38610000000000033,0.9028999999999998 0.3836000000000004,0.9006999999999996 0.38000000000000034,0.9013 0.3781000000000003,0.8999999999999995 0.3782000000000001,0.8971999999999998 0.3761000000000001,0.8958999999999993 0.37470000000000026,0.8969999999999994 0.3622000000000001,0.8903999999999996 0.35900000000000043,0.8925000000000001 0.3567,0.8901999999999992 0.35470000000000024,0.8914 0.35360000000000014,0.8897999999999993 0.34140000000000015,0.8891999999999998 0.33770000000000033,0.8823999999999996 0.32760000000000034,0.8809999999999993 0.3228000000000004,0.8892999999999995 0.32030000000000003,0.8899999999999997 0.3190000000000004,0.8942999999999994 0.3145000000000002,0.8977999999999993 0.31120000000000037,0.8965999999999994 0.3077000000000001,0.8984999999999994 0.3025000000000002,0.8978999999999999 0.2986000000000004,0.9017 0.29540000000000033,0.9017999999999997 0.30110000000000037,0.9308999999999994 0.3088000000000002,0.9349999999999996 0.3094000000000001,0.9771999999999998 0.2360000000000002,0.9708999999999994 0.24160000000000004,1.1182999999999996 0.18810000000000038,1.2464999999999993 0.15980000000000016,1.4131 0.15440000000000031,1.4262999999999995 0.1073000000000004,1.5133999999999999 0.0878000000000001,1.5127999999999995 0.08820000000000006,1.5208999999999993 0.09040000000000026,1.5255 0.09120000000000017,1.5570999999999993 0.08750000000000036,1.5713 0.08120000000000038,1.5770999999999997 0.07630000000000026,1.5871999999999993 0.07560000000000011,1.6040999999999999 0.0719000000000003,1.6098999999999997 0.06860000000000044,1.6216 0.025500000000000078,1.7999 0.028000000000000025,1.8576999999999995 0.018500000000000405,1.8619999999999992 0.007200000000000095,1.8706999999999994 0.006800000000000139,1.8767999999999994 0.0,1.8788 0.002000000000000224,1.8826999999999998 0.002300000000000413,1.8914999999999997 0.0050000000000003375,1.8942999999999994 0.0054000000000002935,1.9051 0.007300000000000306,1.9061999999999992 0.009200000000000319,1.9113999999999995 0.011700000000000266,1.9124999999999996 0.014300000000000423,1.9208999999999996 0.018400000000000194,1.9266999999999994 0.026800000000000157,1.9288999999999996 0.02540000000000031,1.9375999999999998 0.03100000000000014,1.9418999999999995 0.031200000000000117,1.9451 0.029400000000000315,1.9474999999999998 0.032600000000000406,1.9485999999999999 0.03430000000000044,1.9524999999999997 0.030700000000000394,1.9558999999999997 0.032200000000000006,1.9608999999999996 0.029900000000000038,1.9617999999999993 0.03270000000000017,1.9646 0.03980000000000006,1.9663999999999993 0.041400000000000325,1.9710999999999999 0.045500000000000096,1.9754999999999994 0.04590000000000005,1.9832 0.048100000000000254,1.9830999999999994 0.05310000000000015,1.9928 0.05320000000000036,1.9955999999999996 0.048100000000000254,2.0006999999999993 0.0477000000000003,2.0054 0.04430000000000023,2.01 0.050200000000000244,2.0164999999999997 0.04640000000000022,2.0219999999999994 0.04360000000000008,2.0221999999999998 0.04380000000000006,2.0237 0.034900000000000375,2.029 0.03310000000000013,2.0354 0.03080000000000016,2.0378999999999996 0.029300000000000104,2.0482999999999993 0.030500000000000416,2.0528999999999993 0.029100000000000126,2.0557 0.031500000000000306,2.0612999999999992 0.03110000000000035,2.0675999999999997 0.03240000000000043,2.0705999999999998 0.030300000000000438,2.0823 0.03630000000000022,2.0861 0.10670000000000002,2.2016 0.11860000000000026,2.2178999999999993 0.11950000000000038,2.2238999999999995 0.1282000000000001,2.2360999999999995 0.14550000000000018,2.2670999999999992 0.15100000000000025,2.2736 0.1543000000000001,2.2752999999999997 0.15490000000000004,2.2802 0.17920000000000025,2.3156 0.18720000000000026,2.3240999999999996 0.23000000000000043,2.3328999999999995 0.23850000000000016,2.4036999999999997 0.2794000000000003,2.4558999999999997 0.3087000000000004,2.5004 0.3024,2.5120999999999993 0.28390000000000004,2.5332999999999997 0.2925000000000004,2.5942999999999996 0.3137000000000003,2.6911999999999994 0.3148000000000004,2.7177 0.32740000000000036,2.7477 0.3386,2.8697999999999997 0.3734000000000002,2.9448 0.37870000000000026,2.9596999999999998 0.3886000000000003,2.9798999999999998 0.39280000000000026,2.9935 0.4115000000000002,3.0230999999999995 0.4135000000000004,3.0413999999999994 0.4269000000000003,3.0547999999999993 0.4360000000000004,3.0668999999999995 0.4317000000000002,3.0816999999999997 0.4370000000000003,3.0855999999999995 0.4330000000000003,3.0949 0.43290000000000006,3.1038999999999994 0.42920000000000025,3.1098 0.43690000000000007,3.1293999999999995 0.44040000000000035,3.1560999999999995 0.4400000000000004,3.1735999999999995 0.4518000000000004,3.1997 0.45210000000000017,3.2207 0.4535,3.2268 0.4690000000000003,3.2448999999999995 0.49040000000000017,3.2582999999999993 0.5105000000000004,3.262999999999999 0.5494000000000003,3.2784000000000004 0.5665,3.2909999999999995 0.5700000000000003,3.2908 0.6001000000000003,3.3032999999999992 0.6094000000000004,3.303399999999999 0.6254000000000004,3.3159 0.6307,3.3144 0.6259000000000001,3.3282999999999996 0.6280000000000001,3.3525 0.6322000000000001,3.3762999999999996 0.6371000000000002,3.3861999999999997 0.6396000000000002,3.3876999999999997 0.6411000000000002,3.3923999999999994 0.6473000000000004,3.3988000000000005 0.6536000000000004,3.413099999999999 0.6603000000000003,3.4148000000000005 0.6708000000000003,3.4127 0.6722000000000001,3.4135999999999997 0.6746000000000003,3.4110000000000005 0.677,3.411699999999999 0.6859000000000002,3.4059999999999997 0.6924000000000001,3.4067 0.6967000000000003,3.4105 0.7007000000000003,3.408499999999999 0.7024000000000004,3.4045999999999994 0.7039000000000004,3.4074 0.7067000000000001,3.4081 0.7173000000000003,3.4369000000000005 0.7442000000000002,3.451999999999999 0.7531000000000003,3.4546 0.7672000000000003,3.4663999999999993 0.7644000000000002,3.5059999999999993 0.7621000000000002,3.5177000000000005 0.7607000000000004,3.568599999999999 0.7577000000000003,3.5951999999999993 0.7457000000000003,3.6443000000000003 0.7446000000000002,3.6628999999999996 0.7377000000000002,3.7017999999999995 0.7291000000000003,3.7420999999999998 0.7225000000000001,3.7617000000000003 0.7131000000000003,3.8034999999999988 0.7000000000000002,3.8761 0.6995,3.8900999999999994 0.6950000000000003,3.920799999999999 0.6882000000000001,3.952099999999999 0.6887000000000003,3.9617999999999993 0.6749,4.0398000000000005 0.6684000000000001,4.049499999999999 0.6447000000000003,4.0482000000000005 0.6331000000000002,4.0558000000000005 0.6404000000000001,4.0683 0.6632000000000002,4.0827 0.6658000000000004,4.0874999999999995 0.6656000000000004,4.093099999999999 0.6611000000000002,4.1019 0.6617000000000002,4.1041 0.6586000000000003,4.105099999999999 0.6548000000000003,4.108999999999999 0.6446000000000001,4.131099999999999 0.6392000000000002,4.1392 0.6408,4.1528 0.6462000000000003,4.1727 0.6440000000000001,4.1831000000000005 0.6351000000000004,4.1909 0.6173000000000002,4.1972 0.6108000000000002,4.2052000000000005 0.6043000000000003,4.2449 0.6080000000000001,4.2686 0.6024000000000003,4.2681 0.6007000000000002,4.2739 0.5976000000000004,4.277499999999999 0.5894000000000004,4.2814000000000005 0.5759000000000003,4.279699999999999 0.5735000000000001,4.2772 0.5734000000000004,4.28 0.5679000000000003,4.2802999999999995 0.5603000000000002,4.2764999999999995 0.5586000000000002,4.277399999999999 0.5597000000000003,4.2808 0.5571000000000002,4.2822000000000005 0.5466000000000002,4.2786 0.5421,4.2733 0.5423,4.278199999999999 0.5481000000000003,4.283 0.548,4.2854 0.5346000000000002,4.2885 0.5016000000000003,4.2868 0.4900000000000002,4.2939 0.48850000000000016,4.306 0.48290000000000033,4.313 0.48270000000000035,4.311599999999999 0.48130000000000006,4.3119000000000005 0.4821000000000004,4.314099999999999 0.4809000000000001,4.316199999999999 0.4801000000000002,4.3143 0.47940000000000005,4.316 0.4802000000000004,4.3175 0.47860000000000014,4.3221 0.4802000000000004,4.326099999999999 0.4931000000000001,4.3401000000000005 0.49650000000000016,4.349099999999999 0.4944000000000002,4.374299999999999 0.4910000000000001,4.376 0.4945000000000004,4.3761 0.49350000000000005,4.3816 0.4897,4.388699999999999 0.48750000000000027,4.398499999999999 0.4830000000000001,4.398499999999999 0.48750000000000027,4.3989 0.48800000000000043,4.4036 0.4902000000000002,4.4067 0.4985000000000004,4.4121999999999995 0.5135000000000001,4.4164 0.5118,4.419099999999999 0.5149000000000004,4.416899999999999 0.5192000000000001,4.4173 0.5252000000000003,4.420699999999999 0.5298000000000003,4.4266 0.5395000000000003,4.4477 0.5410000000000004,4.454399999999999 0.5398000000000001,4.4538 0.5393000000000003,4.457 0.5366000000000004,4.457 0.5385000000000004,4.458199999999999 0.5379,4.4614 0.5417000000000001,4.4562 0.5441000000000003,4.462699999999999 0.5433000000000003,4.4639999999999995 0.5453000000000001,4.4646 0.5460000000000003,4.467899999999999 0.5484000000000004,4.4693 0.5478000000000001,4.4707 0.5642,4.4792 0.5700000000000003,4.4874 0.6002000000000001,4.5013 0.6055000000000001,4.516799999999999 0.5854000000000004,4.5415 0.5772000000000004,4.5482000000000005 0.5689000000000002,4.545599999999999 0.5584000000000002,4.5477 0.5515000000000003,4.5524 0.5446000000000004,4.5613 0.5439000000000003,4.567799999999999 0.5408000000000004,4.5741000000000005 0.5407000000000002,4.5866999999999996 0.5426000000000002,4.595899999999999 0.5509000000000004,4.6001 0.5590000000000002,4.600499999999999 0.5675000000000003,4.6124 0.5800000000000001,4.6215 0.5844,4.628699999999999 0.5883000000000003,4.6451 0.5849000000000002,4.6682999999999995 0.5746000000000002,4.6887 0.5720000000000001,4.708099999999999 0.5727000000000002,4.7184 0.5776000000000003,4.7357000000000005 0.5780000000000003,4.7475 0.5657000000000001,4.7681 0.5541,4.7769 0.5483000000000002,4.785099999999999 0.5406000000000004,4.7886999999999995 0.5311000000000003,4.7907 0.5152000000000001,4.8076 0.5067000000000004,4.811099999999999 0.49990000000000023,4.8188 0.4930000000000003,4.831499999999999 0.4908000000000001,4.838 0.49250000000000016,4.840599999999999 0.4911000000000003,4.8439000000000005 0.4910000000000001,4.8625 0.4979,4.8677 0.5,4.878899999999999 0.5076,4.885799999999999 0.5100000000000002,4.8912 0.5148000000000001,4.8929 0.5169000000000001,4.9027 0.508,4.913799999999999 0.5049000000000001,4.9327 0.5053000000000001,4.938899999999999 0.5036,4.9418999999999995 0.5009000000000001,4.9439 0.4902000000000002,4.9455 0.4781000000000004,4.950499999999999 0.4748000000000001,4.957999999999999 0.4750000000000001,4.9713 0.4788000000000001,4.986199999999999 0.47170000000000023,5.002299999999999 0.4716,5.007599999999999 0.48350000000000026,5.018199999999999 0.48690000000000033,5.0287 0.4932000000000003,5.0375000000000005 0.49560000000000004,5.0461 0.5017,5.054199999999999 0.5035000000000003,5.061699999999999 0.5118,5.069 0.5248000000000004,5.0758 0.5296000000000003,5.076199999999999 0.5353000000000003,5.088499999999999 0.5316000000000001,5.0993 0.5149000000000004,5.1156 0.4998,5.1452 0.5009000000000001,5.159199999999999 0.49860000000000015,5.1643 0.49780000000000024,5.1741 0.5023000000000004,5.189099999999999 0.5099,5.202799999999999 0.5172000000000003,5.2094 0.5188000000000001,5.2213 0.512,5.2428 0.49880000000000013,5.2543999999999995 0.4865000000000004,5.2726999999999995 0.48480000000000034,5.2823 0.4798,5.288199999999999 0.47950000000000026,5.305699999999999 0.47350000000000003,5.3206999999999995 0.4713000000000003,5.330899999999999 0.4711000000000003,5.340699999999999 0.4737,5.3549 0.46990000000000043,5.368099999999999 0.4681000000000002,5.3876 0.4743000000000004,5.402 0.4709000000000003,5.425399999999999 0.4671000000000003,5.4327 0.4680000000000004,5.4369000000000005 0.46430000000000016,5.452099999999999 0.46620000000000017,5.458899999999999 0.47350000000000003,5.467099999999999 0.48740000000000006,5.4752 0.5021000000000004,5.4888 0.5048000000000004,5.494599999999999 0.5059,5.508499999999999 0.5025000000000004,5.520499999999999 0.49880000000000013,5.525199999999999 0.4828000000000001,5.533 0.46430000000000016,5.5379 0.42790000000000017,5.557899999999999 0.4206000000000003,5.565 0.41810000000000036,5.571599999999999 0.41200000000000037,5.5795 0.41290000000000004,5.589199999999999 0.41700000000000026,5.5958 0.4196000000000004,5.6046000000000005 0.4207000000000001,5.6283 0.4307000000000003,5.649299999999999 0.44460000000000033,5.659399999999999 0.45320000000000027,5.660799999999999 0.4623000000000004,5.6591 0.4820000000000002,5.6696 0.4861000000000004,5.6735999999999995 0.4889000000000001,5.683599999999999 0.4873000000000003,5.686099999999999 0.48480000000000034,5.686799999999999 0.4708000000000001,5.6878 0.42810000000000015,5.6986 0.4213,5.703599999999999 0.4065000000000003,5.7098 0.4083000000000001,5.711899999999999 0.39860000000000007,5.7177 0.39460000000000006,5.723 0.3900000000000001,5.734899999999999 0.391,5.7419 0.3875000000000002,5.752299999999999 0.38210000000000033,5.762 0.37310000000000043,5.767599999999999 0.3716000000000004,5.7724 0.3669000000000002,5.7757 0.36300000000000043,5.784 0.36170000000000035,5.7909 0.3640000000000003,5.8014 0.36030000000000006,5.8123 0.35130000000000017,5.8243 0.3477000000000001,5.8351 0.33940000000000037,5.848999999999999 0.33770000000000033,5.856799999999999 0.33450000000000024,5.8609 0.32940000000000014,5.8633999999999995 0.32650000000000023,5.871299999999999 0.3217000000000003,5.874099999999999 0.32150000000000034,5.897799999999999 0.33110000000000017,5.9134 0.34640000000000004,5.9248 0.35150000000000015,5.932999999999999 0.3511000000000002,5.936599999999999 0.3560000000000003,5.945099999999999 0.35660000000000025,5.9494 0.3512000000000004,5.960999999999999 0.33830000000000027,5.9654 0.33140000000000036,5.9659 0.3221000000000003,5.9705 0.32430000000000003,5.9834000000000005 0.3432000000000004,5.996999999999999 0.3671000000000002,6.0254 0.36760000000000037,6.0339 0.3705000000000003,6.0375000000000005 0.3702000000000001,6.042599999999999 0.38110000000000044,6.064899999999999 0.383,6.093099999999999 0.3944000000000001,6.1093 0.39860000000000007,6.118899999999999 0.39860000000000007,6.127299999999999 0.3956000000000004,6.1351 0.3977000000000004,6.1476 0.4038000000000004,6.152399999999999 0.41080000000000005,6.151699999999999 0.42410000000000014,6.153899999999999 0.4438000000000004,6.182799999999999 0.44510000000000005,6.1909 0.4424000000000001,6.2038 0.43320000000000025,6.2152 0.4243000000000001,6.221699999999999 0.42150000000000043,6.228699999999999 0.42810000000000015,6.265299999999999 0.49380000000000024,6.265999999999999 0.4930000000000003,6.2703999999999995 0.4942000000000002,6.2738000000000005 0.5004000000000004,6.2792 0.5046000000000004,6.2802 0.6353000000000004,6.280499999999999 0.6441000000000003,6.2825 0.6792000000000002,6.282799999999999 0.7067000000000001,6.2793 0.7644000000000002,6.2794 0.8098000000000001,6.2845 0.8517000000000001,6.2777 0.8845000000000001,6.2700000000000005 0.9019000000000004,6.2693 0.9620000000000002,6.2723 0.9897,6.278 1.0419,6.281899999999999 1.1437000000000004,6.2755 1.1793,6.275799999999999 1.2041000000000004,6.2787 1.2558000000000002,6.265199999999999 1.4058000000000002,6.2673 1.5187000000000002,6.2693 1.5176000000000003,6.2992 1.7163000000000002,6.3014 1.7180000000000002,6.271399999999999 1.8336000000000001,6.2723 1.8330000000000002,6.2747 1.8387000000000002,6.2764 1.8393000000000002,6.2815 1.8532000000000002,6.263699999999999 1.8660000000000003,6.2518 1.8703000000000003,6.249899999999999 1.8777000000000001,6.2504 1.8849000000000002,6.2473 1.8912000000000002,6.250099999999999 1.9246000000000003,6.2496 1.9851000000000003,6.252199999999999 2.1043000000000003,6.2498 2.1475,6.246999999999999 2.1473000000000004,6.2650999999999994 2.2104,6.2663 2.2552000000000003,6.2693 2.2618,6.269099999999999 2.2620000000000005,6.2589999999999995 2.2857000000000003,6.2596 2.3110000000000004,6.263599999999999 2.3456,6.2634 2.3455000000000004,6.241499999999999 2.3718000000000004,6.243099999999999 2.3731,6.242 2.3733000000000004,6.2267 2.3698,6.225499999999999 2.3695000000000004,6.223999999999999 2.3921,6.227899999999999 2.3992000000000004,6.2458 2.4071000000000002,6.2595 2.4337,6.2595 2.4348,6.2677000000000005 2.4545000000000003,6.267 2.4546,6.259199999999999 2.5158000000000005,6.258399999999999 2.5780000000000003,6.259799999999999 2.5752,6.2518 2.5764000000000005,6.2467999999999995 2.5836,6.2437 2.5897,6.251599999999999 2.5946000000000002,6.2497 2.6084000000000005,6.2488 2.6098000000000003,6.242999999999999 2.6067,6.2373 2.6048,6.2359 2.5983,6.2358 2.5904000000000003,6.2223999999999995 2.5909000000000004,6.2200999999999995 2.6006,6.2176 2.6057,6.2245 2.6085000000000003,6.2250000000000005 2.617,6.2162999999999995 2.6138000000000003,6.2113000000000005 2.6266000000000003,6.2031 2.6327000000000003,6.202699999999999 2.6357000000000004,6.200399999999999 2.6383,6.195199999999999 2.64,6.182199999999999 2.6435000000000004,6.178 2.6423,6.175 2.6438,6.1713 2.6450000000000005,6.1734 2.6484,6.172999999999999 2.6509,6.1756 2.656,6.1772 2.66,6.1817 2.6689000000000003,6.1849 2.6686,6.192099999999999 2.6706000000000003,6.1964999999999995 2.6757,6.2 2.6745,6.2016 2.6764,6.2040999999999995 2.6744000000000003,6.2091 2.676,6.2221 2.6805000000000003,6.2243 2.6828000000000003,6.229399999999999 2.6823,6.232 2.6865,6.2368999999999994 2.6891000000000003,6.245499999999999 2.6933000000000002,6.2526 2.6963000000000004,6.2541 2.7032000000000003,6.250699999999999 2.7092,6.2519 2.7122,6.244799999999999 2.7101,6.2433000000000005 2.7109,6.2403 2.7135000000000002,6.240199999999999 2.7174000000000005,6.236199999999999 2.718,6.2456000000000005 2.7257000000000002,6.252399999999999 2.7263,6.2565 2.7325000000000004,6.2618 2.736,6.2601 2.7391,6.2526 2.7453000000000003,6.252199999999999 2.7456000000000005,6.2533 2.7508000000000004,6.250099999999999 2.7513,6.2535 2.7575000000000003,6.2595 2.7581,6.262299999999999 2.7607000000000004,6.2634 2.7611000000000003,6.2665999999999995 2.7596000000000003,6.267599999999999 2.7615000000000003,6.2732 2.7603,6.2779 2.7673,6.2815 2.7716000000000003,6.2814000000000005 2.7736,6.2833 2.7761000000000005,6.283499999999999 2.7763,6.2818 2.7818,6.2841 2.7802000000000002,6.287 2.7864000000000004,6.296499999999999 2.7937000000000003,6.2944 2.801,6.2892 2.806,6.291099999999999 2.8242000000000003,6.2916 2.8285,6.2983 2.8235,6.305499999999999 2.8273,6.309 2.8223000000000003,6.326199999999999 2.8306000000000004,6.3472 2.8298,6.3488 2.8318000000000003,6.3572 2.8304,6.3649 2.834,6.3754 2.8408,6.375899999999999 2.8479,6.3822 2.8514000000000004,6.3809 2.8566000000000003,6.384099999999999 2.8575000000000004,6.387199999999999 2.8609,6.388099999999999 2.8643,6.386499999999999 2.8680000000000003,6.387099999999999 2.8691000000000004,6.385699999999999 2.8742,6.3859 2.8771000000000004,6.387999999999999 2.8804000000000003,6.387 2.8840000000000003,6.3831 2.8859000000000004,6.3851 2.8895000000000004,6.3843000000000005 2.8872,6.379599999999999 2.8862,6.367299999999999 2.8911000000000002,6.359899999999999 2.8897000000000004,6.3534 2.8917,6.347599999999999 2.8962000000000003,6.342 2.9017000000000004,6.339099999999999 2.9007,6.330699999999999 2.9022,6.3302000000000005 2.9068,6.3335 2.9087,6.3458 2.9158000000000004,6.3457 2.9217000000000004,6.3481 2.9266,6.3616 2.9254000000000002,6.3679 2.9416,6.3763 2.9520000000000004,6.376399999999999 2.9586,6.3806 2.9663000000000004,6.3798 2.9887,6.3847 2.9918000000000005,6.3899 2.9904,6.398699999999999 2.9890000000000003,6.4004 2.9788,6.403299999999999 2.9724000000000004,6.4089 2.9736000000000002,6.4125000000000005 2.9773,6.414499999999999 2.9788,6.4287 2.9814000000000003,6.432899999999999 2.9861000000000004,6.435999999999999 3.0441000000000003,6.421399999999999 3.0643000000000002,6.417799999999999 3.1005000000000003,6.4082 3.1101,6.4036 3.1256000000000004,6.400999999999999 3.1278,6.397099999999999 3.1279000000000003,6.3907 3.1203000000000003,6.3846 3.1181,6.38 3.1198,6.370499999999999 3.1185,6.3678 3.1208,6.3662 3.1265,6.3679 3.1373,6.3661 3.1430000000000002,6.360399999999999 3.1473000000000004,6.3601 3.1580000000000004,6.3554 3.1612,6.3500000000000005 3.1672000000000002,6.3471 3.1757000000000004,6.348199999999999 3.1812,6.345299999999999 3.1904000000000003,6.347599999999999 3.1940000000000004,6.3458 3.1980000000000004,6.3479 3.2077000000000004,6.3473 3.2126,6.3564 3.216,6.3587 3.2162,6.3618 3.2190000000000003,6.362699999999999 3.2217000000000002,6.3664 3.2233,6.365799999999999 3.2340000000000004,6.372699999999999 3.2402,6.372799999999999 3.2424000000000004,6.3755999999999995 3.2441000000000004,6.3755 3.2472000000000003,6.3739 3.2474000000000003,6.371899999999999 3.2572,6.368999999999999 3.258,6.3647 3.2567000000000004,6.361999999999999 3.2614,6.36 3.2642,6.3562 3.2637,6.3504 3.2661000000000002,6.3439000000000005 3.2864000000000004,6.3241000000000005 3.2908000000000004,6.2647 3.2960000000000003,6.253799999999999 3.2924,6.2444999999999995 3.2933000000000003,6.2421999999999995 3.2899000000000003,6.2399 3.2869,6.2337 3.2563000000000004,6.224799999999999 3.2556000000000003,6.221799999999999 3.2574,6.220399999999999 3.2566,6.214999999999999 3.2544000000000004,6.214299999999999 3.2547,6.2069 3.2503,6.205099999999999 3.2497000000000003,6.1992 3.2520000000000002,6.188999999999999 3.2499000000000002,6.185199999999999 3.2543,6.1818 3.2548000000000004,6.179099999999999 3.2531000000000003,6.1770000000000005 3.2545,6.1758 3.2472000000000003,6.1674 3.2493000000000003,6.1667 3.249,6.1633000000000004 3.2464000000000004,6.160699999999999 3.2465,6.1559 3.2437,6.152299999999999 3.2442,6.150899999999999 3.2368,6.142599999999999 3.236,6.138699999999999 3.2376,6.131999999999999 3.2358000000000002,6.131799999999999 3.237,6.1270999999999995 3.2333000000000003,6.121999999999999 3.2322,6.1171 3.2335000000000003,6.103699999999999 3.2394000000000003,6.092899999999999 3.2382000000000004,6.085 3.2399,6.080899999999999 3.2326,6.076299999999999 3.2307,6.068599999999999 3.2238,6.066199999999999 3.2181,6.060199999999999 3.2166,6.0536 3.2125000000000004,6.052499999999999 3.2053000000000003,6.0475 3.1975000000000002,6.0339 3.1942000000000004,6.0347 3.1891000000000003,6.031199999999999 3.192,6.025199999999999 3.1875,6.0181 3.1887000000000003,6.006999999999999 3.1907,6.0032000000000005 3.1873,5.991699999999999 3.1891000000000003,5.9811000000000005 3.1856000000000004,5.979 3.1748000000000003,5.977199999999999 3.1717000000000004,5.9731 3.1715000000000004,5.970299999999999 3.1837000000000004,5.9517999999999995 3.1905,5.935 3.1921000000000004,5.929899999999999 3.1917000000000004,5.922399999999999 3.2018000000000004,5.894899999999999 3.209,5.892 3.2464000000000004,5.8847 3.2463,5.882599999999999 3.2503,5.8770999999999995 3.2555,5.877299999999999 3.2558000000000002,5.876 3.2590000000000003,5.8762 3.2603000000000004,5.8748 3.3034000000000003,5.862799999999999 3.3029,5.8593 3.3049000000000004,5.858099999999999 3.305,5.8554 3.3183000000000002,5.8447000000000005 3.3222,5.8335 3.3225000000000002,5.8228 3.3798000000000004,5.802499999999999 3.39,5.791199999999999 3.4047,5.7878 3.4073,5.7823 3.4063000000000003,5.7814000000000005 3.4078000000000004,5.777499999999999 3.4064,5.7761000000000005 3.4095000000000004,5.7746 3.4078000000000004,5.771399999999999 3.4101000000000004,5.7655 3.4092000000000002,5.7626 3.4131,5.758399999999999 3.4123,5.756099999999999 3.414,5.7520999999999995 3.4128000000000003,5.7488 3.4166000000000003,5.7458 3.4154,5.7429 3.4172000000000002,5.740799999999999 3.4165,5.7389 3.4191000000000003,5.738599999999999 3.4213000000000005,5.734799999999999 3.4194000000000004,5.7289 3.4166000000000003,5.7284 3.4166000000000003,5.726499999999999 3.4184,5.7235000000000005 3.4239,5.7215 3.4238000000000004,5.717199999999999 3.4252000000000002,5.7183 3.4268,5.7146 3.4306,5.7124999999999995 3.4320000000000004,5.714099999999999 3.4342,5.7123 3.4346,5.707999999999999 3.4323,5.7076 3.4326000000000003,5.705899999999999 3.4317,5.7063999999999995 3.4312,5.7040999999999995 3.4288000000000003,5.7025 3.4330000000000003,5.694499999999999 3.4317,5.690499999999999 3.4349000000000003,5.6895 3.4375,5.685199999999999 3.4409,5.6864 3.4443,5.6842 3.4473000000000003,5.678299999999999 3.4505000000000003,5.6796 3.4525,5.6748 3.4516,5.6705 3.4548,5.6636999999999995 3.4639,5.6681 3.4684000000000004,5.6682999999999995 3.4685,5.665399999999999 3.4715000000000003,5.6666 3.4673000000000003,5.6795 3.4739000000000004,5.678 3.4723,5.679799999999999 3.4724000000000004,5.682799999999999 3.4771,5.6841 3.4793000000000003,5.6877 3.4827000000000004,5.685999999999999 3.4797000000000002,5.683599999999999 3.4844000000000004,5.684399999999999 3.4886000000000004,5.6831000000000005 3.4959000000000002,5.674599999999999 3.4988,5.6735 3.4995000000000003,5.6770000000000005 3.5036,5.6758 3.5056000000000003,5.6770000000000005 3.5087,5.673899999999999 3.5114,5.674499999999999 3.5129,5.6704 3.5204000000000004,5.6709000000000005 3.5217,5.669 3.5258000000000003,5.6718 3.5264,5.6702 3.5305000000000004,5.6713 3.5312,5.6732000000000005 3.5290000000000004,5.6735999999999995 3.5287,5.676799999999999 3.5325,5.676699999999999 3.535,5.6819999999999995 3.5398,5.6801 3.5410000000000004,5.6826 3.5431000000000004,5.680699999999999 3.5458000000000003,5.6831000000000005 3.5481000000000003,5.682299999999999 3.5508,5.6756 3.5499,5.673799999999999 3.5521000000000003,5.6703 3.5562,5.6719 3.5570000000000004,5.670099999999999 3.5601000000000003,5.670699999999999 3.5603000000000002,5.665299999999999 3.5623000000000005,5.663999999999999 3.5622000000000003,5.652 3.5577,5.6452 3.5529,5.6429 3.5551000000000004,5.641699999999999 3.5522,5.6377 3.5633000000000004,5.6339999999999995 3.5649,5.6307 3.5697,5.6323 3.5704000000000002,5.628799999999999 3.5741,5.626599999999999 3.5765000000000002,5.621199999999999 3.5762,5.6141 3.5785,5.609699999999999 3.5774000000000004,5.598999999999999 3.5829000000000004,5.595199999999999 3.5872,5.6011999999999995 3.5902000000000003,5.600699999999999 3.5917000000000003,5.5978 3.5956,5.597599999999999 3.5999000000000003,5.586199999999999 3.5993000000000004,5.5851 3.5946000000000002,5.585499999999999 3.5852000000000004,5.581 3.5845000000000002,5.574599999999999 3.5782000000000003,5.5727 3.5807,5.5698 3.5834,5.5711 3.5871000000000004,5.5680000000000005 3.5909000000000004,5.5726 3.5917000000000003,5.5699 3.5935,5.5698 3.5945,5.5727 3.5978000000000003,5.570199999999999 3.6101,5.5688 3.6151,5.5751 3.6208,5.5721 3.6286,5.5718000000000005 3.6388000000000003,5.575499999999999 3.6429,5.5745 3.6528,5.577099999999999 3.6581,5.575399999999999 3.66,5.569 3.6590000000000003,5.5657000000000005 3.6534000000000004,5.5638 3.6502000000000003,5.5653 3.6452,5.5612 3.6445000000000003,5.5596000000000005 3.6466000000000003,5.5583 3.6408,5.5558000000000005 3.6388000000000003,5.5523 3.6401000000000003,5.547999999999999 3.6379,5.5498 3.6349,5.549599999999999 3.6345,5.5483 3.6362,5.5469 3.6349,5.5444 3.6338000000000004,5.547 3.6315000000000004,5.546399999999999 3.6344000000000003,5.5415 3.6436,5.537999999999999 3.6437000000000004,5.535099999999999 3.6345,5.5276000000000005 3.6260000000000003,5.5263 3.6232,5.519799999999999 3.6217,5.4965 3.6233000000000004,5.4836 3.6223,5.4804 3.6171,5.4745 3.6175,5.4615 3.6131,5.4531 3.6153000000000004,5.4446 3.615,5.434499999999999 3.6123000000000003,5.429199999999999 3.6149000000000004,5.421 3.6242,5.407099999999999 3.6252000000000004,5.3991 3.6202,5.3904000000000005 3.6186000000000003,5.3807 3.6143,5.3731 3.6142000000000003,5.3633 3.6171,5.3534999999999995 3.6229000000000005,5.348399999999999 3.6266000000000003,5.3465 3.6423,5.3457 3.6573,5.342099999999999 3.677,5.3244 3.6795,5.3191999999999995 3.6749,5.3066 3.6761000000000004,5.2953 3.6738000000000004,5.288999999999999 3.6741,5.2847 3.6725000000000003,5.282899999999999 3.6641000000000004,5.2816 3.6562,5.287299999999999 3.6378000000000004,5.288199999999999 3.6273000000000004,5.2962 3.6251,5.2954 3.6223,5.2906 3.6224000000000003,5.286699999999999 3.6261,5.277499999999999 3.6237000000000004,5.265999999999999 3.6191000000000004,5.258299999999999 3.6211,5.2482999999999995 3.6236,5.2406 3.6318,5.2252 3.6370000000000005,5.2192 3.6482,5.2116 3.6486,5.1993 3.6405000000000003,5.195799999999999 3.6227,5.1915000000000004 3.6164,5.1811 3.6135,5.165399999999999 3.6151,5.150299999999999 3.6134000000000004,5.1436 3.6165000000000003,5.1338 3.616,5.1306 3.6202,5.109699999999999 3.6149000000000004,5.099899999999999 3.6109,5.086899999999999 3.6024000000000003,5.078499999999999 3.6025,5.0675 3.5936000000000003,5.06 3.5926,5.0528 3.5963000000000003,5.0461 3.5975,5.0398000000000005 3.5941,5.0362 3.5891,5.0363 3.5875000000000004,5.0348 3.5919000000000003,5.0261000000000005 3.592,5.0200000000000005 3.5871000000000004,5.001599999999999 3.5808,4.989399999999999 3.5844,4.9844 3.6,4.982499999999999 3.6079000000000003,4.975699999999999 3.6135,4.954199999999999 3.6127000000000002,4.9371 3.615,4.938199999999999 3.6195000000000004,4.9362 3.6206,4.9372 3.6253,4.9346000000000005 3.6248000000000005,4.929799999999999 3.6274,4.9289 3.628,4.9301 3.6303,4.9273 3.6272,4.9219 3.6291,4.9213 3.6297,4.916999999999999 3.6322,4.916899999999999 3.6312,4.9134 3.6342000000000003,4.913799999999999 3.6351000000000004,4.9157 3.6376000000000004,4.9151 3.6371,4.9121999999999995 3.6391,4.911599999999999 3.6377,4.9083 3.6389000000000005,4.904699999999999 3.6441000000000003,4.9060999999999995 3.6412000000000004,4.890299999999999 3.6348000000000003,4.8694 3.6450000000000005,4.852799999999999 3.6415,4.8472 3.6304000000000003,4.838399999999999 3.6139,4.833899999999999 3.6075000000000004,4.834499999999999 3.6033000000000004,4.8389999999999995 3.5965000000000003,4.8404 3.5876,4.8403 3.5806000000000004,4.8371 3.5713000000000004,4.8389 3.5605,4.836999999999999 3.5516,4.838299999999999 3.5374000000000003,4.8343 3.5332000000000003,4.830099999999999 3.5278,4.828499999999999 3.5155000000000003,4.8359 3.5055,4.8374999999999995 3.5020000000000002,4.8359 3.5006000000000004,4.832399999999999 3.5011,4.823899999999999 3.4967,4.8092999999999995 3.4984,4.7969 3.5051,4.785199999999999 3.5173,4.78 3.5325,4.7822000000000005 3.5448000000000004,4.7862 3.5521000000000003,4.7848 3.5681000000000003,4.7764999999999995 3.5716,4.7725 3.5727,4.7664 3.5700000000000003,4.762899999999999 3.5531,4.7543 3.551,4.750699999999999 3.5380000000000003,4.749899999999999 3.5335,4.7414 3.5291,4.740099999999999 3.5164000000000004,4.739399999999999 3.4968000000000004,4.749299999999999 3.4915000000000003,4.7487 3.4888000000000003,4.7396 3.4905000000000004,4.7250000000000005 3.5089,4.7048 3.5090000000000003,4.6995 3.5211,4.6954 3.5223000000000004,4.694 3.5210000000000004,4.6918999999999995 3.5233000000000003,4.689699999999999 3.5282,4.6903 3.5277000000000003,4.6917 3.532,4.692799999999999 3.5311000000000003,4.6895999999999995 3.5344,4.690499999999999 3.5356,4.6886 3.5380000000000003,4.6886 3.539,4.6918 3.5401000000000002,4.6903 3.5468,4.691 3.5487,4.6938 3.5495,4.6917 3.5511000000000004,4.6956999999999995 3.5522,4.694399999999999 3.5544000000000002,4.696599999999999 3.5599000000000003,4.698199999999999 3.5614000000000003,4.697299999999999 3.5629000000000004,4.7 3.5669000000000004,4.699599999999999 3.5666,4.7025 3.5748,4.7075000000000005 3.5822000000000003,4.707399999999999 3.5843000000000003,4.710299999999999 3.5891,4.707999999999999 3.5923000000000003,4.711099999999999 3.5936000000000003,4.709499999999999 3.5959000000000003,4.7137 3.5969,4.7123 3.5997000000000003,4.7131 3.6033000000000004,4.719399999999999 3.6046000000000005,4.7266 3.6062000000000003,4.7273000000000005 3.6100000000000003,4.739 3.6102000000000003,4.7428 3.6069000000000004,4.745399999999999 3.6058000000000003,4.7495 3.6126,4.751599999999999 3.6125000000000003,4.7542 3.6172000000000004,4.755199999999999 3.6217,4.7604 3.6387,4.7543999999999995 3.6463,4.7528999999999995 3.6481000000000003,4.755 3.6516,4.7528 3.6586000000000003,4.7548 3.6597000000000004,4.753799999999999 3.6611000000000002,4.7557 3.6624000000000003,4.7543999999999995 3.6639000000000004,4.7566 3.6698000000000004,4.755299999999999 3.6706000000000003,4.758299999999999 3.6735,4.758299999999999 3.6743,4.7612 3.6759000000000004,4.7604 3.6777,4.763699999999999 3.6796,4.762999999999999 3.6797000000000004,4.761299999999999 3.6900000000000004,4.7611 3.6921000000000004,4.759199999999999 3.7085000000000004,4.7626 3.7138,4.7596 3.7189,4.759199999999999 3.7207000000000003,4.757699999999999 3.721,4.754699999999999 3.7244,4.7556 3.7236000000000002,4.754499999999999 3.7256,4.751399999999999 3.7278000000000002,4.7528999999999995 3.7298,4.7505999999999995 3.7365000000000004,4.751599999999999 3.7413000000000003,4.7474 3.7427,4.7487 3.7439,4.7464 3.7512000000000003,4.748 3.7545,4.7435 3.7563000000000004,4.7434 3.7558000000000002,4.742299999999999 3.7594000000000003,4.740999999999999 3.7597,4.7389 3.7652,4.7365 3.7657000000000003,4.7351 3.7628000000000004,4.733299999999999 3.7654,4.7305 3.7648,4.729299999999999 3.7667,4.730099999999999 3.7678000000000003,4.728699999999999 3.7661000000000002,4.7192 3.7604,4.717 3.7598000000000003,4.714099999999999 3.7572,4.7131 3.7593,4.7098 3.7579000000000002,4.707 3.7624000000000004,4.704399999999999 3.7609000000000004,4.7038 3.7627,4.6986 3.7645,4.698299999999999 3.7659000000000002,4.701199999999999 3.7680000000000002,4.7002 3.7677000000000005,4.698899999999999 3.7701000000000002,4.6993 3.7708000000000004,4.697299999999999 3.7739000000000003,4.699599999999999 3.7763,4.698799999999999 3.7817000000000003,4.7009 3.7858,4.6976 3.7853000000000003,4.694399999999999 3.7866,4.692799999999999 3.7894,4.6916 3.7943000000000002,4.6923 3.7938,4.6902 3.7954000000000003,4.6893 3.7982000000000005,4.6903999999999995 3.8006,4.686599999999999 3.809,4.685 3.8109,4.6832 3.8154000000000003,4.685 3.8176,4.6834999999999996 3.8196000000000003,4.671599999999999 3.8246,4.6704 3.8287000000000004,4.666799999999999 3.8252,4.6156999999999995 3.8149,4.6069 3.8198000000000003,4.5919 3.8251,4.5857 3.8258,4.578499999999999 3.8219000000000003,4.5668999999999995 3.8018,4.5675 3.7995,4.563 3.8027,4.562399999999999 3.7780000000000005,4.534 3.7701000000000002,4.5158 3.7774,4.498399999999999 3.7796000000000003,4.496299999999999 3.781,4.4905 3.7898,4.4815 3.8012,4.4746999999999995 3.7893000000000003,4.458899999999999 3.7873,4.4585 3.7870000000000004,4.4562 3.7840000000000003,4.4546 3.7841000000000005,4.4492 3.7805,4.441199999999999 3.7785,4.4402 3.7761000000000005,4.433799999999999 3.7766,4.429999999999999 3.7739000000000003,4.425299999999999 3.7668000000000004,4.421599999999999 3.7651000000000003,4.4151 3.7630000000000003,4.414499999999999 3.7628000000000004,4.4159 3.7602,4.4156 3.758,4.4173 3.7532,4.4152 3.7510000000000003,4.4119 3.75,4.4128 3.744,4.4097 3.7431,4.4068 3.7412,4.4075 3.7390000000000003,4.405499999999999 3.7432000000000003,4.402 3.7423,4.3983 3.7438000000000002,4.3976 3.7437,4.3931 3.7474000000000003,4.3845 3.7455000000000003,4.3791 3.7494,4.3725 3.7473,4.368099999999999 3.7467,4.362099999999999 3.748,4.359899999999999 3.7406,4.360399999999999 3.7215000000000003,4.3336 3.7264000000000004,4.333199999999999 3.7247000000000003,4.3165000000000004 3.7184000000000004,4.316299999999999 3.7176,4.2968 3.7252,4.2953 3.7248,4.2907 3.7272000000000003,4.284199999999999 3.7325000000000004,4.280399999999999 3.7319000000000004,4.2688 3.7563000000000004,4.2185 3.7695000000000003,4.2106 3.7719000000000005,4.2062 3.7714000000000003,4.2037 3.7768,4.196599999999999 3.7748000000000004,4.1908 3.7763,4.1872 3.7715,4.1819 3.7723000000000004,4.1801 3.7710000000000004,4.179099999999999 3.7748000000000004,4.175299999999999 3.7744,4.163799999999999 3.7774,4.1627 3.7772,4.1596 3.7802000000000002,4.1573 3.7822000000000005,4.1514999999999995 3.7843,4.150999999999999 3.7845000000000004,4.1451 3.7873,4.144099999999999 3.7897000000000003,4.139 3.7877,4.136 3.7867,4.137299999999999 3.7823,4.133499999999999 3.7793,4.1254 3.7836000000000003,4.1201 3.7818000000000005,4.114399999999999 3.7710000000000004,4.116699999999999 3.7694,4.1086 3.7656,4.1084000000000005 3.7583,4.101299999999999 3.7592000000000003,4.0958 3.7636000000000003,4.0903 3.7590000000000003,4.0888 3.7575000000000003,4.081699999999999 3.7623,4.075499999999999 3.753,4.0615 3.7432000000000003,4.059399999999999 3.7345,4.060899999999999 3.7328,4.0592 3.7326,4.0546999999999995 3.7308000000000003,4.053299999999999 3.7255000000000003,4.0622 3.7213000000000003,4.063299999999999 3.7208,4.0718000000000005 3.7099,4.072 3.7052,4.063199999999999 3.6945,4.060299999999999 3.6923000000000004,4.057299999999999 3.6918,4.053299999999999 3.6931000000000003,4.051799999999999 3.6991,4.055699999999999 3.7015000000000002,4.0544 3.7033,4.050299999999999 3.7020000000000004,4.0468 3.7001000000000004,4.0453 3.6962,4.0461 3.6877000000000004,4.041099999999999 3.6854000000000005,4.0432 3.6862000000000004,4.0508999999999995 3.6833,4.052499999999999 3.665,4.054999999999999 3.6599000000000004,4.0514 3.656,4.0544 3.6586000000000003,4.0559 3.6581,4.057099999999999 3.6539,4.0567 3.6511000000000005,4.0522 3.6465,4.0523 3.6432,4.0546 3.6417,4.0522 3.644,4.038999999999999 3.641,4.033 3.6514,4.022999999999999 3.6584000000000003,4.0226999999999995 3.6587,4.018299999999999 3.6613,4.022899999999999 3.6632000000000002,4.0179 3.6589,4.015 3.6363000000000003,4.0155 3.6467,4.0065 3.6456000000000004,4.0018 3.7338000000000005,3.8609 3.7422000000000004,3.8549999999999995 3.7413000000000003,3.8578 3.7441000000000004,3.859799999999999 3.7454,3.858299999999999 3.7539000000000002,3.8587 3.7579000000000002,3.8548 3.7600000000000002,3.8449999999999998 3.7628000000000004,3.8426 3.7636000000000003,3.8394000000000004 3.7617000000000003,3.835399999999999 3.7632000000000003,3.8344999999999994 3.7643000000000004,3.8363000000000005 3.7701000000000002,3.8343 3.7761000000000005,3.8264000000000005 3.7864000000000004,3.8274 3.7917,3.8312 3.7966,3.8280000000000003 3.7979000000000003,3.822399999999999 3.8045,3.817199999999999 3.8103000000000002,3.8145 3.8159,3.8146999999999993 3.8185000000000002,3.8112000000000004 3.8222000000000005,3.811099999999999 3.8267,3.8059000000000003 3.8275,3.7998000000000003 3.8332,3.7940999999999994 3.8338,3.7871999999999995 3.8374,3.789699999999999 3.8464,3.7898000000000005 3.8471,3.7860000000000005 3.8491,3.7853000000000003 3.8531000000000004,3.7779 3.8639,3.7793 3.8674,3.7763 3.8739000000000003,3.7739000000000003 3.8833,3.7733 3.8917,3.7689999999999992 3.8882000000000003,3.7639000000000005 3.8920000000000003,3.757699999999999 3.9018,3.7589999999999995 3.9074,3.755 3.9095000000000004,3.7506999999999993 3.9080000000000004,3.7479000000000005 3.9071000000000002,3.7365000000000004 3.9110000000000005,3.733199999999999 3.9111000000000002,3.7291 3.9135,3.725599999999999 3.9130000000000003,3.721799999999999 3.9179000000000004,3.716599999999999 3.9179000000000004,3.7140999999999993 3.9141000000000004,3.713 3.9136,3.7094999999999994 3.9158,3.7040999999999995 3.9143000000000003,3.7015000000000002 3.9156000000000004,3.697 3.9137000000000004,3.6963 3.9137000000000004,3.6946000000000003 3.9142,3.6908000000000003 3.9162000000000003,3.689899999999999 3.9141000000000004,3.6892000000000005 3.9153000000000002,3.6864 3.9139000000000004,3.6832000000000003 3.9163,3.6811999999999996 3.9226,3.6816000000000004 3.9335000000000004,3.678 3.9371,3.6733000000000002 3.9412000000000003,3.6710000000000003 3.9481,3.6723999999999988 3.9504,3.6666 3.9541000000000004,3.665 3.9582,3.665499999999999 3.9555000000000002,3.6612999999999998 3.9573,3.6595000000000004 3.9554,3.6560999999999995 3.9676,3.6557000000000004 3.968,3.654099999999999 3.9610000000000003,3.6499999999999995 3.9716000000000005,3.6461999999999994 3.9701000000000004,3.6451000000000002 3.9733,3.6406 3.9705000000000004,3.638699999999999 3.9742,3.6378999999999992 3.9703000000000004,3.633399999999999 3.9721,3.6328000000000005 3.9711000000000003,3.6291 3.9737,3.6277 3.9715000000000003,3.6244000000000005 3.9731,3.621299999999999 3.9716000000000005,3.6199000000000003 3.9725,3.6177 3.9745000000000004,3.6171999999999995 3.9724000000000004,3.6157999999999992 3.9722,3.6131 3.9756,3.6110999999999995 3.9765,3.6126999999999994 3.9822,3.610599999999999 3.9792,3.6063 3.9797000000000002,3.604499999999999 3.9848000000000003,3.605999999999999 3.9903000000000004,3.6048 3.9915000000000003,3.6023000000000005 3.9890000000000003,3.598 3.9915000000000003,3.5942999999999996 3.9911000000000003,3.589299999999999 3.9926000000000004,3.585399999999999 3.9898000000000002,3.5836999999999994 3.9915000000000003,3.5834 3.9925,3.578499999999999 3.9909000000000003,3.5773 3.9931,3.5766 3.9914,3.5713 3.9934000000000003,3.5554999999999994 3.9919000000000002,3.552699999999999 3.9931,3.5499 3.9895000000000005,3.5470999999999995 3.9885,3.542699999999999 3.9508,3.543 3.9450000000000003,3.5408 3.9435000000000002,3.5378 3.9453000000000005,3.535799999999999 3.944,3.527399999999999 3.9356,3.5202 3.9287,3.5218 3.9097,3.520599999999999 3.9010000000000002,3.5218 3.8987000000000003,3.516099999999999 3.9004000000000003,3.5135999999999994 3.9004000000000003,3.5063000000000004 3.8960000000000004,3.505399999999999 3.8867000000000003,3.496999999999999 3.8885,3.4922999999999993 3.8875,3.4860999999999995 3.8810000000000002,3.4807999999999995 3.8812,3.4762999999999993 3.8751,3.4754999999999994 3.8727,3.4774000000000003 3.8708,3.4752 3.8619000000000003,3.4737 3.8521,3.4689000000000005 3.8512000000000004,3.461999999999999 3.8519,3.4562 3.8630000000000004,3.4471 3.8653000000000004,3.4425999999999997 3.869,3.442199999999999 3.8754,3.4454000000000002 3.8760000000000003,3.441299999999999 3.8732,3.4355 3.8691000000000004,3.4334999999999996 3.8716000000000004,3.428399999999999 3.8734,3.4152999999999993 3.869,3.3999999999999995 3.8542,3.400199999999999 3.8535000000000004,3.3975 3.8564000000000003,3.3885999999999994 3.8537000000000003,3.377399999999999 3.854,3.364399999999999 3.8515,3.3632 3.8493000000000004,3.364399999999999 3.8471,3.354499999999999 3.8519,3.3411999999999997 3.8548,3.3218000000000005 3.8569000000000004,3.321599999999999 3.8594000000000004,3.323899999999999 3.8609,3.319499999999999 3.861,3.314099999999999 3.8581000000000003,3.3099 3.8600000000000003,3.3059000000000003 3.8562000000000003,3.301099999999999 3.8607000000000005,3.2917999999999994 3.8607000000000005,3.288199999999999 3.8638000000000003,3.2868000000000004 3.8717,3.2883000000000004 3.8761,3.2823 3.8754,3.280599999999999 3.8808000000000002,3.2771999999999997 3.8835,3.2777000000000003 3.8842000000000003,3.2756999999999996 3.8846000000000003,3.2689999999999992 3.8747000000000003,3.266899999999999 3.8767000000000005,3.2618 3.8757,3.2582999999999993 3.8776,3.2569 3.8794000000000004,3.2474 3.8770000000000002,3.2422999999999993 3.8790000000000004,3.2401 3.8783000000000003,3.2334999999999994 3.8804000000000003,3.2311999999999994 3.8793,3.2261999999999995 3.8828000000000005,3.2272 3.8827000000000003,3.2249999999999996 3.8858,3.2237 3.8861000000000003,3.2188 3.8834,3.2136999999999993 3.8859000000000004,3.2108 3.8844000000000003,3.2077999999999998 3.8864,3.2062 3.8840000000000003,3.202699999999999 3.8851000000000004,3.2005 3.8834,3.1975 3.8893000000000004,3.1930999999999994 3.8887,3.1864999999999997 3.8934,3.1804999999999994 3.8891,3.1784 3.8944,3.1757999999999997 3.8899000000000004,3.1701999999999995 3.8902,3.1629999999999994 3.8819000000000004,3.1616999999999997 3.886,3.1450999999999993 3.8841,3.1391999999999998 3.8854,3.1326 3.8895,3.1293999999999995 3.8883,3.1115999999999993 3.8861000000000003,3.1034999999999995 3.883,3.1029999999999998 3.8819000000000004,3.0987 3.8839,3.0969999999999995 3.8817000000000004,3.0927999999999995 3.882,3.0839999999999996 3.8795,3.0679 3.8799,3.0642999999999994 3.8835,3.0606999999999998 3.8792,3.0573999999999995 3.8857000000000004,3.0553 3.8916000000000004,3.0557 3.8916000000000004,3.0530999999999997 3.8890000000000002,3.0497999999999994 3.8918000000000004,3.0462999999999996 3.8931000000000004,3.0298 3.8896,3.0263 3.8812,3.0255 3.882,3.0187 3.8752000000000004,3.0177999999999994 3.8735000000000004,3.0139999999999993 3.8790000000000004,3.0061 3.8785000000000003,3.0 3.8856,2.9753 3.8922000000000003,2.9673999999999996 3.8891,2.9653 3.8817000000000004,2.9643999999999995 3.8709000000000002,2.9720999999999993 3.8611000000000004,2.9700999999999995 3.8528000000000002,2.9642 3.8486000000000002,2.9320999999999993 3.8449,2.9181 3.8469,2.8922999999999996 3.849,2.8896999999999995 3.8481,2.8850999999999996 3.8206,2.8735 3.8156000000000003,2.8682999999999996 3.8057000000000003,2.8693 3.7987,2.8657999999999992 3.7979000000000003,2.8628 3.793,2.8584999999999994 3.7805,2.8534999999999995 3.7823,2.8511999999999995 3.7894,2.8506 3.7911,2.8453999999999997 3.7835,2.7813 3.7811000000000003,2.7737 3.7836000000000003,2.7711999999999994 3.7823,2.7699999999999996 3.7839,2.7650999999999994 3.7862,2.7638999999999996 3.7852,2.7547999999999995 3.7906000000000004,2.7521999999999993 3.7880000000000003,2.7485 3.7916000000000003,2.7474 3.7881,2.7440999999999995 3.7894,2.7416 3.7920000000000003,2.7422999999999993 3.7869,2.7359 3.7833,2.7349999999999994 3.7818000000000005,2.731 3.7830000000000004,2.7295 3.7855000000000003,2.7295999999999996 3.7836000000000003,2.7261999999999995 3.7871,2.7247999999999992 3.7837,2.7243999999999993 3.781,2.7219999999999995 3.7845000000000004,2.7204999999999995 3.7832000000000003,2.7158999999999995 3.7884,2.7193999999999994 3.7942,2.7184 3.7931000000000004,2.7161 3.7956000000000003,2.7142999999999997 3.7938,2.7131 3.7960000000000003,2.7109999999999994 3.7944000000000004,2.7093999999999996 3.7929000000000004,2.7102999999999993 3.7927,2.7085 3.7963000000000005,2.7083999999999993 3.7942,2.7045999999999992 3.797,2.7024999999999997 3.7963000000000005,2.7001999999999997 3.7995,2.6959 3.8001000000000005,2.6917 3.798,2.6875 3.8004000000000002,2.6867 3.8008,2.6831999999999994 3.8047000000000004,2.6839999999999993 3.8074000000000003,2.6761999999999997 3.8120000000000003,2.673 3.8152000000000004,2.6663999999999994 3.8238000000000003,2.6597999999999997 3.8286000000000002,2.6604 3.8352000000000004,2.6559 3.8607000000000005,2.6613999999999995 3.8633,2.6689999999999996 3.8682000000000003,2.6669 3.8724000000000003,2.6713999999999993 3.8773,2.6716999999999995 3.8817000000000004,2.674499999999999 3.8874000000000004,2.6723999999999997 3.8899000000000004,2.6665 3.8934,2.6641999999999992 3.8962000000000003,2.6648999999999994 3.9035,2.6629999999999994 3.9068000000000005,2.6590999999999996 3.9073,2.6467 3.9103000000000003,2.640199999999999 3.9053000000000004,2.6361999999999997 3.9114000000000004,2.6153999999999993 3.9157,2.5928999999999993 3.9210000000000003,2.5778 3.9196,2.5705999999999998 3.9123,2.5523999999999996 3.9084000000000003,2.5518 3.9053000000000004,2.5408999999999997 3.9061000000000003,2.5180999999999996 3.9026,2.5101999999999993 3.9008000000000003,2.4983999999999993 3.9013,2.4859 3.8958000000000004,2.4807999999999995 3.8934,2.4575999999999993 3.8870000000000005,2.444 3.8832000000000004,2.4455999999999998 3.8793,2.4436999999999998 3.8777000000000004,2.4375 3.8803,2.4288 3.8790000000000004,2.4227999999999996 3.8754,2.4181 3.8691000000000004,2.4196999999999997 3.8677,2.4186999999999994 3.8672000000000004,2.4021999999999997 3.866,2.3988999999999994 3.859,2.3948 3.8565000000000005,2.3800999999999997 3.8542,2.3748999999999993 3.854,2.3729999999999993 3.8560000000000003,2.3752999999999993 3.8600000000000003,2.3754999999999997 3.8632,2.3737999999999992 3.8644000000000003,2.3698999999999995 3.8739000000000003,2.3670999999999998 3.8762000000000003,2.3617 3.8738,2.3587 3.8768000000000002,2.3564 3.8735000000000004,2.3455999999999992 3.8592000000000004,2.3211999999999993 3.8645000000000005,2.2962999999999996 3.8629000000000002,2.2912 3.8648000000000002,2.2843999999999998 3.8614,2.2763999999999998 3.8562000000000003,2.2702 3.8583000000000003,2.2672 3.8573000000000004,2.2635999999999994 3.8484000000000003,2.2634 3.8398000000000003,2.2580999999999998 3.8318000000000003,2.2609999999999992 3.8185000000000002,2.2557 3.8174,2.2569 3.8106,2.2546999999999997 3.8007,2.2474999999999996 3.7972,2.2391999999999994 3.789,2.2344 3.7846,2.2337 3.7844,2.2285999999999992 3.7878000000000003,2.2254999999999994 3.7856,2.2218999999999998 3.7884,2.2162999999999995 3.785,2.2089 3.7880000000000003,2.2028 3.805,2.1989 3.8071,2.196599999999999 3.8098,2.1987999999999994 3.8121,2.1907999999999994 3.8156000000000003,2.1922999999999995 3.8216,2.1898 3.8282000000000003,2.1819999999999995 3.8249000000000004,2.1765 3.8246,2.1662999999999997 3.8193,2.1480999999999995 3.8093000000000004,2.1420999999999992 3.7966,2.1385999999999994 3.7962000000000002,2.1365 3.8053000000000003,2.1258999999999997 3.7939000000000003,2.1178999999999997 3.7939000000000003,2.0946999999999996 3.7967000000000004,2.0953999999999997 3.7940000000000005,2.0885999999999996 3.8015000000000003,2.0858 3.8028000000000004,2.0878999999999994 3.8085000000000004,2.0893999999999995 3.8064,2.0915999999999997 3.8094,2.0955999999999992 3.8173000000000004,2.09 3.8189,2.0905999999999993 3.8231,2.0850999999999997 3.8271,2.0858999999999996 3.8302000000000005,2.0821999999999994 3.8301000000000003,2.0802999999999994 3.8282000000000003,2.0797999999999996 3.8281,2.0764999999999993 3.8326000000000002,2.0741999999999994 3.8307,2.071599999999999 3.8325000000000005,2.0701 3.8351,2.0711999999999993 3.8419000000000003,2.0684999999999993 3.8383000000000003,2.0653999999999995 3.8399,2.0626999999999995 3.8381000000000003,2.0618999999999996 3.838,2.0593999999999992 3.8295000000000003,2.0637999999999996 3.8328,2.0581999999999994 3.8292,2.0580999999999996 3.8321,2.0541 3.8283000000000005,2.049499999999999 3.8306000000000004,2.0454 3.8285,2.0440999999999994 3.8395,2.0355999999999996 3.8338,2.0355999999999996 3.8438000000000003,2.0226999999999995 3.8539000000000003,2.0215999999999994 3.8592000000000004,2.0173999999999994 3.8630000000000004,2.0176999999999996 3.8705000000000003,2.0084 3.8712,2.0111 3.8728000000000002,2.0103999999999997 3.8762000000000003,2.0138 3.8791,2.013 3.8809000000000005,2.0157 3.8873,2.0085999999999995 3.8924000000000003,2.0107 3.8947000000000003,2.0100999999999996 3.8967,2.0072 3.9042000000000003,2.0051999999999994 3.9125,1.9987999999999992 3.9125,1.9966 3.9113,1.9970999999999997 3.9077,1.9924999999999997 3.9053000000000004,1.9802999999999997 3.9113,1.9739999999999993 3.9087,1.9705999999999992 3.9105000000000003,1.968 3.9095000000000004,1.963 3.9058,1.9585 3.9062,1.9521999999999995 3.9051,1.9505999999999997 3.9085,1.9456999999999995 3.9058,1.944 3.9045,1.9364 3.9048000000000003,1.9303999999999997 3.9068000000000005,1.9281999999999995 3.9008000000000003,1.9127999999999998 3.9025000000000003,1.9109999999999996 3.8994,1.9085999999999999 3.8999,1.9056999999999995 3.8976,1.9045999999999994 3.8973000000000004,1.9017999999999997 3.9021000000000003,1.8995999999999995 3.8986,1.8979999999999997 3.8996000000000004,1.8967999999999998 3.8985000000000003,1.8910999999999998 3.9053000000000004,1.8933 3.9065000000000003,1.8897999999999993 3.9088000000000003,1.8889999999999993 3.9088000000000003,1.8866999999999994 3.9106,1.8858999999999995 3.9112,1.8815999999999997 3.9142,1.8807 3.9154,1.8775999999999993 3.9144,1.8747999999999996 3.9185000000000003,1.8697999999999997 3.9228,1.8675999999999995 3.9290000000000003,1.8663999999999996 3.9349000000000003,1.8748999999999993 3.9528000000000003,1.8598999999999997 3.9508,1.8579999999999997 3.9538,1.8529 3.96,1.8495999999999997 3.9738,1.8461999999999996 3.9858000000000002,1.8510999999999997 4.0045,1.8502 4.0107,1.8342 4.011,1.8243 3.9811,1.7961 3.9795000000000003,1.7886999999999995 3.9808000000000003,1.7732999999999999 3.9838000000000005,1.7631999999999994 3.9943,1.7459999999999996 4.0086,1.7450999999999999 4.007000000000001,1.7195999999999998 4.0113,1.7093999999999996 4.0441,1.6956999999999995 4.0496,1.6745999999999999 4.0882000000000005,1.6652999999999993 4.1019000000000005,1.6575999999999995 4.1240000000000006,1.6403999999999996 4.1268,1.6343999999999994 4.1365,1.6279999999999992 4.1399,1.6212 4.1459,1.6166999999999998 4.149,1.6114999999999995 4.1506,1.6033999999999997 4.1547,1.5966999999999993 4.265700000000001,1.5964999999999998 4.2685,1.5926999999999998 4.2701,1.5827999999999998 4.2674,1.5721999999999996 4.2700000000000005,1.5549999999999997 4.2778,1.5484 4.2799000000000005,1.5309 4.2861,1.5179 4.2981,1.5023 4.2986,1.4994999999999994 4.3104000000000005,1.4945999999999993 4.3169,1.4944999999999995 4.3284,1.4802 4.3291,1.4730999999999996 4.3378000000000005,1.4555999999999996 4.3337,1.4560999999999993 4.3431,1.4440999999999997 4.3413,1.4388999999999994 4.3386000000000005,1.4434999999999993 4.3375,1.4383 4.3403,1.4331999999999994 4.3478,1.4297999999999993 4.4623,1.4287999999999998 4.4607,1.4135 4.461600000000001,1.3739 4.3882,1.3384999999999998 4.3439000000000005,1.3076999999999996 4.3257,1.2875999999999994 4.291,1.2405999999999997 4.2862,1.2310999999999996 4.2783,1.2208999999999994 4.2577,1.1876999999999995 4.2524,1.1678999999999995 4.2557,1.1555999999999997 4.255800000000001,1.1399 4.250500000000001,1.1186999999999996 4.243,1.1016999999999992 4.2302,1.0843999999999996 4.2104,1.0635999999999992 4.1981,1.0535999999999994 4.1866,1.0478999999999994 4.1668,1.0438999999999998 4.0886000000000005,1.0356999999999994 4.0786,1.0307999999999993 4.0497000000000005,1.0320999999999998 4.0307,1.0302999999999995 3.9962,1.0341999999999993 3.9899000000000004,1.0312999999999999 3.9845,1.0316999999999998 3.9748,1.029 3.9702,1.0290999999999997 3.975,1.0299999999999994 3.9777000000000005,1.0322999999999993 3.9773,1.0343 3.9713000000000003,1.0335 3.9675000000000002,1.0309 3.9556000000000004,1.0316999999999998 3.9546,1.0297999999999998 3.9562000000000004,1.0267999999999997 3.9459,1.0324999999999998 3.9392000000000005,1.0297999999999998 3.9194000000000004,1.0305999999999997 3.9051,1.0333999999999994 3.8561,1.0385999999999997 3.7204,1.0499999999999998 3.6328,1.0477999999999996 3.5843000000000003,1.0433999999999992 3.5386,1.0343 3.5149000000000004,1.0274999999999999 3.5016000000000003,1.0171999999999999 3.4813,1.0076 3.4469000000000003,1.0046 3.4443,1.0027999999999997 3.4449,1.0011999999999999 3.4360000000000004,0.9996999999999998 3.4257000000000004,0.9927999999999999 3.4029000000000003,0.9847999999999999 3.3988,0.9821 3.3942,0.9768999999999997 3.3918000000000004,0.9712999999999994 3.3878000000000004,0.9685999999999995 3.3294,0.9542999999999999 3.3232000000000004,0.9463999999999997 3.3073,0.9362999999999992 3.3051000000000004,0.9329000000000001 3.3063000000000002,0.9307999999999996 3.3056,0.9246999999999996 3.2956000000000003,0.9188000000000001 3.294,0.9154 3.2902,0.9127000000000001 3.2893000000000003,0.9064999999999994 3.2793,0.9034999999999993 3.2663,0.8855999999999993 3.2622000000000004,0.8857999999999997 3.2495000000000003,0.8815 3.2466000000000004,0.8784999999999998 3.2354000000000003,0.8748999999999993 3.2195,0.8727999999999998 3.2095000000000002,0.8690999999999995 3.2047000000000003,0.8691999999999993 3.2022000000000004,0.8675999999999995 3.1994000000000002,0.8601000000000001 3.1939,0.8582000000000001 3.1885000000000003,0.8511999999999995 3.1682,0.8445 3.1598,0.8361000000000001 3.1543,0.8332999999999995 3.1474,0.8314999999999992 3.1390000000000002,0.8268999999999993 3.1144000000000003,0.8207999999999993 3.0986000000000002,0.8137999999999996 3.0808000000000004,0.8092999999999995 3.0786000000000002,0.8071999999999999 3.0596,0.8031999999999995 3.0533,0.7984999999999998 3.0524000000000004,0.7953999999999999 3.0545,0.7944999999999993 3.0537,0.7939999999999996 2.9176,0.7631999999999994 2.8951000000000002,0.7547999999999995 2.8905000000000003,0.7500999999999998 2.8821000000000003,0.7470999999999997 2.8727,0.7398999999999996 2.8630000000000004,0.7359999999999998 2.8567,0.7315999999999994 2.8557,0.7265999999999995 2.8415000000000004,0.7131999999999996 2.8186,0.7041999999999993 2.8056,0.6974999999999998 2.7977000000000003,0.6913 2.7950000000000004,0.6861999999999995 2.7981000000000003,0.6837 2.7993,0.6799 2.7965,0.6739999999999995 2.7799,0.6623999999999999 2.7775000000000003,0.6556999999999995 2.7723000000000004,0.6496999999999993 2.7737000000000003,0.6468999999999996 2.7669,0.6436999999999999 2.7631,0.6389999999999993 2.7411000000000003,0.6326 2.7089000000000003,0.6263999999999994 2.6389000000000005,0.5926999999999998 2.5884,0.5805999999999996 2.5764000000000005,0.5745999999999993 2.5674,0.5729999999999995 2.5626,0.5697000000000001 2.5376000000000003,0.5611999999999995 2.5317000000000003,0.5560999999999998 2.5311000000000003,0.5533999999999999 2.5319000000000003,0.5490999999999993 2.5357000000000003,0.5476000000000001 2.535,0.5461999999999998 2.5272,0.5402999999999993 2.5143000000000004,0.5354000000000001 2.5105000000000004,0.5293999999999999 2.5054000000000003,0.5250999999999992 2.5063000000000004,0.5195999999999996 2.5026,0.5153999999999996 2.4843,0.5073999999999996 2.4795000000000003,0.4977999999999998 2.4717000000000002,0.49319999999999986 2.471,0.4897 2.4724000000000004,0.48769999999999936 2.4592,0.4828999999999999 2.4547000000000003,0.47689999999999966 2.4413,0.4733999999999998 2.4152000000000005,0.4701999999999993 2.2920000000000003,0.46340000000000003 2.2367,0.46229999999999993 2.1947,0.45979999999999954 2.1786000000000003,0.45730000000000004 2.1707,0.4551999999999996 2.1702000000000004,0.4531999999999998 2.1591000000000005,0.44599999999999973 2.1553000000000004,0.4415999999999993 2.1472,0.43979999999999997 2.1424000000000003,0.4341999999999997 2.1136,0.4253999999999998 2.1111000000000004,0.4205999999999994 2.1039000000000003,0.4166999999999996 2.1023000000000005,0.4123999999999999 2.0957,0.4064999999999994 2.0671,0.3982999999999999 2.0637000000000003,0.3940999999999999 2.0634,0.38870000000000005 2.0573,0.3816999999999995 2.0384,0.3746999999999998 2.0229,0.36430000000000007 2.0157000000000003,0.3617999999999997 1.9404000000000001,0.35799999999999965 1.9162000000000001,0.3508999999999993 1.9137000000000002,0.34809999999999963 1.9154000000000002,0.3432999999999993 1.9082000000000001,0.3409999999999993 1.8930000000000002,0.3389999999999995 1.8844000000000003,0.33529999999999927 1.8753000000000002,0.3348999999999993 1.8671000000000002,0.33149999999999924 1.8401000000000003,0.3287999999999993 1.8253000000000001,0.3248999999999995 1.8196000000000003,0.31989999999999963 1.7878000000000003,0.3165999999999993 1.7576000000000003,0.30410000000000004 1.7354000000000003,0.3024999999999993 1.6975000000000002,0.29469999999999974 1.6735000000000002,0.29349999999999987 1.6522000000000001,0.28859999999999975 1.6397000000000002,0.28219999999999956 1.6395000000000002,0.2798999999999996 1.6354000000000002,0.27590000000000003 1.6339000000000001,0.2694000000000001 1.6285000000000003,0.26009999999999955 1.6309000000000002,0.2527999999999997 1.6292000000000002,0.24909999999999943 1.6265000000000003,0.24789999999999957 1.6274000000000002,0.24219999999999953 1.6214000000000002,0.23959999999999937 1.6180000000000003,0.2351000000000001 1.6189000000000002,0.23249999999999993 1.5747000000000002,0.22439999999999927 1.5620000000000003,0.21809999999999974 1.5563000000000002,0.21199999999999974 1.5569000000000002,0.20869999999999944 1.5596000000000003,0.20759999999999934 1.5565000000000002,0.20809999999999995 1.5541000000000003,0.20559999999999956 1.5532000000000001,0.20039999999999925 1.5552000000000001,0.19979999999999976 1.5559000000000003,0.19489999999999963 1.5434000000000003,0.19179999999999975 1.5244000000000002,0.18259999999999987 1.5186000000000002,0.1747999999999994 1.5194000000000003,0.1673 1.5160000000000002,0.1631999999999998 1.5137000000000003,0.15619999999999923 1.5164000000000002,0.15479999999999983 1.5199000000000003,0.14869999999999983 1.5259000000000003,0.14789999999999992 1.5290000000000001,0.14939999999999998 1.5271000000000001,0.1426999999999996 1.5158000000000003,0.14209999999999923 1.5028000000000001,0.13729999999999976 1.4890000000000003,0.1365999999999996 "></polygon><polygon points="3.8848000000000003,3.1628999999999996 3.8843,3.1627 3.8861000000000003,3.1624 3.8848000000000003,3.1628999999999996 "></polygon><polygon points="1.7550000000000001,1.1370999999999993 1.7554000000000003,1.1368999999999998 1.7547000000000001,1.1372999999999998 1.7550000000000001,1.1370999999999993 "></polygon><polygon points="1.8876000000000002,1.1861999999999995 1.8879000000000001,1.1848 1.8875000000000002,1.1867 1.8876000000000002,1.1861999999999995 "></polygon><polygon points="3.1215,1.1140999999999996 3.1244,1.1124 3.1182000000000003,1.1160999999999994 3.1215,1.1140999999999996 "></polygon><polygon points="2.7046,0.9985999999999997 2.7057,0.9990999999999994 2.7058,0.9992000000000001 2.7046,0.9985999999999997 "></polygon><polygon points="2.1023000000000005,0.9817 2.104,0.9821 2.1017,0.9815999999999994 2.1023000000000005,0.9817 "></polygon><polygon points="2.7556000000000003,0.9998999999999993 2.7542,0.9988999999999999 2.7546000000000004,0.9990999999999994 2.7556000000000003,0.9998999999999993 "></polygon><polygon points="2.8534,1.0309999999999997 2.8532,1.0309999999999997 2.854,1.0307999999999993 2.8534,1.0309999999999997 "></polygon><polygon points="3.9392000000000005,1.0387999999999993 3.9382,1.0385 3.9388,1.0383999999999993 3.9392000000000005,1.0387999999999993 "></polygon><polygon points="3.943,1.0359999999999996 3.9432,1.0360999999999994 3.9433000000000002,1.0363999999999995 3.943,1.0359999999999996 "></polygon><polygon points="3.9446000000000003,1.0358999999999998 3.9448000000000003,1.0358 3.9450000000000003,1.0358 3.9445,1.0360999999999994 3.9446000000000003,1.0358999999999998 "></polygon><polygon points="3.4563,2.1971 3.4579000000000004,2.1975999999999996 3.4336,2.1909 3.4563,2.1971 "></polygon><polygon points="3.6321000000000003,4.8799 3.6317000000000004,4.880299999999999 3.6324,4.8793999999999995 3.6321000000000003,4.8799 "></polygon><polygon points="3.6334000000000004,4.8744000000000005 3.6336000000000004,4.8739 3.6331,4.876599999999999 3.6334000000000004,4.8746 3.6334000000000004,4.8744000000000005 "></polygon>
    </svg>
    