
    <svg width="0.02910000000000057" height="0.04870000000000374" xmlns="http://www.w3.org/2000/svg" xmlns:xlink="http://www.w3.org/1999/xlink" style="transform: scale(1, -1)">
        <polygon points="0.02859999999999996,0.04619999999999891 0.02910000000000057,0.03410000000000224 0.027200000000000557,0.030000000000001137 0.027500000000000746,0.024399999999999977 0.025800000000000267,0.022199999999998 0.027500000000000746,0.017499999999998295 0.025200000000000777,0.013600000000003831 0.025800000000000267,0.00829999999999842 0.023600000000000065,0.006100000000003547 0.023300000000000765,0.0014000000000038426 0.020800000000000374,0.0 0.016600000000000392,0.003900000000001569 0.01720000000000077,0.00910000000000366 0.013900000000000468,0.014200000000002433 0.001600000000000712,0.02580000000000382 0.011900000000000688,0.018000000000000682 0.011900000000000688,0.02640000000000242 0.009100000000000108,0.029400000000002535 0.010200000000000209,0.032200000000003115 0.006400000000000183,0.03470000000000084 0.006099999999999994,0.03829999999999956 0.005000000000000782,0.03640000000000043 0.002700000000000813,0.03829999999999956 0.002200000000000202,0.03549999999999898 0.001100000000000101,0.03719999999999857 0.002500000000000391,0.04140000000000299 0.006900000000000794,0.04079999999999728 0.010000000000000675,0.043900000000000716 0.01610000000000067,0.043900000000000716 0.014100000000000001,0.04870000000000374 0.02859999999999996,0.04619999999999891 "></polygon><polygon points="0.00020000000000042206,0.033300000000004104 0.003100000000000769,0.028900000000000148 0.0030000000000001137,0.027200000000000557 0.0,0.03280000000000172 0.00020000000000042206,0.033300000000004104 "></polygon>
    </svg>
    