
    <svg width="0.4239000000000033" height="0.5553000000000008" xmlns="http://www.w3.org/2000/svg" xmlns:xlink="http://www.w3.org/1999/xlink" style="transform: scale(1, -1)">
        <polygon points="0.01670000000000016,0.0036000000000004917 0.017000000000003013,0.001700000000001367 0.01389999999999958,0.0 0.01389999999999958,0.003300000000001191 0.015600000000006276,0.004700000000001481 0.01670000000000016,0.0036000000000004917 "></polygon><polygon points="0.07810000000000628,0.013900000000001356 0.07639999999999958,0.012000000000000455 0.0800000000000054,0.009199999999999875 0.07950000000000301,0.004700000000001481 0.07500000000000284,0.007200000000000983 0.0736000000000061,0.010800000000001475 0.0753000000000057,0.015600000000000946 0.07750000000000057,0.015600000000000946 0.07810000000000628,0.013900000000001356 "></polygon><polygon points="0.06610000000000582,0.017800000000001148 0.06560000000000343,0.01670000000000016 0.06750000000000256,0.01529999999999987 0.06500000000000483,0.011700000000001154 0.060000000000002274,0.013900000000001356 0.05980000000000274,0.01580000000000048 0.0625,0.01670000000000016 0.06390000000000384,0.02000000000000135 0.06640000000000157,0.019700000000000273 0.06610000000000582,0.017800000000001148 "></polygon><polygon points="0.1647000000000034,0.062000000000001165 0.16670000000000584,0.060300000000001575 0.16340000000000288,0.059200000000000585 0.16310000000000002,0.055600000000000094 0.16029999999999944,0.05690000000000062 0.15670000000000073,0.054700000000000415 0.15390000000000015,0.05690000000000062 0.153100000000002,0.0536000000000012 0.15060000000000429,0.05420000000000158 0.15109999999999957,0.05250000000000021 0.155300000000004,0.05250000000000021 0.15640000000000498,0.05000000000000071 0.15500000000000114,0.04750000000000121 0.15280000000000626,0.048100000000001586 0.15030000000000143,0.04610000000000092 0.1478000000000037,0.04780000000000051 0.14639999999999986,0.0470000000000006 0.14920000000000044,0.041700000000000514 0.14339999999999975,0.042200000000001125 0.14220000000000255,0.0406000000000013 0.13860000000000383,0.042800000000001504 0.13970000000000482,0.03670000000000151 0.13640000000000185,0.037200000000000344 0.13560000000000372,0.03530000000000122 0.132000000000005,0.03750000000000142 0.1314000000000064,0.039699999999999847 0.12950000000000017,0.03950000000000031 0.12830000000000297,0.035800000000000054 0.1296999999999997,0.03640000000000043 0.13060000000000116,0.03420000000000023 0.12780000000000058,0.03420000000000023 0.126100000000001,0.03140000000000143 0.12700000000000244,0.028900000000000148 0.12530000000000285,0.030600000000001515 0.12360000000000326,0.03830000000000133 0.12199999999999989,0.03830000000000133 0.12110000000000554,0.03470000000000084 0.11749999999999972,0.03390000000000093 0.11950000000000216,0.026400000000000645 0.11470000000000624,0.03140000000000143 0.11200000000000188,0.03080000000000105 0.1092000000000013,0.03250000000000064 0.10720000000000596,0.029500000000000526 0.10500000000000398,0.02940000000000076 0.1022000000000034,0.03190000000000026 0.09970000000000567,0.03080000000000105 0.09450000000000358,0.03190000000000026 0.09670000000000556,0.027200000000000557 0.10090000000000288,0.028100000000000236 0.102800000000002,0.025800000000000267 0.10450000000000159,0.026100000000001344 0.10500000000000398,0.02450000000000152 0.102800000000002,0.02170000000000094 0.10110000000000241,0.02170000000000094 0.10030000000000427,0.024700000000001054 0.09530000000000172,0.025000000000000355 0.09309999999999974,0.026699999999999946 0.091700000000003,0.03220000000000134 0.08859999999999957,0.03140000000000143 0.09220000000000539,0.02310000000000123 0.09670000000000556,0.02000000000000135 0.09530000000000172,0.017000000000001236 0.0975000000000037,0.014700000000001268 0.09450000000000358,0.014200000000000657 0.09360000000000213,0.008600000000001273 0.09090000000000487,0.009500000000000952 0.09090000000000487,0.014700000000001268 0.08920000000000528,0.01580000000000048 0.09090000000000487,0.018299999999999983 0.08859999999999957,0.01950000000000074 0.08559999999999945,0.027200000000000557 0.08250000000000313,0.028100000000000236 0.0800000000000054,0.026699999999999946 0.0800000000000054,0.028600000000000847 0.07780000000000342,0.030300000000000438 0.07700000000000529,0.028300000000001546 0.07830000000000581,0.025300000000001432 0.0800000000000054,0.026400000000000645 0.08340000000000458,0.025600000000000733 0.08500000000000085,0.02000000000000135 0.08310000000000173,0.01950000000000074 0.08370000000000033,0.015600000000000946 0.08220000000000027,0.015000000000000568 0.07830000000000581,0.02000000000000135 0.07670000000000243,0.01750000000000007 0.07469999999999999,0.018299999999999983 0.0736000000000061,0.02000000000000135 0.07450000000000045,0.023600000000000065 0.07200000000000273,0.025000000000000355 0.07060000000000599,0.02310000000000123 0.06530000000000058,0.028100000000000236 0.06220000000000425,0.028600000000000847 0.06450000000000244,0.024200000000000443 0.05830000000000268,0.01810000000000045 0.05810000000000315,0.014700000000001268 0.05420000000000158,0.012199999999999989 0.05470000000000397,0.02059999999999995 0.05360000000000298,0.021399999999999864 0.05220000000000624,0.019700000000000273 0.05030000000000001,0.02200000000000024 0.04970000000000141,0.01580000000000048 0.0508000000000024,0.014700000000001268 0.04920000000000613,0.013100000000001444 0.05110000000000525,0.006099999999999994 0.04700000000000415,0.004400000000000404 0.04720000000000368,0.006700000000000372 0.04470000000000596,0.007500000000000284 0.045000000000001705,0.005000000000000782 0.04140000000000299,0.00280000000000058 0.039500000000003865,0.0036000000000004917 0.043900000000000716,0.017000000000001236 0.038900000000005264,0.01750000000000007 0.03860000000000241,0.022200000000001552 0.036100000000004684,0.02000000000000135 0.03700000000000614,0.012000000000000455 0.03529999999999944,0.008600000000001273 0.03340000000000032,0.009199999999999875 0.03470000000000084,0.012800000000000367 0.03280000000000172,0.01670000000000016 0.03140000000000498,0.01640000000000086 0.032200000000003115,0.012000000000000455 0.03030000000000399,0.011100000000000776 0.03030000000000399,0.014499999999999957 0.0286000000000044,0.011700000000001154 0.026700000000005275,0.013100000000001444 0.025600000000004286,0.018299999999999983 0.023300000000006094,0.01720000000000077 0.021100000000004115,0.01890000000000036 0.017800000000001148,0.01860000000000106 0.0175000000000054,0.013600000000000279 0.01389999999999958,0.013900000000001356 0.01389999999999958,0.01580000000000048 0.010899999999999466,0.017800000000001148 0.007500000000000284,0.017000000000001236 0.007800000000003138,0.01890000000000036 0.0033000000000029672,0.017000000000001236 0.002200000000001978,0.01860000000000106 0.0,0.018299999999999983 0.003900000000001569,0.022800000000000153 0.017000000000003013,0.026699999999999946 0.026099999999999568,0.03450000000000131 0.028900000000000148,0.03420000000000023 0.030000000000001137,0.03700000000000081 0.027000000000001023,0.03950000000000031 0.035600000000002296,0.03750000000000142 0.04720000000000368,0.04499999999999993 0.04840000000000089,0.04830000000000112 0.04640000000000555,0.05000000000000071 0.04749999999999943,0.056100000000000705 0.04920000000000613,0.0600000000000005 0.05280000000000484,0.062000000000001165 0.0508000000000024,0.06500000000000128 0.04840000000000089,0.06280000000000108 0.04640000000000555,0.06310000000000038 0.047800000000002285,0.07360000000000078 0.04720000000000368,0.07670000000000066 0.04450000000000642,0.07920000000000016 0.04720000000000368,0.08220000000000027 0.04970000000000141,0.08970000000000056 0.038900000000005264,0.09950000000000081 0.04140000000000299,0.10060000000000002 0.040300000000002,0.10450000000000159 0.04640000000000555,0.10720000000000063 0.046100000000002694,0.11080000000000112 0.04840000000000089,0.11110000000000042 0.049500000000001876,0.11330000000000062 0.049500000000001876,0.1208000000000009 0.05470000000000397,0.12560000000000038 0.05250000000000199,0.13360000000000127 0.048900000000003274,0.13670000000000115 0.05310000000000059,0.14329999999999998 0.05250000000000199,0.14580000000000126 0.05810000000000315,0.15220000000000056 0.059499999999999886,0.16030000000000122 0.0625,0.16110000000000113 0.0671999999999997,0.16690000000000005 0.07030000000000314,0.17609999999999992 0.07000000000000028,0.18200000000000038 0.07500000000000284,0.1858000000000004 0.07670000000000243,0.18920000000000137 0.07750000000000057,0.19890000000000008 0.08280000000000598,0.2019000000000002 0.08389999999999986,0.20560000000000045 0.08750000000000568,0.20860000000000056 0.09779999999999944,0.21250000000000036 0.10420000000000584,0.22140000000000093 0.10450000000000159,0.22470000000000034 0.11060000000000514,0.226700000000001 0.11360000000000525,0.23329999999999984 0.12170000000000414,0.23560000000000159 0.12640000000000384,0.24080000000000013 0.1303000000000054,0.24190000000000111 0.130900000000004,0.2439 0.1372,0.24670000000000059 0.13810000000000144,0.2497000000000007 0.14110000000000156,0.2507999999999999 0.14339999999999975,0.2492000000000001 0.14750000000000085,0.2507999999999999 0.15780000000000172,0.2411000000000012 0.16340000000000288,0.2425000000000015 0.16670000000000584,0.24080000000000013 0.17720000000000624,0.2458000000000009 0.18670000000000186,0.2458000000000009 0.18970000000000198,0.2431000000000001 0.19360000000000355,0.2425000000000015 0.193400000000004,0.2403000000000013 0.19640000000000413,0.24080000000000013 0.19750000000000512,0.238900000000001 0.1928000000000054,0.23170000000000002 0.19200000000000017,0.22500000000000142 0.19310000000000116,0.22109999999999985 0.19640000000000413,0.21810000000000151 0.19640000000000413,0.21030000000000015 0.19750000000000512,0.20830000000000126 0.2003000000000057,0.20780000000000065 0.19780000000000086,0.20110000000000028 0.20000000000000284,0.18440000000000012 0.19700000000000273,0.182500000000001 0.19250000000000256,0.15080000000000027 0.194500000000005,0.14200000000000124 0.1992000000000047,0.14220000000000077 0.19950000000000045,0.14060000000000095 0.19810000000000372,0.1372 0.19420000000000215,0.14060000000000095 0.18970000000000198,0.13860000000000028 0.1875,0.14000000000000057 0.18200000000000216,0.13970000000000127 0.17560000000000286,0.1286000000000005 0.1753,0.12110000000000021 0.17999999999999972,0.1183000000000014 0.177500000000002,0.11530000000000129 0.17670000000000385,0.1092000000000013 0.17999999999999972,0.10580000000000034 0.18140000000000356,0.10139999999999993 0.17999999999999972,0.09950000000000081 0.18530000000000513,0.09220000000000006 0.18330000000000268,0.09220000000000006 0.18250000000000455,0.08970000000000056 0.17920000000000158,0.09220000000000006 0.17560000000000286,0.09080000000000155 0.17500000000000426,0.08079999999999998 0.1781000000000006,0.07950000000000124 0.176400000000001,0.07890000000000086 0.17670000000000385,0.07720000000000127 0.17390000000000327,0.07750000000000057 0.17420000000000613,0.07500000000000107 0.1700000000000017,0.07750000000000057 0.16950000000000642,0.07469999999999999 0.17200000000000415,0.0708000000000002 0.16860000000000497,0.07140000000000057 0.16500000000000625,0.06950000000000145 0.1700000000000017,0.0644000000000009 0.16500000000000625,0.06530000000000058 0.1647000000000034,0.062000000000001165 "></polygon><polygon points="0.2536000000000058,0.2242000000000015 0.252200000000002,0.22060000000000102 0.251100000000001,0.22060000000000102 0.252200000000002,0.2220000000000013 0.25080000000000524,0.22360000000000113 0.252200000000002,0.22500000000000142 0.2536000000000058,0.2242000000000015 "></polygon><polygon points="0.215600000000002,0.23950000000000138 0.21750000000000114,0.23830000000000062 0.21700000000000585,0.23560000000000159 0.21450000000000102,0.2403000000000013 0.215600000000002,0.23950000000000138 "></polygon><polygon points="0.20720000000000027,0.2458000000000009 0.2097000000000051,0.245000000000001 0.20700000000000074,0.2425000000000015 0.2050000000000054,0.2461000000000002 0.2061000000000064,0.2489000000000008 0.2061000000000064,0.2458000000000009 0.20720000000000027,0.2458000000000009 "></polygon><polygon points="0.19780000000000086,0.24640000000000128 0.19700000000000273,0.2433000000000014 0.19500000000000028,0.2439 0.194500000000005,0.24670000000000059 0.19640000000000413,0.2486000000000015 0.19780000000000086,0.24640000000000128 "></polygon><polygon points="0.22030000000000172,0.34670000000000023 0.2220000000000013,0.34609999999999985 0.2220000000000013,0.34330000000000105 0.22030000000000172,0.34080000000000155 0.21809999999999974,0.34060000000000024 0.21640000000000015,0.3431000000000015 0.21809999999999974,0.34360000000000035 0.21809999999999974,0.34640000000000093 0.22030000000000172,0.34670000000000023 "></polygon><polygon points="0.2295000000000016,0.3056000000000001 0.23060000000000258,0.3033000000000001 0.2284000000000006,0.3017000000000003 0.23029999999999973,0.3006000000000011 0.22700000000000387,0.2992000000000008 0.226700000000001,0.3008000000000006 0.22390000000000043,0.3010999999999999 0.22470000000000567,0.2981000000000016 0.22330000000000183,0.2978000000000005 0.22330000000000183,0.29579999999999984 0.215600000000002,0.3000000000000007 0.2161000000000044,0.3056000000000001 0.22000000000000597,0.3045000000000009 0.22530000000000427,0.307500000000001 0.22810000000000485,0.307500000000001 0.2295000000000016,0.3056000000000001 "></polygon><polygon points="0.21809999999999974,0.3322000000000003 0.21920000000000073,0.33030000000000115 0.2220000000000013,0.32970000000000077 0.22390000000000043,0.3308 0.22330000000000183,0.33389999999999986 0.22530000000000427,0.33420000000000094 0.226700000000001,0.3308 0.22450000000000614,0.32720000000000127 0.22030000000000172,0.3269000000000002 0.22090000000000032,0.3236000000000008 0.22560000000000002,0.3216999999999999 0.22390000000000043,0.31890000000000107 0.22530000000000427,0.3158000000000012 0.2225000000000037,0.31450000000000067 0.22220000000000084,0.3172000000000015 0.22030000000000172,0.3150000000000013 0.21890000000000498,0.3083000000000009 0.21700000000000585,0.3078000000000003 0.21220000000000283,0.3131000000000004 0.20750000000000313,0.313600000000001 0.20640000000000214,0.3158000000000012 0.2150000000000034,0.32530000000000037 0.21590000000000487,0.33000000000000007 0.21359999999999957,0.33330000000000126 0.21640000000000015,0.33500000000000085 0.21809999999999974,0.3322000000000003 "></polygon><polygon points="0.2583000000000055,0.3322000000000003 0.25670000000000215,0.33060000000000045 0.25450000000000017,0.33140000000000036 0.257000000000005,0.33360000000000056 0.2583000000000055,0.3322000000000003 "></polygon><polygon points="0.25030000000000285,0.33580000000000076 0.25030000000000285,0.33200000000000074 0.25310000000000343,0.3308 0.2516999999999996,0.32750000000000057 0.24970000000000425,0.32970000000000077 0.24560000000000315,0.32950000000000124 0.24719999999999942,0.33670000000000044 0.25030000000000285,0.33580000000000076 "></polygon><polygon points="0.3141999999999996,0.4258000000000006 0.3171999999999997,0.42220000000000013 0.31580000000000297,0.4172000000000011 0.31090000000000373,0.4192 0.3083000000000027,0.4225000000000012 0.31170000000000186,0.4270000000000014 0.3141999999999996,0.4258000000000006 "></polygon><polygon points="0.3231000000000037,0.4333000000000009 0.3253000000000057,0.4311000000000007 0.32750000000000057,0.4331000000000014 0.3281000000000063,0.4272000000000009 0.320600000000006,0.4272000000000009 0.32220000000000226,0.4289000000000005 0.3225000000000051,0.4356000000000009 0.3231000000000037,0.4333000000000009 "></polygon><polygon points="0.331700000000005,0.4486000000000008 0.33310000000000173,0.4461000000000013 0.33089999999999975,0.44390000000000107 0.3281000000000063,0.44530000000000136 0.3289000000000044,0.44700000000000095 0.3278000000000034,0.44780000000000086 0.3259000000000043,0.4472000000000005 0.3263999999999996,0.4483000000000015 0.329500000000003,0.44780000000000086 0.3300000000000054,0.44950000000000045 0.331700000000005,0.4486000000000008 "></polygon><polygon points="0.3214000000000041,0.4483000000000015 0.3200000000000003,0.44950000000000045 0.3208000000000055,0.45220000000000127 0.32220000000000226,0.4519000000000002 0.3214000000000041,0.4483000000000015 "></polygon><polygon points="0.365000000000002,0.5445000000000011 0.36470000000000624,0.5428000000000015 0.36840000000000117,0.5400000000000009 0.3719999999999999,0.5411000000000001 0.3739000000000061,0.5396999999999998 0.37170000000000414,0.5361000000000011 0.3725000000000023,0.5253000000000014 0.38220000000000454,0.5167000000000002 0.3814000000000064,0.5147000000000013 0.3792000000000044,0.5144000000000002 0.37700000000000244,0.5083000000000002 0.37750000000000483,0.5039000000000016 0.37950000000000017,0.5025000000000013 0.37340000000000373,0.5017000000000014 0.36950000000000216,0.4942000000000011 0.37000000000000455,0.4817 0.3719999999999999,0.4797000000000011 0.3725000000000023,0.4742000000000015 0.3656000000000006,0.4731000000000005 0.3633000000000024,0.47080000000000055 0.3597000000000037,0.47390000000000043 0.353900000000003,0.47080000000000055 0.3509000000000029,0.47170000000000023 0.3497000000000057,0.4742000000000015 0.34720000000000084,0.4742000000000015 0.3381000000000043,0.46970000000000134 0.33200000000000074,0.46110000000000007 0.3216999999999999,0.464500000000001 0.31450000000000244,0.46419999999999995 0.30640000000000356,0.45780000000000065 0.30700000000000216,0.45220000000000127 0.30280000000000484,0.4511000000000003 0.30450000000000443,0.45360000000000156 0.30340000000000344,0.4558 0.30530000000000257,0.45750000000000135 0.30450000000000443,0.46280000000000143 0.31110000000000326,0.4692000000000007 0.3171999999999997,0.4692000000000007 0.3189000000000064,0.47250000000000014 0.31580000000000297,0.4800000000000004 0.3103000000000051,0.4781000000000013 0.3089000000000013,0.4792000000000005 0.3120000000000047,0.4814000000000007 0.3078000000000003,0.4797000000000011 0.303600000000003,0.4836000000000009 0.30530000000000257,0.4881000000000011 0.3031000000000006,0.4906000000000006 0.3049999999999997,0.4917000000000016 0.30470000000000397,0.4939 0.30640000000000356,0.4942000000000011 0.3061000000000007,0.4897000000000009 0.3094999999999999,0.4881000000000011 0.31970000000000454,0.4875000000000007 0.32450000000000045,0.4908000000000001 0.3247,0.495000000000001 0.33450000000000557,0.4945000000000004 0.34200000000000585,0.4975000000000005 0.34250000000000114,0.4997000000000007 0.3470000000000013,0.5022000000000002 0.3481000000000023,0.5058000000000007 0.34720000000000084,0.5125000000000011 0.35200000000000387,0.5164000000000009 0.3534000000000006,0.5200000000000014 0.351700000000001,0.5245000000000015 0.3522000000000034,0.5325000000000006 0.3547000000000011,0.5339000000000009 0.3547000000000011,0.536900000000001 0.3614000000000033,0.5396999999999998 0.363900000000001,0.5461000000000009 0.365000000000002,0.5445000000000011 "></polygon><polygon points="0.3106000000000009,0.5017000000000014 0.30750000000000455,0.5006000000000004 0.3072000000000017,0.5020000000000007 0.3106000000000009,0.5042000000000009 0.3106000000000009,0.5017000000000014 "></polygon><polygon points="0.402000000000001,0.5242000000000004 0.40220000000000056,0.5213999999999999 0.40109999999999957,0.5208000000000013 0.39920000000000044,0.5225000000000009 0.39970000000000283,0.5256000000000007 0.402000000000001,0.5256000000000007 0.402000000000001,0.5242000000000004 "></polygon><polygon points="0.42090000000000316,0.5417000000000005 0.4239000000000033,0.5358 0.4236000000000004,0.5289000000000001 0.4189000000000007,0.5264000000000006 0.4134000000000029,0.5274999999999999 0.4117000000000033,0.5314000000000014 0.4084000000000003,0.5327999999999999 0.4072000000000031,0.5350000000000001 0.4095000000000013,0.5350000000000001 0.41500000000000625,0.5417000000000005 0.42090000000000316,0.5417000000000005 "></polygon><polygon points="0.4177999999999997,0.5553000000000008 0.4211000000000027,0.5545000000000009 0.4228000000000023,0.5489000000000015 0.41500000000000625,0.5518999999999998 0.414200000000001,0.5550000000000015 0.4177999999999997,0.5553000000000008 "></polygon>
    </svg>
    