
    <svg width="0.3388999999999953" height="0.41910000000000025" xmlns="http://www.w3.org/2000/svg" xmlns:xlink="http://www.w3.org/1999/xlink" style="transform: scale(1, -1)">
        <polygon points="0.026800000000008595,0.0 0.028500000000008185,0.001800000000001134 0.039900000000017144,0.006600000000000605 0.039900000000017144,0.0045999999999999375 0.032100000000014006,0.0005000000000006111 0.026800000000008595,0.0 "></polygon><polygon points="0.10020000000000095,0.015400000000001413 0.09510000000000218,0.01180000000000092 0.08680000000001087,0.01130000000000031 0.07050000000000978,0.016100000000001558 0.06770000000000209,0.02030000000000065 0.06530000000000769,0.018200000000000216 0.05930000000000746,0.01950000000000074 0.05649999999999977,0.022200000000001552 0.05520000000001346,0.02660000000000018 0.04650000000000887,0.03210000000000157 0.0438000000000045,0.036000000000001364 0.04529999999999745,0.042500000000000426 0.043200000000013006,0.05010000000000048 0.04040000000000532,0.05120000000000147 0.03900000000001569,0.05770000000000053 0.04470000000000596,0.06330000000000169 0.04050000000000864,0.06360000000000099 0.03880000000000905,0.06550000000000011 0.039700000000010505,0.07070000000000043 0.0367999999999995,0.07160000000000011 0.034300000000001774,0.0771000000000015 0.03530000000000655,0.07940000000000147 0.038100000000014234,0.07929999999999993 0.03910000000001901,0.08110000000000106 0.0327000000000055,0.08450000000000024 0.032100000000014006,0.0882000000000005 0.03370000000001028,0.0929000000000002 0.03120000000001255,0.09370000000000012 0.0262000000000171,0.10220000000000162 0.013700000000000045,0.10680000000000156 0.020900000000011687,0.10800000000000054 0.025300000000015643,0.11450000000000138 0.034199999999998454,0.1382000000000012 0.03310000000001878,0.14230000000000054 0.037800000000004275,0.15060000000000073 0.03560000000001651,0.1521000000000008 0.038100000000014234,0.15169999999999995 0.04259999999999309,0.15600000000000058 0.045199999999994134,0.16570000000000107 0.04040000000000532,0.1767000000000003 0.03480000000001837,0.17989999999999995 0.028099999999994907,0.1781000000000006 0.02940000000000964,0.18240000000000123 0.025100000000009004,0.18260000000000076 0.021900000000016462,0.18540000000000134 0.020000000000010232,0.1952000000000016 0.006200000000006867,0.20230000000000103 0.002299999999991087,0.20640000000000036 0.0,0.21270000000000167 0.004300000000000637,0.2140000000000004 0.022199999999998,0.20690000000000097 0.026499999999998636,0.20870000000000033 0.028300000000001546,0.20770000000000088 0.03900000000001569,0.20910000000000117 0.046999999999997044,0.20670000000000144 0.047300000000007,0.2038000000000011 0.045099999999990814,0.2021000000000015 0.045099999999990814,0.19060000000000166 0.04939999999999145,0.18400000000000105 0.05150000000000432,0.18340000000000067 0.052300000000002456,0.1880000000000006 0.05760000000000787,0.19430000000000014 0.05760000000000787,0.19819999999999993 0.054400000000015325,0.20280000000000165 0.048900000000003274,0.2021000000000015 0.048900000000003274,0.20700000000000074 0.05320000000000391,0.21130000000000138 0.05930000000000746,0.2085000000000008 0.06260000000000332,0.20940000000000047 0.06409999999999627,0.2132000000000005 0.06350000000000477,0.22040000000000148 0.057900000000017826,0.2215000000000007 0.054100000000005366,0.21820000000000128 0.04959999999999809,0.22130000000000116 0.049100000000009913,0.21690000000000076 0.04740000000001032,0.21799999999999997 0.0478999999999985,0.22220000000000084 0.050299999999992906,0.2234000000000016 0.06399999999999295,0.22280000000000122 0.06290000000001328,0.22360000000000113 0.06380000000001473,0.22680000000000078 0.06610000000000582,0.22610000000000063 0.06720000000001392,0.2276000000000007 0.06329999999999814,0.2281000000000013 0.05910000000000082,0.22500000000000142 0.04810000000000514,0.2248000000000001 0.046999999999997044,0.22660000000000124 0.04279999999999973,0.22390000000000043 0.04449999999999932,0.22650000000000148 0.04349999999999454,0.22860000000000014 0.0408999999999935,0.22720000000000162 0.03890000000001237,0.22870000000000168 0.030500000000017735,0.22750000000000092 0.028300000000001546,0.22880000000000145 0.020700000000005048,0.22860000000000014 0.009800000000012687,0.22210000000000107 0.007000000000005002,0.21850000000000058 0.0056000000000153705,0.2193000000000005 0.007000000000005002,0.22160000000000046 0.01840000000001396,0.22960000000000136 0.045099999999990814,0.23100000000000165 0.05729999999999791,0.22820000000000107 0.06120000000001369,0.23100000000000165 0.0706000000000131,0.23340000000000138 0.07189999999999941,0.23300000000000054 0.06880000000001019,0.2306000000000008 0.07259999999999422,0.22900000000000098 0.08639999999999759,0.2350000000000012 0.08899999999999864,0.2411000000000012 0.09850000000000136,0.23830000000000062 0.10550000000000637,0.2428000000000008 0.11000000000001364,0.2433000000000014 0.11109999999999332,0.2455000000000016 0.113900000000001,0.24380000000000024 0.12190000000001078,0.24440000000000062 0.1255000000000166,0.24270000000000103 0.13150000000001683,0.2431000000000001 0.13530000000000086,0.24619999999999997 0.13980000000000814,0.24320000000000164 0.15040000000001896,0.24570000000000114 0.1570000000000107,0.2557000000000009 0.15610000000000923,0.2585000000000015 0.1529999999999916,0.2589000000000006 0.15080000000000382,0.26200000000000045 0.15370000000001482,0.26940000000000097 0.15620000000001255,0.2716000000000012 0.1641999999999939,0.2738000000000014 0.17080000000001405,0.26940000000000097 0.17770000000001573,0.27080000000000126 0.1816000000000031,0.27300000000000146 0.1869000000000085,0.28110000000000035 0.18790000000001328,0.28500000000000014 0.18500000000000227,0.28640000000000043 0.18469999999999231,0.29710000000000036 0.183400000000006,0.2997000000000014 0.19190000000000396,0.31150000000000055 0.19370000000000687,0.31730000000000125 0.19239999999999213,0.3196000000000012 0.19920000000001892,0.32370000000000054 0.2039000000000044,0.3351000000000006 0.21270000000001232,0.34280000000000044 0.21350000000001046,0.3493000000000013 0.21800000000001774,0.3561000000000014 0.21920000000000073,0.3614000000000015 0.21700000000001296,0.3728000000000016 0.21760000000000446,0.3893000000000004 0.2266999999999939,0.39890000000000114 0.23560000000000514,0.4147000000000016 0.24160000000000537,0.41910000000000025 0.2488999999999919,0.4181000000000008 0.26240000000001373,0.4090000000000007 0.27240000000000464,0.3952000000000009 0.28130000000001587,0.38670000000000115 0.2884999999999991,0.37100000000000044 0.30879999999999086,0.3650000000000002 0.31390000000001805,0.36630000000000074 0.32169999999999277,0.36490000000000045 0.3363999999999976,0.3653000000000013 0.3388999999999953,0.36380000000000123 0.33780000000001564,0.35910000000000153 0.3348000000000013,0.3550000000000004 0.3300000000000125,0.3388000000000009 0.32220000000000937,0.33200000000000074 0.3205000000000098,0.32730000000000103 0.3213000000000079,0.3155000000000001 0.31450000000000955,0.30380000000000074 0.31380000000001473,0.29850000000000065 0.308400000000006,0.28630000000000067 0.3053000000000168,0.28380000000000116 0.2845000000000084,0.27770000000000117 0.27760000000000673,0.2716000000000012 0.27420000000000755,0.27120000000000033 0.2728999999999928,0.2682000000000002 0.27379999999999427,0.2621000000000002 0.2685000000000173,0.2567000000000004 0.25890000000001123,0.25430000000000064 0.25310000000001764,0.2510000000000012 0.23460000000000036,0.22930000000000028 0.2231000000000165,0.2240000000000002 0.21590000000000487,0.21690000000000076 0.2154999999999916,0.21350000000000158 0.2078999999999951,0.20690000000000097 0.20019999999999527,0.20610000000000106 0.19190000000000396,0.198500000000001 0.18960000000001287,0.19200000000000017 0.18479999999999563,0.19100000000000072 0.17940000000001532,0.19310000000000116 0.17480000000000473,0.18960000000000043 0.1688000000000045,0.18950000000000067 0.1664000000000101,0.18730000000000047 0.16610000000000014,0.18310000000000137 0.1710999999999956,0.17759999999999998 0.16599999999999682,0.1745000000000001 0.162399999999991,0.1634000000000011 0.15860000000000696,0.1598000000000006 0.15370000000001482,0.1590000000000007 0.15840000000000032,0.15220000000000056 0.15430000000000632,0.13610000000000078 0.15190000000001191,0.1333000000000002 0.15450000000001296,0.12570000000000014 0.1536000000000115,0.10720000000000063 0.15489999999999782,0.10550000000000104 0.15260000000000673,0.10250000000000092 0.14750000000000796,0.10390000000000121 0.14500000000001023,0.10250000000000092 0.15090000000000714,0.1012000000000004 0.15000000000000568,0.09890000000000043 0.1530999999999949,0.09960000000000058 0.15489999999999782,0.09220000000000006 0.15520000000000778,0.08460000000000001 0.15370000000001482,0.08120000000000083 0.15469999999999118,0.0683000000000007 0.1525000000000034,0.06120000000000125 0.14570000000000505,0.05550000000000033 0.14629999999999654,0.05030000000000001 0.1448000000000036,0.04780000000000051 0.14050000000000296,0.04770000000000074 0.14119999999999777,0.04330000000000034 0.136099999999999,0.03980000000000139 0.1302000000000021,0.043600000000001415 0.12980000000001723,0.041700000000000514 0.13320000000001642,0.03930000000000078 0.13320000000001642,0.03760000000000119 0.12059999999999604,0.032300000000001106 0.12640000000001805,0.03049999999999997 0.12340000000000373,0.027700000000001168 0.1203000000000145,0.027500000000001634 0.12000000000000455,0.02450000000000152 0.11459999999999582,0.017300000000000537 0.10949999999999704,0.014200000000000657 0.1092000000000155,0.01130000000000031 0.10750000000001592,0.0127000000000006 0.10500000000001819,0.010600000000000165 0.10020000000000095,0.015400000000001413 "></polygon>
    </svg>
    