
    <svg width="3.99669999999999" height="4.078200000000001" xmlns="http://www.w3.org/2000/svg" xmlns:xlink="http://www.w3.org/1999/xlink" style="transform: scale(1, -1)">
        <polygon points="1.2116999999999933,0.17600000000000016 1.1672999999999973,0.17600000000000016 1.147299999999987,0.17739999999999867 1.131699999999995,0.18239999999999945 1.1283999999999992,0.18239999999999945 1.1258999999999872,0.18039999999999878 1.1185999999999865,0.18179999999999907 1.1155999999999864,0.18069999999999986 1.1144999999999925,0.18299999999999983 1.1019999999999897,0.18379999999999974 1.1006,0.18239999999999945 1.0966999999999985,0.18379999999999974 1.0959000000000003,0.18239999999999945 1.0894999999999868,0.18210000000000015 1.0716999999999928,0.18379999999999974 1.0630999999999915,0.18679999999999986 1.0394999999999897,0.18769999999999953 0.9919999999999902,0.19549999999999912 0.981199999999987,0.2012999999999998 0.9802999999999997,0.2004999999999999 0.9838999999999913,0.19799999999999862 0.962299999999999,0.2015999999999991 0.9499999999999886,0.20570000000000022 0.9333999999999918,0.2088000000000001 0.9230999999999909,0.21319999999999872 0.9197999999999951,0.2115999999999989 0.9111999999999938,0.2181999999999995 0.9102999999999923,0.21539999999999893 0.9084000000000003,0.21539999999999893 0.8877999999999986,0.2234999999999996 0.8808999999999969,0.22799999999999976 0.8780999999999892,0.22769999999999868 0.8644999999999925,0.232899999999999 0.8608999999999867,0.23489999999999966 0.8630999999999887,0.23489999999999966 0.8619999999999948,0.23739999999999917 0.8586999999999989,0.23770000000000024 0.8544999999999874,0.24069999999999858 0.8499999999999943,0.23959999999999937 0.8313999999999879,0.24849999999999994 0.8108999999999895,0.25569999999999915 0.7938999999999936,0.2629999999999999 0.7888999999999982,0.2673999999999985 0.78479999999999,0.2670999999999992 0.7624999999999886,0.2778999999999989 0.7569999999999908,0.2787999999999986 0.7533999999999992,0.2817999999999987 0.7258999999999958,0.2920999999999996 0.7238999999999862,0.29349999999999987 0.7241999999999962,0.29519999999999946 0.7213999999999885,0.2937999999999992 0.7108999999999952,0.3003999999999998 0.7102999999999895,0.2981999999999996 0.7019999999999982,0.29989999999999917 0.6866999999999877,0.3053999999999988 0.6836999999999875,0.30799999999999983 0.6838999999999942,0.31099999999999994 0.6799999999999926,0.31069999999999887 0.6733999999999867,0.31459999999999866 0.6713999999999913,0.31269999999999953 0.6652999999999878,0.31789999999999985 0.6536999999999864,0.3246000000000002 0.6516999999999911,0.32429999999999914 0.649799999999999,0.32679999999999865 0.6477999999999895,0.3262999999999998 0.6469999999999914,0.3287999999999993 0.6408999999999878,0.3304999999999989 0.6391999999999882,0.3331999999999997 0.6324999999999932,0.3351999999999986 0.6324999999999932,0.3370999999999995 0.6288999999999874,0.3379999999999992 0.6108999999999867,0.3498999999999999 0.6138999999999868,0.3509999999999991 0.6127999999999929,0.3548999999999989 0.6183999999999941,0.3506999999999998 0.6247999999999934,0.35159999999999947 0.6241999999999877,0.35409999999999897 0.6219999999999999,0.35519999999999996 0.6224999999999881,0.3567999999999998 0.6197999999999979,0.35519999999999996 0.6188999999999965,0.3521000000000001 0.6122999999999905,0.35660000000000025 0.6124999999999972,0.3587999999999987 0.6147999999999882,0.3595999999999986 0.6161999999999921,0.3584999999999994 0.6169999999999902,0.36129999999999995 0.6203000000000003,0.36019999999999897 0.6230999999999938,0.36379999999999946 0.6219999999999999,0.36489999999999867 0.620599999999996,0.3617999999999988 0.6173000000000002,0.36209999999999987 0.6149999999999949,0.37159999999999904 0.6158999999999963,0.38019999999999854 0.6138999999999868,0.37570000000000014 0.6097999999999928,0.37299999999999933 0.6119999999999948,0.37159999999999904 0.6124999999999972,0.3678999999999988 0.6099999999999994,0.3584999999999994 0.6119999999999948,0.3521000000000001 0.6047999999999973,0.35660000000000025 0.6044999999999874,0.3542999999999985 0.602499999999992,0.3545999999999996 0.5974999999999966,0.35989999999999966 0.5941999999999865,0.36019999999999897 0.5933999999999884,0.36270000000000024 0.5949999999999989,0.36350000000000016 0.5947999999999922,0.36629999999999896 0.5919999999999987,0.36270000000000024 0.5916999999999888,0.36430000000000007 0.5841999999999956,0.36679999999999957 0.5822999999999894,0.36989999999999945 0.5762,0.37239999999999895 0.5762,0.37459999999999916 0.5702999999999889,0.37570000000000014 0.5574999999999903,0.38319999999999865 0.558099999999996,0.38599999999999923 0.5544999999999902,0.3890999999999991 0.5516999999999967,0.3904999999999994 0.5477999999999952,0.3895999999999997 0.5305999999999926,0.4004999999999992 0.5297999999999945,0.4034999999999993 0.5249999999999915,0.4042999999999992 0.5233999999999952,0.4070999999999998 0.5211999999999932,0.4065999999999992 0.5085999999999871,0.41409999999999947 0.5019999999999953,0.4187999999999992 0.5024999999999977,0.420399999999999 0.5049999999999955,0.42019999999999946 0.5030999999999892,0.4220999999999986 0.4963999999999942,0.4217999999999993 0.49339999999999407,0.42379999999999995 0.49389999999999645,0.42629999999999946 0.4919999999999902,0.42659999999999876 0.4924999999999926,0.42459999999999987 0.4911999999999921,0.42459999999999987 0.48559999999999093,0.4278999999999993 0.4860999999999933,0.42989999999999995 0.48449999999999704,0.43099999999999916 0.48169999999998936,0.4303999999999988 0.4788999999999959,0.43239999999999945 0.4777999999999878,0.43599999999999994 0.4741999999999962,0.43489999999999895 0.4391999999999996,0.45069999999999943 0.43839999999998724,0.4520999999999997 0.44369999999999266,0.4540999999999986 0.4444999999999908,0.45679999999999943 0.4363999999999919,0.45289999999999964 0.42779999999999063,0.45789999999999864 0.42199999999999704,0.4634999999999998 0.41979999999999507,0.4634999999999998 0.42029999999999745,0.4649000000000001 0.41449999999998965,0.4702000000000002 0.4152999999999878,0.4759999999999991 0.41199999999999193,0.4734999999999996 0.3866999999999905,0.49629999999999974 0.3661999999999921,0.5115999999999996 0.36999999999999034,0.5152000000000001 0.3733999999999895,0.5145999999999997 0.3736999999999995,0.5162999999999993 0.3685999999999865,0.5162999999999993 0.3649999999999949,0.5142999999999986 0.3638999999999868,0.5198999999999998 0.36369999999999436,0.5162999999999993 0.3608999999999867,0.5152000000000001 0.35619999999998697,0.5203999999999986 0.3499999999999943,0.5237999999999996 0.35199999999998965,0.5278999999999989 0.34559999999999036,0.5254999999999992 0.3377999999999872,0.533199999999999 0.3258999999999901,0.5406999999999993 0.3258999999999901,0.5428999999999995 0.321399999999997,0.5434999999999999 0.3036999999999921,0.5563000000000002 0.30169999999999675,0.5609999999999999 0.29639999999999134,0.5624000000000002 0.26779999999999404,0.5865999999999989 0.2644999999999982,0.5876999999999999 0.26499999999998636,0.5899000000000001 0.2691999999999979,0.5912999999999986 0.27029999999999177,0.5953999999999997 0.27609999999999957,0.5981999999999985 0.27669999999999106,0.6005000000000003 0.2738999999999976,0.597999999999999 0.27029999999999177,0.5973999999999986 0.26729999999999166,0.593 0.2633999999999901,0.5917999999999992 0.26249999999998863,0.5891000000000002 0.2622999999999962,0.5917999999999992 0.24809999999999377,0.601799999999999 0.25,0.6031999999999993 0.25089999999998724,0.6074000000000002 0.25559999999998695,0.6105 0.2594999999999885,0.6106999999999996 0.2597999999999985,0.6123999999999992 0.25389999999998736,0.6127000000000002 0.2530999999999892,0.6105 0.2494999999999976,0.6090999999999998 0.2458999999999918,0.6029999999999998 0.2347999999999928,0.6131999999999991 0.23499999999999943,0.6170999999999989 0.23919999999999675,0.6212999999999997 0.23869999999999436,0.6280000000000001 0.24029999999999063,0.6301999999999985 0.24749999999998806,0.628499999999999 0.25499999999999545,0.6312999999999995 0.2524999999999977,0.6329999999999991 0.24749999999998806,0.6310000000000002 0.24059999999998638,0.6323999999999987 0.23979999999998824,0.6304999999999996 0.23669999999999902,0.6295999999999999 0.23749999999999716,0.6234999999999999 0.23449999999999704,0.6176999999999992 0.22949999999998738,0.6170999999999989 0.22279999999999234,0.6251999999999995 0.2091999999999956,0.6371000000000002 0.19609999999998706,0.6476999999999986 0.1938999999999993,0.6476999999999986 0.18059999999999832,0.6570999999999998 0.17919999999999447,0.6587999999999994 0.18089999999999407,0.6587999999999994 0.18529999999999802,0.6542999999999992 0.18729999999999336,0.6540999999999997 0.17729999999998824,0.6630000000000003 0.17749999999999488,0.6654999999999998 0.17389999999998906,0.6623999999999999 0.13809999999999434,0.6882000000000001 0.13339999999999463,0.696299999999999 0.12589999999998724,0.7006999999999994 0.12589999999998724,0.7017999999999986 0.12889999999998736,0.7015999999999991 0.12839999999999918,0.7037999999999993 0.1203000000000003,0.7045999999999992 0.1144999999999925,0.7126999999999999 0.11249999999999716,0.7123999999999988 0.1185999999999865,0.7045999999999992 0.12339999999998952,0.7027000000000001 0.12369999999999948,0.7004999999999999 0.11669999999999447,0.7042999999999999 0.1127999999999929,0.7090999999999994 0.09029999999999916,0.7271000000000001 0.04809999999999093,0.7556999999999992 0.04779999999999518,0.7601999999999993 0.04449999999999932,0.7617999999999991 0.0455999999999932,0.7626999999999988 0.04889999999998906,0.7609999999999992 0.04779999999999518,0.7637999999999998 0.04249999999998977,0.7634999999999987 0.04199999999998738,0.7599 0.03979999999999961,0.7603999999999989 0.03619999999999379,0.764899999999999 0.03889999999999816,0.7705000000000002 0.03309999999999036,0.7679999999999989 0.03340000000000032,0.7656999999999989 0.030299999999996885,0.7665999999999986 0.0,0.7920999999999996 0.005599999999986949,0.8064999999999998 0.006899999999987472,0.8182999999999989 0.013999999999995794,0.8206999999999987 0.01809999999998979,0.8259999999999987 0.024199999999993338,0.8259999999999987 0.03909999999999059,0.8393999999999995 0.04059999999999775,0.8528000000000002 0.044399999999996,0.8623999999999992 0.04459999999998843,0.8690999999999995 0.04779999999999518,0.8730999999999991 0.04099999999999682,0.8758999999999997 0.04529999999999745,0.882299999999999 0.04529999999999745,0.8879000000000001 0.04989999999999384,0.8925999999999998 0.054099999999991155,0.9022999999999985 0.06329999999999814,0.9035999999999991 0.06199999999999761,0.9123999999999999 0.07229999999999848,0.9176000000000002 0.07639999999999247,0.9242999999999988 0.0753999999999877,0.9430999999999994 0.07939999999999259,0.9528999999999996 0.07499999999998863,0.9595000000000002 0.07339999999999236,0.9670999999999985 0.07459999999998956,0.9803999999999995 0.06749999999999545,0.9882999999999988 0.06479999999999109,0.9977 0.052199999999999136,1.0062999999999995 0.05289999999999395,1.0107 0.050599999999988654,1.0144000000000002 0.050599999999988654,1.0183999999999997 0.05299999999999727,1.020999999999999 0.059599999999988995,1.0223999999999993 0.061499999999995225,1.034699999999999 0.057699999999996976,1.0390999999999995 0.05749999999999034,1.0446999999999989 0.05129999999999768,1.0511 0.050699999999991974,1.0546999999999986 0.04389999999999361,1.0652999999999988 0.04349999999999454,1.0732999999999997 0.045199999999994134,1.0777999999999999 0.037599999999997635,1.0899999999999999 0.04099999999999682,1.1016999999999992 0.039399999999986335,1.1046999999999993 0.04059999999999775,1.1092999999999993 0.046699999999987085,1.1132999999999988 0.050199999999989586,1.117799999999999 0.05180000000000007,1.1234000000000002 0.05879999999999086,1.123099999999999 0.07579999999998677,1.1319 0.08039999999999736,1.1461999999999986 0.08479999999998711,1.1488999999999994 0.08599999999999852,1.1529999999999987 0.08079999999999643,1.168099999999999 0.077699999999993,1.171199999999999 0.08029999999999404,1.180299999999999 0.07879999999998688,1.1895999999999987 0.07939999999999259,1.2004000000000001 0.07349999999999568,1.2098999999999993 0.07569999999999766,1.2227999999999994 0.07499999999998863,1.2332 0.07699999999999818,1.238999999999999 0.07159999999998945,1.2452999999999985 0.07159999999998945,1.2485999999999997 0.0788999999999902,1.2558999999999987 0.08299999999999841,1.2569 0.08369999999999322,1.2614999999999998 0.0823999999999927,1.2644000000000002 0.08569999999998856,1.2675 0.08689999999999998,1.2738999999999994 0.08849999999999625,1.2749999999999986 0.09619999999999607,1.2772999999999985 0.10139999999999816,1.2751000000000001 0.10469999999999402,1.277099999999999 0.10709999999998843,1.2751000000000001 0.12159999999998661,1.2730999999999995 0.1308999999999969,1.2833999999999985 0.13629999999999143,1.2838999999999992 0.14239999999999498,1.295399999999999 0.14399999999999125,1.306799999999999 0.14879999999999427,1.307599999999999 0.15209999999999013,1.3175999999999988 0.14919999999999334,1.3231000000000002 0.1519999999999868,1.327 0.14619999999999322,1.3409999999999993 0.14769999999998618,1.350999999999999 0.011799999999993815,1.5230999999999995 0.26559999999999206,1.9559999999999995 0.49099999999999966,2.335700000000001 1.7804000000000002,2.3360000000000003 1.7754999999999939,2.344900000000001 1.7818999999999932,2.3504999999999985 1.7852999999999923,2.3575 1.793999999999997,2.357899999999999 1.7967999999999904,2.3614999999999977 1.7954999999999899,2.3668999999999993 1.7905999999999977,2.3675999999999977 1.7811999999999983,2.3621999999999996 1.7781999999999982,2.3572000000000006 1.773699999999991,2.353699999999998 1.766999999999996,2.3543000000000003 1.7649999999999864,2.3566999999999982 1.7659999999999911,2.3619000000000003 1.7634999999999934,2.3712999999999997 1.768199999999993,2.386000000000001 1.7723999999999904,2.3862000000000005 1.7859999999999872,2.379199999999999 1.7902999999999878,2.379599999999998 1.7919999999999874,2.3823999999999987 1.7907999999999902,2.390299999999998 1.7928999999999888,2.3986 1.792199999999994,2.4015000000000004 1.7840999999999951,2.4044000000000008 1.7744,2.4048999999999996 1.7715999999999923,2.4078999999999997 1.7705999999999875,2.4122000000000003 1.7744,2.4167000000000005 1.7846999999999866,2.4183000000000003 1.796299999999988,2.4252999999999982 1.7937999999999903,2.4365000000000006 1.785199999999989,2.4422999999999977 1.7748999999999882,2.4441000000000006 1.7682999999999964,2.4480999999999984 1.7643999999999949,2.4694999999999983 1.7659999999999911,2.480199999999998 1.769299999999987,2.486399999999998 1.7824999999999989,2.4938999999999982 1.7912999999999926,2.491999999999999 1.7927999999999997,2.4959000000000007 1.7912999999999926,2.498199999999999 1.783699999999996,2.5013999999999985 1.7811999999999983,2.5090999999999983 1.7729999999999961,2.5022 1.7674999999999983,2.504699999999998 1.7659999999999911,2.5090999999999983 1.7720999999999947,2.5207999999999995 1.7759999999999962,2.5237 1.7835999999999927,2.522499999999999 1.7920999999999907,2.5159000000000002 1.7959999999999923,2.517100000000001 1.7988,2.5220000000000002 1.798099999999991,2.5256999999999987 1.7914999999999992,2.535099999999998 1.783299999999997,2.538400000000001 1.7813999999999908,2.540899999999999 1.780699999999996,2.548399999999999 1.7892999999999972,2.5539000000000005 1.7885999999999882,2.556499999999998 1.783299999999997,2.5588999999999995 1.7824999999999989,2.562099999999999 1.7837999999999994,2.5648 1.78779999999999,2.5669999999999984 1.8061999999999898,2.5672999999999977 1.8101999999999947,2.570299999999998 1.8120999999999867,2.5739 1.8122999999999934,2.580499999999999 1.8089999999999975,2.586999999999998 1.8103999999999871,2.5907 1.818399999999997,2.5939999999999994 1.8225999999999942,2.6012000000000004 1.8290999999999968,2.600900000000001 1.8344999999999914,2.5967000000000002 1.8396999999999935,2.600699999999998 1.8378999999999905,2.6073000000000004 1.8222999999999985,2.6111999999999984 1.8188999999999993,2.6228 1.8156999999999925,2.6217999999999986 1.814399999999992,2.618999999999998 1.8158999999999992,2.608299999999998 1.8137999999999863,2.6074 1.811799999999991,2.608600000000001 1.8092999999999932,2.6149000000000004 1.8101999999999947,2.6240000000000006 1.8216999999999928,2.635 1.8270999999999873,2.636899999999999 1.8334999999999866,2.634500000000001 1.8426999999999936,2.621699999999999 1.8474999999999966,2.622300000000001 1.8500999999999976,2.6264999999999983 1.8506999999999891,2.630000000000001 1.8482999999999947,2.635799999999998 1.8358999999999952,2.6395 1.8242999999999938,2.6477999999999984 1.8198999999999899,2.6548999999999996 1.8190999999999917,2.6583999999999985 1.820699999999988,2.6608 1.8316999999999979,2.6655999999999995 1.8332999999999942,2.6712000000000007 1.832099999999997,2.6750999999999987 1.8244999999999862,2.6778999999999993 1.8201999999999998,2.6686999999999994 1.8146999999999878,2.6656999999999993 1.810299999999998,2.6682000000000006 1.8051999999999992,2.684099999999999 1.8015999999999934,2.6866000000000003 1.778499999999994,2.685999999999998 1.7635999999999967,2.6826999999999988 1.7505999999999915,2.6867 1.737799999999993,2.6846999999999976 1.7346000000000004,2.6872999999999987 1.734099999999998,2.6903999999999986 1.7428999999999917,2.704600000000001 1.7416999999999945,2.713099999999999 1.7432999999999907,2.721099999999998 1.7372999999999905,2.7227999999999977 1.730799999999988,2.7157 1.7256999999999891,2.7155000000000005 1.7232999999999947,2.7181999999999977 1.7209999999999894,2.7279999999999998 1.7081999999999908,2.7315999999999985 1.6987999999999914,2.728699999999998 1.6970999999999918,2.725699999999998 1.6972999999999985,2.7203999999999997 1.694599999999994,2.7193999999999985 1.6742999999999881,2.729899999999999 1.6733999999999867,2.733399999999998 1.678299999999993,2.740899999999998 1.6775999999999982,2.7432999999999996 1.6573999999999955,2.7391999999999985 1.6528999999999883,2.7364999999999977 1.6357,2.7311999999999994 1.6310000000000002,2.7327999999999992 1.6276999999999902,2.737 1.6289999999999907,2.7507 1.6276999999999902,2.7523999999999997 1.6181999999999874,2.7490000000000006 1.6089999999999947,2.750099999999998 1.605799999999988,2.7415000000000003 1.6019999999999897,2.7388999999999992 1.5940999999999974,2.7392999999999983 1.5886999999999887,2.7417 1.5864999999999867,2.7447999999999997 1.5876999999999981,2.7501999999999978 1.5921999999999912,2.751900000000001 1.5987999999999971,2.7494999999999994 1.609099999999998,2.7536000000000005 1.6136999999999944,2.757299999999999 1.615799999999993,2.765600000000001 1.6118999999999915,2.7772999999999985 1.6045999999999907,2.783599999999998 1.5867999999999967,2.7752 1.5803999999999974,2.7756999999999987 1.5762,2.7803999999999984 1.5792000000000002,2.796000000000001 1.5730999999999966,2.8072 1.5748999999999995,2.812800000000001 1.573999999999998,2.819799999999999 1.5810999999999922,2.8298000000000005 1.5941999999999865,2.8363999999999994 1.5959999999999894,2.8392999999999997 1.5844999999999914,2.856 1.5810999999999922,2.8574 1.579899999999995,2.8561999999999994 1.582099999999997,2.8481000000000005 1.5777999999999963,2.8407999999999998 1.5623999999999967,2.8389000000000006 1.5549999999999926,2.8437 1.5548999999999893,2.850699999999998 1.5650999999999868,2.8531999999999993 1.5676999999999879,2.8575999999999997 1.5662999999999982,2.8714999999999993 1.5615999999999985,2.881099999999998 1.559899999999999,2.8892000000000007 1.5601999999999947,2.8925 1.5640999999999963,2.8973999999999993 1.563999999999993,2.9023999999999983 1.5463999999999913,2.921999999999999 1.5453999999999866,2.928499999999998 1.5430999999999955,2.9322999999999997 1.5423999999999864,2.9449999999999985 1.5406999999999869,2.949399999999999 1.538499999999999,2.951600000000001 1.532999999999987,2.9533000000000005 1.521799999999999,2.9620999999999977 1.5126999999999953,2.9658999999999995 1.5116999999999905,2.971099999999998 1.5141999999999882,2.978799999999998 1.5104999999999933,2.9861999999999984 1.5067999999999984,2.989700000000001 1.49969999999999,2.991200000000001 1.4676999999999936,3.0108999999999977 1.4642999999999944,3.0147999999999993 1.463799999999992,3.021099999999999 1.4603999999999928,3.0237999999999996 1.418299999999988,3.0355000000000008 1.4165999999999883,3.0435 1.4196999999999917,3.0532999999999983 1.4178999999999888,3.057999999999998 1.4098999999999933,3.0586 1.3863999999999947,3.0556 1.3669999999999902,3.0572999999999997 1.3640999999999934,3.059499999999998 1.3593999999999937,3.0726999999999993 1.3419999999999987,3.0843000000000007 1.3232,3.0846999999999998 1.305099999999996,3.080899999999998 1.2994999999999948,3.0816 1.296999999999997,3.0847999999999995 1.2955999999999932,3.092699999999999 1.2871999999999986,3.1026000000000007 1.2894999999999897,3.1153999999999993 1.2881,3.1186999999999987 1.2779999999999916,3.123599999999998 1.2708999999999975,3.125300000000001 1.2630999999999943,3.1247999999999987 1.2530999999999892,3.1203999999999983 1.247399999999999,3.1227 1.2468999999999966,3.1275999999999993 1.2502999999999957,3.132699999999998 1.2644999999999982,3.1401999999999983 1.2665999999999968,3.144999999999998 1.2634999999999934,3.156699999999999 1.2548999999999921,3.1624999999999996 1.2424999999999926,3.162799999999999 1.236699999999999,3.1584999999999983 1.2360999999999933,3.1533999999999995 1.2417999999999978,3.138799999999998 1.241899999999987,3.1343999999999976 1.2400999999999982,3.1274999999999995 1.2338999999999913,3.123099999999999 1.230799999999988,3.1248999999999985 1.2279999999999944,3.1365 1.2151999999999958,3.1455 1.1721000000000004,3.1584999999999983 1.1617999999999995,3.1595999999999993 1.1551999999999936,3.1628999999999987 1.1498999999999882,3.168100000000001 1.1470999999999947,3.1732999999999993 1.1498999999999882,3.1782999999999983 1.1566999999999865,3.182599999999999 1.1559999999999917,3.185999999999998 1.1494,3.191799999999999 1.1474999999999937,3.1964999999999986 1.1413999999999902,3.2037999999999993 1.1278999999999968,3.2116999999999987 1.1241999999999877,3.2173 1.1222999999999956,3.2247000000000003 1.117999999999995,3.2294 1.1119999999999948,3.2331999999999983 1.1048999999999864,3.234499999999999 1.0997999999999877,3.2386999999999997 1.0986999999999938,3.2445000000000004 1.1011999999999915,3.254199999999999 1.0993999999999886,3.2623999999999977 1.100999999999999,3.2623999999999977 1.0991999999999962,3.2651999999999983 1.094699999999989,3.2676999999999996 1.084299999999999,3.2684999999999977 1.0733999999999924,3.2659000000000002 1.0674999999999955,3.266399999999999 1.0471000000000004,3.2773999999999983 1.0295999999999879,3.2996 1.0215999999999923,3.304499999999999 1.0128999999999877,3.313699999999999 1.0086999999999904,3.3146000000000004 1.0080999999999989,3.3241999999999994 1.0051999999999879,3.3272999999999993 1.0052999999999912,3.3370999999999977 0.9998999999999967,3.350299999999999 0.9953999999999894,3.356799999999998 0.9878999999999962,3.3622999999999994 0.9660999999999973,3.3626999999999985 0.954899999999995,3.369999999999999 0.9518999999999949,3.3770000000000007 0.9490999999999872,3.400499999999999 0.9509999999999934,3.407099999999998 0.9582999999999942,3.417799999999998 0.9591999999999956,3.4261999999999997 0.9561999999999955,3.431499999999998 0.9432999999999936,3.4413 0.9375999999999891,3.4398 0.9199999999999875,3.442500000000001 0.9133999999999958,3.4411000000000005 0.9045999999999879,3.4444 0.8978999999999928,3.4444 0.8911999999999978,3.4384999999999994 0.8867999999999938,3.4229000000000003 0.8826999999999998,3.4201999999999995 0.8730999999999938,3.4214 0.8717999999999932,3.426899999999998 0.8748999999999967,3.4388999999999985 0.8670999999999935,3.4525999999999986 0.8570999999999884,3.4578000000000007 0.8459999999999894,3.466599999999998 0.8349999999999937,3.468099999999998 0.8189999999999884,3.4662999999999986 0.8040999999999912,3.4704999999999995 0.7935999999999979,3.480199999999998 0.7826999999999913,3.5127000000000006 1.2348999999999961,3.5130999999999997 1.2347999999999928,4.0771999999999995 2.081299999999999,4.078200000000001 2.4932999999999907,4.075999999999999 2.4932999999999907,4.077599999999999 3.075499999999991,4.076299999999998 3.0762,3.3115000000000006 3.051399999999987,2.940299999999999 3.0549999999999926,2.940299999999999 3.043599999999998,2.7733000000000008 3.0401999999999987,2.773200000000001 3.0060999999999893,2.2645999999999997 2.998199999999997,2.190299999999999 2.9997999999999934,2.163599999999999 3.003299999999996,2.1640999999999995 3.0042999999999864,2.1593 3.0093999999999994,2.1569000000000003 3.0322999999999922,2.1651999999999987 3.039999999999992,2.1653000000000002 3.0419999999999874,2.1738 3.044799999999995,2.1746 3.049299999999988,2.173499999999999 3.061799999999991,2.162799999999999 3.072199999999995,2.158899999999999 3.078099999999992,2.1605999999999987 3.0882999999999896,2.1685 3.095499999999987,2.1623 3.102799999999988,2.1633999999999993 3.1093999999999937,2.1602999999999994 3.1092999999999904,2.1639 3.1132999999999953,2.1630000000000003 3.11399999999999,2.1647999999999996 3.1114999999999924,2.1705999999999985 3.1203999999999894,2.1735999999999986 3.1295999999999964,2.1738999999999997 3.1340999999999894,2.1715999999999998 3.140999999999991,2.158999999999999 3.143799999999999,2.1593 3.1440999999999946,2.1636999999999986 3.1450999999999993,2.1617999999999995 3.147999999999996,2.162099999999999 3.1485999999999876,2.1716999999999995 3.156499999999994,2.1630000000000003 3.1595999999999975,2.162099999999999 3.159399999999991,2.167299999999999 3.163899999999998,2.1648999999999994 3.1633999999999958,2.1693 3.164999999999992,2.173399999999999 3.163799999999995,2.177999999999999 3.1654999999999944,2.1808999999999994 3.1680999999999955,2.1816999999999993 3.1706999999999965,2.1800999999999995 3.174699999999987,2.1686999999999994 3.1799999999999926,2.175699999999999 3.188599999999994,2.1766999999999985 3.198599999999999,2.1728999999999985 3.2024999999999864,2.169599999999999 3.205999999999989,2.160499999999999 3.210199999999986,2.1601999999999997 3.2212999999999994,2.1662999999999997 3.224899999999991,2.166599999999999 3.237399999999994,2.1601999999999997 3.2538999999999874,2.1586 3.272599999999997,2.154399999999999 3.2823999999999955,2.155099999999999 3.2981999999999942,2.1598999999999986 3.3097999999999956,2.165899999999999 3.328099999999992,2.1371 3.341699999999989,2.1227 3.3452999999999946,2.1227 3.349499999999992,2.1257 3.3533999999999935,2.1228999999999996 3.360299999999995,2.122399999999999 3.369799999999998,2.1281999999999996 3.3852999999999867,2.1262999999999987 3.3924999999999983,2.132999999999999 3.3933999999999997,2.135399999999999 3.400599999999997,2.1327 3.4058999999999884,2.1270999999999987 3.4266999999999967,2.1229999999999993 3.4447999999999865,2.1092999999999993 3.4747999999999877,2.091799999999999 3.473399999999998,2.0838 3.466399999999993,2.0770999999999997 3.4691999999999865,2.0746 3.473899999999986,2.0748999999999995 3.4772999999999996,2.0717999999999996 3.482299999999995,2.0717999999999996 3.4880999999999887,2.0748999999999995 3.491199999999992,2.0787999999999993 3.495599999999996,2.0787999999999993 3.498899999999992,2.0716 3.5072999999999865,2.0645999999999987 3.5308999999999884,2.0496 3.5438999999999936,2.043199999999999 3.5452999999999975,2.0401999999999987 3.557299999999998,2.0343 3.5708999999999946,2.023199999999999 3.5844999999999914,2.0173999999999985 3.5947999999999922,2.0154999999999994 3.598099999999988,2.008799999999999 3.5974999999999966,2.002699999999999 3.5947999999999922,2.003499999999999 3.5944999999999965,2.0081999999999987 3.5908999999999907,2.007999999999999 3.5885999999999996,2.004299999999999 3.5930999999999926,1.9979999999999993 3.596999999999994,1.9962999999999997 3.596999999999994,1.9926999999999992 3.592499999999987,1.994299999999999 3.5888999999999953,1.9938000000000002 3.588099999999997,1.9916 3.590299999999999,1.9906999999999986 3.590299999999999,1.9890999999999988 3.5855999999999995,1.9856999999999996 3.586999999999989,1.9806999999999988 3.582499999999996,1.9809999999999999 3.581399999999988,1.9784999999999986 3.576699999999988,1.9773999999999994 3.574799999999996,1.971 3.5774999999999864,1.9662999999999986 3.5752999999999986,1.9631999999999987 3.577299999999994,1.9590999999999994 3.580299999999994,1.9573999999999998 3.5852999999999895,1.9588 3.587299999999999,1.9551999999999996 3.589499999999987,1.9548999999999985 3.592499999999987,1.9566 3.592799999999997,1.9596 3.5955999999999904,1.959299999999999 3.59729999999999,1.9567999999999994 3.6022999999999996,1.9566 3.6069999999999993,1.9606999999999992 3.612799999999993,1.9612999999999996 3.6180999999999983,1.9651999999999994 3.621399999999994,1.9651999999999994 3.6222999999999956,1.963799999999999 3.6230999999999938,1.9659999999999993 3.619199999999992,1.9670999999999985 3.619499999999988,1.9681999999999995 3.627299999999991,1.970699999999999 3.6269999999999953,1.9751999999999992 3.6222999999999956,1.9771 3.6188999999999965,1.9817999999999998 3.6166999999999945,1.9967999999999986 3.6203000000000003,1.9999000000000002 3.6211999999999875,2.0031999999999996 3.6263999999999896,2.0048999999999992 3.630299999999991,2.0031999999999996 3.6341999999999928,2.0038 3.642799999999994,2.011799999999999 3.6466999999999956,2.020999999999999 3.64309999999999,2.0221 3.6433999999999997,2.017899999999999 3.64139999999999,2.0173999999999985 3.6377999999999986,2.0206999999999997 3.6377999999999986,2.0234999999999985 3.653899999999993,2.043799999999999 3.656099999999995,2.051 3.65979999999999,2.0549 3.6680999999999955,2.0740999999999996 3.6677999999999997,2.081299999999999 3.6624999999999943,2.0915999999999997 3.659499999999994,2.0912999999999986 3.6644999999999897,2.0868 3.6658999999999935,2.082699999999999 3.6647999999999996,2.0809999999999995 3.6602999999999923,2.0831999999999997 3.6577999999999946,2.0892999999999997 3.6580999999999904,2.115499999999999 3.65979999999999,2.1206999999999994 3.661199999999994,2.1227 3.661999999999992,2.1217999999999986 3.6599999999999966,2.1188000000000002 3.661999999999992,2.1167999999999996 3.661999999999992,2.1143 3.668699999999987,2.1068 3.672799999999995,2.104899999999999 3.6699999999999875,2.0991 3.6755999999999887,2.1034999999999986 3.675299999999993,2.1074 3.678699999999992,2.110999999999999 3.6845,2.1090999999999998 3.691999999999993,2.1031999999999993 3.699799999999996,2.1031999999999993 3.7161999999999864,2.098799999999999 3.7180999999999926,2.0952 3.723099999999988,2.0923999999999996 3.7502999999999957,2.094899999999999 3.7497999999999934,2.0915999999999997 3.7402999999999906,2.0868 3.744799999999998,2.0831999999999997 3.7516999999999996,2.083499999999999 3.753699999999995,2.0909999999999993 3.7508999999999872,2.0954999999999995 3.723399999999998,2.0938 3.7202999999999946,2.095699999999999 3.717499999999987,2.1013 3.7197999999999922,2.1015999999999995 3.7224999999999966,2.0970999999999993 3.727499999999992,2.0999 3.7297999999999973,2.104099999999999 3.7305999999999955,2.1121 3.7258999999999958,2.1166 3.7188999999999908,2.1182 3.713399999999993,2.1174 3.7113999999999976,2.1188000000000002 3.7116999999999933,2.131599999999999 3.6977999999999867,2.1341 3.6883999999999872,2.1381999999999994 3.681999999999988,2.1371 3.675299999999993,2.1423999999999985 3.677499999999995,2.1357 3.6805999999999983,2.1359999999999992 3.6805999999999983,2.1331999999999987 3.678699999999992,2.1310000000000002 3.6813999999999965,2.1281999999999996 3.6780999999999864,2.127699999999999 3.6744999999999948,2.1392999999999986 3.6733999999999867,2.1540999999999997 3.6622999999999877,2.1632 3.6584000000000003,2.173 3.6474999999999937,2.178799999999999 3.6458999999999975,2.1821 3.6341999999999928,2.1834999999999987 3.6247999999999934,2.195499999999999 3.613899999999987,2.1956999999999987 3.608099999999993,2.2013 3.603899999999996,2.2096 3.5999999999999943,2.225999999999999 3.6077999999999975,2.2281999999999993 3.6233999999999895,2.2265999999999995 3.639499999999998,2.2223999999999986 3.6677999999999997,2.207699999999999 3.683399999999992,2.1948999999999987 3.7138999999999953,2.163499999999999 3.7297999999999973,2.1502 3.78479999999999,2.113199999999999 3.786199999999994,2.110999999999999 3.8166999999999973,2.096 3.816999999999993,2.0938 3.8208999999999946,2.093499999999999 3.826699999999988,2.089599999999999 3.840299999999999,2.0848999999999993 3.9102999999999923,2.0427 3.915299999999988,2.0390999999999995 3.9147999999999996,2.0366 3.916399999999996,2.0348999999999986 3.9283999999999963,2.027099999999999 3.933399999999992,2.0206999999999997 3.953099999999992,2.0046 3.952299999999994,2.0031999999999996 3.959799999999987,1.9981999999999989 3.971999999999994,1.9916 3.993399999999994,1.9863 3.9880999999999887,1.9863 3.984499999999997,1.9837999999999987 3.9880999999999887,1.9855 3.996399999999994,1.9847000000000001 3.9773999999999887,1.9821999999999989 3.984099999999998,1.9733 3.983399999999989,1.9578999999999986 3.9797999999999973,1.9566 3.979699999999994,1.9527 3.9739999999999895,1.9494999999999987 3.9716999999999985,1.9504000000000001 3.9662999999999897,1.9455999999999989 3.9614999999999867,1.9443000000000001 3.9535999999999945,1.9455999999999989 3.9484999999999957,1.9443000000000001 3.9412999999999982,1.9369999999999994 3.921999999999997,1.9321000000000002 3.9144999999999897,1.9408999999999992 3.9103999999999957,1.9337 3.9035999999999973,1.9311999999999987 3.9031999999999982,1.9208999999999996 3.904899999999998,1.9154999999999998 3.8936999999999955,1.896799999999999 3.867599999999996,1.8656999999999986 3.8092999999999932,1.821299999999999 3.6813999999999965,1.7147999999999985 3.654199999999989,1.6891999999999996 3.644199999999998,1.6838999999999995 3.6396999999999906,1.6860999999999997 3.620899999999992,1.6742999999999988 3.58059999999999,1.6331999999999987 3.5374999999999943,1.597999999999999 3.538599999999988,1.5965999999999987 3.424199999999999,1.529 3.404199999999989,1.5187999999999988 3.3961999999999932,1.5168999999999997 3.339999999999989,1.4711999999999996 3.255299999999991,1.3987999999999996 3.1739999999999924,1.3674 3.0744999999999862,1.331999999999999 3.067999999999998,1.327 3.0638999999999896,1.3145999999999987 3.052199999999999,1.2957999999999998 3.0505999999999887,1.2824999999999989 3.0438999999999936,1.2756999999999987 3.0418999999999983,1.2664999999999988 3.045899999999989,1.2667000000000002 3.0490999999999957,1.2616999999999994 3.049199999999999,1.2577999999999996 3.05919999999999,1.2546 3.0605999999999938,1.2482999999999986 3.070699999999988,1.2462999999999997 3.0707999999999913,1.2410999999999994 3.0646999999999878,1.2332 3.0663999999999874,1.231399999999999 3.0616999999999877,1.2090999999999994 3.053299999999993,1.203899999999999 3.052899999999994,1.2007999999999992 3.0557999999999907,1.1968999999999994 3.0556999999999874,1.1936999999999998 3.0497999999999905,1.1832999999999991 3.045899999999989,1.1891999999999996 3.0392999999999972,1.1707999999999998 3.034099999999995,1.1649999999999991 3.0034999999999883,1.1486999999999998 3.0017999999999887,1.1463 3.0001999999999924,1.1273 3.003699999999995,1.1014999999999997 3.025299999999987,1.0719999999999992 3.0589999999999975,1.0386999999999986 3.0619999999999976,1.0172999999999988 3.0623999999999967,0.9944999999999986 3.0956999999999937,0.976799999999999 3.088399999999993,0.9592999999999989 3.0753999999999877,0.9384999999999994 3.0693999999999875,0.9245999999999999 3.0704999999999956,0.9095999999999993 3.074699999999993,0.8890999999999991 3.0760999999999967,0.8641999999999985 3.066999999999993,0.8338999999999999 3.0538999999999987,0.8312999999999988 3.0446999999999917,0.8325999999999993 3.004799999999989,0.8453999999999997 2.9950999999999937,0.8445 2.982299999999995,0.8378999999999994 2.9732999999999947,0.829699999999999 2.970399999999998,0.8186 2.9669999999999987,0.8135999999999992 2.949099999999987,0.7984999999999989 2.944599999999994,0.7911999999999999 2.9418999999999897,0.779399999999999 2.924299999999988,0.7665999999999986 2.9259999999999877,0.7561 2.9184999999999945,0.752699999999999 2.917599999999993,0.7499000000000002 2.9136999999999915,0.7486999999999995 2.906899999999993,0.7425999999999995 2.8843999999999994,0.734 2.873899999999992,0.7276999999999987 2.874299999999991,0.724499999999999 2.872099999999989,0.7246999999999986 2.8715999999999866,0.719199999999999 2.873199999999997,0.6871999999999989 2.8722999999999956,0.6837999999999997 2.869399999999999,0.6811999999999987 2.861399999999989,0.6814 2.8471999999999866,0.6922999999999995 2.8441999999999865,0.6928999999999998 2.8392999999999944,0.6902999999999988 2.840299999999999,0.7091999999999992 2.8364999999999867,0.712299999999999 2.8336999999999932,0.7091999999999992 2.826999999999998,0.7077999999999989 2.8233999999999924,0.702399999999999 2.821399999999997,0.6946999999999992 2.8175999999999988,0.692499999999999 2.8104999999999905,0.6836000000000002 2.7968999999999937,0.6732999999999993 2.790699999999987,0.6723999999999997 2.7856999999999914,0.6750999999999987 2.7848999999999933,0.6798000000000002 2.7553999999999945,0.6903999999999986 2.7486999999999995,0.6836000000000002 2.7428999999999917,0.680299999999999 2.738199999999992,0.6801999999999992 2.713399999999993,0.6585000000000001 2.7072000000000003,0.6499999999999986 2.701499999999996,0.6502999999999997 2.699699999999993,0.6480999999999995 2.6917999999999864,0.6504999999999992 2.696099999999987,0.6623000000000001 2.6858999999999895,0.678799999999999 2.6873999999999967,0.6829000000000001 2.654699999999991,0.6818999999999988 2.650199999999998,0.6731999999999996 2.6488999999999976,0.6577000000000002 2.6532999999999873,0.6381999999999994 2.651999999999987,0.6336999999999993 2.6631,0.6242000000000001 2.664599999999993,0.6183999999999994 2.6571,0.6168999999999993 2.6566999999999865,0.6099999999999994 2.6539999999999964,0.6076999999999995 2.6465999999999923,0.6082999999999998 2.6418999999999926,0.6061999999999994 2.6377999999999986,0.5944000000000003 2.6369999999999862,0.5788999999999991 2.637599999999992,0.5772999999999993 2.6406999999999954,0.5775999999999986 2.6470999999999947,0.5831 2.6518999999999977,0.5813999999999986 2.665299999999988,0.581199999999999 2.6683999999999912,0.5797999999999988 2.6709999999999923,0.5749999999999993 2.6729999999999876,0.5741999999999994 2.672799999999995,0.5710999999999995 2.6776999999999873,0.569799999999999 2.6832999999999885,0.5645999999999987 2.6851999999999947,0.5580999999999996 2.6832999999999885,0.5533000000000001 2.681599999999989,0.5519999999999996 2.6769999999999925,0.5551999999999992 2.680499999999995,0.5446999999999989 2.6932999999999936,0.5275999999999996 2.7042,0.5003999999999991 2.705699999999993,0.5041999999999991 2.7094999999999914,0.5024999999999995 2.709299999999999,0.4992000000000001 2.7053999999999974,0.4961000000000002 2.7029999999999887,0.48629999999999995 2.6909999999999883,0.47889999999999944 2.6757999999999953,0.4745999999999988 2.6544999999999987,0.46369999999999933 2.6280999999999892,0.4606999999999992 2.6051999999999964,0.46389999999999887 2.596899999999991,0.46340000000000003 2.589999999999989,0.4618000000000002 2.560799999999986,0.44619999999999926 2.560999999999993,0.44409999999999883 2.512999999999991,0.40229999999999855 2.5043999999999897,0.3869999999999987 2.49369999999999,0.35999999999999943 2.4913999999999987,0.3492999999999995 2.480699999999999,0.3274999999999988 2.485199999999992,0.32179999999999964 2.4824999999999875,0.31539999999999857 2.4846999999999895,0.3072999999999997 2.4909999999999997,0.30379999999999896 2.4897999999999882,0.29779999999999873 2.4839999999999947,0.2989999999999995 2.4846999999999895,0.29549999999999876 2.4712999999999994,0.29499999999999993 2.4639999999999986,0.2970999999999986 2.446799999999996,0.2970999999999986 2.4432999999999936,0.30180000000000007 2.4394999999999953,0.30159999999999876 2.4366999999999877,0.30989999999999895 2.4324999999999903,0.3117000000000001 2.427199999999999,0.31709999999999994 2.421199999999999,0.31759999999999877 2.4194999999999993,0.32069999999999865 2.4147999999999996,0.3213999999999988 2.4117999999999995,0.32429999999999914 2.404999999999987,0.3260999999999985 2.3917,0.3240999999999996 2.3818999999999875,0.31989999999999874 2.3740999999999985,0.3186 2.3607999999999976,0.3048000000000002 2.3562999999999903,0.3048000000000002 2.351099999999988,0.3069999999999986 2.3303999999999974,0.3053999999999988 2.3267999999999915,0.30219999999999914 2.3259999999999934,0.299199999999999 2.3216999999999928,0.29739999999999966 2.322199999999995,0.2937999999999992 2.3133999999999872,0.2745999999999995 2.3051999999999992,0.270999999999999 2.3044999999999902,0.2687999999999988 2.3019999999999925,0.26959999999999873 2.2968999999999937,0.26759999999999984 2.293199999999999,0.2583000000000002 2.2883999999999958,0.25739999999999874 2.2842999999999876,0.24959999999999916 2.2745999999999924,0.2439 2.2672999999999917,0.24259999999999948 2.2652999999999963,0.24380000000000024 2.2645999999999873,0.24259999999999948 2.2668999999999926,0.2375999999999987 2.2624999999999886,0.2325999999999997 2.251099999999994,0.22799999999999976 2.24669999999999,0.22279999999999944 2.237499999999997,0.21979999999999933 2.2358999999999867,0.22089999999999854 2.2339999999999947,0.21859999999999857 2.2243999999999886,0.21509999999999962 2.2182999999999993,0.20999999999999908 2.2172999999999945,0.20639999999999858 2.212599999999995,0.20579999999999998 2.21159999999999,0.20399999999999885 2.202699999999993,0.2007999999999992 2.2007999999999868,0.19799999999999862 2.195699999999988,0.19839999999999947 2.195999999999998,0.18629999999999924 2.194599999999994,0.18219999999999992 2.188299999999998,0.17969999999999864 2.187899999999999,0.17779999999999951 2.1910999999999916,0.16509999999999891 2.1872999999999934,0.15799999999999947 2.1798999999999893,0.1529999999999987 2.1599999999999966,0.1498999999999988 2.158299999999997,0.1476999999999986 2.1592999999999876,0.14509999999999934 2.156899999999993,0.14419999999999966 2.1557999999999993,0.14129999999999932 2.1429999999999865,0.13769999999999882 2.1398999999999972,0.12870000000000026 2.136099999999999,0.12359999999999971 2.1336999999999904,0.12299999999999933 2.1270999999999987,0.10949999999999882 2.112799999999993,0.09670000000000023 2.117999999999995,0.07509999999999906 2.1155999999999864,0.0732999999999997 2.116199999999992,0.0693999999999999 2.108099999999993,0.058699999999999974 2.1066000000000003,0.039699999999999847 2.108699999999999,0.03689999999999927 2.116199999999992,0.0389999999999997 2.125799999999998,0.02239999999999931 2.1313999999999993,0.021300000000000097 2.13239999999999,0.018799999999998818 2.130599999999987,0.015099999999998559 2.126199999999997,0.014599999999999724 2.1244999999999976,0.009100000000000108 2.1182999999999907,0.0008999999999996788 2.114399999999989,0.0 2.1036999999999892,0.005199999999998539 2.0974999999999966,0.0032999999999994145 2.0930999999999926,0.004899999999999238 2.090299999999999,0.009599999999998943 2.084799999999987,0.009100000000000108 2.0208999999999975,0.03739999999999988 2.029199999999989,0.0343 2.0316999999999865,0.0343 2.0327999999999946,0.03599999999999959 2.026999999999987,0.036599999999999966 2.0137,0.04269999999999996 2.0124999999999886,0.04069999999999929 2.0097999999999985,0.04099999999999859 1.9888999999999868,0.049599999999999866 1.983699999999999,0.05379999999999896 1.9897999999999882,0.05239999999999867 1.9902999999999906,0.05039999999999978 1.9924999999999926,0.049599999999999866 1.9930999999999983,0.04989999999999917 1.9886999999999944,0.05379999999999896 1.9847999999999928,0.05459999999999887 1.983399999999989,0.05679999999999907 1.976699999999994,0.05909999999999904 1.9749999999999943,0.061299999999999244 1.9719999999999942,0.061599999999998545 1.9705999999999904,0.06459999999999866 1.964199999999991,0.06429999999999936 1.9608999999999952,0.06679999999999886 1.9533999999999878,0.06679999999999886 1.9502999999999986,0.07179999999999964 1.9394999999999953,0.07460000000000022 1.933099999999996,0.07909999999999862 1.9344999999999999,0.07519999999999882 1.9405999999999892,0.07129999999999903 1.9488999999999947,0.07160000000000011 1.954499999999996,0.06550000000000011 1.959799999999987,0.06550000000000011 1.964199999999991,0.06349999999999945 1.9694999999999965,0.06409999999999982 1.9710999999999927,0.061299999999999244 1.9791999999999916,0.05799999999999983 1.9797999999999973,0.05569999999999986 1.9697999999999922,0.05739999999999945 1.9005999999999972,0.0884999999999998 1.8847999999999985,0.09379999999999988 1.8858999999999924,0.09659999999999869 1.8833999999999946,0.09520000000000017 1.8802999999999912,0.0970999999999993 1.880899999999997,0.0995999999999988 1.872499999999988,0.10379999999999967 1.8680999999999983,0.10159999999999947 1.8249999999999886,0.12129999999999974 1.806999999999988,0.12709999999999866 1.796999999999997,0.13209999999999944 1.7349999999999994,0.1517999999999997 1.734199999999987,0.1532 1.7313999999999936,0.15289999999999893 1.727499999999992,0.1551999999999989 1.723099999999988,0.15549999999999997 1.7224999999999966,0.15679999999999872 1.6927999999999912,0.16460000000000008 1.6875,0.16739999999999888 1.6430999999999898,0.17680000000000007 1.629499999999993,0.17799999999999905 1.6280999999999892,0.17929999999999957 1.5830999999999875,0.18629999999999924 1.5413999999999959,0.18959999999999866 1.5069999999999908,0.18879999999999875 1.5113999999999947,0.19130000000000003 1.5027999999999935,0.19209999999999994 1.497799999999998,0.19099999999999895 1.4983999999999895,0.18879999999999875 1.4949999999999903,0.18799999999999883 1.4897999999999882,0.18849999999999945 1.4794999999999874,0.18659999999999854 1.473399999999998,0.18740000000000023 1.4799999999999898,0.18879999999999875 1.474499999999992,0.18989999999999974 1.4710999999999927,0.18849999999999945 1.4694999999999965,0.18549999999999933 1.4669999999999987,0.18549999999999933 1.466399999999993,0.18679999999999986 1.4697999999999922,0.18879999999999875 1.4644999999999868,0.18849999999999945 1.4658999999999907,0.18709999999999916 1.4627999999999872,0.18520000000000003 1.45089999999999,0.18549999999999933 1.4488999999999947,0.18379999999999974 1.4488999999999947,0.18569999999999887 1.4472999999999985,0.18599999999999994 1.4458999999999946,0.18429999999999858 1.441999999999993,0.18429999999999858 1.4383999999999872,0.17959999999999887 1.4375,0.18159999999999954 1.4344999999999999,0.18130000000000024 1.436399999999992,0.18379999999999974 1.4338999999999942,0.1905000000000001 1.4313999999999965,0.1905000000000001 1.431999999999988,0.18659999999999854 1.4274999999999949,0.18459999999999965 1.4261999999999944,0.18599999999999994 1.4202999999999975,0.18520000000000003 1.4213999999999913,0.18379999999999974 1.4305999999999983,0.18319999999999936 1.4324999999999903,0.17799999999999905 1.4377999999999957,0.17739999999999867 1.4377999999999957,0.17659999999999876 1.431999999999988,0.17709999999999937 1.4283999999999963,0.18159999999999954 1.4274999999999949,0.18019999999999925 1.4249999999999972,0.18130000000000024 1.4147999999999996,0.18069999999999986 1.4144999999999897,0.18269999999999875 1.4111999999999938,0.18349999999999866 1.41279999999999,0.17989999999999995 1.3305999999999898,0.17629999999999946 1.3199999999999932,0.17319999999999958 1.3166999999999973,0.17409999999999926 1.314799999999991,0.17680000000000007 1.3122999999999934,0.17379999999999995 1.3088999999999942,0.17300000000000004 1.2972999999999928,0.17600000000000016 1.2116999999999933,0.17600000000000016 "></polygon><polygon points="1.141999999999996,0.17799999999999905 1.1380999999999943,0.17799999999999905 1.1380999999999943,0.17910000000000004 1.142799999999994,0.17819999999999858 1.141999999999996,0.17799999999999905 "></polygon><polygon points="1.1299999999999955,0.18019999999999925 1.128699999999995,0.18019999999999925 1.1291999999999973,0.18159999999999954 1.1322999999999865,0.18130000000000024 1.1299999999999955,0.18019999999999925 "></polygon><polygon points="3.996399999999994,1.9848999999999997 3.99669999999999,1.9848999999999997 3.996399999999994,1.9847000000000001 3.996399999999994,1.9848999999999997 "></polygon>
    </svg>
    