
    <svg width="4.906599999999997" height="7.353999999999999" xmlns="http://www.w3.org/2000/svg" xmlns:xlink="http://www.w3.org/1999/xlink" style="transform: scale(1, -1)">
        <polygon points="4.809399999999997,0.7339 4.795199999999994,0.7382 4.782199999999996,0.7484999999999999 4.757899999999999,0.7629999999999999 4.748099999999994,0.7615999999999998 4.734399999999994,0.7486999999999999 4.710899999999995,0.7364999999999999 4.698099999999997,0.736 4.683699999999995,0.7384999999999999 4.675999999999995,0.7417 4.663399999999996,0.7427999999999999 4.6556,0.7390999999999999 4.642899999999997,0.7263 4.631,0.7107999999999999 4.621899999999997,0.7018 4.607499999999995,0.6912 4.596299999999999,0.6868999999999998 4.5867,0.6870999999999998 4.572799999999994,0.6920999999999999 4.547599999999996,0.7062999999999999 4.5122,0.7144999999999999 4.484699999999997,0.7353999999999998 4.4724,0.7410999999999999 4.460499999999996,0.7429999999999999 4.449299999999994,0.7424999999999999 4.415999999999997,0.7350999999999999 4.4007000000000005,0.7339 4.375299999999996,0.7411999999999999 4.366399999999999,0.7466999999999999 4.346399999999996,0.7699 4.326799999999999,0.7810999999999999 4.320299999999996,0.794 4.317099999999996,0.8199999999999998 4.314499999999995,0.8268999999999997 4.305599999999998,0.8424999999999998 4.301699999999997,0.8443 4.2926,0.8445 4.264499999999998,0.8372999999999999 4.222299999999997,0.8122 4.211799999999997,0.8027 4.184399999999997,0.7985 4.176899999999996,0.7944 4.150399999999998,0.7686 4.139499999999998,0.7668999999999999 4.133099999999999,0.7683 4.126399999999997,0.7759 4.115199999999994,0.7997999999999998 4.105799999999995,0.8070999999999999 4.094999999999999,0.8116999999999999 4.0844999999999985,0.8132999999999999 4.067099999999996,0.8089 4.055999999999997,0.8039999999999998 4.0306,0.7868999999999999 4.023599999999995,0.7772999999999999 4.0169,0.7588999999999999 4.010799999999996,0.7507999999999999 4.000999999999998,0.746 3.985199999999999,0.7410999999999999 3.963799999999999,0.7292999999999998 3.953799999999994,0.7196 3.9461999999999975,0.7083999999999999 3.940399999999997,0.6802999999999999 3.933899999999994,0.6624999999999999 3.9229999999999947,0.6456999999999999 3.904299999999999,0.6235999999999999 3.896099999999997,0.6105 3.8630999999999958,0.5453999999999999 3.853499999999997,0.5341 3.842799999999997,0.5254999999999999 3.8318999999999974,0.5202 3.822499999999998,0.5186 3.8023999999999987,0.5225 3.788499999999999,0.5212999999999999 3.7724999999999937,0.5159 3.761499999999998,0.5141 3.747799999999998,0.5145 3.729299999999995,0.52 3.6999999999999957,0.5321 3.6773999999999987,0.5384 3.6171000000000006,0.5430999999999999 3.603899999999996,0.5391999999999999 3.597699999999996,0.5347999999999999 3.5702,0.5033999999999998 3.557399999999994,0.5005999999999999 3.523399999999995,0.49749999999999983 3.5046999999999997,0.49239999999999995 3.4927999999999955,0.48760000000000003 3.4779999999999944,0.4737 3.468199999999996,0.47029999999999994 3.454499999999996,0.4698 3.4443999999999946,0.4728999999999999 3.418599999999998,0.4868999999999999 3.3874999999999957,0.49019999999999997 3.3862999999999985,0.35929999999999995 3.3874999999999957,0.351 3.3855999999999966,0.32830000000000004 3.378999999999998,0.3254999999999999 3.3547999999999973,0.3274999999999999 3.344299999999997,0.32989999999999986 3.309599999999996,0.3304 3.2896999999999963,0.3305 3.2577,0.32630000000000003 3.249699999999997,0.3293999999999999 3.2453999999999965,0.3329 3.2406000000000006,0.34119999999999995 3.2379999999999995,0.3548 3.231899999999996,0.37019999999999986 3.225999999999999,0.37849999999999984 3.220799999999997,0.38270000000000004 3.2106999999999957,0.3859999999999999 3.193099999999994,0.38559999999999994 3.1522000000000006,0.37649999999999983 3.142799999999994,0.3778999999999999 3.1141000000000005,0.38680000000000003 3.0921999999999983,0.3959999999999999 3.0748999999999995,0.41259999999999986 3.0682999999999936,0.41679999999999984 3.061399999999999,0.41389999999999993 3.0411,0.38159999999999994 3.0244,0.3758999999999999 3.011099999999999,0.36929999999999996 3.0064999999999955,0.36129999999999995 3.0050999999999988,0.35419999999999985 3.011099999999999,0.3276999999999999 3.011499999999998,0.3127 3.009299999999996,0.30189999999999984 3.004799999999996,0.29379999999999984 2.9968000000000004,0.2890999999999999 2.9697999999999993,0.28579999999999983 2.9054,0.28659999999999997 2.889099999999999,0.2811999999999999 2.884299999999996,0.2676999999999998 2.8855999999999966,0.25959999999999983 2.892799999999994,0.23909999999999987 2.914199999999994,0.19599999999999995 2.919699999999999,0.17389999999999994 2.9188999999999936,0.15459999999999985 2.9172999999999973,0.15229999999999988 2.919799999999995,0.14769999999999994 2.919799999999995,0.14290000000000003 2.9135999999999953,0.12260000000000004 2.879799999999996,0.0875999999999999 2.8726999999999947,0.08299999999999996 2.8662999999999954,0.08289999999999997 2.8562999999999974,0.08709999999999996 2.849899999999998,0.09399999999999986 2.8444999999999965,0.10439999999999983 2.8392999999999944,0.10989999999999989 2.8354,0.11129999999999995 2.8296999999999954,0.10999999999999988 2.807399999999994,0.0947 2.7979999999999947,0.09409999999999985 2.7235999999999976,0.10419999999999985 2.694899999999997,0.11169999999999991 2.690799999999996,0.11149999999999993 2.683,0.10860000000000003 2.677899999999994,0.10349999999999993 2.6665999999999954,0.05469999999999997 2.6609999999999943,0.04369999999999985 2.6520999999999972,0.03200000000000003 2.6407999999999987,0.0230999999999999 2.606199999999994,0.005399999999999849 2.5914,0.00019999999999997797 2.5833999999999975,0.0 2.5712999999999937,0.0029999999999998916 2.538899999999998,0.019099999999999895 2.527799999999999,0.02929999999999988 2.508899999999997,0.03859999999999997 2.4956999999999994,0.05059999999999998 2.4931999999999945,0.051999999999999824 2.491499999999995,0.050899999999999945 2.4833,0.05699999999999994 2.4816999999999965,0.06159999999999988 2.482699999999994,0.0665 2.4894999999999996,0.07309999999999994 2.4931999999999945,0.08019999999999983 2.494899999999994,0.09050000000000002 2.4923999999999964,0.0988 2.483799999999995,0.11249999999999982 2.473099999999995,0.12169999999999992 2.445999999999998,0.13239999999999985 2.4169999999999945,0.13259999999999983 2.4069000000000003,0.13449999999999984 2.3918999999999997,0.14189999999999992 2.3811999999999998,0.14179999999999993 2.378699999999995,0.14500000000000002 2.370199999999997,0.14669999999999983 2.3041999999999945,0.15279999999999982 2.231199999999994,0.17149999999999999 2.179699999999997,0.19409999999999994 2.1342,0.2205999999999999 2.1252999999999957,0.23029999999999995 2.116899999999994,0.2427999999999999 2.1128,0.2530999999999999 2.099199999999996,0.278 2.0871999999999957,0.29279999999999995 2.0673999999999992,0.3125 2.0608999999999966,0.3292999999999999 2.056999999999995,0.33509999999999995 2.049999999999997,0.3406 2.0419999999999945,0.3422999999999998 2.014499999999998,0.3396999999999999 2.0078999999999994,0.34129999999999994 2.0043000000000006,0.34450000000000003 1.9827999999999975,0.3779999999999999 1.9841999999999942,0.37829999999999986 1.9726999999999961,0.3987999999999998 1.9557999999999964,0.4179999999999999 1.944499999999998,0.43409999999999993 1.9109999999999943,0.45130000000000003 1.9070999999999998,0.4555 1.9014999999999986,0.4679 1.8811999999999998,0.4901 1.8543999999999983,0.5305 1.845099999999995,0.5470999999999999 1.838799999999999,0.5533999999999999 1.8238999999999947,0.5575999999999999 1.8085999999999984,0.5585 1.7957999999999998,0.5576999999999999 1.7827999999999946,0.5545 1.7690999999999946,0.5542 1.7521999999999949,0.5607 1.732599999999998,0.5752999999999999 1.7186999999999983,0.5887 1.710799999999999,0.6001999999999998 1.7072999999999965,0.6085 1.7095999999999947,0.6151 1.7162000000000006,0.6213 1.738199999999999,0.6332 1.7439999999999998,0.6399999999999999 1.7457999999999956,0.6478999999999999 1.7426999999999992,0.6571 1.7357999999999976,0.669 1.7372999999999976,0.6695 1.7363,0.6706999999999999 1.7202999999999946,0.6627999999999998 1.7038999999999973,0.6677 1.682699999999997,0.6773 1.6753999999999962,0.6763999999999999 1.6684999999999945,0.6727999999999998 1.6640999999999977,0.6679999999999999 1.656099999999995,0.6686999999999999 1.6489999999999938,0.6721999999999999 1.6425999999999945,0.6701999999999999 1.6391999999999953,0.6719999999999999 1.6389999999999958,0.6775 1.633199999999995,0.6872 1.6387999999999963,0.6938 1.6387999999999963,0.7006999999999999 1.6365999999999943,0.7141 1.6306999999999974,0.7205999999999999 1.6304999999999978,0.7248999999999999 1.634599999999999,0.7333999999999998 1.6298999999999992,0.7414999999999998 1.6300999999999988,0.7456 1.6394999999999982,0.7510999999999999 1.6418999999999997,0.7611999999999999 1.646499999999996,0.7679 1.6490999999999971,0.7791999999999999 1.6473999999999975,0.7881 1.6418999999999997,0.7942 1.6422999999999988,0.7961 1.649799999999999,0.8026 1.6522000000000006,0.8078999999999998 1.6566999999999936,0.8374000000000001 1.6670999999999978,0.8502000000000001 1.6666999999999987,0.8533999999999997 1.6527999999999992,0.8736999999999999 1.6477999999999966,0.8748999999999998 1.6448999999999998,0.8851999999999998 1.6468999999999951,0.8999000000000001 1.6531999999999982,0.9144000000000001 1.6563999999999979,0.9152999999999998 1.6609999999999943,0.9198999999999997 1.6635999999999953,0.9278999999999997 1.6640999999999977,0.9377999999999997 1.6611999999999938,0.9502999999999999 1.6636999999999986,0.9584999999999999 1.6616,0.9642999999999997 1.656799999999997,0.9638 1.6510999999999996,0.9659 1.6495999999999995,0.9695999999999998 1.6515999999999948,0.9744999999999999 1.6509999999999962,0.98 1.6473999999999975,0.9870999999999999 1.6494,0.9927000000000001 1.6469999999999985,1.0007000000000001 1.6504999999999939,1.0088 1.6513999999999953,1.0156 1.6590999999999951,1.0246 1.6584999999999965,1.0316999999999998 1.6607999999999947,1.0375 1.6605999999999952,1.0507 1.6649999999999991,1.0614 1.6636999999999986,1.0674000000000001 1.6590999999999951,1.0758999999999999 1.658699999999996,1.0804999999999998 1.6631,1.1014 1.6592999999999947,1.1116000000000001 1.6524,1.1078999999999999 1.6304999999999978,1.1080999999999999 1.6215999999999937,1.1113 1.6089999999999947,1.1107 1.6045999999999978,1.1082 1.5993999999999957,1.1090999999999998 1.587299999999999,1.1149999999999998 1.5756999999999977,1.1324999999999998 1.5701999999999998,1.1341 1.5633999999999943,1.1456999999999997 1.5599999999999952,1.1486999999999998 1.556999999999995,1.1503 1.5542999999999978,1.1478000000000002 1.5514999999999972,1.1408999999999998 1.5471000000000004,1.1412 1.5433999999999983,1.1444 1.540299999999995,1.1524999999999999 1.5349000000000004,1.1599 1.5268999999999977,1.1680000000000001 1.5197999999999965,1.1707999999999998 1.517799999999994,1.174 1.5182999999999964,1.1804000000000001 1.5167000000000002,1.1825 1.5123999999999995,1.1821000000000002 1.5060999999999964,1.1722000000000001 1.5017999999999958,1.1724999999999999 1.4896999999999991,1.1898 1.4883999999999986,1.1949 1.4891000000000005,1.2041 1.4787999999999997,1.2092 1.4771999999999963,1.2128999999999999 1.478199999999994,1.2155999999999998 1.4873999999999938,1.2273 1.4861000000000004,1.2323999999999997 1.4861999999999966,1.2519999999999998 1.482299999999995,1.2586 1.4831999999999965,1.2669000000000001 1.4793999999999983,1.2862999999999998 1.4791999999999987,1.2942999999999998 1.4848999999999961,1.3035 1.4761999999999986,1.3176 1.4672999999999945,1.3247999999999998 1.4643999999999977,1.3312 1.4650999999999996,1.339 1.4632999999999967,1.3472999999999997 1.4483999999999995,1.3695 1.454499999999996,1.3813999999999997 1.4557000000000002,1.3883 1.4542999999999964,1.3916 1.4447999999999936,1.4003999999999999 1.4303999999999988,1.4095999999999997 1.4248999999999938,1.4110999999999998 1.423499999999997,1.4152 1.4264999999999972,1.4243999999999999 1.4305999999999983,1.4268999999999998 1.4316999999999993,1.4329 1.4209999999999994,1.4573 1.4201999999999941,1.4722999999999997 1.415699999999994,1.4821999999999997 1.3990999999999971,1.5023 1.3977000000000004,1.5074 1.3979,1.5126 1.4007000000000005,1.5187 1.3968999999999951,1.5280999999999998 1.397599999999997,1.541 1.395399999999995,1.5514000000000001 1.4009999999999962,1.5672000000000001 1.3969999999999985,1.6033999999999997 1.4000999999999948,1.6183 1.4000999999999948,1.6263999999999998 1.395699999999998,1.6499000000000001 1.397599999999997,1.6600000000000001 1.4054000000000002,1.6675 1.401299999999999,1.6778999999999997 1.404999999999994,1.6942 1.4040999999999997,1.7008999999999999 1.410899999999998,1.7157999999999998 1.4035999999999973,1.7363999999999997 1.4058999999999955,1.7446000000000002 1.4052999999999969,1.7523999999999997 1.4138999999999982,1.7610000000000001 1.4243999999999986,1.7681 1.4261999999999944,1.7729 1.4206999999999965,1.7805 1.4214999999999947,1.7854999999999999 1.428999999999995,1.8007 1.4320999999999984,1.815 1.4288999999999987,1.8220999999999998 1.4217999999999975,1.8249 1.4191000000000003,1.8338999999999999 1.4198999999999984,1.8384999999999998 1.4302999999999955,1.8508999999999998 1.4335999999999984,1.8595000000000002 1.427899999999994,1.8860999999999999 1.4425999999999988,1.9066 1.4443999999999946,1.9143 1.4677999999999969,1.9411 1.4793999999999983,1.9415999999999998 1.4846999999999966,1.9451999999999998 1.486699999999999,1.9617 1.4857999999999976,1.9636 1.4761999999999986,1.968 1.4716999999999985,1.9748999999999999 1.4732999999999947,1.9777 1.476699999999994,1.9792999999999998 1.4853999999999985,1.9746000000000001 1.4882999999999953,1.9756 1.4894999999999996,1.9832 1.4762999999999948,2.0069 1.4774999999999991,2.0204999999999997 1.4857999999999976,2.0345 1.5002999999999957,2.0383999999999998 1.5093999999999994,2.0429 1.5105999999999966,2.0454 1.505599999999994,2.0563 1.5043000000000006,2.0639 1.5061999999999998,2.0695 1.5123999999999995,2.0787999999999998 1.516999999999996,2.0932999999999997 1.5266999999999982,2.0985 1.5305999999999997,2.1043 1.5351,2.1174 1.5548000000000002,2.1426 1.5605999999999938,2.1473999999999998 1.5625,2.1532999999999998 1.5566999999999993,2.1696 1.5640999999999963,2.1731 1.569199999999995,2.1722 1.5721999999999952,2.1747 1.580599999999997,2.1736999999999997 1.5860999999999947,2.1753 1.588799999999999,2.1795999999999998 1.580599999999997,2.1942 1.5790999999999968,2.2066 1.570699999999995,2.2251 1.570699999999995,2.2298999999999998 1.5742999999999938,2.2401 1.575099999999999,2.2504 1.5725999999999942,2.2544 1.5686999999999998,2.2546 1.559899999999999,2.2473 1.5555999999999983,2.2469 1.5501000000000005,2.2494 1.5519999999999996,2.2639 1.5540999999999983,2.2685 1.5632999999999981,2.2816 1.572099999999999,2.288 1.5747,2.2943 1.573599999999999,2.2963999999999998 1.568799999999996,2.2981 1.5611999999999995,2.2972 1.5579999999999998,2.2988 1.5579999999999998,2.3019 1.5693999999999946,2.3045999999999998 1.5762999999999963,2.3084 1.579499999999996,2.3114 1.5830999999999946,2.3205 1.5734999999999957,2.3356 1.5643999999999991,2.346 1.5568999999999988,2.3504 1.5353999999999957,2.3701 1.5219999999999985,2.3848 1.5275999999999996,2.395 1.5300999999999974,2.3954 1.5376999999999938,2.4236999999999997 1.5418999999999983,2.4267 1.5675999999999988,2.4339 1.569899999999997,2.439 1.5808999999999997,2.4396 1.5932999999999993,2.4375 1.599499999999999,2.4409 1.6081999999999965,2.4489 1.6126000000000005,2.4494 1.6200999999999937,2.4464 1.6278999999999968,2.4569 1.628699999999995,2.4687 1.632399999999997,2.4691 1.6433999999999997,2.4762 1.6511999999999958,2.4757 1.6579999999999941,2.4795 1.6639999999999944,2.4802 1.6694999999999993,2.487 1.6716999999999942,2.4949 1.6761999999999944,2.5004 1.6849999999999952,2.5056 1.6943999999999946,2.5084999999999997 1.6984999999999957,2.5143 1.7021999999999977,2.5161 1.7138999999999953,2.5174 1.7177999999999969,2.5229 1.7230999999999952,2.5261 1.7254999999999967,2.5318 1.7256,2.5364 1.719699999999996,2.5501 1.7239000000000004,2.5601 1.7224999999999966,2.5643 1.7169999999999987,2.5677 1.7154999999999987,2.5712 1.7179999999999964,2.5775 1.7165999999999997,2.5858 1.7209999999999965,2.6 1.7250999999999976,2.6035 1.7342999999999975,2.6069 1.7510999999999939,2.6098 1.7564999999999955,2.6205 1.7605999999999966,2.6210999999999998 1.7644999999999982,2.6134999999999997 1.7708999999999975,2.6128 1.7763999999999953,2.6167 1.7777999999999992,2.6247 1.7802999999999969,2.6254 1.7896,2.6209 1.7938999999999936,2.6207 1.7951999999999941,2.6242 1.7941999999999965,2.6296 1.8004999999999995,2.6376 1.8016000000000005,2.6439 1.8084999999999951,2.6451 1.8112999999999957,2.6483 1.8094999999999999,2.6574999999999998 1.8033999999999963,2.6677 1.8024999999999949,2.6753 1.7986000000000004,2.6795 1.7979999999999947,2.6839 1.8003,2.691 1.798499999999997,2.6967 1.806599999999996,2.7084 1.8094999999999999,2.7159 1.806999999999995,2.721 1.8073999999999941,2.726 1.8116999999999948,2.7260999999999997 1.8166999999999973,2.7213 1.819499999999998,2.721 1.8237999999999985,2.7305 1.833599999999997,2.7398 1.8470999999999975,2.7437 1.8441999999999936,2.7504 1.8465999999999951,2.7544 1.8508999999999958,2.7551 1.8588999999999984,2.7509 1.8630999999999958,2.7525 1.8647999999999954,2.7572 1.8711999999999946,2.7645999999999997 1.867599999999996,2.7757 1.8604999999999947,2.7872 1.8540999999999954,2.7906999999999997 1.8449999999999989,2.7925999999999997 1.8412999999999968,2.7998 1.8373999999999953,2.8007 1.822499999999998,2.79 1.818099999999994,2.7883999999999998 1.8068999999999988,2.7923999999999998 1.8056999999999945,2.7959 1.811,2.8019 1.8133999999999943,2.8087 1.8108999999999966,2.8167999999999997 1.8115999999999985,2.8225 1.8081999999999994,2.8269 1.8046000000000006,2.8274 1.7967999999999975,2.8251 1.7930999999999955,2.8316 1.7944999999999993,2.8400999999999996 1.7931999999999988,2.8433 1.7898999999999958,2.8431999999999995 1.7899999999999991,2.8417000000000003 1.7824999999999989,2.8375000000000004 1.7794999999999987,2.8394000000000004 1.7765999999999948,2.8444000000000003 1.7819000000000003,2.8520000000000003 1.7829999999999941,2.8581000000000003 1.7808999999999955,2.8629999999999995 1.7753999999999976,2.8678 1.769999999999996,2.8826 1.7665999999999968,2.8857999999999997 1.7541999999999973,2.888 1.746299999999998,2.8960999999999997 1.7383999999999986,2.8949 1.731899999999996,2.9023000000000003 1.7342999999999975,2.9093 1.7396999999999991,2.9134 1.7560999999999964,2.9368 1.758199999999995,2.944 1.7563999999999993,2.949 1.7608999999999995,2.9551 1.7608999999999995,2.9593 1.7590999999999966,2.9623 1.741899999999994,2.9736000000000002 1.7120999999999995,2.9718999999999998 1.690099999999994,2.9813 1.6813999999999965,2.9871 1.6738999999999962,2.9947999999999997 1.6610999999999976,3.016 1.6572999999999993,3.0354 1.6580999999999975,3.0605 1.660899999999998,3.0683 1.6760999999999981,3.0899 1.6717999999999975,3.0936000000000003 1.6636999999999986,3.0938999999999997 1.6599000000000004,3.1013 1.6601999999999961,3.1148999999999996 1.6688999999999936,3.1192 1.7094999999999985,3.1699 1.7055000000000007,3.1807 1.707099999999997,3.1871 1.715599999999995,3.1997999999999998 1.7129999999999939,3.2047 1.714499999999994,3.2045000000000003 1.7134999999999962,3.2062999999999997 1.7046999999999954,3.2101999999999995 1.6798999999999964,3.2099 1.674199999999999,3.2145 1.6672999999999973,3.2154999999999996 1.6638999999999982,3.2194000000000003 1.6572999999999993,3.2356 1.6515999999999948,3.2407000000000004 1.6213999999999942,3.2539 1.6058999999999983,3.2638999999999996 1.6012999999999948,3.2678000000000003 1.5985999999999976,3.2750000000000004 1.595799999999997,3.2777000000000003 1.590599999999995,3.2790999999999997 1.5814999999999984,3.2943999999999996 1.5733999999999995,3.2764999999999995 1.5693999999999946,3.2729999999999997 1.5653000000000006,3.2733 1.5610999999999962,3.279 1.5544999999999973,3.2834000000000003 1.545099999999998,3.2869 1.526999999999994,3.2901999999999996 1.5248999999999953,3.2946 1.5272000000000006,3.2977 1.532199999999996,3.2984 1.5351,3.3030999999999997 1.534399999999998,3.3057999999999996 1.5279999999999987,3.3056 1.5257000000000005,3.3072 1.5222999999999942,3.3145999999999995 1.519599999999997,3.3163 1.5160999999999945,3.3156 1.5112999999999985,3.3087 1.4998000000000005,3.3080999999999996 1.4953000000000003,3.2966999999999995 1.485599999999998,3.2920999999999996 1.4812999999999974,3.2919 1.4789999999999992,3.2961 1.4808999999999983,3.3018 1.4794999999999945,3.3051000000000004 1.4721999999999937,3.3080999999999996 1.4662999999999968,3.3248999999999995 1.4623999999999953,3.3308999999999997 1.459699999999998,3.3326000000000002 1.4561999999999955,3.3312 1.4534999999999982,3.3266 1.4451999999999998,3.3262 1.4405999999999963,3.3278 1.4394999999999953,3.3299000000000003 1.4291999999999945,3.3308999999999997 1.4242999999999952,3.3293 1.420499999999997,3.3251 1.4221000000000004,3.3177000000000003 1.4203999999999937,3.3118 1.4176000000000002,3.3098 1.4092999999999947,3.3105 1.3722999999999956,3.3247 1.361699999999999,3.3243 1.3549999999999969,3.3194999999999997 1.3478999999999957,3.3212 1.3240999999999943,3.3164999999999996 1.318099999999994,3.3183 1.318099999999994,3.3232 1.323999999999998,3.3368 1.3249999999999957,3.3468999999999998 1.3232,3.3506 1.3123999999999967,3.3495 1.3089999999999975,3.3516000000000004 1.306199999999997,3.3567 1.2956999999999965,3.3571999999999997 1.2912999999999997,3.3552 1.2905999999999977,3.3501000000000003 1.2927999999999997,3.3408999999999995 1.2909999999999968,3.3377 1.2824999999999989,3.3331 1.2760999999999996,3.3318000000000003 1.271499999999996,3.332 1.262599999999999,3.3366999999999996 1.2494999999999976,3.3406000000000002 1.2272999999999996,3.3427999999999995 1.2241,3.3457999999999997 1.2275999999999954,3.3571 1.2284000000000006,3.3941 1.2312999999999974,3.3956999999999997 1.242999999999995,3.3945 1.2498999999999967,3.3963 1.2543000000000006,3.3998999999999997 1.256699999999995,3.4165 1.2637999999999963,3.4208999999999996 1.2727000000000004,3.4212999999999996 1.2951999999999941,3.4184 1.2992999999999952,3.4215999999999998 1.3059999999999974,3.4307999999999996 1.3100999999999985,3.444 1.3108000000000004,3.4569 1.3085999999999984,3.4724000000000004 1.3133999999999943,3.4859999999999998 1.330999999999996,3.4973 1.343999999999994,3.5159000000000002 1.3515999999999977,3.5214 1.357299999999995,3.5283999999999995 1.3584999999999994,3.5330000000000004 1.3506,3.5462 1.3551999999999964,3.5542999999999996 1.3623999999999938,3.5881999999999996 1.3598999999999961,3.5997000000000003 1.355799999999995,3.6028000000000002 1.3536000000000001,3.6136 1.3558999999999983,3.6308999999999996 1.3615999999999957,3.6406 1.3751999999999995,3.6860999999999997 1.3766999999999996,3.7157999999999998 1.3902999999999963,3.7556000000000003 1.3962000000000003,3.7897 1.3947999999999965,3.7991 1.3977000000000004,3.8148 1.396099999999997,3.8224 1.4102999999999994,3.8579999999999997 1.4174999999999969,3.8918999999999997 1.4174999999999969,3.8963 1.4117999999999995,3.9044 1.3706999999999994,3.9131 1.359499999999997,3.9200999999999997 1.354299999999995,3.9238 1.349899999999998,3.9328000000000003 1.3437999999999946,3.9402 1.3367000000000004,3.9436 1.3329999999999984,3.9473000000000003 1.3305000000000007,3.9531 1.3096999999999994,3.9642999999999997 1.3014999999999972,3.9718999999999998 1.3005999999999958,3.9833999999999996 1.2948999999999984,3.9909999999999997 1.2930999999999955,4.0046 1.2879000000000005,4.0134 1.2686999999999955,4.0365 1.2637,4.0476 1.2653999999999996,4.052 1.2689999999999984,4.0556 1.2685999999999993,4.0621 1.266299999999994,4.0664 1.2650000000000006,4.0671 1.2520999999999987,4.0629 1.2260999999999953,4.0502 1.2104999999999961,4.0498 1.2042999999999964,4.053 1.1958999999999946,4.0744 1.1892999999999958,4.0853 1.183799999999998,4.0881 1.174599999999998,4.0877 1.1554999999999964,4.0808 1.104699999999994,4.0564 1.0922999999999945,4.0544 1.0834999999999937,4.0491 1.0685000000000002,4.0302999999999995 1.057699999999997,4.0222999999999995 1.0434999999999945,4.0203 1.0253999999999976,4.0217 1.0152999999999963,4.0245 0.9943999999999988,4.0344999999999995 0.9902999999999977,4.035 0.9799000000000007,4.0279 0.9557000000000002,4.0026 0.9488999999999947,4.0001 0.9418000000000006,4.0048 0.9369999999999976,4.0117 0.9275999999999982,4.0165 0.8889999999999958,4.0224 0.8703999999999965,4.022 0.8340999999999994,4.0109 0.8150999999999939,4.0126 0.7789000000000001,4.0334 0.756699999999995,4.0405999999999995 0.7251999999999938,4.0449 0.6969999999999956,4.0427 0.6790999999999983,4.0372 0.6550999999999974,4.0193 0.6505999999999972,4.0207 0.6136999999999944,4.0774 0.5584999999999951,4.1421 0.3918999999999997,4.3265 0.254099999999994,4.4862 0.14170000000000016,4.6065 0.019799999999996487,4.7456 0.0,4.7707 0.008799999999993702,4.7932 0.024799999999999045,4.7988 0.03619999999999379,4.7987 0.03989999999999583,4.8012 0.04129999999999967,4.8094 0.04299999999999926,4.8116 0.04719999999999658,4.8124 0.062199999999997146,4.8222 0.057599999999993656,4.829 0.059499999999999886,4.8379 0.0659999999999954,4.845 0.06749999999999545,4.8497 0.07439999999999714,4.8517 0.07819999999999538,4.8658 0.08079999999999643,4.8664 0.08289999999999509,4.8699 0.08109999999999928,4.872 0.08209999999999695,4.8758 0.0910999999999973,4.8768 0.09259999999999735,4.8783 0.09029999999999916,4.881 0.09049999999999869,4.8838 0.0951999999999984,4.8866 0.09679999999999467,4.891 0.10319999999999396,4.8932 0.09999999999999432,4.8966 0.10159999999999769,4.8959 0.10669999999999646,4.9003 0.10929999999999751,4.9007 0.10799999999999699,4.903 0.11479999999999535,4.9065 0.11599999999999966,4.9115 0.11489999999999867,4.9172 0.11849999999999739,4.9155 0.12049999999999983,4.9174 0.1203000000000003,4.9265 0.1214999999999975,4.9289 0.12439999999999429,4.9295 0.12489999999999668,4.9328 0.12919999999999732,4.9325 0.129099999999994,4.9341 0.13229999999999364,4.9334 0.1355000000000004,4.9356 0.14179999999999637,4.9307 0.14289999999999736,4.9314 0.1436999999999955,4.9294 0.14939999999999998,4.9295 0.14999999999999858,4.9328 0.15109999999999957,4.9315999999999995 0.15139999999999532,4.934 0.15609999999999502,4.9395 0.15609999999999502,4.9437999999999995 0.1577999999999946,4.9460999999999995 0.1605999999999952,4.9466 0.15959999999999752,4.9482 0.1611999999999938,4.9458 0.16429999999999723,4.9449 0.16559999999999775,4.947 0.16919999999999646,4.9464 0.17149999999999466,4.9397 0.17739999999999867,4.9332 0.17729999999999535,4.937 0.18319999999999936,4.9347 0.1858000000000004,4.9383 0.18379999999999797,4.9402 0.1892999999999958,4.9493 0.18829999999999814,4.9554 0.19149999999999778,4.9533 0.19439999999999458,4.9551 0.19599999999999795,4.954 0.20229999999999393,4.9552 0.19879999999999853,4.9624 0.2008999999999972,4.9632 0.20079999999999387,4.9649 0.20489999999999498,4.9661 0.2073999999999998,4.971 0.20589999999999975,4.9725 0.20659999999999457,4.9761 0.20829999999999416,4.9774 0.20759999999999934,4.982 0.20489999999999498,4.9827 0.20539999999999736,4.9849 0.20359999999999445,4.9841999999999995 0.20120000000000005,4.9889 0.20250000000000057,4.9929 0.20129999999999626,4.9937 0.20349999999999824,4.9966 0.20339999999999492,5.0014 0.2067999999999941,5.0014 0.21059999999999945,5.0099 0.21479999999999677,5.0098 0.21819999999999595,5.0042 0.22059999999999746,5.0081 0.22299999999999898,5.0071 0.2242999999999995,5.0081999999999995 0.22759999999999536,5.0051 0.23239999999999839,5.0062 0.23679999999999524,5.0043 0.24569999999999936,5.0037 0.2522999999999982,5.0004 0.2568999999999946,5.0045 0.25509999999999877,5.0085 0.256299999999996,5.0131 0.26259999999999906,5.0126 0.26549999999999585,5.0186 0.2652999999999963,5.0196 0.2603999999999971,5.0193 0.25739999999999696,5.0248 0.26259999999999906,5.0315 0.2597999999999985,5.0324 0.2593999999999994,5.0294 0.25559999999999405,5.0287999999999995 0.25509999999999877,5.0333 0.24989999999999668,5.0348 0.24669999999999703,5.04 0.24789999999999424,5.0447 0.25079999999999814,5.0461 0.25150000000000006,5.0523 0.2558999999999969,5.0554 0.2530000000000001,5.0633 0.2557999999999936,5.0766 0.25450000000000017,5.0781 0.25609999999999644,5.0816 0.2593999999999994,5.0814 0.2617999999999938,5.0847 0.26209999999999667,5.0889999999999995 0.2669999999999959,5.0894 0.2744999999999962,5.0975 0.26729999999999876,5.1019 0.2658999999999949,5.099 0.26489999999999725,5.1001 0.25849999999999795,5.098 0.2513000000000005,5.0979 0.25029999999999575,5.1023 0.24859999999999616,5.1009 0.24609999999999843,5.1028 0.24549999999999983,5.1104 0.24779999999999802,5.114 0.24559999999999604,5.1136 0.24039999999999395,5.1185 0.23199999999999932,5.1149 0.2271999999999963,5.1207 0.22699999999999676,5.125 0.22339999999999804,5.1251999999999995 0.2237999999999971,5.1305 0.22109999999999985,5.1347 0.22129999999999939,5.1376 0.2230999999999952,5.1385 0.2202999999999946,5.1434 0.2132000000000005,5.1532 0.20409999999999684,5.1566 0.2050999999999945,5.1593 0.21239999999999526,5.1597 0.20959999999999468,5.166 0.21039999999999992,5.1674999999999995 0.21279999999999433,5.1669 0.21599999999999397,5.1619 0.21649999999999636,5.1644 0.21429999999999438,5.1686 0.21919999999999362,5.1739 0.21929999999999694,5.1787 0.2237999999999971,5.1809 0.22409999999999997,5.1869 0.22939999999999827,5.1931 0.22229999999999706,5.2003 0.21989999999999554,5.2059999999999995 0.22289999999999566,5.2084 0.22529999999999717,5.2042 0.2271999999999963,5.2036999999999995 0.2277999999999949,5.2056 0.22589999999999577,5.2095 0.23039999999999594,5.212 0.22749999999999915,5.2145 0.2224999999999966,5.2119 0.22009999999999508,5.2153 0.21999999999999886,5.2185 0.221899999999998,5.2214 0.22829999999999728,5.2185 0.22759999999999536,5.2154 0.2301999999999964,5.2168 0.22919999999999874,5.2199 0.2312999999999974,5.2252 0.2295999999999978,5.2339 0.2331000000000003,5.2376 0.2294999999999945,5.2413 0.2335999999999956,5.2424 0.23799999999999955,5.2381 0.24169999999999447,5.2442 0.23849999999999483,5.2461 0.2378,5.25 0.24449999999999505,5.2558 0.23629999999999995,5.2562999999999995 0.23219999999999885,5.264 0.2342999999999975,5.268 0.23349999999999937,5.2731 0.2388999999999939,5.272 0.23969999999999914,5.2744 0.23869999999999436,5.2757 0.2336999999999989,5.275 0.23059999999999548,5.2787999999999995 0.23039999999999594,5.2802 0.23589999999999378,5.2844999999999995 0.2347999999999999,5.2911 0.23109999999999786,5.2904 0.22849999999999682,5.2842 0.2225999999999999,5.2837 0.21799999999999642,5.2884 0.21109999999999474,5.2915 0.20949999999999847,5.2974 0.20489999999999498,5.2985999999999995 0.20599999999999596,5.3027999999999995 0.2119999999999962,5.3073 0.20539999999999736,5.3075 0.20179999999999865,5.3093 0.2050999999999945,5.3163 0.21329999999999671,5.3194 0.21879999999999455,5.3281 0.21859999999999502,5.3309 0.21399999999999864,5.3334 0.21770000000000067,5.3444 0.20769999999999555,5.3485 0.20989999999999753,5.3546 0.20819999999999794,5.3565 0.20009999999999906,5.3518 0.192699999999995,5.3532 0.19479999999999364,5.3594 0.19379999999999598,5.3633 0.18599999999999994,5.3623 0.1828999999999965,5.3591999999999995 0.1850999999999985,5.3476 0.17839999999999634,5.3563 0.1757999999999953,5.3563 0.17499999999999716,5.3522 0.16809999999999548,5.3525 0.16989999999999839,5.3645 0.18139999999999645,5.3635 0.18119999999999692,5.3673 0.17749999999999488,5.3678 0.18119999999999692,5.374 0.17559999999999576,5.3798 0.16689999999999827,5.3795 0.17079999999999984,5.3852 0.1711999999999989,5.3923 0.16910000000000025,5.3945 0.16399999999999437,5.3943 0.1588999999999956,5.3963 0.16209999999999525,5.4016 0.16610000000000014,5.398 0.17069999999999652,5.4007 0.16799999999999926,5.4097 0.16929999999999978,5.4138 0.16789999999999594,5.4173 0.1746999999999943,5.4186 0.17859999999999587,5.4155999999999995 0.17859999999999587,5.4136 0.18439999999999657,5.4193 0.18359999999999843,5.4233 0.18959999999999866,5.4334 0.18799999999999528,5.4363 0.19119999999999493,5.4385 0.19089999999999918,5.4507 0.19559999999999889,5.4527 0.19959999999999667,5.4513 0.20309999999999917,5.4555 0.20989999999999753,5.4562 0.21059999999999945,5.4591 0.20809999999999462,5.4607 0.20959999999999468,5.4658 0.20289999999999964,5.4717 0.20199999999999818,5.4785 0.2078999999999951,5.4822999999999995 0.20720000000000027,5.4887 0.20939999999999515,5.4966 0.21409999999999485,5.5020999999999995 0.21779999999999688,5.5001999999999995 0.2201999999999984,5.5008 0.22399999999999665,5.5064 0.22999999999999687,5.5043 0.23259999999999792,5.5092 0.22759999999999536,5.5144 0.2272999999999996,5.5168 0.23160000000000025,5.5148 0.24089999999999634,5.5139 0.24429999999999552,5.5188 0.24080000000000013,5.5221 0.2412999999999954,5.5306999999999995 0.24369999999999692,5.5361 0.24799999999999756,5.5405999999999995 0.2547999999999959,5.547 0.2575999999999965,5.5478 0.2819999999999965,5.5397 0.28769999999999385,5.5414 0.2979999999999947,5.5283999999999995 0.30279999999999774,5.5272 0.30799999999999983,5.5292 0.31099999999999994,5.5353 0.3131999999999948,5.5493 0.3166999999999973,5.5532 0.3322999999999965,5.5441 0.33970000000000056,5.5421 0.34539999999999793,5.5428999999999995 0.35190000000000055,5.5396 0.37049999999999983,5.5413 0.3756999999999948,5.5441 0.38109999999999644,5.5504999999999995 0.38639999999999475,5.5531 0.39170000000000016,5.5523 0.4000999999999948,5.5432 0.40739999999999554,5.5404 0.42379999999999995,5.5399 0.4531999999999954,5.5447 0.4579999999999984,5.5504 0.459699999999998,5.5612 0.46229999999999905,5.5662 0.4671999999999983,5.5714 0.49029999999999774,5.5790999999999995 0.4953999999999965,5.5842 0.49380000000000024,5.5901 0.48859999999999815,5.5937 0.47049999999999415,5.6197 0.47289999999999566,5.6339 0.47809999999999775,5.641 0.48509999999999565,5.6452 0.4947999999999979,5.6427 0.5019999999999953,5.6443 0.5143999999999949,5.6392 0.5234999999999985,5.6287 0.5386999999999986,5.6194999999999995 0.5397999999999996,5.6178 0.5374999999999943,5.6071 0.5392999999999972,5.6064 0.5444999999999993,5.6058 0.5548000000000002,5.6101 0.5675999999999988,5.6205 0.5752999999999986,5.6205 0.5980999999999952,5.6063 0.6131999999999991,5.6001 0.6206999999999994,5.5938 0.6368999999999971,5.5853 0.6513999999999953,5.5816 0.6662999999999997,5.5710999999999995 0.6757999999999953,5.5723 0.693099999999994,5.5797 0.705299999999994,5.5902 0.7088999999999999,5.6002 0.7104999999999961,5.6126 0.7139999999999986,5.6204 0.7206999999999937,5.6286 0.7350999999999956,5.6411999999999995 0.7431999999999945,5.6447 0.7629999999999981,5.6591 0.7776999999999958,5.6673 0.8059999999999974,5.6699 0.8151999999999973,5.6735999999999995 0.8331999999999979,5.6762 0.8410999999999973,5.6798 0.8482999999999947,5.6905 0.8530999999999977,5.7017999999999995 0.8596000000000004,5.7034 0.8781999999999996,5.7028 0.8872,5.7054 0.8973999999999975,5.7141 0.9139999999999944,5.736 0.9183999999999983,5.737 0.921999999999997,5.7401 0.9274999999999949,5.7459999999999996 0.9299999999999997,5.7514 0.9408999999999992,5.7552 0.9433999999999969,5.7600999999999996 0.9497999999999962,5.7622 0.9553999999999974,5.7615 0.9597999999999942,5.7642 0.9662000000000006,5.764 0.9692999999999969,5.7665 0.9889999999999972,5.7708 0.9923999999999964,5.7687 1.0022999999999982,5.7566 1.012599999999999,5.7569 1.0128999999999948,5.7673 1.0165000000000006,5.7738 1.0159999999999982,5.7843 1.019599999999997,5.7871 1.0200999999999993,5.7904 1.0230999999999995,5.7941 1.0234999999999985,5.7987 1.0212999999999965,5.8058 1.0240999999999971,5.8107 1.0215999999999994,5.8135 1.0213999999999999,5.8176 1.0237999999999943,5.8187 1.0242000000000004,5.8209 1.0231999999999957,5.8255 1.0270999999999972,5.8299 1.0366999999999962,5.8359 1.0360999999999976,5.8379 1.0330999999999975,5.8392 1.0345999999999975,5.8414 1.0397999999999996,5.8429 1.0424999999999969,5.8497 1.0413999999999959,5.8547 1.0435999999999979,5.8561 1.0441000000000003,5.8588 1.0394000000000005,5.8742 1.0398999999999958,5.8809 1.0361999999999938,5.8822 1.0367999999999995,5.8901 1.0445999999999955,5.9066 1.0419999999999945,5.913 1.0334000000000003,5.9147 1.0272999999999968,5.9204 1.0326999999999984,5.9616 1.0285999999999973,5.9809 1.0216999999999956,5.9944 1.0041999999999973,6.0065 0.978199999999994,6.0046 0.9675999999999974,6.0065 0.9640999999999948,6.0088 0.9582999999999942,6.0249 0.9531999999999954,6.0275 0.9444999999999979,6.0274 0.9258999999999986,6.0212 0.9102999999999994,6.0224 0.9007000000000005,6.0172 0.8876999999999953,6.0145 0.8703000000000003,6.0024999999999995 0.8649999999999949,5.9958 0.8523999999999958,5.9637 0.8489999999999966,5.9622 0.8388999999999953,5.9639 0.8352999999999966,5.9725 0.8286999999999978,5.9816 0.818099999999994,5.9879 0.8155999999999963,5.9911 0.8135999999999939,5.9951 0.8128999999999991,6.0062 0.8106999999999971,6.0106 0.8049999999999997,6.0146 0.7941000000000003,6.0154 0.7903999999999982,6.0178 0.782199999999996,6.0317 0.7757999999999967,6.0341 0.7713999999999999,6.0438 0.768899999999995,6.0464 0.7630999999999943,6.0476 0.7582999999999984,6.0524 0.755199999999995,6.0645999999999995 0.7498999999999967,6.0756 0.7541999999999973,6.0931999999999995 0.756699999999995,6.0986 0.7600999999999942,6.1011999999999995 0.7704999999999984,6.1036 0.7725999999999971,6.1053999999999995 0.7740999999999971,6.1096 0.7728999999999999,6.1251999999999995 0.7744,6.1278 0.7924999999999969,6.1391 0.7982999999999976,6.1466 0.7928999999999959,6.173 0.7888999999999982,6.1809 0.7829999999999941,6.1862 0.7815999999999974,6.1895 0.780699999999996,6.2013 0.7781999999999982,6.208 0.7749999999999986,6.2128 0.7663999999999973,6.2168 0.7641999999999953,6.2195 0.7631999999999977,6.225 0.7650000000000006,6.228 0.7629999999999981,6.2322999999999995 0.7563999999999993,6.2357 0.7447999999999979,6.2452 0.7454999999999998,6.2531 0.7507999999999981,6.2598 0.7475999999999985,6.2706 0.7489999999999952,6.2915 0.744499999999995,6.3027 0.7430999999999983,6.3162 0.7447999999999979,6.321 0.7474999999999952,6.3202 0.748899999999999,6.3232 0.746299999999998,6.3248 0.7474999999999952,6.3297 0.7537999999999982,6.3338 0.7603999999999971,6.3459 0.7578999999999994,6.3525 0.7594999999999956,6.3567 0.7561999999999998,6.3603 0.7608999999999995,6.3678 0.7569999999999979,6.376 0.7568999999999946,6.3866 0.7587999999999937,6.3903 0.7492999999999981,6.4046 0.747799999999998,6.4108 0.7487999999999957,6.4246 0.7508999999999943,6.4277999999999995 0.7620999999999967,6.4331 0.7625999999999991,6.4375 0.7668999999999997,6.444 0.7617999999999938,6.4501 0.7622999999999962,6.4577 0.769599999999997,6.4689 0.7735999999999947,6.4700999999999995 0.7849000000000004,6.4688 0.7935999999999979,6.4601999999999995 0.7983999999999938,6.4607 0.7962999999999951,6.4689 0.7978999999999985,6.4919 0.7947999999999951,6.4981 0.7950999999999979,6.501 0.7977999999999952,6.5042 0.8040999999999983,6.5057 0.8084999999999951,6.5221 0.8181999999999974,6.5295 0.8153999999999968,6.5413 0.8093999999999966,6.5535 0.8112999999999957,6.5673 0.8205999999999989,6.5701 0.8208999999999946,6.5748999999999995 0.8239999999999981,6.5797 0.8215000000000003,6.5847 0.8221999999999952,6.5894 0.8376999999999981,6.6039 0.8393999999999977,6.6088 0.8544999999999945,6.6207 0.8551999999999964,6.6243 0.853199999999994,6.6302 0.8591999999999942,6.6406 0.8564999999999969,6.6446 0.858399999999996,6.6482 0.8673999999999964,6.6493 0.8714999999999975,6.6556999999999995 0.8796999999999997,6.6575999999999995 0.8842999999999961,6.6643 0.8919999999999959,6.6592 0.9016999999999982,6.6564 0.9147999999999996,6.6652 0.9213999999999984,6.6653 0.9302999999999955,6.6619 0.9376999999999995,6.6633 0.9418000000000006,6.6676 0.9501999999999953,6.6628 0.9540999999999968,6.6555 0.9644999999999939,6.6561 0.9675999999999974,6.6518 0.9712999999999994,6.6533 0.9827999999999975,6.6502 0.9861000000000004,6.6506 0.9916999999999945,6.655 0.9991999999999948,6.6556 1.0060000000000002,6.6585 1.0085999999999942,6.6645 1.0118999999999971,6.6665 1.0185999999999993,6.6648 1.018099999999997,6.66 1.0197999999999965,6.655 1.0244999999999962,6.6542 1.0265999999999948,6.6517 1.0400999999999954,6.658 1.0404999999999944,6.6601 1.0448999999999984,6.6639 1.0546000000000006,6.6685 1.0578999999999965,6.6771 1.0670999999999964,6.6814 1.0764999999999958,6.6972 1.087299999999999,6.6988 1.0945999999999998,6.7032 1.0947999999999993,6.7059 1.0996999999999986,6.7059999999999995 1.1019000000000005,6.7101999999999995 1.1047999999999973,6.709 1.1099999999999994,6.7118 1.1141999999999967,6.7197 1.1182999999999979,6.7233 1.1244999999999976,6.7248 1.1250999999999962,6.7299999999999995 1.1282999999999959,6.7293 1.1350999999999942,6.7421 1.1388999999999996,6.7408 1.1402,6.7383999999999995 1.1421999999999954,6.7392 1.1439999999999984,6.7421999999999995 1.1468999999999951,6.7572 1.1488999999999976,6.7592 1.1554000000000002,6.7599 1.1596999999999937,6.7623999999999995 1.159399999999998,6.7645 1.1546999999999983,6.7668 1.1539000000000001,6.7697 1.1699999999999946,6.7837 1.173499999999997,6.7852 1.1828000000000003,6.7841 1.1892999999999958,6.7858 1.195299999999996,6.792 1.1997999999999962,6.7885 1.2165999999999997,6.7992 1.2235999999999976,6.7997 1.2263999999999982,6.806 1.2393,6.8107 1.2424999999999997,6.8145 1.2487999999999957,6.8179 1.2534999999999954,6.8233 1.2571999999999974,6.834 1.2596999999999952,6.835800000000001 1.2598999999999947,6.838900000000001 1.264799999999994,6.844899999999999 1.265899999999995,6.8551 1.2723999999999975,6.8542000000000005 1.2840999999999951,6.856 1.289199999999994,6.8580000000000005 1.2916999999999987,6.862299999999999 1.2992999999999952,6.862299999999999 1.3037999999999954,6.8573 1.3101999999999947,6.8589 1.3219999999999956,6.8506 1.3290999999999968,6.850099999999999 1.3378999999999976,6.8529 1.3459000000000003,6.862500000000001 1.3510999999999953,6.8603000000000005 1.355799999999995,6.8607 1.3635999999999981,6.871700000000001 1.3768999999999991,6.881499999999999 1.3806999999999974,6.886100000000001 1.3817999999999984,6.8911999999999995 1.3806999999999974,6.8979 1.3879999999999981,6.9031 1.3887999999999963,6.914999999999999 1.3874999999999957,6.923299999999999 1.3936999999999955,6.946300000000001 1.4070999999999998,6.959999999999999 1.4050999999999974,6.9666999999999994 1.3941999999999979,6.9787 1.3935999999999993,6.9834 1.4043999999999954,6.9948 1.4105999999999952,7.013999999999999 1.437899999999999,7.0207 1.4409999999999954,7.0230999999999995 1.4428999999999945,7.0336 1.4403999999999968,7.046099999999999 1.5538999999999987,7.0639 1.5593000000000004,7.071400000000001 1.5599999999999952,7.076499999999999 1.570699999999995,7.084999999999999 1.5725999999999942,7.0914 1.5796999999999954,7.0952 1.5784999999999982,7.1043 1.5727999999999938,7.110899999999999 1.5679999999999978,7.1213 1.5655999999999963,7.135299999999999 1.387599999999999,7.353999999999999 1.399799999999999,7.353299999999999 1.4072999999999993,7.345599999999999 1.4125999999999976,7.3428 1.4131,7.3408 1.4228999999999985,7.3355999999999995 1.431999999999995,7.3283000000000005 1.4343000000000004,7.3247 1.4469999999999956,7.3156 1.4625999999999948,7.295299999999999 1.4664999999999964,7.293100000000001 1.4717999999999947,7.283899999999999 1.4769999999999968,7.2795000000000005 1.4819999999999993,7.27 1.4850999999999956,7.2675 1.4889999999999972,7.255800000000001 1.4953999999999965,7.247 1.5008999999999943,7.233599999999999 1.5097999999999985,7.2186 1.5133999999999972,7.2158 1.518099999999997,7.2082999999999995 1.5233999999999952,7.205 1.5230999999999995,7.2019 1.5283999999999978,7.198600000000001 1.531799999999997,7.193300000000001 1.5394999999999968,7.1897 1.5400999999999954,7.1875 1.5442999999999998,7.1844 1.5478999999999985,7.1828 1.5497999999999976,7.184200000000001 1.5525999999999982,7.182499999999999 1.5575999999999937,7.183299999999999 1.5603999999999942,7.182 1.565099999999994,7.184200000000001 1.5664999999999978,7.181699999999999 1.5708999999999946,7.182 1.5736999999999952,7.179399999999999 1.6047999999999973,7.1655999999999995 1.6058999999999983,7.1675 1.6036999999999964,7.1731 1.6051000000000002,7.1747 1.6103999999999985,7.1767 1.6211999999999946,7.1747 1.6239999999999952,7.1789000000000005 1.6167999999999978,7.1853 1.577299999999994,7.2094000000000005 1.5730999999999966,7.213100000000001 1.5733999999999995,7.219200000000001 1.5875999999999948,7.2247 1.6098,7.226699999999999 1.6236999999999995,7.2256 1.646499999999996,7.2178 1.6814999999999998,7.1997 1.6969999999999956,7.188599999999999 1.7114999999999938,7.1822 1.782599999999995,7.1342 1.8406999999999982,7.1036 1.859499999999997,7.096399999999999 1.8979,7.074999999999999 1.9069999999999965,7.0725 1.9183999999999983,7.063599999999999 1.931199999999997,7.0578 1.9519999999999982,7.0433 1.9761999999999986,7.0303 1.984499999999997,7.0236 2.033699999999996,6.9969 2.0608999999999966,6.9778 2.0933999999999955,6.9619 2.128999999999998,6.936400000000001 2.1644999999999968,6.918900000000001 2.202599999999997,6.8911 2.2308999999999983,6.8767 2.2586999999999975,6.8561 2.283999999999999,6.8339 2.293699999999994,6.8225 2.2989999999999995,6.8189 2.3003999999999962,6.817 2.2994999999999948,6.8139 2.3022999999999954,6.8147 2.316499999999998,6.7992 2.311799999999998,6.8008 2.3097999999999956,6.8042 2.3075999999999937,6.8025 2.305899999999994,6.8056 2.3022999999999954,6.8064 2.2997999999999976,6.8036 2.3022999999999954,6.8033 2.3031000000000006,6.7985999999999995 2.3078999999999965,6.7975 2.315899999999999,6.7889 2.3215000000000003,6.7881 2.321799999999996,6.7905999999999995 2.3230999999999966,6.7905999999999995 2.324299999999994,6.7875 2.3286999999999978,6.7842 2.3278999999999996,6.7833 2.3311999999999955,6.78 2.3314999999999984,6.7772 2.3344999999999985,6.7764 2.3367999999999967,6.7711 2.337299999999999,6.7725 2.3392999999999944,6.7717 2.3414999999999964,6.7656 2.3447999999999993,6.7656 2.3481999999999985,6.7608 2.356199999999994,6.7556 2.3569999999999993,6.7528 2.3633999999999986,6.7481 2.3647999999999954,6.7444 2.368399999999994,6.7439 2.373199999999997,6.7356 2.373199999999997,6.7328 2.377899999999997,6.7297 2.377299999999998,6.7272 2.3793000000000006,6.7280999999999995 2.380899999999997,6.7267 2.3800999999999988,6.7233 2.3847999999999985,6.7211 2.3855999999999966,6.7161 2.388399999999997,6.7164 2.390899999999995,6.7142 2.3922999999999988,6.7106 2.4037000000000006,6.6997 2.4054,6.6942 2.407599999999995,6.6933 2.4055999999999997,6.6906 2.408999999999999,6.6911 2.4136999999999986,6.6883 2.4054,6.6989 2.4217999999999975,6.6814 2.4298,6.6697 2.431199999999997,6.6653 2.4453999999999994,6.6495 2.4495000000000005,6.6417 2.456799999999994,6.6361 2.4628999999999976,6.6342 2.4742999999999995,6.6192 2.483399999999996,6.6144 2.4880999999999958,6.6089 2.4942999999999955,6.6061 2.4953999999999965,6.6017 2.5015,6.5981 2.5043000000000006,6.5925 2.5105999999999966,6.5872 2.512599999999999,6.5822 2.5178999999999974,6.5764 2.5304,6.5692 2.541499999999999,6.5664 2.546999999999997,6.56 2.5531000000000006,6.5578 2.5586999999999946,6.5522 2.5681999999999974,6.5358 2.5675999999999988,6.5344 2.571799999999996,6.53 2.5725999999999942,6.5245 2.5792999999999964,6.5097 2.5878999999999976,6.5017 2.5897999999999968,6.4956 2.5925999999999974,6.4953 2.5925999999999974,6.4925 2.5900999999999996,6.4897 2.597299999999997,6.4867 2.596199999999996,6.4844 2.6008999999999958,6.4797 2.6014999999999944,6.4728 2.6051,6.4714 2.6044999999999945,6.4697 2.607299999999995,6.4672 2.6069999999999993,6.4656 2.619799999999998,6.45 2.6311999999999998,6.4458 2.635399999999997,6.4458 2.636199999999995,6.4445 2.6385000000000005,6.4447 2.6385000000000005,6.4473 2.6436999999999955,6.4486 2.6531999999999982,6.4467 2.6581999999999937,6.4481 2.6617999999999995,6.4460999999999995 2.6614999999999966,6.4431 2.6659000000000006,6.4437 2.675699999999999,6.4356 2.680399999999999,6.4373 2.6843000000000004,6.4342 2.687599999999996,6.4338999999999995 2.688199999999995,6.4328 2.683099999999996,6.4331 2.6861999999999995,6.4317 2.6905999999999963,6.4338999999999995 2.6972999999999985,6.4267 2.7069999999999936,6.4225 2.701499999999996,6.4264 2.701999999999998,6.4289 2.709799999999994,6.4242 2.7164999999999964,6.4139 2.708199999999998,6.4216999999999995 2.708999999999996,6.4192 2.7186999999999983,6.4097 2.718999999999994,6.4052999999999995 2.723699999999994,6.4011 2.7242999999999995,6.3956 2.731499999999997,6.3864 2.7342999999999975,6.3856 2.734499999999997,6.3806 2.738199999999999,6.3742 2.744499999999995,6.3678 2.749299999999998,6.3583 2.7607,6.3467 2.761199999999995,6.3436 2.7689999999999984,6.3358 2.7694999999999936,6.3323 2.7729,6.3323 2.7764999999999986,6.3261 2.785899999999998,6.3175 2.784499999999994,6.3142 2.7879000000000005,6.3095 2.795099999999998,6.3025 2.7986999999999966,6.3022 2.7978999999999985,6.2989 2.801499999999997,6.2984 2.8018,6.2953 2.805899999999994,6.2953 2.805399999999999,6.2917 2.8093000000000004,6.2897 2.813199999999995,6.285 2.812899999999999,6.2831 2.8197999999999936,6.275 2.8281999999999954,6.2606 2.8412000000000006,6.2444999999999995 2.843199999999996,6.2442 2.8436999999999983,6.2389 2.8489999999999966,6.2341999999999995 2.8522999999999996,6.2272 2.8544999999999945,6.2258 2.854299999999995,6.2231 2.8569999999999993,6.2186 2.8689999999999998,6.2072 2.874299999999998,6.2075 2.8739999999999952,6.2053 2.8780999999999963,6.2033 2.8840000000000003,6.1928 2.896799999999999,6.1783 2.9033999999999978,6.1655999999999995 2.9069999999999965,6.1525 2.906799999999997,6.147 2.908699999999996,6.1456 2.908999999999999,6.1353 2.9106999999999985,6.1331 2.9114999999999966,6.1067 2.909799999999997,6.0939 2.9106999999999985,6.0897 2.9101,6.0866999999999996 2.9072999999999993,6.0842 2.906499999999994,6.0697 2.901999999999994,6.0489 2.9028999999999954,6.0405999999999995 2.900599999999997,6.0361 2.9014999999999986,6.0308 2.898399999999995,6.0272 2.898399999999995,6.0131 2.9025999999999996,5.9958 2.9106999999999985,5.9806 2.9136999999999986,5.9631 2.912299999999995,5.9608 2.9114999999999966,5.9369 2.908999999999999,5.9231 2.909799999999997,5.9106 2.9069999999999965,5.8795 2.901199999999996,5.8392 2.899099999999997,5.8366 2.8947999999999965,5.8189 2.886499999999998,5.8025 2.874299999999998,5.7936 2.8636999999999944,5.7886 2.8508999999999958,5.7786 2.8378999999999976,5.7622 2.8325999999999993,5.7524999999999995 2.8208999999999946,5.7192 2.813699999999997,5.7053 2.810699999999997,5.6889 2.8044999999999973,5.6703 2.8033999999999963,5.6586 2.796999999999997,5.6447 2.793699999999994,5.6278 2.7842999999999947,5.6114 2.7894999999999968,5.5745 2.7856999999999985,5.5322 2.7804,5.5208 2.7808999999999955,5.5136 2.7764999999999986,5.4928 2.773399999999995,5.487 2.774499999999996,5.4831 2.7719999999999985,5.4664 2.7653999999999996,5.4467 2.7667999999999964,5.4425 2.7667999999999964,5.4397 2.765099999999997,5.4395 2.765899999999995,5.4325 2.769299999999994,5.4245 2.771799999999999,5.4042 2.7764999999999986,5.3975 2.773399999999995,5.395 2.773699999999998,5.39 2.7697999999999965,5.3883 2.766999999999996,5.3831 2.7678999999999974,5.3625 2.770699999999998,5.3533 2.774499999999996,5.3492 2.7811999999999983,5.337 2.772599999999997,5.3225 2.7708999999999975,5.2928 2.7675999999999945,5.2905999999999995 2.7656999999999954,5.2795 2.7567999999999984,5.2689 2.753699999999995,5.2585999999999995 2.7515999999999963,5.2572 2.749299999999998,5.2503 2.7419999999999973,5.2431 2.7393,5.2358 2.7350999999999956,5.2328 2.730699999999999,5.2219999999999995 2.7226,5.2225 2.713099999999997,5.2208 2.7053999999999974,5.2158 2.6980999999999966,5.2147 2.6894999999999953,5.2172 2.6806999999999945,5.2142 2.6584000000000003,5.2181 2.654299999999999,5.2167 2.654299999999999,5.2144 2.6561999999999983,5.2147 2.6544999999999987,5.2133 2.654599999999995,5.2086 2.6581999999999937,5.2108 2.6659000000000006,5.2086 2.676499999999997,5.2103 2.6814999999999998,5.2081 2.6883999999999943,5.2103 2.692299999999996,5.2092 2.6936999999999998,5.2064 2.6936999999999998,5.2025 2.6873000000000005,5.1857999999999995 2.6839999999999975,5.1844 2.6814999999999998,5.1764 2.673399999999994,5.168 2.6814999999999998,5.1628 2.688199999999995,5.1764 2.692299999999996,5.1789 2.700399999999995,5.192 2.707899999999995,5.1972 2.711199999999998,5.2033 2.7175999999999974,5.21 2.7264999999999944,5.2128 2.7331000000000003,5.2128 2.7367999999999952,5.2164 2.745599999999996,5.2183 2.751799999999996,5.2233 2.752599999999994,5.2303 2.7556999999999974,5.2345 2.7642999999999986,5.2339 2.7700999999999993,5.2303 2.7665000000000006,5.2177999999999995 2.770399999999995,5.2106 2.7719999999999985,5.1922 2.7778999999999954,5.1803 2.7775999999999996,5.1764 2.772599999999997,5.1745 2.7719999999999985,5.1686 2.7742999999999967,5.1672 2.7767999999999944,5.1608 2.7881,5.1503 2.7883999999999958,5.1447 2.793199999999999,5.137 2.8111999999999995,5.1365 2.808099999999996,5.1408 2.802899999999994,5.1436 2.8003999999999962,5.1489 2.800699999999999,5.1539 2.8022999999999954,5.1556 2.803699999999999,5.1611 2.8003999999999962,5.1631 2.7997999999999976,5.1728 2.7989999999999995,5.1753 2.795899999999996,5.1772 2.794799999999995,5.1892 2.7919999999999945,5.197 2.7933999999999983,5.2021999999999995 2.792899999999996,5.2111 2.798399999999994,5.2280999999999995 2.7922999999999973,5.2561 2.803699999999999,5.2867 2.800699999999999,5.3081 2.805399999999999,5.3139 2.8064999999999998,5.3164 2.805399999999999,5.3210999999999995 2.8086999999999946,5.3236 2.8111999999999995,5.3311 2.8108999999999966,5.3427999999999995 2.8089999999999975,5.3511 2.8044999999999973,5.3597 2.802899999999994,5.3722 2.808099999999996,5.3825 2.8064999999999998,5.3922 2.8093000000000004,5.3958 2.8133999999999943,5.4078 2.8133999999999943,5.4486 2.816199999999995,5.4656 2.8278999999999996,5.5053 2.8408999999999978,5.5236 2.8506,5.5319 2.866499999999995,5.5628 2.8714999999999975,5.5689 2.8780999999999963,5.5731 2.8847999999999985,5.6 2.896499999999996,5.6203 2.9044999999999987,5.6303 2.9114999999999966,5.6361 2.921199999999999,5.6503 2.9306999999999945,5.6589 2.940899999999999,5.6645 2.962599999999995,5.6867 2.9672999999999945,5.6889 2.974799999999995,5.6886 2.9880999999999958,5.6917 3.003999999999998,5.6969 3.0186999999999955,5.6972 3.0197999999999965,5.6997 3.0283999999999978,5.7008 3.0304,5.7036 3.0356999999999985,5.7058 3.0397999999999996,5.705 3.0419999999999945,5.7064 3.053999999999995,5.7072 3.0611999999999995,5.7053 3.0767999999999986,5.7056 3.084799999999994,5.7021999999999995 3.0855999999999995,5.7006 3.0884,5.7011 3.1000999999999976,5.6960999999999995 3.1051,5.6978 3.123199999999997,5.6875 3.127899999999997,5.6864 3.1415000000000006,5.677 3.149499999999996,5.6742 3.154299999999999,5.6692 3.1639999999999944,5.665 3.1936999999999998,5.6408 3.205599999999997,5.6358 3.208199999999998,5.637 3.2183999999999955,5.6364 3.2194999999999965,5.6461 3.221999999999994,5.6514 3.223699999999994,5.6491999999999996 3.2308999999999983,5.6475 3.2653999999999996,5.65 3.2853999999999957,5.6458 3.295899999999996,5.6467 3.3181999999999974,5.6417 3.3344999999999985,5.6353 3.3406999999999982,5.6292 3.3400999999999996,5.6281 3.3517999999999972,5.6253 3.358399999999996,5.6255999999999995 3.3658999999999963,5.6219 3.3800999999999988,5.6110999999999995 3.386799999999994,5.6033 3.4058999999999955,5.5894 3.411999999999999,5.58 3.4206000000000003,5.5767 3.4353999999999942,5.5664 3.460899999999995,5.5397 3.4650999999999996,5.53 3.4672999999999945,5.5317 3.4709000000000003,5.5311 3.4897999999999954,5.5186 3.505899999999997,5.5024999999999995 3.5175999999999945,5.4933 3.5212000000000003,5.4881 3.5272999999999968,5.4853 3.553999999999995,5.4606 3.5668000000000006,5.4521999999999995 3.5767999999999986,5.4417 3.577599999999997,5.4380999999999995 3.583999999999996,5.4303 3.587299999999999,5.4235999999999995 3.5867999999999967,5.4178 3.588099999999997,5.4155999999999995 3.5903999999999954,5.4178 3.5967999999999947,5.4167 3.604299999999995,5.4111 3.609499999999997,5.4094 3.6119999999999948,5.405 3.625699999999995,5.392 3.6458999999999975,5.3683 3.6650999999999954,5.3578 3.6683999999999983,5.3539 3.6845,5.3436 3.7047999999999988,5.3228 3.7047999999999988,5.3210999999999995 3.723399999999998,5.3003 3.7308999999999983,5.2958 3.7380999999999958,5.2881 3.747,5.2836 3.7597999999999985,5.2722 3.7675999999999945,5.2575 3.7712000000000003,5.2524999999999995 3.7778999999999954,5.2482999999999995 3.779299999999999,5.2428 3.7881,5.2331 3.7892999999999972,5.2289 3.796199999999999,5.2214 3.8100999999999985,5.2003 3.812899999999999,5.1953 3.823699999999995,5.1506 3.8408999999999978,5.1253 3.8492999999999995,5.1175 3.8517999999999972,5.1122 3.8614999999999995,5.1094 3.8673,5.1097 3.869499999999995,5.1242 3.868699999999997,5.1489 3.873199999999997,5.1533 3.8748000000000005,5.1575 3.880899999999997,5.1597 3.8840000000000003,5.1628 3.897599999999997,5.1664 3.8980999999999995,5.165 3.906799999999997,5.1658 3.928699999999999,5.1572 3.9350999999999985,5.1561 3.9383999999999943,5.1533 3.9447999999999936,5.1525 3.9458999999999946,5.1511 3.9495000000000005,5.152 3.9564999999999984,5.1491999999999996 3.9594999999999985,5.1472 3.9605999999999995,5.1433 3.961999999999996,5.1439 3.9706999999999937,5.1386 3.9756,5.1375 3.9818,5.1322 3.9872999999999976,5.1311 3.9919999999999973,5.1261 3.9939999999999998,5.1264 4.001799999999996,5.1217 4.005699999999997,5.1171999999999995 4.011799999999994,5.1136 4.011799999999994,5.112 4.019499999999994,5.1091999999999995 4.038699999999999,5.0944 4.045099999999998,5.0922 4.0689999999999955,5.0744 4.073699999999995,5.0728 4.103199999999994,5.0489 4.103699999999996,5.047 4.105699999999999,5.0475 4.110099999999996,5.045 4.127899999999997,5.0253 4.131799999999998,5.0233 4.152299999999997,5.0033 4.157599999999995,5.0008 4.159299999999995,4.9967 4.162299999999995,4.995 4.181999999999995,4.9731 4.186499999999995,4.9633 4.192,4.9592 4.202299999999994,4.9417 4.209799999999994,4.9333 4.216499999999996,4.9189 4.222299999999997,4.8995 4.221499999999999,4.8931 4.223699999999994,4.8883 4.2231999999999985,4.8792 4.226499999999994,4.8717 4.229299999999995,4.8469999999999995 4.240399999999994,4.8181 4.228499999999997,4.7776 4.225999999999999,4.7585 4.230199999999996,4.7213 4.225999999999999,4.6934 4.223299999999995,4.6866 4.241099999999996,4.6792 4.236399999999996,4.6666 4.2209999999999965,4.6373 4.217799999999997,4.6174 4.2087,4.6274 4.203199999999995,4.5952 4.198,4.5798 4.1965,4.5546999999999995 4.198499999999996,4.5416 4.205199999999998,4.525 4.2119,4.5149 4.214999999999996,4.4984 4.209299999999999,4.4700999999999995 4.209799999999994,4.4593 4.2061999999999955,4.4367 4.191099999999999,4.4031 4.177399999999999,4.3778 4.1617999999999995,4.3541 4.143499999999996,4.3368 4.123599999999996,4.3149 4.113099999999996,4.2992 4.107599999999998,4.2802999999999995 4.109399999999994,4.2353 4.106199999999994,4.2196 4.094099999999997,4.2033 4.074099999999994,4.1895999999999995 4.073699999999995,4.1876999999999995 4.064799999999998,4.1813 4.056099999999994,4.1719 4.0430999999999955,4.1502 4.0383,4.1362 4.0394000000000005,4.1265 4.042400000000001,4.1208 4.052299999999995,4.1151 4.062599999999996,4.1137 4.081699999999998,4.122 4.088299999999997,4.1232 4.089299999999994,4.1154 4.0824,4.0868 4.082499999999996,4.0654 4.085299999999997,4.0542 4.091699999999996,4.0441 4.102499999999999,4.0363 4.114699999999999,4.0324 4.1362999999999985,4.0327 4.141799999999996,4.0357 4.1458999999999975,4.0412 4.1479,4.0504 4.145599999999995,4.0603 4.139399999999995,4.0706 4.139399999999995,4.0757 4.140699999999995,4.0805 4.146499999999996,4.0792 4.1554,4.072 4.162399999999998,4.0553 4.175699999999999,4.0302 4.1858,4.018 4.195499999999996,3.9992 4.1950999999999965,3.9930000000000003 4.1905,3.9875 4.1738,3.9785000000000004 4.168699999999994,3.9789000000000003 4.163499999999999,3.9828 4.157199999999996,3.9957000000000003 4.148199999999996,4.0076 4.1372,4.0152 4.1229999999999976,4.0186 4.1103999999999985,4.0156 4.0959,4.0089 4.0855999999999995,4.0003 4.080399999999997,3.9923 4.0779,3.9852 4.076599999999999,3.9635 4.074299999999994,3.9527 4.0533,3.9128999999999996 4.046899999999994,3.8941999999999997 4.047199999999997,3.8848000000000003 4.051299999999998,3.8762999999999996 4.057499999999997,3.8728 4.081599999999995,3.8658 4.084599999999995,3.8632 4.082799999999999,3.8579 4.0737999999999985,3.862 4.057099999999998,3.8648 4.046099999999996,3.8621999999999996 4.031699999999994,3.8502 4.008299999999998,3.8487999999999998 3.996399999999994,3.8450999999999995 3.971199999999996,3.8286999999999995 3.9484999999999957,3.8257000000000003 3.9214999999999947,3.8308999999999997 3.9046999999999983,3.8312999999999997 3.8474999999999966,3.8511999999999995 3.8362999999999943,3.8507 3.806999999999995,3.835 3.7867999999999995,3.8305 3.7730999999999995,3.83 3.742999999999995,3.8433 3.7328999999999937,3.8453999999999997 3.7060999999999993,3.8441 3.696399999999997,3.8411 3.6853999999999942,3.8346999999999998 3.6616,3.8189 3.6355999999999966,3.7984 3.629399999999997,3.7882999999999996 3.6248999999999967,3.7602 3.620599999999996,3.7565 3.6111999999999966,3.7539 3.601299999999995,3.7548000000000004 3.5686999999999998,3.7683 3.5603999999999942,3.7671 3.5475999999999956,3.7602 3.513299999999994,3.7279 3.496399999999994,3.7064000000000004 3.479999999999997,3.6790000000000003 3.463099999999997,3.6658 3.458299999999994,3.6562 3.455199999999998,3.6262 3.4584999999999937,3.6041999999999996 3.4677000000000007,3.5925000000000002 3.494799999999998,3.5877 3.503699999999995,3.5838 3.5094999999999956,3.5700000000000003 3.5127999999999986,3.5369 3.533999999999999,3.4995000000000003 3.531799999999997,3.4797000000000002 3.533699999999996,3.4692999999999996 3.5389999999999944,3.4618 3.5411,3.4542 3.536699999999996,3.4444999999999997 3.503399999999999,3.3911999999999995 3.494099999999996,3.362 3.4927999999999955,3.3488999999999995 3.477799999999995,3.3110999999999997 3.462299999999999,3.2846 3.4358000000000004,3.2548000000000004 3.418999999999997,3.2207 3.4142999999999972,3.1984000000000004 3.4214999999999947,3.1643999999999997 3.419399999999996,3.1574999999999998 3.386899999999997,3.1495999999999995 3.386899999999997,3.1041 3.3850999999999942,3.0918 3.3758999999999943,3.0868 3.3504000000000005,3.0522 3.3404999999999987,3.0361000000000002 3.309899999999999,2.9844999999999997 3.3003,2.9645 3.3004999999999995,2.9543999999999997 3.306199999999997,2.9417 3.3151999999999973,2.9296999999999995 3.3296999999999954,2.8979999999999997 3.3341999999999956,2.8548999999999998 3.3326999999999956,2.8339999999999996 3.333599999999997,2.8246 3.3314999999999984,2.8174 3.336199999999998,2.8052 3.3570999999999955,2.7763 3.3736999999999995,2.758 3.386899999999997,2.7518 3.386899999999997,2.7168 3.4366999999999948,2.7125 3.4447999999999936,2.7140999999999997 3.458299999999994,2.7128 3.4671999999999983,2.7039 3.496699999999997,2.6526 3.529599999999995,2.6007 3.535899999999998,2.5717 3.5396999999999963,2.5183999999999997 3.5438999999999936,2.4998 3.548499999999997,2.4884999999999997 3.5586999999999946,2.4752 3.5696999999999974,2.4667 3.5775000000000006,2.4635 3.6088999999999984,2.4433 3.6111999999999966,2.444 3.6159999999999997,2.4413 3.633199999999995,2.4365 3.6459999999999937,2.4273 3.6509,2.42 3.6607999999999947,2.3956 3.6736999999999966,2.3809 3.6839999999999975,2.3727 3.702599999999997,2.3504 3.712699999999998,2.3297 3.7117999999999967,2.3203 3.707499999999996,2.3078 3.696099999999994,2.2915 3.6899999999999977,2.2779 3.686399999999999,2.2493 3.687599999999996,2.2376 3.694499999999998,2.2254 3.713799999999999,2.205 3.731199999999994,2.191 3.7363,2.1906 3.752299999999998,2.1968 3.765099999999997,2.2054 3.776299999999999,2.2086 3.796199999999999,2.2089 3.8105999999999938,2.202 3.826499999999996,2.1862 3.832899999999995,2.1773 3.838799999999999,2.1759 3.8614999999999995,2.1812 3.8788999999999945,2.1792 3.886199999999995,2.1744 3.893799999999999,2.1611 3.8999999999999986,2.1569 3.9088999999999956,2.1567 3.926099999999998,2.1625 3.9399999999999977,2.1642 3.9617000000000004,2.1762 3.9742999999999995,2.1801 3.9912999999999954,2.1797 4.047499999999999,2.1828 4.061999999999998,2.1872 4.071299999999994,2.1978 4.0785999999999945,2.2001999999999997 4.081799999999994,2.1967 4.086499999999994,2.182 4.092399999999998,2.1719 4.096799999999995,2.1528 4.096199999999996,2.1372 4.093499999999999,2.1277 4.085299999999997,2.1153 4.084799999999994,2.1054 4.090399999999995,2.0863 4.096299999999999,2.0815 4.097699999999996,2.0783 4.0933999999999955,2.0688 4.095499999999994,2.058 4.094099999999997,2.047 4.083299999999994,2.0028 4.083999999999996,1.9906000000000001 4.091799999999999,1.9857999999999998 4.0989,1.9846 4.1023,1.9811999999999999 4.091099999999997,1.9687000000000001 4.089499999999994,1.9636999999999998 4.0922999999999945,1.9524 4.102899999999998,1.9425 4.112499999999997,1.94 4.119799999999998,1.943 4.129599999999996,1.9516 4.135099999999994,1.9518 4.135099999999994,1.9465 4.1248000000000005,1.9360999999999997 4.120999999999995,1.9285 4.121699999999997,1.9205 4.125099999999996,1.9137999999999997 4.145499999999998,1.9022999999999999 4.154899999999998,1.9017 4.1693,1.896 4.173199999999994,1.8916 4.1753,1.8716 4.1817999999999955,1.8588999999999998 4.178599999999996,1.8533999999999997 4.1606999999999985,1.8548 4.152499999999996,1.8506 4.149999999999999,1.846 4.155799999999999,1.8361 4.1708,1.8251999999999997 4.162699999999994,1.815 4.158999999999999,1.8051 4.162299999999995,1.7885 4.160899999999998,1.7738 4.162299999999995,1.7677999999999998 4.1680999999999955,1.7610999999999999 4.175799999999995,1.7593 4.181599999999996,1.7616 4.196399999999997,1.7734 4.202299999999994,1.7729 4.205599999999997,1.7685999999999997 4.201499999999996,1.7582 4.196899999999999,1.7529 4.183199999999999,1.7443999999999997 4.168799999999997,1.7418 4.162199999999999,1.7380999999999998 4.161299999999997,1.7351 4.161099999999998,1.7252 4.165699999999994,1.7134999999999998 4.1791999999999945,1.6917 4.182699999999997,1.6802000000000001 4.179299999999998,1.665 4.182499999999997,1.6572 4.189099999999996,1.6526 4.206099999999999,1.6515 4.208599999999997,1.6475999999999997 4.203399999999995,1.6406999999999998 4.204699999999995,1.6326 4.214999999999996,1.6305999999999998 4.220499999999994,1.6305999999999998 4.2361,1.6349999999999998 4.255899999999997,1.6446999999999998 4.262999999999998,1.6438000000000001 4.250999999999998,1.629 4.243699999999997,1.6130999999999998 4.244599999999998,1.6012 4.249199999999995,1.5936 4.2553999999999945,1.5901999999999998 4.2652,1.5901999999999998 4.277099999999997,1.5937000000000001 4.283299999999997,1.5911 4.2823999999999955,1.5848999999999998 4.278499999999994,1.5758999999999999 4.278999999999996,1.5680999999999998 4.2830999999999975,1.5589 4.304899999999996,1.5339 4.319399999999995,1.5097999999999998 4.322899999999997,1.4832999999999998 4.326999999999998,1.4674999999999998 4.332099999999997,1.4609999999999999 4.341899999999995,1.4592 4.3474,1.4647000000000001 4.353999999999999,1.4672999999999998 4.356999999999999,1.4670999999999998 4.3603999999999985,1.4634 4.353199999999994,1.4385 4.354099999999995,1.4327999999999999 4.3577999999999975,1.4253999999999998 4.358699999999999,1.4091 4.362399999999994,1.4026999999999998 4.373399999999997,1.3912 4.382099999999994,1.3872 4.390899999999995,1.3771 4.392099999999999,1.3683 4.390799999999999,1.3519 4.392099999999999,1.3266999999999998 4.401399999999995,1.3226999999999998 4.412699999999994,1.3209 4.417299999999997,1.3235000000000001 4.4339999999999975,1.3182 4.437099999999994,1.3184999999999998 4.441499999999998,1.3262999999999998 4.444599999999994,1.3245 4.441899999999997,1.3100999999999998 4.428699999999999,1.3035999999999999 4.429399999999994,1.2946999999999997 4.441800000000001,1.2761 4.444299999999998,1.2612999999999999 4.448699999999995,1.2561 4.455999999999996,1.2515 4.456499999999998,1.2473 4.450099999999999,1.2416 4.448,1.2351 4.447599999999994,1.2294 4.452399999999997,1.2128 4.460699999999996,1.205 4.4893,1.1936 4.500699999999995,1.1846 4.505799999999994,1.1784 4.507099999999994,1.1715 4.502800000000001,1.1501000000000001 4.502199999999995,1.1360999999999999 4.503099999999996,1.1240999999999999 4.5053999999999945,1.1191 4.513399999999997,1.1107999999999998 4.520499999999998,1.1061999999999999 4.5330999999999975,1.1006999999999998 4.561299999999996,1.0939 4.566699999999997,1.089 4.57,1.072 4.565899999999999,1.0444 4.567299999999996,1.0278999999999998 4.5737999999999985,1.0141 4.584299999999999,1.0028000000000001 4.6004000000000005,0.9651000000000001 4.6081,0.9550000000000001 4.636499999999998,0.9253999999999998 4.679899999999996,0.8571999999999997 4.6976999999999975,0.8414999999999999 4.704799999999999,0.8405999999999998 4.731999999999999,0.8378999999999999 4.799799999999998,0.8437999999999999 4.831399999999995,0.8329999999999997 4.835499999999996,0.8300000000000001 4.843499999999999,0.819 4.859099999999998,0.8047 4.866899999999994,0.8002 4.883299999999998,0.7994999999999999 4.894999999999996,0.7937999999999998 4.903199999999998,0.7786 4.906599999999997,0.7646999999999999 4.874699999999997,0.7467999999999999 4.8658,0.7433999999999998 4.8247,0.7347999999999999 4.809399999999997,0.7339 "></polygon><polygon points="4.245899999999999,4.7764 4.246199999999995,4.7756 4.246199999999995,4.7733 4.245899999999999,4.7733 4.245899999999999,4.7764 "></polygon><polygon points="2.860899999999994,5.5567 2.8506,5.5347 2.8425999999999974,5.5281 2.8489999999999966,5.5439 2.856499999999997,5.5553 2.8617999999999952,5.5597 2.860899999999994,5.5567 "></polygon><polygon points="2.802599999999998,5.1613999999999995 2.8019999999999996,5.1569 2.7992999999999952,5.155 2.7986999999999966,5.1606 2.8001000000000005,5.1625 2.802599999999998,5.1613999999999995 "></polygon><polygon points="2.7897999999999996,5.1814 2.794799999999995,5.1772 2.795099999999998,5.172 2.7978999999999985,5.1664 2.7964999999999947,5.1583 2.794799999999995,5.1583 2.791799999999995,5.1708 2.7894999999999968,5.172 2.7892999999999972,5.1786 2.787299999999995,5.1825 2.7897999999999996,5.1814 "></polygon><polygon points="2.7909000000000006,5.1972 2.7943,5.1886 2.7933999999999983,5.1838999999999995 2.786999999999999,5.1928 2.786199999999994,5.1986 2.7909000000000006,5.1972 "></polygon><polygon points="2.7911999999999964,5.2236 2.790399999999998,5.2172 2.7892999999999972,5.2172 2.7883999999999958,5.2222 2.7900999999999954,5.2258 2.7919999999999945,5.2256 2.7911999999999964,5.2236 "></polygon><polygon points="2.773399999999995,5.2589 2.7719999999999985,5.2517 2.7712000000000003,5.2517 2.771799999999999,5.2603 2.773999999999994,5.2619 2.773399999999995,5.2589 "></polygon><polygon points="2.771799999999999,5.3717 2.772599999999997,5.3703 2.7729,5.3595 2.7700999999999993,5.3639 2.770699999999998,5.3736 2.771799999999999,5.3717 "></polygon><polygon points="2.773999999999994,5.3808 2.773999999999994,5.3713999999999995 2.7731999999999957,5.3697 2.7708999999999975,5.3767 2.771799999999999,5.3817 2.773399999999995,5.3825 2.773999999999994,5.3808 "></polygon><polygon points="2.7886999999999986,5.4195 2.7883999999999958,5.4174999999999995 2.7864999999999966,5.4192 2.7881,5.4272 2.7886999999999986,5.4195 "></polygon><polygon points="2.8044999999999973,5.3825 2.8019999999999996,5.3797 2.8008999999999986,5.3803 2.8031000000000006,5.3864 2.8044999999999973,5.3825 "></polygon><polygon points="2.7992999999999952,5.4658 2.8018,5.4569 2.8011999999999944,5.4542 2.7981999999999942,5.4528 2.796199999999999,5.4567 2.795099999999998,5.4689 2.8011999999999944,5.4808 2.7981999999999942,5.4725 2.7992999999999952,5.4658 "></polygon><polygon points="2.8067999999999955,5.4853 2.8086999999999946,5.4783 2.8078999999999965,5.4714 2.805099999999996,5.4622 2.8022999999999954,5.4603 2.7986999999999966,5.4719999999999995 2.8022999999999954,5.4789 2.802899999999994,5.4872 2.8048,5.4906 2.8067999999999955,5.4853 "></polygon><polygon points="2.808099999999996,5.4931 2.8078999999999965,5.4906 2.8064999999999998,5.4908 2.8075999999999937,5.4963999999999995 2.808099999999996,5.4931 "></polygon><polygon points="2.678699999999999,5.17 2.6768,5.1678 2.6753999999999962,5.1681 2.679299999999998,5.1725 2.678699999999999,5.17 "></polygon><polygon points="2.7753999999999976,5.1722 2.774799999999999,5.1697 2.774499999999996,5.1697 2.7731999999999957,5.1733 2.7753999999999976,5.1745 2.7753999999999976,5.1722 "></polygon><polygon points="2.705599999999997,5.1981 2.7036999999999978,5.1956 2.697899999999997,5.192 2.699299999999994,5.1958 2.7064999999999984,5.2 2.705599999999997,5.1981 "></polygon><polygon points="2.7922999999999973,5.2017 2.791499999999999,5.1978 2.786999999999999,5.1992 2.791799999999995,5.2075 2.792899999999996,5.2067 2.7922999999999973,5.2017 "></polygon><polygon points="2.7667999999999964,5.2589 2.7667999999999964,5.2508 2.760399999999997,5.2481 2.7594999999999956,5.2511 2.7661999999999978,5.2628 2.7667999999999964,5.2589 "></polygon><polygon points="2.7919999999999945,5.5233 2.791499999999999,5.5245 2.7926,5.5264 2.792899999999996,5.525 2.7919999999999945,5.5233 "></polygon><polygon points="2.795099999999998,5.5322 2.7944999999999993,5.5286 2.793199999999999,5.5286 2.792899999999996,5.5386 2.7943,5.5411 2.7956000000000003,5.54 2.795099999999998,5.5322 "></polygon><polygon points="2.8281999999999954,5.5245 2.8319999999999936,5.5422 2.848699999999994,5.5611 2.8456999999999937,5.5525 2.8397999999999968,5.5439 2.8392999999999944,5.5381 2.8314999999999984,5.5241999999999996 2.8281999999999954,5.5245 "></polygon><polygon points="2.8048,5.5522 2.805099999999996,5.5478 2.8003999999999962,5.5389 2.8003999999999962,5.5481 2.803999999999995,5.5545 2.8048,5.5522 "></polygon><polygon points="2.811799999999998,5.5597 2.812599999999996,5.55 2.8095,5.5417 2.8064999999999998,5.5386 2.806199999999997,5.5481 2.8100999999999985,5.5639 2.811799999999998,5.5597 "></polygon><polygon points="2.7956000000000003,5.5581 2.7953999999999937,5.5567 2.793999999999997,5.5569999999999995 2.7943,5.5630999999999995 2.7973,5.5653 2.7956000000000003,5.5581 "></polygon><polygon points="2.7978999999999985,5.57 2.796999999999997,5.5664 2.7943,5.5647 2.793999999999997,5.5689 2.796999999999997,5.5736 2.798399999999994,5.5728 2.7978999999999985,5.57 "></polygon><polygon points="2.805099999999996,5.5808 2.806199999999997,5.57 2.8001000000000005,5.5644 2.802599999999998,5.5822 2.805099999999996,5.5808 "></polygon><polygon points="2.8765,5.5803 2.876199999999997,5.5753 2.8581000000000003,5.5603 2.859499999999997,5.5664 2.866499999999995,5.575 2.8748000000000005,5.582 2.8765,5.5803 "></polygon><polygon points="2.8817999999999984,5.6145 2.8806999999999974,5.6075 2.876799999999996,5.6017 2.867599999999996,5.5922 2.8592999999999975,5.5778 2.8322999999999965,5.5447 2.8425999999999974,5.5708 2.845099999999995,5.5736 2.849799999999995,5.5747 2.849799999999995,5.5767 2.867899999999999,5.6025 2.8728999999999942,5.615 2.875099999999996,5.6169 2.880899999999997,5.6169 2.8817999999999984,5.6145 "></polygon><polygon points="2.8736999999999995,5.5864 2.8714999999999975,5.5822 2.8681999999999945,5.5808 2.8689999999999998,5.5866999999999996 2.8725999999999985,5.5886 2.8736999999999995,5.5864 "></polygon><polygon points="2.8514999999999944,5.5961 2.8481999999999985,5.5878 2.8422999999999945,5.5797 2.839499999999994,5.5786 2.846499999999999,5.6 2.8517999999999972,5.6006 2.8514999999999944,5.5961 "></polygon><polygon points="2.7943,5.6139 2.7981999999999942,5.5953 2.7981999999999942,5.5883 2.7956000000000003,5.5761 2.793199999999999,5.5745 2.7867999999999995,5.6083 2.7911999999999964,5.6152999999999995 2.792899999999996,5.6158 2.7943,5.6139 "></polygon><polygon points="2.8123000000000005,5.6231 2.815099999999994,5.6030999999999995 2.8133999999999943,5.5825 2.8119999999999976,5.5767 2.8103999999999942,5.5756 2.805399999999999,5.5883 2.804299999999998,5.6008 2.805899999999994,5.6122 2.810699999999997,5.6261 2.8123000000000005,5.6231 "></polygon><polygon points="2.8031000000000006,5.6232999999999995 2.8019999999999996,5.6175 2.7989999999999995,5.6171999999999995 2.7989999999999995,5.6272 2.803999999999995,5.6367 2.8031000000000006,5.6232999999999995 "></polygon><polygon points="2.8551,5.5992 2.853999999999999,5.5986 2.8536999999999964,5.6028 2.857299999999995,5.6033 2.8551,5.5992 "></polygon><polygon points="2.9017999999999944,5.7139 2.9061999999999983,5.7086 2.9072999999999993,5.6992 2.898999999999994,5.6914 2.8936999999999955,5.6817 2.884299999999996,5.6722 2.881999999999998,5.6597 2.876199999999997,5.6497 2.8718000000000004,5.6453 2.872,5.6433 2.863199999999999,5.6322 2.8558999999999983,5.6186 2.8400999999999996,5.6033 2.8354,5.5908 2.8314999999999984,5.5731 2.8203999999999994,5.5439 2.8175999999999988,5.5381 2.8155999999999963,5.5375 2.8186999999999998,5.55 2.818399999999997,5.5667 2.8222999999999985,5.5864 2.8211999999999975,5.612 2.823699999999995,5.6181 2.836499999999994,5.6367 2.8406999999999982,5.6472 2.8436999999999983,5.6606 2.8430999999999997,5.6775 2.845399999999998,5.6856 2.860899999999994,5.705 2.8703999999999965,5.7092 2.8847999999999985,5.7106 2.8950999999999993,5.7145 2.9017999999999944,5.7139 "></polygon><polygon points="2.8828999999999994,5.7639 2.8780999999999963,5.7497 2.874299999999998,5.7433 2.8476,5.7156 2.844299999999997,5.707 2.8303999999999974,5.6897 2.823999999999998,5.6739 2.8200999999999965,5.6692 2.816199999999995,5.6672 2.8175999999999988,5.6742 2.8245000000000005,5.6889 2.839499999999994,5.7331 2.866499999999995,5.7614 2.8817999999999984,5.7661 2.8833999999999946,5.7656 2.8828999999999994,5.7639 "></polygon><polygon points="2.951999999999998,5.7233 2.9447999999999936,5.7153 2.937899999999999,5.7114 2.9364999999999952,5.7086 2.9251000000000005,5.7044 2.9169999999999945,5.6956 2.9125999999999976,5.6936 2.918199999999999,5.7172 2.9255999999999958,5.74 2.9373000000000005,5.745 2.951499999999996,5.7542 2.969299999999997,5.7708 2.979299999999995,5.7822 2.9794999999999945,5.7847 2.9894999999999996,5.7872 2.9968000000000004,5.7869 3.0064999999999955,5.7825 3.014799999999994,5.7808 3.018099999999997,5.7778 3.025099999999995,5.7781 3.0275999999999996,5.7756 3.040699999999994,5.7697 3.040399999999998,5.7658 3.037299999999995,5.7656 3.0319999999999965,5.7619 3.0275999999999996,5.7625 3.022599999999997,5.7595 3.0108999999999995,5.7458 3.002299999999998,5.7425 2.997,5.7421999999999995 2.9880999999999958,5.737 2.9742999999999995,5.7347 2.968999999999994,5.7303 2.956799999999994,5.7264 2.951999999999998,5.7233 "></polygon><polygon points="2.874299999999998,5.7683 2.8711999999999946,5.7656 2.865099999999998,5.7639 2.869799999999998,5.77 2.8739999999999952,5.7703 2.874299999999998,5.7683 "></polygon><polygon points="2.870899999999999,5.7786 2.8703999999999965,5.7761 2.8603999999999985,5.7689 2.863199999999999,5.7789 2.870899999999999,5.7786 "></polygon><polygon points="2.899799999999999,5.7578 2.909799999999997,5.775 2.910899999999998,5.7794 2.930399999999999,5.8069 2.9345,5.817 2.9364999999999952,5.83 2.941499999999998,5.8417 2.945699999999995,5.8467 2.9483999999999995,5.8469 2.9536999999999978,5.8442 2.971499999999999,5.8278 2.974799999999995,5.8269 2.9756,5.8242 2.9861999999999966,5.8153 2.9867999999999952,5.8117 2.9848,5.8088999999999995 2.9642999999999944,5.7975 2.9461999999999975,5.7731 2.9203999999999937,5.7524999999999995 2.891999999999996,5.7214 2.8833999999999946,5.7164 2.875699999999995,5.7145 2.868399999999994,5.7147 2.868699999999997,5.7186 2.8840000000000003,5.7353 2.899799999999999,5.7578 "></polygon><polygon points="2.838699999999996,5.667 2.838699999999996,5.6603 2.832899999999995,5.6394 2.8181999999999974,5.6206 2.816199999999995,5.6281 2.8208999999999946,5.6433 2.8319999999999936,5.6667 2.836499999999994,5.6706 2.8384,5.67 2.838699999999996,5.667 "></polygon><polygon points="2.831299999999999,5.6792 2.812899999999999,5.6422 2.8095,5.6381 2.8089999999999975,5.6439 2.8133999999999943,5.6578 2.8256999999999977,5.6728 2.828399999999995,5.6806 2.8308999999999997,5.6817 2.831299999999999,5.6792 "></polygon><polygon points="2.860899999999994,5.7761 2.857599999999998,5.7672 2.8467999999999947,5.7564 2.834799999999994,5.7392 2.8319999999999936,5.7378 2.8325999999999993,5.742 2.8406999999999982,5.7595 2.8476,5.7697 2.8544999999999945,5.7767 2.8600999999999956,5.7775 2.860899999999994,5.7761 "></polygon><polygon points="2.918999999999997,5.915 2.9253999999999962,5.897 2.921199999999999,5.8828 2.9214999999999947,5.8683 2.9161999999999964,5.8481 2.9103999999999957,5.8381 2.9061999999999983,5.8364 2.9054,5.8392 2.911999999999999,5.872 2.9139999999999944,5.8978 2.9176,5.9172 2.918999999999997,5.915 "></polygon><polygon points="2.786199999999994,5.5225 2.785899999999998,5.5111 2.7789999999999964,5.5011 2.781799999999997,5.5125 2.781499999999994,5.5203 2.784799999999997,5.527 2.786199999999994,5.5225 "></polygon><polygon points="2.6953999999999994,6.4322 2.700099999999999,6.4306 2.698999999999998,6.4292 2.7006999999999977,6.4292 2.7006999999999977,6.4269 2.692,6.4333 2.6953999999999994,6.4322 "></polygon><polygon points="2.6522999999999968,6.4514 2.6528999999999954,6.4497 2.6479,6.4517 2.6503999999999976,6.4521999999999995 2.6522999999999968,6.4514 "></polygon>
    </svg>
    