
    <svg width="1.290700000000001" height="0.2926000000000002" xmlns="http://www.w3.org/2000/svg" xmlns:xlink="http://www.w3.org/1999/xlink" style="transform: scale(1, -1)">
        <polygon points="0.7801999999999936,0.11469999999999914 0.7775000000000034,0.11560000000000059 0.7827999999999946,0.11610000000000298 0.7830000000000013,0.11560000000000059 0.7801999999999936,0.11469999999999914 "></polygon><polygon points="0.7284999999999968,0.21889999999999787 0.7379999999999995,0.22030000000000172 0.7412999999999954,0.21750000000000114 0.7402000000000015,0.215600000000002 0.7496000000000009,0.21359999999999957 0.7523999999999944,0.21110000000000184 0.752600000000001,0.20779999999999887 0.7579999999999956,0.2038999999999973 0.7635000000000076,0.19469999999999743 0.7757000000000005,0.188600000000001 0.7840999999999951,0.17889999999999873 0.7835000000000036,0.17719999999999914 0.7852000000000032,0.1753 0.7985000000000042,0.1706000000000003 0.7980000000000018,0.16810000000000258 0.8034999999999997,0.166400000000003 0.8101999999999947,0.16859999999999786 0.8118000000000052,0.17079999999999984 0.8106999999999971,0.17390000000000327 0.8057000000000016,0.17439999999999856 0.8041000000000054,0.176400000000001 0.8046000000000078,0.17940000000000111 0.8113000000000028,0.1880999999999986 0.8195999999999941,0.1933000000000007 0.8230000000000075,0.1933000000000007 0.8271000000000015,0.19579999999999842 0.8293000000000035,0.1903999999999968 0.8352000000000004,0.186399999999999 0.8329999999999984,0.18500000000000227 0.8341000000000065,0.17940000000000111 0.8234000000000066,0.17450000000000188 0.8221999999999952,0.1722999999999999 0.8333999999999975,0.16720000000000113 0.8520000000000039,0.1647000000000034 0.8764000000000038,0.16559999999999775 0.9055000000000035,0.1717000000000013 0.9124000000000052,0.1753 0.9085000000000036,0.17830000000000013 0.9085000000000036,0.17999999999999972 0.9150999999999954,0.1833999999999989 0.9252000000000038,0.1816999999999993 0.9240999999999957,0.17830000000000013 0.9279999999999973,0.176400000000001 0.9429999999999978,0.17730000000000246 0.9540999999999968,0.18130000000000024 0.9668999999999954,0.17430000000000234 0.9808000000000021,0.17419999999999902 0.9896999999999991,0.1758999999999986 0.992999999999995,0.17320000000000135 1.0,0.17099999999999937 1.0015999999999963,0.16870000000000118 1.0180000000000007,0.16329999999999956 1.0230999999999995,0.15859999999999985 1.038499999999999,0.15809999999999746 1.0463000000000022,0.15469999999999828 1.0446000000000026,0.15390000000000015 1.0367999999999995,0.15610000000000213 1.029600000000002,0.14939999999999998 1.0274,0.14529999999999887 1.0277999999999992,0.14280000000000115 1.0344999999999942,0.13700000000000045 1.0404000000000053,0.13560000000000372 1.0456999999999965,0.13889999999999958 1.0635000000000048,0.14500000000000313 1.0630000000000024,0.14809999999999945 1.0674000000000063,0.14690000000000225 1.069599999999994,0.14059999999999917 1.0756999999999977,0.1343999999999994 1.0777999999999963,0.13009999999999877 1.0918000000000063,0.1191999999999993 1.0952000000000055,0.1086000000000027 1.1041000000000025,0.10309999999999775 1.121300000000005,0.0975000000000037 1.1034999999999968,0.09140000000000015 1.109099999999998,0.08610000000000184 1.1162999999999954,0.08310000000000173 1.119100000000003,0.084699999999998 1.117999999999995,0.08559999999999945 1.1195000000000022,0.08689999999999998 1.132099999999994,0.08930000000000149 1.1312000000000069,0.09120000000000061 1.132400000000004,0.09140000000000015 1.1462999999999965,0.08559999999999945 1.156800000000004,0.0788999999999973 1.1664999999999992,0.07580000000000098 1.194599999999994,0.07469999999999999 1.227400000000003,0.07750000000000057 1.2857000000000056,0.08809999999999718 1.290700000000001,0.08659999999999712 1.2746999999999957,0.0823999999999998 1.240700000000004,0.0788999999999973 1.224100000000007,0.07500000000000284 1.2013000000000034,0.0741999999999976 1.1902000000000044,0.07280000000000086 1.1885000000000048,0.07139999999999702 1.1791000000000054,0.07249999999999801 1.1644000000000005,0.0701000000000036 1.1614000000000004,0.06770000000000209 1.1494,0.06439999999999912 1.1375000000000028,0.05649999999999977 1.124600000000001,0.05570000000000164 1.1047999999999973,0.050600000000002865 1.1012000000000057,0.04919999999999902 1.0978000000000065,0.04469999999999885 1.0838999999999999,0.04760000000000275 1.0768000000000058,0.052199999999999136 1.0645999999999987,0.05640000000000356 1.060699999999997,0.04579999999999984 1.0645999999999987,0.043300000000002115 1.0635000000000048,0.03920000000000101 1.0652000000000044,0.03750000000000142 1.065100000000001,0.033299999999997 1.0591000000000008,0.03280000000000172 1.055800000000005,0.03020000000000067 1.0548000000000002,0.027200000000000557 1.0442000000000036,0.025399999999997647 1.042100000000005,0.021999999999998465 1.018500000000003,0.007500000000000284 0.9891999999999967,0.00269999999999726 0.9598000000000013,0.008200000000002206 0.9407999999999959,0.009000000000000341 0.9320000000000022,0.006399999999999295 0.9291000000000054,0.002200000000001978 0.9253000000000071,0.00039999999999906777 0.9129999999999967,0.0 0.9030000000000058,0.005299999999998306 0.8841000000000037,0.010800000000003251 0.8743999999999943,0.02109999999999701 0.852800000000002,0.02909999999999968 0.8445999999999998,0.03529999999999944 0.8357000000000028,0.04809999999999803 0.8242999999999938,0.0549000000000035 0.8230000000000075,0.05940000000000367 0.8185000000000002,0.06419999999999959 0.8191000000000059,0.06969999999999743 0.8179999999999978,0.07030000000000314 0.8191000000000059,0.07139999999999702 0.8179999999999978,0.07750000000000057 0.814700000000002,0.07930000000000348 0.8157000000000068,0.08140000000000214 0.814700000000002,0.0887999999999991 0.8108000000000004,0.09839999999999804 0.8113000000000028,0.10580000000000211 0.8063999999999965,0.1092000000000013 0.8038999999999987,0.11410000000000053 0.7980000000000018,0.11749999999999972 0.7845999999999975,0.11639999999999873 0.780699999999996,0.11890000000000356 0.7827000000000055,0.12109999999999843 0.791799999999995,0.12360000000000326 0.7951999999999941,0.126100000000001 0.7990999999999957,0.1302999999999983 0.8006000000000029,0.1366000000000014 0.7994000000000057,0.14220000000000255 0.8008999999999986,0.14439999999999742 0.7990000000000066,0.14569999999999794 0.7981000000000051,0.1495999999999995 0.7926999999999964,0.15270000000000294 0.7862999999999971,0.14970000000000283 0.7830000000000013,0.15080000000000382 0.7823999999999955,0.15330000000000155 0.7875999999999976,0.15529999999999688 0.7884999999999991,0.15809999999999746 0.7845999999999975,0.1600000000000037 0.7801999999999936,0.15919999999999845 0.7767999999999944,0.16140000000000043 0.7784000000000049,0.1634999999999991 0.7830000000000013,0.16499999999999915 0.7888999999999982,0.16429999999999723 0.7899000000000029,0.1677000000000035 0.7867999999999995,0.17139999999999844 0.7796000000000021,0.1734999999999971 0.7570999999999941,0.17329999999999757 0.7373999999999938,0.1769000000000034 0.7216999999999985,0.17379999999999995 0.7128000000000014,0.17009999999999792 0.7116000000000042,0.17309999999999803 0.6974000000000018,0.17889999999999873 0.6800000000000068,0.18059999999999832 0.6773000000000025,0.1833999999999989 0.6751000000000005,0.1899000000000015 0.6706000000000074,0.1921000000000035 0.6721000000000004,0.1938999999999993 0.6723999999999961,0.2010000000000005 0.667900000000003,0.20539999999999736 0.6687000000000012,0.20819999999999794 0.6748999999999938,0.21289999999999765 0.6813999999999965,0.21540000000000248 0.6856999999999971,0.2150000000000034 0.6877999999999957,0.21770000000000067 0.6929999999999978,0.21640000000000015 0.6945999999999941,0.21719999999999828 0.6941000000000059,0.21889999999999787 0.6980000000000075,0.22059999999999746 0.7134999999999962,0.22330000000000183 0.7195999999999998,0.2272000000000034 0.718599999999995,0.23179999999999978 0.7231000000000023,0.2336000000000027 0.7274000000000029,0.22999999999999687 0.7245999999999952,0.22359999999999758 0.725200000000001,0.22109999999999985 0.7284999999999968,0.21889999999999787 "></polygon><polygon points="0.014300000000005753,0.15979999999999706 0.02200000000000557,0.15809999999999746 0.026799999999994384,0.15529999999999688 0.025199999999998113,0.15169999999999817 0.026300000000006207,0.15030000000000143 0.024399999999999977,0.14920000000000044 0.02590000000000714,0.1465999999999994 0.024600000000006617,0.14419999999999789 0.021200000000007435,0.14330000000000354 0.010699999999999932,0.14529999999999887 0.002200000000001978,0.1495000000000033 0.0,0.15319999999999823 0.0018000000000029104,0.1595000000000013 0.014300000000005753,0.15979999999999706 "></polygon><polygon points="0.9859000000000009,0.2914999999999992 0.9839999999999947,0.2922000000000011 0.9835999999999956,0.2926000000000002 0.9877000000000038,0.29110000000000014 0.9859000000000009,0.2914999999999992 "></polygon><polygon points="1.0551999999999992,0.1518999999999977 1.0534999999999997,0.1525000000000034 1.0507000000000062,0.154200000000003 1.0546000000000078,0.15529999999999688 1.0563000000000073,0.15330000000000155 1.0551999999999992,0.1518999999999977 "></polygon><polygon points="1.0060000000000002,0.26559999999999917 1.0023999999999944,0.26670000000000016 1.0015000000000072,0.2685999999999993 1.0075000000000074,0.26830000000000354 1.0079000000000065,0.2652000000000001 1.0060000000000002,0.26559999999999917 "></polygon><polygon points="0.9953000000000003,0.2727000000000004 0.9993999999999943,0.2764000000000024 1.0,0.28130000000000166 1.0032999999999959,0.28000000000000114 1.0035000000000025,0.2745999999999995 0.9975000000000023,0.2721000000000018 0.9953000000000003,0.2727000000000004 "></polygon>
    </svg>
    