
    <svg width="9.771800000000006" height="8.319400000000002" xmlns="http://www.w3.org/2000/svg" xmlns:xlink="http://www.w3.org/1999/xlink" style="transform: scale(1, -1)">
        <polygon points="8.968700000000005,1.0142000000000024 8.934600000000003,1.0253000000000014 8.918700000000001,1.0258000000000003 8.554300000000005,1.023100000000003 8.412600000000005,0.9770000000000003 8.373200000000004,0.9567000000000014 8.345100000000002,0.932500000000001 8.332100000000004,0.9161000000000001 8.3168,0.8878000000000021 8.299900000000001,0.8536000000000001 8.251000000000005,0.7356000000000016 8.184600000000003,0.5875000000000021 8.143500000000003,0.5131000000000014 8.133200000000002,0.5008000000000017 8.121300000000005,0.4914000000000023 8.062100000000001,0.4172000000000011 8.031000000000006,0.375 7.893599999999999,0.1717000000000013 7.860600000000005,0.13230000000000075 7.849700000000006,0.12560000000000215 7.8282000000000025,0.107800000000001 7.818800000000003,0.11000000000000298 7.745800000000003,0.039400000000000546 7.726100000000002,0.03280000000000172 7.716700000000003,0.02740000000000009 7.7021000000000015,0.02300000000000324 7.681100000000001,0.012600000000002609 7.627700000000004,0.0 7.482800000000005,0.012800000000002143 7.475900000000003,0.011700000000001154 7.423500000000004,0.01910000000000167 7.1899000000000015,0.039800000000003166 7.0227,0.049500000000001876 6.895800000000001,0.06370000000000076 6.721700000000006,0.07620000000000005 6.577500000000001,0.08340000000000103 6.3260000000000005,0.1051000000000002 6.255900000000004,0.1097999999999999 6.239900000000006,0.11129999999999995 6.232300000000002,0.11370000000000147 6.1815,0.11610000000000298 6.108800000000002,0.12370000000000303 6.0367999999999995,0.12840000000000273 6.000600000000006,0.12860000000000227 5.9739,0.13100000000000023 5.9665000000000035,0.1332000000000022 5.930100000000003,0.13310000000000244 5.918400000000005,0.13740000000000308 5.909700000000001,0.1463000000000001 5.880800000000001,0.166400000000003 5.737400000000001,0.27580000000000027 5.7166,0.29590000000000316 5.4497,0.4944000000000024 5.0549000000000035,0.7856000000000023 4.657299999999999,1.0760000000000005 3.964500000000001,1.574900000000003 3.288800000000002,2.0531000000000006 2.643900000000002,2.314600000000002 2.1181000000000054,2.610800000000001 1.616500000000002,2.8895000000000017 1.0001999999999995,2.995899999999999 0.41560000000000485,3.0938000000000017 0.5053000000000054,3.162700000000001 0.5041000000000011,3.1784999999999997 0.4923000000000002,3.212200000000003 0.46690000000000254,3.2458000000000027 0.4446000000000012,3.2617000000000047 0.4265000000000043,3.2672999999999988 0.40210000000000434,3.2695000000000007 0.3072000000000017,3.2617000000000047 0.28470000000000084,3.2622 0.2598000000000056,3.268900000000002 0.24269999999999925,3.281800000000004 0.22870000000000346,3.3030000000000044 0.2185000000000059,3.329100000000004 0.21300000000000097,3.354600000000005 0.2126000000000019,3.3755999999999986 0.21950000000000358,3.401200000000003 0.2554000000000016,3.454100000000004 0.26089999999999947,3.4851000000000028 0.25670000000000215,3.5234000000000023 0.24110000000000298,3.5823000000000036 0.19700000000000273,3.716700000000003 0.03200000000000358,4.199600000000004 0.02120000000000033,4.247100000000003 0.0,4.309600000000003 0.6752000000000038,4.6417 1.2353000000000023,4.909400000000005 1.806900000000006,5.178200000000004 2.215600000000002,5.3613 2.220400000000005,5.380900000000004 2.2224000000000004,5.384100000000004 2.2302999999999997,5.388100000000001 2.2362000000000037,5.393500000000003 2.3427000000000007,5.605499999999999 2.4376999999999995,5.718600000000002 2.4410000000000025,5.726399999999998 2.4328000000000003,5.801500000000004 2.4329000000000036,5.879200000000004 2.4213000000000022,6.073599999999999 2.4284999999999997,6.145600000000002 2.4365000000000023,6.189399999999999 2.445600000000006,6.2269000000000005 2.478100000000005,6.326300000000003 2.4858000000000047,6.427500000000002 2.5975000000000037,6.5717 2.584300000000006,6.776699999999998 2.461200000000005,6.996000000000002 2.470100000000002,7.0334 2.4950000000000045,7.204999999999998 2.497700000000002,7.297600000000003 2.6071000000000026,7.453900000000004 2.616900000000001,7.4619 2.6262000000000043,7.466100000000004 2.9100000000000037,7.508900000000004 3.031500000000001,7.534600000000005 3.068100000000001,7.560200000000002 3.0849000000000046,7.564799999999998 3.107200000000006,7.587600000000002 3.1417,7.611699999999999 3.1940000000000026,7.6644000000000005 3.2376000000000005,7.705200000000005 3.2956000000000003,7.7557000000000045 3.338000000000001,7.799100000000003 3.380100000000006,7.831800000000001 3.4524000000000044,7.899100000000004 3.5879000000000048,8.008600000000001 3.5882000000000005,8.015500000000003 3.584300000000006,8.023400000000002 3.5768000000000058,8.028199999999998 3.569200000000002,8.030500000000004 3.565400000000004,8.0364 3.566900000000004,8.050699999999999 3.578400000000002,8.059200000000004 3.587600000000002,8.058900000000001 3.5991,8.0535 3.6068,8.0535 3.615000000000002,8.057700000000004 3.6300000000000026,8.061100000000003 3.6380000000000052,8.0657 3.6539,8.069400000000002 3.6636000000000024,8.074800000000003 3.675200000000004,8.0779 3.687100000000001,8.077600000000004 3.697099999999999,8.075200000000002 3.7154000000000025,8.075400000000002 3.7299000000000007,8.086400000000005 3.7394999999999996,8.090200000000003 3.7676000000000016,8.089600000000004 3.7837999999999994,8.086800000000004 3.794800000000002,8.088700000000003 3.799199999999999,8.111600000000003 3.805400000000006,8.120600000000003 3.819100000000006,8.131900000000002 3.8248000000000033,8.138600000000004 3.8270000000000053,8.1494 3.830200000000005,8.1554 3.8452000000000055,8.163899999999998 3.855700000000006,8.173000000000002 3.8613,8.182500000000005 3.8678000000000026,8.203400000000002 3.877600000000001,8.211600000000004 3.8888000000000034,8.2119 3.896500000000003,8.222000000000001 3.9039,8.226800000000004 3.906400000000005,8.232199999999999 3.9021000000000043,8.243900000000004 3.9025000000000034,8.2468 3.9078000000000017,8.249000000000002 3.9299999999999997,8.251000000000005 3.9402000000000044,8.254800000000003 3.9465000000000003,8.2594 3.9491000000000014,8.265799999999999 3.9465000000000003,8.272800000000004 3.9340000000000046,8.286500000000004 3.9375,8.289300000000004 3.977400000000003,8.297800000000002 3.9879000000000033,8.304400000000001 3.9968000000000004,8.315800000000003 4.002300000000005,8.3189 4.006500000000003,8.319400000000002 4.034500000000001,8.313000000000002 4.037800000000004,8.309600000000003 4.045300000000005,8.292700000000004 4.053000000000004,8.2883 4.076300000000003,8.287300000000002 4.085300000000004,8.2804 4.089700000000001,8.279000000000003 4.124600000000001,8.2725 4.163499999999999,8.259300000000003 4.176900000000003,8.2579 4.180700000000002,8.2588 4.190600000000003,8.265500000000003 4.223200000000006,8.2744 4.2303,8.280000000000001 4.237900000000003,8.2941 4.2413000000000025,8.2969 4.2712,8.299599999999998 4.2949000000000055,8.305300000000003 4.311800000000005,8.306600000000003 4.332100000000004,8.313200000000002 4.3444,8.311399999999999 4.370600000000003,8.315400000000004 4.3736999999999995,8.3138 4.382100000000001,8.300600000000003 4.385100000000001,8.298700000000004 4.411300000000004,8.296500000000002 4.4321000000000055,8.286100000000005 4.437200000000004,8.285000000000004 4.456700000000005,8.285400000000003 4.466700000000003,8.277000000000001 4.482900000000001,8.268100000000004 4.491800000000005,8.258000000000003 4.515000000000001,8.2534 4.528700000000001,8.245000000000005 4.531100000000002,8.2453 4.535200000000003,8.257100000000001 4.537800000000004,8.260100000000001 4.549400000000006,8.267900000000004 4.563300000000005,8.271700000000003 4.5732,8.270000000000003 4.5869,8.261299999999999 4.597000000000001,8.250100000000003 4.7241,8.202200000000005 4.759100000000004,8.194200000000002 4.780000000000001,8.1995 4.7901000000000025,8.194700000000005 4.795700000000004,8.185700000000004 4.830200000000005,8.177800000000005 4.869800000000005,8.1723 4.900200000000005,8.172000000000004 4.908300000000004,8.176300000000005 4.912600000000005,8.1768 4.9199000000000055,8.171800000000005 4.934000000000005,8.1755 4.939800000000005,8.1755 4.950500000000005,8.171500000000002 4.957800000000006,8.171399999999998 4.968600000000002,8.174300000000002 5.004400000000004,8.171 5.049600000000005,8.1706 5.099400000000003,8.176000000000002 5.134800000000006,8.186799999999998 5.154500000000006,8.196800000000003 5.170200000000001,8.216700000000003 5.1738,8.228100000000005 5.181800000000003,8.233800000000002 5.207599999999999,8.241 5.211100000000002,8.243200000000002 5.233000000000004,8.266100000000002 5.236200000000004,8.266400000000004 5.239900000000006,8.262700000000002 5.243200000000002,8.262100000000004 5.264700000000005,8.2635 5.278200000000005,8.2579 5.2973,8.2545 5.315200000000004,8.253900000000002 5.345000000000006,8.257100000000001 5.359500000000004,8.247399999999999 5.371500000000005,8.2421 5.383100000000006,8.240900000000003 5.3977,8.232800000000005 5.4188000000000045,8.2256 5.440600000000003,8.220500000000001 5.471000000000004,8.192900000000002 5.482100000000003,8.177700000000002 5.485300000000002,8.168100000000003 5.482300000000002,8.145299999999999 5.4935000000000045,8.125799999999998 5.493300000000005,8.116399999999999 5.484900000000003,8.1036 5.471800000000002,8.096600000000002 5.459500000000006,8.095300000000002 5.445500000000003,8.098100000000002 5.436700000000002,8.081200000000003 5.420500000000004,8.066600000000001 5.411700000000003,8.056400000000004 5.405900000000003,8.046199999999999 5.4055000000000035,8.039500000000004 5.408799999999999,8.028400000000005 5.418100000000003,8.014700000000005 5.4273000000000025,8.006900000000002 5.445500000000003,7.996400000000001 5.450099999999999,7.991500000000002 5.4514,7.987400000000001 5.445900000000002,7.975500000000004 5.4467,7.9681 5.4636,7.9447000000000045 5.472000000000001,7.924399999999999 5.4803,7.918199999999999 5.485100000000003,7.916699999999999 5.506500000000003,7.9163 5.523200000000003,7.908500000000004 5.526700000000005,7.923900000000003 5.545999999999999,7.9467 5.5645000000000024,7.9617 5.568300000000001,7.967800000000004 5.568000000000005,7.972200000000001 5.5518,7.9848 5.551400000000001,7.987400000000001 5.553900000000006,7.990700000000004 5.561,7.994500000000002 5.574100000000001,7.998000000000005 5.609000000000002,7.997199999999999 5.629300000000001,8.0047 5.659800000000004,8.011400000000002 5.714600000000004,8.0349 5.722900000000003,8.0413 5.725300000000004,8.051300000000005 5.730900000000005,8.057500000000005 5.7413000000000025,8.0625 5.7572000000000045,8.064500000000002 5.767099999999999,8.078900000000004 5.780300000000004,8.094000000000001 5.7894000000000005,8.101800000000004 5.806699999999999,8.107199999999999 5.8297000000000025,8.122900000000001 5.840900000000005,8.128100000000003 5.848200000000006,8.128900000000002 5.855499999999999,8.127000000000002 5.881700000000002,8.116599999999998 5.921700000000001,8.1158 5.937000000000005,8.112300000000005 5.957900000000002,8.104600000000005 5.9665000000000035,8.108800000000002 5.9742999999999995,8.108899999999998 6.008200000000002,8.089500000000001 5.990000000000002,8.0764 5.980400000000003,8.062899999999999 5.9788,8.057200000000002 5.980499999999999,8.052300000000002 5.997600000000006,8.031800000000004 5.999600000000001,8.019300000000001 6.0024000000000015,8.014299999999999 6.011400000000002,8.0075 6.025000000000006,7.989000000000004 6.0398,7.980699999999999 6.0578,7.988100000000003 6.072300000000006,7.9902000000000015 6.081099999999999,7.9848 6.0899,7.976600000000005 6.117800000000003,7.969999999999999 6.123800000000003,7.9619 6.125100000000003,7.956099999999999 6.120100000000001,7.946200000000005 6.109999999999999,7.9373000000000005 6.096400000000003,7.8995999999999995 6.118900000000004,7.875599999999999 6.127900000000004,7.857700000000001 6.127300000000005,7.848800000000004 6.110700000000001,7.813099999999999 6.102700000000006,7.810000000000002 6.081200000000003,7.797000000000004 6.063100000000006,7.775800000000004 6.055400000000006,7.756599999999999 6.0549000000000035,7.746300000000005 6.058900000000001,7.734400000000001 6.064,7.725500000000004 6.069400000000002,7.720800000000004 6.0884,7.7151 6.114600000000003,7.714600000000004 6.1422000000000025,7.717400000000005 6.159600000000005,7.716200000000001 6.177100000000003,7.706600000000002 6.187800000000003,7.696000000000005 6.1995000000000005,7.688099999999999 6.229400000000005,7.683900000000001 6.235500000000002,7.681600000000003 6.250700000000002,7.670700000000004 6.275500000000001,7.632100000000001 6.282299999999999,7.613199999999999 6.279800000000002,7.6021 6.281000000000006,7.583600000000004 6.279700000000005,7.575000000000003 6.2768000000000015,7.566600000000001 6.265800000000006,7.560000000000002 6.264900000000004,7.555199999999999 6.258500000000005,7.553899999999999 6.2515,7.547600000000003 6.244300000000003,7.535600000000002 6.245600000000003,7.530000000000001 6.257600000000004,7.516200000000005 6.255000000000003,7.5092 6.240100000000005,7.497399999999999 6.2226,7.488399999999999 6.219200000000001,7.4846 6.2181,7.477800000000002 6.222300000000004,7.468900000000005 6.240100000000005,7.4559 6.262300000000003,7.444600000000001 6.2729,7.430199999999999 6.2759,7.409800000000004 6.295000000000002,7.390999999999998 6.295900000000003,7.376200000000004 6.302600000000005,7.3674000000000035 6.3111999999999995,7.360599999999998 6.332800000000006,7.349400000000003 6.3474,7.346400000000003 6.365300000000005,7.3466999999999985 6.3807000000000045,7.3551 6.3922000000000025,7.3566 6.4026,7.3628 6.411900000000003,7.364699999999999 6.421500000000002,7.370899999999999 6.4223,7.366800000000005 6.441300000000005,7.374400000000001 6.448900000000002,7.373100000000001 6.4559,7.368400000000001 6.4617,7.361400000000003 6.485700000000001,7.328000000000003 6.490400000000001,7.310600000000001 6.488100000000003,7.2989999999999995 6.491700000000002,7.283000000000001 6.485700000000001,7.2679000000000045 6.484700000000004,7.251400000000004 6.486600000000003,7.246900000000004 6.492100000000001,7.243900000000004 6.501400000000004,7.231999999999999 6.514500000000005,7.222100000000005 6.517800000000001,7.217400000000005 6.499700000000004,7.210500000000003 6.4893,7.2043000000000035 6.481700000000004,7.197600000000001 6.482300000000002,7.194800000000001 6.496300000000005,7.1888000000000005 6.526900000000005,7.183800000000005 6.5364,7.1753 6.540800000000004,7.154900000000005 6.547200000000004,7.1387 6.5390000000000015,7.116800000000005 6.543900000000001,7.103999999999999 6.544800000000002,7.086199999999998 6.557900000000004,7.075700000000005 6.5626999999999995,7.0611999999999995 6.5771000000000015,7.0501000000000005 6.590000000000003,7.026699999999998 6.590299999999999,7.019800000000004 6.5733999999999995,7.006 6.567,6.997300000000003 6.562600000000003,6.973399999999998 6.545100000000005,6.9482 6.552500000000002,6.9384000000000015 6.558900000000001,6.9236 6.564300000000003,6.919800000000002 6.574300000000001,6.9221 6.583500000000001,6.917200000000001 6.592400000000005,6.918500000000002 6.605600000000003,6.9146 6.613199999999999,6.914200000000001 6.617699999999999,6.917200000000001 6.6203,6.9251000000000005 6.6311000000000035,6.924900000000001 6.636600000000001,6.926900000000003 6.645700000000005,6.938200000000002 6.670000000000002,6.934800000000003 6.6773000000000025,6.937100000000001 6.6858,6.944500000000005 6.705100000000002,6.947400000000002 6.721900000000005,6.940400000000004 6.732800000000005,6.9384000000000015 6.7515,6.943400000000004 6.760000000000005,6.942700000000002 6.764800000000001,6.940100000000001 6.776900000000005,6.925800000000002 6.781300000000002,6.924199999999999 6.800699999999999,6.923099999999998 6.804400000000001,6.9206 6.8048,6.908200000000001 6.808400000000006,6.903800000000004 6.834400000000002,6.900500000000001 6.847799999999999,6.890599999999999 6.845700000000001,6.8855 6.849499999999999,6.876899999999999 6.8643,6.8659000000000034 6.872500000000002,6.856100000000005 6.876100000000001,6.8466999999999985 6.900000000000006,6.835000000000001 6.905900000000003,6.825400000000002 6.9173000000000044,6.814599999999999 6.931600000000003,6.786000000000001 6.9605999999999995,6.745400000000004 6.966000000000001,6.7423 6.976400000000005,6.744399999999999 6.984000000000002,6.753100000000003 7.002100000000006,6.764000000000003 7.0182,6.755600000000001 7.028200000000005,6.753100000000003 7.052500000000002,6.758000000000003 7.073800000000006,6.7557000000000045 7.083500000000001,6.7734999999999985 7.089600000000004,6.778700000000001 7.100000000000001,6.780799999999999 7.111200000000004,6.7791 7.143900000000002,6.765900000000002 7.155000000000001,6.7744 7.160000000000004,6.781100000000002 7.1673000000000044,6.784700000000001 7.178600000000003,6.783999999999999 7.2032000000000025,6.7789 7.2069000000000045,6.774500000000003 7.222700000000003,6.773800000000001 7.236000000000004,6.7776 7.252800000000001,6.791699999999999 7.267000000000003,6.793700000000001 7.2901000000000025,6.801500000000004 7.296500000000002,6.802100000000003 7.3049000000000035,6.7973 7.319900000000004,6.7834 7.345400000000005,6.785600000000002 7.346800000000002,6.783100000000005 7.3384,6.772800000000004 7.3386,6.769600000000004 7.348200000000006,6.7545 7.3596,6.743200000000002 7.3637000000000015,6.741800000000005 7.378,6.739400000000003 7.406400000000005,6.741100000000003 7.4140000000000015,6.737099999999998 7.418900000000001,6.739000000000004 7.430900000000001,6.751400000000004 7.433300000000003,6.752299999999998 7.449100000000001,6.752900000000004 7.4554000000000045,6.751400000000004 7.4711,6.7535000000000025 7.476200000000006,6.756300000000003 7.494,6.772200000000005 7.497700000000002,6.7727 7.5154,6.766600000000004 7.542900000000003,6.7623999999999995 7.548300000000005,6.757600000000004 7.552100000000003,6.750500000000002 7.5516000000000005,6.7298000000000044 7.537400000000005,6.713300000000004 7.533799999999999,6.706000000000003 7.525000000000006,6.700200000000002 7.509,6.698900000000002 7.506900000000002,6.697600000000001 7.503399999999999,6.6884000000000015 7.485400000000006,6.684699999999999 7.485900000000001,6.676400000000001 7.482700000000001,6.670999999999999 7.456600000000002,6.662399999999998 7.442399999999999,6.653700000000001 7.435400000000001,6.653100000000002 7.409600000000005,6.661500000000004 7.404800000000002,6.660800000000002 7.3918000000000035,6.652000000000001 7.383100000000006,6.651499999999999 7.375800000000005,6.638200000000005 7.371600000000001,6.634 7.3583,6.628700000000002 7.337400000000002,6.635300000000001 7.306900000000006,6.626400000000004 7.295999999999999,6.625100000000003 7.287700000000001,6.626200000000004 7.261600000000001,6.6387 7.253900000000002,6.639200000000002 7.216200000000001,6.619199999999999 7.211300000000001,6.6081 7.212200000000003,6.594900000000003 7.207000000000001,6.583300000000001 7.2032000000000025,6.5792 7.2032000000000025,6.5760000000000005 7.215200000000003,6.566800000000001 7.216700000000003,6.552900000000001 7.2154000000000025,6.539700000000003 7.210900000000002,6.5268000000000015 7.219799999999999,6.518599999999999 7.221299999999999,6.514700000000005 7.2165000000000035,6.511200000000002 7.2087,6.510800000000003 7.2032000000000025,6.515500000000003 7.190200000000004,6.518500000000003 7.183,6.518100000000004 7.181200000000004,6.515999999999998 7.186399999999999,6.5075 7.2032000000000025,6.488599999999998 7.215900000000005,6.4636 7.214400000000005,6.4587 7.2010000000000005,6.4554000000000045 7.195600000000006,6.450000000000003 7.192500000000003,6.4410000000000025 7.2032000000000025,6.421800000000005 7.213100000000004,6.387799999999999 7.232200000000006,6.366 7.254100000000001,6.324800000000003 7.264300000000006,6.320799999999998 7.273600000000002,6.307700000000004 7.276900000000005,6.305 7.291499999999999,6.298900000000003 7.3027000000000015,6.286000000000001 7.317399999999999,6.285299999999999 7.330100000000002,6.280900000000003 7.334400000000002,6.273600000000002 7.332599999999999,6.268000000000001 7.333600000000004,6.2639 7.346700000000006,6.2520000000000024 7.358800000000002,6.228100000000005 7.359200000000001,6.221000000000004 7.349900000000005,6.214800000000004 7.345100000000002,6.205300000000001 7.3193000000000055,6.186500000000002 7.3142,6.1766000000000005 7.315000000000005,6.171100000000003 7.3307,6.1773000000000025 7.332800000000006,6.176300000000005 7.330100000000002,6.167900000000003 7.3322,6.166800000000002 7.346900000000005,6.168399999999998 7.359200000000001,6.161999999999999 7.364600000000003,6.1614 7.376200000000004,6.163699999999999 7.380500000000005,6.162300000000002 7.3919,6.157200000000003 7.399100000000004,6.151000000000003 7.398000000000003,6.145400000000002 7.406100000000002,6.139000000000003 7.407200000000003,6.135600000000004 7.406100000000002,6.1325 7.398299999999999,6.125599999999999 7.385200000000005,6.1173 7.3673,6.110700000000001 7.362900000000003,6.106999999999999 7.3598,6.100700000000003 7.362300000000005,6.082000000000001 7.3574000000000055,6.070399999999999 7.357700000000001,6.067 7.362500000000004,6.063099999999999 7.390000000000001,6.052500000000002 7.3922000000000025,6.049700000000001 7.376600000000003,6.037800000000004 7.363500000000002,6.025199999999998 7.346600000000002,6.024000000000001 7.333500000000001,6.020099999999999 7.326300000000003,6.0154 7.316900000000004,6.013800000000003 7.302400000000006,6.017400000000002 7.297400000000003,6.027200000000001 7.2883,6.026499999999999 7.275600000000004,6.020800000000001 7.2697,5.9998000000000005 7.272000000000006,5.996000000000002 7.2801000000000045,5.9955 7.2779000000000025,5.991 7.273200000000003,5.990300000000005 7.270700000000005,5.9876000000000005 7.267300000000006,5.977400000000003 7.259700000000002,5.977200000000003 7.258500000000005,5.982199999999999 7.255300000000005,5.984500000000004 7.254899999999999,5.9898000000000025 7.248800000000003,5.988800000000005 7.242800000000003,5.990500000000004 7.2363,5.988300000000002 7.232200000000006,5.990000000000002 7.229200000000006,5.9923 7.225500000000004,6.001100000000001 7.220000000000006,6.003100000000003 7.215000000000003,6.010000000000005 7.2032000000000025,6.0046000000000035 7.196600000000004,6.003900000000002 7.164300000000004,6.017800000000001 7.160200000000003,6.021500000000003 7.143000000000001,6.023299999999999 7.137599999999999,6.022100000000002 7.133100000000006,6.018700000000003 7.128700000000002,6.010200000000005 7.1325,5.9861 7.131,5.984700000000004 7.110199999999999,5.983800000000002 7.0961,5.980699999999999 7.087800000000001,5.976700000000001 7.086200000000005,5.9724 7.0882000000000005,5.9521000000000015 7.0916,5.9376999999999995 7.097100000000005,5.927399999999999 7.096000000000004,5.918399999999998 7.105700000000006,5.900600000000004 7.105800000000002,5.896000000000001 7.100700000000003,5.886200000000002 7.084700000000005,5.866199999999999 7.077300000000001,5.8429 7.073300000000003,5.838999999999999 7.0686000000000035,5.837200000000003 7.0518,5.835500000000003 7.012300000000003,5.850500000000004 7.001800000000003,5.851300000000002 6.993900000000004,5.8444 6.993000000000002,5.8382000000000005 6.999500000000005,5.812899999999999 7.000300000000003,5.799500000000002 6.9955,5.788800000000002 6.9909000000000034,5.782900000000005 6.978900000000003,5.7730999999999995 6.971400000000003,5.7699 6.9649,5.768799999999999 6.9407,5.772600000000004 6.904299999999999,5.753399999999999 6.902000000000001,5.7498000000000005 6.903500000000001,5.735700000000001 6.913800000000002,5.7158000000000015 6.911900000000003,5.711100000000002 6.891300000000001,5.695 6.889500000000005,5.691800000000001 6.889400000000002,5.6798 6.878900000000002,5.6655000000000015 6.877500000000005,5.658300000000004 6.880300000000005,5.6544000000000025 6.894100000000002,5.646599999999999 6.9114,5.631300000000003 6.913600000000002,5.628399999999999 6.916800000000002,5.609900000000003 6.924400000000006,5.6081 6.930700000000002,5.597500000000004 6.9399000000000015,5.569800000000001 6.940000000000005,5.560900000000004 6.937899999999999,5.553600000000003 6.946400000000004,5.529299999999999 6.952200000000005,5.519300000000001 6.948300000000003,5.501400000000004 6.953300000000006,5.4879999999999995 6.951500000000003,5.483000000000004 6.938700000000004,5.481100000000005 6.9251000000000005,5.4861 6.909200000000006,5.4975999999999985 6.890500000000003,5.500300000000003 6.863199999999999,5.495400000000004 6.855499999999999,5.496300000000005 6.850200000000001,5.4998000000000005 6.847200000000001,5.4998000000000005 6.8322,5.493000000000002 6.82,5.4935000000000045 6.799100000000003,5.498800000000003 6.783100000000005,5.506900000000002 6.755200000000002,5.533999999999999 6.743200000000002,5.534800000000004 6.739200000000004,5.532900000000005 6.730600000000003,5.515300000000003 6.7273,5.503900000000002 6.727900000000005,5.4913000000000025 6.7398000000000025,5.471299999999999 6.741600000000005,5.4557 6.734700000000004,5.432900000000004 6.724000000000004,5.413600000000002 6.7202000000000055,5.409400000000005 6.7149,5.406400000000005 6.703300000000006,5.4039 6.6899000000000015,5.404299999999999 6.6799000000000035,5.410499999999999 6.673400000000001,5.410899999999998 6.668900000000001,5.406500000000001 6.656400000000005,5.399000000000001 6.657600000000002,5.378 6.666700000000006,5.365600000000001 6.674600000000005,5.3415000000000035 6.680600000000005,5.315000000000005 6.694800000000001,5.289200000000001 6.696200000000005,5.280999999999999 6.706600000000002,5.2682 6.717700000000001,5.2836 6.722900000000003,5.2879000000000005 6.730700000000006,5.2901000000000025 6.7513000000000005,5.2905000000000015 6.762700000000002,5.286100000000005 6.7783000000000015,5.268799999999999 6.7911,5.244100000000003 6.797600000000003,5.221400000000003 6.796600000000005,5.2010000000000005 6.7943,5.189599999999999 6.782600000000002,5.156500000000001 6.774799999999999,5.1422000000000025 6.768900000000002,5.121099999999998 6.781000000000006,5.0989 6.784400000000005,5.089199999999998 6.7836,5.084700000000005 6.775600000000004,5.075800000000001 6.761800000000001,5.066900000000004 6.753300000000003,5.066099999999999 6.747,5.062600000000003 6.741199999999999,5.055800000000005 6.722000000000001,5.051400000000001 6.712900000000005,5.0441 6.7058000000000035,5.034800000000004 6.702300000000001,5.022800000000004 6.6873000000000005,5.013600000000004 6.682200000000002,5.006500000000003 6.680600000000005,4.999700000000004 6.686100000000003,4.995699999999999 6.687200000000004,4.9786 6.6828,4.976100000000002 6.680600000000005,4.972500000000004 6.682000000000002,4.955200000000005 6.658100000000005,4.943000000000005 6.650100000000002,4.926900000000003 6.643800000000006,4.923300000000005 6.621200000000002,4.9162000000000035 6.616,4.913000000000004 6.634500000000003,4.899300000000004 6.647800000000004,4.8827 6.6617999999999995,4.8763000000000005 6.674900000000001,4.873899999999999 6.684400000000004,4.8740999999999985 6.709400000000002,4.882300000000001 6.719500000000004,4.879899999999999 6.727900000000005,4.873200000000004 6.7446000000000055,4.842700000000001 6.756700000000002,4.823900000000002 6.790400000000005,4.785200000000003 6.800800000000002,4.7667 6.813700000000004,4.751100000000001 6.82,4.7387000000000015 6.8474,4.718800000000002 6.857500000000002,4.706200000000003 6.862200000000001,4.695399999999999 6.8652000000000015,4.6676 6.886300000000006,4.6419 6.9133,4.6158 6.970000000000006,4.576900000000002 6.980400000000003,4.564300000000003 6.980400000000003,4.557600000000001 6.9780000000000015,4.555100000000003 6.957500000000003,4.543600000000005 6.958400000000005,4.5349 6.962600000000002,4.532400000000003 6.9691000000000045,4.531400000000005 6.985400000000006,4.5379000000000005 7.020099999999999,4.558500000000002 7.046600000000005,4.567 7.066100000000006,4.565200000000004 7.082599999999999,4.565600000000003 7.103999999999999,4.5687 7.110199999999999,4.567500000000003 7.113400000000006,4.564399999999999 7.109500000000004,4.542400000000001 7.131700000000002,4.5319 7.1417,4.523200000000003 7.153200000000005,4.5062 7.154800000000002,4.493700000000004 7.153400000000005,4.488100000000003 7.141100000000002,4.4731999999999985 7.082000000000001,4.4410000000000025 7.075600000000001,4.4361999999999995 7.0745000000000005,4.432300000000005 7.077200000000005,4.429300000000005 7.0819000000000045,4.4283 7.1235,4.425200000000004 7.145099999999999,4.425600000000003 7.159800000000004,4.427599999999998 7.166000000000004,4.430100000000003 7.1875,4.442799999999998 7.193400000000004,4.443800000000003 7.197900000000004,4.442599999999999 7.209600000000002,4.421300000000002 7.227200000000003,4.415199999999999 7.2364999999999995,4.409100000000002 7.2387000000000015,4.406100000000002 7.242100000000001,4.388800000000003 7.239699999999999,4.365500000000004 7.2423,4.357600000000005 7.2455,4.333400000000005 7.248800000000003,4.323700000000002 7.253900000000002,4.315300000000001 7.266000000000005,4.305300000000003 7.288400000000003,4.293300000000002 7.320100000000004,4.258900000000004 7.337800000000001,4.233499999999999 7.348600000000005,4.222500000000004 7.3596,4.2158000000000015 7.3902,4.203400000000002 7.400500000000001,4.194800000000001 7.3994,4.181200000000004 7.392600000000002,4.164900000000003 7.387599999999999,4.136099999999999 7.389000000000003,4.132800000000003 7.406400000000005,4.1311000000000035 7.408700000000003,4.129100000000001 7.409600000000005,4.125500000000002 7.408000000000001,4.121500000000005 7.403000000000006,4.115500000000004 7.385300000000001,4.101800000000004 7.375500000000002,4.088999999999999 7.364200000000004,4.079900000000002 7.345400000000005,4.060400000000001 7.332700000000003,4.0523000000000025 7.318899999999999,4.0504999999999995 7.2943,4.0548 7.274700000000003,4.060299999999998 7.259900000000002,4.066700000000004 7.254800000000003,4.0655 7.252900000000004,4.062400000000004 7.2498000000000005,4.041800000000002 7.250100000000003,4.037700000000001 7.252300000000005,4.035000000000004 7.270600000000002,4.0283000000000015 7.285299999999999,4.025100000000002 7.3018,4.023800000000001 7.306900000000006,4.0219999999999985 7.314,4.014900000000004 7.3247,4.011400000000002 7.365100000000005,4.005099999999999 7.371600000000001,4.002200000000002 7.371400000000001,3.998800000000003 7.362500000000004,3.987000000000002 7.339400000000005,3.9631000000000043 7.326100000000004,3.9566000000000017 7.3187,3.957100000000004 7.310400000000001,3.955200000000005 7.305100000000003,3.950099999999999 7.303200000000004,3.946300000000001 7.2986,3.920500000000004 7.305199999999999,3.9110000000000014 7.347200000000001,3.897200000000005 7.356000000000002,3.896799999999999 7.364600000000003,3.8941000000000017 7.378399999999999,3.8963000000000036 7.392800000000001,3.896500000000003 7.417400000000001,3.892000000000003 7.4410000000000025,3.889700000000005 7.453800000000001,3.889800000000001 7.459700000000005,3.8917 7.477000000000004,3.8933999999999997 7.5336,3.8939999999999984 7.566500000000005,3.8922000000000025 7.599800000000002,3.887999999999998 7.611800000000002,3.8845000000000027 7.656700000000001,3.8641000000000005 7.678699999999999,3.8489000000000004 7.700200000000002,3.8447999999999993 7.711800000000004,3.8404000000000025 7.720600000000005,3.834700000000005 7.737100000000005,3.815899999999999 7.7485,3.8094000000000037 7.766100000000002,3.8034999999999997 7.778800000000004,3.794800000000002 7.849900000000005,3.7621000000000038 7.862700000000004,3.745600000000003 7.868400000000001,3.7413000000000025 7.8889,3.7333 7.899900000000002,3.7254000000000005 7.909300000000002,3.716000000000001 7.9336000000000055,3.7070000000000007 7.952200000000005,3.6950000000000003 7.980600000000003,3.6688000000000045 7.990700000000004,3.6571 8.001100000000001,3.652700000000003 8.0141,3.649700000000003 8.026800000000001,3.6437000000000026 8.035400000000003,3.634300000000003 8.079900000000002,3.5986000000000047 8.093900000000005,3.5814999999999984 8.1113,3.5709000000000017 8.1235,3.566500000000005 8.143700000000003,3.551300000000005 8.1552,3.538400000000003 8.198599999999999,3.5132000000000048 8.247100000000003,3.471900000000005 8.259,3.464500000000001 8.271100000000004,3.4517999999999986 8.307200000000002,3.4202000000000012 8.362400000000001,3.3954999999999984 8.380400000000002,3.3930000000000007 8.384100000000004,3.3982000000000028 8.384599999999999,3.4022000000000006 8.406600000000005,3.3978000000000037 8.4174,3.3974000000000046 8.424600000000005,3.3994 8.436900000000001,3.405000000000001 8.464500000000001,3.4131 8.484500000000004,3.4251000000000005 8.494,3.4329000000000036 8.5015,3.4340000000000046 8.507000000000005,3.4322000000000017 8.523900000000005,3.4202000000000012 8.539900000000003,3.411999999999999 8.554700000000004,3.4086 8.5779,3.409800000000004 8.588300000000004,3.4085000000000036 8.596600000000002,3.4014999999999986 8.613400000000006,3.3822000000000045 8.620400000000004,3.3710999999999984 8.634599999999999,3.3571000000000026 8.6436,3.351600000000005 8.652100000000004,3.3426000000000045 8.656400000000005,3.335000000000001 8.659300000000002,3.3156000000000034 8.6526,3.3034000000000034 8.6475,3.299199999999999 8.629000000000005,3.297000000000004 8.629400000000004,3.2942000000000036 8.6323,3.2918999999999983 8.641200000000005,3.2875000000000014 8.645300000000006,3.2835000000000036 8.647300000000001,3.2745000000000033 8.6462,3.2698000000000036 8.648500000000006,3.2649000000000044 8.654600000000002,3.261499999999998 8.662300000000002,3.260300000000001 8.667300000000004,3.2622 8.677900000000001,3.2606000000000037 8.692100000000003,3.2542000000000044 8.705400000000004,3.242200000000004 8.7059,3.2393 8.701700000000002,3.2331000000000003 8.699300000000001,3.2236000000000047 8.703000000000003,3.214100000000002 8.725000000000001,3.198900000000002 8.7316,3.1895999999999987 8.741400000000006,3.1798 8.760200000000005,3.1733000000000047 8.770500000000006,3.165300000000002 8.771100000000004,3.155700000000003 8.765900000000002,3.1409999999999982 8.7579,3.1315000000000026 8.749100000000006,3.1255999999999986 8.739000000000004,3.1159000000000034 8.7376,3.0966000000000022 8.739000000000004,3.0838000000000036 8.741100000000003,3.0807 8.758700000000005,3.071000000000005 8.766600000000004,3.0574000000000012 8.774799999999999,3.0553000000000026 8.792500000000004,3.057700000000004 8.804100000000005,3.0570999999999984 8.815000000000005,3.0515000000000043 8.836100000000002,3.0341000000000022 8.851200000000006,3.0257000000000005 8.854700000000001,3.020299999999999 8.856000000000002,2.997 8.859000000000002,2.988500000000002 8.863,2.984500000000004 8.884500000000003,2.9731000000000023 8.912100000000002,2.9403000000000006 8.913600000000002,2.930200000000003 8.934600000000003,2.9053000000000004 8.938500000000005,2.8961000000000006 8.9407,2.871000000000002 8.948700000000002,2.8611000000000004 8.958800000000004,2.8537 8.9788,2.844100000000001 9.006800000000005,2.8215000000000003 9.002300000000005,2.805100000000003 9.002700000000004,2.793800000000001 9.008000000000003,2.782600000000002 9.021700000000003,2.767800000000001 9.067500000000003,2.734300000000001 9.068100000000001,2.720600000000001 8.9024,2.3414 8.904900000000005,1.9339000000000013 9.234000000000002,1.9352000000000018 9.237900000000003,1.4730000000000025 9.240100000000005,1.4241000000000028 9.2455,1.4176000000000002 9.277100000000004,1.3997000000000028 9.289300000000004,1.3995000000000033 9.293500000000002,1.3937000000000026 9.320600000000006,1.3921000000000028 9.3459,1.3841999999999999 9.3737,1.3641000000000005 9.380100000000006,1.3505000000000003 9.387100000000004,1.3085000000000022 9.401500000000006,1.2686000000000028 9.407200000000003,1.2636000000000003 9.417000000000002,1.2599000000000018 9.4268,1.2606000000000002 9.434200000000004,1.264800000000001 9.445900000000002,1.2747000000000028 9.459000000000003,1.2795000000000023 9.470500000000001,1.2773000000000003 9.485100000000003,1.267900000000001 9.519200000000005,1.238500000000002 9.566200000000002,1.1834000000000024 9.6019,1.1518000000000015 9.610700000000001,1.1396000000000015 9.6147,1.1296 9.617000000000004,1.1168000000000013 9.616100000000003,1.110400000000002 9.604500000000002,1.0984000000000016 9.589600000000004,1.0772000000000013 9.586200000000005,1.0687000000000033 9.596700000000006,1.055100000000003 9.615400000000001,1.0443000000000033 9.632400000000004,1.0306000000000033 9.644400000000005,1.0106000000000002 9.645800000000001,0.9857000000000014 9.6511,0.9494000000000007 9.660800000000002,0.938600000000001 9.687800000000003,0.9213000000000022 9.708000000000006,0.9107000000000021 9.759800000000006,0.8605000000000018 9.771800000000006,0.8432000000000031 9.756700000000002,0.8429000000000002 9.748600000000003,0.8457000000000008 9.743900000000004,0.8449000000000026 9.723600000000005,0.8499000000000017 9.716700000000003,0.8488000000000007 9.6892,0.850200000000001 9.658300000000004,0.8546000000000014 9.6445,0.8532000000000011 9.64,0.8577000000000012 9.6008,0.8682000000000016 9.585799999999999,0.8760000000000012 9.570600000000006,0.8804000000000016 9.566400000000002,0.8854000000000006 9.5567,0.8917999999999999 9.547800000000002,0.8935000000000031 9.543600000000005,0.8988000000000014 9.5186,0.9113000000000007 9.485800000000005,0.9338000000000015 9.471900000000005,0.9413000000000018 9.470300000000002,0.9438000000000031 9.4531,0.9532000000000025 9.4178,0.9677000000000007 9.396100000000004,0.9740000000000002 9.370600000000003,0.9771000000000001 9.344700000000003,0.9771000000000001 9.337000000000003,0.9749000000000017 9.302800000000005,0.9782000000000011 9.278100000000002,0.9774000000000029 9.251400000000004,0.9695999999999998 9.237200000000001,0.9610000000000021 9.220600000000005,0.9457000000000022 9.213900000000002,0.9426000000000023 9.2042,0.9420999999999999 9.187200000000004,0.9443000000000019 9.179700000000004,0.9485000000000028 9.173300000000005,0.9638000000000027 9.1706,0.9815000000000005 9.165300000000002,0.9902000000000015 9.1631,0.9924 9.157200000000003,0.9924 9.156100000000002,0.9815000000000005 9.153600000000004,0.9821000000000026 9.1353,1.0051000000000023 9.132200000000005,1.0035000000000025 9.1314,1.0010000000000012 9.1389,0.9954000000000001 9.1445,0.9876000000000005 9.149700000000003,0.9840000000000018 9.149700000000003,0.980400000000003 9.1539,0.9757000000000033 9.1558,0.9754000000000005 9.156100000000002,0.9615000000000009 9.145400000000002,0.9622000000000028 9.123400000000004,0.9701000000000022 9.091000000000001,0.9762000000000022 9.042100000000005,0.9903000000000013 8.968700000000005,1.0142000000000024 "></polygon><polygon points="9.167500000000004,0.9832000000000001 9.170300000000005,0.9765000000000015 9.169700000000006,0.9677000000000007 9.174199999999999,0.9590000000000032 9.174199999999999,0.9540000000000006 9.177,0.9471000000000025 9.1708,0.9499000000000031 9.163600000000002,0.9649000000000001 9.162500000000001,0.9732000000000021 9.163600000000002,0.9818000000000033 9.165300000000002,0.9857000000000014 9.166900000000005,0.985400000000002 9.167500000000004,0.9832000000000001 "></polygon>
    </svg>
    