
    <svg width="1.6328999999999994" height="3.8668999999999976" xmlns="http://www.w3.org/2000/svg" xmlns:xlink="http://www.w3.org/1999/xlink" style="transform: scale(1, -1)">
        <polygon points="0.6174999999999997,0.025600000000000733 0.6043000000000021,0.0472999999999999 0.599499999999999,0.06409999999999982 0.5955000000000013,0.0931999999999995 0.6049000000000007,0.12049999999999983 0.6096000000000004,0.14780000000000015 0.6051000000000002,0.16659999999999897 0.5872000000000028,0.1938999999999993 0.5878999999999976,0.24210000000000065 0.48559999999999803,0.4923000000000002 0.4876999999999967,0.5075000000000003 0.369099999999996,0.7969000000000008 0.3487000000000009,0.8633999999999986 0.27899999999999636,0.9029999999999987 0.2764000000000024,0.9337000000000018 0.29710000000000036,0.9842000000000013 0.25370000000000203,1.0283000000000015 0.25659999999999883,1.0828999999999986 0.22760000000000247,1.1870000000000012 0.1396000000000015,1.3468000000000018 0.08249999999999602,1.4909 0.0,1.7265000000000015 0.045000000000001705,1.7555000000000014 0.08950000000000102,1.788499999999999 0.10060000000000002,1.8059000000000012 0.10029999999999717,1.8327999999999989 0.09779999999999944,1.861699999999999 0.10660000000000025,1.8867000000000012 0.13989999999999725,1.9235000000000007 0.24020000000000152,2.006800000000002 0.2693999999999974,2.0127999999999986 0.27830000000000155,2.026299999999999 0.278100000000002,2.0455000000000005 0.2644999999999982,2.0626999999999995 0.22099999999999653,2.0975 0.24519999999999698,2.1311 0.2513000000000005,2.1357999999999997 0.2494000000000014,2.136700000000001 0.2488000000000028,2.1403 0.25209999999999866,2.1435999999999993 0.24960000000000093,2.1400000000000006 0.25379999999999825,2.1388999999999996 0.26910000000000167,2.160499999999999 0.2710000000000008,2.1663999999999994 0.28020000000000067,2.1747000000000014 0.2869000000000028,2.1869000000000014 0.2898999999999958,2.186700000000002 0.3177000000000021,2.229400000000002 0.32209999999999894,2.2342000000000013 0.357999999999997,2.294699999999999 0.3710000000000022,2.320499999999999 0.3680000000000021,2.3232999999999997 0.3663000000000025,2.3279999999999994 0.36659999999999826,2.331900000000001 0.36939999999999884,2.3378000000000014 0.370199999999997,2.335799999999999 0.36710000000000065,2.3292 0.3710000000000022,2.3218999999999994 0.3738000000000028,2.3225000000000016 0.3710000000000022,2.3247 0.37299999999999756,2.331900000000001 0.37189999999999657,2.3343999999999987 0.3819000000000017,2.3333000000000013 0.38519999999999754,2.3374999999999986 0.38349999999999795,2.3397000000000006 0.3838000000000008,2.3469000000000015 0.38579999999999615,2.346399999999999 0.3879999999999981,2.347999999999999 0.4119000000000028,2.3972000000000016 0.4176999999999964,2.410499999999999 0.420499999999997,2.421400000000002 0.4369000000000014,2.4433000000000007 0.4510000000000005,2.4739000000000004 0.46770000000000067,2.521600000000003 0.4684999999999988,2.5280000000000022 0.470799999999997,2.5305 0.46940000000000026,2.5314000000000014 0.4712999999999994,2.5368999999999993 0.4754999999999967,2.5443999999999996 0.47630000000000194,2.550500000000003 0.4795999999999978,2.5528000000000013 0.4784999999999968,2.556099999999997 0.4859999999999971,2.5603000000000016 0.4923999999999964,2.5714000000000006 0.4934999999999974,2.5794000000000032 0.4998999999999967,2.5924999999999976 0.49849999999999994,2.598600000000001 0.5018999999999991,2.599700000000002 0.5060000000000002,2.6083000000000034 0.5048999999999992,2.612199999999998 0.507399999999997,2.610800000000001 0.5123999999999995,2.6271999999999984 0.5157000000000025,2.631899999999998 0.5191000000000017,2.6468999999999987 0.5223999999999975,2.6541000000000032 0.5219000000000023,2.6571999999999996 0.5249000000000024,2.6586000000000034 0.5245999999999995,2.6607999999999983 0.5227000000000004,2.6618999999999993 0.5232000000000028,2.6682999999999986 0.526600000000002,2.6693999999999996 0.533299999999997,2.6930000000000014 0.5366,2.6982999999999997 0.5362999999999971,2.7033000000000023 0.5407999999999973,2.7104999999999997 0.5431999999999988,2.7200000000000024 0.5463000000000022,2.723899999999997 0.5518999999999963,2.7469 0.5557000000000016,2.753899999999998 0.5559999999999974,2.7589000000000006 0.5613000000000028,2.7718999999999987 0.5608000000000004,2.7769000000000013 0.5626999999999995,2.779700000000002 0.5632000000000019,2.786100000000001 0.5694000000000017,2.798599999999997 0.5690999999999988,2.8019 0.570999999999998,2.8017000000000003 0.5705000000000027,2.8064 0.5765999999999991,2.830000000000002 0.5748999999999995,2.8332999999999977 0.5788000000000011,2.8358000000000025 0.5882999999999967,2.872200000000003 0.5895999999999972,2.8816000000000024 0.588000000000001,2.882200000000001 0.5919000000000025,2.8863999999999983 0.5934999999999988,2.899199999999997 0.5915999999999997,2.900299999999998 0.5970999999999975,2.9086000000000034 0.5974000000000004,2.913599999999999 0.6013000000000019,2.918899999999997 0.5985000000000014,2.9193999999999996 0.6015999999999977,2.9250000000000007 0.6037999999999997,2.925799999999999 0.6088000000000022,2.9522000000000013 0.6135000000000019,2.9674999999999976 0.6113,2.9725 0.5991,2.9725 0.5991,2.973899999999997 0.6098999999999961,2.9741000000000035 0.6113,2.976899999999997 0.6126999999999967,2.9741000000000035 0.6159999999999997,2.9741000000000035 0.6135000000000019,2.9755000000000003 0.6152000000000015,2.9788999999999994 0.6141000000000005,2.9811000000000014 0.6176999999999992,2.981399999999997 0.6173999999999964,2.9852999999999987 0.6204999999999998,2.9897000000000027 0.6199000000000012,2.9910999999999994 0.6182000000000016,2.990500000000001 0.6180000000000021,2.9944000000000024 0.6216000000000008,3.0019000000000027 0.6210000000000022,3.007999999999999 0.6233000000000004,3.009400000000003 0.6234999999999999,3.0132999999999974 0.6263000000000005,3.016400000000001 0.6234999999999999,3.0166000000000004 0.6233000000000004,3.017999999999997 0.6263000000000005,3.0211000000000006 0.631299999999996,3.0366000000000035 0.6285000000000025,3.044100000000004 0.6298999999999992,3.0477999999999987 0.6340999999999966,3.049400000000002 0.6357999999999961,3.0522000000000027 0.6321000000000012,3.056099999999997 0.6355000000000004,3.0614000000000026 0.6349000000000018,3.0650000000000013 0.6420999999999992,3.079699999999999 0.6396000000000015,3.0853 0.6415999999999968,3.0869000000000035 0.6424000000000021,3.090799999999998 0.6413000000000011,3.0928000000000004 0.644599999999997,3.098899999999997 0.644599999999997,3.1115999999999993 0.6469000000000023,3.123299999999997 0.6495999999999995,3.1264000000000003 0.6501999999999981,3.134400000000003 0.6537999999999968,3.1433 0.6520999999999972,3.1442000000000014 0.6531999999999982,3.154700000000002 0.6559999999999988,3.157799999999998 0.6587999999999994,3.1860999999999997 0.6576999999999984,3.1891 0.6595999999999975,3.192800000000002 0.6580000000000013,3.1975000000000016 0.6595999999999975,3.203900000000001 0.662700000000001,3.2082999999999977 0.6648999999999958,3.2103 0.6687999999999974,3.2099999999999973 0.6734999999999971,3.2166000000000032 0.6738,3.2232999999999983 0.6756999999999991,3.2253000000000007 0.6768999999999963,3.2354999999999983 0.6790999999999983,3.2399999999999984 0.6852000000000018,3.291900000000002 0.6841000000000008,3.296400000000002 0.6858000000000004,3.2968999999999973 0.6865999999999985,3.3035999999999994 0.684899999999999,3.3092000000000006 0.6880000000000024,3.3094 0.6859999999999999,3.3161000000000023 0.6859999999999999,3.3249999999999993 0.6873999999999967,3.326400000000003 0.6863000000000028,3.3279999999999994 0.6880000000000024,3.329699999999999 0.6905000000000001,3.3291000000000004 0.6965999999999966,3.334100000000003 0.7032000000000025,3.3343999999999987 0.7119,3.339699999999997 0.7143999999999977,3.339699999999997 0.7179999999999964,3.3383000000000003 0.7205000000000013,3.3343999999999987 0.7323999999999984,3.3313999999999986 0.7338000000000022,3.3291000000000004 0.7484999999999999,3.330499999999997 0.7413000000000025,3.3278 0.7301999999999964,3.3294000000000032 0.725200000000001,3.3324999999999996 0.722999999999999,3.331900000000001 0.7316000000000003,3.3266000000000027 0.7357000000000014,3.3214000000000006 0.7368999999999986,3.3247000000000035 0.7398999999999987,3.3221999999999987 0.7391000000000005,3.3261000000000003 0.7409999999999997,3.326400000000003 0.7432000000000016,3.3236000000000026 0.744099999999996,3.318299999999997 0.7470999999999961,3.3155000000000037 0.7552000000000021,3.316700000000001 0.7543999999999969,3.3186 0.7554999999999978,3.318900000000003 0.7599000000000018,3.316399999999998 0.7607999999999961,3.311899999999998 0.7640999999999991,3.3125000000000036 0.7665999999999968,3.3135999999999974 0.7659999999999982,3.3150000000000013 0.7629999999999981,3.3155000000000037 0.7623999999999995,3.318299999999997 0.758499999999998,3.318900000000003 0.7738000000000014,3.325300000000002 0.7785000000000011,3.3294000000000032 0.7815999999999974,3.3349999999999973 0.7912999999999997,3.345299999999998 0.8012999999999977,3.3649999999999984 0.8029999999999973,3.365500000000001 0.8023999999999987,3.3675000000000033 0.8093999999999966,3.382200000000001 0.8115999999999985,3.391400000000001 0.8143999999999991,3.4128000000000007 0.8093999999999966,3.4227999999999987 0.8038000000000025,3.424400000000002 0.8027000000000015,3.421400000000002 0.7982000000000014,3.4216999999999977 0.7982000000000014,3.4238999999999997 0.8027000000000015,3.4338999999999977 0.8070999999999984,3.454699999999999 0.8093999999999966,3.4755000000000003 0.8119000000000014,3.4833000000000034 0.8134999999999977,3.483900000000002 0.8134999999999977,3.4914000000000023 0.8194000000000017,3.5025000000000013 0.8183000000000007,3.5077999999999996 0.8201999999999998,3.5169000000000032 0.8230000000000004,3.5214000000000034 0.8224000000000018,3.524199999999997 0.8271000000000015,3.5380000000000003 0.8299000000000021,3.5421999999999976 0.8288000000000011,3.544999999999998 0.8316000000000017,3.5468999999999973 0.8312999999999988,3.5511000000000017 0.8331999999999979,3.5535999999999994 0.8327000000000027,3.5564 0.8346000000000018,3.5603000000000016 0.8376999999999981,3.5794000000000032 0.8370999999999995,3.592200000000002 0.8348999999999975,3.5969999999999978 0.8663000000000025,3.5939000000000014 0.8870000000000005,3.5943000000000005 0.8864999999999981,3.5888000000000027 0.9011999999999958,3.5939999999999976 0.9044000000000025,3.5965999999999987 0.9384999999999977,3.591899999999999 0.9395999999999987,3.593700000000002 0.9378999999999991,3.5971999999999973 0.9429000000000016,3.6027000000000022 0.9577000000000027,3.6014000000000017 0.960799999999999,3.597800000000003 0.9692000000000007,3.600100000000001 0.9925999999999959,3.6007 1.0127000000000024,3.6042000000000023 1.0191999999999979,3.6087000000000025 1.0257999999999967,3.6110000000000007 1.030699999999996,3.6080000000000005 1.0320999999999998,3.604099999999999 1.0446999999999989,3.605599999999999 1.0512999999999977,3.6042999999999985 1.0557999999999979,3.5988000000000007 1.0518999999999963,3.590700000000002 1.056199999999997,3.5847999999999978 1.0653999999999968,3.5794999999999995 1.0679000000000016,3.574900000000003 1.0764999999999958,3.582600000000003 1.0814000000000021,3.5747999999999998 1.0900999999999996,3.566300000000002 1.0889999999999986,3.5633000000000017 1.0904999999999987,3.559799999999999 1.1092000000000013,3.5579 1.1133999999999986,3.5644000000000027 1.1266999999999996,3.563799999999997 1.1370999999999967,3.566300000000002 1.1621000000000024,3.5684000000000005 1.1769999999999996,3.5935999999999986 1.1944000000000017,3.596 1.227800000000002,3.5939999999999976 1.2348,3.5961999999999996 1.233699999999999,3.6168000000000013 1.2361999999999966,3.6183000000000014 1.250700000000002,3.6190999999999995 1.2629999999999981,3.636700000000001 1.2575000000000003,3.6423000000000023 1.2734999999999985,3.701400000000003 1.268499999999996,3.7354999999999983 1.2777999999999992,3.7408000000000037 1.2787000000000006,3.745799999999999 1.2775999999999996,3.7566999999999986 1.2871999999999986,3.7604000000000006 1.2881999999999962,3.7669999999999995 1.295099999999998,3.7756000000000007 1.2942999999999998,3.786399999999997 1.2957999999999998,3.7912 1.2995000000000019,3.7936999999999976 1.3031999999999968,3.790499999999998 1.3157999999999959,3.7848000000000006 1.3166999999999973,3.777100000000001 1.3222000000000023,3.7851000000000035 1.3292000000000002,3.7803000000000004 1.3528999999999982,3.7519000000000027 1.3551999999999964,3.7512000000000008 1.356499999999997,3.7487999999999992 1.3543999999999983,3.7474999999999987 1.3551000000000002,3.7455999999999996 1.3821000000000012,3.7510999999999974 1.400500000000001,3.751999999999999 1.4151999999999987,3.7600999999999978 1.429000000000002,3.7722000000000016 1.4675000000000011,3.8154000000000003 1.4878,3.820899999999998 1.4917999999999978,3.8277000000000037 1.4990999999999985,3.8353 1.5105999999999966,3.838199999999997 1.5253999999999976,3.8473000000000006 1.5358000000000018,3.855999999999998 1.5456000000000003,3.8591000000000015 1.5482000000000014,3.861799999999999 1.549199999999999,3.8668999999999976 1.5557999999999979,3.8644 1.5529999999999973,3.8572000000000024 1.5450000000000017,3.8491999999999997 1.5831000000000017,3.8261000000000003 1.5495000000000019,3.788700000000002 1.5542000000000016,3.7784999999999975 1.582099999999997,3.7561 1.5792999999999964,3.7140999999999984 1.5951999999999984,3.7001000000000026 1.5998000000000019,3.679599999999997 1.597999999999999,3.6675000000000004 1.5831000000000017,3.6479000000000035 1.5737000000000023,3.625499999999999 1.5859000000000023,3.6162000000000027 1.6073000000000022,3.6050000000000004 1.605399999999996,3.5686 1.6101000000000028,3.520100000000003 1.6165999999999983,3.4772 1.6296999999999997,3.4668000000000028 1.6328999999999994,3.4415999999999976 1.5960999999999999,3.3979999999999997 1.5886999999999958,3.373700000000003 1.5914999999999964,3.3587999999999987 1.5848999999999975,3.3429000000000038 1.5568999999999988,3.3065999999999995 1.5289999999999964,3.2776999999999994 1.5116000000000014,3.2547999999999995 1.5011999999999972,3.253800000000002 1.4962000000000018,3.250200000000003 1.4883000000000024,3.229099999999999 1.4654999999999987,3.226499999999998 1.4510999999999967,3.2142000000000017 1.4352000000000018,3.204699999999999 1.4253,3.202099999999998 1.4181000000000026,3.1982000000000035 1.3933999999999997,3.1967000000000034 1.3813999999999993,3.190200000000001 1.353200000000001,3.1798000000000037 1.3466999999999985,3.173599999999997 1.3485999999999976,3.1594999999999978 1.337299999999999,3.1556999999999995 1.3376999999999981,3.149600000000003 1.3352999999999966,3.1472000000000016 1.3264999999999958,3.145100000000003 1.3119999999999976,3.1357999999999997 1.310699999999997,3.125499999999999 1.3138000000000005,3.1224000000000025 1.3123000000000005,3.107499999999998 1.3145999999999987,3.1029000000000018 1.3220000000000027,3.0995000000000026 1.323999999999998,3.093300000000003 1.3192999999999984,3.0839999999999996 1.3185999999999964,3.074499999999997 1.3288999999999973,3.0565000000000033 1.3278999999999996,3.0543999999999976 1.3179000000000016,3.054599999999997 1.3160999999999987,3.0451000000000015 1.3115000000000023,3.0451999999999977 1.3057000000000016,3.0485000000000007 1.3034999999999997,3.047500000000003 1.3042000000000016,3.0415000000000028 1.3108999999999966,3.032300000000003 1.3087000000000018,3.0291000000000032 1.2986000000000004,3.0273000000000003 1.2933000000000021,3.0209999999999972 1.2980000000000018,3.017999999999997 1.3044999999999973,3.0181000000000004 1.3108999999999966,3.005700000000001 1.3183000000000007,3.003200000000003 1.3201999999999998,3.000499999999999 1.3190000000000026,2.9954 1.3066999999999993,2.976499999999998 1.3057999999999979,2.9715000000000025 1.3074000000000012,2.966899999999999 1.3156999999999996,2.9635 1.317700000000002,2.960199999999997 1.3151999999999973,2.9552999999999976 1.310299999999998,2.955099999999998 1.3068999999999988,2.952499999999997 1.3093999999999966,2.9392999999999994 1.297699999999999,2.9360999999999997 1.3006000000000029,2.913599999999999 1.2988,2.9098000000000006 1.2912999999999997,2.9079999999999977 1.290300000000002,2.9064000000000014 1.299900000000001,2.8927000000000014 1.268499999999996,2.8989999999999974 1.2391000000000005,2.910700000000002 1.2265000000000015,2.9139000000000017 1.2036999999999978,2.914800000000003 1.1888000000000005,2.911100000000001 1.1762999999999977,2.9126999999999974 1.1694999999999993,2.9178000000000033 1.1698000000000022,2.9227999999999987 1.162700000000001,2.930600000000002 1.1569000000000003,2.9451 1.1582000000000008,2.965100000000003 1.1550000000000011,2.986500000000003 1.1387999999999963,3.009800000000002 1.1225999999999985,3.0199999999999996 1.1141000000000005,3.0218000000000025 1.0949000000000026,3.0220999999999982 1.0459999999999994,3.0143999999999984 1.034399999999998,3.0145000000000017 1.0107,3.0229000000000035 0.9953000000000003,3.032399999999999 0.9774999999999991,3.0481000000000016 0.9636999999999958,3.054500000000001 0.9540000000000006,3.0532000000000004 0.9487000000000023,3.0509999999999984 0.9303000000000026,3.033400000000004 0.9268000000000001,3.0273000000000003 0.9148999999999958,3.017500000000002 0.8952000000000027,3.005300000000002 0.870199999999997,2.994600000000002 0.8299999999999983,2.9817 0.8224000000000018,2.976800000000001 0.8132000000000019,2.9619999999999997 0.8087000000000018,2.9481 0.8040999999999983,2.922500000000003 0.7954000000000008,2.9019999999999975 0.7911999999999964,2.8766 0.7841999999999985,2.8709000000000024 0.7582999999999984,2.8610000000000007 0.7515999999999963,2.8538999999999994 0.7409999999999997,2.8369000000000035 0.7398999999999987,2.8099999999999987 0.7445999999999984,2.7814000000000014 0.7413000000000025,2.773900000000001 0.7327999999999975,2.7688000000000024 0.7190999999999974,2.7519000000000027 0.7010000000000005,2.7170999999999985 0.6993000000000009,2.705499999999997 0.6997,2.693900000000003 0.7132999999999967,2.6765000000000008 0.7188000000000017,2.666900000000002 0.7263000000000019,2.6382999999999974 0.7274999999999991,2.625499999999999 0.7244000000000028,2.6151000000000018 0.7162000000000006,2.6020000000000003 0.7150999999999996,2.5939999999999976 0.718199999999996,2.587399999999999 0.7286999999999964,2.577900000000003 0.7402000000000015,2.5592000000000006 0.7434999999999974,2.5477000000000025 0.7411999999999992,2.5329999999999977 0.7331000000000003,2.5181000000000004 0.7353000000000023,2.506000000000004 0.7308999999999983,2.5029000000000003 0.735199999999999,2.493000000000002 0.7216000000000022,2.4680999999999997 0.7239999999999966,2.4453999999999994 0.7393000000000001,2.4278000000000013 0.7620999999999967,2.412300000000002 0.7669999999999959,2.3962000000000003 0.7580999999999989,2.3729000000000013 0.7081999999999979,2.3653000000000013 0.6959000000000017,2.349700000000002 0.7042000000000002,2.3229000000000006 0.7235999999999976,2.3157999999999994 0.7511999999999972,2.3124000000000002 0.7766999999999982,2.3202 0.795499999999997,2.3377000000000017 0.8145000000000024,2.3473000000000006 0.8365000000000009,2.329900000000002 0.899799999999999,2.306799999999999 0.9461999999999975,2.3069999999999986 0.9643999999999977,2.290700000000001 0.9613999999999976,2.2546 0.9495999999999967,2.2388000000000012 0.8992000000000004,2.2376000000000005 0.8566000000000003,2.2227999999999994 0.8042999999999978,2.1784999999999997 0.757399999999997,2.1593000000000018 0.7408000000000001,2.1468999999999987 0.7102999999999966,2.1187000000000005 0.6856999999999971,2.0858999999999988 0.6768999999999963,2.048300000000001 0.6813000000000002,2.0076 0.6775999999999982,1.9902000000000015 0.6574999999999989,1.9575999999999993 0.6353999999999971,1.9330999999999996 0.6158999999999963,1.8995999999999995 0.6186999999999969,1.8796999999999997 0.6298999999999992,1.8641000000000005 0.6458999999999975,1.8526999999999987 0.6707999999999998,1.8470000000000013 0.7162000000000006,1.8521 0.7580999999999989,1.8611000000000004 0.8566999999999965,1.8550000000000004 0.8778000000000006,1.8643999999999998 0.8917000000000002,1.8615999999999993 0.955999999999996,1.8701000000000008 0.9707000000000008,1.877600000000001 1.024799999999999,1.927299999999999 1.0572000000000017,1.9395999999999987 1.0904000000000025,1.9604 1.125700000000002,1.9872000000000014 1.1415000000000006,1.9920000000000009 1.2075999999999993,1.9910999999999994 1.207099999999997,1.922699999999999 1.2034999999999982,1.9024999999999999 1.187100000000001,1.8622000000000014 1.1268999999999991,1.7675000000000018 1.1218000000000004,1.747399999999999 1.1332000000000022,1.725999999999999 1.1777999999999977,1.674400000000002 1.1858000000000004,1.6597000000000008 1.1907999999999959,1.6388999999999996 1.1918000000000006,1.6233000000000004 1.1788000000000025,1.5793 1.1405999999999992,1.528500000000001 1.136499999999998,1.5080999999999989 1.1388999999999996,1.4919000000000011 1.1471000000000018,1.4724000000000004 1.1469999999999985,1.4516999999999989 1.1296999999999997,1.4379999999999988 1.092100000000002,1.416800000000002 1.0653999999999968,1.3659 1.065100000000001,1.3477999999999994 1.0700999999999965,1.3312999999999988 1.0649999999999977,1.3110999999999997 1.0457999999999998,1.3051999999999992 1.0309000000000026,1.2896 1.0221000000000018,1.2687999999999988 1.0219999999999985,1.2280000000000015 1.0078999999999994,1.1996000000000002 0.983399999999996,1.1609000000000016 0.9780999999999977,1.1386000000000003 0.9632000000000005,1.1266999999999996 0.9337000000000018,1.0774000000000008 0.9313000000000002,1.0609000000000002 0.9086999999999961,0.9700999999999986 0.9018000000000015,0.9522000000000013 0.8879999999999981,0.935100000000002 0.8840000000000003,0.9215000000000018 0.9185999999999979,0.8651000000000018 0.9238999999999962,0.849499999999999 0.9206999999999965,0.8376000000000019 0.8984999999999985,0.8163000000000018 0.8920999999999992,0.7990999999999993 0.8954999999999984,0.7790999999999997 0.8765000000000001,0.7424 0.9078000000000017,0.6219999999999999 0.8303999999999974,0.525500000000001 0.8095999999999961,0.453400000000002 0.8128000000000029,0.37519999999999953 0.783299999999997,0.3238000000000021 0.7787999999999968,0.3049999999999997 0.7817000000000007,0.2900999999999989 0.7787999999999968,0.2698999999999998 0.7616999999999976,0.20789999999999864 0.7618000000000009,0.17419999999999902 0.764400000000002,0.153100000000002 0.7646999999999977,0.13360000000000127 0.7515000000000001,0.11960000000000193 0.7336999999999989,0.10810000000000031 0.7184999999999988,0.09270000000000067 0.7077000000000027,0.07390000000000185 0.6980000000000004,0.05000000000000071 0.6918999999999969,0.05030000000000001 0.6871000000000009,0.05250000000000199 0.6829999999999998,0.043900000000000716 0.6773999999999987,0.04159999999999897 0.6730000000000018,0.03190000000000026 0.6707999999999998,0.03190000000000026 0.6640999999999977,0.026099999999999568 0.6632999999999996,0.023299999999998988 0.659399999999998,0.019999999999999574 0.659399999999998,0.015799999999998704 0.6512999999999991,0.008600000000001273 0.6512999999999991,0.006099999999999994 0.6469000000000023,0.0016999999999995907 0.6426999999999978,0.0 0.6174999999999997,0.025600000000000733 "></polygon>
    </svg>
    