
    <svg width="2.1114000000000033" height="1.5594999999999999" xmlns="http://www.w3.org/2000/svg" xmlns:xlink="http://www.w3.org/1999/xlink" style="transform: scale(1, -1)">
        <polygon points="1.3188999999999993,0.7957000000000001 1.3228000000000009,0.7990999999999993 1.3320000000000007,0.7992999999999988 1.3380999999999972,0.8027000000000015 1.3477999999999994,0.8034999999999997 1.3663999999999987,0.8170999999999999 1.3669999999999973,0.8199000000000005 1.3710999999999984,0.8201999999999998 1.3725000000000023,0.8216000000000001 1.3710999999999984,0.8227000000000011 1.3714000000000013,0.8265999999999991 1.3622999999999976,0.8288000000000011 1.3624999999999972,0.8309999999999995 1.3641999999999967,0.8295999999999992 1.3663999999999987,0.8329999999999984 1.3699999999999974,0.8295999999999992 1.3714000000000013,0.8295999999999992 1.3703000000000003,0.8321000000000005 1.3725000000000023,0.8326999999999991 1.372799999999998,0.8307000000000002 1.3748000000000005,0.8309999999999995 1.3759000000000015,0.8293999999999997 1.3778000000000006,0.8335000000000008 1.3823000000000008,0.8338000000000001 1.3836999999999975,0.8354999999999997 1.3870000000000005,0.8349000000000011 1.3864000000000019,0.8305000000000007 1.3883999999999972,0.8305000000000007 1.3881000000000014,0.8288000000000011 1.3825000000000003,0.8298999999999985 1.3772999999999982,0.8267999999999986 1.3795000000000002,0.8227000000000011 1.381999999999998,0.8224000000000018 1.3873000000000033,0.8243000000000009 1.3958999999999975,0.8307000000000002 1.4050000000000011,0.8312999999999988 1.4183999999999983,0.8424000000000014 1.4181000000000026,0.8455000000000013 1.4223,0.8505000000000003 1.4228000000000023,0.8535000000000004 1.4256000000000029,0.8537999999999997 1.4277999999999977,0.8584999999999994 1.4303000000000026,0.8577000000000012 1.4324999999999974,0.8610000000000007 1.435299999999998,0.8604999999999983 1.4344999999999999,0.8629999999999995 1.4369999999999976,0.8657000000000004 1.4358999999999966,0.8679999999999986 1.4455999999999989,0.866299999999999 1.4517000000000024,0.8674 1.4525000000000006,0.8690999999999995 1.4588999999999999,0.8671000000000006 1.4630999999999972,0.8685000000000009 1.4605999999999995,0.8621000000000016 1.4617000000000004,0.8552 1.4664000000000001,0.8549000000000007 1.4634,0.8505000000000003 1.4677999999999969,0.8462999999999994 1.4714000000000027,0.8457000000000008 1.4724999999999966,0.8438000000000017 1.4791999999999987,0.8431999999999995 1.4814000000000007,0.8407000000000018 1.4836000000000027,0.8427000000000007 1.4864000000000033,0.8427000000000007 1.4861999999999966,0.8390999999999984 1.4823000000000022,0.8384999999999998 1.4859000000000009,0.8305000000000007 1.4902999999999977,0.8265999999999991 1.4945000000000022,0.8257000000000012 1.494799999999998,0.8234999999999992 1.4981000000000009,0.8241000000000014 1.5035999999999987,0.8204999999999991 1.5095000000000027,0.8204999999999991 1.5137,0.8185000000000002 1.5144999999999982,0.815999999999999 1.5345000000000013,0.8194000000000017 1.5463999999999984,0.8267999999999986 1.5544999999999973,0.8288000000000011 1.559199999999997,0.8265999999999991 1.5589000000000013,0.8224000000000018 1.5559000000000012,0.8218999999999994 1.5570000000000022,0.8185000000000002 1.5531000000000006,0.8166000000000011 1.5519999999999996,0.8088000000000015 1.5497999999999976,0.8065999999999995 1.5506000000000029,0.8027000000000015 1.549199999999999,0.8023999999999987 1.5519999999999996,0.8020999999999994 1.552500000000002,0.8002000000000002 1.5495000000000019,0.7988 1.5489000000000033,0.7971000000000004 1.5508999999999986,0.7959999999999994 1.548099999999998,0.793800000000001 1.549199999999999,0.7881999999999998 1.5474999999999994,0.7874000000000017 1.5461000000000027,0.7799000000000014 1.5478000000000023,0.7762999999999991 1.5459000000000032,0.7759999999999998 1.5456000000000003,0.7630000000000017 1.546999999999997,0.7595999999999989 1.5456000000000003,0.7506999999999984 1.5484000000000009,0.7469000000000001 1.548099999999998,0.7445999999999984 1.5495000000000019,0.7442999999999991 1.548099999999998,0.7398999999999987 1.5533999999999963,0.7235000000000014 1.5589000000000013,0.7099000000000011 1.5606000000000009,0.7092999999999989 1.5598000000000027,0.7005000000000017 1.5611000000000033,0.6966000000000001 1.5630999999999986,0.6960000000000015 1.567300000000003,0.6824000000000012 1.5703000000000031,0.6777000000000015 1.5720000000000027,0.6681999999999988 1.5750000000000028,0.666599999999999 1.5750000000000028,0.6624000000000017 1.5786999999999978,0.6570999999999998 1.5786999999999978,0.6529999999999987 1.5803000000000011,0.6524000000000001 1.5814000000000021,0.6538000000000004 1.5827999999999989,0.6488000000000014 1.5867000000000004,0.6498999999999988 1.5867000000000004,0.6479999999999997 1.5825000000000031,0.6474000000000011 1.5825000000000031,0.6457000000000015 1.5859000000000023,0.6465999999999994 1.5855999999999995,0.644400000000001 1.5884,0.6432000000000002 1.5884,0.6416000000000004 1.5820000000000007,0.6399000000000008 1.5816999999999979,0.6349000000000018 1.5848000000000013,0.6343999999999994 1.5837000000000003,0.6324000000000005 1.5852999999999966,0.6298999999999992 1.5842000000000027,0.6293000000000006 1.5850000000000009,0.6268999999999991 1.5912000000000006,0.6265999999999998 1.5885999999999996,0.6230000000000011 1.5912000000000006,0.6118999999999986 1.590600000000002,0.6068999999999996 1.5938999999999979,0.6009999999999991 1.5927999999999969,0.5974000000000004 1.5953000000000017,0.5968000000000018 1.6081000000000003,0.6006999999999998 1.6064000000000007,0.6056999999999988 1.609499999999997,0.6005000000000003 1.5942000000000007,0.5951999999999984 1.5944999999999965,0.5915999999999997 1.5960999999999999,0.5913000000000004 1.597299999999997,0.5884999999999998 1.5955999999999975,0.5846000000000018 1.5966999999999985,0.5785000000000018 1.5949999999999989,0.5777000000000001 1.5966999999999985,0.5701999999999998 1.5949999999999989,0.5685000000000002 1.598700000000001,0.5692999999999984 1.599499999999999,0.5682000000000009 1.5966999999999985,0.5607000000000006 1.5989000000000004,0.5605000000000011 1.5989000000000004,0.5574000000000012 1.6034000000000006,0.5532000000000004 1.6019999999999968,0.5496000000000016 1.6052999999999997,0.5504999999999995 1.6073000000000022,0.5485000000000007 1.6086000000000027,0.5398999999999994 1.610599999999998,0.5393000000000008 1.618699999999997,0.5424000000000007 1.616100000000003,0.5482000000000014 1.6169999999999973,0.5488 1.6212000000000018,0.5391000000000012 1.6180999999999983,0.5410000000000004 1.610599999999998,0.5384999999999991 1.6122999999999976,0.535499999999999 1.609499999999997,0.5335000000000001 1.6103000000000023,0.5269000000000013 1.619799999999998,0.5265999999999984 1.6206000000000031,0.5234999999999985 1.623899999999999,0.5215999999999994 1.6214000000000013,0.5198999999999998 1.6184000000000012,0.5241000000000007 1.6120000000000019,0.5229999999999997 1.6131000000000029,0.5184999999999995 1.6173000000000002,0.5173999999999985 1.6163999999999987,0.5152000000000001 1.6206000000000031,0.5149000000000008 1.6203000000000003,0.5137999999999998 1.6180999999999983,0.5146000000000015 1.6195000000000022,0.5121000000000002 1.6148000000000025,0.5123999999999995 1.615000000000002,0.5057000000000009 1.6174999999999997,0.5057000000000009 1.6225000000000023,0.5173999999999985 1.623899999999999,0.5170999999999992 1.6225000000000023,0.5143999999999984 1.6231000000000009,0.5137999999999998 1.6302999999999983,0.5173999999999985 1.6289000000000016,0.519400000000001 1.6302999999999983,0.5201999999999991 1.633899999999997,0.5135000000000005 1.6300000000000026,0.5163000000000011 1.6233999999999966,0.5132000000000012 1.621699999999997,0.5123999999999995 1.618699999999997,0.5048999999999992 1.6158999999999963,0.5045999999999999 1.6178000000000026,0.49599999999999866 1.6169999999999973,0.49409999999999954 1.6195000000000022,0.49210000000000065 1.6174999999999997,0.48989999999999867 1.6214000000000013,0.48300000000000054 1.6214000000000013,0.47850000000000037 1.6274999999999977,0.4613000000000014 1.6295000000000002,0.4576999999999991 1.6323000000000008,0.4562999999999988 1.6311999999999998,0.4543999999999997 1.6325000000000003,0.44849999999999923 1.6383999999999972,0.4405000000000001 1.639800000000001,0.43599999999999994 1.6433999999999997,0.43629999999999924 1.6413999999999973,0.43299999999999983 1.6552999999999969,0.42320000000000135 1.6634000000000029,0.41300000000000026 1.6691999999999965,0.3934999999999995 1.6803000000000026,0.38429999999999964 1.6895000000000024,0.38019999999999854 1.6899999999999977,0.37819999999999965 1.6886999999999972,0.3777000000000008 1.692300000000003,0.37320000000000064 1.7013999999999996,0.36769999999999925 1.7175000000000011,0.36159999999999926 1.7402999999999977,0.35960000000000036 1.7473000000000027,0.3556999999999988 1.7413999999999987,0.34299999999999997 1.743699999999997,0.3407000000000018 1.7419999999999973,0.3396000000000008 1.7419999999999973,0.3356999999999992 1.7387000000000015,0.3349000000000011 1.7374999999999972,0.3298999999999985 1.7387000000000015,0.30180000000000007 1.7370000000000019,0.2856999999999985 1.7430999999999983,0.2710000000000008 1.755899999999997,0.2515999999999998 1.7759,0.23689999999999856 1.803600000000003,0.22210000000000107 1.8205999999999989,0.21740000000000137 1.8359000000000023,0.21740000000000137 1.853900000000003,0.2198999999999991 1.8541999999999987,0.21770000000000067 1.8519999999999968,0.21709999999999852 1.8489000000000004,0.20990000000000109 1.8498000000000019,0.20690000000000097 1.847299999999997,0.20690000000000097 1.847299999999997,0.20459999999999923 1.8447999999999993,0.2035000000000018 1.8397999999999968,0.19209999999999994 1.8399999999999963,0.18570000000000064 1.8384,0.18270000000000053 1.8442000000000007,0.18159999999999954 1.8455999999999975,0.17940000000000111 1.8434000000000026,0.17739999999999867 1.8397999999999968,0.17940000000000111 1.8380999999999972,0.17849999999999966 1.8359000000000023,0.17190000000000083 1.8370000000000033,0.16850000000000165 1.8474999999999966,0.16910000000000025 1.8466999999999985,0.16710000000000136 1.837299999999999,0.16769999999999996 1.8370000000000033,0.16550000000000153 1.8408999999999978,0.15630000000000166 1.8453000000000017,0.1526999999999994 1.847299999999997,0.1451999999999991 1.8511000000000024,0.1396000000000015 1.8492000000000033,0.1387999999999998 1.8489000000000004,0.13319999999999865 1.8506,0.13269999999999982 1.8481000000000023,0.12239999999999895 1.8513999999999982,0.10989999999999966 1.8492000000000033,0.10600000000000165 1.8492000000000033,0.10989999999999966 1.8455999999999975,0.11019999999999897 1.8434000000000026,0.0948999999999991 1.8444999999999965,0.09179999999999922 1.8477999999999994,0.09159999999999968 1.848700000000001,0.08070000000000022 1.8466999999999985,0.08460000000000178 1.8455999999999975,0.08460000000000178 1.8460999999999999,0.08160000000000167 1.8558999999999983,0.07069999999999865 1.8562000000000012,0.060199999999998255 1.8588999999999984,0.05679999999999907 1.8581000000000003,0.051300000000001234 1.859499999999997,0.047699999999998965 1.8703000000000003,0.03409999999999869 1.8744999999999976,0.030999999999998806 1.8759000000000015,0.0257000000000005 1.8795000000000002,0.023499999999998522 1.8811999999999998,0.018000000000000682 1.8866999999999976,0.011299999999998533 1.1619000000000028,0.0 1.166400000000003,0.01869999999999905 1.1114000000000033,0.07130000000000081 1.0934999999999988,0.10460000000000136 1.0628000000000029,0.1305000000000014 1.0508999999999986,0.1664999999999992 1.048099999999998,0.1833999999999989 1.0482999999999976,0.2029999999999994 1.0553000000000026,0.23229999999999862 1.0551999999999992,0.23710000000000164 1.0542000000000016,0.2508000000000017 1.0420999999999978,0.3111999999999995 1.0120999999999967,0.3474000000000004 0.9968999999999966,0.3752999999999993 0.9669000000000025,0.41000000000000014 0.953400000000002,0.44229999999999947 0.9226000000000028,0.47550000000000026 0.7248999999999981,0.49739999999999895 0.6612000000000009,0.5029000000000003 0.6137999999999977,0.5106000000000002 0.45170000000000243,0.5284000000000013 0.40559999999999974,0.5319000000000003 0.39039999999999964,0.5355999999999987 0.2984999999999971,0.543800000000001 0.2400999999999982,0.5517000000000003 0.02049999999999841,0.5756000000000014 0.006399999999999295,0.5757000000000012 0.0,0.573599999999999 0.0730000000000004,0.6442000000000014 0.0823999999999998,0.6419999999999995 0.10390000000000299,0.6598000000000006 0.11480000000000246,0.6664999999999992 0.1477999999999966,0.7058999999999997 0.28520000000000323,0.9091999999999985 0.31629999999999825,0.9513999999999996 0.3755000000000024,1.0256000000000007 0.3873999999999995,1.0350000000000001 0.3977000000000004,1.0473 0.4388000000000005,1.1217000000000006 0.5052000000000021,1.2698 0.5540999999999983,1.3877999999999986 0.5863000000000014,1.4502999999999986 0.5992999999999995,1.4666999999999994 0.6274000000000015,1.4909 0.6565999999999974,1.5066999999999986 0.8085000000000022,1.5573000000000015 1.1888000000000005,1.5594999999999999 1.2963000000000022,1.5244999999999997 1.3451999999999984,1.5104000000000006 1.377600000000001,1.5043000000000006 1.3995999999999995,1.4964000000000013 1.4106000000000023,1.4956999999999994 1.4114000000000004,1.4860000000000007 1.4136000000000024,1.4857000000000014 1.4127999999999972,1.4837999999999987 1.415300000000002,1.4834999999999994 1.4149999999999991,1.4806999999999988 1.4217000000000013,1.475200000000001 1.433399999999999,1.471 1.4705999999999975,1.4644000000000013 1.4686999999999983,1.4505000000000017 1.4652999999999992,1.4418000000000006 1.4658999999999978,1.4334999999999987 1.4831000000000003,1.4207 1.478900000000003,1.4070999999999998 1.478900000000003,1.3899000000000008 1.473700000000001,1.3780000000000001 1.4686999999999983,1.3543999999999983 1.4709000000000003,1.334900000000001 1.4791999999999987,1.309899999999999 1.4874999999999972,1.2918999999999983 1.497799999999998,1.2748999999999988 1.5056000000000012,1.2543000000000006 1.5095000000000027,1.2501999999999995 1.5131000000000014,1.2402000000000015 1.5197999999999965,1.235199999999999 1.5330999999999975,1.2310000000000016 1.5375000000000014,1.221 1.5399999999999991,1.221 1.5409000000000006,1.218 1.5424999999999969,1.218 1.5431000000000026,1.2207000000000008 1.5489000000000033,1.2174000000000014 1.5495000000000019,1.2194000000000003 1.552500000000002,1.2188000000000017 1.5634000000000015,1.2079999999999984 1.5623000000000005,1.1834999999999987 1.5660999999999987,1.1707 1.5728000000000009,1.1624000000000017 1.5808999999999997,1.141300000000001 1.5885999999999996,1.1324000000000005 1.5977999999999994,1.1118999999999986 1.6049999999999969,1.103200000000001 1.6058999999999983,1.097999999999999 1.6092000000000013,1.0957000000000008 1.6103000000000023,1.0877000000000017 1.6148000000000025,1.0748999999999995 1.616100000000003,1.0746000000000002 1.622799999999998,1.0615999999999985 1.6311999999999998,1.0513000000000012 1.6330999999999989,1.0462999999999987 1.640900000000002,1.0502000000000002 1.6411000000000016,1.0520999999999994 1.643099999999997,1.049900000000001 1.6413999999999973,1.0479999999999983 1.6456000000000017,1.0488 1.6473000000000013,1.0469000000000008 1.6439000000000021,1.0469000000000008 1.6353000000000009,1.0427 1.6492000000000004,1.0221000000000018 1.6387,1.0099000000000018 1.6387,1.003499999999999 1.6325000000000003,0.9990999999999985 1.6317000000000021,0.9949000000000012 1.6270000000000024,0.9871000000000016 1.623899999999999,0.9868999999999986 1.615000000000002,0.9994000000000014 1.6088999999999984,1.0031999999999996 1.6088999999999984,1.005700000000001 1.5974999999999966,1.0099000000000018 1.5947999999999993,1.0137999999999998 1.5852999999999966,1.0187999999999988 1.5859000000000023,1.0204999999999984 1.5837000000000003,1.0196000000000005 1.5705999999999989,1.0279999999999987 1.5594999999999999,1.0326999999999984 1.5230999999999995,1.0424000000000007 1.4898000000000025,1.0485000000000007 1.4724999999999966,1.0485000000000007 1.4587000000000003,1.0459999999999994 1.447499999999998,1.0469000000000008 1.4427999999999983,1.043800000000001 1.4262000000000015,1.0391000000000012 1.4016999999999982,1.0290999999999997 1.3680999999999983,1.0121000000000002 1.3203000000000031,0.9834999999999994 1.3119999999999976,0.9766000000000012 1.3089000000000013,0.9756999999999998 1.308399999999999,0.9735000000000014 1.2956000000000003,0.9637999999999991 1.2939000000000007,0.9644000000000013 1.2774999999999963,0.9501999999999988 1.2708999999999975,0.9470999999999989 1.2620000000000005,0.9395999999999987 1.2603000000000009,0.9399000000000015 1.258899999999997,0.9351999999999983 1.2550000000000026,0.9320999999999984 1.2417000000000016,0.9130000000000003 1.2291999999999987,0.9021000000000008 1.223399999999998,0.8923999999999985 1.214500000000001,0.8880000000000017 1.2070000000000007,0.8720999999999997 1.2047999999999988,0.872399999999999 1.2017000000000024,0.8695999999999984 1.2008999999999972,0.872399999999999 1.198599999999999,0.8734999999999999 1.2006000000000014,0.8770999999999987 1.197499999999998,0.8801999999999985 1.1875,0.8793000000000006 1.1728000000000023,0.8709999999999987 1.1711000000000027,0.8546000000000014 1.1602999999999994,0.8532000000000011 1.161999999999999,0.8413000000000004 1.1655999999999977,0.8373999999999988 1.1781000000000006,0.8356999999999992 1.1844999999999999,0.8401999999999994 1.1886999999999972,0.8404999999999987 1.1931000000000012,0.8445999999999998 1.197499999999998,0.8451999999999984 1.2008999999999972,0.8481999999999985 1.2092000000000027,0.8505000000000003 1.2105999999999995,0.8521000000000001 1.2188999999999979,0.8493999999999993 1.2205999999999975,0.8469000000000015 1.2295000000000016,0.8455000000000013 1.2383999999999986,0.847999999999999 1.2398000000000025,0.8521000000000001 1.2505999999999986,0.854099999999999 1.2505999999999986,0.847999999999999 1.2524999999999977,0.8462999999999994 1.256999999999998,0.8491 1.2620000000000005,0.8465999999999987 1.2772999999999968,0.8530000000000015 1.2772999999999968,0.8543999999999983 1.2899999999999991,0.8577000000000012 1.2897999999999996,0.8610000000000007 1.2909000000000006,0.8594000000000008 1.2948000000000022,0.8604999999999983 1.2948000000000022,0.8641000000000005 1.2909000000000006,0.8657000000000004 1.2924999999999969,0.8669000000000011 1.291400000000003,0.8688000000000002 1.2920000000000016,0.8695999999999984 1.2967000000000013,0.8618999999999986 1.2984000000000009,0.8618999999999986 1.298099999999998,0.8641000000000005 1.307299999999998,0.8618999999999986 1.3066999999999993,0.8598999999999997 1.3089000000000013,0.856300000000001 1.3042000000000016,0.8573999999999984 1.3019999999999996,0.8543999999999983 1.2920000000000016,0.8499000000000017 1.2822999999999993,0.8394000000000013 1.2787000000000006,0.8387999999999991 1.2839000000000027,0.8285000000000018 1.2822999999999993,0.8156999999999996 1.2834000000000003,0.8084999999999987 1.2819999999999965,0.8065999999999995 1.286200000000001,0.8040999999999983 1.2867000000000033,0.8013000000000012 1.290300000000002,0.7996000000000016 1.3055999999999983,0.7957000000000001 1.3188999999999993,0.7957000000000001 "></polygon><polygon points="1.5533999999999963,1.2354999999999983 1.5559000000000012,1.2334999999999994 1.556199999999997,1.2256999999999998 1.5499999999999972,1.2296000000000014 1.5484000000000009,1.2337999999999987 1.549199999999999,1.2363 1.5533999999999963,1.2354999999999983 "></polygon><polygon points="1.515900000000002,1.2438000000000002 1.5217000000000027,1.2384999999999984 1.5249999999999986,1.2371000000000016 1.5195000000000007,1.2384999999999984 1.5144999999999982,1.2426999999999992 1.5144999999999982,1.2445999999999984 1.515900000000002,1.2438000000000002 "></polygon><polygon points="1.5195000000000007,1.2660000000000018 1.517000000000003,1.2637999999999998 1.517000000000003,1.2621000000000002 1.5183999999999997,1.2621000000000002 1.518099999999997,1.2562999999999995 1.5174999999999983,1.253499999999999 1.5161999999999978,1.2531999999999996 1.5142000000000024,1.2562999999999995 1.5155999999999992,1.2626999999999988 1.5123000000000033,1.2630000000000017 1.5125000000000028,1.2666000000000004 1.5185999999999993,1.2682000000000002 1.5195000000000007,1.2660000000000018 "></polygon><polygon points="1.2511999999999972,0.8610000000000007 1.2533999999999992,0.860199999999999 1.2552999999999983,0.8627000000000002 1.2575000000000003,0.8627000000000002 1.254800000000003,0.8587999999999987 1.2573000000000008,0.8587999999999987 1.2584000000000017,0.8610000000000007 1.2595000000000027,0.8573999999999984 1.2573000000000008,0.8537999999999997 1.2528000000000006,0.8566000000000003 1.2494999999999976,0.8631999999999991 1.2511999999999972,0.8610000000000007 "></polygon><polygon points="1.3239000000000019,0.8665999999999983 1.3252999999999986,0.8634999999999984 1.3297999999999988,0.8634999999999984 1.3297999999999988,0.856300000000001 1.311399999999999,0.8516000000000012 1.3111000000000033,0.854099999999999 1.3166999999999973,0.8543999999999983 1.3181000000000012,0.8566000000000003 1.3198000000000008,0.8556999999999988 1.319499999999998,0.8568999999999996 1.3228000000000009,0.8577000000000012 1.3200000000000003,0.8610000000000007 1.323599999999999,0.8615999999999993 1.3241999999999976,0.8634999999999984 1.3220000000000027,0.8671000000000006 1.3239000000000019,0.8665999999999983 "></polygon><polygon points="1.4994999999999976,1.2927 1.5011999999999972,1.2924000000000007 1.5016999999999996,1.2896 1.5039000000000016,1.2880000000000003 1.5030999999999963,1.2866 1.5050000000000026,1.2806999999999995 1.5080999999999989,1.2748999999999988 1.5103000000000009,1.2745999999999995 1.5114000000000019,1.2696000000000005 1.5073000000000008,1.2687999999999988 1.5073000000000008,1.2721000000000018 1.505899999999997,1.272400000000001 1.4998000000000005,1.2851999999999997 1.4973000000000027,1.2941000000000003 1.4994999999999976,1.2927 "></polygon><polygon points="1.4956000000000031,1.3107000000000006 1.5028000000000006,1.3049 1.5206000000000017,1.306000000000001 1.534799999999997,1.3013000000000012 1.5330999999999975,1.2870999999999988 1.5142000000000024,1.269400000000001 1.5011999999999972,1.2966000000000015 1.4938999999999965,1.3030000000000008 1.4917000000000016,1.3101999999999983 1.4928000000000026,1.3119000000000014 1.4956000000000031,1.3107000000000006 "></polygon><polygon points="1.5730999999999966,1.347999999999999 1.5711999999999975,1.3469000000000015 1.5748000000000033,1.3457000000000008 1.5750000000000028,1.343 1.569499999999998,1.346 1.5653000000000006,1.346 1.5677999999999983,1.3485000000000014 1.5733999999999995,1.3499000000000017 1.5730999999999966,1.347999999999999 "></polygon><polygon points="1.5611000000000033,1.3615999999999993 1.5703000000000031,1.3584999999999994 1.5703000000000031,1.3560000000000016 1.5686999999999998,1.3556999999999988 1.568399999999997,1.357099999999999 1.5653000000000006,1.3552 1.5606000000000009,1.3560000000000016 1.558399999999999,1.3493999999999993 1.5506000000000029,1.3462999999999994 1.5474999999999994,1.347100000000001 1.5497999999999976,1.3535000000000004 1.5544999999999973,1.3552 1.552500000000002,1.3554999999999993 1.552500000000002,1.3580000000000005 1.5587000000000018,1.362400000000001 1.5611000000000033,1.3615999999999993 "></polygon><polygon points="1.5381,1.3648999999999987 1.5399999999999991,1.3613 1.5373000000000019,1.3604999999999983 1.5356000000000023,1.3641000000000005 1.5367000000000033,1.3657000000000004 1.5381,1.3648999999999987 "></polygon><polygon points="2.110900000000001,0.1576999999999984 2.1114000000000033,0.15459999999999852 2.1077999999999975,0.1521000000000008 2.1081000000000003,0.15800000000000125 2.110900000000001,0.1576999999999984 "></polygon><polygon points="1.9527999999999963,0.5485000000000007 1.9513999999999996,0.5448999999999984 1.9470000000000027,0.5457000000000001 1.9489000000000019,0.5493999999999986 1.9527999999999963,0.5485000000000007 "></polygon><polygon points="1.9003000000000014,0.8530000000000015 1.8973000000000013,0.8512999999999984 1.8945000000000007,0.8516000000000012 1.8947999999999965,0.8537999999999997 1.8973000000000013,0.8552 1.9005999999999972,0.8546000000000014 1.9003000000000014,0.8530000000000015 "></polygon><polygon points="1.7708999999999975,0.9501999999999988 1.7738999999999976,0.9405000000000001 1.7800000000000011,0.9406999999999996 1.7794999999999987,0.9359999999999999 1.7830999999999975,0.9345999999999997 1.7894999999999968,0.9357000000000006 1.7899999999999991,0.9334999999999987 1.7927999999999997,0.9334999999999987 1.7963999999999984,0.9296000000000006 1.8128000000000029,0.9268999999999998 1.8170000000000002,0.9221000000000004 1.8209000000000017,0.9209999999999994 1.8241999999999976,0.9143000000000008 1.8310999999999993,0.9093000000000018 1.8310999999999993,0.9070999999999998 1.8344999999999985,0.9038000000000004 1.8611999999999966,0.8841000000000001 1.8603000000000023,0.8716000000000008 1.8622999999999976,0.8692999999999991 1.8588999999999984,0.8676999999999992 1.8427999999999969,0.8679999999999986 1.8350000000000009,0.8730000000000011 1.8327999999999989,0.8720999999999997 1.8325000000000031,0.8737999999999992 1.8292000000000002,0.8740999999999985 1.8288999999999973,0.8760000000000012 1.8186999999999998,0.8768999999999991 1.818399999999997,0.8807000000000009 1.810299999999998,0.8873999999999995 1.809199999999997,0.8917999999999999 1.7997999999999976,0.8967999999999989 1.7961000000000027,0.9012999999999991 1.7924999999999969,0.9019000000000013 1.7924999999999969,0.9032000000000018 1.7886000000000024,0.9026999999999994 1.784799999999997,0.8998999999999988 1.778100000000002,0.9059999999999988 1.7755999999999972,0.9059999999999988 1.7661999999999978,0.9019000000000013 1.7511999999999972,0.9076999999999984 1.746699999999997,0.9076999999999984 1.7319999999999993,0.9026999999999994 1.724499999999999,0.9045999999999985 1.7291999999999987,0.9209999999999994 1.7336000000000027,0.9273999999999987 1.7331000000000003,0.9299 1.7445000000000022,0.9451999999999998 1.7524999999999977,0.9463000000000008 1.7541999999999973,0.9440999999999988 1.7595000000000027,0.9440999999999988 1.765900000000002,0.9466000000000001 1.7678000000000011,0.9510000000000005 1.7708999999999975,0.9501999999999988 "></polygon><polygon points="1.7109000000000023,0.9637999999999991 1.7134,0.9606999999999992 1.7128000000000014,0.9576999999999991 1.7070000000000007,0.9599000000000011 1.704500000000003,0.9640999999999984 1.7098000000000013,0.9649000000000001 1.7109000000000023,0.9637999999999991 "></polygon><polygon points="1.6152999999999977,1.459299999999999 1.6567000000000007,1.447700000000001 1.6728000000000023,1.4402000000000008 1.7319999999999993,1.3957000000000015 1.7530999999999963,1.3777000000000008 1.7552999999999983,1.3737999999999992 1.7492000000000019,1.3796 1.7306000000000026,1.3904999999999994 1.728900000000003,1.3937999999999988 1.7197999999999993,1.3981999999999992 1.6809000000000012,1.4313000000000002 1.6681000000000026,1.4390999999999998 1.6659000000000006,1.4390999999999998 1.6805999999999983,1.4294000000000011 1.6914000000000016,1.4171000000000014 1.7438999999999965,1.3719000000000001 1.759999999999998,1.3506999999999998 1.7856000000000023,1.311 1.7974999999999994,1.2896 1.803600000000003,1.2835 1.8111000000000033,1.2802000000000007 1.8136999999999972,1.2795999999999985 1.807299999999998,1.2856999999999985 1.8164000000000016,1.281600000000001 1.8181000000000012,1.2826999999999984 1.8186999999999998,1.2813000000000017 1.8233999999999995,1.2806999999999995 1.8269999999999982,1.278500000000001 1.830599999999997,1.2721000000000018 1.8316999999999979,1.2494000000000014 1.8355999999999995,1.237400000000001 1.8352999999999966,1.225200000000001 1.8327999999999989,1.2157000000000018 1.8209000000000017,1.1876999999999995 1.803600000000003,1.159600000000001 1.7798000000000016,1.1326999999999998 1.7158999999999978,1.074300000000001 1.705599999999997,1.0673999999999992 1.6816999999999993,1.0570999999999984 1.6649999999999991,1.0579999999999998 1.6524999999999963,1.061 1.6413999999999973,1.0687999999999995 1.6347999999999985,1.0774000000000008 1.620899999999999,1.1026999999999987 1.6056000000000026,1.1437999999999988 1.6049999999999969,1.1484999999999985 1.6006,1.1570999999999998 1.5878000000000014,1.1746000000000016 1.5885999999999996,1.1754999999999995 1.5769999999999982,1.1841000000000008 1.5730999999999966,1.1951999999999998 1.5728000000000009,1.209299999999999 1.5638999999999967,1.222999999999999 1.5647999999999982,1.2346000000000004 1.5570000000000022,1.2395999999999994 1.5484000000000009,1.2405000000000008 1.5467000000000013,1.2426999999999992 1.529200000000003,1.243500000000001 1.5219999999999985,1.2510000000000012 1.5213999999999999,1.2668999999999997 1.524799999999999,1.2707000000000015 1.5328000000000017,1.2757000000000005 1.5202999999999989,1.2707000000000015 1.5185999999999993,1.2704999999999984 1.5174999999999983,1.2707000000000015 1.5328000000000017,1.2826999999999984 1.5352999999999994,1.2870999999999988 1.5364000000000004,1.2979999999999983 1.5456000000000003,1.2982000000000014 1.5542000000000016,1.3023999999999987 1.5658999999999992,1.2985000000000007 1.5730999999999966,1.3004999999999995 1.5658999999999992,1.2996000000000016 1.5563999999999965,1.3034999999999997 1.552500000000002,1.3034999999999997 1.5459000000000032,1.299900000000001 1.5386000000000024,1.299900000000001 1.5287000000000006,1.306000000000001 1.529200000000003,1.3077000000000005 1.5067000000000021,1.3070999999999984 1.5013999999999967,1.3088000000000015 1.4883999999999986,1.3185000000000002 1.4883999999999986,1.324300000000001 1.4928000000000026,1.3293999999999997 1.4887000000000015,1.3316000000000017 1.4874999999999972,1.3356999999999992 1.4842000000000013,1.338000000000001 1.4831000000000003,1.3438000000000017 1.484499999999997,1.3469000000000015 1.4799999999999969,1.3537999999999997 1.4784000000000006,1.360199999999999 1.4797999999999973,1.3669000000000011 1.4814000000000007,1.3679999999999986 1.485599999999998,1.3669000000000011 1.4938999999999965,1.3535000000000004 1.5063999999999993,1.3420999999999985 1.5084000000000017,1.3424000000000014 1.5084000000000017,1.3457000000000008 1.515900000000002,1.3445999999999998 1.5300000000000011,1.3462999999999994 1.5427999999999997,1.3382000000000005 1.549199999999999,1.3384999999999998 1.548099999999998,1.3413000000000004 1.5538999999999987,1.3407000000000018 1.5611000000000033,1.3291000000000004 1.5698000000000008,1.3251999999999988 1.5675000000000026,1.3237999999999985 1.5698000000000008,1.3196000000000012 1.5703000000000031,1.322099999999999 1.5741999999999976,1.3213000000000008 1.577300000000001,1.3232 1.578400000000002,1.3199000000000005 1.5816999999999979,1.322700000000001 1.5844999999999985,1.316600000000001 1.5947999999999993,1.316600000000001 1.5977999999999994,1.3129999999999988 1.6000000000000014,1.3138000000000005 1.6011000000000024,1.3126999999999995 1.5977999999999994,1.3176999999999985 1.5889000000000024,1.3192999999999984 1.5859000000000023,1.3241000000000014 1.5762,1.3251999999999988 1.5763999999999996,1.3285000000000018 1.5730999999999966,1.3246000000000002 1.5730999999999966,1.3268999999999984 1.5703000000000031,1.3265999999999991 1.5703000000000031,1.328800000000001 1.5681000000000012,1.3293999999999997 1.569499999999998,1.3312999999999988 1.5655999999999963,1.3298999999999985 1.5630999999999986,1.3307000000000002 1.5608999999999966,1.3329999999999984 1.5606000000000009,1.3373999999999988 1.5563999999999965,1.3415999999999997 1.5581000000000031,1.3444000000000003 1.5625,1.3455000000000013 1.5666999999999973,1.344100000000001 1.5698000000000008,1.344899999999999 1.5709000000000017,1.3444000000000003 1.5703000000000031,1.3407000000000018 1.5720000000000027,1.3407000000000018 1.571399999999997,1.338000000000001 1.572499999999998,1.338000000000001 1.5820000000000007,1.3420999999999985 1.5756000000000014,1.3485000000000014 1.579500000000003,1.3499000000000017 1.5810999999999993,1.347100000000001 1.5897999999999968,1.347999999999999 1.591700000000003,1.343 1.5942000000000007,1.3413000000000004 1.5974999999999966,1.3413000000000004 1.5992000000000033,1.3394000000000013 1.6073000000000022,1.3407000000000018 1.6128,1.3354999999999997 1.6137000000000015,1.3309999999999995 1.616100000000003,1.3285000000000018 1.6148000000000025,1.322700000000001 1.6206000000000031,1.3162999999999982 1.6270000000000024,1.3131999999999984 1.6255999999999986,1.3107000000000006 1.6266999999999996,1.3063000000000002 1.6334000000000017,1.3023999999999987 1.631999999999998,1.3074000000000012 1.6364000000000019,1.3079999999999998 1.6323000000000008,1.312100000000001 1.6336999999999975,1.3149000000000015 1.6358999999999995,1.3155000000000001 1.634999999999998,1.3173999999999992 1.6375000000000028,1.3199000000000005 1.6370000000000005,1.322099999999999 1.6334000000000017,1.3168000000000006 1.6266999999999996,1.3180000000000014 1.6219999999999999,1.3216 1.6223000000000027,1.3248999999999995 1.6203000000000003,1.3268999999999984 1.6223000000000027,1.3265999999999991 1.6236000000000033,1.328199999999999 1.6242000000000019,1.331900000000001 1.6259000000000015,1.3316000000000017 1.6272999999999982,1.3354999999999997 1.6253000000000029,1.3401999999999994 1.6206000000000031,1.3413000000000004 1.6199999999999974,1.3399 1.6233999999999966,1.3382000000000005 1.6191999999999993,1.3394000000000013 1.6188999999999965,1.3431999999999995 1.620899999999999,1.3438000000000017 1.6156000000000006,1.3431999999999995 1.6077999999999975,1.3469000000000015 1.598399999999998,1.344899999999999 1.598399999999998,1.3474000000000004 1.5955999999999975,1.3476999999999997 1.5953000000000017,1.350200000000001 1.5859000000000023,1.3530000000000015 1.5870000000000033,1.356300000000001 1.5848000000000013,1.3573999999999984 1.5769999999999982,1.3556999999999988 1.5741999999999976,1.3506999999999998 1.5681000000000012,1.3506999999999998 1.5553000000000026,1.3457000000000008 1.5617000000000019,1.3485000000000014 1.5623000000000005,1.3546000000000014 1.5658999999999992,1.3549000000000007 1.5681000000000012,1.3526999999999987 1.568399999999997,1.354099999999999 1.5711999999999975,1.353200000000001 1.5728000000000009,1.3580000000000005 1.577300000000001,1.357099999999999 1.589500000000001,1.3594000000000008 1.5944999999999965,1.3566000000000003 1.603900000000003,1.357099999999999 1.603900000000003,1.3587999999999987 1.6019999999999968,1.3580000000000005 1.6009000000000029,1.3615999999999993 1.5977999999999994,1.362400000000001 1.5992000000000033,1.3634999999999984 1.6088999999999984,1.3573999999999984 1.6180999999999983,1.362400000000001 1.6195000000000022,1.3655000000000008 1.6244999999999976,1.366299999999999 1.6261999999999972,1.3652000000000015 1.6255999999999986,1.3604999999999983 1.6278000000000006,1.3573999999999984 1.6263999999999967,1.3560000000000016 1.6280999999999963,1.3546000000000014 1.6280999999999963,1.350999999999999 1.6266999999999996,1.3505000000000003 1.6274999999999977,1.346 1.6345000000000027,1.3415999999999997 1.634999999999998,1.3434999999999988 1.6366999999999976,1.3434999999999988 1.6387,1.3407000000000018 1.6377999999999986,1.3457000000000008 1.6417000000000002,1.3462999999999994 1.6311999999999998,1.3488000000000007 1.6328000000000031,1.3526999999999987 1.6313999999999993,1.3591000000000015 1.6341999999999999,1.3615999999999993 1.636099999999999,1.3591000000000015 1.6388999999999996,1.3598999999999997 1.6387,1.3618999999999986 1.633899999999997,1.3638000000000012 1.6334000000000017,1.3669000000000011 1.6469999999999985,1.3699000000000012 1.6452999999999989,1.3732000000000006 1.6477999999999966,1.3732000000000006 1.6516999999999982,1.3798999999999992 1.6533999999999978,1.3801999999999985 1.6552999999999969,1.3866000000000014 1.6585999999999999,1.3887999999999998 1.660899999999998,1.3880000000000017 1.6623000000000019,1.3916000000000004 1.6674999999999969,1.3918999999999997 1.665300000000002,1.3920999999999992 1.6655999999999977,1.3932000000000002 1.6572999999999993,1.3920999999999992 1.6602999999999994,1.3971000000000018 1.6561999999999983,1.3963 1.6550000000000011,1.3981999999999992 1.6537000000000006,1.394400000000001 1.653100000000002,1.3991000000000007 1.6516999999999982,1.3971000000000018 1.649799999999999,1.3988000000000014 1.6492000000000004,1.3965999999999994 1.6480999999999995,1.4059999999999988 1.6462000000000003,1.4059999999999988 1.6447999999999965,1.409600000000001 1.6445000000000007,1.4076999999999984 1.6422999999999988,1.4085 1.6422999999999988,1.403500000000001 1.6441999999999979,1.4002000000000017 1.6428000000000011,1.3948999999999998 1.6411000000000016,1.395199999999999 1.6405999999999992,1.3991000000000007 1.6387,1.400500000000001 1.6370000000000005,1.3998999999999988 1.6375000000000028,1.395199999999999 1.6364000000000019,1.3948999999999998 1.6364000000000019,1.397400000000001 1.6345000000000027,1.3988000000000014 1.6370000000000005,1.390699999999999 1.6334000000000017,1.391300000000001 1.6364000000000019,1.3893999999999984 1.6341999999999999,1.3882000000000012 1.6411000000000016,1.3805000000000014 1.6394999999999982,1.3740999999999985 1.6358999999999995,1.3726999999999983 1.6291999999999973,1.3744000000000014 1.6173000000000002,1.3713000000000015 1.6122999999999976,1.3669000000000011 1.6036999999999964,1.368500000000001 1.6047999999999973,1.3657000000000004 1.6002999999999972,1.3688000000000002 1.599499999999999,1.3719000000000001 1.5955999999999975,1.3704999999999998 1.6009000000000029,1.3763000000000005 1.5992000000000033,1.3899000000000008 1.6052999999999997,1.400500000000001 1.6052999999999997,1.4080000000000013 1.598700000000001,1.4120999999999988 1.589500000000001,1.4120999999999988 1.5820000000000007,1.4209999999999994 1.5767000000000024,1.4235000000000007 1.5792000000000002,1.4284999999999997 1.577300000000001,1.4338000000000015 1.5741999999999976,1.4357000000000006 1.5638999999999967,1.4362999999999992 1.5619999999999976,1.4402000000000008 1.5623000000000005,1.4444000000000017 1.5645000000000024,1.4510000000000005 1.5720000000000027,1.4555000000000007 1.5897999999999968,1.4596000000000018 1.6152999999999977,1.459299999999999 "></polygon><polygon points="1.6231000000000009,1.3359999999999985 1.625,1.3346000000000018 1.6225000000000023,1.3352000000000004 1.6223000000000027,1.3338 1.6203000000000003,1.3352000000000004 1.6199999999999974,1.3335000000000008 1.6191999999999993,1.334900000000001 1.6212000000000018,1.3377000000000017 1.6231000000000009,1.3359999999999985 "></polygon><polygon points="1.6452999999999989,1.3810000000000002 1.6439000000000021,1.379100000000001 1.6441999999999979,1.3831999999999987 1.6458999999999975,1.3829999999999991 1.6452999999999989,1.3810000000000002 "></polygon><polygon points="1.5942000000000007,1.3810000000000002 1.5955999999999975,1.3821000000000012 1.5970000000000013,1.3821000000000012 1.5970000000000013,1.3810000000000002 1.5942000000000007,1.3810000000000002 "></polygon><polygon points="1.6462000000000003,1.3902 1.6480999999999995,1.3918999999999997 1.6475000000000009,1.3866000000000014 1.6462000000000003,1.386800000000001 1.6462000000000003,1.3902 "></polygon><polygon points="1.5878000000000014,1.3716000000000008 1.5912000000000006,1.3754999999999988 1.5919999999999987,1.3754999999999988 1.590600000000002,1.3716000000000008 1.5878000000000014,1.3716000000000008 "></polygon><polygon points="1.5908999999999978,1.3781999999999996 1.589500000000001,1.3756999999999984 1.5885999999999996,1.3756999999999984 1.5912000000000006,1.3793000000000006 1.5908999999999978,1.3781999999999996 "></polygon><polygon points="1.5566999999999993,1.4421 1.5606000000000009,1.4345999999999997 1.5750000000000028,1.4313000000000002 1.5722999999999985,1.4270999999999994 1.573599999999999,1.4205000000000005 1.5799999999999983,1.4171000000000014 1.587299999999999,1.410499999999999 1.5981000000000023,1.4094000000000015 1.6030999999999977,1.4052000000000007 1.5908999999999978,1.3801999999999985 1.5878000000000014,1.3770999999999987 1.5820000000000007,1.3760000000000012 1.578400000000002,1.3702000000000005 1.5745000000000005,1.3676999999999992 1.5619999999999976,1.3732000000000006 1.549199999999999,1.3706999999999994 1.5473,1.3719000000000001 1.5467000000000013,1.3768999999999991 1.5450000000000017,1.378499999999999 1.5364000000000004,1.3831999999999987 1.5225000000000009,1.3880000000000017 1.5114000000000019,1.3871000000000002 1.5003000000000029,1.4099000000000004 1.5,1.4155000000000015 1.5084000000000017,1.4232000000000014 1.5183999999999997,1.4259999999999984 1.5174999999999983,1.4232000000000014 1.518099999999997,1.4205000000000005 1.5234000000000023,1.4277000000000015 1.5349999999999966,1.4351999999999983 1.546999999999997,1.4390999999999998 1.5553000000000026,1.4446000000000012 1.5566999999999993,1.4421 "></polygon><polygon points="1.5623000000000005,1.4994000000000014 1.6062000000000012,1.4938000000000002 1.6156000000000006,1.488199999999999 1.6203000000000003,1.482099999999999 1.5902999999999992,1.4756999999999998 1.5459000000000032,1.4585000000000008 1.5238999999999976,1.4446000000000012 1.4983999999999966,1.4331999999999994 1.4859000000000009,1.4252000000000002 1.4802999999999997,1.4252000000000002 1.4675000000000011,1.4341000000000008 1.4669999999999987,1.441600000000001 1.4714000000000027,1.4524000000000008 1.473700000000001,1.4651999999999994 1.484499999999997,1.472999999999999 1.5009000000000015,1.4884999999999984 1.5116999999999976,1.494299999999999 1.5274999999999963,1.4994000000000014 1.5623000000000005,1.4994000000000014 "></polygon><polygon points="1.5020000000000024,1.3659999999999997 1.5086999999999975,1.360199999999999 1.508899999999997,1.3582 1.5105999999999966,1.3582 1.5114000000000019,1.3543999999999983 1.5050000000000026,1.3568999999999996 1.5041999999999973,1.3594000000000008 1.5020000000000024,1.3591000000000015 1.5016999999999996,1.3621000000000016 1.5,1.3615999999999993 1.5,1.3665999999999983 1.5020000000000024,1.3659999999999997 "></polygon><polygon points="1.5084000000000017,1.3763000000000005 1.5061999999999998,1.3740999999999985 1.506999999999998,1.3719000000000001 1.5056000000000012,1.3719000000000001 1.5039000000000016,1.3737999999999992 1.506999999999998,1.3768999999999991 1.5084000000000017,1.3763000000000005 "></polygon><polygon points="1.4853000000000023,1.3855000000000004 1.491100000000003,1.3798999999999992 1.4874999999999972,1.3829999999999991 1.4836000000000027,1.3831999999999987 1.4827999999999975,1.3821000000000012 1.4864000000000033,1.3821000000000012 1.4872999999999976,1.3780000000000001 1.4934000000000012,1.3699000000000012 1.495899999999999,1.363199999999999 1.4934000000000012,1.3634999999999984 1.4848,1.3695999999999984 1.4797999999999973,1.369299999999999 1.4774999999999991,1.3720999999999997 1.478900000000003,1.379100000000001 1.4834000000000032,1.385200000000001 1.4853000000000023,1.3855000000000004 "></polygon><polygon points="1.4908999999999963,1.4056999999999995 1.4924999999999997,1.4009999999999998 1.4923000000000002,1.400500000000001 1.4894999999999996,1.4029999999999987 1.488900000000001,1.4063000000000017 1.4908999999999963,1.4056999999999995 "></polygon>
    </svg>
    