
    <svg width="1.5191999999999979" height="1.6364000000000019" xmlns="http://www.w3.org/2000/svg" xmlns:xlink="http://www.w3.org/1999/xlink" style="transform: scale(1, -1)">
        <polygon points="0.2556999999999974,0.00269999999999726 0.25439999999999685,0.005400000000001626 0.25549999999999784,0.00840000000000174 0.24680000000000035,0.016899999999999693 0.241899999999994,0.02470000000000283 0.23329999999999984,0.017000000000003013 0.230799999999995,0.021599999999999397 0.22159999999999513,0.026899999999997704 0.2172999999999945,0.03280000000000172 0.22119999999999607,0.0409000000000006 0.2166999999999959,0.04639999999999844 0.21009999999999707,0.047699999999998965 0.197499999999998,0.04619999999999891 0.19609999999999417,0.05010000000000048 0.19119999999999493,0.05310000000000059 0.1845999999999961,0.0508000000000024 0.1781000000000006,0.04630000000000223 0.15799999999999415,0.04279999999999973 0.13459999999999894,0.042200000000001125 0.1261999999999972,0.03990000000000293 0.12310000000000088,0.04350000000000165 0.10829999999999984,0.04480000000000217 0.10329999999999728,0.039299999999997226 0.10499999999999687,0.03580000000000183 0.10389999999999588,0.03399999999999892 0.06980000000000075,0.038699999999998624 0.066599999999994,0.03609999999999758 0.05189999999999628,0.030900000000002592 0.05239999999999867,0.03640000000000043 0.03170000000000073,0.036000000000001364 0.0,0.0397000000000034 0.0034999999999953957,0.049799999999997624 0.009399999999999409,0.05799999999999983 0.026899999999997704,0.06560000000000343 0.03219999999999601,0.07019999999999982 0.039400000000000546,0.07119999999999749 0.039400000000000546,0.0730000000000004 0.041499999999999204,0.07160000000000366 0.04299999999999926,0.07489999999999952 0.04669999999999419,0.0771000000000015 0.051600000000000534,0.08899999999999864 0.05449999999999733,0.08990000000000009 0.05519999999999925,0.09649999999999892 0.06139999999999901,0.10390000000000299 0.06339999999999435,0.10909999999999798 0.07609999999999673,0.1103999999999985 0.08370000000000033,0.11670000000000158 0.08829999999999671,0.1244000000000014 0.09239999999999782,0.14209999999999923 0.0998999999999981,0.1454000000000022 0.10259999999999536,0.15209999999999724 0.10810000000000031,0.17490000000000094 0.10889999999999844,0.18820000000000192 0.10829999999999984,0.19839999999999947 0.10529999999999973,0.2055999999999969 0.10349999999999682,0.20709999999999695 0.10259999999999536,0.20600000000000307 0.1021999999999963,0.20900000000000318 0.10119999999999862,0.2079999999999984 0.09729999999999706,0.21229999999999905 0.08729999999999905,0.21189999999999998 0.08829999999999671,0.21450000000000102 0.08679999999999666,0.21650000000000347 0.08859999999999957,0.21999999999999886 0.08679999999999666,0.2201999999999984 0.09009999999999962,0.22129999999999939 0.0945999999999998,0.2201999999999984 0.09140000000000015,0.2201999999999984 0.09279999999999688,0.2190000000000012 0.09440000000000026,0.21979999999999933 0.09559999999999746,0.2179000000000002 0.09919999999999618,0.21779999999999688 0.10449999999999449,0.22010000000000218 0.1103999999999985,0.2259999999999991 0.1144999999999996,0.2325000000000017 0.1144999999999996,0.23859999999999815 0.11959999999999837,0.254800000000003 0.12239999999999895,0.2565000000000026 0.12429999999999808,0.2558999999999969 0.12549999999999528,0.2580999999999989 0.12379999999999569,0.25910000000000366 0.1266999999999996,0.2593000000000032 0.12950000000000017,0.2623999999999995 0.12950000000000017,0.26839999999999975 0.13329999999999842,0.2693999999999974 0.13749999999999574,0.2728999999999999 0.14000000000000057,0.27940000000000254 0.14150000000000063,0.2792999999999992 0.14089999999999492,0.28070000000000306 0.14029999999999632,0.2798999999999978 0.14179999999999637,0.29010000000000247 0.14109999999999445,0.290300000000002 0.1407999999999987,0.29070000000000107 0.14209999999999923,0.29070000000000107 0.14399999999999835,0.2978999999999985 0.14349999999999596,0.3049999999999997 0.1472999999999942,0.3153000000000006 0.14649999999999608,0.321399999999997 0.14789999999999992,0.32739999999999725 0.15029999999999433,0.32739999999999725 0.15159999999999485,0.33080000000000354 0.14989999999999526,0.3348000000000013 0.1530999999999949,0.3434000000000026 0.15849999999999653,0.3492000000000033 0.1577999999999946,0.3504000000000005 0.16329999999999956,0.35770000000000124 0.16140000000000043,0.36019999999999897 0.16429999999999723,0.3714000000000013 0.16910000000000025,0.3783999999999992 0.17089999999999606,0.3860000000000028 0.17319999999999425,0.3873999999999995 0.17319999999999425,0.390900000000002 0.1786999999999992,0.39679999999999893 0.18379999999999797,0.4067000000000007 0.19109999999999872,0.41020000000000323 0.19659999999999656,0.4099000000000004 0.20019999999999527,0.4136000000000024 0.19999999999999574,0.41570000000000107 0.20199999999999818,0.41740000000000066 0.2003999999999948,0.41499999999999915 0.210799999999999,0.4181000000000026 0.21369999999999578,0.4239000000000033 0.21689999999999543,0.42549999999999955 0.22149999999999892,0.43249999999999744 0.22619999999999862,0.4356000000000009 0.22699999999999676,0.4380999999999986 0.23059999999999548,0.43889999999999674 0.23269999999999413,0.4457000000000022 0.23939999999999628,0.4504000000000019 0.23699999999999477,0.4519999999999982 0.2376999999999967,0.4528000000000034 0.238900000000001,0.4532000000000025 0.23760000000000048,0.4519999999999982 0.23919999999999675,0.450800000000001 0.24380000000000024,0.45250000000000057 0.251100000000001,0.4607000000000028 0.2600999999999942,0.48969999999999914 0.26069999999999993,0.5003999999999991 0.2646999999999977,0.5026999999999973 0.26249999999999574,0.5078000000000031 0.263300000000001,0.511099999999999 0.26489999999999725,0.5108000000000033 0.2665000000000006,0.5129000000000019 0.2646999999999977,0.5091999999999999 0.2675999999999945,0.5112999999999985 0.2669999999999959,0.5123000000000033 0.2704999999999984,0.5116000000000014 0.2775999999999996,0.5213999999999999 0.2796999999999983,0.5270999999999972 0.2781999999999982,0.5272999999999968 0.2797999999999945,0.5294999999999987 0.2785999999999973,0.5298000000000016 0.28129999999999455,0.5319000000000003 0.2838999999999956,0.5380000000000038 0.28479999999999706,0.5516000000000005 0.29240000000000066,0.5531000000000006 0.29529999999999745,0.5600999999999985 0.29529999999999745,0.5814000000000021 0.29649999999999466,0.5831999999999979 0.2942999999999998,0.5921999999999983 0.2971999999999966,0.5951000000000022 0.2967999999999975,0.5938000000000017 0.30049999999999955,0.5938999999999979 0.30160000000000053,0.5966999999999985 0.3031999999999968,0.5940000000000012 0.30409999999999826,0.5955999999999975 0.3091000000000008,0.5959000000000003 0.31269999999999953,0.6021000000000001 0.3148999999999944,0.6289000000000016 0.31230000000000047,0.6334000000000017 0.31919999999999504,0.6407000000000025 0.32439999999999714,0.640500000000003 0.3329999999999984,0.6433000000000035 0.33559999999999945,0.6510000000000034 0.3399000000000001,0.6559000000000026 0.3406999999999982,0.6730000000000018 0.34499999999999886,0.6912999999999982 0.35490000000000066,0.7083000000000013 0.3573999999999984,0.7088000000000036 0.36189999999999856,0.7143999999999977 0.3650999999999982,0.7233000000000018 0.3662999999999954,0.7227000000000032 0.3708999999999989,0.7289999999999992 0.3713999999999942,0.7317000000000036 0.3698999999999941,0.7317999999999998 0.36880000000000024,0.7325999999999979 0.37109999999999843,0.7319000000000031 0.37359999999999616,0.734099999999998 0.375,0.7374000000000009 0.3739999999999952,0.742600000000003 0.37650000000000006,0.7481000000000009 0.3748999999999967,0.7490999999999985 0.37469999999999715,0.7503000000000029 0.376100000000001,0.7494999999999976 0.37819999999999965,0.7558000000000007 0.3771999999999949,0.7582999999999984 0.3789999999999978,0.7610000000000028 0.37930000000000064,0.7657000000000025 0.3739999999999952,0.7852999999999994 0.37579999999999814,0.787700000000001 0.37709999999999866,0.7869000000000028 0.3767999999999958,0.7820999999999998 0.37819999999999965,0.7807999999999993 0.38059999999999405,0.7865000000000038 0.37939999999999685,0.8046000000000006 0.3785999999999987,0.8085000000000022 0.3756999999999948,0.8115999999999985 0.3774999999999977,0.8156999999999996 0.37469999999999715,0.8273999999999972 0.36889999999999645,0.8290999999999968 0.36880000000000024,0.8310000000000031 0.36699999999999733,0.8310999999999993 0.36839999999999407,0.832099999999997 0.3645999999999958,0.8323999999999998 0.3678999999999988,0.8348999999999975 0.3632999999999953,0.8383000000000038 0.3639999999999972,0.8404999999999987 0.3661999999999992,0.8412999999999968 0.36430000000000007,0.8414000000000001 0.3649999999999949,0.8436999999999983 0.3663999999999987,0.8430999999999997 0.36479999999999535,0.8449999999999989 0.3774999999999977,0.8487000000000009 0.38589999999999947,0.8466999999999985 0.3935999999999993,0.8506 0.39099999999999824,0.847999999999999 0.39339999999999975,0.846899999999998 0.394999999999996,0.8496000000000024 0.40739999999999554,0.8519999999999968 0.40869999999999607,0.8492999999999995 0.42210000000000036,0.8552000000000035 0.4292999999999978,0.8612000000000037 0.4227999999999952,0.8552999999999997 0.4129999999999967,0.8500999999999976 0.4041999999999959,0.8477999999999994 0.4041999999999959,0.8460000000000036 0.4070999999999998,0.8447000000000031 0.40729999999999933,0.846899999999998 0.4094999999999942,0.8472000000000008 0.4095999999999975,0.8455000000000013 0.41270000000000095,0.8453000000000017 0.41329999999999956,0.8481999999999985 0.41570000000000107,0.8492999999999995 0.4165999999999954,0.8464000000000027 0.4199999999999946,0.848399999999998 0.41969999999999885,0.8511999999999986 0.4221999999999966,0.852800000000002 0.4227999999999952,0.850200000000001 0.42669999999999675,0.8515999999999977 0.42669999999999675,0.8545000000000016 0.43319999999999936,0.853900000000003 0.4341000000000008,0.8524999999999991 0.4322999999999979,0.8496000000000024 0.43599999999999994,0.8507999999999996 0.44059999999999633,0.846899999999998 0.44709999999999894,0.8485999999999976 0.45019999999999527,0.8432999999999993 0.4542999999999964,0.8449999999999989 0.45659999999999457,0.8440999999999974 0.46000000000000085,0.8453999999999979 0.46000000000000085,0.8468000000000018 0.4630999999999972,0.8472000000000008 0.4626999999999981,0.8496000000000024 0.4613999999999976,0.8496000000000024 0.46129999999999427,0.8498999999999981 0.4638999999999953,0.851700000000001 0.4638999999999953,0.848399999999998 0.46809999999999974,0.8492999999999995 0.47349999999999426,0.8536000000000001 0.4790999999999954,0.8614000000000033 0.4795999999999978,0.8629999999999995 0.47589999999999577,0.8639999999999972 0.4790999999999954,0.8746999999999971 0.4777999999999949,0.8755000000000024 0.47929999999999495,0.8810000000000002 0.47869999999999635,0.8768000000000029 0.48149999999999693,0.8757000000000019 0.4823999999999984,0.8789000000000016 0.4802999999999997,0.8785000000000025 0.48269999999999413,0.8873999999999995 0.48389999999999844,0.8872 0.48460000000000036,0.8892000000000024 0.4837999999999951,0.8903999999999996 0.484099999999998,0.8915999999999968 0.4859000000000009,0.8888999999999996 0.4871999999999943,0.8896999999999977 0.48930000000000007,0.8999000000000024 0.49259999999999593,0.9020999999999972 0.4930999999999983,0.9048999999999978 0.49339999999999407,0.9033000000000015 0.4959999999999951,0.9057999999999993 0.49619999999999465,0.9074000000000026 0.49449999999999505,0.9078999999999979 0.49439999999999884,0.909399999999998 0.4953999999999965,0.908299999999997 0.4969999999999999,0.909399999999998 0.4966000000000008,0.9125000000000014 0.4983000000000004,0.9134999999999991 0.49689999999999657,0.9153999999999982 0.4966000000000008,0.9174000000000007 0.49729999999999563,0.9153999999999982 0.498899999999999,0.9153999999999982 0.49789999999999424,0.9166000000000025 0.5024999999999977,0.9179999999999993 0.5060000000000002,0.9211999999999989 0.5043000000000006,0.9232000000000014 0.5068999999999946,0.9232000000000014 0.5064999999999955,0.9251000000000005 0.5083999999999946,0.9258999999999986 0.5065999999999988,0.9268000000000001 0.5101999999999975,0.929000000000002 0.5105000000000004,0.9326000000000008 0.5135999999999967,0.9335000000000022 0.5108999999999995,0.9324000000000012 0.5112999999999985,0.9314999999999998 0.5148999999999972,0.933799999999998 0.5195000000000007,0.9326000000000008 0.5158999999999949,0.9329999999999998 0.5153999999999996,0.9316999999999993 0.5175999999999945,0.9309999999999974 0.5228999999999999,0.9316999999999993 0.5197000000000003,0.9303999999999988 0.5223999999999975,0.9307000000000016 0.5240999999999971,0.9296000000000006 0.522199999999998,0.929000000000002 0.5230999999999995,0.9281999999999968 0.5281999999999982,0.9296000000000006 0.5336999999999961,0.9341000000000008 0.5349000000000004,0.9390000000000001 0.5397999999999996,0.9431999999999974 0.5387999999999948,0.9440000000000026 0.5404999999999944,0.9457000000000022 0.5398999999999958,0.9506000000000014 0.5411000000000001,0.9525999999999968 0.5392999999999972,0.9568999999999974 0.5302999999999969,0.9581000000000017 0.5300999999999974,0.9603999999999999 0.5225999999999971,0.9605999999999995 0.5197999999999965,0.963000000000001 0.5183999999999997,0.9684999999999988 0.5201999999999956,0.9746000000000024 0.5240999999999971,0.9754000000000005 0.5203999999999951,0.9772000000000034 0.5213999999999999,0.982999999999997 0.5307999999999993,0.9949999999999974 0.5297999999999945,0.9964000000000013 0.5314999999999941,0.9958999999999989 0.5304999999999964,0.9977000000000018 0.5317000000000007,0.9992000000000019 0.5390999999999977,1.0046999999999997 0.5381,1.0050999999999988 0.5383999999999958,1.0157999999999987 0.5457999999999998,1.0309999999999988 0.5441999999999965,1.0386999999999986 0.545499999999997,1.0369000000000028 0.5473999999999961,1.0401999999999987 0.5471999999999966,1.0424000000000007 0.5450999999999979,1.0435999999999979 0.5472999999999999,1.0457000000000036 0.5446999999999989,1.0600000000000023 0.5416999999999987,1.060699999999997 0.5426999999999964,1.0615999999999985 0.5403999999999982,1.0624000000000038 0.5405999999999977,1.064700000000002 0.5383999999999958,1.0649999999999977 0.5398999999999958,1.0671000000000035 0.5374999999999943,1.0668999999999969 0.5397999999999996,1.0696000000000012 0.5366,1.0763000000000034 0.5388999999999982,1.0797000000000025 0.5249999999999986,1.0867000000000004 0.5228999999999999,1.0940999999999974 0.5251999999999981,1.098700000000001 0.5250999999999948,1.0970000000000013 0.5268999999999977,1.097999999999999 0.5272000000000006,1.1030000000000015 0.5296999999999983,1.1062000000000012 0.5278999999999954,1.1092000000000013 0.5263999999999953,1.1203000000000003 0.5285999999999973,1.1221000000000032 0.5277999999999992,1.1249000000000038 0.529599999999995,1.1263000000000005 0.5287000000000006,1.128300000000003 0.5311999999999983,1.1321999999999974 0.5280999999999949,1.1370000000000005 0.5325999999999951,1.1428999999999974 0.5320999999999998,1.1454000000000022 0.5347000000000008,1.149799999999999 0.5442999999999998,1.1555999999999997 0.5464999999999947,1.1615000000000038 0.5494999999999948,1.164200000000001 0.5504999999999995,1.172699999999999 0.5518999999999963,1.1737000000000037 0.5506999999999991,1.1794999999999973 0.5522999999999954,1.1794999999999973 0.5563000000000002,1.1854999999999976 0.5568999999999988,1.1914000000000016 0.5534999999999997,1.192300000000003 0.5544999999999973,1.1929000000000016 0.5524999999999949,1.196399999999997 0.5546000000000006,1.197499999999998 0.5524999999999949,1.1981000000000037 0.5519999999999996,1.2002999999999986 0.5531000000000006,1.2034999999999982 0.5538999999999987,1.2025000000000006 0.5546999999999969,1.2030999999999992 0.5533000000000001,1.204900000000002 0.5548999999999964,1.2066000000000017 0.5549999999999997,1.211199999999998 0.5520999999999958,1.2171999999999983 0.5486999999999966,1.2184000000000026 0.5518000000000001,1.223700000000001 0.5475999999999956,1.226700000000001 0.5499999999999972,1.2257999999999996 0.5516000000000005,1.2297000000000011 0.5506999999999991,1.225999999999999 0.5537999999999954,1.226300000000002 0.5519999999999996,1.2272000000000034 0.5551999999999992,1.2286000000000001 0.5539999999999949,1.2295999999999978 0.5621999999999971,1.231499999999997 0.5636999999999972,1.2362000000000037 0.5686999999999998,1.2383000000000024 0.5660999999999987,1.2415999999999983 0.5686999999999998,1.2449999999999974 0.5681999999999974,1.2484000000000037 0.5764999999999958,1.2571000000000012 0.5837000000000003,1.2591999999999999 0.589500000000001,1.2580999999999989 0.5942000000000007,1.2561000000000035 0.597999999999999,1.250399999999999 0.6009999999999991,1.25 0.601700000000001,1.2516000000000034 0.6025999999999954,1.2501999999999995 0.605799999999995,1.2513000000000005 0.6114999999999995,1.2560000000000002 0.6066000000000003,1.2603000000000009 0.6067999999999998,1.2607 0.6118999999999986,1.2560000000000002 0.6159999999999997,1.2597999999999985 0.6195999999999984,1.2685999999999993 0.6180999999999983,1.2708999999999975 0.616899999999994,1.2698999999999998 0.6180999999999983,1.2743000000000038 0.6189999999999998,1.2729 0.6216000000000008,1.2734999999999985 0.6203999999999965,1.2749000000000024 0.6218999999999966,1.274799999999999 0.6219999999999999,1.2768000000000015 0.6204999999999998,1.2794999999999987 0.6239999999999952,1.2805000000000035 0.6257999999999981,1.2824999999999989 0.6248000000000005,1.2843000000000018 0.6266999999999996,1.2849000000000004 0.6228999999999942,1.2896 0.6266999999999996,1.3002000000000038 0.6244999999999976,1.302100000000003 0.6246999999999971,1.3049999999999997 0.6206999999999994,1.306600000000003 0.6258999999999943,1.3055999999999983 0.6302999999999983,1.3068000000000026 0.630599999999994,1.3104000000000013 0.6332999999999984,1.3109000000000037 0.6317999999999984,1.3134999999999977 0.6318999999999946,1.3201000000000036 0.6333999999999946,1.3216999999999999 0.6546999999999983,1.326500000000003 0.6532999999999944,1.325099999999999 0.6709999999999994,1.3280999999999992 0.673099999999998,1.3305000000000007 0.6816999999999993,1.3333000000000013 0.6835999999999984,1.3369 0.6839999999999975,1.3355999999999995 0.6862999999999957,1.3363000000000014 0.6853999999999942,1.3376999999999981 0.6860999999999962,1.338000000000001 0.6880999999999986,1.3369 0.6873000000000005,1.3387000000000029 0.6903000000000006,1.3389999999999986 0.6895999999999987,1.3397999999999968 0.6912999999999982,1.3400000000000034 0.6898999999999944,1.3410999999999973 0.6916999999999973,1.3427000000000007 0.6903000000000006,1.3410999999999973 0.6913999999999945,1.340200000000003 0.694899999999997,1.3427999999999969 0.694899999999997,1.3445000000000036 0.6960999999999942,1.3438999999999979 0.6950000000000003,1.345399999999998 0.7088999999999999,1.3498000000000019 0.7104999999999961,1.353200000000001 0.7112999999999943,1.3522999999999996 0.7119999999999962,1.3541000000000025 0.7135999999999996,1.3539999999999992 0.7124999999999986,1.354300000000002 0.7119999999999962,1.3552999999999997 0.7142999999999944,1.3545999999999978 0.7147000000000006,1.3556000000000026 0.713000000000001,1.3560999999999979 0.7125999999999948,1.3579000000000008 0.7143999999999977,1.3560000000000016 0.7138999999999953,1.3579000000000008 0.7151999999999958,1.3573000000000022 0.7171999999999983,1.3597000000000037 0.7173999999999978,1.3622999999999976 0.7155999999999949,1.3639999999999972 0.7171999999999983,1.3648999999999987 0.717099999999995,1.3689999999999998 0.7151999999999958,1.3719000000000037 0.7130999999999972,1.371299999999998 0.7090999999999994,1.3744000000000014 0.7080999999999946,1.3815999999999988 0.7060999999999993,1.382399999999997 0.7100999999999971,1.3892999999999986 0.7064999999999984,1.3926999999999978 0.7028999999999996,1.3918999999999997 0.7034999999999982,1.3950000000000031 0.7002999999999986,1.3963999999999999 0.7023999999999972,1.3971000000000018 0.7030999999999992,1.3999999999999986 0.7089999999999961,1.4007000000000005 0.7119999999999962,1.4027999999999992 0.7142999999999944,1.4008000000000038 0.7120999999999995,1.402000000000001 0.7094999999999985,1.4003000000000014 0.7103999999999999,1.3995000000000033 0.7149999999999963,1.396799999999999 0.7155999999999949,1.398299999999999 0.7134999999999962,1.400100000000002 0.7137999999999991,1.4003000000000014 0.7156999999999982,1.398299999999999 0.7153999999999954,1.3965999999999994 0.7212999999999994,1.3962000000000003 0.7207000000000008,1.3975000000000009 0.7214999999999989,1.3963000000000036 0.7239000000000004,1.3975000000000009 0.7211999999999961,1.4025000000000034 0.7225999999999999,1.403100000000002 0.7215999999999951,1.4050000000000011 0.7228999999999957,1.4029000000000025 0.7264999999999944,1.4039000000000001 0.722999999999999,1.4025999999999996 0.7261999999999986,1.3971000000000018 0.731899999999996,1.3986000000000018 0.7259999999999991,1.4031999999999982 0.7319999999999993,1.3988000000000014 0.7353999999999985,1.402700000000003 0.7397999999999954,1.4037000000000006 0.7409999999999997,1.4009 0.7416999999999945,1.4018999999999977 0.7538999999999945,1.4014000000000024 0.7641999999999953,1.4057999999999993 0.7700999999999993,1.4054000000000002 0.7787000000000006,1.4074000000000026 0.7911999999999964,1.4125000000000014 0.7989999999999995,1.4117000000000033 0.8173999999999992,1.4258000000000024 0.8196999999999974,1.4288000000000025 0.8170000000000002,1.431199999999997 0.820299999999996,1.4290999999999983 0.8247999999999962,1.4331999999999994 0.8265999999999991,1.4376999999999995 0.8250999999999991,1.4388999999999967 0.8297999999999988,1.439 0.8307999999999964,1.4406000000000034 0.8295999999999992,1.4425999999999988 0.8320000000000007,1.4410999999999987 0.8356999999999957,1.442700000000002 0.8328999999999951,1.4453999999999994 0.8358999999999952,1.4433000000000007 0.8403999999999954,1.4527 0.849499999999999,1.4545999999999992 0.8504000000000005,1.457099999999997 0.8576999999999941,1.462600000000002 0.870599999999996,1.4619 0.8734999999999999,1.464500000000001 0.872399999999999,1.4654999999999987 0.8735999999999962,1.4675000000000011 0.8735999999999962,1.4647999999999968 0.8758999999999943,1.4652999999999992 0.8741999999999948,1.466700000000003 0.876100000000001,1.4654999999999987 0.8770999999999987,1.4665000000000035 0.8820999999999941,1.4735000000000014 0.883899999999997,1.4791999999999987 0.8868000000000009,1.495899999999999 0.888300000000001,1.498199999999997 0.8883999999999972,1.5086999999999975 0.8881999999999977,1.5183000000000035 0.883899999999997,1.5409000000000006 0.8714999999999975,1.5790000000000006 0.8740999999999985,1.580599999999997 0.8720999999999961,1.5884 0.8771999999999949,1.5899 0.8769999999999953,1.5949000000000026 0.8821999999999974,1.5932999999999993 0.8870000000000005,1.5951999999999984 0.8857999999999961,1.5891999999999982 0.8875999999999991,1.5878000000000014 0.8891999999999953,1.5897999999999968 0.8921999999999954,1.5876999999999981 0.9037999999999968,1.5904999999999987 0.9020999999999972,1.5872000000000028 0.9152999999999949,1.581000000000003 0.9198999999999984,1.5803999999999974 0.9209999999999994,1.5771000000000015 0.9242999999999952,1.5747 0.9303999999999988,1.5762 0.9291999999999945,1.5737000000000023 0.9309999999999974,1.5726000000000013 0.9388999999999967,1.5750000000000028 0.9484999999999957,1.5730000000000004 0.9505999999999943,1.5773999999999972 0.9553999999999974,1.578000000000003 0.9592999999999989,1.581000000000003 0.9609999999999985,1.5803999999999974 0.9610999999999947,1.5767999999999986 0.9638999999999953,1.5790999999999968 0.9697999999999993,1.5767999999999986 0.9699999999999989,1.5733000000000033 0.9724000000000004,1.5739000000000019 0.974499999999999,1.5788999999999973 0.9759999999999991,1.5793999999999997 0.9774999999999991,1.5786000000000016 0.9772999999999996,1.5756999999999977 0.9817999999999998,1.5771999999999977 0.9856999999999942,1.5741999999999976 0.9867999999999952,1.5756999999999977 0.9885999999999981,1.5741000000000014 0.9908999999999963,1.5760000000000005 0.9902999999999977,1.576900000000002 0.9936999999999969,1.5782000000000025 0.9939999999999998,1.5814000000000021 0.9974999999999952,1.5795999999999992 1.0011999999999972,1.5805000000000007 1.0053999999999945,1.5778000000000034 1.0118999999999971,1.5786000000000016 1.0126999999999953,1.5823999999999998 1.0191999999999979,1.5869 1.0231999999999957,1.5869 1.0264999999999986,1.5840000000000032 1.029199999999996,1.5844999999999985 1.0364999999999966,1.5797000000000025 1.0407999999999973,1.580599999999997 1.0482999999999976,1.5782000000000025 1.0582999999999956,1.5786999999999978 1.0685000000000002,1.5735000000000028 1.072099999999999,1.5743999999999971 1.0730000000000004,1.5778999999999996 1.0760999999999967,1.5793000000000035 1.085799999999999,1.5823000000000036 1.0932999999999993,1.581000000000003 1.097299999999997,1.5825999999999993 1.1055999999999955,1.5771000000000015 1.1158000000000001,1.5754999999999981 1.1221999999999994,1.570999999999998 1.1240999999999985,1.5748999999999995 1.1336999999999975,1.572499999999998 1.133199999999995,1.5775999999999968 1.1383999999999972,1.578400000000002 1.1402,1.5812999999999988 1.143899999999995,1.578400000000002 1.1584000000000003,1.575400000000002 1.1614999999999966,1.5722000000000023 1.168299999999995,1.5748999999999995 1.1740999999999957,1.5733000000000033 1.1798000000000002,1.5775000000000006 1.1853999999999942,1.5756000000000014 1.188600000000001,1.578800000000001 1.1935999999999964,1.579900000000002 1.1999999999999957,1.585799999999999 1.1972999999999985,1.5855999999999995 1.2012,1.5932999999999993 1.2014999999999958,1.5975000000000037 1.2049999999999983,1.6007000000000033 1.199300000000001,1.6129999999999995 1.2021999999999977,1.6163999999999987 1.2072000000000003,1.6278999999999968 1.2127999999999943,1.6285999999999987 1.2128999999999976,1.6306999999999974 1.2172999999999945,1.6347000000000023 1.2252999999999972,1.6343000000000032 1.2288999999999959,1.6364000000000019 1.2431999999999945,1.6341999999999999 1.2513999999999967,1.6270000000000024 1.2500999999999962,1.6248000000000005 1.2509999999999977,1.6193999999999988 1.2464999999999975,1.616100000000003 1.2468000000000004,1.6058000000000021 1.2513999999999967,1.6022999999999996 1.2513000000000005,1.6000000000000014 1.2560000000000002,1.5925000000000011 1.2578999999999994,1.5925000000000011 1.2620999999999967,1.5874999999999986 1.2671999999999954,1.5870000000000033 1.279599999999995,1.5775999999999968 1.2872999999999948,1.575400000000002 1.296999999999997,1.5825999999999993 1.3158999999999992,1.571399999999997 1.3185999999999964,1.571399999999997 1.3472000000000008,1.5823000000000036 1.354699999999994,1.5827000000000027 1.3611999999999966,1.5812000000000026 1.3577999999999975,1.5788999999999973 1.355799999999995,1.5748000000000033 1.357599999999998,1.5711000000000013 1.3532999999999973,1.5686000000000035 1.3536000000000001,1.564300000000003 1.3569999999999993,1.5608000000000004 1.355399999999996,1.558799999999998 1.3569999999999993,1.555500000000002 1.3540999999999954,1.551000000000002 1.3549999999999969,1.5493000000000023 1.3536000000000001,1.543999999999997 1.3523999999999958,1.5444999999999993 1.348399999999998,1.5373000000000019 1.328799999999994,1.5375999999999976 1.3270999999999944,1.545099999999998 1.322499999999998,1.5497999999999976 1.316599999999994,1.5514999999999972 1.3108000000000004,1.5510999999999981 1.3111999999999995,1.557299999999998 1.3068999999999988,1.555500000000002 1.3036999999999992,1.5559999999999974 1.2999999999999972,1.552500000000002 1.2999999999999972,1.5488 1.3034999999999997,1.5456000000000003 1.298499999999997,1.5380000000000038 1.2988999999999962,1.5272999999999968 1.2924000000000007,1.521099999999997 1.2954000000000008,1.5172999999999988 1.3001000000000005,1.5165000000000006 1.311399999999999,1.5086999999999975 1.3082999999999956,1.4986999999999995 1.3053999999999988,1.4960999999999984 1.284399999999998,1.4924999999999997 1.280699999999996,1.4887000000000015 1.2800999999999974,1.482599999999998 1.2697000000000003,1.480400000000003 1.257099999999994,1.467100000000002 1.2506999999999948,1.4650999999999996 1.2463999999999942,1.4618000000000038 1.2443999999999988,1.4551999999999978 1.2590000000000003,1.4483999999999995 1.272199999999998,1.4485000000000028 1.2727999999999966,1.4433000000000007 1.2757999999999967,1.4468999999999994 1.2800999999999974,1.4481000000000037 1.283699999999996,1.4412999999999982 1.2930999999999955,1.444499999999998 1.3048000000000002,1.4425000000000026 1.314,1.4384999999999977 1.3256999999999977,1.4457000000000022 1.3354999999999961,1.4470000000000027 1.3414000000000001,1.4388000000000005 1.3427000000000007,1.4335000000000022 1.3521999999999963,1.4174000000000007 1.3613,1.4078000000000017 1.3644999999999996,1.407899999999998 1.367599999999996,1.4052000000000007 1.3765999999999963,1.4052999999999969 1.3798999999999992,1.403100000000002 1.3851999999999975,1.4029000000000025 1.3937999999999988,1.399799999999999 1.3893999999999949,1.397599999999997 1.3922999999999988,1.394599999999997 1.404999999999994,1.3933000000000035 1.4099000000000004,1.3890999999999991 1.404999999999994,1.3843000000000032 1.4090999999999951,1.3858999999999995 1.4105999999999952,1.3826000000000036 1.4092999999999947,1.3811000000000035 1.4114000000000004,1.3789000000000016 1.413499999999999,1.3817999999999984 1.417899999999996,1.3798999999999992 1.4202999999999975,1.3718000000000004 1.4236000000000004,1.3734000000000037 1.4239999999999995,1.3766999999999996 1.4298000000000002,1.3744999999999976 1.4281999999999968,1.3701000000000008 1.4326000000000008,1.3710000000000022 1.4380999999999986,1.3669999999999973 1.446399999999997,1.3693999999999988 1.4517999999999986,1.3627000000000038 1.4510999999999967,1.3607000000000014 1.457899999999995,1.341700000000003 1.446399999999997,1.3303000000000011 1.434899999999999,1.3233000000000033 1.4335999999999984,1.3203999999999994 1.4254999999999995,1.314300000000003 1.4347999999999956,1.3016999999999967 1.4423999999999992,1.284799999999997 1.447899999999997,1.2783000000000015 1.4594999999999985,1.2708999999999975 1.4523999999999972,1.2545000000000002 1.4628999999999976,1.2483000000000004 1.4667999999999992,1.2477000000000018 1.471199999999996,1.2415999999999983 1.4953000000000003,1.234499999999997 1.4897999999999954,1.2287999999999997 1.4709000000000003,1.2195999999999998 1.472999999999999,1.219299999999997 1.4746999999999986,1.2167999999999992 1.475200000000001,1.2104 1.4810999999999979,1.194899999999997 1.4788999999999959,1.1769999999999996 1.485599999999998,1.1681999999999988 1.4981000000000009,1.1655000000000015 1.5144999999999982,1.1527999999999992 1.5187999999999988,1.1458999999999975 1.5191999999999979,1.1409999999999982 1.517799999999994,1.1396999999999977 1.5006999999999948,1.1370000000000005 1.497099999999996,1.1310000000000002 1.483699999999999,1.1223000000000027 1.482299999999995,1.1197000000000017 1.4848,1.1143 1.4802999999999997,1.1103000000000023 1.4790999999999954,1.1047000000000011 1.4680999999999997,1.1017999999999972 1.4653999999999954,1.097299999999997 1.4698999999999955,1.0900000000000034 1.4653999999999954,1.0872000000000028 1.4630999999999972,1.078800000000001 1.4501999999999953,1.0747 1.448599999999999,1.0762 1.4382999999999981,1.0716999999999999 1.4373000000000005,1.0666999999999973 1.4313999999999965,1.065100000000001 1.4217999999999975,1.0594000000000037 1.4112999999999971,1.0452999999999975 1.4067000000000007,1.0446999999999989 1.4033999999999978,1.0352999999999994 1.4055999999999997,1.0335000000000036 1.4114000000000004,1.0198000000000036 1.4047999999999945,1.0080999999999989 1.395699999999998,1.001100000000001 1.3977999999999966,0.9964999999999975 1.3810999999999964,0.9881999999999991 1.377600000000001,0.9836000000000027 1.3643,0.9872000000000014 1.3589999999999947,0.9898000000000025 1.3585999999999956,0.9924000000000035 1.3465999999999951,0.9966000000000008 1.342499999999994,0.9968000000000004 1.3513999999999982,0.9889999999999972 1.3392999999999944,0.9947000000000017 1.3222999999999985,0.9996999999999971 1.3131999999999948,0.9868999999999986 1.3070999999999984,0.9904000000000011 1.298499999999997,0.9866000000000028 1.3024999999999949,0.9725999999999999 1.287700000000001,0.9739000000000004 1.2819999999999965,0.9637999999999991 1.2802000000000007,0.9551999999999978 1.2671999999999954,0.9495000000000005 1.2597999999999985,0.9281000000000006 1.2541999999999973,0.9301999999999992 1.2456999999999994,0.9232000000000014 1.2378999999999962,0.9226000000000028 1.213799999999999,0.9044000000000025 1.2094999999999985,0.8999000000000024 1.1856000000000009,0.8622999999999976 1.1740999999999957,0.8487000000000009 1.233399999999996,0.8196000000000012 1.2393999999999963,0.8211999999999975 1.2545999999999964,0.8151999999999973 1.2653999999999996,0.8132999999999981 1.2883999999999958,0.7984000000000009 1.2904999999999944,0.777700000000003 1.285899999999998,0.7740000000000009 1.282199999999996,0.7736999999999981 1.263300000000001,0.7787000000000006 1.243399999999994,0.775500000000001 1.221899999999998,0.7813000000000017 1.218599999999995,0.7774000000000001 1.2082999999999942,0.7792999999999992 1.1963000000000008,0.7787999999999968 1.185299999999998,0.7882999999999996 1.1794999999999973,0.7901999999999987 1.1762999999999977,0.7971000000000004 1.1548999999999978,0.8003 1.1494999999999962,0.8025999999999982 1.1363999999999947,0.7907000000000011 1.1343999999999994,0.7796000000000021 1.105399999999996,0.7790000000000035 1.1019999999999968,0.7774000000000001 1.0951999999999984,0.7790999999999997 1.0891999999999982,0.7760000000000034 1.0675999999999988,0.7783000000000015 1.062100000000001,0.7862999999999971 1.0614999999999952,0.7920999999999978 1.0426999999999964,0.7896000000000001 1.034399999999998,0.778100000000002 1.0213999999999999,0.7794999999999987 1.0100999999999942,0.7787000000000006 1.013300000000001,0.7723000000000013 1.0094999999999956,0.7710000000000008 1.0096999999999952,0.7674000000000021 1.0079999999999956,0.7650999999999968 0.9998999999999967,0.7625000000000028 0.9802999999999997,0.7605000000000004 0.9734999999999943,0.7672999999999988 0.967499999999994,0.767000000000003 0.9534999999999982,0.7496000000000009 0.9442999999999984,0.7291000000000025 0.933099999999996,0.7182000000000031 0.9277999999999977,0.7098999999999975 0.9242999999999952,0.7090000000000032 0.9147999999999996,0.7145999999999972 0.9082000000000008,0.7147999999999968 0.9058999999999955,0.7126999999999981 0.9080999999999975,0.7077000000000027 0.9010999999999996,0.6997 0.8945000000000007,0.6861999999999995 0.8863999999999947,0.678600000000003 0.8842999999999961,0.6711999999999989 0.8773999999999944,0.671599999999998 0.8714999999999975,0.6743999999999986 0.8703999999999965,0.6726000000000028 0.871699999999997,0.6692000000000036 0.8680999999999983,0.665300000000002 0.8663999999999987,0.6593000000000018 0.8684999999999974,0.6514999999999986 0.8646999999999991,0.6456000000000017 0.8654999999999973,0.6426000000000016 0.870599999999996,0.6388000000000034 0.8714999999999975,0.6340000000000003 0.8691999999999993,0.6340000000000003 0.8681999999999945,0.6298999999999992 0.8656000000000006,0.6285999999999987 0.8636999999999944,0.6214000000000013 0.8530999999999977,0.6182000000000016 0.847999999999999,0.6197000000000017 0.8438999999999979,0.6167999999999978 0.8419999999999987,0.6052000000000035 0.8377999999999943,0.5996000000000024 0.8307999999999964,0.5957000000000008 0.8335000000000008,0.5927999999999969 0.8318999999999974,0.5904000000000025 0.8338999999999999,0.5842999999999989 0.8442999999999969,0.5823000000000036 0.847299999999997,0.5790999999999968 0.8718999999999966,0.5780999999999992 0.8726999999999947,0.5820000000000007 0.8756999999999948,0.5822000000000003 0.8752999999999957,0.5803000000000011 0.8786999999999949,0.5769999999999982 0.9022999999999968,0.5638999999999967 0.9288999999999987,0.5538999999999987 0.9289999999999949,0.5497000000000014 0.9334999999999951,0.5495000000000019 0.9422999999999959,0.5448999999999984 0.9570000000000007,0.5335999999999999 0.9585000000000008,0.527700000000003 0.9626999999999981,0.5249999999999986 0.9612999999999943,0.5212000000000003 0.9493000000000009,0.5123999999999995 0.9236999999999966,0.4864999999999995 0.9118999999999957,0.4876000000000005 0.8855999999999966,0.47879999999999967 0.8654999999999973,0.47800000000000153 0.8410999999999973,0.4692000000000007 0.8385999999999996,0.4660000000000011 0.8410000000000011,0.45420000000000016 0.8552999999999997,0.44489999999999696 0.8526999999999987,0.44429999999999836 0.8509999999999991,0.4399999999999977 0.8504999999999967,0.4247000000000014 0.845799999999997,0.4172000000000011 0.8310999999999993,0.4046999999999983 0.8114999999999952,0.3924999999999983 0.7971000000000004,0.3802999999999983 0.7723999999999975,0.3673000000000002 0.7607999999999961,0.3633999999999986 0.723399999999998,0.3423000000000016 0.7162999999999968,0.33200000000000074 0.7150999999999996,0.32150000000000034 0.7123999999999953,0.31629999999999825 0.7145999999999972,0.3068000000000026 0.7119,0.3019999999999996 0.7012,0.29809999999999803 0.6907999999999959,0.28940000000000055 0.6759999999999948,0.2802999999999969 0.6644999999999968,0.2774000000000001 0.657199999999996,0.2698000000000036 0.6531999999999982,0.2629999999999981 0.6328999999999994,0.2575000000000003 0.5944000000000003,0.2143000000000015 0.5765999999999991,0.1997 0.5658999999999992,0.19409999999999883 0.5608000000000004,0.19290000000000163 0.5474999999999994,0.19319999999999737 0.5204999999999984,0.18769999999999953 0.5197999999999965,0.18959999999999866 0.5218999999999951,0.19089999999999918 0.5205999999999946,0.1933000000000007 0.5182999999999964,0.19400000000000261 0.4945999999999984,0.22240000000000038 0.4876000000000005,0.2272000000000034 0.48209999999999553,0.21920000000000073 0.4811999999999941,0.22690000000000055 0.468599999999995,0.23259999999999792 0.4649000000000001,0.23579999999999757 0.46119999999999806,0.23329999999999984 0.459699999999998,0.22849999999999682 0.46049999999999613,0.21770000000000067 0.45359999999999445,0.2090999999999994 0.4525999999999968,0.20250000000000057 0.44299999999999784,0.19879999999999853 0.44409999999999883,0.18789999999999907 0.4431999999999974,0.18290000000000362 0.4338999999999942,0.1775999999999982 0.43889999999999674,0.14350000000000307 0.4228999999999985,0.08440000000000225 0.42839999999999634,0.07880000000000109 0.41610000000000014,0.06119999999999948 0.40159999999999485,0.06040000000000134 0.3990999999999971,0.058900000000001285 0.4001999999999981,0.03829999999999956 0.3932000000000002,0.03609999999999758 0.3597999999999999,0.03810000000000002 0.3423999999999978,0.03569999999999851 0.32750000000000057,0.010500000000000398 0.3024999999999949,0.00840000000000174 0.2920999999999978,0.005899999999996908 0.27879999999999683,0.006500000000002615 0.2745999999999995,0.0 0.2556999999999974,0.00269999999999726 "></polygon><polygon points="1.0615999999999985,0.7926000000000002 1.0615999999999985,0.7926000000000002 1.0623000000000005,0.7929999999999993 1.0621999999999971,0.7929999999999993 1.0615999999999985,0.7926000000000002 "></polygon>
    </svg>
    