
    <svg width="2.4444000000000017" height="2.104800000000001" xmlns="http://www.w3.org/2000/svg" xmlns:xlink="http://www.w3.org/1999/xlink" style="transform: scale(1, -1)">
        <polygon points="1.3605000000000018,0.5059000000000005 1.3538000000000032,0.5069999999999979 1.3483000000000018,0.4971999999999994 1.3442000000000007,0.48499999999999943 1.3450000000000024,0.4831000000000003 1.339100000000002,0.4756 1.337600000000002,0.46799999999999997 1.3338,0.4627999999999979 1.334100000000003,0.46030000000000015 1.3364000000000011,0.45870000000000033 1.3338,0.45679999999999765 1.3321000000000005,0.4519999999999982 1.336500000000001,0.4466999999999999 1.334500000000002,0.4435000000000002 1.3290000000000006,0.44099999999999895 1.3218000000000032,0.44170000000000087 1.3191000000000024,0.4458999999999982 1.3175000000000026,0.44170000000000087 1.3139000000000003,0.4383999999999979 1.3099000000000025,0.4375 1.307500000000001,0.4349999999999987 1.3022000000000027,0.43489999999999895 1.299400000000002,0.4247999999999976 1.2919000000000018,0.41939999999999955 1.2858000000000018,0.4204000000000008 1.2767000000000017,0.41799999999999926 1.2713999999999999,0.41999999999999815 1.2627000000000024,0.41939999999999955 1.2578000000000031,0.4225999999999992 1.2527000000000008,0.42350000000000065 1.2484000000000002,0.41910000000000025 1.2383000000000024,0.4173000000000009 1.2332999999999998,0.41809999999999903 1.2251000000000012,0.41570000000000107 1.2246000000000024,0.4096000000000011 1.2177000000000007,0.404399999999999 1.2118000000000002,0.40220000000000056 1.2118000000000002,0.4001999999999981 1.2033000000000023,0.3891999999999989 1.1956000000000024,0.38489999999999824 1.2010000000000005,0.37849999999999895 1.2041000000000004,0.36880000000000024 1.2092000000000027,0.36659999999999826 1.2170000000000023,0.36710000000000065 1.221700000000002,0.36059999999999803 1.2312000000000012,0.3576999999999977 1.2366000000000028,0.3522999999999996 1.2452000000000005,0.3511999999999986 1.241500000000002,0.34779999999999944 1.2454999999999998,0.34580000000000055 1.2403000000000013,0.34199999999999875 1.2416000000000018,0.3335000000000008 1.2447000000000017,0.32949999999999946 1.2514000000000003,0.328599999999998 1.2585000000000015,0.3221999999999987 1.2597000000000023,0.3191999999999986 1.2565000000000026,0.3152000000000008 1.2595000000000027,0.3048000000000002 1.255700000000001,0.29850000000000065 1.255700000000001,0.2911999999999999 1.2523000000000017,0.2887999999999984 1.2473000000000027,0.273299999999999 1.2418000000000013,0.27110000000000056 1.2464000000000013,0.2591999999999999 1.245700000000003,0.2569999999999979 1.2384000000000022,0.2561 1.2349000000000032,0.26030000000000086 1.2280000000000015,0.2624999999999993 1.2260000000000026,0.2574000000000005 1.2209000000000003,0.25489999999999924 1.2170000000000023,0.24510000000000076 1.2041000000000004,0.245000000000001 1.1950000000000003,0.2383999999999986 1.1864000000000026,0.24259999999999948 1.1748000000000012,0.24040000000000106 1.1683000000000021,0.23669999999999902 1.1654000000000018,0.23000000000000043 1.161200000000001,0.22499999999999787 1.154200000000003,0.22080000000000055 1.1524,0.2143999999999977 1.1450000000000031,0.21010000000000062 1.1436000000000028,0.2043999999999997 1.153100000000002,0.1997 1.154200000000003,0.19379999999999953 1.1666000000000025,0.1872000000000007 1.1684000000000019,0.18430000000000035 1.1695000000000029,0.17439999999999856 1.1640000000000015,0.17239999999999966 1.1610000000000014,0.1667999999999985 1.1659000000000006,0.15380000000000038 1.1658000000000008,0.15039999999999765 1.1652000000000022,0.1485999999999983 1.1570999999999998,0.14760000000000062 1.1524,0.1404999999999994 1.1517000000000017,0.1366999999999976 1.1457000000000015,0.13159999999999883 1.1472000000000016,0.12599999999999767 1.1522000000000006,0.1189 1.1494999999999997,0.11700000000000088 1.1513000000000027,0.11280000000000001 1.1480000000000032,0.10729999999999862 1.1491000000000007,0.10309999999999775 1.1423000000000023,0.09979999999999833 1.1399000000000008,0.09159999999999968 1.133700000000001,0.08970000000000056 1.1260000000000012,0.08319999999999794 1.1182000000000016,0.0838000000000001 1.1113999999999997,0.079699999999999 1.1103000000000023,0.07669999999999888 1.1018000000000008,0.07569999999999766 1.099300000000003,0.0669000000000004 1.1015000000000015,0.06370000000000076 1.1009000000000029,0.060900000000000176 1.1075000000000017,0.05290000000000106 1.1057000000000023,0.049099999999999255 1.1064000000000007,0.04230000000000089 1.1050000000000004,0.040800000000000836 1.1062000000000012,0.03539999999999921 1.1101000000000028,0.03219999999999956 1.1123000000000012,0.026299999999999102 1.1125000000000007,0.01640000000000086 1.111900000000002,0.012199999999999989 1.1064000000000007,0.00689999999999813 1.1023000000000032,0.0 1.0732999999999997,0.021599999999999397 1.0411000000000001,0.017499999999998295 0.9924,0.016600000000000392 0.9802999999999997,0.024699999999999278 0.9662000000000006,0.020599999999998175 0.9292000000000016,0.03149999999999764 0.9292000000000016,0.035899999999998045 0.9222000000000001,0.04240000000000066 0.9217000000000013,0.04809999999999803 0.915300000000002,0.05249999999999844 0.9089000000000027,0.053599999999999426 0.9111000000000011,0.06639999999999802 0.9070999999999998,0.0730000000000004 0.904200000000003,0.07430000000000092 0.8956000000000017,0.07130000000000081 0.8918999999999997,0.07269999999999754 0.8872,0.06840000000000046 0.878300000000003,0.07039999999999935 0.8699000000000012,0.061899999999997846 0.8494000000000028,0.06139999999999901 0.8440000000000012,0.05979999999999919 0.8191000000000024,0.061899999999997846 0.8029000000000011,0.05930000000000035 0.7945000000000029,0.06009999999999849 0.784200000000002,0.05649999999999977 0.7809000000000026,0.05799999999999983 0.7757000000000005,0.056699999999999307 0.7742000000000004,0.05829999999999913 0.7704000000000022,0.05829999999999913 0.747600000000002,0.06879999999999953 0.735000000000003,0.06990000000000052 0.7298000000000009,0.07249999999999801 0.728900000000003,0.07679999999999865 0.7235000000000014,0.08520000000000039 0.7194000000000003,0.08559999999999945 0.7140000000000022,0.09069999999999823 0.7090000000000032,0.09720000000000084 0.7051000000000016,0.10699999999999932 0.690800000000003,0.11110000000000042 0.6892000000000031,0.11439999999999984 0.6829999999999998,0.11689999999999756 0.6826000000000008,0.12020000000000053 0.6859999999999999,0.12259999999999849 0.684000000000001,0.12549999999999883 0.6803000000000026,0.1269999999999989 0.6821000000000019,0.1308000000000007 0.6791000000000018,0.13479999999999848 0.6755000000000031,0.13560000000000016 0.6683000000000021,0.141099999999998 0.6613000000000007,0.1402000000000001 0.6538000000000004,0.1501999999999981 0.6463000000000001,0.15309999999999846 0.6460000000000008,0.1562999999999981 0.6417999999999999,0.15820000000000078 0.6346000000000025,0.15589999999999904 0.6340000000000003,0.15859999999999985 0.6279000000000003,0.15990000000000038 0.6256000000000022,0.16249999999999787 0.6133000000000024,0.16859999999999786 0.6096000000000004,0.17350000000000065 0.6106000000000016,0.17629999999999768 0.6086000000000027,0.18189999999999884 0.6034000000000006,0.17889999999999873 0.5984000000000016,0.17999999999999972 0.5958000000000006,0.1836999999999982 0.6006,0.1844999999999999 0.6038000000000032,0.18740000000000023 0.602800000000002,0.19119999999999848 0.6036999999999999,0.19790000000000063 0.5975999999999999,0.204699999999999 0.5925000000000011,0.21709999999999852 0.5863000000000014,0.21829999999999927 0.593,0.2256999999999998 0.5924000000000014,0.22759999999999891 0.5899000000000001,0.2289999999999992 0.581900000000001,0.22530000000000072 0.5761000000000003,0.2256999999999998 0.5738000000000021,0.22710000000000008 0.5610999999999997,0.22749999999999915 0.5560000000000009,0.23079999999999856 0.5531000000000006,0.24109999999999943 0.5602000000000018,0.24540000000000006 0.560100000000002,0.2469999999999999 0.5488,0.2600999999999978 0.5418000000000021,0.2744 0.5274999999999999,0.28249999999999886 0.5221000000000018,0.2914999999999992 0.5091000000000001,0.2923000000000009 0.5007000000000019,0.2884999999999991 0.49560000000000315,0.28800000000000026 0.48939999999999984,0.29749999999999943 0.4908000000000001,0.30379999999999896 0.4832000000000001,0.30109999999999815 0.4781000000000013,0.30219999999999914 0.4786999999999999,0.30959999999999965 0.4770000000000003,0.31269999999999953 0.46340000000000003,0.3194999999999979 0.46310000000000073,0.3225999999999978 0.465600000000002,0.32679999999999865 0.4632000000000005,0.3426000000000009 0.464500000000001,0.3525999999999989 0.4575000000000031,0.359099999999998 0.4518000000000022,0.3619999999999983 0.442300000000003,0.3619999999999983 0.42689999999999984,0.3523999999999994 0.4090000000000025,0.3514999999999979 0.4014000000000024,0.34479999999999933 0.3824000000000005,0.3359999999999985 0.3782000000000032,0.3360999999999983 0.3713000000000015,0.3390999999999984 0.36950000000000216,0.34639999999999915 0.3660000000000032,0.3484999999999978 0.3658999999999999,0.3506999999999998 0.3728000000000016,0.3556999999999988 0.37560000000000215,0.3514999999999979 0.37950000000000017,0.35320000000000107 0.3805000000000014,0.3567 0.37400000000000233,0.36469999999999914 0.3764000000000003,0.36739999999999995 0.38310000000000244,0.3650999999999982 0.3839000000000006,0.3678999999999988 0.3821000000000012,0.3719999999999999 0.372200000000003,0.37129999999999797 0.3686000000000007,0.37539999999999907 0.37790000000000035,0.382200000000001 0.37370000000000303,0.38619999999999877 0.3780000000000001,0.39010000000000034 0.3780000000000001,0.3920999999999992 0.376100000000001,0.3938999999999986 0.3714000000000013,0.3933 0.36850000000000094,0.40139999999999887 0.3660000000000032,0.39949999999999974 0.3653000000000013,0.39590000000000103 0.3625000000000007,0.3949999999999996 0.35800000000000054,0.3965999999999994 0.3556000000000026,0.40179999999999794 0.35880000000000223,0.40530000000000044 0.3595000000000006,0.4084000000000003 0.3545000000000016,0.4164999999999992 0.35930000000000106,0.4269999999999996 0.3552999999999997,0.4383999999999979 0.35880000000000223,0.44819999999999993 0.3541000000000025,0.45759999999999934 0.3565000000000005,0.46229999999999905 0.3625000000000007,0.4684999999999988 0.36400000000000077,0.4771000000000001 0.360000000000003,0.47779999999999845 0.3569000000000031,0.48300000000000054 0.35960000000000036,0.4856999999999978 0.37049999999999983,0.48089999999999833 0.37490000000000023,0.4822999999999986 0.37490000000000023,0.49299999999999855 0.36980000000000146,0.4947999999999979 0.3697000000000017,0.4981000000000009 0.3782000000000032,0.4975999999999985 0.38030000000000186,0.4994999999999976 0.3810000000000002,0.5085999999999977 0.3904000000000032,0.5119000000000007 0.39010000000000034,0.517199999999999 0.3977000000000004,0.5198999999999998 0.3988000000000014,0.5234999999999985 0.3932000000000002,0.5258000000000003 0.3960000000000008,0.5310999999999986 0.39080000000000226,0.5365000000000002 0.37870000000000203,0.5321999999999996 0.3298000000000023,0.5295999999999985 0.3247,0.5277999999999992 0.3155999999999999,0.5274999999999999 0.31170000000000186,0.5356999999999985 0.28520000000000323,0.6194999999999986 0.27960000000000207,0.6252999999999993 0.257200000000001,0.6326 0.2541000000000011,0.6423999999999985 0.2582000000000022,0.6495999999999995 0.24260000000000304,0.6494999999999997 0.2234000000000016,0.6673000000000009 0.2076000000000029,0.6655999999999977 0.21280000000000143,0.6697999999999986 0.21160000000000068,0.678799999999999 0.08530000000000015,0.9456999999999987 0.07200000000000273,0.9526000000000003 0.07670000000000243,0.9560999999999993 0.05310000000000059,0.9704999999999977 0.027200000000000557,0.9985999999999997 0.01710000000000278,1.0045000000000002 0.013000000000001677,1.0094999999999992 0.008300000000001972,1.0089000000000006 0.008300000000001972,1.0113999999999983 0.002600000000001046,1.0137999999999998 0.0,1.0260999999999996 0.006000000000000227,1.0305999999999997 0.014700000000001268,1.0335999999999999 0.01670000000000016,1.0364000000000004 0.013700000000000045,1.0473999999999997 0.006099999999999994,1.0565999999999995 0.008300000000001972,1.0596999999999994 0.01670000000000016,1.0597999999999992 0.02260000000000062,1.0622000000000007 0.025500000000000966,1.0540999999999983 0.03200000000000003,1.0460999999999991 0.037400000000001654,1.0412999999999997 0.04590000000000316,1.038499999999999 0.05460000000000065,1.0561000000000007 0.05270000000000152,1.064 0.05530000000000257,1.0691999999999986 0.05360000000000298,1.0762999999999998 0.054999999999999716,1.0782999999999987 0.058200000000002916,1.0777999999999999 0.06409999999999982,1.0734999999999992 0.06780000000000186,1.0639000000000003 0.07030000000000314,1.061 0.07380000000000209,1.0604999999999976 0.07800000000000296,1.0671999999999997 0.08340000000000103,1.070999999999998 0.09480000000000288,1.0725999999999978 0.09270000000000067,1.0853000000000002 0.10320000000000107,1.090399999999999 0.10810000000000031,1.0978999999999992 0.11870000000000047,1.1019000000000005 0.12980000000000302,1.1004000000000005 0.14290000000000092,1.1145999999999994 0.14740000000000109,1.1159999999999997 0.15380000000000038,1.1130999999999993 0.1737000000000002,1.1097000000000001 0.17820000000000036,1.1056999999999988 0.18360000000000198,1.1080000000000005 0.19140000000000157,1.1068999999999996 0.19720000000000226,1.1098999999999997 0.19470000000000098,1.1150999999999982 0.19550000000000267,1.117799999999999 0.21039999999999992,1.126100000000001 0.20930000000000248,1.1297999999999995 0.21080000000000254,1.1311 0.215600000000002,1.131999999999998 0.22010000000000218,1.121299999999998 0.2270000000000003,1.1224999999999987 0.23260000000000147,1.1210999999999984 0.24460000000000193,1.1280999999999999 0.2436000000000007,1.1387999999999998 0.24600000000000222,1.1422999999999988 0.25150000000000006,1.1422999999999988 0.26550000000000296,1.1493000000000002 0.2718000000000025,1.1476000000000006 0.2778000000000027,1.142199999999999 0.29050000000000153,1.1431000000000004 0.2939000000000007,1.1417000000000002 0.29520000000000124,1.1448999999999998 0.2889000000000017,1.1631999999999998 0.29380000000000095,1.1693999999999996 0.2930000000000028,1.1753 0.2951000000000015,1.178799999999999 0.31810000000000116,1.1949000000000005 0.32220000000000226,1.1949000000000005 0.3288000000000011,1.1895999999999987 0.3360000000000021,1.1875999999999998 0.3500000000000014,1.1899999999999977 0.35230000000000317,1.1969999999999992 0.3454000000000015,1.2089999999999996 0.346700000000002,1.2149 0.3453000000000017,1.2228999999999992 0.3509000000000029,1.2256 0.3592000000000013,1.2269000000000005 0.3636000000000017,1.2324999999999982 0.36880000000000024,1.2348 0.371100000000002,1.2430999999999983 0.3782000000000032,1.2484000000000002 0.38090000000000046,1.2527000000000008 0.3805000000000014,1.2593999999999994 0.38450000000000273,1.2643999999999984 0.3927000000000014,1.2615999999999978 0.4009999999999998,1.2643999999999984 0.40690000000000026,1.264599999999998 0.4133000000000031,1.2714999999999996 0.41040000000000276,1.278500000000001 0.410300000000003,1.2880000000000003 0.40000000000000213,1.2956000000000003 0.39620000000000033,1.3003999999999998 0.39420000000000144,1.3047000000000004 0.3947000000000003,1.3107000000000006 0.3976000000000006,1.3118999999999978 0.4026000000000032,1.310299999999998 0.41510000000000247,1.3018999999999998 0.4210000000000029,1.3025999999999982 0.42400000000000304,1.3053999999999988 0.426400000000001,1.311399999999999 0.422500000000003,1.3233999999999995 0.4250000000000007,1.3414000000000001 0.4332000000000029,1.346899999999998 0.4496000000000002,1.3490000000000002 0.4610000000000021,1.3552999999999997 0.4607000000000028,1.3574999999999982 0.453400000000002,1.362099999999998 0.45230000000000103,1.3679999999999986 0.4457000000000022,1.3702000000000005 0.4433000000000007,1.3779000000000003 0.4542999999999999,1.381499999999999 0.4603999999999999,1.3802999999999983 0.46940000000000026,1.381999999999998 0.4731000000000023,1.3790999999999976 0.47330000000000183,1.3737999999999992 0.47800000000000153,1.3735999999999997 0.4805000000000028,1.3751999999999995 0.478900000000003,1.381499999999999 0.482800000000001,1.3858999999999995 0.4836000000000027,1.3916000000000004 0.5032000000000032,1.393699999999999 0.5089000000000006,1.3994 0.5137,1.4094999999999978 0.5296000000000021,1.415700000000001 0.5349000000000004,1.423099999999998 0.5363000000000007,1.429199999999998 0.5307000000000031,1.4342000000000006 0.5225000000000009,1.4353999999999978 0.5191000000000017,1.438600000000001 0.5134000000000007,1.4345999999999997 0.5103000000000009,1.435299999999998 0.5091999999999999,1.437100000000001 0.5130000000000017,1.440999999999999 0.5134000000000007,1.4438999999999993 0.508700000000001,1.4486999999999988 0.5034000000000027,1.450099999999999 0.5036000000000023,1.4512 0.5141000000000027,1.4586000000000006 0.5183,1.456199999999999 0.5237000000000016,1.4580999999999982 0.5293000000000028,1.4696999999999996 0.5343000000000018,1.4717999999999982 0.5401000000000025,1.4793999999999983 0.5446000000000026,1.4817 0.5538000000000025,1.4831000000000003 0.5558000000000014,1.4879999999999995 0.5635000000000012,1.4908000000000001 0.5654000000000003,1.4932999999999979 0.5669000000000004,1.503899999999998 0.5693000000000019,1.5092999999999996 0.5792999999999999,1.5094999999999992 0.5816000000000017,1.5061 0.5850000000000009,1.5044000000000004 0.5889000000000024,1.5070999999999977 0.5950000000000024,1.5078999999999994 0.6029000000000018,1.5113999999999983 0.6058000000000021,1.5181000000000004 0.6056000000000026,1.523299999999999 0.5913000000000004,1.535499999999999 0.5901000000000032,1.538499999999999 0.5996000000000024,1.5420999999999978 0.6070000000000029,1.5402999999999984 0.6218000000000004,1.5441000000000003 0.6245000000000012,1.5521999999999991 0.6196000000000019,1.5557999999999979 0.6214000000000013,1.5603999999999978 0.6265999999999998,1.5604999999999976 0.6329000000000029,1.5569999999999986 0.6350000000000016,1.5579999999999998 0.6395000000000017,1.5664999999999978 0.6387,1.5705999999999989 0.6411000000000016,1.5744000000000007 0.6371000000000002,1.5799999999999983 0.6399000000000008,1.584699999999998 0.6356999999999999,1.5899999999999999 0.628700000000002,1.5900999999999996 0.6299000000000028,1.5946999999999996 0.6387,1.5973000000000006 0.6491000000000007,1.589299999999998 0.6546000000000021,1.5977999999999994 0.6613000000000007,1.5962999999999994 0.664200000000001,1.5982999999999983 0.6658000000000008,1.6020000000000003 0.6633000000000031,1.605599999999999 0.6652000000000022,1.6087999999999987 0.6636000000000024,1.6104999999999983 0.6561000000000021,1.6119999999999983 0.6486000000000018,1.6198999999999977 0.6435000000000031,1.6142000000000003 0.6408000000000023,1.6142000000000003 0.6413000000000011,1.619299999999999 0.633300000000002,1.6193999999999988 0.6301000000000023,1.6297999999999995 0.6399000000000008,1.6341 0.6438000000000024,1.6287999999999982 0.6475000000000009,1.6268999999999991 0.6500000000000021,1.6290999999999976 0.6616999999999997,1.6315999999999988 0.6643000000000008,1.6366999999999976 0.6637000000000022,1.6422999999999988 0.6585000000000001,1.6460000000000008 0.6588000000000029,1.648299999999999 0.6635000000000026,1.6495999999999995 0.6699000000000019,1.647199999999998 0.6702000000000012,1.6515999999999984 0.6746000000000016,1.650500000000001 0.6767000000000003,1.6524 0.6696000000000026,1.6591999999999985 0.6711000000000027,1.6690000000000005 0.6738,1.6720000000000006 0.6809000000000012,1.6707 0.6943000000000019,1.663999999999998 0.6997,1.6637999999999984 0.702300000000001,1.665499999999998 0.7057000000000002,1.6753 0.7032000000000025,1.6782000000000004 0.7050000000000018,1.684000000000001 0.6982999999999997,1.6849999999999987 0.6961000000000013,1.693200000000001 0.6971000000000025,1.6942999999999984 0.7055000000000007,1.693200000000001 0.7116000000000007,1.6999999999999993 0.7137000000000029,1.708199999999998 0.7088000000000001,1.7125999999999983 0.7097000000000016,1.718 0.7142000000000017,1.7192000000000007 0.7144000000000013,1.7226999999999997 0.7118000000000002,1.7240000000000002 0.7118000000000002,1.7261999999999986 0.7169000000000025,1.7249999999999979 0.7183000000000028,1.7289999999999992 0.7238000000000007,1.7310999999999979 0.7280000000000015,1.7378999999999998 0.731300000000001,1.7333999999999996 0.7346000000000004,1.733699999999999 0.7315000000000005,1.7380999999999993 0.7322000000000024,1.7398999999999987 0.7360000000000007,1.7369999999999983 0.7369000000000021,1.7338999999999984 0.748700000000003,1.7341999999999977 0.7506000000000022,1.7376000000000005 0.7456000000000031,1.7413999999999987 0.7503000000000029,1.7453000000000003 0.7543000000000006,1.7515 0.7554000000000016,1.7585999999999977 0.751100000000001,1.763099999999998 0.7456000000000031,1.763099999999998 0.7428000000000026,1.7716999999999992 0.7430000000000021,1.778500000000001 0.7515000000000001,1.7780999999999985 0.7660000000000018,1.768699999999999 0.775500000000001,1.766099999999998 0.7820999999999998,1.7664000000000009 0.7805,1.7609999999999992 0.7870000000000026,1.757200000000001 0.7965000000000018,1.7585999999999977 0.8049999999999997,1.7545000000000002 0.8155000000000001,1.7628999999999984 0.8201999999999998,1.7628999999999984 0.8181000000000012,1.7668999999999997 0.8186,1.7720999999999982 0.8285000000000018,1.7603000000000009 0.8369999999999997,1.7664000000000009 0.8363000000000014,1.7716999999999992 0.840200000000003,1.7726000000000006 0.8428000000000004,1.7658999999999985 0.8472000000000008,1.7652 0.8481000000000023,1.7615999999999978 0.8527000000000022,1.7620000000000005 0.8576000000000015,1.7558000000000007 0.8681000000000019,1.7582999999999984 0.872200000000003,1.7607 0.8771000000000022,1.7589000000000006 0.8795999999999999,1.7611999999999988 0.8799000000000028,1.7650000000000006 0.8850000000000016,1.7669999999999995 0.8869000000000007,1.7731999999999992 0.8865000000000016,1.7779999999999987 0.8887999999999998,1.7814999999999976 0.8865000000000016,1.7852999999999994 0.8817000000000021,1.7847000000000008 0.8765000000000001,1.7871999999999986 0.8818000000000019,1.7963999999999984 0.8887,1.7971000000000004 0.8973000000000013,1.7940000000000005 0.9087000000000032,1.798099999999998 0.9088000000000029,1.8036999999999992 0.9045000000000023,1.8094000000000001 0.9074000000000026,1.8153000000000006 0.9098000000000006,1.8165999999999976 0.9161000000000001,1.8137000000000008 0.9154000000000018,1.8187999999999995 0.9185000000000016,1.8226999999999975 0.9272000000000027,1.8232999999999997 0.9271000000000029,1.827300000000001 0.9370000000000012,1.8231000000000002 0.9441000000000024,1.8173999999999992 0.9505000000000017,1.815999999999999 0.9512,1.8099999999999987 0.954500000000003,1.8046000000000006 0.9588000000000001,1.8012999999999977 0.9727000000000032,1.7987000000000002 0.9793000000000021,1.7926000000000002 0.9808000000000021,1.7951999999999977 0.9758000000000031,1.7986000000000004 0.9822000000000024,1.7994999999999983 0.9827000000000012,1.802900000000001 0.9845000000000006,1.8035999999999994 0.9886000000000017,1.7981999999999978 0.9908000000000001,1.7990999999999993 0.9935000000000009,1.8039999999999985 0.9963000000000015,1.802900000000001 1.001800000000003,1.7957 1.0071000000000012,1.799900000000001 1.0134000000000007,1.8015000000000008 1.0176000000000016,1.7964999999999982 1.019000000000002,1.7989999999999995 1.0173000000000023,1.8020999999999994 1.0228000000000002,1.801400000000001 1.0196000000000005,1.8034999999999997 1.0212000000000003,1.8079999999999998 1.0168999999999997,1.8088999999999977 1.019000000000002,1.8107000000000006 1.0183999999999997,1.8157999999999994 1.014400000000002,1.8131999999999984 1.0127000000000024,1.8161999999999985 1.0172000000000025,1.8200000000000003 1.0202000000000027,1.8195999999999977 1.0248000000000026,1.8256999999999977 1.029200000000003,1.8249999999999993 1.0300000000000011,1.8293 1.0334000000000003,1.830099999999998 1.0365000000000002,1.8338999999999999 1.0402000000000022,1.8314999999999984 1.0432000000000023,1.8341999999999992 1.0430000000000028,1.840799999999998 1.038800000000002,1.845600000000001 1.040700000000001,1.8490000000000002 1.0395000000000003,1.8574999999999982 1.0478000000000023,1.8612000000000002 1.063600000000001,1.860599999999998 1.0640999999999998,1.8644999999999996 1.0671,1.8652999999999977 1.0660000000000025,1.8682999999999979 1.069300000000002,1.8693999999999988 1.0755000000000017,1.8757999999999981 1.074300000000001,1.881499999999999 1.0714000000000006,1.8824000000000005 1.078000000000003,1.8826 1.084100000000003,1.8902999999999999 1.0833000000000013,1.892199999999999 1.086500000000001,1.893699999999999 1.0848000000000013,1.897400000000001 1.0888000000000027,1.9070999999999998 1.0911000000000008,1.909600000000001 1.0969000000000015,1.9105999999999987 1.1025000000000027,1.9178999999999995 1.1087000000000025,1.918099999999999 1.107800000000001,1.934000000000001 1.1107000000000014,1.9350999999999985 1.1138000000000012,1.9304999999999986 1.1169000000000011,1.928799999999999 1.119600000000002,1.9298000000000002 1.1187000000000005,1.9344999999999999 1.1240000000000023,1.9369999999999976 1.1271000000000022,1.9412999999999982 1.1314000000000028,1.9375999999999998 1.1320000000000014,1.946200000000001 1.1354000000000006,1.9480000000000004 1.1392000000000024,1.9528999999999996 1.1438000000000024,1.9443999999999981 1.1463999999999999,1.9448000000000008 1.144000000000002,1.9516999999999989 1.145900000000001,1.9521999999999977 1.1483000000000025,1.9497999999999998 1.1494,1.9530999999999992 1.144000000000002,1.9564999999999984 1.1511000000000031,1.957699999999999 1.148500000000002,1.9604 1.1549000000000014,1.9628999999999976 1.1569000000000003,1.9661000000000008 1.155700000000003,1.9700999999999986 1.1648000000000032,1.9671999999999983 1.1727000000000025,1.9667999999999992 1.1702000000000012,1.9741999999999997 1.1738999999999997,1.9787 1.171800000000001,1.9817 1.1789000000000023,1.9787999999999997 1.1792000000000016,1.9699999999999989 1.185100000000002,1.9643999999999977 1.1990000000000016,1.9682999999999993 1.2025000000000006,1.9731999999999985 1.2066000000000017,1.9735999999999976 1.2094000000000023,1.9712999999999994 1.2175000000000011,1.9732999999999983 1.2183000000000028,1.9772999999999996 1.2222000000000008,1.9804999999999993 1.2301000000000002,1.9788999999999994 1.2320000000000029,1.972999999999999 1.236500000000003,1.9726 1.2382000000000026,1.9747999999999983 1.2417000000000016,1.9740000000000002 1.2463000000000015,1.9753000000000007 1.2469000000000001,1.9694000000000003 1.2492000000000019,1.9664000000000001 1.254800000000003,1.967299999999998 1.2570000000000014,1.9695 1.2619000000000007,1.9643999999999977 1.2698999999999998,1.9606999999999992 1.274600000000003,1.9623999999999988 1.2758000000000003,1.9652999999999992 1.279,1.9641999999999982 1.2805999999999997,1.9678000000000004 1.2837000000000032,1.9679000000000002 1.2830000000000013,1.9704999999999977 1.284600000000001,1.9722000000000008 1.2865000000000002,1.9712999999999994 1.2858000000000018,1.9679000000000002 1.287700000000001,1.968399999999999 1.2879000000000005,1.9708000000000006 1.2905000000000015,1.9694000000000003 1.288800000000002,1.9722000000000008 1.2922000000000011,1.9734999999999978 1.2936000000000014,1.9832 1.2991000000000028,1.979499999999998 1.2981000000000016,1.9761999999999986 1.2992000000000026,1.9749999999999979 1.3057000000000016,1.9745999999999988 1.309000000000001,1.971899999999998 1.3175000000000026,1.9697999999999993 1.3186999999999998,1.971499999999999 1.3140999999999998,1.9740000000000002 1.3145000000000024,1.9753000000000007 1.3200000000000003,1.9761999999999986 1.3215000000000003,1.979499999999998 1.324300000000001,1.9771 1.3308,1.9817999999999998 1.3327000000000027,1.980599999999999 1.3328000000000024,1.9761999999999986 1.3381000000000007,1.976499999999998 1.3383000000000003,1.9722000000000008 1.344100000000001,1.9804999999999993 1.346,1.9799000000000007 1.3455000000000013,1.9833999999999996 1.3490000000000002,1.9837999999999987 1.3496000000000024,1.985599999999998 1.348200000000002,1.987099999999998 1.3530000000000015,1.9878 1.352400000000003,1.9898999999999987 1.3559000000000019,1.9892000000000003 1.3559000000000019,1.9917999999999978 1.3607000000000014,1.9918999999999976 1.3616000000000028,1.996299999999998 1.357400000000002,2.0005999999999986 1.359300000000001,2.001899999999999 1.3590000000000018,2.0051999999999985 1.3546000000000014,2.0101999999999975 1.3609000000000009,2.0097999999999985 1.3643999999999998,2.0150000000000006 1.3739000000000026,2.0189999999999984 1.3758000000000017,2.0227000000000004 1.377600000000001,2.0218999999999987 1.3760000000000012,2.0265999999999984 1.3789000000000016,2.0275 1.3795000000000002,2.031600000000001 1.3826999999999998,2.031399999999998 1.3847000000000023,2.0290999999999997 1.3877000000000024,2.0318000000000005 1.3915000000000006,2.0311999999999983 1.3931000000000004,2.0381 1.3896000000000015,2.043499999999998 1.3917000000000002,2.0479999999999983 1.3896000000000015,2.0504999999999995 1.3906000000000027,2.0512999999999977 1.3982000000000028,2.0535999999999994 1.4019000000000013,2.048199999999998 1.405700000000003,2.0493999999999986 1.4082000000000008,2.0478999999999985 1.413300000000003,2.0512999999999977 1.4148000000000032,2.0501000000000005 1.418800000000001,2.0554999999999986 1.4258000000000024,2.0551999999999992 1.4263000000000012,2.053799999999999 1.4299,2.057500000000001 1.4313000000000002,2.0554999999999986 1.4338000000000015,2.0601999999999983 1.4353000000000016,2.0561000000000007 1.4380000000000024,2.059100000000001 1.442300000000003,2.0563000000000002 1.4446000000000012,2.058399999999999 1.4451999999999998,2.0638000000000005 1.449900000000003,2.062100000000001 1.4479000000000006,2.064799999999998 1.4497,2.0637000000000008 1.451500000000003,2.066700000000001 1.4552000000000014,2.067499999999999 1.4561000000000028,2.0657999999999994 1.4586000000000006,2.0660999999999987 1.4587000000000003,2.0683000000000007 1.4611000000000018,2.0702999999999996 1.4649999999999999,2.0698000000000008 1.467100000000002,2.0662999999999982 1.4704000000000015,2.0680999999999976 1.4748000000000019,2.0630999999999986 1.4766000000000012,2.0642999999999994 1.4783000000000008,2.069499999999998 1.4834000000000032,2.0676999999999985 1.485000000000003,2.069700000000001 1.4882000000000026,2.0662999999999982 1.4913000000000025,2.0677999999999983 1.4901000000000018,2.0625 1.4958000000000027,2.057500000000001 1.4969000000000001,2.0580999999999996 1.4947000000000017,2.060600000000001 1.497600000000002,2.063299999999998 1.5029000000000003,2.064399999999999 1.5025000000000013,2.065999999999999 1.5096000000000025,2.0673999999999992 1.506300000000003,2.0686 1.506800000000002,2.0729000000000006 1.5099000000000018,2.072099999999999 1.5128000000000021,2.0744000000000007 1.5171000000000028,2.069700000000001 1.5172000000000025,2.0657999999999994 1.519000000000002,2.0653000000000006 1.5212000000000003,2.065999999999999 1.520500000000002,2.0684000000000005 1.5248000000000026,2.0676999999999985 1.529,2.0731 1.531600000000001,2.0687999999999995 1.5351,2.0685000000000002 1.5372000000000021,2.065999999999999 1.5405000000000015,2.0700000000000003 1.5427,2.068999999999999 1.544400000000003,2.0732 1.5524000000000022,2.070599999999999 1.555500000000002,2.067899999999998 1.5557000000000016,2.065200000000001 1.5568000000000026,2.0671999999999997 1.561200000000003,2.0683000000000007 1.5644000000000027,2.0654000000000003 1.5671,2.0717999999999996 1.5724000000000018,2.0717999999999996 1.5793999999999997,2.0671999999999997 1.582600000000003,2.0732 1.5927000000000007,2.0748999999999995 1.5927000000000007,2.077300000000001 1.5949000000000026,2.0775000000000006 1.5960999999999999,2.080199999999998 1.6015000000000015,2.078099999999999 1.6021999999999998,2.081699999999998 1.6055000000000028,2.084699999999998 1.6059000000000019,2.087699999999998 1.6080000000000005,2.0885999999999996 1.607400000000002,2.0898000000000003 1.6107000000000014,2.094999999999999 1.6174,2.0947999999999993 1.621100000000002,2.093 1.6213000000000015,2.0966999999999985 1.6238000000000028,2.096799999999998 1.6253000000000029,2.099999999999998 1.6275000000000013,2.0977999999999994 1.6282000000000032,2.100200000000001 1.6334000000000017,2.1003000000000007 1.633700000000001,2.102499999999999 1.6401000000000003,2.104800000000001 1.6406000000000027,2.1022999999999996 1.6499000000000024,2.0975 1.6529000000000025,2.098399999999998 1.662700000000001,2.089500000000001 1.6704000000000008,2.0859999999999985 1.6746000000000016,2.0764999999999993 1.6808000000000014,2.0716 1.6826000000000008,2.0680999999999976 1.6856000000000009,2.0673999999999992 1.6869000000000014,2.0631999999999984 1.692300000000003,2.057500000000001 1.6864000000000026,2.0493999999999986 1.6868000000000016,2.044599999999999 1.6896000000000022,2.038999999999998 1.6848000000000027,2.037399999999998 1.6856000000000009,2.035899999999998 1.6834000000000024,2.0311999999999983 1.6868000000000016,2.0305 1.6951,2.023299999999999 1.6934000000000005,2.0192999999999977 1.6968000000000032,2.011800000000001 1.6934000000000005,2.004200000000001 1.7129000000000012,1.9939999999999998 1.715200000000003,1.991299999999999 1.7148000000000003,1.9878999999999998 1.718700000000002,1.9865999999999993 1.723200000000002,1.9892000000000003 1.7321000000000026,1.9878999999999998 1.7422000000000004,1.9917999999999978 1.7545000000000002,1.9854999999999983 1.7665000000000006,1.9747999999999983 1.7734000000000023,1.9743999999999993 1.7822000000000031,1.9765999999999977 1.7879000000000005,1.9682999999999993 1.794900000000002,1.9656999999999982 1.7956000000000003,1.9579999999999984 1.8003999999999998,1.9548999999999985 1.7920000000000016,1.9455999999999989 1.7891000000000012,1.9329999999999998 1.7896,1.9301999999999992 1.792900000000003,1.9282000000000004 1.7926000000000002,1.9163999999999994 1.7961000000000027,1.9116 1.7977000000000025,1.9036000000000008 1.806600000000003,1.8998999999999988 1.8118000000000016,1.9036000000000008 1.8130000000000024,1.9085 1.817700000000002,1.9098000000000006 1.8191000000000024,1.9122999999999983 1.8291000000000004,1.9152999999999984 1.8302000000000014,1.916999999999998 1.8411000000000008,1.9160000000000004 1.846300000000003,1.919599999999999 1.8573000000000022,1.9149999999999991 1.8625000000000007,1.9030999999999985 1.8710000000000022,1.9006000000000007 1.876800000000003,1.9006000000000007 1.8821000000000012,1.9091999999999985 1.8947000000000003,1.916599999999999 1.9011000000000031,1.9149999999999991 1.9041000000000032,1.9113000000000007 1.9041000000000032,1.9055999999999997 1.9207999999999998,1.9007000000000005 1.932500000000001,1.892900000000001 1.9339000000000013,1.8884000000000007 1.9308000000000014,1.888099999999998 1.9277000000000015,1.8902 1.9246000000000016,1.8838000000000008 1.9209000000000032,1.883700000000001 1.9365000000000023,1.877600000000001 1.937700000000003,1.871299999999998 1.9291000000000018,1.8689999999999998 1.924900000000001,1.8707999999999991 1.9228000000000023,1.868500000000001 1.9235000000000007,1.8661999999999992 1.9184000000000019,1.8659 1.910700000000002,1.8628 1.9129000000000005,1.8584999999999994 1.9197000000000024,1.8552999999999997 1.9283000000000001,1.8571999999999989 1.926400000000001,1.8520000000000003 1.9346000000000032,1.8505000000000003 1.9337000000000018,1.848399999999998 1.9370000000000012,1.8469999999999978 1.9344000000000001,1.8416999999999994 1.9365000000000023,1.834699999999998 1.9333000000000027,1.8325999999999993 1.9349000000000025,1.8293 1.939700000000002,1.8263999999999996 1.9417000000000009,1.8221999999999987 1.940800000000003,1.8204999999999991 1.9352000000000018,1.8216999999999999 1.9319000000000024,1.8204999999999991 1.933200000000003,1.8188999999999993 1.9282000000000004,1.8158999999999992 1.9285000000000032,1.8131999999999984 1.9372000000000007,1.8066999999999993 1.9421999999999997,1.8078000000000003 1.9466999999999999,1.806000000000001 1.9507000000000012,1.806799999999999 1.9496000000000002,1.8054999999999986 1.9516000000000027,1.8043999999999976 1.9459000000000017,1.7988 1.953000000000003,1.793499999999998 1.9514000000000031,1.7911000000000001 1.9526000000000003,1.7885999999999989 1.963000000000001,1.784399999999998 1.9637000000000029,1.7716999999999992 1.9614000000000011,1.768699999999999 1.9689000000000014,1.7608999999999995 1.975200000000001,1.7597999999999985 1.9796000000000014,1.7612999999999985 1.9829000000000008,1.7703999999999986 1.9922000000000004,1.7730999999999995 1.9942000000000029,1.7779999999999987 2.0008000000000017,1.7781999999999982 2.002100000000002,1.7811999999999983 1.998700000000003,1.7851999999999997 2.0000999999999998,1.7882999999999996 1.9988000000000028,1.7896 2.0008000000000017,1.7902999999999984 1.9997000000000007,1.7912 2.0010000000000012,1.7920999999999978 2.0077,1.7936999999999976 2.017800000000001,1.7875999999999976 2.0177000000000014,1.7774 2.026500000000002,1.7700999999999993 2.027700000000003,1.7676999999999978 2.0268000000000015,1.7643999999999984 2.030000000000001,1.7605000000000004 2.0375000000000014,1.7613999999999983 2.0466000000000015,1.7570999999999977 2.0486000000000004,1.7593999999999994 2.052500000000002,1.7598999999999982 2.0598000000000027,1.7570999999999977 2.0665000000000013,1.7575000000000003 2.0610999999999997,1.7529000000000003 2.0659000000000027,1.7470999999999997 2.0622000000000007,1.7405000000000008 2.0625999999999998,1.7378999999999998 2.0676000000000023,1.7362000000000002 2.074300000000001,1.7396999999999991 2.077900000000003,1.7380999999999993 2.0820000000000007,1.738900000000001 2.0822000000000003,1.7369999999999983 2.0881000000000007,1.7333999999999996 2.0899,1.7274999999999991 2.0970000000000013,1.7262999999999984 2.0999000000000017,1.7224000000000004 2.115400000000001,1.7117000000000004 2.119200000000003,1.7065999999999981 2.115000000000002,1.7073999999999998 2.112000000000002,1.7051999999999978 2.1132000000000026,1.6952999999999996 2.1223000000000027,1.6905000000000001 2.1263000000000005,1.6919000000000004 2.1265,1.6941999999999986 2.1295,1.6938999999999993 2.132100000000001,1.6908999999999992 2.140400000000003,1.6877999999999993 2.137900000000002,1.6859000000000002 2.1415000000000006,1.6853999999999978 2.1433,1.6781000000000006 2.1479,1.6724999999999994 2.1555999999999997,1.6736000000000004 2.166900000000002,1.6723 2.1738999999999997,1.6625999999999976 2.190700000000003,1.6601999999999997 2.1975000000000016,1.6531999999999982 2.2040000000000006,1.6494999999999997 2.206000000000003,1.6445000000000007 2.2037000000000013,1.6407999999999987 2.1997999999999998,1.6384000000000007 2.202300000000001,1.6348999999999982 2.2006000000000014,1.6295000000000002 2.2040000000000006,1.6270999999999987 2.2144000000000013,1.6262000000000008 2.218300000000003,1.6188000000000002 2.2166000000000032,1.6125000000000007 2.2285000000000004,1.602599999999999 2.2300000000000004,1.5995999999999988 2.2413000000000025,1.593399999999999 2.243500000000001,1.5860999999999983 2.2475000000000023,1.5850000000000009 2.2498000000000005,1.5860999999999983 2.2519000000000027,1.5899999999999999 2.2682,1.5999999999999979 2.2965000000000018,1.5990000000000002 2.3012000000000015,1.5962999999999994 2.3033,1.5899999999999999 2.314200000000003,1.5783999999999985 2.3148000000000017,1.574300000000001 2.318200000000001,1.573999999999998 2.3267000000000024,1.5686999999999998 2.3275000000000006,1.565999999999999 2.3381000000000007,1.5568999999999988 2.337600000000002,1.5548000000000002 2.345100000000002,1.5473999999999997 2.3435000000000024,1.5444999999999993 2.3458000000000006,1.5403999999999982 2.3423000000000016,1.5380000000000003 2.34,1.5333000000000006 2.3418000000000028,1.5279999999999987 2.3374000000000024,1.5271000000000008 2.3327000000000027,1.5225000000000009 2.3374000000000024,1.5128999999999984 2.3354,1.5106000000000002 2.3359000000000023,1.5017999999999994 2.3327000000000027,1.4978999999999978 2.3333000000000013,1.4880999999999993 2.3435000000000024,1.4806999999999988 2.345700000000001,1.4735999999999976 2.3515000000000015,1.4704999999999977 2.3568,1.470399999999998 2.3698000000000015,1.4741999999999997 2.3896000000000015,1.4674999999999976 2.397000000000002,1.4633000000000003 2.4023000000000003,1.4543999999999997 2.3976000000000006,1.4536999999999978 2.3956000000000017,1.4467999999999996 2.404,1.4437999999999995 2.4069000000000003,1.4387000000000008 2.4104000000000028,1.4372000000000007 2.414800000000003,1.4257999999999988 2.4115,1.423099999999998 2.4074000000000026,1.4235000000000007 2.407200000000003,1.4175000000000004 2.409600000000001,1.415499999999998 2.423000000000002,1.4128000000000007 2.4288000000000025,1.4057999999999993 2.4283,1.3957999999999977 2.4238999999999997,1.395900000000001 2.4252000000000002,1.389599999999998 2.4284,1.3865999999999978 2.4289000000000023,1.381499999999999 2.4319000000000024,1.3768999999999991 2.4314,1.3744999999999976 2.428000000000001,1.3719000000000001 2.428500000000003,1.367799999999999 2.427000000000003,1.366299999999999 2.4312000000000005,1.363699999999998 2.4303000000000026,1.3611000000000004 2.4358000000000004,1.359300000000001 2.4373000000000005,1.354800000000001 2.4404000000000003,1.3545999999999978 2.4410000000000025,1.3462999999999994 2.4444000000000017,1.339299999999998 2.444300000000002,1.3343999999999987 2.430100000000003,1.3295999999999992 2.432000000000002,1.3241999999999976 2.4303000000000026,1.3177999999999983 2.4333000000000027,1.3107000000000006 2.4375999999999998,1.3071999999999981 2.437000000000001,1.3042999999999978 2.4348000000000027,1.3031000000000006 2.4357000000000006,1.2992999999999988 2.4251000000000005,1.2895000000000003 2.426000000000002,1.2811999999999983 2.4246000000000016,1.2794999999999987 2.408200000000001,1.2788000000000004 2.407200000000003,1.2692999999999977 2.4113000000000007,1.261499999999998 2.408700000000003,1.2590000000000003 2.3992000000000004,1.258499999999998 2.3953000000000024,1.2548999999999992 2.391000000000002,1.245899999999999 2.3906000000000027,1.241699999999998 2.388300000000001,1.239799999999999 2.392100000000003,1.2310999999999979 2.3887,1.2304999999999993 2.3891000000000027,1.2286000000000001 2.3861000000000026,1.2285000000000004 2.3823000000000008,1.2242999999999995 2.377200000000002,1.2238000000000007 2.3763000000000005,1.219899999999999 2.3658,1.2208000000000006 2.3618000000000023,1.2123999999999988 2.3566000000000003,1.2117000000000004 2.3531000000000013,1.2089999999999996 2.351800000000001,1.205400000000001 2.334600000000002,1.2104 2.3291000000000004,1.2072000000000003 2.3281000000000027,1.2033999999999985 2.3165000000000013,1.2048999999999985 2.3145000000000024,1.2013999999999996 2.3098000000000027,1.1998999999999995 2.3084000000000024,1.1976999999999975 2.3125,1.1887000000000008 2.3047000000000004,1.1875 2.2986000000000004,1.1893999999999991 2.2958,1.1926999999999985 2.289200000000001,1.1892999999999994 2.285300000000003,1.1890999999999998 2.282,1.1856000000000009 2.2835,1.1818999999999988 2.2927999999999997,1.1722000000000001 2.293700000000001,1.1658000000000008 2.2956000000000003,1.1652999999999984 2.293800000000001,1.1585999999999999 2.288400000000003,1.1563999999999979 2.2819000000000003,1.1584000000000003 2.2859000000000016,1.153299999999998 2.291800000000002,1.1494 2.2958,1.1418999999999997 2.3017000000000003,1.1387 2.301400000000001,1.1297999999999995 2.2956000000000003,1.1262000000000008 2.2943,1.121299999999998 2.303500000000003,1.1171000000000006 2.305200000000003,1.1130999999999993 2.3092000000000006,1.1125000000000007 2.3099000000000025,1.1095000000000006 2.312800000000003,1.1085999999999991 2.3138000000000005,1.1057999999999986 2.3084000000000024,1.0942000000000007 2.3049,1.0923999999999978 2.298400000000001,1.091000000000001 2.2936000000000014,1.0923999999999978 2.286200000000001,1.0901999999999994 2.273900000000001,1.0911000000000008 2.2743,1.0855999999999995 2.281200000000002,1.0747999999999998 2.2818000000000005,1.0668000000000006 2.2798000000000016,1.0624000000000002 2.281100000000002,1.0593000000000004 2.2714,1.054199999999998 2.2758000000000003,1.0478999999999985 2.271000000000001,1.032899999999998 2.266000000000002,1.0307999999999993 2.2577,1.0326999999999984 2.2534000000000027,1.0366 2.2439,1.0335 2.228900000000003,1.033100000000001 2.223700000000001,1.035899999999998 2.219000000000001,1.0326999999999984 2.218300000000003,1.0290999999999997 2.215700000000002,1.0305 2.210600000000003,1.0275999999999996 2.2067000000000014,1.0281999999999982 2.2031000000000027,1.0205999999999982 2.2001000000000026,1.0204999999999984 2.197300000000002,1.0157999999999987 2.1888000000000005,1.015699999999999 2.1798,1.0048999999999992 2.1766000000000005,1.0040999999999976 2.1715000000000018,1.0075000000000003 2.1682000000000023,1.0004999999999988 2.164900000000003,0.9984000000000002 2.1605000000000025,0.9967000000000006 2.151,0.9981000000000009 2.1484000000000023,0.992799999999999 2.1523000000000003,0.9868999999999986 2.1503000000000014,0.9845000000000006 2.1514000000000024,0.9832000000000001 2.1509,0.9783000000000008 2.1478,0.9739000000000004 2.1494,0.9687999999999981 2.139400000000002,0.9670999999999985 2.138200000000001,0.9634 2.135200000000001,0.9620999999999995 2.1339000000000006,0.9591999999999992 2.1403,0.9420000000000002 2.137500000000003,0.9406999999999996 2.1386000000000003,0.9387000000000008 2.135200000000001,0.9371000000000009 2.1347000000000023,0.9345999999999997 2.1247000000000007,0.9364999999999988 2.124500000000001,0.9316999999999993 2.1266,0.9270999999999994 2.1294000000000004,0.9253 2.128700000000002,0.9164999999999992 2.1225000000000023,0.9144000000000005 2.1235,0.910499999999999 2.1172000000000004,0.9113000000000007 2.112300000000001,0.9082000000000008 2.1198000000000015,0.9024000000000001 2.118100000000002,0.8990000000000009 2.118100000000002,0.8862999999999985 2.1136000000000017,0.8803999999999981 2.112400000000001,0.8682999999999979 2.1159,0.8632999999999988 2.1212000000000018,0.8607999999999976 2.118100000000002,0.8567 2.1203000000000003,0.8496999999999986 2.1174999999999997,0.8439999999999976 2.107000000000003,0.8421999999999983 2.102400000000003,0.8341999999999992 2.0988000000000007,0.8314999999999984 2.091700000000003,0.8305000000000007 2.0899,0.8286999999999978 2.0913000000000004,0.8254999999999981 2.0970000000000013,0.8241999999999976 2.1006,0.8214000000000006 2.1046000000000014,0.8220999999999989 2.1205,0.8156999999999996 2.1275000000000013,0.8145999999999987 2.128,0.8112999999999992 2.1341,0.8073999999999977 2.129900000000003,0.8005999999999993 2.1301000000000023,0.7985000000000007 2.1346000000000025,0.7966999999999977 2.1376000000000026,0.7916999999999987 2.1430000000000007,0.7905999999999977 2.1492000000000004,0.7927999999999997 2.151600000000002,0.7917999999999985 2.1508000000000003,0.7878000000000007 2.1523000000000003,0.7827999999999982 2.149600000000003,0.7801000000000009 2.1503000000000014,0.7725000000000009 2.1469000000000023,0.7696000000000005 2.1571,0.7636000000000003 2.1584000000000003,0.7597999999999985 2.1508000000000003,0.7542000000000009 2.1467000000000027,0.7536999999999985 2.1441000000000017,0.7498000000000005 2.1372999999999998,0.7505999999999986 2.1263000000000005,0.746299999999998 2.1143,0.7454000000000001 2.110900000000001,0.7425999999999995 2.107300000000002,0.7424999999999997 2.1037,0.7386999999999979 2.100100000000001,0.7398999999999987 2.0977000000000032,0.7385999999999981 2.097800000000003,0.7332999999999998 2.095100000000002,0.731300000000001 2.093200000000003,0.7208000000000006 2.0912000000000006,0.7184999999999988 2.0928000000000004,0.7164999999999999 2.0924000000000014,0.7086000000000006 2.0725000000000016,0.7225000000000001 2.0561000000000007,0.7034999999999982 2.0482000000000014,0.6979000000000006 2.0396,0.6934000000000005 2.0333000000000006,0.6935000000000002 2.0305,0.6905999999999999 2.0274,0.6914999999999978 2.022000000000002,0.6890999999999998 2.020900000000001,0.6873000000000005 2.022100000000002,0.6832999999999991 2.017900000000001,0.6779000000000011 2.0130000000000017,0.676400000000001 2.0089000000000006,0.6788999999999987 1.9997000000000007,0.6709999999999994 1.9929000000000023,0.6706000000000003 1.9795000000000016,0.6554000000000002 1.9788000000000032,0.6481999999999992 1.974300000000003,0.644400000000001 1.9666000000000032,0.6457999999999977 1.9647000000000006,0.6433 1.9579000000000022,0.6415000000000006 1.9535000000000018,0.6424999999999983 1.9465000000000003,0.6364999999999981 1.9430000000000014,0.6363999999999983 1.9409000000000027,0.6388999999999996 1.9297000000000004,0.6391999999999989 1.9250000000000007,0.6264000000000003 1.9126000000000012,0.6217000000000006 1.9104000000000028,0.6224999999999987 1.9076000000000022,0.6174999999999997 1.8993000000000002,0.6163999999999987 1.8918,0.6097000000000001 1.8856000000000002,0.6109000000000009 1.8821000000000012,0.6067999999999998 1.867600000000003,0.6057999999999986 1.8636000000000017,0.6019000000000005 1.859300000000001,0.6010999999999989 1.8580000000000005,0.5976999999999997 1.8462000000000032,0.597999999999999 1.8460999999999999,0.592299999999998 1.8481000000000023,0.5883000000000003 1.8451000000000022,0.5858999999999988 1.833000000000002,0.5831999999999979 1.8276000000000003,0.5835000000000008 1.8200000000000003,0.5779999999999994 1.8149000000000015,0.5799999999999983 1.808200000000003,0.5779999999999994 1.7963000000000022,0.5782999999999987 1.7911000000000001,0.5749999999999993 1.7837000000000032,0.5747999999999998 1.7844000000000015,0.5720999999999989 1.7799000000000014,0.5661999999999985 1.7575000000000003,0.5679999999999978 1.7505000000000024,0.5701 1.738500000000002,0.5690999999999988 1.730400000000003,0.5633999999999979 1.7305000000000028,0.5612999999999992 1.7284000000000006,0.5597999999999992 1.7248000000000019,0.5632999999999981 1.717600000000001,0.5625999999999998 1.7129000000000012,0.5600999999999985 1.7094000000000023,0.5603999999999978 1.7075000000000031,0.5579000000000001 1.697700000000001,0.5560000000000009 1.6903000000000006,0.5490999999999993 1.679000000000002,0.5515000000000008 1.6767000000000003,0.5468000000000011 1.6738,0.5469000000000008 1.6669000000000018,0.5416999999999987 1.660300000000003,0.5395000000000003 1.6549000000000014,0.5348000000000006 1.646600000000003,0.5382999999999996 1.6423000000000023,0.5380000000000003 1.6389000000000031,0.5418999999999983 1.631800000000002,0.541599999999999 1.6271000000000022,0.5441000000000003 1.6156000000000006,0.5439000000000007 1.6073000000000022,0.5400999999999989 1.5990000000000002,0.543099999999999 1.5861000000000018,0.5448999999999984 1.5793999999999997,0.5487000000000002 1.5732999999999997,0.5479999999999983 1.5686,0.5496999999999979 1.5638000000000005,0.5481999999999978 1.5552000000000028,0.5530000000000008 1.552900000000001,0.5517000000000003 1.5424000000000007,0.5516000000000005 1.5393000000000008,0.5549999999999997 1.5356000000000023,0.5524999999999984 1.5236000000000018,0.5499000000000009 1.520100000000003,0.5427 1.5054000000000016,0.5367999999999995 1.5009000000000015,0.5324999999999989 1.4952000000000005,0.5306999999999995 1.488500000000002,0.5245999999999995 1.4700000000000024,0.5267999999999979 1.4623000000000026,0.5228000000000002 1.4612000000000016,0.5199999999999996 1.4494000000000007,0.5211000000000006 1.4456000000000024,0.5181000000000004 1.4402000000000008,0.5177999999999976 1.4212000000000025,0.5218999999999987 1.4085,0.5268999999999977 1.3885000000000005,0.5319000000000003 1.3857999999999997,0.5304000000000002 1.3845000000000027,0.5242000000000004 1.3814000000000028,0.5199999999999996 1.3810000000000002,0.5166000000000004 1.379100000000001,0.5161999999999978 1.3789000000000016,0.5127999999999986 1.3728000000000016,0.5105000000000004 1.3709000000000024,0.5063999999999993 1.3605000000000018,0.5059000000000005 "></polygon>
    </svg>
    