
    <svg width="4.1206" height="4.1989" xmlns="http://www.w3.org/2000/svg" xmlns:xlink="http://www.w3.org/1999/xlink" style="transform: scale(1, -1)">
        <polygon points="3.9216999999999995,0.33560000000000034 3.9202999999999992,0.3324999999999996 3.9227999999999996,0.32669999999999977 3.9307,0.3163 3.929099999999999,0.3131000000000004 3.921099999999999,0.3121999999999998 3.9171999999999993,0.30900000000000016 3.914599999999999,0.3028000000000004 3.9166,0.29910000000000014 3.9212,0.29630000000000045 3.9284999999999997,0.2956000000000003 3.9307999999999996,0.29330000000000034 3.9337,0.28390000000000004 3.934799999999999,0.2671000000000001 3.9392999999999994,0.25619999999999976 3.933,0.24040000000000017 3.9297999999999993,0.23740000000000006 3.9215,0.23679999999999968 3.9189999999999996,0.23500000000000032 3.9173,0.23059999999999992 3.9197999999999995,0.22440000000000015 3.9303,0.21370000000000022 3.9322999999999997,0.20730000000000004 3.929099999999999,0.19899999999999984 3.932899999999999,0.18909999999999982 3.9266999999999994,0.18409999999999993 3.9247999999999994,0.1795 3.9270999999999994,0.17349999999999977 3.930999999999999,0.17130000000000045 3.9356999999999998,0.15730000000000022 3.9337999999999997,0.13490000000000002 3.9282999999999992,0.1272000000000002 3.9247999999999994,0.11380000000000035 3.9255999999999993,0.10099999999999998 3.9300999999999995,0.09269999999999978 3.9452999999999996,0.08169999999999966 3.9471,0.07589999999999986 3.9456999999999995,0.07200000000000006 3.9308999999999994,0.05320000000000036 3.9278999999999993,0.04589999999999961 3.9282999999999992,0.040600000000000414 3.9326,0.03340000000000032 3.9616,0.015100000000000335 3.9642999999999997,0.010900000000000354 3.9621999999999993,0.009199999999999875 3.9516999999999998,0.010900000000000354 3.9121999999999995,0.007799999999999585 3.9007999999999994,0.008300000000000196 3.8911,0.005799999999999805 3.8899999999999997,0.0019999999999997797 3.8885999999999994,0.0030999999999998806 3.8855999999999993,0.0019999999999997797 3.8697,0.002500000000000391 3.8671999999999995,0.0 3.8686,0.002500000000000391 3.8638999999999992,0.007500000000000284 3.8449999999999998,0.012500000000000178 3.765599999999999,0.01890000000000036 3.7593999999999994,0.015900000000000247 3.7607999999999997,0.013600000000000279 3.7563999999999993,0.012199999999999989 3.7566999999999995,0.017000000000000348 3.7630999999999997,0.01949999999999985 3.7666999999999993,0.025800000000000267 3.7630999999999997,0.029200000000000337 3.7653,0.03559999999999963 3.7603,0.03559999999999963 3.7555999999999994,0.039699999999999847 3.7542,0.03699999999999992 3.7622,0.03310000000000013 3.7622,0.028100000000000236 3.7646999999999995,0.025800000000000267 3.7622,0.019999999999999574 3.757199999999999,0.027000000000000135 3.7482999999999995,0.03059999999999974 3.7013999999999996,0.038599999999999746 3.7013999999999996,0.043099999999999916 3.7032999999999996,0.04699999999999971 3.698899999999999,0.0517000000000003 3.6853,0.056700000000000195 3.682499999999999,0.060900000000000176 3.6753,0.0636000000000001 3.6574999999999998,0.06639999999999979 3.6593999999999998,0.07110000000000039 3.6658,0.07449999999999957 3.6681,0.07969999999999988 3.6624999999999996,0.09170000000000034 3.6538999999999993,0.10109999999999975 3.6538999999999993,0.10310000000000041 3.6568999999999994,0.10139999999999993 3.6597,0.09670000000000023 3.667,0.09529999999999994 3.6692,0.09700000000000042 3.6694999999999993,0.09919999999999973 3.6677999999999997,0.10609999999999964 3.6652999999999993,0.10949999999999971 3.6632999999999996,0.10860000000000003 3.6671999999999993,0.10470000000000024 3.6681,0.09700000000000042 3.6666999999999996,0.09609999999999985 3.6602999999999994,0.09750000000000014 3.6557999999999993,0.10529999999999973 3.6507999999999994,0.10360000000000014 3.6393999999999993,0.11169999999999991 3.618099999999999,0.1205999999999996 3.5710999999999995,0.1360999999999999 3.5630999999999995,0.13750000000000018 3.5622,0.13919999999999977 3.5458,0.14250000000000007 3.546099999999999,0.14470000000000027 3.5488999999999997,0.14590000000000014 3.5513999999999992,0.14970000000000017 3.5492,0.15139999999999976 3.5458,0.15109999999999957 3.5446999999999997,0.15669999999999984 3.5405999999999995,0.15829999999999966 3.5424999999999995,0.16110000000000024 3.5427999999999997,0.17110000000000003 3.5402999999999993,0.16699999999999982 3.5416999999999996,0.16199999999999992 3.5397,0.15829999999999966 3.5439,0.15639999999999965 3.5458,0.15029999999999966 3.55,0.15000000000000036 3.5471999999999992,0.14639999999999986 3.535799999999999,0.15700000000000003 3.5207999999999995,0.16220000000000034 3.482199999999999,0.17279999999999962 3.434199999999999,0.18200000000000038 3.4330999999999996,0.1836000000000002 3.437199999999999,0.1863999999999999 3.4397,0.19200000000000017 3.439399999999999,0.19700000000000006 3.4369999999999994,0.20089999999999986 3.4383,0.20359999999999978 3.4369999999999994,0.20420000000000016 3.4360999999999997,0.19949999999999957 3.4391999999999996,0.19420000000000037 3.4369999999999994,0.18839999999999968 3.4292,0.18330000000000002 3.425799999999999,0.18330000000000002 3.384499999999999,0.19390000000000018 3.3499999999999996,0.20030000000000037 3.3308,0.20310000000000006 3.321399999999999,0.20249999999999968 3.3019999999999996,0.20500000000000007 3.293099999999999,0.20420000000000016 3.290799999999999,0.20720000000000027 3.2697000000000003,0.21199999999999974 3.266399999999999,0.21140000000000025 3.26,0.21579999999999977 3.2544000000000004,0.21640000000000015 3.2555999999999994,0.22029999999999994 3.2531,0.21750000000000025 3.2356,0.21970000000000045 3.2291999999999987,0.22560000000000002 3.228299999999999,0.2281000000000004 3.2233,0.23029999999999973 3.222199999999999,0.2342000000000004 3.2174999999999994,0.23829999999999973 3.1928,0.2481 3.1914,0.2558999999999996 3.1897,0.2558999999999996 3.1897,0.2580999999999998 3.1858000000000004,0.26199999999999957 3.1785999999999994,0.2649999999999997 3.1763999999999992,0.26839999999999975 3.1671999999999993,0.27360000000000007 3.163599999999999,0.27749999999999986 3.146099999999999,0.28249999999999975 3.1480999999999995,0.28779999999999983 3.1468999999999987,0.29469999999999974 3.153599999999999,0.2942 3.152199999999999,0.2903000000000002 3.1549999999999994,0.2916999999999996 3.154399999999999,0.2945000000000002 3.1457999999999995,0.2964000000000002 3.146699999999999,0.28779999999999983 3.1427999999999994,0.28469999999999995 3.1097,0.2945000000000002 3.0778,0.3003 3.0763999999999996,0.3033999999999999 3.0702999999999996,0.3071999999999999 3.057499999999999,0.3097000000000003 3.055299999999999,0.3109000000000002 3.0533,0.3152999999999997 3.0474999999999994,0.31700000000000017 3.0452999999999992,0.3160999999999996 3.0444999999999993,0.3189000000000002 3.034699999999999,0.3224999999999998 3.0358,0.32530000000000037 3.0332999999999988,0.33000000000000007 3.027799999999999,0.33169999999999966 3.0246999999999993,0.33560000000000034 3.016399999999999,0.33889999999999976 3.0128000000000004,0.34719999999999995 3.0153,0.35029999999999983 3.0153,0.3531000000000004 3.013299999999999,0.34970000000000034 3.0116999999999994,0.34970000000000034 3.0083,0.3539000000000003 2.9985999999999997,0.3605999999999998 2.9786,0.3696999999999999 2.9770000000000003,0.3742000000000001 2.9730999999999987,0.3777999999999997 2.947799999999999,0.3888999999999996 2.9414,0.39419999999999966 2.925799999999999,0.40000000000000036 2.925799999999999,0.40139999999999976 2.9283,0.40200000000000014 2.9277999999999995,0.40310000000000024 2.9231,0.40200000000000014 2.9141999999999992,0.40329999999999977 2.9139,0.40559999999999974 2.91,0.40859999999999985 2.8939000000000004,0.41279999999999983 2.891399999999999,0.4158999999999997 2.8874999999999993,0.4153000000000002 2.8813999999999993,0.4219999999999997 2.8733000000000004,0.4264000000000001 2.867799999999999,0.4272 2.865,0.4306000000000001 2.8642000000000003,0.4286000000000003 2.857199999999999,0.4283999999999999 2.8536,0.4320000000000004 2.8149999999999995,0.44310000000000027 2.814499999999999,0.4444999999999997 2.8160999999999987,0.4455999999999998 2.810599999999999,0.4478 2.7982999999999993,0.4489000000000001 2.778599999999999,0.45450000000000035 2.7699999999999996,0.45500000000000007 2.766399999999999,0.45999999999999996 2.7616999999999994,0.46110000000000007 2.765599999999999,0.46330000000000027 2.7657999999999987,0.46609999999999996 2.7630999999999997,0.4709000000000003 2.7638999999999996,0.47280000000000033 2.757199999999999,0.47829999999999995 2.7233,0.4870000000000001 2.7042,0.4942000000000002 2.6958,0.5003000000000002 2.6914,0.5 2.693299999999999,0.5019999999999998 2.692499999999999,0.5067000000000004 2.6858000000000004,0.5138999999999996 2.6807999999999996,0.5160999999999998 2.6777999999999995,0.5247000000000002 2.6386000000000003,0.5449999999999999 2.6366999999999994,0.5484 2.639999999999999,0.5495000000000001 2.640599999999999,0.5522 2.6364,0.5602999999999998 2.6289,0.5660999999999996 2.6235999999999997,0.5678000000000001 2.6242,0.5711000000000004 2.613299999999999,0.5774999999999997 2.597199999999999,0.585 2.5877999999999997,0.5869999999999997 2.572799999999999,0.5930999999999997 2.5680999999999994,0.5956000000000001 2.568299999999999,0.5994999999999999 2.5625,0.5972 2.5039,0.6158999999999999 2.490599999999999,0.6181000000000001 2.487,0.6203000000000003 2.4786,0.6208999999999998 2.4749999999999996,0.6234000000000002 2.4727999999999994,0.6224999999999996 2.471399999999999,0.6245000000000003 2.4556000000000004,0.6264000000000003 2.4544999999999995,0.6277999999999997 2.4489,0.6272000000000002 2.4471999999999987,0.6306000000000003 2.4414,0.6322000000000001 2.4399999999999995,0.6364000000000001 2.441699999999999,0.6345000000000001 2.4444,0.6357999999999997 2.4444,0.6420000000000003 2.4460999999999995,0.6425000000000001 2.4475,0.6391999999999998 2.452,0.6402999999999999 2.4542,0.6489000000000003 2.4556000000000004,0.6502999999999997 2.4582999999999995,0.6497000000000002 2.459199999999999,0.6572000000000005 2.4564000000000004,0.6589 2.4532999999999987,0.6572000000000005 2.4544999999999995,0.6614000000000004 2.4572000000000003,0.6624999999999996 2.4656000000000002,0.6614000000000004 2.4688999999999997,0.6658 2.4730999999999987,0.6664000000000003 2.4778000000000002,0.6645000000000003 2.4768999999999988,0.6666999999999996 2.4688999999999997,0.6666999999999996 2.4656000000000002,0.6622000000000003 2.4581,0.6638999999999999 2.4536,0.6622000000000003 2.452,0.6572000000000005 2.4560999999999993,0.6566999999999998 2.4574999999999996,0.6539000000000001 2.4564000000000004,0.6517 2.453099999999999,0.6509 2.4475,0.6407999999999996 2.4482999999999997,0.6449999999999996 2.4467,0.6524999999999999 2.4358000000000004,0.6614000000000004 2.4032999999999998,0.6760999999999999 2.3956,0.6810999999999998 2.3721999999999994,0.6894999999999998 2.3697,0.6889000000000003 2.3691999999999993,0.6913999999999998 2.3602999999999987,0.6958000000000002 2.365599999999999,0.7042000000000002 2.3591999999999995,0.7108999999999996 2.315299999999999,0.7278000000000002 2.3117,0.7331000000000003 2.289999999999999,0.7450000000000001 2.2832999999999988,0.7516999999999996 2.287799999999999,0.7522000000000002 2.2903000000000002,0.7472000000000003 2.2958,0.7446999999999999 2.299199999999999,0.7496999999999998 2.3033,0.7503000000000002 2.3025,0.7535999999999996 2.3013999999999992,0.7506000000000004 2.299199999999999,0.7511000000000001 2.2958,0.7466999999999997 2.2933000000000003,0.7464000000000004 2.2881,0.7535999999999996 2.283899999999999,0.7535999999999996 2.277199999999999,0.7596999999999996 2.255799999999999,0.7671999999999999 2.243599999999999,0.7736000000000001 2.2296999999999993,0.7771999999999997 2.2239000000000004,0.7835999999999999 2.2060999999999993,0.7896999999999998 2.1877999999999993,0.7986000000000004 2.1889000000000003,0.8006000000000002 2.1907999999999994,0.7986000000000004 2.1938999999999993,0.7988999999999997 2.1975,0.8025000000000002 2.1999999999999993,0.7995000000000001 2.205,0.8049999999999997 2.2032999999999987,0.8141999999999996 2.2060999999999993,0.8170000000000002 2.207799999999999,0.8133999999999997 2.2072000000000003,0.8171999999999997 2.204699999999999,0.8174999999999999 2.2028,0.8150000000000004 2.2032999999999987,0.8049999999999997 2.1999999999999993,0.8025000000000002 2.202499999999999,0.8109000000000002 2.2011000000000003,0.8181000000000003 2.192499999999999,0.8282999999999996 2.177199999999999,0.8375000000000004 2.1525,0.8491999999999997 2.1378000000000004,0.8536000000000001 2.139199999999999,0.8544999999999998 2.136099999999999,0.8594999999999997 2.123099999999999,0.8653000000000004 2.117799999999999,0.8719999999999999 2.1099999999999994,0.8742000000000001 2.1083,0.8780999999999999 2.1121999999999996,0.8777999999999997 2.1128,0.8817000000000004 2.109399999999999,0.8883999999999999 2.090299999999999,0.8967 2.0885999999999996,0.8997000000000002 2.08,0.9039000000000001 2.0753000000000004,0.9100000000000001 2.0472,0.9310999999999998 2.043899999999999,0.9344999999999999 2.0433000000000003,0.9382999999999999 2.0391999999999992,0.9442000000000004 2.0238999999999994,0.9539 2.0214,0.9572000000000003 2.0236,0.9581 2.022499999999999,0.9627999999999997 2.011899999999999,0.9714 2.0107999999999997,0.9733999999999998 2.0122,0.9739000000000004 2.011899999999999,0.9763999999999999 2.0096999999999987,0.9797000000000002 1.9961000000000002,0.9897 1.9974999999999987,0.9942000000000002 1.9947,0.9981 1.9966999999999988,1.0006000000000004 1.9941999999999993,1.0058999999999996 1.9957999999999991,1.0106000000000002 1.9953000000000003,1.0141999999999998 1.984399999999999,1.0289000000000001 1.9880999999999993,1.0271999999999997 1.9916999999999998,1.0213999999999999 1.9947,1.0220000000000002 1.9961000000000002,1.0242000000000004 1.9985999999999997,1.0239000000000003 1.9985999999999997,1.0250000000000004 1.9961000000000002,1.0250000000000004 1.9918999999999993,1.0221999999999998 1.9900000000000002,1.0278 1.9835999999999991,1.0305999999999997 1.966099999999999,1.0427999999999997 1.953899999999999,1.0545 1.942499999999999,1.0597000000000003 1.9397000000000002,1.0625 1.9192,1.0721999999999996 1.8917000000000002,1.0803000000000003 1.8910999999999998,1.0819999999999999 1.8935999999999993,1.0824999999999996 1.8957999999999995,1.0858999999999996 1.8956,1.0919999999999996 1.9008000000000003,1.0922 1.903599999999999,1.0983 1.9019999999999992,1.1039000000000003 1.9019999999999992,1.1124999999999998 1.8957999999999995,1.1197 1.8856000000000002,1.1280999999999999 1.8558000000000003,1.1439000000000004 1.8392,1.1578 1.8302999999999994,1.1614000000000004 1.8277999999999999,1.1656000000000004 1.8231000000000002,1.1669999999999998 1.8219999999999992,1.1696999999999997 1.8102999999999998,1.1757999999999997 1.8074999999999992,1.1797000000000004 1.8041999999999998,1.1814 1.8025000000000002,1.1849999999999996 1.7911000000000001,1.1908000000000003 1.7899999999999991,1.1939000000000002 1.7638999999999996,1.2061000000000002 1.7645,1.2085999999999997 1.760299999999999,1.2127999999999997 1.7607999999999997,1.2157999999999998 1.7575000000000003,1.2188999999999997 1.7577999999999996,1.2217000000000002 1.7538999999999998,1.2291999999999996 1.7535999999999987,1.2347000000000001 1.7555999999999994,1.2374999999999998 1.7524999999999995,1.2424999999999997 1.7530999999999999,1.245 1.7516999999999996,1.2453000000000003 1.7514000000000003,1.2424999999999997 1.754199999999999,1.2378 1.7514000000000003,1.2289000000000003 1.7535999999999987,1.2270000000000003 1.7553,1.2217000000000002 1.7424999999999997,1.2256 1.737499999999999,1.2310999999999996 1.7327999999999992,1.2331000000000003 1.7278000000000002,1.2378 1.7081,1.2492 1.7032999999999987,1.2572 1.6963999999999988,1.2628000000000004 1.693299999999999,1.2681000000000004 1.6891999999999996,1.2702999999999998 1.685599999999999,1.2760999999999996 1.674199999999999,1.2855999999999996 1.6671999999999993,1.2956000000000003 1.647499999999999,1.3128000000000002 1.648299999999999,1.3147000000000002 1.642199999999999,1.3235999999999999 1.6471999999999998,1.3224999999999998 1.6486,1.3255999999999997 1.6410999999999998,1.3244999999999996 1.6402999999999999,1.3289 1.6338999999999988,1.3331 1.6150000000000002,1.3533999999999997 1.5877999999999997,1.3655999999999997 1.5863999999999994,1.3678 1.5875000000000004,1.3682999999999996 1.5888999999999989,1.3672000000000004 1.5893999999999995,1.3674999999999997 1.5871999999999993,1.37 1.5846999999999998,1.3689 1.5831,1.3722000000000003 1.5777999999999999,1.3739 1.5696999999999992,1.3796999999999997 1.554499999999999,1.3967 1.5488999999999997,1.3992000000000004 1.5399999999999991,1.4081000000000001 1.5289000000000001,1.4207999999999998 1.5263999999999989,1.4257999999999997 1.5152999999999999,1.4328000000000003 1.5146999999999995,1.4428 1.5199999999999996,1.4481000000000002 1.5242000000000004,1.4461000000000004 1.5250000000000004,1.4492000000000003 1.5236,1.4516999999999998 1.5236,1.447 1.5189000000000004,1.4485999999999999 1.5146999999999995,1.4442000000000004 1.5130999999999997,1.4391999999999996 1.5138999999999996,1.4356 1.5055999999999994,1.4386 1.4957999999999991,1.4482999999999997 1.4791999999999987,1.4566999999999997 1.4771999999999998,1.4653 1.4682999999999993,1.4749999999999996 1.4664000000000001,1.4800000000000004 1.4627999999999997,1.4820000000000002 1.4577999999999989,1.4881000000000002 1.4402999999999988,1.5006000000000004 1.4360999999999997,1.4996999999999998 1.4291999999999998,1.5033000000000003 1.4253,1.5035999999999996 1.4288999999999987,1.5045000000000002 1.4360999999999997,1.5006000000000004 1.4389000000000003,1.5016999999999996 1.4307999999999996,1.5103 1.4291999999999998,1.5106000000000002 1.4291999999999998,1.5069999999999997 1.4280999999999988,1.5069999999999997 1.4261,1.5145 1.4207999999999998,1.5175 1.4214000000000002,1.5186000000000002 1.4261,1.5156 1.431099999999999,1.5186000000000002 1.4328000000000003,1.5328 1.4291999999999998,1.5434 1.4194999999999993,1.5536000000000003 1.4169,1.5636 1.4146999999999998,1.5644999999999998 1.4139,1.5621999999999998 1.4102999999999994,1.5667 1.3971999999999998,1.5728 1.3957999999999995,1.5750000000000002 1.385299999999999,1.5796999999999999 1.3735999999999997,1.5875000000000004 1.373099999999999,1.5896999999999997 1.3646999999999991,1.5956000000000001 1.3528000000000002,1.5999999999999996 1.3394999999999992,1.6102999999999996 1.3383000000000003,1.6153000000000004 1.3367000000000004,1.6163999999999996 1.3163999999999998,1.6245000000000003 1.3078000000000003,1.6258999999999997 1.2903000000000002,1.6338999999999997 1.286999999999999,1.6378000000000004 1.2852999999999994,1.6436000000000002 1.2803000000000004,1.6492000000000004 1.278599999999999,1.6572000000000005 1.2746999999999993,1.6639 1.2760999999999996,1.6664000000000003 1.2706,1.6727999999999996 1.2681000000000004,1.6810999999999998 1.2485999999999997,1.6981000000000002 1.2007999999999992,1.7220000000000004 1.1488999999999994,1.7422000000000004 1.1592000000000002,1.7394999999999996 1.1593999999999998,1.7413999999999996 1.1610999999999994,1.7411000000000003 1.1593999999999998,1.7431 1.1563999999999997,1.7435999999999998 1.154399999999999,1.7413999999999996 1.1456,1.745 1.1452999999999989,1.7442000000000002 1.1463999999999999,1.7435999999999998 1.1460999999999988,1.7431 1.1305999999999994,1.7495000000000003 1.1260999999999992,1.7496999999999998 1.1258,1.7542 1.1211000000000002,1.7564000000000002 1.1191999999999993,1.7591999999999999 1.111699999999999,1.7614 1.112,1.7670000000000003 1.1158000000000001,1.7720000000000002 1.1097000000000001,1.7803000000000004 1.0919999999999987,1.7914000000000003 1.0564,1.8038999999999996 1.0566999999999993,1.8053 1.0596999999999994,1.8049999999999997 1.0582999999999991,1.8114 1.0564,1.8094999999999999 1.049999999999999,1.8125 1.056099999999999,1.8080999999999996 1.0535999999999994,1.8059000000000003 1.0496999999999996,1.8064 1.0395000000000003,1.8114 1.0258000000000003,1.8152999999999997 1.0244,1.8175 1.0191999999999997,1.8175 1.0002999999999993,1.8235999999999999 0.9996999999999989,1.8263999999999996 1.0053,1.8250000000000002 1.0053,1.8263999999999996 0.9961000000000002,1.8295000000000003 0.9949999999999992,1.8289 0.9985999999999997,1.8272000000000004 0.9977999999999998,1.8247 0.9880999999999993,1.8277999999999999 0.9871999999999996,1.8316999999999997 0.9861000000000004,1.8284000000000002 0.9756,1.8322000000000003 0.9756,1.8346999999999998 0.9735999999999994,1.8361 0.974499999999999,1.8334000000000001 0.9727999999999994,1.8324999999999996 0.8844999999999992,1.8575 0.8933,1.8567 0.9367000000000001,1.8436000000000003 0.9346999999999994,1.8457999999999997 0.918099999999999,1.8499999999999996 0.9175000000000004,1.8517000000000001 0.9163999999999994,1.8506 0.9155999999999995,1.8528000000000002 0.9149999999999991,1.8514 0.9116999999999997,1.8521999999999998 0.9092000000000002,1.8533999999999997 0.9085999999999999,1.8556 0.9080999999999992,1.8544999999999998 0.9063999999999997,1.8558000000000003 0.9041999999999994,1.8547000000000002 0.8994,1.8556 0.8986000000000001,1.8589000000000002 0.8896999999999995,1.8600000000000003 0.8888999999999996,1.8613999999999997 0.8878000000000004,1.8605999999999998 0.8905999999999992,1.8578000000000001 0.8818999999999999,1.8600000000000003 0.8791999999999991,1.8592000000000004 0.8288999999999991,1.8714000000000004 0.8288999999999991,1.8724999999999996 0.8316999999999997,1.8716999999999997 0.8327999999999989,1.8722000000000003 0.8314000000000004,1.8745000000000003 0.8293999999999997,1.8735999999999997 0.823599999999999,1.8756000000000004 0.8247,1.8769999999999998 0.8232999999999997,1.8780999999999999 0.8210999999999995,1.8753000000000002 0.8257999999999992,1.8724999999999996 0.8102999999999998,1.8758 0.8041999999999998,1.8792 0.7986000000000004,1.8796999999999997 0.7986000000000004,1.8814000000000002 0.7974999999999994,1.8803 0.7913999999999994,1.8811 0.779399999999999,1.8925 0.7769999999999992,1.9010999999999996 0.7689000000000004,1.9058000000000002 0.767199999999999,1.9089 0.7616999999999994,1.9100000000000001 0.761099999999999,1.9085999999999999 0.7256,1.9203000000000001 0.7082999999999995,1.9336000000000002 0.6907999999999994,1.9402999999999997 0.6855999999999991,1.9450000000000003 0.6828000000000003,1.9511000000000003 0.668099999999999,1.9585999999999997 0.6683000000000003,1.9688999999999997 0.6753,1.9697000000000005 0.6777999999999995,1.9759000000000002 0.6821999999999999,1.9781000000000004 0.6830999999999996,1.9756 0.6794999999999991,1.9717000000000002 0.6794999999999991,1.9697000000000005 0.6810999999999989,1.9675000000000002 0.6855999999999991,1.9672 0.6846999999999994,1.9649999999999999 0.6882999999999999,1.9630999999999998 0.6891999999999996,1.9569999999999999 0.6928000000000001,1.9527999999999999 0.6936,1.9474999999999998 0.6955999999999989,1.9534000000000002 0.7003000000000004,1.952 0.6989000000000001,1.9459 0.6997,1.9452999999999996 0.7064000000000004,1.9489 0.7099999999999991,1.9569999999999999 0.7160999999999991,1.9572000000000003 0.7210999999999999,1.9558 0.7210999999999999,1.9508999999999999 0.7227999999999994,1.9478 0.7257999999999996,1.9463999999999997 0.7296999999999993,1.9485999999999999 0.7313999999999989,1.9471999999999996 0.7282999999999991,1.9545000000000003 0.7263999999999999,1.9484000000000004 0.7221999999999991,1.9503000000000004 0.7217000000000002,1.9608999999999996 0.7199999999999989,1.9595000000000002 0.7164000000000001,1.9608999999999996 0.7172000000000001,1.9585999999999997 0.7099999999999991,1.9595000000000002 0.7024999999999988,1.9545000000000003 0.6938999999999993,1.9581 0.6875,1.9680999999999997 0.6881000000000004,1.9703 0.6932999999999989,1.9739000000000004 0.6858000000000004,1.9709000000000003 0.6841999999999988,1.9686000000000003 0.6820000000000004,1.9695 0.6894999999999989,1.9900000000000002 0.6881000000000004,1.9935999999999998 0.6916999999999991,1.995 0.6894999999999989,1.9985999999999997 0.6921999999999997,2.0022 0.6894999999999989,2.0046999999999997 0.6921999999999997,2.0075000000000003 0.6877999999999993,2.0233 0.6806000000000001,2.0392 0.6738999999999997,2.0472 0.6738999999999997,2.0514 0.6696999999999989,2.0580999999999996 0.6480999999999995,2.0766999999999998 0.6382999999999992,2.0925000000000002 0.6266999999999996,2.1045 0.5985999999999994,2.125 0.5785999999999998,2.1369999999999996 0.5708000000000002,2.1447000000000003 0.5621999999999989,2.1489000000000003 0.5608000000000004,2.1506 0.5621999999999989,2.1544999999999996 0.5586000000000002,2.152 0.5582999999999991,2.1536 0.5535999999999994,2.1547 0.5327999999999999,2.1664000000000003 0.5282999999999998,2.1722 0.5096999999999987,2.1814 0.5057999999999989,2.1847000000000003 0.47419999999999973,2.2011000000000003 0.4399999999999995,2.2153 0.4367000000000001,2.2197000000000005 0.398299999999999,2.2367 0.3974999999999991,2.2394999999999996 0.3957999999999995,2.2381 0.3724999999999987,2.2495000000000003 0.31700000000000017,2.2714 0.1877999999999993,2.3286 0.1338999999999988,2.3486000000000002 0.1313999999999993,2.3514 0.125,2.3533999999999997 0.11609999999999943,2.3625 0.11720000000000041,2.3674999999999997 0.1142000000000003,2.3695000000000004 0.11249999999999893,2.3742 0.10580000000000034,2.3789 0.09999999999999964,2.3906 0.10169999999999924,2.3952999999999998 0.10939999999999905,2.402 0.11529999999999951,2.4103000000000003 0.1166999999999998,2.4156000000000004 0.11779999999999902,2.4164000000000003 0.11779999999999902,2.4145000000000003 0.12219999999999942,2.4145000000000003 0.1203000000000003,2.4400000000000004 0.1120000000000001,2.457 0.1120000000000001,2.4603 0.10219999999999985,2.4706 0.09529999999999994,2.4850000000000003 0.08530000000000015,2.4989 0.067499999999999,2.5119999999999996 0.030799999999999272,2.5328 0.030300000000000438,2.5364000000000004 0.028100000000000236,2.5385999999999997 0.02859999999999907,2.5416999999999996 0.026099999999999568,2.545 0.013099999999999667,2.5575 0.0,2.5648999999999997 0.024200000000000443,2.5693 0.028699999999998838,2.5647 0.032600000000000406,2.5679 0.033299999999998775,2.5725 0.0365000000000002,2.577 0.05149999999999899,2.5842 0.06439999999999912,2.5829000000000004 0.07019999999999982,2.5796 0.06899999999999906,2.5926 0.06119999999999948,2.6017 0.05599999999999916,2.6106999999999996 0.0625,2.6127000000000002 0.06829999999999892,2.6106999999999996 0.07479999999999976,2.6153000000000004 0.07289999999999885,2.6237000000000004 0.0754999999999999,2.6315 0.09039999999999893,2.6289 0.09299999999999997,2.6346999999999996 0.0923999999999996,2.6444 0.09689999999999976,2.6502999999999997 0.11050000000000004,2.6529 0.11439999999999984,2.6567999999999996 0.11960000000000015,2.6684 0.11829999999999963,2.6801000000000004 0.1208999999999989,2.6814 0.11899999999999977,2.6826999999999996 0.12439999999999962,2.6902999999999997 0.12519999999999953,2.6938000000000004 0.11709999999999887,2.7013999999999996 0.11389999999999922,2.7123999999999997 0.11779999999999902,2.7202 0.12490000000000023,2.7222 0.12909999999999933,2.7209000000000003 0.13459999999999894,2.7228000000000003 0.1559999999999988,2.7215 0.152099999999999,2.7474 0.15470000000000006,2.7558999999999996 0.1501999999999999,2.7591 0.14949999999999974,2.7656 0.13860000000000028,2.7752999999999997 0.1352999999999991,2.7824 0.14310000000000045,2.7901 0.1515000000000004,2.785 0.15799999999999947,2.7876000000000003 0.1593,2.7920999999999996 0.1534999999999993,2.8005000000000004 0.15869999999999962,2.8057 0.1684000000000001,2.8114999999999997 0.16709999999999958,2.8186 0.17489999999999917,2.8277 0.1742999999999988,2.8342 0.17820000000000036,2.8407 0.17689999999999984,2.8503999999999996 0.18269999999999875,2.8562000000000003 0.18660000000000032,2.8550000000000004 0.18660000000000032,2.8459000000000003 0.19629999999999903,2.8459000000000003 0.19309999999999938,2.8381999999999996 0.20149999999999935,2.8414 0.20279999999999987,2.8569000000000004 0.2073999999999998,2.8582 0.20870000000000033,2.8659999999999997 0.21319999999999872,2.8659999999999997 0.21389999999999887,2.8711 0.21649999999999991,2.8743999999999996 0.2151999999999994,2.8802000000000003 0.21969999999999956,2.8802000000000003 0.22359999999999935,2.8743999999999996 0.23659999999999926,2.8750999999999998 0.2436999999999987,2.8808999999999996 0.24429999999999907,2.8848000000000003 0.2533999999999992,2.8918999999999997 0.2585999999999995,2.8918999999999997 0.2624999999999993,2.8893000000000004 0.26569999999999894,2.8899999999999997 0.2740999999999989,2.8952 0.28190000000000026,2.8939000000000004 0.28909999999999947,2.8964999999999996 0.29490000000000016,2.9023000000000003 0.3019999999999996,2.9029999999999996 0.3110999999999997,2.9109999999999996 0.305299999999999,2.9179000000000004 0.3091999999999988,2.9185 0.31240000000000023,2.9269999999999996 0.3086000000000002,2.9309000000000003 0.3110999999999997,2.9347000000000003 0.31569999999999965,2.936 0.31759999999999877,2.9496 0.33119999999999905,2.9496 0.33840000000000003,2.96 0.34609999999999985,2.9638999999999998 0.34750000000000014,2.9678000000000004 0.34559999999999924,2.9795 0.34949999999999903,2.9852999999999996 0.3559000000000001,2.9879 0.3545999999999996,2.9898 0.3597999999999999,2.9917 0.361699999999999,2.995 0.36239999999999917,3.0027999999999997 0.3682999999999996,3.0092 0.3708999999999989,3.0092 0.3747999999999987,3.0130999999999997 0.3760999999999992,3.0183 0.38320000000000043,3.0229 0.3876999999999988,3.0319000000000003 0.3935999999999993,3.032 0.39679999999999893,3.0358 0.4137000000000004,3.0384 0.4298000000000002,3.0462 0.4460999999999995,3.0598 0.44869999999999877,3.0644 0.45839999999999925,3.0715000000000003 0.45650000000000013,3.0773 0.45839999999999925,3.0786 0.46359999999999957,3.0728999999999997 0.4649000000000001,3.0806000000000004 0.4779,3.0845000000000002 0.4817999999999998,3.0871000000000004 0.48240000000000016,3.0936000000000003 0.49409999999999954,3.1001000000000003 0.5045000000000002,3.1111000000000004 0.5147999999999993,3.1143 0.5154999999999994,3.1220999999999997 0.5271999999999988,3.1304999999999996 0.5381999999999998,3.1428000000000003 0.5524000000000004,3.1479999999999997 0.5550999999999995,3.1544999999999996 0.5582999999999991,3.1544999999999996 0.5686,3.1416000000000004 0.5757999999999992,3.1474 0.5938999999999997,3.1558 0.5952000000000002,3.1604 0.6003999999999987,3.1668000000000003 0.6075999999999997,3.1669 0.6105999999999998,3.1649000000000003 0.610199999999999,3.1669 0.6212,3.1727 0.6237999999999992,3.1772 0.6477000000000004,3.1921999999999997 0.6483999999999988,3.1954000000000002 0.6523000000000003,3.1980000000000004 0.6548999999999996,3.2064000000000004 0.6646000000000001,3.2019 0.6653000000000002,3.2089999999999996 0.6639999999999997,3.2129000000000003 0.6692,3.2175000000000002 0.6671999999999993,3.2233 0.6744000000000003,3.2324 0.6730999999999998,3.2375999999999996 0.6885999999999992,3.2337 0.6951,3.2356 0.7009999999999987,3.2504999999999997 0.6983999999999995,3.2544000000000004 0.7003000000000004,3.2583 0.6997,3.2628000000000004 0.7093999999999987,3.2725 0.714599999999999,3.2803000000000004 0.7179000000000002,3.2874 0.7158999999999995,3.292 0.7179000000000002,3.2946 0.7224000000000004,3.2893999999999997 0.7249999999999996,3.2939 0.7445000000000004,3.3042999999999996 0.7424999999999997,3.3101000000000003 0.7509999999999994,3.3244 0.7561999999999998,3.327 0.7586999999999993,3.325 0.7606999999999999,3.3296 0.7652000000000001,3.3296 0.7645999999999997,3.3360000000000003 0.767199999999999,3.3411999999999997 0.7729999999999997,3.3438 0.7717999999999989,3.349 0.7762999999999991,3.3495999999999997 0.7762999999999991,3.3535000000000004 0.7820999999999998,3.3548 0.7853999999999992,3.3735999999999997 0.7919,3.3775000000000004 0.7950999999999997,3.3775000000000004 0.7951999999999995,3.3807 0.8067999999999991,3.3853 0.8106999999999989,3.3905000000000003 0.815199999999999,3.3884999999999996 0.8203999999999994,3.3911 0.8209999999999997,3.3937 0.8320999999999987,3.3983 0.8314000000000004,3.3996000000000004 0.8353000000000002,3.4074 0.8423999999999996,3.4059999999999997 0.8495999999999988,3.4119 0.8644999999999996,3.41 0.8845999999999989,3.4170999999999996 0.8861999999999988,3.6346 0.8849999999999998,3.643 0.8874999999999993,3.643 0.8856000000000002,3.6735000000000007 0.9038000000000004,3.6819000000000006 0.9122000000000003,3.6837999999999997 0.926499999999999,3.6961999999999993 0.9758999999999993,3.7759 0.9926999999999992,3.7836999999999996 0.9926999999999992,3.7913999999999994 1.0023999999999997,3.7882 1.0108999999999995,3.7941000000000003 1.0167000000000002,3.7920999999999996 1.0212000000000003,3.798 1.0276999999999994,3.799899999999999 1.035499999999999,3.7966999999999995 1.0412999999999997,3.799899999999999 1.0465,3.799899999999999 1.052299999999999,3.7954000000000008 1.0564999999999998,3.7973 1.0620999999999992,3.7935 1.0867000000000004,3.7927999999999997 1.0869999999999997,3.7916000000000007 1.0899,3.7927999999999997 1.0937999999999999,3.7903000000000002 1.0969999999999995,3.7948000000000004 1.1037,3.7918000000000003 1.1073000000000004,3.796099999999999 1.1015999999999995,3.7993000000000006 1.1053999999999995,3.8005999999999993 1.1079999999999988,3.8051999999999992 1.1183999999999994,3.809100000000001 1.1222999999999992,3.804500000000001 1.1402999999999999,3.7939000000000007 1.1390999999999991,3.7962000000000007 1.1617999999999995,3.8169000000000004 1.1638000000000002,3.8254 1.1709999999999994,3.8362999999999996 1.1792999999999996,3.8389000000000006 1.1864999999999988,3.8390000000000004 1.1890999999999998,3.8408999999999995 1.1929999999999996,3.8480000000000008 1.1929999999999996,3.8576999999999995 1.196299999999999,3.8687000000000005 1.191699999999999,3.8744999999999994 1.1923999999999992,3.8804 1.1905000000000001,3.8849 1.1845999999999997,3.8856 1.1775000000000002,3.9121000000000006 1.1742999999999988,3.9185999999999996 1.1737000000000002,3.925700000000001 1.1801999999999992,3.9314999999999998 1.1821000000000002,3.9353999999999996 1.1917999999999989,3.9380000000000006 1.1937999999999995,3.942500000000001 1.1944999999999997,3.9509000000000007 1.192499999999999,3.9587000000000003 1.1937999999999995,3.9657999999999998 1.1892999999999994,3.969099999999999 1.1892999999999994,3.9723000000000006 1.2003000000000004,3.977499999999999 1.2028999999999996,3.9827999999999992 1.2009999999999987,3.9962999999999997 1.197799999999999,4.0014 1.2049000000000003,4.0138 1.2029999999999994,4.024800000000001 1.2039999999999988,4.027699999999999 1.2068999999999992,4.0319 1.2140000000000004,4.037100000000001 1.210799999999999,4.0442 1.2127,4.0494 1.2172999999999998,4.051399999999999 1.219899999999999,4.063000000000001 1.215399999999999,4.067500000000001 1.2146999999999988,4.0733 1.219899999999999,4.0863 1.2186000000000003,4.096 1.2148000000000003,4.1030999999999995 1.2187000000000001,4.118 1.2154999999999987,4.1264 1.2189999999999994,4.1341 1.2169999999999987,4.138299999999999 1.2233999999999998,4.1348 1.2338000000000005,4.138400000000001 1.240499999999999,4.1386 1.2441999999999993,4.134399999999999 1.2537000000000003,4.1447 1.2561999999999998,4.143800000000001 1.2567000000000004,4.1396 1.2546,4.132099999999999 1.2561999999999998,4.1289 1.2730999999999995,4.127599999999999 1.2824999999999989,4.1395 1.2859999999999996,4.1402 1.2925000000000004,4.146599999999999 1.3147000000000002,4.159800000000001 1.322099999999999,4.1617999999999995 1.324399999999999,4.1708 1.3277,4.173500000000001 1.339599999999999,4.1663 1.3432999999999993,4.169499999999999 1.3475000000000001,4.1691 1.360199999999999,4.1724 1.3650000000000002,4.1699 1.3767999999999994,4.168200000000001 1.3849999999999998,4.1624 1.3919999999999995,4.1652000000000005 1.3988999999999994,4.165100000000001 1.4048999999999996,4.1616 1.407399999999999,4.1545000000000005 1.4202999999999992,4.1531 1.4330999999999996,4.1404 1.4337999999999997,4.136699999999999 1.4291,4.1128 1.423,4.102499999999999 1.4183000000000003,4.0764 1.418899999999999,4.070600000000001 1.4230999999999998,4.068300000000001 1.4303999999999988,4.068 1.4480000000000004,4.0776 1.4572000000000003,4.0784 1.4626000000000001,4.0807 1.4692999999999987,4.088900000000001 1.4727999999999994,4.0892 1.4789999999999992,4.086600000000001 1.487,4.086499999999999 1.4907000000000004,4.0884 1.4977,4.0945 1.5121000000000002,4.112399999999999 1.5210999999999988,4.1151 1.540099999999999,4.130599999999999 1.545399999999999,4.131500000000001 1.5511999999999997,4.1388 1.5663,4.145099999999999 1.589599999999999,4.1472999999999995 1.5968999999999998,4.1426 1.6006,4.1426 1.6100999999999992,4.143700000000001 1.6181999999999999,4.1471 1.6266999999999996,4.1477 1.6388999999999996,4.134600000000001 1.640699999999999,4.135300000000001 1.6457999999999995,4.1446000000000005 1.6529999999999987,4.1485 1.6814,4.149699999999999 1.6904000000000003,4.1556 1.6915999999999993,4.1594999999999995 1.6899999999999995,4.163 1.6859000000000002,4.1646 1.6856999999999989,4.1713000000000005 1.6820000000000004,4.1713000000000005 1.6813000000000002,4.173400000000001 1.6856999999999989,4.1815999999999995 1.6883,4.183199999999999 1.6914999999999996,4.180199999999999 1.6943000000000001,4.180400000000001 1.7037999999999993,4.1899999999999995 1.7066999999999997,4.1951 1.7127,4.1989 1.7263000000000002,4.1965 1.732099999999999,4.193300000000001 1.7399000000000004,4.178100000000001 1.750399999999999,4.167 1.7508999999999997,4.163500000000001 1.7440999999999995,4.153700000000001 1.7405999999999988,4.1411 1.742799999999999,4.134 1.762599999999999,4.1111 1.765699999999999,4.094799999999999 1.7682000000000002,4.0915 1.7730999999999995,4.0915 1.7766000000000002,4.096500000000001 1.7784999999999993,4.1211 1.7811000000000003,4.128 1.793899999999999,4.1387 1.8146000000000004,4.140599999999999 1.8251999999999988,4.1358 1.8331999999999997,4.126099999999999 1.8521,4.113099999999999 1.8607999999999993,4.0983 1.853299999999999,4.0915 1.850299999999999,4.086499999999999 1.8419999999999987,4.080500000000001 1.8299000000000003,4.0677 1.8263999999999996,4.058400000000001 1.8279999999999994,4.0512 1.8308999999999997,4.0494 1.8401999999999994,4.050000000000001 1.8514999999999997,4.0548 1.8796,4.0539000000000005 1.8876999999999988,4.0577000000000005 1.8956,4.0657 1.9009999999999998,4.0769 1.9061000000000003,4.0799 1.9116,4.0786999999999995 1.9154999999999998,4.0716 1.9175000000000004,4.0608 1.9245999999999999,4.0504 1.952399999999999,4.0305 1.9986999999999995,4.0281 2.0055999999999994,4.023899999999999 2.0084,4.019299999999999 2.0077999999999996,4.010300000000001 2.0054999999999996,4.0037 1.9994999999999994,3.9956999999999994 1.9962999999999997,3.9916 1.9654999999999987,3.9733 1.9710999999999999,3.9670000000000005 1.9847000000000001,3.9581 1.9855,3.9494000000000007 1.9814999999999987,3.9382 1.9824000000000002,3.9327000000000005 1.9865999999999993,3.9270999999999994 1.9946000000000002,3.9222 1.9974999999999987,3.9144000000000005 1.9963999999999995,3.9113000000000007 1.9690999999999992,3.8897999999999993 1.9696999999999996,3.8841 1.9758999999999993,3.8778000000000006 1.9745999999999988,3.8572000000000006 1.971499999999999,3.8503000000000007 1.9659999999999993,3.8453 1.9641000000000002,3.8352000000000004 1.9658999999999995,3.8264999999999993 1.9709000000000003,3.8230000000000004 1.9814999999999987,3.8263999999999996 1.9847000000000001,3.8254 1.9907000000000004,3.8179999999999996 1.9960000000000004,3.8169000000000004 2.0040999999999993,3.8186 2.0162999999999993,3.8164999999999996 2.0221999999999998,3.8130000000000006 2.023999999999999,3.7988 2.022499999999999,3.781599999999999 2.0233999999999988,3.7765000000000004 2.0283999999999995,3.7722999999999995 2.026399999999999,3.7525999999999993 2.0298,3.7409 2.0366999999999997,3.7334999999999994 2.0380000000000003,3.7277000000000005 2.040799999999999,3.7247000000000003 2.0410000000000004,3.7185000000000006 2.0351,3.7055000000000007 2.0276999999999994,3.694699999999999 2.0252999999999997,3.688599999999999 2.0258000000000003,3.683299999999999 2.029,3.6796000000000006 2.0321999999999996,3.6791 2.0449,3.6903000000000006 2.055299999999999,3.6952 2.0580999999999996,3.6950000000000003 2.0578000000000003,3.6858000000000004 2.054499999999999,3.673400000000001 2.0557999999999996,3.668799999999999 2.0641,3.6641999999999992 2.064399999999999,3.6471 2.0739,3.6334999999999997 2.0759999999999987,3.6266 2.0739,3.6197 2.0625999999999998,3.6121999999999996 2.0533,3.5949999999999998 2.0571,3.5719000000000003 2.0611999999999995,3.5613 2.055399999999999,3.5452000000000004 2.0617,3.5197000000000003 2.062199999999999,3.5094000000000003 2.0686999999999998,3.4993 2.0747999999999998,3.4936999999999996 2.0791000000000004,3.4827000000000004 2.0898000000000003,3.4717000000000002 2.0953,3.4562999999999997 2.0984999999999996,3.4532999999999996 2.1069999999999993,3.4501 2.116199999999999,3.4508 2.1262999999999987,3.4432 2.1309000000000005,3.4274000000000004 2.1282999999999994,3.4222 2.1304,3.4199 2.1365999999999996,3.4213000000000005 2.1374999999999993,3.4170999999999996 2.1351999999999993,3.4067999999999996 2.1366999999999994,3.4006 2.1418,3.3958000000000004 2.134599999999999,3.3823 2.133799999999999,3.3655 2.1229999999999993,3.3529 2.1165000000000003,3.341 2.115,3.3291000000000004 2.1174999999999997,3.3125999999999998 2.1135,3.2927999999999997 2.1165000000000003,3.2853000000000003 2.1221999999999994,3.2774 2.1290999999999993,3.2751 2.1311,3.2728 2.1285999999999987,3.2592999999999996 2.1092999999999993,3.2295 2.107199999999999,3.2125000000000004 2.0862999999999996,3.1759000000000004 2.0860000000000003,3.1656000000000004 2.0802999999999994,3.1555 2.067,3.1188000000000002 2.0558999999999994,3.1088000000000005 2.0517000000000003,3.1012000000000004 2.0418000000000003,3.0961999999999996 2.0343999999999998,3.0891 2.029299999999999,3.0808999999999997 2.0145999999999997,3.0323 2.0082000000000004,3.0266 2.0069999999999997,3.0229 2.0078999999999994,3.0091 2.0176,3.016 2.023299999999999,3.0231000000000003 2.0291999999999994,3.0389 2.0390999999999995,3.0473 2.0700000000000003,3.0648999999999997 2.0747999999999998,3.0705999999999998 2.0801,3.0671 2.0848999999999993,3.0552 2.0886999999999993,3.0355999999999996 2.0916999999999994,3.0359 2.0966000000000005,3.0391000000000004 2.1014,3.0385999999999997 2.1051,3.0401999999999996 2.1129999999999995,3.0525 2.125,3.0598 2.1258999999999997,3.0688000000000004 2.1356,3.0763 2.1555999999999997,3.0712 2.1610999999999994,3.0728 2.165099999999999,3.0770999999999997 2.1761,3.0762 2.1854999999999993,3.0692000000000004 2.1904000000000003,3.0697 2.195599999999999,3.0593000000000004 2.1974,3.0494000000000003 2.1958,3.0397999999999996 2.197099999999999,3.0351999999999997 2.2111,3.0267 2.2188999999999997,3.0271 2.2265999999999995,3.0305 2.2584,3.0365 2.2738999999999994,3.0323 2.2836,3.0277000000000003 2.2819000000000003,3.0077999999999996 2.2796000000000003,2.9984 2.2843999999999998,2.9889 2.2844999999999995,2.9678000000000004 2.2954999999999988,2.9503000000000004 2.303699999999999,2.9459 2.3249999999999993,2.9238 2.331899999999999,2.9204999999999997 2.3516999999999992,2.9211 2.3651,2.9236000000000004 2.3696,2.9208 2.3720999999999997,2.9038000000000004 2.3750999999999998,2.8994 2.380799999999999,2.8973000000000004 2.3818,2.8899999999999997 2.391499999999999,2.8728999999999996 2.389199999999999,2.8654 2.3811,2.8547000000000002 2.3798999999999992,2.8482000000000003 2.3811999999999998,2.8407 2.3932,2.8482000000000003 2.401299999999999,2.8497000000000003 2.419699999999999,2.8480999999999996 2.4452999999999996,2.8651999999999997 2.4497,2.8695000000000004 2.453899999999999,2.8798000000000004 2.4688999999999997,2.8907999999999996 2.4819999999999993,2.8899999999999997 2.492899999999999,2.8968999999999996 2.5092,2.8954000000000004 2.521799999999999,2.8987999999999996 2.527199999999999,2.9013 2.529,2.9050000000000002 2.528599999999999,2.9107000000000003 2.532499999999999,2.9169 2.5373,2.9164000000000003 2.5412,2.9105999999999996 2.544699999999999,2.9097 2.5479000000000003,2.9122000000000003 2.5479000000000003,2.918 2.552299999999999,2.9204999999999997 2.548,2.9297000000000004 2.5487,2.9326999999999996 2.5566999999999993,2.9311999999999996 2.566699999999999,2.9356 2.5701,2.9351000000000003 2.5792,2.9199 2.5785,2.9135 2.5801,2.9097999999999997 2.5829000000000004,2.9082 2.6221999999999994,2.9052 2.637599999999999,2.9104 2.652199999999999,2.9306 2.652199999999999,2.9347000000000003 2.647499999999999,2.9436999999999998 2.6479,2.949 2.6523000000000003,2.9543999999999997 2.6525999999999996,2.9589999999999996 2.6479999999999997,2.9659000000000004 2.6485000000000003,2.9728000000000003 2.643699999999999,2.9795 2.6395999999999997,2.9899000000000004 2.639899999999999,2.9943999999999997 2.6502999999999997,3.0115999999999996 2.6701999999999995,3.0349000000000004 2.6744000000000003,3.0484999999999998 2.6790000000000003,3.0496 2.689,3.0583 2.6936,3.0568999999999997 2.6971999999999987,3.0591 2.703199999999999,3.058 2.7058,3.0593000000000004 2.7113999999999994,3.0848000000000004 2.7093999999999987,3.0904999999999996 2.7103,3.0951000000000004 2.7133000000000003,3.0974000000000004 2.7285000000000004,3.1014999999999997 2.7394,3.1159 2.7767,3.1554 2.779,3.1612999999999998 2.773299999999999,3.1768 2.7750000000000004,3.1864 2.774099999999999,3.1936999999999998 2.7661999999999995,3.1924 2.7639999999999993,3.1942000000000004 2.7630999999999997,3.1993 2.7720000000000002,3.2306999999999997 2.774099999999999,3.2478999999999996 2.781599999999999,3.2648 2.7783999999999995,3.2817999999999996 2.7789,3.2870999999999997 2.784699999999999,3.2933000000000003 2.7981,3.3025 2.809099999999999,3.3159 2.8154000000000003,3.335 2.8195999999999994,3.3402000000000003 2.8263,3.3433 2.926,3.3396999999999997 2.929499999999999,3.3236999999999997 2.930999999999999,3.2968 2.9204999999999988,3.2729999999999997 2.9410999999999987,3.2522 2.9985999999999997,3.2183 3.0134999999999987,3.2016999999999998 3.0212000000000003,3.1835000000000004 3.0289,3.1737 3.0517000000000003,3.1642 3.0716,3.1409000000000002 3.071999999999999,3.1327999999999996 3.0777,3.1231 3.0761000000000003,3.1162 3.0801999999999996,3.1033999999999997 3.081299999999999,3.0928000000000004 3.075899999999999,3.0761000000000003 3.0868,3.0563000000000002 3.091799999999999,3.0408999999999997 3.0898000000000003,3.0195 3.0957999999999988,2.9759 3.0997000000000003,2.9667000000000003 3.1129,2.9492000000000003 3.1251999999999995,2.9284 3.1257,2.9215 3.132299999999999,2.9204 3.133899999999999,2.9181 3.1334,2.9043 3.1295,2.899 3.129199999999999,2.8949 3.1247999999999987,2.8899 3.128399999999999,2.8813000000000004 3.1396999999999995,2.8766999999999996 3.1500000000000004,2.8663 3.154299999999999,2.8608000000000002 3.155199999999999,2.8526999999999996 3.1607000000000003,2.8476999999999997 3.1676,2.8497000000000003 3.1715,2.8480999999999996 3.178099999999999,2.8414 3.1821,2.8415999999999997 3.1838999999999995,2.8343999999999996 3.1914999999999996,2.8339 3.1951,2.8289 3.198599999999999,2.8284000000000002 3.201599999999999,2.8323 3.2073,2.8323 3.2096,2.8278999999999996 3.2072000000000003,2.8173000000000004 3.2098999999999993,2.8033 3.207799999999999,2.7984999999999998 3.1928,2.7864000000000004 3.1914,2.7821 3.194099999999999,2.7648 3.1862999999999992,2.7359 3.1862999999999992,2.7295 3.1907999999999994,2.7191 3.1900999999999993,2.7088 3.1980000000000004,2.6863 3.198599999999999,2.6711 3.2006999999999994,2.6676 3.2070999999999987,2.6660000000000004 3.2096,2.6637000000000004 3.2074999999999996,2.6605 3.2110000000000003,2.6577 3.2120999999999995,2.6538000000000004 3.209299999999999,2.6492000000000004 3.2020999999999997,2.6449 3.200899999999999,2.635 3.1925999999999988,2.6308999999999996 3.1831999999999994,2.6204 3.176,2.6214000000000004 3.1723,2.6180000000000003 3.1640999999999995,2.6169000000000002 3.1608,2.6132 3.1641999999999992,2.6064999999999996 3.163499999999999,2.6017 3.167399999999999,2.593 3.1677999999999997,2.5822000000000003 3.1704999999999988,2.5693 3.1765999999999988,2.5587 3.1768,2.5534 3.174999999999999,2.5495 3.1709999999999994,2.5465999999999998 3.1610999999999994,2.5461 3.1594999999999995,2.5439 3.162699999999999,2.5383000000000004 3.1557999999999993,2.5342000000000002 3.153699999999999,2.5267 3.1676,2.5025000000000004 3.169699999999999,2.5014000000000003 3.1739999999999995,2.5082000000000004 3.177299999999999,2.5092999999999996 3.1783,2.4953000000000003 3.1641999999999992,2.4787999999999997 3.1618999999999993,2.4736000000000002 3.168899999999999,2.4581 3.1676,2.4568000000000003 3.1616,2.457 3.1585,2.4465000000000003 3.1450999999999993,2.4378 3.1427999999999994,2.4322999999999997 3.1472999999999995,2.4077 3.1456,2.4031000000000002 3.142899999999999,2.4050000000000002 3.1419999999999995,2.4090999999999996 3.1361999999999988,2.4080000000000004 3.1326,2.4089 3.1297999999999995,2.4067 3.1289,2.4016 3.129999999999999,2.3936 3.1249000000000002,2.3872 3.1212,2.3914999999999997 3.1180000000000003,2.3911 3.1159,2.3833 3.106399999999999,2.3790000000000004 3.102499999999999,2.3753 3.105699999999999,2.3719 3.110999999999999,2.3714000000000004 3.1075,2.3647 3.0999,2.3692 3.0967000000000002,2.3689 3.0946,2.3653000000000004 3.0976,2.3602 3.0799000000000003,2.3541 3.078199999999999,2.3497000000000003 3.0831999999999997,2.3417000000000003 3.0810999999999993,2.3371000000000004 3.0839,2.3295000000000003 3.081299999999999,2.3265000000000002 3.076699999999999,2.3249000000000004 3.0707000000000004,2.3167 3.067499999999999,2.316 3.0626999999999995,2.3193 3.0601000000000003,2.317 3.0551999999999992,2.3032000000000004 3.053099999999999,2.3014 3.0504,2.3019 3.0458,2.3067 3.0426,2.3064999999999998 3.0382,2.3019999999999996 3.036999999999999,2.2964 3.0381,2.2877 3.0366999999999997,2.2831 3.0328,2.2804 3.0250000000000004,2.2817999999999996 3.0230999999999995,2.2807000000000004 3.020999999999999,2.2744999999999997 3.0153,2.2805 3.0128000000000004,2.2800000000000002 3.009499999999999,2.2725 3.0032999999999994,2.2718 3.0009999999999994,2.2687999999999997 3.000499999999999,2.2668 3.003499999999999,2.2598000000000003 2.9977,2.2550999999999997 2.995899999999999,2.2544000000000004 2.9938000000000002,2.2560000000000002 2.9940999999999995,2.2613000000000003 2.9917999999999996,2.2630999999999997 2.9857999999999993,2.2619999999999996 2.9818999999999996,2.2590000000000003 2.9800000000000004,2.2540000000000004 2.9816000000000003,2.2447999999999997 2.9795,2.2384000000000004 2.9768999999999988,2.2366 2.9724000000000004,2.2409 2.9644999999999992,2.2386999999999997 2.9628999999999994,2.2413999999999996 2.964599999999999,2.2481 2.956999999999999,2.2553 2.9528999999999996,2.2516 2.952399999999999,2.2485999999999997 2.9552999999999994,2.2392000000000003 2.9545999999999992,2.2237999999999998 2.9593999999999987,2.218 2.9486999999999988,2.2041000000000004 2.9459999999999997,2.2032 2.9391,2.2093999999999996 2.929499999999999,2.2111 2.9250999999999987,2.2085999999999997 2.921999999999999,2.2003000000000004 2.922699999999999,2.1980000000000004 2.930299999999999,2.1959 2.9314,2.1931000000000003 2.9231,2.184 2.917,2.1658999999999997 2.907399999999999,2.1658999999999997 2.8985000000000003,2.1734999999999998 2.893799999999999,2.1713000000000005 2.8864,2.1527000000000003 2.8933,2.1455 2.900599999999999,2.143 2.9044999999999987,2.1422999999999996 2.915099999999999,2.1459 2.920399999999999,2.1431000000000004 2.9377999999999993,2.1422999999999996 2.9452,2.1393000000000004 2.957699999999999,2.1257 2.9701000000000004,2.1059 2.9814999999999987,2.0925000000000002 2.9954,2.0795000000000003 3.0023,2.0766999999999998 3.0046,2.0793 3.0122,2.0778 3.0161,2.0815 3.017899999999999,2.0961999999999996 3.0268999999999995,2.109 3.0291999999999994,2.1182999999999996 3.0279999999999987,2.1338999999999997 3.030199999999999,2.1357999999999997 3.033999999999999,2.1357999999999997 3.0496999999999996,2.1273999999999997 3.0586,2.1174999999999997 3.0716,2.1069000000000004 3.0921000000000003,2.0946 3.0997000000000003,2.0919999999999996 3.0997000000000003,2.0888 3.0957999999999988,2.0831 3.0797999999999988,2.0781 3.077499999999999,2.0740999999999996 3.0782999999999987,2.0692000000000004 3.086599999999999,2.0702999999999996 3.0923,2.0538 3.0930999999999997,2.0416 3.1029,2.0275 3.0997000000000003,2.0218 3.0928000000000004,2.0216000000000003 3.0875000000000004,2.0172999999999996 3.0806000000000004,2.0171 3.0736999999999988,2.0138999999999996 3.088799999999999,2.0021000000000004 3.0932999999999993,1.9938000000000002 3.0998,1.9932999999999996 3.1052999999999997,2.0035999999999996 3.112499999999999,2.0029000000000003 3.1138999999999992,2.01 3.1163999999999987,2.0118 3.1239999999999988,2.0035 3.1272,2.0033000000000003 3.130699999999999,2.0090000000000003 3.1332000000000004,2.0099 3.1401000000000003,2.0082000000000004 3.1431000000000004,2.0163 3.1463,2.0199 3.162099999999999,2.01 3.1692,2.0026 3.1736000000000004,2.0016 3.1775,2.0050999999999997 3.1826999999999988,1.9916999999999998 3.1849999999999987,1.9893999999999998 3.1872999999999987,1.9908000000000001 3.189,1.9953000000000003 3.2052999999999994,1.9939 3.2104999999999997,1.9855999999999998 3.2163000000000004,1.9858000000000002 3.2188,1.9828000000000001 3.218499999999999,1.9789000000000003 3.209999999999999,1.9745999999999997 3.2060999999999993,1.9703999999999997 3.2095000000000002,1.9669999999999996 3.225999999999999,1.9653 3.233599999999999,1.9672999999999998 3.2393,1.9649999999999999 3.2446,1.9656000000000002 3.2689000000000004,1.9508 3.2735000000000003,1.9503000000000004 3.2794999999999987,1.9560000000000004 3.2837999999999994,1.9473000000000003 3.286999999999999,1.9474999999999998 3.2904999999999998,1.9516 3.297599999999999,1.947 3.3028999999999993,1.9396000000000004 3.3110999999999997,1.9330999999999996 3.314,1.9226999999999999 3.3186,1.9219999999999997 3.3270999999999997,1.9252000000000002 3.343499999999999,1.9253 3.3522,1.928 3.3621,1.9264000000000001 3.367099999999999,1.9275000000000002 3.3774999999999995,1.9362000000000004 3.385299999999999,1.9353999999999996 3.3889999999999993,1.9377000000000004 3.3948,1.9482999999999997 3.4055999999999997,1.9438000000000004 3.4123,1.9428999999999998 3.4202999999999992,1.9478999999999997 3.4351000000000003,1.9493999999999998 3.4453999999999994,1.9560000000000004 3.4803999999999995,1.9622000000000002 3.4856999999999996,1.9592 3.4936,1.9477000000000002 3.4944999999999995,1.939 3.4978999999999996,1.9366000000000003 3.5020999999999995,1.9424000000000001 3.5061999999999998,1.9406999999999996 3.5105999999999993,1.9353999999999996 3.5145,1.9393000000000002 3.517499999999999,1.9400000000000004 3.5203999999999995,1.9282000000000004 3.5265999999999993,1.9265999999999996 3.5305,1.9286000000000003 3.5362999999999998,1.9372999999999996 3.5406999999999993,1.9396000000000004 3.5450999999999997,1.9364 3.5532999999999992,1.9238999999999997 3.5589999999999993,1.9223 3.5641,1.9356 3.568199999999999,1.9337 3.5702999999999996,1.9302000000000001 3.5722999999999994,1.9177999999999997 3.576199999999999,1.9176000000000002 3.5791999999999993,1.9263000000000003 3.5840999999999994,1.9269999999999996 3.5957999999999997,1.8994999999999997 3.6045999999999996,1.8956 3.6092999999999993,1.8876999999999997 3.6228,1.8796 3.6315999999999997,1.8765999999999998 3.6651,1.8407999999999998 3.6666999999999996,1.8373 3.6618999999999993,1.835 3.648999999999999,1.8353000000000002 3.6450999999999993,1.8316999999999997 3.6517,1.8228999999999997 3.650499999999999,1.8136999999999999 3.6540999999999997,1.8070000000000004 3.6519999999999992,1.8036000000000003 3.6414,1.7963000000000005 3.6392999999999995,1.7906000000000004 3.6373999999999995,1.7412 3.6384999999999996,1.7374999999999998 3.6430999999999996,1.7351999999999999 3.6437999999999997,1.7321999999999997 3.6414,1.7239000000000004 3.6422999999999996,1.7191 3.6515999999999993,1.7236000000000002 3.6541999999999994,1.7374 3.6574,1.7397 3.6617999999999995,1.7401 3.6674999999999995,1.7380000000000004 3.6781999999999995,1.7297000000000002 3.6796999999999995,1.7386 3.6835999999999993,1.7393 3.6891,1.7348999999999997 3.698899999999999,1.7220000000000004 3.6925999999999997,1.7045000000000003 3.6952999999999996,1.6982999999999997 3.7075999999999993,1.6916000000000002 3.7131,1.6864999999999997 3.717199999999999,1.6787 3.7146999999999997,1.6731999999999996 3.7043,1.6679000000000004 3.7013,1.6631 3.7059999999999995,1.6534000000000004 3.6960999999999995,1.6421999999999999 3.694699999999999,1.6386000000000003 3.6975999999999996,1.6307 3.7196,1.6219000000000001 3.7220999999999993,1.6180000000000003 3.7272999999999996,1.6005000000000003 3.7462999999999997,1.5849000000000002 3.76,1.5807000000000002 3.7670999999999992,1.5754000000000001 3.7721,1.5663999999999998 3.7927,1.5519999999999996 3.8013999999999992,1.5477999999999996 3.8057999999999996,1.548 3.8087999999999997,1.5505000000000004 3.8096999999999994,1.5540000000000003 3.8035999999999994,1.5702999999999996 3.8049999999999997,1.5754000000000001 3.8119999999999994,1.5822000000000003 3.8161999999999994,1.5944000000000003 3.8224,1.5978000000000003 3.8251,1.5972999999999997 3.8279999999999994,1.5803000000000003 3.8253999999999992,1.5667999999999997 3.8260999999999994,1.5628000000000002 3.830399999999999,1.5621 3.8366,1.5644 3.8407999999999998,1.5628000000000002 3.8480999999999996,1.5556 3.872,1.5545 3.874199999999999,1.5444000000000004 3.8766999999999996,1.5438999999999998 3.8811,1.5461999999999998 3.8832999999999993,1.5377 3.8861,1.5354 3.8895,1.5378999999999996 3.8937,1.5481999999999996 3.9017999999999997,1.5479000000000003 3.9105,1.5444000000000004 3.9330999999999996,1.5206 3.9323999999999995,1.5164 3.917,1.5205000000000002 3.9137999999999993,1.5159000000000002 3.9158,1.5117000000000003 3.9278999999999993,1.5084 3.9312999999999994,1.4966999999999997 3.9369999999999994,1.4900000000000002 3.9398999999999997,1.4821999999999997 3.9459,1.4819000000000004 3.9475999999999996,1.4966 3.9558999999999997,1.4965000000000002 3.9665,1.5061 3.9731999999999994,1.5030999999999999 3.9749999999999996,1.4973 3.9735999999999994,1.4931999999999999 3.9661999999999997,1.4884000000000004 3.9677999999999995,1.4859 3.9795,1.4855999999999998 3.9830999999999994,1.4836999999999998 3.9951999999999996,1.4641000000000002 4.001799999999999,1.4588 4.0100999999999996,1.4576000000000002 4.012,1.4699999999999998 4.0165999999999995,1.4798 4.0142,1.487 4.017399999999999,1.4943 4.0169999999999995,1.5010000000000003 4.0188999999999995,1.5067000000000004 4.0222999999999995,1.5083000000000002 4.0344999999999995,1.5041000000000002 4.039999999999999,1.5084 4.0462,1.5022000000000002 4.0493,1.4935999999999998 4.055999999999999,1.4904000000000002 4.0633,1.4905999999999997 4.0630999999999995,1.4846000000000004 4.055899999999999,1.4790999999999999 4.0549,1.4640000000000004 4.0465,1.4474999999999998 4.0465,1.4432999999999998 4.056699999999999,1.4283000000000001 4.0583,1.4223 4.0564,1.4158999999999997 4.0443999999999996,1.4008000000000003 4.0496,1.3916000000000004 4.052,1.3764000000000003 4.0568,1.3659999999999997 4.057099999999999,1.3445999999999998 4.059399999999999,1.3415999999999997 4.068499999999999,1.3379000000000003 4.0698,1.3228999999999997 4.073899999999999,1.3182999999999998 4.0764,1.3066000000000004 4.0813999999999995,1.2948000000000004 4.0889,1.2843999999999998 4.0905,1.2797 4.1068999999999996,1.271 4.110499999999999,1.2614999999999998 4.1072,1.2474999999999996 4.1079,1.2412999999999998 4.114199999999999,1.2295999999999996 4.1117,1.2253999999999996 4.104299999999999,1.2249999999999996 4.0938,1.2268999999999997 4.0901,1.2201000000000004 4.092899999999999,1.2013999999999996 4.0889999999999995,1.1917999999999997 4.093699999999999,1.1852999999999998 4.1056,1.1763000000000003 4.1072,1.1717000000000004 4.1053,1.1675000000000004 4.102099999999999,1.1653000000000002 4.085999999999999,1.1685999999999996 4.0828,1.1661000000000001 4.084899999999999,1.1627999999999998 4.0938,1.1582 4.096299999999999,1.1538000000000004 4.0942,1.1508000000000003 4.0889,1.1505999999999998 4.085699999999999,1.1481000000000003 4.0831,1.1355000000000004 4.0809999999999995,1.1334 4.0695,1.1307999999999998 4.0645999999999995,1.1257000000000001 4.0625,1.1177000000000001 4.063899999999999,1.1102999999999996 4.069299999999999,1.1009000000000002 4.0722,1.0869 4.0698,1.0765000000000002 4.066999999999999,1.0719000000000003 4.0615,1.0721999999999996 4.052199999999999,1.0758999999999999 4.045299999999999,1.0846999999999998 4.041899999999999,1.0822000000000003 4.039499999999999,1.0751 4.0409,1.0679999999999996 4.0516,1.0561999999999996 4.0568,1.0469 4.061,1.0305999999999997 4.066999999999999,1.0217999999999998 4.0825,1.0143000000000004 4.0873,1.0063000000000004 4.0912,1.0053 4.093699999999999,1.0069 4.097899999999999,1.0152 4.0992999999999995,1.0252999999999997 4.104399999999999,1.0301 4.109,1.0307000000000004 4.1110999999999995,1.0266000000000002 4.1064,1.0137 4.106999999999999,1.0058999999999996 4.1053999999999995,0.9981 4.1083,0.9851999999999999 4.1128,0.9808000000000003 4.1198999999999995,0.9795999999999996 4.1206,0.9748000000000001 4.1057999999999995,0.9539999999999997 4.103,0.9531000000000001 4.0996,0.9572000000000003 4.0957,0.9546999999999999 4.095999999999999,0.9352 4.0927999999999995,0.9301000000000004 4.0851,0.9253999999999998 4.082599999999999,0.9158999999999997 4.0782,0.9088000000000003 4.0703,0.9015000000000004 4.064299999999999,0.9024999999999999 4.0634,0.9053000000000004 4.0672,0.9133000000000004 4.0606,0.9249999999999998 4.0630999999999995,0.9284999999999997 4.067699999999999,0.9287000000000001 4.0721,0.931 4.0748999999999995,0.9398999999999997 4.0724,0.9440999999999997 4.068499999999999,0.9447999999999999 4.0618,0.9424999999999999 4.0504999999999995,0.9318 4.0413,0.9309000000000003 4.0363,0.9283999999999999 4.029599999999999,0.9184000000000001 4.0184,0.9283000000000001 4.0139,0.9127999999999998 4.0230999999999995,0.9080000000000004 4.0264999999999995,0.9004000000000003 4.025899999999999,0.8918999999999997 4.021699999999999,0.8814000000000002 4.0153,0.8780000000000001 4.0107,0.8711000000000002 4.0115,0.8632999999999997 4.0183,0.8524000000000003 4.019299999999999,0.8436000000000003 4.013599999999999,0.8352000000000004 4.0173,0.8276000000000003 4.0169,0.8110999999999997 4.014799999999999,0.7975000000000003 4.0088,0.7889999999999997 4.003799999999999,0.7717999999999998 3.9852999999999996,0.7436999999999996 3.9802,0.7404999999999999 3.9746999999999995,0.7430000000000003 3.9703999999999997,0.7519999999999998 3.9674999999999994,0.7534000000000001 3.9596,0.7497999999999996 3.9498999999999995,0.7390999999999996 3.9425999999999997,0.7344999999999997 3.930999999999999,0.7201000000000004 3.9297999999999993,0.7149999999999999 3.9315999999999995,0.7102000000000004 3.9372999999999996,0.7056000000000004 3.9372999999999996,0.6966000000000001 3.9429,0.6867000000000001 3.9357999999999995,0.6764000000000001 3.9334,0.6676000000000002 3.9342999999999995,0.6642000000000001 3.9436,0.6521999999999997 3.9456999999999995,0.6459999999999999 3.9430999999999994,0.6382000000000003 3.9391999999999996,0.6323999999999996 3.9288,0.6223999999999998 3.930599999999999,0.6174999999999997 3.9403999999999995,0.6144999999999996 3.9506999999999994,0.6026999999999996 3.9517999999999995,0.5997000000000003 3.949,0.5928000000000004 3.9491999999999994,0.5887000000000002 3.9528,0.5818000000000003 3.959199999999999,0.5776000000000003 3.9612999999999996,0.5740999999999996 3.961499999999999,0.5694999999999997 3.959199999999999,0.5660999999999996 3.9463,0.5640999999999998 3.9394,0.5692000000000004 3.9338999999999995,0.5701 3.9255999999999993,0.5641999999999996 3.9223999999999997,0.5537000000000001 3.914999999999999,0.5537000000000001 3.9078999999999997,0.5580999999999996 3.9014999999999995,0.5571999999999999 3.8938999999999995,0.5526999999999997 3.8888,0.5423999999999998 3.8895,0.5387000000000004 3.898599999999999,0.5298999999999996 3.8968999999999996,0.5223000000000004 3.8984999999999994,0.5147000000000004 3.8964,0.5133999999999999 3.900499999999999,0.5077999999999996 3.8971999999999998,0.49659999999999993 3.898999999999999,0.4889999999999999 3.9060999999999995,0.4779 3.9018999999999995,0.4734999999999996 3.8956999999999997,0.4703999999999997 3.8930999999999996,0.4664999999999999 3.8958999999999993,0.46419999999999995 3.8946999999999994,0.4523999999999999 3.9037999999999995,0.4413 3.9240999999999993,0.4359000000000002 3.9273,0.43290000000000006 3.926799999999999,0.4264999999999999 3.9228999999999994,0.41610000000000014 3.9307,0.3827999999999996 3.9276,0.3662000000000001 3.9331999999999994,0.34640000000000004 3.9312999999999994,0.3379000000000003 3.922599999999999,0.33750000000000036 3.9216999999999995,0.33560000000000034 "></polygon><polygon points="0.674199999999999,1.9939 0.6785999999999994,1.9932999999999996 0.6771999999999991,1.9905999999999997 0.6816999999999993,1.9867 0.6849999999999987,1.9894999999999996 0.6832999999999991,1.9842000000000004 0.6797000000000004,1.987 0.6807999999999996,1.9831000000000003 0.6794999999999991,1.9828000000000001 0.6780999999999988,1.9886 0.6730999999999998,1.9939 0.6727999999999987,1.9961000000000002 0.674199999999999,1.9939 "></polygon><polygon points="0.6755999999999993,1.9989 0.6852999999999998,2.0034 0.6889000000000003,2.0042 0.6749999999999989,1.9977999999999998 0.6755999999999993,1.9989 "></polygon>
    </svg>
    