
    <svg width="0.16339999999999932" height="0.22289999999999566" xmlns="http://www.w3.org/2000/svg" xmlns:xlink="http://www.w3.org/1999/xlink" style="transform: scale(1, -1)">
        <polygon points="0.14889999999999937,0.0630999999999986 0.1507000000000005,0.06119999999999948 0.15620000000000012,0.06069999999999709 0.15589999999999904,0.05859999999999843 0.16210000000000058,0.054299999999997794 0.16339999999999932,0.049399999999998556 0.16130000000000067,0.036599999999999966 0.15119999999999933,0.03569999999999851 0.14639999999999986,0.031299999999994554 0.13920000000000066,0.03259999999999508 0.13819999999999943,0.02839999999999776 0.14109999999999978,0.02269999999999328 0.1387999999999998,0.01999999999999602 0.1394000000000002,0.01769999999999783 0.13519999999999932,0.014299999999998647 0.11880000000000024,0.0073999999999969646 0.09949999999999903,0.004399999999996851 0.08910000000000018,0.0 0.08450000000000024,0.00269999999999726 0.08249999999999957,0.01099999999999568 0.06959999999999944,0.016299999999993986 0.04870000000000019,0.011499999999998067 0.04219999999999935,0.008099999999998886 0.03149999999999942,0.007199999999997431 0.027699999999999392,0.00549999999999784 0.021300000000000097,0.006799999999998363 0.014499999999999957,0.0011999999999972033 0.009999999999999787,0.005699999999997374 0.0036000000000004917,0.006000000000000227 0.0011999999999989797,0.009499999999995623 0.0,0.015299999999996317 0.001300000000000523,0.01899999999999835 0.02289999999999992,0.026099999999999568 0.04190000000000005,0.03489999999999327 0.04720000000000013,0.03960000000000008 0.05080000000000062,0.04679999999999751 0.05080000000000062,0.05639999999999645 0.045999999999999375,0.06669999999999732 0.04640000000000022,0.07259999999999422 0.04129999999999967,0.08739999999999526 0.020199999999999108,0.1138999999999939 0.01389999999999958,0.1343999999999994 0.017199999999998994,0.1500999999999948 0.02689999999999948,0.16379999999999484 0.031000000000000583,0.1757999999999953 0.050200000000000244,0.198599999999999 0.05860000000000021,0.21419999999999817 0.058099999999999596,0.22149999999999892 0.05959999999999965,0.22289999999999566 0.067499999999999,0.21829999999999927 0.0671999999999997,0.21459999999999724 0.08719999999999928,0.20369999999999777 0.0948999999999991,0.1950999999999965 0.07949999999999946,0.17689999999999628 0.08309999999999995,0.1769999999999996 0.08309999999999995,0.17569999999999908 0.0862999999999996,0.17729999999999535 0.09629999999999939,0.1729999999999947 0.1034000000000006,0.16689999999999827 0.1061999999999994,0.16209999999999525 0.11260000000000048,0.15849999999999653 0.10890000000000022,0.15319999999999823 0.10800000000000054,0.1489999999999938 0.10030000000000072,0.14399999999999835 0.10200000000000031,0.13129999999999598 0.10079999999999956,0.12879999999999825 0.09500000000000064,0.12639999999999674 0.09229999999999983,0.12339999999999662 0.10050000000000026,0.1226999999999947 0.10720000000000063,0.12429999999999808 0.12449999999999939,0.11609999999999587 0.1286000000000005,0.11199999999999477 0.12790000000000035,0.10999999999999943 0.13299999999999912,0.10239999999999583 0.14170000000000016,0.10069999999999624 0.14840000000000053,0.10479999999999734 0.1509999999999998,0.10029999999999717 0.15359999999999907,0.09909999999999997 0.15029999999999966,0.0945999999999998 0.1526999999999994,0.0916999999999959 0.1524000000000001,0.08579999999999899 0.16269999999999918,0.08129999999999882 0.1529000000000007,0.07229999999999848 0.1524000000000001,0.06769999999999499 0.14889999999999937,0.0630999999999986 "></polygon>
    </svg>
    