
    <svg width="3.225200000000001" height="7.763399999999999" xmlns="http://www.w3.org/2000/svg" xmlns:xlink="http://www.w3.org/1999/xlink" style="transform: scale(1, -1)">
        <polygon points="2.5923000000000016,0.2411999999999992 2.582900000000002,0.23589999999999733 2.583600000000004,0.23320000000000007 2.588000000000001,0.23279999999999745 2.5949000000000026,0.22919999999999874 2.5947999999999993,0.22769999999999868 2.5844999999999985,0.21309999999999718 2.5827000000000027,0.203599999999998 2.578000000000003,0.2005999999999979 2.5778000000000034,0.1977999999999973 2.5808000000000035,0.1944999999999979 2.5797999999999988,0.19149999999999778 2.5763999999999996,0.19169999999999732 2.575099999999999,0.1903999999999968 2.5745000000000005,0.18469999999999942 2.576900000000002,0.18079999999999785 2.5827000000000027,0.17969999999999686 2.584299999999999,0.1775999999999982 2.5804000000000045,0.1734999999999971 2.5801000000000016,0.16859999999999786 2.5885999999999996,0.16729999999999734 2.5930000000000035,0.16249999999999787 2.6069999999999993,0.16469999999999985 2.608000000000004,0.15469999999999828 2.6125000000000043,0.14619999999999678 2.6148000000000025,0.1454999999999984 2.606100000000005,0.12569999999999837 2.6045000000000016,0.11580000000000013 2.6052999999999997,0.10529999999999973 2.602800000000002,0.09539999999999793 2.606200000000001,0.08919999999999817 2.6073999999999984,0.07659999999999911 2.6056000000000026,0.07289999999999708 2.6075000000000017,0.06629999999999825 2.6191999999999993,0.06939999999999813 2.622800000000005,0.06689999999999685 2.6167000000000016,0.05969999999999942 2.617899999999999,0.04870000000000019 2.6133000000000024,0.03149999999999764 2.6165999999999983,0.023999999999997357 2.616100000000003,0.012699999999998823 2.6167000000000016,0.009899999999998244 2.6203000000000003,0.006299999999999528 2.619399999999999,0.004699999999999704 2.6170000000000044,0.0030000000000001137 2.6090000000000018,0.0030999999999998806 2.607199999999999,0.0009999999999976694 2.407600000000002,0.0 2.4010999999999996,0.003899999999998016 2.4022000000000006,0.009100000000000108 2.3995999999999995,0.014499999999998181 2.3969999999999985,0.015200000000000102 2.389800000000001,0.022399999999997533 2.3952000000000027,0.02499999999999858 2.3956000000000017,0.028599999999997294 2.400800000000004,0.0365000000000002 2.4029000000000025,0.035899999999998045 2.4132999999999996,0.040699999999997516 2.409700000000001,0.04359999999999786 2.4087999999999994,0.04749999999999943 2.396000000000001,0.05209999999999937 2.3930000000000007,0.05689999999999884 2.392700000000005,0.061599999999998545 2.3956000000000017,0.06400000000000006 2.3947000000000003,0.06550000000000011 2.386800000000001,0.06289999999999907 2.3845000000000027,0.06679999999999708 2.3817999999999984,0.0677999999999983 2.3733000000000004,0.07629999999999981 2.3693000000000026,0.0890999999999984 2.3734000000000037,0.10609999999999786 2.3723000000000027,0.10919999999999774 2.3671000000000006,0.11089999999999733 2.368700000000004,0.11489999999999867 2.3622000000000014,0.1189 2.3651000000000053,0.11939999999999884 2.365700000000004,0.12279999999999802 2.3693000000000026,0.12419999999999831 2.369100000000003,0.1269999999999989 2.3735,0.13509999999999778 2.3811000000000035,0.13539999999999708 2.3933000000000035,0.14359999999999928 2.405300000000004,0.14239999999999853 2.4091000000000022,0.14669999999999916 2.420100000000005,0.15249999999999986 2.435600000000001,0.15349999999999753 2.4465000000000003,0.1590999999999987 2.4491000000000014,0.16399999999999793 2.4532000000000025,0.16729999999999734 2.452200000000005,0.16999999999999815 2.4603000000000037,0.18629999999999924 2.466000000000001,0.1883999999999979 2.473400000000005,0.1853999999999978 2.4761999999999986,0.1886999999999972 2.4799000000000007,0.1891999999999996 2.4825000000000017,0.19189999999999685 2.4783000000000044,0.1961999999999975 2.4776000000000025,0.20869999999999678 2.4629000000000048,0.2406999999999968 2.4634,0.24969999999999715 2.4604,0.25239999999999796 2.4617000000000004,0.2596999999999987 2.4669999999999987,0.2670999999999992 2.4709000000000003,0.2673999999999985 2.4718000000000018,0.2688999999999986 2.4697999999999993,0.28659999999999997 2.4662000000000006,0.29529999999999745 2.4573000000000036,0.30139999999999745 2.444200000000002,0.3038999999999987 2.4258000000000024,0.3122999999999969 2.4191000000000003,0.31269999999999953 2.4093000000000018,0.3097999999999992 2.406100000000002,0.30609999999999715 2.4044999999999987,0.30719999999999814 2.401900000000005,0.30609999999999715 2.4007000000000005,0.3089999999999975 2.3826000000000036,0.30859999999999843 2.3781000000000034,0.30169999999999675 2.374600000000001,0.2995999999999981 2.349499999999999,0.3042999999999978 2.344000000000001,0.30879999999999797 2.3367000000000004,0.322499999999998 2.3137000000000043,0.33149999999999835 2.312899999999999,0.3354999999999997 2.3057000000000016,0.33699999999999974 2.302100000000003,0.3465999999999987 2.3038999999999987,0.35779999999999745 2.2998000000000047,0.35949999999999704 2.2997000000000014,0.36219999999999786 2.296600000000005,0.36430000000000007 2.297000000000004,0.3673000000000002 2.2927000000000035,0.38049999999999784 2.2817000000000007,0.3791999999999973 2.279600000000002,0.38489999999999824 2.271500000000003,0.3887999999999998 2.2490999999999985,0.38289999999999935 2.2346000000000004,0.3827999999999996 2.2304999999999993,0.3917999999999999 2.2295000000000016,0.40279999999999916 2.2268000000000043,0.4126999999999974 2.2251000000000047,0.41419999999999746 2.225500000000004,0.4295999999999971 2.2224000000000004,0.435299999999998 2.200400000000002,0.4427999999999983 2.1968999999999994,0.440299999999997 2.1910000000000025,0.4405999999999999 2.183399999999999,0.4491999999999976 2.177800000000005,0.45209999999999795 2.174600000000005,0.4510999999999967 2.1709999999999994,0.45369999999999777 2.168300000000002,0.47250000000000014 2.1679999999999993,0.49359999999999715 2.163400000000003,0.5093999999999994 2.1566000000000045,0.5173999999999985 2.1525999999999996,0.519599999999997 2.1522000000000006,0.5231999999999992 2.1482000000000028,0.5244 2.147500000000001,0.5274999999999999 2.144300000000001,0.5291999999999994 2.1377000000000024,0.5222999999999978 2.130900000000004,0.5255999999999972 2.1260000000000048,0.5249999999999986 2.1219000000000037,0.5320999999999998 2.1034000000000006,0.5421999999999976 2.0927000000000007,0.5437999999999974 2.0885999999999996,0.5470999999999968 2.084700000000005,0.5424999999999969 2.0831000000000017,0.5433999999999983 2.0819000000000045,0.546999999999997 2.0844999999999985,0.5527999999999977 2.091000000000001,0.5582999999999991 2.0885999999999996,0.5657999999999994 2.0885000000000034,0.5768999999999984 2.0863000000000014,0.5829999999999984 2.076500000000003,0.5905999999999985 2.0737999999999985,0.5977999999999994 2.078800000000001,0.5980999999999987 2.0690000000000026,0.609499999999997 2.0677999999999983,0.616299999999999 2.050699999999999,0.620199999999997 2.035800000000002,0.6322999999999972 2.031400000000005,0.6290999999999976 2.030300000000004,0.6317999999999984 2.0283000000000015,0.6319999999999979 2.0054000000000016,0.627399999999998 1.9975999999999985,0.6275999999999975 1.9890000000000043,0.6357999999999997 1.9849000000000032,0.6492999999999967 1.9883999999999986,0.6609999999999978 1.9879000000000033,0.6717999999999975 1.9795000000000016,0.6829999999999998 1.9742000000000033,0.6838999999999977 1.9635999999999996,0.6764999999999972 1.9286999999999992,0.7036999999999978 1.9044000000000025,0.7159999999999975 1.8952999999999989,0.7292999999999985 1.8943000000000012,0.7375999999999969 1.899000000000001,0.7535999999999987 1.899000000000001,0.7657999999999987 1.8828000000000031,0.7812999999999981 1.882000000000005,0.789399999999997 1.884599999999999,0.7984999999999971 1.8834000000000017,0.8060999999999972 1.8484000000000052,0.8339999999999996 1.838799999999999,0.8456999999999972 1.8323999999999998,0.8462999999999994 1.8220000000000027,0.840799999999998 1.8106000000000009,0.8292999999999999 1.8001000000000005,0.8326999999999991 1.7805999999999997,0.8436999999999983 1.7689000000000021,0.8543999999999983 1.7634000000000043,0.8567 1.7558000000000007,0.8564999999999969 1.7420000000000044,0.8625999999999969 1.7415999999999983,0.8648999999999987 1.733699999999999,0.8731999999999971 1.7327000000000012,0.892199999999999 1.7304999999999993,0.8965999999999994 1.7286000000000001,0.9085000000000001 1.7210000000000036,0.909399999999998 1.717400000000005,0.9155999999999977 1.7148000000000039,0.9354999999999976 1.7098000000000013,0.9418999999999969 1.709700000000005,0.9554999999999971 1.7142000000000053,0.9609999999999985 1.7144000000000048,0.9650999999999996 1.7032999999999987,0.982999999999997 1.7027,0.9994999999999976 1.7090999999999994,1.0150999999999968 1.717400000000005,1.0226999999999968 1.7308999999999983,1.0472000000000001 1.7477000000000018,1.0655999999999999 1.7465000000000046,1.0682999999999971 1.7375000000000043,1.0726999999999975 1.7353000000000023,1.0758999999999972 1.7364999999999995,1.0824999999999996 1.7353000000000023,1.087299999999999 1.729600000000005,1.093799999999998 1.6944000000000017,1.1113 1.6829999999999998,1.1271999999999984 1.6728999999999985,1.1599999999999984 1.665300000000002,1.1659999999999986 1.637599999999999,1.1705999999999985 1.6399000000000044,1.1721999999999984 1.6326000000000036,1.1889999999999983 1.6146999999999991,1.2011999999999983 1.6094000000000008,1.2021999999999977 1.5992000000000033,1.1984999999999992 1.592100000000002,1.1994999999999987 1.5874999999999986,1.2037999999999975 1.5849000000000046,1.2022999999999993 1.5842000000000027,1.2055999999999987 1.5807000000000002,1.2098999999999993 1.568000000000005,1.2110999999999983 1.5673999999999992,1.2162999999999986 1.5643999999999991,1.2194999999999983 1.5626999999999995,1.2345999999999986 1.565100000000001,1.2376999999999985 1.5727000000000046,1.241299999999999 1.5606000000000009,1.2516999999999978 1.5656999999999996,1.2592999999999979 1.5696000000000012,1.2598999999999982 1.5712000000000046,1.2627999999999986 1.5617000000000019,1.2786999999999988 1.5623000000000005,1.2814999999999976 1.558800000000005,1.2864999999999984 1.564700000000002,1.2920999999999978 1.568800000000003,1.3063999999999982 1.5735000000000028,1.311099999999998 1.5780999999999992,1.3112999999999992 1.5829999999999984,1.3150999999999993 1.580600000000004,1.325899999999999 1.5831000000000017,1.3358999999999988 1.5898000000000039,1.3391999999999982 1.5930999999999997,1.343399999999999 1.5956000000000046,1.3416999999999977 1.5973000000000042,1.342299999999998 1.6026000000000025,1.3520999999999983 1.6079000000000008,1.358299999999998 1.6098,1.3686999999999987 1.6219000000000037,1.372799999999998 1.6326999999999998,1.3804999999999978 1.6362000000000023,1.385299999999999 1.638300000000001,1.384599999999999 1.6475000000000009,1.388399999999999 1.6608000000000018,1.3853999999999989 1.667500000000004,1.3900999999999986 1.6751000000000005,1.3885999999999985 1.679300000000005,1.394899999999998 1.6839000000000013,1.3984999999999985 1.6884000000000015,1.4124999999999979 1.6976000000000013,1.4202999999999992 1.6998999999999995,1.4284999999999979 1.6978000000000009,1.4358999999999984 1.701900000000002,1.4433999999999987 1.7051000000000016,1.445199999999998 1.7139999999999986,1.443999999999999 1.7139999999999986,1.4519999999999982 1.7188000000000017,1.4577999999999989 1.7286000000000001,1.458199999999998 1.7331000000000003,1.4636999999999976 1.7359000000000009,1.4639999999999986 1.7368999999999986,1.466599999999998 1.7445000000000022,1.4662999999999986 1.7473000000000027,1.4709999999999983 1.7409000000000034,1.4793999999999983 1.741500000000002,1.4943999999999988 1.7434000000000012,1.4984999999999982 1.741500000000002,1.5033999999999992 1.7438000000000002,1.510299999999999 1.7490000000000023,1.5165999999999986 1.7638999999999996,1.5208999999999993 1.764400000000002,1.5336999999999978 1.7505000000000024,1.5561999999999987 1.7531000000000034,1.5787999999999975 1.7505000000000024,1.5844999999999985 1.7516999999999996,1.5883999999999983 1.7456000000000031,1.603799999999998 1.7458000000000027,1.6076999999999977 1.7379999999999995,1.6257999999999981 1.7359000000000009,1.6379999999999981 1.7363,1.6526999999999976 1.741100000000003,1.6620999999999988 1.7454000000000036,1.661999999999999 1.7490000000000023,1.670399999999999 1.7538000000000054,1.6744999999999983 1.7520000000000024,1.6841999999999988 1.7485,1.690999999999999 1.7494000000000014,1.700899999999999 1.7520000000000024,1.7047999999999988 1.756300000000003,1.7007999999999992 1.7620000000000005,1.6834999999999987 1.764800000000001,1.681099999999999 1.7687999999999988,1.6693999999999978 1.7715999999999994,1.6712999999999987 1.7695000000000007,1.6782999999999983 1.7757000000000005,1.6940999999999988 1.7824000000000026,1.7030999999999992 1.7916000000000025,1.7080999999999982 1.8030000000000044,1.719199999999999 1.8038999999999987,1.717699999999999 1.815100000000001,1.7173999999999978 1.8248000000000033,1.7281999999999993 1.8237999999999985,1.7288999999999977 1.8267000000000024,1.7373999999999992 1.8303000000000011,1.742799999999999 1.8270000000000053,1.7552999999999983 1.828800000000001,1.775999999999998 1.8308000000000035,1.780199999999999 1.8414000000000001,1.7848999999999986 1.842800000000004,1.7939999999999987 1.8505000000000038,1.8009999999999984 1.8658000000000001,1.7903999999999982 1.8691999999999993,1.7943999999999978 1.8847999999999985,1.8053999999999988 1.8850000000000051,1.8146999999999984 1.8828999999999994,1.8185999999999982 1.8843999999999994,1.8219999999999992 1.8960000000000008,1.831999999999999 1.9081000000000046,1.8457999999999988 1.9106999999999985,1.857899999999999 1.9119000000000028,1.8592999999999993 1.913499999999999,1.8581999999999983 1.9143000000000043,1.8599999999999977 1.909400000000005,1.8757999999999981 1.9113000000000042,1.884599999999999 1.9108000000000018,1.891899999999998 1.9027999999999992,1.9019999999999992 1.8988000000000014,1.9164999999999992 1.8907999999999987,1.921599999999998 1.8896000000000015,1.927299999999999 1.8930000000000007,1.9460999999999977 1.8856000000000037,1.9626999999999981 1.8867000000000047,1.9647999999999985 1.8917000000000002,1.966099999999999 1.8875000000000028,1.9798999999999989 1.8845000000000027,1.9795999999999978 1.8869000000000042,1.9862999999999982 1.8864000000000019,1.9922999999999984 1.8836000000000013,1.997799999999998 1.878700000000002,2.0024999999999977 1.8808000000000007,2.014499999999998 1.8965999999999994,2.0291999999999977 1.9002000000000052,2.0394999999999985 1.8945000000000007,2.0424999999999986 1.8864000000000019,2.0402999999999984 1.8817999999999984,2.042099999999998 1.879400000000004,2.0478999999999985 1.8817000000000021,2.054199999999998 1.8800000000000026,2.059199999999999 1.8813999999999993,2.063699999999999 1.884599999999999,2.0654999999999983 1.888300000000001,2.0706999999999987 1.8899000000000044,2.071299999999999 1.8903999999999996,2.0698999999999987 1.8963999999999999,2.0791999999999984 1.9070999999999998,2.083599999999999 1.9121000000000024,2.0883999999999983 1.9109000000000052,2.0965999999999987 1.9139000000000053,2.1018999999999988 1.9145000000000039,2.106299999999999 1.9207000000000036,2.1129999999999978 1.9273999999999987,2.115899999999998 1.9309000000000012,2.126599999999998 1.9296000000000006,2.130499999999998 1.9211000000000027,2.137299999999998 1.9243999999999986,2.149399999999998 1.9183999999999983,2.149799999999999 1.9119000000000028,2.1530999999999985 1.9066000000000045,2.1602999999999977 1.9061999999999983,2.163999999999998 1.9004000000000048,2.1689999999999987 1.8980999999999995,2.1910999999999987 1.8895000000000053,2.205399999999999 1.8865000000000052,2.215299999999999 1.8871000000000038,2.220699999999999 1.8817000000000021,2.2230999999999987 1.8788000000000054,2.2268999999999988 1.877200000000002,2.226499999999998 1.8736000000000033,2.231299999999999 1.8774000000000015,2.2436999999999987 1.8855000000000004,2.2548999999999992 1.8850000000000051,2.285499999999999 1.8811000000000035,2.3051999999999992 1.8841999999999999,2.310399999999998 1.8928000000000011,2.3142999999999976 1.8929000000000045,2.3184999999999985 1.8834000000000017,2.3371999999999993 1.8743000000000052,2.347199999999999 1.8755000000000024,2.356799999999998 1.8614000000000033,2.3724999999999987 1.8549000000000007,2.377299999999998 1.8514000000000053,2.3912999999999975 1.852800000000002,2.3962999999999983 1.8477000000000032,2.402199999999999 1.8438000000000017,2.413199999999998 1.8381000000000043,2.418799999999999 1.8382000000000005,2.4278999999999993 1.8344000000000023,2.4311999999999987 1.8287000000000049,2.443999999999999 1.8362000000000052,2.442099999999998 1.8421999999999983,2.4384999999999977 1.8429000000000002,2.441699999999999 1.8511000000000024,2.4423999999999992 1.8506,2.452099999999998 1.8460999999999999,2.455099999999998 1.8485000000000014,2.4590999999999976 1.8488000000000042,2.470399999999998 1.850999999999999,2.4746999999999986 1.8552999999999997,2.475299999999999 1.8598,2.483299999999998 1.8588000000000022,2.4879999999999978 1.8515000000000015,2.4959999999999987 1.850999999999999,2.5029999999999983 1.853500000000004,2.5075999999999983 1.8504000000000005,2.5131999999999977 1.8515000000000015,2.526299999999999 1.8441000000000045,2.542399999999999 1.8369,2.5479999999999983 1.833200000000005,2.5619999999999976 1.8235000000000028,2.5748999999999977 1.8201999999999998,2.576299999999998 1.8113000000000028,2.575199999999999 1.8031000000000006,2.5767999999999986 1.7954000000000008,2.5905999999999985 1.783999999999999,2.596099999999998 1.7807999999999993,2.602999999999998 1.776600000000002,2.6069999999999975 1.7775000000000034,2.6077999999999992 1.7668999999999997,2.617499999999998 1.7597999999999985,2.6312999999999978 1.7556000000000012,2.651399999999999 1.7468000000000004,2.663199999999998 1.7394999999999996,2.667699999999998 1.7317000000000036,2.685999999999998 1.7299000000000007,2.686899999999998 1.7283000000000044,2.6984999999999992 1.7120999999999995,2.7097999999999978 1.7103000000000037,2.7151999999999976 1.7030999999999992,2.724199999999998 1.702300000000001,2.7338999999999984 1.699300000000001,2.7338999999999984 1.6964000000000041,2.730999999999998 1.6867000000000019,2.732499999999998 1.6842000000000041,2.734099999999998 1.6807000000000016,2.7418999999999976 1.6736000000000004,2.741299999999999 1.6662999999999997,2.7429999999999986 1.6600000000000037,2.7376999999999985 1.6570000000000036,2.7327999999999992 1.6537000000000006,2.7311999999999976 1.6367000000000047,2.730199999999998 1.6208000000000027,2.7230999999999987 1.6167000000000016,2.7268999999999988 1.614600000000003,2.7268999999999988 1.5977999999999994,2.7197999999999976 1.5902999999999992,2.7144999999999992 1.5814999999999984,2.7032999999999987 1.5728000000000009,2.697899999999999 1.5660000000000025,2.698199999999998 1.5474000000000032,2.704299999999998 1.5396,2.6998999999999977 1.5352000000000032,2.6998999999999977 1.5332000000000008,2.697899999999999 1.5330000000000013,2.694799999999999 1.5302000000000007,2.692999999999998 1.5153000000000034,2.6876999999999978 1.5043000000000006,2.689899999999998 1.4995000000000047,2.689199999999998 1.494100000000003,2.692899999999998 1.4857000000000014,2.695599999999999 1.477400000000003,2.688699999999999 1.4363000000000028,2.680799999999998 1.4284999999999997,2.679899999999998 1.426000000000002,2.6819999999999986 1.4183999999999983,2.6808999999999976 1.4033000000000015,2.676999999999998 1.3960000000000008,2.6705999999999985 1.393100000000004,2.6641999999999992 1.392400000000002,2.648999999999999 1.3845000000000027,2.642199999999999 1.3569999999999993,2.645999999999999 1.3426000000000045,2.645599999999998 1.2828000000000017,2.6507999999999985 1.2819000000000003,2.647199999999998 1.252600000000001,2.649099999999999 1.250399999999999,2.6508999999999983 1.2480000000000047,2.657199999999998 1.2456000000000031,2.6584999999999983 1.2387000000000015,2.6544999999999987 1.233699999999999,2.648699999999998 1.2246000000000024,2.6511999999999976 1.2223000000000042,2.650499999999999 1.2169999999999987,2.642699999999998 1.2094000000000023,2.641799999999998 1.1959000000000017,2.6309999999999985 1.1931000000000012,2.626199999999999 1.1965000000000003,2.613699999999998 1.188200000000002,2.6077999999999992 1.1839000000000013,2.6076999999999977 1.174199999999999,2.616799999999998 1.1754000000000033,2.623099999999999 1.166000000000004,2.623099999999999 1.1551000000000045,2.6157999999999983 1.1238000000000028,2.585399999999998 1.1148999999999987,2.583899999999998 1.1019000000000005,2.595699999999999 1.079100000000004,2.6049999999999986 1.0530000000000044,2.630799999999999 1.0396,2.639199999999999 1.0304000000000002,2.6363999999999983 1.0202000000000027,2.628499999999999 1.016300000000001,2.6054999999999993 1.011099999999999,2.593099999999998 1.0127000000000024,2.579299999999998 1.0234000000000023,2.555399999999999 1.0172000000000025,2.550799999999999 1.0149000000000044,2.546199999999999 1.0009000000000015,2.535499999999999 0.9907000000000039,2.522199999999998 0.9551000000000016,2.5439999999999987 0.9479000000000042,2.5566999999999993 0.9416000000000011,2.5638999999999985 0.9376000000000033,2.5721999999999987 0.9400000000000048,2.583599999999999 0.940100000000001,2.5955999999999992 0.9290999999999983,2.6190999999999978 0.9233000000000047,2.6259999999999977 0.9059000000000026,2.642599999999998 0.8963000000000036,2.6476999999999986 0.8832999999999984,2.6491999999999987 0.8751000000000033,2.6560999999999986 0.8674000000000035,2.672699999999999 0.8641000000000005,2.6754999999999978 0.855000000000004,2.6915999999999976 0.8470000000000013,2.6998999999999977 0.8348000000000013,2.706899999999999 0.8250999999999991,2.708099999999998 0.7908000000000044,2.723699999999999 0.7845000000000013,2.7296999999999976 0.7744,2.7494999999999976 0.7585000000000051,2.765699999999999 0.757000000000005,2.7817999999999987 0.7486000000000033,2.799299999999999 0.7343000000000046,2.8191999999999986 0.7297000000000011,2.830199999999998 0.7293000000000021,2.837399999999999 0.7244000000000028,2.8469999999999978 0.7157000000000053,2.8569999999999975 0.7069000000000045,2.877299999999998 0.6921000000000035,2.892999999999999 0.6895999999999987,2.9026999999999976 0.6893999999999991,2.9113999999999987 0.6850000000000023,2.916199999999998 0.6751000000000005,2.915399999999998 0.6711999999999989,2.913199999999998 0.670100000000005,2.9099999999999984 0.6672000000000011,2.9095999999999993 0.6617999999999995,2.9102999999999977 0.6522000000000006,2.914799999999998 0.6480999999999995,2.9212999999999987 0.6469000000000023,2.9278999999999993 0.6390000000000029,2.945299999999998 0.6251999999999995,2.964199999999998 0.6199000000000012,2.965299999999999 0.6180000000000021,2.9750999999999976 0.6092000000000013,2.979599999999998 0.6077000000000012,2.9818999999999978 0.6071000000000026,2.987499999999999 0.6116000000000028,2.995799999999999 0.6110000000000042,3.000799999999998 0.6193999999999988,3.004599999999998 0.6204999999999998,3.0066999999999986 0.6204999999999998,3.0093999999999976 0.6152000000000015,3.0184999999999977 0.6154000000000011,3.022599999999999 0.6275000000000048,3.0375999999999976 0.629800000000003,3.0429999999999993 0.627600000000001,3.049699999999998 0.6154000000000011,3.0657999999999976 0.6133999999999986,3.0725999999999978 0.6135000000000019,3.080399999999999 0.606500000000004,3.0950999999999986 0.5994000000000028,3.0969999999999978 0.5911000000000044,3.1046999999999976 0.578400000000002,3.102599999999999 0.5705000000000027,3.1042999999999985 0.5670000000000002,3.107899999999999 0.5645999999999987,3.1195999999999984 0.5579999999999998,3.1224999999999987 0.5504000000000033,3.128999999999998 0.5516000000000005,3.1302999999999983 0.5503,3.133499999999998 0.531800000000004,3.133799999999999 0.5168000000000035,3.1393999999999984 0.5052999999999983,3.1485999999999983 0.4960000000000022,3.1678999999999977 0.478900000000003,3.174599999999998 0.46180000000000376,3.185999999999998 0.454500000000003,3.188299999999998 0.44720000000000226,3.185999999999998 0.4357000000000042,3.1750999999999987 0.43010000000000304,3.1724999999999977 0.41020000000000323,3.1697999999999986 0.3924000000000021,3.157899999999998 0.38060000000000116,3.1470999999999982 0.3721999999999994,3.1361999999999988 0.37000000000000455,3.130399999999998 0.3673000000000002,3.1118999999999986 0.35310000000000485,3.0881999999999987 0.34779999999999944,3.084299999999999 0.3429000000000002,3.084999999999999 0.3329999999999984,3.0908999999999978 0.3200000000000003,3.1057999999999986 0.31690000000000396,3.1080999999999985 0.3108000000000004,3.108699999999999 0.302500000000002,3.1249999999999982 0.3021000000000029,3.132799999999998 0.3096999999999994,3.152799999999999 0.30940000000000367,3.161699999999998 0.3038999999999987,3.174999999999999 0.2968000000000046,3.175799999999999 0.2839000000000027,3.173799999999998 0.26960000000000406,3.1758999999999986 0.2674000000000021,3.1800999999999977 0.27250000000000085,3.2215999999999987 0.2709000000000046,3.2319999999999975 0.25140000000000384,3.253099999999998 0.23620000000000374,3.264899999999999 0.22930000000000206,3.2735999999999983 0.2249000000000052,3.293599999999998 0.21940000000000026,3.3008999999999986 0.20360000000000156,3.313299999999998 0.18959999999999866,3.3215999999999983 0.18420000000000414,3.3244999999999987 0.17090000000000316,3.3275999999999986 0.16110000000000468,3.3332999999999977 0.1559000000000026,3.334299999999999 0.14350000000000307,3.3329999999999984 0.12570000000000192,3.3241999999999976 0.12290000000000134,3.3253999999999984 0.11510000000000531,3.3389999999999986 0.10040000000000049,3.345699999999999 0.09649999999999892,3.351499999999998 0.09620000000000317,3.357099999999999 0.09960000000000235,3.3679999999999986 0.1051000000000002,3.3732999999999986 0.1168000000000049,3.3762999999999987 0.12290000000000134,3.379699999999998 0.13159999999999883,3.389099999999999 0.13620000000000232,3.398299999999999 0.1395000000000053,3.400499999999999 0.15619999999999834,3.3946999999999985 0.15960000000000463,3.3950999999999976 0.16199999999999903,3.4014999999999986 0.14699999999999847,3.4140999999999977 0.14180000000000348,3.421499999999998 0.12280000000000513,3.434499999999998 0.11809999999999832,3.4362999999999992 0.09909999999999997,3.437999999999999 0.0864000000000047,3.4415999999999976 0.0835000000000008,3.4449999999999985 0.08559999999999945,3.4534999999999982 0.09300000000000352,3.455799999999998 0.11189999999999856,3.4556999999999984 0.11290000000000333,3.4716999999999985 0.09270000000000067,3.478799999999998 0.07690000000000197,3.4791999999999987 0.059600000000003206,3.477499999999999 0.036999999999999034,3.483599999999999 0.023800000000001376,3.489399999999998 0.010500000000000398,3.5005999999999986 0.0,3.5166999999999984 0.01470000000000482,3.534699999999999 0.01570000000000249,3.5383999999999975 0.013800000000003365,3.5401999999999987 0.0146000000000015,3.5509999999999984 0.021399999999999864,3.5561999999999987 0.030000000000001137,3.554999999999998 0.046800000000004616,3.547399999999998 0.06900000000000261,3.5443999999999978 0.08270000000000266,3.5505999999999993 0.08970000000000056,3.559799999999999 0.0981000000000023,3.566699999999999 0.10269999999999868,3.5668999999999986 0.11639999999999873,3.572099999999999 0.13360000000000127,3.5837999999999983 0.14330000000000354,3.584299999999999 0.1507000000000005,3.586599999999999 0.16369999999999862,3.596399999999999 0.17099999999999937,3.6114999999999977 0.17419999999999902,3.6469999999999985 0.1799000000000035,3.656699999999999 0.18740000000000379,3.660499999999999 0.19539999999999935,3.660499999999999 0.19870000000000232,3.6587999999999976 0.21070000000000277,3.6625999999999976 0.2137000000000029,3.6770999999999976 0.21760000000000446,3.6812999999999985 0.2353999999999985,3.6922999999999977 0.2501000000000033,3.7154999999999987 0.25390000000000157,3.7308999999999983 0.2524000000000015,3.7460999999999984 0.2546000000000035,3.7764999999999986 0.26069999999999993,3.7974999999999977 0.2621000000000038,3.809099999999999 0.2571000000000012,3.825899999999999 0.2575000000000003,3.828899999999999 0.2680000000000007,3.834699999999998 0.27190000000000225,3.838599999999998 0.27890000000000015,3.8534999999999986 0.2846000000000046,3.8610999999999986 0.30219999999999914,3.873099999999999 0.3111999999999995,3.8878999999999984 0.3289000000000044,3.9029999999999987 0.3363000000000014,3.9129999999999985 0.3340000000000032,3.9262999999999977 0.3276000000000039,3.936399999999999 0.32150000000000034,3.9525999999999986 0.31759999999999877,3.978999999999999 0.31450000000000244,3.987399999999999 0.3125,4.009199999999998 0.31739999999999924,4.037399999999998 0.32789999999999964,4.067399999999999 0.32560000000000144,4.081499999999998 0.3259000000000043,4.091799999999999 0.3272000000000048,4.0966999999999985 0.33370000000000033,4.1065999999999985 0.34140000000000015,4.131899999999998 0.3453000000000017,4.159899999999999 0.3509000000000029,4.181899999999999 0.35020000000000095,4.198999999999998 0.3535000000000039,4.221899999999998 0.34909999999999997,4.230699999999999 0.33910000000000196,4.236099999999999 0.31800000000000495,4.241999999999999 0.3119000000000014,4.247899999999998 0.29180000000000206,4.256999999999998 0.28650000000000375,4.263299999999999 0.2807999999999993,4.277799999999999 0.27710000000000434,4.283299999999999 0.2796999999999983,4.320199999999998 0.27139999999999986,4.351499999999998 0.27479999999999905,4.357399999999998 0.30239999999999867,4.383799999999999 0.3265999999999991,4.402999999999999 0.3383000000000038,4.432499999999999 0.34790000000000276,4.462999999999999 0.37519999999999953,4.500999999999998 0.38110000000000355,4.506599999999999 0.39860000000000184,4.513199999999998 0.4040999999999997,4.5211999999999986 0.4130000000000038,4.524999999999999 0.42249999999999943,4.524599999999998 0.4382000000000019,4.514899999999999 0.45420000000000016,4.517699999999998 0.4691000000000045,4.524999999999999 0.47340000000000515,4.525299999999998 0.4847999999999999,4.523299999999999 0.5071000000000012,4.512299999999998 0.5121000000000038,4.493099999999998 0.5252000000000052,4.4975999999999985 0.542500000000004,4.5234999999999985 0.5472999999999999,4.527199999999999 0.5663000000000054,4.534699999999999 0.5747,4.540199999999999 0.5847000000000051,4.557999999999998 0.6001000000000047,4.578599999999998 0.6417000000000002,4.591399999999998 0.7092999999999989,4.616799999999998 0.7169000000000025,4.622799999999998 0.7293999999999983,4.645799999999998 0.742600000000003,4.655599999999998 0.7713999999999999,4.668999999999999 0.7727000000000004,4.680299999999999 0.7700000000000031,4.690399999999999 0.7700999999999993,4.6972999999999985 0.7722000000000051,4.704299999999998 0.776600000000002,4.706699999999998 0.789200000000001,4.7071999999999985 0.7950000000000017,4.710599999999998 0.7983000000000047,4.715399999999999 0.804000000000002,4.730499999999999 0.8085000000000022,4.736299999999998 0.8348000000000013,4.752499999999998 0.8409000000000049,4.7620999999999984 0.8396000000000043,4.779399999999999 0.8335000000000008,4.787399999999998 0.8282999999999987,4.791099999999998 0.8231000000000037,4.791699999999999 0.8075000000000045,4.788599999999999 0.7907000000000011,4.791499999999999 0.7826000000000022,4.794999999999998 0.7760000000000034,4.800999999999998 0.7597999999999985,4.809299999999999 0.7359000000000009,4.801099999999998 0.7105000000000032,4.787799999999999 0.6715000000000018,4.781099999999999 0.6631,4.780599999999998 0.6576000000000022,4.782799999999998 0.6540999999999997,4.786199999999999 0.6521000000000043,4.803299999999998 0.6448000000000036,4.821099999999998 0.636099999999999,4.829999999999998 0.6189999999999998,4.858899999999998 0.5996000000000024,4.881999999999998 0.5962000000000032,4.889199999999999 0.5991,4.921599999999998 0.5958000000000041,4.940699999999998 0.6019000000000005,4.955499999999999 0.6024000000000029,4.961199999999998 0.595400000000005,4.963999999999999 0.5685000000000002,4.964599999999999 0.5634000000000015,4.966599999999998 0.5592000000000041,4.970399999999998 0.5528000000000048,4.990099999999998 0.5523999999999987,5.003099999999998 0.5557000000000016,5.016399999999999 0.565100000000001,5.038199999999998 0.5665000000000049,5.053299999999998 0.5707000000000022,5.066899999999999 0.577300000000001,5.075799999999999 0.5829999999999984,5.093299999999999 0.5938000000000017,5.101099999999999 0.6049000000000007,5.120399999999998 0.6034000000000006,5.142999999999999 0.6084000000000032,5.164399999999999 0.607600000000005,5.175099999999999 0.6180000000000021,5.192899999999998 0.6210000000000022,5.2071999999999985 0.6121000000000052,5.235099999999999 0.6043999999999983,5.246899999999998 0.601700000000001,5.262399999999998 0.6043000000000021,5.270499999999998 0.630900000000004,5.301799999999998 0.6328000000000031,5.323899999999998 0.630500000000005,5.332299999999998 0.6216000000000008,5.344999999999999 0.6193999999999988,5.3508999999999975 0.6218000000000004,5.367399999999998 0.6090000000000018,5.394099999999998 0.6125000000000043,5.415999999999999 0.6092000000000013,5.450299999999999 0.6178999999999988,5.487299999999998 0.6180999999999983,5.500699999999998 0.615000000000002,5.521399999999998 0.6106000000000051,5.526699999999998 0.6026999999999987,5.528699999999999 0.5956000000000046,5.537299999999998 0.5936999999999983,5.543899999999999 0.5876000000000019,5.546199999999999 0.5816000000000017,5.544799999999999 0.5782000000000025,5.542099999999998 0.5718000000000032,5.541899999999998 0.5623000000000005,5.547099999999999 0.557300000000005,5.546199999999999 0.5394000000000005,5.534499999999998 0.5309000000000026,5.535299999999998 0.5300000000000011,5.547399999999998 0.5339000000000027,5.565799999999998 0.5426000000000002,5.583499999999999 0.5498000000000047,5.588899999999999 0.5523999999999987,5.595499999999998 0.5517000000000039,5.624499999999998 0.543600000000005,5.6530999999999985 0.545100000000005,5.678399999999998 0.5407000000000011,5.698399999999998 0.5444000000000031,5.703299999999999 0.5549000000000035,5.704499999999998 0.5772000000000048,5.690799999999998 0.5838000000000036,5.688799999999999 0.5921000000000021,5.688799999999999 0.5951000000000022,5.698699999999999 0.5908000000000015,5.715799999999998 0.5874000000000024,5.750099999999998 0.5907000000000053,5.753899999999998 0.5960000000000036,5.756699999999999 0.6131999999999991,5.760999999999999 0.6154000000000011,5.765399999999998 0.6156000000000006,5.770899999999999 0.6125000000000043,5.793499999999998 0.6379000000000019,5.817199999999998 0.6417000000000002,5.823099999999998 0.6534000000000049,5.852999999999998 0.6602000000000032,5.861799999999999 0.660499999999999,5.868099999999998 0.662700000000001,5.8729999999999976 0.6803999999999988,5.886199999999999 0.6840000000000046,5.896699999999999 0.6844999999999999,5.9083999999999985 0.6935000000000002,5.928399999999998 0.6938000000000031,5.932399999999998 0.7052000000000049,5.945699999999999 0.7049999999999983,5.951499999999998 0.7092999999999989,5.957099999999999 0.7131000000000043,5.966599999999998 0.7101000000000042,5.970399999999998 0.6908999999999992,5.976799999999999 0.678600000000003,5.984699999999998 0.6743999999999986,6.009399999999998 0.6628000000000043,6.028699999999999 0.6387,6.053199999999999 0.6326999999999998,6.063099999999999 0.6317000000000021,6.070199999999998 0.6236000000000033,6.085699999999999 0.6165999999999983,6.104999999999999 0.6148999999999987,6.119599999999998 0.6114999999999995,6.123099999999999 0.6022000000000034,6.124499999999998 0.5962999999999994,6.128499999999999 0.5951000000000022,6.1362999999999985 0.5968000000000018,6.1412999999999975 0.6013000000000019,6.143399999999998 0.6066000000000003,6.153499999999999 0.595400000000005,6.185899999999998 0.5778000000000034,6.2216999999999985 0.5720999999999989,6.224699999999999 0.5658999999999992,6.223499999999998 0.5561000000000007,6.218499999999999 0.5518000000000001,6.218999999999998 0.5431000000000026,6.227199999999998 0.5423000000000044,6.231299999999999 0.5459000000000032,6.236999999999998 0.5518000000000001,6.242199999999999 0.5587000000000018,6.253399999999999 0.5714000000000041,6.256999999999998 0.5936999999999983,6.251299999999999 0.5996000000000024,6.252399999999998 0.6125000000000043,6.259399999999998 0.6184000000000012,6.266999999999998 0.6255000000000024,6.287099999999999 0.6325000000000003,6.298399999999999 0.6487000000000052,6.302299999999999 0.6681000000000026,6.302299999999999 0.6818999999999988,6.310999999999998 0.691200000000002,6.314199999999998 0.7083000000000013,6.313599999999999 0.743300000000005,6.301499999999999 0.7618000000000009,6.302699999999998 0.7661000000000016,6.305999999999999 0.7767000000000053,6.324399999999999 0.7833000000000041,6.328299999999999 0.7921000000000049,6.329499999999998 0.7965000000000018,6.339599999999999 0.801400000000001,6.345499999999998 0.8053999999999988,6.346999999999998 0.8141000000000034,6.345599999999999 0.8252000000000024,6.354099999999999 0.8329999999999984,6.357999999999999 0.8338999999999999,6.361599999999999 0.8314000000000021,6.373999999999999 0.8323000000000036,6.378999999999998 0.8370999999999995,6.385099999999998 0.8486000000000047,6.383499999999998 0.8676999999999992,6.409599999999999 0.8819000000000017,6.420799999999998 0.8984999999999985,6.439399999999999 0.9023000000000039,6.447399999999998 0.9046999999999983,6.458799999999998 0.915300000000002,6.464399999999998 0.9243000000000023,6.452799999999998 0.9305000000000021,6.456699999999998 0.9472000000000023,6.471199999999998 0.9588999999999999,6.492399999999998 0.9680000000000035,6.498499999999998 0.9742999999999995,6.500699999999998 0.9827000000000012,6.500899999999998 0.9986000000000033,6.513399999999999 1.0078000000000031,6.516599999999999 1.0164000000000044,6.524799999999999 1.0226000000000042,6.542299999999999 1.0219000000000023,6.547299999999998 1.0187000000000026,6.552099999999998 1.0136000000000038,6.552399999999999 0.9943000000000026,6.546399999999998 0.9903000000000048,6.547599999999999 0.9871000000000052,6.554299999999998 0.9903000000000048,6.566999999999998 0.988900000000001,6.570299999999998 0.9735000000000014,6.584899999999999 0.9682999999999993,6.586299999999998 0.9581000000000017,6.602899999999998 0.954100000000004,6.613699999999998 0.9468999999999994,6.617499999999998 0.9318999999999988,6.615699999999999 0.9303000000000026,6.620399999999998 0.9410999999999987,6.628599999999999 0.9461000000000013,6.636599999999998 0.9449000000000041,6.6545999999999985 0.9387000000000043,6.661199999999999 0.9313000000000002,6.665399999999998 0.9271000000000029,6.666299999999998 0.9235000000000042,6.664899999999998 0.9157000000000011,6.666499999999999 0.9121000000000024,6.668699999999998 0.9035000000000011,6.678899999999999 0.8997000000000028,6.679999999999998 0.8853000000000009,6.677599999999998 0.8826999999999998,6.680599999999998 0.8823000000000008,6.696899999999998 0.878700000000002,6.707699999999999 0.873899999999999,6.715099999999998 0.873899999999999,6.730099999999998 0.8689000000000036,6.737499999999999 0.8635000000000019,6.755499999999998 0.8663000000000025,6.772699999999999 0.8529000000000053,6.781199999999998 0.8541000000000025,6.790699999999999 0.8487000000000009,6.808099999999998 0.8491,6.811999999999998 0.8567000000000036,6.823599999999999 0.8609000000000009,6.8542999999999985 0.8719000000000037,6.868599999999999 0.8740999999999985,6.875299999999999 0.8729000000000013,6.880799999999999 0.863900000000001,6.883299999999998 0.8593000000000046,6.882199999999999 0.8541000000000025,6.893799999999999 0.8545000000000016,6.898299999999999 0.8515000000000015,6.9045999999999985 0.8455000000000013,6.909899999999999 0.831700000000005,6.912599999999998 0.8245000000000005,6.932899999999998 0.8053000000000026,6.945599999999999 0.7897000000000034,6.949399999999999 0.7727000000000004,6.949699999999998 0.7615000000000052,6.958499999999999 0.7541000000000011,6.960699999999999 0.7515000000000001,6.962999999999999 0.7473000000000027,6.9731999999999985 0.738900000000001,6.983699999999999 0.7255000000000038,6.992499999999998 0.7199000000000026,6.999699999999999 0.7175000000000011,7.006299999999998 0.7101000000000042,7.009699999999999 0.7037000000000049,7.015999999999998 0.6975000000000051,7.019299999999998 0.691900000000004,7.0196999999999985 0.6728999999999985,7.017699999999998 0.6583000000000041,7.0112999999999985 0.6567000000000007,7.015199999999998 0.6570999999999998,7.022999999999998 0.653100000000002,7.032999999999998 0.6459000000000046,7.040099999999999 0.6335000000000051,7.044599999999999 0.6371000000000038,7.052899999999999 0.626100000000001,7.057899999999998 0.6247000000000043,7.061999999999998 0.6321000000000012,7.069399999999998 0.6385000000000005,7.102699999999999 0.6441000000000017,7.115099999999998 0.6510999999999996,7.119799999999998 0.6549000000000049,7.124999999999998 0.6583000000000041,7.1351999999999975 0.6671000000000049,7.150999999999998 0.6737000000000037,7.170399999999999 0.6751000000000005,7.179999999999998 0.6859000000000037,7.195299999999998 0.7037000000000049,7.204799999999999 0.7058999999999997,7.210499999999998 0.7051000000000016,7.221799999999998 0.6908999999999992,7.243599999999999 0.6837000000000018,7.269399999999999 0.6816999999999993,7.272399999999999 0.6756999999999991,7.275999999999998 0.6629000000000005,7.291399999999998 0.6475000000000009,7.299999999999999 0.6268999999999991,7.306099999999999 0.6171000000000006,7.316299999999998 0.6052999999999997,7.3447999999999976 0.5953000000000017,7.354899999999999 0.5825000000000031,7.361699999999999 0.5733000000000033,7.363699999999998 0.5553000000000026,7.371399999999998 0.5513000000000048,7.378599999999999 0.5557000000000016,7.392999999999999 0.5549000000000035,7.399399999999998 0.5457000000000036,7.427799999999998 0.542900000000003,7.431999999999999 0.545100000000005,7.454099999999999 0.5503,7.471599999999999 0.5453000000000046,7.479199999999999 0.5431000000000026,7.495899999999999 0.5401000000000025,7.502499999999998 0.5279000000000025,7.509699999999999 0.5125000000000028,7.527099999999999 0.503700000000002,7.529299999999999 0.49790000000000134,7.527099999999999 0.4834999999999994,7.513799999999998 0.46809999999999974,7.513499999999999 0.4557000000000002,7.519099999999998 0.4502999999999986,7.5234999999999985 0.4350999999999985,7.523299999999999 0.4311000000000007,7.516099999999998 0.432300000000005,7.498899999999999 0.43590000000000373,7.485299999999999 0.4288999999999987,7.476499999999998 0.4271000000000029,7.462199999999999 0.41629999999999967,7.452199999999998 0.40870000000000317,7.452999999999998 0.4019000000000048,7.475099999999998 0.3867000000000047,7.496899999999998 0.380900000000004,7.500899999999998 0.3663000000000025,7.498599999999998 0.34949999999999903,7.490599999999999 0.3453000000000017,7.491099999999998 0.34130000000000393,7.493699999999999 0.33670000000000044,7.500899999999998 0.33270000000000266,7.503599999999999 0.3242000000000047,7.524099999999999 0.3182000000000045,7.550999999999998 0.3185000000000002,7.559099999999999 0.3214000000000041,7.5665999999999976 0.33370000000000033,7.579499999999998 0.3400000000000034,7.591499999999998 0.35010000000000474,7.599499999999999 0.3534000000000006,7.606499999999999 0.35430000000000206,7.615599999999999 0.3522000000000034,7.620399999999998 0.3451000000000022,7.624599999999999 0.33389999999999986,7.627999999999998 0.30049999999999955,7.633099999999999 0.292500000000004,7.644199999999998 0.2739000000000047,7.641699999999998 0.26129999999999853,7.635599999999998 0.2569000000000017,7.645899999999999 0.2599000000000018,7.650699999999999 0.26259999999999906,7.660999999999998 0.2546999999999997,7.669799999999999 0.2589000000000041,7.692099999999998 0.2546999999999997,7.706999999999999 0.2698999999999998,7.727599999999999 0.26610000000000156,7.727499999999999 0.2668000000000035,7.728999999999999 0.3096000000000032,7.763399999999999 0.3137000000000043,7.759199999999998 0.31630000000000535,7.759299999999998 0.3194000000000017,7.756899999999998 0.32330000000000325,7.747299999999999 0.33210000000000406,7.734699999999998 0.3329999999999984,7.726899999999999 0.340600000000002,7.721099999999998 0.3458000000000041,7.719299999999999 0.3487000000000009,7.715499999999999 0.3481000000000023,7.712899999999998 0.352800000000002,7.714999999999998 0.3551000000000002,7.713599999999998 0.3622000000000014,7.705499999999999 0.3646000000000029,7.705399999999999 0.3697000000000017,7.700399999999998 0.36990000000000123,7.695299999999998 0.3755000000000024,7.691699999999999 0.38159999999999883,7.690899999999999 0.3807000000000045,7.684699999999998 0.38980000000000103,7.677699999999998 0.4066000000000045,7.673199999999998 0.4141000000000048,7.664399999999999 0.42130000000000223,7.662899999999999 0.4314999999999998,7.651999999999999 0.43310000000000315,7.648299999999999 0.43440000000000367,7.649599999999998 0.43610000000000326,7.648099999999998 0.43789999999999907,7.648899999999998 0.4490000000000052,7.642799999999998 0.45230000000000103,7.638299999999999 0.45360000000000156,7.639099999999999 0.45830000000000126,7.636399999999998 0.46359999999999957,7.637499999999999 0.4718000000000018,7.634699999999999 0.476700000000001,7.635299999999999 0.4771000000000001,7.633099999999999 0.4801000000000002,7.633199999999999 0.48450000000000415,7.629599999999998 0.49680000000000035,7.6301999999999985 0.5072000000000045,7.621699999999999 0.5204000000000022,7.618299999999998 0.5315000000000012,7.623799999999999 0.5350000000000037,7.631199999999998 0.5482000000000014,7.633899999999999 0.5553999999999988,7.637799999999999 0.5626000000000033,7.638499999999999 0.565800000000003,7.640999999999998 0.5709000000000017,7.639099999999999 0.5778000000000034,7.629399999999999 0.5926000000000045,7.625899999999998 0.5971000000000046,7.627999999999998 0.6026000000000025,7.635099999999998 0.6106000000000051,7.634699999999999 0.6184000000000012,7.638699999999998 0.6227000000000018,7.638299999999999 0.6315000000000026,7.643399999999998 0.6332999999999984,7.642999999999999 0.6450000000000031,7.6324999999999985 0.6454000000000022,7.629399999999999 0.6499000000000024,7.624399999999998 0.6576999999999984,7.619499999999999 0.6636999999999986,7.609199999999998 0.6707000000000036,7.602699999999999 0.680800000000005,7.603199999999999 0.6889000000000038,7.595599999999999 0.6889000000000038,7.593299999999999 0.6995000000000005,7.591399999999998 0.7043999999999997,7.587999999999999 0.7079999999999984,7.577799999999998 0.7199999999999989,7.568699999999998 0.7293999999999983,7.5577999999999985 0.7331000000000003,7.549299999999999 0.7332999999999998,7.540399999999998 0.7289999999999992,7.533699999999998 0.7387000000000015,7.526999999999999 0.7403000000000048,7.5234999999999985 0.7505000000000024,7.514499999999998 0.7706000000000017,7.5074999999999985 0.774799999999999,7.507699999999998 0.7987000000000037,7.501899999999999 0.8078000000000003,7.506699999999999 0.8233000000000033,7.500499999999999 0.8299999999999983,7.500199999999998 0.8351000000000042,7.504999999999999 0.8412000000000006,7.504999999999999 0.8430000000000035,7.509699999999999 0.8383000000000038,7.514499999999998 0.8387999999999991,7.517199999999999 0.8432999999999993,7.517099999999999 0.8475000000000037,7.520599999999998 0.8518000000000043,7.529099999999998 0.8573000000000022,7.532399999999999 0.8569000000000031,7.537799999999999 0.8595000000000041,7.540399999999998 0.8621000000000052,7.541299999999998 0.8646000000000029,7.540099999999999 0.8669000000000011,7.541699999999999 0.8729000000000013,7.539199999999999 0.877600000000001,7.539299999999999 0.878700000000002,7.541499999999999 0.8871000000000038,7.543899999999999 0.8943000000000012,7.549799999999998 0.8965999999999994,7.546399999999998 0.9004000000000048,7.548799999999998 0.9082000000000008,7.539599999999998 0.9151999999999987,7.537499999999998 0.9243999999999986,7.529899999999998 0.9320000000000022,7.529099999999998 0.9390000000000001,7.521299999999998 0.9500999999999991,7.523699999999998 0.9476000000000013,7.526599999999998 0.9535000000000053,7.5280999999999985 0.9665000000000035,7.521799999999999 0.970400000000005,7.5219999999999985 0.9723000000000042,7.518199999999998 0.9951000000000008,7.519199999999998 1.0020000000000024,7.516399999999999 1.0120000000000005,7.508799999999999 1.0150000000000006,7.513499999999999 1.0152,7.520599999999998 1.0170999999999992,7.521799999999999 1.015900000000002,7.526699999999998 1.0223000000000013,7.532599999999999 1.0198000000000036,7.536899999999999 1.0253000000000014,7.538699999999999 1.0275000000000034,7.544399999999998 1.0304000000000002,7.545399999999999 1.0335999999999999,7.543899999999999 1.039200000000001,7.547199999999998 1.0405000000000015,7.544799999999999 1.0459999999999994,7.543499999999998 1.0478999999999985,7.547099999999999 1.0536999999999992,7.544799999999999 1.0705000000000027,7.545199999999998 1.0863000000000014,7.5394999999999985 1.101300000000002,7.522899999999998 1.1136000000000053,7.519799999999998 1.1249000000000038,7.505699999999999 1.1262000000000043,7.498199999999999 1.137900000000002,7.490399999999999 1.1459000000000046,7.488899999999999 1.1576999999999984,7.482599999999998 1.1677999999999997,7.471599999999999 1.1773999999999987,7.466099999999999 1.1788000000000025,7.463199999999999 1.1778000000000048,7.461299999999998 1.179300000000005,7.458799999999998 1.1820000000000022,7.458199999999998 1.1828000000000003,7.455499999999999 1.1870000000000047,7.456399999999999 1.189,7.455299999999998 1.1900000000000048,7.452599999999999 1.187899999999999,7.449899999999998 1.1880000000000024,7.447199999999999 1.1906000000000034,7.447399999999998 1.1913000000000054,7.450899999999999 1.1940000000000026,7.451499999999998 1.1983999999999995,7.447899999999999 1.1981000000000037,7.444299999999998 1.2027,7.443399999999999 1.2013000000000034,7.439599999999999 1.2047000000000025,7.441099999999999 1.2068000000000012,7.440399999999999 1.2075000000000031,7.435799999999999 1.2113000000000014,7.4388999999999985 1.214500000000001,7.435999999999998 1.2176000000000045,7.437299999999999 1.2222000000000008,7.434899999999999 1.2233000000000018,7.432499999999999 1.2201000000000022,7.428799999999999 1.2199000000000026,7.425499999999998 1.2148000000000039,7.421699999999998 1.2118000000000038,7.423099999999998 1.2139999999999986,7.419199999999998 1.2179000000000002,7.420199999999998 1.217800000000004,7.417699999999998 1.2191000000000045,7.4194999999999975 1.221900000000005,7.416299999999998 1.2240000000000038,7.416599999999999 1.2250000000000014,7.4133999999999975 1.2286000000000001,7.418799999999999 1.231500000000004,7.417899999999998 1.241500000000002,7.4205999999999985 1.2490999999999985,7.415499999999998 1.2533999999999992,7.421099999999999 1.2606000000000037,7.449399999999999 1.2645000000000053,7.457899999999999 1.2676000000000016,7.483799999999999 1.2773000000000039,7.500199999999998 1.2769000000000048,7.505399999999998 1.2687999999999988,7.522199999999998 1.2695000000000007,7.526599999999998 1.2563999999999993,7.545799999999998 1.255500000000005,7.554999999999998 1.2649000000000044,7.580899999999998 1.2749999999999986,7.598799999999999 1.2963000000000022,7.615999999999998 1.3252999999999986,7.632699999999998 1.346499999999999,7.635299999999999 1.3526999999999987,7.631599999999999 1.3640000000000043,7.619999999999999 1.3678999999999988,7.615599999999999 1.3725000000000023,7.606199999999998 1.3770999999999987,7.602699999999999 1.3858999999999995,7.600599999999998 1.4023000000000039,7.583999999999998 1.4129000000000005,7.577899999999998 1.4221000000000004,7.569399999999998 1.4459000000000017,7.546499999999998 1.4483999999999995,7.541699999999999 1.4654999999999987,7.529899999999998 1.4759000000000029,7.519999999999998 1.4849000000000032,7.515099999999999 1.5065999999999988,7.489299999999998 1.514400000000002,7.484899999999998 1.5560000000000045,7.445399999999998 1.5581999999999994,7.440499999999998 1.5804000000000045,7.4167999999999985 1.6161999999999992,7.386999999999999 1.629400000000004,7.370899999999999 1.6377000000000024,7.356399999999999 1.640900000000002,7.340299999999999 1.6546999999999983,7.320699999999999 1.6724000000000032,7.308099999999998 1.7040000000000006,7.261799999999999 1.738900000000001,7.226499999999998 1.762900000000002,7.196299999999999 1.7682000000000002,7.185899999999998 1.7811999999999983,7.176899999999998 1.7881,7.168399999999998 1.799199999999999,7.160099999999998 1.8034000000000034,7.154799999999998 1.8117000000000019,7.1507999999999985 1.8168000000000006,7.143899999999999 1.8198000000000008,7.133599999999998 1.834299999999999,7.110799999999998 1.8460999999999999,7.0787999999999975 1.8488000000000042,7.074899999999998 1.8453000000000017,7.0699999999999985 1.8453000000000017,7.066399999999998 1.8492000000000033,7.062999999999999 1.8398000000000039,7.046799999999999 1.8429000000000002,7.022799999999998 1.8327000000000027,7.011899999999999 1.8444000000000003,6.994199999999999 1.8460000000000036,6.983599999999999 1.8522999999999996,6.969599999999998 1.8584999999999994,6.960599999999998 1.865000000000002,6.938699999999999 1.866100000000003,6.918499999999998 1.8628,6.895699999999998 1.868000000000002,6.871999999999998 1.8751000000000033,6.865299999999998 1.8810000000000002,6.833999999999998 1.878700000000002,6.822999999999999 1.8800000000000026,6.819599999999998 1.8693000000000026,6.802099999999998 1.8659999999999997,6.781199999999998 1.8622000000000014,6.774299999999998 1.8577000000000012,6.744899999999998 1.8521,6.739599999999998 1.8518000000000043,6.711599999999999 1.8560000000000016,6.707399999999998 1.8608000000000047,6.685999999999998 1.8629000000000033,6.682399999999998 1.8733000000000004,6.688099999999999 1.8796000000000035,6.683199999999998 1.8808000000000007,6.679299999999998 1.8781999999999996,6.673599999999999 1.8785999999999987,6.6705999999999985 1.8841999999999999,6.6652999999999984 1.8858000000000033,6.659999999999998 1.8813999999999993,6.647399999999999 1.8633999999999986,6.629199999999999 1.8571000000000026,6.617499999999998 1.8685000000000045,6.610599999999998 1.8710000000000022,6.607399999999998 1.8684000000000012,6.605099999999998 1.858699999999999,6.605099999999998 1.8631000000000029,6.599399999999999 1.8658000000000001,6.591499999999998 1.8653000000000048,6.578199999999999 1.8689999999999998,6.570799999999998 1.8760000000000048,6.563399999999998 1.9044999999999987,6.5455999999999985 1.907900000000005,6.538499999999999 1.9022000000000006,6.537399999999998 1.8971000000000018,6.522499999999999 1.9078000000000017,6.502399999999998 1.917500000000004,6.496399999999998 1.9207999999999998,6.488399999999999 1.9207999999999998,6.482399999999998 1.930500000000002,6.466299999999999 1.9320999999999984,6.454099999999999 1.9356000000000009,6.445999999999998 1.9267000000000039,6.421699999999998 1.9325000000000045,6.410399999999999 1.940400000000004,6.406399999999998 1.9478000000000009,6.398099999999998 1.9596000000000018,6.379499999999998 1.9620999999999995,6.369599999999998 1.9553000000000011,6.341099999999999 1.9605999999999995,6.311899999999998 1.9579999999999984,6.295099999999998 1.9535000000000053,6.283099999999999 1.9521000000000015,6.2711999999999986 1.9557000000000002,6.248599999999998 1.9510000000000005,6.230899999999998 1.9594000000000023,6.218699999999998 1.9598000000000013,6.215299999999999 1.9562999999999988,6.210899999999999 1.9562999999999988,6.2071999999999985 1.951900000000002,6.198299999999998 1.950400000000002,6.186799999999998 1.9466999999999999,6.180399999999999 1.9314999999999998,6.166399999999998 1.9254000000000033,6.1530999999999985 1.9189000000000007,6.146599999999998 1.9144000000000005,6.137699999999999 1.9113000000000042,6.119499999999999 1.9129000000000005,6.096499999999999 1.9173000000000044,6.083899999999998 1.9209999999999994,6.077899999999998 1.9303000000000026,6.079699999999999 1.9357000000000042,6.076699999999999 1.9447000000000045,6.0745999999999984 1.9483999999999995,6.058899999999998 1.9459000000000017,6.058199999999998 1.9403000000000006,6.062899999999999 1.9391000000000034,6.059699999999998 1.9475000000000051,6.046699999999998 1.9414000000000016,6.037799999999999 1.9432000000000045,6.032499999999999 1.9385000000000048,6.025199999999998 1.9436000000000035,6.0135999999999985 1.943400000000004,6.009499999999999 1.9485000000000028,6.008699999999999 1.9498999999999995,6.005599999999998 1.9562000000000026,6.000999999999998 1.9725000000000037,5.996099999999998 1.996300000000005,5.985999999999999 2.008099999999999,5.976499999999998 2.0138999999999996,5.968199999999998 2.0209000000000046,5.952999999999998 2.0346000000000046,5.945199999999998 2.0409000000000006,5.936499999999999 2.047699999999999,5.914699999999998 2.057300000000005,5.902699999999998 2.060700000000004,5.895099999999998 2.0705000000000027,5.883799999999999 2.0733000000000033,5.867499999999998 2.0874999999999986,5.862599999999999 2.0951999999999984,5.854799999999999 2.1007000000000033,5.843699999999998 2.098400000000005,5.836799999999998 2.0960000000000036,5.834999999999999 2.090900000000005,5.835699999999999 2.086200000000005,5.829499999999998 2.085799999999999,5.824399999999999 2.088300000000004,5.815199999999999 2.0929,5.808599999999998 2.093600000000002,5.800699999999999 2.1060000000000016,5.805799999999998 2.1151000000000053,5.805999999999999 2.1437000000000026,5.7955999999999985 2.1929000000000016,5.7719999999999985 2.200800000000001,5.761599999999998 2.207799999999999,5.759099999999998 2.220400000000005,5.749399999999998 2.232199999999999,5.725199999999999 2.235900000000001,5.712099999999998 2.2465000000000046,5.644099999999998 2.2591000000000037,5.611199999999998 2.2572000000000045,5.597599999999998 2.2586000000000013,5.589099999999998 2.264400000000002,5.577199999999998 2.268100000000004,5.555899999999998 2.1932000000000045,5.552799999999998 2.1655000000000015,5.554699999999999 2.156800000000004,5.552899999999999 2.1218000000000004,5.550899999999999 2.060200000000002,5.549299999999999 2.0497000000000014,5.547299999999998 2.0254000000000048,5.547999999999998 2.0138000000000034,5.546399999999998 1.9528000000000034,5.544699999999999 1.953000000000003,5.517799999999998 1.9442999999999984,5.465099999999998 1.9076999999999984,5.361199999999998 1.892700000000005,5.323099999999998 1.8807000000000045,5.300999999999998 1.8232,5.161099999999998 1.8030000000000044,5.126599999999998 1.7865000000000038,5.090199999999998 1.7355000000000018,4.967699999999999 1.7248000000000019,4.9289999999999985 1.7186000000000021,4.8725999999999985 1.7188000000000017,4.8344999999999985 1.7240000000000038,4.777499999999998 1.7272000000000034,4.7601999999999975 1.744100000000003,4.695299999999998 1.7580999999999989,4.651799999999998 1.7667000000000002,4.614299999999998 1.7732000000000028,4.598899999999999 1.7783000000000015,4.580699999999998 1.7946999999999989,4.510499999999999 1.8085000000000022,4.462899999999998 1.8292000000000002,4.417099999999998 1.8340999999999994,4.397499999999999 1.8357000000000028,4.374299999999998 1.8338999999999999,4.359099999999998 1.821000000000005,4.317999999999998 1.8212000000000046,4.309699999999998 1.8179000000000016,4.291099999999998 1.818400000000004,4.278199999999998 1.826900000000002,4.236999999999998 1.8426000000000045,4.199899999999998 1.846499999999999,4.180199999999999 1.8481000000000023,4.162199999999999 1.8603999999999985,4.097799999999998 1.8623000000000047,4.080099999999998 1.8614999999999995,4.064699999999998 1.8543999999999983,4.046299999999999 1.8509000000000029,4.029299999999999 1.8472000000000008,3.979599999999998 1.8492999999999995,3.9701999999999984 1.8496000000000024,3.8779999999999983 1.846499999999999,3.8503999999999987 1.841300000000004,3.825599999999998 1.8310999999999993,3.789999999999999 1.8338999999999999,3.769099999999998 1.837600000000002,3.760299999999999 1.8486000000000047,3.7494999999999976 1.855000000000004,3.738699999999998 1.8588999999999984,3.7379999999999978 1.8716000000000008,3.724099999999998 1.8875000000000028,3.698299999999998 1.905300000000004,3.654899999999998 1.9136999999999986,3.6453999999999986 1.9894000000000034,3.644999999999998 2.069099999999999,3.6483999999999988 2.147100000000002,3.646399999999998 2.1586,3.6484999999999985 2.171600000000005,3.647999999999998 2.1766000000000005,3.645299999999999 2.274000000000001,3.5462999999999987 2.3969000000000023,3.430699999999998 2.5404000000000053,3.242399999999998 2.7942000000000036,2.9597999999999978 2.8048,2.937999999999999 2.8182000000000045,2.9023999999999983 2.827600000000004,2.8664999999999985 2.8877999999999986,2.7956999999999983 2.9472000000000023,2.7323999999999984 3.036900000000003,2.626599999999998 3.080200000000005,2.5700999999999983 3.180500000000002,2.4526999999999983 3.180900000000001,2.4179999999999993 3.1796000000000006,2.4197999999999986 3.178600000000003,2.403599999999999 3.1799999999999997,2.397599999999999 3.1807000000000016,2.232599999999998 3.225200000000001,2.232199999999999 3.1983999999999995,2.174199999999999 3.200000000000003,2.1735999999999986 3.197400000000002,2.1675999999999984 3.099400000000003,1.959299999999999 3.1484000000000023,1.7657999999999987 3.1532000000000053,1.7533999999999992 3.152000000000001,1.7533999999999992 3.155000000000001,1.7384999999999984 3.162300000000002,1.709699999999998 3.1480999999999995,1.5395999999999983 3.1458000000000013,1.494299999999999 3.1418999999999997,1.4522999999999993 3.1382000000000048,1.430299999999999 3.1235,1.1949999999999985 3.121600000000001,1.197799999999999 3.114200000000004,1.1812999999999985 3.1128,1.1511999999999976 3.114200000000004,1.146399999999998 3.116100000000003,1.1454999999999984 3.116500000000002,1.1370999999999984 3.121000000000002,1.1330999999999989 3.1251999999999995,1.1336999999999993 3.127200000000002,1.1317999999999984 3.129800000000003,1.1128 3.1288000000000054,1.102999999999998 3.124600000000001,1.096499999999999 3.0889000000000024,1.0772999999999975 3.0786000000000016,1.0687999999999995 3.076900000000002,1.060699999999997 3.0701000000000036,1.0551999999999992 3.0634000000000015,1.0539999999999985 3.060700000000004,1.0550999999999995 3.058500000000002,1.0533000000000001 3.0549999999999997,1.0538999999999987 3.0478000000000023,1.0505999999999993 3.0444999999999993,1.0464999999999982 3.0307999999999993,1.0407999999999973 3.028800000000004,1.0367999999999995 3.0214,1.0361999999999973 3.0194000000000045,1.0276999999999994 3.0172999999999988,1.026799999999998 3.006599999999999,1.0283999999999978 3.0012000000000043,1.0259 2.995899999999999,1.0269999999999975 2.9943000000000026,1.0235999999999983 2.9924000000000035,1.0231999999999992 2.9906000000000006,1.0250999999999983 2.9939000000000036,1.0284999999999975 2.987700000000004,1.0326999999999984 2.9873000000000047,1.0299999999999976 2.9848,1.0285999999999973 2.982600000000005,1.0333999999999968 2.9697999999999993,1.025699999999997 2.9398000000000053,1.0140999999999991 2.9350999999999985,1.0061 2.930800000000005,1.006499999999999 2.928699999999999,1.0024999999999977 2.9161,1.0028999999999968 2.9132999999999996,1.0004999999999988 2.905700000000003,0.9991999999999983 2.902700000000003,0.9948999999999977 2.8941000000000017,0.9975999999999985 2.8892999999999986,1.0037999999999982 2.885300000000001,1.0011999999999972 2.8795,1.001999999999999 2.8811000000000035,0.9969999999999999 2.8798999999999992,0.9947999999999979 2.8745000000000047,0.9984999999999999 2.869100000000003,1.0067999999999984 2.8673,1.006999999999998 2.8652000000000015,1.0050999999999988 2.866100000000003,1.0024999999999977 2.862700000000004,0.9946999999999981 2.8536,0.9914999999999985 2.8541000000000025,0.9878 2.8522000000000034,0.982999999999997 2.856100000000005,0.9745999999999988 2.850999999999999,0.9662999999999968 2.8393000000000015,0.9656999999999982 2.8355999999999995,0.9603999999999999 2.8289000000000044,0.9615999999999971 2.8297999999999988,0.9681999999999995 2.828400000000002,0.9708999999999968 2.8232,0.9734999999999978 2.8160999999999987,0.9719999999999978 2.812800000000003,0.9737999999999971 2.808800000000005,0.9821999999999989 2.8019999999999996,0.9862000000000002 2.7988,0.9852999999999987 2.7961000000000027,0.9902999999999977 2.7978999999999985,0.9961999999999982 2.7956000000000003,1.0005999999999986 2.7963999999999984,1.0063999999999993 2.7953000000000046,1.0076 2.789500000000004,1.0091 2.7834000000000003,1.0062999999999995 2.775500000000001,1.0065999999999988 2.7616000000000014,1.0113999999999983 2.7587000000000046,1.0138999999999996 2.7398999999999987,1.0152999999999999 2.737400000000001,1.0113999999999983 2.7314000000000007,1.0096999999999987 2.7302999999999997,1.0077999999999996 2.724400000000003,1.0071999999999974 2.7154999999999987,1.0033999999999992 2.7120000000000033,0.9984000000000002 2.7124000000000024,0.9942999999999991 2.708200000000005,0.9900999999999982 2.7020000000000053,0.9791999999999987 2.6948000000000008,0.9731999999999985 2.6844000000000037,0.972299999999997 2.659800000000004,0.9500999999999991 2.6576999999999984,0.9430999999999976 2.6548000000000016,0.9416999999999973 2.653100000000002,0.9383999999999979 2.650100000000002,0.9366999999999983 2.645400000000002,0.9370999999999974 2.6418000000000035,0.9316999999999993 2.6336000000000013,0.9283000000000001 2.6304000000000016,0.9237000000000002 2.6219000000000037,0.9183999999999983 2.6186000000000007,0.9146999999999998 2.6167000000000016,0.9030999999999985 2.606900000000003,0.8974999999999973 2.6029000000000053,0.8867999999999974 2.6034000000000006,0.876299999999997 2.6081000000000003,0.8621999999999979 2.603999999999999,0.8512999999999984 2.6051,0.8439999999999976 2.6022000000000034,0.8412999999999968 2.5881000000000043,0.8061999999999969 2.597300000000004,0.7874999999999979 2.6058999999999983,0.7825999999999986 2.6078000000000046,0.7779999999999987 2.6073999999999984,0.7724999999999973 2.5981000000000023,0.759999999999998 2.5854,0.7495999999999974 2.575000000000003,0.7354999999999983 2.572400000000002,0.7252999999999972 2.5737999999999985,0.721899999999998 2.572400000000002,0.7205999999999975 2.575099999999999,0.6928999999999981 2.5726000000000013,0.6831999999999994 2.5737000000000023,0.6678999999999995 2.572400000000002,0.6568999999999967 2.5660000000000025,0.6464999999999996 2.558399999999999,0.6393999999999984 2.5493000000000023,0.6358999999999995 2.5294000000000025,0.633899999999997 2.524700000000003,0.6317999999999984 2.5227000000000004,0.6271999999999984 2.514800000000001,0.6192999999999991 2.5204999999999984,0.6133999999999986 2.515900000000002,0.6110999999999969 2.5092,0.6125999999999969 2.497399999999999,0.610199999999999 2.4868999999999986,0.6012999999999984 2.4883000000000024,0.5924999999999976 2.487100000000005,0.5887999999999991 2.4731000000000023,0.5810999999999993 2.4697999999999993,0.5775999999999968 2.461200000000005,0.5748999999999995 2.455200000000005,0.570999999999998 2.455200000000005,0.5665999999999976 2.458200000000005,0.563799999999997 2.4574,0.5585999999999984 2.4639999999999986,0.5409999999999968 2.4650000000000034,0.5299999999999976 2.4677000000000007,0.527199999999997 2.468900000000005,0.5216999999999992 2.4711,0.5202999999999989 2.480699999999999,0.5223999999999975 2.4821000000000026,0.5211999999999968 2.4784000000000006,0.5112999999999985 2.4802999999999997,0.5068999999999981 2.4890000000000043,0.5059999999999967 2.493300000000005,0.5026999999999973 2.4971999999999994,0.5019999999999989 2.508500000000005,0.4923000000000002 2.5180000000000007,0.49129999999999896 2.5257000000000005,0.4740000000000002 2.530700000000003,0.4740000000000002 2.5349000000000004,0.4762999999999984 2.5390000000000015,0.4756 2.5420000000000016,0.46559999999999846 2.546199999999999,0.4579999999999984 2.5548,0.4522999999999975 2.5523999999999987,0.4460999999999977 2.5656000000000034,0.4466999999999999 2.5715000000000003,0.4349999999999987 2.589500000000001,0.42109999999999914 2.5955000000000013,0.4117999999999995 2.5927000000000007,0.39459999999999695 2.594700000000003,0.39259999999999806 2.6045000000000016,0.39089999999999847 2.5964000000000027,0.3850999999999978 2.5930999999999997,0.37739999999999796 2.5996000000000024,0.367799999999999 2.6048000000000044,0.3546999999999976 2.6022000000000034,0.341899999999999 2.6041999999999987,0.33179999999999765 2.615700000000004,0.3208999999999982 2.6165999999999983,0.31049999999999756 2.622399999999999,0.2992999999999988 2.6200000000000045,0.290499999999998 2.615400000000001,0.2845999999999975 2.6156000000000006,0.2738999999999976 2.605000000000004,0.25879999999999725 2.5966999999999985,0.252799999999997 2.5923000000000016,0.2411999999999992 "></polygon><polygon points="2.0698000000000008,5.080399999999999 2.0709000000000017,5.080399999999999 2.070300000000003,5.078499999999998 2.0690000000000026,5.078999999999999 2.0698000000000008,5.080399999999999 "></polygon><polygon points="2.058399999999999,5.061499999999999 2.0595,5.062299999999999 2.0609000000000037,5.062099999999999 2.0578000000000003,5.059599999999998 2.057000000000002,5.060899999999998 2.058399999999999,5.061499999999999 "></polygon><polygon points="2.0442000000000036,5.089299999999998 2.0453000000000046,5.083499999999999 2.0501000000000005,5.082299999999998 2.057300000000005,5.0897999999999985 2.0598000000000027,5.082099999999999 2.0667000000000044,5.0836999999999986 2.0690000000000026,5.076499999999998 2.063900000000004,5.069799999999999 2.0623000000000005,5.070099999999998 2.0623000000000005,5.073699999999999 2.0555999999999983,5.070999999999998 2.0555999999999983,5.065699999999998 2.0526000000000053,5.062299999999999 2.0526000000000053,5.058699999999998 2.0489999999999995,5.057299999999998 2.048400000000001,5.055399999999999 2.0508999999999986,5.048699999999998 2.0534000000000034,5.048199999999998 2.055900000000001,5.049799999999998 2.0564999999999998,5.048499999999999 2.0531000000000006,5.042599999999998 2.0545000000000044,5.036799999999998 2.0534000000000034,5.034799999999999 2.0489999999999995,5.035399999999999 2.0416999999999987,5.027099999999999 2.029200000000003,5.034299999999998 2.027000000000001,5.033999999999999 2.0275999999999996,5.036499999999998 2.025100000000002,5.037899999999999 2.025100000000002,5.039599999999998 2.0187000000000026,5.043199999999999 2.0206000000000017,5.045899999999998 2.0267000000000053,5.047299999999998 2.027799999999999,5.048999999999998 2.0275999999999996,5.056499999999998 2.032600000000002,5.062599999999998 2.0311999999999983,5.0661999999999985 2.0345000000000013,5.070099999999998 2.032600000000002,5.071199999999999 2.0334000000000003,5.076199999999998 2.039200000000001,5.085399999999998 2.037300000000002,5.0920999999999985 2.040600000000005,5.096199999999998 2.043700000000001,5.0947999999999976 2.0442000000000036,5.089299999999998 "></polygon><polygon points="1.9276000000000053,5.075399999999998 1.9228000000000023,5.075999999999999 1.9228000000000023,5.077599999999999 1.9269999999999996,5.076799999999999 1.9276000000000053,5.075399999999998 "></polygon><polygon points="1.9365000000000023,5.100999999999999 1.9350999999999985,5.100999999999999 1.9350999999999985,5.098699999999999 1.9367000000000019,5.098699999999999 1.940100000000001,5.094599999999998 1.9376000000000033,5.095099999999999 1.9353000000000051,5.093199999999998 1.9339000000000013,5.089299999999998 1.9353000000000051,5.088499999999998 1.9342000000000041,5.085899999999999 1.9353000000000051,5.084599999999998 1.9326000000000008,5.083499999999999 1.9309000000000012,5.084299999999999 1.932300000000005,5.086499999999999 1.9305999999999983,5.087599999999998 1.9326000000000008,5.091199999999999 1.931200000000004,5.0920999999999985 1.9295000000000044,5.090099999999998 1.9281000000000006,5.0920999999999985 1.9298000000000002,5.091799999999999 1.929000000000002,5.093199999999998 1.9309000000000012,5.093699999999998 1.931200000000004,5.095699999999999 1.9295000000000044,5.096799999999998 1.932300000000005,5.097099999999999 1.9339000000000013,5.100999999999999 1.9276000000000053,5.103999999999999 1.9273000000000025,5.111199999999998 1.9239999999999995,5.110999999999999 1.9203000000000046,5.113399999999999 1.9189000000000007,5.118699999999999 1.9237000000000037,5.119299999999999 1.9228000000000023,5.117099999999999 1.9284000000000034,5.113399999999999 1.9328000000000003,5.116199999999999 1.9365000000000023,5.114299999999998 1.9395000000000024,5.108399999999998 1.9395000000000024,5.103499999999999 1.9365000000000023,5.100999999999999 "></polygon><polygon points="1.9176000000000002,5.111799999999999 1.9164999999999992,5.113199999999999 1.9177999999999997,5.114299999999998 1.921199999999999,5.110699999999998 1.9187000000000012,5.109599999999999 1.9176000000000002,5.111799999999999 "></polygon>
    </svg>
    