
    <svg width="6.917499999999997" height="10.188600000000001" xmlns="http://www.w3.org/2000/svg" xmlns:xlink="http://www.w3.org/1999/xlink" style="transform: scale(1, -1)">
        <polygon points="6.844999999999999,0.7410999999999994 6.847499999999997,0.7417000000000016 6.847799999999999,0.7406000000000006 6.844999999999999,0.740000000000002 6.843299999999999,0.7417000000000016 6.844999999999999,0.7410999999999994 "></polygon><polygon points="6.848299999999995,0.7536000000000023 6.8536,0.7494000000000014 6.8519000000000005,0.748899999999999 6.852199999999996,0.7467000000000006 6.845299999999995,0.7494000000000014 6.8466999999999985,0.751100000000001 6.844200000000001,0.7536000000000023 6.848299999999995,0.7536000000000023 "></polygon><polygon points="6.779199999999996,0.757200000000001 6.7819,0.7563999999999993 6.781399999999998,0.7536000000000023 6.778299999999994,0.754999999999999 6.779199999999996,0.7528000000000006 6.776899999999998,0.7516999999999996 6.7714,0.7516999999999996 6.773899999999998,0.7580999999999989 6.779199999999996,0.757200000000001 "></polygon><polygon points="6.828099999999999,0.7591999999999999 6.831399999999995,0.7580999999999989 6.833299999999994,0.7546999999999997 6.839399999999998,0.7519999999999989 6.832499999999996,0.752200000000002 6.824199999999998,0.7603000000000009 6.828099999999999,0.7591999999999999 "></polygon><polygon points="6.814699999999995,0.761099999999999 6.814699999999995,0.7586000000000013 6.813299999999998,0.7606000000000002 6.811099999999996,0.7606000000000002 6.812799999999996,0.7624999999999993 6.814699999999995,0.761099999999999 "></polygon><polygon points="6.820299999999996,0.7647000000000013 6.820799999999998,0.7631000000000014 6.816899999999997,0.7638999999999996 6.818300000000001,0.7658000000000023 6.820299999999996,0.7647000000000013 "></polygon><polygon points="6.758299999999998,0.7711000000000006 6.758899999999997,0.7685999999999993 6.755599999999994,0.7647000000000013 6.7547,0.7695000000000007 6.756699999999995,0.7719000000000023 6.758299999999998,0.7711000000000006 "></polygon><polygon points="6.8577999999999975,0.773299999999999 6.857499999999995,0.7722000000000016 6.855799999999995,0.7730999999999995 6.857999999999997,0.7756000000000007 6.8577999999999975,0.773299999999999 "></polygon><polygon points="6.737499999999997,0.7756000000000007 6.735599999999998,0.7750000000000021 6.734999999999999,0.7758000000000003 6.7378,0.7767000000000017 6.737499999999997,0.7756000000000007 "></polygon><polygon points="6.715599999999995,0.807500000000001 6.714399999999998,0.7983000000000011 6.713299999999997,0.7972000000000001 6.712499999999999,0.8017000000000003 6.714999999999996,0.8103000000000016 6.715599999999995,0.807500000000001 "></polygon><polygon points="6.872799999999998,0.8571999999999989 6.879199999999997,0.8536000000000001 6.8889,0.8514000000000017 6.890000000000001,0.8489000000000004 6.893000000000001,0.849499999999999 6.893299999999996,0.8507999999999996 6.895599999999995,0.8480999999999987 6.905299999999997,0.8458000000000006 6.910799999999995,0.840600000000002 6.912999999999997,0.8428000000000004 6.915799999999997,0.8375000000000021 6.915599999999998,0.8347000000000016 6.912799999999997,0.8350000000000009 6.912199999999999,0.8275000000000006 6.909999999999997,0.8256000000000014 6.910799999999995,0.8231000000000002 6.914699999999996,0.8218999999999994 6.915599999999998,0.8171999999999997 6.917499999999997,0.8164000000000016 6.915799999999997,0.8072000000000017 6.9091999999999985,0.8049999999999997 6.904699999999998,0.7997000000000014 6.9011,0.799199999999999 6.8992,0.7970000000000006 6.897999999999996,0.7977999999999987 6.893299999999996,0.7913999999999994 6.886399999999995,0.7881 6.883099999999999,0.7835999999999999 6.872499999999995,0.7861000000000011 6.871899999999997,0.7872000000000021 6.873899999999999,0.7881 6.872499999999995,0.7889000000000017 6.864399999999996,0.7805999999999997 6.860599999999998,0.7807999999999993 6.857999999999997,0.7838999999999992 6.854999999999997,0.7821999999999996 6.850499999999997,0.783100000000001 6.8466999999999985,0.7811000000000021 6.839700000000001,0.7814000000000014 6.838099999999997,0.7786000000000008 6.832499999999996,0.7817000000000007 6.828099999999999,0.7791999999999994 6.822499999999998,0.7805999999999997 6.8172,0.7794999999999987 6.816899999999997,0.778100000000002 6.809399999999997,0.7772000000000006 6.812799999999996,0.7750000000000021 6.809999999999995,0.7739000000000011 6.8125,0.7716999999999992 6.811399999999999,0.7708000000000013 6.8125,0.7681000000000004 6.810599999999994,0.7661000000000016 6.8142,0.7636000000000003 6.811899999999994,0.7624999999999993 6.805,0.7636000000000003 6.804399999999994,0.7622 6.797799999999995,0.763300000000001 6.793900000000001,0.7600000000000016 6.791699999999999,0.7606000000000002 6.791399999999996,0.7586000000000013 6.794399999999996,0.7577999999999996 6.796399999999998,0.7558000000000007 6.7958,0.7545000000000002 6.790599999999998,0.7553000000000019 6.778299999999994,0.7614000000000019 6.7742,0.7614000000000019 6.767499999999998,0.7697000000000003 6.767499999999998,0.7769000000000013 6.771699999999996,0.7783000000000015 6.772499999999994,0.7807999999999993 6.7742,0.7807999999999993 6.775299999999994,0.7783000000000015 6.776699999999998,0.7794999999999987 6.773599999999995,0.7833000000000006 6.774699999999996,0.7875000000000014 6.765599999999999,0.7800000000000011 6.764199999999995,0.7828000000000017 6.762499999999996,0.7828000000000017 6.759699999999995,0.7789000000000001 6.756899999999995,0.7797000000000018 6.756099999999996,0.778100000000002 6.758299999999998,0.7774999999999999 6.758599999999994,0.7753000000000014 6.749199999999995,0.7763999999999989 6.747799999999998,0.7807999999999993 6.744699999999995,0.782 6.745799999999996,0.7882999999999996 6.752800000000001,0.786999999999999 6.750799999999998,0.7922000000000011 6.752199999999995,0.7939000000000007 6.748599999999996,0.7957999999999998 6.749699999999997,0.7988999999999997 6.748099999999994,0.8028000000000013 6.748599999999996,0.805299999999999 6.753299999999996,0.8089000000000013 6.756399999999999,0.8082999999999991 6.757799999999996,0.811399999999999 6.759399999999999,0.811399999999999 6.762799999999999,0.8082999999999991 6.763299999999994,0.8110999999999997 6.770599999999995,0.8131000000000022 6.7744,0.8125 6.7761,0.814700000000002 6.777200000000001,0.8122000000000007 6.7744,0.8106000000000009 6.777200000000001,0.8100000000000023 6.778599999999997,0.8157999999999994 6.781399999999998,0.813600000000001 6.783899999999996,0.8178000000000019 6.7911,0.8144999999999989 6.7928,0.8155999999999999 6.793599999999998,0.8202999999999996 6.791899999999998,0.8231000000000002 6.7952999999999975,0.823599999999999 6.7986,0.8280999999999992 6.803599999999996,0.8277999999999999 6.802499999999995,0.8293999999999997 6.804399999999994,0.8303000000000011 6.801699999999997,0.8327999999999989 6.802199999999999,0.8355999999999995 6.808599999999998,0.8353000000000002 6.809199999999997,0.8371999999999993 6.811899999999994,0.8375000000000021 6.8155,0.8419999999999987 6.820299999999996,0.8402999999999992 6.821099999999994,0.8367000000000004 6.823299999999996,0.8361000000000018 6.827799999999996,0.8442000000000007 6.8322,0.8439000000000014 6.836099999999995,0.845600000000001 6.846899999999998,0.8507999999999996 6.854699999999994,0.8567 6.859699999999997,0.8561000000000014 6.861899999999999,0.8575000000000017 6.862199999999994,0.8531000000000013 6.863599999999998,0.852800000000002 6.868099999999998,0.8558000000000021 6.8677999999999955,0.857800000000001 6.872799999999998,0.8571999999999989 "></polygon><polygon points="6.7211,0.8232999999999997 6.7205999999999975,0.8200000000000003 6.719699999999996,0.819700000000001 6.720299999999995,0.826900000000002 6.7211,0.8232999999999997 "></polygon><polygon points="6.8339,0.8510999999999989 6.833599999999997,0.849499999999999 6.832499999999996,0.8491999999999997 6.832499999999996,0.8514000000000017 6.8339,0.8510999999999989 "></polygon><polygon points="3.0749999999999957,3.8336000000000006 3.0771999999999977,3.8317000000000014 3.0771999999999977,3.8292 3.0727999999999938,3.8310999999999993 3.0730000000000004,3.834199999999999 3.0749999999999957,3.8336000000000006 "></polygon><polygon points="3.0671999999999997,3.84 3.064399999999999,3.8371999999999993 3.0638999999999967,3.837500000000002 3.0674999999999955,3.841100000000001 3.0671999999999997,3.84 "></polygon><polygon points="3.0707999999999984,3.8461 3.070599999999999,3.8442000000000007 3.0696999999999974,3.843600000000002 3.071099999999994,3.847200000000001 3.0707999999999984,3.8461 "></polygon><polygon points="3.0727999999999938,3.8507999999999996 3.072499999999998,3.849499999999999 3.071399999999997,3.8491999999999997 3.072499999999998,3.852800000000002 3.0727999999999938,3.8507999999999996 "></polygon><polygon points="3.1163999999999987,3.9558 3.1207999999999956,3.9525000000000006 3.1188999999999965,3.948900000000002 3.116099999999996,3.948900000000002 3.1130999999999958,3.9513999999999996 3.1143999999999963,3.9543999999999997 3.1128,3.956400000000002 3.1163999999999987,3.9558 "></polygon><polygon points="3.1255999999999986,4.005600000000001 3.1263999999999967,4.003600000000002 3.1241999999999948,4.003299999999999 3.1221999999999994,4.0061 3.1255999999999986,4.005600000000001 "></polygon><polygon points="3.0507999999999953,4.0122 3.0516999999999967,4.0108 3.049199999999999,4.013100000000001 3.0496999999999943,4.013100000000001 3.0507999999999953,4.0122 "></polygon><polygon points="3.1019000000000005,4.044699999999999 3.1019000000000005,4.0411 3.0982999999999947,4.035 3.102499999999999,4.046400000000002 3.1019000000000005,4.044699999999999 "></polygon><polygon points="3.0630999999999986,3.8531000000000013 3.062199999999997,3.8520000000000003 3.0625,3.8550000000000004 3.0630999999999986,3.854700000000001 3.0630999999999986,3.8531000000000013 "></polygon><polygon points="3.040299999999995,3.8717000000000006 3.039999999999999,3.8703000000000003 3.0382999999999996,3.8705999999999996 3.0394000000000005,3.8733000000000004 3.040299999999995,3.8717000000000006 "></polygon><polygon points="3.0555999999999983,3.9227999999999987 3.054699999999997,3.921400000000002 3.0538999999999987,3.9217000000000013 3.054399999999994,3.924199999999999 3.0555999999999983,3.9227999999999987 "></polygon><polygon points="3.027799999999999,3.9450000000000003 3.027799999999999,3.942499999999999 3.026699999999998,3.9421999999999997 3.0260999999999996,3.9450000000000003 3.027799999999999,3.9450000000000003 "></polygon><polygon points="3.0274999999999963,4.072500000000002 3.026699999999998,4.071100000000001 3.025599999999997,4.071400000000001 3.0260999999999996,4.0747 3.0274999999999963,4.072500000000002 "></polygon><polygon points="3.0244,4.078900000000001 3.0227999999999966,4.078300000000002 3.0216999999999956,4.080000000000002 3.0242000000000004,4.079699999999999 3.0244,4.078900000000001 "></polygon><polygon points="3.0249999999999986,4.106100000000001 3.0304999999999964,4.102800000000002 3.027799999999999,4.099700000000002 3.0260999999999996,4.1008 3.0227999999999966,4.0992 3.0216999999999956,4.1067 3.0249999999999986,4.106100000000001 "></polygon><polygon points="3.0585999999999984,4.1372 3.056899999999999,4.135300000000001 3.0538999999999987,4.1358 3.0538999999999987,4.138100000000001 3.0566999999999993,4.1403 3.059199999999997,4.140000000000001 3.0585999999999984,4.1372 "></polygon><polygon points="2.9968999999999966,4.0564 2.9930999999999983,4.055 2.9908,4.0578 2.996699999999997,4.058299999999999 2.9968999999999966,4.0564 "></polygon><polygon points="3.0235999999999947,4.082799999999999 3.0216999999999956,4.081099999999999 3.019999999999996,4.084199999999999 3.0227999999999966,4.0847000000000016 3.0235999999999947,4.082799999999999 "></polygon><polygon points="3.0205999999999946,4.092200000000002 3.020799999999994,4.0908000000000015 3.0163999999999973,4.0916999999999994 3.0174999999999983,4.093299999999999 3.0205999999999946,4.092200000000002 "></polygon><polygon points="3.008899999999997,4.287500000000001 3.010799999999996,4.285 3.010799999999996,4.282 3.008599999999994,4.2803 3.0046999999999997,4.280000000000001 3.0013999999999967,4.283100000000001 3.001099999999994,4.287500000000001 3.0058000000000007,4.288599999999999 3.008899999999997,4.287500000000001 "></polygon><polygon points="0.7521999999999949,0.05700000000000216 0.7528000000000006,0.05280000000000129 0.7510999999999939,0.052199999999999136 0.75,0.05560000000000187 0.7507999999999981,0.058099999999999596 0.7521999999999949,0.05700000000000216 "></polygon><polygon points="1.194199999999995,0.21059999999999945 1.185299999999998,0.20720000000000027 1.1843999999999966,0.20330000000000226 1.1858000000000004,0.20279999999999987 1.1846999999999994,0.20060000000000144 1.1858000000000004,0.19750000000000156 1.1824999999999974,0.19470000000000098 1.1838999999999942,0.192499999999999 1.1927999999999983,0.19079999999999941 1.1935999999999964,0.1872000000000007 1.1849999999999952,0.1860999999999997 1.1785999999999959,0.1883000000000017 1.1788999999999987,0.18560000000000088 1.1807999999999979,0.18500000000000227 1.1799999999999997,0.1767000000000003 1.1755999999999958,0.17310000000000159 1.1624999999999943,0.17360000000000042 1.160499999999999,0.17249999999999943 1.1591999999999985,0.1670000000000016 1.1494,0.15360000000000085 1.1443999999999974,0.15220000000000056 1.1430000000000007,0.14920000000000044 1.1393999999999949,0.15060000000000073 1.1321999999999974,0.14669999999999916 1.1268999999999991,0.14669999999999916 1.1278000000000006,0.15190000000000126 1.1241999999999948,0.15579999999999927 1.1163999999999987,0.15640000000000143 1.1163999999999987,0.15419999999999945 1.1193999999999988,0.15080000000000027 1.1180999999999983,0.15000000000000213 1.1171999999999969,0.13670000000000115 1.1146999999999991,0.13470000000000226 1.1160999999999959,0.1311 1.1102999999999952,0.1313999999999993 1.1091999999999942,0.1296999999999997 1.1141999999999967,0.12780000000000058 1.1141999999999967,0.12359999999999971 1.1166999999999945,0.12359999999999971 1.1180999999999983,0.12140000000000128 1.1171999999999969,0.1247000000000007 1.1199999999999974,0.1247000000000007 1.1204999999999998,0.12280000000000157 1.1235999999999962,0.12389999999999901 1.1224999999999952,0.12170000000000059 1.1243999999999943,0.12079999999999913 1.1243999999999943,0.11779999999999902 1.1268999999999991,0.11580000000000013 1.125,0.11250000000000071 1.1266999999999996,0.10580000000000211 1.1296999999999997,0.108900000000002 1.133899999999997,0.1092000000000013 1.1341999999999999,0.10610000000000142 1.136099999999999,0.10610000000000142 1.136099999999999,0.10450000000000159 1.1377999999999986,0.10559999999999903 1.1374999999999957,0.10140000000000171 1.1421999999999954,0.09949999999999903 1.1413999999999973,0.08920000000000172 1.1335999999999942,0.08030000000000115 1.1308000000000007,0.07939999999999969 1.1299999999999955,0.08310000000000173 1.1268999999999991,0.08310000000000173 1.1255999999999986,0.08140000000000214 1.1188999999999965,0.08500000000000085 1.1186000000000007,0.08249999999999957 1.113899999999994,0.08500000000000085 1.1135999999999981,0.08200000000000074 1.1171999999999969,0.08030000000000115 1.1204999999999998,0.08170000000000144 1.1204999999999998,0.07809999999999917 1.1235999999999962,0.07779999999999987 1.1146999999999991,0.07310000000000016 1.1135999999999981,0.06810000000000116 1.1060999999999979,0.067499999999999 1.1024999999999991,0.059499999999999886 1.0927999999999969,0.054400000000001114 1.093599999999995,0.04889999999999972 1.0843999999999951,0.04420000000000002 1.081399999999995,0.04420000000000002 1.0627999999999957,0.03420000000000201 1.0596999999999994,0.035599999999998744 1.0468999999999937,0.030300000000000438 1.0385999999999953,0.03059999999999974 1.0374999999999943,0.02779999999999916 1.0205999999999946,0.022800000000000153 1.0174999999999983,0.022200000000001552 1.0154999999999959,0.02360000000000184 1.0146999999999977,0.021399999999999864 1.0007999999999981,0.012199999999999989 0.9863999999999962,0.010799999999999699 0.982999999999997,0.008300000000001972 0.9692000000000007,0.008300000000001972 0.9671999999999983,0.00560000000000116 0.955299999999994,0.00420000000000087 0.9507999999999939,0.00140000000000029 0.9405000000000001,0.0 0.935299999999998,0.003900000000001569 0.9349999999999952,0.006099999999999994 0.9321999999999946,0.005300000000001859 0.9318999999999988,0.002200000000001978 0.9249999999999972,0.002500000000001279 0.9191999999999965,0.007200000000000983 0.9149999999999991,0.008300000000001972 0.898299999999999,0.006099999999999994 0.8918999999999997,0.008900000000000574 0.8863999999999947,0.008900000000000574 0.8835999999999942,0.010300000000000864 0.8846999999999952,0.013100000000001444 0.8796999999999997,0.01640000000000086 0.8710999999999984,0.01810000000000045 0.8688999999999965,0.022200000000001552 0.8621999999999943,0.021100000000000563 0.8624999999999972,0.024200000000000443 0.8611000000000004,0.024499999999999744 0.855799999999995,0.017500000000001847 0.8507999999999996,0.01529999999999987 0.8305000000000007,0.013300000000000978 0.823599999999999,0.018900000000002137 0.8118999999999943,0.020600000000001728 0.8121999999999971,0.023299999999998988 0.8105999999999938,0.025600000000000733 0.8038999999999987,0.025600000000000733 0.7939000000000007,0.03200000000000003 0.7902999999999949,0.03249999999999886 0.7879999999999967,0.03529999999999944 0.7849999999999966,0.03450000000000131 0.7864000000000004,0.040300000000002 0.784399999999998,0.040300000000002 0.779999999999994,0.03640000000000043 0.7685999999999993,0.03859999999999886 0.7671999999999954,0.040800000000000836 0.7674999999999983,0.045300000000001006 0.7624999999999957,0.04779999999999873 0.7560999999999964,0.05969999999999942 0.7505999999999986,0.0619000000000014 0.7502999999999957,0.06330000000000169 0.7521999999999949,0.06390000000000029 0.75,0.06530000000000058 0.7349999999999994,0.06559999999999988 0.7305999999999955,0.058099999999999596 0.7224999999999966,0.058900000000001285 0.7252999999999972,0.07059999999999889 0.7349999999999994,0.09140000000000015 0.7371999999999943,0.09250000000000114 0.7402999999999977,0.09080000000000155 0.7368999999999986,0.08750000000000213 0.7363999999999962,0.08450000000000202 0.7374999999999972,0.08389999999999986 0.7518999999999991,0.08279999999999887 0.755599999999994,0.08079999999999998 0.759999999999998,0.08200000000000074 0.7622,0.08640000000000114 0.7668999999999997,0.08940000000000126 0.767799999999994,0.09329999999999927 0.7742000000000004,0.09890000000000043 0.7780999999999949,0.10559999999999903 0.7782999999999944,0.1092000000000013 0.7817000000000007,0.11080000000000112 0.7804999999999964,0.1144999999999996 0.7835999999999999,0.11580000000000013 0.7827999999999946,0.12250000000000227 0.7838999999999956,0.1247000000000007 0.7813999999999979,0.12920000000000087 0.7846999999999937,0.13170000000000215 0.7905999999999977,0.13200000000000145 0.7907999999999973,0.13419999999999987 0.792199999999994,0.1343999999999994 0.7894000000000005,0.13470000000000226 0.7916999999999987,0.13860000000000028 0.7877999999999972,0.14029999999999987 0.7824999999999989,0.13889999999999958 0.7817000000000007,0.14140000000000086 0.7835999999999999,0.14250000000000185 0.7774999999999963,0.14170000000000016 0.7777999999999992,0.14329999999999998 0.7744,0.14390000000000214 0.7735999999999947,0.14720000000000155 0.7742000000000004,0.15449999999999875 0.7849999999999966,0.15810000000000102 0.7877999999999972,0.15670000000000073 0.7866999999999962,0.15830000000000055 0.7891999999999939,0.15970000000000084 0.7857999999999947,0.15889999999999915 0.7846999999999937,0.1645000000000003 0.7789000000000001,0.16610000000000014 0.7746999999999957,0.17079999999999984 0.7772000000000006,0.17719999999999914 0.7772000000000006,0.1869000000000014 0.7796999999999983,0.192499999999999 0.7927999999999997,0.1997 0.7935999999999979,0.20169999999999888 0.7913999999999959,0.20530000000000115 0.7885999999999953,0.20500000000000185 0.7866999999999962,0.20810000000000173 0.7817000000000007,0.21030000000000015 0.7772000000000006,0.227800000000002 0.7772000000000006,0.2375000000000007 0.7793999999999954,0.24579999999999913 0.7846999999999937,0.2508000000000017 0.7849999999999966,0.2546999999999997 0.7874999999999943,0.2558000000000007 0.7896999999999963,0.26310000000000144 0.792199999999994,0.2641999999999989 0.7935999999999979,0.27060000000000173 0.7974999999999994,0.27560000000000073 0.7946999999999989,0.284200000000002 0.798099999999998,0.28669999999999973 0.7982999999999976,0.2925000000000004 0.7999999999999972,0.2939000000000007 0.8013999999999939,0.30079999999999885 0.8078000000000003,0.3103000000000016 0.8160999999999987,0.3094999999999999 0.8188999999999993,0.31920000000000215 0.8155000000000001,0.3247 0.8160999999999987,0.3261000000000003 0.8275000000000006,0.33670000000000044 0.8332999999999942,0.33830000000000027 0.8380999999999972,0.34199999999999875 0.8380999999999972,0.34450000000000003 0.8432999999999993,0.34830000000000183 0.844699999999996,0.3520000000000003 0.8538999999999959,0.3514000000000017 0.8593999999999937,0.3547000000000011 0.8810999999999964,0.3620000000000019 0.8874999999999957,0.3581000000000003 0.8855000000000004,0.35330000000000084 0.886099999999999,0.3514000000000017 0.8868999999999971,0.35389999999999944 0.8913999999999973,0.3564000000000007 0.8907999999999987,0.3636000000000017 0.8941999999999979,0.36469999999999914 0.896099999999997,0.3689 0.8979999999999961,0.3689 0.898299999999999,0.3721999999999994 0.9024999999999963,0.3719999999999999 0.9030999999999949,0.3733000000000004 0.9052999999999969,0.3703000000000003 0.909399999999998,0.3686000000000007 0.9102999999999994,0.3660999999999994 0.9149999999999991,0.3658000000000001 0.9144000000000005,0.367799999999999 0.9124999999999943,0.367799999999999 0.9121999999999986,0.371100000000002 0.9052999999999969,0.37560000000000215 0.9041999999999959,0.37920000000000087 0.9057999999999993,0.3813999999999993 0.9039000000000001,0.3827999999999996 0.9105999999999952,0.3872 0.9138999999999982,0.3843999999999994 0.9202999999999975,0.3841999999999999 0.917199999999994,0.38780000000000214 0.9118999999999957,0.388300000000001 0.9102999999999994,0.39920000000000044 0.9166999999999987,0.4131 0.9263999999999939,0.4177999999999997 0.9316999999999993,0.4186000000000014 0.9313999999999965,0.4217000000000013 0.9288999999999987,0.42249999999999943 0.923099999999998,0.4294000000000011 0.9221999999999966,0.433600000000002 0.9227999999999952,0.4353000000000016 0.9285999999999959,0.43670000000000186 0.9302999999999955,0.4394999999999989 0.9296999999999969,0.44140000000000157 0.9263999999999939,0.44200000000000017 0.9266999999999967,0.45030000000000214 0.9324999999999974,0.4572000000000003 0.934199999999997,0.46310000000000073 0.9332999999999956,0.46750000000000114 0.9360999999999962,0.4682999999999993 0.9366999999999948,0.4753000000000007 0.9391999999999996,0.47889999999999944 0.9499999999999957,0.4814000000000007 0.9557999999999964,0.48440000000000083 0.9588999999999999,0.490000000000002 0.9602999999999966,0.4969999999999999 0.9710999999999999,0.5077999999999996 0.970799999999997,0.5150000000000006 0.9657999999999944,0.5202999999999989 0.9668999999999954,0.5225000000000009 0.9657999999999944,0.5260999999999996 0.9677999999999969,0.5269000000000013 0.9694000000000003,0.5242000000000004 0.9713999999999956,0.5250000000000021 0.9739000000000004,0.5222000000000016 0.9843999999999937,0.523299999999999 0.9861000000000004,0.5202999999999989 0.981899999999996,0.5164000000000009 0.9821999999999989,0.5122 0.9832999999999998,0.5107999999999997 0.9882999999999953,0.5120000000000005 0.9927999999999955,0.5097000000000023 0.9985999999999962,0.513300000000001 0.9968999999999966,0.5155999999999992 0.9916999999999945,0.5167000000000002 0.9946999999999946,0.5253000000000014 0.9983000000000004,0.5274999999999999 0.9980999999999938,0.5294999999999987 0.9963999999999942,0.5294999999999987 0.9974999999999952,0.5321999999999996 1.0018999999999991,0.5300000000000011 1.0028000000000006,0.5328000000000017 1.0043999999999969,0.5317000000000007 1.0052999999999983,0.534200000000002 1.0030000000000001,0.5378000000000007 1.0068999999999946,0.5361000000000011 1.0141999999999953,0.5411000000000001 1.018899999999995,0.5396999999999998 1.022199999999998,0.5416999999999987 1.022199999999998,0.5443999999999996 1.0252999999999943,0.5446999999999989 1.0313999999999979,0.5413999999999994 1.0405999999999977,0.5395000000000003 1.0446999999999989,0.5413999999999994 1.0452999999999975,0.539200000000001 1.0477999999999952,0.5381 1.0507999999999953,0.5389000000000017 1.048099999999998,0.536999999999999 1.0468999999999937,0.5333000000000006 1.0488999999999962,0.5324999999999989 1.0499999999999972,0.5347000000000008 1.0524999999999949,0.5338999999999992 1.0524999999999949,0.5294999999999987 1.0538999999999987,0.528100000000002 1.0555999999999983,0.5291999999999994 1.0579999999999998,0.5250000000000021 1.0618999999999943,0.5239000000000011 1.0618999999999943,0.5263999999999989 1.0649999999999977,0.5260999999999996 1.0635999999999939,0.5228000000000002 1.0668999999999969,0.5253000000000014 1.0671999999999997,0.5283000000000015 1.0693999999999946,0.5286000000000008 1.0707999999999984,0.5256000000000007 1.073599999999999,0.5256000000000007 1.0741999999999976,0.5242000000000004 1.0763999999999996,0.5269000000000013 1.0782999999999987,0.5260999999999996 1.0785999999999945,0.5242000000000004 1.0763999999999996,0.5222000000000016 1.0771999999999977,0.5208000000000013 1.0792000000000002,0.5222000000000016 1.0792000000000002,0.5197000000000003 1.0841999999999956,0.5197000000000003 1.0852999999999966,0.5175000000000018 1.0888999999999953,0.5185999999999993 1.0980999999999952,0.5167000000000002 1.0980999999999952,0.5145000000000017 1.0963999999999956,0.5141999999999989 1.096899999999998,0.5122 1.0982999999999947,0.5128000000000021 1.0963999999999956,0.5103000000000009 1.0977999999999994,0.5080999999999989 1.0932999999999993,0.5061 1.0938999999999979,0.5044000000000004 1.096899999999998,0.5046999999999997 1.0971999999999937,0.49920000000000186 1.0991999999999962,0.4983000000000004 1.0977999999999994,0.49579999999999913 1.094699999999996,0.4947000000000017 1.094699999999996,0.492799999999999 1.096899999999998,0.4917000000000016 1.0985999999999976,0.4933000000000014 1.1002999999999972,0.490000000000002 1.0989000000000004,0.48219999999999885 1.094699999999996,0.4831000000000003 1.096899999999998,0.4808000000000021 1.0942000000000007,0.47749999999999915 1.0955999999999975,0.4747000000000021 1.0982999999999947,0.47449999999999903 1.0955999999999975,0.4689000000000014 1.1024999999999991,0.46809999999999974 1.1002999999999972,0.46529999999999916 1.1004999999999967,0.46310000000000073 1.1032999999999973,0.46199999999999974 1.104699999999994,0.4558 1.1088999999999984,0.45250000000000057 1.1074999999999946,0.45200000000000173 1.1088999999999984,0.44920000000000115 1.1111000000000004,0.4499999999999993 1.1143999999999963,0.448599999999999 1.1191999999999993,0.44140000000000157 1.1182999999999979,0.43810000000000215 1.1196999999999946,0.439700000000002 1.121699999999997,0.438600000000001 1.1266999999999996,0.4403000000000006 1.1243999999999943,0.4369000000000014 1.1218999999999966,0.4372000000000007 1.121699999999997,0.4346999999999994 1.1193999999999988,0.4344999999999999 1.1241999999999948,0.4330999999999996 1.1246999999999971,0.4299999999999997 1.1230999999999938,0.4288999999999987 1.1243999999999943,0.426400000000001 1.1299999999999955,0.42579999999999885 1.1310999999999964,0.4269999999999996 1.1318999999999946,0.42249999999999943 1.1382999999999939,0.42279999999999873 1.1388999999999996,0.41809999999999903 1.1407999999999987,0.42220000000000013 1.1499999999999986,0.4217000000000013 1.1524999999999963,0.4189000000000007 1.156099999999995,0.4177999999999997 1.1616999999999962,0.4189000000000007 1.1644000000000005,0.41110000000000113 1.1680999999999955,0.4064000000000014 1.1713999999999984,0.40470000000000184 1.1702999999999975,0.403100000000002 1.1727999999999952,0.40000000000000213 1.1680999999999955,0.39639999999999986 1.167199999999994,0.39029999999999987 1.1685999999999979,0.3874999999999993 1.165299999999995,0.383300000000002 1.1596999999999937,0.38470000000000226 1.1567000000000007,0.3825000000000003 1.1552999999999969,0.3830999999999989 1.1554999999999964,0.3808000000000007 1.1588999999999956,0.37920000000000087 1.1585999999999999,0.3775000000000013 1.1629999999999967,0.3769999999999989 1.1618999999999957,0.3744000000000014 1.1632999999999996,0.370000000000001 1.1588999999999956,0.3697000000000017 1.156099999999995,0.3672000000000004 1.1585999999999999,0.3660999999999994 1.1588999999999956,0.3636000000000017 1.1616999999999962,0.36469999999999914 1.1607999999999947,0.3606000000000016 1.1629999999999967,0.3592000000000013 1.1655999999999977,0.3595000000000006 1.1632999999999996,0.3628 1.165299999999995,0.3644999999999996 1.168299999999995,0.361699999999999 1.168299999999995,0.35970000000000013 1.1721999999999966,0.357800000000001 1.1721999999999966,0.3608000000000011 1.1677999999999997,0.3660999999999994 1.1724999999999994,0.3663999999999987 1.1736000000000004,0.365000000000002 1.1774999999999949,0.365000000000002 1.1788999999999987,0.3606000000000016 1.1824999999999974,0.357800000000001 1.184199999999997,0.3595000000000006 1.1858000000000004,0.35859999999999914 1.1868999999999943,0.3558000000000021 1.1855999999999938,0.3500000000000014 1.1899999999999977,0.34110000000000085 1.1882999999999981,0.33830000000000027 1.1891999999999996,0.334500000000002 1.2007999999999939,0.3211000000000013 1.2046999999999954,0.3202999999999996 1.2077999999999989,0.3110999999999997 1.2113999999999976,0.3094999999999999 1.2119,0.3064 1.218599999999995,0.30079999999999885 1.2205999999999975,0.29469999999999885 1.2168999999999954,0.2889000000000017 1.2021999999999977,0.28580000000000183 1.2016999999999953,0.2807999999999993 1.2060999999999993,0.28200000000000003 1.2055000000000007,0.27970000000000184 1.207499999999996,0.27860000000000085 1.2046999999999954,0.27890000000000015 1.2030999999999992,0.27609999999999957 1.2043999999999997,0.27720000000000056 1.208599999999997,0.27609999999999957 1.2104999999999961,0.27749999999999986 1.2104999999999961,0.27449999999999974 1.2127999999999943,0.27639999999999887 1.2135999999999996,0.27530000000000143 1.2124999999999986,0.27139999999999986 1.207499999999996,0.26750000000000185 1.2127999999999943,0.26200000000000045 1.210799999999999,0.2563999999999993 1.2066999999999979,0.25360000000000227 1.208599999999997,0.2502999999999993 1.2066999999999979,0.24719999999999942 1.2042000000000002,0.24670000000000059 1.2057999999999964,0.24220000000000041 1.2102999999999966,0.24249999999999972 1.2082999999999942,0.2403000000000013 1.2091999999999956,0.2372000000000014 1.2057999999999964,0.23529999999999873 1.206399999999995,0.23329999999999984 1.2042000000000002,0.2331000000000003 1.2038999999999973,0.23059999999999903 1.1971999999999952,0.23329999999999984 1.1950000000000003,0.23610000000000042 1.1877999999999957,0.23000000000000043 1.1891999999999996,0.2264000000000017 1.195299999999996,0.22309999999999874 1.1955999999999989,0.21250000000000213 1.194199999999995,0.21059999999999945 "></polygon><polygon points="0.7652999999999963,0.11139999999999972 0.761099999999999,0.10670000000000002 0.7552999999999983,0.096700000000002 0.7558000000000007,0.107800000000001 0.7605000000000004,0.11220000000000141 0.7655999999999992,0.11280000000000001 0.7652999999999963,0.11139999999999972 "></polygon><polygon points="1.1260999999999939,0.07560000000000144 1.1255999999999986,0.07440000000000069 1.1241999999999948,0.07420000000000115 1.1246999999999971,0.07750000000000057 1.1263999999999967,0.07720000000000127 1.1260999999999939,0.07560000000000144 "></polygon><polygon points="1.1494,0.107800000000001 1.1510999999999996,0.10640000000000072 1.1494,0.10330000000000084 1.1463999999999999,0.102800000000002 1.1443999999999974,0.10450000000000159 1.1452999999999989,0.10829999999999984 1.1494,0.107800000000001 "></polygon><polygon points="1.2021999999999977,0.14499999999999957 1.2007999999999939,0.14450000000000074 1.2005999999999943,0.14580000000000126 1.2027999999999963,0.14610000000000056 1.2021999999999977,0.14499999999999957 "></polygon><polygon points="1.210799999999999,0.23470000000000013 1.2088999999999999,0.2342000000000013 1.208599999999997,0.23499999999999943 1.2104999999999961,0.23580000000000112 1.210799999999999,0.23470000000000013 "></polygon><polygon points="1.221899999999998,0.26780000000000115 1.2230999999999952,0.26640000000000086 1.2213999999999956,0.26500000000000057 1.2216999999999985,0.26310000000000144 1.2194000000000003,0.2622 1.2199999999999989,0.2558000000000007 1.2230999999999952,0.25390000000000157 1.220799999999997,0.251100000000001 1.2239000000000004,0.2516999999999996 1.2243999999999957,0.25060000000000215 1.2121999999999957,0.2455999999999996 1.2119,0.24780000000000157 1.2143999999999977,0.248899999999999 1.2143999999999977,0.2530999999999999 1.2132999999999967,0.2530999999999999 1.2143999999999977,0.2580999999999989 1.2168999999999954,0.258300000000002 1.2157999999999944,0.26060000000000016 1.2177999999999969,0.26200000000000045 1.2102999999999966,0.26610000000000156 1.215599999999995,0.26640000000000086 1.2157999999999944,0.26450000000000173 1.2182999999999993,0.2668999999999997 1.2132999999999967,0.267199999999999 1.215599999999995,0.26950000000000074 1.218599999999995,0.26780000000000115 1.2227999999999994,0.2697000000000003 1.221899999999998,0.26780000000000115 "></polygon><polygon points="1.1160999999999959,0.501100000000001 1.1193999999999988,0.4983000000000004 1.1130999999999958,0.498899999999999 1.1124999999999972,0.496100000000002 1.1154999999999973,0.495000000000001 1.1203000000000003,0.4892000000000003 1.1246999999999971,0.4886000000000017 1.1260999999999939,0.4872000000000014 1.125,0.4842000000000013 1.1186000000000007,0.4858000000000011 1.113899999999994,0.48529999999999873 1.1124999999999972,0.486699999999999 1.1121999999999943,0.4842000000000013 1.1102999999999952,0.4845000000000006 1.1096999999999966,0.482800000000001 1.1060999999999979,0.4842000000000013 1.1055999999999955,0.48219999999999885 1.1030999999999977,0.482800000000001 1.104699999999994,0.483900000000002 1.102799999999995,0.48529999999999873 1.1036000000000001,0.4908000000000001 1.1130999999999958,0.4922000000000004 1.1118999999999986,0.49579999999999913 1.1082999999999998,0.4978000000000016 1.1085999999999956,0.4997000000000007 1.113899999999994,0.5018999999999991 1.1160999999999959,0.501100000000001 "></polygon><polygon points="1.2091999999999956,0.6830999999999996 1.2113999999999976,0.680299999999999 1.207499999999996,0.6781000000000006 1.207499999999996,0.6761000000000017 1.210799999999999,0.6733000000000011 1.207499999999996,0.6686000000000014 1.2035999999999945,0.6661000000000001 1.1957999999999984,0.6686000000000014 1.1943999999999946,0.6736000000000004 1.1966999999999999,0.6808000000000014 1.2016999999999953,0.6839000000000013 1.2072000000000003,0.6844999999999999 1.2091999999999956,0.6830999999999996 "></polygon><polygon points="2.9388999999999967,3.712500000000002 2.9368999999999943,3.7133000000000003 2.9368999999999943,3.7147000000000006 2.939399999999999,3.7142000000000017 2.9388999999999967,3.712500000000002 "></polygon><polygon points="2.948299999999996,3.719999999999999 2.9488999999999947,3.721399999999999 2.9505999999999943,3.721399999999999 2.947199999999995,3.7180999999999997 2.948299999999996,3.719999999999999 "></polygon><polygon points="2.9516999999999953,3.7230999999999987 2.9525000000000006,3.7239000000000004 2.9535999999999945,3.7239000000000004 2.950799999999994,3.7220000000000013 2.9516999999999953,3.7230999999999987 "></polygon><polygon points="2.957799999999999,3.7281000000000013 2.9557999999999964,3.7264000000000017 2.955299999999994,3.726700000000001 2.9580999999999946,3.7295000000000016 2.957799999999999,3.7281000000000013 "></polygon><polygon points="2.9610999999999947,3.7286 2.9599999999999937,3.728300000000001 2.959699999999998,3.7295000000000016 2.9619,3.7300000000000004 2.9610999999999947,3.7286 "></polygon><polygon points="2.9643999999999977,3.7331000000000003 2.9679999999999964,3.7361000000000004 2.969999999999999,3.7363999999999997 2.9679999999999964,3.7331000000000003 2.963099999999997,3.7314000000000007 2.9643999999999977,3.7331000000000003 "></polygon><polygon points="2.9713999999999956,3.7392000000000003 2.9724999999999966,3.7422000000000004 2.9743999999999957,3.7424999999999997 2.9727999999999994,3.7380999999999993 2.9705999999999975,3.7380999999999993 2.9713999999999956,3.7392000000000003 "></polygon><polygon points="2.9791999999999987,3.7471999999999994 2.977499999999999,3.745000000000001 2.9749999999999943,3.7441999999999993 2.9793999999999983,3.748899999999999 2.9791999999999987,3.7471999999999994 "></polygon><polygon points="2.981899999999996,3.7956000000000003 2.9802999999999997,3.7911 2.9843999999999937,3.7864000000000004 2.986699999999999,3.786100000000001 2.989999999999995,3.7744999999999997 2.9846999999999966,3.7650000000000006 2.986699999999999,3.7622 2.985599999999998,3.7589000000000006 2.979999999999997,3.7497000000000007 2.9833,3.7589000000000006 2.9824999999999946,3.7658000000000023 2.9846999999999966,3.7697000000000003 2.9835999999999956,3.7758000000000003 2.985299999999995,3.7789 2.9838999999999984,3.7845000000000013 2.981099999999998,3.785 2.9786,3.7916999999999987 2.979699999999994,3.7956000000000003 2.982999999999997,3.7970000000000006 2.9835999999999956,3.7958 2.981899999999996,3.7956000000000003 "></polygon><polygon points="2.9827999999999975,3.805600000000002 2.9805999999999955,3.804400000000001 2.9833,3.7988999999999997 2.981899999999996,3.7977999999999987 2.9791999999999987,3.802500000000002 2.9802999999999997,3.806899999999999 2.9835999999999956,3.808299999999999 2.9827999999999975,3.805600000000002 "></polygon><polygon points="2.984199999999994,3.8042000000000016 2.9902999999999977,3.808299999999999 2.991899999999994,3.808600000000002 2.9904999999999973,3.805600000000002 2.982999999999997,3.8033 2.984199999999994,3.8042000000000016 "></polygon><polygon points="2.9835999999999956,3.8103000000000016 2.981099999999998,3.8092000000000006 2.982199999999999,3.8139000000000003 2.9833,3.8139000000000003 2.9835999999999956,3.8103000000000016 "></polygon><polygon points="2.9208,3.710799999999999 2.918299999999995,3.7083000000000013 2.9157999999999973,3.710000000000001 2.914199999999994,3.7081000000000017 2.9118999999999957,3.709199999999999 2.9146999999999963,3.711100000000002 2.9208,3.710799999999999 "></polygon><polygon points="2.9255999999999958,3.709199999999999 2.923099999999998,3.709199999999999 2.9224999999999994,3.7105999999999995 2.9299999999999997,3.7105999999999995 2.9255999999999958,3.709199999999999 "></polygon><polygon points="2.9299999999999997,3.9281000000000006 2.9288999999999987,3.924500000000002 2.924999999999997,3.9261000000000017 2.926099999999998,3.9288999999999987 2.9299999999999997,3.9281000000000006 "></polygon><polygon points="2.922799999999995,3.9800000000000004 2.923899999999996,3.9786 2.9213999999999984,3.9772 2.9155999999999977,3.9795000000000016 2.916399999999996,3.9811000000000014 2.922799999999995,3.9800000000000004 "></polygon><polygon points="1.0085999999999942,0.5422000000000011 1.007799999999996,0.5439000000000007 1.0102999999999938,0.5446999999999989 1.009999999999998,0.543099999999999 1.0085999999999942,0.5422000000000011 "></polygon><polygon points="1.0382999999999996,0.5883000000000003 1.0377999999999972,0.5869999999999997 1.0396999999999963,0.5855999999999995 1.0382999999999996,0.5822000000000003 1.0396999999999963,0.5775000000000006 1.0374999999999943,0.5780999999999992 1.0360999999999976,0.5814000000000021 1.0319000000000003,0.5806000000000004 1.0277999999999992,0.5836000000000006 1.0304999999999964,0.5875000000000021 1.0349999999999966,0.5875000000000021 1.0368999999999957,0.5897000000000006 1.039199999999994,0.5894000000000013 1.0382999999999996,0.5883000000000003 "></polygon><polygon points="1.2221999999999937,0.7081000000000017 1.2232999999999947,0.7070000000000007 1.2221999999999937,0.7039000000000009 1.2192000000000007,0.7033000000000023 1.2171999999999983,0.7050000000000018 1.217499999999994,0.7097000000000016 1.2216999999999985,0.7097000000000016 1.2221999999999937,0.7081000000000017 "></polygon><polygon points="2.9024999999999963,3.705000000000002 2.8985999999999947,3.703900000000001 2.8974999999999937,3.7042 2.901699999999998,3.7060999999999993 2.9024999999999963,3.705000000000002 "></polygon><polygon points="2.9069000000000003,3.7070000000000007 2.9054999999999964,3.7058 2.9035999999999973,3.706400000000002 2.907199999999996,3.7081000000000017 2.9069000000000003,3.7070000000000007 "></polygon><polygon points="2.9110999999999976,3.7074999999999996 2.9099999999999966,3.7067000000000014 2.9088999999999956,3.7070000000000007 2.9118999999999957,3.7086000000000006 2.9110999999999976,3.7074999999999996 "></polygon><polygon points="1.0897000000000006,0.6425000000000018 1.0927999999999969,0.6386000000000003 1.0907999999999944,0.6350000000000016 1.0882999999999967,0.6343999999999994 1.0841999999999956,0.6364000000000019 1.0827999999999989,0.642199999999999 1.0854999999999961,0.6442000000000014 1.0897000000000006,0.6425000000000018 "></polygon><polygon points="1.0730000000000004,0.6574999999999989 1.0768999999999949,0.6557999999999993 1.0782999999999987,0.6513999999999989 1.080299999999994,0.6500000000000021 1.0805000000000007,0.6456000000000017 1.0788999999999973,0.6428000000000011 1.0747,0.6405999999999992 1.071399999999997,0.6405999999999992 1.0710999999999942,0.6418999999999997 1.0677999999999983,0.6400000000000006 1.0649999999999977,0.6405999999999992 1.0616999999999948,0.6435999999999993 1.0635999999999939,0.6494999999999997 1.060299999999998,0.6517000000000017 1.060299999999998,0.6533000000000015 1.0627999999999957,0.6522000000000006 1.068099999999994,0.6585999999999999 1.0730000000000004,0.6574999999999989 "></polygon><polygon points="0.07639999999999958,10.0814 0.1027999999999949,10.07 0.1121999999999943,10.0639 0.11889999999999645,10.051400000000001 0.11779999999999546,10.045300000000001 0.11439999999999628,10.040000000000001 0.10389999999999588,10.0347 0.1004999999999967,10.0347 0.09609999999999985,10.038300000000001 0.09029999999999916,10.0631 0.08549999999999613,10.0706 0.07279999999999376,10.0822 0.07639999999999958,10.0814 "></polygon><polygon points="0.006099999999996442,10.1875 0.01389999999999958,10.1806 0.025299999999994327,10.1547 0.034699999999993736,10.140600000000001 0.041399999999995885,10.125300000000001 0.053300000000000125,10.1125 0.06059999999999377,10.092500000000001 0.04860000000000042,10.099400000000001 0.0449999999999946,10.1033 0.039199999999993906,10.1125 0.029199999999995896,10.1236 0.022999999999996135,10.1361 0.015799999999998704,10.1453 0.010299999999993759,10.1597 0.0,10.1739 0.0005999999999986017,10.1869 0.0021999999999948727,10.188600000000001 0.006099999999996442,10.1875 "></polygon>
    </svg>
    