
    <svg width="0.09720000000000084" height="0.14939999999999998" xmlns="http://www.w3.org/2000/svg" xmlns:xlink="http://www.w3.org/1999/xlink" style="transform: scale(1, -1)">
        <polygon points="0.0916999999999959,0.036599999999999966 0.0910999999999973,0.0326999999999984 0.0963999999999956,0.026099999999999568 0.09720000000000084,0.021599999999999397 0.08670000000000044,0.006099999999999994 0.08279999999999887,0.00409999999999755 0.08050000000000068,0.00019999999999953388 0.06639999999999446,0.00019999999999953388 0.05919999999999703,0.002700000000000813 0.05799999999999983,0.0004999999999988347 0.052499999999994884,0.0 0.04639999999999844,0.004699999999999704 0.04639999999999844,0.00689999999999813 0.04279999999999973,0.007199999999997431 0.03559999999999519,0.013799999999999812 0.03300000000000125,0.013799999999999812 0.03109999999999502,0.01939999999999742 0.026399999999995316,0.0224999999999973 0.024699999999995725,0.027200000000000557 0.019199999999997885,0.028599999999997294 0.015799999999998704,0.04019999999999868 0.0,0.047999999999998266 0.006099999999996442,0.052199999999999136 0.00999999999999801,0.06629999999999825 0.006699999999995043,0.07130000000000081 0.006699999999995043,0.07469999999999999 0.00999999999999801,0.07659999999999911 0.01829999999999643,0.08799999999999741 0.021899999999995146,0.09799999999999898 0.0227999999999966,0.10640000000000072 0.025299999999994327,0.10859999999999914 0.03109999999999502,0.12109999999999843 0.03439999999999799,0.12269999999999825 0.03640000000000043,0.12719999999999843 0.0338999999999956,0.1308000000000007 0.03669999999999618,0.13299999999999912 0.03559999999999519,0.1357999999999997 0.03719999999999857,0.1402000000000001 0.03640000000000043,0.14359999999999928 0.04079999999999728,0.14879999999999782 0.043099999999995475,0.14939999999999998 0.04469999999999885,0.1468999999999987 0.04809999999999803,0.1474999999999973 0.06080000000000041,0.1418999999999997 0.06389999999999674,0.134999999999998 0.06389999999999674,0.13250000000000028 0.06139999999999901,0.1308000000000007 0.06080000000000041,0.12439999999999785 0.06419999999999959,0.12079999999999913 0.06639999999999446,0.11049999999999827 0.07189999999999941,0.10549999999999926 0.07329999999999615,0.09580000000000055 0.0788999999999973,0.090799999999998 0.07920000000000016,0.08769999999999811 0.08189999999999742,0.08609999999999829 0.08689999999999998,0.08629999999999782 0.0905999999999949,0.08050000000000068 0.08970000000000056,0.0777000000000001 0.09189999999999543,0.07719999999999771 0.0905999999999949,0.0730000000000004 0.09299999999999642,0.07000000000000028 0.09299999999999642,0.0671999999999997 0.09029999999999916,0.06469999999999843 0.08859999999999957,0.05969999999999942 0.08889999999999532,0.051600000000000534 0.09299999999999642,0.04829999999999757 0.09499999999999886,0.04269999999999996 0.0916999999999959,0.036599999999999966 "></polygon>
    </svg>
    