
    <svg width="0.0841999999999814" height="0.13919999999999888" xmlns="http://www.w3.org/2000/svg" xmlns:xlink="http://www.w3.org/1999/xlink" style="transform: scale(1, -1)">
        <polygon points="0.039499999999975444,0.01729999999999876 0.04719999999997526,0.01810000000000045 0.05159999999997922,0.015699999999998937 0.048599999999993315,0.010099999999997777 0.04049999999998022,0.010099999999997777 0.03859999999997399,0.0019999999999988916 0.03639999999998622,0.0 0.033299999999997,0.0024999999999977263 0.033799999999985175,0.004999999999999005 0.02919999999997458,0.010199999999997544 0.028300000000001546,0.015000000000000568 0.030099999999976035,0.01799999999999713 0.031899999999978945,0.017499999999998295 0.03299999999998704,0.019199999999997885 0.03609999999997626,0.01839999999999975 0.04019999999999868,0.020199999999999108 0.039499999999975444,0.01729999999999876 "></polygon><polygon points="0.05169999999998254,0.0630999999999986 0.05169999999998254,0.057800000000000296 0.04779999999999518,0.05729999999999791 0.048599999999993315,0.059499999999999886 0.046899999999993724,0.060900000000000176 0.05169999999998254,0.0630999999999986 "></polygon><polygon points="0.028399999999976444,0.0697999999999972 0.026899999999983493,0.07089999999999819 0.02909999999999968,0.07179999999999964 0.02949999999998454,0.07010000000000005 0.028399999999976444,0.0697999999999972 "></polygon><polygon points="0.011099999999999,0.1380999999999979 0.013799999999974943,0.13379999999999725 0.01859999999999218,0.1316999999999986 0.03149999999999409,0.13119999999999976 0.03519999999997481,0.12809999999999988 0.04359999999999786,0.1264000000000003 0.04919999999998481,0.12199999999999989 0.05339999999998213,0.11389999999999745 0.05859999999998422,0.11129999999999995 0.06279999999998154,0.11229999999999762 0.0719999999999743,0.11049999999999827 0.081799999999987,0.10609999999999786 0.0841999999999814,0.10670000000000002 0.0841999999999814,0.10419999999999874 0.08050000000000068,0.10239999999999938 0.08249999999998181,0.09730000000000061 0.08159999999998035,0.0943000000000005 0.0835999999999899,0.09280000000000044 0.08109999999999218,0.08619999999999806 0.0759999999999934,0.08489999999999753 0.07029999999997472,0.08589999999999876 0.06889999999998508,0.08449999999999847 0.06919999999999504,0.08230000000000004 0.07299999999997908,0.07949999999999946 0.07219999999998095,0.07589999999999719 0.05570000000000164,0.07549999999999812 0.0543999999999869,0.07119999999999749 0.04999999999998295,0.0688999999999993 0.04719999999997526,0.07059999999999889 0.04919999999998481,0.07249999999999801 0.044399999999996,0.07479999999999976 0.02919999999997458,0.07499999999999929 0.02719999999999345,0.07169999999999987 0.022799999999989495,0.0697999999999972 0.019399999999990314,0.07339999999999947 0.02019999999998845,0.07600000000000051 0.018799999999998818,0.0782999999999987 0.011099999999999,0.08119999999999905 0.005499999999983629,0.08009999999999806 0.0046999999999854936,0.08189999999999742 0.008600000000001273,0.08639999999999759 0.0046999999999854936,0.09059999999999846 0.005799999999993588,0.09529999999999816 0.003599999999977399,0.09890000000000043 0.006699999999995043,0.10279999999999845 0.0049999999999954525,0.10869999999999891 0.006699999999995043,0.11139999999999972 0.005699999999990268,0.11430000000000007 0.008099999999984675,0.12330000000000041 0.004199999999997317,0.12289999999999779 0.0,0.125 0.004399999999975535,0.12719999999999843 0.0069000000000016826,0.13629999999999853 0.00529999999997699,0.1377999999999986 0.007699999999999818,0.13739999999999952 0.007799999999974716,0.13919999999999888 0.011099999999999,0.1380999999999979 "></polygon>
    </svg>
    