
    <svg width="1.1810000000000116" height="6.444699999999999" xmlns="http://www.w3.org/2000/svg" xmlns:xlink="http://www.w3.org/1999/xlink" style="transform: scale(1, -1)">
        <polygon points="0.6899999999999977,0.7554999999999996 0.693300000000022,0.7538999999999998 0.694199999999995,0.7457999999999991 0.6800000000000068,0.7340999999999998 0.6611000000000047,0.7296999999999993 0.6530999999999949,0.7320999999999991 0.6519000000000119,0.7359999999999989 0.6573000000000206,0.7440999999999995 0.677800000000019,0.7510999999999992 0.6831999999999994,0.7547999999999995 0.6899999999999977,0.7554999999999996 "></polygon><polygon points="0.7642000000000166,0.9865999999999993 0.7700000000000102,0.9794 0.7730999999999995,0.9713999999999992 0.7703000000000202,0.9596999999999998 0.7742000000000075,0.9474999999999998 0.7618999999999971,0.934099999999999 0.7633000000000152,0.9246999999999996 0.7712000000000216,0.910499999999999 0.7746999999999957,0.908199999999999 0.779200000000003,0.9085999999999999 0.7828000000000088,0.9063999999999997 0.7889000000000124,0.8952999999999989 0.784700000000015,0.8754999999999988 0.7794000000000096,0.8666 0.7807999999999993,0.8597000000000001 0.7772000000000219,0.854099999999999 0.7768000000000086,0.8483999999999998 0.7809000000000026,0.8402999999999992 0.780600000000021,0.8375000000000004 0.7750000000000057,0.8379999999999992 0.7700000000000102,0.8346999999999998 0.7669999999999959,0.8312999999999988 0.7678000000000225,0.8265999999999991 0.761099999999999,0.8165999999999993 0.7549999999999955,0.8118999999999996 0.7511000000000081,0.8116000000000003 0.745599999999996,0.8152999999999988 0.7438999999999965,0.8224 0.7428000000000168,0.8324999999999996 0.7461000000000126,0.8436000000000003 0.7419000000000153,0.8524999999999991 0.7396999999999991,0.8552999999999997 0.7385000000000161,0.8531999999999993 0.7347000000000037,0.8554999999999993 0.7325000000000159,0.8546999999999993 0.7317000000000178,0.859399999999999 0.7272000000000105,0.8613999999999997 0.727800000000002,0.8707999999999991 0.7239000000000146,0.8741000000000003 0.7236000000000047,0.8785999999999987 0.7216999999999985,0.8807999999999989 0.7194000000000074,0.8818999999999999 0.7117000000000075,0.8788999999999998 0.7078000000000202,0.8790999999999993 0.6997000000000071,0.8846999999999987 0.7027999999999963,0.8994 0.6967000000000212,0.9069000000000003 0.7017000000000166,0.9191000000000003 0.7031000000000063,0.9275000000000002 0.7086000000000183,0.9277999999999995 0.7119000000000142,0.9315999999999995 0.7136000000000138,0.9399999999999995 0.711100000000016,0.9429999999999996 0.7301999999999964,0.9619 0.730700000000013,0.964599999999999 0.7458000000000027,0.9768999999999988 0.7578000000000031,0.9902999999999995 0.7606000000000108,0.9908000000000001 0.7642000000000166,0.9865999999999993 "></polygon><polygon points="0.8260999999999967,1.130799999999999 0.8277999999999963,1.1321999999999992 0.8289000000000044,1.1304999999999996 0.8275000000000148,1.1290999999999993 0.8260999999999967,1.130799999999999 "></polygon><polygon points="0.783299999999997,2.26 0.7981000000000051,2.258000000000001 0.8200000000000216,2.260299999999999 0.8231000000000108,2.258000000000001 0.8269000000000233,2.257799999999998 0.8353000000000179,2.2513999999999985 0.8394000000000119,2.2444000000000006 0.8392000000000053,2.240499999999999 0.834699999999998,2.236600000000001 0.835000000000008,2.2327999999999992 0.829400000000021,2.2268999999999988 0.8153000000000077,2.222800000000001 0.8061000000000149,2.2247000000000003 0.8038999999999987,2.2233 0.7925000000000182,2.2233 0.790600000000012,2.2247000000000003 0.7866999999999962,2.2224999999999984 0.7819000000000074,2.2247000000000003 0.779200000000003,2.2216000000000005 0.7763999999999953,2.2216000000000005 0.7761000000000138,2.2238999999999987 0.7733000000000061,2.225299999999999 0.7683000000000106,2.224099999999998 0.7635999999999967,2.2203 0.7603000000000009,2.2207999999999988 0.7598000000000127,2.2268999999999988 0.7539000000000158,2.228299999999999 0.7511000000000081,2.2377999999999982 0.7481000000000222,2.239700000000001 0.7472000000000207,2.2432999999999996 0.75030000000001,2.2499999999999982 0.7469000000000108,2.253300000000001 0.7469000000000108,2.256400000000001 0.7531000000000176,2.2604999999999986 0.7575000000000216,2.258899999999999 0.762500000000017,2.260799999999998 0.7664000000000044,2.259400000000001 0.7713999999999999,2.260799999999998 0.783299999999997,2.26 "></polygon><polygon points="0.9317000000000064,1.1775000000000002 0.9358000000000004,1.1754999999999995 0.9420000000000073,1.1654999999999998 0.9464000000000112,1.1624999999999996 0.9453000000000031,1.1529999999999987 0.9406000000000176,1.148299999999999 0.9329000000000178,1.1489999999999991 0.930800000000005,1.150599999999999 0.9261000000000195,1.1478000000000002 0.9273000000000025,1.142199999999999 0.9231000000000051,1.1343999999999994 0.9253000000000213,1.1329999999999991 0.9257000000000062,1.1304999999999996 0.9222000000000037,1.1260999999999992 0.918500000000023,1.1254999999999988 0.9133000000000209,1.1180000000000003 0.9081000000000188,1.1168999999999993 0.9044000000000096,1.1113999999999997 0.9003000000000156,1.1082999999999998 0.8944000000000187,1.0975000000000001 0.897199999999998,1.0936000000000003 0.897199999999998,1.0896999999999988 0.8935000000000173,1.0850999999999988 0.8937999999999988,1.0785 0.8969000000000165,1.0732999999999997 0.8999000000000024,1.0718999999999994 0.8996999999999957,1.0663 0.9014999999999986,1.063699999999999 0.9133000000000209,1.0559999999999992 0.9081000000000188,1.0533000000000001 0.9072000000000173,1.0460999999999991 0.9037000000000148,1.0439999999999987 0.9081000000000188,1.0390999999999995 0.8980999999999995,1.040799999999999 0.891900000000021,1.0396999999999998 0.8847000000000094,1.0452999999999992 0.8825000000000216,1.0503 0.8781000000000176,1.0525000000000002 0.8680999999999983,1.0503 0.8646999999999991,1.048 0.8645000000000209,1.0437999999999992 0.8581000000000074,1.0330999999999992 0.8567000000000178,1.0277999999999992 0.8592000000000155,1.0202999999999989 0.8646999999999991,1.0144000000000002 0.8703000000000145,1.013 0.8722000000000207,1.0083000000000002 0.8719000000000108,1.0018999999999991 0.8680999999999983,0.995099999999999 0.8654999999999973,0.9827999999999992 0.8633000000000095,0.9804999999999993 0.8608000000000118,0.9839000000000002 0.8597000000000037,0.9896999999999991 0.8547000000000082,0.9949999999999992 0.8322000000000003,0.9969000000000001 0.8283000000000129,0.9947999999999997 0.8231000000000108,0.9949999999999992 0.8211000000000013,1.0002999999999993 0.8164000000000158,1.0040999999999993 0.8044000000000153,1.0099999999999998 0.8083000000000027,1.0132999999999992 0.807200000000023,1.0202999999999989 0.8153000000000077,1.037799999999999 0.8149999999999977,1.0464000000000002 0.8228000000000009,1.0541 0.8277999999999963,1.0681999999999992 0.8314000000000021,1.084299999999999 0.8314000000000021,1.0885999999999996 0.8300000000000125,1.0899999999999999 0.8308000000000106,1.1082999999999998 0.8353000000000179,1.109399999999999 0.8378000000000156,1.1075 0.8440000000000225,1.109 0.847200000000015,1.1158000000000001 0.8499000000000194,1.1175999999999995 0.8532000000000153,1.1167999999999996 0.852800000000002,1.119299999999999 0.8545000000000016,1.1214999999999993 0.859800000000007,1.1236999999999995 0.869700000000023,1.1333000000000002 0.881699999999995,1.136899999999999 0.8843999999999994,1.1402999999999999 0.8936999999999955,1.1439000000000004 0.9014999999999986,1.1574999999999989 0.9242000000000132,1.1796999999999986 0.9261000000000195,1.1807999999999996 0.9317000000000064,1.1775000000000002 "></polygon><polygon points="1.1710999999999956,1.9018999999999995 1.1689000000000078,1.8957999999999995 1.16670000000002,1.8946999999999985 1.1681000000000097,1.9027000000000012 1.1706000000000074,1.9045000000000005 1.1702999999999975,1.9068999999999985 1.1760000000000161,1.9164000000000012 1.1787999999999954,1.9181000000000008 1.1810000000000116,1.9139 1.1758000000000095,1.9052999999999987 1.1731000000000051,1.9018999999999995 1.1710999999999956,1.9018999999999995 "></polygon><polygon points="0.897199999999998,2.6049999999999986 0.9025000000000034,2.603299999999999 0.9028000000000134,2.5985999999999994 0.9057999999999993,2.5943999999999985 0.9025000000000034,2.5882999999999985 0.9033000000000015,2.5821999999999985 0.8988999999999976,2.5802999999999994 0.8961000000000183,2.583 0.8911000000000229,2.5828000000000007 0.8811000000000035,2.594099999999999 0.8843999999999994,2.602500000000001 0.8883000000000152,2.602199999999998 0.8928000000000225,2.6079999999999988 0.8958000000000084,2.608299999999998 0.897199999999998,2.6049999999999986 "></polygon><polygon points="0.960000000000008,3.210700000000001 0.9653000000000134,3.207499999999998 0.962900000000019,3.203000000000001 0.9682999999999993,3.2005 0.9675000000000011,3.1979999999999986 0.9650000000000034,3.197799999999999 0.9653000000000134,3.1944 0.9604999999999961,3.1862000000000013 0.9527999999999963,3.188599999999999 0.9475000000000193,3.192500000000001 0.9464000000000112,3.1958 0.9464000000000112,3.203000000000001 0.9497000000000071,3.2096999999999998 0.9569000000000187,3.2125000000000004 0.960000000000008,3.210700000000001 "></polygon><polygon points="0.9527000000000214,3.5100999999999996 0.9547000000000025,3.505799999999999 0.9604000000000212,3.501900000000001 0.9655999999999949,3.4944000000000006 0.9661000000000115,3.489700000000001 0.968100000000021,3.4886 0.9661000000000115,3.4796999999999993 0.9621999999999957,3.475799999999998 0.9592000000000098,3.4749999999999996 0.9547000000000025,3.469099999999999 0.9399999999999977,3.4693999999999985 0.9369000000000085,3.475799999999998 0.9336000000000126,3.477199999999998 0.9296999999999969,3.4825 0.9292000000000087,3.492800000000001 0.9353000000000122,3.501099999999999 0.9347000000000207,3.505799999999999 0.9367000000000019,3.5083 0.9468999999999994,3.511000000000001 0.9527000000000214,3.5100999999999996 "></polygon><polygon points="0.8970000000000198,4.057 0.914100000000019,4.055100000000001 0.9228999999999985,4.0449 0.9231000000000051,4.035199999999998 0.9247000000000014,4.031699999999999 0.9243000000000166,4.020200000000001 0.9216000000000122,4.018099999999999 0.915300000000002,4.001599999999998 0.9122000000000128,4.000400000000001 0.9124000000000194,3.9978 0.9088000000000136,3.997099999999998 0.9104000000000099,3.9921999999999986 0.900100000000009,3.9990000000000006 0.8902000000000214,3.997099999999998 0.8854000000000042,3.9931 0.8822000000000116,3.992499999999998 0.876400000000018,3.986700000000001 0.8714999999999975,3.9769999999999985 0.8602999999999952,3.961999999999998 0.8611000000000217,3.9583999999999993 0.8551000000000215,3.9490999999999996 0.8448000000000206,3.939099999999998 0.8245000000000005,3.934199999999999 0.8233000000000175,3.9366000000000003 0.8267000000000166,3.9429 0.8262,3.947899999999999 0.8277999999999963,3.950100000000001 0.82650000000001,3.9518000000000004 0.829400000000021,3.9608000000000008 0.8355999999999995,3.9708999999999985 0.8447000000000173,3.975699999999998 0.8483000000000231,3.974500000000001 0.8543999999999983,3.9763 0.8593000000000188,3.981399999999999 0.871200000000016,3.9887999999999995 0.8739000000000203,3.998599999999998 0.8729000000000156,4.010199999999999 0.8752000000000066,4.0128 0.8727000000000089,4.015500000000001 0.8754000000000133,4.0174 0.8771000000000129,4.027700000000001 0.8797000000000139,4.029300000000001 0.8799000000000206,4.032300000000001 0.8778000000000077,4.034799999999999 0.8766999999999996,4.031799999999999 0.8706999999999994,4.035400000000001 0.8714999999999975,4.046799999999999 0.8795000000000073,4.054499999999999 0.8866000000000156,4.057899999999998 0.8949000000000069,4.0586 0.8970000000000198,4.057 "></polygon><polygon points="0.2481000000000222,0.02779999999999916 0.24720000000002074,0.02829999999999977 0.25310000000001764,0.03359999999999985 0.2536000000000058,0.03219999999999956 0.2481000000000222,0.02779999999999916 "></polygon><polygon points="0.3661000000000172,0.09049999999999869 0.386099999999999,0.08799999999999919 0.4000000000000057,0.08300000000000018 0.4011000000000138,0.0840999999999994 0.40500000000000114,0.08140000000000036 0.4072000000000173,0.0777000000000001 0.40030000000001564,0.06609999999999872 0.4000000000000057,0.0602999999999998 0.4017000000000053,0.05829999999999913 0.3996999999999957,0.05579999999999963 0.4000000000000057,0.051899999999999835 0.38330000000001974,0.040300000000000225 0.37530000000000996,0.044299999999999784 0.37290000000001555,0.043199999999998795 0.3680999999999983,0.04439999999999955 0.36420000000001096,0.04159999999999897 0.35770000000002256,0.04100000000000037 0.345799999999997,0.030799999999999272 0.3447000000000173,0.023600000000000065 0.34610000000000696,0.020500000000000185 0.3380999999999972,0.01609999999999978 0.329400000000021,0.005300000000000082 0.3200000000000216,0.005300000000000082 0.31329999999999814,0.0018999999999991246 0.31030000000001223,0.004399999999998627 0.30809999999999604,0.004699999999999704 0.3055999999999983,0.0027999999999988034 0.30330000000000723,0.004999999999999005 0.2989000000000033,0.005499999999999616 0.2939000000000078,0.0038999999999997925 0.290300000000002,0.0 0.28360000000000696,0.0002999999999993008 0.2817000000000007,0.002200000000000202 0.28360000000000696,0.006599999999998829 0.2822000000000173,0.016599999999998616 0.2675000000000125,0.026099999999999568 0.25890000000001123,0.02859999999999907 0.25329999999999586,0.0240999999999989 0.2442000000000064,0.010999999999999233 0.23750000000001137,0.006099999999999994 0.23560000000000514,0.008300000000000196 0.23969999999999914,0.021099999999998786 0.24670000000000414,0.02779999999999916 0.2483000000000004,0.02660000000000018 0.2411000000000172,0.020500000000000185 0.24559999999999604,0.022499999999999076 0.2536000000000058,0.03029999999999866 0.2569000000000017,0.03409999999999869 0.2581000000000131,0.037799999999998946 0.2553000000000054,0.035199999999999676 0.2575000000000216,0.04049999999999976 0.2717000000000098,0.05410000000000004 0.2720000000000198,0.05689999999999884 0.2744000000000142,0.05940000000000012 0.2822000000000173,0.05999999999999872 0.28890000000001237,0.05719999999999992 0.29640000000000555,0.05889999999999951 0.30580000000000496,0.06359999999999921 0.3119000000000085,0.06409999999999982 0.3358000000000061,0.0818999999999992 0.3522000000000105,0.08999999999999986 0.3661000000000172,0.09049999999999869 "></polygon><polygon points="0.3497000000000128,5.917799999999998 0.35439999999999827,5.9091000000000005 0.34489999999999554,5.9018 0.3363000000000227,5.903699999999999 0.3336000000000183,5.912899999999999 0.3428000000000111,5.918699999999999 0.3482000000000198,5.9167000000000005 0.3497000000000128,5.917799999999998 "></polygon><polygon points="0.3300000000000125,5.905499999999998 0.33389999999999986,5.902499999999998 0.3317000000000121,5.9003 0.3275000000000148,5.9016 0.32560000000000855,5.9007999999999985 0.32570000000001187,5.904300000000001 0.3229000000000042,5.9068999999999985 0.323599999999999,5.9154 0.32740000000001146,5.9213000000000005 0.3252999999999986,5.911599999999998 0.3300000000000125,5.905499999999998 "></polygon><polygon points="0.8037000000000205,4.686300000000001 0.8060000000000116,4.6865000000000006 0.808700000000016,4.6823999999999995 0.8127000000000066,4.680400000000001 0.8114999999999952,4.673699999999998 0.8140999999999963,4.670499999999999 0.8135000000000048,4.6671 0.8149999999999977,4.665000000000001 0.8125,4.6625 0.8147000000000162,4.660500000000001 0.8161000000000058,4.651400000000001 0.8147000000000162,4.648899999999999 0.8097000000000207,4.647999999999998 0.807200000000023,4.6446999999999985 0.8083000000000027,4.6425 0.8068000000000097,4.639000000000001 0.8085000000000093,4.6381 0.8086000000000126,4.635399999999999 0.8059000000000083,4.6301000000000005 0.8029000000000224,4.6289 0.8020999999999958,4.626900000000001 0.7992000000000132,4.628099999999998 0.7925000000000182,4.6272 0.7873000000000161,4.621799999999999 0.7875000000000227,4.6197 0.7843000000000018,4.615899999999998 0.7829000000000121,4.614800000000001 0.779500000000013,4.6167 0.7784000000000049,4.615899999999998 0.7750000000000057,4.620499999999998 0.7661999999999978,4.6240000000000006 0.7659000000000162,4.6305 0.7635999999999967,4.6319 0.761099999999999,4.638399999999999 0.7550999999999988,4.643800000000001 0.7550999999999988,4.6501 0.7521000000000129,4.654400000000001 0.7528000000000077,4.6576 0.751400000000018,4.6594999999999995 0.7537000000000091,4.661799999999998 0.7507999999999981,4.664900000000001 0.7504000000000133,4.667799999999998 0.7556000000000154,4.6777999999999995 0.7547000000000139,4.680899999999999 0.7560000000000002,4.6851 0.7609000000000208,4.687900000000001 0.765500000000003,4.699299999999999 0.7753000000000156,4.7035 0.7798999999999978,4.702599999999999 0.7803000000000111,4.699199999999999 0.782100000000014,4.698299999999998 0.7855000000000132,4.699299999999999 0.7948000000000093,4.696699999999998 0.7972000000000037,4.692199999999998 0.8216000000000179,4.7155000000000005 0.823599999999999,4.7127 0.7992000000000132,4.690099999999999 0.8037000000000205,4.686300000000001 "></polygon><polygon points="0.5228000000000179,5.5969 0.5322000000000173,5.589999999999998 0.5337000000000103,5.582800000000001 0.5678000000000054,5.574199999999999 0.5609000000000037,5.556800000000001 0.5492000000000132,5.544199999999998 0.5264999999999986,5.568399999999999 0.5197000000000003,5.5647 0.5160000000000196,5.5646 0.5047000000000139,5.571599999999998 0.5036000000000058,5.582499999999998 0.5064000000000135,5.5882999999999985 0.505800000000022,5.5905000000000005 0.5092000000000212,5.5936 0.5109000000000208,5.592599999999999 0.5131000000000085,5.597499999999998 0.5228000000000179,5.5969 "></polygon><polygon points="0.3411000000000115,5.922500000000001 0.3453000000000088,5.9213000000000005 0.334699999999998,5.919700000000001 0.329400000000021,5.9214 0.3365000000000009,5.9251999999999985 0.3411000000000115,5.922500000000001 "></polygon><polygon points="0.010000000000019327,6.442500000000001 0.011099999999999,6.440299999999999 0.013599999999996726,6.441599999999999 0.01640000000000441,6.440800000000001 0.0186000000000206,6.435499999999999 0.012200000000007094,6.426399999999999 0.004700000000013915,6.4261 0.0014000000000180535,6.428700000000001 0.0,6.4369 0.0069000000000016826,6.444699999999999 0.010000000000019327,6.442500000000001 "></polygon>
    </svg>
    