
    <svg width="5.983899999999991" height="1.171999999999997" xmlns="http://www.w3.org/2000/svg" xmlns:xlink="http://www.w3.org/1999/xlink" style="transform: scale(1, -1)">
        <polygon points="5.962699999999998,0.3963000000000001 5.9646999999999935,0.3940999999999981 5.962199999999996,0.39069999999999894 5.960499999999996,0.39269999999999783 5.961299999999994,0.39699999999999847 5.962699999999998,0.3963000000000001 "></polygon><polygon points="5.9824999999999875,0.4045999999999985 5.983899999999991,0.4012999999999991 5.9831999999999965,0.3974999999999973 5.974499999999992,0.39069999999999894 5.968599999999995,0.39069999999999894 5.967199999999991,0.39269999999999783 5.974699999999999,0.3954999999999984 5.981099999999998,0.40209999999999724 5.979099999999988,0.4042999999999992 5.962999999999994,0.4034999999999975 5.960499999999996,0.3990999999999971 5.958299999999994,0.40209999999999724 5.959999999999994,0.4048999999999978 5.963899999999995,0.4062999999999981 5.978899999999996,0.40749999999999886 5.9824999999999875,0.4045999999999985 "></polygon><polygon points="2.4499999999999886,0.7374999999999972 2.4491999999999905,0.7335999999999991 2.4505000000000052,0.7265999999999977 2.462999999999994,0.6903999999999968 2.4617999999999824,0.6756999999999991 2.46429999999998,0.6609999999999978 2.4587999999999965,0.6564999999999976 2.4495000000000005,0.6600999999999999 2.4410000000000025,0.6663999999999994 2.428699999999992,0.6673999999999971 2.419799999999981,0.6712999999999987 2.403099999999995,0.6964999999999968 2.3985999999999876,0.7094999999999985 2.3988999999999976,0.716899999999999 2.4036999999999864,0.7271999999999998 2.4069999999999823,0.7298999999999971 2.409400000000005,0.7387999999999977 2.4128000000000043,0.7430999999999983 2.4324000000000012,0.7409999999999997 2.4550999999999874,0.7494999999999976 2.4499999999999886,0.7374999999999972 "></polygon><polygon points="0.645700000000005,0.02049999999999841 0.6573999999999955,0.015399999999999636 0.6620000000000061,0.010600000000000165 0.6656999999999869,0.011999999999996902 0.6641999999999939,0.009499999999999176 0.6676999999999964,0.007099999999997664 0.6680000000000064,0.004299999999997084 0.6615999999999929,0.0033999999999991815 0.658600000000007,0.0006999999999983686 0.6533000000000015,0.0012999999999969702 0.6501999999999839,0.0 0.6415000000000077,0.004799999999999471 0.6422000000000025,0.007299999999997198 0.6321999999999832,0.010399999999997078 0.6329000000000065,0.015999999999998238 0.6379000000000019,0.016899999999999693 0.6383999999999901,0.019499999999997186 0.6428999999999974,0.022800000000000153 0.6437999999999988,0.020699999999997942 0.645700000000005,0.02049999999999841 "></polygon><polygon points="0.017699999999990723,1.1505999999999972 0.011699999999990496,1.1496999999999993 0.008099999999984675,1.1459999999999972 0.0049999999999954525,1.146099999999997 0.0053999999999803094,1.1508000000000003 0.011499999999983856,1.1527999999999992 0.01650000000000773,1.1580999999999975 0.018900000000002137,1.1519999999999975 0.017699999999990723,1.1505999999999972 "></polygon><polygon points="0.007499999999993179,1.1687999999999974 0.002899999999982583,1.1662 0.0013999999999896318,1.1519999999999975 0.00190000000000623,1.1448999999999998 0.004400000000003956,1.1402 0.009999999999990905,1.1379999999999981 0.017899999999997362,1.137599999999999 0.027799999999984948,1.1390999999999991 0.03360000000000696,1.1429999999999971 0.035799999999994725,1.148299999999999 0.035699999999991405,1.1546999999999983 0.03109999999998081,1.1640999999999977 0.024699999999995725,1.1703999999999972 0.026099999999985357,1.171599999999998 0.03190000000000737,1.1662999999999997 0.03719999999998436,1.1551999999999971 0.036100000000004684,1.1448999999999998 0.03249999999999886,1.139599999999998 0.023099999999999454,1.1354999999999968 0.020999999999986585,1.1368999999999971 0.007000000000005002,1.135399999999997 0.0070999999999799,1.136999999999997 0.001999999999981128,1.1417000000000002 0.0,1.146799999999999 0.0010999999999796728,1.165499999999998 0.0036000000000058208,1.169599999999999 0.01650000000000773,1.171999999999997 0.007499999999993179,1.1687999999999974 "></polygon><polygon points="0.019000000000005457,1.1622999999999983 0.01820000000000732,1.1605999999999987 0.017200000000002547,1.1611999999999973 0.02009999999998513,1.1642999999999972 0.019000000000005457,1.1622999999999983 "></polygon>
    </svg>
    