
    <svg width="0.910899999999998" height="1.7126999999999981" xmlns="http://www.w3.org/2000/svg" xmlns:xlink="http://www.w3.org/1999/xlink" style="transform: scale(1, -1)">
        <polygon points="0.8588999999999984,0.2748999999999988 0.8597000000000037,0.2731999999999992 0.8573000000000022,0.2741000000000007 0.8569999999999993,0.2757000000000005 0.8588999999999984,0.2748999999999988 "></polygon><polygon points="0.875,0.2818000000000005 0.876100000000001,0.2798999999999978 0.8714000000000013,0.2771000000000008 0.871699999999997,0.2823999999999991 0.875,0.2818000000000005 "></polygon><polygon points="0.9095000000000013,0.8277000000000001 0.910899999999998,0.8237999999999985 0.9091999999999985,0.8223999999999982 0.9074999999999989,0.8223999999999982 0.9100000000000037,0.8243000000000009 0.9085999999999999,0.8267999999999986 0.9033999999999978,0.827099999999998 0.9063999999999979,0.8288000000000011 0.9095000000000013,0.8277000000000001 "></polygon><polygon points="0.8466999999999985,0.8791000000000011 0.848399999999998,0.8781999999999996 0.8481000000000023,0.8671000000000006 0.8400000000000034,0.8716000000000008 0.8322000000000003,0.8732000000000006 0.8350000000000009,0.8781999999999996 0.8397000000000006,0.8763000000000005 0.8434000000000026,0.8798999999999992 0.8466999999999985,0.8791000000000011 "></polygon><polygon points="0.7920000000000016,0.8328999999999986 0.7905999999999977,0.8331999999999979 0.7911000000000001,0.8354999999999997 0.7922999999999973,0.8352000000000004 0.7920000000000016,0.8328999999999986 "></polygon><polygon points="0.7989000000000033,0.8681999999999981 0.7999999999999972,0.8671000000000006 0.7997999999999976,0.866299999999999 0.796999999999997,0.8688000000000002 0.7989000000000033,0.8681999999999981 "></polygon><polygon points="0.792500000000004,0.9429999999999978 0.7897000000000034,0.9429999999999978 0.7895000000000039,0.9440999999999988 0.7916999999999987,0.9446000000000012 0.792500000000004,0.9429999999999978 "></polygon><polygon points="0.7760999999999996,0.9980000000000011 0.7772000000000006,0.9905000000000008 0.7959000000000032,0.9773999999999994 0.8042000000000016,0.9773999999999994 0.8083999999999989,0.9799000000000007 0.8074999999999974,0.9765999999999977 0.8049999999999997,0.9762999999999984 0.8064000000000036,0.9726999999999997 0.8019999999999996,0.972999999999999 0.7864000000000004,0.9837999999999987 0.7798000000000016,0.9848999999999997 0.7828000000000017,0.9816000000000003 0.7845000000000013,0.975200000000001 0.790300000000002,0.9724000000000004 0.7895000000000039,0.9665999999999997 0.7877999999999972,0.9654999999999987 0.7897000000000034,0.9595999999999982 0.7877999999999972,0.9541000000000004 0.7850000000000037,0.9548999999999985 0.7845000000000013,0.9529999999999994 0.7856000000000023,0.9470999999999989 0.7881,0.940999999999999 0.7895000000000039,0.9406999999999996 0.7881,0.9299 0.7905999999999977,0.9228999999999985 0.7899999999999991,0.9191000000000003 0.7935999999999979,0.9120999999999988 0.803600000000003,0.9131999999999998 0.796999999999997,0.9076999999999984 0.7967000000000013,0.9056999999999995 0.7916999999999987,0.9045999999999985 0.7909000000000006,0.9001999999999981 0.7950000000000017,0.8963000000000001 0.7948000000000022,0.8940999999999981 0.7873000000000019,0.8965999999999994 0.7867000000000033,0.8934999999999995 0.7845000000000013,0.8926999999999978 0.7852999999999994,0.8899000000000008 0.7881,0.8892999999999986 0.7884000000000029,0.8865999999999978 0.7850000000000037,0.8838000000000008 0.7911000000000001,0.8807000000000009 0.7911000000000001,0.883499999999998 0.7950000000000017,0.883499999999998 0.7956000000000003,0.8812999999999995 0.7933999999999983,0.8749000000000002 0.786999999999999,0.8695999999999984 0.7864000000000004,0.8643000000000001 0.7909000000000006,0.8606999999999978 0.8006000000000029,0.8617999999999988 0.8059000000000012,0.8545999999999978 0.8055999999999983,0.8526999999999987 0.8027999999999977,0.8526999999999987 0.8027999999999977,0.8467999999999982 0.7897000000000034,0.8454999999999977 0.7845000000000013,0.8413000000000004 0.7820000000000036,0.8354999999999997 0.7817000000000007,0.8298999999999985 0.785899999999998,0.8251999999999988 0.7909000000000006,0.8227000000000011 0.7963999999999984,0.8213000000000008 0.7986000000000004,0.8248999999999995 0.799199999999999,0.8213000000000008 0.8019999999999996,0.8204999999999991 0.802500000000002,0.8243000000000009 0.8094999999999999,0.8253999999999984 0.8078000000000003,0.8288000000000011 0.8089000000000013,0.8305000000000007 0.8117000000000019,0.8277000000000001 0.8141999999999996,0.8284999999999982 0.813600000000001,0.8342999999999989 0.8222999999999985,0.838000000000001 0.8252999999999986,0.8318000000000012 0.8220000000000027,0.8305000000000007 0.8194999999999979,0.8352000000000004 0.8158999999999992,0.8338000000000001 0.8200000000000003,0.8248999999999995 0.8192000000000021,0.8231999999999999 0.8160999999999987,0.8262999999999998 0.8119999999999976,0.8248999999999995 0.8119999999999976,0.8230000000000004 0.8141999999999996,0.8234999999999992 0.8123000000000005,0.8217999999999996 0.8128000000000029,0.8192999999999984 0.8186000000000035,0.8182000000000009 0.8188999999999993,0.815999999999999 0.821399999999997,0.814899999999998 0.8245000000000005,0.8162999999999982 0.8216999999999999,0.8182000000000009 0.8247,0.8190999999999988 0.8263999999999996,0.8176999999999985 0.8280999999999992,0.820999999999998 0.8322000000000003,0.8234999999999992 0.8320000000000007,0.8257000000000012 0.8374999999999986,0.8227000000000011 0.840600000000002,0.8230000000000004 0.841700000000003,0.8292999999999999 0.8453000000000017,0.827099999999998 0.8436000000000021,0.8213000000000008 0.8442000000000007,0.8162999999999982 0.847299999999997,0.815999999999999 0.8475000000000037,0.8135000000000012 0.8502999999999972,0.8126999999999995 0.8558999999999983,0.8138000000000005 0.8642000000000039,0.8227000000000011 0.867200000000004,0.8295999999999992 0.872799999999998,0.8309999999999995 0.8778000000000006,0.8220999999999989 0.8866999999999976,0.7988 0.8900000000000006,0.7951999999999977 0.889800000000001,0.790499999999998 0.8892000000000024,0.7951999999999977 0.886099999999999,0.7978999999999985 0.8725000000000023,0.8301999999999978 0.8678000000000026,0.8291000000000004 0.8656000000000006,0.8234999999999992 0.8577999999999975,0.8140999999999998 0.8631000000000029,0.8170999999999999 0.8624999999999972,0.8185000000000002 0.8631000000000029,0.8199000000000005 0.8635999999999981,0.8176999999999985 0.8656000000000006,0.8185000000000002 0.8691999999999993,0.8152000000000008 0.8678000000000026,0.8135000000000012 0.8734000000000037,0.8067999999999991 0.871699999999997,0.802699999999998 0.8731000000000009,0.7957000000000001 0.8710999999999984,0.7941000000000003 0.8697999999999979,0.7880000000000003 0.8817000000000021,0.7866 0.8883999999999972,0.7837999999999994 0.890900000000002,0.7846000000000011 0.8883999999999972,0.7829999999999977 0.8817000000000021,0.7856999999999985 0.8695000000000022,0.7867999999999995 0.8697999999999979,0.7804000000000002 0.8633999999999986,0.7790999999999997 0.8628,0.7776999999999994 0.8652999999999977,0.7751999999999981 0.8622999999999976,0.7734999999999985 0.8659000000000034,0.7652000000000001 0.8656000000000006,0.758499999999998 0.871699999999997,0.7476999999999983 0.8748000000000005,0.7476999999999983 0.880900000000004,0.7417999999999978 0.8841999999999999,0.7409999999999997 0.8847999999999985,0.7374000000000009 0.8894999999999982,0.7363 0.8888999999999996,0.734099999999998 0.886099999999999,0.7353999999999985 0.8836000000000013,0.7343000000000011 0.8830999999999989,0.7271000000000001 0.8847999999999985,0.7193000000000005 0.8811000000000035,0.7142999999999979 0.8823000000000008,0.7112999999999978 0.8802999999999983,0.7071000000000005 0.8819999999999979,0.7057000000000002 0.8753000000000029,0.7029999999999994 0.8778000000000006,0.7003999999999984 0.8755999999999986,0.6987999999999985 0.8755999999999986,0.6966000000000001 0.8813999999999993,0.6929999999999978 0.8823000000000008,0.6902000000000008 0.8770000000000024,0.6949000000000005 0.8725000000000023,0.6918000000000006 0.8736000000000033,0.6888000000000005 0.8791999999999973,0.6851999999999983 0.8856000000000037,0.6756999999999991 0.880900000000004,0.6623999999999981 0.8847999999999985,0.6515999999999984 0.8841999999999999,0.639599999999998 0.8823000000000008,0.6329999999999991 0.8858999999999995,0.6209999999999987 0.8841999999999999,0.6195999999999984 0.8836000000000013,0.6127000000000002 0.8819999999999979,0.6076999999999977 0.8789000000000016,0.6042999999999985 0.8778000000000006,0.5988000000000007 0.8764000000000038,0.5984999999999978 0.8755999999999986,0.5948999999999991 0.872799999999998,0.5954999999999977 0.8714000000000013,0.5929000000000002 0.8770000000000024,0.5840999999999994 0.880900000000004,0.5638000000000005 0.8834000000000017,0.5593000000000004 0.8928000000000011,0.5502000000000002 0.8905999999999992,0.5427 0.8886000000000038,0.5412999999999997 0.8866999999999976,0.5288000000000004 0.8828000000000031,0.5248999999999988 0.8764000000000038,0.5231999999999992 0.8697999999999979,0.5126999999999988 0.8659000000000034,0.5140999999999991 0.8633999999999986,0.5109999999999992 0.8603000000000023,0.5112999999999985 0.8492000000000033,0.5017999999999994 0.8459000000000003,0.49299999999999855 0.8534000000000006,0.49129999999999896 0.8560999999999979,0.49350000000000094 0.859499999999997,0.49019999999999797 0.8564000000000007,0.4817999999999998 0.8475000000000037,0.4717999999999982 0.8464000000000027,0.4670999999999985 0.8355999999999995,0.4501999999999988 0.8384,0.44679999999999964 0.8338999999999999,0.44909999999999783 0.8322000000000003,0.44599999999999795 0.8355999999999995,0.44299999999999784 0.8316999999999979,0.4449000000000005 0.8256000000000014,0.43519999999999825 0.8278000000000034,0.43270000000000053 0.827300000000001,0.43130000000000024 0.821399999999997,0.43379999999999797 0.8203000000000031,0.4317999999999991 0.821399999999997,0.42879999999999896 0.818400000000004,0.42549999999999955 0.8158999999999992,0.42549999999999955 0.8038999999999987,0.4101999999999997 0.802500000000002,0.4101999999999997 0.7974999999999994,0.4012999999999991 0.7789000000000001,0.3887999999999998 0.7742000000000004,0.3824000000000005 0.7674999999999983,0.36430000000000007 0.755900000000004,0.3454999999999977 0.7535999999999987,0.3257000000000012 0.7453000000000003,0.3117999999999981 0.7456000000000031,0.2917999999999985 0.7441999999999993,0.2867999999999995 0.7417000000000016,0.2804000000000002 0.7227999999999994,0.2557000000000009 0.7139000000000024,0.23930000000000007 0.712299999999999,0.2292999999999985 0.7047999999999988,0.21069999999999922 0.7038999999999973,0.20209999999999795 0.6983999999999995,0.1853999999999978 0.6936000000000035,0.18069999999999808 0.6875,0.18069999999999808 0.6814000000000036,0.16910000000000025 0.6685999999999979,0.16769999999999996 0.6625000000000014,0.16460000000000008 0.6567000000000007,0.1640999999999977 0.6574999999999989,0.1681999999999988 0.6559000000000026,0.17239999999999966 0.654200000000003,0.1701999999999977 0.6555999999999997,0.16430000000000078 0.652000000000001,0.16430000000000078 0.6510999999999996,0.16600000000000037 0.6475000000000009,0.1640999999999977 0.6475000000000009,0.1579999999999977 0.6400000000000006,0.1399000000000008 0.640900000000002,0.13129999999999953 0.6394999999999982,0.12989999999999924 0.6417000000000002,0.12269999999999825 0.640900000000002,0.12129999999999797 0.6372,0.12239999999999895 0.6381000000000014,0.11599999999999966 0.6366999999999976,0.11550000000000082 0.6364000000000019,0.11019999999999897 0.6272999999999982,0.10879999999999868 0.6236000000000033,0.10409999999999897 0.6208999999999989,0.10379999999999967 0.6156000000000006,0.0998999999999981 0.6133999999999986,0.09570000000000078 0.6030999999999977,0.08629999999999782 0.5955999999999975,0.08569999999999922 0.599499999999999,0.0884999999999998 0.601700000000001,0.10320000000000107 0.599499999999999,0.10769999999999769 0.5942000000000007,0.1106999999999978 0.5936000000000021,0.12300000000000111 0.5900000000000034,0.12490000000000023 0.5885999999999996,0.12879999999999825 0.5902999999999992,0.13319999999999865 0.5900000000000034,0.1402000000000001 0.5936000000000021,0.14239999999999853 0.598399999999998,0.1413000000000011 0.5985999999999976,0.1352000000000011 0.603900000000003,0.13349999999999795 0.6045000000000016,0.13049999999999784 0.6077999999999975,0.12959999999999994 0.6058999999999983,0.14349999999999952 0.6114000000000033,0.14539999999999864 0.6103000000000023,0.13929999999999865 0.6077999999999975,0.13769999999999882 0.6084000000000032,0.1341000000000001 0.6114000000000033,0.14069999999999894 0.617200000000004,0.14539999999999864 0.6191999999999993,0.1493000000000002 0.6178000000000026,0.15850000000000009 0.6203000000000003,0.1684999999999981 0.6178000000000026,0.17099999999999937 0.6152999999999977,0.16880000000000095 0.6159000000000034,0.1634999999999991 0.6135999999999981,0.16430000000000078 0.6144999999999996,0.1554000000000002 0.6128,0.1554000000000002 0.611699999999999,0.15850000000000009 0.6109000000000009,0.15820000000000078 0.6133999999999986,0.1512999999999991 0.6122999999999976,0.1479999999999997 0.605000000000004,0.1443000000000012 0.605000000000004,0.1521000000000008 0.6077999999999975,0.15850000000000009 0.6088999999999984,0.17129999999999868 0.6069999999999993,0.17269999999999897 0.6084000000000032,0.17490000000000094 0.6067000000000036,0.17599999999999838 0.6064000000000007,0.17909999999999826 0.6099999999999994,0.18069999999999808 0.6103000000000023,0.1853999999999978 0.6075000000000017,0.18570000000000064 0.6064000000000007,0.18179999999999907 0.6045000000000016,0.18209999999999837 0.5985999999999976,0.16769999999999996 0.5964000000000027,0.1681999999999988 0.5985999999999976,0.16570000000000107 0.6011000000000024,0.16600000000000037 0.6022000000000034,0.16270000000000095 0.605000000000004,0.16130000000000067 0.605000000000004,0.16019999999999968 0.6011000000000024,0.16130000000000067 0.603900000000003,0.1573999999999991 0.6000000000000014,0.15850000000000009 0.5992000000000033,0.1568000000000005 0.5970000000000013,0.1570999999999998 0.5955999999999975,0.1617999999999995 0.589500000000001,0.16959999999999908 0.5908999999999978,0.17159999999999798 0.5885999999999996,0.1728999999999985 0.5853000000000037,0.17129999999999868 0.5863999999999976,0.1670999999999978 0.5833999999999975,0.16659999999999897 0.579500000000003,0.1728999999999985 0.5799999999999983,0.16740000000000066 0.5741999999999976,0.17409999999999926 0.5728000000000009,0.17099999999999937 0.5705999999999989,0.17239999999999966 0.5716999999999999,0.16769999999999996 0.5700000000000003,0.16740000000000066 0.5694999999999979,0.16430000000000078 0.5692000000000021,0.1670999999999978 0.563600000000001,0.17350000000000065 0.5641999999999996,0.17769999999999797 0.560299999999998,0.18019999999999925 0.5570000000000022,0.17800000000000082 0.5549999999999997,0.17409999999999926 0.5561000000000007,0.17379999999999995 0.5549999999999997,0.16740000000000066 0.5506000000000029,0.1634999999999991 0.551400000000001,0.15879999999999939 0.5497999999999976,0.1579999999999977 0.5489000000000033,0.1609999999999978 0.546999999999997,0.16130000000000067 0.5472000000000037,0.16600000000000037 0.5499999999999972,0.16910000000000025 0.5519999999999996,0.16740000000000066 0.5585999999999984,0.18789999999999907 0.5566999999999993,0.19040000000000035 0.5564000000000036,0.19909999999999783 0.554700000000004,0.20179999999999865 0.5506000000000029,0.19960000000000022 0.5542000000000016,0.19069999999999965 0.5531000000000006,0.18929999999999936 0.551400000000001,0.19239999999999924 0.5472000000000037,0.19429999999999836 0.5503,0.18519999999999825 0.5478000000000023,0.18659999999999854 0.5467000000000013,0.17660000000000053 0.5397000000000034,0.17129999999999868 0.5386000000000024,0.17129999999999868 0.539200000000001,0.17879999999999896 0.5356000000000023,0.18379999999999797 0.5320000000000036,0.18379999999999797 0.5236000000000018,0.18019999999999925 0.5223000000000013,0.17769999999999797 0.5228000000000037,0.17379999999999995 0.5161000000000016,0.17800000000000082 0.5103000000000009,0.17820000000000036 0.5035999999999987,0.17569999999999908 0.5016999999999996,0.17099999999999937 0.49609999999999843,0.16769999999999996 0.491100000000003,0.16959999999999908 0.491100000000003,0.17350000000000065 0.48920000000000385,0.17269999999999897 0.4906000000000006,0.17409999999999926 0.4894999999999996,0.17549999999999955 0.4870000000000019,0.17129999999999868 0.48449999999999704,0.17180000000000106 0.48389999999999844,0.16929999999999978 0.48559999999999803,0.16799999999999926 0.4878,0.1684999999999981 0.48810000000000286,0.1670999999999978 0.4819999999999993,0.16460000000000008 0.478900000000003,0.15850000000000009 0.48449999999999704,0.15850000000000009 0.4819999999999993,0.1515999999999984 0.4923000000000002,0.14349999999999952 0.49499999999999744,0.1463000000000001 0.498899999999999,0.14239999999999853 0.5046999999999997,0.1416000000000004 0.5056000000000012,0.14349999999999952 0.5095000000000027,0.1446000000000005 0.5174999999999983,0.14069999999999894 0.5234000000000023,0.14409999999999812 0.5305999999999997,0.1448999999999998 0.5320000000000036,0.1465999999999994 0.536999999999999,0.14179999999999993 0.5397999999999996,0.1413000000000011 0.5456000000000003,0.1495999999999995 0.5495000000000019,0.14569999999999794 0.5497999999999976,0.14209999999999923 0.5484000000000009,0.14349999999999952 0.5439000000000007,0.14269999999999783 0.542500000000004,0.13599999999999923 0.5472999999999999,0.13159999999999883 0.549199999999999,0.1341000000000001 0.5517000000000039,0.13129999999999953 0.5538999999999987,0.13489999999999824 0.5555999999999983,0.12959999999999994 0.5600000000000023,0.12429999999999808 0.5656000000000034,0.12659999999999982 0.5692000000000021,0.13299999999999912 0.5801999999999978,0.13680000000000092 0.5822000000000003,0.13149999999999906 0.5797999999999988,0.12819999999999965 0.5799999999999983,0.12349999999999994 0.5694999999999979,0.11570000000000036 0.5628000000000029,0.0995999999999988 0.5641999999999996,0.08099999999999952 0.5664000000000016,0.0774000000000008 0.5647999999999982,0.07629999999999981 0.5656000000000034,0.06489999999999796 0.5643999999999991,0.05600000000000094 0.5625,0.05549999999999855 0.5623000000000005,0.05269999999999797 0.559199999999997,0.049900000000000944 0.5611000000000033,0.041799999999998505 0.5654000000000039,0.03599999999999781 0.37700000000000244,0.001300000000000523 0.3620000000000019,0.0 0.2881,0.021599999999999397 0.25800000000000267,0.033200000000000784 0.19780000000000086,0.07069999999999865 0.19190000000000396,0.07600000000000051 0.13689999999999714,0.17520000000000024 0.10679999999999978,0.2254000000000005 0.07520000000000238,0.27369999999999806 0.0677999999999983,0.27280000000000015 0.0671999999999997,0.2737999999999978 0.07529999999999859,0.2745999999999995 0.09000000000000341,0.2792999999999992 0.11950000000000216,0.29410000000000025 0.12389999999999901,0.29990000000000094 0.12810000000000343,0.3166000000000011 0.1319999999999979,0.32039999999999935 0.13309999999999889,0.3312999999999988 0.12950000000000017,0.3406999999999982 0.12749999999999773,0.3410000000000011 0.11999999999999744,0.3498999999999981 0.11670000000000158,0.36100000000000065 0.11720000000000397,0.36629999999999896 0.1208999999999989,0.37020000000000053 0.12060000000000315,0.37460000000000093 0.12389999999999901,0.3871000000000002 0.12389999999999901,0.3902000000000001 0.11999999999999744,0.39539999999999864 0.12219999999999942,0.3979999999999997 0.12250000000000227,0.4068000000000005 0.12530000000000285,0.4090999999999987 0.12250000000000227,0.4106999999999985 0.12340000000000373,0.4181999999999988 0.1208999999999989,0.4209999999999994 0.12169999999999703,0.43159999999999954 0.11280000000000001,0.44129999999999825 0.113900000000001,0.44909999999999783 0.1022000000000034,0.4585000000000008 0.10110000000000241,0.4637999999999991 0.0981000000000023,0.4656999999999982 0.09309999999999974,0.4660000000000011 0.09000000000000341,0.4693000000000005 0.08590000000000231,0.4870999999999981 0.07780000000000342,0.4917999999999978 0.07610000000000383,0.4966000000000008 0.07229999999999848,0.4980000000000011 0.06499999999999773,0.5067999999999984 0.06479999999999819,0.5098999999999982 0.060600000000000875,0.5126999999999988 0.06029999999999802,0.5412999999999997 0.06450000000000244,0.5504999999999995 0.0630999999999986,0.5518000000000001 0.06609999999999872,0.5565999999999995 0.07469999999999999,0.5635000000000012 0.07699999999999818,0.5676999999999985 0.07450000000000045,0.5866000000000007 0.06920000000000215,0.5976999999999997 0.06920000000000215,0.6035000000000004 0.061700000000001864,0.6137999999999977 0.05389999999999873,0.6110000000000007 0.05470000000000397,0.6127000000000002 0.06110000000000326,0.6143000000000001 0.05919999999999703,0.6185000000000009 0.049500000000001876,0.6291000000000011 0.036700000000003286,0.6365999999999978 0.033900000000002706,0.6416000000000004 0.03730000000000189,0.662700000000001 0.036700000000003286,0.6681999999999988 0.03860000000000241,0.6731999999999978 0.036700000000003286,0.6782000000000004 0.03889999999999816,0.6843000000000004 0.031399999999997874,0.7132000000000005 0.02949999999999875,0.7137999999999991 0.03059999999999974,0.7198999999999991 0.02779999999999916,0.7295999999999978 0.031100000000002126,0.7367999999999988 0.029200000000003,0.7387999999999977 0.02949999999999875,0.7435000000000009 0.027200000000000557,0.7459999999999987 0.031100000000002126,0.764599999999998 0.02750000000000341,0.7687999999999988 0.028599999999997294,0.7713000000000001 0.026099999999999568,0.7826999999999984 0.027000000000001023,0.7910000000000004 0.025300000000001432,0.7955000000000005 0.02750000000000341,0.7992999999999988 0.026099999999999568,0.8081999999999994 0.027000000000001023,0.8185000000000002 0.03170000000000073,0.8248999999999995 0.03280000000000172,0.8345999999999982 0.02949999999999875,0.8532000000000011 0.03030000000000399,0.8606999999999978 0.02839999999999776,0.8624000000000009 0.028599999999997294,0.8795999999999999 0.02389999999999759,0.8793000000000006 0.022800000000003706,0.8807000000000009 0.025900000000000034,0.8845999999999989 0.026099999999999568,0.8920999999999992 0.024500000000003297,0.8937999999999988 0.025900000000000034,0.8963000000000001 0.02230000000000132,0.9177 0.02559999999999718,0.9201999999999977 0.027000000000001023,0.9235000000000007 0.022500000000000853,0.9292999999999978 0.01670000000000016,0.9310000000000009 0.022800000000003706,0.9432000000000009 0.01839999999999975,0.9496000000000002 0.014200000000002433,0.9481999999999999 0.013399999999997192,0.9507000000000012 0.013399999999997192,0.9541000000000004 0.019199999999997885,0.9637999999999991 0.017800000000001148,0.9712999999999994 0.02499999999999858,0.991299999999999 0.025300000000001432,1.0006999999999984 0.03280000000000172,1.0180000000000007 0.031399999999997874,1.020199999999999 0.03200000000000358,1.025500000000001 0.02949999999999875,1.0302000000000007 0.025300000000001432,1.0329999999999977 0.02109999999999701,1.0288000000000004 0.019700000000000273,1.0332000000000008 0.02360000000000184,1.0356999999999985 0.027200000000000557,1.0410000000000004 0.03860000000000241,1.0457 0.03999999999999915,1.0481999999999978 0.045000000000001705,1.0492999999999988 0.04809999999999803,1.0530000000000008 0.052300000000002456,1.053799999999999 0.05530000000000257,1.056799999999999 0.05250000000000199,1.0579 0.05360000000000298,1.061 0.0630999999999986,1.0595999999999997 0.06920000000000215,1.0490999999999993 0.07310000000000372,1.046800000000001 0.07469999999999999,1.0370999999999988 0.07750000000000057,1.0337999999999994 0.07639999999999958,1.031600000000001 0.07750000000000057,1.0271000000000008 0.08480000000000132,1.0245999999999995 0.0870000000000033,1.015699999999999 0.08420000000000272,1.011800000000001 0.08749999999999858,0.9954000000000001 0.0975000000000037,0.9907000000000004 0.09890000000000043,0.9921000000000006 0.102800000000002,0.9915999999999983 0.11169999999999902,0.996299999999998 0.11249999999999716,0.9990999999999985 0.11030000000000229,1.0010000000000012 0.11169999999999902,1.0037999999999982 0.10670000000000357,1.0048999999999992 0.10609999999999786,1.0088000000000008 0.09980000000000189,1.011800000000001 0.09890000000000043,1.0152 0.09609999999999985,1.0176999999999978 0.0981000000000023,1.0184999999999995 0.0975000000000037,1.0198999999999998 0.10090000000000288,1.0190999999999981 0.10670000000000357,1.0203999999999986 0.10170000000000101,1.0288000000000004 0.09590000000000032,1.0335 0.10000000000000142,1.0370999999999988 0.10000000000000142,1.0410000000000004 0.09499999999999886,1.0471000000000004 0.09199999999999875,1.0485000000000007 0.09000000000000341,1.0542999999999978 0.08339999999999748,1.053799999999999 0.08220000000000027,1.0551999999999992 0.08339999999999748,1.061 0.08749999999999858,1.0687999999999995 0.08670000000000044,1.072099999999999 0.09340000000000259,1.074300000000001 0.09859999999999758,1.083199999999998 0.09859999999999758,1.0862999999999978 0.09530000000000172,1.0896000000000008 0.09980000000000189,1.094100000000001 0.09890000000000043,1.1012999999999984 0.0975000000000037,1.1023999999999994 0.09839999999999804,1.1045999999999978 0.08950000000000102,1.1216000000000008 0.091700000000003,1.1226999999999983 0.0910999999999973,1.1265999999999998 0.08729999999999905,1.1287999999999982 0.07950000000000301,1.128499999999999 0.0694999999999979,1.121299999999998 0.062300000000000466,1.1226999999999983 0.06029999999999802,1.124299999999998 0.06029999999999802,1.127399999999998 0.05640000000000356,1.1296 0.0625,1.139599999999998 0.061700000000001864,1.140699999999999 0.06390000000000384,1.1453999999999986 0.06669999999999732,1.1460000000000008 0.0688999999999993,1.1446000000000005 0.07169999999999987,1.146799999999999 0.07670000000000243,1.1465999999999994 0.08030000000000115,1.1521000000000008 0.08339999999999748,1.1515999999999984 0.08109999999999928,1.1487999999999978 0.08169999999999789,1.146799999999999 0.08449999999999847,1.1479 0.08670000000000044,1.1529999999999987 0.09140000000000015,1.151799999999998 0.09839999999999804,1.1529999999999987 0.10000000000000142,1.1495999999999995 0.10640000000000072,1.1446000000000005 0.10029999999999717,1.1507000000000005 0.09920000000000329,1.1545999999999985 0.10609999999999786,1.1548999999999978 0.11059999999999803,1.1531999999999982 0.11030000000000229,1.1545999999999985 0.10479999999999734,1.156600000000001 0.10450000000000159,1.1587999999999994 0.10560000000000258,1.1579999999999977 0.10609999999999786,1.1585 0.10450000000000159,1.1613000000000007 0.10000000000000142,1.1630000000000003 0.10589999999999833,1.1643000000000008 0.10840000000000316,1.1674000000000007 0.10589999999999833,1.1705000000000005 0.10589999999999833,1.1723999999999997 0.10840000000000316,1.1738 0.10589999999999833,1.1782000000000004 0.10670000000000357,1.181000000000001 0.1092000000000013,1.1827000000000005 0.11169999999999902,1.1820999999999984 0.10999999999999943,1.1768 0.11280000000000001,1.1691000000000003 0.11979999999999791,1.1681999999999988 0.12590000000000146,1.1698999999999984 0.12839999999999918,1.168499999999998 0.1296999999999997,1.162399999999998 0.13250000000000028,1.1617999999999995 0.13360000000000127,1.1599000000000004 0.1372,1.162399999999998 0.14339999999999975,1.1601999999999997 0.14170000000000016,1.153500000000001 0.14280000000000115,1.1491000000000007 0.1372,1.1409999999999982 0.1377999999999986,1.1373999999999995 0.134999999999998,1.1315999999999988 0.13530000000000086,1.1287999999999982 0.1313999999999993,1.121299999999998 0.12749999999999773,1.1195999999999984 0.12279999999999802,1.1129999999999995 0.12420000000000186,1.1106999999999978 0.12340000000000373,1.1035000000000004 0.12810000000000343,1.1006999999999998 0.13309999999999889,1.1015999999999977 0.13280000000000314,1.0976999999999997 0.13530000000000086,1.0923999999999978 0.13110000000000355,1.0734999999999992 0.13360000000000127,1.0713000000000008 0.13560000000000372,1.0730000000000004 0.14229999999999876,1.0737999999999985 0.14339999999999975,1.070999999999998 0.1413999999999973,1.0713000000000008 0.14110000000000156,1.0696000000000012 0.14339999999999975,1.066600000000001 0.14730000000000132,1.0676999999999985 0.1478000000000037,1.0662999999999982 0.1535999999999973,1.065999999999999 0.15390000000000015,1.0615999999999985 0.15859999999999985,1.0595999999999997 0.1623000000000019,1.055699999999998 0.16029999999999944,1.047699999999999 0.17139999999999844,1.040700000000001 0.17199999999999704,1.0424000000000007 0.17450000000000188,1.0420999999999978 0.17479999999999762,1.044599999999999 0.16859999999999786,1.0504999999999995 0.16920000000000357,1.0523999999999987 0.1753,1.0563000000000002 0.17730000000000246,1.0624000000000002 0.17479999999999762,1.0662999999999982 0.1717000000000013,1.0676999999999985 0.1706000000000003,1.070999999999998 0.17479999999999762,1.074300000000001 0.17419999999999902,1.0798999999999985 0.176400000000001,1.0835000000000008 0.176400000000001,1.091000000000001 0.18310000000000315,1.097100000000001 0.1781000000000006,1.1037999999999997 0.17949999999999733,1.107099999999999 0.1769999999999996,1.1103999999999985 0.1811000000000007,1.1117999999999988 0.17779999999999774,1.1137999999999977 0.1822999999999979,1.1137999999999977 0.188600000000001,1.1202000000000005 0.18529999999999802,1.1206999999999994 0.186399999999999,1.1235 0.18249999999999744,1.1263000000000005 0.18670000000000186,1.1317999999999984 0.19140000000000157,1.1310000000000002 0.19590000000000174,1.1357 0.19480000000000075,1.1390999999999991 0.19140000000000157,1.140699999999999 0.19780000000000086,1.1423999999999985 0.198599999999999,1.1371000000000002 0.20340000000000202,1.1359999999999992 0.204500000000003,1.1387999999999998 0.20230000000000103,1.1409999999999982 0.20250000000000057,1.1432000000000002 0.204500000000003,1.1418 0.20609999999999928,1.1432000000000002 0.20530000000000115,1.1376999999999988 0.20949999999999847,1.1342999999999996 0.2113999999999976,1.1287999999999982 0.21450000000000102,1.128499999999999 0.216700000000003,1.1251999999999995 0.228900000000003,1.1260000000000012 0.2331000000000003,1.1293000000000006 0.23199999999999932,1.1399000000000008 0.2284000000000006,1.1418 0.22979999999999734,1.145199999999999 0.23530000000000229,1.1487999999999978 0.23729999999999762,1.1529999999999987 0.24110000000000298,1.1545999999999985 0.24220000000000397,1.157399999999999 0.240000000000002,1.159600000000001 0.2406000000000006,1.162399999999998 0.2378,1.1616 0.23669999999999902,1.156600000000001 0.22809999999999775,1.1526999999999994 0.22390000000000043,1.1531999999999982 0.22420000000000329,1.1515999999999984 0.21450000000000102,1.1526999999999994 0.20889999999999986,1.1568000000000005 0.20060000000000144,1.1509999999999998 0.19250000000000256,1.151299999999999 0.188600000000001,1.1576999999999984 0.18249999999999744,1.1587999999999994 0.17609999999999815,1.1640999999999977 0.17220000000000368,1.1705000000000005 0.1700000000000017,1.169599999999999 0.1700000000000017,1.1735000000000007 0.165300000000002,1.1780000000000008 0.16499999999999915,1.1827000000000005 0.16810000000000258,1.1834999999999987 0.164200000000001,1.1904000000000003 0.16250000000000142,1.2027 0.1636000000000024,1.208199999999998 0.16610000000000014,1.2116000000000007 0.16279999999999717,1.216000000000001 0.1606000000000023,1.222999999999999 0.16170000000000329,1.225200000000001 0.1606000000000023,1.2262999999999984 0.16279999999999717,1.228200000000001 0.15979999999999706,1.2323999999999984 0.155300000000004,1.2334999999999994 0.15809999999999746,1.2363 0.15610000000000213,1.237099999999998 0.15610000000000213,1.2417999999999978 0.15780000000000172,1.2456999999999994 0.16029999999999944,1.2468000000000004 0.1606000000000023,1.249600000000001 0.1659000000000006,1.252399999999998 0.16499999999999915,1.2598999999999982 0.17419999999999902,1.2628999999999984 0.1753,1.2652 0.17970000000000397,1.2673999999999985 0.17949999999999733,1.2710000000000008 0.18140000000000356,1.271799999999999 0.17949999999999733,1.272400000000001 0.18140000000000356,1.2757000000000005 0.17609999999999815,1.276299999999999 0.177500000000002,1.2790999999999997 0.17390000000000327,1.2804000000000002 0.17360000000000042,1.2840999999999987 0.17139999999999844,1.285499999999999 0.16980000000000217,1.2896 0.16859999999999786,1.2942999999999998 0.16980000000000217,1.2962999999999987 0.16839999999999833,1.2971000000000004 0.17090000000000316,1.3030000000000008 0.16980000000000217,1.3081999999999994 0.1717000000000013,1.3095999999999997 0.1700000000000017,1.3115999999999985 0.1833999999999989,1.3185000000000002 0.18529999999999802,1.320999999999998 0.18469999999999942,1.322700000000001 0.1875,1.3232 0.19250000000000256,1.3370999999999995 0.19639999999999702,1.338799999999999 0.20420000000000016,1.3373999999999988 0.20669999999999789,1.3323999999999998 0.20889999999999986,1.3318000000000012 0.2103000000000037,1.333199999999998 0.21229999999999905,1.3279999999999994 0.216700000000003,1.3230000000000004 0.21889999999999787,1.322700000000001 0.2184000000000026,1.3204999999999991 0.22339999999999804,1.316600000000001 0.2225000000000037,1.3138000000000005 0.22390000000000043,1.3079 0.21860000000000213,1.3020999999999994 0.21860000000000213,1.2924000000000007 0.2160999999999973,1.293800000000001 0.21470000000000056,1.2927 0.21529999999999916,1.290700000000001 0.21640000000000015,1.2924000000000007 0.21999999999999886,1.2910000000000004 0.22059999999999746,1.2942999999999998 0.2261000000000024,1.293800000000001 0.23109999999999786,1.2955000000000005 0.23230000000000217,1.2973999999999997 0.23140000000000072,1.3016000000000005 0.23749999999999716,1.300699999999999 0.24669999999999703,1.306799999999999 0.24249999999999972,1.3204999999999991 0.25,1.3230000000000004 0.2533999999999992,1.328800000000001 0.2522999999999982,1.3338 0.2469999999999999,1.334299999999999 0.2505999999999986,1.3431999999999995 0.24860000000000326,1.3476999999999997 0.2494999999999976,1.350200000000001 0.24669999999999703,1.350999999999999 0.2469999999999999,1.354099999999999 0.2436000000000007,1.354099999999999 0.24280000000000257,1.3554999999999993 0.2325000000000017,1.3549000000000007 0.2295000000000016,1.3526999999999987 0.22560000000000002,1.3582 0.22109999999999985,1.3598999999999997 0.22109999999999985,1.363199999999999 0.2184000000000026,1.3634999999999984 0.2214000000000027,1.3645999999999994 0.22090000000000032,1.3720999999999997 0.22420000000000329,1.3787999999999982 0.22359999999999758,1.3824000000000005 0.22109999999999985,1.3841 0.2214000000000027,1.3862999999999985 0.22809999999999775,1.3916000000000004 0.2295000000000016,1.3946000000000005 0.22749999999999915,1.3934999999999995 0.22749999999999915,1.395199999999999 0.22979999999999734,1.4001999999999981 0.23199999999999932,1.4015999999999984 0.2336000000000027,1.4007000000000005 0.23279999999999745,1.3970999999999982 0.2342000000000013,1.3932000000000002 0.24220000000000397,1.395199999999999 0.2453000000000003,1.3981999999999992 0.24110000000000298,1.4026999999999994 0.24090000000000344,1.4048999999999978 0.23559999999999803,1.4076999999999984 0.2342000000000013,1.4101999999999997 0.2378,1.4116 0.2383999999999986,1.4151999999999987 0.24249999999999972,1.4167999999999985 0.24199999999999733,1.4231999999999978 0.24029999999999774,1.424599999999998 0.24810000000000088,1.4242999999999988 0.25140000000000384,1.4270999999999994 0.25090000000000146,1.4292999999999978 0.25390000000000157,1.4299 0.25560000000000116,1.4341000000000008 0.25500000000000256,1.4374000000000002 0.2563999999999993,1.4376999999999995 0.2546999999999997,1.440999999999999 0.2591999999999999,1.4473999999999982 0.2580999999999989,1.453199999999999 0.2597999999999985,1.4545999999999992 0.25780000000000314,1.4565999999999981 0.255900000000004,1.4654999999999987 0.25730000000000075,1.474899999999998 0.2552999999999983,1.4792999999999985 0.25670000000000215,1.4837999999999987 0.255900000000004,1.4865999999999993 0.2524999999999977,1.4877000000000002 0.2528000000000006,1.4966000000000008 0.25090000000000146,1.4982000000000006 0.2494999999999976,1.504100000000001 0.2522999999999982,1.5067999999999984 0.2522999999999982,1.5126999999999988 0.25390000000000157,1.5115999999999978 0.2546999999999997,1.5137999999999998 0.2569999999999979,1.5142999999999986 0.26089999999999947,1.509599999999999 0.2633999999999972,1.5115999999999978 0.259999999999998,1.5076999999999998 0.2633999999999972,1.5029000000000003 0.2633999999999972,1.499299999999998 0.26140000000000185,1.4985 0.2633999999999972,1.4940999999999995 0.265900000000002,1.4945999999999984 0.265900000000002,1.4915999999999983 0.26950000000000074,1.4887999999999977 0.2691999999999979,1.487099999999998 0.27309999999999945,1.487099999999998 0.2728000000000037,1.4898999999999987 0.27479999999999905,1.4921000000000006 0.2860999999999976,1.4970999999999997 0.28529999999999944,1.5046 0.28779999999999717,1.5071000000000012 0.2867000000000033,1.5154999999999994 0.2884000000000029,1.5159999999999982 0.29229999999999734,1.5137999999999998 0.29809999999999803,1.5149000000000008 0.29999999999999716,1.5170999999999992 0.2961000000000027,1.520199999999999 0.2978000000000023,1.525500000000001 0.2961000000000027,1.5279999999999987 0.2972000000000037,1.5320999999999998 0.2956000000000003,1.5335 0.2989000000000033,1.5381999999999998 0.2978000000000023,1.5427 0.30230000000000246,1.5431999999999988 0.29999999999999716,1.5554999999999986 0.30230000000000246,1.556000000000001 0.3031000000000006,1.5593000000000004 0.30170000000000385,1.5612999999999992 0.3042000000000016,1.5635000000000012 0.30279999999999774,1.5642999999999994 0.3019999999999996,1.5701999999999998 0.29699999999999704,1.572700000000001 0.2972000000000037,1.5737999999999985 0.3042000000000016,1.5740999999999978 0.3166999999999973,1.5807000000000002 0.32979999999999876,1.583199999999998 0.33729999999999905,1.5866000000000007 0.3434000000000026,1.5913000000000004 0.342800000000004,1.5943000000000005 0.34729999999999706,1.597999999999999 0.34949999999999903,1.6021 0.35589999999999833,1.6015999999999977 0.35589999999999833,1.5992999999999995 0.35999999999999943,1.597100000000001 0.36590000000000344,1.5995999999999988 0.3667000000000016,1.603200000000001 0.3697999999999979,1.6035000000000004 0.372799999999998,1.609300000000001 0.37640000000000384,1.6103999999999985 0.3766999999999996,1.609099999999998 0.3802999999999983,1.609300000000001 0.3836000000000013,1.6006999999999998 0.38750000000000284,1.599899999999998 0.4134000000000029,1.6134999999999984 0.4170000000000016,1.6176999999999992 0.416400000000003,1.6226999999999983 0.4200000000000017,1.6277000000000008 0.41839999999999833,1.634599999999999 0.42029999999999745,1.641300000000001 0.4328000000000003,1.650500000000001 0.43670000000000186,1.6509999999999998 0.4369999999999976,1.653500000000001 0.4481000000000037,1.6585 0.4508999999999972,1.6651999999999987 0.44780000000000086,1.6651999999999987 0.4450000000000003,1.668800000000001 0.4461000000000013,1.6712999999999987 0.448599999999999,1.671800000000001 0.4502999999999986,1.6759999999999984 0.45230000000000103,1.675699999999999 0.45250000000000057,1.668499999999998 0.45420000000000016,1.6677 0.4613999999999976,1.669599999999999 0.47169999999999845,1.6691000000000003 0.4784000000000006,1.6740999999999993 0.4878,1.6692999999999998 0.4969999999999999,1.6738 0.498899999999999,1.678799999999999 0.5028000000000006,1.6829 0.5022999999999982,1.6843000000000004 0.5052999999999983,1.6862999999999992 0.5133999999999972,1.6876999999999995 0.5213999999999999,1.684899999999999 0.5225000000000009,1.6831999999999994 0.5238999999999976,1.6831999999999994 0.5234000000000023,1.6857000000000006 0.5294999999999987,1.6862999999999992 0.5300000000000011,1.6845999999999997 0.5264000000000024,1.684899999999999 0.5266999999999982,1.6820999999999984 0.5249999999999986,1.6845999999999997 0.5259,1.6792999999999978 0.5330999999999975,1.6780000000000008 0.5352999999999994,1.6766000000000005 0.5345000000000013,1.6754999999999995 0.539200000000001,1.6740999999999993 0.5409000000000006,1.6712999999999987 0.5733999999999995,1.662700000000001 0.5786000000000016,1.6592999999999982 0.5814000000000021,1.6554000000000002 0.590600000000002,1.6521000000000008 0.5936000000000021,1.6477000000000004 0.5989000000000004,1.6477000000000004 0.599499999999999,1.6443000000000012 0.6045000000000016,1.6402 0.6088999999999984,1.639599999999998 0.6131000000000029,1.6357 0.621699999999997,1.6331999999999987 0.623899999999999,1.628499999999999 0.6210999999999984,1.6206999999999994 0.6206000000000031,1.6106999999999978 0.6236000000000033,1.6037999999999997 0.6206000000000031,1.599899999999998 0.6206000000000031,1.596 0.6278000000000006,1.5957000000000008 0.6289000000000016,1.5931999999999995 0.625,1.5951999999999984 0.6199999999999974,1.594100000000001 0.6208999999999989,1.5828999999999986 0.6272999999999982,1.5734999999999992 0.6300000000000026,1.5723999999999982 0.6334000000000017,1.564899999999998 0.6441999999999979,1.556000000000001 0.643100000000004,1.5546000000000006 0.6381000000000014,1.5577000000000005 0.6375000000000028,1.5554999999999986 0.6424999999999983,1.550699999999999 0.6625000000000014,1.5401999999999987 0.6638999999999982,1.526299999999999 0.6623000000000019,1.5176999999999978 0.6645000000000039,1.5109999999999992 0.6645000000000039,1.4970999999999997 0.6666999999999987,1.4938000000000002 0.6698000000000022,1.4938000000000002 0.6856000000000009,1.4834999999999994 0.698599999999999,1.477999999999998 0.7128000000000014,1.4768000000000008 0.7158999999999978,1.4799000000000007 0.7188999999999979,1.479099999999999 0.7220000000000013,1.4804999999999993 0.7216999999999985,1.485199999999999 0.7239000000000004,1.4806999999999988 0.7192000000000007,1.477999999999998 0.7505999999999986,1.4834999999999994 0.7516999999999996,1.4907000000000004 0.7516999999999996,1.4832 0.7597000000000023,1.4837999999999987 0.777000000000001,1.4795999999999978 0.7867000000000033,1.4738000000000007 0.7989000000000033,1.4618000000000002 0.8085999999999984,1.4568000000000012 0.8119999999999976,1.4573999999999998 0.8241999999999976,1.4527 0.8363999999999976,1.445999999999998 0.8391999999999982,1.4467999999999996 0.863900000000001,1.4677000000000007 0.8866999999999976,1.459299999999999 0.8853000000000009,1.458199999999998 0.8642000000000039,1.466000000000001 0.8541999999999987,1.457699999999999 0.8536000000000001,1.4548999999999985 0.8667000000000016,1.4588 0.8703000000000003,1.4534999999999982 0.8659000000000034,1.452099999999998 0.8642000000000039,1.4545999999999992 0.8609000000000009,1.453800000000001 0.8588999999999984,1.4548999999999985 0.8541999999999987,1.4524000000000008 0.842800000000004,1.4435000000000002 0.8447000000000031,1.4406999999999996 0.8438999999999979,1.4362999999999992 0.8481000000000023,1.436799999999998 0.8772999999999982,1.4507000000000012 0.8755999999999986,1.4543 0.8781000000000034,1.4512999999999998 0.8817000000000021,1.4528999999999996 0.8823000000000008,1.4548999999999985 0.8825000000000003,1.4527 0.8481000000000023,1.436 0.839500000000001,1.433799999999998 0.8400000000000034,1.4284999999999997 0.8374999999999986,1.4179999999999993 0.8384,1.406600000000001 0.8410999999999973,1.4038000000000004 0.8423000000000016,1.3926999999999978 0.8447000000000031,1.3926999999999978 0.8436000000000021,1.3871000000000002 0.8460999999999999,1.3862999999999985 0.8475000000000037,1.3824000000000005 0.8530999999999977,1.3824000000000005 0.8477999999999994,1.3815999999999988 0.8513999999999982,1.368199999999998 0.8520000000000039,1.3476999999999997 0.8611000000000004,1.3305000000000007 0.8611000000000004,1.3246000000000002 0.8586000000000027,1.3216 0.8573000000000022,1.3126999999999995 0.8588999999999984,1.311799999999998 0.8588999999999984,1.3093000000000004 0.8556000000000026,1.3051999999999992 0.8577999999999975,1.3016000000000005 0.8575000000000017,1.2985000000000007 0.8520000000000039,1.2931999999999988 0.8509000000000029,1.2887999999999984 0.8464000000000027,1.2881999999999998 0.8449999999999989,1.2837999999999994 0.8414000000000001,1.2820999999999998 0.8384,1.284600000000001 0.842800000000004,1.290499999999998 0.8397000000000006,1.2901999999999987 0.8391999999999982,1.2881999999999998 0.8384,1.2910000000000004 0.8408999999999978,1.2941000000000003 0.8400000000000034,1.2981999999999978 0.841700000000003,1.3004999999999995 0.8367000000000004,1.3046000000000006 0.8327999999999989,1.3046000000000006 0.8355999999999995,1.3018 0.8275000000000006,1.2901999999999987 0.8267000000000024,1.2806999999999995 0.8209000000000017,1.2703999999999986 0.8141999999999996,1.270199999999999 0.8100000000000023,1.2743000000000002 0.8023000000000025,1.2776999999999994 0.8027999999999977,1.2715999999999994 0.804700000000004,1.2690999999999981 0.8085999999999984,1.2710000000000008 0.8128000000000029,1.2682000000000002 0.8153000000000006,1.2632000000000012 0.8233999999999995,1.260200000000001 0.8241999999999976,1.258499999999998 0.8263999999999996,1.2592999999999996 0.8322000000000003,1.2574000000000005 0.8331000000000017,1.255399999999998 0.8333999999999975,1.2609999999999992 0.8359000000000023,1.2640999999999991 0.8391999999999982,1.2640999999999991 0.8397000000000006,1.2682000000000002 0.8430999999999997,1.2682000000000002 0.8449999999999989,1.264599999999998 0.8502999999999972,1.2623999999999995 0.8481000000000023,1.2591 0.8569999999999993,1.2513000000000005 0.8575000000000017,1.247399999999999 0.8556000000000026,1.2445999999999984 0.8560999999999979,1.2387999999999977 0.8545000000000016,1.2391000000000005 0.8506,1.2337999999999987 0.8506,1.2316000000000003 0.852800000000002,1.2299000000000007 0.8470000000000013,1.228200000000001 0.8447000000000031,1.2256999999999998 0.8449999999999989,1.2224000000000004 0.8489000000000004,1.222100000000001 0.8455999999999975,1.2215999999999987 0.8449999999999989,1.2193000000000005 0.8492000000000033,1.219899999999999 0.8455999999999975,1.2177000000000007 0.8455999999999975,1.2109999999999985 0.8436000000000021,1.208199999999998 0.8397000000000006,1.2071000000000005 0.840600000000002,1.2034999999999982 0.8353000000000037,1.2073999999999998 0.8333999999999975,1.2062999999999988 0.8314000000000021,1.209299999999999 0.8278000000000034,1.2106999999999992 0.8109000000000037,1.209299999999999 0.8089000000000013,1.216000000000001 0.811399999999999,1.2167999999999992 0.813600000000001,1.2151999999999994 0.8147999999999982,1.2156999999999982 0.8123000000000005,1.2195999999999998 0.8134000000000015,1.2207000000000008 0.811399999999999,1.2201999999999984 0.810299999999998,1.2231999999999985 0.8111000000000033,1.2242999999999995 0.8160999999999987,1.2231999999999985 0.8164000000000016,1.2242999999999995 0.8125,1.2302 0.8074999999999974,1.232099999999999 0.8078000000000003,1.234099999999998 0.7942000000000036,1.2306999999999988 0.7850000000000037,1.2268000000000008 0.7817000000000007,1.2238000000000007 0.7798000000000016,1.2262999999999984 0.7775000000000034,1.2262999999999984 0.7683999999999997,1.2207000000000008 0.7725000000000009,1.2163000000000004 0.7775000000000034,1.216000000000001 0.7798000000000016,1.2179000000000002 0.7805999999999997,1.2146000000000008 0.790300000000002,1.2149 0.7911000000000001,1.209900000000001 0.7935999999999979,1.213799999999999 0.803600000000003,1.2132000000000005 0.8019999999999996,1.2059999999999995 0.7978000000000023,1.2055000000000007 0.7959000000000032,1.2017999999999986 0.7967000000000013,1.1984999999999992 0.8006000000000029,1.1966 0.7999999999999972,1.191600000000001 0.802500000000002,1.1912999999999982 0.8042000000000016,1.1929999999999978 0.8094999999999999,1.1923999999999992 0.8094999999999999,1.1895999999999987 0.8139000000000038,1.1912999999999982 0.8147999999999982,1.1892999999999994 0.8186000000000035,1.1888000000000005 0.818400000000004,1.184899999999999 0.8147999999999982,1.180699999999998 0.8164000000000016,1.1674000000000007 0.811399999999999,1.1631999999999998 0.8128000000000029,1.1599000000000004 0.810299999999998,1.1484999999999985 0.8064000000000036,1.151299999999999 0.8074999999999974,1.1495999999999995 0.8019999999999996,1.145199999999999 0.7984000000000009,1.1465999999999994 0.791400000000003,1.1432000000000002 0.7828000000000017,1.1437999999999988 0.778100000000002,1.1385000000000005 0.780300000000004,1.134599999999999 0.7706000000000017,1.1355000000000004 0.7631000000000014,1.1331999999999987 0.7608999999999995,1.1296 0.7569999999999979,1.1281999999999996 0.7561000000000035,1.1237999999999992 0.7533999999999992,1.121299999999998 0.7531000000000034,1.1179999999999986 0.7550000000000026,1.1171000000000006 0.7556000000000012,1.1141000000000005 0.7539000000000016,1.1134999999999984 0.7522999999999982,1.109099999999998 0.7533999999999992,1.1073999999999984 0.7505999999999986,1.1056999999999988 0.7520000000000024,1.1015999999999977 0.7545000000000002,1.100200000000001 0.7531000000000034,1.0967999999999982 0.7545000000000002,1.0951999999999984 0.758899999999997,1.0967999999999982 0.7633999999999972,1.096 0.7606000000000037,1.0927000000000007 0.759999999999998,1.084299999999999 0.7563999999999993,1.084299999999999 0.7546999999999997,1.0807000000000002 0.7494999999999976,1.0593000000000004 0.7475000000000023,1.055699999999998 0.7441999999999993,1.0549 0.740000000000002,1.047699999999999 0.7396999999999991,1.0410000000000004 0.7413999999999987,1.0337999999999994 0.75,1.0295999999999985 0.7516999999999996,1.0257000000000005 0.7550000000000026,1.0241000000000007 0.7556000000000012,1.0142999999999986 0.7586000000000013,1.0074000000000005 0.7655999999999992,1.005700000000001 0.7706000000000017,1.0027000000000008 0.7824999999999989,1.008499999999998 0.7881,1.0098999999999982 0.8006000000000029,1.0067999999999984 0.7974999999999994,1.005700000000001 0.7899999999999991,1.0091 0.784799999999997,1.008499999999998 0.7719999999999985,1.0020999999999987 0.7760999999999996,0.9980000000000011 "></polygon><polygon points="0.8252999999999986,0.9416000000000011 0.8361000000000018,0.9371000000000009 0.8384,0.934899999999999 0.8389000000000024,0.9306999999999981 0.8327999999999989,0.9306999999999981 0.829500000000003,0.9280000000000008 0.8292000000000002,0.9334999999999987 0.8258999999999972,0.9351999999999983 0.8252999999999986,0.9388000000000005 0.8231000000000037,0.9404000000000003 0.8241999999999976,0.9432000000000009 0.8252999999999986,0.9416000000000011 "></polygon><polygon points="0.8342000000000027,1.2698999999999998 0.8348000000000013,1.2687999999999988 0.8333999999999975,1.2684999999999995 0.8325000000000031,1.2710000000000008 0.833599999999997,1.2715999999999994 0.8342000000000027,1.2698999999999998 "></polygon><polygon points="0.8385999999999996,1.2856999999999985 0.8374999999999986,1.2849000000000004 0.8380999999999972,1.2829999999999977 0.8361000000000018,1.2829999999999977 0.8363999999999976,1.2856999999999985 0.8380999999999972,1.2867999999999995 0.8385999999999996,1.2856999999999985 "></polygon><polygon points="0.8588999999999984,1.2927 0.8522000000000034,1.2867999999999995 0.8460999999999999,1.2842999999999982 0.8464000000000027,1.2870999999999988 0.8506,1.2867999999999995 0.8547999999999973,1.2927 0.8588999999999984,1.2927 "></polygon><polygon points="0.8374999999999986,1.2912999999999997 0.837299999999999,1.2881999999999998 0.8361000000000018,1.287399999999998 0.8350000000000009,1.290700000000001 0.8374999999999986,1.2912999999999997 "></polygon><polygon points="0.5052999999999983,0.1684999999999981 0.505900000000004,0.16600000000000037 0.5039000000000016,0.16629999999999967 0.5020000000000024,0.1701999999999977 0.5063999999999993,0.17180000000000106 0.5067000000000021,0.16910000000000025 0.5052999999999983,0.1684999999999981 "></polygon><polygon points="0.0016999999999995907,0.4632000000000005 0.0020000000000024443,0.4616000000000007 0.0014000000000038426,0.4612999999999978 0.0,0.4632000000000005 0.0005999999999986017,0.46429999999999794 0.0016999999999995907,0.4632000000000005 "></polygon><polygon points="0.046100000000002694,1.0579 0.04480000000000217,1.056799999999999 0.043900000000000716,1.0584999999999987 0.04560000000000031,1.0591000000000008 0.046100000000002694,1.0579 "></polygon><polygon points="0.18359999999999843,1.1509999999999998 0.18950000000000244,1.1470999999999982 0.18999999999999773,1.1434999999999995 0.18730000000000047,1.1443000000000012 0.18590000000000373,1.147400000000001 0.1833999999999989,1.1477000000000004 0.18200000000000216,1.1515999999999984 0.18359999999999843,1.1509999999999998 "></polygon><polygon points="0.240000000000002,1.3987999999999978 0.24029999999999774,1.4009999999999998 0.24110000000000298,1.4015999999999984 0.24110000000000298,1.397400000000001 0.240000000000002,1.3987999999999978 "></polygon><polygon points="0.280300000000004,1.532399999999999 0.2834000000000003,1.5304000000000002 0.28359999999999985,1.5288000000000004 0.27720000000000056,1.5288000000000004 0.27669999999999817,1.532899999999998 0.280300000000004,1.532399999999999 "></polygon><polygon points="0.3498000000000019,1.6066000000000003 0.3481000000000023,1.6049000000000007 0.34729999999999706,1.607099999999999 0.34949999999999903,1.6076999999999977 0.3498000000000019,1.6066000000000003 "></polygon><polygon points="0.4742000000000033,1.6740999999999993 0.4714000000000027,1.6728999999999985 0.4709000000000003,1.674599999999998 0.47390000000000043,1.674900000000001 0.4742000000000033,1.6740999999999993 "></polygon><polygon points="0.47639999999999816,1.7126999999999981 0.478900000000003,1.707699999999999 0.48170000000000357,1.7065999999999981 0.4883999999999986,1.7068000000000012 0.5016999999999996,1.7109999999999985 0.5069999999999979,1.709900000000001 0.5116999999999976,1.7065999999999981 0.5041999999999973,1.7095999999999982 0.5,1.7095999999999982 0.4861000000000004,1.7057000000000002 0.48089999999999833,1.7024000000000008 0.48170000000000357,1.6990999999999978 0.48089999999999833,1.6973999999999982 0.478900000000003,1.7001999999999988 0.4795000000000016,1.7048999999999985 0.476700000000001,1.7065999999999981 0.477800000000002,1.7085000000000008 0.476700000000001,1.7078999999999986 0.47529999999999717,1.709900000000001 0.47639999999999816,1.7126999999999981 "></polygon>
    </svg>
    