
    <svg width="8.7896" height="32.481899999999996" xmlns="http://www.w3.org/2000/svg" xmlns:xlink="http://www.w3.org/1999/xlink" style="transform: scale(1, -1)">
        <polygon points="4.4483,0.09550000000000125 4.455299999999999,0.0934999999999988 4.463899999999999,0.09599999999999653 4.4716999999999985,0.09140000000000015 4.4879999999999995,0.09329999999999927 4.4902999999999995,0.09659999999999513 4.491099999999999,0.09299999999999642 4.497399999999999,0.08869999999999578 4.503299999999999,0.07689999999999486 4.5122,0.06810000000000116 4.515099999999999,0.06799999999999784 4.515799999999999,0.0666000000000011 4.520999999999999,0.07049999999999557 4.531099999999999,0.0583999999999989 4.522499999999999,0.049900000000000944 4.524699999999999,0.04410000000000025 4.541699999999999,0.03709999999999525 4.545999999999999,0.032399999999995543 4.544899999999998,0.029599999999994964 4.547099999999999,0.02779999999999916 4.543199999999999,0.027599999999999625 4.545,0.024399999999999977 4.541099999999998,0.019599999999996953 4.538599999999999,0.018799999999998818 4.539399999999999,0.01549999999999585 4.536899999999999,0.012999999999998124 4.5383,0.01099999999999568 4.536899999999999,0.007999999999995566 4.528899999999998,0.00019999999999953388 4.525399999999999,0.0 4.521799999999999,0.0037999999999982492 4.510299999999999,0.0034999999999953957 4.5047999999999995,0.006499999999995509 4.498299999999999,0.0034999999999953957 4.4986,0.0073999999999969646 4.4917,0.005699999999997374 4.4902999999999995,0.0071000000000012164 4.4947,0.009799999999998477 4.4947,0.012099999999996669 4.491899999999999,0.015200000000000102 4.486099999999999,0.012999999999998124 4.485499999999998,0.014099999999999113 4.489699999999999,0.01630000000000109 4.4894,0.01769999999999783 4.481499999999999,0.021899999999995146 4.473699999999999,0.009099999999996555 4.4673,0.012599999999999056 4.474399999999999,0.023599999999994736 4.457799999999999,0.030999999999998806 4.4589,0.034099999999995134 4.4567,0.036599999999999966 4.4567,0.03909999999999769 4.450299999999999,0.04579999999999984 4.4453,0.04779999999999518 4.436299999999999,0.03109999999999502 4.4292,0.03539999999999566 4.436999999999999,0.04889999999999617 4.4253,0.05460000000000065 4.417399999999999,0.05469999999999686 4.412799999999999,0.05239999999999867 4.408999999999999,0.056699999999999307 4.402899999999999,0.05679999999999552 4.4007999999999985,0.06119999999999948 4.408499999999998,0.06579999999999586 4.396899999999999,0.06669999999999732 4.3971,0.06989999999999696 4.4094,0.06850000000000023 4.416499999999999,0.07569999999999766 4.418699999999999,0.0805999999999969 4.418099999999999,0.08339999999999748 4.420299999999999,0.08569999999999567 4.4147,0.08909999999999485 4.415799999999999,0.09049999999999869 4.421399999999998,0.0893999999999977 4.424999999999999,0.09069999999999823 4.427999999999999,0.09209999999999496 4.4308,0.09629999999999939 4.434999999999999,0.09270000000000067 4.444699999999999,0.0934999999999988 4.4475,0.09799999999999898 4.449199999999999,0.09709999999999752 4.4483,0.09550000000000125 "></polygon><polygon points="4.405299999999999,0.06980000000000075 4.406699999999999,0.07099999999999795 4.4078,0.06929999999999836 4.406699999999999,0.06909999999999883 4.405299999999999,0.06980000000000075 "></polygon><polygon points="4.463999999999999,0.09909999999999997 4.464099999999998,0.09809999999999519 4.462499999999999,0.09789999999999566 4.4628,0.09909999999999997 4.463999999999999,0.09909999999999997 "></polygon><polygon points="1.9494999999999987,2.9495999999999967 1.9490999999999996,2.947499999999998 1.9521999999999995,2.943799999999996 1.949399999999999,2.9435000000000002 1.9482999999999997,2.944899999999997 1.9482999999999997,2.942 1.9441999999999986,2.9399999999999977 1.9441999999999986,2.9354999999999976 1.938699999999999,2.9399999999999977 1.9398999999999997,2.9427999999999983 1.9341999999999988,2.942 1.9293999999999993,2.9384999999999977 1.9229999999999983,2.9423999999999992 1.9243999999999986,2.944600000000001 1.9243999999999986,2.951599999999999 1.9266999999999985,2.9543999999999997 1.9326999999999988,2.952599999999997 1.9454999999999991,2.955999999999996 1.9494999999999987,2.9495999999999967 "></polygon><polygon points="1.9436,2.958599999999997 1.9419999999999984,2.957099999999997 1.9377999999999993,2.959399999999995 1.9379999999999988,2.9613000000000014 1.942499999999999,2.9620999999999995 1.9452999999999996,2.9602000000000004 1.9436,2.958599999999997 "></polygon><polygon points="1.9332999999999991,2.9696 1.937199999999999,2.9677000000000007 1.9318999999999988,2.966299999999997 1.927999999999999,2.9701999999999984 1.9332999999999991,2.9696 "></polygon><polygon points="1.7257999999999996,3.052900000000001 1.7248999999999999,3.0527999999999977 1.7238999999999987,3.0541999999999945 1.7257999999999996,3.054699999999997 1.7257999999999996,3.052900000000001 "></polygon><polygon points="1.7509999999999994,3.085799999999999 1.7566999999999986,3.083500000000001 1.7596999999999987,3.080300000000001 1.7715999999999994,3.0793999999999997 1.7744,3.075800000000001 1.7779999999999987,3.0748999999999995 1.7792999999999992,3.0700999999999965 1.7767999999999997,3.067699999999995 1.7692999999999994,3.0666999999999973 1.759599999999999,3.0608000000000004 1.7567999999999984,3.0611999999999995 1.7514999999999983,3.058799999999998 1.7509999999999994,3.0563999999999965 1.7494999999999994,3.0578000000000003 1.7454999999999998,3.0563999999999965 1.7386999999999997,3.051099999999998 1.7398999999999987,3.0482999999999976 1.7357999999999993,3.049999999999997 1.736699999999999,3.052099999999996 1.7337999999999987,3.0544999999999973 1.7292999999999985,3.0555999999999983 1.7279,3.0538999999999987 1.7250999999999994,3.055900000000001 1.7232999999999983,3.0551999999999992 1.7223999999999986,3.0578000000000003 1.7195,3.0574999999999974 1.719899999999999,3.059999999999995 1.7154999999999987,3.0640999999999963 1.7149999999999999,3.0773999999999972 1.7171999999999983,3.0788999999999973 1.7226999999999997,3.078800000000001 1.7300999999999984,3.0830999999999946 1.7356999999999996,3.0893999999999977 1.7440999999999995,3.089500000000001 1.7509999999999994,3.085799999999999 "></polygon><polygon points="4.503299999999999,0.0018999999999991246 4.503499999999999,0.0009000000000014552 4.501799999999999,0.0002999999999957481 4.5024,0.0015000000000000568 4.503299999999999,0.0018999999999991246 "></polygon><polygon points="4.5222,0.073599999999999 4.523899999999999,0.07399999999999807 4.524999999999999,0.07289999999999708 4.5229,0.07159999999999656 4.5222,0.073599999999999 "></polygon><polygon points="8.666799999999999,24.342499999999998 8.668099999999999,24.3418 8.668099999999999,24.3407 8.666799999999999,24.341399999999997 8.666799999999999,24.342499999999998 "></polygon><polygon points="8.687,24.352099999999997 8.686899999999998,24.352099999999997 8.686899999999998,24.352199999999996 8.687,24.352199999999996 8.687,24.352099999999997 "></polygon><polygon points="2.1449,3.308799999999998 2.1602999999999994,3.3081999999999994 2.1668999999999983,3.3026999999999944 2.1732999999999993,3.3003999999999962 2.1850999999999985,3.292099999999998 2.192499999999999,3.284099999999995 2.1991999999999994,3.2731999999999957 2.2063999999999986,3.2548999999999992 2.1936,3.242999999999995 2.1896999999999984,3.242199999999997 2.1796999999999986,3.231200000000001 2.1708999999999996,3.2284000000000006 2.1628999999999987,3.217099999999995 2.1586999999999996,3.2168999999999954 2.1552999999999987,3.2147999999999968 2.1522999999999985,3.210499999999996 2.1541999999999994,3.207499999999996 2.1491999999999987,3.2027 2.1366999999999994,3.2006999999999977 2.1229999999999993,3.2098999999999975 2.1205,3.2094999999999985 2.1157999999999983,3.213000000000001 2.107899999999999,3.2121999999999957 2.106299999999999,3.207899999999995 2.103399999999999,3.2072999999999965 2.1043999999999983,3.2102000000000004 2.103299999999999,3.2119 2.0939999999999994,3.219000000000001 2.091899999999999,3.2241 2.0747,3.242999999999995 2.0694,3.2520999999999987 2.0724,3.259299999999996 2.0753999999999984,3.2622 2.0747,3.265499999999996 2.0768999999999984,3.2667999999999964 2.0779999999999994,3.274499999999996 2.082699999999999,3.283299999999997 2.0881999999999987,3.2885999999999953 2.0907999999999998,3.288499999999999 2.0921999999999983,3.2915999999999954 2.0961,3.2916999999999987 2.1004999999999985,3.2948999999999984 2.0999999999999996,3.299999999999997 2.1016999999999992,3.3012999999999977 2.1031999999999993,3.3071999999999946 2.1346999999999987,3.306999999999995 2.1404999999999994,3.309599999999996 2.1449,3.308799999999998 "></polygon><polygon points="0.045499999999998764,32.481899999999996 0.05609999999999893,32.4752 0.06169999999999831,32.475699999999996 0.0652999999999988,32.4741 0.06709999999999994,32.471 0.0693999999999999,32.4723 0.07049999999999912,32.471 0.0693999999999999,32.467099999999995 0.07889999999999908,32.4599 0.07859999999999978,32.4571 0.08799999999999919,32.4591 0.09969999999999857,32.4482 0.10529999999999973,32.4349 0.10969999999999835,32.4321 0.11439999999999984,32.431999999999995 0.11719999999999864,32.4285 0.12289999999999957,32.4283 0.12679999999999936,32.423 0.12419999999999831,32.416599999999995 0.11969999999999992,32.4144 0.11549999999999905,32.4178 0.11139999999999972,32.417699999999996 0.10889999999999844,32.405499999999996 0.10549999999999926,32.4021 0.10109999999999886,32.3996 0.09599999999999831,32.401399999999995 0.08749999999999858,32.3974 0.08609999999999829,32.393 0.08279999999999887,32.3946 0.08139999999999858,32.3932 0.0821999999999985,32.3902 0.07649999999999935,32.3865 0.06829999999999892,32.3913 0.06439999999999912,32.388 0.05999999999999872,32.3885 0.054999999999999716,32.3841 0.046499999999999986,32.385999999999996 0.04359999999999964,32.382999999999996 0.031099999999998573,32.3809 0.02639999999999887,32.3777 0.019399999999999196,32.3805 0.019699999999998496,32.3844 0.016899999999999693,32.3838 0.01419999999999888,32.3871 0.011899999999998911,32.3871 0.005499999999999616,32.3955 0.010799999999999699,32.405699999999996 0.006699999999998596,32.410199999999996 0.006699999999998596,32.4146 0.0024999999999995026,32.420199999999994 0.0032999999999994145,32.423 0.0,32.4296 0.0013999999999985135,32.433499999999995 0.0004999999999988347,32.4394 0.007799999999999585,32.4477 0.012199999999999989,32.4477 0.014699999999999491,32.4499 0.013299999999999201,32.4541 0.017799999999999372,32.459599999999995 0.015799999999998704,32.4646 0.017999999999998906,32.4688 0.02719999999999878,32.477999999999994 0.036099999999999355,32.4788 0.03859999999999886,32.477399999999996 0.039699999999999847,32.4816 0.045499999999998764,32.481899999999996 "></polygon><polygon points="0.11619999999999919,32.4336 0.11189999999999856,32.4338 0.11219999999999963,32.439099999999996 0.1164999999999985,32.4387 0.11619999999999919,32.4336 "></polygon><polygon points="8.686699999999998,24.3528 8.687,24.3528 8.686899999999998,24.3526 8.686699999999998,24.3526 8.686699999999998,24.3528 "></polygon><polygon points="8.6915,24.3556 8.691699999999999,24.3558 8.6919,24.3558 8.691799999999999,24.3556 8.6915,24.3556 "></polygon><polygon points="8.691799999999999,24.356099999999998 8.691699999999999,24.356199999999998 8.6919,24.356199999999998 8.691799999999999,24.356099999999998 "></polygon><polygon points="8.6935,24.356599999999997 8.6919,24.3574 8.6876,24.353099999999998 8.685599999999999,24.352999999999998 8.683599999999998,24.349099999999996 8.6748,24.3437 8.672899999999998,24.3479 8.668599999999998,24.3498 8.664399999999999,24.355099999999997 8.663499999999999,24.3616 8.6611,24.364099999999997 8.652899999999999,24.365799999999997 8.651499999999999,24.368399999999998 8.645599999999998,24.366999999999997 8.643899999999999,24.3706 8.639199999999999,24.3727 8.6374,24.371599999999997 8.636099999999999,24.374899999999997 8.6344,24.3739 8.631699999999999,24.375099999999996 8.640899999999998,24.386499999999998 8.645399999999999,24.3885 8.6447,24.3908 8.647099999999998,24.396299999999997 8.6505,24.397199999999998 8.6512,24.399699999999996 8.654599999999999,24.4011 8.654799999999998,24.4047 8.6565,24.4058 8.655999999999999,24.4118 8.6614,24.418899999999997 8.6616,24.4214 8.6769,24.4313 8.679499999999999,24.4302 8.6812,24.432699999999997 8.683,24.432499999999997 8.6844,24.4358 8.687,24.436299999999996 8.691799999999999,24.442499999999995 8.703,24.447599999999998 8.703399999999998,24.452099999999998 8.7056,24.451699999999995 8.706199999999999,24.4531 8.7092,24.452099999999998 8.7105,24.4549 8.709399999999999,24.456199999999995 8.714099999999998,24.4608 8.713899999999999,24.464299999999998 8.717299999999998,24.467 8.723499999999998,24.467399999999998 8.726399999999998,24.4617 8.7266,24.462799999999998 8.7347,24.4578 8.737599999999999,24.457699999999996 8.7393,24.4595 8.7407,24.4579 8.744399999999999,24.4576 8.743099999999998,24.453199999999995 8.7441,24.451499999999996 8.746599999999999,24.4518 8.7479,24.455799999999996 8.7547,24.460299999999997 8.759,24.461299999999998 8.764199999999999,24.459799999999998 8.7699,24.4514 8.766499999999999,24.448299999999996 8.7669,24.446299999999997 8.768799999999999,24.443999999999996 8.7712,24.443299999999997 8.769599999999999,24.435299999999998 8.7729,24.431199999999997 8.778699999999999,24.431599999999996 8.7806,24.4285 8.7803,24.4255 8.782399999999999,24.4236 8.7852,24.4238 8.7868,24.421599999999998 8.784699999999999,24.4184 8.7823,24.418799999999997 8.782899999999998,24.4163 8.7806,24.412399999999998 8.7821,24.408699999999996 8.7808,24.4073 8.7853,24.3992 8.7849,24.397399999999998 8.773599999999998,24.397399999999998 8.773299999999999,24.395999999999997 8.770299999999999,24.3955 8.7716,24.390299999999996 8.769599999999999,24.3876 8.764299999999999,24.385099999999998 8.7636,24.382299999999997 8.759899999999998,24.381499999999996 8.7575,24.3829 8.7548,24.381899999999998 8.7541,24.379399999999997 8.7516,24.3803 8.7486,24.3786 8.750799999999998,24.376199999999997 8.748,24.372999999999998 8.748999999999999,24.3709 8.746199999999998,24.368799999999997 8.7439,24.372 8.7419,24.371699999999997 8.741999999999999,24.370099999999997 8.741299999999999,24.3691 8.7392,24.370299999999997 8.736999999999998,24.368499999999997 8.733999999999998,24.3708 8.7333,24.364199999999997 8.727999999999998,24.366799999999998 8.724899999999998,24.3663 8.722299999999999,24.368599999999997 8.720799999999999,24.3678 8.7191,24.3695 8.717299999999998,24.3678 8.7137,24.368899999999996 8.7104,24.367299999999997 8.7092,24.368799999999997 8.7089,24.3662 8.706,24.3666 8.707099999999999,24.364099999999997 8.7084,24.364199999999997 8.706499999999998,24.362 8.7016,24.361099999999997 8.700399999999998,24.362599999999997 8.698799999999999,24.358299999999996 8.6935,24.356599999999997 "></polygon><polygon points="8.6462,24.3981 8.6466,24.397399999999998 8.6458,24.397399999999998 8.6459,24.397999999999996 8.6462,24.3981 "></polygon><polygon points="8.650099999999998,24.400799999999997 8.6492,24.4001 8.6477,24.401199999999996 8.6497,24.4015 8.650099999999998,24.400799999999997 "></polygon><polygon points="8.700299999999999,24.3603 8.700299999999999,24.3603 8.700199999999999,24.3602 8.700199999999999,24.3604 8.700299999999999,24.3603 "></polygon><polygon points="8.7336,24.3616 8.7333,24.3618 8.7336,24.3619 8.733799999999999,24.3618 8.7336,24.3616 "></polygon><polygon points="8.732999999999999,24.362799999999996 8.732999999999999,24.362899999999996 8.7332,24.362899999999996 8.7332,24.362699999999997 8.732999999999999,24.362799999999996 "></polygon><polygon points="8.713799999999999,24.365099999999998 8.713899999999999,24.365199999999998 8.713999999999999,24.365099999999998 8.713799999999999,24.3649 8.713799999999999,24.365099999999998 "></polygon><polygon points="8.7562,24.3802 8.7563,24.3802 8.7564,24.379999999999995 8.7561,24.379999999999995 8.7562,24.3802 "></polygon><polygon points="8.764999999999999,24.382399999999997 8.764999999999999,24.382299999999997 8.764899999999999,24.382299999999997 8.764899999999999,24.382399999999997 8.764999999999999,24.382399999999997 "></polygon><polygon points="8.788999999999998,24.389899999999997 8.7884,24.3908 8.788499999999999,24.391199999999998 8.7896,24.390299999999996 8.788999999999998,24.389899999999997 "></polygon><polygon points="8.7849,24.3954 8.7846,24.395799999999998 8.7846,24.396699999999996 8.7852,24.395899999999997 8.7849,24.3954 "></polygon><polygon points="8.750899999999998,24.379599999999996 8.751,24.379599999999996 8.7511,24.379599999999996 8.7511,24.3795 8.750899999999998,24.379599999999996 "></polygon><polygon points="8.781799999999999,24.4101 8.7819,24.409999999999997 8.7819,24.409799999999997 8.781799999999999,24.409799999999997 8.781799999999999,24.4101 "></polygon><polygon points="8.7819,24.410199999999996 8.782,24.4101 8.782,24.409999999999997 8.781799999999999,24.410199999999996 8.7819,24.410199999999996 "></polygon><polygon points="8.782,24.4103 8.7821,24.4103 8.7822,24.409999999999997 8.7821,24.4101 8.782,24.4103 "></polygon><polygon points="8.780999999999999,24.412599999999998 8.780999999999999,24.412799999999997 8.781199999999998,24.412499999999998 8.781099999999999,24.412499999999998 8.780999999999999,24.412599999999998 "></polygon><polygon points="8.7816,24.413899999999998 8.7816,24.413899999999998 8.781699999999999,24.4138 8.7816,24.4138 8.7816,24.413899999999998 "></polygon><polygon points="8.767999999999999,24.4454 8.7684,24.4454 8.7684,24.4454 8.7681,24.445299999999996 8.767999999999999,24.4454 "></polygon>
    </svg>
    