
    <svg width="1.406000000000006" height="0.6373999999999995" xmlns="http://www.w3.org/2000/svg" xmlns:xlink="http://www.w3.org/1999/xlink" style="transform: scale(1, -1)">
        <polygon points="1.39609999999999,0.0025999999999992696 1.3985000000000127,0.00140000000000029 1.3982000000000028,0.0 1.3939000000000021,0.0010999999999992127 1.3896000000000015,0.004999999999999005 1.3940000000000055,0.007500000000000284 1.39609999999999,0.005599999999999383 1.39609999999999,0.0025999999999992696 "></polygon><polygon points="1.386099999999999,0.017999999999998906 1.384299999999996,0.014699999999999491 1.3881000000000085,0.012299999999999756 1.3854000000000042,0.007799999999999585 1.3817999999999984,0.007299999999998974 1.37469999999999,0.013799999999999812 1.3763999999999896,0.01890000000000036 1.382000000000005,0.019399999999999196 1.386099999999999,0.017999999999998906 "></polygon><polygon points="1.3716000000000008,0.04420000000000002 1.366500000000002,0.03219999999999956 1.3695999999999913,0.02779999999999916 1.3596000000000004,0.030799999999999272 1.3489999999999895,0.030799999999999272 1.3437000000000126,0.03249999999999886 1.3395999999999901,0.03229999999999933 1.336500000000001,0.03029999999999866 1.3314000000000021,0.03359999999999985 1.3144000000000062,0.036599999999999966 1.2960999999999956,0.03420000000000023 1.2892999999999972,0.03549999999999898 1.2831999999999937,0.0345999999999993 1.2764999999999986,0.0370999999999988 1.2637,0.03190000000000026 1.2609999999999957,0.03279999999999994 1.259299999999996,0.03169999999999895 1.2571000000000083,0.03369999999999962 1.2443000000000097,0.031200000000000117 1.2386999999999944,0.032999999999999474 1.2256000000000142,0.03249999999999886 1.2214999999999918,0.030799999999999272 1.2177000000000078,0.03409999999999869 1.1991000000000156,0.035599999999998744 1.1939999999999884,0.04049999999999976 1.1888000000000147,0.04260000000000019 1.178699999999992,0.038899999999999935 1.168200000000013,0.038000000000000256 1.1500000000000057,0.03309999999999924 1.1432000000000073,0.036399999999998656 1.126499999999993,0.037799999999998946 1.123199999999997,0.04079999999999906 1.1182000000000016,0.04159999999999897 1.1149000000000058,0.045499999999998764 1.107200000000006,0.047699999999998965 1.1019000000000005,0.047100000000000364 1.099800000000016,0.04219999999999935 1.087600000000009,0.04129999999999967 1.0763000000000034,0.03279999999999994 1.0690999999999917,0.03200000000000003 1.0621000000000151,0.033299999999998775 1.057299999999998,0.03139999999999965 1.0526000000000124,0.03340000000000032 1.0422000000000082,0.03229999999999933 1.0364999999999895,0.034399999999999764 1.0340999999999951,0.040300000000000225 1.0381999999999891,0.04479999999999862 1.034700000000015,0.047699999999998965 1.0307999999999993,0.048599999999998644 1.0278999999999883,0.05889999999999951 1.0245999999999924,0.0605999999999991 1.0223000000000013,0.06509999999999927 1.0202999999999918,0.06519999999999904 1.0201999999999884,0.06329999999999991 1.0139000000000067,0.06799999999999962 1.0,0.06659999999999933 0.9926000000000101,0.06909999999999883 0.9758999999999958,0.06899999999999906 0.966700000000003,0.07869999999999955 0.9642000000000053,0.08489999999999931 0.9694000000000074,0.0799000000000003 0.9730000000000132,0.07859999999999978 0.9729000000000099,0.07530000000000037 0.9765999999999906,0.0713999999999988 0.9832000000000107,0.0732999999999997 0.9775999999999954,0.07489999999999952 0.9725999999999999,0.08179999999999943 0.9724999999999966,0.08789999999999942 0.9702000000000055,0.0909999999999993 0.9675000000000011,0.0862999999999996 0.9632000000000005,0.08859999999999957 0.953000000000003,0.08760000000000012 0.9498000000000104,0.0926999999999989 0.9466999999999928,0.0934999999999988 0.9408999999999992,0.08779999999999966 0.9339999999999975,0.0865999999999989 0.9234000000000151,0.08109999999999928 0.9155000000000086,0.07429999999999914 0.9031999999999982,0.07530000000000037 0.901299999999992,0.07169999999999987 0.8969999999999914,0.07099999999999973 0.8865000000000123,0.07249999999999979 0.8714999999999975,0.08830000000000027 0.8669999999999902,0.08799999999999919 0.8634000000000128,0.08969999999999878 0.854299999999995,0.09859999999999935 0.8520000000000039,0.10299999999999976 0.8523000000000138,0.10799999999999876 0.8459000000000003,0.11409999999999876 0.844600000000014,0.11779999999999902 0.8426000000000045,0.12939999999999863 0.8348000000000013,0.1365999999999996 0.830900000000014,0.14279999999999937 0.8286999999999978,0.14329999999999998 0.8242999999999938,0.14029999999999987 0.8257000000000119,0.1338999999999988 0.8282000000000096,0.13100000000000023 0.8246000000000038,0.129999999999999 0.819199999999995,0.12429999999999986 0.8178000000000054,0.1257999999999999 0.815400000000011,0.1252999999999993 0.8122999999999934,0.13030000000000008 0.8143000000000029,0.13279999999999959 0.813999999999993,0.13669999999999938 0.8097999999999956,0.1382999999999992 0.8097999999999956,0.14109999999999978 0.8078999999999894,0.142199999999999 0.8003999999999962,0.14119999999999955 0.8002999999999929,0.1471 0.792900000000003,0.14969999999999928 0.792900000000003,0.15169999999999995 0.7967999999999904,0.1529999999999987 0.7966000000000122,0.1554000000000002 0.7992000000000132,0.1570999999999998 0.7992999999999881,0.15920000000000023 0.7940000000000111,0.16249999999999964 0.782100000000014,0.16499999999999915 0.7761999999999887,0.16359999999999886 0.7682000000000073,0.16690000000000005 0.7659000000000162,0.16939999999999955 0.7590000000000146,0.16999999999999993 0.7496000000000151,0.17389999999999972 0.7423000000000002,0.18159999999999954 0.7378999999999962,0.1836000000000002 0.7370999999999981,0.186399999999999 0.7384000000000128,0.1921999999999997 0.734800000000007,0.20030000000000037 0.7317999999999927,0.2032999999999987 0.7307999999999879,0.2112999999999996 0.7401000000000124,0.21659999999999968 0.7464999999999975,0.22659999999999947 0.7612000000000023,0.23639999999999972 0.7665000000000077,0.24690000000000012 0.775100000000009,0.2518999999999991 0.7814999999999941,0.2518999999999991 0.7845000000000084,0.25349999999999895 0.793200000000013,0.24829999999999863 0.7978999999999985,0.24799999999999933 0.8218999999999994,0.2497999999999987 0.832099999999997,0.248899999999999 0.8401000000000067,0.2524999999999995 0.8512000000000057,0.2618999999999989 0.858399999999989,0.26280000000000037 0.8626000000000147,0.26750000000000007 0.8697999999999979,0.267199999999999 0.8817999999999984,0.27360000000000007 0.8873000000000104,0.2729999999999997 0.8959000000000117,0.27890000000000015 0.8985000000000127,0.2779999999999987 0.9022999999999968,0.279399999999999 0.9045999999999879,0.27609999999999957 0.9145000000000039,0.27500000000000036 0.9211999999999989,0.28049999999999997 0.9257000000000062,0.279399999999999 0.9314999999999998,0.28049999999999997 0.9331999999999994,0.27890000000000015 0.9387000000000114,0.28249999999999886 0.9433999999999969,0.2796000000000003 0.9442999999999984,0.2774000000000001 0.948599999999999,0.27869999999999884 0.9499000000000137,0.2817999999999987 0.9525000000000148,0.28219999999999956 0.9540000000000077,0.2779999999999987 0.959699999999998,0.27890000000000015 0.9609000000000094,0.28049999999999997 0.9634000000000071,0.27919999999999945 0.9664999999999964,0.2829999999999995 0.9706999999999937,0.28219999999999956 0.973399999999998,0.28439999999999976 0.9782000000000153,0.27749999999999986 0.9812000000000012,0.27890000000000015 0.9849000000000103,0.2773000000000003 0.9878999999999962,0.27280000000000015 0.9919000000000153,0.2724999999999991 0.9964999999999975,0.2690999999999999 0.9956999999999994,0.2624999999999993 1.001800000000003,0.25980000000000025 1.0031999999999925,0.2563999999999993 1.007300000000015,0.25659999999999883 1.0123000000000104,0.2502999999999993 1.0165000000000077,0.25049999999999883 1.0228999999999928,0.24799999999999933 1.0276000000000067,0.25 1.0272999999999968,0.2530000000000001 1.0218000000000131,0.2604999999999986 1.024000000000001,0.2624999999999993 1.0268000000000086,0.2602999999999991 1.032100000000014,0.2507999999999999 1.0346000000000117,0.248899999999999 1.0375999999999976,0.24969999999999892 1.0398000000000138,0.24499999999999922 1.042100000000005,0.24439999999999884 1.0440000000000111,0.24749999999999872 1.0413000000000068,0.2530999999999999 1.0457000000000107,0.25269999999999904 1.0498000000000047,0.2485999999999997 1.0551000000000101,0.2485999999999997 1.0559000000000083,0.24619999999999997 1.059599999999989,0.24499999999999922 1.0612000000000137,0.23829999999999885 1.064300000000003,0.23499999999999943 1.0748000000000104,0.23579999999999934 1.0815000000000055,0.23299999999999876 1.083200000000005,0.22659999999999947 1.0926000000000045,0.22240000000000038 1.0959000000000003,0.21389999999999887 1.098399999999998,0.21359999999999957 1.1055000000000064,0.2176999999999989 1.1178999999999917,0.21319999999999872 1.1213999999999942,0.21509999999999962 1.1366000000000156,0.21539999999999893 1.1391000000000133,0.21669999999999945 1.140199999999993,0.21250000000000036 1.1554000000000144,0.20169999999999888 1.1589999999999918,0.2019000000000002 1.1632999999999925,0.20529999999999937 1.170800000000014,0.20449999999999946 1.1739000000000033,0.2027000000000001 1.1744999999999948,0.19949999999999868 1.1773000000000025,0.19759999999999955 1.179000000000002,0.1938999999999993 1.182299999999998,0.192499999999999 1.1921000000000106,0.1993999999999989 1.1973000000000127,0.2054999999999989 1.1996000000000038,0.20359999999999978 1.2103999999999928,0.20389999999999908 1.2201000000000022,0.1990999999999996 1.2206999999999937,0.1971999999999987 1.2172999999999945,0.1913999999999998 1.2179000000000144,0.18689999999999962 1.22229999999999,0.1852999999999998 1.2265000000000157,0.18719999999999892 1.229600000000005,0.1860999999999997 1.2332000000000107,0.1905000000000001 1.2346000000000004,0.18909999999999982 1.2335999999999956,0.18229999999999968 1.2376999999999896,0.1819999999999986 1.2381000000000029,0.17539999999999978 1.2436999999999898,0.17659999999999876 1.2406000000000006,0.170399999999999 1.2409000000000106,0.16779999999999973 1.2490999999999985,0.16579999999999906 1.2506999999999948,0.1681999999999988 1.2550999999999988,0.16939999999999955 1.258800000000008,0.16629999999999967 1.2587000000000046,0.16220000000000034 1.2678999999999974,0.16460000000000008 1.2574999999999932,0.1554000000000002 1.2543000000000006,0.15059999999999896 1.2398000000000025,0.1429999999999989 1.233399999999989,0.1368999999999989 1.233699999999999,0.13549999999999862 1.2410000000000139,0.1341000000000001 1.2533999999999992,0.1357999999999997 1.2583999999999946,0.1341000000000001 1.2637,0.13640000000000008 1.2639000000000067,0.13929999999999865 1.2726000000000113,0.14390000000000036 1.2768000000000086,0.1490999999999989 1.2797999999999945,0.1490999999999989 1.2812000000000126,0.14749999999999908 1.280300000000011,0.142199999999999 1.2846000000000117,0.1374999999999993 1.2896000000000072,0.13809999999999967 1.290600000000012,0.136099999999999 1.2942999999999927,0.1372 1.2967000000000155,0.13569999999999993 1.2965000000000089,0.13400000000000034 1.2915000000000134,0.1335999999999995 1.2897000000000105,0.1318999999999999 1.2875999999999976,0.1280000000000001 1.2887000000000057,0.1260999999999992 1.2986999999999966,0.12549999999999883 1.3070999999999913,0.1272000000000002 1.3127000000000066,0.12229999999999919 1.3166999999999973,0.12560000000000038 1.3171000000000106,0.12110000000000021 1.320600000000013,0.12379999999999924 1.323599999999999,0.12239999999999895 1.3237000000000023,0.11749999999999972 1.3298000000000059,0.11469999999999914 1.3307000000000073,0.11109999999999864 1.3348000000000013,0.11050000000000004 1.3336999999999932,0.10799999999999876 1.3344999999999914,0.10280000000000022 1.3412000000000148,0.09939999999999927 1.3434000000000026,0.09939999999999927 1.3454000000000121,0.10159999999999947 1.3477000000000032,0.09839999999999982 1.3494000000000028,0.09849999999999959 1.350200000000001,0.10430000000000028 1.3632000000000062,0.10139999999999993 1.3644999999999925,0.09469999999999956 1.3678999999999917,0.09220000000000006 1.366199999999992,0.08889999999999887 1.369799999999998,0.08889999999999887 1.3706999999999994,0.08610000000000007 1.3762000000000114,0.0818999999999992 1.380200000000002,0.07310000000000016 1.3800999999999988,0.05689999999999884 1.3716000000000008,0.04420000000000002 "></polygon><polygon points="1.3873000000000104,0.0522999999999989 1.3865000000000123,0.05659999999999954 1.3898000000000081,0.05909999999999904 1.3898000000000081,0.051399999999999224 1.3873000000000104,0.0522999999999989 "></polygon><polygon points="1.4034000000000049,0.06160000000000032 1.4028999999999883,0.06439999999999912 1.406000000000006,0.06550000000000011 1.4044000000000096,0.06299999999999883 1.4054999999999893,0.060699999999998866 1.4034000000000049,0.06160000000000032 "></polygon><polygon points="1.0561999999999898,0.24819999999999887 1.0574000000000012,0.24899999999999878 1.0588999999999942,0.24749999999999872 1.056999999999988,0.24680000000000035 1.0561999999999898,0.24819999999999887 "></polygon><polygon points="0.7016999999999882,0.22919999999999874 0.7031000000000063,0.22689999999999877 0.7025999999999897,0.22309999999999874 0.698599999999999,0.21560000000000024 0.6879000000000133,0.22170000000000023 0.6854000000000156,0.22949999999999982 0.6818000000000097,0.2303999999999995 0.6813999999999965,0.23229999999999862 0.6958999999999946,0.2367999999999988 0.7016999999999882,0.22919999999999874 "></polygon><polygon points="0.6565999999999974,0.25760000000000005 0.6584000000000003,0.2538 0.6565999999999974,0.25 0.6526000000000067,0.24749999999999872 0.6478999999999928,0.24990000000000023 0.6474000000000046,0.2530000000000001 0.6495999999999924,0.25839999999999996 0.6546999999999912,0.25900000000000034 0.6565999999999974,0.25760000000000005 "></polygon><polygon points="0.5828999999999951,0.28059999999999974 0.5771000000000015,0.27449999999999974 0.5708999999999946,0.27389999999999937 0.5663000000000125,0.2754999999999992 0.5606999999999971,0.2729999999999997 0.5520999999999958,0.2812999999999999 0.5481000000000051,0.2817999999999987 0.5416999999999916,0.27869999999999884 0.5374999999999943,0.279399999999999 0.532100000000014,0.2827000000000002 0.5314999999999941,0.28749999999999964 0.5255999999999972,0.29579999999999984 0.5213999999999999,0.2983999999999991 0.5194999999999936,0.3027999999999995 0.5163000000000011,0.3048000000000002 0.5157000000000096,0.3066999999999993 0.518100000000004,0.3078000000000003 0.518100000000004,0.31020000000000003 0.5143999999999949,0.3143999999999991 0.5147000000000048,0.3179999999999996 0.5039000000000158,0.3168999999999986 0.4947999999999979,0.3216000000000001 0.48679999999998813,0.31700000000000017 0.48160000000001446,0.31620000000000026 0.4801999999999964,0.3114999999999988 0.47810000000001196,0.31020000000000003 0.477800000000002,0.30410000000000004 0.47220000000001505,0.29829999999999934 0.4679999999999893,0.2995000000000001 0.4550000000000125,0.2989999999999995 0.4519999999999982,0.30349999999999966 0.4498000000000104,0.30429999999999957 0.4422999999999888,0.3025000000000002 0.4373999999999967,0.30379999999999896 0.4369000000000085,0.30180000000000007 0.43080000000000496,0.29779999999999873 0.4211999999999989,0.29999999999999893 0.4130000000000109,0.2944999999999993 0.3995999999999924,0.29190000000000005 0.38980000000000814,0.2957000000000001 0.38409999999998945,0.29100000000000037 0.3661999999999921,0.28749999999999964 0.3580000000000041,0.2873999999999999 0.35130000000000905,0.28219999999999956 0.3475999999999999,0.28279999999999994 0.3388999999999953,0.28909999999999947 0.32980000000000587,0.28999999999999915 0.31520000000000437,0.27949999999999875 0.2968999999999937,0.27829999999999977 0.29110000000000014,0.2814999999999994 0.287399999999991,0.27449999999999974 0.27940000000000964,0.2751000000000001 0.2761999999999887,0.27339999999999876 0.26429999999999154,0.27669999999999995 0.2560000000000002,0.28219999999999956 0.25190000000000623,0.2908999999999988 0.252900000000011,0.2950999999999997 0.25130000000001473,0.29909999999999926 0.22630000000000905,0.311399999999999 0.22499999999999432,0.31620000000000026 0.22120000000001028,0.3204999999999991 0.22069999999999368,0.33029999999999937 0.21369999999998868,0.33309999999999995 0.20820000000000505,0.33779999999999966 0.20709999999999695,0.3559000000000001 0.20879999999999654,0.357899999999999 0.20459999999999923,0.3674999999999997 0.19589999999999463,0.37209999999999965 0.1962000000000046,0.3743999999999996 0.19290000000000873,0.37769999999999904 0.1811999999999898,0.38260000000000005 0.17719999999999914,0.38870000000000005 0.17070000000001073,0.39199999999999946 0.17019999999999413,0.39509999999999934 0.15790000000001214,0.4093 0.15639999999999077,0.41669999999999874 0.15020000000001232,0.42029999999999923 0.14580000000000837,0.4255999999999993 0.14230000000000587,0.4250999999999987 0.14050000000000296,0.4275000000000002 0.1366000000000156,0.42879999999999896 0.13110000000000355,0.43989999999999974 0.1244000000000085,0.44379999999999953 0.125,0.4504999999999999 0.12100000000000932,0.4540999999999986 0.11990000000000123,0.4572000000000003 0.11529999999999063,0.45889999999999986 0.1115000000000066,0.4560999999999993 0.10859999999999559,0.4604999999999997 0.099899999999991,0.4631999999999987 0.09610000000000696,0.4682999999999993 0.08310000000000173,0.47630000000000017 0.07699999999999818,0.48499999999999943 0.07550000000000523,0.4908000000000001 0.06860000000000355,0.49990000000000023 0.05709999999999127,0.5038999999999998 0.05310000000000059,0.5088999999999988 0.043299999999987904,0.5106000000000002 0.023400000000009413,0.5297000000000001 0.017699999999990723,0.532 0.015999999999991132,0.5393999999999988 0.012400000000013733,0.5413999999999994 0.012300000000010414,0.5477999999999987 0.0,0.5612999999999992 0.007699999999999818,0.5678999999999998 0.011300000000005639,0.5756999999999994 0.013399999999990087,0.5762999999999998 0.013399999999990087,0.5746000000000002 0.02019999999998845,0.5846999999999998 0.03300000000001546,0.5840999999999994 0.039500000000003865,0.5795999999999992 0.04169999999999163,0.5803999999999991 0.043000000000006366,0.5846 0.04670000000001551,0.587299999999999 0.054300000000012005,0.5802999999999994 0.06389999999998963,0.5789999999999988 0.06989999999998986,0.5740999999999996 0.07200000000000273,0.5702999999999996 0.08449999999999136,0.5622999999999987 0.09309999999999263,0.5618999999999996 0.10300000000000864,0.5578000000000003 0.10849999999999227,0.5602 0.10960000000000036,0.5632999999999999 0.11160000000000991,0.5617999999999999 0.11420000000001096,0.5632999999999999 0.11539999999999395,0.5617999999999999 0.12010000000000787,0.5678999999999998 0.12569999999999482,0.5663999999999998 0.12520000000000664,0.5637999999999987 0.1266999999999996,0.5621999999999989 0.13230000000001496,0.5678000000000001 0.1419999999999959,0.5718999999999994 0.1477999999999895,0.5687999999999995 0.1494000000000142,0.5649999999999995 0.1560000000000059,0.5596999999999994 0.16599999999999682,0.559099999999999 0.1717999999999904,0.5663 0.1682999999999879,0.5675999999999988 0.16740000000001487,0.5709999999999997 0.1699000000000126,0.5747999999999998 0.17660000000000764,0.5754000000000001 0.18319999999999936,0.5817999999999994 0.19030000000000769,0.5849999999999991 0.19790000000000418,0.5835999999999988 0.20490000000000919,0.5850999999999988 0.21700000000001296,0.5812999999999988 0.22569999999998913,0.5886999999999993 0.24109999999998877,0.5948999999999991 0.2506999999999948,0.5960999999999999 0.2600999999999942,0.6020000000000003 0.2750000000000057,0.6043000000000003 0.2797999999999945,0.601799999999999 0.29050000000000864,0.5999999999999996 0.29750000000001364,0.6043000000000003 0.3049000000000035,0.6051000000000002 0.30989999999999895,0.6092999999999993 0.31620000000000914,0.6100999999999992 0.3206000000000131,0.6148999999999987 0.32550000000000523,0.6161999999999992 0.3399000000000001,0.609 0.3498000000000161,0.6109999999999989 0.355700000000013,0.6079999999999988 0.3592000000000155,0.609399999999999 0.37930000000000064,0.6090999999999998 0.38419999999999277,0.6121999999999996 0.3891999999999882,0.6275999999999993 0.3982000000000028,0.6262999999999987 0.4164000000000101,0.6312999999999995 0.42619999999999436,0.6310000000000002 0.430499999999995,0.6288999999999998 0.4403000000000077,0.6280000000000001 0.44700000000000273,0.6373999999999995 0.45779999999999177,0.6350999999999996 0.46709999999998786,0.6296999999999997 0.4759999999999991,0.6280000000000001 0.47569999999998913,0.6307999999999989 0.4679999999999893,0.6333000000000002 0.46880000000001587,0.6348000000000003 0.4718000000000018,0.6346999999999987 0.4893000000000143,0.6252999999999993 0.4983000000000004,0.6178999999999988 0.5013999999999896,0.6121999999999996 0.5135999999999967,0.5978999999999992 0.5206000000000017,0.5838999999999999 0.5259000000000071,0.5794999999999995 0.5326000000000022,0.5702999999999996 0.5398000000000138,0.5679999999999996 0.5424000000000149,0.559099999999999 0.5658999999999992,0.5337999999999994 0.5689000000000135,0.5225999999999988 0.5760999999999967,0.5195999999999987 0.5775999999999897,0.517199999999999 0.5773000000000081,0.5075000000000003 0.5853999999999928,0.5018999999999991 0.593199999999996,0.498899999999999 0.5949999999999989,0.49569999999999936 0.5900000000000034,0.49349999999999916 0.5992999999999995,0.48219999999999885 0.6064000000000078,0.45669999999999966 0.6100000000000136,0.4543999999999997 0.6066000000000145,0.4451999999999998 0.6120999999999981,0.4399999999999995 0.6120999999999981,0.43679999999999986 0.6157000000000039,0.4336000000000002 0.6171999999999969,0.4247999999999994 0.6229000000000156,0.4150999999999989 0.6303000000000054,0.40939999999999976 0.6247999999999934,0.3987999999999996 0.6110999999999933,0.38790000000000013 0.6106000000000051,0.3849999999999998 0.605400000000003,0.37929999999999886 0.6066000000000145,0.3760999999999992 0.6009999999999991,0.37180000000000035 0.6032999999999902,0.3674999999999997 0.6009999999999991,0.36409999999999876 0.6071000000000026,0.36129999999999995 0.6081000000000074,0.3556999999999988 0.5843000000000131,0.34079999999999977 0.5868000000000109,0.3323999999999998 0.582099999999997,0.32620000000000005 0.5904999999999916,0.31269999999999953 0.5926000000000045,0.2989999999999995 0.5899000000000001,0.2936999999999994 0.5903999999999883,0.28669999999999973 0.5840000000000032,0.2829999999999995 0.5828999999999951,0.28059999999999974 "></polygon>
    </svg>
    