
    <svg width="0.11289999999999978" height="0.10060000000000002" xmlns="http://www.w3.org/2000/svg" xmlns:xlink="http://www.w3.org/1999/xlink" style="transform: scale(1, -1)">
        <polygon points="0.06600000000000072,0.0035999999999987153 0.05990000000000073,0.00030000000000285354 0.051300000000001234,0.0 0.046700000000001296,0.0018999999999991246 0.04499999999999993,0.004699999999999704 0.04540000000000077,0.0071000000000012164 0.03980000000000139,0.010500000000000398 0.03690000000000104,0.009900000000001796 0.03470000000000084,0.007199999999997431 0.028600000000000847,0.005899999999996908 0.023900000000001143,0.0071000000000012164 0.016200000000001324,0.0033999999999991815 0.011400000000000077,0.002899999999996794 0.004700000000001481,0.004800000000003024 0.009300000000001418,0.011099999999999 0.0045999999999999375,0.02400000000000091 0.010699999999999932,0.030799999999999272 0.011499999999999844,0.03439999999999799 0.00820000000000043,0.03909999999999769 0.0004000000000008441,0.043300000000002115 0.0,0.0549000000000035 0.009400000000001185,0.054400000000001114 0.017100000000001003,0.06029999999999802 0.032600000000000406,0.06029999999999802 0.042500000000000426,0.06989999999999696 0.06600000000000072,0.08380000000000365 0.08880000000000088,0.09069999999999823 0.09250000000000114,0.09389999999999787 0.09800000000000075,0.0951999999999984 0.10020000000000095,0.09850000000000136 0.10460000000000136,0.1004999999999967 0.10899999999999999,0.0992999999999995 0.11080000000000112,0.10060000000000002 0.11190000000000033,0.09369999999999834 0.10650000000000048,0.08979999999999677 0.10880000000000045,0.08209999999999695 0.10289999999999999,0.07979999999999876 0.1059000000000001,0.07139999999999702 0.10360000000000014,0.06689999999999685 0.11070000000000135,0.05910000000000082 0.11289999999999978,0.05279999999999774 0.11180000000000057,0.047699999999998965 0.1051000000000002,0.04299999999999926 0.10050000000000026,0.033200000000000784 0.09420000000000073,0.030999999999998806 0.08999999999999986,0.026299999999999102 0.09060000000000024,0.020000000000003126 0.0926000000000009,0.017800000000001148 0.08660000000000068,0.010199999999997544 0.08510000000000062,0.005000000000002558 0.06600000000000072,0.0035999999999987153 "></polygon>
    </svg>
    