
    <svg width="3.037699999999999" height="3.0828000000000007" xmlns="http://www.w3.org/2000/svg" xmlns:xlink="http://www.w3.org/1999/xlink" style="transform: scale(1, -1)">
        <polygon points="1.6844999999999999,0.07749999999999968 1.6841999999999988,0.07639999999999958 1.6830999999999996,0.07749999999999968 1.683399999999999,0.08029999999999937 1.6844999999999999,0.07749999999999968 "></polygon><polygon points="2.704699999999999,1.0854 2.7052999999999994,1.0782999999999996 2.7028,1.0782999999999996 2.703999999999999,1.0698999999999996 2.702399999999999,0.8523999999999994 2.6822999999999997,0.8452999999999999 2.667399999999999,0.8472 2.6601999999999997,0.8412999999999995 2.6531000000000002,0.8426999999999998 2.6492000000000004,0.8349000000000002 2.649899999999999,0.8335999999999997 2.6388,0.8289999999999997 2.6381999999999994,0.8263999999999996 2.632999999999999,0.8237999999999994 2.628499999999999,0.8258000000000001 2.624599999999999,0.8205999999999998 2.6129999999999995,0.8159999999999998 2.6129,0.8128000000000002 2.6097,0.8128000000000002 2.6031999999999993,0.8088999999999995 2.5999,0.7900999999999998 2.594099999999999,0.7888000000000002 2.594099999999999,0.7848999999999995 2.589599999999999,0.7843 2.5907999999999998,0.7790999999999997 2.584999999999999,0.7764999999999995 2.5824,0.7713000000000001 2.583,0.7648999999999999 2.5785,0.7648999999999999 2.5764999999999993,0.7603 2.574,0.7622999999999998 2.5687999999999995,0.7596999999999996 2.5603,0.7454000000000001 2.5623000000000005,0.7395999999999994 2.5427999999999997,0.7291999999999996 2.5402000000000005,0.7246999999999995 2.5357000000000003,0.7298999999999998 2.5336999999999996,0.7272999999999996 2.5357000000000003,0.7226999999999997 2.532399999999999,0.7156000000000002 2.527199999999999,0.7077999999999998 2.5175,0.6981000000000002 2.5181000000000004,0.6936 2.5161999999999995,0.6897000000000002 2.518799999999999,0.6857999999999995 2.5129,0.6708999999999996 2.5063999999999993,0.6689999999999996 2.4909,0.6728999999999994 2.4922000000000004,0.6677 2.4849999999999994,0.6585999999999999 2.487,0.6528 2.4818,0.6482000000000001 2.4831000000000003,0.6442999999999994 2.4824,0.6372 2.4726999999999997,0.6417000000000002 2.4701000000000004,0.6333000000000002 2.466199999999999,0.6307 2.4655000000000005,0.6274999999999995 2.4415999999999993,0.6124999999999998 2.439,0.6079999999999997 2.427999999999999,0.6021999999999998 2.4284,0.6002000000000001 2.4254,0.6021999999999998 2.418199999999999,0.6021000000000001 2.4130000000000003,0.5956999999999999 2.4116999999999997,0.5911 2.3935999999999993,0.5827 2.3864,0.5769000000000002 2.376099999999999,0.5897999999999994 2.3728999999999996,0.5897999999999994 2.3702000000000005,0.5832999999999995 2.356,0.5781000000000001 2.344999999999999,0.5657999999999994 2.3332999999999995,0.5573999999999995 2.3325999999999993,0.5495999999999999 2.3223000000000003,0.5464000000000002 2.3118999999999996,0.5354000000000001 2.3002000000000002,0.5289000000000001 2.2996,0.5224000000000002 2.2957,0.5198 2.2827,0.5159000000000002 2.2813999999999997,0.5081999999999995 2.2761999999999993,0.5138999999999996 2.2743,0.5126 2.2761999999999993,0.5068000000000001 2.266499999999999,0.4996999999999998 2.2638999999999996,0.4950999999999999 2.2476000000000003,0.4814999999999996 2.2315000000000005,0.4737 2.214599999999999,0.47109999999999985 2.2113999999999994,0.4672999999999998 2.205499999999999,0.46720000000000006 2.2010000000000005,0.4581999999999997 2.1938999999999993,0.4535999999999998 2.1925999999999988,0.44839999999999947 2.188699999999999,0.4444999999999997 2.1860999999999997,0.4444999999999997 2.1801999999999992,0.4380999999999995 2.179499999999999,0.4302999999999999 2.1776,0.4269999999999996 2.1723999999999997,0.4250999999999996 2.1737,0.4231999999999996 2.167299999999999,0.4205999999999994 2.1633999999999993,0.4147999999999996 2.1653000000000002,0.40310000000000024 2.1639,0.39919999999999956 2.1562,0.39529999999999976 2.148999999999999,0.3849 2.135399999999999,0.3849 2.1334999999999997,0.37129999999999974 2.1289,0.3700000000000001 2.1264000000000003,0.3662000000000001 2.1302000000000003,0.3622999999999994 2.126999999999999,0.35379999999999967 2.123099999999999,0.3532000000000002 2.1289,0.3462999999999994 2.1197999999999997,0.3382999999999994 2.1127000000000002,0.3376000000000001 2.1068999999999996,0.33179999999999943 2.0997000000000003,0.32920000000000016 2.091899999999999,0.3304999999999998 2.083499999999999,0.3252999999999995 2.0802999999999994,0.3246000000000002 2.0763999999999996,0.3271999999999995 2.0711999999999993,0.3271999999999995 2.062099999999999,0.32010000000000005 2.0614999999999988,0.31619999999999937 2.0543999999999993,0.31039999999999957 2.0413999999999994,0.3096999999999994 2.0374999999999996,0.3155000000000001 2.0329999999999995,0.3155000000000001 2.0343,0.3096999999999994 2.031699999999999,0.3064 2.030999999999999,0.30129999999999946 2.0265000000000004,0.30129999999999946 2.0252,0.29349999999999987 2.0206,0.29220000000000024 2.0192999999999994,0.27669999999999995 2.0108999999999995,0.2734999999999994 2.014099999999999,0.2812000000000001 2.0044000000000004,0.2812000000000001 2.0044000000000004,0.2903000000000002 2.000499999999999,0.2915000000000001 1.9947,0.2856999999999994 1.9960000000000004,0.2759999999999998 1.9920999999999989,0.26949999999999985 1.9926999999999992,0.2629999999999999 1.9848999999999997,0.2538999999999998 1.9862000000000002,0.24679999999999946 1.9764999999999997,0.24099999999999966 1.9712999999999994,0.23580000000000023 1.9771,0.22739999999999938 1.9757999999999996,0.2229000000000001 1.9693000000000005,0.22029999999999994 1.9609000000000005,0.2253999999999996 1.9530999999999992,0.21769999999999978 1.9564000000000004,0.21059999999999945 1.9672999999999998,0.20089999999999986 1.968,0.1943999999999999 1.9725000000000001,0.19119999999999937 1.969899999999999,0.18269999999999964 1.9737999999999989,0.1567999999999996 1.952399999999999,0.15810000000000013 1.9468999999999994,0.15620000000000012 1.9427000000000003,0.15749999999999975 1.935599999999999,0.15549999999999997 1.9316999999999993,0.1476999999999995 1.934899999999999,0.13669999999999938 1.9429999999999996,0.12910000000000021 1.9421999999999997,0.1255999999999995 1.9367999999999999,0.11799999999999944 1.938699999999999,0.1166999999999998 1.9360999999999997,0.11540000000000017 1.9374000000000002,0.1036999999999999 1.9322,0.0920999999999994 1.9283000000000001,0.08819999999999961 1.9146999999999998,0.08559999999999945 1.9101999999999997,0.07969999999999988 1.9108,0.0699999999999994 1.908199999999999,0.06419999999999959 1.8933,0.06679999999999975 1.890699999999999,0.05900000000000016 1.8925999999999998,0.0506000000000002 1.886099999999999,0.045999999999999375 1.8803,0.04800000000000004 1.8737999999999992,0.045999999999999375 1.8789999999999996,0.03699999999999992 1.8867999999999991,0.027899999999999814 1.888,0.014899999999999913 1.8821999999999992,0.018200000000000216 1.869299999999999,0.01949999999999985 1.8543000000000003,0.012299999999999756 1.8510999999999989,0.007799999999999585 1.8504000000000005,0.0031999999999996476 1.846499999999999,0.0 1.8420000000000005,0.0045999999999999375 1.8368000000000002,0.0045000000000001705 1.8257999999999992,0.0005999999999994898 1.8161000000000005,0.0005999999999994898 1.806099999999999,0.004799999999999471 1.8017000000000003,0.012799999999999478 1.793099999999999,0.01839999999999975 1.737,0.041999999999999815 1.7339000000000002,0.04479999999999951 1.7317,0.044500000000000206 1.6963999999999988,0.059499999999999886 1.6905999999999999,0.06309999999999949 1.689499999999999,0.06529999999999969 1.7064000000000004,0.056400000000000006 1.7058999999999997,0.05999999999999961 1.6944999999999997,0.06639999999999979 1.6938999999999993,0.0674999999999999 1.6959,0.06869999999999976 1.6920000000000002,0.06919999999999948 1.692499999999999,0.07310000000000016 1.6902999999999988,0.07419999999999938 1.6881000000000004,0.08279999999999976 1.6841999999999988,0.08950000000000014 1.679499999999999,0.09339999999999993 1.6820000000000004,0.10139999999999993 1.6936,0.1070000000000002 1.6963999999999988,0.11390000000000011 1.6950000000000003,0.11390000000000011 1.6936,0.10839999999999961 1.6822,0.10389999999999944 1.6759000000000004,0.09560000000000013 1.6423000000000005,0.12309999999999999 1.5597999999999992,0.1719999999999997 1.4674999999999994,0.21950000000000003 1.4481000000000002,0.2272999999999996 1.3925,0.25450000000000017 1.1999999999999993,0.33169999999999966 1.105599999999999,0.3663999999999996 0.9809000000000001,0.41610000000000014 0.9253,0.4349999999999996 0.8424999999999994,0.45840000000000014 0.8035999999999994,0.46530000000000005 0.7789000000000001,0.46669999999999945 0.7905999999999995,0.47199999999999953 0.8027999999999995,0.47279999999999944 0.8125,0.4828000000000001 0.8255999999999997,0.4891999999999994 0.843399999999999,0.4900000000000002 0.843399999999999,0.5055999999999994 0.8394999999999992,0.5064000000000002 0.8331,0.5111999999999997 0.8280999999999992,0.5156000000000001 0.8222000000000005,0.5247999999999999 0.8141999999999996,0.5289000000000001 0.8133999999999997,0.5308999999999999 0.8194999999999997,0.5416999999999996 0.8247,0.5453000000000001 0.8263999999999996,0.5499999999999998 0.8324999999999996,0.5575000000000001 0.8333999999999993,0.5613999999999999 0.8398000000000003,0.5689000000000002 0.8459000000000003,0.5880999999999998 0.8485999999999994,0.5916999999999994 0.8574999999999999,0.5958999999999994 0.8581000000000003,0.5988999999999995 0.8608999999999991,0.6017000000000001 0.8430999999999997,0.6353 0.8408999999999995,0.6353 0.8341999999999992,0.6433999999999997 0.8347999999999995,0.6491999999999996 0.8388999999999989,0.6494999999999997 0.8345000000000002,0.6502999999999997 0.8345000000000002,0.6541999999999994 0.8367000000000004,0.6547999999999998 0.8353000000000002,0.6661999999999999 0.8302999999999994,0.6819999999999995 0.8288999999999991,0.6825000000000001 0.827,0.6941999999999995 0.8292000000000002,0.6989000000000001 0.8292000000000002,0.7023000000000001 0.8284000000000002,0.6983999999999995 0.8255999999999997,0.6966999999999999 0.8155999999999999,0.7081 0.8044999999999991,0.7122999999999999 0.8035999999999994,0.7164000000000001 0.7964000000000002,0.7199999999999998 0.7919999999999998,0.7183999999999999 0.781699999999999,0.7291999999999996 0.7716999999999992,0.7294999999999998 0.7681000000000004,0.7311999999999994 0.7636000000000003,0.7360999999999995 0.7559000000000005,0.7516999999999996 0.7553000000000001,0.7599999999999998 0.7197999999999993,0.7691999999999997 0.7144999999999992,0.7667000000000002 0.7097999999999995,0.7688999999999995 0.6852999999999998,0.7706 0.6816999999999993,0.7749999999999995 0.6777999999999995,0.7767 0.6672999999999991,0.7762000000000002 0.6610999999999994,0.7786999999999997 0.6513999999999989,0.7791999999999994 0.6478000000000002,0.7808999999999999 0.6466999999999992,0.7831000000000001 0.6413999999999991,0.7824999999999998 0.6364000000000001,0.7863999999999995 0.6225000000000005,0.7911000000000001 0.6189,0.7892000000000001 0.6120000000000001,0.7892000000000001 0.5989000000000004,0.7842000000000002 0.5928000000000004,0.7839 0.5827999999999989,0.7972999999999999 0.5785999999999998,0.7997999999999994 0.5749999999999993,0.7991999999999999 0.5635999999999992,0.8072999999999997 0.5574999999999992,0.8170000000000002 0.5488999999999997,0.8247999999999998 0.5483999999999991,0.8305999999999996 0.5448000000000004,0.8289 0.5438999999999989,0.8266999999999998 0.5385999999999989,0.827 0.5289000000000001,0.8324999999999996 0.5250000000000004,0.8388999999999998 0.5202999999999989,0.8388999999999998 0.5175000000000001,0.8408999999999995 0.5130999999999997,0.8498000000000001 0.5128000000000004,0.8666999999999998 0.4977999999999998,0.8724999999999996 0.4958999999999989,0.8708999999999998 0.4949999999999992,0.8724999999999996 0.4919999999999991,0.8724999999999996 0.4914000000000005,0.8744999999999994 0.47749999999999915,0.8780999999999999 0.47390000000000043,0.8814000000000002 0.4670000000000005,0.8834 0.46250000000000036,0.8866999999999994 0.46090000000000053,0.8906000000000001 0.45420000000000016,0.8917000000000002 0.4428000000000001,0.9024999999999999 0.4389000000000003,0.9022999999999994 0.4314,0.9077999999999999 0.4306000000000001,0.9127999999999998 0.4238999999999997,0.9241999999999999 0.42109999999999914,0.9247999999999994 0.4172999999999991,0.9314 0.41389999999999993,0.9327999999999994 0.40139999999999887,0.9489000000000001 0.39250000000000007,0.9534000000000002 0.38589999999999947,0.9539 0.3780999999999999,0.9523000000000001 0.3735999999999997,0.9577999999999998 0.3652999999999995,0.9741999999999997 0.35249999999999915,0.9889000000000001 0.34890000000000043,0.9913999999999996 0.34609999999999985,0.9912000000000001 0.34249999999999936,0.9997999999999996 0.34419999999999895,1.0011 0.3530999999999995,0.9977999999999998 0.3644999999999996,1.0035999999999996 0.3708999999999989,1.0035999999999996 0.38090000000000046,1.0111999999999997 0.3827999999999996,1.0159000000000002 0.3874999999999993,1.0167000000000002 0.38839999999999897,1.0198 0.39090000000000025,1.0202999999999998 0.39170000000000016,1.0225 0.39390000000000036,1.0228000000000002 0.39700000000000024,1.0262000000000002 0.39979999999999905,1.0267 0.40249999999999986,1.0249999999999995 0.40749999999999886,1.0278 0.4145000000000003,1.0289000000000001 0.4155999999999995,1.0434 0.4123000000000001,1.0499999999999998 0.41389999999999993,1.0538999999999996 0.41169999999999973,1.0594999999999999 0.41199999999999903,1.0663999999999998 0.40859999999999985,1.072 0.4108999999999998,1.0797999999999996 0.40779999999999994,1.08 0.4084000000000003,1.0894999999999992 0.40279999999999916,1.1044999999999998 0.40390000000000015,1.1069999999999993 0.40199999999999925,1.1073000000000004 0.40279999999999916,1.1128 0.39920000000000044,1.1160999999999994 0.39780000000000015,1.1217000000000006 0.39809999999999945,1.125 0.40199999999999925,1.129199999999999 0.4023000000000003,1.1335999999999995 0.40390000000000015,1.1356000000000002 0.40339999999999954,1.1448 0.40169999999999995,1.1456 0.40199999999999925,1.1519999999999992 0.40729999999999933,1.1584000000000003 0.40749999999999886,1.162799999999999 0.40090000000000003,1.1763999999999992 0.3913999999999991,1.1738999999999997 0.3899999999999988,1.1777999999999995 0.39250000000000007,1.180299999999999 0.39250000000000007,1.1834000000000007 0.3874999999999993,1.1885999999999992 0.3803000000000001,1.1920000000000002 0.3825000000000003,1.1942000000000004 0.3827999999999996,1.1973000000000003 0.3780999999999999,1.2052999999999994 0.3760999999999992,1.2127999999999997 0.373899999999999,1.2164000000000001 0.3705999999999996,1.2180999999999997 0.3711000000000002,1.2219999999999995 0.3613999999999997,1.2372999999999994 0.34999999999999964,1.2459000000000007 0.34949999999999903,1.248899999999999 0.34280000000000044,1.2577999999999996 0.3396999999999988,1.2589000000000006 0.33199999999999896,1.2691999999999997 0.3200000000000003,1.2791999999999994 0.3105999999999991,1.2912 0.3125,1.298399999999999 0.3158999999999992,1.2997999999999994 0.31729999999999947,1.3027999999999995 0.3155999999999999,1.3170000000000002 0.3133999999999997,1.3194999999999997 0.3044999999999991,1.3194999999999997 0.2986000000000004,1.3148 0.29359999999999964,1.3170000000000002 0.28889999999999993,1.3163999999999998 0.28669999999999973,1.3172999999999995 0.28500000000000014,1.322799999999999 0.2773000000000003,1.3178 0.27200000000000024,1.3180999999999994 0.26810000000000045,1.3158999999999992 0.26750000000000007,1.3178 0.26339999999999897,1.3192000000000004 0.2485999999999997,1.3206000000000007 0.24230000000000018,1.3206000000000007 0.2392000000000003,1.3170000000000002 0.23219999999999885,1.3145000000000007 0.22749999999999915,1.3158999999999992 0.22170000000000023,1.3064 0.22170000000000023,1.3003 0.21279999999999966,1.2997999999999994 0.21199999999999974,1.2970000000000006 0.20449999999999946,1.2958999999999996 0.20169999999999888,1.2899999999999991 0.19669999999999987,1.2861999999999991 0.1963999999999988,1.2836999999999996 0.19420000000000037,1.2844999999999995 0.1894999999999989,1.281699999999999 0.18590000000000018,1.2822999999999993 0.1828000000000003,1.2783999999999995 0.1730999999999998,1.2789000000000001 0.16949999999999932,1.2716999999999992 0.16589999999999883,1.2706 0.15859999999999985,1.2622999999999998 0.15139999999999887,1.2586999999999993 0.14719999999999978,1.2533999999999992 0.14170000000000016,1.2524999999999995 0.13839999999999897,1.2559000000000005 0.14250000000000007,1.2638999999999996 0.14090000000000025,1.266399999999999 0.14109999999999978,1.2734000000000005 0.13949999999999996,1.2767 0.14199999999999946,1.2777999999999992 0.14139999999999908,1.2834000000000003 0.15000000000000036,1.2942 0.14780000000000015,1.2952999999999992 0.14250000000000007,1.3180999999999994 0.13979999999999926,1.3194999999999997 0.14029999999999987,1.322799999999999 0.14359999999999928,1.3253000000000004 0.14170000000000016,1.3284000000000002 0.14230000000000054,1.331999999999999 0.14059999999999917,1.3328000000000007 0.14109999999999978,1.3263999999999996 0.13979999999999926,1.3249999999999993 0.13669999999999938,1.3369999999999997 0.1291999999999991,1.3394999999999992 0.12839999999999918,1.3424999999999994 0.13090000000000046,1.3473000000000006 0.13669999999999938,1.3528000000000002 0.13199999999999967,1.3622999999999994 0.13919999999999888,1.3652999999999995 0.14199999999999946,1.3673000000000002 0.14230000000000054,1.3681 0.13170000000000037,1.3661999999999992 0.12809999999999988,1.3634000000000004 0.12229999999999919,1.3652999999999995 0.1169999999999991,1.3642000000000003 0.1166999999999998,1.3664000000000005 0.1189,1.3673000000000002 0.11749999999999972,1.3727999999999998 0.11359999999999992,1.3780999999999999 0.10890000000000022,1.3780999999999999 0.10999999999999943,1.3795000000000002 0.10890000000000022,1.3827999999999996 0.11280000000000001,1.3844999999999992 0.11280000000000001,1.386099999999999 0.1073000000000004,1.3948 0.10639999999999894,1.4033999999999995 0.10249999999999915,1.4102999999999994 0.10360000000000014,1.4131 0.10229999999999961,1.4133999999999993 0.10200000000000031,1.4167000000000005 0.08999999999999986,1.418899999999999 0.08499999999999908,1.4238999999999997 0.06949999999999967,1.4269999999999996 0.0688999999999993,1.4299999999999997 0.07169999999999987,1.430299999999999 0.07000000000000028,1.435599999999999 0.067499999999999,1.4328000000000003 0.05480000000000018,1.4487000000000005 0.051399999999999224,1.455 0.03999999999999915,1.4649999999999999 0.038899999999999935,1.4680999999999997 0.040899999999998826,1.4687000000000001 0.040899999999998826,1.4711999999999996 0.037799999999998946,1.4772999999999996 0.03309999999999924,1.480599999999999 0.03110000000000035,1.4886 0.025299999999999656,1.4972999999999992 0.01980000000000004,1.5033999999999992 0.01810000000000045,1.5010999999999992 0.01529999999999987,1.5008999999999997 0.009499999999999176,1.504999999999999 0.014999999999998792,1.5094999999999992 0.010299999999999088,1.5191999999999997 0.014499999999999957,1.5177999999999994 0.01980000000000004,1.5185999999999993 0.024200000000000443,1.5238999999999994 0.022800000000000153,1.5352999999999994 0.024699999999999278,1.5361999999999991 0.025299999999999656,1.5389 0.023099999999999454,1.5487000000000002 0.014699999999999491,1.5694999999999997 0.010600000000000165,1.5753000000000004 0.006999999999999673,1.5747999999999998 0.004999999999999005,1.5763999999999996 0.006700000000000372,1.5814000000000004 0.009499999999999176,1.5792000000000002 0.009199999999999875,1.5767000000000007 0.011699999999999378,1.5763999999999996 0.011099999999999,1.5786999999999995 0.012800000000000367,1.5808999999999997 0.01670000000000016,1.581999999999999 0.019999999999999574,1.5775000000000006 0.022499999999999076,1.5786999999999995 0.024699999999999278,1.575899999999999 0.02970000000000006,1.5755999999999997 0.027300000000000324,1.573599999999999 0.023099999999999454,1.5733999999999995 0.022299999999999542,1.5716999999999999 0.025000000000000355,1.5627999999999993 0.023600000000000065,1.5578000000000003 0.026699999999999946,1.5602999999999998 0.025599999999998957,1.5670000000000002 0.027499999999999858,1.5672999999999995 0.03089999999999904,1.5724999999999998 0.03059999999999974,1.5753000000000004 0.03529999999999944,1.5798000000000005 0.04219999999999935,1.5763999999999996 0.04780000000000051,1.5672999999999995 0.05030000000000001,1.5686 0.0497999999999994,1.5719999999999992 0.051399999999999224,1.5753000000000004 0.05529999999999902,1.5767000000000007 0.06339999999999968,1.5709 0.0666999999999991,1.5747999999999998 0.07029999999999959,1.575899999999999 0.07339999999999947,1.5731000000000002 0.07639999999999958,1.5745000000000005 0.08339999999999925,1.5733999999999995 0.08670000000000044,1.5747999999999998 0.08670000000000044,1.577 0.09469999999999956,1.5767000000000007 0.10060000000000002,1.5731000000000002 0.10089999999999932,1.5702999999999996 0.09859999999999935,1.5680999999999994 0.10139999999999993,1.5672999999999995 0.10029999999999895,1.5662000000000003 0.10109999999999886,1.563699999999999 0.10479999999999912,1.5645000000000007 0.10699999999999932,1.5633999999999997 0.10919999999999952,1.5655999999999999 0.11110000000000042,1.5639000000000003 0.1181000000000001,1.5653000000000006 0.1189,1.561399999999999 0.12199999999999989,1.560599999999999 0.12340000000000018,1.5570000000000004 0.13030000000000008,1.5519999999999996 0.13669999999999938,1.5413999999999994 0.14419999999999966,1.5373 0.14809999999999945,1.5325000000000006 0.15499999999999936,1.5183999999999997 0.16169999999999973,1.513399999999999 0.16249999999999964,1.5091999999999999 0.1708999999999996,1.5084 0.1730999999999998,1.5098000000000003 0.17499999999999893,1.5069999999999997 0.1814,1.5053 0.1852999999999998,1.5024999999999995 0.1855999999999991,1.5 0.1836000000000002,1.4975000000000005 0.17719999999999914,1.4975000000000005 0.1753,1.5002999999999993 0.1730999999999998,1.5014000000000003 0.1698000000000004,1.5006000000000004 0.17199999999999882,1.498099999999999 0.17109999999999914,1.4962 0.16670000000000051,1.4977999999999998 0.1647999999999996,1.4941999999999993 0.16750000000000043,1.4967000000000006 0.17109999999999914,1.4947999999999997 0.1730999999999998,1.4969999999999999 0.1708999999999996,1.4998000000000005 0.17199999999999882,1.5008999999999997 0.17639999999999922,1.498099999999999 0.1728000000000005,1.4909 0.17360000000000042,1.4872999999999994 0.1733999999999991,1.4900000000000002 0.17779999999999951,1.4961000000000002 0.1875,1.4977999999999998 0.19200000000000017,1.4961000000000002 0.19529999999999959,1.4931 0.19699999999999918,1.4886 0.1960999999999995,1.485899999999999 0.192499999999999,1.4855999999999998 0.19059999999999988,1.4831000000000003 0.1916999999999991,1.480599999999999 0.19059999999999988,1.4778000000000002 0.1936,1.4766999999999992 0.19500000000000028,1.4780999999999995 0.19200000000000017,1.4774999999999991 0.192499999999999,1.4809 0.1911000000000005,1.4827999999999992 0.192499999999999,1.4845000000000006 0.19589999999999996,1.4839000000000002 0.1977999999999991,1.4862000000000002 0.19730000000000025,1.492799999999999 0.20609999999999928,1.4947999999999997 0.20839999999999925,1.4972999999999992 0.21030000000000015,1.4967000000000006 0.21480000000000032,1.4845000000000006 0.22109999999999985,1.474499999999999 0.22390000000000043,1.4656000000000002 0.23499999999999943,1.4578000000000007 0.2358999999999991,1.4534000000000002 0.2408999999999999,1.4473000000000003 0.24109999999999943,1.4495000000000005 0.23749999999999893,1.4556000000000004 0.2380999999999993,1.4587000000000003 0.2416999999999998,1.4574999999999996 0.26060000000000016,1.4588999999999999 0.2641999999999989,1.4525000000000006 0.26339999999999897,1.4583999999999993 0.26089999999999947,1.4603000000000002 0.24840000000000018,1.4605999999999995 0.2380999999999993,1.4634 0.23359999999999914,1.4739000000000004 0.23000000000000043,1.4762000000000004 0.22780000000000022,1.4802999999999997 0.22719999999999985,1.487 0.22529999999999895,1.4878 0.22229999999999883,1.4933999999999994 0.22719999999999985,1.4969999999999999 0.2358999999999991,1.4953000000000003 0.24249999999999972,1.5023 0.2485999999999997,1.5023 0.25,1.504999999999999 0.2530999999999999,1.5059000000000005 0.248899999999999,1.5061999999999998 0.2472999999999992,1.5028000000000006 0.2414000000000005,1.5033999999999992 0.2370000000000001,1.4992 0.23170000000000002,1.5 0.23000000000000043,1.5030999999999999 0.23029999999999973,1.5077999999999996 0.22749999999999915,1.5128000000000004 0.22949999999999982,1.5155999999999992 0.22889999999999944,1.5160999999999998 0.22669999999999924,1.513399999999999 0.22860000000000014,1.5084 0.22639999999999993,1.5028000000000006 0.21979999999999933,1.5006000000000004 0.21389999999999887,1.501199999999999 0.21030000000000015,1.504199999999999 0.1977999999999991,1.5075000000000003 0.18810000000000038,1.5142000000000007 0.18730000000000047,1.5124999999999993 0.1850000000000005,1.5128000000000004 0.17140000000000022,1.5191999999999997 0.16889999999999894,1.5216999999999992 0.16530000000000022,1.530899999999999 0.1647999999999996,1.5336999999999996 0.16639999999999944,1.5364000000000004 0.17469999999999963,1.5395000000000003 0.17779999999999951,1.5383999999999993 0.17970000000000041,1.5427999999999997 0.1830999999999996,1.5452999999999992 0.18249999999999922,1.548399999999999 0.1885999999999992,1.549999999999999 0.19089999999999918,1.549999999999999 0.1916999999999991,1.545 0.19449999999999967,1.5411000000000001 0.20669999999999966,1.5409000000000006 0.2085999999999988,1.5436999999999994 0.20669999999999966,1.5478000000000005 0.20779999999999887,1.5488999999999997 0.21309999999999896,1.5448000000000004 0.21979999999999933,1.5448000000000004 0.21999999999999886,1.5391999999999992 0.22139999999999915,1.5389 0.22139999999999915,1.5448000000000004 0.21279999999999966,1.5458999999999996 0.20889999999999986,1.5495 0.20609999999999928,1.5487000000000002 0.20730000000000004,1.5442 0.20609999999999928,1.5419999999999998 0.19699999999999918,1.5417000000000005 0.19340000000000046,1.543899999999999 0.19280000000000008,1.5470000000000006 0.19589999999999996,1.5517000000000003 0.19500000000000028,1.5549999999999997 0.19839999999999947,1.5641999999999996 0.19699999999999918,1.5686 0.19950000000000045,1.569799999999999 0.21030000000000015,1.5670000000000002 0.21389999999999887,1.5700000000000003 0.22029999999999994,1.5688999999999993 0.22529999999999895,1.5798000000000005 0.23639999999999972,1.5802999999999994 0.24029999999999951,1.5824999999999996 0.2431000000000001,1.5861999999999998 0.2453000000000003,1.5938999999999997 0.24840000000000018,1.5950000000000006 0.2514000000000003,1.6087000000000007 0.25450000000000017,1.6103000000000005 0.27779999999999916,1.599499999999999 0.27590000000000003,1.5959000000000003 0.26449999999999996,1.5869999999999997 0.26339999999999897,1.5823 0.26590000000000025,1.5777999999999999 0.27590000000000003,1.5678 0.27859999999999907,1.5611999999999995 0.27859999999999907,1.5584000000000007 0.27529999999999966,1.5574999999999992 0.27200000000000024,1.5541999999999998 0.27529999999999966,1.5531000000000006 0.27609999999999957,1.5566999999999993 0.28030000000000044,1.5578000000000003 0.28420000000000023,1.5488999999999997 0.28249999999999886,1.5617 0.2858999999999998,1.5631000000000004 0.2895000000000003,1.5609000000000002 0.2908999999999988,1.5611999999999995 0.28720000000000034,1.5631000000000004 0.28229999999999933,1.5694999999999997 0.2773000000000003,1.5694999999999997 0.27779999999999916,1.5733999999999995 0.27500000000000036,1.5762 0.2795000000000005,1.5794999999999995 0.2773000000000003,1.5824999999999996 0.27479999999999905,1.5823 0.27859999999999907,1.5798000000000005 0.27420000000000044,1.577 0.27639999999999887,1.5731000000000002 0.27559999999999896,1.5716999999999999 0.2660999999999998,1.5833999999999993 0.26670000000000016,1.5859000000000005 0.27699999999999925,1.5924999999999994 0.28030000000000044,1.5963999999999992 0.28059999999999974,1.600299999999999 0.27699999999999925,1.6044999999999998 0.2773000000000003,1.6087000000000007 0.28169999999999895,1.6105999999999998 0.27919999999999945,1.6075 0.28169999999999895,1.6044999999999998 0.28059999999999974,1.6075 0.28309999999999924,1.6105999999999998 0.27810000000000024,1.610899999999999 0.27479999999999905,1.6052999999999997 0.26089999999999947,1.6164000000000005 0.2638999999999996,1.6213999999999995 0.26779999999999937,1.6219999999999999 0.27360000000000007,1.6270000000000007 0.27779999999999916,1.6366999999999994 0.27919999999999945,1.6362000000000005 0.27970000000000006,1.632299999999999 0.28449999999999953,1.6295000000000002 0.27859999999999907,1.6209000000000007 0.28089999999999904,1.6187000000000005 0.28609999999999935,1.6187000000000005 0.27970000000000006,1.6211000000000002 0.2858999999999998,1.6297999999999995 0.28110000000000035,1.632299999999999 0.28059999999999974,1.638399999999999 0.27609999999999957,1.6378000000000004 0.28169999999999895,1.647499999999999 0.28420000000000023,1.6472999999999995 0.28420000000000023,1.6433999999999997 0.29110000000000014,1.6374999999999993 0.29609999999999914,1.6378000000000004 0.3005999999999993,1.6358999999999995 0.3041999999999998,1.6364 0.3125,1.6425 0.3180999999999994,1.6411999999999995 0.3249999999999993,1.6417000000000002 0.3261000000000003,1.6453000000000007 0.32809999999999917,1.6462000000000003 0.3288999999999991,1.641399999999999 0.33590000000000053,1.6349999999999998 0.33670000000000044,1.623099999999999 0.33559999999999945,1.6191999999999993 0.33949999999999925,1.6148000000000007 0.3371999999999993,1.6122999999999994 0.33949999999999925,1.611699999999999 0.34029999999999916,1.6136999999999997 0.34419999999999895,1.612499999999999 0.3481000000000005,1.6144999999999996 0.35139999999999993,1.6122999999999994 0.35169999999999924,1.6099999999999994 0.35749999999999993,1.6091999999999995 0.361699999999999,1.606399999999999 0.3542000000000005,1.5991999999999997 0.34779999999999944,1.5889000000000006 0.3506,1.5792000000000002 0.3522999999999996,1.58 0.34949999999999903,1.5859000000000005 0.34999999999999964,1.5898000000000003 0.3550000000000004,1.5947999999999993 0.3552999999999997,1.5973000000000006 0.3608999999999991,1.5999999999999996 0.3634000000000004,1.6034000000000006 0.3630999999999993,1.6083999999999996 0.3591999999999995,1.6113999999999997 0.37480000000000047,1.617799999999999 0.3872,1.629999999999999 0.38560000000000016,1.6387 0.3772000000000002,1.644499999999999 0.3752999999999993,1.6484000000000005 0.3638999999999992,1.6527999999999992 0.3591999999999995,1.656699999999999 0.34859999999999935,1.6598000000000006 0.3483999999999998,1.6645000000000003 0.33859999999999957,1.6745 0.33530000000000015,1.6753 0.33559999999999945,1.6816999999999993 0.33089999999999975,1.6847999999999992 0.33029999999999937,1.6903000000000006 0.3285999999999998,1.6903000000000006 0.32920000000000016,1.6847999999999992 0.33419999999999916,1.6816999999999993 0.33419999999999916,1.6753 0.32089999999999996,1.6822999999999997 0.3086000000000002,1.6838999999999995 0.3027999999999995,1.6822999999999997 0.2978000000000005,1.6773000000000007 0.28529999999999944,1.6777999999999995 0.28169999999999895,1.6806 0.28279999999999994,1.686399999999999 0.28200000000000003,1.6875 0.28030000000000044,1.6844999999999999 0.27609999999999957,1.6824999999999992 0.27089999999999925,1.6767000000000003 0.261099999999999,1.6738999999999997 0.2538999999999998,1.6694999999999993 0.2469999999999999,1.6584000000000003 0.2475000000000005,1.657 0.24499999999999922,1.657 0.24230000000000018,1.6519999999999992 0.24109999999999943,1.653599999999999 0.24249999999999972,1.6539000000000001 0.24279999999999902,1.6562000000000001 0.23749999999999893,1.6578 0.2370000000000001,1.662799999999999 0.2353000000000005,1.6641999999999992 0.21359999999999957,1.6667000000000005 0.21340000000000003,1.6730999999999998 0.20749999999999957,1.6820000000000004 0.2085999999999988,1.6875 0.22310000000000052,1.6908999999999992 0.2353000000000005,1.697799999999999 0.23749999999999893,1.6969999999999992 0.2372999999999994,1.6930999999999994 0.23859999999999992,1.6912000000000003 0.2439,1.6895000000000007 0.2392000000000003,1.692499999999999 0.23889999999999922,1.6973000000000003 0.23610000000000042,1.6999999999999993 0.24109999999999943,1.7025000000000006 0.2463999999999995,1.7111 0.2485999999999997,1.712299999999999 0.24980000000000047,1.7195 0.2561,1.7274999999999991 0.2641999999999989,1.7288999999999994 0.27200000000000024,1.7274999999999991 0.27699999999999925,1.7327999999999992 0.2881,1.7372999999999994 0.28669999999999973,1.7380999999999993 0.28110000000000035,1.7349999999999994 0.27639999999999887,1.7353000000000005 0.27810000000000024,1.7431 0.2773000000000003,1.7469999999999999 0.27449999999999974,1.7363999999999997 0.27229999999999954,1.7339000000000002 0.26810000000000045,1.7319999999999993 0.2599999999999998,1.7325 0.2522000000000002,1.7274999999999991 0.2502999999999993,1.7278000000000002 0.2469999999999999,1.737499999999999 0.2492000000000001,1.7492 0.2516999999999996,1.7530999999999999 0.2567000000000004,1.7547999999999995 0.248899999999999,1.7545000000000002 0.24840000000000018,1.7624999999999993 0.2527999999999988,1.7652999999999999 0.2510999999999992,1.7659000000000002 0.2472999999999992,1.7638999999999996 0.2453000000000003,1.7555999999999994 0.2458999999999989,1.7484000000000002 0.2441999999999993,1.7459000000000007 0.24059999999999881,1.7498000000000005 0.2355999999999998,1.7620000000000005 0.2333999999999996,1.7620000000000005 0.2355999999999998,1.7523 0.2392000000000003,1.7502999999999993 0.2441999999999993,1.737499999999999 0.24359999999999893,1.7144999999999992 0.24109999999999943,1.7095000000000002 0.2370000000000001,1.7083999999999993 0.23499999999999943,1.7044999999999995 0.22639999999999993,1.6989 0.21589999999999954,1.6974999999999998 0.2085999999999988,1.6999999999999993 0.20229999999999926,1.697799999999999 0.1913999999999998,1.7081 0.1844999999999999,1.7113999999999994 0.1806000000000001,1.7162000000000006 0.1833999999999989,1.7203 0.19420000000000037,1.7225000000000001 0.20889999999999986,1.7333999999999996 0.20999999999999908,1.7416999999999998 0.20889999999999986,1.7453000000000003 0.20779999999999887,1.737499999999999 0.20139999999999958,1.7317 0.19529999999999959,1.7361000000000004 0.1960999999999995,1.7406000000000006 0.1999999999999993,1.7433999999999994 0.19529999999999959,1.7406000000000006 0.19449999999999967,1.7361000000000004 0.19890000000000008,1.730599999999999 0.19890000000000008,1.7278000000000002 0.1902999999999988,1.7231000000000005 0.1855999999999991,1.7231000000000005 0.17999999999999972,1.7203 0.1775000000000002,1.7213999999999992 0.1745000000000001,1.7264 0.17389999999999972,1.737 0.17199999999999882,1.7280999999999995 0.16029999999999944,1.7249999999999996 0.15279999999999916,1.7264 0.14949999999999974,1.7311999999999994 0.14969999999999928,1.737 0.15450000000000053,1.7431 0.16109999999999935,1.7581000000000007 0.15889999999999915,1.7567000000000004 0.15479999999999983,1.7462 0.14780000000000015,1.7409 0.1460999999999988,1.737 0.13919999999999888,1.7384000000000004 0.14669999999999916,1.7327999999999992 0.14669999999999916,1.7297999999999991 0.13919999999999888,1.7288999999999994 0.14639999999999986,1.7284000000000006 0.15059999999999896,1.7236999999999991 0.15000000000000036,1.7156000000000002 0.15390000000000015,1.7227999999999994 0.1698000000000004,1.7197999999999993 0.1775000000000002,1.7148000000000003 0.1816999999999993,1.703899999999999 0.17389999999999972,1.7064000000000004 0.16530000000000022,1.7017000000000007 0.16279999999999895,1.7027999999999999 0.16310000000000002,1.7011000000000003 0.16530000000000022,1.6999999999999993 0.1769999999999996,1.7035999999999998 0.19229999999999947,1.6928 0.19479999999999897,1.6859000000000002 0.18810000000000038,1.6716999999999995 0.186399999999999,1.6712000000000007 0.1860999999999997,1.668099999999999 0.1753,1.6524999999999999 0.1753,1.6348000000000003 0.16779999999999973,1.6283999999999992 0.16530000000000022,1.632299999999999 0.16339999999999932,1.6305999999999994 0.16499999999999915,1.6317000000000004 0.16729999999999912,1.6278000000000006 0.16999999999999993,1.629999999999999 0.17140000000000022,1.629199999999999 0.16859999999999964,1.6242 0.16699999999999982,1.612 0.16249999999999964,1.6067 0.15669999999999895,1.6037 0.15669999999999895,1.5985999999999994 0.14809999999999945,1.6022999999999996 0.14359999999999928,1.6081000000000003 0.13309999999999889,1.6095000000000006 0.13030000000000008,1.6195000000000004 0.11609999999999943,1.6358999999999995 0.10609999999999964,1.6539000000000001 0.10060000000000002,1.6761 0.09169999999999945,1.6989 0.07889999999999908,1.7178000000000004 0.07450000000000045,1.7203 0.07220000000000049,1.7256 0.0688999999999993,1.7278000000000002 0.0600000000000005,1.7447999999999997 0.060900000000000176,1.748899999999999 0.0583999999999989,1.7624999999999993 0.06109999999999971,1.7698 0.0602999999999998,1.7734000000000005 0.0625,1.7752999999999997 0.0625,1.7848000000000006 0.05860000000000021,1.8080999999999996 0.06139999999999901,1.8186 0.0627999999999993,1.8184000000000005 0.06449999999999889,1.8109000000000002 0.06170000000000009,1.8013999999999992 0.0666999999999991,1.7944999999999993 0.06610000000000049,1.7852999999999994 0.06809999999999938,1.7828 0.06920000000000037,1.7822999999999993 0.06969999999999921,1.7825000000000006 0.06639999999999979,1.7866999999999997 0.067499999999999,1.7962000000000007 0.06390000000000029,1.8003 0.06559999999999988,1.8072999999999997 0.0652999999999988,1.8206000000000007 0.06359999999999921,1.8249999999999993 0.05919999999999881,1.8284000000000002 0.054999999999999716,1.8402999999999992 0.05749999999999922,1.8630999999999993 0.054999999999999716,1.8895 0.057299999999999685,1.9019999999999992 0.0602999999999998,1.907 0.0686,1.9145000000000003 0.07450000000000045,1.9228000000000005 0.08169999999999966,1.9255999999999993 0.08750000000000036,1.9299999999999997 0.08859999999999957,1.9328000000000003 0.09750000000000014,1.9408999999999992 0.10229999999999961,1.941699999999999 0.10810000000000031,1.9373000000000005 0.11999999999999922,1.9344999999999999 0.13250000000000028,1.9224999999999994 0.13419999999999987,1.9230999999999998 0.1266999999999996,1.9308999999999994 0.12809999999999988,1.9330999999999996 0.13250000000000028,1.9328000000000003 0.14480000000000004,1.9259000000000004 0.15139999999999887,1.9267000000000003 0.16029999999999944,1.923399999999999 0.16809999999999903,1.923399999999999 0.1755999999999993,1.9261999999999997 0.17499999999999893,1.9344999999999999 0.1733999999999991,1.9350000000000005 0.17169999999999952,1.9399999999999995 0.16949999999999932,1.938699999999999 0.16610000000000014,1.9413999999999998 0.15920000000000023,1.9489 0.15920000000000023,1.952 0.14390000000000036,1.9666999999999994 0.14339999999999975,1.969199999999999 0.14529999999999887,1.9731000000000005 0.15390000000000015,1.9739000000000004 0.15339999999999954,1.9666999999999994 0.15419999999999945,1.9642 0.15669999999999895,1.9625000000000004 0.15450000000000053,1.9666999999999994 0.15589999999999904,1.9749999999999996 0.1460999999999988,1.9906000000000006 0.13949999999999996,1.9894999999999996 0.1277999999999988,1.9916999999999998 0.1260999999999992,1.9909 0.10749999999999993,1.9949999999999992 0.10389999999999944,1.9986999999999995 0.10029999999999895,2.0067000000000004 0.08339999999999925,2.0206 0.08029999999999937,2.0259 0.07699999999999996,2.0267 0.07339999999999947,2.0305999999999997 0.06589999999999918,2.031699999999999 0.06419999999999959,2.0289 0.05889999999999951,2.027799999999999 0.056699999999999307,2.0336999999999996 0.0497999999999994,2.037799999999999 0.04560000000000031,2.037799999999999 0.04609999999999914,2.032 0.042500000000000426,2.0313999999999997 0.03529999999999944,2.0342000000000002 0.019499999999998963,2.0359 0.014999999999998792,2.0383999999999993 0.009999999999999787,2.0462000000000007 0.012000000000000455,2.0653000000000006 0.009499999999999176,2.066699999999999 0.006999999999999673,2.0717 0.006700000000000372,2.0775000000000006 0.008099999999998886,2.078899999999999 0.006999999999999673,2.0847999999999995 0.009800000000000253,2.0884 0.01249999999999929,2.0889000000000006 0.011699999999999378,2.0969999999999995 0.006700000000000372,2.111699999999999 0.0,2.122299999999999 0.03560000000000052,2.149799999999999 0.055899999999999395,2.1575000000000006 0.0671999999999997,2.1578 0.08789999999999942,2.1540999999999997 0.09660000000000046,2.155099999999999 0.12929999999999886,2.1747999999999994 0.14039999999999964,2.1739999999999995 0.15199999999999925,2.1683000000000003 0.18039999999999878,2.1402 0.19599999999999973,2.1319999999999997 0.21589999999999954,2.1308000000000007 0.23409999999999975,2.134599999999999 0.24520000000000053,2.1408000000000005 0.25269999999999904,2.164999999999999 0.25980000000000025,2.1690000000000005 0.2674000000000003,2.1706000000000003 0.28500000000000014,2.17 0.2917000000000005,2.1732999999999993 0.3013999999999992,2.1798 0.3118999999999996,2.1952 0.32259999999999955,2.2148000000000003 0.33009999999999984,2.241299999999999 0.33029999999999937,2.2475000000000005 0.3332999999999995,2.254199999999999 0.34729999999999883,2.2645999999999997 0.3492999999999995,2.2721999999999998 0.34469999999999956,2.3177000000000003 0.35109999999999886,2.3316999999999997 0.35970000000000013,2.3580000000000005 0.3683999999999994,2.3690999999999995 0.3769999999999989,2.3689 0.38700000000000045,2.365 0.40279999999999916,2.3534000000000006 0.4103999999999992,2.3527000000000005 0.42239999999999966,2.3604000000000003 0.42709999999999937,2.3789999999999996 0.4306000000000001,2.380699999999999 0.4352999999999998,2.377699999999999 0.44629999999999903,2.3781999999999996 0.4626999999999999,2.3676999999999992 0.47219999999999906,2.3735 0.4783999999999988,2.3733000000000004 0.4870000000000001,2.3682999999999996 0.4914000000000005,2.3691999999999993 0.4969000000000001,2.3758999999999997 0.5093999999999994,2.3798999999999992 0.5139999999999993,2.3831000000000007 0.5151000000000003,2.3863000000000003 0.5138999999999996,2.3950999999999993 0.5154999999999994,2.398299999999999 0.5183,2.3992000000000004 0.5220000000000002,2.4063999999999997 0.5248999999999988,2.415799999999999 0.5246999999999993,2.4224999999999994 0.5265000000000004,2.424999999999999 0.5465999999999998,2.4246 0.5526,2.4320000000000004 0.5518999999999998,2.4380000000000006 0.5469999999999988,2.448599999999999 0.5452999999999992,2.459299999999999 0.5457000000000001,2.4708000000000006 0.5512999999999995,2.4788999999999994 0.5794999999999995,2.4776000000000007 0.5867000000000004,2.4727999999999994 0.5913000000000004,2.4718999999999998 0.5922000000000001,2.4839 0.5946999999999996,2.4932999999999996 0.5999999999999996,2.4978999999999996 0.6051000000000002,2.4986999999999995 0.6122999999999994,2.4903999999999993 0.6145999999999994,2.489699999999999 0.6166999999999998,2.4916 0.6174,2.5000999999999998 0.620099999999999,2.503499999999999 0.6180000000000003,2.5131999999999994 0.6234999999999999,2.5176 0.6234999999999999,2.5213 0.6196000000000002,2.5253999999999994 0.6231999999999989,2.5329999999999995 0.625,2.546099999999999 0.6307999999999989,2.5493000000000006 0.6321999999999992,2.5516000000000005 0.6314999999999991,2.5578000000000003 0.6527999999999992,2.5913000000000004 0.6541999999999994,2.5991 0.6523000000000003,2.6068999999999996 0.6429999999999989,2.6144 0.645999999999999,2.621599999999999 0.6555,2.6303 0.6606000000000005,2.6319999999999997 0.6691000000000003,2.6305999999999994 0.6707000000000001,2.635 0.6669999999999998,2.6434999999999995 0.6671999999999993,2.6479 0.672699999999999,2.6545000000000005 0.6822999999999997,2.6835000000000004 0.6885999999999992,2.688599999999999 0.7034000000000002,2.6831999999999994 0.7118000000000002,2.6822999999999997 0.7128999999999994,2.6949000000000005 0.7180999999999997,2.7112999999999996 0.7179000000000002,2.7177000000000007 0.7119999999999997,2.7364999999999995 0.7137999999999991,2.7430000000000003 0.7164000000000001,2.7455 0.7202999999999999,2.7460000000000004 0.7249999999999996,2.740499999999999 0.7279999999999998,2.7423 0.7293000000000003,2.7524999999999995 0.7339000000000002,2.7598000000000003 0.7355,2.7662999999999993 0.7346000000000004,2.774799999999999 0.7367999999999988,2.7851 0.7468000000000004,2.7859 0.7561,2.7913999999999994 0.7674000000000003,2.8028999999999993 0.7698999999999998,2.8025 0.7745999999999995,2.791499999999999 0.7777999999999992,2.7882999999999996 0.7811000000000003,2.787799999999999 0.7841000000000005,2.7897 0.7843,2.7965999999999998 0.7753999999999994,2.8187999999999995 0.7778999999999989,2.8240999999999996 0.7805,2.825799999999999 0.7943999999999996,2.8253000000000004 0.7961999999999989,2.8283000000000005 0.7950999999999997,2.8317999999999994 0.7850999999999999,2.8362999999999996 0.7847999999999988,2.8389000000000006 0.7911000000000001,2.8458000000000006 0.7921999999999993,2.8575 0.8020999999999994,2.871599999999999 0.8032000000000004,2.8903999999999996 0.8062000000000005,2.8926999999999996 0.8121999999999989,2.893699999999999 0.8132999999999999,2.9084000000000003 0.8111999999999995,2.9114000000000004 0.8040000000000003,2.9146 0.8028999999999993,2.9170999999999996 0.8044999999999991,2.926 0.8233999999999995,2.937899999999999 0.8466000000000005,2.9369999999999994 0.8599999999999994,2.948599999999999 0.8659999999999997,2.9598999999999993 0.8718000000000004,2.9640000000000004 0.9097999999999988,2.9702 0.9321999999999999,2.9750999999999994 0.9375999999999998,2.9780999999999995 0.9503000000000004,2.9786 1.0143000000000004,2.991199999999999 1.0160999999999998,2.9932999999999996 1.0763999999999996,3.0070999999999994 1.0808,3.0068 1.0882000000000005,3.001099999999999 1.0906000000000002,2.9964999999999993 1.0984999999999996,2.9894 1.1260999999999992,2.979799999999999 1.1465999999999994,2.9644999999999992 1.1616999999999997,2.9566999999999997 1.1769999999999996,2.9537999999999993 1.1835000000000004,2.9543 1.221,2.9657999999999998 1.2240000000000002,2.9679 1.2420999999999989,2.9716000000000005 1.2560000000000002,2.9777000000000005 1.2743000000000002,2.9811999999999994 1.3655999999999988,3.0089000000000006 1.3779000000000003,3.0113000000000003 1.3849,3.0150000000000006 1.3969000000000005,3.0182 1.4053000000000004,3.0281000000000002 1.4120999999999988,3.0686 1.4177,3.0799000000000003 1.5347999999999988,3.0798000000000005 1.5686999999999998,3.0824 1.5779999999999994,3.0802999999999994 1.8020999999999994,3.0824 1.9895999999999994,3.0808 2.0968,3.0828000000000007 2.128499999999999,3.0581999999999994 2.132199999999999,3.0486000000000004 2.1364,3.0272000000000006 2.1388999999999996,2.994999999999999 2.1433,2.972899999999999 2.149099999999999,2.9616000000000007 2.1607000000000003,2.9514999999999993 2.206199999999999,2.930299999999999 2.2073,2.927999999999999 2.233699999999999,2.910499999999999 2.2647999999999993,2.8801000000000005 2.290899999999999,2.8416999999999994 2.2995,2.8331999999999997 2.319699999999999,2.8073999999999995 2.3261000000000003,2.7964 2.3325999999999993,2.7803000000000004 2.3355999999999995,2.7561 2.3407,2.7464999999999993 2.348799999999999,2.7402999999999995 2.3705999999999996,2.7387999999999995 2.3773,2.737 2.3820999999999994,2.7324 2.3826,2.7241 2.3886000000000003,2.715399999999999 2.3925,2.6843000000000004 2.3994999999999997,2.6767000000000003 2.4079999999999995,2.6762999999999995 2.4254,2.6562 2.444099999999999,2.640599999999999 2.4445999999999994,2.635 2.433399999999999,2.6256000000000004 2.4297000000000004,2.6198999999999995 2.446299999999999,2.6069999999999993 2.4725,2.6029999999999998 2.475999999999999,2.600299999999999 2.4772,2.5966000000000005 2.472999999999999,2.5897000000000006 2.4590999999999994,2.5832999999999995 2.4551,2.5778 2.4549000000000003,2.5733999999999995 2.4627,2.5588999999999995 2.4627,2.5534 2.4545999999999992,2.5440000000000005 2.4545999999999992,2.5371000000000006 2.460099999999999,2.5252 2.4763,2.5177999999999994 2.487399999999999,2.5081000000000007 2.4971999999999994,2.5025999999999993 2.5015,2.4968000000000004 2.4989999999999988,2.489699999999999 2.4910999999999994,2.4837000000000007 2.4869000000000003,2.4742999999999995 2.4887999999999995,2.4689999999999994 2.4938000000000002,2.4633000000000003 2.498899999999999,2.4633000000000003 2.504299999999999,2.4731000000000005 2.5138,2.4724000000000004 2.5235000000000003,2.4657 2.5334000000000003,2.4641 2.5434,2.468399999999999 2.5551999999999992,2.4673 2.5650999999999993,2.4564000000000004 2.5725,2.4626 2.5923999999999996,2.4308999999999994 2.5932999999999993,2.4202999999999992 2.591899999999999,2.4170999999999996 2.5961,2.4124999999999996 2.6141000000000005,2.4069000000000003 2.634599999999999,2.3917 2.6402,2.382999999999999 2.6419999999999995,2.372399999999999 2.6325000000000003,2.3483 2.6282999999999994,2.3325999999999993 2.6289,2.3217999999999996 2.639999999999999,2.3089999999999993 2.6397999999999993,2.2924000000000007 2.6356,2.2858 2.6244999999999994,2.2806999999999995 2.620799999999999,2.2810000000000006 2.6083,2.2764000000000006 2.5951000000000004,2.2744 2.5905000000000005,2.2807999999999993 2.585099999999999,2.2798999999999996 2.58,2.2659000000000002 2.5892,2.2459000000000007 2.5890000000000004,2.2263 2.577399999999999,2.2135 2.5772999999999993,2.199 2.5733999999999995,2.1738 2.5701,2.166599999999999 2.5734999999999992,2.1616 2.5953,2.1578999999999997 2.628399999999999,2.1638 2.6432,2.1639 2.670399999999999,2.1518999999999995 2.6807999999999996,2.1501 2.6814999999999998,2.1518999999999995 2.6905,2.1491000000000007 2.7095000000000002,2.1372999999999998 2.7187,2.1256000000000004 2.719899999999999,2.1188000000000002 2.7180999999999997,2.113999999999999 2.7173,2.0985999999999994 2.7158999999999995,2.0946999999999996 2.7117000000000004,2.0916999999999994 2.709199999999999,2.085699999999999 2.7051999999999996,2.056099999999999 2.7052999999999994,2.0413999999999994 2.708499999999999,2.0203000000000007 2.711499999999999,2.0150000000000006 2.7098999999999993,2.008799999999999 2.7104999999999997,1.9910999999999994 2.7074,1.9719999999999995 2.7166999999999994,1.9223999999999997 2.7157999999999998,1.9170999999999996 2.7201000000000004,1.904 2.7182999999999993,1.9002999999999997 2.7165999999999997,1.8866999999999994 2.719999999999999,1.8840000000000003 2.7234999999999996,1.8841999999999999 2.7272,1.8804999999999996 2.7330000000000005,1.8839000000000006 2.7364999999999995,1.8834999999999997 2.7408,1.8760999999999992 2.7676999999999996,1.8549000000000007 2.776,1.8393999999999995 2.7780000000000005,1.8233999999999995 2.7803000000000004,1.8199000000000005 2.7920999999999996,1.8211999999999993 2.793199999999999,1.8178 2.7859,1.8123000000000005 2.7965999999999998,1.7978000000000005 2.793099999999999,1.7918000000000003 2.8095,1.7843999999999998 2.8188999999999993,1.7716999999999992 2.8207000000000004,1.7624999999999993 2.8284000000000002,1.7631999999999994 2.8340999999999994,1.7569999999999997 2.8217999999999996,1.7347000000000001 2.8249999999999993,1.7287999999999997 2.824299999999999,1.7227999999999994 2.8217,1.7203 2.8050999999999995,1.7136999999999993 2.8013999999999992,1.706999999999999 2.787699999999999,1.7004000000000001 2.7805999999999997,1.6926000000000005 2.7773000000000003,1.6921999999999997 2.772499999999999,1.6953999999999994 2.7592999999999996,1.6941000000000006 2.7371,1.6781000000000006 2.7277000000000005,1.679499999999999 2.724,1.6782000000000004 2.7211999999999996,1.6738 2.722299999999999,1.6575000000000006 2.7203999999999997,1.654 2.7133000000000003,1.6517999999999997 2.708599999999999,1.6470000000000002 2.7012,1.6320999999999994 2.6957000000000004,1.6283999999999992 2.681099999999999,1.6241000000000003 2.679499999999999,1.6143999999999998 2.6706000000000003,1.5867000000000004 2.6739999999999995,1.577 2.6729000000000003,1.5731000000000002 2.6653000000000002,1.5761000000000003 2.6639,1.5749999999999993 2.6640999999999995,1.5655999999999999 2.6610999999999994,1.5620999999999992 2.6557999999999993,1.5608000000000004 2.6539,1.5587 2.6517,1.5274999999999999 2.6464,1.5066000000000006 2.6500000000000004,1.4985999999999997 2.651399999999999,1.4826999999999995 2.6503999999999994,1.4703 2.639099999999999,1.464599999999999 2.6342,1.4574999999999996 2.6281999999999996,1.4534000000000002 2.6115999999999993,1.446299999999999 2.6074,1.4420000000000002 2.6037,1.4298000000000002 2.6015999999999995,1.4154 2.5871999999999993,1.3872 2.5913000000000004,1.3649000000000004 2.586499999999999,1.3605 2.5846,1.3534000000000006 2.5893999999999995,1.3529 2.6028000000000002,1.3557000000000006 2.603299999999999,1.3758999999999997 2.6059,1.3857 2.6121,1.3902999999999999 2.615599999999999,1.4049999999999994 2.6295,1.4232999999999993 2.646799999999999,1.4232999999999993 2.6701999999999995,1.4169999999999998 2.7064000000000004,1.4146999999999998 2.7170000000000005,1.4084000000000003 2.7211999999999996,1.3938000000000006 2.7239000000000004,1.3903999999999996 2.735899999999999,1.3896999999999995 2.7425999999999995,1.387599999999999 2.75,1.3901000000000003 2.7912999999999997,1.4184 2.8131000000000004,1.4377999999999993 2.8193,1.4499999999999993 2.8321000000000005,1.4590999999999994 2.838799999999999,1.4708000000000006 2.8507999999999996,1.4776000000000007 2.8576999999999995,1.485899999999999 2.8721999999999994,1.5122 2.8779000000000003,1.5183999999999997 2.8863000000000003,1.5229999999999997 2.8950999999999993,1.5326000000000004 2.9175000000000004,1.5753000000000004 2.9307999999999996,1.5694999999999997 2.939499999999999,1.5704999999999991 2.950099999999999,1.5739999999999998 2.9720999999999993,1.5853000000000002 3.0015,1.5710999999999995 3.0166000000000004,1.5671999999999997 3.0252999999999997,1.5729000000000006 3.0341000000000005,1.5739999999999998 3.0367999999999995,1.5694 3.0332999999999988,1.5617 3.0365,1.5533000000000001 3.0326000000000004,1.5383999999999993 3.0364000000000004,1.5312999999999999 3.037699999999999,1.5215999999999994 3.032499999999999,1.5085999999999995 3.033199999999999,1.5028000000000006 3.037699999999999,1.4983000000000004 3.0351,1.486699999999999 3.0305,1.4847000000000001 3.028599999999999,1.4794999999999998 3.0318000000000005,1.4724000000000004 3.0246999999999993,1.4672 3.021799999999999,1.4629999999999992 3.0207999999999995,1.4601000000000006 3.0227000000000004,1.4490999999999996 3.015599999999999,1.4367 3.018799999999999,1.4315999999999995 3.0206999999999997,1.418099999999999 3.0181000000000004,1.412799999999999 3.0070999999999994,1.4076000000000004 3.0070999999999994,1.404399999999999 3.0115999999999996,1.4010999999999996 3.010299999999999,1.3940000000000001 3.0122999999999998,1.3862000000000005 3.0115999999999996,1.3778000000000006 3.009599999999999,1.3733000000000004 2.9999000000000002,1.3706999999999994 2.9979999999999993,1.3667999999999996 2.9915000000000003,1.3610000000000007 2.992099999999999,1.3538999999999994 2.9953000000000003,1.3474000000000004 3.0023999999999997,1.3209 3.0083,1.3201999999999998 3.0101999999999993,1.3156999999999996 3.009499999999999,1.3097999999999992 3.014099999999999,1.3040000000000003 3.0107999999999997,1.2929999999999993 3.0107999999999997,1.2833000000000006 3.0069,1.2761999999999993 3.004299999999999,1.2743000000000002 2.9970999999999997,1.2742000000000004 2.9887999999999995,1.2715999999999994 2.9816000000000003,1.2607 2.9795999999999996,1.2522000000000002 2.956899999999999,1.2315000000000005 2.9581,1.2292000000000005 2.9400999999999993,1.2398000000000007 2.9361999999999995,1.2444000000000006 2.925799999999999,1.240499999999999 2.9231999999999996,1.235899999999999 2.9193999999999996,1.2346000000000004 2.9251000000000005,1.231399999999999 2.9215,1.2271 2.9147999999999996,1.2301000000000002 2.9116,1.2256 2.9077,1.2280999999999995 2.9048,1.2269000000000005 2.9045000000000005,1.2280999999999995 2.8798999999999992,1.2287999999999997 2.8743,1.2325999999999997 2.870099999999999,1.2307000000000006 2.8643,1.235199999999999 2.8590999999999998,1.235199999999999 2.853299999999999,1.2319999999999993 2.8454999999999995,1.235199999999999 2.8390000000000004,1.2332999999999998 2.8345000000000002,1.2273999999999994 2.8286999999999995,1.2294 2.8202,1.2234999999999996 2.8104999999999993,1.2266999999999992 2.8104999999999993,1.2189999999999994 2.7936999999999994,1.2111999999999998 2.744299999999999,1.131499999999999 2.7300000000000004,1.1190999999999995 2.7216000000000005,1.1172000000000004 2.7034000000000002,1.1088000000000005 2.704699999999999,1.0854 "></polygon><polygon points="1.7713999999999999,0.025299999999999656 1.786999999999999,0.01809999999999956 1.7956000000000003,0.011099999999999888 1.7720000000000002,0.023099999999999454 1.7681000000000004,0.026399999999999757 1.7713999999999999,0.025299999999999656 "></polygon><polygon points="0.8394999999999992,0.4973000000000001 0.838099999999999,0.4977999999999998 0.8410999999999991,0.4988999999999999 0.8410999999999991,0.4977999999999998 0.8394999999999992,0.4973000000000001 "></polygon><polygon points="0.8402999999999992,0.5008999999999997 0.8341999999999992,0.4984000000000002 0.8331,0.4985999999999997 0.8363999999999994,0.5016999999999996 0.8402999999999992,0.5008999999999997 "></polygon><polygon points="0.8027999999999995,0.5159000000000002 0.8035999999999994,0.5125000000000002 0.8013999999999992,0.5108999999999995 0.799199999999999,0.5161999999999995 0.8017000000000003,0.5172999999999996 0.8027999999999995,0.5159000000000002 "></polygon><polygon points="0.811399999999999,0.5281000000000002 0.8152999999999988,0.5233999999999996 0.8233999999999995,0.5180999999999996 0.8241999999999994,0.5152999999999999 0.8227999999999991,0.5127999999999995 0.8192000000000004,0.5130999999999997 0.8178000000000001,0.5114000000000001 0.8135999999999992,0.5138999999999996 0.8072999999999997,0.5238999999999994 0.8094999999999999,0.5300000000000002 0.811399999999999,0.5281000000000002 "></polygon><polygon points="0.8161000000000005,0.5270000000000001 0.8202999999999996,0.5249999999999995 0.8200000000000003,0.5220000000000002 0.8170000000000002,0.5230999999999995 0.8133999999999997,0.5278 0.8161000000000005,0.5270000000000001 "></polygon><polygon points="0.8080999999999996,0.5331000000000001 0.8060999999999989,0.5286 0.8033999999999999,0.5294999999999996 0.8074999999999992,0.5352999999999994 0.8088999999999995,0.5350000000000001 0.8080999999999996,0.5331000000000001 "></polygon><polygon points="0.8049999999999997,0.5491999999999999 0.8030999999999988,0.5484 0.8025000000000002,0.5508999999999995 0.8056000000000001,0.5514000000000001 0.8049999999999997,0.5491999999999999 "></polygon><polygon points="0.8074999999999992,0.6010999999999997 0.8086000000000002,0.5967000000000002 0.811399999999999,0.5980999999999996 0.8144999999999989,0.5941999999999998 0.8141999999999996,0.5892 0.8117000000000001,0.5887000000000002 0.8123000000000005,0.5845000000000002 0.8100000000000005,0.5827999999999998 0.8078000000000003,0.5930999999999997 0.8041999999999998,0.5980999999999996 0.8056000000000001,0.6022999999999996 0.8074999999999992,0.6010999999999997 "></polygon><polygon points="0.8302999999999994,0.6036000000000001 0.831999999999999,0.6013999999999999 0.8323,0.5956000000000001 0.827,0.5949999999999998 0.8272999999999993,0.6022999999999996 0.8285999999999998,0.6049999999999995 0.8302999999999994,0.6036000000000001 "></polygon><polygon points="0.8263999999999996,0.6049999999999995 0.8274999999999988,0.6048 0.8272999999999993,0.6028000000000002 0.8249999999999993,0.6036000000000001 0.8245000000000005,0.6059000000000001 0.8263999999999996,0.6049999999999995 "></polygon><polygon points="0.7466999999999988,0.46669999999999945 0.7475000000000005,0.46750000000000025 0.7484000000000002,0.46750000000000025 0.7461000000000002,0.46530000000000005 0.7466999999999988,0.46669999999999945 "></polygon><polygon points="0.7942,0.5508999999999995 0.7905999999999995,0.5474999999999994 0.7874999999999996,0.5477999999999996 0.7864000000000004,0.5499999999999998 0.7883999999999993,0.5527999999999995 0.7934000000000001,0.5530999999999997 0.7946999999999989,0.5525000000000002 0.7942,0.5508999999999995 "></polygon><polygon points="0.6830999999999996,0.7230999999999996 0.7030999999999992,0.7198000000000002 0.7142,0.7198000000000002 0.719199999999999,0.7164000000000001 0.7283999999999988,0.7027999999999999 0.7135999999999996,0.6962000000000002 0.7060999999999993,0.6905999999999999 0.7038999999999991,0.6777999999999995 0.7011000000000003,0.6791999999999998 0.6930999999999994,0.6913999999999998 0.6902999999999988,0.6928000000000001 0.6867000000000001,0.6917 0.6852999999999998,0.6878000000000002 0.6877999999999993,0.6833999999999998 0.6855999999999991,0.6798000000000002 0.6852999999999998,0.6716999999999995 0.6830999999999996,0.6703000000000001 0.6785999999999994,0.6705999999999994 0.6777999999999995,0.6749999999999998 0.6745000000000001,0.6761999999999997 0.6716999999999995,0.6695000000000002 0.6749999999999989,0.6753 0.6767000000000003,0.6753 0.6783999999999999,0.6697999999999995 0.6830999999999996,0.6695000000000002 0.6859000000000002,0.6711999999999998 0.6860999999999997,0.6775000000000002 0.6891999999999996,0.6859000000000002 0.6889000000000003,0.6905999999999999 0.6920000000000002,0.6909000000000001 0.6960999999999995,0.6838999999999995 0.6969999999999992,0.6777999999999995 0.7034000000000002,0.6758999999999995 0.7060999999999993,0.6772999999999998 0.7073,0.6799999999999997 0.7066999999999997,0.6898 0.7135999999999996,0.6917 0.7144999999999992,0.6883999999999997 0.7127999999999997,0.6822999999999997 0.7085999999999988,0.6775000000000002 0.7085999999999988,0.6714000000000002 0.7149999999999999,0.6680999999999999 0.7213999999999992,0.6674999999999995 0.7199999999999989,0.6600000000000001 0.7288999999999994,0.6505999999999998 0.7288999999999994,0.6430999999999996 0.7333999999999996,0.6399999999999997 0.7344999999999988,0.6297999999999995 0.7385999999999999,0.6295000000000002 0.7446999999999999,0.6337000000000002 0.75,0.6319999999999997 0.7494999999999994,0.6266999999999996 0.7469999999999999,0.6247999999999996 0.7485999999999997,0.6144999999999996 0.7530999999999999,0.6150000000000002 0.7492000000000001,0.6166999999999998 0.7506000000000004,0.6223000000000001 0.7602999999999991,0.6253000000000002 0.7675000000000001,0.6391999999999998 0.7760999999999996,0.6441999999999997 0.7864000000000004,0.6419999999999995 0.7874999999999996,0.6324999999999994 0.7913999999999994,0.6253000000000002 0.8030999999999988,0.6152999999999995 0.8044999999999991,0.6028000000000002 0.8030999999999988,0.5961999999999996 0.8078000000000003,0.5895000000000001 0.8074999999999992,0.5794999999999995 0.8049999999999997,0.5785999999999998 0.8025000000000002,0.5800000000000001 0.8033999999999999,0.577 0.7999999999999989,0.5733999999999995 0.7827999999999999,0.5619999999999994 0.7777999999999992,0.5575000000000001 0.7734000000000005,0.5499999999999998 0.769499999999999,0.5130999999999997 0.767199999999999,0.5077999999999996 0.7685999999999993,0.4984000000000002 0.7736000000000001,0.4878 0.7724999999999991,0.4841999999999995 0.7744999999999997,0.4756 0.763399999999999,0.47279999999999944 0.7439,0.47170000000000023 0.7392000000000003,0.4778000000000002 0.7396999999999991,0.4822999999999995 0.736699999999999,0.4900000000000002 0.7372999999999994,0.4939 0.7405999999999988,0.4961000000000002 0.7410999999999994,0.5027999999999997 0.7405999999999988,0.5103 0.7363999999999997,0.5156000000000001 0.7363999999999997,0.5186999999999999 0.7347000000000001,0.5194999999999999 0.7331000000000003,0.5169999999999995 0.7331000000000003,0.5191999999999997 0.7249999999999996,0.5312000000000001 0.7127999999999997,0.5419999999999998 0.6655999999999995,0.5641999999999996 0.6113999999999997,0.5847999999999995 0.5102999999999991,0.6158999999999999 0.38949999999999996,0.6470000000000002 0.3620000000000001,0.6517 0.3508999999999993,0.6509 0.34639999999999915,0.6522999999999994 0.34559999999999924,0.6541999999999994 0.34609999999999985,0.6566999999999998 0.3481000000000005,0.657 0.34919999999999973,0.6592000000000002 0.35559999999999903,0.6619999999999999 0.3634000000000004,0.6585999999999999 0.3758999999999997,0.6577999999999999 0.3825000000000003,0.6616999999999997 0.39029999999999987,0.6616999999999997 0.40310000000000024,0.6581000000000001 0.40700000000000003,0.6528 0.4131,0.6517 0.4158999999999988,0.6491999999999996 0.41889999999999894,0.6541999999999994 0.4222999999999999,0.6547999999999998 0.4269999999999996,0.6494999999999997 0.4294999999999991,0.6497999999999999 0.4308999999999994,0.6531000000000002 0.4328000000000003,0.6533999999999995 0.4338999999999995,0.6486999999999998 0.4328000000000003,0.6541999999999994 0.4255999999999993,0.6512000000000002 0.4228000000000005,0.6555999999999997 0.41610000000000014,0.6539000000000001 0.4172999999999991,0.6517 0.4155999999999995,0.6505999999999998 0.41419999999999924,0.6524999999999999 0.40729999999999933,0.6547999999999998 0.40339999999999954,0.6624999999999996 0.39949999999999974,0.6644999999999994 0.3949999999999996,0.6644999999999994 0.3935999999999993,0.6674999999999995 0.3888999999999996,0.6680999999999999 0.38480000000000025,0.6727999999999996 0.3817000000000004,0.6737000000000002 0.38780000000000037,0.6822999999999997 0.39339999999999975,0.6841999999999997 0.3952999999999989,0.6875 0.40000000000000036,0.6886999999999999 0.4047999999999998,0.6875 0.40889999999999915,0.6917 0.4145000000000003,0.6924999999999999 0.4169999999999998,0.6952999999999996 0.4208999999999996,0.6955999999999998 0.4320000000000004,0.7008999999999999 0.4399999999999995,0.6986999999999997 0.44200000000000017,0.7008999999999999 0.4452999999999996,0.7013999999999996 0.448599999999999,0.6986999999999997 0.45699999999999896,0.6994999999999996 0.45950000000000024,0.6966999999999999 0.46250000000000036,0.7008999999999999 0.47449999999999903,0.7027999999999999 0.4823000000000004,0.7069999999999999 0.4880999999999993,0.7039 0.4878,0.7013999999999996 0.4853000000000005,0.7000000000000002 0.486699999999999,0.6913999999999998 0.4839000000000002,0.6894999999999998 0.4884000000000004,0.6909000000000001 0.4872999999999994,0.6928000000000001 0.4884000000000004,0.7000000000000002 0.4949999999999992,0.6989000000000001 0.4996999999999989,0.7005999999999997 0.5,0.6952999999999996 0.5075000000000003,0.6936999999999998 0.5069999999999997,0.6886999999999999 0.5036000000000005,0.6869999999999994 0.507299999999999,0.6880999999999995 0.5116999999999994,0.6867000000000001 0.5173000000000005,0.6888999999999994 0.5085999999999995,0.6878000000000002 0.5091999999999999,0.6944999999999997 0.5036000000000005,0.6978 0.5022000000000002,0.7061999999999999 0.4985999999999997,0.7066999999999997 0.4955999999999996,0.702 0.4941999999999993,0.7031000000000001 0.4945000000000004,0.7055999999999996 0.4975000000000005,0.7085999999999997 0.507299999999999,0.7124999999999995 0.5560999999999989,0.7066999999999997 0.5772999999999993,0.7111000000000001 0.5785999999999998,0.7097999999999995 0.5780999999999992,0.7044999999999995 0.5802999999999994,0.7031000000000001 0.5838999999999999,0.7044999999999995 0.5800000000000001,0.7047999999999996 0.5802999999999994,0.7063999999999995 0.5827999999999989,0.7066999999999997 0.5863999999999994,0.71 0.5947999999999993,0.7113999999999994 0.6028000000000002,0.7188999999999997 0.6091999999999995,0.7211999999999996 0.6189,0.7217000000000002 0.629999999999999,0.7199999999999998 0.6311,0.7195 0.6295000000000002,0.7169999999999996 0.6303000000000001,0.7158999999999995 0.6344999999999992,0.7195 0.6397999999999993,0.7202999999999999 0.6539000000000001,0.7195 0.6747999999999994,0.7238999999999995 0.6830999999999996,0.7230999999999996 "></polygon><polygon points="0.7441999999999993,0.6947999999999999 0.7502999999999993,0.6941999999999995 0.7730999999999995,0.6856 0.8005999999999993,0.6661999999999999 0.8072999999999997,0.6577999999999999 0.8100000000000005,0.6517 0.8100000000000005,0.6463999999999999 0.8005999999999993,0.6299999999999999 0.7922999999999991,0.6316999999999995 0.7881,0.6425000000000001 0.7860999999999994,0.6449999999999996 0.7822999999999993,0.6463999999999999 0.769499999999999,0.6433999999999997 0.7614000000000001,0.6345000000000001 0.7608999999999995,0.6273 0.7561,0.6277999999999997 0.7466999999999988,0.6345000000000001 0.7422000000000004,0.6337000000000002 0.7370000000000001,0.6299999999999999 0.7349999999999994,0.6305999999999994 0.7339000000000002,0.6409000000000002 0.7300000000000004,0.6436999999999999 0.730599999999999,0.6509 0.7217000000000002,0.6608999999999998 0.7233999999999998,0.6680999999999999 0.7210999999999999,0.6699999999999999 0.7134,0.6703000000000001 0.7105999999999995,0.6727999999999996 0.7097999999999995,0.6764000000000001 0.7156000000000002,0.6822999999999997 0.719199999999999,0.6899999999999995 0.7302999999999997,0.6920000000000002 0.7363999999999997,0.6959 0.7441999999999993,0.6947999999999999 "></polygon><polygon points="0.8163999999999998,0.6152999999999995 0.8205999999999989,0.6094999999999997 0.8200000000000003,0.6030999999999995 0.8117000000000001,0.6122999999999994 0.8141999999999996,0.6174999999999997 0.8155999999999999,0.6177999999999999 0.8163999999999998,0.6152999999999995 "></polygon><polygon points="0.8392,0.6255999999999995 0.8445,0.6236999999999995 0.8459000000000003,0.6174999999999997 0.8392,0.6048 0.8349999999999991,0.6033999999999997 0.8288999999999991,0.6120000000000001 0.8255999999999997,0.6227999999999998 0.8341999999999992,0.6269999999999998 0.8392,0.6255999999999995 "></polygon><polygon points="0.8117000000000001,0.6261000000000001 0.8123000000000005,0.6192000000000002 0.8094999999999999,0.6147999999999998 0.8072999999999997,0.6147999999999998 0.8058999999999994,0.6194999999999995 0.8072999999999997,0.6227999999999998 0.8064,0.6269999999999998 0.811399999999999,0.6297999999999995 0.8117000000000001,0.6261000000000001 "></polygon><polygon points="0.8245000000000005,0.6322999999999999 0.8308999999999997,0.6288999999999998 0.8310999999999993,0.6269999999999998 0.8277999999999999,0.625 0.823599999999999,0.6253000000000002 0.8205999999999989,0.6314000000000002 0.8216999999999999,0.6334 0.8245000000000005,0.6322999999999999 "></polygon><polygon points="0.8078000000000003,0.6395 0.8088999999999995,0.6402999999999999 0.8070000000000004,0.6377999999999995 0.8070000000000004,0.6383999999999999 0.8078000000000003,0.6395 "></polygon><polygon points="0.831999999999999,0.6597999999999997 0.8306000000000004,0.6544999999999996 0.8298000000000005,0.6544999999999996 0.8284000000000002,0.657 0.8314000000000004,0.6627999999999998 0.831999999999999,0.6597999999999997 "></polygon><polygon points="0.8253000000000004,0.6802999999999999 0.8277999999999999,0.6780999999999997 0.8292000000000002,0.6708999999999996 0.8280999999999992,0.6663999999999994 0.8239000000000001,0.6642000000000001 0.8188999999999993,0.6761999999999997 0.8205999999999989,0.6810999999999998 0.8253000000000004,0.6802999999999999 "></polygon><polygon points="0.8147000000000002,0.7029999999999994 0.8231000000000002,0.6944999999999997 0.8249999999999993,0.6869999999999994 0.8127999999999993,0.6886999999999999 0.7958999999999996,0.7005999999999997 0.8027999999999995,0.7031000000000001 0.8147000000000002,0.7029999999999994 "></polygon><polygon points="0.4977999999999998,0.7042000000000002 0.4994999999999994,0.7047999999999996 0.4996999999999989,0.7034000000000002 0.4975000000000005,0.7031000000000001 0.4977999999999998,0.7042000000000002 "></polygon><polygon points="0.8017000000000003,0.7111000000000001 0.8013999999999992,0.7092 0.7980999999999998,0.7095000000000002 0.8005999999999993,0.7138999999999998 0.8017000000000003,0.7111000000000001 "></polygon><polygon points="0.7847999999999988,0.7122999999999999 0.7864000000000004,0.7116999999999996 0.7827999999999999,0.7108999999999996 0.7830999999999992,0.7138999999999998 0.7847999999999988,0.7122999999999999 "></polygon><polygon points="0.7475000000000005,0.7169999999999996 0.7498000000000005,0.7138999999999998 0.748899999999999,0.7122999999999999 0.7446999999999999,0.7130999999999998 0.742799999999999,0.7177999999999995 0.7475000000000005,0.7169999999999996 "></polygon><polygon points="0.7569999999999997,0.7400000000000002 0.7645,0.7291999999999996 0.780899999999999,0.7225000000000001 0.782,0.7081 0.7789000000000001,0.7063999999999995 0.7681000000000004,0.7081 0.7580999999999989,0.7172999999999998 0.7508999999999997,0.7278000000000002 0.7480999999999991,0.7366999999999999 0.7480999999999991,0.7383999999999995 0.7514000000000003,0.7408999999999999 0.7569999999999997,0.7400000000000002 "></polygon><polygon points="0.7355999999999998,0.7366999999999999 0.7410999999999994,0.7320000000000002 0.7419999999999991,0.7286999999999999 0.7372999999999994,0.7313999999999998 0.7323000000000004,0.7372999999999994 0.7355999999999998,0.7366999999999999 "></polygon><polygon points="0.6688999999999989,0.7413999999999996 0.668099999999999,0.7400000000000002 0.6649999999999991,0.7408999999999999 0.6675000000000004,0.7435999999999998 0.6688999999999989,0.7413999999999996 "></polygon><polygon points="0.6633999999999993,0.7431000000000001 0.6596999999999991,0.7408999999999999 0.6524999999999999,0.7397999999999998 0.6580999999999992,0.7447999999999997 0.6667000000000005,0.7447999999999997 0.6633999999999993,0.7431000000000001 "></polygon><polygon points="0.31729999999999947,0.6734 0.3227999999999991,0.6699999999999999 0.33060000000000045,0.6708999999999996 0.3349999999999991,0.6697999999999995 0.3371999999999993,0.6627999999999998 0.3310999999999993,0.6566999999999998 0.323599999999999,0.6528 0.3219999999999992,0.6494999999999997 0.3202999999999996,0.6499999999999995 0.3213999999999988,0.6552999999999995 0.32530000000000037,0.6547999999999998 0.33029999999999937,0.6585999999999999 0.32339999999999947,0.6592000000000002 0.3155999999999999,0.6663999999999994 0.3127999999999993,0.6658999999999997 0.3109000000000002,0.6677999999999997 0.3144999999999989,0.6749999999999998 0.31729999999999947,0.6734 "></polygon><polygon points="0.37950000000000017,0.6727999999999996 0.3830999999999989,0.6695000000000002 0.3777999999999988,0.6663999999999994 0.37480000000000047,0.6673 0.373899999999999,0.6695000000000002 0.3752999999999993,0.6722999999999999 0.3780999999999999,0.6745000000000001 0.37950000000000017,0.6727999999999996 "></polygon><polygon points="0.3094999999999999,0.6711999999999998 0.3091999999999988,0.6697999999999995 0.3070000000000004,0.6705999999999994 0.3074999999999992,0.6737000000000002 0.3094999999999999,0.6711999999999998 "></polygon><polygon points="0.323599999999999,0.6734 0.3219999999999992,0.6734 0.32339999999999947,0.6756000000000002 0.32479999999999976,0.6749999999999998 0.323599999999999,0.6734 "></polygon><polygon points="0.2983999999999991,0.6844999999999999 0.29609999999999914,0.6761999999999997 0.2934000000000001,0.6753 0.2922999999999991,0.6764000000000001 0.29139999999999944,0.6747999999999994 0.2948000000000004,0.6737000000000002 0.2995000000000001,0.6769999999999996 0.3010999999999999,0.6756000000000002 0.2964000000000002,0.6724999999999994 0.28640000000000043,0.6753 0.28420000000000023,0.6838999999999995 0.28669999999999973,0.6827999999999994 0.2858999999999998,0.6808999999999994 0.2881,0.6775000000000002 0.2895000000000003,0.6783999999999999 0.2881,0.6830999999999996 0.28999999999999915,0.6852999999999998 0.2983999999999991,0.6844999999999999 "></polygon><polygon points="0.3886000000000003,0.7002999999999995 0.38700000000000045,0.7008999999999999 0.39059999999999917,0.7013999999999996 0.39029999999999987,0.7005999999999997 0.3886000000000003,0.7002999999999995 "></polygon><polygon points="0.34779999999999944,0.7138999999999998 0.3459000000000003,0.7113999999999994 0.34479999999999933,0.7116999999999996 0.34639999999999915,0.7145000000000001 0.3506,0.7147999999999994 0.34779999999999944,0.7138999999999998 "></polygon><polygon points="0.3091999999999988,0.7237 0.3127999999999993,0.7208999999999994 0.3110999999999997,0.7177999999999995 0.3117000000000001,0.7153 0.3003,0.7147999999999994 0.2986000000000004,0.7158999999999995 0.2995000000000001,0.7188999999999997 0.3039000000000005,0.7202999999999999 0.3088999999999995,0.7252999999999998 0.3091999999999988,0.7237 "></polygon><polygon points="0.2789999999999999,0.7424999999999997 0.28169999999999895,0.7391999999999994 0.27280000000000015,0.7374999999999998 0.2641999999999989,0.7324999999999999 0.2561,0.7217000000000002 0.2561,0.7124999999999995 0.2614000000000001,0.7047999999999996 0.2641999999999989,0.7044999999999995 0.26309999999999967,0.7016999999999998 0.254999999999999,0.7002999999999995 0.2524999999999995,0.702 0.2527999999999988,0.7039 0.2506000000000004,0.7063999999999995 0.23889999999999922,0.7111000000000001 0.2372999999999994,0.7183999999999999 0.2392000000000003,0.7248000000000001 0.2431000000000001,0.7227999999999994 0.2477999999999998,0.7230999999999996 0.2575000000000003,0.7309000000000001 0.26089999999999947,0.7359 0.27169999999999916,0.7423000000000002 0.27529999999999966,0.742 0.27699999999999925,0.7435999999999998 0.2789999999999999,0.7424999999999997 "></polygon><polygon points="0.2466999999999988,0.7580999999999998 0.2463999999999995,0.7558999999999996 0.2378,0.7519999999999998 0.23199999999999932,0.7536999999999994 0.23669999999999902,0.7580999999999998 0.24279999999999902,0.7591999999999999 0.2466999999999988,0.7580999999999998 "></polygon><polygon points="0.3025000000000002,0.9891999999999994 0.3010999999999999,0.9905999999999997 0.3039000000000005,0.9916999999999998 0.3039000000000005,0.9894999999999996 0.3025000000000002,0.9891999999999994 "></polygon><polygon points="0.3155999999999999,0.9942000000000002 0.3188999999999993,0.9939 0.3188999999999993,0.9916999999999998 0.3163999999999998,0.9923000000000002 0.3141999999999996,0.9902999999999995 0.3083999999999989,0.9913999999999996 0.3127999999999993,0.9955999999999996 0.3155999999999999,0.9942000000000002 "></polygon><polygon points="0.3371999999999993,0.9973000000000001 0.33840000000000003,0.9977999999999998 0.33859999999999957,0.9963999999999995 0.33699999999999974,0.9962 0.3371999999999993,0.9973000000000001 "></polygon><polygon points="0.19309999999999938,1.5572999999999997 0.1916999999999991,1.5564 0.1894999999999989,1.5592000000000006 0.192499999999999,1.5600000000000005 0.19309999999999938,1.5572999999999997 "></polygon><polygon points="0.6169999999999991,0.7634999999999996 0.6266999999999996,0.7630999999999997 0.6297999999999995,0.7614000000000001 0.6160999999999994,0.7547999999999995 0.6074999999999999,0.7569999999999997 0.6097000000000001,0.7641999999999998 0.6169999999999991,0.7634999999999996 "></polygon><polygon points="0.06109999999999971,1.1820000000000004 0.0627999999999993,1.180299999999999 0.06199999999999939,1.1763999999999992 0.059499999999999886,1.174999999999999 0.052799999999999514,1.1755999999999993 0.0539000000000005,1.1784 0.05889999999999951,1.1786999999999992 0.05889999999999951,1.1830999999999996 0.06109999999999971,1.1820000000000004 "></polygon><polygon points="0.11280000000000001,1.2227999999999994 0.1142000000000003,1.2233999999999998 0.11500000000000021,1.2217000000000002 0.11169999999999902,1.2178000000000004 0.1120000000000001,1.2148000000000003 0.1097999999999999,1.2142 0.11030000000000051,1.2117000000000004 0.10839999999999961,1.2097999999999995 0.10169999999999924,1.2095000000000002 0.10139999999999993,1.2044999999999995 0.09779999999999944,1.205 0.09779999999999944,1.2025000000000006 0.09609999999999985,1.2017000000000007 0.09719999999999906,1.1942000000000004 0.09590000000000032,1.192499999999999 0.08530000000000015,1.1938999999999993 0.08389999999999986,1.1908999999999992 0.08450000000000024,1.1837 0.08169999999999966,1.1847999999999992 0.07779999999999987,1.1816999999999993 0.06359999999999921,1.1799999999999997 0.0627999999999993,1.1842000000000006 0.06610000000000049,1.1838999999999995 0.067499999999999,1.1885999999999992 0.07029999999999959,1.1889000000000003 0.07220000000000049,1.1922999999999995 0.07610000000000028,1.1936 0.08389999999999986,1.1942000000000004 0.08359999999999879,1.2003000000000004 0.08559999999999945,1.2025000000000006 0.08999999999999986,1.2027999999999999 0.10089999999999932,1.2113999999999994 0.10029999999999895,1.2127999999999997 0.10609999999999964,1.2170000000000005 0.1059000000000001,1.2209000000000003 0.10839999999999961,1.2200000000000006 0.11139999999999972,1.224499999999999 0.11280000000000001,1.2227999999999994 "></polygon><polygon points="0.14029999999999987,1.2838999999999992 0.13919999999999888,1.2838999999999992 0.13780000000000037,1.2858999999999998 0.1399999999999988,1.2858999999999998 0.14029999999999987,1.2838999999999992 "></polygon><polygon points="0.10029999999999895,1.3880999999999997 0.09999999999999964,1.3872999999999998 0.09779999999999944,1.3872999999999998 0.09839999999999982,1.3892000000000007 0.10139999999999993,1.3902999999999999 0.10029999999999895,1.3880999999999997 "></polygon><polygon points="0.18590000000000018,1.5531000000000006 0.1844999999999999,1.5511999999999997 0.1833999999999989,1.5541999999999998 0.1844999999999999,1.5541999999999998 0.18590000000000018,1.5531000000000006 "></polygon><polygon points="0.1730999999999998,1.6191999999999993 0.17199999999999882,1.6187000000000005 0.17199999999999882,1.6222999999999992 0.17389999999999972,1.6222999999999992 0.1730999999999998,1.6191999999999993 "></polygon><polygon points="0.28279999999999994,1.5663999999999998 0.28449999999999953,1.5639000000000003 0.28200000000000003,1.5631000000000004 0.28059999999999974,1.5670000000000002 0.28169999999999895,1.5678 0.28279999999999994,1.5663999999999998 "></polygon><polygon points="0.34479999999999933,1.6138999999999992 0.34249999999999936,1.6134000000000004 0.34109999999999907,1.6150000000000002 0.34389999999999965,1.6152999999999995 0.34479999999999933,1.6138999999999992 "></polygon><polygon points="0.367799999999999,1.6377000000000006 0.3716999999999988,1.6349999999999998 0.3744999999999994,1.6349999999999998 0.3760999999999992,1.632299999999999 0.3811,1.6297999999999995 0.3744999999999994,1.6244999999999994 0.3727999999999998,1.6197999999999997 0.35749999999999993,1.6136999999999997 0.3533999999999988,1.6144999999999996 0.34339999999999904,1.6222999999999992 0.34140000000000015,1.6349999999999998 0.34499999999999886,1.6374999999999993 0.367799999999999,1.6377000000000006 "></polygon><polygon points="0.22529999999999895,1.6502999999999997 0.22949999999999982,1.6470000000000002 0.23199999999999932,1.6466999999999992 0.23449999999999882,1.6486 0.2431000000000001,1.6470000000000002 0.2433999999999994,1.644499999999999 0.24059999999999881,1.6425 0.24059999999999881,1.6380999999999997 0.2461000000000002,1.6313999999999993 0.2431000000000001,1.6278000000000006 0.23639999999999972,1.6278000000000006 0.23000000000000043,1.6252999999999993 0.23029999999999973,1.6225000000000005 0.22839999999999883,1.6234000000000002 0.22889999999999944,1.6195000000000004 0.22529999999999895,1.6199999999999992 0.22339999999999982,1.617799999999999 0.21640000000000015,1.6199999999999992 0.21560000000000024,1.6217000000000006 0.21749999999999936,1.6366999999999994 0.21449999999999925,1.6466999999999992 0.21560000000000024,1.6480999999999995 0.21979999999999933,1.6480999999999995 0.22310000000000052,1.6509 0.22529999999999895,1.6502999999999997 "></polygon><polygon points="0.2641999999999989,1.6514000000000006 0.26229999999999976,1.649799999999999 0.26339999999999897,1.6547999999999998 0.26479999999999926,1.653599999999999 0.2641999999999989,1.6514000000000006 "></polygon><polygon points="0.3547999999999991,1.6549999999999994 0.3550000000000004,1.6519999999999992 0.34699999999999953,1.6531000000000002 0.34750000000000014,1.6562000000000001 0.3547999999999991,1.6549999999999994 "></polygon><polygon points="0.23359999999999914,1.6608999999999998 0.23749999999999893,1.6527999999999992 0.23610000000000042,1.6519999999999992 0.22979999999999912,1.6594999999999995 0.23199999999999932,1.6624999999999996 0.23359999999999914,1.6608999999999998 "></polygon><polygon points="0.3257999999999992,1.6649999999999991 0.33530000000000015,1.6600000000000001 0.34339999999999904,1.6509 0.33919999999999995,1.6500000000000004 0.32980000000000054,1.6527999999999992 0.32699999999999996,1.650599999999999 0.32230000000000025,1.6500000000000004 0.3202999999999996,1.6527999999999992 0.3127999999999993,1.6555999999999997 0.2942,1.6539000000000001 0.31479999999999997,1.6602999999999994 0.3205999999999989,1.6653000000000002 0.3257999999999992,1.6649999999999991 "></polygon><polygon points="0.18709999999999916,1.6270000000000007 0.1830999999999996,1.6203000000000003 0.17999999999999972,1.6205999999999996 0.1783999999999999,1.6248000000000005 0.17999999999999972,1.629199999999999 0.1828000000000003,1.629199999999999 0.1877999999999993,1.632299999999999 0.18709999999999916,1.6270000000000007 "></polygon><polygon points="0.1963999999999988,1.6738999999999997 0.1974999999999998,1.6706000000000003 0.20089999999999897,1.6694999999999993 0.20110000000000028,1.6677999999999997 0.192499999999999,1.6511999999999993 0.198599999999999,1.6488999999999994 0.19919999999999938,1.644499999999999 0.19699999999999918,1.6411999999999995 0.19529999999999959,1.6417000000000002 0.19479999999999897,1.6397999999999993 0.19200000000000017,1.6395 0.1902999999999988,1.6492000000000004 0.18810000000000038,1.6488999999999994 0.1877999999999993,1.6462000000000003 0.1847999999999992,1.6463999999999999 0.1830999999999996,1.6486 0.18200000000000038,1.6466999999999992 0.1838999999999995,1.6470000000000002 0.1838999999999995,1.6425 0.1814,1.6409000000000002 0.1806000000000001,1.6466999999999992 0.17859999999999943,1.6488999999999994 0.1814,1.6547999999999998 0.1806000000000001,1.655899999999999 0.1833999999999989,1.6580999999999992 0.19200000000000017,1.6759000000000004 0.1960999999999995,1.6767000000000003 0.1963999999999988,1.6738999999999997 "></polygon><polygon points="0.3039000000000005,1.6614000000000004 0.3003,1.6578 0.29529999999999923,1.6572999999999993 0.28919999999999924,1.661999999999999 0.3027999999999995,1.6633999999999993 0.3039000000000005,1.6614000000000004 "></polygon><polygon points="0.3044999999999991,1.6631 0.305299999999999,1.6641999999999992 0.3027999999999995,1.6653000000000002 0.3056000000000001,1.6645000000000003 0.3044999999999991,1.6631 "></polygon><polygon points="0.19589999999999996,1.6798000000000002 0.1936,1.6789000000000005 0.19449999999999967,1.6824999999999992 0.19589999999999996,1.6816999999999993 0.19589999999999996,1.6798000000000002 "></polygon><polygon points="0.17029999999999923,1.9275000000000002 0.16809999999999903,1.9255999999999993 0.15889999999999915,1.9263999999999992 0.15889999999999915,1.9284 0.16220000000000034,1.929499999999999 0.16859999999999964,1.929499999999999 0.17029999999999923,1.9275000000000002 "></polygon><polygon points="0.1573999999999991,1.9338999999999995 0.16140000000000043,1.9328000000000003 0.16089999999999982,1.9312000000000005 0.15729999999999933,1.930299999999999 0.14920000000000044,1.9334000000000007 0.15029999999999966,1.9350000000000005 0.1573999999999991,1.9338999999999995 "></polygon><polygon points="0.15090000000000003,1.9383999999999997 0.15279999999999916,1.9373000000000005 0.15249999999999986,1.9359000000000002 0.1460999999999988,1.9369999999999994 0.14639999999999986,1.9395000000000007 0.15090000000000003,1.9383999999999997 "></polygon><polygon points="0.15639999999999965,1.9442000000000004 0.15920000000000023,1.9428 0.16559999999999953,1.936399999999999 0.15639999999999965,1.9375 0.15219999999999878,1.9405999999999999 0.15109999999999957,1.9444999999999997 0.15639999999999965,1.9442000000000004 "></polygon><polygon points="0.14889999999999937,1.9422999999999995 0.15139999999999887,1.9389000000000003 0.14480000000000004,1.9428 0.14639999999999986,1.9434000000000005 0.14889999999999937,1.9422999999999995 "></polygon><polygon points="0.14059999999999917,1.9583999999999993 0.15090000000000003,1.9522999999999993 0.15279999999999916,1.9495000000000005 0.14529999999999887,1.9511000000000003 0.13669999999999938,1.9595000000000002 0.14059999999999917,1.9583999999999993 "></polygon><polygon points="0.14109999999999978,1.9686000000000003 0.14250000000000007,1.9648000000000003 0.15279999999999916,1.9564000000000004 0.15700000000000003,1.9505999999999997 0.15199999999999925,1.9525000000000006 0.15109999999999957,1.955 0.14719999999999978,1.9552999999999994 0.13059999999999938,1.9672999999999998 0.13199999999999967,1.9697999999999993 0.14109999999999978,1.9686000000000003 "></polygon><polygon points="0.054499999999999105,1.9619999999999997 0.053599999999999426,1.9617000000000004 0.05250000000000021,1.963099999999999 0.055899999999999395,1.9636999999999993 0.054499999999999105,1.9619999999999997 "></polygon><polygon points="0.1399999999999988,1.975299999999999 0.14359999999999928,1.9748 0.14279999999999937,1.9717000000000002 0.1374999999999993,1.9749999999999996 0.13809999999999967,1.9764 0.1399999999999988,1.975299999999999 "></polygon><polygon points="0.13480000000000025,1.9756 0.13419999999999987,1.9735999999999994 0.13059999999999938,1.9741999999999997 0.13199999999999967,1.9766999999999992 0.13480000000000025,1.9756 "></polygon><polygon points="0.14639999999999986,1.9855999999999998 0.14529999999999887,1.9841999999999995 0.14090000000000025,1.9849999999999994 0.14499999999999957,1.9884000000000004 0.14700000000000024,1.9878 0.14639999999999986,1.9855999999999998 "></polygon><polygon points="0.07499999999999929,2.0028000000000006 0.07479999999999976,2.0014000000000003 0.07729999999999926,2.0002999999999993 0.08949999999999925,1.9986999999999995 0.09859999999999935,1.9862000000000002 0.10529999999999973,1.9837000000000007 0.1073000000000004,1.981399999999999 0.10500000000000043,1.9792000000000005 0.09029999999999916,1.9733999999999998 0.08060000000000045,1.9713999999999992 0.07840000000000025,1.969199999999999 0.07530000000000037,1.9700000000000006 0.0652999999999988,1.9784000000000006 0.06390000000000029,1.981399999999999 0.06559999999999988,1.9837000000000007 0.06449999999999889,1.9884000000000004 0.06589999999999918,1.9886999999999997 0.06610000000000049,1.9914000000000005 0.06920000000000037,1.992799999999999 0.067499999999999,1.9937000000000005 0.06449999999999889,1.9906000000000006 0.062300000000000466,1.991999999999999 0.06969999999999921,1.9967000000000006 0.067499999999999,1.9977999999999998 0.07059999999999889,2.0016999999999996 0.06589999999999918,2.0016999999999996 0.06610000000000049,2.0028000000000006 0.07029999999999959,2.004199999999999 0.07499999999999929,2.0028000000000006 "></polygon><polygon points="0.10200000000000031,1.9931 0.10609999999999964,1.9909 0.10699999999999932,1.9888999999999992 0.10169999999999924,1.9884000000000004 0.09890000000000043,1.9941999999999993 0.10200000000000031,1.9931 "></polygon>
    </svg>
    