
    <svg width="5.7333" height="1.8810999999999964" xmlns="http://www.w3.org/2000/svg" xmlns:xlink="http://www.w3.org/1999/xlink" style="transform: scale(1, -1)">
        <polygon points="0.8145000000000024,0.0630999999999986 0.7745000000000033,0.08970000000000056 0.7612000000000023,0.09060000000000201 0.7399000000000022,0.08269999999999555 0.7325000000000017,0.08389999999999986 0.7189000000000014,0.1004999999999967 0.7117000000000004,0.11319999999999908 0.7006000000000014,0.1278999999999968 0.690100000000001,0.13510000000000133 0.679000000000002,0.13459999999999894 0.6655000000000015,0.1379000000000019 0.6417999999999999,0.1488999999999976 0.6279000000000003,0.15269999999999584 0.6162000000000027,0.16089999999999804 0.6009000000000029,0.18659999999999854 0.5682000000000009,0.2231999999999985 0.5569000000000024,0.23109999999999786 0.5447000000000024,0.22699999999999676 0.5417000000000023,0.22860000000000014 0.5333000000000006,0.23959999999999582 0.5135000000000005,0.2582999999999984 0.5,0.2652000000000001 0.47770000000000223,0.2669999999999959 0.4518000000000022,0.26440000000000197 0.4239000000000033,0.2686999999999955 0.416400000000003,0.27669999999999817 0.4166000000000025,0.28359999999999985 0.41180000000000305,0.28759999999999764 0.3946000000000005,0.28580000000000183 0.3782000000000032,0.2881 0.3707000000000029,0.28479999999999706 0.35730000000000217,0.2845000000000013 0.3470000000000013,0.28229999999999933 0.3261000000000003,0.27530000000000143 0.3169000000000004,0.28130000000000166 0.3106000000000009,0.2879999999999967 0.3091000000000008,0.2873000000000019 0.30320000000000036,0.29070000000000107 0.29760000000000275,0.29070000000000107 0.29350000000000165,0.2886999999999986 0.284200000000002,0.2959999999999994 0.2768000000000015,0.2989999999999995 0.2566000000000024,0.2875000000000014 0.2515999999999998,0.2915999999999954 0.2342000000000013,0.299199999999999 0.25459999999999994,0.31340000000000146 0.251100000000001,0.31810000000000116 0.23500000000000298,0.32319999999999993 0.25360000000000227,0.33310000000000173 0.23900000000000077,0.3382000000000005 0.24570000000000292,0.34599999999999653 0.2383000000000024,0.3487000000000009 0.2416000000000018,0.3504000000000005 0.23990000000000222,0.3510999999999953 0.2413000000000025,0.35369999999999635 0.25640000000000285,0.35999999999999943 0.25810000000000244,0.35829999999999984 0.2599000000000018,0.3592000000000013 0.25459999999999994,0.36430000000000007 0.25950000000000273,0.3673999999999964 0.24420000000000286,0.3736999999999995 0.24590000000000245,0.3757000000000019 0.2397000000000027,0.37809999999999633 0.2439,0.38289999999999935 0.23960000000000292,0.38230000000000075 0.23540000000000205,0.383899999999997 0.2347999999999999,0.38589999999999947 0.22960000000000136,0.38929999999999865 0.2292000000000023,0.39099999999999824 0.23560000000000159,0.3918999999999997 0.23440000000000083,0.39519999999999555 0.23110000000000142,0.3958999999999975 0.23230000000000217,0.3971000000000018 0.22820000000000107,0.4011999999999958 0.22690000000000055,0.4035000000000011 0.2284000000000006,0.40379999999999683 0.22800000000000153,0.4059999999999988 0.22620000000000218,0.4089999999999989 0.22409999999999997,0.4095000000000013 0.2240000000000002,0.41149999999999665 0.2048000000000023,0.4076000000000022 0.19450000000000145,0.4087999999999994 0.18909999999999982,0.4117999999999995 0.17989999999999995,0.42079999999999984 0.1629000000000005,0.42790000000000106 0.14300000000000068,0.43959999999999866 0.1423000000000023,0.4444000000000017 0.14420000000000144,0.4497 0.14320000000000022,0.45709999999999695 0.12920000000000087,0.4814000000000007 0.12860000000000227,0.48859999999999815 0.12430000000000163,0.4942999999999955 0.11580000000000013,0.49969999999999715 0.11289999999999978,0.503700000000002 0.11820000000000164,0.5244 0.1238000000000028,0.5315999999999974 0.11240000000000094,0.5382999999999996 0.09280000000000044,0.5390999999999977 0.08710000000000306,0.5412999999999997 0.08630000000000138,0.5456000000000003 0.07490000000000308,0.5555000000000021 0.07250000000000156,0.5619000000000014 0.06709999999999994,0.566200000000002 0.06530000000000058,0.5726000000000013 0.061400000000002564,0.5779999999999959 0.06330000000000169,0.5826999999999956 0.0710000000000015,0.5861999999999981 0.07550000000000168,0.5906999999999982 0.07560000000000144,0.5938000000000017 0.0613000000000028,0.5991999999999962 0.05590000000000117,0.5998000000000019 0.04870000000000019,0.6036000000000001 0.038400000000002876,0.6058000000000021 0.03640000000000043,0.6092000000000013 0.04210000000000136,0.6137000000000015 0.039800000000003166,0.6165999999999983 0.03359999999999985,0.6156999999999968 0.02650000000000219,0.6171000000000006 0.01880000000000237,0.6156999999999968 0.010800000000003251,0.6182999999999979 0.009100000000000108,0.6216000000000008 0.010000000000001563,0.6263999999999967 0.006000000000000227,0.632399999999997 0.007900000000002905,0.6394999999999982 0.0,0.6479999999999961 0.0010000000000012221,0.6505999999999972 0.003500000000002501,0.6516999999999982 0.01180000000000092,0.6495999999999995 0.017200000000002547,0.6509999999999962 0.017300000000002314,0.6584999999999965 0.022700000000000387,0.6640000000000015 0.01770000000000138,0.6734999999999971 0.017300000000002314,0.6777999999999977 0.030400000000000205,0.6871999999999971 0.024200000000000443,0.6935000000000002 0.018400000000003303,0.7027999999999963 0.017000000000003013,0.7173000000000016 0.02990000000000137,0.7209000000000003 0.030700000000003058,0.7235000000000014 0.026300000000002655,0.7271999999999963 0.03190000000000026,0.733399999999996 0.0406000000000013,0.7353000000000023 0.04740000000000322,0.745199999999997 0.056800000000002626,0.7441999999999993 0.057200000000001694,0.7489999999999952 0.061700000000001864,0.7515000000000001 0.06300000000000239,0.7541000000000011 0.05670000000000286,0.7594999999999956 0.06290000000000262,0.764400000000002 0.07169999999999987,0.7663000000000011 0.07810000000000272,0.7624999999999957 0.08370000000000033,0.7631999999999977 0.08420000000000272,0.7650999999999968 0.08070000000000022,0.7686999999999955 0.08070000000000022,0.7798000000000016 0.08890000000000242,0.7813000000000017 0.08650000000000091,0.785899999999998 0.08810000000000073,0.7879000000000005 0.11000000000000298,0.7894999999999968 0.11060000000000159,0.7907999999999973 0.10730000000000217,0.7933000000000021 0.1072000000000024,0.7950999999999979 0.11570000000000036,0.801400000000001 0.12060000000000315,0.8104999999999976 0.11980000000000146,0.8134999999999977 0.11460000000000292,0.8155999999999963 0.1095000000000006,0.8201999999999998 0.11140000000000327,0.8279999999999959 0.10540000000000305,0.8331000000000017 0.1025000000000027,0.8391999999999982 0.10590000000000188,0.8509999999999991 0.10040000000000049,0.8684999999999974 0.10870000000000246,0.873899999999999 0.108900000000002,0.8780000000000001 0.10620000000000118,0.8823000000000008 0.1069000000000031,0.884999999999998 0.08980000000000032,0.8887 0.11129999999999995,0.894999999999996 0.12060000000000315,0.9022999999999968 0.1258000000000017,0.9118999999999957 0.13770000000000238,0.9542999999999964 0.148100000000003,0.9605999999999995 0.16680000000000206,0.9677999999999969 0.16469999999999985,0.9763999999999982 0.16520000000000223,0.9823000000000022 0.1808000000000014,0.9951000000000008 0.18030000000000257,1.003700000000002 0.18230000000000146,1.0101999999999975 0.19120000000000203,1.0208999999999975 0.2068000000000012,1.028500000000001 0.21300000000000097,1.0420000000000016 0.22500000000000142,1.049199999999999 0.25840000000000174,1.0636999999999972 0.2615000000000016,1.0760999999999967 0.26940000000000097,1.0844000000000023 0.2715000000000032,1.0940999999999974 0.2788000000000004,1.1071999999999989 0.2934000000000019,1.1129999999999995 0.31230000000000047,1.1169000000000011 0.365000000000002,1.1484999999999985 0.41880000000000095,1.1388999999999996 0.439700000000002,1.1325999999999965 0.5284000000000013,1.0959999999999965 0.5545000000000009,1.0942000000000007 0.5754000000000019,1.096899999999998 0.6120000000000019,1.1126999999999967 0.6308000000000007,1.1115999999999957 0.6407000000000025,1.1067999999999998 0.6666000000000025,1.0797999999999988 0.6807000000000016,1.0769999999999982 0.7467000000000006,1.099899999999998 0.7751000000000019,1.1214999999999975 0.7913000000000032,1.1251999999999995 0.8624000000000009,1.127600000000001 0.8792000000000009,1.136499999999998 0.8935000000000031,1.1477999999999966 0.9158000000000008,1.1707999999999998 0.9274000000000022,1.1796999999999969 0.9411000000000023,1.1869000000000014 0.9689000000000014,1.1914999999999978 1.033800000000003,1.1946000000000012 1.0470000000000006,1.2034999999999982 1.0543000000000013,1.2314000000000007 1.0563000000000002,1.2564999999999955 1.0649000000000015,1.2678000000000011 1.0776000000000003,1.2790999999999997 1.0893000000000015,1.2866 1.127200000000002,1.2950000000000017 1.1497000000000028,1.2937999999999974 1.2096000000000018,1.2988 1.2483000000000004,1.3185000000000002 1.255200000000002,1.3247 1.272000000000002,1.3483000000000018 1.277000000000001,1.3613999999999962 1.2835,1.3950999999999993 1.2732000000000028,1.4065000000000012 1.2832000000000008,1.433399999999999 1.2858000000000018,1.4525999999999968 1.2967000000000013,1.4705000000000013 1.3017000000000003,1.4817999999999998 1.3146000000000022,1.5212999999999965 1.3235000000000028,1.5394999999999968 1.3433000000000028,1.5527999999999977 1.373000000000001,1.5614999999999952 1.404200000000003,1.5656999999999996 1.4768000000000008,1.5793999999999997 1.5056000000000012,1.5901999999999958 1.5274999999999999,1.6002999999999972 1.5452000000000012,1.6114999999999995 1.5614000000000026,1.6244000000000014 1.5692000000000021,1.6381000000000014 1.5679000000000016,1.6492000000000004 1.5645000000000024,1.6591999999999985 1.5995000000000026,1.6642999999999972 1.613900000000001,1.6700000000000017 1.6434000000000033,1.684199999999997 1.6752000000000002,1.7061999999999955 1.6994000000000007,1.7348999999999961 1.7040000000000006,1.7483000000000004 1.7017000000000024,1.7607 1.708400000000001,1.7719999999999985 1.7235000000000014,1.7800999999999974 1.7393999999999998,1.779199999999996 1.785700000000002,1.7702999999999989 1.8340000000000032,1.7727999999999966 1.8588000000000022,1.7704000000000022 1.8815000000000026,1.7667000000000002 1.9003000000000014,1.7601999999999975 1.915300000000002,1.7631000000000014 1.9476000000000013,1.779199999999996 1.9637000000000029,1.784399999999998 2.0081000000000024,1.7933999999999983 2.0085000000000015,1.7843000000000018 2.032300000000003,1.7866999999999962 2.049400000000002,1.786200000000001 2.049400000000002,1.7837999999999994 2.063200000000002,1.7819000000000003 2.0964000000000027,1.7871999999999986 2.1121000000000016,1.7847000000000008 2.1152000000000015,1.7868999999999957 2.1182000000000016,1.786999999999999 2.1183000000000014,1.7824999999999989 2.125200000000003,1.7824999999999989 2.125300000000003,1.7779999999999987 2.132200000000001,1.778100000000002 2.1323000000000008,1.7736000000000018 2.1392000000000024,1.7736000000000018 2.139400000000002,1.7646000000000015 2.1326,1.7611999999999952 2.132900000000003,1.7460000000000022 2.1357,1.744099999999996 2.1301000000000023,1.7396999999999991 2.131700000000002,1.7353000000000023 2.1285000000000025,1.7246999999999986 2.1263000000000005,1.7220000000000013 2.139400000000002,1.7190000000000012 2.1415000000000006,1.712299999999999 2.144000000000002,1.7104999999999961 2.147500000000001,1.7105999999999995 2.1476000000000006,1.703400000000002 2.1491000000000007,1.7015999999999991 2.1545000000000023,1.7015999999999991 2.154700000000002,1.6925999999999988 2.1524,1.6925999999999988 2.151200000000003,1.6890999999999963 2.1412000000000013,1.683399999999999 2.1415000000000006,1.6698999999999984 2.1483000000000025,1.6700000000000017 2.1484000000000023,1.6655000000000015 2.189700000000002,1.6659000000000006 2.1898000000000017,1.6616999999999962 2.2005000000000017,1.6629999999999967 2.203400000000002,1.6640999999999977 2.203400000000002,1.6659999999999968 2.2102000000000004,1.6676999999999964 2.2098000000000013,1.671999999999997 2.2169000000000025,1.6772999999999954 2.2169000000000025,1.6796999999999969 2.2194000000000003,1.6824999999999974 2.2357000000000014,1.6798000000000002 2.2382000000000026,1.685299999999998 2.264900000000001,1.684599999999996 2.2650000000000006,1.6781999999999968 2.268500000000003,1.6770999999999958 2.2722000000000016,1.6713000000000022 2.2859000000000016,1.6700000000000017 2.2966000000000015,1.6723999999999961 2.2986000000000004,1.6740999999999957 2.2981000000000016,1.6753999999999962 2.303000000000001,1.6772999999999954 2.308600000000002,1.6758999999999986 2.3306000000000004,1.6760999999999981 2.3338,1.6779999999999973 2.3337000000000003,1.6807000000000016 2.3428000000000004,1.6813000000000002 2.3530000000000015,1.6769999999999996 2.3629,1.6818999999999988 2.3565000000000005,1.6882999999999981 2.358900000000002,1.6933000000000007 2.351800000000001,1.699300000000001 2.351200000000002,1.7019999999999982 2.3641000000000005,1.7154999999999987 2.374500000000001,1.7190999999999974 2.3845000000000027,1.7158999999999978 2.3851000000000013,1.718199999999996 2.3908000000000023,1.7216000000000022 2.3938000000000024,1.7310000000000016 2.3926000000000016,1.7342000000000013 2.3855000000000004,1.7365999999999957 2.386000000000003,1.7408000000000001 2.3877000000000024,1.743699999999997 2.3876000000000026,1.7486999999999995 2.391300000000001,1.7487999999999957 2.397000000000002,1.754100000000001 2.3933,1.7591999999999999 2.394300000000001,1.7622999999999962 2.401,1.7629999999999981 2.4025,1.7689999999999984 2.3995000000000033,1.7710000000000008 2.4003000000000014,1.7749999999999986 2.3988000000000014,1.7777999999999992 2.406100000000002,1.782199999999996 2.407700000000002,1.7849999999999966 2.4145000000000003,1.7873000000000019 2.4145000000000003,1.7894999999999968 2.4181000000000026,1.7896 2.4213000000000022,1.7941000000000003 2.4265000000000008,1.7945999999999955 2.4262000000000015,1.798499999999997 2.4281000000000006,1.7990999999999957 2.428000000000001,1.8031999999999968 2.4694000000000003,1.8033999999999963 2.4693000000000005,1.8079999999999998 2.476200000000002,1.8079999999999998 2.490000000000002,1.808099999999996 2.4901000000000018,1.8035999999999959 2.5107,1.8036999999999992 2.5107,1.8081999999999994 2.532600000000002,1.808399999999999 2.5343000000000018,1.8145999999999987 2.5321,1.820999999999998 2.5380000000000003,1.8241000000000014 2.536900000000003,1.834699999999998 2.544800000000002,1.8378999999999976 2.5447000000000024,1.8399999999999963 2.558500000000002,1.8400999999999996 2.558500000000002,1.8445999999999998 2.569200000000002,1.844699999999996 2.5731,1.8481000000000023 2.5726000000000013,1.8540999999999954 2.5755000000000017,1.8594000000000008 2.5790000000000006,1.8599999999999994 2.578900000000001,1.8628 2.5961,1.8626999999999967 2.6075000000000017,1.8658000000000001 2.6106000000000016,1.8688999999999965 2.6075000000000017,1.872799999999998 2.6117000000000026,1.8804999999999978 2.6140000000000008,1.8810999999999964 2.6204,1.8781999999999996 2.632900000000003,1.8810999999999964 2.6401000000000003,1.8719999999999999 2.6373000000000033,1.867599999999996 2.641000000000002,1.867599999999996 2.641000000000002,1.8630999999999958 2.6479,1.8630999999999958 2.6480000000000032,1.8585999999999956 2.6549000000000014,1.8585999999999956 2.6549000000000014,1.8540999999999954 2.661800000000003,1.8541999999999987 2.661900000000003,1.8496999999999986 2.6757000000000026,1.8496999999999986 2.6798,1.8451999999999984 2.6826000000000008,1.8451999999999984 2.6837000000000018,1.8406999999999982 2.689300000000003,1.8393999999999977 2.6948000000000008,1.8402999999999992 2.6929000000000016,1.8284999999999982 2.695400000000003,1.8164999999999978 2.694600000000001,1.808399999999999 2.6959000000000017,1.8031000000000006 2.7011000000000003,1.7978000000000023 2.7006000000000014,1.7935999999999979 2.7070000000000007,1.7905999999999977 2.708400000000001,1.7856000000000023 2.717100000000002,1.7748999999999953 2.7199000000000026,1.7659999999999982 2.719100000000001,1.7571999999999974 2.7229000000000028,1.7541999999999973 2.7239000000000004,1.7552999999999983 2.7275000000000027,1.7494999999999976 2.7311000000000014,1.747799999999998 2.7346000000000004,1.7417999999999978 2.732400000000002,1.738500000000002 2.735500000000002,1.7372999999999976 2.7406000000000006,1.7312000000000012 2.746100000000002,1.7284999999999968 2.747,1.7226999999999961 2.7544000000000004,1.7254000000000005 2.762900000000002,1.7258999999999958 2.771600000000003,1.7209000000000003 2.771600000000003,1.7186000000000021 2.774600000000003,1.7173999999999978 2.7769000000000013,1.7141999999999982 2.7909000000000006,1.7168999999999954 2.806600000000003,1.724899999999998 2.8084000000000024,1.721899999999998 2.807100000000002,1.7167999999999992 2.8033,1.7149 2.8078000000000003,1.7149999999999963 2.8079,1.7053999999999974 2.8141,1.7027 2.8062000000000005,1.693399999999997 2.7972,1.6760999999999981 2.801400000000001,1.6777000000000015 2.8042000000000016,1.6758999999999986 2.8050000000000033,1.6785999999999959 2.806700000000003,1.6770999999999958 2.8103000000000016,1.677900000000001 2.8098000000000027,1.6754999999999995 2.8161000000000023,1.6772999999999954 2.8183000000000007,1.6753 2.825800000000001,1.6757999999999953 2.8267000000000024,1.6738 2.8283000000000023,1.6749999999999972 2.832500000000003,1.6728999999999985 2.837200000000003,1.6734000000000009 2.837600000000002,1.6717999999999975 2.840600000000002,1.6721000000000004 2.8420000000000023,1.6704000000000008 2.8443000000000005,1.671599999999998 2.845600000000001,1.6694999999999993 2.8476,1.6713000000000022 2.8492000000000033,1.6698999999999984 2.850900000000003,1.670899999999996 2.851300000000002,1.6695999999999955 2.8526000000000025,1.6704000000000008 2.8542000000000023,1.6683999999999983 2.8571000000000026,1.6683000000000021 2.8556000000000026,1.6672000000000011 2.8583,1.6681999999999988 2.8587000000000025,1.6665999999999954 2.862400000000001,1.666800000000002 2.8638000000000012,1.665300000000002 2.8652000000000015,1.6670000000000016 2.8657000000000004,1.6655000000000015 2.870000000000001,1.6655000000000015 2.8689,1.6625000000000014 2.872,1.6632999999999996 2.872200000000003,1.661200000000001 2.8733000000000004,1.6621999999999986 2.876100000000001,1.6601 2.8743000000000016,1.6591999999999985 2.8750999999999998,1.6582000000000008 2.8794000000000004,1.659399999999998 2.8820000000000014,1.658299999999997 2.883700000000001,1.6561000000000021 2.881700000000002,1.654600000000002 2.8831000000000024,1.6537000000000006 2.895100000000003,1.658999999999999 2.904,1.6672999999999973 2.9068000000000005,1.6721000000000004 2.911800000000003,1.6751999999999967 2.933100000000003,1.6802999999999955 2.956100000000003,1.6779999999999973 2.9548000000000023,1.6702999999999975 2.9593000000000025,1.6702999999999975 2.9594000000000023,1.6447000000000003 2.961100000000002,1.6432000000000002 2.9663000000000004,1.6432000000000002 2.9663000000000004,1.6387 2.9693000000000005,1.6321000000000012 2.9673000000000016,1.6251999999999995 2.973300000000002,1.6251999999999995 2.973300000000002,1.6206999999999994 2.9664,1.6199999999999974 2.9664,1.6162999999999954 2.9608000000000025,1.6147999999999954 2.9603,1.6132999999999953 2.9635,1.6081000000000003 2.964600000000001,1.6008999999999958 2.9678000000000004,1.5976 2.969000000000001,1.5936000000000021 2.9734000000000016,1.5936000000000021 2.9734000000000016,1.5801000000000016 2.9666000000000032,1.5801000000000016 2.9666000000000032,1.5629999999999953 2.9753000000000007,1.5626999999999995 2.987300000000001,1.548499999999997 2.9883000000000024,1.5441000000000003 2.987300000000001,1.5394999999999968 2.980500000000003,1.5394999999999968 2.980500000000003,1.5349999999999966 2.9668000000000028,1.5349000000000004 2.9668000000000028,1.5304000000000002 2.959900000000001,1.5304000000000002 2.960000000000001,1.5213999999999999 2.954600000000003,1.521099999999997 2.9505000000000017,1.5139999999999958 2.943900000000003,1.5126999999999953 2.9395000000000024,1.506999999999998 2.9395000000000024,1.4942999999999955 2.933100000000003,1.4942999999999955 2.9328000000000003,1.4733000000000018 2.9441000000000024,1.472299999999997 2.947800000000001,1.4671999999999983 2.9605000000000032,1.4656999999999982 2.9692000000000007,1.471899999999998 2.9730000000000025,1.472999999999999 2.9853000000000023,1.4667999999999992 2.9882000000000026,1.4686999999999983 2.9949000000000012,1.4690000000000012 2.9994000000000014,1.464100000000002 3.0055000000000014,1.4632000000000005 3.0065000000000026,1.4598999999999975 3.010200000000001,1.4623999999999953 3.0166000000000004,1.4635999999999996 3.0330000000000013,1.4634 3.0303000000000004,1.4656999999999982 3.0364000000000004,1.469699999999996 3.0420000000000016,1.4718000000000018 3.049500000000002,1.4722000000000008 3.054100000000002,1.4786999999999964 3.0645000000000024,1.484099999999998 3.068100000000001,1.4906999999999968 3.0679000000000016,1.4981000000000009 3.0777,1.5018999999999991 3.0882000000000005,1.5045000000000002 3.099800000000002,1.5041999999999973 3.1385000000000005,1.4998000000000005 3.150000000000002,1.4998000000000005 3.160300000000003,1.4917000000000016 3.1753,1.4872000000000014 3.1737,1.4812000000000012 3.186,1.4688000000000017 3.2056000000000004,1.4645999999999972 3.2081000000000017,1.4604999999999961 3.213700000000003,1.457099999999997 3.2257,1.4542999999999964 3.2346000000000004,1.4480999999999966 3.244500000000002,1.4457999999999984 3.253700000000002,1.4469999999999956 3.2523000000000017,1.4521000000000015 3.254800000000003,1.4551000000000016 3.2514000000000003,1.4564999999999984 3.2499000000000002,1.4634999999999962 3.252700000000001,1.466699999999996 3.252700000000001,1.474899999999998 3.2580000000000027,1.4842999999999975 3.2672000000000025,1.493699999999997 3.265400000000003,1.4949000000000012 3.263300000000001,1.5018999999999991 3.2673000000000023,1.5139999999999958 3.266400000000001,1.5176000000000016 3.2925000000000004,1.5437000000000012 3.293400000000002,1.5538999999999987 3.2976000000000028,1.560699999999997 3.2955000000000005,1.5632999999999981 3.301400000000001,1.5709000000000017 3.2997000000000014,1.5732 3.3017000000000003,1.5732999999999961 3.3064999999999998,1.5816999999999979 3.3104000000000013,1.5825999999999993 3.3125999999999998,1.5899999999999963 3.3237000000000023,1.5764999999999958 3.3309000000000033,1.5751999999999953 3.339000000000002,1.5812999999999988 3.332900000000002,1.5904999999999987 3.339100000000002,1.5923000000000016 3.336100000000002,1.5949999999999989 3.339000000000002,1.5962999999999994 3.349700000000002,1.5951000000000022 3.354700000000001,1.5995999999999952 3.3556000000000026,1.6056999999999988 3.3577000000000012,1.6084999999999994 3.3641000000000005,1.610999999999997 3.3789000000000016,1.6129999999999995 3.3795,1.6156999999999968 3.386300000000002,1.619099999999996 3.3956000000000017,1.6141999999999967 3.407600000000002,1.6192999999999955 3.4192,1.6193999999999988 3.4277000000000015,1.6161999999999992 3.4358000000000004,1.6161999999999992 3.438600000000001,1.618699999999997 3.4583000000000013,1.6188999999999965 3.4779000000000018,1.6111999999999966 3.4879,1.6176999999999992 3.4913000000000025,1.6341999999999999 3.491100000000003,1.6385999999999967 3.486600000000003,1.6447000000000003 3.4939,1.658299999999997 3.4830000000000005,1.6559999999999988 3.483400000000003,1.6603999999999957 3.4877000000000002,1.668999999999997 3.4906000000000006,1.6702999999999975 3.500600000000002,1.6687999999999974 3.503,1.6698000000000022 3.499600000000001,1.6732000000000014 3.5152,1.6706999999999965 3.521000000000001,1.6676999999999964 3.533200000000001,1.6692999999999998 3.533700000000003,1.674199999999999 3.5394000000000005,1.6781000000000006 3.546400000000002,1.6706000000000003 3.5466000000000015,1.6608000000000018 3.5522000000000027,1.6588999999999956 3.568800000000003,1.6621999999999986 3.580000000000002,1.6674000000000007 3.5797000000000025,1.6707999999999998 3.5824,1.673099999999998 3.5923000000000016,1.670099999999998 3.5958000000000006,1.6659000000000006 3.600100000000001,1.6670000000000016 3.5996000000000024,1.668999999999997 3.602400000000003,1.674199999999999 3.5942000000000007,1.6755999999999958 3.595100000000002,1.6829999999999998 3.598600000000001,1.6850999999999985 3.6022,1.6847999999999956 3.6037,1.6820999999999984 3.611900000000002,1.6792000000000016 3.6164000000000023,1.680099999999996 3.611500000000003,1.6835999999999984 3.614600000000003,1.6829999999999998 3.6202000000000005,1.685299999999998 3.637800000000002,1.6839000000000013 3.646500000000003,1.6781999999999968 3.6721000000000004,1.6721999999999966 3.6743000000000023,1.6625999999999976 3.708400000000001,1.6543999999999954 3.723700000000001,1.6477000000000004 3.729700000000001,1.6492000000000004 3.7406000000000006,1.6469999999999985 3.7425000000000033,1.652000000000001 3.748100000000001,1.6561000000000021 3.758700000000001,1.6540999999999997 3.7641000000000027,1.6595999999999975 3.7714,1.6709999999999994 3.7779000000000025,1.6725999999999956 3.7774,1.6843999999999966 3.7819000000000003,1.6891999999999996 3.7894000000000005,1.680500000000002 3.8015000000000008,1.6777000000000015 3.8083000000000027,1.6723999999999961 3.8186,1.6706000000000003 3.8275000000000006,1.6715000000000018 3.8313000000000024,1.6766999999999967 3.8479000000000028,1.683799999999998 3.8537,1.6879999999999953 3.8892000000000024,1.6873999999999967 3.8919000000000032,1.6832999999999956 3.9054,1.6843999999999966 3.9099000000000004,1.6817999999999955 3.9116,1.6790999999999983 3.9086,1.6751999999999967 3.9078000000000017,1.6710999999999956 3.9205000000000005,1.6694999999999993 3.9237,1.6674999999999969 3.9232000000000014,1.6655000000000015 3.9135000000000026,1.6606999999999985 3.9156000000000013,1.6576999999999984 3.927100000000003,1.6510999999999996 3.9235000000000007,1.641999999999996 3.9464000000000006,1.6443999999999974 3.951500000000003,1.6417999999999964 3.953800000000001,1.6388999999999996 3.9472000000000023,1.6336000000000013 3.947300000000002,1.6287999999999982 3.9542,1.6280999999999963 3.9627000000000017,1.6306000000000012 3.9729000000000028,1.6278999999999968 3.975100000000001,1.6263000000000005 3.9761000000000024,1.6227000000000018 3.9726,1.6204999999999998 3.971200000000003,1.6210999999999984 3.970200000000002,1.6267999999999958 3.9662000000000006,1.6274999999999977 3.9634,1.6259999999999977 3.9677000000000007,1.6227000000000018 3.965200000000003,1.615400000000001 3.9734000000000016,1.6171000000000006 3.9784000000000006,1.6156000000000006 3.9857000000000014,1.6066000000000003 3.9928000000000026,1.6034000000000006 4.005300000000002,1.606499999999997 4.016200000000001,1.6158000000000001 4.0227,1.6171000000000006 4.031000000000002,1.6147999999999954 4.034300000000002,1.6126000000000005 4.036000000000001,1.609099999999998 4.047900000000002,1.6004000000000005 4.0451000000000015,1.5899 4.038700000000002,1.5878999999999976 4.048200000000001,1.5880999999999972 4.051000000000002,1.5914999999999964 4.058300000000003,1.593199999999996 4.070600000000002,1.5900999999999996 4.0731,1.5867999999999967 4.069600000000001,1.5861000000000018 4.068800000000003,1.583199999999998 4.075700000000001,1.578800000000001 4.0762,1.5741999999999976 4.089400000000001,1.5668000000000006 4.089600000000001,1.5632999999999981 4.118200000000002,1.5701999999999998 4.1274000000000015,1.5734999999999957 4.128800000000002,1.5760000000000005 4.135400000000001,1.5771999999999977 4.1479,1.5748999999999995 4.146600000000003,1.576900000000002 4.152200000000001,1.5782999999999987 4.155900000000003,1.586199999999998 4.1525,1.5932999999999993 4.154600000000002,1.5957000000000008 4.1584,1.5992999999999995 4.174500000000002,1.6045000000000016 4.172500000000003,1.6075000000000017 4.1768,1.6148999999999987 4.1798,1.6148999999999987 4.1889,1.6233000000000004 4.211300000000001,1.6347000000000023 4.220100000000002,1.6310999999999964 4.229900000000001,1.6332999999999984 4.241700000000002,1.6310000000000002 4.252300000000002,1.634599999999999 4.2668,1.6436999999999955 4.2657000000000025,1.6466999999999956 4.259700000000002,1.6503999999999976 4.254900000000003,1.6510999999999996 4.248700000000003,1.6563000000000017 4.233500000000003,1.6627999999999972 4.232000000000003,1.6695999999999955 4.2257,1.6695999999999955 4.219800000000003,1.6715000000000018 4.215300000000003,1.6777999999999977 4.212800000000001,1.6856000000000009 4.221200000000003,1.6888000000000005 4.226300000000002,1.689 4.237200000000001,1.6944000000000017 4.2453,1.6938999999999993 4.260100000000001,1.6974000000000018 4.268000000000001,1.693799999999996 4.279200000000003,1.691200000000002 4.2844000000000015,1.7006000000000014 4.2895,1.7038999999999973 4.317800000000002,1.6942999999999984 4.320900000000002,1.6916999999999973 4.320700000000002,1.6882999999999981 4.330200000000001,1.6856000000000009 4.334100000000003,1.6822000000000017 4.344900000000003,1.6777000000000015 4.348700000000001,1.6728999999999985 4.354900000000001,1.6695999999999955 4.364500000000003,1.6725999999999956 4.371700000000001,1.6719000000000008 4.3917,1.685299999999998 4.389300000000002,1.6948000000000008 4.398200000000003,1.703800000000001 4.407800000000002,1.7040999999999968 4.415000000000003,1.7105999999999995 4.428900000000002,1.716699999999996 4.430900000000001,1.7226999999999961 4.435300000000002,1.727800000000002 4.444400000000002,1.7284000000000006 4.464700000000001,1.719699999999996 4.476300000000002,1.7167999999999992 4.494900000000001,1.7167999999999992 4.502600000000001,1.7186999999999983 4.5120000000000005,1.7173000000000016 4.515800000000002,1.714100000000002 4.527600000000003,1.710099999999997 4.5396,1.7027 4.558200000000003,1.704900000000002 4.569200000000002,1.7023999999999972 4.575300000000002,1.6965000000000003 4.589500000000001,1.687100000000001 4.597800000000003,1.683099999999996 4.611600000000003,1.6828000000000003 4.610300000000002,1.6796000000000006 4.621700000000001,1.6835999999999984 4.6325,1.680500000000002 4.639200000000002,1.6809000000000012 4.644500000000001,1.683099999999996 4.652000000000001,1.6959000000000017 4.6569,1.6980999999999966 4.663800000000002,1.696799999999996 4.678600000000003,1.6876999999999995 4.6875,1.6862999999999957 4.689,1.6871999999999971 4.685400000000001,1.689700000000002 4.684200000000001,1.692700000000002 4.6873000000000005,1.6944000000000017 4.689600000000002,1.698999999999998 4.695800000000002,1.7023999999999972 4.717600000000001,1.700400000000002 4.722100000000001,1.7053999999999974 4.729500000000002,1.708599999999997 4.7407,1.7081000000000017 4.740600000000001,1.7036000000000016 4.762600000000003,1.7042999999999964 4.767100000000003,1.7025999999999968 4.7803,1.7120999999999995 4.796400000000002,1.7145999999999972 4.809800000000003,1.6980000000000004 4.8149000000000015,1.697499999999998 4.822000000000003,1.6918999999999969 4.821900000000003,1.6877999999999957 4.824400000000001,1.6841000000000008 4.8399,1.681599999999996 4.846700000000002,1.6781000000000006 4.864900000000002,1.6858000000000004 4.875700000000002,1.6807000000000016 4.880700000000001,1.6813999999999965 4.887300000000003,1.6796000000000006 4.889300000000002,1.6773999999999987 4.889800000000001,1.6704000000000008 4.892400000000002,1.6653999999999982 4.900200000000002,1.6662999999999997 4.904300000000003,1.6648999999999958 4.905000000000001,1.6603999999999957 4.917800000000003,1.6601 4.9177,1.6555999999999997 4.924500000000002,1.6554999999999964 4.924400000000002,1.6526999999999958 4.9312000000000005,1.6509 4.930900000000001,1.6418999999999997 4.937800000000003,1.6417999999999964 4.9373000000000005,1.6300999999999988 4.9391,1.6263999999999967 4.9435,1.6233000000000004 4.9547000000000025,1.622799999999998 4.954000000000001,1.6254999999999953 4.956300000000002,1.6278999999999968 4.953300000000002,1.634999999999998 4.9573,1.6400000000000006 4.960600000000003,1.641300000000001 4.962400000000002,1.6458000000000013 4.967600000000001,1.6477000000000004 4.968500000000002,1.6494999999999962 4.9724,1.6488000000000014 4.9724,1.6501999999999981 4.982900000000001,1.651600000000002 4.9913000000000025,1.6580999999999975 5.003800000000002,1.658999999999999 5.014000000000003,1.6584999999999965 5.0138,1.6539999999999964 5.0207000000000015,1.6537999999999968 5.020500000000002,1.6492999999999967 5.0274,1.6492000000000004 5.027000000000001,1.6402 5.041,1.640900000000002 5.052800000000001,1.6362999999999985 5.0565,1.6317000000000021 5.0548,1.6295999999999964 5.0573000000000015,1.6259000000000015 5.065900000000003,1.6214000000000013 5.069300000000002,1.6173000000000002 5.073400000000003,1.620599999999996 5.083500000000001,1.6214999999999975 5.101800000000001,1.6207999999999956 5.101600000000001,1.6162999999999954 5.1158,1.6159999999999997 5.117900000000002,1.6173999999999964 5.135900000000003,1.6156000000000006 5.1357,1.6111000000000004 5.142600000000002,1.610999999999997 5.1422000000000025,1.6019999999999968 5.149100000000001,1.6017999999999972 5.148500000000002,1.5882999999999967 5.1554,1.5882000000000005 5.155000000000001,1.5792000000000002 5.161900000000003,1.5790000000000006 5.161700000000003,1.5745000000000005 5.168500000000002,1.5743999999999971 5.168300000000002,1.569899999999997 5.1752,1.5696999999999974 5.175000000000001,1.5651999999999973 5.181900000000002,1.565100000000001 5.181700000000003,1.5606000000000009 5.188500000000001,1.5604999999999976 5.188300000000002,1.5559000000000012 5.1952,1.5557999999999979 5.195,1.5512999999999977 5.201800000000002,1.5512000000000015 5.2011,1.5330999999999975 5.207900000000002,1.5330000000000013 5.206200000000003,1.4923999999999964 5.213000000000001,1.4923000000000002 5.212800000000001,1.4878 5.219700000000003,1.4876000000000005 5.2195,1.4831000000000003 5.2332,1.4827999999999975 5.2330000000000005,1.4795000000000016 5.243500000000001,1.4760999999999953 5.270400000000002,1.4724999999999966 5.283100000000001,1.4682999999999993 5.290000000000003,1.4694999999999965 5.2955000000000005,1.4675000000000011 5.3093,1.4677999999999969 5.308600000000002,1.4600000000000009 5.3278,1.453800000000001 5.3414,1.4534999999999982 5.341200000000001,1.450400000000002 5.351300000000002,1.4455999999999989 5.353300000000001,1.4416999999999973 5.355400000000003,1.4412999999999982 5.3705,1.447099999999999 5.3718,1.4493999999999971 5.375400000000003,1.4499999999999957 5.3765,1.4528999999999996 5.3827,1.4510999999999967 5.396100000000001,1.4523999999999972 5.395900000000001,1.4480999999999966 5.402700000000003,1.4476999999999975 5.4025,1.4431999999999974 5.409300000000002,1.4431000000000012 5.408900000000003,1.4339999999999975 5.402100000000001,1.434199999999997 5.401500000000002,1.4217000000000013 5.405200000000001,1.4191999999999965 5.412500000000001,1.4206000000000003 5.427200000000003,1.4155999999999977 5.449100000000001,1.4150999999999954 5.448800000000002,1.4106000000000023 5.4693000000000005,1.4101 5.469100000000001,1.4058999999999955 5.4715000000000025,1.4042999999999992 5.486000000000001,1.4028999999999954 5.495100000000001,1.4114000000000004 5.5001,1.413800000000002 5.531700000000001,1.414200000000001 5.544700000000002,1.4129000000000005 5.544500000000003,1.4084000000000003 5.551300000000001,1.408299999999997 5.550900000000002,1.3992999999999967 5.5577000000000005,1.3990999999999971 5.557500000000001,1.394599999999997 5.564300000000003,1.3943999999999974 5.5638000000000005,1.385399999999997 5.570700000000002,1.3853000000000009 5.570400000000003,1.3806999999999974 5.577300000000001,1.3806000000000012 5.577000000000002,1.376100000000001 5.5839,1.3759000000000015 5.583600000000001,1.3714000000000013 5.622500000000002,1.370899999999999 5.6326,1.3678999999999988 5.642500000000002,1.3607000000000014 5.650300000000001,1.3582999999999998 5.651500000000002,1.3562000000000012 5.662500000000001,1.353200000000001 5.665700000000001,1.3534999999999968 5.668000000000003,1.3566000000000003 5.671800000000001,1.3582999999999998 5.671900000000001,1.3603000000000023 5.6935,1.3599999999999994 5.704900000000002,1.3620000000000019 5.711100000000002,1.3592999999999975 5.7333,1.3588000000000022 5.7332,1.3534999999999968 5.726400000000002,1.3534999999999968 5.7286,1.3414000000000001 5.7195,1.3414999999999964 5.712500000000002,1.3295999999999992 5.7135,1.3233999999999995 5.711300000000001,1.2948000000000022 5.712800000000001,1.2892999999999972 5.703000000000003,1.2885999999999953 5.707700000000003,1.2719000000000023 5.697700000000001,1.2712000000000003 5.689400000000003,1.2650000000000006 5.669800000000002,1.2638999999999996 5.668800000000001,1.2700999999999993 5.66,1.2706000000000017 5.660800000000002,1.2642999999999986 5.643500000000003,1.2653999999999996 5.6356,1.2597000000000023 5.6370000000000005,1.2468000000000004 5.628400000000003,1.2475000000000023 5.629100000000001,1.2409999999999997 5.5945,1.2102000000000004 5.594100000000001,1.2040999999999968 5.5884,1.203800000000001 5.588000000000001,1.1978000000000009 5.593700000000002,1.1980999999999966 5.593300000000003,1.1920999999999964 5.587600000000002,1.1918000000000006 5.586600000000001,1.1796999999999969 5.5807,1.1734000000000009 5.578900000000001,1.1554000000000002 5.5623000000000005,1.148299999999999 5.5562000000000005,1.1417999999999964 5.5503,1.1411999999999978 5.549400000000002,1.117599999999996 5.543400000000002,1.1169000000000011 5.543700000000001,1.082099999999997 5.548100000000002,1.0726999999999975 5.537700000000001,1.0698000000000008 5.542200000000001,1.0604999999999976 5.531700000000001,1.0576000000000008 5.5335,1.0527000000000015 5.524900000000002,1.050699999999999 5.518400000000003,1.0439000000000007 5.511700000000001,1.042899999999996 5.512700000000002,1.0259999999999962 5.505600000000001,1.024799999999999 5.5136,1.0206000000000017 5.515600000000003,1.015900000000002 5.527100000000001,1.0195000000000007 5.534700000000001,1.0056999999999974 5.523900000000001,1.0030000000000001 5.526600000000002,0.9984999999999999 5.517900000000001,0.9908000000000001 5.523400000000002,0.9819999999999993 5.5120000000000005,0.9784999999999968 5.5196000000000005,0.9649000000000001 5.467600000000001,0.9498999999999995 5.468200000000003,0.9444000000000017 5.460700000000003,0.9429999999999978 5.461200000000002,0.9373999999999967 5.454000000000001,0.9360999999999962 5.447200000000002,0.9292999999999978 5.4404,0.9281999999999968 5.4406,0.9223999999999961 5.425700000000003,0.9200999999999979 5.4269,0.9086999999999961 5.4191,0.9074999999999989 5.411800000000003,0.9007000000000005 5.412400000000002,0.8948999999999998 5.404500000000002,0.8939000000000021 5.405100000000001,0.8881000000000014 5.3972000000000016,0.8870999999999967 5.3885000000000005,0.8919999999999959 5.389200000000002,0.8861999999999952 5.3812,0.8851999999999975 5.381900000000002,0.8793999999999969 5.3658,0.8774999999999977 5.366500000000002,0.871699999999997 5.358500000000003,0.8708999999999989 5.338600000000003,0.8340999999999994 5.3393000000000015,0.8280999999999992 5.333300000000001,0.8097999999999956 5.3352,0.7918000000000021 5.327900000000003,0.785499999999999 5.328600000000002,0.7794999999999987 5.323900000000002,0.7492000000000019 5.3185,0.7250000000000014 5.311900000000001,0.7126999999999981 5.3138000000000005,0.6946999999999974 5.305900000000001,0.6944000000000017 5.307200000000002,0.6824000000000012 5.316300000000002,0.6773999999999987 5.308300000000003,0.6706999999999965 5.322800000000001,0.672699999999999 5.322300000000002,0.6683000000000021 5.318100000000001,0.6657000000000011 5.301500000000001,0.6606999999999985 5.3077000000000005,0.6514999999999986 5.285600000000002,0.6477000000000004 5.2775,0.649799999999999 5.266500000000001,0.6467999999999989 5.259400000000003,0.6516999999999982 5.2535000000000025,0.6456999999999979 5.249000000000002,0.643499999999996 5.247,0.6503000000000014 5.242100000000001,0.6546999999999983 5.2363,0.6541999999999959 5.233600000000003,0.6507999999999967 5.222000000000001,0.6498999999999953 5.221300000000003,0.6469999999999985 5.217600000000001,0.6463999999999999 5.2088,0.6518999999999977 5.200200000000002,0.653100000000002 5.1906,0.6599999999999966 5.184600000000003,0.6591000000000022 5.1834000000000024,0.6554000000000002 5.173200000000001,0.6503000000000014 5.163,0.6477999999999966 5.143900000000002,0.6479999999999961 5.138900000000003,0.6505999999999972 5.130300000000002,0.6471000000000018 5.123100000000001,0.6501999999999981 5.115600000000001,0.6447999999999965 5.109900000000003,0.6439000000000021 5.1041000000000025,0.639800000000001 5.096600000000002,0.6420999999999992 5.098600000000001,0.6317000000000021 5.087500000000002,0.6336999999999975 5.081600000000002,0.6366000000000014 5.075000000000003,0.6355000000000004 5.071800000000003,0.6381000000000014 5.068200000000001,0.6330999999999989 5.058900000000001,0.6328999999999994 5.060300000000002,0.6383999999999972 5.052900000000001,0.6356999999999999 5.047600000000003,0.6310999999999964 5.044600000000003,0.6250999999999962 5.037100000000002,0.6276999999999973 5.032400000000003,0.621699999999997 5.0257000000000005,0.6353999999999971 5.012700000000002,0.6344999999999956 5.005500000000001,0.6321999999999974 5.0046,0.6265999999999963 5.0059000000000005,0.602800000000002 4.994,0.6015000000000015 4.980400000000003,0.6069999999999993 4.9704000000000015,0.6092000000000013 4.9389,0.6081000000000003 4.923400000000001,0.6150999999999982 4.911200000000001,0.6176999999999992 4.898400000000002,0.6171999999999969 4.8856,0.6251999999999995 4.8842,0.6340999999999966 4.875500000000002,0.6368000000000009 4.875300000000003,0.6430999999999969 4.8688,0.6540999999999997 4.855,0.6585999999999999 4.841600000000003,0.6608000000000018 4.832600000000003,0.6745999999999981 4.8323,0.6835999999999984 4.8217,0.6978000000000009 4.811600000000002,0.7075999999999993 4.799300000000002,0.7151999999999958 4.791,0.7372000000000014 4.788,0.7575999999999965 4.783200000000001,0.7668999999999997 4.780100000000001,0.7802000000000007 4.7713,0.7798000000000016 4.7636,0.7870999999999952 4.746700000000001,0.7738999999999976 4.738100000000003,0.7740999999999971 4.732000000000003,0.7808999999999955 4.726200000000002,0.7777999999999992 4.7132000000000005,0.7787999999999968 4.710900000000002,0.7824999999999989 4.7043,0.7835999999999999 4.685100000000002,0.806599999999996 4.685700000000001,0.8171999999999997 4.674900000000001,0.8245999999999967 4.6692,0.8237999999999985 4.6662,0.8271000000000015 4.659100000000002,0.8280999999999992 4.648500000000002,0.8333999999999975 4.635100000000001,0.837299999999999 4.626000000000001,0.843199999999996 4.6148000000000025,0.8438000000000017 4.606900000000003,0.8525999999999954 4.596600000000002,0.8528999999999982 4.592600000000001,0.8483000000000018 4.587900000000001,0.8312999999999988 4.584100000000003,0.8280999999999992 4.576800000000002,0.8280999999999992 4.569800000000001,0.8326999999999956 4.548000000000002,0.8260000000000005 4.529200000000003,0.828400000000002 4.497700000000002,0.8254000000000019 4.4959000000000024,0.832499999999996 4.488500000000002,0.8305000000000007 4.4848,0.8280999999999992 4.488200000000003,0.8254999999999981 4.494300000000003,0.8247999999999962 4.4909,0.8209000000000017 4.485100000000003,0.8211999999999975 4.4879,0.8179999999999978 4.487000000000002,0.8108999999999966 4.4815000000000005,0.8081999999999994 4.4841000000000015,0.8033000000000001 4.473800000000001,0.7997999999999976 4.472100000000001,0.795899999999996 4.453900000000001,0.7942999999999998 4.428000000000001,0.797699999999999 4.416500000000003,0.8031000000000006 4.4090000000000025,0.8094999999999999 4.399900000000002,0.808799999999998 4.396500000000003,0.8035999999999959 4.388100000000001,0.8055000000000021 4.383300000000002,0.7995999999999981 4.3766,0.7999999999999972 4.3689,0.7952000000000012 4.3587000000000025,0.7954000000000008 4.346400000000003,0.789200000000001 4.3263,0.7903999999999982 4.321400000000001,0.7866 4.313200000000002,0.7714999999999961 4.3033,0.7642999999999986 4.291900000000002,0.759999999999998 4.281500000000001,0.7597999999999985 4.271900000000002,0.7616000000000014 4.2668,0.7678999999999974 4.2666,0.7798999999999978 4.259900000000002,0.7873999999999981 4.249500000000001,0.7899999999999991 4.241200000000003,0.7897999999999996 4.233400000000003,0.7939000000000007 4.222000000000001,0.7920000000000016 4.218800000000002,0.7939000000000007 4.193900000000003,0.7978999999999985 4.1899000000000015,0.8005999999999958 4.183600000000002,0.8004999999999995 4.177600000000002,0.7972999999999999 4.161200000000001,0.797699999999999 4.1525,0.7877999999999972 4.1493,0.7935000000000016 4.1370000000000005,0.7901999999999987 4.129000000000001,0.7905999999999977 4.125300000000003,0.7942999999999998 4.124700000000001,0.7995000000000019 4.1142,0.8035999999999959 4.107800000000001,0.8031999999999968 4.107900000000001,0.8085000000000022 4.1037,0.806599999999996 4.100200000000001,0.8155999999999963 4.0943000000000005,0.8241999999999976 4.086100000000002,0.8288000000000011 4.0797000000000025,0.8286000000000016 4.043800000000001,0.8185000000000002 4.042200000000001,0.8217999999999961 4.032700000000002,0.8209000000000017 4.0279000000000025,0.8273999999999972 4.0197,0.8339999999999961 4.009900000000002,0.833599999999997 4.015000000000001,0.8506999999999962 4.005800000000001,0.8536999999999964 3.9955,0.8509999999999991 3.9735000000000014,0.8414999999999964 3.9638000000000027,0.8440999999999974 3.9094000000000015,0.8444000000000003 3.9079000000000015,0.8408000000000015 3.9093000000000018,0.8376999999999981 3.8856,0.8384999999999962 3.872600000000002,0.8369 3.8495000000000026,0.8281999999999954 3.8442000000000007,0.8339999999999961 3.8343000000000025,0.8318000000000012 3.8221000000000025,0.8316999999999979 3.816700000000001,0.8275999999999968 3.8054000000000023,0.8263999999999996 3.7981000000000016,0.8207000000000022 3.789300000000001,0.8196000000000012 3.7841000000000022,0.8117999999999981 3.772400000000001,0.8128999999999991 3.7558000000000007,0.8035999999999959 3.7296000000000014,0.8117999999999981 3.7124000000000024,0.8132000000000019 3.701900000000002,0.7931999999999988 3.6843000000000004,0.8018999999999963 3.673000000000002,0.8003999999999962 3.6674000000000007,0.7852999999999994 3.672900000000002,0.7815999999999974 3.6752000000000002,0.7761999999999958 3.6711000000000027,0.772199999999998 3.667300000000001,0.7569000000000017 3.6610000000000014,0.7528999999999968 3.6507000000000005,0.7387000000000015 3.630600000000001,0.7304999999999993 3.6335000000000015,0.7214999999999989 3.6189,0.7175999999999974 3.610500000000002,0.7120999999999995 3.607000000000003,0.7038999999999973 3.5817000000000014,0.6859999999999999 3.578800000000001,0.6785999999999959 3.586000000000002,0.6738999999999962 3.580300000000001,0.6585999999999999 3.5683000000000007,0.6499999999999986 3.5763,0.6385000000000005 3.572800000000001,0.6310999999999964 3.564600000000002,0.6240999999999985 3.5528000000000013,0.6204999999999998 3.5511000000000017,0.6133999999999986 3.538300000000003,0.6047000000000011 3.5370000000000026,0.5985999999999976 3.5409000000000006,0.5938000000000017 3.5244,0.5786999999999978 3.514300000000002,0.5739000000000019 3.5073000000000008,0.5749999999999957 3.5000999999999998,0.5614999999999952 3.4939,0.5578999999999965 3.492000000000001,0.5456000000000003 3.485800000000001,0.5415999999999954 3.4741,0.5398999999999958 3.4750000000000014,0.5343000000000018 3.4526000000000003,0.5309999999999988 3.424900000000001,0.5426999999999964 3.4162,0.5482000000000014 3.4055,0.5508999999999986 3.3987000000000016,0.5480000000000018 3.4014000000000024,0.5403999999999982 3.3976000000000006,0.5353999999999957 3.3900000000000006,0.5317999999999969 3.3825000000000003,0.5308999999999955 3.3739000000000026,0.5332000000000008 3.373700000000003,0.5244 3.364600000000003,0.5208000000000013 3.3255000000000017,0.5225999999999971 3.3048,0.5268999999999977 3.302100000000003,0.5244999999999962 3.3001000000000005,0.5178000000000011 3.3008000000000024,0.5101000000000013 3.2962000000000025,0.49049999999999727 3.2646000000000015,0.4735999999999976 3.2524000000000015,0.4630999999999972 3.235400000000002,0.4615000000000009 3.2333,0.45309999999999917 3.242600000000003,0.4515999999999991 3.2437000000000005,0.4491000000000014 3.224,0.4431999999999974 3.2142000000000017,0.4352000000000018 3.208000000000002,0.436399999999999 3.206100000000003,0.4420999999999964 3.1979000000000006,0.44369999999999976 3.1865000000000023,0.4433000000000007 3.1762000000000015,0.43849999999999767 3.163400000000003,0.439700000000002 3.152600000000003,0.43540000000000134 3.148100000000003,0.431599999999996 3.139000000000003,0.43379999999999797 3.1331000000000024,0.4320999999999984 3.1264000000000003,0.4211999999999989 3.1172000000000004,0.4194999999999993 3.0995000000000026,0.4011999999999958 3.0924000000000014,0.39690000000000225 3.0763,0.39799999999999613 3.0709000000000017,0.39459999999999695 3.0639000000000003,0.3965999999999994 3.063200000000002,0.40090000000000003 3.0746,0.4101999999999961 3.0761000000000003,0.41610000000000014 3.068200000000001,0.42020000000000124 3.0603000000000016,0.432699999999997 3.046800000000001,0.43319999999999936 3.0411,0.43829999999999814 3.0341000000000022,0.43909999999999627 3.0268000000000015,0.43730000000000047 3.0192000000000014,0.44489999999999696 3.0145000000000017,0.4433999999999969 3.004800000000003,0.4317999999999955 2.996500000000001,0.4322999999999979 2.9913000000000025,0.43670000000000186 2.9821000000000026,0.43789999999999907 2.9754000000000005,0.43260000000000076 2.9708000000000006,0.4245999999999981 2.9644000000000013,0.42309999999999803 2.9547000000000025,0.4253 2.9491000000000014,0.4299999999999997 2.9502000000000024,0.4358000000000004 2.9536000000000016,0.44069999999999965 2.9670000000000023,0.4514999999999958 2.9689000000000014,0.4555999999999969 2.9663000000000004,0.4615000000000009 2.9532000000000025,0.46280000000000143 2.9451,0.4707000000000008 2.9361000000000033,0.4742999999999995 2.919800000000002,0.48440000000000083 2.908100000000001,0.48570000000000135 2.8992000000000004,0.48389999999999844 2.891400000000001,0.4765000000000015 2.8834000000000017,0.47160000000000224 2.872600000000002,0.4707000000000008 2.8612,0.4731000000000023 2.8450000000000024,0.4831999999999965 2.840200000000003,0.4895999999999958 2.8384,0.5054999999999978 2.8305000000000007,0.5103000000000009 2.8220000000000027,0.5078999999999994 2.8134000000000015,0.5080999999999989 2.8026000000000018,0.519999999999996 2.7941000000000003,0.5186999999999955 2.779,0.509999999999998 2.760900000000003,0.497799999999998 2.744500000000002,0.4842000000000013 2.7143000000000015,0.4782999999999973 2.7033000000000023,0.47809999999999775 2.6933000000000007,0.4737000000000009 2.690200000000001,0.4673000000000016 2.6935000000000002,0.46170000000000044 2.6900000000000013,0.45539999999999736 2.683100000000003,0.4521000000000015 2.674000000000003,0.44200000000000017 2.678000000000001,0.4283000000000001 2.6773000000000025,0.4206000000000003 2.6617000000000033,0.40800000000000125 2.662200000000002,0.4011999999999958 2.6586,0.38060000000000116 2.6507000000000005,0.3727000000000018 2.637900000000002,0.3673999999999964 2.6341,0.3551999999999964 2.626800000000003,0.35600000000000165 2.622200000000003,0.3584999999999994 2.619500000000002,0.3620999999999981 2.6212000000000018,0.36719999999999686 2.6278000000000006,0.3697000000000017 2.6266,0.37229999999999563 2.6035000000000004,0.3697999999999979 2.594000000000001,0.36059999999999803 2.5862000000000016,0.3579000000000008 2.574900000000003,0.35779999999999745 2.568900000000003,0.3538999999999959 2.559000000000001,0.35549999999999926 2.552900000000001,0.36019999999999897 2.5409000000000006,0.3597999999999999 2.5375000000000014,0.3564000000000007 2.5232000000000028,0.3603000000000023 2.5097000000000023,0.36070000000000135 2.4863,0.3555999999999955 2.475100000000001,0.35709999999999553 2.4639000000000024,0.35660000000000025 2.4589,0.3515000000000015 2.4483000000000033,0.3481999999999985 2.4430000000000014,0.34199999999999875 2.435500000000001,0.34250000000000114 2.4318000000000026,0.34599999999999653 2.4273000000000025,0.34609999999999985 2.4268,0.34080000000000155 2.414900000000003,0.33670000000000044 2.4139000000000017,0.3316999999999979 2.4099000000000004,0.32509999999999906 2.4009,0.32439999999999714 2.3923000000000023,0.3265999999999991 2.3908000000000023,0.3307000000000002 2.3713000000000015,0.33310000000000173 2.3640000000000008,0.3305999999999969 2.3527000000000022,0.32979999999999876 2.3191000000000024,0.3370999999999995 2.299800000000001,0.3436000000000021 2.290300000000002,0.34080000000000155 2.285300000000003,0.33619999999999806 2.278600000000001,0.335799999999999 2.2647000000000013,0.33739999999999526 2.2545,0.3416999999999959 2.2473000000000027,0.3399999999999963 2.241900000000001,0.3339999999999961 2.2306000000000026,0.33200000000000074 2.2234000000000016,0.32809999999999917 2.2124000000000024,0.33449999999999847 2.201400000000003,0.33549999999999613 2.186300000000003,0.3445999999999998 2.178000000000001,0.3451999999999984 2.1762000000000015,0.34129999999999683 2.171000000000003,0.3382000000000005 2.160300000000003,0.3371999999999957 2.153100000000002,0.32569999999999766 2.133200000000002,0.3243000000000009 2.1050000000000004,0.32730000000000103 2.0946,0.3260999999999967 2.087900000000001,0.3217999999999961 2.078500000000002,0.3205999999999989 2.0680000000000014,0.3216999999999999 2.059000000000001,0.32519999999999527 2.0516000000000005,0.3234999999999957 2.0410000000000004,0.31449999999999534 2.033100000000001,0.3149000000000015 2.0136000000000003,0.31980000000000075 2.0043000000000006,0.31629999999999825 2.001700000000003,0.31109999999999616 1.9928000000000026,0.3095999999999961 1.9937000000000005,0.29759999999999565 1.9846000000000004,0.2909000000000006 1.9827000000000012,0.28289999999999793 1.9863,0.2745999999999995 1.9847000000000001,0.2670999999999992 1.9829000000000008,0.2640999999999991 1.9797000000000011,0.2657999999999987 1.9741,0.2629000000000019 1.9783000000000008,0.2597999999999985 1.9636000000000031,0.25560000000000116 1.953400000000002,0.25659999999999883 1.9417000000000009,0.25370000000000203 1.9375999999999998,0.256299999999996 1.9314999999999998,0.25390000000000157 1.9319000000000024,0.2504999999999953 1.927900000000001,0.2505999999999986 1.918800000000001,0.2430000000000021 1.9222000000000001,0.2382999999999953 1.937100000000001,0.23329999999999984 1.9431000000000012,0.22529999999999717 1.9410000000000025,0.221899999999998 1.9359000000000002,0.22220000000000084 1.9389000000000003,0.21569999999999823 1.9395000000000024,0.2079999999999984 1.9378000000000029,0.20349999999999824 1.9341000000000008,0.19780000000000086 1.9234000000000009,0.1892999999999958 1.9241000000000028,0.18439999999999657 1.9281000000000006,0.1792999999999978 1.9248000000000012,0.17490000000000094 1.9276000000000018,0.17130000000000223 1.9245000000000019,0.16599999999999682 1.9338000000000015,0.15119999999999578 1.9289000000000023,0.1501000000000019 1.9288000000000025,0.14059999999999917 1.9341000000000008,0.13919999999999533 1.9361000000000033,0.13689999999999714 1.944700000000001,0.1372 1.9487000000000023,0.13459999999999894 1.9578000000000024,0.13409999999999656 1.9625000000000021,0.12720000000000198 1.9809000000000019,0.12189999999999657 1.9877000000000002,0.11650000000000205 1.9962000000000018,0.10040000000000049 2.0015,0.09759999999999991 2.0161000000000016,0.09799999999999898 2.0212000000000003,0.09539999999999793 2.014900000000001,0.0893999999999977 2.0137,0.08440000000000225 1.9475000000000016,0.08639999999999759 1.919900000000002,0.08559999999999945 1.9078000000000017,0.08279999999999887 1.8999000000000024,0.07779999999999632 1.8912000000000013,0.05870000000000175 1.8631000000000029,0.04339999999999833 1.8285000000000018,0.028599999999997294 1.7826000000000022,0.026499999999998636 1.7179000000000002,0.0362000000000009 1.7040000000000006,0.03410000000000224 1.6849000000000025,0.0257000000000005 1.6709000000000032,0.021999999999998465 1.6593000000000018,0.021299999999996544 1.648100000000003,0.02360000000000184 1.626100000000001,0.03159999999999741 1.6138000000000012,0.033099999999997465 1.6036000000000001,0.030400000000000205 1.581500000000002,0.021299999999996544 1.5534,0.018200000000000216 1.511800000000001,0.008099999999998886 1.460600000000003,0.0 1.4442000000000021,0.0007000000000019213 1.4146999999999998,0.007500000000000284 1.3851000000000013,0.00999999999999801 1.351300000000002,0.006700000000002149 1.3073000000000015,0.017899999999997362 1.2485,0.024200000000000443 1.2066000000000017,0.024399999999999977 1.1951,0.022999999999996135 1.168800000000001,0.014299999999998647 1.1343000000000032,0.02499999999999858 1.1280999999999999,0.024699999999995725 1.1098,0.01180000000000092 1.0755000000000017,0.009799999999998477 1.0644000000000027,0.00549999999999784 1.0517000000000003,0.006599999999998829 1.0350000000000001,0.012099999999996669 1.0274,0.012299999999996203 1.0135000000000005,0.009700000000002262 0.9700000000000024,0.011699999999997601 0.946200000000001,0.009000000000000341 0.9359999999999999,0.011899999999997135 0.929000000000002,0.01670000000000016 0.890500000000003,0.021599999999999397 0.8748000000000005,0.02769999999999584 0.8484000000000016,0.04619999999999891 0.8145000000000024,0.0630999999999986 "></polygon>
    </svg>
    