
    <svg width="11.718" height="8.738" xmlns="http://www.w3.org/2000/svg" xmlns:xlink="http://www.w3.org/1999/xlink" style="transform: scale(1, -1)">
        <polygon points="5.643799999999999,0.9032999999999998 5.646699999999999,0.9142000000000001 5.6434999999999995,0.9261999999999997 5.643799999999999,0.9333999999999998 5.646599999999999,0.9430000000000005 5.643699999999999,0.9561000000000002 5.6469999999999985,0.9648000000000003 5.6484999999999985,0.9843999999999999 5.651299999999999,0.9878 5.6541,1.0018000000000002 5.6539,1.0101000000000004 5.642299999999999,1.0229 5.641199999999998,1.0278999999999998 5.645199999999999,1.0366999999999997 5.656499999999998,1.0446 5.668899999999997,1.0563000000000002 5.6728999999999985,1.0680000000000005 5.668399999999998,1.0777 5.6556,1.0819 5.639299999999999,1.0807000000000002 5.632199999999997,1.0823 5.623799999999999,1.0944000000000003 5.6164999999999985,1.1018 5.610699999999998,1.1023000000000005 5.598099999999999,1.0922 5.593,1.0897000000000006 5.587299999999999,1.0898000000000003 5.581299999999999,1.0934999999999997 5.563799999999997,1.1203000000000003 5.5615999999999985,1.1277 5.556099999999997,1.1353 5.5478999999999985,1.1395 5.540799999999997,1.1400000000000006 5.528399999999998,1.1437999999999997 5.520699999999998,1.1507000000000005 5.508299999999998,1.1538000000000004 5.495999999999999,1.1658999999999997 5.488199999999999,1.1684 5.480599999999999,1.1684999999999999 5.471299999999999,1.1718000000000002 5.462799999999998,1.1799 5.459099999999999,1.1799 5.4497,1.1700999999999997 5.4435,1.1671000000000005 5.438199999999998,1.1677999999999997 5.431799999999999,1.1752000000000002 5.4217999999999975,1.1813000000000002 5.416699999999999,1.1814999999999998 5.4071,1.1779000000000002 5.4041,1.1786000000000003 5.401399999999999,1.1851000000000003 5.397499999999997,1.1854000000000005 5.378999999999998,1.1721000000000004 5.3725999999999985,1.1734999999999998 5.369,1.1855000000000002 5.3507,1.2043 5.342599999999997,1.2039 5.332599999999999,1.1904000000000003 5.323599999999999,1.1864 5.3165999999999976,1.1574999999999998 5.3233,1.1269 5.319699999999997,1.1203000000000003 5.319799999999997,1.1146000000000003 5.3172,1.1155999999999997 5.2882,1.0674000000000001 5.288899999999998,1.0606 5.285999999999998,1.0429000000000004 5.256799999999998,1.0023 5.247399999999999,0.9950000000000001 5.2353999999999985,0.9897999999999998 5.223099999999999,0.9880000000000004 5.2166,0.9811000000000005 5.195899999999998,0.9558999999999997 5.1906,0.9299999999999997 5.186399999999999,0.9203000000000001 5.169499999999999,0.9036 5.163499999999999,0.9001999999999999 5.1541,0.8973000000000004 5.143799999999999,0.8979999999999997 5.139199999999999,0.9031000000000002 5.134399999999999,0.9057000000000004 5.125699999999998,0.9050000000000002 5.116,0.9097999999999997 5.104899999999997,0.8965000000000005 5.101899999999997,0.8837999999999999 5.0626999999999995,0.8715999999999999 5.0471,0.8752000000000004 5.028599999999997,0.8901000000000003 4.9986999999999995,0.9207000000000001 4.987299999999998,0.9465000000000003 4.972999999999999,0.9493999999999998 4.9434000000000005,0.9457000000000004 4.9400999999999975,0.9470999999999998 4.9365999999999985,0.9499000000000004 4.9419,0.9684999999999997 4.936499999999999,0.9739000000000004 4.927599999999998,0.9739000000000004 4.916899999999998,0.9762000000000004 4.909099999999999,0.9798 4.9025,0.984 4.8828,1.0079000000000002 4.876199999999997,1.0097000000000005 4.848299999999998,1.0 4.843899999999998,1.0009000000000006 4.8368,0.9972000000000003 4.823499999999999,0.9942000000000002 4.795099999999998,0.9979000000000005 4.7804,0.9926000000000004 4.773,0.992 4.760399999999997,0.9964000000000004 4.750799999999998,0.9900000000000002 4.743399999999998,0.9927999999999999 4.730599999999999,1.0017000000000005 4.716899999999999,1.0068000000000001 4.714099999999998,1.0057 4.705399999999997,0.9958 4.693199999999997,0.9924 4.678099999999997,0.9927000000000001 4.669999999999998,0.9969000000000001 4.654499999999999,1.0094000000000003 4.651599999999998,1.0156999999999998 4.657599999999999,1.0276000000000005 4.653599999999997,1.0507 4.645799999999998,1.0575999999999999 4.634699999999999,1.0772000000000004 4.626199999999997,1.077 4.616299999999999,1.0700000000000003 4.6153999999999975,1.0671999999999997 4.607999999999997,1.0621999999999998 4.605699999999999,1.0583 4.599699999999999,1.056 4.569399999999998,1.0552000000000001 4.564699999999998,1.053 4.552399999999999,1.0187999999999997 4.550699999999999,0.9908000000000001 4.5383,0.9699999999999998 4.5273,0.9558999999999997 4.5135000000000005,0.9476000000000004 4.510299999999997,0.9386000000000001 4.4846,0.9337 4.474499999999999,0.9301000000000004 4.470399999999998,0.9312000000000005 4.4659999999999975,0.9354000000000005 4.453599999999998,0.9321999999999999 4.450199999999999,0.9333999999999998 4.443999999999999,0.9291999999999998 4.440299999999997,0.9229000000000003 4.4376,0.9065000000000003 4.430399999999999,0.8971999999999998 4.388099999999998,0.8943000000000003 4.372,0.8906000000000001 4.3598,0.8803000000000001 4.343,0.8409000000000004 4.336199999999998,0.8304 4.328499999999998,0.8222000000000005 4.312999999999999,0.8176000000000005 4.3017,0.8068 4.285999999999998,0.8028000000000004 4.262599999999999,0.8018000000000001 4.233499999999999,0.8185000000000002 4.215699999999998,0.8354999999999997 4.214199999999998,0.8433999999999999 4.211499999999997,0.8475999999999999 4.201599999999999,0.8567 4.186,0.8578000000000001 4.179599999999997,0.8550000000000004 4.169499999999999,0.8555000000000001 4.1647,0.8513000000000002 4.1373999999999995,0.8517999999999999 4.120699999999999,0.8464999999999998 4.113299999999999,0.8479000000000001 4.1035,0.8470000000000004 4.0867,0.8486000000000002 4.0794,0.8529999999999998 4.067,0.8563999999999998 4.048199999999998,0.8651999999999997 4.031499999999998,0.8864000000000001 4.023399999999999,0.8943000000000003 4.015599999999999,0.8986999999999998 3.9847,0.9085000000000001 3.9801,0.9129000000000005 3.978999999999999,0.9192999999999998 3.9878,0.9320000000000004 3.9908,0.9398 3.990599999999997,0.9446000000000003 3.9880999999999993,0.9495000000000005 3.9802999999999997,0.9550000000000001 3.9701999999999984,0.9504999999999999 3.9660999999999973,0.9516 3.9588,0.9594000000000005 3.9507999999999974,0.9558999999999997 3.933799999999998,0.9539999999999997 3.9248999999999974,0.9569999999999999 3.9147,0.9668999999999999 3.8870000000000005,0.9859999999999998 3.881999999999998,0.9958999999999998 3.880499999999998,1.0044000000000004 3.8752999999999993,1.0472000000000001 3.8764000000000003,1.0537 3.874399999999998,1.0571000000000002 3.8627000000000002,1.0652 3.8565000000000005,1.0667999999999997 3.8415999999999997,1.0655999999999999 3.8360999999999983,1.0678999999999998 3.828999999999997,1.0635000000000003 3.812199999999997,1.0670000000000002 3.801599999999997,1.0705999999999998 3.7922999999999973,1.0760000000000005 3.7814999999999976,1.0705999999999998 3.778299999999998,1.0629999999999997 3.774799999999999,1.0627000000000004 3.7674999999999983,1.0667 3.7164,1.0669000000000004 3.7108999999999988,1.069 3.7026000000000003,1.0766 3.6921,1.0921000000000003 3.6812000000000005,1.0937999999999999 3.680299999999999,1.1039000000000003 3.665399999999998,1.1062000000000003 3.6621999999999986,1.1099000000000006 3.658999999999999,1.1189 3.654399999999999,1.1199000000000003 3.641499999999997,1.1120999999999999 3.631899999999998,1.1161000000000003 3.628999999999998,1.1202000000000005 3.6300999999999988,1.1276000000000002 3.6351999999999975,1.1356000000000002 3.6341,1.1475999999999997 3.6240999999999985,1.1718000000000002 3.6229999999999976,1.1801000000000004 3.625,1.1852 3.639099999999999,1.2039999999999997 3.639099999999999,1.2123999999999997 3.6372999999999998,1.2279999999999998 3.6371,1.2731000000000003 3.6298999999999992,1.2887000000000004 3.6233000000000004,1.2946999999999997 3.619799999999998,1.2946 3.614099999999997,1.3044000000000002 3.6068,1.3097000000000003 3.5906999999999982,1.3100000000000005 3.5763,1.3045999999999998 3.561799999999998,1.3049 3.5534999999999997,1.314 3.548499999999997,1.3417000000000003 3.5504,1.3468999999999998 3.5426,1.3719000000000001 3.5382999999999996,1.3802000000000003 3.5321,1.3874000000000004 3.5055999999999976,1.4103000000000003 3.4926999999999992,1.4123999999999999 3.4496,1.4123 3.4421999999999997,1.4114000000000004 3.4284,1.4043999999999999 3.4161,1.4141000000000004 3.4064999999999976,1.4295 3.3984999999999985,1.4341999999999997 3.3867999999999974,1.4379 3.3809000000000005,1.4451 3.3737999999999992,1.4610000000000003 3.3740999999999985,1.4778000000000002 3.3673,1.4937000000000005 3.3627000000000002,1.4965000000000002 3.3493999999999993,1.5 3.345299999999998,1.5038999999999998 3.3393999999999977,1.5137999999999998 3.3323,1.5196000000000005 3.318299999999997,1.5272000000000006 3.3095999999999997,1.5373999999999999 3.3048,1.5468000000000002 3.3027999999999977,1.5549 3.3047000000000004,1.5837000000000003 3.3034,1.5907999999999998 3.296099999999999,1.6005000000000003 3.280999999999999,1.6077000000000004 3.253999999999998,1.6379000000000001 3.249699999999997,1.6620999999999997 3.244699999999998,1.6715999999999998 3.208099999999998,1.6959 3.204699999999999,1.7069 3.1982,1.7125000000000004 3.1718999999999973,1.7183000000000002 3.1489999999999974,1.7472000000000003 3.1458999999999975,1.7697000000000003 3.1408999999999985,1.7827000000000002 3.1305999999999976,1.7896 3.1233000000000004,1.7974000000000006 3.1092999999999975,1.8274 3.0969999999999978,1.8459000000000003 3.093899999999998,1.8661000000000003 3.1052,1.8760000000000003 3.1053999999999995,1.8803999999999998 3.0879999999999974,1.9000000000000004 3.0822000000000003,1.9291999999999998 3.081299999999999,1.9458000000000002 3.0863999999999976,1.9683000000000002 3.099899999999998,1.9981999999999998 3.1066000000000003,2.0258000000000003 3.1245999999999974,2.0492 3.126899999999999,2.0568 3.125399999999999,2.0692000000000004 3.1198999999999977,2.0853 3.122899999999998,2.0909000000000004 3.131899999999998,2.1000000000000005 3.131499999999999,2.106 3.1169999999999973,2.1162 3.1076999999999977,2.1193999999999997 3.1032999999999973,2.1188000000000002 3.0935999999999986,2.1112 3.089699999999997,2.1052 3.0859999999999985,2.1078 3.0844999999999985,2.1234 3.0784999999999982,2.1296999999999997 3.0833999999999975,2.1382000000000003 3.085699999999999,2.1462000000000003 3.0853,2.1623 3.0761000000000003,2.1738999999999997 3.064899999999998,2.1826 3.0608000000000004,2.1891 3.066399999999998,2.2010000000000005 3.0656999999999996,2.2068000000000003 3.0364000000000004,2.2465 2.9987999999999992,2.2629 2.9930999999999983,2.2682 2.991699999999998,2.2717 3.005499999999998,2.2746000000000004 3.0120000000000005,2.2805999999999997 3.008499999999998,2.2864000000000004 3.001199999999997,2.2908 2.995199999999997,2.2917000000000005 2.982599999999998,2.2899000000000003 2.9785000000000004,2.2965999999999998 2.9680999999999997,2.2943 2.967299999999998,2.3118 2.9558,2.3056 2.953999999999997,2.3188000000000004 2.9518999999999984,2.3197 2.939499999999999,2.3193 2.9282000000000004,2.3161000000000005 2.9201999999999977,2.3053 2.909799999999997,2.3134000000000006 2.9049999999999976,2.3134000000000006 2.8989999999999974,2.3093000000000004 2.8947000000000003,2.3139000000000003 2.8958999999999975,2.3275000000000006 2.875899999999998,2.3321000000000005 2.870899999999999,2.3395 2.8736999999999995,2.3565000000000005 2.864099999999997,2.3674 2.8507999999999996,2.3757 2.844999999999999,2.3773 2.8325999999999993,2.3764000000000003 2.8111999999999995,2.3662 2.806899999999999,2.3669000000000002 2.796599999999998,2.3768000000000002 2.7819000000000003,2.3837 2.7765999999999984,2.3890000000000002 2.7749999999999986,2.4008000000000003 2.7704999999999984,2.4091000000000005 2.7639999999999993,2.4125000000000005 2.752799999999997,2.4137000000000004 2.7394,2.4112 2.7212999999999994,2.4013999999999998 2.6995000000000005,2.4077 2.690299999999997,2.4118000000000004 2.6831999999999994,2.4177999999999997 2.681099999999997,2.4229000000000003 2.6809999999999974,2.4581 2.676499999999997,2.4811000000000005 2.6672999999999973,2.4998000000000005 2.6586,2.5065 2.6538000000000004,2.5067000000000004 2.6503999999999976,2.5021000000000004 2.6473999999999975,2.5026 2.640699999999999,2.5125 2.630799999999997,2.516 2.6174999999999997,2.5177000000000005 2.599899999999998,2.5322000000000005 2.5914,2.5334000000000003 2.5844999999999985,2.5302 2.5793999999999997,2.5256 2.567899999999998,2.5248999999999997 2.552299999999999,2.5360000000000005 2.5433999999999983,2.5385999999999997 2.5315999999999974,2.5379000000000005 2.5153,2.5255 2.5105000000000004,2.5232 2.5031,2.524 2.4831000000000003,2.5353000000000003 2.4681999999999995,2.5358 2.458099999999998,2.5469 2.4534999999999982,2.5488999999999997 2.4283,2.5456000000000003 2.408299999999997,2.5523 2.4023000000000003,2.5654000000000003 2.400299999999998,2.5758 2.3918,2.5792 2.3872,2.5829000000000004 2.3848999999999982,2.5901000000000005 2.386099999999999,2.6009 2.3805999999999976,2.6080000000000005 2.3796999999999997,2.6204 2.372399999999999,2.6241000000000003 2.367099999999997,2.6345 2.3454999999999977,2.6277 2.334699999999998,2.6216999999999997 2.3141999999999996,2.6001000000000003 2.308399999999999,2.5967000000000002 2.303799999999999,2.5983 2.299299999999999,2.6048 2.2986000000000004,2.6218000000000004 2.307199999999998,2.6427000000000005 2.3142999999999994,2.6491 2.3310999999999993,2.6571 2.3476999999999997,2.6679000000000004 2.3577999999999975,2.6769 2.3720999999999997,2.6959 2.3817999999999984,2.7136000000000005 2.383499999999998,2.7340999999999998 2.3806999999999974,2.7391000000000005 2.3751999999999995,2.7437000000000005 2.3658,2.7454 2.357099999999999,2.7436 2.3444000000000003,2.7353000000000005 2.3368,2.7335000000000003 2.3287999999999975,2.7395000000000005 2.3234999999999992,2.7471000000000005 2.320599999999999,2.7561 2.3236999999999988,2.7963000000000005 2.3142999999999994,2.8032000000000004 2.303699999999999,2.8049 2.295399999999997,2.8084 2.2917999999999985,2.8137 2.2852999999999994,2.8185000000000002 2.244699999999998,2.8247999999999998 2.2326999999999977,2.8312999999999997 2.2099999999999973,2.8594 2.1916999999999973,2.8760000000000003 2.1824999999999974,2.8806000000000003 2.1459999999999972,2.9067 2.1417,2.912 2.1420999999999992,2.9210000000000003 2.1464999999999996,2.9283 2.161999999999999,2.9417999999999997 2.1637999999999984,2.9487000000000005 2.149799999999999,2.9573 2.148699999999998,2.96 2.1550999999999974,2.9711 2.1564999999999976,2.9787 2.151699999999998,2.9844 2.1432,2.9796000000000005 2.138099999999998,2.9789000000000003 2.1346999999999987,2.9815000000000005 2.1411999999999978,3.0054 2.145299999999999,3.0129 2.1712999999999987,3.0126999999999997 2.174999999999997,3.0170000000000003 2.174999999999997,3.0228 2.168599999999998,3.0313 2.1754999999999995,3.0389 2.178799999999999,3.0522 2.1840999999999973,3.0591 2.1941999999999986,3.0650000000000004 2.197899999999997,3.0692000000000004 2.197499999999998,3.0749000000000004 2.2010000000000005,3.0942 2.2058,3.0983 2.2250999999999976,3.0955000000000004 2.229899999999997,3.0978000000000003 2.2286,3.1066000000000003 2.2297999999999973,3.1139 2.2354999999999983,3.1204 2.251899999999999,3.1307 2.2582999999999984,3.1428000000000003 2.2631999999999977,3.1564000000000005 2.2624999999999993,3.1628 2.2551999999999985,3.1709000000000005 2.2395999999999994,3.1748000000000003 2.2303999999999995,3.1824000000000003 2.220799999999997,3.1955999999999998 2.2056000000000004,3.208 2.1972999999999985,3.2096999999999998 2.183299999999999,3.2085 2.178699999999999,3.2096999999999998 2.1701999999999977,3.2175000000000002 2.161999999999999,3.2222 2.132299999999997,3.2215 2.1203000000000003,3.2232000000000003 2.1108999999999973,3.2279999999999998 2.1069999999999993,3.2381 2.107499999999998,3.2485 2.105699999999999,3.2531 2.0884,3.2587 2.0725999999999978,3.261 2.0642999999999994,3.2601000000000004 2.055299999999999,3.2663 2.057699999999997,3.2739000000000003 2.0564999999999998,3.2819000000000003 2.051199999999998,3.2875000000000005 2.024799999999999,3.3049999999999997 2.021799999999999,3.3089000000000004 2.0275999999999996,3.3197 2.0244,3.3268000000000004 2.015699999999999,3.3322000000000003 2.0052999999999983,3.3315 1.9627999999999979,3.3343 1.9527,3.3429 1.9416999999999973,3.3575999999999997 1.9336999999999982,3.3731999999999998 1.9329999999999998,3.3845 1.937899999999999,3.4112 1.9371999999999971,3.4231 1.9334999999999987,3.4273 1.9254999999999995,3.4206000000000003 1.9199999999999982,3.4186000000000005 1.9160000000000004,3.4196999999999997 1.9086999999999996,3.4294000000000002 1.9107999999999983,3.4427000000000003 1.8963,3.4411000000000005 1.8889999999999993,3.4440999999999997 1.8891999999999989,3.4508 1.9029999999999987,3.4638999999999998 1.8932000000000002,3.4844 1.8933999999999997,3.4882999999999997 1.902199999999997,3.5042999999999997 1.902199999999997,3.5133 1.8966999999999992,3.5195 1.8787999999999982,3.5265000000000004 1.8557999999999986,3.5279 1.8337000000000003,3.5259 1.8278999999999996,3.5309 1.827499999999997,3.5378 1.8315999999999981,3.5472 1.8309999999999995,3.5523 1.8258999999999972,3.556 1.7774,3.5610999999999997 1.7718999999999987,3.5657000000000005 1.772599999999997,3.5731 1.7709999999999972,3.5777 1.7476999999999983,3.5807 1.7422000000000004,3.5846 1.7433999999999976,3.5907999999999998 1.7532999999999994,3.5991 1.7546999999999997,3.6021 1.7493999999999978,3.6075999999999997 1.7415999999999983,3.6092000000000004 1.7371999999999979,3.6159 1.723399999999998,3.6159 1.7109999999999985,3.6261 1.682699999999997,3.6266 1.6789999999999985,3.6287000000000003 1.6649999999999991,3.6298000000000004 1.6596999999999973,3.6337 1.6707999999999998,3.6466000000000003 1.6728999999999985,3.6611000000000002 1.6722000000000001,3.6635999999999997 1.6662,3.6682000000000006 1.6530999999999985,3.6719 1.6215999999999973,3.6738 1.6112000000000002,3.6770000000000005 1.5992999999999995,3.678 1.5990000000000002,3.6931000000000003 1.5895999999999972,3.6968000000000005 1.5769999999999982,3.6959 1.5679999999999978,3.6886 1.5619999999999976,3.6927000000000003 1.5536999999999992,3.7093 1.5487000000000002,3.7123 1.5381,3.7157999999999998 1.5309999999999988,3.7114000000000003 1.5213,3.7112 1.5135000000000005,3.713 1.5030999999999999,3.7190000000000003 1.4959999999999987,3.7305 1.479899999999997,3.7302999999999997 1.465399999999999,3.7379 1.452499999999997,3.7350000000000003 1.4460999999999977,3.7377000000000002 1.4436,3.7420999999999998 1.443999999999999,3.7545 1.4364999999999988,3.7596 1.431799999999999,3.7577 1.4269999999999996,3.7472000000000003 1.4170999999999978,3.752 1.4152999999999984,3.7552000000000003 1.4190000000000005,3.769 1.4131999999999998,3.7746000000000004 1.4065999999999974,3.7775 1.401299999999999,3.7755 1.3974999999999973,3.7709 1.3922999999999988,3.7755 1.3826,3.7927999999999997 1.3745999999999974,3.7960000000000003 1.3699999999999974,3.7935 1.3584999999999994,3.7978000000000005 1.357999999999997,3.7903000000000002 1.3547999999999973,3.7868000000000004 1.3471999999999973,3.7864000000000004 1.3450999999999986,3.7877 1.3439999999999976,3.7926 1.340799999999998,3.7953 1.3314999999999984,3.7880000000000003 1.325599999999998,3.7882 1.3218999999999994,3.7979000000000003 1.3172999999999995,3.7990000000000004 1.313399999999998,3.8062000000000005 1.3105999999999973,3.8071 1.3009999999999984,3.8021000000000003 1.299599999999998,3.8072999999999997 1.303099999999997,3.8211000000000004 1.2997999999999976,3.8253000000000004 1.2947999999999986,3.8264000000000005 1.2859999999999978,3.8218000000000005 1.279799999999998,3.8315 1.2733999999999988,3.8375000000000004 1.2521999999999984,3.8517 1.2485,3.8501000000000003 1.243199999999998,3.8437 1.2374999999999972,3.843 1.225999999999999,3.8596000000000004 1.214299999999998,3.8601 1.2091999999999992,3.8635 1.2015999999999991,3.8771000000000004 1.2001999999999988,3.8851000000000004 1.1953999999999994,3.8955 1.194499999999998,3.901 1.197499999999998,3.9097 1.184199999999997,3.9293000000000005 1.1846999999999994,3.9408000000000003 1.1717999999999975,3.9459999999999997 1.1655999999999977,3.9424 1.1581999999999972,3.9417 1.1549999999999976,3.9472000000000005 1.1549999999999976,3.9541000000000004 1.1450999999999993,3.9608 1.139599999999998,3.9707 1.131499999999999,3.9716000000000005 1.1307999999999971,3.9739000000000004 1.1355000000000004,3.9798999999999998 1.1344999999999992,3.9824 1.1275999999999975,3.9842000000000004 1.1236999999999995,3.9943999999999997 1.1183999999999976,3.9865000000000004 1.0999999999999979,3.9916 1.0869,3.9912 1.0823,3.9930000000000003 1.0745000000000005,4.0031 1.0629999999999988,4.0061 1.0585999999999984,4.0038 1.0544999999999973,4.0041 1.048499999999997,4.008 1.0438999999999972,4.0156 1.0479999999999983,4.0254 1.045499999999997,4.0551 1.0351999999999997,4.0801 1.0220999999999982,4.0886000000000005 1.0212000000000003,4.0923 1.0234999999999985,4.0983 1.0326999999999984,4.1017 1.0370999999999988,4.1102 1.0528999999999975,4.113 1.0586999999999982,4.1166 1.0619999999999976,4.1231 1.0624000000000002,4.1286000000000005 1.0676999999999985,4.1306 1.0798999999999985,4.1295 1.0849999999999973,4.1398 1.0932999999999993,4.1432 1.1045999999999978,4.1403 1.1144999999999996,4.1483 1.1358999999999995,4.1579 1.139999999999997,4.163 1.1402999999999999,4.1698 1.1347999999999985,4.1761 1.1371000000000002,4.1816 1.1485999999999983,4.1806 1.1529999999999987,4.1843 1.1533999999999978,4.1914 1.149799999999999,4.196 1.1437999999999988,4.1999 1.1405999999999992,4.199 1.1372999999999998,4.202 1.1357,4.211 1.1283999999999992,4.2170000000000005 1.1283999999999992,4.2232 1.1347999999999985,4.2326 1.129299999999997,4.2436 1.136499999999998,4.2502 1.1412999999999975,4.2647 1.1405999999999992,4.2748 1.1348999999999982,4.3005 1.1404999999999994,4.3113 1.1376999999999988,4.3187 1.1326,4.3226 1.1264000000000003,4.3159 1.1199999999999974,4.3155 1.1150999999999982,4.3185 1.1146999999999991,4.3316 1.108699999999999,4.3357 1.0992999999999995,4.3541 1.0778999999999996,4.3757 1.078999999999997,4.3867 1.0766999999999989,4.3883 1.0614999999999988,4.3861 1.0539999999999985,4.3969000000000005 1.0414999999999992,4.4072000000000005 1.0375999999999976,4.4146 1.0281999999999982,4.4219 1.0154999999999994,4.418 0.9956999999999994,4.4183 0.9876000000000005,4.4137 0.9650999999999996,4.4109 0.9484999999999992,4.4034 0.9412999999999982,4.4027 0.9355999999999973,4.4075 0.9242999999999988,4.4294 0.9068000000000005,4.4464 0.853399999999997,4.4804 0.8460000000000001,4.4831 0.8197999999999972,4.5027 0.8140999999999998,4.5139000000000005 0.8139000000000003,4.519 0.8042999999999978,4.536200000000001 0.7902999999999984,4.550599999999999 0.7682000000000002,4.563000000000001 0.7576,4.5662 0.753899999999998,4.570600000000001 0.7501999999999995,4.581799999999999 0.7424,4.638300000000001 0.7367999999999988,4.656600000000001 0.7261999999999986,4.666500000000001 0.7127999999999979,4.6995000000000005 0.7012999999999998,4.7027 0.6939999999999991,4.696 0.6799,4.7097999999999995 0.6531999999999982,4.7102 0.6510999999999996,4.708 0.627399999999998,4.700800000000001 0.6185999999999972,4.7036 0.6093999999999973,4.7026 0.6043999999999983,4.7058 0.5969999999999978,4.7217 0.5877999999999979,4.7279 0.5777999999999999,4.7288 0.5621999999999971,4.7255 0.5503999999999998,4.7258 0.5366,4.731300000000001 0.5298999999999978,4.7386 0.5162999999999975,4.7425 0.4950999999999972,4.7452000000000005 0.46999999999999886,4.742000000000001 0.41659999999999897,4.7226 0.4087999999999994,4.7219 0.40209999999999724,4.7233 0.364099999999997,4.742000000000001 0.35919999999999774,4.7471 0.35549999999999926,4.7553 0.35139999999999816,4.7578 0.3414999999999999,4.7567 0.33889999999999887,4.759600000000001 0.3268999999999984,4.7913 0.323599999999999,4.7943 0.3097999999999992,4.7917000000000005 0.28749999999999787,4.7949 0.27890000000000015,4.800599999999999 0.2727000000000004,4.8012999999999995 0.26229999999999976,4.7997 0.2575000000000003,4.7943999999999996 0.22619999999999862,4.7768999999999995 0.2195999999999998,4.7704 0.20849999999999724,4.770899999999999 0.19769999999999754,4.775399999999999 0.19139999999999802,4.785500000000001 0.18659999999999854,4.790100000000001 0.17199999999999704,4.7898 0.148299999999999,4.7844999999999995 0.11969999999999814,4.793100000000001 0.10309999999999775,4.8011 0.08419999999999916,4.804500000000001 0.07039999999999935,4.8123000000000005 0.06550000000000011,4.816800000000001 0.0517000000000003,4.823 0.04749999999999943,4.831200000000001 0.028299999999997993,4.8523 0.023699999999998056,4.864000000000001 0.008899999999997021,4.8773 0.0015000000000000568,4.8889 0.0,4.906600000000001 0.0030000000000001137,4.911899999999999 0.009199999999999875,4.9351 0.00999999999999801,4.9514 0.012999999999998124,4.9663 0.011599999999997834,4.9817 0.019299999999997652,5.000500000000001 0.03999999999999915,5.0192 0.05059999999999931,5.034599999999999 0.051899999999999835,5.039 0.05489999999999995,5.0405999999999995 0.055399999999998784,5.0440000000000005 0.08139999999999858,5.0748 0.1039999999999992,5.097900000000001 0.11659999999999826,5.1052 0.11779999999999902,5.1076999999999995 0.11129999999999995,5.1164000000000005 0.1001999999999974,5.125500000000001 0.09229999999999805,5.129300000000001 0.0843999999999987,5.138400000000001 0.08019999999999783,5.1508 0.08070000000000022,5.1556 0.08569999999999922,5.1671 0.10589999999999833,5.1981 0.2113999999999976,5.289 0.2469999999999999,5.3085 0.3461999999999996,5.356999999999999 0.3634999999999984,5.375 0.39059999999999917,5.4206 0.4084000000000003,5.4313 0.42799999999999727,5.4544 0.4328000000000003,5.4846 0.4029999999999987,5.584300000000001 0.42719999999999914,5.6998999999999995 0.4516999999999989,5.7849 0.48019999999999996,5.836399999999999 0.46559999999999846,5.878 0.46399999999999864,5.902699999999999 0.4972999999999992,5.9262999999999995 0.5506999999999991,5.9703 0.5921999999999983,5.9977 0.6142000000000003,6.0464 0.6138999999999974,6.092700000000001 0.603399999999997,6.129300000000001 0.6030999999999977,6.2172 0.5909999999999975,6.247400000000001 0.5913000000000004,6.251799999999999 0.6030999999999977,6.258000000000001 0.6170999999999971,6.279999999999999 0.6240999999999985,6.292999999999999 0.6290999999999976,6.313000000000001 0.6390999999999991,6.327 0.6390999999999991,6.334 0.6431000000000004,6.343 0.6520999999999972,6.349 0.6640999999999977,6.349 0.6751000000000005,6.351000000000001 0.6920999999999999,6.359999999999999 0.7150999999999996,6.378 0.7220999999999975,6.386000000000001 0.7480999999999973,6.401 0.7730999999999995,6.417999999999999 0.7800999999999974,6.4239999999999995 0.7860999999999976,6.433 0.7890999999999977,6.443 0.7941000000000003,6.452 0.8001000000000005,6.460000000000001 0.8150999999999975,6.473000000000001 0.8210999999999977,6.481999999999999 0.8300999999999981,6.5 0.8460999999999999,6.550000000000001 0.8521000000000001,6.558999999999999 0.859099999999998,6.566000000000001 0.864099999999997,6.574999999999999 0.8750999999999998,6.604000000000001 0.8770999999999987,6.617000000000001 0.8750999999999998,6.628 0.8620999999999981,6.656000000000001 0.8600999999999992,6.68 0.8620999999999981,6.692 0.8780999999999999,6.718 0.8800999999999988,6.731 0.8841000000000001,6.742000000000001 0.9020999999999972,6.7669999999999995 0.9131,6.797000000000001 0.9190000000000005,6.804399999999999 0.9270999999999994,6.811 0.9780999999999977,6.827999999999999 0.9910999999999994,6.824999999999999 1.0050999999999988,6.824999999999999 1.016099999999998,6.827 1.0351,6.835000000000001 1.0460999999999991,6.837 1.0570999999999984,6.833 1.0671,6.835000000000001 1.0740999999999978,6.840999999999999 1.0860999999999983,6.843 1.0991,6.84 1.1200999999999972,6.8309999999999995 1.1330999999999989,6.83 1.1420999999999992,6.834 1.1530999999999985,6.836 1.1631,6.834 1.1751000000000005,6.835000000000001 1.1930999999999976,6.845000000000001 1.229099999999999,6.848000000000001 1.239099999999997,6.851000000000001 1.2480999999999973,6.856999999999999 1.2800999999999974,6.864000000000001 1.293099999999999,6.865 1.3210999999999977,6.862 1.3330999999999982,6.8629999999999995 1.3841,6.877000000000001 1.4221000000000004,6.8919999999999995 1.4760999999999989,6.906000000000001 1.4960999999999984,6.904999999999999 1.5091,6.906000000000001 1.5320999999999998,6.909000000000001 1.5420999999999978,6.913 1.553099999999997,6.915000000000001 1.6000999999999976,6.913 1.612099999999998,6.914 1.6270999999999987,6.926 1.670099999999998,6.938000000000001 1.6870999999999974,6.938000000000001 1.697099999999999,6.942 1.7011000000000003,6.942 1.7350999999999992,6.931000000000001 1.7540999999999976,6.922000000000001 1.771099999999997,6.897 1.7790999999999997,6.8919999999999995 1.7761999999999993,6.6913 1.823599999999999,6.678000000000001 1.8913999999999973,6.635 1.9192999999999998,6.594100000000001 1.9361999999999995,6.553000000000001 2.0625999999999998,6.429 2.1403999999999996,6.181800000000001 2.217399999999998,6.0899 2.490199999999998,6.007099999999999 2.5677999999999983,6.0013000000000005 2.874399999999998,6.1088000000000005 2.971499999999999,6.128 3.136599999999998,6.136699999999999 3.248199999999997,6.129900000000001 3.5006999999999984,6.127000000000001 3.6371,6.1112 3.7480999999999973,6.122300000000001 3.8820999999999977,5.8536 4.607199999999999,5.8561 4.5962,5.9087 4.641399999999997,5.988300000000001 4.677299999999999,6.0221 4.774799999999999,6.1068 4.857899999999997,6.209200000000001 4.870099999999997,6.2326 4.915899999999997,6.248100000000001 5.370099999999997,6.257099999999999 5.368499999999997,6.5886 5.726399999999998,6.7737 5.761899999999997,6.8133 5.789999999999999,6.8065999999999995 5.844899999999999,6.8078 5.9117999999999995,6.767900000000001 6.121699999999997,6.6362000000000005 6.283799999999999,6.537800000000001 6.450499999999998,6.4429 6.6144,6.288500000000001 6.640999999999998,6.2675 6.6373,6.2676 6.679399999999998,6.2303 6.752399999999998,6.262600000000001 7.116799999999998,6.2623999999999995 7.170199999999998,6.279 7.1968,6.2921 7.395999999999997,6.542199999999999 7.6507000000000005,6.8263 7.692999999999998,6.883800000000001 7.844899999999999,7.148899999999999 8.008999999999997,7.250299999999999 8.320800000000002,7.546900000000001 8.263299999999997,7.6425 8.244399999999995,7.7157 8.241199999999996,8.2125 8.022499999999997,8.4244 8.572099999999995,8.425 8.5701,8.431000000000001 8.568099999999998,8.456 8.5701,8.467 8.5851,8.501 8.590099999999996,8.51 8.594100000000001,8.514 8.595099999999999,8.540000000000001 8.597799999999996,8.5532 8.595099999999999,8.559 8.594100000000001,8.571 8.580099999999998,8.605 8.578099999999996,8.622 8.5761,8.627 8.5731,8.651 8.5731,8.671 8.578099999999996,8.701 8.578099999999996,8.721 8.572099999999995,8.738 9.1033,8.7202 9.154099999999996,8.7218 9.108299999999996,8.666500000000001 9.079199999999997,8.5029 9.0455,8.2613 8.986499999999996,8.1023 9.1542,7.3346 9.094999999999995,7.2294 9.326800000000002,7.1541 9.512399999999996,6.935499999999999 9.633,6.8515999999999995 9.7283,6.685700000000001 9.799899999999997,6.6852 9.806699999999996,6.6607 9.816100000000002,6.643000000000001 9.811399999999995,6.610100000000001 9.827499999999997,6.545 9.8336,6.5351 9.8306,6.4793 9.836000000000002,6.4483999999999995 9.800799999999999,6.3102 9.7649,6.2591 9.748899999999995,6.2051 9.730999999999998,6.159700000000001 9.727999999999998,6.107200000000001 9.7392,6.055300000000001 9.739900000000002,6.0038 9.952299999999997,6.0067 9.956599999999998,5.9275 9.965099999999996,5.863099999999999 9.970200000000002,5.7759 9.982800000000001,5.690799999999999 9.991699999999998,5.518599999999999 9.992799999999999,5.481199999999999 9.988699999999998,5.43 9.9896,5.328799999999999 9.987599999999997,5.290100000000001 9.989699999999996,5.255000000000001 9.988199999999996,5.242000000000001 9.9892,5.2208000000000006 9.9926,5.1888000000000005 9.989699999999996,5.170999999999999 9.990199999999998,5.129900000000001 9.9693,5.094100000000001 9.944500000000001,5.069000000000001 9.929399999999998,5.0678 9.918600000000001,5.0611 9.909400000000002,5.0502 9.881199999999996,5.029400000000001 9.875499999999999,5.015499999999999 9.868500000000001,5.0077 9.8631,5.0059000000000005 9.848600000000001,5.011900000000001 9.839499999999997,5.0069 9.833400000000001,5.0077 9.8203,5.0174 9.804399999999998,5.0114 9.7942,5.0167 9.783599999999996,5.0139 9.773399999999999,5.0059000000000005 9.746399999999998,4.999600000000001 9.7411,4.9922 9.736999999999998,4.981300000000001 9.729600000000001,4.9792000000000005 9.729600000000001,4.972300000000001 9.723099999999999,4.964499999999999 9.7253,4.955400000000001 9.7133,4.9543 9.700199999999999,4.9505 9.688399999999998,4.9498 9.685500000000001,4.9449000000000005 9.675299999999996,4.9392 9.668800000000001,4.9253 9.661799999999996,4.918800000000001 9.6557,4.913500000000001 9.647499999999997,4.9131 9.6206,4.8886 9.603399999999997,4.890600000000001 9.5975,4.8939 9.585799999999995,4.884500000000001 9.573599999999995,4.882899999999999 9.564600000000002,4.884500000000001 9.557799999999997,4.8895 9.5487,4.891400000000001 9.542399999999997,4.8984000000000005 9.540099999999999,4.9106000000000005 9.536799999999996,4.9184 9.531099999999999,4.924900000000001 9.526,4.9488 9.528200000000002,4.9596 9.497199999999996,4.976800000000001 9.468099999999996,4.9876000000000005 9.458400000000001,4.980499999999999 9.4455,4.965400000000001 9.423999999999996,4.9663 9.416799999999999,4.9727 9.41,4.9872 9.404499999999995,4.988200000000001 9.389799999999997,4.986599999999999 9.381699999999999,4.9878 9.372899999999998,4.9864 9.3676,4.986599999999999 9.359100000000002,4.99 9.3462,4.9899000000000004 9.3372,4.9879999999999995 9.3308,4.9757 9.3229,4.971400000000001 9.308699999999998,4.968299999999999 9.295999999999996,4.9566 9.285599999999999,4.9587 9.271899999999999,4.965400000000001 9.259699999999999,4.9581 9.243500000000001,4.942500000000001 9.235299999999999,4.944100000000001 9.2287,4.950699999999999 9.220600000000001,4.9498999999999995 9.215,4.960000000000001 9.208899999999996,4.959099999999999 9.197599999999998,4.964 9.1829,4.962300000000001 9.168600000000001,4.968 9.161999999999995,4.9785 9.153299999999998,4.974399999999999 9.147699999999997,4.960700000000001 9.143799999999995,4.9557 9.136999999999997,4.955500000000001 9.122600000000002,4.9716000000000005 9.096700000000002,4.963000000000001 9.094899999999999,4.9544 9.082199999999997,4.941800000000001 9.065299999999997,4.9514 9.062899999999996,4.946 9.065000000000001,4.9337 9.064600000000002,4.927 9.056099999999997,4.924200000000001 9.0408,4.9259 9.037899999999997,4.9208 9.043099999999999,4.9108 9.037899999999997,4.9055 9.037200000000002,4.898899999999999 9.041499999999996,4.8702000000000005 9.048300000000001,4.868600000000001 9.064600000000002,4.8743 9.062899999999996,4.860900000000001 9.058699999999998,4.853899999999999 9.052699999999998,4.852 9.040099999999999,4.8519000000000005 9.041299999999996,4.8453 9.0491,4.8317 9.049800000000001,4.824999999999999 9.043099999999999,4.8169 9.0181,4.8149999999999995 9.023900000000001,4.802899999999999 9.0211,4.7822 9.023700000000002,4.7735 9.028299999999998,4.767100000000001 9.037400000000002,4.768000000000001 9.046299999999999,4.7666 9.050699999999996,4.752800000000001 9.044799999999999,4.737 9.038700000000002,4.729699999999999 9.023299999999995,4.721299999999999 9.013899999999996,4.7136 9.015199999999997,4.7067 9.020799999999998,4.7071000000000005 9.025000000000002,4.6853 9.0322,4.6792 9.032099999999996,4.6639 9.037499999999998,4.653499999999999 9.034299999999998,4.6426 9.020900000000001,4.6462 9.014500000000002,4.6419999999999995 9.011399999999998,4.633100000000001 9.006800000000002,4.6296 8.984599999999997,4.6312999999999995 8.968099999999996,4.6258 8.964899999999997,4.619400000000001 8.964499999999997,4.606 8.9667,4.581799999999999 8.959500000000002,4.590400000000001 8.9526,4.5945 8.933800000000002,4.594100000000001 8.931499999999996,4.588900000000001 8.9348,4.5801 8.9269,4.572800000000001 8.928900000000002,4.5669 8.9256,4.543699999999999 8.921299999999999,4.5390999999999995 8.906899999999997,4.533200000000001 8.894400000000001,4.5336 8.8845,4.523899999999999 8.878600000000002,4.5095 8.884399999999996,4.4933000000000005 8.876499999999997,4.4799 8.857199999999995,4.4675 8.850199999999997,4.4591 8.853100000000001,4.4454 8.850199999999997,4.4348 8.852499999999996,4.425 8.861799999999999,4.4076 8.852,4.404100000000001 8.849599999999999,4.3983 8.858299999999996,4.3769 8.884899999999998,4.3387 8.892399999999999,4.3307 8.8933,4.3208 8.8982,4.3063 8.904599999999999,4.3101 8.910299999999996,4.305 8.921199999999995,4.3101 8.9327,4.3114 8.936499999999999,4.319 8.9434,4.315 8.953099999999996,4.3063 8.949899999999996,4.299300000000001 8.956900000000001,4.298 8.9631,4.3034 8.9712,4.3023 8.981599999999997,4.3069 8.985699999999998,4.3031 8.993300000000001,4.3089 9.0042,4.3108 9.005300000000002,4.3161000000000005 9.013499999999997,4.3144 9.032,4.3028 9.0476,4.2982000000000005 9.065000000000001,4.2901 9.072500000000002,4.2884 9.086400000000001,4.2924 9.095699999999997,4.2826 9.1294,4.2605 9.1431,4.2646 9.140399999999996,4.2537 9.1476,4.2588 9.151799999999998,4.2526 9.151500000000002,4.2443 9.1634,4.2403 9.167399999999997,4.2311000000000005 9.168299999999999,4.2252 9.1906,4.2303 9.199499999999997,4.2424 9.207799999999995,4.2386 9.222399999999997,4.2490000000000006 9.238600000000002,4.2467 9.255399999999998,4.2536000000000005 9.264700000000001,4.2594 9.272299999999998,4.267 9.279700000000002,4.2704 9.2959,4.2588 9.309299999999997,4.2601 9.3124,4.2659 9.321499999999997,4.2629 9.3387,4.2495 9.348299999999998,4.2539 9.3509,4.2463 9.362999999999996,4.2507 9.388499999999997,4.222700000000001 9.398099999999996,4.2207 9.4104,4.2127 9.428299999999997,4.2056000000000004 9.434000000000001,4.216 9.447300000000002,4.2246 9.460599999999996,4.2208000000000006 9.4708,4.2268 9.4783,4.2195 9.484399999999997,4.2107 9.5125,4.2096 9.520399999999999,4.2112 9.5318,4.2010000000000005 9.529799999999998,4.1925 9.538299999999996,4.1882 9.542399999999997,4.179 9.560399999999998,4.1755 9.568000000000001,4.1704 9.581099999999996,4.1588 9.584999999999997,4.1466 9.600599999999996,4.1355 9.6174,4.1304 9.625899999999998,4.1228 9.641200000000001,4.1236 9.681999999999999,4.0871 9.688500000000001,4.077500000000001 9.7041,4.0607 9.719399999999997,4.0369 9.735499999999998,4.031 9.751699999999996,4.0369 9.774599999999996,4.031 9.7957,4.0213 9.791599999999999,4.0114 9.791099999999997,4.0002 9.793299999999999,3.987 9.8047,3.9821999999999997 9.805800000000001,3.9663000000000004 9.832799999999995,3.9552000000000005 9.840299999999996,3.9430000000000005 9.8462,3.9374000000000002 9.860600000000002,3.9115 9.876899999999996,3.8886000000000003 9.8813,3.873 9.878699999999998,3.8555 9.879499999999997,3.8346 9.883199999999999,3.8128 9.8809,3.7943 9.874999999999996,3.785 9.8584,3.7887000000000004 9.8599,3.7786999999999997 9.8672,3.7683999999999997 9.882099999999998,3.7542999999999997 9.892,3.7401999999999997 9.902399999999997,3.7395000000000005 9.924600000000002,3.7291 9.940099999999997,3.7155000000000005 9.947199999999999,3.7047 9.947199999999999,3.6984000000000004 9.976600000000001,3.6942000000000004 9.992999999999999,3.6752000000000002 10.013699999999996,3.6755000000000004 10.040499999999998,3.6566 10.041299999999996,3.5739 10.063599999999997,3.5652999999999997 10.080200000000001,3.5345000000000004 10.1037,3.5406000000000004 10.135000000000002,3.5158000000000005 10.1707,3.4926000000000004 10.207699999999999,3.4825999999999997 10.231399999999997,3.4828 10.258099999999995,3.4713000000000003 10.332399999999996,3.4233000000000002 10.368199999999998,3.3823 10.378800000000002,3.3617 10.382000000000001,3.3307 10.383999999999997,3.2717 10.409200000000002,3.2586000000000004 10.461000000000002,3.2517000000000005 10.477099999999997,3.2681000000000004 10.497899999999998,3.2521000000000004 10.5292,3.2213000000000003 10.555899999999998,3.2156000000000002 10.563500000000001,3.1832000000000003 10.578399999999998,3.1671000000000005 10.594899999999999,3.1436 10.6202,3.1158 10.636599999999998,3.1026 10.6542,3.1189999999999998 10.692599999999995,3.1179000000000006 10.7043,3.1268000000000002 10.736900000000002,3.1153000000000004 10.732699999999998,3.096 10.753399999999996,3.0903 10.7683,3.0757000000000003 10.787600000000001,3.0655 10.802600000000002,3.0375000000000005 10.804199999999998,3.0228 10.8323,3.0082000000000004 10.854699999999998,2.9833 10.861900000000002,2.9640000000000004 10.851699999999997,2.9336 10.850999999999996,2.9214 10.8464,2.9141000000000004 10.834599999999998,2.9054 10.836000000000002,2.8647 10.833099999999998,2.8178 10.799199999999995,2.7868000000000004 10.797099999999997,2.771 10.8004,2.7565999999999997 10.8122,2.7312000000000003 10.8141,2.7199 10.813799999999997,2.7030000000000003 10.8171,2.6734 10.8137,2.6635 10.807999999999996,2.6543 10.805499999999999,2.6463 10.806099999999997,2.6389000000000005 10.813500000000001,2.6092000000000004 10.820199999999996,2.6037 10.8353,2.5865 10.840099999999996,2.5728 10.840700000000002,2.5375000000000005 10.850100000000001,2.5216000000000003 10.845899999999997,2.5010000000000003 10.839200000000002,2.4892000000000003 10.8357,2.4733 10.834900000000001,2.4642999999999997 10.845400000000001,2.4435000000000002 10.839099999999998,2.4203 10.839000000000002,2.4144000000000005 10.894299999999998,2.3365 10.943699999999996,2.2492 10.969199999999997,2.2098000000000004 10.972999999999995,2.2016999999999998 10.972999999999995,2.1926000000000005 10.968700000000002,2.1470000000000002 10.969399999999997,2.1393000000000004 10.974299999999996,2.1342 11.131399999999996,2.0297 11.148299999999995,2.0153 11.1476,2.0095 11.152199999999997,1.9953000000000003 11.152399999999997,1.9767000000000001 11.147899999999996,1.9644000000000004 11.147299999999998,1.9565000000000001 11.1386,1.9443000000000001 11.135200000000001,1.9214000000000002 11.135200000000001,1.9091000000000005 11.133199999999999,1.9017 11.133700000000001,1.8948999999999998 11.1482,1.8514999999999997 11.156200000000002,1.8485000000000005 11.163900000000002,1.8479999999999999 11.182799999999997,1.8517000000000001 11.207399999999996,1.8662999999999998 11.215,1.8679000000000006 11.222100000000001,1.8718000000000004 11.2546,1.8787000000000003 11.258399999999998,1.8830999999999998 11.274399999999996,1.8914999999999997 11.302800000000001,1.9102000000000006 11.316799999999997,1.9248000000000003 11.327699999999997,1.9299999999999997 11.334999999999997,1.9321000000000002 11.340599999999998,1.9312000000000005 11.353100000000001,1.9367 11.3582,1.9363000000000001 11.363899999999997,1.9327000000000005 11.381399999999996,1.9364 11.387199999999996,1.9333999999999998 11.426799999999997,1.9333999999999998 11.503800000000002,1.9000000000000004 11.5885,1.8887 11.610600000000002,1.8708999999999998 11.633300000000002,1.8618000000000006 11.655999999999995,1.8589000000000002 11.6613,1.8561000000000005 11.667199999999998,1.8502999999999998 11.676799999999997,1.8506999999999998 11.683199999999996,1.8464 11.686899999999998,1.8396 11.694999999999997,1.8378000000000005 11.7024,1.8336000000000006 11.705699999999997,1.8285 11.707399999999996,1.8212000000000002 11.705699999999997,1.8134000000000006 11.7009,1.8029000000000002 11.693999999999999,1.7998000000000003 11.689899999999998,1.7929000000000004 11.675299999999996,1.7800000000000002 11.671899999999997,1.7748999999999997 11.670300000000001,1.7671000000000001 11.669999999999998,1.7553999999999998 11.672,1.7468000000000004 11.675699999999996,1.7418000000000005 11.6842,1.7216000000000005 11.697,1.7142 11.700799999999997,1.7080000000000002 11.706500000000002,1.694 11.706,1.6835000000000004 11.702699999999997,1.6679000000000004 11.6938,1.6601 11.680699999999998,1.6386000000000003 11.662299999999998,1.6227 11.655899999999999,1.6055000000000001 11.657999999999998,1.5890000000000004 11.6572,1.5128000000000004 11.6525,1.4645000000000001 11.6527,1.4411000000000005 11.6467,1.3973000000000004 11.641499999999997,1.3223000000000003 11.6343,1.2690000000000001 11.634399999999996,1.2504999999999997 11.6741,1.1999000000000004 11.693999999999999,1.1702000000000004 11.718,1.1463 11.640699999999999,1.1454000000000004 11.632299999999997,1.1919000000000004 11.6142,1.2008999999999999 11.584099999999996,1.1859000000000002 11.555699999999998,1.1501000000000001 11.552899999999998,1.1420000000000003 11.546499999999998,1.1418 11.5384,1.1441 11.431699999999996,1.1429 11.3584,1.2671000000000001 11.3537,1.2826000000000004 11.3351,1.2964000000000002 11.345400000000001,1.3138000000000005 11.351099999999999,1.3284000000000002 11.363699999999998,1.3975999999999997 11.367499999999996,1.4371 11.3721,1.4352999999999998 11.385499999999997,1.4778000000000002 11.3674,1.4778000000000002 11.2681,1.4628000000000005 11.2741,1.5049000000000001 11.289100000000001,1.5772000000000004 11.255999999999997,1.5802000000000005 11.198800000000002,1.529 11.147699999999997,1.5019 11.113499999999998,1.4962 11.1116,1.4966999999999997 11.110499999999998,1.4994000000000005 10.776999999999997,1.3763000000000005 10.776799999999998,1.3777999999999997 10.519899999999996,1.274 10.219599999999996,1.1433 10.073699999999999,1.0000999999999998 10.071299999999997,1.0018000000000002 9.8402,0.7750000000000004 9.865799999999997,0.7549999999999999 9.850100000000001,0.7404000000000002 9.835799999999995,0.7534999999999998 9.362599999999997,0.2743000000000002 9.3353,0.2733000000000003 9.026900000000001,0.29810000000000025 8.929799999999997,0.3722000000000003 8.9192,0.37840000000000007 8.910700000000002,0.38660000000000005 8.875899999999998,0.41300000000000026 8.749300000000002,0.33499999999999996 8.568299999999997,0.28720000000000034 8.2634,0.2650000000000001 8.045300000000001,0.11980000000000013 8.042999999999996,0.11670000000000025 8.050699999999996,0.11250000000000027 8.0549,0.11400000000000032 8.057199999999998,0.11129999999999995 8.059099999999997,0.10250000000000004 8.0626,0.09590000000000032 8.061800000000002,0.08899999999999997 8.065999999999999,0.08360000000000012 8.056499999999996,0.06930000000000014 8.055299999999999,0.06390000000000029 8.056499999999996,0.0596000000000001 8.049600000000002,0.04260000000000019 8.050099999999997,0.027000000000000135 8.048300000000001,0.02629999999999999 7.950599999999998,0.05140000000000011 7.932500000000001,0.05210000000000026 7.9314,0.05820000000000025 7.933600000000002,0.05760000000000032 7.934899999999995,0.05500000000000016 7.937099999999997,0.05699999999999994 7.9344,0.06410000000000027 7.936600000000002,0.06820000000000004 7.934200000000001,0.0686 7.9323000000000015,0.06660000000000021 7.930199999999996,0.06770000000000032 7.931299999999997,0.07000000000000028 7.929199999999998,0.07339999999999991 7.929199999999998,0.07810000000000006 7.934000000000001,0.0817000000000001 7.931299999999997,0.08289999999999997 7.9289999999999985,0.08099999999999996 7.928799999999999,0.08700000000000019 7.925099999999997,0.0878000000000001 7.9241999999999955,0.08960000000000035 7.920300000000001,0.08840000000000003 7.9209,0.09299999999999997 7.9162,0.09410000000000007 7.9178999999999995,0.09780000000000033 7.915200000000002,0.09600000000000009 7.912200000000002,0.09889999999999999 7.909899999999997,0.09810000000000008 7.910299999999996,0.10170000000000012 7.904999999999998,0.10329999999999995 7.908399999999997,0.10660000000000025 7.905100000000001,0.10939999999999994 7.904,0.1080000000000001 7.9019999999999975,0.10950000000000015 7.901,0.10850000000000026 7.901,0.11290000000000022 7.8957000000000015,0.11100000000000021 7.894200000000001,0.10880000000000001 7.892599999999998,0.10970000000000013 7.893599999999996,0.11370000000000013 7.8919999999999995,0.11440000000000028 7.887899999999998,0.10820000000000007 7.881499999999999,0.10499999999999998 7.8679999999999986,0.10370000000000035 7.843,0.09770000000000012 7.8367,0.09980000000000011 7.831299999999999,0.09840000000000027 7.828599999999998,0.09929999999999994 7.8231,0.09450000000000003 7.8172,0.09520000000000017 7.809699999999999,0.09109999999999996 7.8062000000000005,0.09129999999999994 7.808199999999999,0.09810000000000008 7.8013999999999974,0.12630000000000008 7.799799999999998,0.14860000000000007 7.802199999999999,0.15680000000000005 7.808499999999999,0.1676000000000002 7.808399999999999,0.1726000000000001 7.805599999999998,0.17920000000000025 7.797999999999998,0.18700000000000028 7.779999999999998,0.21860000000000035 7.7635000000000005,0.23960000000000026 7.7545,0.25649999999999995 7.745199999999997,0.2694000000000001 7.729399999999998,0.28610000000000024 7.7179,0.30410000000000004 7.689899999999998,0.32310000000000016 7.672599999999999,0.3397000000000001 7.660899999999998,0.3442000000000003 7.652899999999999,0.34430000000000005 7.643899999999999,0.34129999999999994 7.6434999999999995,0.3334999999999999 7.648699999999998,0.3307000000000002 7.650299999999998,0.3266 7.6484999999999985,0.3200000000000003 7.6301999999999985,0.30790000000000006 7.590699999999998,0.2749999999999999 7.5855999999999995,0.27310000000000034 7.576699999999999,0.27269999999999994 7.573899999999998,0.2705000000000002 7.5554999999999986,0.24330000000000007 7.540599999999998,0.23819999999999997 7.5199,0.23430000000000017 7.4239999999999995,0.2016 7.393799999999999,0.17569999999999997 7.387799999999999,0.17540000000000022 7.369699999999998,0.16510000000000025 7.3659,0.1575000000000002 7.360699999999998,0.16000000000000014 7.353099999999998,0.16090000000000027 7.349899999999998,0.1633 7.3506,0.17200000000000015 7.356199999999998,0.1894 7.355999999999998,0.19569999999999999 7.3394999999999975,0.20120000000000005 7.3032,0.21830000000000016 7.263199999999998,0.24170000000000025 7.200599999999998,0.2722000000000002 7.138199999999998,0.3155000000000001 7.060599999999997,0.31689999999999996 7.031599999999997,0.31540000000000035 7.013199999999998,0.31610000000000005 7.000299999999999,0.29940000000000033 6.9831,0.29059999999999997 6.9816,0.2869999999999999 6.9771,0.2875000000000001 6.974899999999998,0.2843 6.969999999999999,0.2823000000000002 6.970099999999999,0.2794000000000003 6.967699999999997,0.2795000000000001 6.965399999999999,0.2754000000000003 6.9618,0.2766000000000002 6.957599999999999,0.27490000000000014 6.955499999999997,0.2711000000000001 6.952399999999997,0.27200000000000024 6.9510000000000005,0.2681 6.9476999999999975,0.2663000000000002 6.9482,0.26380000000000026 6.9527,0.2622 6.949199999999998,0.26110000000000033 6.948,0.25790000000000024 6.941799999999997,0.2614000000000001 6.9407,0.2573000000000003 6.9389,0.25649999999999995 6.9361999999999995,0.2636000000000003 6.932099999999998,0.2615000000000003 6.9284,0.26469999999999994 6.923499999999997,0.2655000000000003 6.916999999999998,0.26460000000000017 6.9133,0.2621000000000002 6.910499999999999,0.2575000000000003 6.9085,0.25790000000000024 6.906299999999998,0.2552000000000003 6.911099999999998,0.25160000000000027 6.9080999999999975,0.2471000000000001 6.9091999999999985,0.24469999999999992 6.9080999999999975,0.24120000000000008 6.902199999999997,0.23859999999999992 6.900499999999997,0.23480000000000034 6.895999999999997,0.23470000000000013 6.8779,0.21870000000000012 6.8675,0.21510000000000007 6.8642,0.2221000000000002 6.857099999999999,0.22530000000000028 6.855799999999999,0.22820000000000018 6.848099999999999,0.23080000000000034 6.836199999999998,0.2280000000000002 6.8248,0.21989999999999998 6.820999999999998,0.21550000000000002 6.815899999999999,0.2038000000000002 6.814799999999998,0.19510000000000005 6.8032,0.19060000000000032 6.802799999999998,0.18619999999999992 6.799499999999998,0.1835 6.796899999999997,0.17580000000000018 6.7952999999999975,0.17540000000000022 6.7940000000000005,0.17200000000000015 6.796899999999997,0.16369999999999996 6.796499999999998,0.15510000000000002 6.787599999999998,0.14830000000000032 6.7866,0.14110000000000023 6.778599999999997,0.14170000000000016 6.774099999999997,0.13790000000000013 6.7743,0.13370000000000015 6.7684999999999995,0.12139999999999995 6.764699999999998,0.12139999999999995 6.756899999999998,0.11670000000000025 6.755599999999998,0.10899999999999999 6.7525999999999975,0.10720000000000018 6.750799999999998,0.0968 6.735599999999998,0.07699999999999996 6.734199999999998,0.0693999999999999 6.729199999999999,0.06059999999999999 6.726599999999998,0.047900000000000276 6.7224,0.040999999999999925 6.721,0.03340000000000032 6.718,0.028999999999999915 6.717499999999998,0.0242 6.709599999999998,0.006099999999999994 6.7094999999999985,0.0040000000000000036 6.711099999999998,0.0029000000000003467 6.718299999999999,0.0017000000000000348 6.710099999999997,0.0 6.701699999999999,0.0054000000000002935 6.695499999999999,0.01650000000000018 6.694199999999999,0.027300000000000324 6.6981,0.04280000000000017 6.708299999999998,0.06570000000000009 6.7102,0.07299999999999995 6.710099999999997,0.08210000000000006 6.705099999999998,0.08800000000000008 6.662399999999998,0.09889999999999999 6.6553,0.10240000000000027 6.6473999999999975,0.10939999999999994 6.638999999999999,0.12230000000000008 6.6341,0.14000000000000012 6.6341,0.16700000000000026 6.632099999999998,0.17600000000000016 6.626099999999997,0.18800000000000017 6.619399999999999,0.1937000000000002 6.609099999999998,0.19100000000000028 6.603099999999998,0.18500000000000005 6.594099999999997,0.15680000000000005 6.582699999999999,0.14329999999999998 6.5671,0.13960000000000017 6.5456,0.14650000000000007 6.535,0.15300000000000002 6.522099999999998,0.15600000000000014 6.5151,0.15500000000000025 6.470699999999997,0.12590000000000012 6.439999999999998,0.11330000000000018 6.421399999999998,0.11109999999999998 6.406699999999997,0.11500000000000021 6.404999999999998,0.11780000000000035 6.404399999999999,0.12539999999999996 6.415599999999998,0.14320000000000022 6.422999999999998,0.16020000000000012 6.424899999999997,0.17589999999999995 6.4299,0.18630000000000013 6.433,0.19920000000000027 6.419599999999999,0.28400000000000025 6.4038,0.34640000000000004 6.374199999999998,0.3675999999999999 6.346999999999998,0.36030000000000006 6.319699999999997,0.3459000000000003 6.301099999999998,0.3501000000000003 6.293699999999998,0.35740000000000016 6.278399999999998,0.3900000000000001 6.2636,0.38960000000000017 6.251899999999999,0.3852000000000002 6.2271,0.4142000000000001 6.199999999999999,0.4315000000000002 6.183899999999998,0.43820000000000014 6.1690000000000005,0.45050000000000034 6.1473999999999975,0.4500000000000002 6.132899999999999,0.4691000000000001 6.121699999999997,0.47540000000000004 6.112099999999998,0.4753000000000003 6.093299999999999,0.46399999999999997 6.070699999999999,0.4563999999999999 6.057199999999998,0.46850000000000014 6.052599999999998,0.4744999999999999 6.049599999999998,0.48640000000000017 6.0456,0.49040000000000017 6.038999999999998,0.5345000000000004 6.0214,0.5494000000000003 6.0219999999999985,0.5621 6.019099999999998,0.5643000000000002 6.0147999999999975,0.5647000000000002 6.006699999999999,0.5739999999999998 6.005499999999998,0.5897000000000006 6.006899999999998,0.5991 6.005799999999997,0.6116999999999999 6.003799999999998,0.6160000000000005 5.996199999999998,0.6225000000000005 5.979599999999998,0.6299999999999999 5.956599999999998,0.6368 5.9405,0.6467999999999998 5.9053,0.6584000000000003 5.886799999999997,0.6760999999999999 5.878,0.7115 5.8748000000000005,0.7157999999999998 5.848099999999999,0.7347000000000001 5.8354,0.7456000000000005 5.823499999999999,0.7498000000000005 5.8047,0.7511000000000001 5.795999999999999,0.7537000000000003 5.792199999999998,0.7606000000000002 5.798399999999997,0.7717999999999998 5.799599999999998,0.7789999999999999 5.811699999999998,0.7964000000000002 5.809199999999997,0.8086000000000002 5.798299999999998,0.8250000000000002 5.789899999999999,0.8338000000000001 5.750399999999999,0.8626000000000005 5.741299999999999,0.8651999999999997 5.733699999999999,0.8630000000000004 5.724899999999998,0.8580000000000005 5.707999999999998,0.8588000000000005 5.698599999999999,0.8563000000000001 5.687799999999999,0.8557000000000006 5.679299999999998,0.8616999999999999 5.6709,0.8731 5.664299999999997,0.8772000000000002 5.654699999999998,0.8805000000000005 5.6465,0.8872999999999998 5.643799999999999,0.9032999999999998 "></polygon>
    </svg>
    