
    <svg width="4.109099999999998" height="4.184" xmlns="http://www.w3.org/2000/svg" xmlns:xlink="http://www.w3.org/1999/xlink" style="transform: scale(1, -1)">
        <polygon points="2.099799999999995,0.6702000000000001 2.1026999999999987,0.6634 2.101299999999995,0.6542000000000001 2.0867000000000004,0.6302999999999999 2.086999999999996,0.6182999999999998 2.0992999999999995,0.5965 2.0989000000000004,0.5881999999999998 2.0914,0.5736999999999999 2.0719999999999956,0.5587000000000002 2.058499999999995,0.5454000000000001 2.0504999999999995,0.5320000000000003 2.0422999999999973,0.5138 2.035499999999999,0.5102 2.030699999999996,0.5107999999999999 2.013999999999996,0.5231999999999999 2.0031999999999996,0.5244000000000002 1.9963999999999942,0.5208999999999999 1.9874999999999972,0.5097000000000003 1.970399999999998,0.47750000000000026 1.9534999999999982,0.43310000000000026 1.9536999999999978,0.42679999999999985 1.9593999999999951,0.4225000000000001 2.0082999999999984,0.4115 2.0389999999999944,0.397 2.0444999999999993,0.38760000000000017 2.0448999999999984,0.3817999999999999 2.0371999999999986,0.3619999999999999 2.0360999999999976,0.35419999999999985 2.0392999999999972,0.34729999999999994 2.048899999999996,0.33699999999999997 2.078099999999999,0.32050000000000023 2.0852000000000004,0.3186000000000002 2.1019000000000005,0.30210000000000004 2.109899999999996,0.2903 2.1141000000000005,0.27949999999999986 2.1248000000000005,0.2653000000000001 2.1485999999999947,0.2441000000000002 2.1647999999999996,0.2266999999999999 2.1746999999999943,0.21100000000000008 2.1766999999999967,0.20160000000000022 2.1751999999999967,0.18920000000000026 2.171299999999995,0.17590000000000017 2.1662999999999997,0.16830000000000012 2.163499999999999,0.15979999999999994 2.163799999999995,0.14529999999999998 2.180799999999998,0.06000000000000005 2.1757999999999953,0.05190000000000006 2.1469999999999985,0.025000000000000133 2.133599999999994,0.017100000000000115 2.1296999999999997,0.0132000000000001 2.1141000000000005,0.006099999999999994 2.0915999999999997,0.0 2.0597999999999956,0.0041999999999999815 2.0231999999999957,0.017800000000000038 1.981199999999994,0.028299999999999992 1.9763999999999982,0.031500000000000083 1.9383999999999943,0.046699999999999964 1.8979999999999961,0.060699999999999976 1.8735,0.06430000000000002 1.8626000000000005,0.06430000000000002 1.8325999999999993,0.05580000000000007 1.819199999999995,0.05830000000000002 1.7868999999999957,0.07709999999999995 1.7624999999999957,0.08420000000000005 1.737099999999998,0.10050000000000003 1.7274999999999991,0.10880000000000001 1.7224000000000004,0.1079000000000001 1.7004999999999981,0.09360000000000013 1.6890999999999963,0.09130000000000016 1.6792999999999978,0.09289999999999998 1.6627999999999972,0.09929999999999994 1.6328999999999994,0.11350000000000016 1.6062999999999974,0.11040000000000005 1.6028999999999982,0.12430000000000008 1.594699999999996,0.13949999999999996 1.5829999999999984,0.1452 1.566599999999994,0.14590000000000014 1.558799999999998,0.1504000000000001 1.5431999999999988,0.16470000000000007 1.5351999999999961,0.1757000000000002 1.531099999999995,0.17869999999999986 1.4994999999999976,0.1895 1.4316999999999993,0.18359999999999999 1.3973999999999975,0.18720000000000003 1.3795999999999964,0.20289999999999986 1.336199999999998,0.2710999999999999 1.3078000000000003,0.3007000000000002 1.3001000000000005,0.3108000000000002 1.283999999999999,0.34850000000000025 1.2734999999999985,0.3598000000000001 1.266999999999996,0.37359999999999993 1.2655999999999992,0.3901000000000001 1.2697000000000003,0.4177000000000002 1.2663999999999973,0.4347000000000001 1.2609999999999957,0.4396000000000002 1.2327999999999975,0.4463999999999999 1.2201999999999984,0.45189999999999997 1.2130999999999972,0.4564999999999999 1.2050999999999945,0.4648000000000001 1.2027999999999963,0.4698 1.2018999999999949,0.4818 1.2025000000000006,0.49580000000000024 1.206799999999994,0.5172000000000001 1.2054999999999936,0.5241 1.2003999999999948,0.5303000000000002 1.189,0.5393000000000001 1.1603999999999957,0.5507000000000002 1.1520999999999972,0.5585000000000002 1.1472999999999942,0.5751000000000002 1.1477000000000004,0.5808000000000002 1.149799999999999,0.5873000000000002 1.1561999999999983,0.5930000000000002 1.155699999999996,0.5972000000000002 1.1483999999999952,0.6018000000000001 1.1439999999999984,0.607 1.1415000000000006,0.6218000000000001 1.129099999999994,0.6403999999999999 1.1283999999999992,0.6493 1.1415999999999968,0.6557999999999999 1.144299999999994,0.6702000000000001 1.1411999999999978,0.6719999999999999 1.1367999999999938,0.6641999999999999 1.1336999999999975,0.6639000000000002 1.1169999999999973,0.6692000000000002 1.1123999999999938,0.6666000000000001 1.1010999999999953,0.6683999999999999 1.0917999999999992,0.6723999999999999 1.0904999999999987,0.6976000000000002 1.0917999999999992,0.7140000000000002 1.090599999999995,0.7228000000000001 1.081799999999994,0.7329000000000001 1.0730999999999966,0.7369000000000001 1.0620999999999938,0.7484 1.058399999999999,0.7548000000000001 1.0574999999999974,0.7710999999999999 1.0537999999999954,0.7785 1.052899999999994,0.7842 1.0600999999999985,0.8091000000000002 1.0566999999999993,0.8128 1.0536999999999992,0.813 1.0471000000000004,0.8104000000000002 1.0415999999999954,0.8049000000000002 1.031799999999997,0.8067 1.0266999999999982,0.8131999999999999 1.022599999999997,0.829 1.0190999999999946,0.8554999999999999 1.0045999999999964,0.8796000000000002 0.9827999999999975,0.9046000000000001 0.9786999999999964,0.9138 0.978199999999994,0.9216 0.9820999999999955,0.9305999999999999 0.982999999999997,0.9368000000000001 0.9767999999999972,0.9394000000000002 0.9649000000000001,0.9359 0.9550999999999945,0.9359 0.9488999999999947,0.9393 0.9442999999999984,0.9469000000000001 0.9433999999999969,0.9587999999999999 0.9506999999999977,0.9747000000000001 0.9626999999999981,0.9895000000000003 0.9555999999999969,0.9904 0.9358000000000004,0.9806999999999999 0.9201999999999941,0.9763 0.9146999999999963,0.9763 0.9043999999999954,0.9783000000000002 0.9030999999999949,0.9863999999999999 0.908299999999997,0.9932999999999998 0.9057999999999993,0.9972000000000001 0.8887999999999963,0.9983000000000002 0.8821999999999974,1.0029000000000001 0.8789999999999978,1.0107000000000002 0.882399999999997,1.0259000000000003 0.8788999999999945,1.0374 0.865399999999994,1.0592 0.8607999999999976,1.0709000000000002 0.8609999999999971,1.0808000000000002 0.8618999999999986,1.0837999999999999 0.8684999999999974,1.0875000000000001 0.8828999999999994,1.0900999999999998 0.8965999999999994,1.0986 0.9011999999999958,1.1039 0.9052999999999969,1.1142999999999998 0.9019999999999939,1.1186 0.896099999999997,1.1191000000000002 0.881299999999996,1.1073000000000002 0.8754999999999953,1.1050000000000002 0.8677999999999955,1.1068 0.8619999999999948,1.1135 0.860599999999998,1.1195000000000002 0.8619999999999948,1.1342 0.8586999999999989,1.1508 0.8623999999999938,1.1607 0.8704999999999998,1.1708999999999998 0.8554999999999993,1.1818000000000002 0.8496999999999986,1.1917000000000002 0.8521999999999963,1.1963000000000001 0.8603999999999985,1.2005000000000001 0.8782999999999959,1.1990999999999998 0.8814999999999955,1.2046 0.875,1.2173 0.8728999999999942,1.2373 0.8689999999999998,1.2417 0.8545999999999978,1.2474 0.8451999999999984,1.248 0.8247999999999962,1.2594999999999998 0.821399999999997,1.2662000000000002 0.8206999999999951,1.2742000000000002 0.8245000000000005,1.2817999999999998 0.8347999999999942,1.2922 0.8347999999999942,1.2975 0.8292999999999964,1.2973000000000001 0.8194999999999979,1.2887000000000002 0.8121999999999971,1.2857 0.8025999999999982,1.2882 0.7919999999999945,1.2981 0.7891999999999939,1.3094 0.7907999999999973,1.3144000000000002 0.8019999999999996,1.3269 0.7986000000000004,1.3303 0.7914999999999992,1.3315 0.7836999999999961,1.3363000000000003 0.7829999999999941,1.3485000000000003 0.7937999999999974,1.3927000000000003 0.7951999999999941,1.4037 0.7930999999999955,1.4145 0.7973999999999961,1.4240000000000002 0.7959999999999994,1.4272000000000002 0.7900999999999954,1.4320000000000002 0.7844999999999942,1.4511 0.7849999999999966,1.461 0.7931999999999988,1.4734 0.795899999999996,1.4829 0.7964999999999947,1.4985000000000002 0.7920999999999978,1.5176 0.7861999999999938,1.5277 0.7814999999999941,1.5424 0.7782999999999944,1.5458999999999998 0.7709999999999937,1.5435 0.7616999999999976,1.5329 0.7471999999999994,1.5285 0.6909999999999954,1.5254 0.6739999999999995,1.5258 0.6614000000000004,1.5219000000000003 0.6396999999999977,1.5099000000000002 0.6257999999999981,1.5082000000000002 0.6085999999999956,1.5024 0.5996999999999986,1.5026 0.5934999999999988,1.5068 0.5858999999999952,1.5201 0.5785999999999945,1.5249 0.5611999999999995,1.5269000000000001 0.5384999999999991,1.5216 0.5325999999999951,1.523 0.5261999999999958,1.5319 0.5102999999999938,1.5477 0.4958999999999989,1.5546 0.4759999999999991,1.5543000000000002 0.46479999999999677,1.5511000000000001 0.4519999999999982,1.5425000000000002 0.43599999999999994,1.5363 0.43089999999999407,1.5367 0.4228999999999985,1.5425000000000002 0.3941999999999979,1.5711000000000002 0.3872999999999962,1.5833000000000002 0.386099999999999,1.595 0.3896999999999977,1.6236 0.39579999999999416,1.6372000000000002 0.407199999999996,1.6535 0.41149999999999665,1.6660000000000001 0.4123999999999981,1.6754 0.40229999999999677,1.6961000000000002 0.3836999999999975,1.7184000000000001 0.3733999999999966,1.7266000000000001 0.3604999999999947,1.7413 0.3506,1.7657 0.3456999999999937,1.773 0.3328999999999951,1.7822000000000002 0.31569999999999965,1.7870000000000001 0.3108999999999966,1.7897 0.30859999999999843,1.789 0.27720000000000056,1.8092 0.2693999999999974,1.8124 0.25839999999999463,1.8209000000000002 0.2481999999999971,1.8341999999999998 0.2435999999999936,1.8455000000000001 0.23939999999999628,1.8640999999999999 0.23559999999999803,1.9174 0.22929999999999495,1.9464 0.19639999999999702,1.9983000000000002 0.16689999999999827,2.0496 0.15799999999999415,2.0585000000000004 0.14449999999999363,2.0598 0.13639999999999475,2.0582000000000003 0.08659999999999712,2.0625 0.08659999999999712,2.0975 0.07339999999999947,2.1037 0.05679999999999552,2.122 0.035899999999998045,2.1509 0.03119999999999834,2.1631 0.033299999999997,2.1703 0.032399999999995543,2.1796999999999995 0.0338999999999956,2.2005999999999997 0.02939999999999543,2.2436999999999996 0.014899999999997249,2.2753999999999994 0.005899999999996908,2.2874 0.00019999999999953388,2.3000999999999996 0.0,2.3102 0.009599999999998943,2.3301999999999996 0.05010000000000048,2.3979 0.07559999999999434,2.4325 0.08479999999999421,2.4375 0.08659999999999712,2.4497999999999998 0.08659999999999712,2.4952999999999994 0.11909999999999599,2.5031999999999996 0.12119999999999465,2.5100999999999996 0.11399999999999721,2.5441000000000003 0.11869999999999692,2.5664 0.1355000000000004,2.6005000000000003 0.16199999999999903,2.6303 0.17749999999999488,2.6567999999999996 0.19249999999999545,2.6945999999999994 0.19379999999999598,2.7077 0.20309999999999917,2.7368999999999994 0.23639999999999617,2.7901999999999996 0.24080000000000013,2.7999 0.23869999999999436,2.8075 0.23339999999999606,2.8149999999999995 0.23149999999999693,2.8254 0.2336999999999989,2.8452 0.21249999999999858,2.8826 0.2091999999999956,2.9157 0.20339999999999492,2.9295 0.1944999999999979,2.9334 0.16740000000000066,2.9382 0.15819999999999368,2.9498999999999995 0.15489999999999782,2.9718999999999998 0.15529999999999688,2.9855 0.15799999999999415,3.0019 0.16279999999999717,3.0115 0.17969999999999686,3.0247 0.19609999999999417,3.0521000000000003 0.21299999999999386,3.0736 0.24729999999999563,3.1059 0.2600999999999942,3.1128 0.26839999999999975,3.114 0.3009999999999948,3.1005000000000003 0.3108999999999966,3.0995999999999997 0.32029999999999603,3.1022 0.32459999999999667,3.1059 0.32909999999999684,3.1339999999999995 0.3352999999999966,3.1441 0.36129999999999995,3.1646 0.3850999999999942,3.1803999999999997 0.396099999999997,3.1868 0.4057999999999993,3.1898 0.43259999999999366,3.1910999999999996 0.442699999999995,3.189 0.47279999999999944,3.1757 0.4864999999999995,3.1761999999999997 0.506699999999995,3.1807 0.5359999999999943,3.1963999999999997 0.5471999999999966,3.1968999999999994 0.6043999999999983,3.1769999999999996 0.6211999999999946,3.1765999999999996 0.6481999999999957,3.1714 0.670899999999996,3.1743999999999994 0.6960999999999942,3.1907999999999994 0.7079999999999984,3.1944999999999997 0.7313999999999936,3.1959 0.7457999999999956,3.2078999999999995 0.7567999999999984,3.2104999999999997 0.7734999999999985,3.2077 0.7824999999999989,3.2036 0.7842999999999947,3.2089 0.7812999999999946,3.2115 0.7571999999999974,3.2184999999999997 0.7509999999999977,3.2219999999999995 0.7468999999999966,3.2305 0.7465999999999937,3.2398999999999996 0.7530000000000001,3.2585999999999995 0.7739999999999938,3.2984 0.7762999999999991,3.3091999999999997 0.7775999999999996,3.3308999999999997 0.7800999999999974,3.338 0.7852999999999994,3.346 0.7956000000000003,3.3545999999999996 0.8100999999999985,3.3613 0.8226999999999975,3.3643 0.8369,3.3609 0.8478999999999957,3.3533 0.856899999999996,3.3414 0.8631999999999991,3.3285 0.8683999999999941,3.3246 0.8734999999999999,3.3242000000000003 0.8902000000000001,3.3331999999999997 0.8947999999999965,3.3387000000000002 0.8951999999999956,3.3449 0.8855000000000004,3.3636999999999997 0.8753999999999991,3.3758999999999997 0.8620999999999981,3.401 0.8551000000000002,3.4177 0.8461999999999961,3.4249 0.8403999999999954,3.4261999999999997 0.8390999999999948,3.4214 0.8390999999999948,3.4162999999999997 0.8452999999999946,3.4059999999999997 0.8475999999999999,3.3960999999999997 0.8455999999999975,3.3869 0.8414999999999964,3.3814 0.8359999999999985,3.3784 0.8143999999999991,3.3781 0.8021999999999991,3.3819999999999997 0.7913999999999959,3.3898 0.7849999999999966,3.3998999999999997 0.782199999999996,3.4111000000000002 0.7820999999999998,3.4325 0.7889999999999944,3.4611 0.7879999999999967,3.4688999999999997 0.7813999999999979,3.4677 0.7622999999999962,3.4593999999999996 0.7519999999999953,3.4608 0.7421000000000006,3.4665 0.7391000000000005,3.4722 0.7379999999999995,3.4818999999999996 0.7427999999999955,3.4959 0.7557999999999936,3.5176 0.7644999999999982,3.527 0.7733999999999952,3.5333999999999994 0.7737999999999943,3.5352999999999994 0.7937999999999974,3.5489999999999995 0.8058999999999941,3.5652999999999997 0.8090999999999937,3.5809999999999995 0.8072999999999979,3.6259999999999994 0.8127999999999957,3.6449 0.8232999999999961,3.6605999999999996 0.843199999999996,3.6825 0.8614999999999995,3.6997999999999998 0.8770999999999987,3.7234999999999996 0.8907999999999987,3.7488 0.9058999999999955,3.7824 0.9094999999999942,3.8049999999999997 0.9089999999999989,3.8157999999999994 0.9146999999999963,3.8441 0.9116,3.8606 0.9048999999999978,3.8707000000000003 0.8981999999999957,3.8872999999999998 0.8962000000000003,3.9003999999999994 0.8977000000000004,3.9254999999999995 0.9028999999999954,3.9409 0.9084000000000003,3.9730999999999996 0.9174999999999969,3.9631 0.9206999999999965,3.9829999999999997 0.9360999999999962,4.0123 0.9407999999999959,4.0249 0.9229999999999947,4.0323 0.9256999999999991,4.0390999999999995 0.9298999999999964,4.067 0.9256999999999991,4.1042 0.9281999999999968,4.1232999999999995 0.9398999999999944,4.1617999999999995 0.9416999999999973,4.158799999999999 0.9411999999999949,4.1518 0.9433999999999969,4.1385 0.9414999999999978,4.1335 0.9450999999999965,4.1251999999999995 0.9455999999999989,4.119 0.9450999999999965,4.0949 0.9466999999999999,4.0946 0.9455999999999989,4.0931999999999995 0.9512,4.0693 0.9503999999999948,4.0565 0.9583999999999975,4.0488 0.9700999999999951,4.0457 0.9797999999999973,4.0470999999999995 0.9802999999999997,4.0488 0.9897999999999954,4.054 0.9953000000000003,4.0652 0.9975999999999985,4.074 1.0022999999999982,4.0763 1.0045000000000002,4.0754 1.0061999999999998,4.0782 1.0041999999999973,4.0863 1.0053999999999945,4.0938 1.0144999999999982,4.1004 1.018099999999997,4.1118 1.0242000000000004,4.1182 1.043999999999997,4.1259999999999994 1.0636999999999972,4.1315 1.0686999999999998,4.1368 1.0697999999999936,4.1357 1.072899999999997,4.1371 1.0808999999999997,4.1452 1.1006,4.1579 1.1028999999999982,4.1624 1.1147999999999954,4.172899999999999 1.1166999999999945,4.1765 1.1166999999999945,4.1807 1.1189999999999998,4.1799 1.1222999999999956,4.1834999999999996 1.1255999999999986,4.184 1.1280999999999963,4.1815 1.1300999999999988,4.1821 1.1450999999999993,4.1771 1.161999999999999,4.1749 1.1655999999999977,4.1724 1.1723,4.1735 1.174199999999999,4.1713 1.181999999999995,4.1693 1.1861999999999995,4.1707 1.1875999999999962,4.166799999999999 1.1950999999999965,4.1649 1.1958999999999946,4.1627 1.1995000000000005,4.1629 1.2008999999999972,4.1604 1.2119999999999962,4.161 1.2125999999999948,4.159 1.2147999999999968,4.158799999999999 1.216699999999996,4.1601 1.2183999999999955,4.1579 1.2239999999999966,4.1582 1.2256,4.156499999999999 1.2319999999999993,4.1563 1.232599999999998,4.154599999999999 1.2358999999999938,4.1556999999999995 1.2378,4.1543 1.2430999999999983,4.1571 1.2580999999999989,4.1574 1.2641999999999953,4.1563 1.2650999999999968,4.154599999999999 1.2686999999999955,4.1554 1.2689999999999984,4.154 1.2712000000000003,4.156 1.278099999999995,4.156 1.2794999999999987,4.154 1.2830999999999975,4.1556999999999995 1.2875999999999976,4.1537999999999995 1.3123000000000005,4.1574 1.3144999999999953,4.154599999999999 1.318399999999997,4.1563 1.3222999999999985,4.154 1.328399999999995,4.154 1.3375999999999948,4.1574 1.3419999999999987,4.1537999999999995 1.3469999999999942,4.1529 1.3541999999999987,4.1556999999999995 1.358399999999996,4.154 1.3611999999999966,4.1556999999999995 1.3703000000000003,4.1529 1.3719999999999999,4.151 1.3761999999999972,4.1518 1.3836999999999975,4.1499 1.3900999999999968,4.151 1.408699999999996,4.1482 1.4139999999999944,4.1482 1.4166999999999987,4.1521 1.420099999999998,4.1524 1.4239999999999995,4.1474 1.433399999999999,4.1479 1.4383999999999943,4.146 1.441199999999995,4.1432 1.441199999999995,4.1399 1.4461999999999975,4.1350999999999996 1.4536999999999978,4.1312999999999995 1.4550999999999945,4.1315 1.4542000000000002,4.136299999999999 1.4519999999999982,4.138199999999999 1.4709000000000003,4.1343 1.490399999999994,4.1251999999999995 1.4989999999999952,4.1238 1.5019999999999953,4.1204 1.5061999999999998,4.1207 1.5064999999999955,4.1182 1.5105999999999966,4.1179 1.5128999999999948,4.114 1.515899999999995,4.1151 1.5165000000000006,4.1113 1.5205999999999946,4.1137999999999995 1.5208999999999975,4.111 1.5253999999999976,4.1113 1.5266999999999982,4.1088 1.5334000000000003,4.1088 1.5364999999999966,4.1071 1.5414999999999992,4.1079 1.5426000000000002,4.1057 1.5473,4.1074 1.5497999999999976,4.1049 1.557299999999998,4.1053999999999995 1.5605999999999938,4.1032 1.5670000000000002,4.1038 1.5819999999999936,4.099 1.5933999999999955,4.099 1.601699999999994,4.0946 1.6108999999999938,4.0931999999999995 1.6161999999999992,4.0889999999999995 1.6289999999999978,4.0843 1.640899999999995,4.081799999999999 1.645399999999995,4.0824 1.6561999999999983,4.0785 1.6622999999999948,4.0782 1.6676000000000002,4.0813 1.6703999999999937,4.0785 1.6783999999999963,4.0785 1.680099999999996,4.0793 1.6794999999999973,4.0813 1.683399999999999,4.0832 1.6825999999999937,4.0802 1.691199999999995,4.0804 1.6883999999999943,4.079 1.6905999999999963,4.0779 1.6939999999999955,4.0788 1.6980999999999966,4.0765 1.7012,4.0774 1.7042000000000002,4.0748999999999995 1.7183999999999955,4.0713 1.720099999999995,4.0693 1.7209000000000003,4.0724 1.7239999999999966,4.0725999999999996 1.731499999999997,4.0685 1.7400999999999982,4.0671 1.741499999999995,4.0693 1.7391999999999967,4.0713 1.7406000000000006,4.0714999999999995 1.7478999999999942,4.066 1.7605999999999966,4.0613 1.7655999999999992,4.0613 1.7742000000000004,4.0563 1.7789999999999964,4.0557 1.782899999999998,4.0521 1.796199999999999,4.0489999999999995 1.8016999999999967,4.0449 1.8123000000000005,4.0432 1.8170000000000002,4.0404 1.8364999999999938,4.0485 1.8378999999999976,4.0457 1.846199999999996,4.0443 1.848399999999998,4.0427 1.8477999999999994,4.0415 1.8541999999999987,4.0388 1.8658999999999963,4.0393 1.8911999999999978,4.031 1.9080999999999975,4.0306999999999995 1.9133999999999958,4.026 1.9216999999999942,4.026 1.9253,4.0238 1.934199999999997,4.0249 1.9325999999999937,4.0226 1.9394999999999953,4.0221 1.9439999999999955,4.0188 1.947899999999997,4.019299999999999 1.9525999999999968,4.0165 1.966699999999996,4.0163 1.972299999999997,4.013199999999999 1.9928999999999988,4.0081999999999995 2.0108999999999995,4.0057 2.023699999999998,3.9996 2.0311999999999983,4.0001999999999995 2.048399999999994,3.9925999999999995 2.0548,3.9920999999999998 2.0600999999999985,3.9885 2.0641999999999996,3.9882 2.065099999999994,3.9856999999999996 2.0766999999999953,3.9825999999999997 2.0814999999999984,3.9798999999999998 2.097299999999997,3.9774000000000003 2.1025999999999954,3.9774000000000003 2.102899999999998,3.9792999999999994 2.1041999999999987,3.9792999999999994 2.109199999999994,3.9782 2.1103999999999985,3.9764999999999997 2.1114999999999995,3.9782 2.1173,3.9782 2.150099999999995,3.9742999999999995 2.1514999999999986,3.9768 2.1537000000000006,4.0163 2.149499999999996,4.0168 2.1402999999999963,4.0245999999999995 2.136499999999998,4.0293 2.1358999999999995,4.0325999999999995 2.128399999999999,4.0407 2.1266999999999996,4.0465 2.128999999999998,4.0501 2.1291999999999973,4.064 2.1311999999999998,4.0653999999999995 2.1325999999999965,4.0701 2.1391999999999953,4.0732 2.1450999999999993,4.0796 2.145399999999995,4.0838 2.148399999999995,4.0835 2.149799999999999,4.087899999999999 2.159499999999994,4.0929 2.162299999999995,4.0977 2.162299999999995,4.1015 2.166499999999999,4.1026 2.1706000000000003,4.1114999999999995 2.1755999999999958,4.1137999999999995 2.176499999999997,4.1165 2.1853999999999942,4.1209999999999996 2.191499999999998,4.1307 2.1947999999999936,4.131 2.1961999999999975,4.1338 2.1983999999999995,4.1338 2.1969999999999956,4.136 2.1939999999999955,4.136 2.1939999999999955,4.1379 2.202299999999994,4.141 2.1995000000000005,4.1379 2.1983999999999995,4.1385 2.1983999999999995,4.136 2.2061999999999955,4.1357 2.211499999999994,4.1392999999999995 2.2258999999999958,4.1434999999999995 2.234499999999997,4.1479 2.245599999999996,4.148499999999999 2.2637,4.1526 2.2694999999999936,4.151 2.293699999999994,4.1499 2.3441999999999936,4.1529 2.3969999999999985,4.1514999999999995 2.4050999999999974,4.1521 2.4066999999999936,4.154 2.411999999999999,4.1543 2.4133999999999958,4.1529 2.4405999999999963,4.156 2.4472999999999985,4.1551 2.4558999999999997,4.156499999999999 2.4569999999999936,4.1554 2.4587000000000003,4.1568 2.464199999999998,4.156499999999999 2.4662000000000006,4.158799999999999 2.4797999999999973,4.159 2.483699999999999,4.161 2.494499999999995,4.1582 2.503999999999998,4.159 2.521499999999996,4.1571 2.526699999999998,4.159 2.5351,4.1585 2.543699999999994,4.1543 2.552599999999998,4.1524 2.556999999999995,4.1532 2.5605999999999938,4.150399999999999 2.565899999999999,4.1501 2.569499999999998,4.1518 2.603999999999999,4.1453999999999995 2.616199999999999,4.1465 2.628699999999995,4.144 2.6344999999999956,4.1452 2.6402999999999963,4.1438 2.648399999999995,4.144299999999999 2.671699999999994,4.1392999999999995 2.681199999999997,4.1335 2.6825999999999937,4.1377 2.6861999999999995,4.1392999999999995 2.694499999999998,4.1396 2.693099999999994,4.1415 2.694199999999995,4.1429 2.6975999999999942,4.1396 2.695599999999999,4.1377 2.6958999999999946,4.1349 2.6873000000000005,4.1354 2.6858999999999966,4.1329 2.6983999999999995,4.1299 2.706699999999998,4.1307 2.7075999999999993,4.1288 2.7102999999999966,4.1299 2.709799999999994,4.1318 2.7072999999999965,4.1312999999999995 2.7058999999999997,4.1326 2.710899999999995,4.1388 2.7147999999999968,4.1407 2.7216999999999985,4.1407 2.723699999999994,4.1388 2.723699999999994,4.1352 2.7256,4.1371 2.7297999999999973,4.1365 2.7250999999999976,4.1331999999999995 2.727899999999998,4.1326 2.7308999999999983,4.1343 2.7297999999999973,4.1318 2.7339999999999947,4.1301 2.7348,4.1329 2.7364999999999995,4.131 2.738999999999997,4.1324 2.742899999999999,4.1304 2.742599999999996,4.1282 2.750399999999999,4.1254 2.752299999999998,4.1229 2.7461999999999946,4.1227 2.750099999999996,4.1215 2.753399999999999,4.1165 2.7620000000000005,4.1113 2.763999999999996,4.111 2.764499999999998,4.1135 2.7678999999999974,4.1099 2.7797999999999945,4.1051 2.7808999999999955,4.1051 2.7797999999999945,4.1093 2.784799999999997,4.110399999999999 2.7911999999999964,4.109 2.7997999999999976,4.1032 2.798099999999998,4.1013 2.805099999999996,4.1018 2.806199999999997,4.1013 2.805399999999999,4.0988 2.8089999999999975,4.100099999999999 2.8116999999999948,4.0965 2.820299999999996,4.0957 2.8219999999999956,4.0924 2.8290000000000006,4.087899999999999 2.8530999999999977,4.0771 2.8589999999999947,4.0725999999999996 2.869499999999995,4.0721 2.875099999999996,4.069599999999999 2.881999999999998,4.0699 2.8858999999999995,4.067699999999999 2.897599999999997,4.066 2.9037000000000006,4.0668 2.9050999999999974,4.0653999999999995 2.9136999999999986,4.073799999999999 2.9225999999999956,4.1188 2.928699999999999,4.1243 2.9314999999999998,4.1315 2.9416999999999973,4.1385 2.955599999999997,4.1452 2.993699999999997,4.1563 3.016999999999996,4.1601 3.0456000000000003,4.1624 3.085899999999995,4.1624 3.0867000000000004,4.1688 3.0867000000000004,4.1627 3.0947999999999993,4.1617999999999995 3.153099999999995,4.1621 3.160599999999995,4.160699999999999 3.1916999999999973,4.1601 3.204499999999996,4.1579 3.211999999999996,4.1585 3.2291999999999987,4.1554 3.2328999999999937,4.1571 3.2590000000000003,4.1574 3.283699999999996,4.154 3.2973,4.1563 3.318399999999997,4.1537999999999995 3.332799999999999,4.154 3.3422999999999945,4.1521 3.3476,4.1529 3.360299999999995,4.1507 3.360599999999998,4.1495999999999995 3.3630999999999958,4.1507 3.363999999999997,4.1493 3.3711999999999946,4.1507 3.390899999999995,4.1488 3.3911999999999978,4.1476999999999995 3.4050999999999974,4.1474 3.4125999999999976,4.144299999999999 3.423099999999998,4.1449 3.424199999999999,4.1429 3.470099999999995,4.1350999999999996 3.4883999999999986,4.1304 3.488999999999997,4.1285 3.493399999999994,4.1288 3.495899999999999,4.1270999999999995 3.4980999999999938,4.1285 3.5197999999999965,4.1246 3.5456000000000003,4.1174 3.590599999999995,4.1124 3.6100999999999956,4.1121 3.6280999999999963,4.1071 3.640099999999997,4.106 3.6703999999999937,4.098199999999999 3.6758999999999986,4.098199999999999 3.6805999999999983,4.096 3.693399999999997,4.0946 3.710899999999995,4.0896 3.7162000000000006,4.0899 3.7209000000000003,4.0870999999999995 3.7261999999999986,4.0868 3.7353999999999985,4.0832 3.7561999999999998,4.0793 3.7586999999999975,4.0796 3.757799999999996,4.0813 3.7608999999999995,4.0828999999999995 3.772599999999997,4.0809999999999995 3.774499999999996,4.0821 3.781499999999994,4.0782 3.7834000000000003,4.0748999999999995 3.7883999999999958,4.073799999999999 3.790399999999998,4.0743 3.7886999999999986,4.0754 3.7894999999999968,4.0767999999999995 3.793699999999994,4.0765 3.7941999999999965,4.0748999999999995 3.799199999999999,4.0763 3.817299999999996,4.0693 3.860899999999994,4.0592999999999995 3.8658999999999963,4.0557 3.8739999999999952,4.054 3.8803999999999945,4.0554 3.8836999999999975,4.0538 3.889499999999998,4.0543 3.9044999999999987,4.0488 3.9155999999999977,4.0415 3.927599999999998,4.0382 3.9475999999999942,4.0282 3.9716999999999985,4.0201 3.9797999999999973,4.0213 3.9991999999999948,4.0142999999999995 4.014799999999994,4.013199999999999 4.015299999999996,4.0115 4.0186999999999955,4.0104 4.040399999999998,4.0115 4.051699999999997,4.0093 4.055599999999998,4.0038 4.063699999999997,4.0004 4.070599999999999,3.9932 4.073099999999997,3.9753999999999996 4.079799999999999,3.9639999999999995 4.090899999999998,3.9371 4.102499999999999,3.9181999999999997 4.0991,3.9142 4.099199999999996,3.9101 4.0961,3.9066 4.0855999999999995,3.9009 4.075099999999999,3.8883 4.07,3.8769 4.066299999999998,3.8574 4.062799999999996,3.8487 4.053999999999995,3.84 4.0488,3.8319 4.049899999999994,3.8124000000000002 4.054899999999996,3.8011 4.054299999999998,3.7992 4.0595,3.7893 4.074999999999996,3.7903000000000002 4.0764,3.7408 4.072099999999999,3.7127 4.062399999999997,3.6943 4.049799999999998,3.6783 4.0097999999999985,3.6388 3.9897999999999954,3.6105 3.9598999999999975,3.5742000000000003 3.9538999999999973,3.5625 3.950499999999998,3.5343999999999998 3.9458999999999946,3.5262000000000002 3.9336999999999946,3.5173999999999994 3.911199999999994,3.5106 3.906099999999995,3.5069 3.8828999999999994,3.4805 3.870999999999995,3.4715 3.852399999999996,3.4620999999999995 3.812899999999999,3.4348 3.7857999999999947,3.4083999999999994 3.7609999999999957,3.367 3.7382999999999953,3.3256999999999994 3.732999999999997,3.3125 3.7235999999999976,3.3069999999999995 3.717799999999997,3.2999 3.712299999999999,3.282 3.700799999999994,3.2664 3.6835999999999984,3.2553 3.671199999999999,3.2351 3.650499999999994,3.1826999999999996 3.645699999999998,3.165 3.6435999999999993,3.1486 3.6447000000000003,3.1307 3.6428999999999974,3.1170999999999998 3.6385000000000005,3.1071999999999997 3.626799999999996,3.0967000000000002 3.619499999999995,3.0816999999999997 3.612399999999994,3.0725 3.611699999999999,3.0652 3.6200999999999937,3.0347999999999997 3.619399999999999,3.0138999999999996 3.6211999999999946,2.9782 3.626899999999999,2.9525999999999994 3.620199999999997,2.9079999999999995 3.6263999999999967,2.8979 3.6340000000000003,2.8957999999999995 3.6435999999999993,2.8974 3.647299999999994,2.8957999999999995 3.6609999999999943,2.8830999999999998 3.6618999999999957,2.8793999999999995 3.658299999999997,2.8697999999999997 3.659399999999998,2.8449 3.6620999999999952,2.8347999999999995 3.6571,2.8247 3.6531999999999982,2.8057999999999996 3.6680999999999955,2.7884 3.673399999999994,2.7795999999999994 3.6751999999999967,2.7465 3.669699999999999,2.7256 3.664899999999996,2.7154999999999996 3.6466999999999956,2.7006999999999994 3.6402,2.6907999999999994 3.655999999999999,2.6367000000000003 3.655999999999999,2.6234 3.6529999999999987,2.6151 3.654299999999999,2.5931999999999995 3.6571,2.5801 3.6674000000000007,2.5565999999999995 3.6677999999999997,2.5419 3.6731999999999942,2.5337999999999994 3.6831999999999994,2.529 3.6957999999999984,2.5019 3.6975999999999942,2.4915000000000003 3.6965999999999966,2.4555999999999996 3.7047999999999988,2.4315999999999995 3.706399999999995,2.4097999999999997 3.705299999999994,2.3961999999999994 3.697899999999997,2.3740999999999994 3.6973999999999947,2.3587 3.7028999999999996,2.3509 3.723799999999997,2.3419 3.7393,2.3301 3.7530999999999963,2.3255 3.7630999999999943,2.3176999999999994 3.7653999999999996,2.3118999999999996 3.7620000000000005,2.3004 3.747799999999998,2.2827 3.742899999999999,2.2569 3.7376000000000005,2.2463999999999995 3.7239000000000004,2.2264 3.7241,2.2150999999999996 3.7364999999999995,2.2001 3.759599999999999,2.1906 3.769599999999997,2.181 3.7853999999999957,2.154 3.7892999999999972,2.1266 3.796599999999998,2.1098 3.8040999999999983,2.0980999999999996 3.8148999999999944,2.0866 3.8267999999999986,2.0776000000000003 3.8333999999999975,2.0674 3.836599999999997,2.058 3.8447999999999993,2.0437000000000003 3.8589999999999947,2.0327 3.889499999999998,2.0233999999999996 3.8988999999999976,2.0167 3.899499999999996,2.0075000000000003 3.892699999999998,1.9942 3.891299999999994,1.9857000000000002 3.893799999999999,1.9783000000000002 3.904999999999994,1.973 3.949399999999997,1.9728999999999999 3.958999999999996,1.9720000000000002 3.9635999999999996,1.9678000000000002 3.986699999999999,1.9312000000000002 3.9975999999999985,1.9063 4.0108999999999995,1.8838000000000001 4.009,1.8573000000000002 4.022099999999995,1.837 4.037199999999999,1.8264000000000002 4.042400000000001,1.8097999999999999 4.050399999999996,1.8038999999999998 4.0604999999999976,1.8029 4.076099999999997,1.82 4.0852,1.8177999999999999 4.094999999999999,1.8078 4.1004000000000005,1.7900000000000003 4.1081,1.7778000000000003 4.109099999999998,1.7700000000000002 4.104599999999998,1.7578000000000003 4.095699999999994,1.7489999999999999 4.091299999999997,1.7413 4.0867,1.7181 4.082899999999995,1.6549000000000003 4.073899999999995,1.6218000000000001 4.0748999999999995,1.6039999999999999 4.072599999999994,1.5940999999999999 4.063699999999997,1.5797 4.0548,1.5687 4.039099999999998,1.5538 4.035899999999998,1.5473000000000001 4.034499999999994,1.5287 4.024299999999997,1.4887 4.0197,1.4779000000000002 4.010099999999994,1.4678000000000002 4.000999999999998,1.4631999999999998 3.985899999999994,1.4610999999999998 3.9686999999999983,1.4507999999999999 3.9569999999999936,1.4343000000000001 3.941199999999995,1.4202000000000001 3.936399999999999,1.4078000000000002 3.925699999999999,1.3882 3.921599999999998,1.3848 3.915999999999997,1.3734 3.9133999999999958,1.3713 3.8985999999999947,1.3710000000000002 3.895299999999999,1.3694 3.8935999999999993,1.3669 3.896899999999995,1.3598000000000001 3.889799999999994,1.3457000000000001 3.884299999999996,1.3231 3.8784999999999954,1.3198 3.876099999999994,1.3158999999999998 3.8776999999999973,1.3124 3.883099999999999,1.3114999999999999 3.887599999999999,1.3074000000000001 3.879399999999997,1.3022000000000002 3.8763999999999967,1.2979 3.8781999999999996,1.2939 3.883599999999994,1.2906000000000002 3.8876999999999953,1.2919000000000003 3.892799999999994,1.2979 3.8992000000000004,1.2988000000000002 3.9061999999999983,1.2932 3.911199999999994,1.2832999999999999 3.9155999999999977,1.2663 3.9101,1.2571999999999999 3.9135999999999953,1.2474 3.913799999999995,1.2423 3.8992000000000004,1.231 3.8977999999999966,1.2242 3.907499999999999,1.2087 3.911699999999996,1.1905 3.917099999999998,1.176 3.9142999999999972,1.1702000000000001 3.9057999999999993,1.1656000000000002 3.9035999999999973,1.1588 3.9081999999999937,1.1474 3.918699999999994,1.1388 3.9246999999999943,1.1375 3.928599999999996,1.132 3.927199999999999,1.1288000000000002 3.9188999999999936,1.1288000000000002 3.9144000000000005,1.1232 3.9166999999999987,1.1172000000000002 3.9139999999999944,1.1112 3.9142999999999972,1.1041999999999998 3.9114000000000004,1.0965 3.9069000000000003,1.0913000000000002 3.9017999999999944,1.09 3.8996999999999957,1.0871000000000002 3.901999999999994,1.0809 3.9022000000000006,1.0729 3.8944999999999936,1.0513000000000001 3.893499999999996,1.0440000000000003 3.8949,1.0366000000000002 3.899099999999997,1.0336999999999998 3.9058999999999955,1.0329 3.9095999999999975,1.0279 3.904899999999998,1.0103000000000002 3.9024999999999963,1.0062 3.896499999999996,1.0035 3.890099999999997,1.003 3.8870000000000005,1.0005 3.8855999999999966,0.9960000000000002 3.8870999999999967,0.9883 3.8850999999999942,0.9806999999999999 3.888399999999997,0.9692999999999998 3.882399999999997,0.9616 3.8799999999999955,0.9554000000000002 3.8795999999999964,0.9456 3.872499999999995,0.9334 3.869799999999998,0.9324000000000001 3.866099999999996,0.9336 3.8647999999999954,0.9294 3.8658999999999963,0.9251000000000003 3.857699999999994,0.9211000000000003 3.8514999999999944,0.9151 3.8422999999999945,0.9012 3.834299999999999,0.8979000000000001 3.8303999999999974,0.8914000000000002 3.8247,0.8871 3.8207999999999984,0.8798000000000001 3.8134999999999977,0.8527000000000002 3.8064999999999998,0.8394000000000001 3.787799999999997,0.8207000000000002 3.769999999999996,0.7979 3.7689999999999984,0.7956000000000001 3.772999999999996,0.7834999999999999 3.767399999999995,0.7773999999999999 3.763299999999994,0.7676000000000001 3.7563999999999993,0.7436 3.752299999999998,0.7376000000000003 3.7421000000000006,0.7310999999999999 3.7408,0.728 3.7426999999999992,0.7131000000000001 3.729299999999995,0.6770000000000003 3.723799999999997,0.6683000000000001 3.699799999999996,0.6498000000000002 3.698999999999998,0.6420999999999999 3.688199999999995,0.6361000000000001 3.6698999999999984,0.6090000000000002 3.661299999999997,0.6047 3.6484999999999985,0.6073999999999999 3.6447999999999965,0.6037999999999999 3.641999999999996,0.5917999999999999 3.640899999999995,0.5570999999999999 3.641999999999996,0.5370999999999999 3.6529999999999987,0.5223000000000002 3.6554999999999964,0.5145000000000002 3.6535999999999973,0.5092000000000001 3.636499999999998,0.49539999999999984 3.629799999999996,0.49340000000000006 3.618399999999994,0.49340000000000006 3.613599999999998,0.4911000000000001 3.608799999999995,0.48560000000000003 3.596199999999996,0.47819999999999996 3.5638000000000005,0.4760000000000002 3.5618999999999943,0.47370000000000023 3.5559999999999974,0.4781000000000002 3.553199999999997,0.4921 3.548099999999998,0.4993000000000001 3.5381,0.5067999999999999 3.525099999999995,0.5090999999999999 3.5120999999999967,0.5071000000000001 3.4923999999999964,0.5090000000000001 3.4754999999999967,0.5023000000000002 3.4560999999999993,0.4970000000000001 3.4446999999999974,0.49570000000000003 3.433899999999994,0.498 3.402799999999999,0.49919999999999987 3.390899999999995,0.5022 3.3851999999999975,0.5065000000000002 3.3833999999999946,0.5102 3.3877999999999986,0.5307000000000002 3.3857,0.5389999999999999 3.3710999999999984,0.5513999999999999 3.3632999999999953,0.5656999999999999 3.3628999999999962,0.571 3.366799999999998,0.5808000000000002 3.370899999999999,0.5845 3.393899999999995,0.5804000000000002 3.3949,0.5833000000000002 3.3859999999999957,0.5949000000000002 3.385799999999996,0.5997000000000001 3.3969999999999985,0.6151000000000002 3.3980999999999995,0.6213 3.3943999999999974,0.6247 3.3676999999999992,0.6397000000000002 3.343499999999999,0.6476 3.3340999999999994,0.6469000000000003 3.3178999999999945,0.6409 3.3046000000000006,0.6249 3.295899999999996,0.6173 3.2708999999999975,0.6081000000000001 3.2607,0.6028 3.249299999999998,0.6020999999999999 3.2368999999999986,0.6041999999999998 3.2297999999999973,0.6037000000000001 3.2227999999999994,0.6073999999999999 3.216799999999999,0.6129 3.2156999999999982,0.6174999999999999 3.205599999999997,0.6340999999999999 3.1820999999999984,0.6540999999999999 3.161299999999997,0.6754 3.1509,0.6885000000000001 3.1269999999999953,0.7133 3.1177999999999955,0.7259 3.1143999999999963,0.7363000000000002 3.1158999999999963,0.7421 3.143499999999996,0.7706000000000002 3.148999999999994,0.7786000000000002 3.152699999999996,0.7885000000000002 3.152699999999996,0.7948999999999999 3.1466999999999956,0.8013999999999999 3.130499999999998,0.7851000000000001 3.113999999999997,0.7735999999999998 3.1025999999999954,0.7683000000000002 3.087699999999998,0.7639000000000002 3.0770999999999944,0.7571999999999999 3.0723999999999947,0.7573000000000001 3.0023999999999944,0.7012000000000003 2.9838999999999984,0.6913000000000002 2.970399999999998,0.6927000000000001 2.9653999999999954,0.6959000000000002 2.9609999999999985,0.7041999999999999 2.9575999999999993,0.7386999999999999 2.9536999999999978,0.7430999999999999 2.9495999999999967,0.7442 2.9362999999999957,0.7435000000000003 2.9238,0.7401000000000002 2.909799999999997,0.7327000000000001 2.9009,0.724 2.874599999999994,0.6810000000000003 2.8663999999999987,0.6744999999999999 2.8474000000000004,0.6637000000000002 2.8363999999999976,0.6614000000000002 2.8297999999999988,0.6624000000000001 2.8202,0.667 2.799199999999999,0.6838 2.787299999999995,0.6908999999999998 2.7796999999999983,0.6929999999999998 2.7670999999999992,0.6929999999999998 2.750699999999995,0.6854000000000002 2.7286999999999964,0.6561000000000001 2.725999999999999,0.6437000000000002 2.734199999999994,0.6205 2.729699999999994,0.6119999999999999 2.7231999999999985,0.6050000000000002 2.721199999999996,0.5961000000000001 2.721899999999998,0.5816000000000001 2.7164,0.5764000000000002 2.6995000000000005,0.5828 2.6868999999999943,0.5945000000000003 2.6580999999999975,0.6083000000000001 2.6470999999999947,0.6106 2.634999999999998,0.6096999999999999 2.605799999999995,0.6115999999999999 2.5871999999999957,0.6096999999999999 2.5474999999999994,0.6016999999999999 2.494899999999994,0.6022999999999998 2.463099999999997,0.5927 2.4395999999999987,0.5888000000000002 2.407999999999994,0.5867000000000002 2.3974999999999937,0.5831999999999999 2.3725999999999985,0.5713999999999999 2.3584999999999994,0.5682000000000003 2.347699999999996,0.5700999999999998 2.3371999999999957,0.5837000000000001 2.3256999999999977,0.6060000000000001 2.3181999999999974,0.6145000000000003 2.299599999999998,0.6246000000000003 2.254799999999996,0.6329 2.2431999999999945,0.6399999999999999 2.2254000000000005,0.6475000000000002 2.191899999999997,0.6685000000000001 2.164199999999994,0.6910000000000001 2.1477999999999966,0.7005000000000001 2.138399999999997,0.7009000000000001 2.1159999999999997,0.6961000000000002 2.1052999999999997,0.6917000000000002 2.099899999999998,0.6875000000000002 2.0967999999999947,0.6774000000000002 2.099799999999995,0.6702000000000001 "></polygon><polygon points="2.776699999999998,4.1209999999999996 2.7819999999999965,4.119 2.782599999999995,4.1174 2.7775999999999996,4.1193 2.7759,4.1177 2.7716999999999956,4.1185 2.7727999999999966,4.1221 2.776699999999998,4.1209999999999996 "></polygon><polygon points="2.7672999999999988,4.1227 2.7700999999999993,4.1221 2.7700999999999993,4.1207 2.765099999999997,4.1232 2.7672999999999988,4.1227 "></polygon><polygon points="2.7516999999999996,4.129 2.7575999999999965,4.1257 2.757799999999996,4.1243 2.7461999999999946,4.1288 2.7472999999999956,4.1301 2.7516999999999996,4.129 "></polygon><polygon points="1.0867000000000004,4.169 1.0867000000000004,4.1688 1.0864999999999938,4.1688 1.0864999999999938,4.169 1.0867000000000004,4.169 "></polygon><polygon points="2.0867000000000004,4.169 2.0867000000000004,4.1688 2.086499999999994,4.1688 2.086499999999994,4.169 2.0867000000000004,4.169 "></polygon><polygon points="2.801499999999997,4.1068 2.7989999999999995,4.1063 2.798099999999998,4.1082 2.8008999999999986,4.1079 2.801499999999997,4.1068 "></polygon><polygon points="2.7550999999999988,4.131 2.7561999999999998,4.129 2.7530999999999963,4.1293 2.753399999999999,4.1318 2.7550999999999988,4.131 "></polygon><polygon points="2.7058999999999997,4.1371 2.7080999999999946,4.1379 2.7040000000000006,4.1335 2.704499999999996,4.1371 2.7058999999999997,4.1371 "></polygon><polygon points="2.5178999999999974,4.169 2.513999999999996,4.1678999999999995 2.512899999999995,4.1652 2.511499999999998,4.1652 2.514499999999998,4.1696 2.5205999999999946,4.1707 2.5178999999999974,4.169 "></polygon><polygon points="3.146499999999996,4.1635 3.1547999999999945,4.1624 3.1133999999999986,4.1632 3.122,4.1643 3.146499999999996,4.1635 "></polygon>
    </svg>
    