
    <svg width="4.5386999999999995" height="1.9911999999999992" xmlns="http://www.w3.org/2000/svg" xmlns:xlink="http://www.w3.org/1999/xlink" style="transform: scale(1, -1)">
        <polygon points="1.0889999999999995,0.13999999999999346 1.0732999999999997,0.14299999999999358 1.0640999999999998,0.147199999999998 1.0587,0.1529999999999987 1.0586000000000002,0.15619999999999834 1.0682,0.1605999999999952 1.0561999999999996,0.1751999999999967 1.0545999999999998,0.1810999999999936 1.0506000000000002,0.1833999999999989 1.0460000000000003,0.1828000000000003 1.0352999999999994,0.18819999999999482 1.0274,0.20309999999999917 1.0095999999999998,0.21529999999999916 0.9977,0.23209999999999553 0.9913999999999996,0.23449999999999704 0.9851000000000001,0.23930000000000007 0.9859,0.24619999999999465 0.9829999999999997,0.2493999999999943 0.9733,0.24989999999999668 0.9717000000000002,0.24609999999999843 0.9660000000000002,0.24549999999999983 0.9534000000000002,0.23469999999999658 0.9462000000000002,0.2331000000000003 0.9371999999999998,0.22860000000000014 0.9307999999999996,0.2306999999999988 0.9245000000000001,0.23579999999999757 0.9242999999999997,0.24089999999999634 0.9310999999999998,0.25389999999999446 0.9412000000000003,0.25900000000000034 0.9395999999999995,0.2639999999999958 0.9421999999999997,0.2687999999999988 0.9352,0.2762999999999991 0.9344999999999999,0.2792999999999992 0.9447000000000001,0.29169999999999874 0.9447999999999999,0.2989999999999995 0.9500000000000002,0.3096999999999994 0.9425999999999997,0.3112999999999957 0.9325999999999999,0.3090999999999937 0.9265999999999996,0.3111999999999995 0.9043000000000001,0.31169999999999476 0.8968999999999996,0.3135999999999939 0.8921999999999999,0.31739999999999924 0.8877999999999995,0.3178999999999945 0.8643999999999998,0.31559999999999633 0.8582000000000001,0.32039999999999935 0.8502000000000001,0.3206999999999951 0.8464,0.3240999999999943 0.8444000000000003,0.3312999999999988 0.8400999999999996,0.3388999999999953 0.8418999999999999,0.3482999999999947 0.8553999999999995,0.35889999999999844 0.8591999999999995,0.3650999999999982 0.8632999999999997,0.36769999999999925 0.8538999999999994,0.3894999999999982 0.8612000000000002,0.3989999999999938 0.8713999999999995,0.40849999999999653 0.8700000000000001,0.41610000000000014 0.8818000000000001,0.420499999999997 0.8865999999999996,0.4251000000000005 0.8887999999999998,0.4317999999999955 0.9035000000000002,0.43909999999999627 0.9051999999999998,0.4444999999999979 0.9092000000000002,0.44899999999999807 0.9087999999999994,0.45879999999999654 0.9116999999999997,0.4620999999999995 0.9130000000000003,0.46689999999999543 0.9066000000000001,0.4759999999999991 0.8948,0.47289999999999566 0.8754999999999997,0.4831000000000003 0.8666,0.4953999999999965 0.8449999999999998,0.5036999999999949 0.8403,0.5135000000000005 0.8308,0.5152000000000001 0.8186,0.529999999999994 0.8151999999999999,0.5427999999999997 0.8260999999999994,0.5492999999999952 0.8357999999999999,0.5498999999999938 0.8499999999999996,0.5626999999999995 0.8456999999999999,0.570999999999998 0.8490000000000002,0.5765999999999991 0.8533999999999997,0.5778999999999996 0.8666999999999998,0.6061999999999941 0.8702999999999994,0.6096999999999966 0.8628,0.6128 0.8384999999999998,0.6185999999999936 0.7321999999999997,0.6389999999999958 0.5640000000000001,0.6393999999999949 0.4756,0.6007999999999996 0.38009999999999966,0.5878999999999976 0.29849999999999977,0.545499999999997 0.2654999999999994,0.49569999999999936 0.2881,0.4882999999999953 0.28529999999999944,0.4872999999999976 0.2923,0.4834999999999994 0.29579999999999984,0.4743999999999957 0.29499999999999993,0.4709000000000003 0.2825999999999995,0.4649999999999963 0.2827000000000002,0.4579999999999984 0.3083999999999998,0.43249999999999744 0.3130999999999995,0.4311999999999969 0.32209999999999983,0.43430000000000035 0.3388,0.4472999999999985 0.3388,0.4405000000000001 0.35240000000000027,0.43769999999999953 0.3530999999999995,0.4251999999999967 0.33840000000000003,0.4075999999999951 0.3202999999999996,0.3978999999999999 0.2928999999999995,0.38879999999999626 0.2776999999999994,0.38870000000000005 0.22999999999999954,0.3608999999999938 0.23219999999999974,0.35079999999999956 0.21919999999999984,0.340999999999994 0.19669999999999987,0.3345999999999947 0.19099999999999984,0.3293999999999997 0.17929999999999957,0.32399999999999807 0.17049999999999965,0.32319999999999993 0.14170000000000016,0.32809999999999917 0.13560000000000016,0.3334999999999937 0.10090000000000021,0.33379999999999654 0.09299999999999997,0.3304999999999936 0.09169999999999945,0.323599999999999 0.07929999999999993,0.3188999999999993 0.061799999999999855,0.32499999999999574 0.03739999999999988,0.3264999999999958 0.027800000000000047,0.32499999999999574 0.024199999999999555,0.3185000000000002 0.0011999999999998678,0.31059999999999377 0.0,0.3147999999999982 0.010399999999999743,0.32099999999999795 0.008599999999999497,0.32739999999999725 0.017199999999999882,0.3388999999999953 0.026099999999999568,0.35489999999999355 0.03420000000000023,0.3575999999999979 0.03709999999999969,0.3674999999999997 0.007600000000000051,0.3796999999999997 0.01529999999999987,0.384999999999998 0.018299999999999983,0.39739999999999753 0.036599999999999966,0.39989999999999526 0.03770000000000007,0.4030999999999949 0.046800000000000175,0.4052999999999969 0.06059999999999999,0.41449999999999676 0.07840000000000025,0.4198999999999984 0.09079999999999977,0.4146000000000001 0.1059000000000001,0.4275999999999982 0.11439999999999984,0.42439999999999856 0.13199999999999967,0.42969999999999686 0.1474000000000002,0.42139999999999844 0.15979999999999972,0.4270999999999958 0.16639999999999944,0.43599999999999994 0.1639999999999997,0.4462999999999937 0.1598999999999995,0.44839999999999947 0.1463000000000001,0.46749999999999403 0.1634000000000002,0.47799999999999443 0.16300000000000026,0.49039999999999395 0.16829999999999945,0.5 0.18159999999999954,0.5157999999999987 0.1841999999999997,0.5225999999999971 0.19310000000000027,0.5257999999999967 0.20150000000000023,0.5345999999999975 0.2123999999999997,0.5501999999999967 0.20489999999999942,0.5593000000000004 0.19099999999999984,0.5625 0.1642999999999999,0.5786999999999978 0.15039999999999942,0.582499999999996 0.14139999999999997,0.590999999999994 0.10789999999999988,0.5989000000000004 0.13009999999999966,0.6257999999999981 0.11880000000000024,0.6370000000000005 0.11770000000000014,0.6470999999999947 0.14119999999999955,0.6651999999999987 0.16469999999999985,0.6995999999999967 0.18109999999999982,0.7123999999999953 0.19059999999999988,0.7129999999999939 0.1993999999999998,0.7282999999999973 0.15690000000000026,0.757799999999996 0.15719999999999956,0.7612999999999985 0.18159999999999954,0.7790999999999997 0.2051999999999996,0.7923999999999936 0.21899999999999942,0.7966999999999942 0.3117000000000001,0.859499999999997 0.3144,0.8658999999999963 0.3865999999999996,0.893499999999996 0.4013,0.9024999999999963 0.4040999999999997,0.9057999999999993 0.4090999999999996,0.904999999999994 0.4181999999999997,0.9131 0.43179999999999996,0.9172999999999973 0.4390999999999998,0.9301999999999992 0.46799999999999997,0.9371999999999971 0.47999999999999954,0.9436999999999998 0.4946999999999999,0.9578999999999951 0.5011000000000001,0.9712999999999994 0.4783999999999997,0.9850999999999956 0.4748999999999999,0.9949999999999974 0.4836999999999998,0.9986999999999995 0.48580000000000023,1.0126999999999953 0.5037000000000003,1.0342999999999947 0.5084,1.0725999999999942 0.47689999999999966,1.1104999999999947 0.4885999999999999,1.1160999999999959 0.5164,1.1395999999999944 0.5405999999999995,1.1569000000000003 0.5499,1.1487999999999943 0.6063999999999998,1.161999999999999 0.6399999999999997,1.1751999999999967 0.6551,1.1736999999999966 0.6777999999999995,1.1813000000000002 0.6981000000000002,1.2050999999999945 0.7218,1.2179000000000002 0.7417999999999996,1.2210999999999999 0.7599,1.233699999999999 0.7401999999999997,1.2491999999999948 0.7547999999999995,1.2676999999999978 0.7874999999999996,1.2763999999999953 0.7843999999999998,1.2896999999999963 0.7880000000000003,1.2922999999999973 0.8080999999999996,1.3024999999999949 0.8460000000000001,1.3121999999999971 0.8968999999999996,1.3425999999999974 0.8989000000000003,1.345799999999997 0.8872999999999998,1.3513999999999982 0.8883000000000001,1.3547999999999973 0.9158999999999997,1.3682999999999979 0.9260999999999999,1.3836999999999975 0.9369999999999994,1.3904999999999959 0.9657999999999998,1.4036999999999935 0.9737,1.4122999999999948 0.9833999999999996,1.4137999999999948 0.9864999999999995,1.4201999999999941 0.9989999999999997,1.4258999999999986 0.9910999999999994,1.4343000000000004 0.9948999999999995,1.4505999999999943 0.9847999999999999,1.469299999999997 0.9909999999999997,1.4735999999999976 1.016,1.4747999999999948 1.0244,1.4786999999999964 1.0396999999999998,1.4794999999999945 1.0522999999999998,1.4853999999999985 1.0594000000000001,1.4983000000000004 1.0535999999999994,1.507099999999994 1.0779999999999994,1.5107999999999961 1.0877999999999997,1.5096999999999952 1.0987,1.5163999999999973 1.0968,1.519599999999997 1.1041999999999996,1.5245999999999995 1.0956000000000001,1.5329999999999941 1.0942999999999996,1.5399999999999991 1.0920999999999994,1.5431999999999988 1.0751999999999997,1.5512999999999977 1.0553,1.5542999999999978 1.0431999999999997,1.5475999999999956 0.9643999999999995,1.5382999999999996 0.9448999999999996,1.5414999999999992 0.9237000000000002,1.5351 0.9276999999999997,1.553999999999995 0.9388999999999994,1.5643999999999991 0.9559999999999995,1.5692999999999984 0.9534000000000002,1.5788999999999973 0.9596999999999998,1.582499999999996 0.9611999999999998,1.5882000000000005 0.9813999999999998,1.5893999999999977 0.9839000000000002,1.5923999999999978 0.9830999999999994,1.6163999999999987 1.0065,1.617999999999995 1.0141999999999998,1.629799999999996 1.0337999999999994,1.6307999999999936 1.0420999999999996,1.634299999999996 1.0438999999999998,1.6469999999999985 1.0356999999999994,1.6490999999999971 1.0358999999999998,1.6544999999999987 1.0324,1.655699999999996 1.0324999999999998,1.668299999999995 1.0267999999999997,1.6769999999999996 1.0682999999999998,1.6868999999999943 1.0800999999999998,1.6816999999999993 1.1227,1.6717999999999975 1.1406,1.6777999999999977 1.1544999999999996,1.6775999999999982 1.1742,1.685699999999997 1.1924000000000001,1.6805999999999983 1.2029999999999994,1.6736000000000004 1.2127999999999997,1.6721999999999966 1.2420999999999998,1.6762999999999977 1.2462,1.6743999999999986 1.2371999999999996,1.6716999999999942 1.2316000000000003,1.6661999999999964 1.2218999999999998,1.6507999999999967 1.2222,1.6407999999999987 1.2161,1.6281999999999996 1.2185999999999995,1.625399999999999 1.2500999999999998,1.617599999999996 1.2671999999999999,1.6221999999999994 1.2797999999999998,1.6195999999999984 1.2819000000000003,1.6130999999999958 1.2909999999999995,1.6037999999999997 1.3479,1.6209999999999951 1.3827999999999996,1.6233000000000004 1.3949999999999996,1.6174999999999997 1.4302000000000001,1.6146999999999991 1.4441999999999995,1.6180999999999983 1.4664000000000001,1.6304999999999978 1.4740000000000002,1.641999999999996 1.4885000000000002,1.644599999999997 1.4973999999999998,1.6562999999999946 1.4750999999999994,1.664199999999994 1.4650999999999996,1.6629000000000005 1.4787,1.6806999999999945 1.5194,1.6631 1.5294999999999996,1.6646 1.5447999999999995,1.6738 1.5518,1.6788999999999987 1.5540000000000003,1.6891999999999996 1.5416999999999996,1.7038999999999973 1.5473999999999997,1.6982 1.5624000000000002,1.6988999999999947 1.5674000000000001,1.6997 1.5739,1.708999999999996 1.5732,1.7123999999999953 1.5648999999999997,1.7160999999999973 1.5462999999999996,1.7114999999999938 1.5428999999999995,1.7179000000000002 1.5484,1.7256999999999962 1.5518,1.7274999999999991 1.5613000000000001,1.7284999999999968 1.6002,1.7475999999999985 1.6048999999999998,1.7568999999999946 1.6186999999999996,1.7587999999999937 1.6281999999999996,1.7583999999999946 1.6353,1.7789000000000001 1.6330999999999998,1.7723999999999975 1.6487999999999996,1.7674999999999983 1.6483999999999996,1.7605000000000004 1.6631999999999998,1.759599999999999 1.6718000000000002,1.7638999999999996 1.6833999999999998,1.7729999999999961 1.6871,1.7739999999999938 1.6857999999999995,1.7768999999999977 1.6897000000000002,1.7796999999999983 1.7111,1.7746999999999957 1.7188999999999997,1.7746999999999957 1.7268,1.7812999999999946 1.7374999999999998,1.7831999999999937 1.7339000000000002,1.7802999999999969 1.7276999999999996,1.7789000000000001 1.7156000000000002,1.7700999999999993 1.7158999999999995,1.767799999999994 1.7245999999999997,1.7653999999999996 1.7275999999999998,1.756699999999995 1.7333999999999996,1.7541999999999973 1.7298,1.7483000000000004 1.7272999999999996,1.7513000000000005 1.7272999999999996,1.7539999999999978 1.7222,1.7516999999999996 1.7189999999999994,1.748199999999997 1.7210999999999999,1.7476999999999947 1.7202000000000002,1.746299999999998 1.7161999999999997,1.7464999999999975 1.7161999999999997,1.748199999999997 1.7139999999999995,1.7485999999999962 1.7081,1.7480999999999938 1.6920000000000002,1.742599999999996 1.6852,1.7438999999999965 1.6803,1.7468000000000004 1.678,1.7438000000000002 1.6841999999999997,1.7405999999999935 1.6931000000000003,1.7308999999999983 1.7053000000000003,1.7273999999999958 1.7115,1.7188999999999979 1.7265999999999995,1.7151999999999958 1.7402999999999995,1.7154999999999987 1.763,1.724499999999999 1.795,1.7271999999999963 1.8015999999999996,1.7309999999999945 1.8263999999999996,1.7358999999999938 1.8393999999999995,1.7400999999999982 1.8449999999999998,1.746299999999998 1.8544999999999998,1.7515999999999963 1.8601,1.7657999999999987 1.8631000000000002,1.7698999999999998 1.867,1.770699999999998 1.8765999999999998,1.7693999999999974 1.8803,1.766299999999994 1.8856000000000002,1.7648999999999972 1.8937999999999997,1.7654999999999959 1.9056999999999995,1.7704999999999984 1.9135,1.771499999999996 1.9352999999999998,1.7702999999999989 1.9477000000000002,1.7627999999999986 1.9547999999999996,1.753699999999995 1.9553000000000003,1.7494999999999976 1.9512,1.7419999999999973 1.9554,1.7339999999999947 1.9609999999999994,1.7304999999999993 1.9779,1.7294999999999945 1.9870999999999999,1.7264999999999944 1.9921999999999995,1.727799999999995 1.9963999999999995,1.7371999999999943 2.003,1.7409999999999997 2.0198,1.7379999999999995 2.0454,1.7389999999999972 2.0584,1.734099999999998 2.0657000000000005,1.7331999999999965 2.0875999999999992,1.7371999999999943 2.1032,1.7460999999999984 2.1114000000000006,1.7471999999999994 2.1153000000000004,1.746699999999997 2.126499999999999,1.740399999999994 2.1336000000000004,1.7404999999999973 2.144099999999999,1.7464999999999975 2.1469999999999994,1.7590999999999966 2.1534000000000004,1.7649999999999935 2.1595000000000004,1.7665999999999968 2.179099999999999,1.766299999999994 2.1818999999999997,1.768499999999996 2.182199999999999,1.7729999999999961 2.1925,1.778099999999995 2.208799999999999,1.7767999999999944 2.217999999999999,1.784399999999998 2.229399999999999,1.7881999999999962 2.2406999999999995,1.8010999999999981 2.249999999999999,1.8036999999999992 2.2632000000000003,1.8004999999999995 2.2681999999999993,1.789199999999994 2.2704999999999993,1.7877999999999972 2.2738000000000005,1.788499999999999 2.2824,1.7953999999999937 2.3000999999999996,1.7978999999999985 2.304099999999999,1.7974999999999994 2.3089000000000004,1.792199999999994 2.3228999999999997,1.794399999999996 2.3328999999999995,1.792899999999996 2.3413999999999993,1.7883999999999958 2.339199999999999,1.7774999999999963 2.3418,1.771799999999999 2.3547000000000002,1.765899999999995 2.3660000000000005,1.7565999999999988 2.3723,1.7538999999999945 2.402499999999999,1.7527999999999935 2.426899999999999,1.7483000000000004 2.4295999999999998,1.7491999999999948 2.4332000000000003,1.755599999999994 2.4425999999999997,1.7598999999999947 2.472599999999999,1.7495999999999938 2.4818000000000007,1.7498999999999967 2.4994000000000005,1.7550999999999988 2.5095,1.755199999999995 2.5208000000000004,1.7605999999999966 2.5303999999999993,1.7601999999999975 2.5384,1.7638999999999996 2.5325999999999995,1.7704999999999984 2.5248,1.767799999999994 2.5108000000000006,1.7668999999999997 2.5087,1.770699999999998 2.5042999999999997,1.7712000000000003 2.5050999999999997,1.7752999999999943 2.5009000000000006,1.779999999999994 2.5004999999999997,1.7849999999999966 2.5124000000000004,1.7866 2.5120999999999993,1.7881 2.515299999999999,1.7892999999999972 2.5142999999999995,1.7912999999999997 2.5188999999999995,1.7903999999999982 2.5217,1.793299999999995 2.5230000000000006,1.7978999999999985 2.527,1.7964999999999947 2.5376000000000003,1.7971999999999966 2.5522,1.8001999999999967 2.5512000000000006,1.8064999999999998 2.559,1.8060999999999936 2.5567,1.8081999999999994 2.5591999999999997,1.8097999999999956 2.559499999999999,1.8164999999999978 2.5606,1.8167999999999935 2.5652,1.8170000000000002 2.569399999999999,1.8143999999999991 2.5827999999999998,1.8135999999999939 2.5824000000000007,1.8089999999999975 2.586899999999999,1.8097999999999956 2.588,1.8078999999999965 2.6018999999999997,1.806999999999995 2.606699999999999,1.7994999999999948 2.6132,1.7998999999999938 2.6148,1.7951999999999941 2.6183000000000005,1.7945999999999955 2.6102999999999996,1.7926000000000002 2.6099000000000006,1.7881 2.6055,1.7838999999999956 2.606699999999999,1.7822999999999993 2.6103999999999994,1.7797999999999945 2.6154,1.7808999999999955 2.6193999999999997,1.7775999999999996 2.6224999999999996,1.7792999999999992 2.6263999999999994,1.7787999999999968 2.628099999999999,1.7823999999999955 2.6316999999999995,1.7844999999999942 2.634099999999999,1.7838999999999956 2.6366000000000005,1.7888999999999982 2.639499999999999,1.7881999999999962 2.648699999999999,1.7959999999999994 2.648599999999999,1.7996999999999943 2.6413,1.811799999999998 2.6396000000000006,1.8257999999999939 2.6454999999999993,1.8286999999999978 2.6483,1.833999999999996 2.6515999999999993,1.835099999999997 2.6568999999999994,1.8318999999999974 2.657799999999999,1.8267999999999986 2.6545999999999994,1.8245999999999967 2.6477999999999993,1.823999999999998 2.6468999999999996,1.8218999999999994 2.6506999999999996,1.8196999999999974 2.6612,1.8207999999999984 2.668499999999999,1.8249999999999957 2.6727999999999996,1.8343999999999951 2.6633000000000004,1.8418999999999954 2.6583999999999994,1.8441999999999936 2.6567,1.8433999999999955 2.6528,1.8460999999999999 2.6497,1.851699999999994 2.6505,1.8547999999999973 2.6419000000000006,1.8554999999999993 2.6376999999999997,1.8499999999999943 2.6316999999999995,1.8491999999999962 2.6216999999999997,1.844299999999997 2.6148,1.8476 2.6087,1.847999999999999 2.6076000000000006,1.852799999999995 2.604399999999999,1.8530999999999977 2.583899999999999,1.8477999999999994 2.5829999999999993,1.8459999999999965 2.5852999999999993,1.8397999999999968 2.5775999999999994,1.8425999999999974 2.5773,1.8459000000000003 2.570899999999999,1.8430999999999997 2.5719000000000003,1.8402999999999992 2.573899999999999,1.8396999999999935 2.5730999999999993,1.8376999999999981 2.577799999999999,1.8326999999999956 2.5753999999999992,1.8284999999999982 2.5667999999999997,1.8275999999999968 2.5567,1.830299999999994 2.5372999999999992,1.8296999999999954 2.5382000000000007,1.8247999999999962 2.5362999999999998,1.8247999999999962 2.533499999999999,1.8251999999999953 2.5311999999999992,1.8277999999999963 2.5265999999999993,1.8268999999999949 2.524399999999999,1.8318999999999974 2.517599999999999,1.832499999999996 2.516799999999999,1.830599999999997 2.5216000000000003,1.8273999999999972 2.5149999999999997,1.8249999999999957 2.5158999999999994,1.823599999999999 2.5217,1.8223999999999947 2.5173999999999994,1.820999999999998 2.5141,1.821799999999996 2.5100000000000007,1.8254999999999981 2.5077000000000007,1.8312999999999988 2.5111,1.838799999999999 2.5093000000000005,1.8397999999999968 2.5012999999999996,1.8354 2.4974999999999996,1.8374999999999986 2.489,1.8364999999999938 2.4806,1.8400999999999996 2.477199999999999,1.8438999999999979 2.4676,1.849499999999999 2.4562999999999997,1.8489999999999966 2.4494999999999996,1.8571999999999989 2.4524999999999997,1.8613999999999962 2.4600999999999997,1.8623999999999938 2.4645,1.8665999999999983 2.4560000000000004,1.8769999999999953 2.4502999999999995,1.8781999999999996 2.4483000000000006,1.8807999999999936 2.4607,1.8926999999999978 2.4698,1.893899999999995 2.4806,1.9009 2.485499999999999,1.9003999999999976 2.4841000000000006,1.9024999999999963 2.4890999999999996,1.905699999999996 2.4989,1.904999999999994 2.4986000000000006,1.9099000000000004 2.500799999999999,1.9126999999999938 2.4966999999999997,1.9131 2.4936999999999996,1.9206999999999965 2.4949000000000003,1.923099999999998 2.4997,1.9254999999999995 2.5001000000000007,1.9313000000000002 2.5104999999999995,1.936399999999999 2.517599999999999,1.9471999999999952 2.5329000000000006,1.955999999999996 2.5399000000000003,1.953399999999995 2.5460000000000003,1.9562999999999988 2.5528000000000004,1.9568999999999974 2.554099999999999,1.9588999999999999 2.563999999999999,1.9531999999999954 2.565599999999999,1.956799999999994 2.5704000000000002,1.960799999999999 2.5765000000000002,1.9606999999999957 2.5965,1.9672999999999945 2.6071,1.9632999999999967 2.6064,1.9605999999999995 2.621199999999999,1.9643999999999977 2.6183000000000005,1.9697999999999993 2.618899999999999,1.972299999999997 2.6057999999999995,1.9754000000000005 2.6073999999999993,1.9879999999999995 2.6117999999999997,1.9911999999999992 2.6169000000000002,1.9886999999999944 2.6191000000000004,1.9823999999999984 2.6315,1.9853999999999985 2.6366000000000005,1.9813999999999936 2.6446999999999994,1.985599999999998 2.6552999999999995,1.9846000000000004 2.6625000000000005,1.9809999999999945 2.6617000000000006,1.9786000000000001 2.6658999999999997,1.9773999999999958 2.6643,1.971499999999999 2.6595000000000004,1.9697999999999993 2.6588000000000003,1.9664999999999964 2.6627,1.960799999999999 2.6672000000000002,1.9599999999999937 2.6633000000000004,1.9503999999999948 2.6689999999999996,1.9465999999999966 2.6716000000000006,1.9420000000000002 2.6755000000000004,1.9408999999999992 2.6862000000000004,1.9480000000000004 2.6884000000000006,1.9469999999999956 2.6914000000000007,1.9497 2.6892000000000005,1.9512 2.6969000000000003,1.9560999999999993 2.6919999999999993,1.956799999999994 2.6938000000000004,1.9639999999999986 2.6933,1.966699999999996 2.6892000000000005,1.9698999999999955 2.6894,1.9728999999999957 2.6933,1.981199999999994 2.7009,1.982999999999997 2.7041999999999993,1.9789999999999992 2.7014000000000005,1.974499999999999 2.7060000000000004,1.974499999999999 2.7115,1.970399999999998 2.7199999999999998,1.9683999999999955 2.7247999999999992,1.9694000000000003 2.7239999999999993,1.9677999999999969 2.725599999999999,1.9669999999999987 2.7267,1.9598999999999975 2.7321999999999997,1.956399999999995 2.7274000000000003,1.9532999999999987 2.7322999999999995,1.9446999999999974 2.732499999999999,1.9409999999999954 2.739,1.9383999999999943 2.7429999999999994,1.942299999999996 2.7506999999999993,1.9462999999999937 2.7536999999999994,1.9458999999999946 2.7580999999999998,1.9480999999999966 2.771,1.9450000000000003 2.7745000000000006,1.9423999999999992 2.7730000000000006,1.9405999999999963 2.7848999999999995,1.934599999999996 2.7853000000000003,1.930899999999994 2.783499999999999,1.9291999999999945 2.7672999999999996,1.9281999999999968 2.7641,1.9236999999999966 2.7581999999999995,1.9213999999999984 2.7551999999999994,1.9127999999999972 2.7618,1.9042999999999992 2.7687,1.9039999999999964 2.7686,1.9027999999999992 2.7771,1.9010999999999996 2.7802,1.8988999999999976 2.7757999999999994,1.8941999999999979 2.7702999999999998,1.8793999999999969 2.7718999999999996,1.875399999999999 2.7998000000000003,1.8724999999999952 2.8114999999999997,1.8684999999999974 2.8175999999999997,1.863899999999994 2.8288,1.8593999999999937 2.8397999999999994,1.857999999999997 2.8372,1.8626000000000005 2.8419,1.872399999999999 2.8440000000000003,1.8743999999999943 2.8500000000000005,1.874299999999998 2.854,1.8759999999999977 2.8502,1.8791999999999973 2.8416000000000006,1.879799999999996 2.8416000000000006,1.8855999999999966 2.8359999999999994,1.887599999999999 2.813299999999999,1.8895999999999944 2.8167,1.8958999999999975 2.8143000000000002,1.8977999999999966 2.8137,1.9007999999999967 2.8212,1.9035999999999973 2.8202000000000007,1.9054000000000002 2.8245999999999993,1.9043999999999954 2.8289,1.9099000000000004 2.8304,1.908999999999999 2.8357,1.9114999999999966 2.842999999999999,1.909799999999997 2.8404,1.9172999999999973 2.8503,1.9209999999999994 2.8523000000000005,1.9137999999999948 2.8557999999999995,1.9131 2.8487,1.907199999999996 2.856699999999999,1.9063999999999979 2.8625,1.9003999999999976 2.868899999999999,1.9015999999999948 2.8701,1.9005999999999972 2.8626999999999994,1.8955999999999946 2.8693,1.8936999999999955 2.8739999999999997,1.894599999999997 2.8775000000000004,1.8972999999999942 2.887199999999999,1.8947999999999965 2.8897000000000004,1.893899999999995 2.8922,1.8861999999999952 2.9104,1.8881999999999977 2.9166,1.8868999999999971 2.9135999999999997,1.8846999999999952 2.9198999999999993,1.8795999999999964 2.9182999999999995,1.8770999999999987 2.9071000000000007,1.8751999999999995 2.910099999999999,1.8791999999999973 2.9072000000000005,1.8811999999999998 2.9045999999999994,1.8788999999999945 2.9041000000000006,1.880899999999997 2.902,1.8814999999999955 2.899,1.879799999999996 2.8953999999999995,1.880199999999995 2.8946999999999994,1.8773999999999944 2.8989000000000003,1.8770999999999987 2.9014999999999995,1.875 2.8999999999999995,1.8718000000000004 2.894799999999999,1.8682999999999979 2.8945,1.863899999999994 2.904699999999999,1.8629999999999995 2.9173999999999998,1.8528999999999982 2.9198999999999993,1.8433999999999955 2.9189999999999996,1.8369 2.9271000000000003,1.8363999999999976 2.9424,1.8310999999999993 2.9874,1.8391999999999982 3.0582000000000003,1.8684999999999974 3.0760999999999994,1.8691999999999993 3.1152000000000006,1.8622999999999976 3.1416999999999993,1.8613999999999962 3.167699999999999,1.8506999999999962 3.1832000000000003,1.8466999999999985 3.1922000000000006,1.8502999999999972 3.2016,1.8486999999999938 3.2040999999999995,1.8449999999999989 3.2144000000000004,1.8375999999999948 3.2192,1.8384999999999962 3.2197000000000005,1.8365999999999971 3.225599999999999,1.8384 3.2250000000000005,1.8400999999999996 3.2297000000000002,1.8403999999999954 3.3198,1.838799999999999 3.380399999999999,1.8134999999999977 3.428399999999999,1.795899999999996 3.483199999999999,1.772599999999997 3.523599999999999,1.7496999999999971 3.5683,1.727799999999995 3.6064,1.7226 3.604,1.7034999999999982 3.605999999999999,1.6799999999999997 3.6094999999999997,1.6759999999999948 3.6261,1.6662999999999997 3.6391,1.646799999999999 3.647099999999999,1.645399999999995 3.6491999999999996,1.6472999999999942 3.6507999999999994,1.6531999999999982 3.653199999999999,1.6539000000000001 3.6665,1.6407999999999987 3.6892000000000005,1.6390999999999991 3.702699999999999,1.6358999999999995 3.7032,1.632399999999997 3.690599999999999,1.6228999999999942 3.6885000000000003,1.6173000000000002 3.694399999999999,1.6043999999999983 3.6957999999999993,1.5878999999999976 3.6985,1.5876999999999981 3.7041999999999993,1.5808999999999997 3.7173000000000007,1.5752999999999986 3.7183,1.5725999999999942 3.7173000000000007,1.5643999999999991 3.708799999999999,1.5559999999999974 3.7009,1.5520999999999958 3.6795,1.550699999999999 3.6704,1.5483999999999938 3.6686000000000005,1.5494999999999948 3.6481000000000003,1.5335999999999999 3.6436,1.5283999999999978 3.6321000000000003,1.5005999999999986 3.6256999999999993,1.4943999999999988 3.6007000000000007,1.4817999999999998 3.5954000000000006,1.470099999999995 3.5903,1.4632999999999967 3.5751999999999997,1.454499999999996 3.575,1.4442999999999984 3.5666,1.4286999999999992 3.5474000000000006,1.4058999999999955 3.5432999999999995,1.393899999999995 3.533599999999999,1.380199999999995 3.5302999999999995,1.3644999999999996 3.5330000000000004,1.3528999999999982 3.5369,1.343599999999995 3.5576999999999996,1.3174999999999955 3.5628,1.3026999999999944 3.5623999999999993,1.2967999999999975 3.5672000000000006,1.2864999999999966 3.5672000000000006,1.2768999999999977 3.5636,1.2697000000000003 3.5583,1.2649999999999935 3.5393,1.2561999999999998 3.5177000000000005,1.2490999999999985 3.5164999999999997,1.2439999999999998 3.5203999999999995,1.2358999999999938 3.5263999999999998,1.2357999999999976 3.5286,1.2324999999999946 3.5317999999999996,1.2312999999999974 3.5377,1.2368999999999986 3.5440999999999994,1.235599999999998 3.5478999999999994,1.2372999999999976 3.5585999999999993,1.238199999999999 3.5651,1.2415999999999983 3.5859999999999994,1.2463999999999942 3.5988999999999995,1.2410999999999959 3.6009,1.2327999999999975 3.6055,1.2301000000000002 3.615899999999999,1.234499999999997 3.6352,1.2374999999999972 3.6515999999999993,1.2443999999999988 3.6612999999999998,1.2368999999999986 3.676799999999999,1.234499999999997 3.6855,1.2371999999999943 3.6892000000000005,1.2430999999999983 3.7023,1.241499999999995 3.726,1.2453999999999965 3.7261999999999995,1.2420999999999935 3.7322999999999995,1.2384999999999948 3.7417000000000007,1.2356999999999942 3.7517000000000005,1.237099999999998 3.7527,1.2348999999999961 3.7497999999999996,1.2335999999999956 3.7511,1.2312999999999974 3.7624000000000004,1.2265999999999977 3.7860000000000005,1.2258999999999958 3.7893,1.2243999999999957 3.7894999999999994,1.2224000000000004 3.7922000000000002,1.2201999999999984 3.807199999999999,1.2205999999999975 3.813299999999999,1.222299999999997 3.8290999999999995,1.2217999999999947 3.8359999999999994,1.2149999999999963 3.8455000000000004,1.2123999999999953 3.8517,1.206799999999994 3.8677,1.2030999999999992 3.8748999999999993,1.1975999999999942 3.8777,1.1977999999999938 3.880299999999999,1.1957999999999984 3.8838999999999997,1.1958999999999946 3.8823,1.1961999999999975 3.8852,1.1983999999999995 3.8968999999999996,1.1997 3.9011000000000005,1.2020999999999944 3.9038999999999993,1.2064999999999984 3.9204,1.204499999999996 3.9235999999999995,1.2027999999999963 3.924499999999999,1.2004999999999981 3.9152999999999993,1.1962999999999937 3.916199999999999,1.1935000000000002 3.9149000000000003,1.1928999999999945 3.9173999999999998,1.1895999999999987 3.932899999999999,1.1839999999999975 3.933699999999999,1.1773999999999987 3.9364999999999997,1.1736000000000004 3.9353000000000007,1.171599999999998 3.9289999999999994,1.168699999999994 3.9272,1.1664999999999992 3.9287,1.1640999999999977 3.9198999999999993,1.1569000000000003 3.9196999999999997,1.1507999999999967 3.9149000000000003,1.146499999999996 3.9228999999999994,1.1402999999999963 3.9212999999999996,1.1348999999999947 3.9189999999999996,1.1336999999999975 3.9209000000000005,1.130899999999997 3.920699999999999,1.1239999999999952 3.9249,1.1233999999999966 3.9218,1.1213999999999942 3.9203,1.1178999999999988 3.9249,1.1182999999999979 3.9286000000000003,1.1162999999999954 3.9386,1.1148999999999987 3.9441999999999995,1.110599999999998 3.950499999999999,1.1085999999999956 3.9564999999999992,1.1092999999999975 3.965699999999999,1.1021 3.9814,1.0965999999999951 3.9903000000000004,1.0955999999999975 4.0032000000000005,1.0992999999999995 4.0073,1.0956999999999937 4.010699999999999,1.0954999999999941 4.021999999999999,1.0991 4.025899999999999,1.0951999999999984 4.026599999999999,1.089499999999994 4.031,1.088799999999999 4.034299999999999,1.0856999999999957 4.0416,1.0852999999999966 4.0501,1.082099999999997 4.062,1.0848999999999975 4.063999999999999,1.0819999999999936 4.0706,1.0790999999999968 4.076300000000001,1.0711999999999975 4.0835,1.0690999999999988 4.0866,1.0636999999999972 4.096099999999999,1.0599999999999952 4.096799999999999,1.0578999999999965 4.0947000000000005,1.0541999999999945 4.095400000000001,1.0471999999999966 4.103699999999999,1.043999999999997 4.1316,1.044399999999996 4.1368,1.0412999999999997 4.1361,1.0346999999999937 4.144699999999999,1.0294999999999987 4.1496,1.0240999999999971 4.1633000000000004,1.0274 4.1641,1.0305999999999997 4.1673,1.0316999999999936 4.183599999999999,1.0305999999999997 4.191299999999999,1.0346999999999937 4.198799999999999,1.0335999999999999 4.2016,1.031099999999995 4.2069,1.0341999999999985 4.2132,1.0338999999999956 4.2159,1.0368999999999957 4.2261999999999995,1.0387999999999948 4.2277,1.042199999999994 4.235399999999999,1.046199999999999 4.237799999999999,1.0496999999999943 4.243199999999999,1.0498999999999938 4.248,1.0478999999999985 4.2634,1.0504999999999995 4.2769,1.0494999999999948 4.2749999999999995,1.0526999999999944 4.2769,1.0540999999999983 4.2762,1.0589999999999975 4.278099999999999,1.0610999999999962 4.278999999999999,1.0678999999999945 4.2718,1.0734999999999957 4.269900000000001,1.0792000000000002 4.277499999999999,1.0848999999999975 4.281199999999999,1.0989000000000004 4.2862,1.1021 4.2848,1.1145999999999958 4.311100000000001,1.112099999999998 4.3351999999999995,1.106499999999997 4.3411,1.103199999999994 4.345,1.1078999999999937 4.3603,1.108399999999996 4.361400000000001,1.1141999999999967 4.3503,1.1235 4.352799999999999,1.1266999999999996 4.3518,1.1296999999999997 4.353599999999999,1.1333999999999946 4.3687,1.135399999999997 4.371999999999999,1.1372 4.3739,1.1421999999999954 4.3737,1.1474999999999937 4.3783,1.1526999999999958 4.378699999999999,1.1557999999999993 4.384899999999999,1.1616 4.384199999999999,1.1646 4.389,1.1662999999999997 4.3907,1.1727999999999952 4.3991999999999996,1.1755999999999958 4.416300000000001,1.1738999999999962 4.4288,1.1831999999999994 4.4334999999999996,1.183799999999998 4.4425,1.1803999999999988 4.4464,1.1740999999999957 4.451,1.1717999999999975 4.4567000000000005,1.1658999999999935 4.4647,1.1631999999999962 4.4708,1.1588999999999956 4.4713,1.1543999999999954 4.467199999999999,1.1487999999999943 4.4662,1.1439999999999984 4.4706,1.1405999999999992 4.4934,1.1355999999999966 4.4997,1.136099999999999 4.5011,1.1340999999999966 4.512999999999999,1.1302999999999983 4.5203999999999995,1.124299999999998 4.533599999999999,1.1209999999999951 4.5295,1.1146999999999991 4.5325,1.109499999999997 4.5295,1.1018999999999934 4.530399999999999,1.0986999999999938 4.522799999999999,1.0937999999999946 4.5219,1.0867000000000004 4.5194,1.0843999999999951 4.5193,1.0774999999999935 4.5089,1.0674999999999955 4.5134,1.0642999999999958 4.5155,1.056199999999997 4.512199999999999,1.0452999999999975 4.5139000000000005,1.0381 4.516699999999999,1.0394999999999968 4.5181,1.0335999999999999 4.5171,1.0294999999999987 4.511,1.0234999999999985 4.5125,1.0179999999999936 4.5057,1.0150999999999968 4.5033,1.0120000000000005 4.505,1.0065999999999988 4.5013,1.0026999999999973 4.502299999999999,0.9964999999999975 4.4952,0.9837999999999951 4.4872000000000005,0.9801999999999964 4.476,0.9783999999999935 4.473999999999999,0.9756999999999962 4.4738999999999995,0.9712999999999994 4.470199999999999,0.9688999999999979 4.4813,0.9617000000000004 4.4876,0.9546999999999954 4.488,0.9356999999999971 4.4758000000000004,0.9320999999999984 4.4616,0.9233999999999938 4.457999999999999,0.9187999999999974 4.4492,0.9141999999999939 4.4563999999999995,0.9099999999999966 4.459700000000001,0.9044999999999987 4.4646,0.9010999999999996 4.4638,0.8935999999999993 4.4609,0.8894999999999982 4.4502,0.8872999999999962 4.440599999999999,0.8750999999999962 4.430699999999999,0.8718000000000004 4.436599999999999,0.8634999999999948 4.4385,0.8455999999999975 4.4472,0.8304999999999936 4.4479,0.8211999999999975 4.456499999999999,0.8203999999999994 4.4928,0.8254999999999981 4.5309,0.8026999999999944 4.5386999999999995,0.7999999999999972 4.538200000000001,0.7962999999999951 4.5315,0.7911000000000001 4.533499999999999,0.7857999999999947 4.5314000000000005,0.7787999999999968 4.5348,0.7744999999999962 4.5287999999999995,0.7667000000000002 4.5310999999999995,0.7632999999999939 4.5263,0.7607999999999961 4.5203999999999995,0.7515999999999963 4.5233,0.7430999999999983 4.5188,0.7357999999999976 4.5171,0.7297999999999973 4.5059,0.7279999999999944 4.5036,0.7224000000000004 4.499899999999999,0.7187999999999946 4.496999999999999,0.7182999999999993 4.4851,0.722299999999997 4.4799999999999995,0.7283999999999935 4.466399999999999,0.7363 4.4615,0.7373999999999938 4.4426,0.731899999999996 4.409999999999999,0.7423000000000002 4.3984,0.7431999999999945 4.396299999999999,0.7421999999999969 4.3946,0.7363999999999962 4.383500000000001,0.7301000000000002 4.3699,0.7384999999999948 4.3564,0.734099999999998 4.350700000000001,0.7372999999999976 4.3402,0.7383999999999986 4.3394,0.7465999999999937 4.329999999999999,0.7554999999999978 4.3229999999999995,0.7575999999999965 4.3137,0.7647999999999939 4.2970999999999995,0.7603999999999971 4.291099999999999,0.7622999999999962 4.286599999999999,0.7789000000000001 4.302700000000001,0.7972999999999999 4.285900000000001,0.8131999999999948 4.284400000000001,0.8197999999999936 4.2823,0.8207999999999984 4.2681,0.8155000000000001 4.260699999999999,0.8048999999999964 4.2412,0.8085999999999984 4.232,0.804399999999994 4.219600000000001,0.784799999999997 4.2191,0.7792999999999992 4.211099999999999,0.766299999999994 4.208899999999999,0.7575000000000003 4.2053,0.7531999999999996 4.1978,0.7493999999999943 4.1947,0.7506999999999948 4.196599999999999,0.7545999999999964 4.2078,0.7616999999999976 4.2078999999999995,0.7652000000000001 4.2128000000000005,0.7742000000000004 4.2131,0.7812999999999946 4.2198,0.7962999999999951 4.227799999999999,0.8074999999999974 4.2343,0.8115999999999985 4.2274,0.8114999999999952 4.208699999999999,0.8038999999999987 4.1801,0.7982999999999976 4.176799999999999,0.7947999999999951 4.172899999999999,0.7934999999999945 4.1572000000000005,0.7934999999999945 4.1513,0.7964999999999947 4.1443,0.7972999999999999 4.1437,0.7851999999999961 4.139499999999999,0.7791999999999959 4.142,0.7754999999999939 4.1421,0.7714999999999961 4.138800000000001,0.7643999999999949 4.1352,0.7622999999999962 4.1223,0.7617999999999938 4.121899999999999,0.7585999999999942 4.125699999999999,0.7532999999999959 4.1237,0.7494999999999976 4.1148,0.7458999999999989 4.110399999999999,0.7370999999999981 4.1039,0.7323999999999984 4.089799999999999,0.730799999999995 4.0864,0.7273999999999958 4.088,0.722299999999997 4.0933,0.718599999999995 4.0935,0.7024999999999935 4.0918,0.6988999999999947 4.0835,0.6940999999999988 4.0840000000000005,0.6898999999999944 4.089300000000001,0.6867999999999981 4.0851,0.6808999999999941 4.085399999999999,0.6770999999999958 4.0888,0.6734999999999971 4.0851999999999995,0.6678999999999959 4.0871,0.6629999999999967 4.0927,0.6566999999999936 4.093699999999999,0.6495999999999995 4.0927999999999995,0.6465999999999994 4.082400000000001,0.6367999999999938 4.0828,0.6287999999999982 4.099099999999999,0.6266999999999996 4.102899999999999,0.6154999999999973 4.1087,0.6136999999999944 4.1176,0.6150999999999982 4.1245,0.6085999999999956 4.1423,0.6081999999999965 4.1521,0.6137999999999977 4.159,0.6123999999999938 4.1636999999999995,0.6158999999999963 4.1727,0.6175999999999959 4.1855,0.6152999999999977 4.189900000000001,0.6113 4.192200000000001,0.6008999999999958 4.2032,0.6022999999999996 4.2094,0.5955999999999975 4.2063,0.5890999999999948 4.2067000000000005,0.5754999999999981 4.2008,0.5725999999999942 4.1842,0.5721999999999952 4.172299999999999,0.5652999999999935 4.1702,0.5589999999999975 4.171600000000001,0.548099999999998 4.1526000000000005,0.5388999999999982 4.147200000000001,0.5212999999999965 4.1473,0.5186999999999955 4.1535,0.5141999999999953 4.159199999999999,0.5026999999999973 4.174,0.4935999999999936 4.1809,0.4912999999999954 4.1808000000000005,0.48679999999999524 4.1976,0.47979999999999734 4.199599999999999,0.4773999999999958 4.1999,0.4732999999999947 4.2046,0.4706999999999937 4.2067000000000005,0.46069999999999567 4.215599999999999,0.4545999999999992 4.2192,0.448599999999999 4.218799999999999,0.4428999999999945 4.195099999999999,0.4274999999999949 4.1894,0.4192999999999998 4.1772,0.4135999999999953 4.1658,0.41209999999999525 4.136299999999999,0.4165999999999954 4.126399999999999,0.4141999999999939 4.112799999999999,0.4057999999999993 4.0986,0.4146000000000001 4.0894,0.41729999999999734 4.0882,0.41969999999999885 4.0955,0.42379999999999995 4.0978,0.43089999999999407 4.1033,0.43789999999999907 4.0987,0.45309999999999917 4.073099999999999,0.46529999999999916 4.0386,0.4732999999999947 4.034199999999999,0.4834999999999994 4.0429,0.4893999999999963 4.039699999999999,0.4947999999999979 4.0414,0.5003999999999991 4.033399999999999,0.5034999999999954 4.0232,0.5115999999999943 4.0278,0.5225999999999971 4.0356,0.529999999999994 4.035799999999999,0.5377999999999972 4.0257,0.5387999999999948 4.002999999999999,0.5514999999999972 3.9957000000000003,0.5593000000000004 3.9986000000000006,0.5644999999999953 3.9889,0.5645999999999987 3.9744,0.5619999999999976 3.9704000000000006,0.5593999999999966 3.9692999999999996,0.5550999999999959 3.9668,0.5542999999999978 3.9569,0.5593000000000004 3.9463,0.5682999999999936 3.9257,0.5600999999999985 3.9127,0.5507999999999953 3.8946999999999994,0.5511999999999944 3.884199999999999,0.5490999999999957 3.8746,0.5493999999999986 3.8716999999999997,0.5444999999999993 3.8645000000000005,0.5386999999999986 3.8556999999999997,0.5373999999999981 3.8464,0.532199999999996 3.8364000000000003,0.5309999999999988 3.8214999999999995,0.523299999999999 3.8134000000000006,0.5239999999999938 3.8054999999999994,0.528499999999994 3.802599999999999,0.5322999999999993 3.7893999999999997,0.5383999999999958 3.7823,0.5383999999999958 3.7702999999999998,0.5304999999999964 3.7700000000000005,0.5205999999999946 3.7626,0.5138999999999996 3.7632000000000003,0.5113999999999947 3.7687999999999997,0.507799999999996 3.7687,0.5015999999999963 3.7617000000000003,0.4945999999999984 3.7585000000000006,0.4837999999999951 3.7524000000000006,0.48099999999999454 3.7417000000000007,0.48149999999999693 3.7313,0.4843999999999937 3.724899999999999,0.4882999999999953 3.722599999999999,0.49269999999999925 3.716,0.4905999999999935 3.7114000000000003,0.48639999999999617 3.7037000000000004,0.4852999999999952 3.686799999999999,0.4777999999999949 3.6811,0.4766999999999939 3.664599999999999,0.4776999999999987 3.6529,0.48460000000000036 3.643,0.4858999999999938 3.6347999999999994,0.4836999999999989 3.6245000000000003,0.4852999999999952 3.610499999999999,0.49089999999999634 3.6042999999999994,0.4963999999999942 3.5995999999999997,0.49609999999999843 3.5932000000000004,0.492999999999995 3.575,0.5056999999999974 3.5623999999999993,0.5169999999999959 3.5614,0.5227999999999966 3.5562999999999994,0.5276999999999958 3.5524999999999993,0.5401999999999987 3.5415,0.5535999999999959 3.5294,0.5567999999999955 3.5246000000000004,0.5597999999999956 3.5149,0.5612999999999957 3.5082999999999993,0.5671999999999997 3.5087,0.5730999999999966 3.5126,0.5777000000000001 3.5096,0.582499999999996 3.5066999999999995,0.595799999999997 3.4997999999999996,0.6038999999999959 3.4978000000000007,0.6111000000000004 3.5034,0.646099999999997 3.5086000000000004,0.6573999999999955 3.5081999999999995,0.6670999999999978 3.5067999999999993,0.669399999999996 3.5028999999999995,0.6709999999999994 3.502,0.6634999999999991 3.4918000000000005,0.6462000000000003 3.4890999999999996,0.6307999999999936 3.4812000000000003,0.6149999999999949 3.480999999999999,0.6058999999999983 3.4780000000000006,0.6047999999999973 3.474899999999999,0.608399999999996 3.4747999999999992,0.6177999999999955 3.480999999999999,0.6304999999999978 3.4834000000000005,0.6444999999999936 3.4936999999999996,0.6617999999999995 3.4943999999999997,0.6709999999999994 3.5047000000000006,0.6736000000000004 3.5074999999999994,0.6768000000000001 3.5082999999999993,0.6969999999999956 3.5042999999999997,0.6965000000000003 3.4978000000000007,0.6917999999999935 3.4811000000000005,0.6851999999999947 3.4700999999999995,0.6768999999999963 3.4669,0.6627999999999972 3.4577999999999998,0.6544999999999987 3.452699999999999,0.6530999999999949 3.4342999999999995,0.6574999999999989 3.4286000000000003,0.665699999999994 3.4181,0.6698999999999984 3.4128999999999996,0.6742999999999952 3.4119,0.6770999999999958 3.4167999999999994,0.685299999999998 3.4052,0.6912999999999982 3.3975999999999997,0.6868999999999943 3.3843000000000005,0.6867999999999981 3.3779999999999992,0.6894999999999953 3.355899999999999,0.6905000000000001 3.342199999999999,0.6866999999999948 3.3290999999999995,0.6869999999999976 3.3237999999999994,0.6811999999999969 3.3202000000000007,0.6721000000000004 3.3218000000000005,0.6643999999999934 3.3187000000000006,0.6537999999999968 3.322,0.647199999999998 3.3144,0.6391999999999953 3.294199999999999,0.632799999999996 3.2936000000000005,0.6203999999999965 3.2948999999999993,0.6166999999999945 3.299599999999999,0.6122999999999976 3.3107999999999995,0.6051999999999964 3.321699999999999,0.6024999999999991 3.3274,0.5942999999999969 3.3274,0.5837000000000003 3.321599999999999,0.5777999999999963 3.329299999999999,0.5678999999999945 3.3236999999999997,0.556999999999995 3.323999999999999,0.5481999999999942 3.3304,0.5399999999999991 3.342199999999999,0.5352999999999994 3.3446000000000007,0.5238999999999976 3.3390999999999993,0.5187999999999988 3.3382999999999994,0.5157999999999987 3.343799999999999,0.506299999999996 3.3404,0.4976999999999947 3.3327999999999998,0.49499999999999744 3.3294000000000006,0.491899999999994 3.327699999999999,0.486699999999999 3.327799999999999,0.47629999999999484 3.3152999999999997,0.46819999999999595 3.310999999999999,0.4609999999999985 3.3027000000000006,0.45639999999999503 3.3001999999999994,0.45019999999999527 3.294999999999999,0.4445999999999941 3.2943000000000007,0.4391999999999996 3.2908999999999997,0.43379999999999797 3.2909999999999995,0.42849999999999966 3.2882000000000007,0.42559999999999576 3.2899000000000003,0.41969999999999885 3.2893,0.4105999999999952 3.2860000000000005,0.40869999999999607 3.2749999999999995,0.4088999999999956 3.264499999999999,0.403499999999994 3.2611999999999997,0.3896999999999977 3.2558,0.38589999999999947 3.2475999999999994,0.38289999999999935 3.2451,0.3797999999999959 3.2396000000000003,0.36719999999999686 3.2403000000000004,0.3584999999999994 3.2368999999999994,0.3506 3.2336,0.347999999999999 3.2242000000000006,0.3444999999999965 3.208799999999999,0.35189999999999344 3.2067000000000005,0.35019999999999385 3.2023,0.3498999999999981 3.200499999999999,0.34379999999999455 3.1896999999999993,0.3415999999999997 3.1787,0.33549999999999613 3.1727,0.32909999999999684 3.1656000000000004,0.31639999999999446 3.1513999999999998,0.3136999999999972 3.1467,0.31159999999999854 3.143299999999999,0.30799999999999983 3.1332999999999993,0.30639999999999645 3.117399999999999,0.29949999999999477 3.1229000000000005,0.2915999999999954 3.134099999999999,0.26839999999999975 3.1306000000000003,0.26209999999999667 3.1231999999999998,0.2558999999999969 3.121999999999999,0.24799999999999756 3.1169000000000002,0.2453000000000003 3.1063,0.24369999999999692 3.0950999999999995,0.24559999999999604 3.0911999999999997,0.24199999999999733 3.0651,0.23519999999999897 3.0623999999999993,0.2331000000000003 3.061699999999999,0.22679999999999723 3.054099999999999,0.21989999999999554 3.0537,0.2113999999999976 3.0660999999999996,0.20019999999999527 3.067799999999999,0.18379999999999797 3.0707999999999993,0.17779999999999774 3.0622999999999996,0.17199999999999704 3.0547999999999993,0.17069999999999652 3.0537,0.1669999999999945 3.0505000000000004,0.16499999999999915 3.0386999999999995,0.16499999999999915 3.0384,0.1594999999999942 3.0332,0.1558999999999955 3.0375000000000005,0.15229999999999677 3.0568,0.14439999999999742 3.0604000000000005,0.13329999999999842 3.0567,0.12719999999999487 3.0645,0.12189999999999657 3.0619000000000005,0.11309999999999576 3.0848000000000004,0.11299999999999955 3.0925000000000002,0.10699999999999932 3.1012999999999993,0.106899999999996 3.1034999999999995,0.10210000000000008 3.1194999999999995,0.09769999999999612 3.1185,0.0922999999999945 3.1201999999999996,0.08809999999999718 3.1292,0.08899999999999864 3.1312000000000006,0.08719999999999573 3.1255999999999995,0.08039999999999736 3.1206000000000005,0.07819999999999538 3.118899999999999,0.07049999999999557 3.1133999999999995,0.06759999999999877 3.1091000000000006,0.0625 3.0972999999999997,0.060499999999997556 3.0908000000000007,0.04749999999999943 3.0911,0.03899999999999437 3.074699999999999,0.025799999999996714 3.0783999999999994,0.021899999999995146 3.0735,0.013500000000000512 3.0744,0.008099999999998886 3.0707999999999993,0.0049999999999954525 3.063299999999999,0.006000000000000227 3.0573000000000006,0.0 3.0361000000000002,0.00539999999999452 3.0355999999999996,0.011899999999997135 3.0390000000000006,0.02099999999999369 3.029699999999999,0.024699999999995725 3.0188999999999995,0.02289999999999992 3.0118,0.018899999999995032 3.0043999999999995,0.022199999999998 3.0009000000000006,0.02659999999999485 2.9935,0.028799999999996828 2.9785999999999992,0.02599999999999625 2.9678999999999993,0.01839999999999975 2.9524999999999997,0.017099999999999227 2.952699999999999,0.023299999999998988 2.9598000000000004,0.03289999999999793 2.9752,0.04679999999999751 2.987099999999999,0.05289999999999395 2.985499999999999,0.054999999999999716 2.979399999999999,0.05349999999999966 2.9765000000000006,0.05579999999999785 2.9743000000000004,0.07079999999999842 2.9697000000000005,0.07739999999999725 2.9659000000000004,0.07899999999999352 2.9676,0.0882000000000005 2.9600999999999997,0.09839999999999804 2.9502999999999995,0.09369999999999834 2.9454000000000002,0.08749999999999858 2.942099999999999,0.08709999999999951 2.938299999999999,0.0893999999999977 2.9417,0.09689999999999799 2.9411999999999994,0.10099999999999909 2.9326,0.10769999999999413 2.9303,0.11499999999999488 2.932999999999999,0.1255999999999986 2.9378,0.12769999999999726 2.9378,0.12999999999999545 2.9334,0.13349999999999795 2.9326,0.13809999999999434 2.918499999999999,0.1383999999999972 2.916899999999999,0.13969999999999771 2.9173999999999998,0.14229999999999876 2.903199999999999,0.14629999999999654 2.9010000000000007,0.14929999999999666 2.9013999999999998,0.15179999999999438 2.8862999999999994,0.16140000000000043 2.8829000000000002,0.1670999999999978 2.8733999999999993,0.1717999999999975 2.8631,0.1716999999999942 2.8555,0.17429999999999524 2.838,0.17649999999999721 2.8314999999999992,0.17309999999999803 2.8274999999999997,0.1739999999999995 2.835399999999999,0.19229999999999592 2.8465999999999996,0.20459999999999923 2.8495999999999997,0.20689999999999742 2.8638000000000003,0.21069999999999567 2.870499999999999,0.21879999999999455 2.8721000000000005,0.22449999999999903 2.8798000000000004,0.22829999999999728 2.874199999999999,0.23049999999999926 2.874299999999999,0.23289999999999367 2.8782000000000005,0.23519999999999897 2.8876,0.23399999999999466 2.8942000000000005,0.24080000000000013 2.897099999999999,0.2470999999999961 2.8954999999999993,0.25839999999999463 2.877,0.26659999999999684 2.8709999999999996,0.27259999999999707 2.852099999999999,0.2850999999999999 2.8502,0.2856999999999985 2.8471,0.2837999999999994 2.8442999999999996,0.2791999999999959 2.8304,0.2797999999999945 2.8061999999999996,0.2890999999999977 2.8004000000000007,0.29339999999999833 2.7877,0.30759999999999366 2.7710999999999997,0.29589999999999606 2.761399999999999,0.28539999999999566 2.742399999999999,0.2825999999999951 2.7275,0.28299999999999415 2.7200999999999995,0.29049999999999443 2.71,0.2898999999999958 2.7008,0.29179999999999495 2.690599999999999,0.30299999999999727 2.6541000000000006,0.2959999999999994 2.652499999999999,0.30059999999999576 2.6527000000000003,0.3088999999999942 2.6375,0.32099999999999795 2.6388000000000007,0.32459999999999667 2.6504000000000003,0.33370000000000033 2.6473000000000004,0.33569999999999567 2.6373000000000006,0.335799999999999 2.6336000000000004,0.34209999999999496 2.6252000000000004,0.3416999999999959 2.621199999999999,0.34379999999999455 2.6207000000000003,0.35660000000000025 2.6122000000000005,0.36489999999999867 2.6038000000000006,0.3667999999999978 2.6007000000000007,0.37419999999999476 2.5870000000000006,0.37939999999999685 2.5797,0.39269999999999783 2.576999999999999,0.4025999999999996 2.5661999999999994,0.40459999999999496 2.557899999999999,0.40209999999999724 2.5347,0.40859999999999985 2.5118,0.40739999999999554 2.5078000000000005,0.4087999999999994 2.5047000000000006,0.4210999999999956 2.483299999999999,0.4227999999999952 2.4813,0.42549999999999955 2.4818000000000007,0.42839999999999634 2.4903000000000004,0.4381999999999948 2.4959,0.4421999999999997 2.4966,0.4445999999999941 2.490099999999999,0.4550999999999945 2.475599999999999,0.4661999999999935 2.474099999999999,0.4724000000000004 2.4692,0.47639999999999816 2.4689000000000005,0.47860000000000014 2.4841000000000006,0.48930000000000007 2.4827000000000004,0.49259999999999593 2.485499999999999,0.5008999999999943 2.4957000000000003,0.5050999999999988 2.4988,0.5091999999999999 2.5088,0.5163999999999973 2.5096999999999996,0.528499999999994 2.5065999999999997,0.5364000000000004 2.5155000000000003,0.5459999999999994 2.5128999999999992,0.5504999999999995 2.5124000000000004,0.5628999999999991 2.5058999999999996,0.5696999999999974 2.5156,0.5789999999999935 2.5082999999999993,0.5859999999999985 2.5139000000000005,0.5960999999999999 2.5108000000000006,0.5995999999999952 2.5025000000000004,0.6032999999999973 2.499999999999999,0.606899999999996 2.5043999999999995,0.6121999999999943 2.5032000000000005,0.6211999999999946 2.5127999999999995,0.6272999999999982 2.5140000000000002,0.6299999999999955 2.5111999999999997,0.6322999999999936 2.5132000000000003,0.6346999999999952 2.4973,0.6358999999999995 2.4940000000000007,0.6376999999999953 2.4935,0.6409999999999982 2.4884999999999993,0.6430999999999969 2.4773000000000005,0.6428999999999974 2.4478999999999997,0.6356999999999999 2.439799999999999,0.6313999999999993 2.436799999999999,0.6315999999999988 2.4312999999999994,0.6350999999999942 2.4194000000000004,0.6361999999999952 2.4128999999999996,0.6351999999999975 2.4021999999999997,0.6315999999999988 2.3961999999999994,0.6243999999999943 2.3701999999999996,0.6100999999999956 2.3512999999999993,0.6086999999999989 2.3351999999999995,0.5929000000000002 2.348,0.5877999999999943 2.3548999999999998,0.5882999999999967 2.3610999999999995,0.5832999999999942 2.359799999999999,0.5756999999999977 2.362799999999999,0.5712999999999937 2.3573999999999993,0.5629999999999953 2.3416000000000006,0.5570999999999984 2.3295000000000003,0.548099999999998 2.3196000000000003,0.5506999999999991 2.3122,0.5478999999999985 2.308699999999999,0.5439999999999969 2.3119000000000005,0.5376999999999938 2.3077999999999994,0.5324999999999989 2.3082000000000003,0.5280999999999949 2.301099999999999,0.5290999999999997 2.2984999999999998,0.5275999999999996 2.2962999999999996,0.5234999999999985 2.284299999999999,0.5217999999999989 2.273699999999999,0.5161999999999978 2.2715000000000005,0.5109999999999957 2.2730000000000006,0.5063999999999993 2.2649999999999997,0.5005999999999986 2.259899999999999,0.48859999999999815 2.2547000000000006,0.48809999999999576 2.248,0.48399999999999466 2.2396000000000003,0.4837999999999951 2.2298,0.47869999999999635 2.2151000000000005,0.47689999999999344 2.2086999999999994,0.47689999999999344 2.1969000000000003,0.4812999999999974 2.1887,0.481899999999996 2.1795,0.4743999999999957 2.1711,0.4700999999999951 2.1681,0.4636999999999958 2.163899999999999,0.459699999999998 2.1571000000000007,0.4573999999999998 2.1480000000000006,0.44879999999999853 2.1385999999999994,0.443799999999996 2.1368,0.43959999999999866 2.1332999999999993,0.4369999999999976 2.1343000000000005,0.4340999999999937 2.1396000000000006,0.43130000000000024 2.1492999999999993,0.4305999999999983 2.1536,0.4280999999999935 2.1606999999999994,0.4270999999999958 2.162399999999999,0.4256999999999991 2.1626000000000003,0.41959999999999553 2.1648000000000005,0.41629999999999967 2.1712,0.4146000000000001 2.1765,0.40789999999999793 2.188299999999999,0.4046999999999983 2.1925999999999997,0.39229999999999876 2.1995999999999993,0.3843999999999994 2.2016,0.37249999999999517 2.2128000000000005,0.36299999999999955 2.2122,0.35839999999999606 2.2077999999999998,0.355799999999995 2.1986,0.3444999999999965 2.1985,0.3376999999999981 2.2018999999999993,0.3271999999999977 2.1918999999999995,0.316599999999994 2.1781999999999995,0.31639999999999446 2.1651,0.310299999999998 2.1622999999999992,0.2977999999999952 2.1553999999999993,0.2914999999999992 2.1321000000000003,0.284399999999998 2.1209999999999996,0.28479999999999706 2.1048,0.2796999999999983 2.0840000000000005,0.27779999999999916 2.0788,0.27019999999999555 2.0773,0.2627999999999986 2.0713,0.2564999999999955 2.0706999999999995,0.25389999999999446 2.0710000000000006,0.24799999999999756 2.0817000000000005,0.22499999999999432 2.0698,0.21949999999999648 2.0606999999999998,0.21279999999999433 2.0629999999999997,0.2067999999999941 2.057999999999999,0.20219999999999771 2.0588000000000006,0.19609999999999417 2.0467000000000004,0.19359999999999644 2.0366999999999997,0.18069999999999453 2.0253999999999994,0.18239999999999412 2.0049,0.17969999999999686 1.9913999999999996,0.18069999999999453 1.9627,0.17949999999999733 1.9543999999999997,0.18069999999999453 1.9510999999999994,0.17360000000000042 1.9458000000000002,0.17099999999999937 1.9394999999999998,0.1629999999999967 1.9250999999999996,0.15909999999999513 1.9262999999999995,0.15079999999999671 1.9212999999999996,0.14409999999999457 1.9220999999999995,0.13700000000000045 1.9154,0.13419999999999987 1.9135999999999997,0.130199999999995 1.9135999999999997,0.12449999999999761 1.9193999999999996,0.11719999999999686 1.9193999999999996,0.11419999999999675 1.9167999999999994,0.11009999999999565 1.9077000000000002,0.10639999999999361 1.9025999999999996,0.10969999999999658 1.8819999999999997,0.11019999999999897 1.8746,0.1138999999999939 1.8660999999999994,0.11539999999999395 1.8450999999999995,0.106899999999996 1.8391000000000002,0.10929999999999751 1.8359999999999994,0.11369999999999436 1.8246000000000002,0.11769999999999925 1.8152999999999997,0.12409999999999854 1.7978999999999994,0.12689999999999912 1.7938999999999998,0.12569999999999482 1.7908,0.12039999999999651 1.7843999999999998,0.1173999999999964 1.7801999999999998,0.11209999999999809 1.7667000000000002,0.11179999999999524 1.7596999999999996,0.11609999999999587 1.7551999999999994,0.12219999999999942 1.7565,0.13539999999999708 1.7489,0.13969999999999771 1.729,0.14299999999999358 1.7226,0.1530999999999949 1.7128999999999994,0.15979999999999706 1.7035999999999998,0.1611999999999938 1.6841999999999997,0.15639999999999787 1.6661000000000001,0.15799999999999415 1.6563999999999997,0.1558999999999955 1.6413000000000002,0.15759999999999508 1.6316999999999995,0.1599999999999966 1.63,0.16219999999999857 1.6295000000000002,0.16789999999999594 1.6226000000000003,0.17279999999999518 1.5941999999999998,0.16869999999999408 1.5888999999999998,0.16149999999999665 1.5919999999999996,0.14739999999999753 1.5877,0.14209999999999923 1.5713999999999997,0.1436999999999955 1.5636999999999999,0.147199999999998 1.5531999999999995,0.1459999999999937 1.5442999999999998,0.14809999999999945 1.5404,0.14339999999999975 1.5320999999999998,0.14279999999999404 1.5215999999999994,0.13679999999999382 1.5194,0.13279999999999603 1.5215999999999994,0.12229999999999563 1.5198,0.12009999999999366 1.5156999999999998,0.11939999999999884 1.5061999999999998,0.12119999999999465 1.5016999999999996,0.1185999999999936 1.4917999999999996,0.11699999999999733 1.4805000000000001,0.1051000000000002 1.4744000000000002,0.10099999999999909 1.4589999999999996,0.09389999999999787 1.4474,0.0945999999999998 1.4420000000000002,0.08729999999999905 1.4345999999999997,0.08269999999999555 1.4283000000000001,0.08269999999999555 1.4144999999999994,0.08909999999999485 1.4085999999999999,0.08859999999999957 1.4047999999999998,0.09129999999999683 1.4021999999999997,0.09669999999999845 1.3925,0.09999999999999432 1.3761,0.0963999999999956 1.3701999999999996,0.09679999999999467 1.3659999999999997,0.09839999999999804 1.362,0.10249999999999915 1.3476,0.10439999999999827 1.3400999999999996,0.10839999999999606 1.3316999999999997,0.10089999999999577 1.3247999999999998,0.08739999999999526 1.3182,0.08520000000000039 1.3053999999999997,0.0747999999999962 1.3012999999999995,0.07469999999999999 1.2973,0.07849999999999824 1.2854,0.07600000000000051 1.2771,0.07729999999999393 1.2657999999999996,0.07450000000000045 1.2611999999999997,0.06829999999999359 1.2542999999999997,0.06589999999999918 1.2481999999999998,0.060399999999994236 1.2461000000000002,0.05509999999999593 1.2467999999999995,0.04899999999999949 1.242,0.04609999999999559 1.2344999999999997,0.045899999999996055 1.2211999999999996,0.05030000000000001 1.2112999999999996,0.056699999999999307 1.2124999999999995,0.06139999999999901 1.2108999999999996,0.06329999999999814 1.2013999999999996,0.0653999999999968 1.1852999999999998,0.059799999999995634 1.1830999999999996,0.05829999999999558 1.1814999999999998,0.05359999999999587 1.1718000000000002,0.04949999999999477 1.1659999999999995,0.04509999999999792 1.1556999999999995,0.044199999999996464 1.1480999999999995,0.04739999999999611 1.1418999999999997,0.05719999999999459 1.1429,0.06199999999999761 1.1292999999999997,0.07089999999999463 1.1254,0.08039999999999736 1.1181999999999999,0.08299999999999841 1.1147,0.0858999999999952 1.1129999999999995,0.09599999999999653 1.1022999999999996,0.10119999999999862 1.0937999999999999,0.10879999999999512 1.0920999999999994,0.11549999999999727 1.0869,0.12180000000000035 1.0901999999999994,0.1378999999999948 1.0889999999999995,0.13999999999999346 "></polygon><polygon points="2.7033999999999994,1.8733000000000004 2.7033999999999994,1.872099999999996 2.7077,1.8706999999999994 2.707299999999999,1.8685999999999936 2.713,1.867599999999996 2.7215999999999996,1.8699999999999974 2.7341000000000006,1.8780999999999963 2.7516000000000007,1.8722999999999956 2.7616000000000005,1.8733999999999966 2.7612999999999994,1.8782999999999959 2.755299999999999,1.8793999999999969 2.7558,1.883899999999997 2.7528999999999995,1.8867999999999938 2.749999999999999,1.8941999999999979 2.7451999999999996,1.8979 2.7336,1.8944999999999936 2.7342000000000004,1.8921999999999954 2.7303000000000006,1.891299999999994 2.7250000000000005,1.8925999999999945 2.7237999999999998,1.8933999999999997 2.7253,1.8948999999999998 2.7220000000000004,1.895699999999998 2.7153,1.8936999999999955 2.7085,1.896099999999997 2.7098000000000004,1.8905999999999992 2.7177,1.8874999999999957 2.7204000000000006,1.880599999999994 2.717999999999999,1.880599999999994 2.7169,1.8773999999999944 2.7120000000000006,1.8759999999999977 2.7122,1.8748999999999967 2.7023,1.8739999999999952 2.7033999999999994,1.8733000000000004 "></polygon><polygon points="4.2673,0.7986999999999966 4.271299999999999,0.7960999999999956 4.271199999999999,0.7941000000000003 4.268,0.796599999999998 4.2673,0.7986999999999966 "></polygon><polygon points="4.263699999999999,0.8025999999999982 4.2650999999999994,0.8013999999999939 4.2656,0.8003999999999962 4.262300000000001,0.8031999999999968 4.263699999999999,0.8025999999999982 "></polygon><polygon points="3.2227000000000006,1.8403999999999954 3.223,1.8402999999999992 3.224099999999999,1.8401999999999958 3.2228000000000003,1.8399 3.2227000000000006,1.8403999999999954 "></polygon>
    </svg>
    