
    <svg width="6.668700000000001" height="5.008400000000002" xmlns="http://www.w3.org/2000/svg" xmlns:xlink="http://www.w3.org/1999/xlink" style="transform: scale(1, -1)">
        <polygon points="0.12349999999999994,0.5115000000000052 0.1366000000000014,0.5293000000000063 0.14320000000000022,0.5452000000000012 0.14039999999999964,0.5601000000000056 0.1478000000000037,0.5844000000000023 0.1846000000000032,0.6280000000000001 0.18140000000000356,0.6532000000000053 0.16830000000000211,0.6636000000000024 0.1618000000000066,0.7065000000000055 0.1570999999999998,0.7550000000000026 0.15900000000000603,0.791400000000003 0.13760000000000616,0.8026000000000053 0.12540000000000617,0.8119000000000014 0.13480000000000558,0.834300000000006 0.14970000000000283,0.853900000000003 0.15150000000000574,0.8659999999999997 0.14690000000000225,0.8865000000000052 0.13100000000000023,0.900500000000001 0.1338000000000008,0.9425000000000026 0.10590000000000543,0.9649000000000001 0.10120000000000573,0.9751000000000047 0.13480000000000558,1.0125000000000028 0.09670000000000556,1.0356000000000023 0.10470000000000113,1.043600000000005 0.1075000000000017,1.0508000000000024 0.10090000000000288,1.0533000000000001 0.0987000000000009,1.0606000000000009 0.10140000000000526,1.065800000000003 0.10260000000000247,1.0763000000000034 0.10520000000000351,1.0818000000000012 0.1110000000000042,1.0875000000000057 0.14710000000000178,1.1077000000000012 0.15870000000000317,1.1116000000000028 0.183400000000006,1.124600000000001 0.19780000000000086,1.136800000000001 0.21740000000000492,1.149000000000001 0.23210000000000264,1.1615000000000038 0.23680000000000234,1.169000000000004 0.23730000000000473,1.1843000000000004 0.23900000000000432,1.188600000000001 0.24160000000000537,1.1891999999999996 0.22730000000000672,1.1985000000000028 0.2249000000000052,1.2103000000000037 0.22740000000000293,1.2135000000000034 0.2518000000000029,1.2223000000000042 0.27190000000000225,1.2231000000000023 0.29820000000000135,1.231900000000003 0.3100000000000023,1.2308000000000021 0.33560000000000656,1.2567000000000021 0.3470000000000013,1.2649000000000044 0.34900000000000375,1.2682000000000002 0.34480000000000643,1.2720000000000056 0.3433000000000064,1.2779000000000025 0.32980000000000587,1.2884000000000029 0.31980000000000075,1.2938000000000045 0.3153000000000006,1.294000000000004 0.31520000000000437,1.2982000000000014 0.2886000000000024,1.3081999999999994 0.2716000000000065,1.318800000000003 0.2656000000000063,1.3209000000000017 0.2618000000000009,1.324300000000001 0.26200000000000045,1.326500000000003 0.25900000000000034,1.3263000000000034 0.2582000000000022,1.3224000000000018 0.2336000000000027,1.3233999999999995 0.23060000000000258,1.3266000000000062 0.2202000000000055,1.3286000000000016 0.21820000000000306,1.334700000000005 0.21980000000000643,1.3370999999999995 0.21710000000000207,1.3400000000000034 0.22409999999999997,1.343900000000005 0.2283000000000044,1.3495000000000061 0.2302000000000035,1.3611000000000004 0.23430000000000462,1.3640000000000043 0.2394000000000034,1.3625000000000043 0.25,1.365700000000004 0.25190000000000623,1.3729000000000013 0.25450000000000017,1.3742000000000019 0.25550000000000495,1.378300000000003 0.25790000000000646,1.3785000000000025 0.2569000000000017,1.383100000000006 0.2518000000000029,1.3869000000000042 0.2510000000000048,1.3899000000000044 0.254800000000003,1.3958000000000013 0.25270000000000437,1.4036000000000044 0.25440000000000396,1.4096000000000046 0.25800000000000267,1.4135000000000062 0.25680000000000547,1.4173000000000044 0.2588000000000008,1.419000000000004 0.263300000000001,1.4159000000000006 0.27060000000000173,1.4155000000000015 0.2727000000000004,1.4229000000000056 0.2808000000000064,1.430500000000002 0.2874000000000052,1.4440000000000026 0.2944000000000031,1.4520000000000053 0.2922000000000011,1.4570000000000007 0.2945000000000064,1.4590999999999994 0.30110000000000525,1.4588999999999999 0.3106000000000009,1.4533000000000058 0.3141000000000034,1.4542000000000002 0.3194000000000017,1.4625000000000057 0.330600000000004,1.4734000000000052 0.3398000000000039,1.4939000000000036 0.35379999999999967,1.5113000000000056 0.3597999999999999,1.5116000000000014 0.36660000000000537,1.504800000000003 0.3862000000000023,1.5068000000000055 0.3943000000000012,1.5093999999999994 0.3960000000000008,1.5117000000000047 0.39580000000000126,1.5153000000000034 0.3996000000000066,1.516600000000004 0.39639999999999986,1.5230000000000032 0.4077000000000055,1.5238000000000014 0.4207000000000036,1.5224000000000046 0.42900000000000205,1.5339000000000027 0.44780000000000086,1.5364000000000004 0.44840000000000657,1.5305999999999997 0.4539000000000044,1.5226000000000042 0.4708000000000041,1.5204000000000022 0.4755000000000038,1.520300000000006 0.48150000000000404,1.5234000000000023 0.4883000000000024,1.5217000000000027 0.4917000000000016,1.523300000000006 0.520700000000005,1.5239000000000047 0.5227000000000004,1.5350000000000037 0.531400000000005,1.5417000000000058 0.5337000000000032,1.546200000000006 0.5365000000000038,1.5469000000000008 0.5412000000000035,1.5446000000000026 0.5626000000000033,1.541400000000003 0.565800000000003,1.5345000000000013 0.5716000000000037,1.5326000000000022 0.5826000000000064,1.5230999999999995 0.5945999999999998,1.5236000000000018 0.6049000000000007,1.5217000000000027 0.6082000000000036,1.5256000000000043 0.6296999999999997,1.5198000000000036 0.6496000000000066,1.5230000000000032 0.6674000000000007,1.5182000000000002 0.6726000000000028,1.5186000000000064 0.6774000000000058,1.5229 0.6757000000000062,1.5404000000000053 0.6734000000000009,1.5441000000000003 0.6517000000000053,1.5576000000000008 0.640900000000002,1.5594999999999999 0.6257000000000019,1.5655000000000001 0.6197000000000017,1.5639000000000038 0.5604000000000013,1.5930000000000035 0.5719000000000065,1.6066000000000003 0.5958000000000041,1.644200000000005 0.6001000000000047,1.6487000000000052 0.6242000000000019,1.6669000000000054 0.632000000000005,1.667500000000004 0.640500000000003,1.6745000000000019 0.6461000000000041,1.6724000000000032 0.6535000000000011,1.693800000000003 0.6665000000000063,1.6995000000000005 0.6683000000000021,1.7081000000000017 0.6740000000000066,1.718200000000003 0.6888000000000005,1.7169000000000025 0.6848000000000027,1.7309000000000054 0.693400000000004,1.7347000000000037 0.6995000000000005,1.7312000000000012 0.7086000000000041,1.7439999999999998 0.7256,1.7390000000000043 0.7377000000000038,1.7332999999999998 0.7287999999999997,1.741100000000003 0.7329000000000008,1.7409000000000034 0.7449000000000012,1.7367000000000061 0.7453000000000003,1.734100000000005 0.7506000000000057,1.731500000000004 0.7639000000000067,1.7279000000000053 0.7674000000000021,1.7325000000000017 0.7841000000000022,1.7408000000000001 0.7820000000000036,1.7454000000000036 0.7911000000000001,1.7524000000000015 0.7977000000000061,1.7641000000000062 0.7919000000000054,1.7778000000000063 0.7897000000000034,1.779600000000002 0.7930000000000064,1.7890000000000015 0.7976000000000028,1.7896 0.8081000000000031,1.8037000000000063 0.8177000000000021,1.8094000000000037 0.8236000000000061,1.811 0.8246000000000038,1.8160000000000025 0.8349000000000046,1.8205000000000027 0.8365000000000009,1.8190000000000026 0.8494000000000028,1.8231000000000037 0.851700000000001,1.8315000000000055 0.8562000000000012,1.834300000000006 0.851700000000001,1.8415999999999997 0.8544000000000054,1.8460999999999999 0.8654000000000011,1.8490000000000038 0.8666000000000054,1.854600000000005 0.8711000000000055,1.8586000000000027 0.8686000000000007,1.8640000000000043 0.8700000000000045,1.8666000000000054 0.8834000000000017,1.8753000000000029 0.8870000000000005,1.881300000000003 0.9051000000000045,1.8843999999999994 0.9055000000000035,1.8888000000000034 0.8996000000000066,1.8980999999999995 0.8844000000000065,1.9098000000000042 0.8719000000000037,1.9125000000000014 0.8652000000000015,1.9213000000000022 0.8674000000000035,1.9391999999999996 0.8615000000000066,1.9547000000000025 0.8610000000000042,1.9611000000000018 0.8593000000000046,1.9635999999999996 0.857200000000006,1.9639000000000024 0.876100000000001,1.9731000000000023 0.8816000000000059,1.9787999999999997 0.8575000000000017,1.9859000000000009 0.8531000000000049,1.9920000000000044 0.8492000000000033,1.992600000000003 0.8387000000000029,1.9988000000000028 0.8458000000000041,2.0152 0.8342000000000027,2.022600000000004 0.8287000000000049,2.0290999999999997 0.8211000000000013,2.0459999999999994 0.8118000000000052,2.0586000000000055 0.8199000000000041,2.064700000000002 0.8212000000000046,2.067600000000006 0.8327000000000027,2.0746000000000038 0.8442000000000007,2.0860000000000056 0.8374000000000024,2.105000000000004 0.8381000000000043,2.1070000000000064 0.8327000000000027,2.1137000000000015 0.8244000000000042,2.1113 0.8189000000000064,2.115300000000005 0.8145000000000024,2.1144000000000034 0.8161000000000058,2.1188000000000002 0.8103000000000051,2.121000000000002 0.8099000000000061,2.1177000000000064 0.8066000000000031,2.116100000000003 0.8042000000000016,2.124200000000002 0.7998000000000047,2.126100000000001 0.7977000000000061,2.123200000000004 0.7956000000000003,2.125400000000006 0.7969000000000008,2.1269000000000062 0.7954000000000008,2.130200000000002 0.7912999999999997,2.128600000000006 0.796200000000006,2.1334000000000017 0.7912999999999997,2.137600000000006 0.7786000000000044,2.1388999999999996 0.7757000000000005,2.1418999999999997 0.7801000000000045,2.1441000000000017 0.7715000000000032,2.147200000000005 0.7662000000000049,2.1474000000000046 0.7629000000000019,2.1495999999999995 0.7539000000000016,2.1495000000000033 0.7508000000000052,2.1522000000000006 0.7476000000000056,2.1521000000000043 0.7385000000000019,2.1617000000000033 0.7290000000000063,2.177800000000005 0.7277000000000058,2.183100000000003 0.7218000000000018,2.1913000000000054 0.7120000000000033,2.190000000000005 0.7003000000000057,2.1828000000000003 0.6911000000000058,2.186800000000005 0.6794000000000011,2.1888000000000005 0.6700000000000017,2.185600000000001 0.666400000000003,2.1924000000000063 0.6621000000000024,2.191200000000002 0.6591000000000022,2.1876000000000033 0.6585000000000036,2.1928000000000054 0.645300000000006,2.192700000000002 0.6307000000000045,2.1995000000000005 0.6326999999999998,2.2061000000000064 0.6370000000000005,2.2094000000000023 0.6433999999999997,2.2114000000000047 0.6560000000000059,2.2247000000000057 0.666400000000003,2.2269000000000005 0.6670000000000016,2.233000000000004 0.6707000000000036,2.2368000000000023 0.6917000000000044,2.240400000000001 0.6946000000000012,2.243000000000002 0.6977000000000046,2.253 0.6864000000000061,2.2608000000000033 0.6817000000000064,2.2616000000000014 0.6787000000000063,2.2653999999999996 0.6852000000000018,2.2715999999999994 0.6848000000000027,2.2823000000000064 0.6898000000000053,2.289900000000003 0.6863000000000028,2.2931000000000026 0.6863000000000028,2.2968000000000046 0.6900000000000048,2.3003 0.6932000000000045,2.2998000000000047 0.6975000000000051,2.3016000000000005 0.697100000000006,2.2954000000000008 0.7028999999999996,2.2958 0.7088000000000036,2.2941000000000003 0.7134,2.2894000000000005 0.7150999999999996,2.2819000000000003 0.7347000000000037,2.2816000000000045 0.7387000000000015,2.288800000000002 0.7399000000000058,2.2882999999999996 0.7413000000000025,2.293600000000005 0.7404000000000011,2.2953000000000046 0.743300000000005,2.2998000000000047 0.7417000000000016,2.3031000000000006 0.743300000000005,2.305100000000003 0.7399000000000058,2.3086000000000055 0.7396000000000029,2.312900000000006 0.7439000000000036,2.315400000000004 0.7421000000000006,2.319100000000006 0.7441000000000031,2.3232 0.7475000000000023,2.3255000000000052 0.7409999999999997,2.3270000000000053 0.7335000000000065,2.326600000000006 0.7049000000000021,2.3156999999999996 0.7022000000000048,2.3156999999999996 0.6833000000000027,2.326900000000002 0.6736000000000004,2.3197000000000045 0.6659000000000006,2.3218999999999994 0.6535000000000011,2.331300000000006 0.6484000000000023,2.331800000000001 0.644200000000005,2.3368000000000038 0.6423000000000059,2.3368000000000038 0.6376000000000062,2.344300000000004 0.6377000000000024,2.3466000000000022 0.633100000000006,2.3501000000000047 0.6328000000000031,2.3604000000000056 0.6373000000000033,2.3637000000000015 0.6364000000000019,2.369100000000003 0.6377000000000024,2.371300000000005 0.6295000000000002,2.3785000000000025 0.6152000000000015,2.3807000000000045 0.6116000000000028,2.378600000000006 0.6036000000000001,2.379000000000005 0.5992000000000033,2.375 0.5991,2.3729000000000013 0.5935000000000059,2.3721999999999994 0.5885000000000034,2.3607000000000014 0.5856000000000066,2.357300000000002 0.5913000000000039,2.345000000000006 0.5878000000000014,2.3418000000000063 0.5875000000000057,2.337600000000002 0.5836000000000041,2.329900000000002 0.5863000000000014,2.3301000000000016 0.5799000000000021,2.3242000000000047 0.5749000000000066,2.3231000000000037 0.5716999999999999,2.319900000000004 0.5661000000000058,2.321800000000003 0.5604000000000013,2.317600000000006 0.5546000000000006,2.319200000000002 0.5478000000000023,2.316500000000005 0.544700000000006,2.3197000000000045 0.5302000000000007,2.3227000000000046 0.5265000000000057,2.3256000000000014 0.5247000000000028,2.3227000000000046 0.5195000000000007,2.3218999999999994 0.5200000000000031,2.3168000000000006 0.5104000000000042,2.319200000000002 0.5085000000000051,2.3153000000000006 0.5021000000000058,2.3198000000000008 0.4919000000000011,2.321400000000004 0.4836000000000027,2.326900000000002 0.4796000000000049,2.3253000000000057 0.4721000000000046,2.326600000000006 0.46240000000000236,2.323600000000006 0.45930000000000604,2.3222000000000023 0.4584000000000046,2.3186999999999998 0.45480000000000587,2.3178000000000054 0.4446000000000012,2.3230000000000004 0.4346000000000032,2.322500000000005 0.4271000000000029,2.3248999999999995 0.4228000000000023,2.324000000000005 0.41550000000000153,2.328800000000001 0.4128000000000043,2.328300000000006 0.4095000000000013,2.3312000000000026 0.4055000000000035,2.3312000000000026 0.3990000000000009,2.3267000000000024 0.3982000000000028,2.322900000000004 0.39170000000000016,2.322100000000006 0.38750000000000284,2.3248000000000033 0.3838000000000008,2.323900000000002 0.3803000000000054,2.3257000000000048 0.38000000000000256,2.322500000000005 0.3766000000000034,2.3212000000000046 0.377200000000002,2.320300000000003 0.3749000000000038,2.318400000000004 0.3731000000000009,2.3200000000000003 0.3719999999999999,2.3185000000000002 0.3681000000000054,2.3215000000000003 0.36360000000000525,2.3200000000000003 0.3638000000000048,2.322900000000004 0.36230000000000473,2.3237000000000023 0.3608000000000047,2.3232 0.358700000000006,2.3182000000000045 0.3563000000000045,2.317600000000006 0.35610000000000497,2.3211000000000013 0.35020000000000095,2.3233999999999995 0.3474000000000004,2.3211000000000013 0.34730000000000416,2.3247 0.34560000000000457,2.3253000000000057 0.341700000000003,2.3223000000000056 0.3369,2.3217 0.3348000000000013,2.317300000000003 0.3252000000000024,2.3193000000000055 0.317300000000003,2.316900000000004 0.3155000000000001,2.318000000000005 0.3167000000000044,2.3205000000000027 0.3106000000000009,2.3190000000000026 0.307300000000005,2.321400000000004 0.306200000000004,2.3247 0.30160000000000053,2.3253000000000057 0.2884000000000029,2.3315000000000055 0.28990000000000293,2.3349000000000046 0.27900000000000347,2.3320000000000007 0.2757000000000005,2.3340999999999994 0.27480000000000615,2.332100000000004 0.27300000000000324,2.332500000000003 0.27310000000000656,2.3396000000000043 0.26850000000000307,2.337600000000002 0.26310000000000144,2.339100000000002 0.26370000000000005,2.3345000000000056 0.2586000000000013,2.3330000000000055 0.25900000000000034,2.329100000000004 0.2563000000000031,2.3342000000000027 0.2541000000000011,2.333600000000004 0.2524000000000015,2.3414 0.2336000000000027,2.386100000000006 0.2302000000000035,2.3892000000000024 0.2272000000000034,2.4003000000000014 0.22380000000000422,2.405000000000001 0.22420000000000329,2.4069000000000003 0.21580000000000155,2.4258000000000024 0.2150000000000034,2.438900000000004 0.21240000000000236,2.445300000000003 0.21470000000000056,2.448900000000002 0.2144000000000048,2.455600000000004 0.2102000000000004,2.4736000000000047 0.19990000000000663,2.4917000000000016 0.20060000000000144,2.493400000000001 0.19580000000000553,2.499200000000002 0.19300000000000495,2.5080000000000027 0.18330000000000268,2.5250000000000057 0.18360000000000554,2.5278000000000063 0.18190000000000595,2.5289 0.1746000000000052,2.5464000000000055 0.16800000000000637,2.555800000000005 0.16500000000000625,2.5711000000000013 0.16100000000000136,2.577200000000005 0.15800000000000125,2.5789000000000044 0.15859999999999985,2.5820000000000007 0.15690000000000026,2.586100000000002 0.1418999999999997,2.589400000000005 0.13770000000000238,2.5986000000000047 0.13910000000000622,2.599400000000003 0.14000000000000057,2.593900000000005 0.14300000000000068,2.5903000000000063 0.15490000000000492,2.5889000000000024 0.15500000000000114,2.5900000000000034 0.15080000000000382,2.5908000000000015 0.1536000000000044,2.592500000000001 0.14800000000000324,2.591700000000003 0.15110000000000667,2.595000000000006 0.14630000000000365,2.595800000000004 0.15080000000000382,2.598000000000006 0.14690000000000225,2.598000000000006 0.14630000000000365,2.5997000000000057 0.15500000000000114,2.6030000000000015 0.14970000000000283,2.6022000000000034 0.14270000000000493,2.5986000000000047 0.14639999999999986,2.602800000000002 0.1566000000000045,2.6044000000000054 0.15610000000000213,2.6052999999999997 0.16190000000000282,2.6075000000000017 0.16330000000000666,2.6098 0.16380000000000194,2.6270000000000024 0.16130000000000422,2.6296999999999997 0.1618000000000066,2.6433000000000035 0.15859999999999985,2.6533000000000015 0.15520000000000067,2.655300000000004 0.1547000000000054,2.6578000000000017 0.15910000000000224,2.655000000000001 0.16159999999999997,2.6703000000000046 0.16130000000000422,2.678600000000003 0.1741000000000028,2.688600000000001 0.1769000000000034,2.688900000000004 0.18190000000000595,2.6972000000000023 0.1811000000000007,2.709700000000005 0.1763000000000048,2.7302999999999997 0.17220000000000368,2.7394000000000034 0.16910000000000025,2.742200000000004 0.16910000000000025,2.754400000000004 0.17440000000000566,2.7630000000000052 0.1758000000000024,2.7694000000000045 0.1746000000000052,2.7794000000000025 0.1705000000000041,2.7875000000000014 0.1711000000000027,2.7964000000000055 0.176400000000001,2.7986000000000004 0.17940000000000111,2.8083000000000027 0.18440000000000367,2.8075000000000045 0.1892000000000067,2.8096999999999994 0.1905000000000001,2.8183000000000007 0.19519999999999982,2.825400000000002 0.1963000000000008,2.831400000000002 0.20050000000000523,2.834700000000005 0.19990000000000663,2.8385999999999996 0.20630000000000592,2.8397000000000006 0.20880000000000365,2.844700000000003 0.21110000000000184,2.845800000000004 0.2108000000000061,2.8522000000000034 0.20750000000000313,2.8625000000000043 0.21520000000000294,2.8703000000000003 0.22690000000000055,2.8736000000000033 0.22940000000000538,2.8781000000000034 0.23440000000000083,2.878600000000006 0.23680000000000234,2.8836000000000013 0.23680000000000234,2.8906000000000063 0.2330000000000041,2.9025000000000034 0.2319000000000031,2.9169000000000054 0.2255000000000038,2.927800000000005 0.22270000000000323,2.9361000000000033 0.21580000000000155,2.944200000000002 0.21659999999999968,2.947500000000005 0.2144000000000048,2.951100000000004 0.21130000000000138,2.952200000000005 0.20880000000000365,2.9505000000000052 0.20770000000000266,2.9517000000000024 0.20770000000000266,2.9561000000000064 0.20410000000000394,2.9661000000000044 0.20470000000000255,2.979700000000001 0.2061000000000064,2.980000000000004 0.20660000000000167,2.9833 0.20360000000000156,2.991400000000006 0.2043999999999997,2.993400000000001 0.20660000000000167,2.9928000000000026 0.2043999999999997,2.9961000000000055 0.20690000000000452,2.9971999999999994 0.2027000000000001,2.9994000000000014 0.20410000000000394,3.0068000000000055 0.20300000000000296,3.0167 0.20550000000000068,3.0167 0.2061000000000064,3.0186000000000064 0.20300000000000296,3.020000000000003 0.20250000000000057,3.0331000000000046 0.20420000000000016,3.035800000000002 0.20220000000000482,3.040600000000005 0.2027000000000001,3.048000000000002 0.20130000000000337,3.0503 0.20250000000000057,3.050600000000003 0.2027000000000001,3.055500000000002 0.20080000000000098,3.059200000000004 0.20080000000000098,3.0671999999999997 0.20470000000000255,3.070300000000003 0.20190000000000197,3.0731000000000037 0.20360000000000156,3.0753000000000057 0.20020000000000238,3.0793999999999997 0.1991000000000014,3.0914 0.19470000000000454,3.1014000000000053 0.19500000000000028,3.1033000000000044 0.1980000000000004,3.1036 0.19880000000000564,3.1064000000000007 0.1905000000000001,3.116400000000006 0.1875,3.1225000000000023 0.16270000000000095,3.145000000000003 0.10910000000000508,3.1817000000000064 0.08300000000000551,3.194200000000002 0.07190000000000651,3.1958000000000055 0.0671999999999997,3.1950000000000003 0.06550000000000011,3.1875 0.06220000000000425,3.1850000000000023 0.05380000000000251,3.193000000000005 0.046100000000002694,3.1950000000000003 0.04270000000000351,3.198600000000006 0.046100000000002694,3.207800000000006 0.038800000000001944,3.2217000000000056 0.047100000000000364,3.2069000000000045 0.04360000000000497,3.2005000000000052 0.04470000000000596,3.1981000000000037 0.048799999999999955,3.2039000000000044 0.0508000000000024,3.2043999999999997 0.053300000000000125,3.2150000000000034 0.05000000000000426,3.214400000000005 0.04940000000000566,3.2172000000000054 0.055200000000006355,3.2217000000000056 0.05580000000000496,3.2257999999999996 0.051300000000004786,3.228900000000003 0.04630000000000223,3.228900000000003 0.04740000000000322,3.2333 0.04490000000000549,3.2353000000000023 0.04240000000000066,3.2353000000000023 0.04360000000000497,3.2325000000000017 0.03990000000000293,3.2331000000000003 0.037700000000000955,3.2378 0.040500000000001535,3.238100000000003 0.039400000000000546,3.2408 0.03630000000000422,3.239200000000004 0.026100000000006673,3.2464000000000013 0.022200000000005105,3.2464000000000013 0.02190000000000225,3.250300000000003 0.01630000000000109,3.250300000000003 0.016600000000003945,3.2531000000000034 0.025000000000005684,3.2583000000000055 0.02580000000000382,3.2622 0.02909999999999968,3.2628000000000057 0.02909999999999968,3.2672000000000025 0.025600000000004286,3.2714 0.018800000000005923,3.273300000000006 0.004100000000001103,3.268100000000004 0.004100000000001103,3.2717000000000027 0.001300000000000523,3.2717000000000027 0.0033000000000029672,3.2739000000000047 0.001300000000000523,3.273300000000006 0.0,3.2750000000000057 0.004200000000004422,3.275800000000004 0.01190000000000424,3.2744 0.015500000000002956,3.2778000000000063 0.018000000000000682,3.2778000000000063 0.024900000000002365,3.282200000000003 0.026300000000006207,3.2817000000000007 0.026300000000006207,3.2789 0.033300000000004104,3.278000000000006 0.03530000000000655,3.2797000000000054 0.03550000000000608,3.2831000000000046 0.0397000000000034,3.281400000000005 0.04190000000000538,3.282500000000006 0.04129999999999967,3.2867000000000033 0.04579999999999984,3.2930000000000064 0.047800000000002285,3.2994000000000057 0.053300000000000125,3.301400000000001 0.052400000000005775,3.2994000000000057 0.054400000000001114,3.296900000000001 0.05880000000000507,3.2974999999999994 0.05930000000000035,3.301400000000001 0.05630000000000024,3.3033 0.05580000000000496,3.3067000000000064 0.06080000000000041,3.3072000000000017 0.06360000000000099,3.312800000000003 0.06270000000000664,3.3144000000000062 0.06630000000000535,3.3171999999999997 0.06520000000000437,3.3194000000000017 0.06740000000000634,3.3200000000000003 0.0683000000000007,3.322800000000001 0.06380000000000052,3.3263999999999996 0.061400000000006116,3.340600000000002 0.057200000000001694,3.344700000000003 0.051600000000000534,3.345800000000004 0.05360000000000298,3.3530000000000015 0.051300000000004786,3.353900000000003 0.05220000000000624,3.3603000000000023 0.056100000000000705,3.3656000000000006 0.06500000000000483,3.3711000000000055 0.07280000000000086,3.373100000000001 0.07690000000000197,3.371700000000004 0.07830000000000581,3.3744000000000014 0.08220000000000027,3.3744000000000014 0.0841000000000065,3.3770000000000024 0.08360000000000412,3.3811000000000035 0.09020000000000294,3.385000000000005 0.08880000000000621,3.389700000000005 0.09490000000000265,3.393900000000002 0.09880000000000422,3.393900000000002 0.10050000000000381,3.396100000000004 0.09940000000000282,3.3992000000000004 0.1016000000000048,3.400800000000004 0.10990000000000322,3.4022000000000006 0.11380000000000479,3.4044000000000025 0.11630000000000251,3.410500000000006 0.11770000000000636,3.4272000000000062 0.12240000000000606,3.429700000000004 0.12720000000000198,3.4299999999999997 0.12860000000000582,3.4322000000000017 0.12940000000000396,3.440000000000005 0.12720000000000198,3.450800000000001 0.1238000000000028,3.4539000000000044 0.12270000000000181,3.4617000000000004 0.12470000000000425,3.465500000000006 0.12360000000000326,3.469700000000003 0.12190000000000367,3.4706000000000046 0.12220000000000653,3.4739000000000004 0.11720000000000397,3.4814000000000007 0.1133000000000024,3.4833 0.11520000000000152,3.4864000000000033 0.11520000000000152,3.490000000000002 0.11250000000000426,3.491400000000006 0.1133000000000024,3.4942000000000064 0.11140000000000327,3.494400000000006 0.11140000000000327,3.497 0.10410000000000252,3.5016999999999996 0.10660000000000025,3.5064000000000064 0.10360000000000014,3.5175000000000054 0.09609999999999985,3.5194000000000045 0.09490000000000265,3.523600000000002 0.09020000000000294,3.524700000000003 0.09330000000000638,3.5352999999999994 0.09550000000000125,3.5378000000000043 0.08660000000000423,3.5397000000000034 0.08360000000000412,3.5427999999999997 0.0847000000000051,3.544400000000003 0.09020000000000294,3.544400000000003 0.09220000000000539,3.5430000000000064 0.09240000000000492,3.544700000000006 0.09770000000000323,3.546900000000001 0.1016000000000048,3.5419000000000054 0.1069000000000031,3.5411 0.10880000000000223,3.543300000000002 0.11250000000000426,3.5389000000000053 0.1296999999999997,3.5397000000000034 0.14470000000000027,3.5503 0.14860000000000184,3.5553000000000026 0.15580000000000638,3.5549999999999997 0.15859999999999985,3.5567000000000064 0.16380000000000194,3.5633000000000052 0.16910000000000025,3.5778000000000034 0.17130000000000223,3.592800000000004 0.17610000000000525,3.5953000000000017 0.17800000000000438,3.603900000000003 0.18330000000000268,3.610500000000002 0.19380000000000308,3.6133000000000024 0.19610000000000127,3.6178000000000026 0.20130000000000337,3.618000000000002 0.20220000000000482,3.621600000000001 0.21950000000000358,3.608000000000004 0.23460000000000036,3.6111000000000004 0.2774000000000001,3.628600000000006 0.28520000000000323,3.630200000000002 0.2922000000000011,3.6296000000000035 0.30000000000000426,3.6234000000000037 0.3066000000000031,3.613800000000005 0.3054000000000059,3.598000000000006 0.2986000000000004,3.5792 0.30000000000000426,3.5730000000000004 0.3024000000000058,3.5704000000000065 0.3336000000000041,3.568400000000004 0.4001000000000019,3.5548 0.4177999999999997,3.5446000000000026 0.42540000000000333,3.535800000000002 0.4385000000000048,3.5095000000000027 0.4528000000000034,3.5046999999999997 0.4668000000000063,3.5249000000000024 0.47280000000000655,3.5737000000000023 0.46460000000000434,3.591000000000001 0.4714000000000027,3.6078000000000046 0.4829000000000008,3.624900000000004 0.4964000000000013,3.640800000000006 0.5125000000000028,3.649700000000003 0.528100000000002,3.6528000000000063 0.5383000000000067,3.653100000000002 0.5471000000000004,3.6510000000000034 0.5626000000000033,3.6441000000000017 0.5734000000000066,3.6432 0.5862000000000052,3.6467000000000027 0.5898000000000039,3.6500000000000057 0.5783000000000058,3.6695000000000064 0.5816000000000017,3.6810000000000045 0.5865000000000009,3.685700000000004 0.6009000000000029,3.693400000000004 0.6279000000000039,3.6817000000000064 0.6406000000000063,3.6813000000000002 0.6521000000000043,3.684100000000001 0.6623000000000019,3.6903000000000006 0.6660000000000039,3.6992000000000047 0.6645000000000039,3.7153000000000063 0.6671000000000049,3.720700000000001 0.6762000000000015,3.7291000000000025 0.6788000000000025,3.7353000000000023 0.6783000000000001,3.741800000000005 0.6724000000000032,3.7575000000000003 0.6814999999999998,3.7730999999999995 0.6779000000000011,3.779900000000005 0.6724000000000032,3.7841000000000022 0.669700000000006,3.7887000000000057 0.6689000000000007,3.7971000000000004 0.6649000000000029,3.808100000000003 0.6757000000000062,3.8319000000000045 0.6720000000000041,3.8408000000000015 0.6604000000000028,3.858700000000006 0.6654000000000053,3.8700000000000045 0.6725000000000065,3.8778000000000006 0.6824000000000012,3.879100000000001 0.6843000000000004,3.8808000000000007 0.6868000000000052,3.8888999999999996 0.6813000000000002,3.902000000000001 0.681200000000004,3.9125000000000014 0.6871000000000009,3.915700000000001 0.6965000000000003,3.912400000000005 0.7103999999999999,3.903800000000004 0.7190000000000012,3.9006000000000043 0.7412000000000063,3.8977000000000004 0.754800000000003,3.8911000000000016 0.7610000000000028,3.8922000000000025 0.7653999999999996,3.8948000000000036 0.7728999999999999,3.9080000000000013 0.7761000000000067,3.9221000000000004 0.7790999999999997,3.9238 0.7932000000000059,3.9193 0.8064999999999998,3.9274000000000058 0.8263000000000034,3.9274000000000058 0.8411000000000044,3.9174000000000007 0.8619000000000057,3.9217000000000013 0.867600000000003,3.9214000000000055 0.8930000000000007,3.906800000000004 0.9021000000000043,3.9059000000000026 0.9111000000000047,3.9070000000000036 0.9243000000000023,3.9185000000000016 0.9586000000000041,3.918600000000005 0.9679000000000002,3.9266000000000005 0.9844000000000008,3.9336000000000055 0.9897000000000062,3.944500000000005 0.9795000000000016,3.955300000000001 0.9765000000000015,3.9609000000000023 0.9760000000000062,3.9657000000000053 0.9828000000000046,3.9764000000000053 0.9840000000000018,3.981500000000004 0.9785000000000039,3.9862000000000037 0.9548000000000059,3.9917000000000016 0.9526000000000039,3.9986999999999995 0.9528999999999996,4.015500000000003 0.9499000000000066,4.019500000000001 0.943000000000005,4.023300000000006 0.9339000000000013,4.025400000000005 0.9231000000000051,4.024900000000002 0.9052000000000007,4.018100000000004 0.895300000000006,4.0172000000000025 0.8915000000000006,4.019200000000005 0.8914000000000044,4.022200000000005 0.895700000000005,4.030000000000001 0.9114000000000004,4.043500000000002 0.9115000000000038,4.0489999999999995 0.9040000000000035,4.0642 0.9072000000000031,4.077300000000001 0.9063000000000017,4.080500000000001 0.8994,4.082000000000001 0.8903999999999996,4.080600000000004 0.8830000000000027,4.081600000000002 0.8769000000000062,4.083500000000001 0.8728000000000051,4.0870999999999995 0.8704000000000036,4.091200000000001 0.868700000000004,4.101000000000006 0.8606000000000051,4.1141000000000005 0.8593000000000046,4.127900000000004 0.857200000000006,4.131600000000006 0.8522000000000034,4.134300000000003 0.8515000000000015,4.157000000000004 0.8387000000000029,4.1751000000000005 0.8407000000000053,4.181100000000001 0.8366000000000042,4.186300000000003 0.8367000000000004,4.190400000000004 0.8571000000000026,4.2014 0.8670000000000044,4.212000000000003 0.875,4.226800000000004 0.879800000000003,4.2450000000000045 0.8836000000000013,4.2513000000000005 0.8879000000000019,4.2684 0.8866000000000014,4.280300000000004 0.8843000000000032,4.2898 0.8716000000000008,4.319800000000001 0.8717000000000041,4.325300000000006 0.8756000000000057,4.339400000000005 0.8901000000000039,4.360800000000005 0.9025000000000034,4.369300000000003 0.9115000000000038,4.384600000000006 0.9206000000000003,4.3944000000000045 0.9224000000000032,4.4009 0.9188000000000045,4.4173000000000044 0.9089000000000027,4.431800000000003 0.9077000000000055,4.436400000000006 0.9108000000000018,4.447000000000003 0.9165000000000063,4.455600000000004 0.9540000000000006,4.4891000000000005 0.9619,4.500500000000002 0.9613000000000014,4.510600000000004 0.9521000000000015,4.525600000000004 0.9543999999999997,4.532000000000004 0.9592000000000027,4.5349 0.9690000000000012,4.524100000000004 1.0227000000000004,4.5135000000000005 1.0879000000000048,4.487900000000003 1.1633000000000067,4.470700000000001 1.1864000000000061,4.467000000000006 1.2281000000000049,4.470500000000001 1.2725000000000009,4.451300000000003 1.2826000000000022,4.444600000000001 1.293200000000006,4.432400000000001 1.303600000000003,4.426300000000005 1.3355000000000032,4.4161 1.3397000000000006,4.413600000000002 1.3418000000000063,4.410000000000004 1.3403000000000063,4.402000000000001 1.316900000000004,4.367700000000006 1.3116000000000057,4.3548000000000044 1.3117000000000019,4.349900000000005 1.315100000000001,4.347000000000001 1.3322000000000003,4.342500000000001 1.3483000000000018,4.331600000000002 1.3636000000000053,4.3187 1.3747000000000043,4.312900000000006 1.3800000000000026,4.312800000000003 1.3873000000000033,4.316300000000005 1.3963000000000036,4.3355999999999995 1.4055999999999997,4.348700000000001 1.410500000000006,4.351000000000006 1.4284000000000034,4.352500000000006 1.4348000000000027,4.352800000000002 1.4581000000000017,4.343900000000005 1.4687000000000054,4.3429 1.4799000000000007,4.343600000000002 1.5093000000000032,4.3526000000000025 1.5501000000000005,4.354200000000006 1.5868000000000038,4.350900000000003 1.6185000000000045,4.3444 1.656400000000005,4.342800000000004 1.7109000000000023,4.335100000000004 1.744800000000005,4.327400000000004 1.7561999999999998,4.327300000000001 1.7687000000000026,4.3304000000000045 1.7857000000000056,4.3386 1.804700000000004,4.356500000000004 1.818000000000005,4.365600000000001 1.8619000000000057,4.387800000000006 1.9192000000000036,4.410000000000004 1.9388000000000005,4.420700000000004 1.9577000000000027,4.426100000000005 1.978200000000001,4.427500000000002 1.9939999999999998,4.433900000000001 2.0105000000000004,4.438100000000006 2.017400000000002,4.4388000000000005 2.050700000000006,4.435900000000004 2.0749000000000066,4.437900000000006 2.0981000000000023,4.448500000000003 2.146000000000001,4.4634 2.1917000000000044,4.475000000000001 2.2602000000000046,4.5075 2.2817000000000007,4.513100000000001 2.3246000000000038,4.5179000000000045 2.3354,4.5257000000000005 2.337700000000005,4.532800000000002 2.342000000000006,4.538000000000004 2.354200000000006,4.547900000000006 2.4101,4.5704000000000065 2.4565000000000055,4.5839 2.471500000000006,4.593900000000005 2.4780000000000015,4.596200000000003 2.4842000000000013,4.597300000000004 2.5142000000000024,4.5952000000000055 2.5365000000000038,4.602800000000002 2.5489000000000033,4.602800000000002 2.5793000000000035,4.596299999999999 2.6000000000000014,4.594700000000003 2.6262000000000043,4.589700000000001 2.6822000000000017,4.586500000000001 2.691500000000005,4.584700000000005 2.7331000000000003,4.571100000000001 2.7767000000000053,4.552 2.8471000000000046,4.528100000000002 2.8518000000000043,4.525300000000001 2.8633000000000024,4.513100000000001 2.8747000000000043,4.506700000000002 2.884300000000003,4.4953 2.9066000000000045,4.479600000000005 2.9226000000000028,4.463100000000004 2.980700000000006,4.4177000000000035 3.0073000000000008,4.399700000000003 3.0152,4.396800000000006 3.0611000000000033,4.388600000000004 3.1308000000000007,4.386000000000003 3.2534000000000063,4.388200000000005 3.2827000000000055,4.3922000000000025 3.303900000000006,4.392600000000002 3.3692000000000064,4.386400000000002 3.4340000000000046,4.372700000000002 3.499200000000002,4.3553 3.511000000000003,4.354300000000002 3.559600000000003,4.3629999999999995 3.6285000000000025,4.378900000000002 3.6817000000000064,4.383700000000005 3.7229000000000028,4.384600000000006 3.7363,4.389000000000003 3.7508000000000052,4.3872 3.7820000000000036,4.390600000000006 3.8293999999999997,4.397100000000002 3.8803000000000054,4.408900000000003 3.948500000000003,4.4151000000000025 3.9957000000000065,4.430900000000001 4.006400000000006,4.433100000000003 4.091000000000001,4.4388000000000005 4.125500000000002,4.444600000000001 4.139700000000005,4.449800000000003 4.174200000000006,4.4664 4.212800000000001,4.476300000000002 4.246900000000004,4.487700000000004 4.299500000000002,4.513300000000001 4.335600000000007,4.525400000000005 4.356500000000004,4.538400000000003 4.363800000000005,4.5458 4.3707000000000065,4.550000000000004 4.416400000000003,4.561100000000003 4.464600000000004,4.568000000000005 4.491700000000002,4.5771000000000015 4.522000000000006,4.592500000000001 4.543900000000001,4.609300000000005 4.562100000000001,4.615400000000001 4.6096,4.641300000000001 4.6533000000000015,4.656700000000001 4.669700000000006,4.6640000000000015 4.681200000000004,4.6706 4.702800000000003,4.688500000000005 4.721800000000002,4.698100000000004 4.7455,4.7042 4.816300000000005,4.713100000000004 4.830000000000005,4.716000000000001 4.866100000000003,4.730500000000006 4.885900000000007,4.743400000000001 4.918900000000001,4.752200000000002 4.958500000000001,4.767700000000005 4.972100000000005,4.776900000000005 4.991500000000002,4.787000000000006 5.0045,4.790400000000005 5.024300000000004,4.791700000000006 5.0364,4.795200000000001 5.065400000000004,4.809900000000006 5.106200000000001,4.809000000000005 5.111900000000006,4.805400000000006 5.117800000000003,4.798700000000004 5.1342,4.795900000000003 5.1418000000000035,4.797700000000006 5.154200000000003,4.807300000000005 5.169600000000003,4.813600000000001 5.204800000000006,4.816400000000002 5.233700000000006,4.813700000000004 5.2561000000000035,4.806700000000006 5.284200000000006,4.801300000000005 5.316100000000006,4.796700000000001 5.343200000000003,4.794700000000006 5.398200000000003,4.784400000000005 5.4161,4.782400000000003 5.453400000000002,4.781500000000001 5.488100000000003,4.768600000000006 5.491400000000006,4.765800000000006 5.495600000000003,4.756300000000003 5.502100000000006,4.752900000000004 5.5205000000000055,4.754200000000004 5.532500000000006,4.758400000000002 5.5412000000000035,4.764300000000006 5.5548,4.768500000000003 5.784600000000005,4.768800000000006 5.841800000000006,4.774500000000003 5.873400000000004,4.781700000000001 5.910200000000003,4.794400000000003 5.941100000000006,4.801700000000004 5.970600000000005,4.8038000000000025 6.012100000000004,4.802800000000005 6.0423000000000044,4.806800000000003 6.258800000000001,4.8489 6.300000000000004,4.866700000000002 6.341000000000001,4.8782 6.363000000000007,4.890900000000002 6.389800000000001,4.902200000000001 6.396500000000003,4.9084 6.406100000000002,4.924700000000001 6.422900000000006,4.938700000000004 6.4375,4.949100000000001 6.4676000000000045,4.964400000000005 6.4776000000000025,4.971500000000006 6.491500000000002,4.9895 6.500200000000007,5.0045 6.508600000000001,5.008400000000002 6.518600000000006,5.005000000000003 6.512300000000003,4.987700000000004 6.502500000000005,4.973300000000002 6.501800000000003,4.969800000000006 6.5045,4.966800000000006 6.510800000000003,4.965900000000005 6.518700000000003,4.969800000000006 6.531000000000006,4.969700000000003 6.5396,4.9681 6.550700000000006,4.961100000000002 6.5593,4.9604 6.578700000000005,4.9702000000000055 6.583800000000004,4.963900000000002 6.5869,4.9544 6.591000000000001,4.950600000000001 6.6048000000000044,4.946100000000001 6.611200000000004,4.934400000000004 6.6188,4.929600000000001 6.633500000000005,4.925800000000002 6.641100000000002,4.916800000000002 6.642400000000002,4.907400000000003 6.638900000000007,4.899900000000002 6.623900000000006,4.8889 6.619,4.875 6.620800000000003,4.864200000000004 6.633100000000006,4.837600000000002 6.643700000000003,4.8245000000000005 6.646500000000003,4.816200000000002 6.647400000000005,4.7986 6.645900000000005,4.784300000000002 6.649700000000003,4.778400000000005 6.657300000000006,4.7761 6.664800000000007,4.771300000000004 6.668700000000001,4.763400000000004 6.668400000000005,4.756500000000003 6.532900000000005,4.647000000000006 6.460600000000007,4.5797000000000025 6.418500000000002,4.547000000000004 6.376100000000001,4.503600000000006 6.318100000000001,4.453100000000006 6.274500000000003,4.412300000000002 6.222200000000001,4.3596 6.187700000000007,4.335500000000003 6.165400000000005,4.3126999999999995 6.148600000000002,4.308100000000003 6.112000000000002,4.282500000000006 5.990500000000004,4.2568000000000055 5.706700000000005,4.214000000000006 5.697400000000002,4.209800000000001 5.687600000000003,4.201800000000006 5.5782000000000025,4.045500000000004 5.575500000000005,3.9528999999999996 5.550600000000003,3.7813000000000017 5.541700000000006,3.7439000000000036 5.664800000000007,3.5245999999999995 5.678000000000004,3.319600000000001 5.566300000000005,3.1754000000000033 5.5586000000000055,3.0742000000000047 5.526100000000007,2.974800000000002 5.517000000000003,2.9373000000000005 5.509,2.893500000000003 5.501800000000003,2.8215000000000003 5.513400000000004,2.6271000000000058 5.513300000000001,2.5494000000000057 5.521500000000003,2.4742999999999995 5.5182,2.4665000000000035 5.423200000000001,2.3534000000000006 5.316700000000004,2.1414000000000044 5.3108,2.136000000000003 5.302900000000001,2.132000000000005 5.300900000000006,2.1288000000000054 5.296100000000003,2.1092000000000013 4.887400000000007,1.9261000000000053 4.315800000000003,1.6573000000000064 3.7557000000000045,1.3896000000000015 3.0878000000000014,1.0611999999999995 2.704800000000006,0.8625000000000043 1.8198000000000008,0.3918999999999997 1.317300000000003,0.12199999999999989 1.2399000000000058,0.08010000000000161 1.1730000000000018,0.03750000000000142 1.1295000000000002,0.0018000000000029104 1.109100000000005,0.0 1.0221000000000018,0.021700000000002717 1.003700000000002,0.014400000000001967 0.9969999999999999,0.014500000000005286 0.9758000000000067,0.028400000000004866 0.954100000000004,0.03160000000000451 0.8044000000000011,0.04420000000000357 0.7870000000000061,0.04840000000000089 0.7765000000000057,0.056800000000002626 0.7639000000000067,0.06269999999999953 0.7473000000000027,0.0666000000000011 0.693400000000004,0.07150000000000034 0.6843000000000004,0.0765000000000029 0.6202000000000041,0.132000000000005 0.5798000000000059,0.15980000000000416 0.541400000000003,0.1822000000000017 0.5015000000000001,0.21110000000000184 0.48930000000000007,0.21770000000000067 0.48440000000000083,0.217800000000004 0.4621000000000066,0.20760000000000645 0.44840000000000657,0.2115000000000009 0.417500000000004,0.2132000000000005 0.3943000000000012,0.21240000000000236 0.3745000000000047,0.20720000000000027 0.37240000000000606,0.2260000000000062 0.3681000000000054,0.23840000000000572 0.3541000000000025,0.2651000000000039 0.34260000000000446,0.27710000000000434 0.3200000000000003,0.2932000000000059 0.31860000000000355,0.29640000000000555 0.3225000000000051,0.3201000000000036 0.3229000000000042,0.3318000000000012 0.3200000000000003,0.3436000000000021 0.3166000000000011,0.34720000000000084 0.30340000000000344,0.35120000000000573 0.2945000000000064,0.3521000000000001 0.2773000000000039,0.35070000000000334 0.26670000000000016,0.3544000000000054 0.2571000000000012,0.3604000000000056 0.2563000000000031,0.3628 0.26660000000000394,0.37130000000000507 0.2664000000000044,0.37990000000000634 0.2583000000000055,0.3862000000000023 0.24640000000000128,0.38630000000000564 0.2354000000000056,0.39270000000000493 0.23170000000000357,0.39630000000000365 0.228900000000003,0.4070000000000036 0.22050000000000125,0.4134000000000029 0.21450000000000102,0.41390000000000526 0.20410000000000394,0.41140000000000043 0.1928000000000054,0.4152000000000058 0.18500000000000227,0.4141000000000048 0.17010000000000502,0.4224000000000032 0.16210000000000235,0.42500000000000426 0.14560000000000173,0.42500000000000426 0.125,0.4187000000000012 0.11880000000000024,0.4183000000000021 0.11000000000000654,0.4204000000000008 0.10390000000000299,0.4239000000000033 0.10070000000000334,0.42890000000000583 0.09130000000000393,0.4277000000000015 0.0882000000000005,0.43200000000000216 0.09300000000000352,0.4404000000000039 0.09140000000000015,0.4458000000000055 0.08510000000000417,0.44890000000000185 0.06330000000000524,0.44120000000000203 0.08070000000000022,0.46410000000000196 0.1086000000000027,0.4930000000000021 0.12349999999999994,0.5115000000000052 "></polygon><polygon points="0.4485000000000028,1.5373000000000019 0.4486000000000061,1.5373000000000019 0.4479000000000042,1.5369000000000028 0.4485000000000028,1.5373000000000019 "></polygon><polygon points="0.14500000000000313,2.5482000000000014 0.14610000000000412,2.543300000000002 0.14000000000000057,2.543300000000002 0.13970000000000482,2.548400000000001 0.14500000000000313,2.5482000000000014 "></polygon>
    </svg>
    