
    <svg width="3.2974999999999994" height="1.3778000000000006" xmlns="http://www.w3.org/2000/svg" xmlns:xlink="http://www.w3.org/1999/xlink" style="transform: scale(1, -1)">
        <polygon points="0.3096999999999923,0.020500000000000185 0.30979999999999563,0.019499999999998963 0.30469999999999686,0.019099999999999895 0.2972000000000037,0.021900000000000475 0.2933000000000021,0.01810000000000045 0.28719999999999857,0.019099999999999895 0.2711999999999932,0.00879999999999903 0.2563999999999993,0.011200000000000543 0.2518000000000029,0.0019999999999988916 0.2476999999999947,0.0030000000000001137 0.24280000000000257,0.0 0.2400999999999982,0.0017999999999993577 0.23380000000000223,0.00140000000000029 0.23439999999999372,0.01580000000000048 0.23739999999999384,0.019399999999999196 0.23989999999999156,0.028699999999998838 0.24320000000000164,0.03229999999999933 0.24150000000000205,0.03599999999999959 0.24200000000000443,0.040099999999998914 0.23959999999999582,0.04190000000000005 0.23860000000000525,0.04630000000000045 0.24200000000000443,0.05349999999999966 0.23629999999999995,0.06400000000000006 0.22919999999999163,0.07059999999999889 0.23149999999999693,0.07559999999999967 0.23059999999999548,0.0799000000000003 0.2283000000000044,0.08070000000000022 0.2289999999999992,0.08429999999999893 0.2261000000000024,0.09009999999999962 0.2266000000000048,0.09229999999999983 0.2248000000000019,0.09350000000000058 0.22279999999999234,0.09229999999999983 0.22169999999999845,0.09769999999999968 0.21779999999999688,0.10099999999999909 0.21639999999999304,0.10839999999999961 0.20709999999999695,0.11239999999999917 0.19960000000000377,0.12069999999999936 0.19400000000000261,0.12299999999999933 0.18999999999999773,0.13030000000000008 0.18559999999999377,0.12880000000000003 0.1717000000000013,0.1390999999999991 0.1671000000000049,0.1368999999999989 0.1658999999999935,0.13459999999999894 0.16140000000000043,0.1349999999999998 0.15980000000000416,0.1335999999999995 0.15840000000000032,0.12710000000000043 0.15200000000000102,0.1257999999999999 0.14749999999999375,0.12689999999999912 0.14509999999999934,0.12079999999999913 0.14069999999999538,0.11739999999999995 0.12869999999999493,0.1142000000000003 0.12720000000000198,0.11149999999999949 0.12319999999999709,0.11019999999999897 0.12309999999999377,0.10800000000000054 0.12689999999999202,0.10440000000000005 0.11619999999999209,0.09220000000000006 0.11769999999999925,0.08699999999999974 0.11660000000000537,0.08499999999999908 0.10970000000000368,0.08220000000000027 0.10509999999999309,0.08279999999999887 0.10500000000000398,0.07739999999999903 0.09879999999999711,0.0804999999999989 0.0945999999999998,0.0801999999999996 0.09019999999999584,0.07779999999999987 0.08339999999999748,0.08799999999999919 0.08140000000000214,0.0884999999999998 0.07989999999999498,0.09379999999999988 0.07509999999999195,0.09789999999999921 0.07319999999999993,0.09759999999999991 0.07139999999999702,0.09469999999999956 0.06810000000000116,0.09799999999999898 0.06550000000000011,0.0945999999999998 0.05180000000000007,0.09660000000000046 0.043300000000002115,0.1097999999999999 0.030199999999993565,0.12480000000000047 0.025199999999998113,0.1349999999999998 0.019300000000001205,0.13729999999999976 0.01670000000000016,0.14419999999999966 0.008700000000004593,0.15279999999999916 0.004099999999993997,0.1546000000000003 0.0,0.16109999999999935 0.0,0.16879999999999917 0.006100000000003547,0.17050000000000054 0.008099999999998886,0.1728000000000005 0.010599999999996612,0.17050000000000054 0.017099999999999227,0.17169999999999952 0.028700000000000614,0.18009999999999948 0.03499999999999659,0.17959999999999887 0.039299999999997226,0.17709999999999937 0.05150000000000432,0.1806000000000001 0.05480000000000018,0.18520000000000003 0.06560000000000343,0.19430000000000014 0.07809999999999206,0.19529999999999959 0.08559999999999945,0.1997 0.09199999999999875,0.2073999999999998 0.11169999999999902,0.2090999999999994 0.11910000000000309,0.2142999999999997 0.12259999999999138,0.22109999999999985 0.1280000000000001,0.2264999999999997 0.14059999999999206,0.254999999999999 0.15550000000000352,0.25839999999999996 0.15879999999999939,0.26069999999999993 0.16899999999999693,0.2599 0.17789999999999395,0.26699999999999946 0.18789999999999907,0.26750000000000007 0.19360000000000355,0.26980000000000004 0.21009999999999707,0.2682000000000002 0.2172000000000054,0.279399999999999 0.22969999999999402,0.2815999999999992 0.24269999999999925,0.2887000000000004 0.24840000000000373,0.28919999999999924 0.2563999999999993,0.29299999999999926 0.2582999999999913,0.29439999999999955 0.26080000000000325,0.30299999999999905 0.26619999999999777,0.3064 0.2744,0.30439999999999934 0.2857999999999947,0.3083999999999989 0.29760000000000275,0.3088999999999995 0.3101999999999947,0.3064 0.3246000000000038,0.30630000000000024 0.33159999999999457,0.30989999999999895 0.3405999999999949,0.31209999999999916 0.34560000000000457,0.31739999999999924 0.35379999999999256,0.31700000000000017 0.3555999999999955,0.3205999999999989 0.3586999999999989,0.3222000000000005 0.36700000000000443,0.33199999999999896 0.370199999999997,0.3318999999999992 0.3825999999999965,0.33750000000000036 0.3947000000000003,0.33590000000000053 0.4030999999999949,0.33779999999999966 0.42130000000000223,0.33169999999999966 0.42379999999999995,0.33259999999999934 0.4274999999999949,0.33060000000000045 0.4309999999999974,0.3307000000000002 0.43309999999999604,0.3285 0.43540000000000134,0.31540000000000035 0.4344999999999999,0.30909999999999904 0.43789999999999907,0.30689999999999884 0.43259999999999366,0.3047000000000004 0.4309999999999974,0.30129999999999946 0.4235000000000042,0.2964000000000002 0.4210999999999956,0.2806999999999995 0.4235000000000042,0.2766000000000002 0.42079999999999984,0.273299999999999 0.4222999999999928,0.2663999999999991 0.4194999999999993,0.26229999999999976 0.4210999999999956,0.25489999999999924 0.4170000000000016,0.2538999999999998 0.4158999999999935,0.24789999999999957 0.40970000000000084,0.2378 0.4111000000000047,0.22959999999999958 0.410499999999999,0.22109999999999985 0.4170000000000016,0.21119999999999983 0.4175999999999931,0.2051999999999996 0.41440000000000055,0.19989999999999952 0.41140000000000043,0.1988000000000003 0.4095999999999975,0.1960999999999995 0.4017999999999944,0.1982999999999997 0.3984999999999985,0.19200000000000017 0.39520000000000266,0.19019999999999904 0.39329999999999643,0.17079999999999984 0.38989999999999725,0.16999999999999993 0.3885999999999967,0.17329999999999934 0.386099999999999,0.17079999999999984 0.3815000000000026,0.17290000000000028 0.376899999999992,0.1684000000000001 0.36990000000000123,0.16910000000000025 0.36700000000000443,0.16639999999999944 0.3644000000000034,0.16779999999999973 0.35849999999999227,0.16469999999999985 0.3592000000000013,0.16189999999999927 0.35710000000000264,0.15920000000000023 0.35609999999999786,0.15249999999999986 0.3445999999999998,0.1440999999999999 0.33499999999999375,0.14789999999999992 0.33509999999999707,0.14149999999999885 0.3328999999999951,0.1394000000000002 0.33329999999999416,0.13429999999999964 0.32909999999999684,0.12809999999999988 0.3336999999999932,0.12490000000000023 0.3369,0.11519999999999975 0.33429999999999893,0.11139999999999972 0.3353999999999928,0.107899999999999 0.33159999999999457,0.10469999999999935 0.32750000000000057,0.10360000000000014 0.3322000000000003,0.10099999999999909 0.3294999999999959,0.09839999999999982 0.328400000000002,0.09960000000000058 0.3265999999999991,0.09869999999999912 0.3289000000000044,0.09600000000000009 0.3276000000000039,0.08999999999999986 0.3217999999999961,0.08520000000000039 0.31749999999999545,0.08549999999999969 0.3091000000000008,0.08070000000000022 0.30459999999999354,0.07610000000000028 0.3032000000000039,0.07070000000000043 0.30740000000000123,0.06349999999999945 0.31399999999999295,0.061299999999999244 0.3170999999999964,0.05860000000000021 0.3200999999999965,0.045099999999999696 0.3114999999999952,0.04049999999999976 0.30989999999999895,0.03539999999999921 0.3118999999999943,0.03289999999999971 0.310299999999998,0.028100000000000236 0.31159999999999854,0.02289999999999992 0.3096999999999923,0.020500000000000185 "></polygon><polygon points="1.042199999999994,0.04829999999999934 1.0396999999999963,0.05010000000000048 1.0422999999999973,0.05339999999999989 1.0386999999999915,0.054999999999999716 1.0361999999999938,0.06080000000000041 1.033699999999996,0.062099999999999156 1.035899999999998,0.06599999999999895 1.033699999999996,0.07000000000000028 1.0365000000000038,0.07310000000000016 1.0343000000000018,0.07460000000000022 1.0356000000000023,0.07750000000000057 1.0331999999999937,0.07830000000000048 1.0360000000000014,0.08339999999999925 1.033699999999996,0.0840999999999994 1.032899999999998,0.08639999999999937 1.0361000000000047,0.09149999999999991 1.0322000000000031,0.09980000000000011 1.0319999999999965,0.10639999999999894 1.0349999999999966,0.11260000000000048 1.0301000000000045,0.1208999999999989 1.0259999999999962,0.12190000000000012 1.0228000000000037,0.12539999999999907 1.021799999999999,0.1311 1.0138999999999925,0.13379999999999903 1.0137,0.13780000000000037 1.0083999999999946,0.14059999999999917 1.0057000000000045,0.14449999999999896 1.0049999999999955,0.14669999999999916 1.0065000000000026,0.1495999999999995 1.004499999999993,0.1495999999999995 1.0037999999999982,0.15119999999999933 1.0061999999999927,0.15990000000000038 1.005200000000002,0.17029999999999923 1.0073000000000008,0.17349999999999888 1.006299999999996,0.1759000000000004 1.0027999999999935,0.18079999999999963 0.9975000000000023,0.1833999999999989 0.9906000000000006,0.18120000000000047 0.9890999999999934,0.18459999999999965 0.984499999999997,0.18459999999999965 0.9813999999999936,0.19069999999999965 0.9656999999999982,0.20420000000000016 0.9616999999999933,0.2098999999999993 0.9518999999999949,0.21059999999999945 0.9495000000000005,0.21449999999999925 0.9502999999999986,0.21919999999999895 0.9532999999999987,0.22390000000000043 0.9528999999999996,0.22639999999999993 0.9444000000000017,0.23669999999999902 0.9423999999999921,0.2439 0.9432999999999936,0.2494999999999994 0.9398000000000053,0.25319999999999965 0.9402999999999935,0.25839999999999996 0.9389000000000038,0.26179999999999914 0.9363999999999919,0.2626999999999988 0.9380000000000024,0.2637999999999998 0.9371000000000009,0.26929999999999943 0.9388000000000005,0.27389999999999937 0.9363999999999919,0.29359999999999964 0.9376999999999924,0.3132999999999999 0.9394999999999953,0.31269999999999953 0.9432999999999936,0.31519999999999904 0.9453999999999922,0.3260000000000005 0.9478000000000009,0.3279999999999994 0.9489999999999981,0.3263999999999996 0.9479999999999933,0.32809999999999917 0.9492999999999938,0.33230000000000004 0.9547000000000025,0.3304999999999989 0.9579999999999984,0.33230000000000004 0.9604999999999961,0.33009999999999984 0.9639999999999986,0.3299000000000003 0.966700000000003,0.3308 0.9693999999999932,0.33559999999999945 0.9800999999999931,0.33339999999999925 0.9835999999999956,0.33509999999999884 0.9881000000000029,0.33450000000000024 0.991100000000003,0.33029999999999937 0.9945000000000022,0.33150000000000013 0.9968999999999966,0.33039999999999914 1.0076999999999998,0.33590000000000053 1.0152999999999963,0.33169999999999966 1.020399999999995,0.33140000000000036 1.0229999999999961,0.3288999999999991 1.0297999999999945,0.32920000000000016 1.0349999999999966,0.3161000000000005 1.0383999999999958,0.31519999999999904 1.0412999999999926,0.3117000000000001 1.0460999999999956,0.30930000000000035 1.0519999999999925,0.3028999999999993 1.0575000000000045,0.3074999999999992 1.057299999999998,0.3088999999999995 1.0611999999999995,0.3088999999999995 1.062899999999999,0.31230000000000047 1.071399999999997,0.31819999999999915 1.0776000000000039,0.3193999999999999 1.0799999999999983,0.3224 1.0869,0.32559999999999967 1.0892999999999944,0.33029999999999937 1.0970999999999975,0.33119999999999905 1.103200000000001,0.33389999999999986 1.1103999999999985,0.33169999999999966 1.1264000000000038,0.33230000000000004 1.1296999999999997,0.329699999999999 1.1343999999999994,0.33830000000000027 1.1315000000000026,0.3468 1.133899999999997,0.35109999999999886 1.134299999999996,0.357899999999999 1.131299999999996,0.3606999999999996 1.1307000000000045,0.36790000000000056 1.1281000000000034,0.3705999999999996 1.127600000000001,0.3774999999999995 1.1255999999999915,0.3818999999999999 1.1281999999999925,0.38649999999999984 1.1345000000000027,0.3863000000000003 1.1330999999999989,0.392199999999999 1.1281999999999925,0.39860000000000007 1.1311000000000035,0.40029999999999966 1.1332000000000022,0.4048999999999996 1.132400000000004,0.40920000000000023 1.1351999999999975,0.42079999999999984 1.1398999999999972,0.42469999999999963 1.1398999999999972,0.43019999999999925 1.1426000000000016,0.4314 1.1388999999999925,0.4419000000000004 1.139799999999994,0.4452999999999996 1.1435999999999922,0.44759999999999955 1.1428999999999974,0.4554999999999989 1.1443000000000012,0.4581999999999997 1.1392999999999915,0.4675999999999991 1.140199999999993,0.47390000000000043 1.1418000000000035,0.4756999999999998 1.1397000000000048,0.47879999999999967 1.119799999999998,0.49209999999999887 1.1141999999999967,0.5 1.1033000000000044,0.5082000000000004 1.0909000000000049,0.5091999999999999 1.088399999999993,0.5164999999999988 1.0849999999999937,0.5179999999999989 1.0819000000000045,0.5238999999999994 1.0767999999999915,0.5265000000000004 1.0763999999999925,0.5300999999999991 1.0725000000000051,0.5344999999999995 1.066999999999993,0.5372000000000003 1.0631999999999948,0.5358999999999998 1.058800000000005,0.5311000000000003 1.0570999999999913,0.5162999999999993 1.0537999999999954,0.5118999999999989 1.0542999999999978,0.5053000000000001 1.042500000000004,0.4922000000000004 1.0370999999999952,0.4903999999999993 1.031800000000004,0.48300000000000054 1.0275999999999925,0.4817 1.0228000000000037,0.47690000000000055 1.017700000000005,0.4762000000000004 1.0130000000000052,0.4778000000000002 1.007400000000004,0.472999999999999 0.9976999999999947,0.47279999999999944 0.9953000000000003,0.47029999999999994 0.993300000000005,0.4711999999999996 0.9913999999999987,0.46839999999999904 0.9864999999999924,0.4664999999999999 0.986699999999999,0.46309999999999896 0.984499999999997,0.4610000000000003 0.9767999999999972,0.4621999999999993 0.9753999999999934,0.46090000000000053 0.9763999999999982,0.45529999999999937 0.9732999999999947,0.45399999999999885 0.9652999999999992,0.45449999999999946 0.9620999999999924,0.4444999999999997 0.957099999999997,0.4405999999999999 0.9467999999999961,0.4405000000000001 0.9436999999999927,0.44459999999999944 0.9389000000000038,0.43849999999999945 0.9295999999999935,0.4415999999999993 0.924199999999999,0.44810000000000016 0.9162999999999926,0.4458000000000002 0.9103999999999957,0.4468999999999994 0.9077999999999946,0.4559999999999995 0.9055000000000035,0.45589999999999975 0.9052999999999969,0.4527000000000001 0.9037000000000006,0.4520999999999997 0.9017000000000053,0.4554999999999989 0.8978000000000037,0.45560000000000045 0.8975999999999971,0.45730000000000004 0.8952999999999918,0.4574999999999996 0.8970999999999947,0.4672999999999998 0.892399999999995,0.4698999999999991 0.8867999999999938,0.47659999999999947 0.8868999999999971,0.4864999999999995 0.8917000000000002,0.4878999999999998 0.892399999999995,0.4908999999999999 0.8915999999999968,0.49789999999999957 0.8930000000000007,0.5016999999999996 0.8889999999999958,0.5057999999999989 0.8889999999999958,0.5092999999999996 0.8960000000000008,0.5206 0.8962999999999965,0.5260999999999996 0.9004999999999939,0.5283999999999995 0.9009999999999962,0.5314999999999994 0.9052999999999969,0.5358999999999998 0.9067000000000007,0.5437999999999992 0.9050000000000011,0.5465 0.9093000000000018,0.5503999999999998 0.9114000000000004,0.5555000000000003 0.9202999999999975,0.5589999999999993 0.9249999999999972,0.5583999999999989 0.930499999999995,0.5624000000000002 0.9334999999999951,0.5676000000000005 0.9350999999999914,0.5754000000000001 0.9407999999999959,0.5792999999999999 0.9438999999999993,0.5849999999999991 0.9475000000000051,0.600299999999999 0.9522000000000048,0.6052999999999997 0.9557999999999964,0.6121999999999996 0.955600000000004,0.6164000000000005 0.9594000000000023,0.6265999999999998 0.9586000000000041,0.6318999999999999 0.9603000000000037,0.6404999999999994 0.9832999999999998,0.666599999999999 0.9864000000000033,0.6661000000000001 0.9890000000000043,0.6682000000000006 0.9913999999999987,0.6732999999999993 0.9960999999999984,0.6763999999999992 1.0103000000000009,0.6754999999999995 1.0241999999999933,0.680299999999999 1.0307999999999993,0.6875 1.0341999999999985,0.6885999999999992 1.0506000000000029,0.7065999999999999 1.0527000000000015,0.718 1.049199999999999,0.7363999999999997 1.0474999999999994,0.7622 1.0456999999999965,0.7676999999999996 1.0507999999999953,0.7754999999999992 1.0553000000000026,0.7933000000000003 1.0555999999999983,0.8004999999999995 1.053600000000003,0.8057999999999996 1.0553000000000026,0.8094000000000001 1.0528000000000048,0.8157999999999994 1.0610999999999962,0.8269000000000002 1.0632999999999981,0.8369 1.0679999999999978,0.8475000000000001 1.071399999999997,0.8532999999999991 1.0755000000000052,0.8560999999999996 1.0785999999999945,0.8652999999999995 1.0810999999999922,0.8646999999999991 1.0863999999999976,0.8675999999999995 1.0982999999999947,0.8703000000000003 1.1082999999999998,0.8766999999999996 1.1191999999999922,0.8796999999999997 1.1252999999999957,0.8852999999999991 1.1341999999999928,0.8872 1.1513999999999953,0.8940999999999999 1.1585999999999927,0.8943999999999992 1.1655999999999977,0.8990999999999989 1.1713999999999913,0.8978000000000002 1.176400000000001,0.9002999999999997 1.2032999999999987,0.9002999999999997 1.2072000000000003,0.9018999999999995 1.2261000000000024,0.8996999999999993 1.2516999999999996,0.9024999999999999 1.2647000000000048,0.9157999999999991 1.2793999999999954,0.9135999999999989 1.2871999999999986,0.9214000000000002 1.2997000000000014,0.9214000000000002 1.3075000000000045,0.9257999999999988 1.311399999999992,0.9249999999999989 1.3166999999999973,0.9278999999999993 1.3230999999999966,0.9283000000000001 1.3268999999999949,0.9315999999999995 1.332499999999996,0.9328000000000003 1.3383000000000038,0.9382999999999999 1.3432999999999993,0.9385999999999992 1.3472000000000008,0.9407999999999994 1.3560999999999979,0.9405000000000001 1.3725000000000023,0.9429999999999996 1.375,0.9413999999999998 1.3806000000000012,0.9419000000000004 1.3892000000000024,0.9371999999999989 1.392399999999995,0.9382999999999999 1.394999999999996,0.9360999999999997 1.3984999999999985,0.9366000000000003 1.4027999999999992,0.9332999999999991 1.4050000000000011,0.9367000000000001 1.4076999999999913,0.9343000000000004 1.4161000000000001,0.9377999999999993 1.4196999999999917,0.9360999999999997 1.4258999999999986,0.9375 1.4288999999999987,0.9307999999999996 1.4350999999999914,0.9310999999999989 1.4406000000000034,0.9390999999999998 1.4399999999999977,0.9432999999999989 1.435299999999998,0.9478999999999989 1.4427999999999912,0.9493999999999989 1.4466999999999928,0.9477999999999991 1.4539000000000044,0.9489000000000001 1.4616999999999933,0.9476999999999993 1.4724999999999966,0.9588999999999999 1.4805999999999955,0.9633000000000003 1.4860999999999933,0.9638999999999989 1.4886000000000053,0.968 1.5054999999999978,0.9595000000000002 1.514799999999994,0.9566999999999997 1.5244,0.9564000000000004 1.5263999999999953,0.9538999999999991 1.5322000000000031,0.9513999999999996 1.5339000000000027,0.9538999999999991 1.5374999999999943,0.9541000000000004 1.540300000000002,0.9564000000000004 1.5528000000000048,0.9574999999999996 1.5585999999999984,0.9596999999999998 1.5618999999999943,0.9588999999999999 1.5657999999999959,0.9619999999999997 1.5694000000000017,0.9688999999999997 1.5696999999999974,0.9733 1.564700000000002,0.9749999999999996 1.564300000000003,0.9815000000000005 1.5618999999999943,0.9836999999999989 1.5630999999999915,0.9855 1.5703000000000031,0.9827999999999992 1.5760999999999967,0.9857999999999993 1.5768999999999949,0.9798999999999989 1.5799999999999983,0.9779999999999998 1.5836000000000041,0.9794 1.588799999999992,0.9775999999999989 1.5994000000000028,0.9782999999999991 1.6011000000000024,0.9802999999999997 1.6141999999999967,0.9782999999999991 1.6217000000000041,0.9796999999999993 1.638300000000001,0.9685000000000006 1.6432999999999964,0.968 1.644999999999996,0.9696999999999996 1.6474999999999937,0.9694000000000003 1.6491999999999933,0.9718999999999998 1.6533000000000015,0.9708000000000006 1.6607999999999947,0.9749999999999996 1.669399999999996,0.9840999999999998 1.6722000000000037,0.9853000000000005 1.674199999999999,0.9849999999999994 1.6781000000000006,0.979099999999999 1.680800000000005,0.9778000000000002 1.6868999999999943,0.9839000000000002 1.6961000000000013,0.9818999999999996 1.7064000000000021,0.9836999999999989 1.7102000000000004,0.9903999999999993 1.7150000000000034,0.9932999999999996 1.7283000000000044,0.9977999999999998 1.7334000000000032,0.9960000000000004 1.7347000000000037,0.9993999999999996 1.7409999999999997,1.0000999999999998 1.743300000000005,1.0024999999999995 1.7613999999999947,1.0014000000000003 1.7713999999999999,1.0083000000000002 1.7745000000000033,1.0137999999999998 1.7779000000000025,1.014899999999999 1.7835000000000036,1.0137999999999998 1.8055999999999983,1.0305 1.8238999999999947,1.0282999999999998 1.8366000000000042,1.0282999999999998 1.838399999999993,1.0296000000000003 1.8449999999999989,1.0272000000000006 1.8489000000000004,1.029399999999999 1.8597000000000037,1.0297 1.8636000000000053,1.0263999999999989 1.8726999999999947,1.026299999999999 1.8796999999999997,1.0243000000000002 1.8924999999999983,1.0265000000000004 1.8956000000000017,1.028599999999999 1.9070999999999998,1.0250000000000004 1.9121999999999986,1.0198 1.9196999999999917,1.0202999999999989 1.9291999999999945,1.0168999999999997 1.9333000000000027,1.0205000000000002 1.941900000000004,1.0169999999999995 1.950800000000001,1.0069 1.9646999999999935,1.0021000000000004 1.9686999999999983,0.9963999999999995 1.9744000000000028,0.9932999999999996 1.9804999999999922,0.9938000000000002 1.9832999999999998,0.9918999999999993 1.9968999999999966,0.9930000000000003 2.0061999999999927,0.9878 2.0113999999999947,0.9910999999999994 2.018900000000002,0.9922000000000004 2.023299999999992,0.9891000000000005 2.0227000000000004,0.9821999999999989 2.0238999999999976,0.9817999999999998 2.029299999999992,0.9873999999999992 2.0472000000000037,0.9849999999999994 2.0551999999999992,0.9920999999999989 2.061300000000003,0.9952000000000005 2.0674999999999955,0.9946000000000002 2.0767000000000024,1.0008 2.0827999999999918,1.0014000000000003 2.0908000000000015,0.9969000000000001 2.0982999999999947,1.0032999999999994 2.112099999999998,1.004199999999999 2.1156000000000006,1.0085999999999995 2.1180999999999983,1.0093999999999994 2.1243999999999943,1.0085999999999995 2.1307999999999936,1.0046999999999997 2.139700000000005,1.0018999999999991 2.1488999999999976,1.0033999999999992 2.1607999999999947,1.0099999999999998 2.177499999999995,1.0069 2.185299999999998,1.0030000000000001 2.1918000000000006,1.0023 2.1987000000000023,1.0062999999999995 2.2095999999999947,1.0184999999999995 2.215599999999995,1.017999999999999 2.2235000000000014,1.0199999999999996 2.229699999999994,1.024099999999999 2.2347000000000037,1.024099999999999 2.2453000000000003,1.0319000000000003 2.2546999999999997,1.0435999999999996 2.2630999999999943,1.0488999999999997 2.271100000000004,1.0518 2.295599999999993,1.055299999999999 2.3007999999999953,1.0649999999999995 2.3164000000000016,1.0791000000000004 2.3230999999999966,1.0791000000000004 2.3277999999999963,1.0822000000000003 2.3319999999999936,1.0777 2.3355999999999995,1.0765999999999991 2.3400000000000034,1.0802999999999994 2.371700000000004,1.0902999999999992 2.3811000000000035,1.0846999999999998 2.3952000000000027,1.0806000000000004 2.4099999999999966,1.068299999999999 2.4155999999999977,1.067499999999999 2.424999999999997,1.062199999999999 2.4380999999999915,1.0604999999999993 2.4594000000000023,1.0547000000000004 2.468599999999995,1.048 2.4732999999999947,1.0464000000000002 2.477800000000002,1.0404 2.4835999999999956,1.0399999999999991 2.4827999999999975,1.0364000000000004 2.486699999999999,1.0390999999999995 2.5090000000000003,1.0231999999999992 2.5172000000000025,1.024099999999999 2.5208999999999975,1.021799999999999 2.536699999999996,1.0343999999999998 2.544799999999995,1.0335 2.5493999999999915,1.035499999999999 2.553299999999993,1.0350000000000001 2.563199999999995,1.0442999999999998 2.570300000000003,1.0478000000000005 2.5853000000000037,1.052999999999999 2.592799999999997,1.0536999999999992 2.613100000000003,1.0671999999999997 2.6557999999999993,1.0818999999999992 2.6845,1.1014999999999997 2.690799999999996,1.1019000000000005 2.7002999999999986,1.091099999999999 2.7128000000000014,1.0840999999999994 2.722200000000001,1.0824999999999996 2.731099999999998,1.086599999999999 2.741100000000003,1.0869 2.75,1.0963999999999992 2.7557999999999936,1.0991 2.7676000000000016,1.0987999999999989 2.7763999999999953,1.1038999999999994 2.782200000000003,1.1044 2.7864000000000004,1.1085999999999991 2.791399999999996,1.1090999999999998 2.800600000000003,1.1136 2.811099999999996,1.1221999999999994 2.830299999999994,1.1325000000000003 2.836200000000005,1.1348000000000003 2.8418999999999954,1.1341 2.849199999999996,1.1390999999999991 2.859499999999997,1.1433 2.8880999999999943,1.166599999999999 2.903899999999993,1.1715999999999998 2.9136000000000024,1.1775000000000002 2.922799999999995,1.1791 2.956099999999992,1.1828000000000003 2.9624999999999915,1.177999999999999 2.9660999999999973,1.1771999999999991 2.9786,1.166599999999999 2.9860999999999933,1.1639 2.991100000000003,1.1654999999999998 3.002200000000002,1.1610999999999994 3.019199999999998,1.141399999999999 3.0356000000000023,1.1402999999999999 3.038899999999998,1.1416000000000004 3.0446999999999917,1.138 3.054699999999997,1.1390999999999991 3.0694000000000017,1.1365999999999996 3.073599999999999,1.1382999999999992 3.0888999999999953,1.1390999999999991 3.1003000000000043,1.1427999999999994 3.1067000000000036,1.1465999999999994 3.123899999999992,1.1639 3.1274999999999977,1.1644000000000005 3.135000000000005,1.1707999999999998 3.1402999999999963,1.1685999999999996 3.1494,1.1693999999999996 3.156899999999993,1.1639 3.159400000000005,1.1557999999999993 3.168300000000002,1.147499999999999 3.1747000000000014,1.138 3.1873999999999967,1.1266999999999996 3.197199999999995,1.1260999999999992 3.211100000000002,1.1197 3.224199999999996,1.1197 3.2269000000000005,1.1168999999999993 3.2333,1.1166 3.2372000000000014,1.118599999999999 3.241100000000003,1.1160999999999994 3.2471999999999923,1.1158000000000001 3.2531000000000034,1.1107999999999993 3.2541999999999973,1.0960999999999999 3.2569000000000017,1.0869 3.2561000000000035,1.073599999999999 3.2480999999999938,1.0678 3.237799999999993,1.0671999999999997 3.231099999999998,1.0641999999999996 3.224400000000003,1.0568999999999988 3.2227999999999923,1.0488999999999997 3.218599999999995,1.0435999999999996 3.215599999999995,1.0429999999999993 3.213099999999997,1.0385999999999989 3.203000000000003,1.0315999999999992 3.1855999999999938,1.0254999999999992 3.181699999999992,1.0177999999999994 3.167100000000005,1.007299999999999 3.1614000000000004,0.9939 3.1488999999999976,0.9832999999999998 3.1384000000000043,0.975299999999999 3.129000000000005,0.9719999999999995 3.1210999999999984,0.9643999999999995 3.114999999999995,0.9611000000000001 3.112499999999997,0.9615999999999989 3.110299999999995,0.9582999999999995 3.0999999999999943,0.9538999999999991 3.0952999999999946,0.9480000000000004 3.0874999999999915,0.9460999999999995 3.0822000000000003,0.9389000000000003 3.064700000000002,0.927999999999999 3.0578000000000003,0.9183000000000003 3.0427999999999997,0.9069000000000003 3.0361000000000047,0.8971999999999998 3.0249999999999915,0.8868999999999989 3.0061000000000035,0.8605 2.9868999999999915,0.8458000000000006 2.9805999999999955,0.8388999999999989 2.974199999999996,0.8240999999999996 2.968599999999995,0.8188999999999993 2.9643999999999977,0.8188999999999993 2.957499999999996,0.8227999999999991 2.9510999999999967,0.8222000000000005 2.9435000000000002,0.8249999999999993 2.9368999999999943,0.823599999999999 2.931600000000003,0.8254999999999999 2.911900000000003,0.8223000000000003 2.9057999999999993,0.817499999999999 2.8996999999999957,0.8169000000000004 2.8888999999999925,0.8108000000000004 2.8777000000000044,0.8017000000000003 2.8710999999999984,0.7941000000000003 2.8610999999999933,0.7935999999999996 2.8473999999999933,0.7866 2.831400000000002,0.7713000000000001 2.8281999999999954,0.7698 2.8215000000000003,0.761099999999999 2.805899999999994,0.7530999999999999 2.7827999999999946,0.7481999999999989 2.7767000000000053,0.7440999999999995 2.7698999999999927,0.7446000000000002 2.7656999999999954,0.7485999999999997 2.755299999999991,0.75 2.7486999999999995,0.7481999999999989 2.7428000000000026,0.7510999999999992 2.7372000000000014,0.7504999999999988 2.733099999999993,0.7559000000000005 2.7297999999999973,0.7574000000000005 2.7158000000000015,0.7571999999999992 2.7049999999999983,0.7532999999999994 2.6942999999999984,0.7470999999999997 2.6916999999999973,0.7485999999999997 2.6914000000000016,0.7457999999999991 2.680800000000005,0.7485999999999997 2.6631,0.7475000000000005 2.6281000000000034,0.7396999999999991 2.592500000000001,0.7209000000000003 2.5707999999999913,0.7020999999999997 2.5519000000000034,0.7051999999999996 2.542999999999992,0.7034000000000002 2.5374999999999943,0.698599999999999 2.529200000000003,0.686399999999999 2.5249999999999915,0.6860999999999997 2.518100000000004,0.6798000000000002 2.4968999999999966,0.6530000000000005 2.474199999999996,0.6166 2.4638999999999953,0.6029999999999998 2.4517000000000024,0.5740999999999996 2.4398999999999944,0.5650999999999993 2.439399999999992,0.5625 2.434899999999999,0.5585000000000004 2.4235999999999933,0.5571000000000002 2.4115000000000038,0.5533000000000001 2.4081000000000046,0.5541 2.4057999999999993,0.5574999999999992 2.3995999999999924,0.5560999999999989 2.389700000000005,0.5579999999999998 2.382400000000004,0.5549 2.3733000000000004,0.5579999999999998 2.361699999999999,0.5568999999999988 2.319199999999995,0.5452999999999992 2.2642000000000024,0.5252999999999997 2.2595000000000027,0.5222999999999995 2.2347000000000037,0.5228000000000002 2.2210999999999927,0.525599999999999 2.1813999999999965,0.5297000000000001 2.156099999999995,0.5307999999999993 2.1440999999999946,0.5283999999999995 2.0982999999999947,0.5105000000000004 2.081000000000003,0.5015999999999998 2.0438999999999936,0.47579999999999956 2.0361000000000047,0.46499999999999986 2.0197000000000003,0.44849999999999923 1.9830999999999932,0.430299999999999 1.9860999999999933,0.4352999999999998 1.9842000000000013,0.4366000000000003 1.9808000000000021,0.43549999999999933 1.9802999999999997,0.4321999999999999 1.981899999999996,0.43159999999999954 1.980000000000004,0.42799999999999905 1.9500000000000028,0.4016000000000002 1.9375,0.3929999999999989 1.9180999999999955,0.3852999999999991 1.9047000000000054,0.3746999999999989 1.8986000000000018,0.37159999999999904 1.8914000000000044,0.3699999999999992 1.8796999999999997,0.3711000000000002 1.8721999999999923,0.3696999999999999 1.8486000000000047,0.3727999999999998 1.8182999999999936,0.38039999999999985 1.8041999999999945,0.3794000000000004 1.7973999999999961,0.3769999999999989 1.7908000000000044,0.37079999999999913 1.7841999999999985,0.3680000000000003 1.7793999999999954,0.35859999999999914 1.772199999999998,0.35360000000000014 1.7608000000000033,0.3589000000000002 1.7471999999999923,0.35779999999999923 1.7356000000000051,0.35159999999999947 1.7263999999999982,0.35079999999999956 1.7224999999999966,0.34389999999999965 1.7113999999999976,0.33869999999999933 1.7027999999999963,0.3371999999999993 1.6924999999999955,0.34050000000000047 1.6867000000000019,0.33779999999999966 1.6817999999999955,0.33750000000000036 1.669399999999996,0.3261000000000003 1.6567000000000007,0.31049999999999933 1.647199999999998,0.30799999999999983 1.6385999999999967,0.3033000000000001 1.6122000000000014,0.30410000000000004 1.5838999999999999,0.3163999999999998 1.5694000000000017,0.3193999999999999 1.5561000000000007,0.3185000000000002 1.5435999999999979,0.3149999999999995 1.5174999999999983,0.29749999999999943 1.5160999999999945,0.29800000000000004 1.5143999999999949,0.29469999999999885 1.5010000000000048,0.28529999999999944 1.4710999999999927,0.28330000000000055 1.4660999999999973,0.28049999999999997 1.4583999999999975,0.2789999999999999 1.442700000000002,0.2721999999999998 1.4243999999999915,0.2597000000000005 1.4114000000000004,0.2528000000000006 1.4098999999999933,0.2538 1.4077999999999946,0.2507999999999999 1.3932999999999964,0.24579999999999913 1.3867000000000047,0.24499999999999922 1.3853000000000009,0.2461000000000002 1.3811000000000035,0.24329999999999963 1.3717000000000041,0.24409999999999954 1.3721999999999923,0.2461000000000002 1.370599999999996,0.24659999999999904 1.366100000000003,0.24300000000000033 1.3482999999999947,0.24109999999999943 1.3327999999999918,0.23470000000000013 1.3211000000000013,0.22749999999999915 1.2927999999999997,0.20389999999999908 1.2857999999999947,0.20199999999999996 1.2623999999999995,0.18709999999999916 1.2469999999999999,0.17199999999999882 1.2406000000000006,0.15910000000000046 1.231899999999996,0.15080000000000027 1.2256,0.15369999999999884 1.2175000000000011,0.15109999999999957 1.2107999999999919,0.14329999999999998 1.2064999999999912,0.1341000000000001 1.1868999999999943,0.11689999999999934 1.164999999999992,0.09389999999999965 1.1628000000000043,0.09280000000000044 1.1503000000000014,0.09549999999999947 1.143100000000004,0.09499999999999886 1.1149999999999949,0.09079999999999977 1.0956000000000046,0.08530000000000015 1.0797000000000025,0.07719999999999949 1.0656000000000034,0.0671999999999997 1.044399999999996,0.04410000000000025 1.042199999999994,0.04829999999999934 "></polygon><polygon points="0.9493999999999971,0.3251999999999988 0.9492999999999938,0.32370000000000054 0.948599999999999,0.3216000000000001 0.9498999999999995,0.32349999999999923 0.9493999999999971,0.3251999999999988 "></polygon><polygon points="0.9479000000000042,0.3210999999999995 0.9468999999999994,0.319799999999999 0.9475999999999942,0.3185000000000002 0.9479999999999933,0.3204999999999991 0.9479000000000042,0.3210999999999995 "></polygon><polygon points="0.9329999999999927,0.2721 0.9339999999999975,0.27179999999999893 0.9344999999999999,0.27110000000000056 0.933099999999996,0.27169999999999916 0.9329999999999927,0.2721 "></polygon><polygon points="0.9325999999999937,0.27369999999999983 0.9321999999999946,0.2744 0.9329000000000036,0.2727000000000004 0.9328000000000003,0.2731999999999992 0.9325999999999937,0.27369999999999983 "></polygon><polygon points="3.2831000000000046,1.0907999999999998 3.2864000000000004,1.0899999999999999 3.2918999999999983,1.0844000000000005 3.2967000000000013,1.0739 3.2974999999999994,1.0671999999999997 3.2942000000000036,1.0618999999999996 3.2874999999999943,1.0604999999999993 3.2839000000000027,1.0564 3.2746999999999957,1.0586000000000002 3.2656999999999954,1.0667999999999989 3.2635999999999967,1.0690999999999988 3.2627999999999986,1.0765999999999991 3.2642000000000024,1.0877999999999997 3.2674999999999983,1.0905000000000005 3.2719000000000023,1.0932999999999993 3.2783000000000015,1.0936000000000003 3.2831000000000046,1.0907999999999998 "></polygon><polygon points="1.5520999999999958,1.2170000000000005 1.542199999999994,1.2015999999999991 1.5386000000000024,1.2011000000000003 1.5386000000000024,1.1984999999999992 1.5339999999999918,1.197799999999999 1.5335000000000036,1.1957000000000004 1.527000000000001,1.1982 1.5160999999999945,1.1980000000000004 1.515599999999992,1.2015999999999991 1.5113999999999947,1.2019000000000002 1.5080999999999989,1.2068999999999992 1.4838999999999913,1.2077999999999989 1.4607999999999919,1.229099999999999 1.455299999999994,1.2388999999999992 1.455600000000004,1.2414000000000005 1.4582999999999942,1.2457999999999991 1.4727999999999923,1.2571999999999992 1.4756,1.2614 1.478200000000001,1.2776999999999994 1.491199999999992,1.2847999999999988 1.5039000000000016,1.284699999999999 1.5107,1.2965999999999998 1.5143999999999949,1.298399999999999 1.5168999999999926,1.3068999999999988 1.5216999999999956,1.3094000000000001 1.5224999999999937,1.312199999999999 1.5324999999999989,1.323599999999999 1.539599999999993,1.328899999999999 1.5460999999999956,1.3438999999999997 1.5521999999999991,1.345699999999999 1.5625,1.3559 1.5741000000000014,1.3719000000000001 1.5880999999999972,1.3775999999999993 1.591700000000003,1.3778000000000006 1.593999999999994,1.3719000000000001 1.5932999999999993,1.3672000000000004 1.5966999999999985,1.3615999999999993 1.5952999999999946,1.3514 1.5994000000000028,1.3414000000000001 1.5960999999999927,1.3388999999999989 1.5949999999999989,1.3293999999999997 1.5900000000000034,1.3222000000000005 1.5892000000000053,1.3125 1.5807999999999964,1.3049 1.5767000000000024,1.2978000000000005 1.5725000000000051,1.2955000000000005 1.5649999999999977,1.2833000000000006 1.564399999999992,1.2754999999999992 1.5622000000000043,1.2715999999999994 1.5618999999999943,1.2583000000000002 1.564700000000002,1.2479999999999993 1.5610999999999962,1.2416 1.5575000000000045,1.2274999999999991 1.5553000000000026,1.2249999999999996 1.5549999999999926,1.2199999999999989 1.5520999999999958,1.2170000000000005 "></polygon>
    </svg>
    