
    <svg width="1.3392000000000053" height="0.9114000000000004" xmlns="http://www.w3.org/2000/svg" xmlns:xlink="http://www.w3.org/1999/xlink" style="transform: scale(1, -1)">
        <polygon points="1.3181000000000154,0.0030000000000001137 1.3153000000000077,0.0 1.31280000000001,9.999999999976694e-05 1.3127000000000066,0.0045999999999999375 1.3187000000000069,0.007199999999999207 1.3220000000000027,0.011699999999999378 1.3223000000000127,0.008599999999999497 1.3181000000000154,0.0030000000000001137 "></polygon><polygon points="1.3063999999999965,0.022800000000000153 1.308099999999996,0.024200000000000443 1.3086999999999875,0.023600000000000065 1.3052999999999884,0.021399999999999864 1.3063999999999965,0.022800000000000153 "></polygon><polygon points="1.3042000000000087,0.0259999999999998 1.3060000000000116,0.025900000000000034 1.3053999999999917,0.02459999999999951 1.302500000000009,0.024200000000000443 1.3042000000000087,0.0259999999999998 "></polygon><polygon points="1.2937000000000012,0.03780000000000072 1.296199999999999,0.037200000000000344 1.2944999999999993,0.03529999999999944 1.2933999999999912,0.035800000000000054 1.2937000000000012,0.03780000000000072 "></polygon><polygon points="1.32589999999999,0.013299999999999201 1.3252999999999986,0.012199999999999989 1.3223000000000127,0.014099999999999113 1.3241999999999905,0.015000000000000568 1.32589999999999,0.013299999999999201 "></polygon><polygon points="1.3251999999999953,0.041700000000000514 1.3260999999999967,0.028999999999999915 1.328800000000001,0.021399999999999864 1.3275000000000148,0.017599999999999838 1.323900000000009,0.01580000000000048 1.3248000000000104,0.022999999999999687 1.323900000000009,0.027200000000000557 1.3208999999999946,0.030300000000000438 1.3223999999999876,0.03470000000000084 1.3203000000000031,0.04540000000000077 1.3240000000000123,0.04550000000000054 1.3251999999999953,0.041700000000000514 "></polygon><polygon points="1.3218999999999994,0.04690000000000083 1.3201999999999998,0.047900000000000276 1.323900000000009,0.04780000000000051 1.3237000000000023,0.04690000000000083 1.3218999999999994,0.04690000000000083 "></polygon><polygon points="1.3237000000000023,0.05030000000000001 1.3200999999999965,0.04969999999999963 1.319500000000005,0.053300000000000125 1.323900000000009,0.053599999999999426 1.3237000000000023,0.05030000000000001 "></polygon><polygon points="1.2861000000000047,0.04780000000000051 1.2841999999999985,0.04579999999999984 1.2817000000000007,0.04860000000000042 1.2837000000000103,0.04969999999999963 1.2861000000000047,0.04780000000000051 "></polygon><polygon points="1.2742000000000075,0.059200000000000585 1.274799999999999,0.05799999999999983 1.2723000000000013,0.056699999999999307 1.2706000000000017,0.05889999999999951 1.2713999999999999,0.0602999999999998 1.2742000000000075,0.059200000000000585 "></polygon><polygon points="1.2624999999999886,0.06799999999999962 1.2627999999999986,0.06639999999999979 1.2612000000000023,0.06579999999999941 1.261400000000009,0.0671999999999997 1.2624999999999886,0.06799999999999962 "></polygon><polygon points="1.2587000000000046,0.0693999999999999 1.261400000000009,0.0686 1.2513999999999896,0.0647000000000002 1.2495000000000118,0.0671999999999997 1.2520000000000095,0.07049999999999912 1.255899999999997,0.0710999999999995 1.2587000000000046,0.0693999999999999 "></polygon><polygon points="1.3241999999999905,0.0602999999999998 1.322499999999991,0.0602999999999998 1.3216999999999928,0.06329999999999991 1.3241999999999905,0.0622000000000007 1.3241999999999905,0.0602999999999998 "></polygon><polygon points="1.3277999999999963,0.06639999999999979 1.323900000000009,0.06659999999999933 1.3233999999999924,0.06850000000000023 1.3262,0.0688999999999993 1.3277999999999963,0.06639999999999979 "></polygon><polygon points="1.3314000000000021,0.0754999999999999 1.3298000000000059,0.07140000000000057 1.3266999999999882,0.07360000000000078 1.3277999999999963,0.07709999999999972 1.330900000000014,0.07719999999999949 1.3314000000000021,0.0754999999999999 "></polygon><polygon points="1.3327999999999918,0.07970000000000077 1.3326000000000136,0.0779999999999994 1.3283999999999878,0.07949999999999946 1.3300000000000125,0.08109999999999928 1.3327999999999918,0.07970000000000077 "></polygon><polygon points="1.314799999999991,0.11580000000000013 1.3262,0.10529999999999973 1.3388999999999953,0.08719999999999928 1.3392000000000053,0.08469999999999978 1.3342000000000098,0.08079999999999998 1.332099999999997,0.08060000000000045 1.3303999999999974,0.08280000000000065 1.3349000000000046,0.08450000000000024 1.3352999999999895,0.08750000000000036 1.32589999999999,0.10079999999999956 1.311399999999992,0.11550000000000082 1.306100000000015,0.11580000000000013 1.3078999999999894,0.11849999999999916 1.3109000000000037,0.1189 1.314799999999991,0.11580000000000013 "></polygon><polygon points="0.7493000000000052,0.22300000000000075 0.7478000000000122,0.22220000000000084 0.7463999999999942,0.22369999999999912 0.7478000000000122,0.22439999999999927 0.7493000000000052,0.22300000000000075 "></polygon><polygon points="0.7356000000000051,0.29439999999999955 0.734800000000007,0.28829999999999956 0.7377999999999929,0.27640000000000065 0.7553000000000054,0.23390000000000022 0.7509000000000015,0.22669999999999924 0.7484000000000037,0.22749999999999915 0.7520000000000095,0.23300000000000054 0.7516999999999996,0.23550000000000004 0.7369999999999948,0.27110000000000056 0.733399999999989,0.28420000000000023 0.7312000000000012,0.3086000000000002 0.7352999999999952,0.3013999999999992 0.7342000000000155,0.29579999999999984 0.7356000000000051,0.29439999999999955 "></polygon><polygon points="0.7312000000000012,0.21550000000000047 0.7316999999999894,0.21390000000000065 0.7302999999999997,0.2129999999999992 0.7299999999999898,0.21499999999999986 0.7312000000000012,0.21550000000000047 "></polygon><polygon points="0.7184000000000026,0.21640000000000015 0.7175000000000011,0.21390000000000065 0.7162000000000148,0.21470000000000056 0.716399999999993,0.21720000000000006 0.7184000000000026,0.21640000000000015 "></polygon><polygon points="0.7125000000000057,0.21690000000000076 0.7120999999999924,0.2159999999999993 0.7103999999999928,0.21640000000000015 0.7113999999999976,0.21829999999999927 0.7125000000000057,0.21690000000000076 "></polygon><polygon points="0.7025000000000148,0.21920000000000073 0.7036999999999978,0.22080000000000055 0.7050000000000125,0.21940000000000026 0.7039000000000044,0.21799999999999997 0.7025000000000148,0.21920000000000073 "></polygon><polygon points="0.6887000000000114,0.22639999999999993 0.6903000000000077,0.22530000000000072 0.6895000000000095,0.22439999999999927 0.6847999999999956,0.22669999999999924 0.6862000000000137,0.22799999999999976 0.6887000000000114,0.22639999999999993 "></polygon><polygon points="0.6691999999999894,0.24719999999999942 0.6748000000000047,0.24220000000000041 0.676700000000011,0.23799999999999955 0.660899999999998,0.2522000000000002 0.65979999999999,0.25420000000000087 0.660899999999998,0.2561 0.6691999999999894,0.24719999999999942 "></polygon><polygon points="0.6616999999999962,0.29080000000000084 0.6605999999999881,0.3030000000000008 0.6620000000000061,0.3041999999999998 0.6633999999999958,0.3010999999999999 0.6633999999999958,0.29080000000000084 0.6616999999999962,0.29080000000000084 "></polygon><polygon points="0.7336999999999989,0.3183000000000007 0.7339000000000055,0.3135999999999992 0.7306000000000097,0.3094000000000001 0.7312000000000012,0.3192000000000004 0.7319999999999993,0.3202999999999996 0.7336999999999989,0.3183000000000007 "></polygon><polygon points="0.7342000000000155,0.32280000000000086 0.7336999999999989,0.3241999999999994 0.7352999999999952,0.3257999999999992 0.7367000000000132,0.3230000000000004 0.7342000000000155,0.32280000000000086 "></polygon><polygon points="0.7406000000000006,0.3393999999999995 0.7401000000000124,0.33639999999999937 0.7366000000000099,0.33230000000000004 0.734800000000007,0.33280000000000065 0.7360999999999933,0.33619999999999983 0.7384000000000128,0.33750000000000036 0.7375000000000114,0.33830000000000027 0.7351999999999919,0.33530000000000015 0.732200000000006,0.3348999999999993 0.7331000000000074,0.33859999999999957 0.7355000000000018,0.34060000000000024 0.738900000000001,0.34140000000000015 0.7406000000000006,0.3393999999999995 "></polygon><polygon points="0.6611000000000047,0.2817000000000007 0.6591999999999985,0.27779999999999916 0.6578000000000088,0.27749999999999986 0.6587000000000103,0.28279999999999994 0.6611000000000047,0.2817000000000007 "></polygon><polygon points="0.6600999999999999,0.28529999999999944 0.6603000000000065,0.28829999999999956 0.6614000000000146,0.28969999999999985 0.6628000000000043,0.28749999999999964 0.6614000000000146,0.28279999999999994 0.6600999999999999,0.28529999999999944 "></polygon><polygon points="0.6591999999999985,0.3244000000000007 0.6584000000000003,0.3254999999999999 0.6600999999999999,0.32750000000000057 0.6631000000000142,0.32670000000000066 0.6603000000000065,0.3236000000000008 0.6591999999999985,0.3244000000000007 "></polygon><polygon points="0.023400000000009413,0.8621999999999996 0.015299999999996317,0.8572000000000006 0.011699999999990496,0.8594000000000008 0.01480000000000814,0.8621999999999996 0.015299999999996317,0.8589000000000002 0.019200000000012096,0.8629999999999995 0.02780000000001337,0.8655000000000008 0.02780000000001337,0.8638999999999992 0.023400000000009413,0.8621999999999996 "></polygon><polygon points="0.03370000000001028,0.8666999999999998 0.03200000000001069,0.8650000000000002 0.029799999999994498,0.8658000000000001 0.03170000000000073,0.8682999999999996 0.03370000000001028,0.8666999999999998 "></polygon><polygon points="0.043100000000009686,0.8682999999999996 0.03870000000000573,0.8664000000000005 0.03470000000001505,0.8664000000000005 0.033899999999988495,0.8680000000000003 0.040300000000002,0.8689999999999998 0.04390000000000782,0.8717000000000006 0.04480000000000928,0.8691999999999993 0.043100000000009686,0.8682999999999996 "></polygon><polygon points="0.011400000000008959,0.8725000000000005 0.013900000000006685,0.8707999999999991 0.01310000000000855,0.8694000000000006 0.01120000000000232,0.8704999999999998 0.011400000000008959,0.8725000000000005 "></polygon><polygon points="0.010600000000010823,0.8760999999999992 0.012300000000010414,0.8755000000000006 0.011699999999990496,0.8742000000000001 0.010300000000000864,0.875 0.010600000000010823,0.8760999999999992 "></polygon><polygon points="0.029799999999994498,0.9076000000000004 0.039500000000003865,0.8955000000000002 0.05559999999999832,0.8861000000000008 0.054200000000008686,0.8794000000000004 0.056199999999989814,0.8701000000000008 0.05449999999999022,0.8680000000000003 0.048699999999996635,0.8678000000000008 0.04449999999999932,0.8721999999999994 0.046999999999997044,0.8733000000000004 0.04779999999999518,0.8710000000000004 0.052600000000012415,0.8711000000000002 0.050900000000012824,0.8755000000000006 0.05170000000001096,0.8849999999999998 0.04949999999999477,0.8843999999999994 0.04480000000000928,0.8872 0.03340000000000032,0.8975000000000009 0.03370000000001028,0.9000000000000004 0.03170000000000073,0.8994 0.02559999999999718,0.9079999999999995 0.017799999999994043,0.9049999999999994 0.02389999999999759,0.9105000000000008 0.028099999999994907,0.9100000000000001 0.029799999999994498,0.9076000000000004 "></polygon><polygon points="0.010300000000000864,0.9108 0.01310000000000855,0.9114000000000004 0.015299999999996317,0.9097000000000008 0.012499999999988631,0.9069000000000003 0.0056000000000153705,0.9088999999999992 0.0037000000000091404,0.9079999999999995 0.005899999999996908,0.9018999999999995 0.0039000000000157797,0.9002999999999997 0.00010000000000331966,0.9055 0.0,0.9093999999999998 0.0024999999999977263,0.9110999999999994 0.010300000000000864,0.9108 "></polygon>
    </svg>
    