
    <svg width="2.4787999999999784" height="6.7836" xmlns="http://www.w3.org/2000/svg" xmlns:xlink="http://www.w3.org/1999/xlink" style="transform: scale(1, -1)">
        <polygon points="0.010599999999982401,0.014299999999998647 0.013299999999986767,0.013300000000000978 0.016899999999992588,0.00859999999999772 0.010499999999979082,0.0007999999999981355 0.006000000000000227,0.0 0.0010000000000047748,0.0058000000000006935 0.0,0.013600000000000279 0.007899999999978036,0.017099999999999227 0.010599999999982401,0.014299999999998647 "></polygon><polygon points="1.122099999999989,1.1522000000000006 1.1110999999999933,1.1407999999999987 1.108000000000004,1.1341 1.1151999999999873,1.1129999999999995 1.1143999999999892,1.1021999999999998 1.1084999999999923,1.090799999999998 1.099599999999981,1.081900000000001 1.0895999999999901,1.0762999999999998 1.0759999999999934,1.0768999999999984 1.066299999999984,1.0801999999999978 1.0401999999999987,1.0927000000000007 1.0337999999999852,1.0976999999999997 1.0226999999999862,1.1160999999999994 1.0217999999999847,1.120899999999999 1.0187999999999988,1.1229999999999976 1.0190999999999804,1.1265999999999998 1.0130000000000052,1.1311 0.9904999999999973,1.142199999999999 0.9756999999999891,1.1463 0.9561999999999955,1.1506000000000007 0.9402000000000044,1.1499999999999986 0.9230000000000018,1.1632999999999996 0.9081999999999937,1.1712999999999987 0.8987999999999943,1.1811000000000007 0.879099999999994,1.1902000000000008 0.8710999999999842,1.1997999999999998 0.8654999999999973,1.2163000000000004 0.8667999999999836,1.2180999999999997 0.8649999999999807,1.221899999999998 0.8654999999999973,1.2302 0.8571000000000026,1.2568999999999981 0.8701999999999828,1.2697000000000003 0.8810000000000002,1.2829999999999977 0.885799999999989,1.2868999999999993 0.8888000000000034,1.2871999999999986 0.8909999999999911,1.284399999999998 0.890500000000003,1.2819000000000003 0.8806999999999903,1.2697000000000003 0.8755999999999915,1.2568999999999981 0.8777000000000044,1.2513000000000005 0.8779999999999859,1.2417999999999978 0.883199999999988,1.2393999999999998 0.8829999999999814,1.2354999999999983 0.8866999999999905,1.2317999999999998 0.8918999999999926,1.2321999999999989 0.8974999999999795,1.2301000000000002 0.9040999999999997,1.2302 0.9299000000000035,1.2255000000000003 0.9334999999999809,1.227999999999998 0.9406999999999925,1.2293999999999983 0.9473999999999876,1.2330000000000005 0.9521000000000015,1.2332999999999998 0.960899999999981,1.2382999999999988 0.9676000000000045,1.239799999999999 0.9754999999999825,1.2371999999999979 0.9895999999999958,1.2262999999999984 1.0168999999999926,1.2182999999999993 1.017499999999984,1.2161000000000008 1.0272999999999968,1.2113999999999976 1.0309000000000026,1.2112999999999978 1.034400000000005,1.2140999999999984 1.0386000000000024,1.2091999999999992 1.04849999999999,1.2082999999999977 1.059899999999999,1.2110999999999983 1.06189999999998,1.2062999999999988 1.0629999999999882,1.213000000000001 1.0694000000000017,1.2161000000000008 1.0712999999999795,1.2135999999999996 1.0726999999999975,1.2043999999999997 1.0694000000000017,1.2018999999999984 1.0704999999999814,1.2001999999999988 1.0679999999999836,1.1971999999999987 1.0637999999999863,1.1950000000000003 1.0612999999999886,1.1982999999999997 1.0620999999999867,1.2021999999999977 1.055499999999995,1.192499999999999 1.042100000000005,1.1951999999999998 1.0320999999999856,1.1896999999999984 1.0290999999999997,1.1940999999999988 1.0170999999999992,1.1971999999999987 1.0109999999999957,1.2027 1.0076999999999998,1.2029999999999994 0.9998999999999967,1.1954999999999991 0.9865999999999815,1.1865999999999985 0.981599999999986,1.1790999999999983 0.9826999999999941,1.1760999999999981 0.9884999999999877,1.1719000000000008 1.00709999999998,1.166599999999999 1.014099999999985,1.1675000000000004 1.0165999999999826,1.1710999999999991 1.0101999999999975,1.1760999999999981 1.0090999999999894,1.1790999999999983 1.0131999999999834,1.1818999999999988 1.014899999999983,1.1902000000000008 1.0190999999999804,1.1929999999999978 1.021899999999988,1.1907999999999994 1.0232000000000028,1.1862999999999992 1.0276999999999816,1.1835999999999984 1.0327000000000055,1.1841000000000008 1.041799999999995,1.1899999999999977 1.0452999999999975,1.1874000000000002 1.0559999999999832,1.1854999999999976 1.0581999999999994,1.1819999999999986 1.072100000000006,1.1821999999999981 1.0756999999999834,1.178799999999999 1.0759999999999934,1.1768999999999998 1.0690999999999917,1.1693999999999996 1.059899999999999,1.1661000000000001 1.055199999999985,1.1691000000000003 1.0480000000000018,1.1685999999999979 1.0426999999999964,1.165499999999998 1.042100000000005,1.1555 1.0448999999999842,1.1526999999999994 1.0526999999999873,1.1518999999999977 1.0557000000000016,1.1571999999999996 1.058400000000006,1.157 1.06189999999998,1.1529999999999987 1.0645999999999844,1.156600000000001 1.0640999999999963,1.1600000000000001 1.0656999999999925,1.162700000000001 1.0694000000000017,1.1624999999999979 1.0738000000000056,1.1587999999999994 1.0809999999999889,1.160499999999999 1.084099999999978,1.1585999999999999 1.0866000000000042,1.1601999999999997 1.0879999999999939,1.1637999999999984 1.084399999999988,1.1675000000000004 1.0894999999999868,1.1689000000000007 1.095499999999987,1.1754999999999995 1.099599999999981,1.177699999999998 1.0979999999999848,1.1849999999999987 1.093199999999996,1.1890999999999998 1.093199999999996,1.1943999999999981 1.0915999999999997,1.1954999999999991 1.0885999999999854,1.1911999999999985 1.084099999999978,1.1933000000000007 1.0912999999999897,1.2065999999999981 1.0923999999999978,1.2140999999999984 1.0906999999999982,1.2194000000000003 1.0997999999999877,1.221899999999998 1.1149000000000058,1.229099999999999 1.1237999999999886,1.229099999999999 1.163499999999999,1.2177000000000007 1.1825999999999794,1.2018999999999984 1.1833000000000027,1.1982999999999997 1.1748999999999796,1.1882999999999981 1.1587999999999852,1.1815999999999995 1.1456000000000017,1.181000000000001 1.1426999999999907,1.1766000000000005 1.1348999999999876,1.1738 1.1312999999999818,1.170099999999998 1.128799999999984,1.1610999999999976 1.122099999999989,1.1522000000000006 "></polygon><polygon points="1.070999999999998,1.1696999999999989 1.0740999999999872,1.1701999999999977 1.0748999999999853,1.1685999999999979 1.072100000000006,1.1675000000000004 1.070999999999998,1.1696999999999989 "></polygon><polygon points="1.2647000000000048,0.879999999999999 1.2639999999999816,0.8759999999999977 1.2598999999999876,0.8743999999999978 1.2556999999999903,0.8785999999999987 1.2587999999999795,0.8829999999999991 1.2647000000000048,0.879999999999999 "></polygon><polygon points="1.2993999999999915,1.0660999999999987 1.3026999999999873,1.0554999999999986 1.2992999999999881,1.047699999999999 1.2998999999999796,1.0383999999999993 1.3079999999999927,1.0166000000000004 1.305499999999995,1.0051999999999985 1.307299999999998,1.0016999999999996 1.3104999999999905,0.9835999999999991 1.3083000000000027,0.9696999999999996 1.3091000000000008,0.9635999999999996 1.3112999999999886,0.9598999999999975 1.3123999999999967,0.9487999999999985 1.3120999999999867,0.944700000000001 1.309899999999999,0.9421999999999997 1.3123999999999967,0.9372000000000007 1.310699999999997,0.9354999999999976 1.3104999999999905,0.9283000000000001 1.3086999999999875,0.9270999999999994 1.310699999999997,0.9252000000000002 1.3135000000000048,0.9085999999999999 1.3115999999999985,0.8978000000000002 1.3055999999999983,0.8912999999999975 1.2998999999999796,0.8935999999999993 1.2734999999999843,0.9175000000000004 1.2615999999999872,0.9219000000000008 1.260799999999989,0.9271999999999991 1.2520999999999844,0.9358000000000004 1.2515999999999963,0.9379999999999988 1.242699999999985,0.9436 1.242999999999995,0.948599999999999 1.237099999999998,0.963000000000001 1.2404999999999973,0.9824999999999982 1.2454999999999927,0.9936000000000007 1.2502999999999815,1.0031999999999996 1.2535000000000025,1.0055999999999976 1.2548999999999921,1.0107999999999997 1.2690999999999804,1.0237999999999978 1.271899999999988,1.0326999999999984 1.275199999999984,1.0350000000000001 1.2804999999999893,1.0533000000000001 1.2926999999999964,1.0671999999999997 1.2993999999999915,1.0660999999999987 "></polygon><polygon points="1.2395999999999958,1.2308999999999983 1.2376999999999896,1.2274999999999991 1.2332999999999856,1.224499999999999 1.2287000000000035,1.2301000000000002 1.2279000000000053,1.2347000000000001 1.231599999999986,1.2376000000000005 1.2379999999999995,1.238199999999999 1.2399000000000058,1.2354999999999983 1.2395999999999958,1.2308999999999983 "></polygon><polygon points="1.1807000000000016,1.2554999999999978 1.1787999999999954,1.2565999999999988 1.1799000000000035,1.2579999999999991 1.1841000000000008,1.2591 1.1854999999999905,1.2579999999999991 1.1841000000000008,1.2540999999999976 1.1812999999999931,1.2540999999999976 1.1807000000000016,1.2554999999999978 "></polygon><polygon points="1.0609999999999786,1.1879999999999988 1.0585999999999842,1.1864999999999988 1.0559999999999832,1.1904000000000003 1.0591000000000008,1.1905999999999999 1.0601000000000056,1.193200000000001 1.0609999999999786,1.1879999999999988 "></polygon><polygon points="1.067700000000002,1.2182999999999993 1.066299999999984,1.2204999999999977 1.0679999999999836,1.2225000000000001 1.0690999999999917,1.2212999999999994 1.067700000000002,1.2182999999999993 "></polygon><polygon points="1.066900000000004,1.2235999999999976 1.0652000000000044,1.2235999999999976 1.0637999999999863,1.2255000000000003 1.065499999999986,1.2257999999999996 1.066900000000004,1.2235999999999976 "></polygon><polygon points="1.0570999999999913,1.2243999999999993 1.054399999999987,1.221899999999998 1.0526999999999873,1.2265999999999977 1.0559999999999832,1.2276999999999987 1.0576999999999828,1.2262999999999984 1.0570999999999913,1.2243999999999993 "></polygon><polygon points="1.0604999999999905,1.2344000000000008 1.058499999999981,1.234099999999998 1.0593999999999824,1.2363 1.0604999999999905,1.2357999999999976 1.0604999999999905,1.2344000000000008 "></polygon><polygon points="1.1154999999999973,1.2582999999999984 1.117699999999985,1.2585999999999977 1.1182000000000016,1.2576999999999998 1.1140999999999792,1.2575000000000003 1.1154999999999973,1.2582999999999984 "></polygon><polygon points="0.9690999999999974,1.2605000000000004 0.9706999999999937,1.2596999999999987 0.969399999999979,1.2579999999999991 0.9685000000000059,1.2585999999999977 0.9690999999999974,1.2605000000000004 "></polygon><polygon points="1.055199999999985,1.2601999999999975 1.0534999999999854,1.261099999999999 1.0537999999999954,1.2636000000000003 1.0576999999999828,1.2622 1.055199999999985,1.2601999999999975 "></polygon><polygon points="1.1048999999999864,1.2629999999999981 1.0981999999999914,1.2605000000000004 1.0970999999999833,1.263300000000001 1.104299999999995,1.2652 1.106599999999986,1.2643999999999984 1.1048999999999864,1.2629999999999981 "></polygon><polygon points="0.9633000000000038,1.303799999999999 0.963499999999982,1.3010999999999981 0.9559999999999889,1.2918999999999983 0.9551999999999907,1.2929999999999993 0.9587999999999965,1.2988 0.9562999999999988,1.3047000000000004 0.959399999999988,1.3068999999999988 0.9633000000000038,1.303799999999999 "></polygon><polygon points="0.8120999999999867,1.7990999999999993 0.8087999999999909,1.7962999999999987 0.809899999999999,1.7951999999999977 0.8079999999999927,1.7929999999999993 0.8057000000000016,1.7946999999999989 0.805199999999985,1.7982999999999976 0.8084999999999809,1.8030000000000008 0.8079999999999927,1.807500000000001 0.8106999999999971,1.8099999999999987 0.8145999999999844,1.8040999999999983 0.8112999999999886,1.8012999999999977 0.8120999999999867,1.7990999999999993 "></polygon><polygon points="1.1585000000000036,1.2562999999999995 1.1551999999999794,1.2558000000000007 1.1531999999999982,1.2575000000000003 1.1581999999999937,1.2591 1.1602000000000032,1.2576999999999998 1.1585000000000036,1.2562999999999995 "></polygon><polygon points="1.1898999999999944,1.2624999999999993 1.191900000000004,1.2629999999999981 1.1929999999999836,1.2607999999999997 1.1902000000000044,1.2601999999999975 1.1898999999999944,1.2624999999999993 "></polygon><polygon points="1.2133000000000038,1.2911000000000001 1.2112999999999943,1.2901999999999987 1.208200000000005,1.2927 1.2112999999999943,1.2962999999999987 1.2146999999999935,1.2944999999999993 1.2133000000000038,1.2911000000000001 "></polygon><polygon points="1.4770999999999788,1.843799999999998 1.4756999999999891,1.8451999999999984 1.4765999999999906,1.8493999999999993 1.481899999999996,1.8444000000000003 1.481599999999986,1.8432999999999993 1.4770999999999788,1.843799999999998 "></polygon><polygon points="1.4740999999999929,2.371600000000001 1.4740999999999929,2.3751999999999995 1.4784999999999968,2.3774999999999977 1.4790999999999883,2.376100000000001 1.475200000000001,2.3686000000000007 1.4740999999999929,2.371600000000001 "></polygon><polygon points="1.470499999999987,2.392199999999999 1.4727000000000032,2.3907999999999987 1.4710000000000036,2.387999999999998 1.463799999999992,2.388300000000001 1.4659999999999798,2.3933 1.470499999999987,2.392199999999999 "></polygon><polygon points="1.4181999999999846,2.4057999999999993 1.4154999999999802,2.3979999999999997 1.4129999999999825,2.397500000000001 1.4110000000000014,2.3994 1.4140999999999906,2.4071999999999996 1.4165999999999883,2.4086 1.4181999999999846,2.4057999999999993 "></polygon><polygon points="1.1376999999999953,2.6402 1.1474000000000046,2.6374999999999993 1.1493999999999858,2.6388 1.1587999999999852,2.636099999999999 1.1606999999999914,2.6374999999999993 1.163499999999999,2.6362999999999985 1.1681999999999846,2.631599999999999 1.1709999999999923,2.6240999999999985 1.1812999999999931,2.609099999999998 1.1847999999999956,2.5946 1.1873999999999967,2.59 1.1841000000000008,2.587699999999998 1.1851999999999805,2.5832999999999977 1.1820999999999913,2.579699999999999 1.1820999999999913,2.575800000000001 1.1795999999999935,2.5716 1.172399999999982,2.563600000000001 1.167999999999978,2.5612999999999992 1.162099999999981,2.5625 1.155699999999996,2.5601999999999983 1.1437999999999988,2.561899999999998 1.1380000000000052,2.5608000000000004 1.1329999999999814,2.5687999999999995 1.1270999999999844,2.5707999999999984 1.1218999999999824,2.5763 1.122399999999999,2.5777 1.119100000000003,2.581900000000001 1.1129999999999995,2.5874999999999986 1.1081999999999823,2.588799999999999 1.105499999999978,2.593 1.1051999999999964,2.594999999999999 1.1076999999999941,2.5976999999999997 1.1093999999999937,2.6107999999999976 1.112099999999998,2.614699999999999 1.1123999999999796,2.6219 1.1143999999999892,2.6229999999999976 1.1184999999999832,2.6341 1.1304999999999836,2.6430000000000007 1.1376999999999953,2.6402 "></polygon><polygon points="1.6759999999999877,1.9490999999999978 1.6770999999999958,1.9511000000000003 1.6887999999999863,1.9588 1.6890999999999963,1.9551999999999978 1.6859999999999786,1.9515999999999991 1.679399999999987,1.9487999999999985 1.6759999999999877,1.9490999999999978 "></polygon><polygon points="1.690499999999986,1.9993999999999978 1.691599999999994,2.0037999999999982 1.6944000000000017,2.0077 1.6944000000000017,2.0016 1.6902000000000044,1.996299999999998 1.690499999999986,1.9993999999999978 "></polygon><polygon points="1.5048999999999921,2.022199999999998 1.5109999999999957,2.016099999999998 1.510499999999979,2.0138 1.5010000000000048,2.018799999999999 1.498199999999997,2.0183 1.495999999999981,2.0235999999999983 1.4979999999999905,2.025199999999998 1.5023999999999944,2.0249999999999986 1.5048999999999921,2.022199999999998 "></polygon><polygon points="1.4809999999999945,2.0279999999999987 1.4823999999999842,2.0279999999999987 1.4838000000000022,2.0265999999999984 1.4809999999999945,2.026299999999999 1.4809999999999945,2.0279999999999987 "></polygon><polygon points="1.4543999999999926,1.8724999999999987 1.4543999999999926,1.8710999999999984 1.453000000000003,1.870000000000001 1.452699999999993,1.8729999999999976 1.4543999999999926,1.8724999999999987 "></polygon><polygon points="1.455699999999979,1.8886000000000003 1.453000000000003,1.8862999999999985 1.4496000000000038,1.8904999999999994 1.4531999999999812,1.892199999999999 1.455699999999979,1.8886000000000003 "></polygon><polygon points="1.4087999999999852,2.0702 1.412700000000001,2.0671999999999997 1.4110000000000014,2.058299999999999 1.4077000000000055,2.0604999999999976 1.401600000000002,2.0737999999999985 1.4026999999999816,2.0747 1.4087999999999852,2.0702 "></polygon><polygon points="1.440499999999986,2.1057999999999986 1.4365999999999985,2.1015999999999977 1.4354999999999905,2.0965999999999987 1.4370999999999867,2.094999999999999 1.4329999999999927,2.0897000000000006 1.433499999999981,2.081299999999999 1.429399999999987,2.0779999999999994 1.4090999999999951,2.093 1.4051999999999794,2.093 1.4031999999999982,2.0959000000000003 1.4072999999999922,2.105999999999998 1.4242999999999881,2.1076999999999977 1.4248000000000047,2.105599999999999 1.427599999999984,2.1054999999999993 1.4279999999999973,2.1076999999999977 1.433499999999981,2.1084999999999994 1.434599999999989,2.1107999999999976 1.4396999999999878,2.112099999999998 1.440499999999986,2.1057999999999986 "></polygon><polygon points="1.6776999999999873,2.046599999999998 1.679399999999987,2.046900000000001 1.680499999999995,2.044699999999999 1.6791000000000054,2.0443999999999996 1.6776999999999873,2.046599999999998 "></polygon><polygon points="1.5190999999999804,2.052699999999998 1.5173999999999808,2.053799999999999 1.518199999999979,2.0554999999999986 1.5206000000000017,2.0535999999999994 1.5190999999999804,2.052699999999998 "></polygon><polygon points="1.5859999999999843,2.0686 1.5784999999999911,2.067999999999998 1.577699999999993,2.070499999999999 1.5892999999999802,2.0732999999999997 1.5906999999999982,2.0700000000000003 1.5859999999999843,2.0686 "></polygon><polygon points="1.5232000000000028,2.0976 1.5245999999999924,2.096899999999998 1.524499999999989,2.095700000000001 1.5226999999999862,2.0961 1.5232000000000028,2.0976 "></polygon><polygon points="1.6944000000000017,2.0351999999999997 1.6948999999999899,2.0337999999999994 1.6944000000000017,2.0305 1.6898999999999944,2.0363000000000007 1.691900000000004,2.037499999999998 1.6944000000000017,2.0351999999999997 "></polygon><polygon points="1.755200000000002,2.329699999999999 1.75709999999998,2.3291000000000004 1.7573999999999899,2.3263 1.7554999999999836,2.3268999999999984 1.755200000000002,2.329699999999999 "></polygon><polygon points="1.7195999999999856,2.3801999999999985 1.714100000000002,2.3790999999999976 1.7133000000000038,2.380499999999998 1.718199999999996,2.381899999999998 1.7195999999999856,2.3801999999999985 "></polygon><polygon points="1.73599999999999,2.3835999999999977 1.7276999999999987,2.3808000000000007 1.7223999999999933,2.381899999999998 1.740700000000004,2.3878999999999984 1.7412999999999954,2.386599999999998 1.73599999999999,2.3835999999999977 "></polygon><polygon points="1.5101999999999975,2.2391000000000005 1.5113000000000056,2.240099999999998 1.5139999999999816,2.238199999999999 1.5130000000000052,2.2372999999999976 1.5101999999999975,2.2391000000000005 "></polygon><polygon points="1.6059999999999945,2.2807999999999993 1.6029999999999802,2.2829999999999977 1.6110999999999933,2.2811999999999983 1.6088000000000022,2.2805 1.6059999999999945,2.2807999999999993 "></polygon><polygon points="1.5090999999999894,2.308 1.5101999999999975,2.3079 1.5109999999999957,2.305799999999998 1.5087999999999795,2.305799999999998 1.5090999999999894,2.308 "></polygon><polygon points="1.5379999999999825,2.3085999999999984 1.531899999999979,2.3063000000000002 1.526600000000002,2.3108000000000004 1.525199999999984,2.314399999999999 1.526600000000002,2.3160999999999987 1.536299999999983,2.3153000000000006 1.5379999999999825,2.3085999999999984 "></polygon><polygon points="1.424599999999998,2.2468000000000004 1.42349999999999,2.2464999999999975 1.4222999999999786,2.2484 1.4238,2.2485999999999997 1.424599999999998,2.2468000000000004 "></polygon><polygon points="1.4801999999999964,2.2973 1.4782999999999902,2.2988 1.479299999999995,2.3000000000000007 1.4809999999999945,2.2988 1.4801999999999964,2.2973 "></polygon><polygon points="1.4513000000000034,2.3390999999999984 1.4551999999999907,2.3360999999999983 1.452399999999983,2.3282999999999987 1.448299999999989,2.3271999999999977 1.441900000000004,2.330199999999998 1.4398999999999944,2.3338 1.4444000000000017,2.3397000000000006 1.4513000000000034,2.3390999999999984 "></polygon><polygon points="1.4268999999999892,2.3526999999999987 1.4259999999999877,2.3543999999999983 1.4274000000000058,2.3552 1.428200000000004,2.3536 1.4268999999999892,2.3526999999999987 "></polygon><polygon points="1.4962999999999909,2.3277 1.4958000000000027,2.3293999999999997 1.4968999999999824,2.330199999999998 1.4984999999999786,2.327300000000001 1.4962999999999909,2.3277 "></polygon><polygon points="1.4909999999999854,2.3843999999999994 1.4876999999999896,2.3811 1.4855000000000018,2.383800000000001 1.4890999999999792,2.387699999999999 1.4909999999999854,2.3843999999999994 "></polygon><polygon points="1.5121000000000038,2.3872 1.5131999999999834,2.3874999999999993 1.5137,2.3861999999999988 1.5115999999999872,2.3855000000000004 1.5121000000000038,2.3872 "></polygon><polygon points="1.508499999999998,2.4086 1.509600000000006,2.4026999999999994 1.5018999999999778,2.3924999999999983 1.498199999999997,2.392199999999999 1.494100000000003,2.3985999999999983 1.4942999999999813,2.4029999999999987 1.504400000000004,2.4118999999999993 1.508499999999998,2.4086 "></polygon><polygon points="1.7959999999999923,2.4738000000000007 1.7990999999999815,2.4701999999999984 1.79849999999999,2.468799999999998 1.7890999999999906,2.4765999999999977 1.7890999999999906,2.478300000000001 1.792100000000005,2.477999999999998 1.7959999999999923,2.4738000000000007 "></polygon><polygon points="1.737099999999998,2.4769000000000005 1.73569999999998,2.4787999999999997 1.7376999999999896,2.4796999999999976 1.7390999999999792,2.478300000000001 1.737099999999998,2.4769000000000005 "></polygon><polygon points="1.8223999999999876,2.5061 1.8140999999999963,2.4971999999999994 1.8024000000000058,2.4908 1.79819999999998,2.4899999999999984 1.794399999999996,2.4926999999999992 1.787700000000001,2.494399999999999 1.7881999999999891,2.495799999999999 1.79849999999999,2.4968000000000004 1.8018999999999892,2.5001999999999995 1.8041000000000054,2.5058000000000007 1.8104999999999905,2.5061999999999998 1.8246000000000038,2.5150000000000006 1.8255000000000052,2.5136000000000003 1.8223999999999876,2.5061 "></polygon><polygon points="1.6937999999999818,2.503 1.6923999999999921,2.5040999999999976 1.6944000000000017,2.5051999999999985 1.695699999999988,2.5037999999999982 1.6937999999999818,2.503 "></polygon><polygon points="1.7438999999999965,2.389099999999999 1.7456999999999994,2.389599999999998 1.742699999999985,2.3872 1.7424000000000035,2.388300000000001 1.7438999999999965,2.389099999999999 "></polygon><polygon points="1.7498999999999967,2.3933 1.7512999999999863,2.3924999999999983 1.7462999999999909,2.3896999999999977 1.745999999999981,2.3904999999999994 1.7498999999999967,2.3933 "></polygon><polygon points="1.7556999999999903,2.3964 1.755200000000002,2.3949999999999996 1.752999999999986,2.3945000000000007 1.7538999999999874,2.395599999999998 1.7556999999999903,2.3964 "></polygon><polygon points="1.8059999999999832,2.4647000000000006 1.816299999999984,2.4590999999999994 1.81959999999998,2.459699999999998 1.822100000000006,2.456900000000001 1.8226999999999975,2.4525000000000006 1.8204999999999814,2.4480000000000004 1.8126999999999782,2.4412999999999982 1.805499999999995,2.428799999999999 1.8024000000000058,2.4266000000000005 1.7923999999999864,2.4313000000000002 1.8018999999999892,2.4421999999999997 1.804399999999987,2.453599999999998 1.8026999999999873,2.465799999999998 1.8059999999999832,2.4647000000000006 "></polygon><polygon points="1.93689999999998,2.624399999999998 1.9379999999999882,2.6188000000000002 1.9317999999999813,2.6087999999999987 1.9312999999999931,2.5982999999999983 1.9251999999999896,2.59 1.920500000000004,2.5883000000000003 1.9102000000000032,2.59 1.8851999999999975,2.586299999999998 1.8781999999999925,2.588000000000001 1.8760000000000048,2.585000000000001 1.879400000000004,2.580199999999998 1.8781999999999925,2.5771999999999977 1.879400000000004,2.5662999999999982 1.873199999999997,2.550799999999999 1.8748999999999967,2.5418999999999983 1.8748999999999967,2.537499999999998 1.873199999999997,2.535 1.8754999999999882,2.5290999999999997 1.8804999999999836,2.5244 1.8781999999999925,2.5196000000000005 1.8689999999999998,2.5161999999999978 1.8456999999999937,2.522500000000001 1.8366000000000042,2.5213 1.8334999999999866,2.5227000000000004 1.8379999999999939,2.5265999999999984 1.8481999999999914,2.5296999999999983 1.8593999999999937,2.537499999999998 1.8643999999999892,2.5549999999999997 1.869100000000003,2.5641 1.8687999999999931,2.5716 1.8645999999999958,2.5761000000000003 1.8718999999999824,2.5805000000000007 1.879099999999994,2.591899999999999 1.9019999999999868,2.6111000000000004 1.9180999999999813,2.6128 1.921199999999999,2.6165999999999983 1.9213000000000022,2.621600000000001 1.9317999999999813,2.6301999999999985 1.933499999999981,2.629999999999999 1.9333000000000027,2.628 1.93689999999998,2.624399999999998 "></polygon><polygon points="1.9359999999999786,2.631899999999998 1.9359999999999786,2.6369000000000007 1.9387999999999863,2.6396999999999977 1.9406999999999925,2.6369000000000007 1.9398999999999944,2.6325000000000003 1.9359999999999786,2.631899999999998 "></polygon><polygon points="1.8204999999999814,2.6774999999999984 1.8194000000000017,2.6766000000000005 1.8185000000000002,2.6785999999999994 1.8198999999999899,2.6790999999999983 1.8204999999999814,2.6774999999999984 "></polygon><polygon points="1.9248999999999796,2.6997 1.9351999999999805,2.6811000000000007 1.9465999999999894,2.669999999999998 1.9490999999999872,2.6569000000000003 1.9465999999999894,2.6529999999999987 1.9410000000000025,2.6522000000000006 1.9395999999999844,2.653600000000001 1.9351000000000056,2.666499999999999 1.9254999999999995,2.6724999999999994 1.9265999999999792,2.6804999999999986 1.9157999999999902,2.690200000000001 1.9157999999999902,2.7027 1.9218999999999937,2.703599999999998 1.9248999999999796,2.6997 "></polygon><polygon points="1.7340999999999838,2.718799999999998 1.7368999999999915,2.715 1.7290999999999883,2.706900000000001 1.724899999999991,2.7058 1.7206999999999937,2.7074999999999996 1.7202000000000055,2.7110999999999983 1.7235000000000014,2.718 1.7262999999999806,2.7171999999999983 1.7309999999999945,2.719999999999999 1.7340999999999838,2.718799999999998 "></polygon><polygon points="1.764099999999985,2.7516 1.7643999999999949,2.7471999999999994 1.7618999999999971,2.7438000000000002 1.7554999999999836,2.746600000000001 1.758499999999998,2.756899999999998 1.7609999999999957,2.756899999999998 1.764099999999985,2.7516 "></polygon><polygon points="2.0431999999999846,3.5601999999999983 2.044099999999986,3.559100000000001 2.0426999999999964,3.557500000000001 2.041799999999995,3.5594 2.0431999999999846,3.5601999999999983 "></polygon><polygon points="2.0718999999999994,3.6305999999999976 2.0700999999999965,3.6297999999999995 2.068099999999987,3.633700000000001 2.0734999999999957,3.636099999999999 2.073599999999999,3.631999999999998 2.0718999999999994,3.6305999999999976 "></polygon><polygon points="2.133999999999986,3.529 2.1319000000000017,3.5288000000000004 2.1307999999999936,3.5305 2.1340999999999894,3.5319000000000003 2.133999999999986,3.529 "></polygon><polygon points="2.1533000000000015,3.5310999999999986 2.1510999999999854,3.5299999999999976 2.1491000000000042,3.5319000000000003 2.151299999999992,3.5329999999999977 2.1533000000000015,3.5310999999999986 "></polygon><polygon points="2.1051999999999964,3.553699999999999 2.1012999999999806,3.5547000000000004 2.100200000000001,3.5564999999999998 2.1015999999999906,3.5588999999999977 2.105099999999993,3.5576000000000008 2.1051999999999964,3.553699999999999 "></polygon><polygon points="2.08959999999999,3.593 2.0908000000000015,3.591100000000001 2.088799999999992,3.5893999999999977 2.087999999999994,3.591100000000001 2.08959999999999,3.593 "></polygon><polygon points="2.217399999999998,3.493299999999998 2.219399999999979,3.4922000000000004 2.218199999999996,3.4899999999999984 2.217099999999988,3.491299999999999 2.217399999999998,3.493299999999998 "></polygon><polygon points="2.201599999999985,3.5035999999999987 2.2025999999999897,3.5047999999999995 2.2043999999999926,3.4987999999999992 2.2021000000000015,3.501100000000001 2.201599999999985,3.5035999999999987 "></polygon><polygon points="2.173000000000002,3.5493999999999986 2.17349999999999,3.551099999999998 2.1748999999999796,3.5500000000000007 2.1739000000000033,3.5488999999999997 2.173000000000002,3.5493999999999986 "></polygon><polygon points="2.211699999999979,3.5558999999999976 2.211500000000001,3.553799999999999 2.208200000000005,3.552199999999999 2.203800000000001,3.5524999999999984 2.202699999999993,3.554500000000001 2.207099999999997,3.558799999999998 2.2107000000000028,3.558 2.211699999999979,3.5558999999999976 "></polygon><polygon points="2.239099999999979,3.5258000000000003 2.2404999999999973,3.5249999999999986 2.2384999999999877,3.523299999999999 2.2376999999999896,3.5246999999999993 2.239099999999979,3.5258000000000003 "></polygon><polygon points="2.2964999999999804,3.627700000000001 2.2964000000000055,3.6221999999999994 2.2946000000000026,3.6202000000000005 2.2883999999999958,3.6189 2.2934999999999945,3.6204 2.2952999999999975,3.622799999999998 2.295599999999979,3.6267999999999994 2.2898999999999887,3.6328999999999994 2.2964999999999804,3.627700000000001 "></polygon><polygon points="2.2223999999999933,3.636599999999998 2.2254999999999825,3.636099999999999 2.225999999999999,3.6285999999999987 2.2176999999999794,3.6351999999999975 2.219300000000004,3.6377999999999986 2.2223999999999933,3.636599999999998 "></polygon><polygon points="2.2613999999999805,3.6530999999999985 2.2582999999999913,3.649899999999999 2.257499999999993,3.6386000000000003 2.2557999999999936,3.6377999999999986 2.250499999999988,3.6435999999999993 2.2498999999999967,3.6494 2.2535000000000025,3.6546999999999983 2.259999999999991,3.6583000000000006 2.2635999999999967,3.6557999999999993 2.2613999999999805,3.6530999999999985 "></polygon><polygon points="2.19489999999999,3.5792 2.192099999999982,3.582699999999999 2.19459999999998,3.5860999999999983 2.197999999999979,3.581900000000001 2.196799999999996,3.5793999999999997 2.19489999999999,3.5792 "></polygon><polygon points="2.180499999999995,3.593799999999998 2.1820999999999913,3.5921999999999983 2.1820999999999913,3.586500000000001 2.177099999999996,3.585799999999999 2.17319999999998,3.5935999999999986 2.1784999999999854,3.5958000000000006 2.180499999999995,3.593799999999998 "></polygon><polygon points="2.2051999999999907,3.5913000000000004 2.2040999999999826,3.5924999999999976 2.2050999999999874,3.5946999999999996 2.2061999999999955,3.5916999999999994 2.2051999999999907,3.5913000000000004 "></polygon><polygon points="2.2048999999999808,3.6073999999999984 2.2073000000000036,3.605599999999999 2.206099999999992,3.6022 2.203099999999978,3.601399999999998 2.2043999999999926,3.597899999999999 2.202699999999993,3.5961 2.2006999999999834,3.5982999999999983 2.2021000000000015,3.6005000000000003 2.2014999999999816,3.6038999999999994 2.197999999999979,3.607499999999998 2.1988000000000056,3.6113 2.2048999999999808,3.6073999999999984 "></polygon><polygon points="2.214100000000002,3.6037 2.2128999999999905,3.603300000000001 2.212299999999999,3.6050000000000004 2.2150000000000034,3.6051 2.214100000000002,3.6037 "></polygon><polygon points="2.1715999999999838,3.6107999999999976 2.172699999999992,3.612199999999998 2.1740999999999815,3.6111000000000004 2.17319999999998,3.6097 2.1715999999999838,3.6107999999999976 "></polygon><polygon points="2.2206999999999937,3.6240999999999985 2.2187999999999874,3.626100000000001 2.2195999999999856,3.626899999999999 2.221299999999985,3.626100000000001 2.2206999999999937,3.6240999999999985 "></polygon><polygon points="2.168599999999998,3.633099999999999 2.1710999999999956,3.6357 2.1725999999999885,3.634599999999999 2.169399999999996,3.632200000000001 2.168599999999998,3.633099999999999 "></polygon><polygon points="2.1448000000000036,3.5977999999999994 2.1461999999999932,3.5996999999999986 2.1474000000000046,3.5988000000000007 2.1462999999999965,3.5975 2.1448000000000036,3.5977999999999994 "></polygon><polygon points="2.137599999999992,3.5982999999999983 2.1363000000000056,3.5966999999999985 2.1337999999999795,3.5989000000000004 2.136499999999984,3.601099999999999 2.1380000000000052,3.600200000000001 2.137599999999992,3.5982999999999983 "></polygon><polygon points="2.116899999999987,3.6079000000000008 2.122399999999999,3.6076999999999977 2.1245999999999867,3.6037 2.1218999999999824,3.603300000000001 2.1206999999999994,3.6003000000000007 2.11839999999998,3.6021 2.1137999999999977,3.601099999999999 2.109999999999985,3.603300000000001 2.1048999999999864,3.6023999999999994 2.101699999999994,3.5988000000000007 2.0977000000000032,3.6007999999999996 2.097799999999978,3.604099999999999 2.099899999999991,3.6054999999999993 2.10299999999998,3.604099999999999 2.1051999999999964,3.607499999999998 2.1089999999999804,3.6065000000000005 2.1134999999999877,3.610199999999999 2.116899999999987,3.6079000000000008 "></polygon><polygon points="2.1595999999999833,3.6186000000000007 2.1598999999999933,3.6201000000000008 2.163199999999989,3.621600000000001 2.162899999999979,3.6171000000000006 2.1610000000000014,3.6163999999999987 2.1595999999999833,3.6186000000000007 "></polygon><polygon points="2.1485999999999876,3.623100000000001 2.1495999999999924,3.6233000000000004 2.1493999999999858,3.6205 2.147899999999993,3.6209999999999987 2.1485999999999876,3.623100000000001 "></polygon><polygon points="2.125199999999978,3.6221999999999994 2.1248999999999967,3.6237999999999992 2.126999999999981,3.6247000000000007 2.128799999999984,3.620899999999999 2.125199999999978,3.6221999999999994 "></polygon><polygon points="2.1170999999999935,3.6274999999999977 2.1211999999999875,3.6255999999999986 2.122399999999999,3.6226999999999983 2.1167999999999836,3.621199999999998 2.111799999999988,3.622299999999999 2.106599999999986,3.6202000000000005 2.104299999999995,3.6210999999999984 2.108699999999999,3.625899999999998 2.110199999999992,3.6335999999999977 2.111699999999985,3.6325000000000003 2.112099999999998,3.6262000000000008 2.114399999999989,3.6255999999999986 2.1170999999999935,3.6274999999999977 "></polygon><polygon points="2.133199999999988,3.626999999999999 2.1304999999999836,3.6266 2.127999999999986,3.6285999999999987 2.1285000000000025,3.632999999999999 2.131399999999985,3.6335999999999977 2.1337000000000046,3.632200000000001 2.1347999999999843,3.6293000000000006 2.133199999999988,3.626999999999999 "></polygon><polygon points="2.115099999999984,3.6326 2.116899999999987,3.6327 2.115700000000004,3.6308000000000007 2.1149000000000058,3.6316999999999986 2.115099999999984,3.6326 "></polygon><polygon points="2.0751999999999953,3.632200000000001 2.078199999999981,3.6357999999999997 2.0790999999999826,3.6351999999999975 2.0774999999999864,3.6313999999999993 2.0751999999999953,3.632200000000001 "></polygon><polygon points="2.0803999999999974,3.6496999999999993 2.0818999999999903,3.6424999999999983 2.0760999999999967,3.6407999999999987 2.0702,3.6465999999999994 2.072900000000004,3.6522000000000006 2.0772999999999797,3.6531999999999982 2.077399999999983,3.6506000000000007 2.0803999999999974,3.6496999999999993 "></polygon><polygon points="2.1598999999999933,3.6488999999999976 2.1595999999999833,3.6461000000000006 2.1570999999999856,3.6435999999999993 2.1551999999999794,3.6492000000000004 2.1585000000000036,3.6510999999999996 2.1598999999999933,3.6488999999999976 "></polygon><polygon points="2.144599999999997,3.6529999999999987 2.1441999999999837,3.6483999999999988 2.1480999999999995,3.6454999999999984 2.1473000000000013,3.6372999999999998 2.150800000000004,3.6369000000000007 2.1526999999999816,3.633399999999998 2.1491000000000042,3.6332999999999984 2.1454999999999984,3.6355000000000004 2.1454999999999984,3.6433 2.1396000000000015,3.645199999999999 2.1373999999999853,3.6491000000000007 2.1319000000000017,3.6510999999999996 2.1245999999999867,3.6499999999999986 2.1133999999999844,3.6385000000000005 2.1113,3.638300000000001 2.1123999999999796,3.6479999999999997 2.1175999999999817,3.6480999999999995 2.125199999999978,3.653299999999998 2.1315999999999917,3.6540999999999997 2.1343999999999994,3.6569000000000003 2.145700000000005,3.6618999999999993 2.1467999999999847,3.657899999999998 2.144599999999997,3.6529999999999987 "></polygon><polygon points="2.1148000000000025,3.678000000000001 2.1208000000000027,3.680699999999998 2.1306999999999903,3.6773999999999987 2.122099999999989,3.6729999999999983 2.114099999999979,3.6743999999999986 2.1026999999999987,3.669999999999998 2.093599999999981,3.656399999999998 2.0926000000000045,3.6480999999999995 2.0900000000000034,3.6419999999999995 2.08329999999998,3.6418999999999997 2.082899999999995,3.643699999999999 2.088300000000004,3.6484999999999985 2.0866000000000042,3.6540999999999997 2.0901999999999816,3.6610999999999976 2.087999999999994,3.662700000000001 2.0833999999999833,3.6617999999999995 2.078000000000003,3.6546999999999983 2.0763000000000034,3.6557999999999993 2.0801999999999907,3.662499999999998 2.0859999999999843,3.6675000000000004 2.0885999999999854,3.6737 2.0955999999999904,3.6773999999999987 2.1017999999999972,3.6770999999999994 2.1051999999999964,3.680799999999998 2.1148000000000025,3.678000000000001 "></polygon><polygon points="2.112799999999993,3.6636999999999986 2.1088000000000022,3.6644000000000005 2.1085999999999956,3.668099999999999 2.1097999999999786,3.668099999999999 2.112799999999993,3.6636999999999986 "></polygon><polygon points="2.1464,3.6663999999999994 2.147999999999996,3.666599999999999 2.147599999999983,3.6645000000000003 2.1459999999999866,3.6651999999999987 2.1464,3.6663999999999994 "></polygon><polygon points="2.217399999999998,3.6433 2.2165999999999997,3.641099999999998 2.2151999999999816,3.644099999999998 2.2165999999999997,3.644099999999998 2.217399999999998,3.6433 "></polygon><polygon points="2.1640999999999906,3.6418999999999997 2.1648999999999887,3.6465999999999994 2.1684999999999945,3.6478 2.1725999999999885,3.6461000000000006 2.1707999999999856,3.6417 2.1676999999999964,3.640699999999999 2.1640999999999906,3.6418999999999997 "></polygon><polygon points="2.1807000000000016,3.6615 2.183799999999991,3.6561999999999983 2.1910000000000025,3.653299999999998 2.195399999999978,3.646000000000001 2.1928999999999803,3.631899999999998 2.1935000000000002,3.624399999999998 2.1906999999999925,3.621299999999998 2.181600000000003,3.6271999999999984 2.1759999999999877,3.6358999999999995 2.1787999999999954,3.647500000000001 2.180499999999995,3.6485999999999983 2.1851000000000056,3.6476000000000006 2.1854999999999905,3.6499999999999986 2.1792999999999836,3.656399999999998 2.170199999999994,3.6601999999999997 2.1665999999999883,3.6637999999999984 2.166499999999985,3.6676 2.172499999999985,3.666999999999998 2.1807000000000016,3.6615 "></polygon><polygon points="2.1689999999999827,3.656299999999998 2.167100000000005,3.6569000000000003 2.1676999999999964,3.658200000000001 2.169099999999986,3.6579999999999977 2.1689999999999827,3.656299999999998 "></polygon><polygon points="2.292100000000005,3.6546999999999983 2.29079999999999,3.6508000000000003 2.2882999999999925,3.6494 2.289699999999982,3.6433 2.288199999999989,3.6424999999999983 2.2860000000000014,3.647199999999998 2.286900000000003,3.654399999999999 2.2894000000000005,3.6571999999999996 2.292100000000005,3.6546999999999983 "></polygon><polygon points="2.2279000000000053,3.6618999999999993 2.2287999999999784,3.6621999999999986 2.2283999999999935,3.6590999999999987 2.2270999999999788,3.659700000000001 2.2279000000000053,3.6618999999999993 "></polygon><polygon points="2.2697000000000003,3.6640999999999977 2.2711999999999932,3.6631 2.2701999999999884,3.6616 2.268199999999979,3.662700000000001 2.2697000000000003,3.6640999999999977 "></polygon><polygon points="2.2635999999999967,3.6675000000000004 2.266300000000001,3.6640999999999977 2.2638000000000034,3.6616 2.253799999999984,3.665499999999998 2.2556999999999903,3.6679999999999993 2.2635999999999967,3.6675000000000004 "></polygon><polygon points="2.1925999999999988,3.6567000000000007 2.1906999999999925,3.6587999999999994 2.192099999999982,3.66 2.1940999999999917,3.6586 2.19489999999999,3.654899999999998 2.1925999999999988,3.6567000000000007 "></polygon><polygon points="2.1962999999999795,3.669699999999999 2.1973999999999876,3.6632999999999996 2.1939999999999884,3.6621999999999986 2.190499999999986,3.664999999999999 2.187699999999978,3.6732999999999976 2.191299999999984,3.6790999999999983 2.1929999999999836,3.6783 2.1910000000000025,3.6752000000000002 2.193899999999985,3.6712999999999987 2.1965999999999894,3.671099999999999 2.1962999999999795,3.669699999999999 "></polygon><polygon points="2.195699999999988,3.6765000000000008 2.195699999999988,3.6752000000000002 2.19459999999998,3.674699999999998 2.1944000000000017,3.677199999999999 2.195699999999988,3.6765000000000008 "></polygon><polygon points="2.204999999999984,3.687899999999999 2.2042999999999893,3.687100000000001 2.203199999999981,3.6884999999999977 2.2051999999999907,3.689 2.204999999999984,3.687899999999999 "></polygon><polygon points="2.2934999999999945,3.6646 2.2923999999999864,3.660499999999999 2.2895999999999788,3.6586 2.288499999999999,3.6616 2.2897999999999854,3.666499999999999 2.288499999999999,3.668499999999998 2.290999999999997,3.6736000000000004 2.2938000000000045,3.671099999999999 2.2934999999999945,3.6646 "></polygon><polygon points="2.257800000000003,3.6724999999999994 2.2530999999999892,3.672699999999999 2.2527999999999793,3.6752000000000002 2.2606999999999857,3.6813000000000002 2.2606999999999857,3.6738999999999997 2.257800000000003,3.6724999999999994 "></polygon><polygon points="2.29079999999999,3.6790999999999983 2.2890999999999906,3.6851999999999983 2.292100000000005,3.688299999999998 2.293700000000001,3.6869999999999976 2.292100000000005,3.6835999999999984 2.2931999999999846,3.6799999999999997 2.2923999999999864,3.6785999999999994 2.29079999999999,3.6790999999999983 "></polygon><polygon points="2.2642999999999915,3.6880999999999986 2.265999999999991,3.688600000000001 2.2668999999999926,3.686899999999998 2.264700000000005,3.6858000000000004 2.2642999999999915,3.6880999999999986 "></polygon><polygon points="1.6654999999999802,2.5288000000000004 1.670500000000004,2.5244 1.6681999999999846,2.5185999999999993 1.6637999999999806,2.5197000000000003 1.657999999999987,2.5180000000000007 1.6545999999999879,2.5199999999999996 1.6554999999999893,2.5211000000000006 1.6537999999999897,2.523799999999998 1.655699999999996,2.5258000000000003 1.661299999999983,2.5302000000000007 1.6654999999999802,2.5288000000000004 "></polygon><polygon points="1.4924000000000035,2.5425000000000004 1.49939999999998,2.537499999999998 1.4984999999999786,2.5340999999999987 1.491899999999987,2.5337999999999994 1.4855000000000018,2.5366 1.4855000000000018,2.540499999999998 1.4873999999999796,2.5427 1.4924000000000035,2.5425000000000004 "></polygon><polygon points="1.6762999999999977,2.569399999999998 1.6759999999999877,2.5707999999999984 1.678200000000004,2.570499999999999 1.6774000000000058,2.5683000000000007 1.6762999999999977,2.569399999999998 "></polygon><polygon points="1.5930999999999926,2.5839 1.5952000000000055,2.5822000000000003 1.5923999999999978,2.5782999999999987 1.5904999999999916,2.5775000000000006 1.5866000000000042,2.580199999999998 1.5874000000000024,2.584299999999999 1.5930999999999926,2.5839 "></polygon><polygon points="1.651299999999992,2.593 1.650199999999984,2.5924999999999976 1.6484999999999843,2.594100000000001 1.6504999999999939,2.5944000000000003 1.651299999999992,2.593 "></polygon><polygon points="1.57589999999999,3.562100000000001 1.5814000000000021,3.5584999999999987 1.5859999999999843,3.5579 1.5895999999999901,3.553000000000001 1.593500000000006,3.551099999999998 1.5951000000000022,3.5473999999999997 1.581799999999987,3.525199999999998 1.5739999999999839,3.5249999999999986 1.5722999999999843,3.5226000000000006 1.563699999999983,3.5230999999999995 1.5549999999999784,3.5287000000000006 1.5490999999999815,3.537499999999998 1.5493999999999915,3.5390999999999977 1.5441999999999894,3.545099999999998 1.5437000000000012,3.5485000000000007 1.5459999999999923,3.5543999999999976 1.5498999999999796,3.558299999999999 1.5490999999999815,3.5610999999999997 1.5535999999999888,3.5649999999999977 1.559299999999979,3.567 1.5631999999999948,3.565200000000001 1.566900000000004,3.5683000000000007 1.57589999999999,3.562100000000001 "></polygon><polygon points="1.2006999999999834,2.703599999999998 1.2068999999999903,2.6999999999999993 1.2076999999999884,2.6933000000000007 1.213799999999992,2.6875 1.214100000000002,2.6851999999999983 1.2165999999999997,2.6860999999999997 1.2150999999999783,2.678799999999999 1.202399999999983,2.664999999999999 1.1887999999999863,2.6576999999999984 1.185699999999997,2.659399999999998 1.181600000000003,2.6651999999999987 1.1826999999999828,2.6732999999999976 1.1809999999999832,2.6762999999999977 1.1758999999999844,2.677199999999999 1.1765999999999792,2.683299999999999 1.1826999999999828,2.682199999999998 1.185699999999997,2.6912999999999982 1.1920999999999822,2.7011000000000003 1.1948999999999899,2.7037999999999975 1.2006999999999834,2.703599999999998 "></polygon><polygon points="1.3632000000000062,3.1705000000000005 1.3643999999999892,3.171599999999998 1.365700000000004,3.171099999999999 1.3640000000000043,3.1691000000000003 1.3632000000000062,3.1705000000000005 "></polygon><polygon points="0.8309999999999889,1.8160999999999987 0.8374000000000024,1.813600000000001 0.8418999999999812,1.8085999999999984 0.8293999999999926,1.8110999999999997 0.8246000000000038,1.8157999999999994 0.8265999999999849,1.8183000000000007 0.8309999999999889,1.8160999999999987 "></polygon><polygon points="0.5826999999999884,6.782699999999998 0.586199999999991,6.783299999999999 0.5973999999999933,6.778599999999999 0.605400000000003,6.772399999999999 0.6115999999999815,6.7646 0.6137999999999977,6.759699999999999 0.6126999999999896,6.7439 0.6076999999999941,6.7286 0.5959000000000003,6.716099999999999 0.5795999999999992,6.7097 0.5673999999999921,6.709099999999999 0.5583000000000027,6.7132999999999985 0.5379999999999825,6.7326999999999995 0.5344000000000051,6.7386 0.5337999999999852,6.749599999999999 0.5379999999999825,6.7562999999999995 0.5395999999999788,6.7635999999999985 0.5480000000000018,6.7713 0.5715999999999894,6.7814 0.5815000000000055,6.7836 0.5826999999999884,6.782699999999998 "></polygon><polygon points="2.139899999999983,3.6799999999999997 2.1407999999999845,3.6783 2.1388000000000034,3.6774999999999984 2.1382999999999868,3.6782000000000004 2.139899999999983,3.6799999999999997 "></polygon><polygon points="2.143199999999979,3.6905 2.1451999999999884,3.6910999999999987 2.146599999999978,3.6888000000000005 2.143599999999992,3.6884999999999977 2.143199999999979,3.6905 "></polygon><polygon points="2.038199999999989,4.1865999999999985 2.033999999999992,4.183899999999998 2.029899999999998,4.185399999999998 2.0307999999999993,4.188399999999998 2.037099999999981,4.190799999999999 2.038499999999999,4.189699999999998 2.038199999999989,4.1865999999999985 "></polygon><polygon points="1.9039999999999964,4.3354 1.9044999999999845,4.332000000000001 1.908299999999997,4.330500000000001 1.9093000000000018,4.328599999999998 1.9073999999999955,4.321899999999999 1.901600000000002,4.316299999999998 1.8976999999999862,4.3169 1.8941999999999837,4.314999999999998 1.885499999999979,4.319199999999999 1.8848999999999876,4.324400000000001 1.8876999999999953,4.327199999999998 1.8891999999999882,4.3339 1.895399999999995,4.337699999999998 1.9039999999999964,4.3354 "></polygon><polygon points="2.206299999999999,3.6997 2.2077999999999918,3.6976999999999975 2.206299999999999,3.6975999999999978 2.2040999999999826,3.692999999999998 2.1988999999999805,3.6941999999999986 2.1972999999999843,3.6960999999999977 2.197800000000001,3.6999999999999993 2.206299999999999,3.6997 "></polygon><polygon points="2.207599999999985,3.7021999999999977 2.2055000000000007,3.7018999999999984 2.2050999999999874,3.7028999999999996 2.205799999999982,3.7032999999999987 2.207599999999985,3.7021999999999977 "></polygon><polygon points="2.259299999999996,3.776299999999999 2.259600000000006,3.7790999999999997 2.2673999999999808,3.7738999999999976 2.268799999999999,3.7775 2.2732000000000028,3.7760999999999996 2.2776999999999816,3.7788000000000004 2.2809000000000026,3.778299999999998 2.284099999999995,3.775199999999998 2.2848999999999933,3.7718999999999987 2.2912999999999784,3.7677999999999976 2.2905999999999835,3.7607999999999997 2.2856999999999914,3.7544000000000004 2.2887999999999806,3.751100000000001 2.295500000000004,3.749600000000001 2.295199999999994,3.746600000000001 2.290699999999987,3.7421000000000006 2.29049999999998,3.7383999999999986 2.29849999999999,3.7333 2.305199999999985,3.7354999999999983 2.309899999999999,3.7300000000000004 2.31189999999998,3.7194000000000003 2.309899999999999,3.7171999999999983 2.310699999999997,3.7124999999999986 2.308499999999981,3.7093999999999987 2.3037999999999954,3.7093999999999987 2.301799999999986,3.711299999999998 2.2971000000000004,3.710799999999999 2.294399999999996,3.7086000000000006 2.3026999999999873,3.703599999999998 2.3045999999999935,3.7013 2.303200000000004,3.698599999999999 2.3001999999999896,3.6994000000000007 2.2978999999999985,3.7025000000000006 2.292999999999978,3.7013999999999996 2.289699999999982,3.7033999999999985 2.2879999999999825,3.700499999999998 2.2887999999999806,3.6967 2.286599999999993,3.695499999999999 2.281000000000006,3.698599999999999 2.276600000000002,3.7060999999999993 2.278599999999983,3.7079999999999984 2.2854999999999848,3.7089 2.287700000000001,3.7110999999999983 2.2926999999999964,3.7104999999999997 2.2956999999999823,3.713000000000001 2.292999999999978,3.7164 2.29049999999998,3.7151999999999994 2.2887999999999806,3.7165999999999997 2.290300000000002,3.726800000000001 2.2820999999999856,3.7375000000000007 2.279599999999988,3.7357999999999976 2.2779999999999916,3.7377000000000002 2.275999999999982,3.7368999999999986 2.279399999999981,3.7348999999999997 2.2771999999999935,3.7304999999999993 2.2784999999999798,3.7293999999999983 2.2801999999999794,3.731300000000001 2.2831999999999937,3.727599999999999 2.278599999999983,3.7235999999999976 2.2790999999999997,3.719100000000001 2.275800000000004,3.7133000000000003 2.2680000000000007,3.7151999999999994 2.2587999999999795,3.7227999999999994 2.2560000000000002,3.722999999999999 2.2565999999999917,3.7154999999999987 2.2590999999999894,3.7147000000000006 2.261799999999994,3.7171999999999983 2.2673999999999808,3.7121999999999993 2.2711999999999932,3.7116000000000007 2.273300000000006,3.7093999999999987 2.272699999999986,3.7043999999999997 2.2635999999999967,3.707799999999999 2.2621000000000038,3.706900000000001 2.2673999999999808,3.703900000000001 2.264099999999985,3.6987999999999985 2.269599999999997,3.6968999999999994 2.2690999999999804,3.694700000000001 2.2634999999999934,3.6912999999999982 2.261599999999987,3.688299999999998 2.258499999999998,3.6919000000000004 2.261599999999987,3.694099999999999 2.2623999999999853,3.6979000000000006 2.259699999999981,3.699300000000001 2.259600000000006,3.7025000000000006 2.2569000000000017,3.7028 2.252999999999986,3.7002999999999986 2.2524999999999977,3.6979000000000006 2.2549999999999955,3.6968999999999994 2.2516999999999996,3.6933000000000007 2.2535000000000025,3.6905 2.2521999999999878,3.688299999999998 2.252999999999986,3.683799999999998 2.2487999999999886,3.6790999999999983 2.244100000000003,3.6815999999999995 2.248599999999982,3.6875 2.248599999999982,3.694399999999998 2.2404999999999973,3.6981 2.2361999999999966,3.695599999999999 2.2384999999999877,3.6915999999999976 2.2399000000000058,3.6738999999999997 2.2290999999999883,3.668599999999998 2.225699999999989,3.6613000000000007 2.2210000000000036,3.6616 2.2190999999999974,3.66 2.2198999999999955,3.6583000000000006 2.225200000000001,3.657499999999999 2.2276999999999987,3.650500000000001 2.2309999999999945,3.6492000000000004 2.231899999999996,3.6457999999999977 2.2269000000000005,3.6374999999999993 2.22829999999999,3.6424999999999983 2.2262999999999806,3.6464 2.213799999999992,3.6468999999999987 2.2068999999999903,3.645199999999999 2.2065999999999804,3.648799999999998 2.210099999999983,3.648799999999998 2.212699999999984,3.651299999999999 2.2164999999999964,3.6522000000000006 2.215900000000005,3.6553000000000004 2.1981999999999857,3.672599999999999 2.2012,3.6738 2.2028999999999996,3.6814999999999998 2.2055000000000007,3.6831999999999994 2.205999999999989,3.6862999999999992 2.209399999999988,3.6903000000000006 2.2190999999999974,3.6966 2.225699999999989,3.683299999999999 2.224599999999981,3.680299999999999 2.2154999999999916,3.6732999999999976 2.21459999999999,3.671099999999999 2.217399999999998,3.6701999999999977 2.229600000000005,3.6750000000000007 2.232699999999994,3.6854999999999976 2.231599999999986,3.691399999999998 2.2327999999999975,3.6933000000000007 2.22799999999998,3.6972999999999985 2.220100000000002,3.7003999999999984 2.213799999999992,3.6968999999999994 2.2112999999999943,3.697499999999998 2.2089,3.702400000000001 2.2095999999999947,3.703900000000001 2.217099999999988,3.7043 2.2229999999999848,3.709199999999999 2.230499999999978,3.709699999999998 2.231899999999996,3.7110999999999983 2.234899999999982,3.7165999999999997 2.239099999999979,3.719999999999999 2.239099999999979,3.726099999999999 2.2420999999999935,3.7304999999999993 2.239599999999996,3.7365999999999993 2.2321000000000026,3.7413999999999987 2.2227000000000032,3.7424999999999997 2.2246999999999844,3.739699999999999 2.228199999999987,3.738900000000001 2.2290999999999883,3.7375000000000007 2.2262999999999806,3.7365999999999993 2.2290999999999883,3.735199999999999 2.2298999999999864,3.732499999999998 2.23599999999999,3.7286 2.2365999999999815,3.722200000000001 2.235199999999992,3.7201999999999984 2.2176999999999794,3.7072000000000003 2.215299999999985,3.709299999999999 2.2159999999999798,3.7119 2.21429999999998,3.7124999999999986 2.2073000000000036,3.7071000000000005 2.2079999999999984,3.7058999999999997 2.206299999999999,3.7043999999999997 2.2039000000000044,3.7044999999999995 2.2039999999999793,3.700800000000001 2.1973999999999876,3.702099999999998 2.1932999999999936,3.6971999999999987 2.195699999999988,3.692999999999998 2.188299999999998,3.690999999999999 2.1795999999999935,3.6804999999999986 2.1754999999999995,3.677699999999998 2.1637999999999806,3.6783 2.159400000000005,3.6766000000000005 2.1565999999999974,3.6793999999999976 2.1551999999999794,3.6876999999999995 2.156899999999979,3.697499999999998 2.1557999999999993,3.6988999999999983 2.148300000000006,3.6997999999999998 2.150199999999984,3.7074999999999996 2.145700000000005,3.7125999999999983 2.1458999999999833,3.7179 2.1447000000000003,3.718799999999998 2.1474999999999795,3.7197999999999993 2.149199999999979,3.7258999999999993 2.151600000000002,3.7276999999999987 2.1607999999999947,3.728300000000001 2.1637999999999806,3.7302 2.1694999999999993,3.7272 2.174999999999983,3.7288999999999994 2.1777999999999906,3.7246999999999986 2.1846999999999923,3.7239000000000004 2.188699999999983,3.730599999999999 2.1916999999999973,3.7311999999999976 2.1962000000000046,3.7363999999999997 2.198999999999984,3.7437000000000005 2.201699999999988,3.7437000000000005 2.205699999999979,3.7464999999999975 2.2099000000000046,3.7540999999999976 2.210399999999993,3.7683999999999997 2.2086999999999932,3.775500000000001 2.213799999999992,3.772199999999998 2.2391999999999825,3.7836999999999996 2.2412999999999954,3.7836999999999996 2.243499999999983,3.780899999999999 2.2471999999999923,3.779799999999998 2.2538999999999874,3.7745999999999995 2.2586000000000013,3.7746999999999993 2.259299999999996,3.776299999999999 "></polygon><polygon points="2.46429999999998,6.4163 2.4672999999999945,6.4108 2.4651999999999816,6.4011 2.4473999999999876,6.3841 2.4395999999999844,6.372199999999999 2.4317999999999813,6.365499999999999 2.4221000000000004,6.369399999999999 2.413199999999989,6.377699999999999 2.4095999999999833,6.388299999999999 2.404899999999998,6.3927 2.4054999999999893,6.395499999999998 2.4031999999999982,6.396899999999999 2.406000000000006,6.3994 2.4102000000000032,6.3994 2.4129999999999825,6.401299999999999 2.417100000000005,6.399699999999999 2.434899999999999,6.405799999999999 2.441299999999984,6.4063 2.4462999999999795,6.4047 2.4543999999999926,6.411899999999999 2.4579999999999984,6.4201999999999995 2.4624000000000024,6.419699999999999 2.46429999999998,6.4163 "></polygon><polygon points="2.434100000000001,6.416599999999999 2.434599999999989,6.4147 2.4329999999999927,6.4133 2.4324000000000012,6.415199999999999 2.434100000000001,6.416599999999999 "></polygon><polygon points="2.467399999999998,6.5085999999999995 2.4729999999999848,6.5047 2.4787999999999784,6.494999999999999 2.4762999999999806,6.489699999999999 2.473799999999983,6.489999999999998 2.4695999999999856,6.485799999999999 2.463799999999992,6.486599999999999 2.4612999999999943,6.4894 2.457099999999997,6.507199999999999 2.459399999999988,6.5116 2.463799999999992,6.5116 2.467399999999998,6.5085999999999995 "></polygon>
    </svg>
    