
    <svg width="1.4008000000000038" height="0.7851999999999997" xmlns="http://www.w3.org/2000/svg" xmlns:xlink="http://www.w3.org/1999/xlink" style="transform: scale(1, -1)">
        <polygon points="0.7777999999999992,0.0008000000000016882 0.7760999999999996,0.0 0.7763999999999953,0.002500000000001279 0.7783000000000015,0.002500000000001279 0.7777999999999992,0.0008000000000016882 "></polygon><polygon points="0.6855000000000047,0.008000000000002672 0.6843999999999966,0.005500000000001393 0.6817000000000064,0.006300000000003081 0.6833000000000027,0.008600000000001273 0.6855000000000047,0.008000000000002672 "></polygon><polygon points="0.6968999999999994,0.010200000000001097 0.6968999999999994,0.008900000000000574 0.6946999999999974,0.008900000000000574 0.6938999999999993,0.011300000000002086 0.6961000000000013,0.011900000000000688 0.6968999999999994,0.010200000000001097 "></polygon><polygon points="0.8161000000000058,0.12830000000000297 0.8188999999999993,0.1277000000000008 0.8179999999999978,0.1252000000000031 0.7930000000000064,0.1130000000000031 0.7879999999999967,0.10610000000000142 0.7878000000000043,0.1086000000000027 0.7805000000000035,0.1086000000000027 0.7763999999999953,0.11020000000000252 0.7783000000000015,0.11470000000000269 0.7758000000000038,0.11410000000000053 0.7763999999999953,0.11220000000000141 0.7746999999999957,0.11190000000000211 0.7686000000000064,0.11640000000000228 0.7689000000000021,0.11910000000000309 0.7674999999999983,0.11660000000000181 0.758899999999997,0.11690000000000111 0.7563999999999993,0.11910000000000309 0.765500000000003,0.12160000000000082 0.7686000000000064,0.1194000000000024 0.7716999999999956,0.1197000000000017 0.7733000000000061,0.12160000000000082 0.7849999999999966,0.1247000000000007 0.792500000000004,0.1291000000000011 0.7955000000000041,0.12890000000000157 0.7960999999999956,0.12659999999999982 0.7968999999999937,0.12830000000000297 0.8108000000000004,0.1294000000000004 0.8161000000000058,0.12830000000000297 "></polygon><polygon points="1.3004999999999995,0.1636000000000024 1.2967000000000013,0.15549999999999997 1.2939000000000078,0.15580000000000283 1.292500000000004,0.15330000000000155 1.290300000000002,0.15380000000000038 1.2871999999999986,0.15140000000000242 1.2824999999999989,0.14270000000000138 1.2797000000000054,0.13970000000000127 1.2777999999999992,0.13970000000000127 1.2760999999999996,0.13610000000000255 1.2664000000000044,0.1258000000000017 1.2657999999999987,0.12330000000000041 1.2625000000000028,0.12390000000000256 1.2664000000000044,0.1477000000000004 1.2690999999999946,0.15380000000000038 1.269999999999996,0.16380000000000194 1.2736000000000018,0.16410000000000124 1.2742000000000075,0.16250000000000142 1.2783000000000015,0.16190000000000282 1.3033000000000072,0.16690000000000182 1.3004999999999995,0.1636000000000024 "></polygon><polygon points="0.8504999999999967,0.15000000000000213 0.8552999999999997,0.14470000000000027 0.8582999999999998,0.14499999999999957 0.8602999999999952,0.14300000000000068 0.8599999999999994,0.1416000000000004 0.8560999999999979,0.14080000000000226 0.854699999999994,0.1369000000000007 0.8552999999999997,0.12890000000000157 0.8599999999999994,0.120000000000001 0.8575000000000017,0.1186000000000007 0.8541000000000025,0.1130000000000031 0.8519000000000005,0.10410000000000252 0.847999999999999,0.10219999999999985 0.8455000000000013,0.10500000000000043 0.8452999999999946,0.11439999999999984 0.843900000000005,0.11690000000000111 0.8405000000000058,0.1180000000000021 0.839100000000002,0.12270000000000181 0.8447000000000031,0.125 0.8486000000000047,0.1311 0.8499999999999943,0.13770000000000238 0.8486000000000047,0.14270000000000138 0.8503000000000043,0.14580000000000126 0.847999999999999,0.14890000000000114 0.8482999999999947,0.15140000000000242 0.8504999999999967,0.15000000000000213 "></polygon><polygon points="1.2347000000000037,0.02470000000000283 1.2349999999999994,0.021399999999999864 1.2379999999999995,0.02020000000000266 1.2361000000000075,0.018900000000002137 1.2347000000000037,0.011300000000002086 1.2349999999999994,0.009100000000000108 1.2364000000000033,0.009700000000002262 1.236699999999999,0.004100000000001103 1.2343999999999937,0.004400000000000404 1.232200000000006,0.008600000000001273 1.2342000000000013,0.01770000000000138 1.2310999999999979,0.025500000000000966 1.2339000000000055,0.026099999999999568 1.2347000000000037,0.02470000000000283 "></polygon><polygon points="0.854699999999994,0.01910000000000167 0.8536000000000001,0.018000000000000682 0.8499999999999943,0.022500000000000853 0.8543999999999983,0.02360000000000184 0.854699999999994,0.01910000000000167 "></polygon><polygon points="1.3957999999999942,0.18270000000000053 1.398300000000006,0.18330000000000268 1.397199999999998,0.177500000000002 1.4008000000000038,0.17250000000000298 1.4003000000000014,0.17050000000000054 1.3974999999999937,0.17130000000000223 1.3910999999999945,0.17970000000000041 1.3936000000000064,0.18410000000000082 1.3957999999999942,0.18270000000000053 "></polygon><polygon points="0.8686000000000007,0.19000000000000128 0.8671999999999969,0.1858000000000004 0.866100000000003,0.1855000000000011 0.8646999999999991,0.1880000000000024 0.8678000000000026,0.1930000000000014 0.8692000000000064,0.1927000000000021 0.8686000000000007,0.19000000000000128 "></polygon><polygon points="1.3961000000000041,0.1980000000000004 1.3947000000000003,0.19720000000000226 1.3957999999999942,0.1933000000000007 1.3936000000000064,0.1930000000000014 1.3922000000000025,0.19440000000000168 1.392799999999994,0.1980000000000004 1.3966999999999956,0.1994000000000007 1.3961000000000041,0.1980000000000004 "></polygon><polygon points="1.3410999999999973,0.19110000000000227 1.334699999999998,0.18470000000000297 1.3322000000000003,0.1855000000000011 1.3305000000000007,0.1819000000000024 1.3264000000000067,0.1819000000000024 1.3243999999999971,0.1802000000000028 1.3194000000000017,0.18130000000000024 1.3196999999999974,0.18410000000000082 1.3238999999999947,0.18909999999999982 1.3353000000000037,0.1902000000000008 1.3375000000000057,0.1919000000000004 1.3410999999999973,0.19110000000000227 "></polygon><polygon points="1.3774999999999977,0.2430000000000021 1.3828000000000031,0.2383000000000024 1.3889000000000067,0.23610000000000042 1.3910999999999945,0.2319000000000031 1.3889000000000067,0.2319000000000031 1.3863999999999947,0.23520000000000252 1.379099999999994,0.2383000000000024 1.3752999999999957,0.24380000000000024 1.3774999999999977,0.2430000000000021 "></polygon><polygon points="1.3619000000000057,0.20020000000000238 1.3629999999999995,0.19690000000000296 1.3628000000000071,0.19500000000000028 1.3605000000000018,0.19720000000000226 1.3602999999999952,0.20139999999999958 1.3619000000000057,0.20020000000000238 "></polygon><polygon points="1.3725000000000023,0.26580000000000226 1.3710999999999984,0.2622 1.3700000000000045,0.2616000000000014 1.3703000000000003,0.26640000000000086 1.372799999999998,0.2677000000000014 1.3725000000000023,0.26580000000000226 "></polygon><polygon points="1.351699999999994,0.3352000000000004 1.3529999999999944,0.3194000000000017 1.351699999999994,0.2939000000000007 1.3566000000000003,0.27080000000000126 1.3552999999999997,0.27020000000000266 1.3552999999999997,0.26580000000000226 1.3513999999999982,0.2652000000000001 1.3552999999999997,0.2638999999999996 1.3566000000000003,0.25940000000000296 1.3511000000000024,0.2525000000000013 1.346100000000007,0.2505000000000024 1.3393999999999977,0.2444000000000024 1.3353000000000037,0.2552000000000021 1.332800000000006,0.2555000000000014 1.3329999999999984,0.2586000000000013 1.3289000000000044,0.2666000000000004 1.3289000000000044,0.27080000000000126 1.3344000000000023,0.27970000000000184 1.3361000000000018,0.28829999999999956 1.332800000000006,0.2994000000000021 1.3338999999999999,0.3033000000000001 1.3322000000000003,0.30799999999999983 1.3319000000000045,0.31750000000000256 1.3385999999999996,0.32890000000000086 1.3425000000000011,0.3308 1.3418999999999954,0.33330000000000126 1.3449999999999989,0.33000000000000185 1.3465999999999951,0.33389999999999986 1.3503000000000043,0.33610000000000184 1.351699999999994,0.3352000000000004 "></polygon><polygon points="0.28300000000000125,0.3308 0.28360000000000696,0.32830000000000226 0.2817000000000007,0.32660000000000267 0.28000000000000114,0.3291000000000004 0.28190000000000737,0.33160000000000167 0.28300000000000125,0.3308 "></polygon><polygon points="0.9111000000000047,0.34270000000000067 0.910499999999999,0.3415999999999997 0.9077999999999946,0.34250000000000114 0.9089000000000027,0.3436000000000021 0.9111000000000047,0.34270000000000067 "></polygon><polygon points="0.9163999999999959,0.3550000000000004 0.919700000000006,0.35190000000000055 0.9168999999999983,0.35190000000000055 0.9141999999999939,0.35360000000000014 0.9150000000000063,0.3547000000000011 0.9090999999999951,0.35519999999999996 0.9163999999999959,0.3550000000000004 "></polygon><polygon points="0.8529999999999944,0.2825000000000024 0.846100000000007,0.28049999999999997 0.8447000000000031,0.2808000000000028 0.8455000000000013,0.2825000000000024 0.8516999999999939,0.28410000000000224 0.8529999999999944,0.2825000000000024 "></polygon><polygon points="0.8605000000000018,0.28440000000000154 0.8552999999999997,0.28270000000000195 0.8536000000000001,0.28300000000000125 0.8577999999999975,0.28550000000000253 0.8607999999999976,0.28580000000000183 0.8605000000000018,0.28440000000000154 "></polygon><polygon points="0.9483000000000033,0.3049999999999997 0.9372000000000043,0.3011000000000017 0.9257999999999953,0.28640000000000043 0.9144000000000005,0.27580000000000027 0.9141999999999939,0.27970000000000184 0.9161000000000001,0.28000000000000114 0.9200000000000017,0.28440000000000154 0.919700000000006,0.29110000000000014 0.9239000000000033,0.291400000000003 0.9257999999999953,0.2944000000000031 0.9294000000000011,0.2950000000000017 0.9389000000000038,0.3047000000000004 0.948599999999999,0.30630000000000024 0.9483000000000033,0.3049999999999997 "></polygon><polygon points="0.9025000000000034,0.3066000000000031 0.9010999999999996,0.3047000000000004 0.8988999999999976,0.3058000000000014 0.9013999999999953,0.3089000000000013 0.9025000000000034,0.3066000000000031 "></polygon><polygon points="0.919399999999996,0.33360000000000056 0.9183000000000021,0.3322000000000003 0.9150000000000063,0.33330000000000126 0.9180000000000064,0.3352000000000004 0.919399999999996,0.33360000000000056 "></polygon><polygon points="0.05670000000000641,0.5290999999999997 0.054199999999994475,0.5302000000000007 0.05110000000000525,0.5286000000000008 0.04529999999999745,0.5150000000000006 0.035799999999994725,0.46770000000000067 0.028300000000001546,0.46110000000000184 0.028599999999997294,0.45830000000000126 0.01640000000000441,0.4497 0.0,0.4441000000000024 0.0005000000000023874,0.45250000000000057 0.007800000000003138,0.46440000000000126 0.014200000000002433,0.48329999999999984 0.01470000000000482,0.5105000000000004 0.01860000000000639,0.5197000000000003 0.021100000000004115,0.5208000000000013 0.019700000000000273,0.5189000000000021 0.02030000000000598,0.5177000000000014 0.022800000000003706,0.520500000000002 0.020799999999994156,0.5225000000000009 0.028300000000001546,0.5225000000000009 0.033900000000002706,0.5252000000000017 0.037499999999994316,0.5311000000000021 0.041100000000000136,0.5321999999999996 0.048900000000003274,0.5305 0.059700000000006526,0.5325000000000024 0.05670000000000641,0.5290999999999997 "></polygon><polygon points="0.8963999999999999,0.44860000000000255 0.8974999999999937,0.4461000000000013 0.8924999999999983,0.4480000000000004 0.8936000000000064,0.4494000000000007 0.8963999999999999,0.44860000000000255 "></polygon><polygon points="0.680499999999995,0.47550000000000026 0.6830000000000069,0.4747000000000021 0.678600000000003,0.4726999999999997 0.6761000000000053,0.47690000000000055 0.6796999999999969,0.47690000000000055 0.680499999999995,0.47550000000000026 "></polygon><polygon points="0.8285999999999945,0.4908000000000001 0.8282999999999987,0.48470000000000013 0.8267000000000024,0.4819000000000031 0.8238999999999947,0.4811000000000014 0.821399999999997,0.48300000000000054 0.8179999999999978,0.4825000000000017 0.8179999999999978,0.48770000000000024 0.823599999999999,0.4883000000000024 0.8260999999999967,0.4916000000000018 0.8285999999999945,0.4908000000000001 "></polygon><polygon points="0.7010999999999967,0.47300000000000253 0.7072000000000003,0.47250000000000014 0.7079999999999984,0.46940000000000026 0.7108000000000061,0.47109999999999985 0.7125000000000057,0.4700000000000024 0.7104999999999961,0.46770000000000067 0.7072000000000003,0.46720000000000184 0.7055000000000007,0.47020000000000195 0.7022000000000048,0.4700000000000024 0.7015999999999991,0.47220000000000084 0.6983000000000033,0.47250000000000014 0.6978000000000009,0.47409999999999997 0.7002999999999986,0.4747000000000021 0.7010999999999967,0.47300000000000253 "></polygon><polygon points="0.9608000000000061,0.41469999999999985 0.9621999999999957,0.40000000000000213 0.9594000000000023,0.40050000000000097 0.9591999999999956,0.39860000000000184 0.9572000000000003,0.39830000000000254 0.955299999999994,0.40859999999999985 0.9539000000000044,0.40859999999999985 0.9535999999999945,0.41159999999999997 0.9517000000000024,0.41300000000000026 0.9518999999999949,0.41610000000000014 0.9591999999999956,0.4180000000000028 0.9591999999999956,0.41520000000000223 0.9608000000000061,0.41469999999999985 "></polygon><polygon points="0.9891000000000076,0.42520000000000024 0.9921999999999969,0.4261000000000017 0.9899999999999949,0.41769999999999996 0.9903000000000048,0.4101999999999997 0.9879999999999995,0.41329999999999956 0.9878000000000071,0.4175000000000004 0.9843999999999937,0.4180000000000028 0.9869000000000057,0.42660000000000053 0.9891000000000076,0.42520000000000024 "></polygon><polygon points="0.9886000000000053,0.4488000000000021 0.986699999999999,0.4438000000000031 0.9864000000000033,0.4383000000000017 0.9835999999999956,0.4366000000000021 0.980000000000004,0.438600000000001 0.9805000000000064,0.4419000000000004 0.9835999999999956,0.4433000000000007 0.9864000000000033,0.4497 0.9886000000000053,0.4505000000000017 0.9886000000000053,0.4488000000000021 "></polygon><polygon points="0.9839000000000055,0.44550000000000267 0.9825000000000017,0.4438000000000031 0.9810999999999979,0.4461000000000013 0.9842000000000013,0.44720000000000226 0.9839000000000055,0.44550000000000267 "></polygon><polygon points="0.9896999999999991,0.4064000000000014 0.9891000000000076,0.39720000000000155 0.9842000000000013,0.40190000000000126 0.9802999999999997,0.4014000000000024 0.9878000000000071,0.40470000000000184 0.9891000000000076,0.40940000000000154 0.9904999999999973,0.40910000000000224 0.9896999999999991,0.4064000000000014 "></polygon><polygon points="0.9855000000000018,0.3933 0.9825000000000017,0.39110000000000156 0.9805000000000064,0.39140000000000086 0.9849999999999994,0.39580000000000126 0.9855000000000018,0.3933 "></polygon><polygon points="0.9894000000000034,0.3927000000000014 0.9903000000000048,0.37890000000000157 0.9864000000000033,0.3686000000000007 0.9874999999999972,0.3550000000000004 0.9861000000000075,0.3476999999999997 0.988900000000001,0.34020000000000294 0.9899999999999949,0.3227000000000011 0.9839000000000055,0.3119000000000014 0.9814000000000078,0.3133000000000017 0.9749999999999943,0.3091000000000008 0.9697000000000031,0.3144000000000027 0.9665999999999997,0.3144000000000027 0.9569000000000045,0.30770000000000053 0.9458000000000055,0.3155000000000001 0.9450000000000074,0.3211000000000013 0.9399999999999977,0.3255000000000017 0.9368999999999943,0.3324999999999996 0.9375,0.33770000000000167 0.9399999999999977,0.33940000000000126 0.941599999999994,0.3433000000000028 0.9454999999999956,0.34469999999999956 0.9478000000000009,0.34830000000000183 0.9478000000000009,0.35219999999999985 0.9491000000000014,0.35219999999999985 0.9569000000000045,0.34520000000000195 0.9650000000000034,0.34550000000000125 0.971100000000007,0.34890000000000043 0.972999999999999,0.3389000000000024 0.9783000000000044,0.33580000000000254 0.9808000000000021,0.34110000000000085 0.9825000000000017,0.3616000000000028 0.9805000000000064,0.3633000000000024 0.9741000000000071,0.3636000000000017 0.9739000000000004,0.3674999999999997 0.9761000000000024,0.3694000000000024 0.9728000000000065,0.3714000000000013 0.9761000000000024,0.3744000000000014 0.9753000000000043,0.3780000000000001 0.9788999999999959,0.3791000000000011 0.979699999999994,0.38470000000000226 0.9861000000000075,0.3918999999999997 0.9874999999999972,0.39660000000000295 0.9894000000000034,0.3927000000000014 "></polygon><polygon points="0.9827999999999975,0.3979999999999997 0.9835999999999956,0.39580000000000126 0.9783000000000044,0.3949999999999996 0.9788999999999959,0.3977000000000004 0.9827999999999975,0.3979999999999997 "></polygon><polygon points="0.5632999999999981,0.6097000000000001 0.5664000000000016,0.6091000000000015 0.566900000000004,0.6047000000000011 0.5583000000000027,0.6082999999999998 0.5597000000000065,0.6105000000000018 0.5632999999999981,0.6097000000000001 "></polygon><polygon points="0.42440000000000566,0.7047000000000025 0.4236000000000075,0.703000000000003 0.42249999999999943,0.7061000000000028 0.4236000000000075,0.7064000000000021 0.42440000000000566,0.7047000000000025 "></polygon><polygon points="0.4013999999999953,0.7072000000000003 0.4000000000000057,0.7055000000000007 0.3988999999999976,0.7055000000000007 0.4000000000000057,0.7077000000000027 0.4013999999999953,0.7072000000000003 "></polygon><polygon points="0.4030000000000058,0.7111000000000018 0.41160000000000707,0.709100000000003 0.408299999999997,0.7027000000000001 0.3996999999999957,0.703000000000003 0.4040999999999997,0.7074999999999996 0.3996999999999957,0.7119 0.40160000000000196,0.7127000000000017 0.4030000000000058,0.7111000000000018 "></polygon><polygon points="0.4218999999999937,0.7116000000000007 0.4210999999999956,0.7104999999999997 0.41910000000000025,0.7122000000000028 0.42029999999999745,0.7127000000000017 0.4218999999999937,0.7116000000000007 "></polygon><polygon points="0.39050000000000296,0.7175000000000011 0.3954999999999984,0.7144000000000013 0.40030000000000143,0.7149999999999999 0.4008000000000038,0.7139000000000024 0.3966999999999956,0.7125000000000021 0.3924999999999983,0.714100000000002 0.3877999999999986,0.7122000000000028 0.3877999999999986,0.7175000000000011 0.39050000000000296,0.7175000000000011 "></polygon><polygon points="0.5733000000000033,0.7352000000000025 0.571700000000007,0.7347000000000001 0.5718999999999994,0.7383000000000024 0.5733000000000033,0.7377000000000002 0.5733000000000033,0.7352000000000025 "></polygon><polygon points="0.40860000000000696,0.7271999999999998 0.417199999999994,0.7263000000000019 0.42140000000000555,0.7210999999999999 0.42499999999999716,0.7196999999999996 0.42549999999999955,0.7165999999999997 0.4236000000000075,0.718 0.4218999999999937,0.7144000000000013 0.41610000000000014,0.7161000000000008 0.4124999999999943,0.7139000000000024 0.41160000000000707,0.7175000000000011 0.410499999999999,0.7161000000000008 0.4018999999999977,0.7186000000000021 0.3996999999999957,0.7175000000000011 0.3994,0.7200000000000024 0.40330000000000155,0.7233000000000018 0.40500000000000114,0.7271999999999998 0.40860000000000696,0.7271999999999998 "></polygon><polygon points="0.566599999999994,0.7305000000000028 0.566599999999994,0.7275000000000027 0.564700000000002,0.7269000000000005 0.5644000000000062,0.7319000000000031 0.566599999999994,0.7305000000000028 "></polygon><polygon points="0.43359999999999843,0.759400000000003 0.43300000000000693,0.7564000000000028 0.4300000000000068,0.7536000000000023 0.4291999999999945,0.7444000000000024 0.4347000000000065,0.7330000000000005 0.430499999999995,0.7311000000000014 0.43139999999999645,0.728900000000003 0.4274999999999949,0.7250000000000014 0.4230000000000018,0.7257999999999996 0.417500000000004,0.7294000000000018 0.4094000000000051,0.7271999999999998 0.4141999999999939,0.7352000000000025 0.41440000000000055,0.7444000000000024 0.4129999999999967,0.7454999999999998 0.4158000000000044,0.7552000000000021 0.4253000000000071,0.7576999999999998 0.43139999999999645,0.7613000000000021 0.43359999999999843,0.7611000000000026 0.43359999999999843,0.759400000000003 "></polygon><polygon points="0.5704999999999956,0.763300000000001 0.5738999999999947,0.7619000000000007 0.573599999999999,0.7536000000000023 0.5721999999999952,0.751100000000001 0.5678000000000054,0.7489000000000026 0.5661000000000058,0.7424999999999997 0.5632999999999981,0.7414000000000023 0.5627999999999957,0.7483000000000004 0.5641999999999996,0.7541000000000011 0.5671999999999997,0.7580000000000027 0.5661000000000058,0.763300000000001 0.5704999999999956,0.763300000000001 "></polygon><polygon points="0.3442000000000007,0.6524999999999999 0.34659999999999513,0.6508000000000003 0.34720000000000084,0.6483000000000025 0.34499999999999886,0.6458000000000013 0.3452999999999946,0.6416000000000004 0.3430000000000035,0.6397000000000013 0.3388999999999953,0.6402000000000001 0.334699999999998,0.6461000000000006 0.33910000000000196,0.6530000000000022 0.3442000000000007,0.6524999999999999 "></polygon><polygon points="0.3521999999999963,0.6547000000000018 0.3504999999999967,0.6519000000000013 0.3474999999999966,0.6510999999999996 0.3410999999999973,0.6564000000000014 0.3521999999999963,0.6571999999999996 0.3521999999999963,0.6547000000000018 "></polygon><polygon points="0.34140000000000725,0.6616 0.334699999999998,0.6552000000000007 0.3299999999999983,0.6550000000000011 0.3311000000000064,0.6605000000000025 0.3353000000000037,0.6611000000000011 0.3353000000000037,0.662700000000001 0.3422000000000054,0.6632999999999996 0.34140000000000725,0.6616 "></polygon><polygon points="0.6363999999999947,0.6939000000000028 0.6389000000000067,0.6900000000000013 0.636099999999999,0.6850000000000023 0.6303000000000054,0.6850000000000023 0.6303000000000054,0.6877000000000031 0.634200000000007,0.6921999999999997 0.633899999999997,0.6950000000000003 0.6363999999999947,0.6939000000000028 "></polygon><polygon points="0.611699999999999,0.6675000000000004 0.6141000000000076,0.6677 0.6141000000000076,0.6672000000000011 0.6119000000000057,0.6658000000000008 0.611699999999999,0.6675000000000004 "></polygon><polygon points="0.6296999999999997,0.6829999999999998 0.6296999999999997,0.6783000000000001 0.6255000000000024,0.6744000000000021 0.6242000000000019,0.6691000000000003 0.6222000000000065,0.6686000000000014 0.617999999999995,0.6766000000000005 0.6154999999999973,0.677500000000002 0.6154999999999973,0.6789000000000023 0.6171999999999969,0.6789000000000023 0.6166999999999945,0.6816000000000031 0.6213999999999942,0.6841000000000008 0.6296999999999997,0.6829999999999998 "></polygon><polygon points="0.3947000000000003,0.6855000000000011 0.39220000000000255,0.683600000000002 0.39799999999999613,0.683600000000002 0.39749999999999375,0.6822000000000017 0.40220000000000766,0.6744000000000021 0.40160000000000196,0.6716000000000015 0.39690000000000225,0.6711000000000027 0.395300000000006,0.6722000000000001 0.395300000000006,0.6750000000000007 0.39220000000000255,0.6758000000000024 0.39690000000000225,0.682500000000001 0.3936000000000064,0.6816000000000031 0.39329999999999643,0.6777000000000015 0.39170000000000016,0.677500000000002 0.39000000000000057,0.6839000000000013 0.39220000000000255,0.6864000000000026 0.3947000000000003,0.6855000000000011 "></polygon><polygon points="0.3944000000000045,0.7108000000000025 0.3983000000000061,0.701900000000002 0.4040999999999997,0.7002000000000024 0.3988999999999976,0.6933000000000007 0.3897000000000048,0.6894000000000027 0.3872000000000071,0.6860999999999997 0.3833000000000055,0.6855000000000011 0.37999999999999545,0.6829999999999998 0.37529999999999575,0.6844000000000001 0.37890000000000157,0.6816000000000031 0.377200000000002,0.6794000000000011 0.3786000000000058,0.6730000000000018 0.3774999999999977,0.6727000000000025 0.3774999999999977,0.6686000000000014 0.3743999999999943,0.6669000000000018 0.37300000000000466,0.6680000000000028 0.3644000000000034,0.6675000000000004 0.35890000000000555,0.6632999999999996 0.3575000000000017,0.6638000000000019 0.35890000000000555,0.6655000000000015 0.3580000000000041,0.6672000000000011 0.3552999999999997,0.6641000000000012 0.35080000000000666,0.6658000000000008 0.34720000000000084,0.6650000000000027 0.3482999999999947,0.6658000000000008 0.34659999999999513,0.6672000000000011 0.3474999999999966,0.6694000000000031 0.36469999999999914,0.6789000000000023 0.37940000000000396,0.6900000000000013 0.3850000000000051,0.6977000000000011 0.38530000000000086,0.7064000000000021 0.39170000000000016,0.7119 0.3944000000000045,0.7108000000000025 "></polygon><polygon points="0.49689999999999657,0.7844000000000015 0.5180000000000007,0.7788000000000004 0.5307999999999993,0.7788000000000004 0.5610999999999962,0.7689000000000021 0.5627999999999957,0.7699999999999996 0.5704999999999956,0.765500000000003 0.5700000000000074,0.7641000000000027 0.5608000000000004,0.7680000000000007 0.5657999999999959,0.7600000000000016 0.5655000000000001,0.7569000000000017 0.5630000000000024,0.7552000000000021 0.5625,0.7494000000000014 0.5627999999999957,0.7280000000000015 0.5703000000000031,0.6966000000000001 0.5747000000000071,0.6877000000000031 0.5858000000000061,0.6738999999999997 0.5942000000000007,0.6680000000000028 0.6008000000000067,0.6666000000000025 0.6025000000000063,0.6683000000000021 0.6093999999999937,0.6601999999999997 0.6085999999999956,0.657700000000002 0.6004999999999967,0.6552000000000007 0.605000000000004,0.6558000000000028 0.607200000000006,0.6544000000000025 0.6075000000000017,0.6571999999999996 0.6114000000000033,0.657700000000002 0.6122000000000014,0.6594000000000015 0.6102999999999952,0.6591000000000022 0.6082999999999998,0.6622000000000021 0.6099999999999994,0.6661000000000001 0.6105000000000018,0.6646999999999998 0.617999999999995,0.6641000000000012 0.6218999999999966,0.6619000000000028 0.6216000000000008,0.6569000000000003 0.617999999999995,0.6552000000000007 0.6178000000000026,0.6510999999999996 0.6154999999999973,0.6502000000000017 0.6175000000000068,0.6472000000000016 0.6208000000000027,0.6461000000000006 0.6208000000000027,0.6391000000000027 0.6175000000000068,0.6363000000000021 0.6041000000000025,0.6296999999999997 0.6011000000000024,0.6296999999999997 0.5994000000000028,0.6319000000000017 0.5969000000000051,0.6316000000000024 0.5897000000000077,0.6241000000000021 0.5789000000000044,0.6214000000000013 0.575800000000001,0.6186000000000007 0.5718999999999994,0.620000000000001 0.5678000000000054,0.6143999999999998 0.5661000000000058,0.6143999999999998 0.5678000000000054,0.6169000000000011 0.566900000000004,0.6174999999999997 0.5630000000000024,0.6166000000000018 0.5622000000000043,0.6130000000000031 0.5600000000000023,0.6130000000000031 0.5567000000000064,0.6141000000000005 0.555499999999995,0.6172000000000004 0.5511000000000053,0.6186000000000007 0.5374999999999943,0.6208000000000027 0.5305000000000035,0.6247000000000007 0.5213999999999999,0.6247000000000007 0.5213999999999999,0.6263000000000005 0.5238999999999976,0.6255000000000024 0.5244,0.627200000000002 0.5204999999999984,0.6319000000000017 0.5211000000000041,0.633300000000002 0.5229999999999961,0.6330000000000027 0.5244,0.6305000000000014 0.5289000000000073,0.6313000000000031 0.5302999999999969,0.628300000000003 0.5327999999999946,0.6275000000000013 0.535499999999999,0.6294000000000004 0.5383000000000067,0.6280000000000001 0.5413999999999959,0.628300000000003 0.542199999999994,0.6275000000000013 0.5450000000000017,0.6275000000000013 0.5467000000000013,0.628300000000003 0.5383000000000067,0.6286000000000023 0.5364000000000004,0.6313000000000031 0.5330000000000013,0.6305000000000014 0.5305000000000035,0.6325000000000003 0.526600000000002,0.6325000000000003 0.5204999999999984,0.6397000000000013 0.5122000000000071,0.6414000000000009 0.5127999999999986,0.6449999999999996 0.5189000000000021,0.6463999999999999 0.5197000000000003,0.6494 0.517799999999994,0.6475000000000009 0.5118999999999971,0.6475000000000009 0.5100000000000051,0.6452000000000027 0.5032999999999959,0.6500000000000021 0.5028000000000077,0.6522000000000006 0.502200000000002,0.6502000000000017 0.4963999999999942,0.6524999999999999 0.4925000000000068,0.6522000000000006 0.4855000000000018,0.6564000000000014 0.4843999999999937,0.6597000000000008 0.47750000000000625,0.6611000000000011 0.4754999999999967,0.666400000000003 0.47159999999999513,0.6697000000000024 0.4625000000000057,0.6727000000000025 0.45659999999999457,0.6722000000000001 0.4532999999999987,0.6736000000000004 0.4461000000000013,0.6719000000000008 0.4433000000000078,0.6697000000000024 0.439700000000002,0.6705000000000005 0.4403000000000077,0.676400000000001 0.43550000000000466,0.6768999999999998 0.4350000000000023,0.678600000000003 0.4375,0.6789000000000023 0.4421999999999997,0.6829999999999998 0.4502999999999986,0.6783000000000001 0.45420000000000016,0.6827000000000005 0.45529999999999404,0.6883000000000017 0.4591999999999956,0.6877000000000031 0.4625000000000057,0.690800000000003 0.46280000000000143,0.6930000000000014 0.4680000000000035,0.6936 0.4613999999999976,0.6961000000000013 0.45170000000000243,0.6927000000000021 0.4510999999999967,0.6950000000000003 0.45300000000000296,0.6950000000000003 0.4532999999999987,0.6986000000000026 0.4522000000000048,0.7000000000000028 0.446399999999997,0.7000000000000028 0.44780000000000086,0.7047000000000025 0.44530000000000314,0.7102000000000004 0.45050000000000523,0.7114000000000011 0.450800000000001,0.7147000000000006 0.45250000000000057,0.7161000000000008 0.45529999999999404,0.714100000000002 0.45359999999999445,0.7165999999999997 0.4549999999999983,0.7177000000000007 0.4522000000000048,0.7196999999999996 0.4497000000000071,0.7283000000000008 0.4461000000000013,0.7275000000000027 0.4391999999999996,0.7311000000000014 0.4385999999999939,0.7336000000000027 0.4399999999999977,0.7347000000000001 0.4380000000000024,0.7444000000000024 0.43609999999999616,0.7489000000000026 0.4341000000000008,0.7466000000000008 0.4321999999999946,0.7477000000000018 0.4328000000000003,0.7530000000000001 0.43550000000000466,0.7576999999999998 0.435299999999998,0.7616000000000014 0.44249999999999545,0.7668999999999997 0.4421999999999997,0.770500000000002 0.44549999999999557,0.7764000000000024 0.45250000000000057,0.7772000000000006 0.46170000000000755,0.782700000000002 0.48690000000000566,0.7821999999999996 0.49280000000000257,0.7851999999999997 0.49689999999999657,0.7844000000000015 "></polygon><polygon points="0.5782999999999987,0.764400000000002 0.5900000000000034,0.7539000000000016 0.5978000000000065,0.7527000000000008 0.6025000000000063,0.7444000000000024 0.6060999999999979,0.7427000000000028 0.606899999999996,0.7397000000000027 0.6107999999999976,0.7397000000000027 0.6107999999999976,0.7369000000000021 0.6089000000000055,0.7352000000000025 0.6025000000000063,0.7372000000000014 0.5996999999999986,0.7338000000000022 0.5996999999999986,0.7269000000000005 0.6019000000000005,0.7189000000000014 0.6099999999999994,0.6986000000000026 0.6166999999999945,0.6883000000000017 0.6107999999999976,0.6816000000000031 0.6089000000000055,0.6758000000000024 0.5947000000000031,0.6805000000000021 0.5897000000000077,0.6860999999999997 0.5905000000000058,0.6936 0.5925000000000011,0.6944000000000017 0.5915999999999997,0.696900000000003 0.5964000000000027,0.6964000000000006 0.5949999999999989,0.6994000000000007 0.5942000000000007,0.6977000000000011 0.5922000000000054,0.6994000000000007 0.5947000000000031,0.7025000000000006 0.5969000000000051,0.7025000000000006 0.5964000000000027,0.7058 0.5994000000000028,0.7102000000000004 0.5991000000000071,0.7183000000000028 0.597999999999999,0.7186000000000021 0.5986000000000047,0.7133000000000003 0.5947000000000031,0.706900000000001 0.5867000000000075,0.7050000000000018 0.582800000000006,0.7022000000000013 0.5794000000000068,0.7022000000000013 0.5782999999999987,0.7088999999999999 0.575800000000001,0.7097000000000016 0.5777999999999963,0.7144000000000013 0.5738999999999947,0.7205000000000013 0.5743999999999971,0.7283000000000008 0.5764000000000067,0.7291000000000025 0.5760999999999967,0.7311000000000014 0.578000000000003,0.7308000000000021 0.578000000000003,0.7341000000000015 0.5775000000000006,0.7408000000000001 0.5733000000000033,0.7419000000000011 0.5733000000000033,0.746100000000002 0.5752999999999986,0.7454999999999998 0.575800000000001,0.7494000000000014 0.578000000000003,0.7494000000000014 0.5785999999999945,0.7513000000000005 0.5747000000000071,0.751100000000001 0.5764000000000067,0.758300000000002 0.5721999999999952,0.7652000000000001 0.5782999999999987,0.764400000000002 "></polygon><polygon points="0.6457999999999942,0.6805000000000021 0.6454999999999984,0.6777000000000015 0.6492000000000075,0.6758000000000024 0.6496999999999957,0.6727000000000025 0.658299999999997,0.6638000000000019 0.6677999999999997,0.6589000000000027 0.6811000000000007,0.6544000000000025 0.7039000000000044,0.6558000000000028 0.7147000000000077,0.6597000000000008 0.7199999999999989,0.6597000000000008 0.7327999999999975,0.6571999999999996 0.7463999999999942,0.6514000000000024 0.7697000000000003,0.6502000000000017 0.772199999999998,0.6510999999999996 0.7728000000000037,0.6530000000000022 0.7805000000000035,0.6547000000000018 0.7819000000000074,0.6575000000000024 0.7807999999999993,0.6600000000000001 0.7822000000000031,0.6614000000000004 0.7847000000000008,0.6575000000000024 0.7957999999999998,0.6533000000000015 0.8007999999999953,0.6533000000000015 0.8024999999999949,0.6564000000000014 0.803600000000003,0.6550000000000011 0.8097000000000065,0.6561000000000021 0.8130000000000024,0.6494 0.8155000000000001,0.6491000000000007 0.8211000000000013,0.6422000000000025 0.8247000000000071,0.6418999999999997 0.8225000000000051,0.6380000000000017 0.8292000000000002,0.6147000000000027 0.8358000000000061,0.6019000000000005 0.8455000000000013,0.5933000000000028 0.8430000000000035,0.5789000000000009 0.8400000000000034,0.5766000000000027 0.8393999999999977,0.5732999999999997 0.8415999999999997,0.5732999999999997 0.8405000000000058,0.5680000000000014 0.8427999999999969,0.565800000000003 0.8425000000000011,0.559700000000003 0.8455000000000013,0.5589000000000013 0.8455000000000013,0.5533000000000001 0.8482999999999947,0.5511000000000017 0.847999999999999,0.5450000000000017 0.8444000000000074,0.5416000000000025 0.845799999999997,0.537700000000001 0.8402999999999992,0.5350000000000001 0.8260999999999967,0.5321999999999996 0.8247000000000071,0.5286000000000008 0.8108000000000004,0.5269000000000013 0.8078000000000003,0.5286000000000008 0.8019000000000034,0.5280000000000022 0.8003000000000071,0.5258000000000003 0.7960999999999956,0.5252000000000017 0.7955000000000041,0.5219000000000023 0.7935999999999979,0.520500000000002 0.7864000000000004,0.5222000000000016 0.7869000000000028,0.5250000000000021 0.783299999999997,0.5258000000000003 0.783600000000007,0.5288000000000004 0.781400000000005,0.5305 0.7822000000000031,0.5236000000000018 0.7775000000000034,0.5244 0.7719000000000023,0.5229999999999997 0.769999999999996,0.5241000000000007 0.763300000000001,0.5186000000000028 0.7618999999999971,0.520500000000002 0.7519000000000062,0.525500000000001 0.7485999999999962,0.525500000000001 0.7485999999999962,0.526600000000002 0.7569000000000017,0.5288000000000004 0.7605000000000075,0.5351999999999997 0.7647000000000048,0.5344000000000015 0.772199999999998,0.5375000000000014 0.7647000000000048,0.5375000000000014 0.7630000000000052,0.5358000000000018 0.7593999999999994,0.5396999999999998 0.7603000000000009,0.541400000000003 0.7579999999999956,0.5419000000000018 0.7553000000000054,0.537700000000001 0.754400000000004,0.5396999999999998 0.7502999999999957,0.5400000000000027 0.7480000000000047,0.5350000000000001 0.7419000000000011,0.5300000000000011 0.7413999999999987,0.5264000000000024 0.736699999999999,0.5252000000000017 0.7355000000000018,0.5272000000000006 0.7403000000000048,0.5300000000000011 0.7372000000000014,0.5396999999999998 0.7396999999999991,0.5441000000000003 0.7330000000000041,0.5416000000000025 0.7314000000000078,0.5472000000000001 0.7283000000000044,0.5477000000000025 0.7286000000000001,0.5500000000000007 0.7253000000000043,0.5522000000000027 0.7215999999999951,0.5505000000000031 0.718599999999995,0.5455000000000005 0.7147000000000077,0.5455000000000005 0.7147000000000077,0.5477000000000025 0.7113999999999976,0.5494000000000021 0.7111000000000018,0.5511000000000017 0.7152999999999992,0.5541000000000018 0.7099999999999937,0.5539000000000023 0.7086000000000041,0.5605000000000011 0.705299999999994,0.5640999999999998 0.6993999999999971,0.5539000000000023 0.6958000000000055,0.5533000000000001 0.6954999999999956,0.5547000000000004 0.691900000000004,0.5552000000000028 0.6907999999999959,0.5530000000000008 0.6872000000000043,0.5522000000000027 0.678600000000003,0.5558000000000014 0.6835999999999984,0.5633000000000017 0.6766000000000076,0.5583000000000027 0.6661000000000001,0.5602000000000018 0.665300000000002,0.5638000000000005 0.6677999999999997,0.5666000000000011 0.6680000000000064,0.5725000000000016 0.6714000000000055,0.5750000000000028 0.6707999999999998,0.571900000000003 0.6724999999999994,0.5700000000000003 0.6730000000000018,0.575800000000001 0.6783000000000072,0.5800000000000018 0.680499999999995,0.5847000000000016 0.6875,0.588000000000001 0.6894000000000062,0.5911000000000008 0.6794000000000011,0.5850000000000009 0.6744000000000057,0.5791000000000004 0.667500000000004,0.575800000000001 0.6646999999999963,0.5714000000000006 0.6646999999999963,0.565800000000003 0.656099999999995,0.5633000000000017 0.6503000000000014,0.5452000000000012 0.6486000000000018,0.5419000000000018 0.6439000000000021,0.5382999999999996 0.6419000000000068,0.5405000000000015 0.6439000000000021,0.5430000000000028 0.6400000000000006,0.5419000000000018 0.6385999999999967,0.5444000000000031 0.6407999999999987,0.5494000000000021 0.6400000000000006,0.5527000000000015 0.642799999999994,0.5558000000000014 0.636099999999999,0.5566000000000031 0.6321999999999974,0.5530000000000008 0.6296999999999997,0.5577000000000005 0.6235999999999962,0.5594000000000001 0.6154999999999973,0.5583000000000027 0.6066000000000003,0.5627000000000031 0.6052999999999997,0.5640999999999998 0.6060999999999979,0.5664000000000016 0.6097000000000037,0.5686 0.6149999999999949,0.5680000000000014 0.6186000000000007,0.5714000000000006 0.6111000000000075,0.5755000000000017 0.613900000000001,0.5805000000000007 0.6196999999999946,0.5805000000000007 0.6163999999999987,0.576900000000002 0.6193999999999988,0.575800000000001 0.618300000000005,0.5775000000000006 0.6200000000000045,0.5783000000000023 0.6200000000000045,0.5805000000000007 0.6282999999999959,0.5822000000000003 0.6230000000000047,0.5838999999999999 0.6149999999999949,0.581900000000001 0.616100000000003,0.5872000000000028 0.6129999999999995,0.5852000000000004 0.6111000000000075,0.5814000000000021 0.6089000000000055,0.5822000000000003 0.6119000000000057,0.5883000000000003 0.616100000000003,0.5915999999999997 0.6153000000000048,0.5950000000000024 0.6169000000000011,0.5976999999999997 0.6136000000000053,0.5955000000000013 0.6149999999999949,0.593 0.611699999999999,0.5905000000000022 0.6099999999999994,0.5858000000000025 0.6021999999999963,0.5847000000000016 0.6021999999999963,0.5864000000000011 0.6089000000000055,0.5913000000000004 0.6111000000000075,0.5969000000000015 0.6141000000000076,0.5991 0.613900000000001,0.6005000000000003 0.6066000000000003,0.5915999999999997 0.6041000000000025,0.5922000000000018 0.6041000000000025,0.5933636363636587 0.6038999999999959,0.5927000000000007 0.6004999999999967,0.5897000000000006 0.6033000000000044,0.590200000000003 0.6038999999999959,0.5919000000000025 0.6060999999999979,0.5899999999999999 0.5982999999999947,0.5869 0.5944000000000074,0.5899999999999999 0.5952999999999946,0.5925000000000011 0.5888999999999953,0.5889000000000024 0.5869,0.5894000000000013 0.5910999999999973,0.5946999999999996 0.596100000000007,0.5976999999999997 0.5969000000000051,0.6000000000000014 0.5955000000000013,0.5994000000000028 0.5947000000000031,0.6011000000000024 0.5871999999999957,0.5994000000000028 0.5829999999999984,0.594100000000001 0.5789000000000044,0.5960999999999999 0.5794000000000068,0.5980000000000025 0.5815999999999946,0.5986000000000011 0.5797000000000025,0.6005000000000003 0.5841999999999956,0.6033000000000008 0.5863999999999976,0.6086000000000027 0.5914000000000073,0.6127000000000002 0.5910999999999973,0.6133000000000024 0.5767000000000024,0.6016000000000012 0.5760999999999967,0.6030000000000015 0.5814000000000021,0.6088000000000022 0.5768999999999949,0.6064000000000007 0.575800000000001,0.6036000000000001 0.5743999999999971,0.6041000000000025 0.5752999999999986,0.6080000000000005 0.5811000000000064,0.6105000000000018 0.5858000000000061,0.6155000000000008 0.5767000000000024,0.6113999999999997 0.5730000000000075,0.6050000000000004 0.5694000000000017,0.6025000000000027 0.5683000000000078,0.6033000000000008 0.5688999999999993,0.6072000000000024 0.5741000000000014,0.6088000000000022 0.5750000000000028,0.6133000000000024 0.580299999999994,0.6158000000000001 0.5841999999999956,0.6216000000000008 0.5922000000000054,0.6230000000000011 0.5965999999999951,0.6300000000000026 0.5994000000000028,0.6311 0.6004999999999967,0.6291000000000011 0.6036000000000001,0.6289000000000016 0.6154999999999973,0.632200000000001 0.6205000000000069,0.6355000000000004 0.6242000000000019,0.6355000000000004 0.6260999999999939,0.638300000000001 0.6242000000000019,0.6414000000000009 0.6255000000000024,0.6439000000000021 0.6266999999999996,0.6416000000000004 0.6319000000000017,0.6402000000000001 0.6286000000000058,0.6430000000000007 0.629099999999994,0.6486000000000018 0.6319000000000017,0.645500000000002 0.6333000000000055,0.6489000000000011 0.6304999999999978,0.651600000000002 0.6319000000000017,0.6533000000000015 0.629400000000004,0.6636000000000024 0.6311000000000035,0.6702000000000012 0.6286000000000058,0.6707999999999998 0.6286000000000058,0.6738999999999997 0.6313999999999993,0.6755000000000031 0.6380000000000052,0.6741000000000028 0.6422000000000025,0.676400000000001 0.6430000000000007,0.6813000000000002 0.6457999999999942,0.6805000000000021 "></polygon><polygon points="0.6041000000000025,0.5933636363636587 0.6041998080614093,0.5936948176583421 0.6041000000000025,0.5936000000000021 0.6041000000000025,0.5933636363636587 "></polygon><polygon points="0.6041998080614093,0.5936948176583421 0.6060999999999979,0.5955000000000013 0.6064000000000078,0.5989000000000004 0.6092000000000013,0.6007999999999996 0.6060999999999979,0.6000000000000014 0.6041998080614093,0.5936948176583421 "></polygon><polygon points="0.8161000000000058,0.5222000000000016 0.8203000000000031,0.5225000000000009 0.8221999999999952,0.5208000000000013 0.819199999999995,0.5191000000000017 0.8144000000000062,0.5197000000000003 0.810299999999998,0.5175000000000018 0.8118999999999943,0.5197000000000003 0.8114000000000061,0.5227000000000004 0.8161000000000058,0.5222000000000016 "></polygon><polygon points="0.6417000000000002,0.5347000000000008 0.6380000000000052,0.532700000000002 0.6372000000000071,0.5283000000000015 0.6321999999999974,0.5333000000000006 0.6325000000000074,0.5347000000000008 0.6393999999999949,0.5351999999999997 0.6389000000000067,0.5369000000000028 0.640500000000003,0.5386000000000024 0.6419000000000068,0.537700000000001 0.6417000000000002,0.5347000000000008 "></polygon><polygon points="0.8693999999999988,0.5946999999999996 0.8722000000000065,0.5936000000000021 0.8747000000000043,0.5869 0.8747000000000043,0.5822000000000003 0.8829999999999956,0.5714000000000006 0.8833000000000055,0.5675000000000026 0.8769000000000062,0.5666000000000011 0.8764000000000038,0.5638000000000005 0.872799999999998,0.5638000000000005 0.8708000000000027,0.5680000000000014 0.8700000000000045,0.5650000000000013 0.8716000000000008,0.5625 0.8769000000000062,0.5619000000000014 0.8786000000000058,0.5591000000000008 0.8804999999999978,0.5640999999999998 0.8863999999999947,0.5677000000000021 0.8836000000000013,0.5701999999999998 0.8858000000000033,0.575800000000001 0.8892000000000024,0.5766000000000027 0.8897000000000048,0.5786000000000016 0.8944000000000045,0.5786000000000016 0.9010999999999996,0.584100000000003 0.9027999999999992,0.5797000000000025 0.9099999999999966,0.5716000000000001 0.9161000000000001,0.5700000000000003 0.930800000000005,0.5583000000000027 0.9525000000000006,0.5461000000000027 0.9633000000000038,0.5455000000000005 0.9643999999999977,0.5483000000000011 0.9629999999999939,0.5497000000000014 0.9647000000000077,0.5500000000000007 0.9672000000000054,0.5469000000000008 0.9775000000000063,0.5433000000000021 0.9847000000000037,0.5425000000000004 0.9904999999999973,0.5447000000000024 0.9899999999999949,0.5427 0.9913999999999987,0.5419000000000018 0.9992000000000019,0.5425000000000004 1.0028000000000077,0.5400000000000027 1.0071999999999974,0.5400000000000027 1.008899999999997,0.5411000000000001 1.0100000000000051,0.5466000000000015 1.0113999999999947,0.5469000000000008 1.0116000000000014,0.5416000000000025 1.022199999999998,0.5241000000000007 1.017799999999994,0.5152000000000001 1.0204999999999984,0.4905000000000008 1.0167000000000002,0.4750000000000014 1.009200000000007,0.47520000000000095 1.0046999999999997,0.46940000000000026 1.0024999999999977,0.47080000000000055 1.0014000000000038,0.4686000000000021 0.9980000000000047,0.4494000000000007 0.9989000000000061,0.44140000000000157 0.9966000000000008,0.4280000000000008 0.9913999999999987,0.4280000000000008 0.9879999999999995,0.4308000000000014 0.9857999999999976,0.4358000000000004 0.9886000000000053,0.4366000000000021 0.9874999999999972,0.4438000000000031 0.9894000000000034,0.44690000000000296 0.9894000000000034,0.45160000000000267 0.9921999999999969,0.44720000000000226 0.9936000000000007,0.4491000000000014 0.9958000000000027,0.4466000000000001 0.9925000000000068,0.4541000000000004 0.9891000000000076,0.45390000000000086 0.9921999999999969,0.4555000000000007 0.9919000000000011,0.46440000000000126 0.9842000000000013,0.45250000000000057 0.970799999999997,0.44250000000000256 0.9702999999999946,0.4319000000000024 0.9680000000000035,0.43130000000000024 0.9638999999999953,0.42130000000000223 0.9586000000000041,0.4183000000000021 0.9500000000000028,0.41769999999999996 0.9478000000000009,0.41610000000000014 0.9497000000000071,0.4122000000000021 0.9488999999999947,0.40859999999999985 0.946700000000007,0.41550000000000153 0.9343999999999966,0.41000000000000014 0.9321999999999946,0.4119000000000028 0.9325000000000045,0.4166000000000025 0.9291999999999945,0.4169000000000018 0.9283000000000072,0.4150000000000027 0.9227999999999952,0.41440000000000055 0.9119000000000028,0.41550000000000153 0.9144000000000005,0.41769999999999996 0.9138999999999982,0.42020000000000124 0.9067000000000007,0.4200000000000017 0.9035999999999973,0.42130000000000223 0.9069000000000074,0.4233000000000011 0.9039000000000073,0.4250000000000007 0.9039000000000073,0.42660000000000053 0.9090999999999951,0.426400000000001 0.9116000000000071,0.428600000000003 0.9000000000000057,0.42689999999999984 0.8992000000000075,0.4291000000000018 0.9004999999999939,0.4319000000000024 0.8986000000000018,0.4350000000000023 0.901600000000002,0.4360999999999997 0.9000000000000057,0.4372000000000007 0.8994,0.44140000000000157 0.9025000000000034,0.4451999999999998 0.9055000000000035,0.4444000000000017 0.9072000000000031,0.4464000000000006 0.9124999999999943,0.4450000000000003 0.9141999999999939,0.4466000000000001 0.9166000000000025,0.4461000000000013 0.9136000000000024,0.4491000000000014 0.919700000000006,0.45470000000000255 0.9200000000000017,0.45690000000000097 0.9168999999999983,0.4552000000000014 0.9166000000000025,0.45300000000000296 0.9121999999999986,0.45220000000000127 0.9107999999999947,0.45390000000000086 0.9133000000000067,0.45860000000000056 0.919700000000006,0.4616000000000007 0.9146999999999963,0.46080000000000254 0.9097000000000008,0.46470000000000056 0.9163999999999959,0.46910000000000096 0.9207999999999998,0.46969999999999956 0.930800000000005,0.46410000000000196 0.9253000000000071,0.47050000000000125 0.9163999999999959,0.47250000000000014 0.9111000000000047,0.47190000000000154 0.9116000000000071,0.47770000000000223 0.9189000000000078,0.4808000000000021 0.917500000000004,0.4814000000000007 0.9121999999999986,0.47830000000000084 0.9119000000000028,0.4805000000000028 0.9150000000000063,0.48329999999999984 0.908299999999997,0.4822000000000024 0.9030000000000058,0.4836000000000027 0.9025000000000034,0.485000000000003 0.9004999999999939,0.48380000000000223 0.894999999999996,0.4855000000000018 0.8902999999999963,0.4836000000000027 0.8868999999999971,0.48410000000000153 0.8892000000000024,0.4908000000000001 0.8866000000000014,0.4905000000000008 0.8853000000000009,0.4966000000000008 0.8828000000000031,0.497200000000003 0.8829999999999956,0.4994000000000014 0.8769000000000062,0.5039000000000016 0.8722000000000065,0.5113000000000021 0.8671999999999969,0.5100000000000016 0.866100000000003,0.5027000000000008 0.8582999999999998,0.4944000000000024 0.847999999999999,0.48910000000000053 0.8385999999999996,0.4869000000000021 0.8367000000000075,0.4930000000000021 0.832800000000006,0.4944000000000024 0.8322000000000003,0.4969000000000001 0.8292000000000002,0.4980000000000011 0.8332999999999942,0.5027000000000008 0.8294000000000068,0.5025000000000013 0.8238999999999947,0.5046999999999997 0.8267000000000024,0.5086000000000013 0.8353000000000037,0.5125000000000028 0.8388999999999953,0.5113000000000021 0.843599999999995,0.5141000000000027 0.8410999999999973,0.5166000000000004 0.845799999999997,0.5164000000000009 0.847999999999999,0.5177000000000014 0.8452999999999946,0.5180000000000007 0.8442000000000007,0.520500000000002 0.8379999999999939,0.5211000000000006 0.8379999999999939,0.5229999999999997 0.8414000000000073,0.5241000000000007 0.8410999999999973,0.526600000000002 0.8442000000000007,0.5264000000000024 0.8455000000000013,0.5244 0.8482999999999947,0.5252000000000017 0.846100000000007,0.5286000000000008 0.8469000000000051,0.5302000000000007 0.8499999999999943,0.5300000000000011 0.8533000000000044,0.5321999999999996 0.8599999999999994,0.5314000000000014 0.8629999999999995,0.5258000000000003 0.8644000000000034,0.5297000000000018 0.8658000000000072,0.5297000000000018 0.8619000000000057,0.5314000000000014 0.861699999999999,0.5335999999999999 0.8644000000000034,0.5344000000000015 0.8622000000000014,0.5347000000000008 0.8605000000000018,0.5380000000000003 0.861699999999999,0.5502000000000002 0.8592000000000013,0.5549999999999997 0.8619000000000057,0.5610999999999997 0.861699999999999,0.5638000000000005 0.8593999999999937,0.5640999999999998 0.8589000000000055,0.5689000000000028 0.8589000000000055,0.570800000000002 0.8605000000000018,0.5714000000000006 0.8541000000000025,0.5722000000000023 0.8529999999999944,0.5793999999999997 0.8575000000000017,0.5866000000000007 0.8669000000000011,0.5866000000000007 0.8693999999999988,0.5915999999999997 0.8671999999999969,0.595200000000002 0.8693999999999988,0.5946999999999996 "></polygon><polygon points="0.883899999999997,0.5838999999999999 0.8813999999999993,0.5824999999999996 0.8821999999999974,0.5844000000000023 0.8804999999999978,0.5864000000000011 0.8850000000000051,0.5872000000000028 0.883899999999997,0.5838999999999999 "></polygon><polygon points="0.22889999999999588,0.5661000000000023 0.22939999999999827,0.5650000000000013 0.22580000000000666,0.5664000000000016 0.2271999999999963,0.5669000000000004 0.22889999999999588,0.5661000000000023 "></polygon><polygon points="0.8455000000000013,0.575800000000001 0.8496999999999986,0.571900000000003 0.8521999999999963,0.571900000000003 0.8504999999999967,0.5614000000000026 0.8472000000000008,0.5630000000000024 0.8478000000000065,0.5650000000000013 0.8432999999999993,0.5701999999999998 0.8442000000000007,0.5732999999999997 0.8425000000000011,0.5736000000000026 0.8425000000000011,0.5755000000000017 0.843900000000005,0.5777000000000001 0.8455000000000013,0.575800000000001 "></polygon><polygon points="0.8511000000000024,0.5897000000000006 0.8538999999999959,0.588000000000001 0.8538999999999959,0.5858000000000025 0.8516999999999939,0.5822000000000003 0.8519000000000005,0.5791000000000004 0.8482999999999947,0.5766000000000027 0.845799999999997,0.5872000000000028 0.8472000000000008,0.5869 0.847999999999999,0.5905000000000022 0.8511000000000024,0.5897000000000006 "></polygon><polygon points="0.8541000000000025,0.5427 0.8555000000000064,0.5391000000000012 0.8521999999999963,0.5361000000000011 0.8496999999999986,0.5361000000000011 0.8489000000000004,0.5416000000000025 0.8525000000000063,0.5452000000000012 0.8541000000000025,0.5427 "></polygon><polygon points="0.23080000000000211,0.558600000000002 0.22969999999999402,0.5572000000000017 0.22530000000000427,0.5579999999999998 0.2271999999999963,0.5594000000000001 0.23080000000000211,0.558600000000002 "></polygon><polygon points="0.15080000000000382,0.6869000000000014 0.15690000000000737,0.683600000000002 0.16249999999999432,0.6780000000000008 0.16330000000000666,0.6736000000000004 0.16660000000000252,0.6700000000000017 0.18000000000000682,0.6632999999999996 0.19110000000000582,0.6530000000000022 0.20550000000000068,0.6325000000000003 0.21189999999999998,0.6265999999999998 0.21280000000000143,0.6235999999999997 0.2283000000000044,0.6125000000000007 0.23109999999999786,0.6125000000000007 0.2325000000000017,0.6141000000000005 0.24190000000000111,0.6097000000000001 0.25079999999999814,0.6080000000000005 0.25440000000000396,0.6113999999999997 0.25780000000000314,0.6113999999999997 0.2664000000000044,0.6061000000000014 0.27530000000000143,0.6061000000000014 0.2879999999999967,0.6130000000000031 0.29470000000000596,0.6197000000000017 0.30280000000000484,0.6197000000000017 0.3108000000000004,0.6227000000000018 0.31579999999999586,0.6294000000000004 0.31799999999999784,0.6357999999999997 0.32330000000000325,0.6414000000000009 0.32389999999999475,0.644400000000001 0.3305000000000007,0.6502000000000017 0.3322000000000003,0.6500000000000021 0.332800000000006,0.6449999999999996 0.33799999999999386,0.638300000000001 0.3410999999999973,0.6372 0.34250000000000114,0.638300000000001 0.34720000000000084,0.634400000000003 0.3504999999999967,0.6350000000000016 0.3541000000000025,0.6326999999999998 0.35139999999999816,0.6277000000000008 0.34910000000000707,0.6289000000000016 0.34080000000000155,0.6208000000000027 0.3371999999999957,0.620000000000001 0.3358000000000061,0.6214000000000013 0.33329999999999416,0.6188000000000002 0.325800000000001,0.6025000000000027 0.31440000000000623,0.5847000000000016 0.3044000000000011,0.581900000000001 0.30219999999999914,0.5789000000000009 0.299199999999999,0.5793999999999997 0.29640000000000555,0.5777000000000001 0.29300000000000637,0.5800000000000018 0.29410000000000025,0.5827000000000027 0.2908000000000044,0.5827000000000027 0.2896999999999963,0.5858000000000025 0.2805000000000035,0.584100000000003 0.28000000000000114,0.5864000000000011 0.272199999999998,0.5869 0.2657999999999987,0.5844000000000023 0.26139999999999475,0.5800000000000018 0.25329999999999586,0.581900000000001 0.24660000000000082,0.5761000000000003 0.2446999999999946,0.5761000000000003 0.24110000000000298,0.5866000000000007 0.2382999999999953,0.5885999999999996 0.23000000000000398,0.589100000000002 0.22580000000000666,0.5875000000000021 0.2214000000000027,0.5824999999999996 0.21970000000000312,0.5791000000000004 0.2214000000000027,0.5750000000000028 0.2172000000000054,0.5750000000000028 0.21750000000000114,0.5725000000000016 0.2202999999999946,0.5727000000000011 0.220799999999997,0.569700000000001 0.2160999999999973,0.5605000000000011 0.2143999999999977,0.5627000000000031 0.2108000000000061,0.5630000000000024 0.2032999999999987,0.5608000000000004 0.198599999999999,0.5616000000000021 0.19830000000000325,0.5652000000000008 0.19670000000000698,0.565800000000003 0.19580000000000553,0.5689000000000028 0.1891999999999996,0.5689000000000028 0.18890000000000384,0.5722000000000023 0.18670000000000186,0.5732999999999997 0.18250000000000455,0.5722000000000023 0.1747000000000014,0.5777000000000001 0.17329999999999757,0.5800000000000018 0.17549999999999955,0.5805000000000007 0.18139999999999645,0.5755000000000017 0.18250000000000455,0.5761000000000003 0.17660000000000764,0.5824999999999996 0.1717000000000013,0.5802000000000014 0.17029999999999745,0.5816000000000017 0.16910000000000025,0.5802000000000014 0.1629999999999967,0.5811000000000028 0.14610000000000412,0.5775000000000006 0.1325000000000074,0.5705000000000027 0.13280000000000314,0.5744000000000007 0.13049999999999784,0.5750000000000028 0.12999999999999545,0.5777000000000001 0.12720000000000198,0.5777000000000001 0.1266999999999996,0.5797000000000025 0.129099999999994,0.5797000000000025 0.13169999999999504,0.5827000000000027 0.13299999999999557,0.5791000000000004 0.1377999999999986,0.5877000000000017 0.136099999999999,0.588000000000001 0.13689999999999714,0.5911000000000008 0.1355000000000075,0.5927000000000007 0.1313999999999993,0.5869 0.13169999999999504,0.5925000000000011 0.13469999999999516,0.595200000000002 0.1355000000000075,0.5989000000000004 0.13299999999999557,0.5989000000000004 0.13420000000000698,0.6030000000000015 0.13190000000000168,0.6069000000000031 0.13169999999999504,0.6188000000000002 0.12829999999999586,0.6230000000000011 0.1377999999999986,0.6311 0.13890000000000668,0.6416000000000004 0.14279999999999404,0.6477000000000004 0.14279999999999404,0.6519000000000013 0.14860000000000184,0.6625000000000014 0.14799999999999613,0.6658000000000008 0.14969999999999573,0.6680000000000028 0.14920000000000755,0.6711000000000027 0.1466999999999956,0.6730000000000018 0.14579999999999416,0.6829999999999998 0.1466999999999956,0.6850000000000023 0.1488999999999976,0.6850000000000023 0.1488999999999976,0.6883000000000017 0.15080000000000382,0.6869000000000014 "></polygon>
    </svg>
    