
    <svg width="5.346400000000003" height="4.888499999999997" xmlns="http://www.w3.org/2000/svg" xmlns:xlink="http://www.w3.org/1999/xlink" style="transform: scale(1, -1)">
        <polygon points="2.5227000000000004,0.036899999999995714 2.522100000000002,0.034699999999993736 2.5180000000000007,0.03519999999999612 2.517400000000002,0.031399999999997874 2.5116000000000014,0.02939999999999543 2.508500000000005,0.02659999999999485 2.506300000000003,0.026899999999997704 2.506600000000006,0.02939999999999543 2.515500000000003,0.034099999999995134 2.5194000000000045,0.03829999999999956 2.5227000000000004,0.036899999999995714 "></polygon><polygon points="2.2757000000000005,0.04619999999999891 2.2680000000000007,0.049399999999998556 2.2680000000000007,0.05409999999999826 2.2706000000000017,0.05629999999999313 2.268800000000006,0.05909999999999371 2.2554000000000016,0.05789999999999651 2.2469000000000037,0.06109999999999616 2.2409000000000034,0.06139999999999901 2.237700000000004,0.06359999999999388 2.231200000000001,0.06199999999999761 2.2258000000000067,0.0630999999999986 2.2176000000000045,0.060499999999997556 2.223300000000002,0.0625 2.223400000000005,0.06629999999999825 2.2187000000000054,0.06649999999999778 2.2176000000000045,0.06799999999999784 2.2210000000000036,0.07109999999999417 2.2246000000000024,0.07139999999999702 2.226300000000002,0.06969999999999743 2.226000000000006,0.07299999999999329 2.2290000000000063,0.07099999999999795 2.2329000000000008,0.07219999999999516 2.2313000000000045,0.07389999999999475 2.2324000000000055,0.07549999999999812 2.236000000000004,0.07319999999999993 2.242600000000003,0.07489999999999952 2.241400000000006,0.07749999999999346 2.243000000000002,0.07799999999999585 2.2420000000000044,0.08019999999999783 2.243000000000002,0.08159999999999457 2.238900000000001,0.08099999999999596 2.240000000000002,0.08259999999999934 2.2379000000000033,0.08289999999999509 2.236700000000006,0.08539999999999992 2.242200000000004,0.08639999999999759 2.241900000000001,0.0899999999999963 2.2405000000000044,0.09119999999999351 2.238500000000002,0.09039999999999537 2.2363,0.09359999999999502 2.2251000000000047,0.10009999999999764 2.2227000000000032,0.09999999999999432 2.221900000000005,0.09649999999999892 2.2216000000000022,0.09999999999999432 2.2149,0.10119999999999862 2.212600000000002,0.09619999999999607 2.2088000000000036,0.09329999999999927 2.204900000000002,0.09409999999999741 2.2005000000000052,0.09769999999999612 2.194100000000006,0.09669999999999845 2.1933000000000007,0.0928999999999931 2.1969000000000065,0.09069999999999823 2.195700000000002,0.08959999999999724 2.1966000000000037,0.0788999999999973 2.193800000000003,0.07719999999999771 2.1872000000000043,0.07719999999999771 2.185200000000002,0.07409999999999428 2.1832000000000065,0.07389999999999475 2.184200000000004,0.06789999999999452 2.180500000000002,0.06749999999999545 2.1796000000000006,0.07019999999999982 2.171900000000001,0.07189999999999941 2.1704000000000008,0.07579999999999387 2.1680000000000064,0.07559999999999434 2.164900000000003,0.07159999999999656 2.1615000000000038,0.0747999999999962 2.1633000000000067,0.07699999999999818 2.162000000000006,0.07799999999999585 2.1610000000000014,0.07659999999999911 2.159400000000005,0.07909999999999684 2.1555000000000035,0.07689999999999486 2.156000000000006,0.07389999999999475 2.151300000000006,0.07409999999999428 2.150500000000001,0.07549999999999812 2.1526000000000067,0.0777000000000001 2.1499000000000024,0.07909999999999684 2.1474000000000046,0.07749999999999346 2.144300000000001,0.08079999999999643 2.1370000000000005,0.07949999999999591 2.133800000000001,0.07579999999999387 2.1319000000000017,0.0770999999999944 2.1299000000000063,0.07299999999999329 2.1319000000000017,0.07279999999999376 2.132400000000004,0.07049999999999557 2.1299000000000063,0.06999999999999318 2.1296000000000035,0.06799999999999784 2.1271000000000058,0.06829999999999359 2.1247000000000043,0.0694999999999979 2.1255000000000024,0.07279999999999376 2.1235,0.07609999999999673 2.115700000000004,0.0799999999999983 2.1152000000000015,0.08189999999999742 2.1077000000000012,0.08269999999999555 2.1088000000000022,0.08579999999999899 2.1060000000000016,0.08779999999999433 2.1074000000000055,0.09359999999999502 2.1055000000000064,0.09469999999999601 2.1052000000000035,0.09889999999999333 2.101600000000005,0.09969999999999857 2.100500000000004,0.10329999999999728 2.0952000000000055,0.10249999999999915 2.0918000000000063,0.10549999999999926 2.088800000000006,0.10609999999999786 2.0874000000000024,0.10469999999999402 2.088300000000004,0.10319999999999396 2.084300000000006,0.10439999999999827 2.086100000000002,0.10679999999999978 2.084700000000005,0.10799999999999699 2.0807,0.10659999999999314 2.078000000000003,0.10859999999999559 2.076600000000006,0.10719999999999885 2.072400000000002,0.10829999999999984 2.072400000000002,0.11049999999999471 2.064300000000003,0.11249999999999716 2.0646000000000058,0.11549999999999727 2.059100000000001,0.11749999999999972 2.059200000000004,0.1220999999999961 2.0549000000000035,0.12189999999999657 2.0519000000000034,0.12389999999999901 2.0500000000000043,0.12879999999999825 2.0257000000000005,0.13409999999999656 2.0224000000000046,0.13359999999999417 2.019900000000007,0.13579999999999615 2.0157000000000025,0.13579999999999615 2.014400000000002,0.13859999999999673 2.0116000000000014,0.1390999999999991 2.0091000000000037,0.14639999999999986 2.0139000000000067,0.147199999999998 2.017700000000005,0.15139999999999532 2.022100000000002,0.15159999999999485 2.027700000000003,0.157199999999996 2.0316000000000045,0.157199999999996 2.030600000000007,0.15919999999999845 2.032100000000007,0.15909999999999513 2.035500000000006,0.16389999999999816 2.0341000000000022,0.16610000000000014 2.050200000000004,0.1729999999999947 2.0530000000000044,0.17659999999999343 2.0771000000000015,0.1757999999999953 2.0774000000000044,0.17799999999999727 2.0852000000000004,0.1827999999999932 2.084300000000006,0.1905000000000001 2.0746000000000038,0.18859999999999388 2.0641000000000034,0.18859999999999388 2.047700000000006,0.19939999999999714 2.0352000000000032,0.20079999999999387 2.034400000000005,0.20249999999999346 2.027700000000003,0.20249999999999346 2.018500000000003,0.20659999999999457 2.004800000000003,0.21579999999999444 1.9847000000000037,0.2224999999999966 1.9783000000000044,0.22159999999999513 1.9607000000000028,0.22349999999999426 1.9374000000000038,0.2236999999999938 1.9115000000000038,0.220799999999997 1.8857,0.21409999999999485 1.881300000000003,0.2143999999999977 1.8582000000000036,0.22759999999999536 1.8396000000000043,0.23439999999999372 1.816600000000001,0.2464999999999975 1.7968000000000046,0.25389999999999446 1.764800000000001,0.26249999999999574 1.7423000000000002,0.26549999999999585 1.7091000000000065,0.27299999999999613 1.6214000000000013,0.2851999999999961 1.619100000000003,0.2860999999999976 1.6131000000000029,0.2938999999999936 1.6003000000000043,0.3001999999999967 1.5559000000000012,0.3137999999999934 1.5456000000000003,0.3183999999999969 1.5420000000000016,0.32269999999999754 1.5396,0.33269999999999555 1.5301000000000045,0.3463999999999956 1.4858000000000047,0.37639999999999674 1.4838000000000022,0.37999999999999545 1.448600000000006,0.4099999999999966 1.4274000000000058,0.4235999999999933 1.3966000000000065,0.4375 1.382400000000004,0.4457999999999984 1.3766000000000034,0.4510999999999967 1.3706000000000031,0.4665999999999997 1.3605000000000018,0.4771999999999963 1.3571000000000026,0.4865999999999957 1.350200000000001,0.49509999999999366 1.3307000000000002,0.5097999999999985 1.331000000000003,0.5112999999999985 1.3023000000000025,0.5252999999999943 1.2880000000000038,0.5251999999999981 1.2887000000000057,0.5271999999999935 1.2760000000000034,0.5276999999999958 1.2242000000000033,0.5363999999999933 1.1703000000000046,0.5384999999999991 1.1448000000000036,0.5368999999999957 1.115700000000004,0.5307999999999993 1.0925000000000011,0.5337999999999994 1.0905000000000058,0.5357999999999947 1.0885000000000034,0.535499999999999 1.088000000000001,0.5379999999999967 1.0896000000000043,0.5411000000000001 1.0849000000000046,0.5440999999999931 1.0513000000000048,0.546999999999997 1.0268000000000015,0.5418999999999983 1.0098000000000056,0.5341999999999985 1.0013000000000005,0.5326999999999984 0.9994000000000014,0.5307999999999993 0.9935000000000045,0.532199999999996 0.9979000000000013,0.5344999999999942 0.9952000000000041,0.5407999999999973 0.9835000000000065,0.5460999999999956 0.9737000000000009,0.5467999999999975 0.9601000000000042,0.5442999999999998 0.9383000000000052,0.5363999999999933 0.9171000000000049,0.5274999999999963 0.9096000000000046,0.5234999999999985 0.9080000000000013,0.519999999999996 0.902700000000003,0.5182999999999964 0.8999000000000024,0.5204999999999984 0.8971000000000018,0.5204999999999984 0.8938000000000059,0.5260999999999996 0.8899000000000044,0.5254999999999939 0.8895000000000053,0.5277999999999992 0.8849000000000018,0.5285999999999973 0.8843000000000032,0.5338999999999956 0.8727000000000018,0.5435999999999979 0.8599000000000032,0.5479999999999947 0.8424000000000049,0.5482999999999976 0.8230000000000004,0.5446999999999989 0.8019000000000034,0.535499999999999 0.7996000000000052,0.5364999999999966 0.7949000000000055,0.5340999999999951 0.7874000000000052,0.5342999999999947 0.7716000000000065,0.5249999999999986 0.7642000000000024,0.5274999999999963 0.7591000000000037,0.5268999999999977 0.7266000000000048,0.5154999999999959 0.7202000000000055,0.5113999999999947 0.7157000000000053,0.5107999999999961 0.7148000000000039,0.5120999999999967 0.7160000000000011,0.5138999999999996 0.7134,0.5168999999999997 0.7085000000000008,0.5174999999999983 0.7071000000000041,0.5152000000000001 0.7069000000000045,0.5174999999999983 0.704100000000004,0.5178999999999974 0.6855000000000047,0.5109999999999957 0.6811000000000007,0.5079999999999956 0.6807000000000016,0.505199999999995 0.6704000000000008,0.5043999999999969 0.6671000000000049,0.5015999999999963 0.6618000000000066,0.5013999999999967 0.6592000000000056,0.5063999999999993 0.6513000000000062,0.507399999999997 0.6415000000000006,0.5046999999999997 0.6343000000000032,0.5007999999999981 0.6244000000000014,0.5024999999999977 0.6191000000000031,0.5004999999999953 0.6180000000000021,0.49859999999999616 0.6118000000000023,0.49859999999999616 0.6099000000000032,0.5007999999999981 0.6030000000000015,0.5 0.6007000000000033,0.5010999999999939 0.5971000000000046,0.49749999999999517 0.5952000000000055,0.49799999999999756 0.5952000000000055,0.49969999999999715 0.5865000000000009,0.5006999999999948 0.5863000000000014,0.5060999999999964 0.5927000000000007,0.5053999999999945 0.5966000000000022,0.5127999999999986 0.5930000000000035,0.5204999999999984 0.5888000000000062,0.524799999999999 0.5782000000000025,0.5304999999999964 0.5557000000000016,0.5363999999999933 0.5452000000000012,0.5479999999999947 0.5478000000000023,0.5579999999999998 0.5460000000000065,0.566599999999994 0.5469000000000008,0.5762999999999963 0.5438000000000045,0.5879999999999939 0.5435000000000016,0.5954999999999941 0.5382000000000033,0.6051999999999964 0.5213000000000036,0.6271999999999949 0.5066000000000059,0.6379999999999981 0.5063000000000031,0.6410999999999945 0.4977000000000018,0.6485999999999947 0.4924000000000035,0.659399999999998 0.4832000000000036,0.6713999999999984 0.4760000000000062,0.6757999999999953 0.46630000000000393,0.686399999999999 0.4527000000000001,0.6968999999999994 0.4543000000000035,0.7004999999999981 0.44990000000000663,0.7021999999999977 0.4485000000000028,0.7043999999999997 0.4463000000000008,0.7035999999999945 0.44240000000000634,0.7121999999999957 0.43710000000000093,0.7149999999999963 0.43710000000000093,0.7168999999999954 0.431200000000004,0.7209999999999965 0.42130000000000223,0.7249999999999943 0.4071000000000069,0.7271999999999963 0.4066000000000045,0.732999999999997 0.4013000000000062,0.7374999999999972 0.392000000000003,0.7408000000000001 0.37940000000000396,0.7399999999999949 0.3774000000000015,0.7441999999999993 0.3755000000000024,0.7438999999999965 0.37460000000000093,0.7452999999999932 0.37460000000000093,0.7479999999999976 0.37820000000000675,0.7532999999999959 0.3757000000000019,0.758899999999997 0.37710000000000576,0.759999999999998 0.37170000000000414,0.7663999999999973 0.36300000000000665,0.7674999999999983 0.36990000000000123,0.7701999999999956 0.36600000000000676,0.7785999999999973 0.3657000000000039,0.7827999999999946 0.3616000000000028,0.7868999999999957 0.3457000000000008,0.7949999999999946 0.32319999999999993,0.8021999999999991 0.2891000000000048,0.8079999999999998 0.26550000000000296,0.8077999999999932 0.2530000000000001,0.810299999999998 0.23060000000000258,0.8086999999999946 0.22350000000000136,0.8207999999999984 0.21690000000000254,0.8237999999999985 0.2202000000000055,0.8274999999999935 0.21880000000000166,0.8315999999999946 0.22570000000000334,0.8421999999999983 0.2260000000000062,0.8507999999999996 0.2243000000000066,0.855799999999995 0.22050000000000125,0.8593999999999937 0.22050000000000125,0.8626999999999967 0.2219000000000051,0.8632999999999953 0.2196000000000069,0.8724999999999952 0.2202000000000055,0.8760999999999939 0.20410000000000394,0.9026999999999958 0.18440000000000367,0.9240999999999957 0.1763000000000048,0.9313999999999965 0.1693000000000069,0.9346999999999994 0.16740000000000066,0.9385999999999939 0.16490000000000293,0.9376999999999995 0.1641000000000048,0.9399999999999977 0.15520000000000067,0.9454999999999956 0.14850000000000563,0.9471999999999952 0.14939999999999998,0.9532999999999987 0.1466000000000065,0.9615999999999971 0.13940000000000197,0.9679999999999964 0.13990000000000435,0.9715999999999951 0.1349000000000018,0.9735999999999976 0.1338000000000008,0.9786000000000001 0.1302000000000021,0.9835999999999956 0.11850000000000449,0.9952999999999932 0.11600000000000676,0.9957999999999956 0.11129999999999995,1.0054999999999978 0.09850000000000136,1.008899999999997 0.08570000000000277,1.0157999999999987 0.08270000000000266,1.0154999999999959 0.08050000000000068,1.018899999999995 0.0777000000000001,1.0193999999999974 0.07850000000000534,1.0213999999999999 0.08050000000000068,1.0204999999999984 0.08020000000000493,1.0215999999999994 0.07740000000000435,1.0229999999999961 0.07440000000000424,1.0213999999999999 0.07050000000000267,1.0224999999999937 0.07020000000000692,1.0274999999999963 0.0613000000000028,1.0282999999999944 0.036100000000004684,1.0510999999999981 0.026000000000003354,1.056999999999995 0.021100000000004115,1.0647999999999982 0.020000000000003126,1.0730999999999966 0.021100000000004115,1.0808999999999997 0.01920000000000499,1.0876999999999981 0.014200000000002433,1.0897999999999968 0.015400000000006742,1.1012999999999948 0.02120000000000033,1.1004999999999967 0.02580000000000382,1.106499999999997 0.028700000000000614,1.1199999999999974 0.02020000000000266,1.1390999999999991 0.013800000000003365,1.140899999999995 0.0066000000000059345,1.1483999999999952 0.013500000000000512,1.1609999999999943 0.015200000000000102,1.1723 0.015200000000000102,1.1903999999999968 0.02360000000000184,1.2109999999999985 0.024900000000002365,1.2328999999999937 0.0,1.2953999999999937 0.025400000000004752,1.3258999999999972 0.018400000000006855,1.3780999999999963 0.0012000000000043087,1.4551999999999978 0.0069000000000016826,1.4786000000000001 0.006700000000002149,1.4832999999999998 0.017800000000001148,1.4983999999999966 0.010600000000003718,1.5283999999999978 0.014000000000002899,1.5415999999999954 0.017800000000001148,1.5540999999999983 0.030600000000006844,1.5647999999999982 0.02640000000000242,1.568399999999997 0.01850000000000307,1.5712999999999937 0.024900000000002365,1.5926999999999936 0.022800000000003706,1.619799999999998 0.05040000000000333,1.635399999999997 0.09660000000000224,1.6483999999999952 0.09660000000000224,1.707899999999995 0.08170000000000499,1.7554999999999978 0.09180000000000632,1.860999999999997 0.132000000000005,1.871699999999997 0.16490000000000293,1.8715999999999937 0.18370000000000175,1.8740999999999985 0.26250000000000284,1.8988999999999976 0.2711000000000041,1.9039999999999964 0.2984000000000009,1.9338999999999942 0.33160000000000167,1.9490999999999943 0.34320000000000306,1.957499999999996 0.35240000000000293,1.9667999999999992 0.35650000000000404,1.9761999999999986 0.3521000000000001,2.0050999999999988 0.3535000000000039,2.0167999999999964 0.3510000000000062,2.021099999999997 0.3433000000000064,2.0268999999999977 0.33550000000000324,2.0363999999999933 0.32910000000000394,2.0460999999999956 0.3243000000000009,2.059599999999996 0.3235000000000028,2.0752999999999986 0.32500000000000284,2.0956999999999937 0.3183000000000007,2.1133999999999986 0.31620000000000203,2.141299999999994 0.3213000000000008,2.1587999999999994 0.31740000000000634,2.171199999999999 0.30690000000000595,2.1902999999999935 0.30110000000000525,2.2197999999999993 0.2949000000000055,2.227799999999995 0.29120000000000346,2.2401999999999944 0.2902000000000058,2.247 0.2921000000000049,2.278099999999995 0.29580000000000695,2.296699999999994 0.2955000000000041,2.3055999999999983 0.28890000000000526,2.334299999999999 0.2909000000000006,2.3447999999999993 0.29000000000000625,2.3493999999999957 0.27960000000000207,2.382499999999993 0.28010000000000446,2.4054999999999964 0.2693000000000012,2.4268999999999963 0.25660000000000593,2.438699999999997 0.2529000000000039,2.444199999999995 0.25310000000000343,2.4605999999999995 0.24500000000000455,2.482199999999999 0.2441000000000031,2.4950999999999937 0.2360000000000042,2.5134999999999934 0.2366000000000028,2.520699999999998 0.24390000000000356,2.542199999999994 0.24580000000000268,2.562899999999999 0.2554000000000016,2.580699999999993 0.25610000000000355,2.596599999999995 0.2583000000000055,2.6017999999999972 0.2726000000000042,2.6163999999999987 0.2974000000000032,2.6244999999999976 0.3172000000000068,2.6357 0.33660000000000423,2.6655999999999977 0.34030000000000626,2.6755999999999958 0.34210000000000207,2.6880999999999986 0.3405000000000058,2.7187999999999946 0.33800000000000097,2.728199999999994 0.3342000000000027,2.7339999999999947 0.3160000000000025,2.750399999999999 0.29240000000000066,2.7789999999999964 0.26660000000000394,2.804299999999998 0.2569000000000017,2.8189999999999955 0.2586000000000013,2.831399999999995 0.2733000000000061,2.8857 0.27660000000000196,2.890099999999997 0.2873000000000019,2.897299999999994 0.29070000000000107,2.901599999999995 0.2978000000000023,2.917499999999997 0.30280000000000484,2.9495999999999967 0.3008000000000024,2.9635999999999996 0.3021000000000029,2.972999999999999 0.28940000000000055,2.992199999999997 0.2838000000000065,3.020099999999996 0.27410000000000423,3.0407999999999973 0.2699000000000069,3.046499999999998 0.2465000000000046,3.0634999999999977 0.23380000000000223,3.1051999999999964 0.24370000000000402,3.118999999999996 0.2528000000000006,3.1244999999999976 0.2961000000000027,3.1401999999999965 0.35490000000000066,3.1546999999999983 0.37300000000000466,3.1744999999999983 0.3897000000000048,3.202499999999997 0.4018000000000015,3.2163999999999966 0.4035000000000011,3.2220999999999975 0.4012000000000029,3.2377999999999965 0.4054000000000002,3.2571999999999974 0.4071000000000069,3.261599999999998 0.4277000000000015,3.289799999999996 0.43190000000000595,3.3051999999999957 0.43260000000000076,3.3143999999999956 0.43900000000000006,3.3286999999999978 0.44590000000000174,3.3531999999999975 0.45870000000000033,3.3830999999999953 0.46000000000000085,3.395599999999998 0.45250000000000057,3.412799999999997 0.43599999999999994,3.4316999999999958 0.4376000000000033,3.4388999999999967 0.43660000000000565,3.4449999999999967 0.4128000000000043,3.461299999999998 0.3757000000000019,3.475799999999996 0.3638000000000048,3.4836999999999954 0.36000000000000654,3.4891999999999967 0.3580000000000041,3.4963999999999977 0.35720000000000596,3.5065999999999953 0.3586000000000027,3.5174999999999983 0.3616000000000028,3.5223999999999975 0.3821000000000012,3.5394999999999968 0.40510000000000446,3.552099999999996 0.4228000000000023,3.559299999999997 0.4451000000000036,3.5738999999999983 0.4603000000000037,3.586299999999998 0.46240000000000236,3.592299999999998 0.46160000000000423,3.594299999999997 0.4532000000000025,3.6021999999999963 0.4492000000000047,3.6091999999999977 0.44470000000000454,3.610399999999995 0.4438000000000031,3.612999999999996 0.4586000000000041,3.638099999999998 0.45950000000000557,3.654899999999998 0.4832000000000036,3.676599999999997 0.5014000000000038,3.697899999999997 0.5115000000000052,3.722399999999997 0.528100000000002,3.7506999999999984 0.5327000000000055,3.7613999999999983 0.5335000000000036,3.769499999999997 0.5289000000000001,3.7955999999999968 0.5275000000000034,3.8226999999999975 0.5285000000000011,3.8378999999999976 0.5323000000000064,3.8554999999999957 0.5376000000000047,3.865199999999998 0.552500000000002,3.876299999999997 0.5614000000000061,3.885799999999996 0.5709000000000017,3.9100999999999964 0.5757000000000048,3.936199999999996 0.5743000000000009,3.9546999999999954 0.565100000000001,3.980799999999995 0.5593000000000004,3.9896999999999956 0.5529000000000011,3.996799999999997 0.5453000000000046,4.002099999999995 0.5375000000000014,4.011699999999998 0.5335000000000036,4.020799999999998 0.5335000000000036,4.028799999999997 0.5395000000000039,4.041899999999998 0.5520000000000067,4.050499999999996 0.5664000000000016,4.053199999999997 0.6179000000000059,4.048499999999997 0.6251000000000033,4.051899999999996 0.6310000000000002,4.060699999999997 0.6334000000000017,4.071499999999997 0.6348000000000056,4.090499999999995 0.6366000000000014,4.137499999999996 0.6386000000000038,4.155199999999997 0.6393000000000058,4.195599999999995 0.6325000000000003,4.2194999999999965 0.6302000000000021,4.238299999999995 0.6368000000000009,4.2647999999999975 0.6313000000000031,4.279599999999995 0.6242000000000019,4.291899999999998 0.6096000000000004,4.3028999999999975 0.6070000000000064,4.307299999999998 0.5996000000000024,4.344699999999996 0.5935000000000059,4.361399999999996 0.5810000000000031,4.371799999999997 0.5625,4.381599999999995 0.5554000000000059,4.388199999999998 0.553600000000003,4.392099999999996 0.5521000000000029,4.3997999999999955 0.5552000000000064,4.413399999999996 0.5541000000000054,4.428199999999997 0.5479000000000056,4.453499999999998 0.5492000000000061,4.463699999999996 0.5550000000000068,4.472999999999995 0.5814000000000021,4.496999999999996 0.6418000000000035,4.523499999999995 0.6487000000000052,4.528199999999998 0.6680000000000064,4.550399999999996 0.7339000000000055,4.581099999999996 0.7717000000000027,4.606899999999996 0.7928000000000068,4.6249999999999964 0.8037000000000063,4.641999999999996 0.8122000000000043,4.685199999999998 0.8224000000000018,4.710499999999996 0.8250000000000028,4.721499999999995 0.820600000000006,4.732299999999995 0.7992000000000061,4.756999999999998 0.7922000000000011,4.769399999999997 0.791400000000003,4.775099999999998 0.7932000000000059,4.779199999999996 0.8038000000000025,4.785199999999996 0.8135000000000048,4.7869999999999955 0.8334000000000046,4.783899999999996 0.8740000000000023,4.766399999999997 0.8797000000000068,4.762699999999995 0.8847000000000023,4.7503999999999955 0.8850000000000051,4.744099999999996 0.8730000000000047,4.722299999999997 0.8741000000000057,4.714999999999996 0.8856000000000037,4.708899999999996 0.890900000000002,4.700299999999995 0.9163000000000068,4.688299999999998 0.9283000000000001,4.688799999999997 0.9399000000000015,4.684799999999996 0.943000000000005,4.686599999999995 0.9459000000000017,4.695899999999998 0.952300000000001,4.706099999999996 0.9757000000000033,4.707899999999995 0.9801000000000002,4.706099999999996 0.9841000000000051,4.700499999999998 0.9890000000000043,4.697899999999997 1.0103000000000009,4.699199999999998 1.0243000000000038,4.695699999999995 1.0258000000000038,4.6924999999999955 1.021400000000007,4.6889999999999965 1.0189000000000021,4.683099999999996 1.0187000000000026,4.674699999999998 1.020300000000006,4.671899999999997 1.031400000000005,4.673699999999997 1.0375000000000014,4.672899999999995 1.042900000000003,4.669499999999996 1.0483000000000047,4.669299999999996 1.051000000000002,4.671199999999995 1.051400000000001,4.678099999999997 1.0608000000000004,4.693299999999997 1.0679000000000016,4.699099999999998 1.075400000000002,4.7026999999999965 1.081700000000005,4.7011999999999965 1.0827000000000027,4.691799999999997 1.087600000000002,4.6889999999999965 1.0989000000000004,4.696699999999996 1.1196000000000055,4.702999999999996 1.1217000000000041,4.705799999999996 1.1236000000000033,4.7137999999999955 1.1271000000000058,4.716199999999997 1.1304000000000016,4.714999999999996 1.1349000000000018,4.709999999999997 1.1456000000000017,4.689999999999998 1.1566000000000045,4.679999999999996 1.1616,4.680599999999998 1.165700000000001,4.686499999999995 1.1706000000000003,4.688799999999997 1.1720000000000041,4.690799999999996 1.1706000000000003,4.6950999999999965 1.1722000000000037,4.7022999999999975 1.180800000000005,4.706799999999998 1.1826000000000008,4.706699999999998 1.1879000000000062,4.700199999999995 1.1855000000000047,4.692399999999996 1.1911000000000058,4.684699999999996 1.2198000000000064,4.684699999999996 1.2262000000000057,4.685999999999996 1.2309000000000054,4.6889999999999965 1.2376000000000005,4.689099999999996 1.2445000000000022,4.709099999999996 1.263300000000001,4.722399999999997 1.2723000000000013,4.724599999999995 1.2736000000000018,4.726399999999998 1.2719000000000023,4.729399999999998 1.2727000000000004,4.7316999999999965 1.279600000000002,4.7320999999999955 1.2853000000000065,4.739499999999996 1.2853000000000065,4.741499999999995 1.277000000000001,4.746899999999997 1.275100000000002,4.7503999999999955 1.2782000000000053,4.755099999999995 1.2729,4.7564999999999955 1.2764000000000024,4.760899999999996 1.2724000000000046,4.765499999999996 1.2738000000000014,4.768799999999995 1.2726000000000042,4.7758999999999965 1.2813000000000017,4.780799999999996 1.2820000000000036,4.788699999999995 1.2954000000000008,4.800999999999998 1.2964000000000055,4.807799999999997 1.305500000000002,4.816099999999995 1.311,4.832599999999996 1.317700000000002,4.833099999999998 1.3207000000000022,4.829199999999997 1.3240000000000052,4.828499999999998 1.3294000000000068,4.8311999999999955 1.334700000000005,4.838699999999996 1.3335000000000008,4.841199999999997 1.3360000000000056,4.848299999999998 1.3329000000000022,4.848799999999997 1.3304000000000045,4.845299999999998 1.3264000000000067,4.8470999999999975 1.3241000000000014,4.853599999999997 1.3245000000000005,4.859999999999996 1.3325000000000031,4.857499999999998 1.3348000000000013,4.858999999999998 1.3448000000000064,4.859499999999997 1.3452000000000055,4.8531999999999975 1.3499000000000052,4.852899999999998 1.3560000000000016,4.860099999999996 1.355000000000004,4.863299999999995 1.3510000000000062,4.860699999999998 1.3485000000000014,4.861899999999995 1.3490000000000038,4.864499999999996 1.3534000000000006,4.868099999999998 1.3538000000000068,4.873399999999997 1.3585000000000065,4.879399999999997 1.3669000000000011,4.883999999999997 1.3701000000000008,4.887699999999995 1.3748000000000005,4.888499999999997 1.3795000000000002,4.885299999999997 1.3734000000000037,4.882499999999997 1.3714000000000013,4.875299999999996 1.3729000000000013,4.872899999999998 1.3834000000000017,4.8753999999999955 1.3895000000000053,4.873199999999997 1.3952000000000027,4.868499999999997 1.409000000000006,4.871599999999997 1.4115000000000038,4.880699999999997 1.4174000000000007,4.886499999999998 1.4363000000000028,4.886299999999995 1.4465000000000003,4.888099999999998 1.456700000000005,4.8860999999999954 1.4643000000000015,4.876399999999997 1.4726,4.876299999999997 1.4842000000000013,4.873099999999997 1.4969000000000037,4.875599999999995 1.5076000000000036,4.879899999999996 1.5239000000000047,4.877299999999998 1.5295000000000059,4.872299999999996 1.525100000000002,4.863699999999998 1.527700000000003,4.862999999999996 1.531000000000006,4.866099999999996 1.5348000000000042,4.866499999999995 1.5357000000000056,4.864599999999996 1.534000000000006,4.862199999999998 1.5356000000000023,4.860499999999998 1.5464000000000055,4.869999999999997 1.5533000000000001,4.885799999999996 1.5606000000000009,4.885399999999997 1.5660000000000025,4.887699999999995 1.5674000000000063,4.885699999999996 1.5668000000000006,4.881799999999998 1.568800000000003,4.880099999999995 1.5760000000000005,4.883799999999997 1.5901000000000067,4.884999999999998 1.6159000000000034,4.878399999999996 1.6192000000000064,4.874699999999997 1.6218000000000004,4.867999999999995 1.6243000000000052,4.866699999999998 1.627600000000001,4.866799999999998 1.6311000000000035,4.870799999999996 1.6336000000000013,4.870099999999997 1.6364000000000019,4.867499999999996 1.640500000000003,4.852199999999996 1.6609000000000052,4.846499999999995 1.662700000000001,4.840199999999996 1.659400000000005,4.828999999999997 1.6559000000000026,4.822999999999997 1.6585000000000036,4.815299999999997 1.6631,4.811099999999996 1.6680000000000064,4.809499999999996 1.6774000000000058,4.812999999999995 1.6817000000000064,4.812999999999995 1.703800000000001,4.803399999999996 1.7112000000000052,4.802099999999996 1.7218000000000018,4.793999999999997 1.729300000000002,4.797899999999995 1.7353000000000023,4.797599999999996 1.7360000000000042,4.794799999999995 1.732600000000005,4.785399999999996 1.7403000000000048,4.776399999999995 1.7432000000000016,4.769099999999998 1.7589000000000041,4.779599999999995 1.7619000000000042,4.773799999999998 1.7787000000000006,4.7762999999999955 1.7887000000000057,4.766799999999996 1.7908000000000044,4.766799999999996 1.794300000000007,4.770499999999998 1.7954000000000008,4.7662999999999975 1.7917000000000058,4.762399999999996 1.7832000000000008,4.760899999999996 1.7726000000000042,4.755599999999998 1.7762000000000029,4.752199999999995 1.788800000000002,4.754399999999997 1.791000000000004,4.753499999999995 1.795800000000007,4.749299999999998 1.7989000000000033,4.740199999999998 1.816200000000002,4.727799999999995 1.8156000000000034,4.724199999999996 1.8097000000000065,4.719099999999997 1.8005000000000067,4.718899999999998 1.801000000000002,4.715499999999995 1.8114000000000061,4.707999999999998 1.8160000000000025,4.707999999999998 1.8257000000000048,4.712799999999998 1.8300000000000054,4.708299999999998 1.8338000000000036,4.691399999999998 1.829500000000003,4.685899999999997 1.8197000000000045,4.680199999999996 1.8219000000000065,4.673499999999997 1.8250000000000028,4.672599999999996 1.8282000000000025,4.674299999999995 1.8349000000000046,4.681499999999996 1.8431000000000068,4.678899999999995 1.8556000000000026,4.684299999999997 1.8642000000000039,4.685199999999998 1.8664000000000058,4.682199999999998 1.8647000000000062,4.670999999999996 1.877600000000001,4.662799999999997 1.884200000000007,4.654499999999995 1.886100000000006,4.654299999999996 1.8945000000000007,4.662799999999997 1.8995000000000033,4.661099999999998 1.9003000000000014,4.647699999999997 1.9036000000000044,4.642799999999998 1.9037000000000006,4.639599999999998 1.8897000000000048,4.632299999999997 1.8911000000000016,4.627099999999995 1.896400000000007,4.621399999999998 1.8959000000000046,4.617499999999996 1.893500000000003,4.614499999999996 1.897200000000005,4.612699999999997 1.9043000000000063,4.614799999999995 1.9117000000000033,4.613699999999998 1.918600000000005,4.615199999999998 1.9219000000000008,4.613799999999998 1.9268,4.608099999999997 1.936,4.602799999999995 1.9336000000000055,4.592399999999998 1.9444000000000017,4.587099999999996 1.9490000000000052,4.576599999999996 1.9507000000000048,4.575599999999998 1.9569000000000045,4.575299999999995 1.9601000000000042,4.581499999999998 1.9638000000000062,4.584699999999998 1.9736000000000047,4.588699999999996 1.979300000000002,4.589099999999998 1.9845000000000041,4.583299999999998 1.9864000000000033,4.5726999999999975 1.9962000000000018,4.561299999999996 1.995900000000006,4.558399999999995 1.9882000000000062,4.554199999999998 1.9872000000000014,4.5513999999999974 1.994800000000005,4.548499999999997 2.0012000000000043,4.541899999999998 2.0120000000000005,4.539299999999997 2.014400000000002,4.539299999999997 2.0172000000000025,4.542799999999996 2.020400000000002,4.541499999999996 2.0245000000000033,4.5430999999999955 2.0271000000000043,4.534499999999998 2.0320000000000036,4.528299999999998 2.0354000000000028,4.526499999999995 2.0412000000000035,4.5269999999999975 2.0435000000000016,4.524499999999996 2.0413000000000068,4.522499999999997 2.041400000000003,4.517999999999997 2.0393000000000043,4.513599999999997 2.0341000000000022,4.514299999999995 2.0346000000000046,4.504699999999996 2.039100000000005,4.499699999999997 2.0426,4.5025999999999975 2.0449000000000055,4.501999999999995 2.043700000000001,4.495099999999997 2.0453000000000046,4.489099999999997 2.054700000000004,4.486899999999995 2.0531000000000006,4.483799999999995 2.0561000000000007,4.483299999999996 2.0567000000000064,4.481099999999998 2.0516000000000005,4.480699999999995 2.0568000000000026,4.477799999999995 2.058800000000005,4.474399999999996 2.0635000000000048,4.472199999999997 2.0653000000000006,4.473599999999998 2.074000000000005,4.471199999999996 2.080900000000007,4.474199999999996 2.0807,4.477799999999995 2.078700000000005,4.4781999999999975 2.0774000000000044,4.4759999999999955 2.0757000000000048,4.477599999999995 2.076100000000004,4.481899999999996 2.084700000000005,4.4827999999999975 2.0912000000000006,4.476999999999997 2.0903000000000063,4.474599999999995 2.091600000000007,4.470299999999998 2.105800000000002,4.4622999999999955 2.107200000000006,4.457399999999996 2.103500000000004,4.454899999999995 2.104600000000005,4.450399999999998 2.1086000000000027,4.449899999999996 2.1122000000000014,4.444499999999998 2.116100000000003,4.445599999999995 2.118400000000001,4.442699999999995 2.124900000000004,4.444499999999998 2.129000000000005,4.443099999999998 2.1341000000000037,4.443899999999996 2.1407000000000025,4.448799999999995 2.144600000000004,4.448499999999996 2.148700000000005,4.454299999999996 2.154200000000003,4.446099999999998 2.151200000000003,4.444599999999998 2.152700000000003,4.432999999999996 2.162300000000002,4.4206999999999965 2.159000000000006,4.413799999999998 2.165200000000006,4.4134999999999955 2.1753,4.4195999999999955 2.1829000000000036,4.4119999999999955 2.1845,4.406899999999997 2.180100000000003,4.404499999999995 2.178900000000006,4.401699999999998 2.180800000000005,4.393899999999995 2.1785000000000068,4.391399999999997 2.1796000000000006,4.388899999999996 2.1854000000000013,4.386399999999998 2.1903000000000006,4.395699999999998 2.194500000000005,4.399299999999997 2.1991000000000014,4.400599999999997 2.204900000000002,4.399899999999995 2.211200000000005,4.3958999999999975 2.214800000000004,4.395699999999998 2.216700000000003,4.3897999999999975 2.214400000000005,4.387399999999996 2.2058000000000035,4.3860999999999954 2.2065000000000055,4.380199999999995 2.2164,4.376999999999995 2.2214000000000027,4.366499999999995 2.225200000000001,4.3653999999999975 2.2453000000000003,4.370099999999997 2.2523000000000053,4.369399999999995 2.262600000000006,4.361599999999996 2.269900000000007,4.358799999999995 2.268500000000003,4.354299999999995 2.2622,4.352499999999996 2.2580000000000027,4.348799999999997 2.260400000000004,4.343599999999995 2.2594000000000065,4.342499999999998 2.2671000000000063,4.3394999999999975 2.2760000000000034,4.3311999999999955 2.271000000000001,4.320899999999998 2.2716000000000065,4.316099999999995 2.2761000000000067,4.307499999999997 2.2889000000000053,4.293699999999998 2.295100000000005,4.292999999999996 2.297000000000004,4.294699999999995 2.302900000000001,4.2906999999999975 2.3023000000000025,4.286199999999997 2.290600000000005,4.280099999999997 2.2915000000000063,4.272199999999998 2.2901000000000025,4.269199999999998 2.302900000000001,4.263599999999997 2.3042000000000016,4.264499999999998 2.3056000000000054,4.261799999999997 2.3089000000000013,4.2601999999999975 2.3126000000000033,4.253399999999996 2.3098000000000027,4.250299999999996 2.308400000000006,4.241999999999997 2.3155,4.235299999999995 2.322100000000006,4.237099999999998 2.3226000000000013,4.240599999999997 2.333900000000007,4.242299999999997 2.3384,4.233399999999996 2.3382000000000005,4.229799999999997 2.3437000000000054,4.226099999999995 2.3444000000000003,4.221099999999996 2.352000000000004,4.216799999999996 2.3666000000000054,4.228999999999996 2.3723000000000027,4.227199999999996 2.3759000000000015,4.223199999999995 2.3744000000000014,4.215699999999998 2.3766000000000034,4.213299999999997 2.3741000000000057,4.210299999999997 2.3788000000000054,4.199399999999997 2.384300000000003,4.200899999999997 2.3903000000000034,4.197799999999997 2.392400000000002,4.197999999999997 2.3940000000000055,4.200399999999998 2.4018000000000015,4.199099999999998 2.4036000000000044,4.197499999999998 2.4022000000000006,4.195599999999995 2.405300000000004,4.190399999999997 2.418200000000006,4.188399999999998 2.4196000000000026,4.1828999999999965 2.416000000000004,4.179299999999998 2.4162000000000035,4.175199999999997 2.4250000000000043,4.171499999999998 2.427900000000001,4.167299999999997 2.424100000000003,4.162299999999998 2.4238,4.156199999999998 2.4318000000000026,4.153899999999997 2.436300000000003,4.144199999999998 2.4350000000000023,4.140399999999996 2.4359000000000037,4.134599999999995 2.4462000000000046,4.128799999999998 2.4487000000000023,4.125899999999998 2.4510000000000005,4.115499999999997 2.447800000000001,4.107199999999995 2.4424000000000063,4.099699999999995 2.4398000000000053,4.091199999999997 2.4324000000000012,4.079699999999995 2.4324000000000012,4.068099999999998 2.429400000000001,4.061999999999998 2.434600000000003,4.054799999999997 2.4351000000000056,4.051599999999997 2.4303000000000026,4.046699999999998 2.430100000000003,4.036099999999998 2.4254000000000033,4.031199999999998 2.4253,4.029099999999996 2.4311000000000007,4.026699999999998 2.4277000000000015,4.020599999999998 2.430400000000006,4.017299999999995 2.429400000000001,4.005499999999998 2.434900000000006,4.000799999999998 2.429700000000004,3.995199999999997 2.433500000000002,3.9902999999999977 2.4276000000000053,3.9841999999999977 2.4277000000000015,3.979999999999997 2.4229000000000056,3.9709999999999965 2.4240000000000066,3.967799999999997 2.422400000000003,3.9640999999999984 2.4262000000000015,3.952899999999996 2.4232000000000014,3.9430999999999976 2.4222000000000037,3.925899999999995 2.4251000000000005,3.922799999999995 2.4281000000000006,3.9111999999999973 2.4328000000000003,3.902599999999996 2.433500000000002,3.8988999999999976 2.430900000000001,3.891599999999997 2.437800000000003,3.891599999999997 2.4477000000000046,3.888899999999996 2.456300000000006,3.8985999999999983 2.4619,3.900699999999997 2.4958000000000027,3.8917999999999964 2.507100000000001,3.8867999999999974 2.5105000000000004,3.888099999999998 2.5153000000000034,3.897699999999997 2.521500000000003,3.8996999999999957 2.529900000000005,3.8992999999999967 2.5424000000000007,3.9068999999999967 2.545800000000007,3.900699999999997 2.5518,3.8973999999999975 2.5572000000000017,3.8974999999999973 2.5701000000000036,3.903699999999997 2.5841000000000065,3.928099999999997 2.593100000000007,3.931099999999997 2.6089000000000055,3.9297999999999966 2.6114000000000033,3.931199999999997 2.6256000000000057,3.9484999999999957 2.6281000000000034,3.9541999999999966 2.6271000000000058,3.9579999999999984 2.6599000000000004,3.956999999999997 2.660500000000006,3.958999999999996 2.6648000000000067,3.9586999999999968 2.674100000000003,3.9637999999999955 2.673100000000005,3.9701999999999984 2.6666000000000025,3.9739999999999966 2.6676,3.9769999999999968 2.6739000000000033,3.9766999999999975 2.677900000000001,3.9743999999999957 2.6883000000000052,3.9758999999999958 2.6906000000000034,3.982599999999998 2.6948000000000008,3.988399999999995 2.6932000000000045,3.993199999999998 2.6944000000000017,3.994699999999998 2.6984000000000066,3.9952999999999967 2.7072000000000003,3.9927999999999955 2.7121000000000066,3.9942999999999955 2.7095000000000056,3.999799999999997 2.7158000000000015,4.006999999999998 2.7153000000000063,4.010899999999996 2.7183000000000064,4.016399999999997 2.7162000000000006,4.020799999999998 2.719600000000007,4.028399999999998 2.717400000000005,4.031299999999998 2.7235000000000014,4.031499999999998 2.724900000000005,4.027199999999997 2.729300000000002,4.024299999999997 2.7313000000000045,4.019599999999997 2.7368000000000023,4.0186999999999955 2.7401000000000053,4.024399999999996 2.7473000000000027,4.030299999999997 2.7519000000000062,4.029499999999995 2.7523000000000053,4.021799999999995 2.764100000000006,4.017999999999997 2.7716000000000065,4.020699999999998 2.7744,4.019999999999996 2.7761000000000067,4.022899999999996 2.775500000000001,4.026499999999995 2.778500000000001,4.025799999999997 2.7820000000000036,4.030199999999997 2.7804,4.031199999999998 2.7771000000000043,4.040799999999997 2.785500000000006,4.048799999999996 2.7920000000000016,4.050999999999998 2.7983000000000047,4.062399999999997 2.790600000000005,4.069699999999997 2.7923000000000044,4.071299999999997 2.791700000000006,4.072599999999998 2.7898000000000067,4.072799999999997 2.7886000000000024,4.0772999999999975 2.7866,4.077499999999997 2.787300000000002,4.084399999999995 2.7852000000000032,4.088599999999996 2.787700000000001,4.090699999999998 2.7817000000000007,4.095399999999998 2.7801000000000045,4.099599999999995 2.779900000000005,4.104999999999997 2.7823000000000064,4.109999999999996 2.7916000000000025,4.108899999999995 2.7949000000000055,4.1153999999999975 2.794300000000007,4.120099999999997 2.803900000000006,4.127999999999997 2.8079000000000036,4.128799999999998 2.811700000000002,4.125999999999998 2.816600000000001,4.128599999999995 2.818100000000001,4.132199999999997 2.821800000000003,4.132299999999997 2.8274000000000044,4.130799999999997 2.8296000000000063,4.125799999999998 2.835800000000006,4.124399999999998 2.853900000000003,4.132899999999996 2.859100000000005,4.139699999999998 2.863200000000006,4.140899999999995 2.862400000000001,4.138999999999996 2.8636000000000053,4.137999999999998 2.861700000000006,4.134499999999996 2.869000000000007,4.128399999999996 2.873100000000001,4.127899999999997 2.876400000000004,4.120799999999996 2.877500000000005,4.105699999999995 2.886000000000003,4.101399999999998 2.8889000000000067,4.097199999999997 2.8889000000000067,4.091299999999997 2.8948000000000036,4.0833999999999975 2.9070000000000036,4.076699999999995 2.908200000000001,4.0715999999999966 2.9158000000000044,4.075999999999997 2.9237000000000037,4.075299999999995 2.930500000000002,4.072199999999995 2.9326000000000008,4.069699999999997 2.9303000000000026,4.067799999999998 2.9306000000000054,4.062699999999996 2.936300000000003,4.049599999999998 2.941600000000001,4.047099999999997 2.946800000000003,4.049399999999995 2.952200000000005,4.048299999999998 2.954100000000004,4.0456999999999965 2.9510000000000005,4.040399999999998 2.9518000000000058,4.036899999999996 2.9506000000000014,4.034499999999998 2.9532000000000025,4.031699999999997 2.953800000000001,4.026399999999995 2.962300000000006,4.020399999999995 2.9658000000000015,4.021499999999996 2.9716000000000022,4.019399999999997 2.977000000000004,4.023899999999998 2.9832000000000036,4.022599999999997 2.9884000000000057,4.016099999999998 2.988200000000006,4.0136999999999965 2.9962000000000018,4.015499999999996 2.999200000000002,4.014299999999995 3.0028000000000006,4.004699999999996 3.0023000000000053,4.0014999999999965 3.0046000000000035,4.002499999999998 3.0075000000000003,4.001399999999997 3.0154000000000067,3.988999999999997 3.0113000000000056,3.9872999999999976 3.0116000000000014,3.983999999999998 3.0080000000000027,3.981099999999998 3.004400000000004,3.9817999999999962 3.002900000000004,3.9796999999999976 3.005900000000004,3.9729999999999954 3.003300000000003,3.969299999999997 3.0094000000000065,3.966299999999997 3.0097000000000023,3.9637999999999955 3.0154000000000067,3.9621999999999957 3.015800000000006,3.957499999999996 3.0175000000000054,3.9557999999999964 3.018900000000002,3.9576999999999956 3.0253000000000014,3.959499999999995 3.029100000000007,3.956399999999995 3.0335000000000036,3.9552999999999976 3.0356000000000023,3.946799999999996 3.0396,3.946799999999996 3.040300000000002,3.945399999999996 3.047700000000006,3.948299999999996 3.0538000000000025,3.9536999999999978 3.0604000000000013,3.9503999999999984 3.065100000000001,3.9522999999999975 3.066600000000001,3.954799999999995 3.0690000000000026,3.950599999999998 3.066900000000004,3.945999999999998 3.071000000000005,3.939599999999995 3.0767000000000024,3.938299999999998 3.0777,3.934999999999995 3.0808000000000035,3.933799999999998 3.0890000000000057,3.9363999999999955 3.0908000000000015,3.9347999999999956 3.0914,3.931199999999997 3.0875000000000057,3.916799999999995 3.0812000000000026,3.910699999999995 3.0807,3.9064999999999976 3.0881000000000043,3.9034999999999975 3.090600000000002,3.906099999999995 3.090900000000005,3.9015999999999984 3.1014000000000053,3.888899999999996 3.1129000000000033,3.885799999999996 3.1107000000000014,3.881999999999998 3.112000000000002,3.880499999999998 3.108400000000003,3.878699999999995 3.106900000000003,3.8752999999999957 3.106500000000004,3.868999999999996 3.111700000000006,3.863599999999998 3.1092000000000013,3.8611999999999966 3.110600000000005,3.8573999999999984 3.1033000000000044,3.8540999999999954 3.1008000000000067,3.846899999999998 3.1021,3.8436999999999983 3.100200000000001,3.8425999999999974 3.1019000000000005,3.8402999999999956 3.1060000000000016,3.8410999999999973 3.1141000000000005,3.835999999999995 3.119500000000002,3.838099999999997 3.122400000000006,3.833999999999996 3.121700000000004,3.8288999999999973 3.1274000000000015,3.8268999999999984 3.1336000000000013,3.830499999999997 3.1351000000000013,3.8329999999999984 3.142800000000001,3.8295999999999957 3.1494,3.831699999999998 3.1507000000000005,3.8286999999999978 3.149800000000006,3.823799999999995 3.155300000000004,3.817599999999995 3.150200000000005,3.814699999999995 3.151300000000006,3.8127999999999957 3.149700000000003,3.810299999999998 3.1517000000000053,3.809699999999996 3.1517000000000053,3.808099999999996 3.1562000000000054,3.809299999999997 3.155700000000003,3.807599999999997 3.1599000000000004,3.804199999999998 3.164500000000004,3.802499999999995 3.1659000000000006,3.8037999999999954 3.1688000000000045,3.801099999999998 3.169700000000006,3.796999999999997 3.1688000000000045,3.7952999999999975 3.164200000000001,3.795499999999997 3.158700000000003,3.7899999999999956 3.154900000000005,3.7884999999999955 3.1569000000000003,3.785899999999998 3.157900000000005,3.7799999999999976 3.167200000000001,3.7796999999999983 3.169700000000006,3.7778999999999954 3.177800000000005,3.7792999999999957 3.178900000000006,3.7773999999999965 3.1836000000000055,3.775699999999997 3.1869000000000014,3.7698999999999963 3.1905,3.7678999999999974 3.1866000000000057,3.762799999999995 3.1892000000000067,3.7587999999999973 3.1906000000000034,3.7580999999999953 3.1921000000000035,3.759999999999998 3.193000000000005,3.7579999999999956 3.1918000000000006,3.755499999999998 3.1932000000000045,3.749399999999998 3.1917000000000044,3.746699999999997 3.194100000000006,3.740699999999997 3.192,3.7326999999999977 3.1932000000000045,3.727999999999998 3.1921000000000035,3.725799999999996 3.1939000000000064,3.721699999999995 3.2003000000000057,3.720299999999998 3.201600000000006,3.7164999999999964 3.2006000000000014,3.7133999999999965 3.202600000000004,3.7122999999999955 3.2054000000000045,3.715599999999995 3.227000000000004,3.7107999999999954 3.2383000000000024,3.711999999999996 3.241400000000006,3.709699999999998 3.2449000000000012,3.709499999999995 3.2453000000000003,3.710599999999996 3.2569000000000017,3.708599999999997 3.257700000000007,3.7062999999999953 3.2608000000000033,3.705099999999998 3.2606000000000037,3.7034999999999982 3.2665000000000006,3.7057999999999964 3.2713000000000036,3.704499999999996 3.2712000000000003,3.702099999999998 3.276600000000002,3.697899999999997 3.277700000000003,3.694799999999997 3.2744,3.692899999999998 3.2771000000000043,3.688299999999998 3.2801000000000045,3.689599999999995 3.284000000000006,3.6884999999999977 3.2881,3.684699999999996 3.2883000000000067,3.680699999999998 3.3009000000000057,3.675899999999995 3.3041000000000054,3.6725999999999956 3.3149000000000015,3.671499999999998 3.3182000000000045,3.6690999999999967 3.3185000000000002,3.6610999999999976 3.3267000000000024,3.6626999999999974 3.3319000000000045,3.666299999999996 3.3378000000000014,3.6588999999999956 3.341700000000003,3.659399999999998 3.342100000000002,3.6576999999999984 3.348800000000004,3.6561999999999983 3.3504000000000005,3.653299999999998 3.352700000000006,3.654199999999996 3.3548000000000044,3.6527999999999956 3.354600000000005,3.651199999999996 3.359400000000001,3.649499999999996 3.3600000000000065,3.646899999999995 3.3628,3.6461999999999968 3.366100000000003,3.6417999999999964 3.3747000000000043,3.6437999999999953 3.3763000000000005,3.6421999999999954 3.383200000000002,3.6421999999999954 3.3788000000000054,3.6492999999999967 3.3830000000000027,3.651799999999998 3.3834000000000017,3.654599999999995 3.380500000000005,3.6584999999999965 3.387500000000003,3.6599999999999966 3.3878000000000057,3.662899999999997 3.3922000000000025,3.6645999999999965 3.392800000000001,3.666699999999995 3.3973000000000013,3.665499999999998 3.3982000000000028,3.6668999999999983 3.397100000000002,3.6686999999999976 3.4007000000000005,3.671299999999995 3.404100000000007,3.6824999999999974 3.407100000000007,3.6824999999999974 3.4078000000000017,3.6843999999999966 3.4047000000000054,3.689899999999998 3.4088000000000065,3.695299999999996 3.4040000000000035,3.698299999999996 3.4081000000000046,3.700299999999995 3.408700000000003,3.7041999999999966 3.417100000000005,3.704499999999996 3.4203000000000046,3.7068999999999974 3.4253,3.7046999999999954 3.4283,3.705999999999996 3.4321000000000055,3.703999999999997 3.433400000000006,3.707099999999997 3.438200000000002,3.7046999999999954 3.440000000000005,3.6909999999999954 3.4458000000000055,3.6908999999999956 3.444900000000004,3.6854999999999976 3.451600000000006,3.681999999999995 3.4514000000000067,3.6797999999999966 3.454900000000002,3.681499999999996 3.458200000000005,3.6778999999999975 3.4605000000000032,3.670899999999996 3.4577000000000027,3.662499999999998 3.460100000000004,3.6614999999999966 3.4618000000000038,3.6568999999999967 3.465500000000006,3.6570999999999962 3.4810000000000016,3.650699999999997 3.4873000000000047,3.6420999999999957 3.4876000000000005,3.634699999999995 3.4817000000000036,3.634399999999996 3.4802000000000035,3.631999999999998 3.479200000000006,3.627199999999995 3.480400000000003,3.622499999999995 3.4838000000000022,3.6222999999999956 3.484100000000005,3.6204999999999963 3.4875000000000043,3.6193999999999953 3.488900000000001,3.6222999999999956 3.4912000000000063,3.620099999999997 3.5017000000000067,3.6198999999999977 3.5054000000000016,3.617499999999996 3.503600000000006,3.6096999999999966 3.505200000000002,3.609599999999997 3.506600000000006,3.604599999999998 3.503300000000003,3.603799999999996 3.500400000000006,3.5986999999999973 3.502500000000005,3.597699999999996 3.499300000000005,3.594699999999996 3.4997000000000043,3.5932999999999957 3.5079000000000065,3.5888999999999953 3.509200000000007,3.5902999999999956 3.512500000000003,3.5894999999999975 3.5195000000000007,3.5949999999999953 3.522200000000005,3.595099999999995 3.5260000000000034,3.5928999999999967 3.528100000000002,3.594299999999997 3.533300000000004,3.5925999999999974 3.5356000000000023,3.5898999999999965 3.5424000000000007,3.5925999999999974 3.5408000000000044,3.597699999999996 3.5486000000000004,3.599199999999996 3.5501000000000005,3.596699999999995 3.554400000000001,3.596699999999995 3.5561000000000007,3.5928999999999967 3.5537000000000063,3.593099999999996 3.5530000000000044,3.5906999999999982 3.5623000000000005,3.575899999999997 3.582500000000003,3.5658999999999956 3.5789000000000044,3.556099999999997 3.583200000000005,3.555799999999998 3.5854,3.5502999999999965 3.5896000000000043,3.548899999999996 3.592800000000004,3.543499999999998 3.603900000000003,3.5319999999999965 3.6078000000000046,3.5331999999999972 3.610900000000001,3.5365999999999964 3.628600000000006,3.5391999999999975 3.628600000000006,3.542099999999998 3.6355000000000004,3.544999999999998 3.641200000000005,3.5414999999999957 3.643800000000006,3.543999999999997 3.6511000000000067,3.5391999999999975 3.6515000000000057,3.5406999999999975 3.6718000000000046,3.5479999999999983 3.6796000000000006,3.547099999999997 3.6884000000000015,3.5494999999999983 3.6898000000000053,3.546599999999998 3.701500000000003,3.5483999999999973 3.704800000000006,3.5442999999999962 3.7158000000000015,3.544399999999996 3.7191000000000045,3.5369999999999955 3.7213000000000065,3.5354999999999954 3.725900000000003,3.5369999999999955 3.7290000000000063,3.534199999999995 3.7369000000000057,3.5346999999999973 3.7390000000000043,3.5384999999999955 3.741500000000002,3.5379999999999967 3.7439000000000036,3.535999999999998 3.7469000000000037,3.528699999999997 3.7576000000000036,3.5289999999999964 3.770000000000003,3.5201999999999956 3.8538000000000068,3.517399999999995 3.852700000000006,3.5136999999999965 3.8578000000000046,3.507799999999996 3.862400000000001,3.505499999999998 3.8648000000000025,3.492599999999996 3.8800000000000026,3.4867999999999952 3.8836000000000013,3.4789999999999957 3.887600000000006,3.4819999999999958 3.8936000000000064,3.474999999999998 3.9081000000000046,3.4719999999999978 3.9126000000000047,3.4682999999999957 3.9162000000000035,3.4690999999999974 3.916700000000006,3.4634999999999962 3.919800000000002,3.465599999999995 3.9217000000000013,3.463099999999997 3.924900000000001,3.4637999999999955 3.930800000000005,3.452599999999997 3.9370000000000047,3.448299999999996 3.9392000000000067,3.436199999999996 3.944200000000002,3.433499999999995 3.9502000000000024,3.423499999999997 3.9469000000000065,3.415299999999995 3.9521000000000015,3.409199999999995 3.956400000000002,3.4080999999999975 3.959600000000002,3.4043999999999954 3.967400000000005,3.4034999999999975 3.971500000000006,3.3911999999999978 3.9716000000000022,3.3809999999999967 3.9754000000000005,3.382799999999996 3.9762000000000057,3.385899999999996 3.977700000000006,3.3815999999999953 3.9825000000000017,3.379699999999996 3.9817000000000036,3.3764999999999965 3.9878,3.374399999999998 3.987400000000001,3.3707999999999956 3.9832000000000036,3.3726999999999983 3.9836000000000027,3.3672999999999966 3.9798000000000044,3.367999999999995 3.9784000000000006,3.3654999999999973 3.9754000000000005,3.364999999999995 3.973700000000001,3.3608999999999973 3.9771,3.3600999999999956 3.9756,3.355299999999996 3.9779000000000053,3.3521999999999963 3.9802000000000035,3.3519999999999968 3.979300000000002,3.347299999999997 3.9832000000000036,3.3445999999999962 3.9865000000000066,3.344699999999996 3.985600000000005,3.3384999999999962 3.9875000000000043,3.337499999999995 3.9873000000000047,3.335099999999997 3.9890000000000043,3.3337999999999965 3.9842000000000013,3.322299999999995 4.282300000000006,3.1004999999999967 4.286500000000004,3.0955999999999975 4.2960000000000065,3.0921999999999983 4.298200000000001,3.088099999999997 4.2964000000000055,3.085599999999996 4.300200000000004,3.079099999999997 4.3060000000000045,3.075899999999997 4.307600000000001,3.077999999999996 4.3160000000000025,3.074099999999998 4.3197000000000045,3.0705999999999953 4.3245000000000005,3.069399999999998 4.325000000000003,3.067199999999996 4.330500000000001,3.0658999999999956 4.332300000000004,3.0643999999999956 4.332100000000004,3.0619999999999976 4.3352,3.0616999999999983 4.333200000000005,3.056099999999997 4.3404000000000025,3.049699999999998 4.339000000000006,3.0476999999999954 4.3404000000000025,3.0457999999999963 4.342500000000001,3.0457999999999963 4.3459,3.042899999999996 4.349000000000004,3.0436999999999976 4.350900000000003,3.038899999999998 4.353900000000003,3.038999999999998 4.352700000000006,3.042899999999996 4.360700000000001,3.045399999999997 4.359900000000003,3.049699999999998 4.363300000000002,3.0528999999999975 4.368100000000005,3.0551999999999957 4.370600000000003,3.051499999999997 4.373600000000003,3.0509999999999984 4.377800000000001,3.054999999999996 4.378100000000003,3.0582999999999956 4.3818000000000055,3.060699999999997 4.383400000000002,3.0598999999999954 4.384800000000006,3.0627999999999957 4.383800000000001,3.064899999999998 4.386800000000001,3.068699999999996 4.389100000000006,3.0700999999999965 4.3917,3.068399999999997 4.392500000000005,3.070699999999995 4.395300000000006,3.070299999999996 4.3979,3.072899999999997 4.400100000000002,3.077099999999998 4.406300000000002,3.0766999999999953 4.407800000000002,3.078599999999998 4.409300000000002,3.0777999999999963 4.4084,3.075299999999995 4.414200000000001,3.077099999999998 4.417200000000001,3.0757999999999974 4.417200000000001,3.0723999999999982 4.424800000000005,3.0725999999999978 4.4253,3.0716999999999963 4.422200000000004,3.0699999999999967 4.4284000000000034,3.0688999999999957 4.427200000000006,3.066799999999997 4.424100000000003,3.067699999999995 4.425000000000004,3.0655999999999963 4.433800000000005,3.0658999999999956 4.433800000000005,3.0614999999999952 4.436300000000003,3.0593999999999966 4.439,3.060699999999997 4.440700000000007,3.058699999999998 4.442800000000005,3.0601999999999983 4.446400000000004,3.058599999999995 4.448400000000007,3.0594999999999963 4.450800000000001,3.056499999999996 4.459400000000002,3.0579999999999963 4.462600000000002,3.055799999999998 4.4694,3.054999999999996 4.4709,3.0562999999999967 4.473300000000002,3.0536999999999956 4.471000000000004,3.0529999999999973 4.471600000000002,3.051499999999997 4.476000000000006,3.052499999999995 4.4776000000000025,3.0509999999999984 4.478800000000007,3.0433999999999983 4.476000000000006,3.043899999999997 4.476400000000005,3.0407999999999973 4.4739,3.0405999999999977 4.473400000000005,3.037199999999995 4.469500000000004,3.038899999999998 4.4680000000000035,3.0344999999999978 4.472300000000004,3.0307999999999957 4.474400000000003,3.024099999999997 4.4787000000000035,3.0220999999999982 4.479900000000001,3.0186999999999955 4.482900000000001,3.019099999999998 4.486500000000007,3.016999999999996 4.492500000000007,3.0196999999999967 4.498700000000007,3.0151999999999965 4.504200000000004,3.015499999999996 4.5079000000000065,3.013099999999998 4.508600000000001,3.010799999999996 4.514500000000005,3.011999999999997 4.5146000000000015,3.010499999999997 4.5179000000000045,3.0109999999999957 4.523100000000007,3.009799999999995 4.5242,3.0080999999999953 4.5274,3.0082999999999984 4.533900000000003,2.997899999999998 4.538000000000004,2.9948999999999977 4.542100000000005,2.9954999999999963 4.5441,2.9928999999999952 4.5438000000000045,2.988999999999997 4.549000000000007,2.984899999999996 4.547600000000003,2.9811999999999976 4.549400000000006,2.978399999999997 4.561300000000003,2.9789999999999957 4.5686000000000035,2.974899999999998 4.570500000000003,2.976199999999995 4.569800000000001,2.978499999999997 4.576500000000003,2.981099999999998 4.575800000000001,2.979299999999995 4.577200000000005,2.977899999999998 4.5804000000000045,2.9789999999999957 4.579900000000002,2.9766999999999975 4.583400000000005,2.977299999999996 4.587100000000007,2.9740999999999964 4.5908000000000015,2.973399999999998 4.587100000000007,2.9679999999999964 4.586300000000001,2.9634999999999962 4.589000000000006,2.9602999999999966 4.586600000000004,2.952299999999994 4.5893000000000015,2.947499999999998 4.587900000000005,2.9439999999999955 4.593600000000002,2.944499999999998 4.6021,2.940799999999996 4.599700000000006,2.939799999999998 4.597100000000005,2.9354999999999976 4.604600000000005,2.933799999999998 4.606100000000005,2.9314999999999998 4.607000000000006,2.9279999999999973 4.603900000000003,2.923399999999994 4.606800000000007,2.9187999999999974 4.609700000000004,2.918199999999999 4.613000000000007,2.9144999999999968 4.625700000000002,2.914899999999996 4.625700000000002,2.9113999999999933 4.633700000000005,2.903799999999997 4.638800000000003,2.9029999999999987 4.649100000000004,2.9062999999999946 4.651200000000003,2.905399999999993 4.649300000000004,2.9032999999999944 4.650400000000005,2.9021999999999935 4.657600000000002,2.9020999999999972 4.659400000000005,2.904299999999999 4.663200000000003,2.9020999999999972 4.670900000000003,2.9009 4.671700000000001,2.897299999999994 4.675600000000003,2.894699999999993 4.6836000000000055,2.8977999999999966 4.686600000000006,2.8947999999999965 4.693800000000003,2.8961999999999932 4.694900000000004,2.894699999999993 4.694000000000003,2.8847999999999985 4.695600000000006,2.882399999999997 4.705200000000005,2.8813999999999993 4.7154000000000025,2.877899999999997 4.713500000000003,2.8730999999999938 4.708800000000004,2.8681999999999945 4.702300000000001,2.8737999999999957 4.700600000000001,2.8735 4.700100000000006,2.870299999999993 4.703000000000003,2.8676999999999992 4.699900000000007,2.8613 4.696400000000004,2.8585999999999956 4.7149,2.8333999999999975 4.714600000000004,2.828399999999995 4.7058000000000035,2.823999999999998 4.705600000000004,2.822099999999999 4.709700000000005,2.821099999999994 4.717400000000005,2.8230999999999966 4.722900000000003,2.8208999999999946 4.721500000000006,2.8097999999999956 4.717500000000001,2.804699999999997 4.717000000000006,2.8004999999999995 4.727200000000003,2.7973 4.7265000000000015,2.786299999999997 4.729900000000001,2.7852999999999994 4.735200000000006,2.7871999999999986 4.737900000000003,2.784799999999997 4.7363,2.781099999999995 4.730000000000004,2.7781999999999982 4.7291000000000025,2.775499999999994 4.736600000000003,2.766999999999996 4.741800000000005,2.7700999999999993 4.744700000000002,2.7704999999999984 4.746900000000004,2.768799999999999 4.748000000000005,2.7663999999999973 4.746500000000005,2.762299999999996 4.755400000000002,2.754399999999997 4.762600000000006,2.741499999999995 4.764100000000006,2.7357999999999976 4.761100000000006,2.732199999999999 4.763900000000007,2.720899999999993 4.762800000000006,2.7153999999999954 4.770000000000003,2.7058999999999997 4.773300000000006,2.7038999999999973 4.775500000000001,2.699299999999994 4.781800000000004,2.6983999999999995 4.7834,2.696399999999997 4.7849,2.6936999999999998 4.7834,2.6851999999999947 4.785000000000004,2.683399999999999 4.796500000000002,2.6787999999999954 4.797800000000002,2.6769999999999996 4.793200000000006,2.6617999999999995 4.785200000000003,2.6624999999999943 4.783500000000004,2.658299999999997 4.785200000000003,2.654599999999995 4.796800000000005,2.6496999999999957 4.796100000000003,2.639799999999994 4.807300000000005,2.6236999999999995 4.806800000000003,2.6180999999999983 4.7973,2.606899999999996 4.795400000000001,2.590199999999996 4.812700000000007,2.5848999999999975 4.8262,2.5755999999999943 4.827900000000007,2.570999999999998 4.825600000000001,2.557399999999994 4.835800000000006,2.549899999999994 4.8404000000000025,2.5433999999999983 4.851800000000004,2.538799999999995 4.8574000000000055,2.5220999999999947 4.8735,2.515499999999996 4.878300000000003,2.507799999999996 4.885400000000004,2.5005999999999986 4.899700000000003,2.501099999999994 4.900600000000004,2.498899999999999 4.897100000000002,2.494899999999994 4.910600000000002,2.4909999999999997 4.911500000000004,2.4865999999999957 4.914300000000004,2.4850999999999956 4.918100000000003,2.4871999999999943 4.917400000000001,2.491199999999999 4.920300000000005,2.492899999999999 4.925400000000003,2.4908 4.923000000000002,2.4867999999999952 4.925600000000003,2.4849999999999994 4.9283,2.4854999999999947 4.932900000000004,2.4908 4.938200000000002,2.4924999999999997 4.949300000000001,2.4923 4.960600000000007,2.4898999999999987 4.969700000000003,2.493299999999998 4.9776000000000025,2.4880999999999958 4.977800000000002,2.4854999999999947 4.974500000000006,2.480799999999995 4.978800000000007,2.4758999999999958 4.977300000000007,2.471199999999996 4.979600000000005,2.4638999999999953 4.984000000000002,2.457799999999999 4.982500000000002,2.4521999999999977 4.9908,2.4457999999999984 4.997900000000001,2.4353999999999942 5.0072000000000045,2.4176999999999964 5.007400000000004,2.410599999999995 5.009,2.407899999999998 5.0135000000000005,2.4081999999999937 5.014800000000001,2.4146999999999963 5.018800000000006,2.415699999999994 5.023500000000006,2.4118999999999957 5.0242,2.4051999999999936 5.034800000000004,2.3951999999999956 5.052400000000006,2.3870999999999967 5.055600000000005,2.388399999999997 5.058300000000003,2.3922999999999988 5.062000000000005,2.4018999999999977 5.0704000000000065,2.404299999999999 5.078900000000004,2.394199999999998 5.082500000000003,2.386099999999999 5.085600000000007,2.3829999999999956 5.090700000000005,2.3813999999999993 5.094300000000004,2.382099999999994 5.102800000000002,2.3892999999999986 5.106100000000005,2.3896999999999977 5.119300000000003,2.378299999999996 5.137100000000004,2.3691999999999993 5.1462,2.3552999999999997 5.149800000000006,2.3529999999999944 5.160000000000004,2.3532999999999973 5.1651000000000025,2.364999999999995 5.169700000000006,2.3691999999999993 5.190700000000007,2.369899999999994 5.195300000000003,2.3628 5.197200000000002,2.3514999999999944 5.205100000000002,2.3429999999999964 5.231900000000003,2.333599999999997 5.247,2.3324 5.252800000000001,2.330199999999998 5.256600000000006,2.3267999999999986 5.258500000000005,2.3175999999999988 5.265400000000007,2.3166999999999973 5.2705000000000055,2.3218999999999994 5.346400000000003,2.2497999999999934 5.346400000000003,2.240699999999997 5.273100000000007,2.1744999999999948 5.192800000000005,2.1104999999999947 5.142100000000006,2.025599999999997 5.025600000000004,1.9482999999999961 4.956200000000003,1.8958999999999975 4.9405,1.8762999999999934 4.923500000000004,1.843599999999995 4.911700000000003,1.8016999999999967 4.909100000000002,1.766299999999994 4.915600000000005,1.7230999999999952 4.930000000000007,1.664199999999994 4.9405,1.5741999999999976 4.932400000000001,1.4858999999999938 4.912000000000006,1.360999999999997 4.910600000000002,1.3619999999999948 4.911200000000001,1.357999999999997 4.9088000000000065,1.3547999999999973 4.9146,1.348399999999998 4.911700000000003,1.3448999999999955 4.913600000000002,1.342499999999994 4.910900000000005,1.3406999999999982 4.912500000000001,1.3341999999999956 4.908900000000003,1.333199999999998 4.911300000000004,1.330299999999994 4.909300000000002,1.3288999999999973 4.9151000000000025,1.3216999999999999 4.9146,1.3192999999999984 4.910200000000003,1.316199999999995 4.910400000000003,1.3115999999999985 4.912700000000001,1.3093999999999966 4.920000000000002,1.3084999999999951 4.916900000000005,1.2878999999999934 4.9482,1.284799999999997 4.9542,1.2864999999999966 5.001100000000001,1.2804999999999964 4.999000000000002,1.2800999999999974 4.998900000000006,1.2783999999999978 5.010800000000003,1.2727999999999966 5.013900000000007,1.2648999999999972 5.016200000000005,1.2402999999999977 5.020300000000006,1.2356999999999942 5.024300000000004,1.2339999999999947 5.036100000000005,1.234099999999998 5.063300000000005,1.2276999999999987 5.068700000000007,1.2309999999999945 5.071200000000005,1.2295999999999978 5.053700000000006,1.2164000000000001 5.021400000000007,1.1872999999999934 4.989500000000007,1.154199999999996 4.964000000000006,1.1251999999999995 4.9373000000000005,1.0862999999999943 4.932200000000002,1.0730999999999966 4.929000000000002,1.0590999999999937 4.929100000000005,1.0529999999999973 4.9325000000000045,1.0485999999999933 4.933800000000005,1.0415999999999954 4.933500000000002,1.0377999999999972 4.930200000000006,1.0338999999999956 4.930200000000006,1.032199999999996 4.930700000000002,1.0335999999999999 4.930700000000002,1.0313999999999979 4.934400000000004,1.029999999999994 4.934600000000003,1.0268999999999977 4.931600000000003,1.0265999999999948 4.921800000000005,1.0174999999999983 4.9210000000000065,1.0140999999999991 4.918400000000005,1.0132999999999939 4.910200000000003,1.0007999999999981 4.912100000000002,0.9971999999999994 4.909600000000005,0.9960999999999984 4.908300000000004,0.9904999999999973 4.912200000000006,0.9881999999999991 4.9101,0.9878999999999962 4.907500000000006,0.9837999999999951 4.905900000000003,0.9763999999999982 4.906400000000005,0.9743999999999957 4.909600000000005,0.9743999999999957 4.911800000000007,0.9711999999999961 4.902200000000001,0.9604999999999961 4.898000000000003,0.9492999999999938 4.900200000000005,0.9424999999999955 4.905200000000001,0.9421999999999997 4.901600000000002,0.9354999999999976 4.902000000000001,0.9314999999999998 4.904200000000003,0.9290999999999983 4.906000000000006,0.9299999999999997 4.907400000000003,0.929399999999994 4.898900000000005,0.9242999999999952 4.889800000000001,0.9151999999999987 4.888000000000005,0.9107999999999947 4.890500000000003,0.908299999999997 4.889900000000004,0.9052999999999969 4.884600000000006,0.9052999999999969 4.8641000000000005,0.8921999999999954 4.7916000000000025,0.8350999999999971 4.762800000000006,0.809899999999999 4.7408,0.7889999999999944 4.701600000000006,0.7470999999999961 4.679200000000002,0.7205999999999975 4.662400000000005,0.6971999999999952 4.6507000000000005,0.668299999999995 4.648900000000005,0.6531999999999982 4.650000000000006,0.6418999999999997 4.654900000000005,0.6300999999999988 4.660500000000006,0.6269999999999953 4.665600000000005,0.6299999999999955 4.670500000000004,0.6299999999999955 4.671900000000001,0.6218999999999966 4.675200000000004,0.619099999999996 4.676700000000004,0.620199999999997 4.676900000000003,0.6158000000000001 4.678700000000006,0.615399999999994 4.670200000000001,0.6077999999999975 4.660200000000003,0.592499999999994 4.6588000000000065,0.5793999999999997 4.661000000000001,0.573599999999999 4.664100000000005,0.5721999999999952 4.663500000000006,0.5674999999999955 4.654900000000005,0.5661999999999949 4.654300000000006,0.5697999999999936 4.650600000000004,0.570999999999998 4.6396000000000015,0.5694999999999979 4.5930000000000035,0.5507999999999953 4.545200000000001,0.5257999999999967 4.527100000000004,0.5179999999999936 4.4557,0.47689999999999344 4.441300000000005,0.469699999999996 4.440200000000004,0.47049999999999415 4.359200000000001,0.41979999999999507 4.327300000000001,0.39519999999999555 4.319800000000001,0.38589999999999947 4.321000000000005,0.383899999999997 4.320200000000007,0.3796999999999997 4.305100000000003,0.3685999999999936 4.2938000000000045,0.354699999999994 4.286800000000007,0.3399999999999963 4.286500000000004,0.33029999999999404 4.290200000000006,0.32379999999999853 4.299100000000003,0.3199999999999932 4.301000000000002,0.3205999999999989 4.296600000000005,0.3155000000000001 4.294300000000007,0.31869999999999976 4.2894000000000005,0.31679999999999353 4.289100000000005,0.30989999999999895 4.291300000000007,0.30859999999999843 4.288500000000006,0.3035999999999959 4.2805000000000035,0.3060999999999936 4.277800000000006,0.30859999999999843 4.267400000000002,0.30859999999999843 4.267100000000006,0.3100999999999985 4.264400000000002,0.3096999999999994 4.263400000000004,0.3119999999999976 4.2535000000000025,0.31339999999999435 4.227200000000003,0.310299999999998 4.169000000000004,0.2907999999999973 4.1507000000000005,0.28599999999999426 4.064400000000006,0.2523999999999944 4.001800000000003,0.22999999999999687 3.9713000000000065,0.21719999999999828 3.823500000000003,0.14879999999999427 3.813200000000002,0.14069999999999538 3.8087000000000018,0.13479999999999848 3.8078000000000003,0.13109999999999644 3.809100000000001,0.1280000000000001 3.8116000000000057,0.1296999999999997 3.8130000000000024,0.12889999999999446 3.811300000000003,0.12659999999999627 3.806600000000003,0.12719999999999487 3.8038000000000025,0.12469999999999715 3.7988,0.12749999999999773 3.799500000000002,0.13049999999999784 3.797700000000006,0.13289999999999935 3.793600000000005,0.13459999999999894 3.784000000000006,0.13509999999999422 3.7406000000000006,0.12299999999999756 3.702300000000001,0.10639999999999361 3.656800000000004,0.08339999999999748 3.6396000000000015,0.07279999999999376 3.6366000000000014,0.0688999999999993 3.6271000000000058,0.06859999999999644 3.6241000000000057,0.06609999999999872 3.616900000000001,0.06439999999999912 3.6119000000000057,0.06649999999999778 3.6075000000000017,0.06559999999999633 3.597200000000001,0.06099999999999994 3.5944000000000003,0.05779999999999319 3.5914,0.05749999999999744 3.591600000000007,0.05519999999999925 3.5871000000000066,0.05439999999999401 3.5796000000000063,0.05689999999999884 3.567,0.05119999999999436 3.5649000000000015,0.048799999999999955 3.5626000000000033,0.04959999999999809 3.5557000000000016,0.04709999999999326 3.5190000000000055,0.026199999999995782 3.5105000000000004,0.018699999999995498 3.5061000000000035,0.016999999999995907 3.500700000000002,0.010799999999996146 3.501800000000003,0.007999999999995566 3.498800000000003,0.008599999999994168 3.4969000000000037,0.006399999999999295 3.4932000000000016,0.005799999999993588 3.4902000000000015,0.0 3.4862000000000037,0.001999999999995339 3.4857000000000014,0.009699999999995157 3.488200000000006,0.00999999999999801 3.4895000000000067,0.014299999999998647 3.4938000000000002,0.012499999999995737 3.4957000000000065,0.01659999999999684 3.499200000000002,0.017799999999994043 3.4990000000000023,0.02389999999999759 3.4931000000000054,0.031899999999993156 3.4743000000000066,0.04899999999999949 3.4587000000000003,0.05799999999999983 3.4340000000000046,0.06409999999999627 3.4291000000000054,0.06409999999999627 3.425700000000006,0.060799999999993304 3.4243000000000023,0.06299999999999528 3.414900000000003,0.06419999999999959 3.3980000000000032,0.06279999999999575 3.3944000000000045,0.05659999999999599 3.392400000000002,0.05639999999999645 3.3944000000000045,0.06179999999999808 3.393800000000006,0.06999999999999318 3.3952000000000027,0.073599999999999 3.3994,0.07629999999999626 3.3996000000000066,0.08139999999999503 3.3930000000000007,0.08679999999999666 3.380100000000006,0.09279999999999688 3.3681000000000054,0.09539999999999793 3.3534000000000006,0.09629999999999939 3.2772000000000006,0.09189999999999543 3.2516000000000034,0.08769999999999811 3.2247000000000057,0.08039999999999736 3.2116000000000042,0.07519999999999527 3.209600000000002,0.07189999999999941 3.2043000000000035,0.0688999999999993 3.2005000000000052,0.06939999999999458 3.200000000000003,0.07249999999999801 3.1958000000000055,0.07339999999999947 3.1880000000000024,0.07239999999999469 3.1791000000000054,0.06829999999999359 3.1780000000000044,0.07219999999999516 3.181600000000003,0.07689999999999486 3.1795000000000044,0.07989999999999498 3.1680000000000064,0.0840999999999994 3.1599000000000004,0.08329999999999416 3.1580000000000013,0.08439999999999515 3.1610000000000014,0.09159999999999968 3.1569000000000003,0.09969999999999857 3.1618000000000066,0.09969999999999857 3.1646,0.10269999999999868 3.162400000000005,0.10829999999999984 3.1603000000000065,0.11019999999999897 3.157100000000007,0.10859999999999559 3.158200000000001,0.11189999999999856 3.151600000000002,0.11580000000000013 3.1437000000000026,0.1185999999999936 3.1380000000000052,0.11829999999999785 3.1357,0.12219999999999942 3.1377000000000024,0.13119999999999976 3.1330000000000027,0.1348999999999947 3.1296000000000035,0.1354999999999933 3.122,0.14989999999999526 3.116900000000001,0.1518999999999977 3.1129000000000033,0.1565999999999974 3.0927000000000007,0.16610000000000014 3.0663000000000054,0.17139999999999844 3.0546000000000006,0.1710999999999956 3.053200000000004,0.17389999999999617 3.0552000000000064,0.17619999999999436 3.0527000000000015,0.17909999999999826 3.030300000000004,0.18389999999999418 2.9649,0.17799999999999727 2.9482,0.1740999999999957 2.9421000000000035,0.1746999999999943 2.9421000000000035,0.17789999999999395 2.935700000000004,0.179399999999994 2.9174000000000007,0.17719999999999914 2.9110000000000014,0.1746999999999943 2.911900000000003,0.17739999999999867 2.906500000000001,0.17749999999999488 2.9021000000000043,0.181599999999996 2.8940000000000055,0.18439999999999657 2.8856000000000037,0.1840999999999937 2.8841000000000037,0.1857999999999933 2.8810000000000002,0.1857999999999933 2.8810000000000002,0.18769999999999953 2.877600000000001,0.18939999999999912 2.8618000000000023,0.19139999999999446 2.8577000000000012,0.19549999999999557 2.8430000000000035,0.20139999999999958 2.829900000000002,0.20219999999999771 2.815100000000001,0.20069999999999766 2.790600000000005,0.19429999999999836 2.7827000000000055,0.19889999999999475 2.782100000000007,0.20279999999999632 2.7774,0.20669999999999789 2.7679000000000045,0.210799999999999 2.7583000000000055,0.21189999999999998 2.7436000000000007,0.21069999999999567 2.724500000000006,0.20589999999999975 2.6877000000000066,0.19249999999999545 2.6784000000000034,0.19229999999999592 2.676000000000002,0.1979999999999933 2.668600000000005,0.2015999999999991 2.6510000000000034,0.20219999999999771 2.617200000000004,0.19249999999999545 2.583200000000005,0.1781999999999968 2.572900000000004,0.17789999999999395 2.5619000000000014,0.17479999999999762 2.5209000000000046,0.15529999999999688 2.4924000000000035,0.13799999999999812 2.4863,0.13659999999999428 2.4162000000000035,0.09509999999999508 2.385300000000001,0.08129999999999882 2.3771000000000058,0.07439999999999714 2.372700000000002,0.073599999999999 2.3715000000000046,0.07489999999999952 2.3682000000000016,0.073599999999999 2.367900000000006,0.0753999999999948 2.3647000000000062,0.07620000000000005 2.3582000000000036,0.07299999999999329 2.355300000000007,0.07809999999999917 2.3501000000000047,0.07839999999999492 2.3418000000000063,0.0764999999999958 2.339400000000005,0.0741999999999976 2.3366000000000042,0.07669999999999533 2.322900000000004,0.07589999999999719 2.317700000000002,0.07259999999999422 2.3185000000000002,0.06939999999999458 2.3160000000000025,0.06829999999999359 2.3160000000000025,0.066599999999994 2.308800000000005,0.06849999999999312 2.308000000000007,0.06689999999999685 2.311300000000003,0.06689999999999685 2.312900000000006,0.0648999999999944 2.308500000000002,0.06139999999999901 2.3019000000000034,0.061599999999998545 2.299600000000005,0.06359999999999388 2.294700000000006,0.06099999999999994 2.292200000000001,0.05619999999999692 2.2950000000000017,0.054199999999994475 2.2830000000000013,0.04469999999999885 2.280700000000003,0.035799999999994725 2.2793000000000063,0.03609999999999758 2.2786000000000044,0.04019999999999868 2.277000000000001,0.04059999999999775 2.2767000000000053,0.04169999999999874 2.279600000000002,0.041100000000000136 2.279900000000005,0.04269999999999641 2.2757000000000005,0.04619999999999891 "></polygon><polygon points="2.3374000000000024,0.07079999999999842 2.3355000000000032,0.06969999999999743 2.3349000000000046,0.07189999999999941 2.3371000000000066,0.07249999999999801 2.3374000000000024,0.07079999999999842 "></polygon><polygon points="2.8735,0.17189999999999372 2.8741000000000057,0.16909999999999314 2.8707000000000065,0.17279999999999518 2.871600000000001,0.1729999999999947 2.8735,0.17189999999999372 "></polygon><polygon points="3.469600000000007,0.02499999999999858 3.473000000000006,0.023299999999998988 3.471900000000005,0.022199999999998 3.473000000000006,0.02049999999999841 3.4710000000000036,0.01999999999999602 3.471900000000005,0.01389999999999958 3.466600000000007,0.011599999999994282 3.466000000000001,0.015799999999998704 3.4688000000000017,0.01719999999999544 3.4657000000000053,0.02109999999999701 3.4635000000000034,0.021399999999999864 3.463000000000001,0.02549999999999386 3.469600000000007,0.02499999999999858 "></polygon><polygon points="4.538000000000004,0.14939999999999998 4.538000000000004,0.14799999999999613 4.536000000000001,0.1477999999999966 4.5338000000000065,0.14799999999999613 4.5327000000000055,0.14999999999999858 4.538000000000004,0.14939999999999998 "></polygon><polygon points="4.2927000000000035,0.31049999999999756 4.291000000000004,0.310299999999998 4.2905000000000015,0.3118999999999943 4.293500000000002,0.31269999999999953 4.2927000000000035,0.31049999999999756 "></polygon><polygon points="4.676300000000005,0.5663999999999945 4.6738,0.5655000000000001 4.673200000000001,0.5668999999999969 4.675700000000006,0.5674999999999955 4.676300000000005,0.5663999999999945 "></polygon><polygon points="4.6721,0.5704999999999956 4.671600000000005,0.5690999999999988 4.670500000000004,0.5690999999999988 4.6710000000000065,0.5721999999999952 4.6721,0.5704999999999956 "></polygon><polygon points="4.689300000000003,0.5704999999999956 4.689300000000003,0.5718999999999994 4.6921000000000035,0.5721999999999952 4.6921000000000035,0.5710999999999942 4.689300000000003,0.5704999999999956 "></polygon><polygon points="4.679400000000001,0.6215999999999937 4.6788000000000025,0.6229999999999976 4.681800000000003,0.6232999999999933 4.6813,0.6215999999999937 4.679400000000001,0.6215999999999937 "></polygon><polygon points="4.699400000000004,0.622799999999998 4.699600000000004,0.6254999999999953 4.7010000000000005,0.6254999999999953 4.7010000000000005,0.6229999999999976 4.699400000000004,0.622799999999998 "></polygon><polygon points="4.9543000000000035,1.0360999999999976 4.957100000000004,1.034399999999998 4.959300000000006,1.034399999999998 4.959600000000002,1.0357999999999947 4.962700000000005,1.034399999999998 4.960500000000003,1.0324999999999989 4.954900000000002,1.0335999999999999 4.9510000000000005,1.0357999999999947 4.950700000000005,1.0374999999999943 4.9543000000000035,1.0360999999999976 "></polygon><polygon points="2.2080000000000055,0.084699999999998 2.2069000000000045,0.08359999999999701 2.205200000000005,0.0852999999999966 2.2069000000000045,0.08609999999999474 2.2080000000000055,0.084699999999998 "></polygon><polygon points="2.0563000000000002,0.191599999999994 2.0652000000000044,0.18529999999999802 2.0582000000000065,0.18019999999999925 2.0471000000000004,0.17859999999999587 2.045500000000004,0.1821999999999946 2.0416000000000025,0.18469999999999942 2.041000000000004,0.18889999999999674 2.0452000000000012,0.19249999999999545 2.0563000000000002,0.191599999999994 "></polygon><polygon points="0.5574000000000012,0.5024999999999977 0.5577000000000041,0.5010999999999939 0.5549000000000035,0.5007999999999981 0.5538000000000025,0.49799999999999756 0.5469000000000008,0.498899999999999 0.5482000000000014,0.5027999999999935 0.5574000000000012,0.5024999999999977 "></polygon><polygon points="0.5605000000000047,0.522199999999998 0.5582000000000065,0.522199999999998 0.5577000000000041,0.5235999999999947 0.5602000000000018,0.5238999999999976 0.5605000000000047,0.522199999999998 "></polygon><polygon points="0.5457000000000036,0.5227999999999966 0.5441000000000003,0.5240999999999971 0.5449000000000055,0.5252999999999943 0.5469000000000008,0.5249999999999986 0.5457000000000036,0.5227999999999966 "></polygon><polygon points="0.5216000000000065,0.5515999999999934 0.5188000000000059,0.5515999999999934 0.5182000000000002,0.5524999999999949 0.5221000000000018,0.5529999999999973 0.5216000000000065,0.5515999999999934 "></polygon><polygon points="0.5388000000000019,0.5533000000000001 0.5357000000000056,0.5513999999999939 0.5319000000000003,0.5527999999999977 0.5324000000000026,0.5538999999999987 0.5388000000000019,0.5533000000000001 "></polygon><polygon points="0.15800000000000125,0.893899999999995 0.15690000000000026,0.8935999999999993 0.1571000000000069,0.8951999999999956 0.15850000000000364,0.8957999999999942 0.15800000000000125,0.893899999999995 "></polygon><polygon points="0.16460000000000008,0.9015999999999948 0.1624000000000052,0.897199999999998 0.16070000000000562,0.8957999999999942 0.15910000000000224,0.9004999999999939 0.16270000000000095,0.9026999999999958 0.16460000000000008,0.9015999999999948 "></polygon><polygon points="0.1232000000000042,0.9263999999999939 0.13410000000000366,0.918299999999995 0.13569999999999993,0.9161000000000001 0.13520000000000465,0.9129999999999967 0.1232000000000042,0.9124999999999943 0.12050000000000693,0.9149999999999991 0.1180000000000021,0.9190999999999931 0.11710000000000065,0.9249999999999972 0.11820000000000164,0.9274999999999949 0.1232000000000042,0.9263999999999939 "></polygon><polygon points="0.1366000000000014,0.920499999999997 0.13410000000000366,0.9196999999999989 0.13270000000000692,0.9227999999999952 0.13600000000000279,0.9221999999999966 0.1366000000000014,0.920499999999997 "></polygon><polygon points="0.1296000000000035,0.9321999999999946 0.1302000000000021,0.930499999999995 0.1285000000000025,0.9296999999999969 0.12630000000000052,0.9329999999999998 0.1296000000000035,0.9321999999999946 "></polygon><polygon points="0.13100000000000023,0.9560999999999993 0.12990000000000634,0.9538999999999973 0.1274000000000015,0.9535999999999945 0.12710000000000576,0.9568999999999974 0.12990000000000634,0.9576999999999956 0.13100000000000023,0.9560999999999993 "></polygon>
    </svg>
    