
    <svg width="8.4354" height="6.913499999999999" xmlns="http://www.w3.org/2000/svg" xmlns:xlink="http://www.w3.org/1999/xlink" style="transform: scale(1, -1)">
        <polygon points="0.2699999999999996,1.3846999999999987 0.2699999999999996,1.382200000000001 0.2674999999999983,1.3825000000000003 0.2683,1.3865999999999978 0.2699999999999996,1.3865999999999978 0.2699999999999996,1.3846999999999987 "></polygon><polygon points="0.3279999999999994,1.4338999999999977 0.3268999999999984,1.4321999999999981 0.32280000000000086,1.4311000000000007 0.3238999999999983,1.4346999999999994 0.3291000000000004,1.4360999999999997 0.3279999999999994,1.4338999999999977 "></polygon><polygon points="0.34440000000000026,1.4553000000000011 0.3442000000000007,1.453599999999998 0.34169999999999945,1.450800000000001 0.34110000000000085,1.4543999999999997 0.34440000000000026,1.4553000000000011 "></polygon><polygon points="1.3224999999999998,3.1050000000000004 1.3213999999999988,3.101399999999998 1.3168999999999986,3.096899999999998 1.3188999999999993,3.1022 1.3213999999999988,3.1054999999999993 1.3224999999999998,3.1050000000000004 "></polygon><polygon points="4.081899999999999,0.7487999999999992 4.091099999999999,0.6809000000000012 4.1036,0.5611999999999995 3.9962,0.5632999999999981 3.9627,0.5633999999999979 3.9552999999999994,0.5621000000000009 3.9038000000000004,0.5641999999999996 3.675799999999999,0.5670999999999999 3.2225,0.5707999999999984 2.557499999999999,0.5734999999999992 2.5236,0.5721999999999987 2.508899999999999,0.5739999999999981 2.4611,0.5736999999999988 2.4536999999999995,0.5722999999999985 2.144499999999999,0.5739999999999981 1.228299999999999,0.5716000000000001 0.1860999999999997,0.5608000000000004 0.16570000000000107,0.5569999999999986 0.1352000000000011,0.4511000000000003 0.11809999999999832,0.3998999999999988 0.10229999999999961,0.33500000000000085 0.09609999999999985,0.32310000000000016 0.07929999999999993,0.3001000000000005 0.06559999999999988,0.27069999999999794 0.05659999999999954,0.21059999999999945 0.038999999999997925,0.15339999999999776 0.03889999999999816,0.07019999999999982 0.053599999999999426,0.0045999999999999375 0.05940000000000012,0.0021999999999984254 0.059200000000000585,0.001100000000000989 0.053599999999999426,0.0 0.05389999999999873,0.0021999999999984254 0.04669999999999774,0.009100000000000108 0.04299999999999926,0.02049999999999841 0.03920000000000101,0.02049999999999841 0.03579999999999828,0.027999999999998693 0.03719999999999857,0.031399999999997874 0.03190000000000026,0.03470000000000084 0.03249999999999886,0.04279999999999973 0.026099999999999568,0.04550000000000054 0.022199999999998,0.057500000000000995 0.019199999999997885,0.05889999999999773 0.015000000000000568,0.05689999999999884 0.012199999999999989,0.05889999999999773 0.012199999999999989,0.056400000000000006 0.00969999999999871,0.056100000000000705 0.00549999999999784,0.06419999999999959 0.00140000000000029,0.06639999999999802 0.00140000000000029,0.07140000000000057 0.0,0.07189999999999941 0.00140000000000029,0.079699999999999 0.014700000000001268,0.09169999999999945 0.014399999999998414,0.09329999999999927 0.018000000000000682,0.09639999999999915 0.018299999999999983,0.09939999999999927 0.020299999999998875,0.10050000000000026 0.027200000000000557,0.11550000000000082 0.026599999999998403,0.12389999999999901 0.02499999999999858,0.12359999999999971 0.02359999999999829,0.12549999999999883 0.023900000000001143,0.13189999999999813 0.020299999999998875,0.13299999999999912 0.02049999999999841,0.13970000000000127 0.01640000000000086,0.1404999999999994 0.015799999999998704,0.1424999999999983 0.01389999999999958,0.1418999999999997 0.01249999999999929,0.1479999999999997 0.009399999999999409,0.15279999999999916 0.016899999999999693,0.16939999999999955 0.019199999999997885,0.186399999999999 0.022800000000000153,0.19640000000000057 0.03439999999999799,0.210799999999999 0.03780000000000072,0.22579999999999956 0.041100000000000136,0.23109999999999786 0.03999999999999915,0.23639999999999972 0.040800000000000836,0.24670000000000059 0.03920000000000101,0.25 0.042200000000001125,0.2593999999999994 0.04189999999999827,0.27639999999999887 0.04029999999999845,0.2813999999999979 0.04189999999999827,0.28389999999999915 0.04279999999999973,0.30109999999999815 0.04029999999999845,0.3096999999999994 0.042200000000001125,0.3143999999999991 0.04169999999999874,0.3177999999999983 0.04609999999999914,0.325800000000001 0.04749999999999943,0.3371999999999993 0.0517000000000003,0.3482999999999983 0.050799999999998846,0.35439999999999827 0.05389999999999873,0.375 0.06109999999999971,0.3924999999999983 0.06139999999999901,0.39580000000000126 0.057500000000000995,0.39890000000000114 0.054700000000000415,0.40390000000000015 0.054400000000001114,0.41499999999999915 0.056699999999999307,0.42279999999999873 0.056400000000000006,0.4355000000000011 0.05999999999999872,0.44920000000000115 0.06080000000000041,0.460799999999999 0.0627999999999993,0.4688999999999979 0.06499999999999773,0.47080000000000055 0.067499999999999,0.4800000000000004 0.0669000000000004,0.48359999999999914 0.07000000000000028,0.4910999999999994 0.0686,0.4936000000000007 0.06970000000000098,0.504999999999999 0.07189999999999941,0.507200000000001 0.0738999999999983,0.5152999999999999 0.07750000000000057,0.5218999999999987 0.07440000000000069,0.5289000000000001 0.07499999999999929,0.5457999999999998 0.07469999999999999,0.5486000000000004 0.07249999999999801,0.5503 0.0730000000000004,0.5582999999999991 0.07499999999999929,0.5702999999999996 0.07779999999999987,0.5763999999999996 0.0782999999999987,0.5902999999999992 0.08859999999999957,0.6158000000000001 0.09219999999999828,0.6304999999999978 0.09110000000000085,0.6519000000000013 0.09359999999999857,0.6590999999999987 0.09440000000000026,0.6754999999999995 0.10190000000000055,0.6921999999999997 0.10139999999999816,0.6960999999999977 0.10589999999999833,0.7065999999999981 0.10609999999999786,0.7127999999999979 0.107800000000001,0.7133000000000003 0.10749999999999815,0.7161000000000008 0.10999999999999943,0.7188999999999979 0.10919999999999774,0.721899999999998 0.11219999999999786,0.7286000000000001 0.11139999999999972,0.7358000000000011 0.11329999999999885,0.7405000000000008 0.11189999999999856,0.7467000000000006 0.11250000000000071,0.7566999999999986 0.1142000000000003,0.757200000000001 0.11469999999999914,0.7654999999999994 0.11829999999999785,0.7728000000000002 0.11749999999999972,0.7763999999999989 0.1191999999999993,0.7827999999999982 0.12330000000000041,0.7902999999999984 0.12249999999999872,0.7943999999999996 0.125,0.8167000000000009 0.12389999999999901,0.8191999999999986 0.1203000000000003,0.8210999999999977 0.12170000000000059,0.8279999999999994 0.11969999999999814,0.8322000000000003 0.120000000000001,0.8394000000000013 0.12219999999999942,0.8452999999999982 0.12219999999999942,0.8505000000000003 0.1296999999999997,0.8649999999999984 0.12859999999999872,0.8696999999999981 0.1308000000000007,0.8757999999999981 0.129999999999999,0.8900000000000006 0.1313999999999993,0.8914000000000009 0.129999999999999,0.8963999999999999 0.1280000000000001,0.8968999999999987 0.12859999999999872,0.8996999999999993 0.12579999999999814,0.9029999999999987 0.12719999999999843,0.9085999999999999 0.12389999999999901,0.9191000000000003 0.12249999999999872,0.9375 0.12330000000000041,0.9492000000000012 0.12749999999999773,0.9532999999999987 0.12859999999999872,0.9566999999999979 0.13530000000000086,0.9590999999999994 0.13970000000000127,0.9638999999999989 0.13919999999999888,0.9671999999999983 0.14610000000000056,0.972999999999999 0.15469999999999828,0.9902999999999977 0.15439999999999898,0.9997000000000007 0.14639999999999986,1.0028000000000006 0.14580000000000126,0.9990999999999985 0.14440000000000097,0.9990999999999985 0.14300000000000068,1.0018999999999991 0.14000000000000057,1.0032999999999994 0.1404999999999994,1.0168999999999997 0.13830000000000098,1.0269000000000013 0.14470000000000027,1.035499999999999 0.14389999999999858,1.0427999999999997 0.148299999999999,1.051400000000001 0.1479999999999997,1.0561000000000007 0.14639999999999986,1.0578000000000003 0.14939999999999998,1.0599999999999987 0.15390000000000015,1.0691999999999986 0.15360000000000085,1.0714000000000006 0.15579999999999927,1.0718999999999994 0.16910000000000025,1.0860999999999983 0.17139999999999844,1.0853000000000002 0.18499999999999872,1.1019000000000005 0.188600000000001,1.1038999999999994 0.1927999999999983,1.1094000000000008 0.1921999999999997,1.1113999999999997 0.19470000000000098,1.111699999999999 0.1968999999999994,1.1179999999999986 0.204699999999999,1.1294000000000004 0.21170000000000044,1.1508000000000003 0.21140000000000114,1.1574999999999989 0.20579999999999998,1.1602999999999994 0.2079999999999984,1.1722000000000001 0.21529999999999916,1.1842000000000006 0.21780000000000044,1.185500000000001 0.22530000000000072,1.2002999999999986 0.22639999999999816,1.2117000000000004 0.23329999999999984,1.2188999999999979 0.23389999999999844,1.2302999999999997 0.23610000000000042,1.2385999999999981 0.23829999999999885,1.2410999999999994 0.24609999999999843,1.2619000000000007 0.25549999999999784,1.2758000000000003 0.2566999999999986,1.2830000000000013 0.2641999999999989,1.3000000000000007 0.2683,1.3186 0.27080000000000126,1.3204999999999991 0.2752999999999979,1.334699999999998 0.2813999999999979,1.3435999999999986 0.2817000000000007,1.3510999999999989 0.28800000000000026,1.3611000000000004 0.29299999999999926,1.3816999999999986 0.2986000000000004,1.3930000000000007 0.3003,1.3941999999999979 0.305299999999999,1.3933 0.3232999999999997,1.400500000000001 0.3305000000000007,1.4060999999999986 0.335799999999999,1.4130000000000003 0.3354999999999997,1.4250000000000007 0.3327999999999989,1.4246999999999979 0.3329999999999984,1.4294000000000011 0.33030000000000115,1.4280000000000008 0.329699999999999,1.432500000000001 0.33330000000000126,1.4399999999999977 0.33670000000000044,1.442499999999999 0.33640000000000114,1.447499999999998 0.3377999999999979,1.4494000000000007 0.33859999999999957,1.4468999999999994 0.34169999999999945,1.4492000000000012 0.3432999999999993,1.4480000000000004 0.3442000000000007,1.4522000000000013 0.346899999999998,1.4529999999999994 0.347999999999999,1.456900000000001 0.3689,1.4692000000000007 0.3796999999999997,1.4802999999999997 0.388300000000001,1.485599999999998 0.3886000000000003,1.4878 0.397199999999998,1.4969000000000001 0.39780000000000015,1.5028000000000006 0.4029999999999987,1.507200000000001 0.40530000000000044,1.5117000000000012 0.4238999999999997,1.5260999999999996 0.4342000000000006,1.5269000000000013 0.4346999999999994,1.5239000000000011 0.447499999999998,1.5260999999999996 0.45250000000000057,1.5244 0.454699999999999,1.5188999999999986 0.4574999999999996,1.5174999999999983 0.45919999999999916,1.5107999999999997 0.46440000000000126,1.5079999999999991 0.4692000000000007,1.4993999999999978 0.4753000000000007,1.498899999999999 0.4974999999999987,1.5018999999999991 0.5449999999999982,1.5159999999999982 0.5579999999999998,1.5215999999999994 0.5836000000000006,1.5347000000000008 0.6104999999999983,1.5547000000000004 0.6088999999999984,1.5639000000000003 0.6121999999999979,1.5740999999999978 0.6099999999999994,1.579699999999999 0.6146999999999991,1.5810999999999993 0.6278000000000006,1.5928000000000004 0.6369000000000007,1.6082999999999998 0.6388999999999996,1.6158000000000001 0.6454999999999984,1.622799999999998 0.6433,1.634999999999998 0.6449999999999996,1.6379999999999981 0.6438999999999986,1.6386000000000003 0.647199999999998,1.641099999999998 0.647199999999998,1.6468999999999987 0.6496999999999993,1.6492000000000004 0.6502999999999979,1.659399999999998 0.6536000000000008,1.664200000000001 0.6536000000000008,1.6705000000000005 0.6553000000000004,1.6738999999999997 0.6552000000000007,1.6828000000000003 0.6529999999999987,1.691399999999998 0.6541999999999994,1.6910999999999987 0.659399999999998,1.7025000000000006 0.6630000000000003,1.7060999999999993 0.6658000000000008,1.713000000000001 0.665499999999998,1.7161000000000008 0.6638999999999982,1.7164000000000001 0.6646999999999998,1.7199999999999989 0.6635999999999989,1.7199999999999989 0.6649999999999991,1.7318999999999996 0.6743999999999986,1.7483000000000004 0.6767000000000003,1.748899999999999 0.6774999999999984,1.7535999999999987 0.6960999999999977,1.7636000000000003 0.704699999999999,1.7697000000000003 0.7072000000000003,1.773299999999999 0.7110999999999983,1.7739000000000011 0.7127999999999979,1.7772000000000006 0.718,1.7805 0.7140999999999984,1.7760999999999996 0.7188999999999979,1.7786000000000008 0.7213999999999992,1.7824999999999989 0.7239000000000004,1.7830000000000013 0.7349999999999994,1.7941000000000003 0.7454999999999998,1.8088999999999977 0.745000000000001,1.8221999999999987 0.7467000000000006,1.8242000000000012 0.7471999999999994,1.8293999999999997 0.7460999999999984,1.8341999999999992 0.7507999999999981,1.8527999999999984 0.7502999999999993,1.8554999999999993 0.7552999999999983,1.8674999999999997 0.7627999999999986,1.8794000000000004 0.7613999999999983,1.8816999999999986 0.7624999999999993,1.884999999999998 0.7591000000000001,1.8886000000000003 0.7593999999999994,1.8954999999999984 0.7654999999999994,1.9158000000000008 0.7622,1.936399999999999 0.7617000000000012,1.9549999999999983 0.7657999999999987,1.9644000000000013 0.7668999999999997,1.972999999999999 0.7683,1.9739000000000004 0.7699999999999996,1.9838999999999984 0.7688999999999986,1.9875000000000007 0.7718999999999987,1.9910999999999994 0.7716999999999992,1.9939 0.7749999999999986,1.9924999999999997 0.7772000000000006,1.9954999999999998 0.7749999999999986,2.004999999999999 0.7819000000000003,2.0091 0.7864000000000004,2.0147000000000013 0.7925000000000004,2.0307999999999993 0.7996999999999979,2.036100000000001 0.8092000000000006,2.0486000000000004 0.8146999999999984,2.057199999999998 0.817499999999999,2.0653000000000006 0.817499999999999,2.0749999999999993 0.8153000000000006,2.079699999999999 0.810299999999998,2.0822000000000003 0.8085999999999984,2.0793999999999997 0.8010999999999981,2.0833000000000013 0.8033000000000001,2.0854999999999997 0.8021999999999991,2.093 0.8044000000000011,2.0996999999999986 0.8108000000000004,2.1088999999999984 0.8118999999999978,2.113299999999999 0.813600000000001,2.113599999999998 0.8129999999999988,2.115500000000001 0.8171999999999997,2.1252999999999993 0.8183000000000007,2.1332999999999984 0.8167000000000009,2.1355000000000004 0.8186,2.1374999999999993 0.8207999999999984,2.1372 0.8254999999999981,2.1271999999999984 0.831900000000001,2.1266999999999996 0.8507999999999996,2.1339000000000006 0.8597000000000001,2.1355000000000004 0.8635999999999981,2.138300000000001 0.8679999999999986,2.1386000000000003 0.891099999999998,2.1485999999999983 0.9063999999999979,2.161100000000001 0.9111000000000011,2.1632999999999996 0.932500000000001,2.185500000000001 0.9480000000000004,2.2049999999999983 0.9586000000000006,2.2253000000000007 0.9633000000000003,2.243299999999998 0.9638999999999989,2.264199999999999 0.9574999999999996,2.289200000000001 0.9499999999999993,2.3017000000000003 0.9429999999999978,2.3096999999999994 0.9342000000000006,2.316700000000001 0.9238999999999997,2.3214000000000006 0.915499999999998,2.3216 0.9055,2.3183000000000007 0.8994,2.3092000000000006 0.8949999999999996,2.3078000000000003 0.8947000000000003,2.3110999999999997 0.8992000000000004,2.316700000000001 0.8989000000000011,2.3216 0.9060999999999986,2.337799999999998 0.9111000000000011,2.3442000000000007 0.9161000000000001,2.3580000000000005 0.9193999999999996,2.357800000000001 0.9210999999999991,2.3604999999999983 0.9253,2.3625000000000007 0.9260999999999981,2.365500000000001 0.935299999999998,2.368299999999998 0.938600000000001,2.373000000000001 0.9416000000000011,2.3735999999999997 0.942499999999999,2.3778000000000006 0.9494000000000007,2.3835999999999977 0.9502999999999986,2.389199999999999 0.9536999999999978,2.3902 0.956900000000001,2.3954999999999984 0.9603000000000002,2.396699999999999 0.9617000000000004,2.4022000000000006 0.9694000000000003,2.4086 0.9741999999999997,2.4102999999999994 0.9814000000000007,2.419999999999998 0.9832999999999998,2.4274999999999984 0.9913999999999987,2.439399999999999 0.9899999999999984,2.444700000000001 0.9871999999999979,2.445499999999999 0.988900000000001,2.4497 0.9871999999999979,2.4563999999999986 0.9896999999999991,2.4633000000000003 1.0068999999999981,2.4804999999999993 1.008499999999998,2.4852999999999987 1.019400000000001,2.4985999999999997 1.0310999999999986,2.5215999999999994 1.0399999999999991,2.529399999999999 1.045300000000001,2.5413999999999994 1.0457999999999998,2.545300000000001 1.0432999999999986,2.5533 1.0385999999999989,2.5594 1.0588999999999977,2.5730000000000004 1.0782999999999987,2.5928000000000004 1.0960999999999999,2.607499999999998 1.1077999999999992,2.619699999999998 1.1102999999999987,2.6264000000000003 1.1166999999999998,2.6332999999999984 1.1174999999999997,2.6372 1.1243999999999996,2.6438999999999986 1.1260999999999992,2.6541999999999994 1.1313999999999993,2.6621999999999986 1.1319,2.6668999999999983 1.1346999999999987,2.6693999999999996 1.138,2.677199999999999 1.147499999999999,2.6875 1.153599999999999,2.703900000000001 1.1527999999999992,2.7104999999999997 1.1486,2.715799999999998 1.1391999999999989,2.7205000000000013 1.1404999999999994,2.7300000000000004 1.1349999999999998,2.7333 1.1303,2.7330000000000005 1.1290999999999993,2.734400000000001 1.129999999999999,2.7394 1.1455000000000002,2.751899999999999 1.1643999999999988,2.7575000000000003 1.1677999999999997,2.7668999999999997 1.1727999999999987,2.7697000000000003 1.1793999999999993,2.7775 1.1832999999999991,2.7864000000000004 1.1899999999999995,2.7913999999999994 1.1989,2.794999999999998 1.205,2.805299999999999 1.2042000000000002,2.8115999999999985 1.2093999999999987,2.817499999999999 1.210799999999999,2.8221999999999987 1.2138999999999989,2.823599999999999 1.2235999999999994,2.8432999999999993 1.2255000000000003,2.845299999999998 1.2274999999999991,2.844999999999999 1.2278000000000002,2.847200000000001 1.229099999999999,2.8475 1.2278000000000002,2.8527999999999984 1.2296999999999993,2.857800000000001 1.2402999999999995,2.859400000000001 1.2454999999999998,2.8628 1.2485999999999997,2.866699999999998 1.248899999999999,2.8705 1.2538999999999998,2.873000000000001 1.2543999999999986,2.8752999999999993 1.2571999999999992,2.875799999999998 1.2579999999999991,2.8813999999999993 1.2632999999999992,2.8855000000000004 1.263,2.891099999999998 1.2657999999999987,2.8961000000000006 1.2685999999999993,2.8992000000000004 1.272499999999999,2.900299999999998 1.2713999999999999,2.9041999999999994 1.2767,2.9057999999999993 1.279399999999999,2.9121999999999986 1.2832999999999988,2.914200000000001 1.2835999999999999,2.918599999999998 1.290799999999999,2.9224999999999994 1.2974999999999994,2.932199999999998 1.2982999999999993,2.9372000000000007 1.3033000000000001,2.9399999999999977 1.3099999999999987,2.960000000000001 1.322799999999999,2.9755000000000003 1.3241999999999994,2.9816000000000003 1.3324999999999996,2.985800000000001 1.3343999999999987,2.9892000000000003 1.3415999999999997,2.991900000000001 1.3514,3.0024999999999977 1.3585999999999991,3.0077999999999996 1.3636,3.016099999999998 1.3663999999999987,3.0305 1.3704999999999998,3.0382999999999996 1.3772000000000002,3.043599999999998 1.3878000000000004,3.0463999999999984 1.3907999999999987,3.050799999999999 1.3918999999999997,3.053000000000001 1.3910999999999998,3.0578000000000003 1.3874999999999993,3.0596999999999994 1.3829999999999991,3.056899999999999 1.3817000000000004,3.0527999999999977 1.3782999999999994,3.0493999999999986 1.3711000000000002,3.0474999999999994 1.3610999999999986,3.0394000000000005 1.3591999999999995,3.039999999999999 1.3605,3.0477999999999987 1.3591999999999995,3.0554999999999986 1.3629999999999995,3.061399999999999 1.3629999999999995,3.0686 1.368599999999999,3.0805000000000007 1.3693999999999988,3.085799999999999 1.3835999999999995,3.102499999999999 1.3813999999999993,3.107800000000001 1.3846999999999987,3.110800000000001 1.3872,3.1174999999999997 1.3952999999999989,3.122799999999998 1.3925,3.1282999999999994 1.3927999999999994,3.1388999999999996 1.3882999999999992,3.1430000000000007 1.3849999999999998,3.1492000000000004 1.3939000000000004,3.175799999999999 1.3979999999999997,3.1811000000000007 1.4004999999999992,3.1907999999999994 1.4047,3.197800000000001 1.4079999999999995,3.210000000000001 1.4004999999999992,3.2083000000000013 1.3904999999999994,3.2032999999999987 1.3829999999999991,3.1905 1.3727999999999998,3.1814 1.3668999999999993,3.1804999999999986 1.3636,3.1783 1.356399999999999,3.1777999999999977 1.3558000000000003,3.1724999999999994 1.3538999999999994,3.1708 1.3538999999999994,3.165800000000001 1.3582999999999998,3.1590999999999987 1.3591999999999995,3.1541999999999994 1.3571999999999989,3.1492000000000004 1.3516999999999992,3.148900000000001 1.3485999999999994,3.1363999999999983 1.3457999999999988,3.1343999999999994 1.3449999999999989,3.1294000000000004 1.3424999999999994,3.129200000000001 1.3440999999999992,3.1355000000000004 1.341899999999999,3.1369000000000007 1.3402999999999992,3.1355000000000004 1.3375000000000004,3.125799999999998 1.3335999999999988,3.1233000000000004 1.3332999999999995,3.129999999999999 1.334999999999999,3.1343999999999994 1.3414000000000001,3.1424999999999983 1.341899999999999,3.1499999999999986 1.3402999999999992,3.1519000000000013 1.3377999999999997,3.1519000000000013 1.33,3.144400000000001 1.3249999999999993,3.144199999999998 1.3224999999999998,3.142199999999999 1.3229999999999986,3.1377999999999986 1.3202999999999996,3.1355000000000004 1.3210999999999995,3.1311 1.3149999999999995,3.129999999999999 1.3149999999999995,3.1271999999999984 1.3110999999999997,3.122799999999998 1.3107999999999986,3.116900000000001 1.3035999999999994,3.102999999999998 1.2952999999999992,3.097200000000001 1.2838999999999992,3.094999999999999 1.2832999999999988,3.092500000000001 1.2767,3.086400000000001 1.2752999999999997,3.0871999999999993 1.2707999999999995,3.0854999999999997 1.2685999999999993,3.09 1.2693999999999992,3.094100000000001 1.2579999999999991,3.0883000000000003 1.2579999999999991,3.0854999999999997 1.2553,3.0854999999999997 1.2482999999999986,3.075800000000001 1.2416999999999998,3.0610999999999997 1.2327999999999992,3.0594 1.2266999999999992,3.0519 1.2241999999999997,3.043599999999998 1.2213999999999992,3.0418999999999983 1.2204999999999995,3.0357999999999983 1.2157999999999998,3.0330000000000013 1.2093999999999987,3.0242000000000004 1.2096999999999998,3.020299999999999 1.2066,3.0150000000000006 1.2066,3.0091 1.203899999999999,3.005499999999998 1.205,3.000499999999999 1.1991999999999994,2.997799999999998 1.1999999999999993,2.994399999999999 1.1979999999999986,2.991900000000001 1.1966999999999999,2.9715999999999987 1.1918999999999986,2.9654999999999987 1.1889000000000003,2.9558 1.1885999999999992,2.945499999999999 1.1815999999999995,2.936899999999998 1.1807999999999996,2.931899999999999 1.1818999999999988,2.9297000000000004 1.1793999999999993,2.9304999999999986 1.1746999999999996,2.9277999999999977 1.1702999999999992,2.9222 1.17,2.917200000000001 1.1674999999999986,2.9161 1.1663999999999994,2.9132999999999996 1.149099999999999,2.903600000000001 1.1486,2.901399999999999 1.1616999999999997,2.8903 1.1618999999999993,2.8877999999999986 1.1585999999999999,2.886099999999999 1.1574999999999989,2.8888999999999996 1.1592000000000002,2.8900000000000006 1.1557999999999993,2.8904999999999994 1.1574999999999989,2.8924999999999983 1.1466999999999992,2.9010999999999996 1.1404999999999994,2.8964 1.1382999999999992,2.892199999999999 1.1382999999999992,2.8869000000000007 1.1346999999999987,2.8841 1.1296999999999997,2.875 1.125,2.8710999999999984 1.1232999999999986,2.8674999999999997 1.1242,2.8604999999999983 1.1207999999999991,2.8568999999999996 1.1166999999999998,2.862199999999998 1.112499999999999,2.8628 1.1089000000000002,2.8611000000000004 1.1036000000000001,2.863900000000001 1.0982999999999983,2.8721999999999994 1.0977999999999994,2.875499999999999 1.0993999999999993,2.879999999999999 1.1166999999999998,2.8994 1.1207999999999991,2.910499999999999 1.1374999999999993,2.921099999999999 1.1460999999999988,2.931899999999999 1.1478000000000002,2.937999999999999 1.1457999999999995,2.9499999999999993 1.1488999999999994,2.9574999999999996 1.1608,2.963899999999999 1.1716999999999995,2.972999999999999 1.1815999999999995,2.9879999999999995 1.1838999999999995,2.994699999999998 1.1796999999999986,2.9974999999999987 1.1796999999999986,3.001100000000001 1.1815999999999995,3.003 1.1818999999999988,3.0077999999999996 1.1857999999999986,3.016400000000001 1.187199999999999,3.0168999999999997 1.1885999999999992,3.0279999999999987 1.2007999999999992,3.049199999999999 1.2218999999999998,3.070499999999999 1.2271999999999998,3.0738999999999983 1.2640999999999991,3.1191999999999993 1.2721999999999998,3.126100000000001 1.2842000000000002,3.1313999999999993 1.2977999999999987,3.142800000000001 1.2994000000000003,3.1468999999999987 1.3021999999999991,3.148299999999999 1.3004999999999995,3.1529999999999987 1.3094000000000001,3.1569000000000003 1.3129999999999988,3.1569000000000003 1.3157999999999994,3.1602999999999994 1.322799999999999,3.163899999999998 1.323599999999999,3.1663999999999994 1.3269000000000002,3.1661 1.328899999999999,3.1691000000000003 1.3354999999999997,3.1727999999999987 1.3415999999999997,3.1798 1.3468999999999998,3.1814 1.3643999999999998,3.1921999999999997 1.371599999999999,3.194399999999998 1.3817000000000004,3.2011000000000003 1.4029999999999987,3.2103 1.4041999999999994,3.2121999999999993 1.4074999999999989,3.2121999999999993 1.4082999999999988,3.213899999999999 1.4185999999999996,3.216899999999999 1.4215999999999998,3.219999999999999 1.4253,3.220299999999998 1.4438999999999993,3.2293999999999983 1.4489,3.2354999999999983 1.4511000000000003,3.2352999999999987 1.4604999999999997,3.241900000000001 1.4747000000000003,3.2483000000000004 1.478299999999999,3.2521999999999984 1.4818999999999996,3.2528000000000006 1.4847000000000001,3.2577999999999996 1.4878,3.2582999999999984 1.496599999999999,3.266400000000001 1.505799999999999,3.269400000000001 1.5091999999999999,3.2735999999999983 1.5124999999999993,3.2744 1.5244,3.2882999999999996 1.528599999999999,3.2958 1.5267,3.3038999999999987 1.5218999999999987,3.304400000000001 1.5210999999999988,3.3061000000000007 1.5271999999999988,3.3188999999999993 1.5319000000000003,3.3247 1.5391999999999992,3.328900000000001 1.543899999999999,3.3291000000000004 1.5466999999999995,3.332799999999999 1.5503,3.3329999999999984 1.561399999999999,3.3435999999999986 1.5704999999999991,3.3493999999999993 1.5827999999999989,3.3649999999999984 1.5838999999999999,3.3674999999999997 1.5830000000000002,3.373000000000001 1.5846999999999998,3.3752999999999993 1.5936000000000003,3.379999999999999 1.597999999999999,3.3843999999999994 1.6018999999999988,3.384999999999998 1.6105,3.3949999999999996 1.6189,3.4010999999999996 1.6203000000000003,3.405000000000001 1.629199999999999,3.4163999999999994 1.6399999999999988,3.4250000000000007 1.6585999999999999,3.4452999999999996 1.6783000000000001,3.4603 1.6799999999999997,3.463899999999999 1.6877999999999993,3.471399999999999 1.6960999999999995,3.476099999999999 1.6971999999999987,3.4786 1.7116999999999987,3.4892000000000003 1.716099999999999,3.4899999999999984 1.725299999999999,3.4960999999999984 1.7339000000000002,3.499399999999998 1.734399999999999,3.501899999999999 1.736699999999999,3.5016999999999996 1.742799999999999,3.5066999999999986 1.7636000000000003,3.5265999999999984 1.7728000000000002,3.5321999999999996 1.7852999999999994,3.5458 1.7921999999999993,3.557199999999998 1.8094000000000001,3.573599999999999 1.8171999999999997,3.5854999999999997 1.8274999999999988,3.5961 1.8335999999999988,3.6064000000000007 1.8407999999999998,3.6144 1.841099999999999,3.617799999999999 1.8493999999999993,3.6313999999999993 1.8660999999999994,3.6508000000000003 1.8774999999999995,3.660499999999999 1.8838999999999988,3.6705000000000005 1.892199999999999,3.676400000000001 1.8978000000000002,3.6783 1.9002999999999997,3.683 1.9079999999999995,3.6896999999999984 1.9196999999999989,3.6966 1.9383,3.7192000000000007 1.9503000000000004,3.7239000000000004 1.9552999999999994,3.7291999999999987 1.9611,3.732499999999998 1.9771999999999998,3.738299999999999 1.9810999999999996,3.7402999999999977 1.9810999999999996,3.741699999999998 1.9890999999999988,3.741900000000001 1.9918999999999993,3.745000000000001 2.0,3.7460999999999984 2.0077999999999996,3.750499999999999 2.0183,3.753 2.0191999999999997,3.7546999999999997 2.0218999999999987,3.753899999999998 2.0336,3.7591 2.0366,3.7585999999999977 2.0363999999999987,3.759999999999998 2.049999999999999,3.7624999999999993 2.0535999999999994,3.766099999999998 2.0572,3.766099999999998 2.0617,3.769400000000001 2.066699999999999,3.770299999999999 2.0668999999999986,3.7718999999999987 2.0700000000000003,3.7718999999999987 2.0816999999999997,3.779399999999999 2.0832999999999995,3.7789 2.084199999999999,3.7810999999999986 2.0861,3.7805 2.0922,3.7871999999999986 2.094999999999999,3.7878000000000007 2.0988999999999987,3.7916999999999987 2.0999999999999996,3.7963999999999984 2.1038999999999994,3.801400000000001 2.103299999999999,3.8155 2.1110999999999986,3.823599999999999 2.1136,3.828900000000001 2.1138999999999992,3.8343999999999987 2.1163999999999987,3.8390999999999984 2.118599999999999,3.8613999999999997 2.1319,3.8703000000000003 2.136899999999999,3.8710999999999984 2.1427999999999994,3.875 2.1464,3.875 2.16,3.8813999999999993 2.1814,3.8978 2.1979999999999986,3.9132999999999996 2.211599999999999,3.9208 2.2227999999999994,3.932199999999998 2.2217000000000002,3.936899999999998 2.2235999999999994,3.9407999999999994 2.2227999999999994,3.9441999999999986 2.2204999999999995,3.9452999999999996 2.2217000000000002,3.945499999999999 2.221399999999999,3.949200000000001 2.2235999999999994,3.9497 2.2203,3.954699999999999 2.2211,3.965 2.2174999999999994,3.971399999999999 2.2196999999999996,3.9753000000000007 2.2196999999999996,3.982499999999998 2.222999999999999,3.9894 2.2227999999999994,3.9990999999999985 2.2310999999999996,4.019400000000001 2.2302999999999997,4.025500000000001 2.2337999999999987,4.038599999999999 2.2461,4.059200000000001 2.2463999999999995,4.065300000000001 2.2532999999999994,4.074400000000001 2.257999999999999,4.095299999999998 2.2644,4.103899999999999 2.2644,4.1080000000000005 2.2667,4.110299999999999 2.2667,4.1144 2.2685999999999993,4.116900000000001 2.267999999999999,4.119199999999999 2.272499999999999,4.126100000000001 2.2746999999999993,4.137499999999999 2.2768999999999995,4.1386 2.2746999999999993,4.142199999999999 2.2750000000000004,4.160499999999999 2.271699999999999,4.1739 2.273299999999999,4.175000000000001 2.273299999999999,4.187799999999999 2.2752999999999997,4.194199999999999 2.2789,4.197499999999998 2.2807999999999993,4.2058 2.279399999999999,4.215299999999999 2.281699999999999,4.2194 2.282499999999999,4.226399999999998 2.281699999999999,4.237500000000001 2.2832999999999988,4.2429999999999986 2.2821999999999996,4.2517 2.2860999999999994,4.2697 2.2860999999999994,4.280000000000001 2.284699999999999,4.287499999999998 2.2799999999999994,4.293900000000001 2.276399999999999,4.3047 2.2638999999999996,4.312200000000001 2.263299999999999,4.318899999999999 2.267999999999999,4.3308 2.267199999999999,4.335799999999999 2.2653,4.338000000000001 2.2644,4.347999999999999 2.2593999999999994,4.355799999999999 2.2607999999999997,4.360800000000001 2.2657999999999987,4.367799999999999 2.2657999999999987,4.378299999999999 2.2675,4.381399999999999 2.2683,4.3919 2.2677999999999994,4.398900000000001 2.2657999999999987,4.401399999999999 2.2624999999999993,4.4191 2.2604999999999986,4.421900000000001 2.2596999999999987,4.437799999999999 2.2622,4.4453 2.2667,4.451699999999999 2.2721999999999998,4.468899999999998 2.276399999999999,4.473600000000001 2.279399999999999,4.4833 2.2805999999999997,4.4953 2.277799999999999,4.508299999999998 2.276399999999999,4.5091 2.2767,4.5261 2.2807999999999993,4.5305 2.2819000000000003,4.534700000000001 2.2927999999999997,4.552499999999998 2.290799999999999,4.567999999999998 2.295,4.571099999999998 2.300799999999999,4.579999999999998 2.3118999999999996,4.604199999999999 2.3104999999999993,4.626100000000001 2.3179999999999996,4.6494 2.3279999999999994,4.660499999999999 2.3293999999999997,4.668599999999998 2.3385999999999996,4.679400000000001 2.3438999999999997,4.688600000000001 2.3477999999999994,4.690799999999999 2.3554999999999993,4.700800000000001 2.3703000000000003,4.7136 2.3766,4.7255 2.3843999999999994,4.7330000000000005 2.398299999999999,4.761700000000001 2.407499999999999,4.774999999999999 2.4163999999999994,4.800000000000001 2.419699999999999,4.814399999999999 2.42,4.820799999999998 2.4183000000000003,4.825800000000001 2.4204999999999988,4.843299999999999 2.418899999999999,4.8491 2.4253,4.8568999999999996 2.4299999999999997,4.866399999999999 2.431099999999999,4.875799999999998 2.4296999999999986,4.878 2.4322,4.8797 2.440299999999999,4.895499999999998 2.440299999999999,4.9039 2.443299999999999,4.912199999999999 2.443299999999999,4.921599999999998 2.4490999999999996,4.938600000000001 2.4536,4.944700000000001 2.4593999999999987,4.965799999999998 2.462999999999999,4.971399999999999 2.466899999999999,4.9878 2.4677999999999987,4.9990999999999985 2.4718999999999998,5.0047 2.4796999999999993,5.007999999999999 2.4908,5.016099999999998 2.4955,5.023900000000001 2.5063999999999993,5.034399999999998 2.5191,5.0564 2.5380000000000003,5.077999999999999 2.546099999999999,5.101399999999998 2.563599999999999,5.125499999999999 2.5721999999999987,5.142800000000001 2.5755,5.1464 2.5790999999999986,5.167200000000001 2.5885999999999996,5.1767 2.5961,5.2014 2.6018999999999988,5.207799999999999 2.6068999999999996,5.2178 2.609399999999999,5.226700000000001 2.6102999999999987,5.2394 2.612499999999999,5.245000000000001 2.6121999999999996,5.253599999999999 2.6174999999999997,5.266400000000001 2.615499999999999,5.2803 2.6163999999999987,5.292200000000001 2.6152999999999995,5.299699999999998 2.617799999999999,5.3078 2.619399999999999,5.324400000000001 2.6158,5.338000000000001 2.6077999999999992,5.352499999999999 2.6044,5.352999999999998 2.6052999999999997,5.355799999999999 2.6036,5.3583 2.608599999999999,5.364999999999998 2.6182999999999996,5.3841 2.6224999999999987,5.396699999999999 2.625499999999999,5.3978 2.6311,5.411100000000001 2.6441,5.425799999999999 2.6624999999999996,5.451899999999998 2.6663999999999994,5.4544 2.6763999999999992,5.468599999999999 2.683,5.471899999999998 2.6860999999999997,5.476399999999998 2.6883,5.476399999999998 2.691699999999999,5.480799999999999 2.693299999999999,5.480799999999999 2.7019,5.4929999999999986 2.7093999999999987,5.4955 2.7413999999999987,5.498000000000001 2.7775,5.507200000000001 2.7927999999999997,5.515499999999999 2.7929999999999993,5.518599999999999 2.807499999999999,5.531399999999998 2.823599999999999,5.541699999999999 2.825799999999999,5.541699999999999 2.8597,5.5669 2.8743999999999996,5.5883 2.8843999999999994,5.595299999999998 2.886099999999999,5.5991 2.9000000000000004,5.6129999999999995 2.9102999999999994,5.632999999999999 2.9132999999999996,5.637799999999999 2.9153000000000002,5.638300000000001 2.9163999999999994,5.645800000000001 2.9224999999999994,5.655000000000001 2.9314,5.657799999999998 2.9482999999999997,5.6555 2.9635999999999996,5.6555 2.9974999999999987,5.659399999999998 3.0246999999999993,5.664999999999999 3.0694,5.6769 3.0769,5.681100000000001 3.0854999999999997,5.6828 3.1007999999999996,5.6889 3.1167,5.697800000000001 3.127799999999999,5.7011 3.1333,5.704699999999999 3.135,5.707799999999999 3.1439000000000004,5.712799999999998 3.1549999999999994,5.7241 3.166599999999999,5.7303 3.1740999999999993,5.7378 3.181099999999999,5.741099999999999 3.1857999999999986,5.745799999999999 3.202499999999999,5.754999999999999 3.210799999999999,5.757200000000001 3.2394,5.7714 3.2583,5.7867 3.278599999999999,5.793900000000001 3.2942,5.803899999999999 3.3117,5.8111 3.3286,5.822499999999998 3.337999999999999,5.8247 3.3637999999999995,5.84 3.382199999999999,5.848299999999998 3.427999999999999,5.876100000000001 3.4886,5.919699999999999 3.5342000000000002,5.964700000000001 3.5429999999999993,5.976399999999998 3.5442,5.9816 3.5465999999999998,5.983599999999999 3.5503,5.991900000000001 3.5578000000000003,6.000499999999999 3.559099999999999,6.0075 3.564399999999999,6.013300000000001 3.563599999999999,6.0166 3.572799999999999,6.027200000000001 3.5771999999999995,6.037199999999999 3.579699999999999,6.0517 3.588899999999999,6.066600000000001 3.6067,6.1036 3.6089,6.1129999999999995 3.619399999999999,6.140000000000001 3.6197,6.1433 3.6168999999999993,6.145299999999999 3.6168999999999993,6.147500000000001 3.619399999999999,6.155000000000001 3.626899999999999,6.167999999999999 3.6325000000000003,6.191399999999998 3.6407999999999987,6.207799999999999 3.644399999999999,6.2194 3.664999999999999,6.259699999999999 3.6753,6.285799999999998 3.6732999999999993,6.288 3.6622000000000003,6.291399999999999 3.6608,6.2902999999999984 3.6579999999999995,6.2928 3.6478,6.2958 3.647499999999999,6.293299999999999 3.6455,6.293599999999998 3.645299999999999,6.296900000000001 3.6738999999999997,6.289200000000001 3.677999999999999,6.299399999999999 3.6799999999999997,6.300000000000001 3.6849999999999987,6.308 3.6875,6.316099999999999 3.6854999999999993,6.325499999999998 3.6814,6.3264 3.6791,6.323599999999999 3.675799999999999,6.325299999999999 3.675799999999999,6.323 3.6735999999999986,6.322800000000001 3.6724999999999994,6.320499999999999 3.6724999999999994,6.327200000000001 3.683,6.3278 3.688599999999999,6.3414 3.6897,6.357499999999998 3.6971999999999987,6.383299999999998 3.6958,6.387799999999999 3.6967,6.395499999999998 3.704699999999999,6.4041999999999994 3.7174999999999994,6.422499999999999 3.7177999999999987,6.4269 3.729099999999999,6.4419 3.7329999999999988,6.4544 3.745799999999999,6.4755 3.7563999999999993,6.490500000000001 3.7691,6.502499999999998 3.7821999999999996,6.521100000000001 3.8004999999999995,6.554099999999998 3.8027999999999995,6.565300000000001 3.8046999999999986,6.5672 3.8038999999999987,6.574400000000001 3.8147,6.587499999999999 3.824399999999999,6.6068999999999996 3.8282999999999987,6.6159 3.830499999999999,6.6294 3.832799999999999,6.6328 3.8348999999999993,6.642499999999998 3.8415999999999997,6.656700000000001 3.8468999999999998,6.6736 3.8689,6.723600000000001 3.875499999999999,6.734999999999999 3.8789,6.754200000000001 3.886099999999999,6.776399999999999 3.8864,6.784399999999998 3.895299999999999,6.798300000000001 3.900499999999999,6.811899999999998 3.902199999999999,6.820799999999998 3.9018999999999995,6.830500000000001 3.9078,6.8475 3.907499999999999,6.852499999999999 3.913599999999999,6.8644 3.9202999999999992,6.8733 3.9346999999999994,6.9041 3.937999999999999,6.9069 3.9383,6.913499999999999 8.4354,6.900500000000001 8.4333,6.8383 8.434099999999999,6.677499999999998 8.4315,6.528500000000001 8.4329,6.518699999999999 8.431999999999999,6.438399999999998 8.4343,6.3568999999999996 8.4324,6.2761 8.433399999999999,5.534800000000001 8.431199999999999,5.227999999999998 8.1264,5.2273 7.8216,5.229700000000001 7.6183,5.228300000000001 7.542499999999999,5.2303999999999995 7.4193999999999996,5.227899999999998 7.4084,5.229399999999998 7.2173,5.228099999999998 6.887499999999999,5.2301 6.731299999999999,5.229099999999999 6.4192,5.2303999999999995 6.264099999999999,5.228899999999999 5.1015,5.228999999999999 5.100399999999999,5.093499999999999 5.102,4.959599999999998 5.0991,4.0169999999999995 5.102399999999999,3.7437000000000005 5.1005,3.608999999999998 5.102399999999999,3.4697999999999993 5.1015,3.3355999999999995 5.1053999999999995,3.2303999999999995 5.1053999999999995,2.684899999999999 5.067499999999999,2.6781000000000006 5.029299999999999,2.674699999999998 4.9809,2.6744999999999983 4.903699999999999,2.664999999999999 4.7957,2.6584000000000003 4.734999999999999,2.6519000000000013 4.636699999999999,2.645199999999999 4.365,2.6217000000000006 4.345599999999999,2.6179999999999986 4.3376,2.6140000000000008 4.3316,2.6080000000000005 4.329799999999999,2.6098 4.298299999999999,2.5920999999999985 4.2805,2.5799999999999983 4.254999999999999,2.5593000000000004 4.2134,2.5165000000000006 4.2066,2.5128999999999984 4.148299999999999,2.4435000000000002 4.0868,2.3573999999999984 4.059799999999999,2.313600000000001 4.0465,2.288899999999998 4.020199999999999,2.224899999999998 3.9671000000000003,2.0167 3.960699999999999,1.9824999999999982 3.9596999999999998,1.9618000000000002 3.9673999999999996,1.878899999999998 3.9712999999999994,1.8582 3.9768999999999988,1.7880000000000003 3.9992,1.5660999999999987 4.013299999999999,1.4397999999999982 4.0214,1.345399999999998 4.0252,1.321200000000001 4.0419,1.1594999999999978 4.0471,1.1041999999999987 4.046299999999999,1.0904999999999987 4.0489,1.084299999999999 4.050599999999999,1.0703999999999994 4.049899999999999,1.0504999999999995 4.052399999999999,1.0448999999999984 4.061,0.9602000000000004 4.0604,0.9399999999999977 4.0634,0.9329999999999998 4.0739,0.8231999999999999 4.0809,0.7724000000000011 4.080599999999999,0.7516999999999996 4.081899999999999,0.7487999999999992 "></polygon>
    </svg>
    