<?xml version="1.0" encoding="UTF-8"?><svg id="Ebene_2" xmlns="http://www.w3.org/2000/svg" viewBox="0 0 1415.81 341.32"><defs><style>.cls-1{fill:#7dc9ff;}</style></defs><g id="Ebene_2-2"><g><path class="cls-1" d="M1313.56,341.16c-17.6,0-39.46-3.06-69.21-9.41l14.23-66.71c12.59,2.69,50.91,10.86,65.91,6.79,3.34-.91,5.7-2.12,15.2-16.53,12.63-19.14,8.15-42.52,.21-51.37-3.45-3.85-5.16-4.59-18.29-7.95-11.6-2.97-27.49-7.03-47.69-17.32-24.26-12.36-38.94-23.49-49.09-37.22-13.01-17.6-17.24-38.66-12.58-62.59,5.35-27.48,18.37-48.31,38.68-61.91,25.45-17.04,60.89-21.13,105.34-12.18l-13.47,66.86c-24.88-5.01-44.54-4.28-53.93,2-3.27,2.19-7.32,6.24-9.66,18.26-1.29,6.62-.22,8.06,.48,9.01,2.24,3.04,8.44,8.45,25.2,16.99,13.46,6.86,23.71,9.48,33.62,12.01,16.19,4.14,34.54,8.83,52.17,28.49,14.66,16.35,23.52,38.83,24.94,63.3,1.46,25.14-5.29,50.42-19,71.19-9.62,14.57-24.15,36.59-54.24,44.77-8.55,2.32-17.86,3.51-28.82,3.51Z"/><g><rect class="cls-1" x="932" y=".16" width="80" height="341"/><g><rect class="cls-1" x="1005" y="-71.84" width="80" height="224" transform="translate(1004.84 1085.16) rotate(-90)"/><rect class="cls-1" x="1004" y="58.16" width="80" height="224" transform="translate(873.84 1214.16) rotate(-90)"/><rect class="cls-1" x="1004" y="189.16" width="80" height="224" transform="translate(742.84 1345.16) rotate(-90)"/></g></g><g><rect class="cls-1" x="717" y=".16" width="80" height="341"/><rect class="cls-1" x="717.5" y="-90.34" width="80" height="261" transform="translate(717.35 797.66) rotate(-90)"/></g><g><rect class="cls-1" y=".16" width="80" height="341"/><rect class="cls-1" x="185" y=".16" width="80" height="341"/><rect class="cls-1" x="92.73" y="-3.31" width="80" height="347.93" transform="translate(-67.55 89.23) rotate(-30)"/></g><path class="cls-1" d="M456.5,.16c-94.16,0-170.5,76.34-170.5,170.5s76.34,170.5,170.5,170.5,170.5-76.34,170.5-170.5S550.66,.16,456.5,.16Zm0,260c-49.43,0-89.5-40.07-89.5-89.5s40.07-89.5,89.5-89.5,89.5,40.07,89.5,89.5-40.07,89.5-89.5,89.5Z"/></g></g></svg>